0, 0, Header, 1, 1, 192
1, 0, Start_track
1, 0, Title_t, "Melody"
1, 0, Tempo, 196078
1, 0, Key_signature, -1, "major"
1, 0, Time_signature, 4, 2, 24, 8
1, 4128, Note_on_c, 0, 70, 114
1, 4235, Note_off_c, 0, 70, 114
1, 4246, Note_on_c, 0, 69, 123
1, 4357, Note_off_c, 0, 69, 123
1, 4368, Note_on_c, 0, 68, 118
1, 4467, Note_off_c, 0, 68, 118
1, 4474, Note_on_c, 0, 65, 95
1, 4523, Note_off_c, 0, 65, 95
1, 4532, Note_on_c, 0, 67, 118
1, 4631, Note_off_c, 0, 67, 118
1, 4642, Note_on_c, 0, 64, 111
1, 4733, Note_off_c, 0, 64, 111
1, 4740, Note_on_c, 0, 63, 106
1, 4811, Note_off_c, 0, 63, 106
1, 4838, Note_on_c, 0, 62, 113
1, 4917, Note_off_c, 0, 62, 113
1, 4924, Note_on_c, 0, 59, 107
1, 5015, Note_off_c, 0, 59, 107
1, 5026, Note_on_c, 0, 60, 113
1, 5109, Note_off_c, 0, 60, 113
1, 5116, Note_on_c, 0, 61, 110
1, 5207, Note_off_c, 0, 61, 110
1, 5218, Note_on_c, 0, 64, 116
1, 5325, Note_off_c, 0, 64, 116
1, 5328, Note_on_c, 0, 61, 113
1, 5411, Note_off_c, 0, 61, 113
1, 5430, Note_on_c, 0, 60, 116
1, 5561, Note_off_c, 0, 60, 116
1, 5576, Note_on_c, 0, 59, 106
1, 5663, Note_off_c, 0, 59, 106
1, 5750, Note_on_c, 0, 58, 114
1, 5861, Note_off_c, 0, 58, 114
1, 5920, Note_on_c, 0, 57, 105
1, 6019, Note_off_c, 0, 57, 105
1, 6098, Note_on_c, 0, 56, 96
1, 6277, Note_off_c, 0, 56, 96
1, 6396, Note_on_c, 0, 58, 109
1, 6499, Note_off_c, 0, 58, 109
1, 6568, Note_on_c, 0, 60, 112
1, 6683, Note_off_c, 0, 60, 112
1, 6866, Note_on_c, 0, 61, 111
1, 7027, Note_off_c, 0, 61, 111
1, 7230, Note_on_c, 0, 58, 114
1, 7346, Note_off_c, 0, 58, 114
1, 7360, Note_on_c, 0, 57, 115
1, 7470, Note_off_c, 0, 57, 115
1, 7484, Note_on_c, 0, 56, 110
1, 7555, Note_off_c, 0, 56, 110
1, 7590, Note_on_c, 0, 52, 110
1, 7641, Note_off_c, 0, 52, 110
1, 7668, Note_on_c, 0, 55, 109
1, 7829, Note_off_c, 0, 55, 109
1, 7844, Note_on_c, 0, 56, 105
1, 7977, Note_off_c, 0, 56, 105
1, 8044, Note_on_c, 0, 58, 116
1, 8235, Note_off_c, 0, 58, 116
1, 8248, Note_on_c, 0, 51, 102
1, 8341, Note_off_c, 0, 51, 102
1, 8353, Note_on_c, 0, 60, 115
1, 8460, Note_off_c, 0, 60, 115
1, 8539, Note_on_c, 0, 61, 104
1, 8642, Note_off_c, 0, 61, 104
1, 8721, Note_on_c, 0, 63, 115
1, 8852, Note_off_c, 0, 63, 115
1, 8875, Note_on_c, 0, 62, 102
1, 8946, Note_off_c, 0, 62, 102
1, 9113, Note_on_c, 0, 56, 113
1, 9210, Note_off_c, 0, 56, 113
1, 9227, Note_on_c, 0, 55, 104
1, 9378, Note_off_c, 0, 55, 104
1, 9405, Note_on_c, 0, 56, 99
1, 9508, Note_off_c, 0, 56, 99
1, 9579, Note_on_c, 0, 65, 115
1, 9770, Note_off_c, 0, 65, 115
1, 9789, Note_on_c, 0, 67, 118
1, 9904, Note_off_c, 0, 67, 118
1, 9991, Note_on_c, 0, 68, 118
1, 10118, Note_off_c, 0, 68, 118
1, 10297, Note_on_c, 0, 67, 118
1, 10398, Note_off_c, 0, 67, 118
1, 10497, Note_on_c, 0, 66, 120
1, 10592, Note_off_c, 0, 66, 120
1, 10601, Note_on_c, 0, 65, 113
1, 10696, Note_off_c, 0, 65, 113
1, 10723, Note_on_c, 0, 62, 93
1, 10794, Note_off_c, 0, 62, 93
1, 10797, Note_on_c, 0, 64, 115
1, 10940, Note_off_c, 0, 64, 115
1, 10973, Note_on_c, 0, 65, 114
1, 11148, Note_off_c, 0, 65, 114
1, 11373, Note_on_c, 0, 67, 119
1, 11512, Note_off_c, 0, 67, 119
1, 12063, Note_on_c, 0, 65, 116
1, 12174, Note_off_c, 0, 65, 116
1, 12179, Note_on_c, 0, 64, 111
1, 12252, Note_off_c, 0, 64, 111
1, 12359, Note_on_c, 0, 63, 117
1, 12658, Note_off_c, 0, 63, 117
1, 12681, Note_on_c, 0, 60, 100
1, 12778, Note_off_c, 0, 60, 100
1, 12861, Note_on_c, 0, 65, 112
1, 13118, Note_off_c, 0, 65, 112
1, 13149, Note_on_c, 0, 68, 115
1, 13288, Note_off_c, 0, 68, 115
1, 13367, Note_on_c, 0, 63, 107
1, 13490, Note_off_c, 0, 63, 107
1, 13561, Note_on_c, 0, 62, 112
1, 13804, Note_off_c, 0, 62, 112
1, 13855, Note_on_c, 0, 63, 117
1, 13954, Note_off_c, 0, 63, 117
1, 14031, Note_on_c, 0, 65, 113
1, 14132, Note_off_c, 0, 65, 113
1, 14221, Note_on_c, 0, 58, 91
1, 14326, Note_off_c, 0, 58, 91
1, 14339, Note_on_c, 0, 67, 115
1, 14526, Note_off_c, 0, 67, 115
1, 14537, Note_on_c, 0, 68, 112
1, 14708, Note_off_c, 0, 68, 112
1, 14719, Note_on_c, 0, 70, 114
1, 14906, Note_off_c, 0, 70, 114
1, 14917, Note_on_c, 0, 63, 98
1, 15108, Note_off_c, 0, 63, 98
1, 15773, Note_on_c, 0, 63, 116
1, 15868, Note_off_c, 0, 63, 116
1, 15961, Note_on_c, 0, 60, 110
1, 16064, Note_off_c, 0, 60, 110
1, 16067, Note_on_c, 0, 57, 101
1, 16162, Note_off_c, 0, 57, 101
1, 16177, Note_on_c, 0, 55, 98
1, 16256, Note_off_c, 0, 55, 98
1, 16275, Note_on_c, 0, 54, 94
1, 16326, Note_off_c, 0, 54, 94
1, 16351, Note_on_c, 0, 63, 116
1, 16468, Note_off_c, 0, 63, 116
1, 16479, Note_on_c, 0, 60, 99
1, 16538, Note_off_c, 0, 60, 99
1, 16551, Note_on_c, 0, 61, 89
1, 16626, Note_off_c, 0, 61, 89
1, 16655, Note_on_c, 0, 62, 102
1, 16738, Note_off_c, 0, 62, 102
1, 16757, Note_on_c, 0, 61, 113
1, 16852, Note_off_c, 0, 61, 113
1, 16855, Note_on_c, 0, 60, 108
1, 16954, Note_off_c, 0, 60, 108
1, 16973, Note_on_c, 0, 55, 94
1, 17014, Note_off_c, 0, 55, 94
1, 17043, Note_on_c, 0, 59, 93
1, 17118, Note_off_c, 0, 59, 93
1, 17118, Note_on_c, 0, 64, 118
1, 17253, Note_off_c, 0, 64, 118
1, 17272, Note_on_c, 0, 63, 110
1, 17395, Note_off_c, 0, 63, 110
1, 17434, Note_on_c, 0, 62, 109
1, 17531, Note_off_c, 0, 62, 109
1, 17542, Note_on_c, 0, 59, 102
1, 17595, Note_off_c, 0, 59, 102
1, 17622, Note_on_c, 0, 55, 99
1, 17725, Note_off_c, 0, 55, 99
1, 17740, Note_on_c, 0, 54, 106
1, 17839, Note_off_c, 0, 54, 106
1, 17854, Note_on_c, 0, 53, 109
1, 17957, Note_off_c, 0, 53, 109
1, 18020, Note_on_c, 0, 52, 99
1, 18299, Note_off_c, 0, 52, 99
1, 18314, Note_on_c, 0, 54, 107
1, 18573, Note_off_c, 0, 54, 107
1, 18588, Note_on_c, 0, 55, 109
1, 18815, Note_off_c, 0, 55, 109
1, 18856, Note_on_c, 0, 57, 110
1, 18935, Note_off_c, 0, 57, 110
1, 18968, Note_on_c, 0, 59, 101
1, 19139, Note_off_c, 0, 59, 101
1, 19164, Note_on_c, 0, 60, 104
1, 19327, Note_off_c, 0, 60, 104
1, 19340, Note_on_c, 0, 62, 118
1, 19499, Note_off_c, 0, 62, 118
1, 19522, Note_on_c, 0, 64, 117
1, 19637, Note_off_c, 0, 64, 117
1, 19716, Note_on_c, 0, 65, 117
1, 19779, Note_off_c, 0, 65, 117
1, 19806, Note_on_c, 0, 66, 112
1, 19975, Note_off_c, 0, 66, 112
1, 20060, Note_on_c, 0, 62, 101
1, 20287, Note_off_c, 0, 62, 101
1, 20334, Note_on_c, 0, 59, 96
1, 20415, Note_off_c, 0, 59, 96
1, 20434, Note_on_c, 0, 58, 91
1, 20561, Note_off_c, 0, 58, 91
1, 20578, Note_on_c, 0, 59, 92
1, 20627, Note_off_c, 0, 59, 92
1, 20874, Note_on_c, 0, 62, 116
1, 20997, Note_off_c, 0, 62, 116
1, 21084, Note_on_c, 0, 66, 116
1, 21221, Note_off_c, 0, 66, 116
1, 21280, Note_on_c, 0, 67, 119
1, 21359, Note_off_c, 0, 67, 119
1, 21394, Note_on_c, 0, 68, 115
1, 21581, Note_off_c, 0, 68, 115
1, 21612, Note_on_c, 0, 64, 115
1, 21859, Note_off_c, 0, 64, 115
1, 21898, Note_on_c, 0, 61, 97
1, 22019, Note_off_c, 0, 61, 97
1, 22048, Note_on_c, 0, 60, 92
1, 22129, Note_off_c, 0, 60, 92
1, 22142, Note_on_c, 0, 61, 80
1, 22221, Note_off_c, 0, 61, 80
1, 22424, Note_on_c, 0, 64, 117
1, 22547, Note_off_c, 0, 64, 117
1, 22610, Note_on_c, 0, 67, 118
1, 22741, Note_off_c, 0, 67, 118
1, 22844, Note_on_c, 0, 70, 105
1, 22937, Note_off_c, 0, 70, 105
1, 22939, Note_on_c, 0, 71, 100
1, 23086, Note_off_c, 0, 71, 100
1, 23175, Note_on_c, 0, 63, 92
1, 23314, Note_off_c, 0, 63, 92
1, 23328, Note_on_c, 0, 62, 86
1, 23376, Note_off_c, 0, 62, 86
1, 23982, Note_on_c, 0, 66, 116
1, 24113, Note_off_c, 0, 66, 116
1, 24116, Note_on_c, 0, 63, 103
1, 24155, Note_off_c, 0, 63, 103
1, 24174, Note_on_c, 0, 64, 101
1, 24253, Note_off_c, 0, 64, 101
1, 24264, Note_on_c, 0, 66, 117
1, 24343, Note_off_c, 0, 66, 117
1, 24358, Note_on_c, 0, 67, 119
1, 24431, Note_off_c, 0, 67, 119
1, 24468, Note_on_c, 0, 67, 117
1, 24563, Note_off_c, 0, 67, 117
1, 24578, Note_on_c, 0, 66, 110
1, 24665, Note_off_c, 0, 66, 110
1, 24690, Note_on_c, 0, 63, 91
1, 24747, Note_off_c, 0, 63, 91
1, 24780, Note_on_c, 0, 65, 115
1, 24909, Note_off_c, 0, 65, 115
1, 24916, Note_on_c, 0, 67, 119
1, 25025, Note_off_c, 0, 67, 119
1, 25046, Note_on_c, 0, 66, 103
1, 25099, Note_off_c, 0, 66, 103
1, 25108, Note_on_c, 0, 68, 110
1, 25267, Note_off_c, 0, 68, 110
1, 25290, Note_on_c, 0, 70, 111
1, 25441, Note_off_c, 0, 70, 111
1, 25504, Note_on_c, 0, 65, 106
1, 25621, Note_off_c, 0, 65, 106
1, 25632, Note_on_c, 0, 64, 94
1, 25675, Note_off_c, 0, 64, 94
1, 25776, Note_on_c, 0, 61, 107
1, 25875, Note_off_c, 0, 61, 107
1, 25962, Note_on_c, 0, 58, 114
1, 26037, Note_off_c, 0, 58, 114
1, 26072, Note_on_c, 0, 56, 108
1, 26187, Note_off_c, 0, 56, 108
1, 26194, Note_on_c, 0, 51, 110
1, 26285, Note_off_c, 0, 51, 110
1, 26298, Note_on_c, 0, 55, 106
1, 26431, Note_off_c, 0, 55, 106
1, 26458, Note_on_c, 0, 56, 114
1, 26613, Note_off_c, 0, 56, 114
1, 26632, Note_on_c, 0, 58, 102
1, 26811, Note_off_c, 0, 58, 102
1, 26838, Note_on_c, 0, 59, 111
1, 27017, Note_off_c, 0, 59, 111
1, 27026, Note_on_c, 0, 60, 109
1, 27179, Note_off_c, 0, 60, 109
1, 27206, Note_on_c, 0, 61, 109
1, 27359, Note_off_c, 0, 61, 109
1, 27404, Note_on_c, 0, 62, 116
1, 27565, Note_off_c, 0, 62, 116
1, 27590, Note_on_c, 0, 63, 117
1, 27797, Note_off_c, 0, 63, 117
1, 27812, Note_on_c, 0, 60, 103
1, 27983, Note_off_c, 0, 60, 103
1, 27998, Note_on_c, 0, 56, 102
1, 28071, Note_off_c, 0, 56, 102
1, 28164, Note_on_c, 0, 54, 92
1, 28319, Note_off_c, 0, 54, 92
1, 28330, Note_on_c, 0, 53, 94
1, 28399, Note_off_c, 0, 53, 94
1, 28494, Note_on_c, 0, 59, 99
1, 28565, Note_off_c, 0, 59, 99
1, 28668, Note_on_c, 0, 64, 118
1, 28781, Note_off_c, 0, 64, 118
1, 28804, Note_on_c, 0, 59, 91
1, 28929, Note_off_c, 0, 59, 91
1, 29072, Note_on_c, 0, 58, 99
1, 29173, Note_off_c, 0, 58, 99
1, 29256, Note_on_c, 0, 63, 102
1, 29335, Note_off_c, 0, 63, 102
1, 29350, Note_on_c, 0, 67, 114
1, 29493, Note_off_c, 0, 67, 114
1, 29496, Note_on_c, 0, 70, 118
1, 29671, Note_off_c, 0, 70, 118
1, 29682, Note_on_c, 0, 71, 109
1, 29873, Note_off_c, 0, 71, 109
1, 29884, Note_on_c, 0, 68, 112
1, 30059, Note_off_c, 0, 68, 112
1, 30062, Note_on_c, 0, 65, 95
1, 30217, Note_off_c, 0, 65, 95
1, 30282, Note_on_c, 0, 62, 98
1, 30379, Note_off_c, 0, 62, 98
1, 30392, Note_on_c, 0, 61, 93
1, 30431, Note_off_c, 0, 61, 93
1, 30768, Note_on_c, 0, 61, 109
1, 30851, Note_off_c, 0, 61, 109
1, 30946, Note_on_c, 0, 65, 104
1, 31023, Note_off_c, 0, 65, 104
1, 31106, Note_on_c, 0, 68, 115
1, 31185, Note_off_c, 0, 68, 115
1, 31208, Note_on_c, 0, 71, 109
1, 31365, Note_off_c, 0, 71, 109
1, 31372, Note_on_c, 0, 74, 113
1, 31539, Note_off_c, 0, 74, 113
1, 31590, Note_on_c, 0, 76, 120
1, 31695, Note_off_c, 0, 76, 120
1, 31704, Note_on_c, 0, 77, 94
1, 31851, Note_off_c, 0, 77, 94
1, 31990, Note_on_c, 0, 72, 112
1, 32233, Note_off_c, 0, 72, 112
1, 32282, Note_on_c, 0, 70, 103
1, 32383, Note_off_c, 0, 70, 103
1, 32434, Note_on_c, 0, 68, 112
1, 32577, Note_off_c, 0, 68, 112
1, 33114, Note_on_c, 0, 73, 106
1, 33216, Note_off_c, 0, 73, 106
1, 33223, Note_on_c, 0, 70, 117
1, 33314, Note_off_c, 0, 70, 117
1, 33329, Note_on_c, 0, 68, 115
1, 33424, Note_off_c, 0, 68, 115
1, 33443, Note_on_c, 0, 65, 101
1, 33490, Note_off_c, 0, 65, 101
1, 33505, Note_on_c, 0, 67, 115
1, 33616, Note_off_c, 0, 67, 115
1, 33616, Note_on_c, 0, 64, 110
1, 33695, Note_off_c, 0, 64, 110
1, 33710, Note_on_c, 0, 63, 106
1, 33781, Note_off_c, 0, 63, 106
1, 33788, Note_on_c, 0, 61, 107
1, 33891, Note_off_c, 0, 61, 107
1, 33894, Note_on_c, 0, 60, 94
1, 33981, Note_off_c, 0, 60, 94
1, 34004, Note_on_c, 0, 59, 112
1, 34075, Note_off_c, 0, 59, 112
1, 34086, Note_on_c, 0, 58, 106
1, 34157, Note_off_c, 0, 58, 106
1, 34174, Note_on_c, 0, 53, 104
1, 34231, Note_off_c, 0, 53, 104
1, 34258, Note_on_c, 0, 56, 104
1, 34325, Note_off_c, 0, 56, 104
1, 34332, Note_on_c, 0, 58, 103
1, 34427, Note_off_c, 0, 58, 103
1, 34446, Note_on_c, 0, 60, 112
1, 34589, Note_off_c, 0, 60, 112
1, 34636, Note_on_c, 0, 61, 106
1, 34863, Note_off_c, 0, 61, 106
1, 34904, Note_on_c, 0, 58, 115
1, 35005, Note_off_c, 0, 58, 115
1, 35026, Note_on_c, 0, 56, 99
1, 35107, Note_off_c, 0, 56, 99
1, 35120, Note_on_c, 0, 52, 113
1, 35189, Note_off_c, 0, 52, 113
1, 35224, Note_on_c, 0, 55, 108
1, 35391, Note_off_c, 0, 55, 108
1, 35482, Note_on_c, 0, 56, 112
1, 35589, Note_off_c, 0, 56, 112
1, 35596, Note_on_c, 0, 58, 102
1, 35667, Note_off_c, 0, 58, 102
1, 35766, Note_on_c, 0, 60, 112
1, 35953, Note_off_c, 0, 60, 112
1, 36056, Note_on_c, 0, 51, 103
1, 36153, Note_off_c, 0, 51, 103
1, 36244, Note_on_c, 0, 53, 103
1, 36311, Note_off_c, 0, 53, 103
1, 36334, Note_on_c, 0, 58, 108
1, 36391, Note_off_c, 0, 58, 108
1, 36416, Note_on_c, 0, 55, 106
1, 36469, Note_off_c, 0, 55, 106
1, 36482, Note_on_c, 0, 56, 99
1, 36561, Note_off_c, 0, 56, 99
1, 36606, Note_on_c, 0, 60, 112
1, 36721, Note_off_c, 0, 60, 112
1, 36726, Note_on_c, 0, 58, 107
1, 36811, Note_off_c, 0, 58, 107
1, 36820, Note_on_c, 0, 62, 115
1, 36949, Note_off_c, 0, 62, 115
1, 36954, Note_on_c, 0, 61, 108
1, 37007, Note_off_c, 0, 61, 108
1, 37034, Note_on_c, 0, 57, 103
1, 37085, Note_off_c, 0, 57, 103
1, 37104, Note_on_c, 0, 60, 113
1, 37219, Note_off_c, 0, 60, 113
1, 37232, Note_on_c, 0, 56, 100
1, 37281, Note_off_c, 0, 56, 100
1, 37300, Note_on_c, 0, 59, 99
1, 37395, Note_off_c, 0, 59, 99
1, 37402, Note_on_c, 0, 55, 113
1, 37461, Note_off_c, 0, 55, 113
1, 37476, Note_on_c, 0, 56, 104
1, 37583, Note_off_c, 0, 56, 104
1, 37588, Note_on_c, 0, 58, 112
1, 37643, Note_off_c, 0, 58, 112
1, 37656, Note_on_c, 0, 59, 110
1, 37727, Note_off_c, 0, 59, 110
1, 37762, Note_on_c, 0, 62, 109
1, 37805, Note_off_c, 0, 62, 109
1, 37840, Note_on_c, 0, 65, 117
1, 37931, Note_off_c, 0, 65, 117
1, 37954, Note_on_c, 0, 62, 110
1, 37999, Note_off_c, 0, 62, 110
1, 38016, Note_on_c, 0, 64, 103
1, 38089, Note_off_c, 0, 64, 103
1, 38112, Note_on_c, 0, 67, 110
1, 38195, Note_off_c, 0, 67, 110
1, 38226, Note_on_c, 0, 64, 100
1, 38283, Note_off_c, 0, 64, 100
1, 38414, Note_on_c, 0, 60, 97
1, 38505, Note_off_c, 0, 60, 97
1, 39016, Note_on_c, 0, 55, 105
1, 39087, Note_off_c, 0, 55, 105
1, 39090, Note_on_c, 0, 57, 106
1, 39169, Note_off_c, 0, 57, 106
1, 39169, Note_on_c, 0, 59, 110
1, 39244, Note_off_c, 0, 59, 110
1, 39251, Note_on_c, 0, 60, 113
1, 39362, Note_off_c, 0, 60, 113
1, 39362, Note_on_c, 0, 59, 109
1, 39457, Note_off_c, 0, 59, 109
1, 39468, Note_on_c, 0, 58, 112
1, 39543, Note_off_c, 0, 58, 112
1, 39546, Note_on_c, 0, 57, 106
1, 39633, Note_off_c, 0, 57, 106
1, 39652, Note_on_c, 0, 56, 115
1, 39747, Note_off_c, 0, 56, 115
1, 39766, Note_on_c, 0, 55, 110
1, 39845, Note_off_c, 0, 55, 110
1, 39856, Note_on_c, 0, 51, 99
1, 39935, Note_off_c, 0, 51, 99
1, 39950, Note_on_c, 0, 54, 109
1, 40021, Note_off_c, 0, 54, 109
1, 40050, Note_on_c, 0, 50, 102
1, 40111, Note_off_c, 0, 50, 102
1, 40130, Note_on_c, 0, 53, 112
1, 40201, Note_off_c, 0, 53, 112
1, 40212, Note_on_c, 0, 55, 112
1, 40291, Note_off_c, 0, 55, 112
1, 40310, Note_on_c, 0, 56, 106
1, 40377, Note_off_c, 0, 56, 106
1, 40392, Note_on_c, 0, 58, 105
1, 40471, Note_off_c, 0, 58, 105
1, 40474, Note_on_c, 0, 60, 106
1, 40581, Note_off_c, 0, 60, 106
1, 40592, Note_on_c, 0, 63, 108
1, 40671, Note_off_c, 0, 63, 108
1, 40674, Note_on_c, 0, 67, 116
1, 40749, Note_off_c, 0, 67, 116
1, 40768, Note_on_c, 0, 68, 119
1, 40859, Note_off_c, 0, 68, 119
1, 40866, Note_on_c, 0, 67, 111
1, 40941, Note_off_c, 0, 67, 111
1, 40956, Note_on_c, 0, 66, 111
1, 41059, Note_off_c, 0, 66, 111
1, 41082, Note_on_c, 0, 63, 98
1, 41153, Note_off_c, 0, 63, 98
1, 41172, Note_on_c, 0, 60, 91
1, 41231, Note_off_c, 0, 60, 91
1, 41254, Note_on_c, 0, 62, 114
1, 41365, Note_off_c, 0, 62, 114
1, 41365, Note_on_c, 0, 59, 106
1, 41436, Note_off_c, 0, 59, 106
1, 41451, Note_on_c, 0, 58, 107
1, 41518, Note_off_c, 0, 58, 107
1, 41531, Note_on_c, 0, 56, 104
1, 41616, Note_off_c, 0, 56, 104
1, 41639, Note_on_c, 0, 55, 100
1, 41762, Note_off_c, 0, 55, 100
1, 42869, Note_on_c, 0, 50, 100
1, 42940, Note_off_c, 0, 50, 100
1, 42943, Note_on_c, 0, 53, 109
1, 43042, Note_on_c, 0, 50, 103
1, 43042, Note_off_c, 0, 53, 109
1, 43113, Note_off_c, 0, 50, 103
1, 43138, Note_on_c, 0, 51, 107
1, 43233, Note_off_c, 0, 51, 107
1, 43238, Note_on_c, 0, 55, 116
1, 43313, Note_off_c, 0, 55, 116
1, 43316, Note_on_c, 0, 53, 105
1, 43415, Note_off_c, 0, 53, 105
1, 43424, Note_on_c, 0, 57, 118
1, 43539, Note_off_c, 0, 57, 118
1, 43552, Note_on_c, 0, 56, 106
1, 43609, Note_off_c, 0, 56, 106
1, 43638, Note_on_c, 0, 52, 113
1, 43705, Note_off_c, 0, 52, 113
1, 43734, Note_on_c, 0, 55, 115
1, 43839, Note_off_c, 0, 55, 115
1, 43854, Note_on_c, 0, 51, 105
1, 43895, Note_off_c, 0, 51, 105
1, 43918, Note_on_c, 0, 54, 109
1, 44001, Note_off_c, 0, 54, 109
1, 44006, Note_on_c, 0, 56, 109
1, 44073, Note_off_c, 0, 56, 109
1, 44092, Note_on_c, 0, 57, 109
1, 44179, Note_off_c, 0, 57, 109
1, 44182, Note_on_c, 0, 59, 112
1, 44231, Note_off_c, 0, 59, 112
1, 44238, Note_on_c, 0, 60, 105
1, 44341, Note_off_c, 0, 60, 105
1, 44362, Note_on_c, 0, 63, 115
1, 44413, Note_off_c, 0, 63, 115
1, 44416, Note_on_c, 0, 67, 120
1, 44539, Note_off_c, 0, 67, 120
1, 44544, Note_on_c, 0, 64, 106
1, 44595, Note_off_c, 0, 64, 106
1, 44608, Note_on_c, 0, 66, 108
1, 44707, Note_off_c, 0, 66, 108
1, 44714, Note_on_c, 0, 69, 118
1, 44833, Note_off_c, 0, 69, 118
1, 44848, Note_on_c, 0, 62, 111
1, 44923, Note_off_c, 0, 62, 111
1, 44934, Note_on_c, 0, 61, 113
1, 45025, Note_off_c, 0, 61, 113
1, 45036, Note_on_c, 0, 60, 107
1, 45131, Note_off_c, 0, 60, 107
1, 45214, Note_on_c, 0, 60, 107
1, 45305, Note_off_c, 0, 60, 107
1, 45312, Note_on_c, 0, 64, 119
1, 45423, Note_off_c, 0, 64, 119
1, 45428, Note_on_c, 0, 63, 107
1, 45501, Note_off_c, 0, 63, 107
1, 45530, Note_on_c, 0, 60, 91
1, 45599, Note_off_c, 0, 60, 91
1, 45624, Note_on_c, 0, 62, 107
1, 45681, Note_off_c, 0, 62, 107
1, 45704, Note_on_c, 0, 59, 109
1, 45787, Note_off_c, 0, 59, 109
1, 45792, Note_on_c, 0, 60, 107
1, 45855, Note_off_c, 0, 60, 107
1, 45874, Note_on_c, 0, 62, 112
1, 45937, Note_off_c, 0, 62, 112
1, 45962, Note_on_c, 0, 64, 109
1, 46027, Note_off_c, 0, 64, 109
1, 46034, Note_on_c, 0, 67, 104
1, 46087, Note_off_c, 0, 67, 104
1, 46106, Note_on_c, 0, 71, 116
1, 46223, Note_off_c, 0, 71, 116
1, 46252, Note_on_c, 0, 68, 110
1, 46299, Note_off_c, 0, 68, 110
1, 46324, Note_on_c, 0, 72, 115
1, 46411, Note_off_c, 0, 72, 115
1, 46440, Note_on_c, 0, 68, 96
1, 46485, Note_off_c, 0, 68, 96
1, 46510, Note_on_c, 0, 71, 116
1, 46593, Note_off_c, 0, 71, 116
1, 46624, Note_on_c, 0, 68, 112
1, 46701, Note_off_c, 0, 68, 112
1, 46714, Note_on_c, 0, 72, 115
1, 46789, Note_off_c, 0, 72, 115
1, 46826, Note_on_c, 0, 68, 102
1, 46875, Note_off_c, 0, 68, 102
1, 46900, Note_on_c, 0, 71, 113
1, 46999, Note_off_c, 0, 71, 113
1, 47024, Note_on_c, 0, 68, 101
1, 47065, Note_off_c, 0, 68, 101
1, 47088, Note_on_c, 0, 72, 114
1, 47185, Note_off_c, 0, 72, 114
1, 47194, Note_on_c, 0, 71, 94
1, 47253, Note_off_c, 0, 71, 94
1, 47384, Note_on_c, 0, 67, 98
1, 47471, Note_off_c, 0, 67, 98
1, 47562, Note_on_c, 0, 62, 107
1, 47653, Note_off_c, 0, 62, 107
1, 47730, Note_on_c, 0, 59, 100
1, 47811, Note_off_c, 0, 59, 100
1, 47916, Note_on_c, 0, 55, 93
1, 48025, Note_off_c, 0, 55, 93
1, 48410, Note_on_c, 0, 59, 109
1, 48519, Note_off_c, 0, 59, 109
1, 48580, Note_on_c, 0, 60, 110
1, 48763, Note_off_c, 0, 60, 110
1, 48788, Note_on_c, 0, 62, 118
1, 48897, Note_off_c, 0, 62, 118
1, 48972, Note_on_c, 0, 64, 111
1, 49115, Note_off_c, 0, 64, 111
1, 49142, Note_on_c, 0, 63, 101
1, 49259, Note_off_c, 0, 63, 101
1, 49276, Note_on_c, 0, 64, 114
1, 49383, Note_off_c, 0, 64, 114
1, 49422, Note_on_c, 0, 65, 116
1, 49517, Note_off_c, 0, 65, 116
1, 49608, Note_on_c, 0, 66, 115
1, 49707, Note_off_c, 0, 66, 115
1, 49784, Note_on_c, 0, 63, 115
1, 49883, Note_off_c, 0, 63, 115
1, 49892, Note_on_c, 0, 60, 103
1, 49995, Note_off_c, 0, 60, 103
1, 50018, Note_on_c, 0, 60, 116
1, 50105, Note_off_c, 0, 60, 116
1, 50124, Note_on_c, 0, 59, 107
1, 50239, Note_off_c, 0, 59, 107
1, 50258, Note_on_c, 0, 57, 111
1, 50353, Note_off_c, 0, 57, 111
1, 50398, Note_on_c, 0, 55, 97
1, 50447, Note_off_c, 0, 55, 97
1, 50464, Note_on_c, 0, 56, 111
1, 50549, Note_off_c, 0, 56, 111
1, 50604, Note_on_c, 0, 59, 113
1, 50715, Note_off_c, 0, 59, 113
1, 51210, Note_on_c, 0, 63, 108
1, 51269, Note_off_c, 0, 63, 108
1, 51278, Note_on_c, 0, 64, 104
1, 51341, Note_off_c, 0, 64, 104
1, 51364, Note_on_c, 0, 67, 114
1, 51425, Note_off_c, 0, 67, 114
1, 51456, Note_on_c, 0, 70, 114
1, 51527, Note_off_c, 0, 70, 114
1, 51542, Note_on_c, 0, 72, 115
1, 51609, Note_off_c, 0, 72, 115
1, 51630, Note_on_c, 0, 73, 121
1, 51733, Note_off_c, 0, 73, 121
1, 51750, Note_on_c, 0, 72, 115
1, 51821, Note_off_c, 0, 72, 115
1, 51846, Note_on_c, 0, 71, 116
1, 51915, Note_off_c, 0, 71, 116
1, 51940, Note_on_c, 0, 70, 117
1, 52015, Note_off_c, 0, 70, 117
1, 52032, Note_on_c, 0, 69, 120
1, 52147, Note_off_c, 0, 69, 120
1, 52152, Note_on_c, 0, 68, 112
1, 52237, Note_off_c, 0, 68, 112
1, 52250, Note_on_c, 0, 65, 99
1, 52312, Note_off_c, 0, 65, 99
1, 52335, Note_on_c, 0, 67, 103
1, 52396, Note_off_c, 0, 67, 103
1, 52397, Note_on_c, 0, 70, 121
1, 52520, Note_off_c, 0, 70, 121
1, 52523, Note_on_c, 0, 68, 118
1, 52614, Note_off_c, 0, 68, 118
1, 52614, Note_on_c, 0, 65, 113
1, 52715, Note_off_c, 0, 65, 113
1, 52746, Note_on_c, 0, 63, 96
1, 52797, Note_off_c, 0, 63, 96
1, 52824, Note_on_c, 0, 60, 94
1, 52901, Note_off_c, 0, 60, 94
1, 52914, Note_on_c, 0, 62, 104
1, 53049, Note_off_c, 0, 62, 104
1, 53166, Note_on_c, 0, 63, 107
1, 53245, Note_off_c, 0, 63, 107
1, 53268, Note_on_c, 0, 65, 116
1, 53323, Note_off_c, 0, 65, 116
1, 53342, Note_on_c, 0, 67, 120
1, 53469, Note_off_c, 0, 67, 120
1, 53469, Note_on_c, 0, 65, 114
1, 53568, Note_off_c, 0, 65, 114
1, 53583, Note_on_c, 0, 63, 110
1, 53666, Note_off_c, 0, 63, 110
1, 53729, Note_on_c, 0, 57, 102
1, 53812, Note_off_c, 0, 57, 102
1, 53855, Note_on_c, 0, 60, 104
1, 53934, Note_off_c, 0, 60, 104
1, 53947, Note_on_c, 0, 65, 115
1, 54040, Note_off_c, 0, 65, 115
1, 54043, Note_on_c, 0, 64, 109
1, 54144, Note_off_c, 0, 64, 109
1, 54223, Note_on_c, 0, 63, 102
1, 54304, Note_off_c, 0, 63, 102
1, 54325, Note_on_c, 0, 60, 109
1, 54382, Note_off_c, 0, 60, 109
1, 54431, Note_on_c, 0, 56, 113
1, 54530, Note_off_c, 0, 56, 113
1, 54681, Note_on_c, 0, 63, 118
1, 54750, Note_off_c, 0, 63, 118
1, 54771, Note_on_c, 0, 65, 110
1, 54862, Note_off_c, 0, 65, 110
1, 54963, Note_on_c, 0, 68, 114
1, 55114, Note_off_c, 0, 68, 114
1, 55259, Note_on_c, 0, 71, 117
1, 55354, Note_off_c, 0, 71, 117
1, 55429, Note_on_c, 0, 68, 115
1, 55536, Note_off_c, 0, 68, 115
1, 55551, Note_on_c, 0, 66, 106
1, 55620, Note_off_c, 0, 66, 106
1, 55717, Note_on_c, 0, 65, 116
1, 55868, Note_off_c, 0, 65, 116
1, 55893, Note_on_c, 0, 66, 105
1, 56082, Note_off_c, 0, 66, 105
1, 56099, Note_on_c, 0, 64, 110
1, 56246, Note_off_c, 0, 64, 110
1, 56263, Note_on_c, 0, 66, 106
1, 56340, Note_off_c, 0, 66, 106
1, 56457, Note_on_c, 0, 63, 117
1, 56630, Note_off_c, 0, 63, 117
1, 56647, Note_on_c, 0, 65, 103
1, 56740, Note_off_c, 0, 65, 103
1, 56847, Note_on_c, 0, 62, 116
1, 57030, Note_off_c, 0, 62, 116
1, 57051, Note_on_c, 0, 63, 116
1, 57118, Note_off_c, 0, 63, 116
1, 57211, Note_on_c, 0, 59, 9
1, 57402, Note_on_c, 0, 62, 104
1, 57402, Note_off_c, 0, 59, 9
1, 57517, Note_off_c, 0, 62, 104
1, 57604, Note_on_c, 0, 56, 89
1, 57763, Note_off_c, 0, 56, 89
1, 57782, Note_on_c, 0, 61, 95
1, 57921, Note_off_c, 0, 61, 95
1, 57976, Note_on_c, 0, 65, 105
1, 58167, Note_off_c, 0, 65, 105
1, 58167, Note_on_c, 0, 68, 109
1, 58308, Note_off_c, 0, 68, 109
1, 58357, Note_on_c, 0, 72, 106
1, 58536, Note_off_c, 0, 72, 106
1, 58565, Note_on_c, 0, 73, 112
1, 58706, Note_off_c, 0, 73, 112
1, 58737, Note_on_c, 0, 65, 99
1, 58944, Note_off_c, 0, 65, 99
1, 59011, Note_on_c, 0, 67, 101
1, 59122, Note_off_c, 0, 67, 101
1, 59215, Note_on_c, 0, 70, 111
1, 59332, Note_off_c, 0, 70, 111
1, 59427, Note_on_c, 0, 59, 91
1, 59482, Note_on_c, 0, 68, 109
1, 59482, Note_off_c, 0, 59, 91
1, 59669, Note_off_c, 0, 68, 109
1, 59680, Note_on_c, 0, 70, 108
1, 59847, Note_off_c, 0, 70, 108
1, 59850, Note_on_c, 0, 72, 106
1, 60041, Note_off_c, 0, 72, 106
1, 60064, Note_on_c, 0, 73, 111
1, 60231, Note_off_c, 0, 73, 111
1, 60238, Note_on_c, 0, 75, 104
1, 60413, Note_off_c, 0, 75, 104
1, 60432, Note_on_c, 0, 76, 110
1, 60591, Note_off_c, 0, 76, 110
1, 60642, Note_on_c, 0, 72, 103
1, 60761, Note_off_c, 0, 72, 103
1, 60808, Note_on_c, 0, 78, 105
1, 60873, Note_off_c, 0, 78, 105
1, 60898, Note_on_c, 0, 79, 102
1, 61167, Note_off_c, 0, 79, 102
1, 61182, Note_on_c, 0, 77, 106
1, 61311, Note_off_c, 0, 77, 106
1, 61418, Note_on_c, 0, 71, 110
1, 61569, Note_off_c, 0, 71, 110
1, 61582, Note_on_c, 0, 72, 94
1, 61663, Note_off_c, 0, 72, 94
1, 61698, Note_on_c, 0, 70, 107
1, 62025, Note_off_c, 0, 70, 107
1, 62256, Note_on_c, 0, 66, 111
1, 62341, Note_off_c, 0, 66, 111
1, 62358, Note_on_c, 0, 67, 108
1, 62499, Note_off_c, 0, 67, 108
1, 62540, Note_on_c, 0, 63, 95
1, 62757, Note_off_c, 0, 63, 95
1, 62940, Note_on_c, 0, 71, 108
1, 63037, Note_off_c, 0, 71, 108
1, 63048, Note_on_c, 0, 72, 104
1, 63183, Note_off_c, 0, 72, 104
1, 63230, Note_on_c, 0, 68, 104
1, 63537, Note_off_c, 0, 68, 104
1, 63712, Note_on_c, 0, 68, 109
1, 63827, Note_off_c, 0, 68, 109
1, 63838, Note_on_c, 0, 65, 100
1, 63921, Note_off_c, 0, 65, 100
1, 63921, Note_on_c, 0, 63, 96
1, 64020, Note_off_c, 0, 63, 96
1, 64023, Note_on_c, 0, 61, 91
1, 64130, Note_off_c, 0, 61, 91
1, 64137, Note_on_c, 0, 60, 89
1, 64262, Note_off_c, 0, 60, 89
1, 64275, Note_on_c, 0, 63, 110
1, 64370, Note_off_c, 0, 63, 110
1, 64457, Note_on_c, 0, 65, 106
1, 64728, Note_off_c, 0, 65, 106
1, 64755, Note_on_c, 0, 59, 94
1, 64844, Note_off_c, 0, 59, 94
1, 64861, Note_on_c, 0, 58, 85
1, 64936, Note_off_c, 0, 58, 85
1, 65047, Note_on_c, 0, 67, 103
1, 65358, Note_off_c, 0, 67, 103
1, 65585, Note_on_c, 0, 67, 109
1, 65684, Note_off_c, 0, 67, 109
1, 65691, Note_on_c, 0, 64, 106
1, 65806, Note_on_c, 0, 62, 97
1, 65806, Note_off_c, 0, 64, 106
1, 65929, Note_off_c, 0, 62, 97
1, 66030, Note_on_c, 0, 72, 112
1, 66095, Note_off_c, 0, 72, 112
1, 66122, Note_on_c, 0, 74, 107
1, 66267, Note_off_c, 0, 74, 107
1, 66308, Note_on_c, 0, 72, 99
1, 66633, Note_off_c, 0, 72, 99
1, 66762, Note_on_c, 0, 67, 101
1, 66857, Note_off_c, 0, 67, 101
1, 66866, Note_on_c, 0, 69, 85
1, 66935, Note_off_c, 0, 69, 85
1, 66968, Note_on_c, 0, 72, 106
1, 67095, Note_off_c, 0, 72, 106
1, 67130, Note_on_c, 0, 74, 112
1, 67283, Note_off_c, 0, 74, 112
1, 67412, Note_on_c, 0, 68, 104
1, 67583, Note_off_c, 0, 68, 104
1, 67878, Note_on_c, 0, 68, 108
1, 67969, Note_off_c, 0, 68, 108
1, 67996, Note_on_c, 0, 68, 116
1, 68077, Note_off_c, 0, 68, 116
1, 68100, Note_on_c, 0, 67, 110
1, 68195, Note_off_c, 0, 67, 110
1, 68214, Note_on_c, 0, 64, 88
1, 68263, Note_off_c, 0, 64, 88
1, 68288, Note_on_c, 0, 65, 106
1, 68443, Note_off_c, 0, 65, 106
1, 68466, Note_on_c, 0, 67, 110
1, 68623, Note_off_c, 0, 67, 110
1, 68630, Note_on_c, 0, 68, 106
1, 68793, Note_off_c, 0, 68, 106
1, 68828, Note_on_c, 0, 70, 112
1, 68943, Note_off_c, 0, 70, 112
1, 68968, Note_on_c, 0, 67, 97
1, 69075, Note_off_c, 0, 67, 97
1, 69404, Note_on_c, 0, 67, 97
1, 69513, Note_off_c, 0, 67, 97
1, 69540, Note_on_c, 0, 66, 109
1, 69623, Note_off_c, 0, 66, 109
1, 69646, Note_on_c, 0, 65, 108
1, 69737, Note_off_c, 0, 65, 108
1, 69737, Note_on_c, 0, 62, 90
1, 69796, Note_off_c, 0, 62, 90
1, 69815, Note_on_c, 0, 64, 105
1, 69928, Note_off_c, 0, 64, 105
1, 70001, Note_on_c, 0, 63, 109
1, 70220, Note_off_c, 0, 63, 109
1, 70262, Note_on_c, 0, 60, 97
1, 70335, Note_off_c, 0, 60, 97
1, 70346, Note_on_c, 0, 56, 101
1, 70465, Note_off_c, 0, 56, 101
1, 70557, Note_on_c, 0, 57, 103
1, 70809, Note_off_c, 0, 57, 103
1, 70843, Note_on_c, 0, 60, 90
1, 70925, Note_off_c, 0, 60, 90
1, 70942, Note_on_c, 0, 63, 106
1, 71030, Note_off_c, 0, 63, 106
1, 71052, Note_on_c, 0, 67, 107
1, 71154, Note_off_c, 0, 67, 107
1, 71163, Note_on_c, 0, 64, 101
1, 71224, Note_off_c, 0, 64, 101
1, 71247, Note_on_c, 0, 65, 81
1, 71342, Note_off_c, 0, 65, 81
1, 71405, Note_on_c, 0, 69, 113
1, 71518, Note_off_c, 0, 69, 113
1, 71543, Note_on_c, 0, 62, 101
1, 71608, Note_off_c, 0, 62, 101
1, 71619, Note_on_c, 0, 61, 101
1, 71704, Note_off_c, 0, 61, 101
1, 71719, Note_on_c, 0, 60, 100
1, 71786, Note_off_c, 0, 60, 100
1, 71797, Note_on_c, 0, 56, 96
1, 71836, Note_off_c, 0, 56, 96
1, 71883, Note_on_c, 0, 59, 94
1, 71962, Note_off_c, 0, 59, 94
1, 71987, Note_on_c, 0, 64, 109
1, 72082, Note_off_c, 0, 64, 109
1, 72095, Note_on_c, 0, 63, 104
1, 72212, Note_off_c, 0, 63, 104
1, 72239, Note_on_c, 0, 62, 104
1, 72326, Note_off_c, 0, 62, 104
1, 72355, Note_on_c, 0, 59, 104
1, 72412, Note_off_c, 0, 59, 104
1, 72455, Note_on_c, 0, 55, 90
1, 72526, Note_off_c, 0, 55, 90
1, 72545, Note_on_c, 0, 54, 108
1, 72632, Note_off_c, 0, 54, 108
1, 72641, Note_on_c, 0, 53, 103
1, 72718, Note_off_c, 0, 53, 103
1, 72795, Note_on_c, 0, 52, 97
1, 73194, Note_off_c, 0, 52, 97
1, 73216, Note_on_c, 0, 58, 106
1, 73258, Note_off_c, 0, 58, 106
1, 73282, Note_on_c, 0, 59, 102
1, 73323, Note_off_c, 0, 59, 102
1, 73355, Note_on_c, 0, 60, 99
1, 73457, Note_off_c, 0, 60, 99
1, 73476, Note_on_c, 0, 60, 102
1, 73595, Note_off_c, 0, 60, 102
1, 73628, Note_on_c, 0, 62, 110
1, 73705, Note_off_c, 0, 62, 110
1, 73728, Note_on_c, 0, 64, 96
1, 73823, Note_off_c, 0, 64, 96
1, 73874, Note_on_c, 0, 64, 103
1, 73941, Note_off_c, 0, 64, 103
1, 73979, Note_on_c, 0, 67, 113
1, 74067, Note_off_c, 0, 67, 113
1, 74086, Note_on_c, 0, 67, 104
1, 74202, Note_on_c, 0, 67, 80
1, 74202, Note_off_c, 0, 67, 104
1, 74202, Note_off_c, 0, 67, 80
1, 74216, Note_on_c, 0, 67, 91
1, 74312, Note_off_c, 0, 67, 91
1, 74392, Note_on_c, 0, 59, 97
1, 74505, Note_off_c, 0, 59, 97
1, 74552, Note_on_c, 0, 59, 90
1, 74655, Note_off_c, 0, 59, 90
1, 74740, Note_on_c, 0, 62, 102
1, 74853, Note_off_c, 0, 62, 102
1, 74882, Note_on_c, 0, 62, 95
1, 75009, Note_off_c, 0, 62, 95
1, 75084, Note_on_c, 0, 67, 110
1, 75245, Note_off_c, 0, 67, 110
1, 75274, Note_on_c, 0, 67, 100
1, 75409, Note_off_c, 0, 67, 100
1, 75490, Note_on_c, 0, 72, 107
1, 75577, Note_off_c, 0, 72, 107
1, 75581, Note_on_c, 0, 74, 103
1, 75669, Note_off_c, 0, 74, 103
1, 75674, Note_on_c, 0, 74, 107
1, 75753, Note_off_c, 0, 74, 107
1, 75784, Note_on_c, 0, 74, 106
1, 75877, Note_off_c, 0, 74, 106
1, 75911, Note_on_c, 0, 62, 91
1, 76024, Note_off_c, 0, 62, 91
1, 76285, Note_on_c, 0, 64, 103
1, 76458, Note_off_c, 0, 64, 103
1, 76623, Note_on_c, 0, 63, 102
1, 76822, Note_off_c, 0, 63, 102
1, 77009, Note_on_c, 0, 66, 107
1, 77158, Note_off_c, 0, 66, 107
1, 77187, Note_on_c, 0, 66, 103
1, 77310, Note_off_c, 0, 66, 103
1, 77389, Note_on_c, 0, 67, 96
1, 77454, Note_off_c, 0, 67, 96
1, 77463, Note_on_c, 0, 68, 101
1, 77540, Note_off_c, 0, 68, 101
1, 77561, Note_on_c, 0, 71, 105
1, 77692, Note_off_c, 0, 71, 105
1, 77755, Note_on_c, 0, 73, 108
1, 77820, Note_off_c, 0, 73, 108
1, 77827, Note_on_c, 0, 75, 94
1, 77898, Note_off_c, 0, 75, 94
1, 78197, Note_on_c, 0, 73, 112
1, 78296, Note_off_c, 0, 73, 112
1, 78303, Note_on_c, 0, 72, 102
1, 78380, Note_off_c, 0, 72, 102
1, 78415, Note_on_c, 0, 68, 110
1, 78508, Note_off_c, 0, 68, 110
1, 78509, Note_on_c, 0, 67, 107
1, 78558, Note_off_c, 0, 67, 107
1, 78593, Note_on_c, 0, 64, 101
1, 78676, Note_off_c, 0, 64, 101
1, 78679, Note_on_c, 0, 63, 97
1, 78732, Note_off_c, 0, 63, 97
1, 78769, Note_on_c, 0, 61, 105
1, 78834, Note_off_c, 0, 61, 105
1, 78851, Note_on_c, 0, 60, 100
1, 78948, Note_off_c, 0, 60, 100
1, 78971, Note_on_c, 0, 59, 111
1, 79042, Note_off_c, 0, 59, 111
1, 79059, Note_on_c, 0, 58, 102
1, 79136, Note_off_c, 0, 58, 102
1, 79157, Note_on_c, 0, 54, 99
1, 79220, Note_off_c, 0, 54, 99
1, 79249, Note_on_c, 0, 57, 99
1, 79310, Note_off_c, 0, 57, 99
1, 79329, Note_on_c, 0, 60, 103
1, 79392, Note_off_c, 0, 60, 103
1, 79409, Note_on_c, 0, 65, 104
1, 79550, Note_off_c, 0, 65, 104
1, 79587, Note_on_c, 0, 47, 104
1, 79676, Note_off_c, 0, 47, 104
1, 79713, Note_on_c, 0, 51, 104
1, 79766, Note_off_c, 0, 51, 104
1, 79787, Note_on_c, 0, 54, 105
1, 79870, Note_off_c, 0, 54, 105
1, 79897, Note_on_c, 0, 50, 97
1, 79954, Note_off_c, 0, 50, 97
1, 79981, Note_on_c, 0, 53, 97
1, 80040, Note_off_c, 0, 53, 97
1, 80081, Note_on_c, 0, 57, 109
1, 80144, Note_off_c, 0, 57, 109
1, 80163, Note_on_c, 0, 60, 109
1, 80326, Note_off_c, 0, 60, 109
1, 80399, Note_on_c, 0, 46, 107
1, 80478, Note_off_c, 0, 46, 107
1, 80499, Note_on_c, 0, 50, 106
1, 80530, Note_off_c, 0, 50, 106
1, 80573, Note_on_c, 0, 53, 106
1, 80658, Note_off_c, 0, 53, 106
1, 80691, Note_on_c, 0, 50, 104
1, 80730, Note_off_c, 0, 50, 104
1, 80749, Note_on_c, 0, 52, 104
1, 80834, Note_off_c, 0, 52, 104
1, 80863, Note_on_c, 0, 56, 107
1, 80930, Note_off_c, 0, 56, 107
1, 80943, Note_on_c, 0, 59, 104
1, 81070, Note_off_c, 0, 59, 104
1, 81097, Note_on_c, 0, 51, 107
1, 81194, Note_off_c, 0, 51, 107
1, 81249, Note_on_c, 0, 55, 107
1, 81302, Note_off_c, 0, 55, 107
1, 81321, Note_on_c, 0, 58, 106
1, 81422, Note_off_c, 0, 58, 106
1, 81443, Note_on_c, 0, 55, 103
1, 81480, Note_off_c, 0, 55, 103
1, 81493, Note_on_c, 0, 56, 99
1, 81566, Note_off_c, 0, 56, 99
1, 81595, Note_on_c, 0, 60, 101
1, 81652, Note_off_c, 0, 60, 101
1, 81679, Note_on_c, 0, 63, 104
1, 81768, Note_off_c, 0, 63, 104
1, 81801, Note_on_c, 0, 60, 100
1, 81854, Note_off_c, 0, 60, 100
1, 81865, Note_on_c, 0, 61, 97
1, 82022, Note_off_c, 0, 61, 97
1, 82171, Note_on_c, 0, 68, 111
1, 82298, Note_off_c, 0, 68, 111
1, 82313, Note_on_c, 0, 64, 97
1, 82424, Note_off_c, 0, 64, 97
1, 82449, Note_on_c, 0, 63, 90
1, 82530, Note_off_c, 0, 63, 90
1, 82553, Note_on_c, 0, 61, 86
1, 82646, Note_off_c, 0, 61, 86
1, 82995, Note_on_c, 0, 68, 109
1, 83102, Note_off_c, 0, 68, 109
1, 83117, Note_on_c, 0, 71, 105
1, 83204, Note_off_c, 0, 71, 105
1, 83215, Note_on_c, 0, 68, 93
1, 83290, Note_off_c, 0, 68, 93
1, 83311, Note_on_c, 0, 64, 94
1, 83366, Note_off_c, 0, 64, 94
1, 83371, Note_on_c, 0, 67, 104
1, 83446, Note_off_c, 0, 67, 104
1, 83461, Note_on_c, 0, 70, 105
1, 83560, Note_off_c, 0, 70, 105
1, 83583, Note_on_c, 0, 67, 102
1, 83666, Note_off_c, 0, 67, 102
1, 83693, Note_on_c, 0, 63, 102
1, 83792, Note_off_c, 0, 63, 102
1, 83950, Note_on_c, 0, 71, 111
1, 84026, Note_off_c, 0, 71, 111
1, 84038, Note_on_c, 0, 72, 100
1, 84091, Note_off_c, 0, 72, 100
1, 84102, Note_on_c, 0, 73, 97
1, 84211, Note_off_c, 0, 73, 97
1, 84232, Note_on_c, 0, 72, 111
1, 84311, Note_off_c, 0, 72, 111
1, 84325, Note_on_c, 0, 71, 108
1, 84404, Note_off_c, 0, 71, 108
1, 84423, Note_on_c, 0, 70, 105
1, 84505, Note_off_c, 0, 70, 105
1, 84510, Note_on_c, 0, 69, 107
1, 84595, Note_off_c, 0, 69, 107
1, 84609, Note_on_c, 0, 68, 110
1, 84711, Note_off_c, 0, 68, 110
1, 84725, Note_on_c, 0, 67, 106
1, 84815, Note_off_c, 0, 67, 106
1, 84838, Note_on_c, 0, 64, 86
1, 84885, Note_off_c, 0, 64, 86
1, 84890, Note_on_c, 0, 66, 106
1, 84995, Note_off_c, 0, 66, 106
1, 84998, Note_on_c, 0, 63, 94
1, 85049, Note_off_c, 0, 63, 94
1, 85070, Note_on_c, 0, 65, 101
1, 85149, Note_off_c, 0, 65, 101
1, 85159, Note_on_c, 0, 67, 105
1, 85246, Note_off_c, 0, 67, 105
1, 85255, Note_on_c, 0, 68, 106
1, 85320, Note_off_c, 0, 68, 106
1, 85335, Note_on_c, 0, 70, 108
1, 85431, Note_off_c, 0, 70, 108
1, 85442, Note_on_c, 0, 67, 103
1, 85513, Note_off_c, 0, 67, 103
1, 85538, Note_on_c, 0, 66, 112
1, 85620, Note_off_c, 0, 66, 112
1, 85634, Note_on_c, 0, 65, 107
1, 85719, Note_off_c, 0, 65, 107
1, 85732, Note_on_c, 0, 64, 98
1, 85809, Note_off_c, 0, 64, 98
1, 85818, Note_on_c, 0, 63, 100
1, 85905, Note_off_c, 0, 63, 100
1, 85920, Note_on_c, 0, 62, 97
1, 86001, Note_off_c, 0, 62, 97
1, 86040, Note_on_c, 0, 61, 95
1, 86101, Note_off_c, 0, 61, 95
1, 86108, Note_on_c, 0, 59, 91
1, 86169, Note_off_c, 0, 59, 91
1, 86174, Note_on_c, 0, 60, 91
1, 86243, Note_off_c, 0, 60, 91
1, 86282, Note_on_c, 0, 65, 112
1, 86371, Note_off_c, 0, 65, 112
1, 86392, Note_on_c, 0, 64, 108
1, 86483, Note_off_c, 0, 64, 108
1, 86500, Note_on_c, 0, 61, 87
1, 86559, Note_off_c, 0, 61, 87
1, 86584, Note_on_c, 0, 63, 105
1, 86661, Note_off_c, 0, 63, 105
1, 86669, Note_on_c, 0, 62, 103
1, 86774, Note_off_c, 0, 62, 103
1, 86774, Note_on_c, 0, 59, 90
1, 86862, Note_off_c, 0, 59, 90
1, 86872, Note_on_c, 0, 57, 104
1, 86953, Note_off_c, 0, 57, 104
1, 86980, Note_on_c, 0, 54, 98
1, 87027, Note_off_c, 0, 54, 98
1, 87040, Note_on_c, 0, 51, 105
1, 87125, Note_off_c, 0, 51, 105
1, 87130, Note_on_c, 0, 55, 109
1, 87203, Note_off_c, 0, 55, 109
1, 87222, Note_on_c, 0, 58, 98
1, 87312, Note_off_c, 0, 58, 98
1, 87320, Note_on_c, 0, 60, 109
1, 87410, Note_off_c, 0, 60, 109
1, 87420, Note_on_c, 0, 57, 98
1, 87471, Note_off_c, 0, 57, 98
1, 87500, Note_on_c, 0, 61, 104
1, 87569, Note_off_c, 0, 61, 104
1, 87586, Note_on_c, 0, 64, 101
1, 87683, Note_off_c, 0, 64, 101
1, 87700, Note_on_c, 0, 65, 109
1, 87805, Note_off_c, 0, 65, 109
1, 87864, Note_on_c, 0, 66, 103
1, 87925, Note_off_c, 0, 66, 103
1, 87939, Note_on_c, 0, 69, 114
1, 88092, Note_off_c, 0, 69, 114
1, 88094, Note_on_c, 0, 66, 105
1, 88176, Note_off_c, 0, 66, 105
1, 88264, Note_on_c, 0, 67, 114
1, 88320, Note_off_c, 0, 67, 114
1, 88337, Note_on_c, 0, 70, 111
1, 88467, Note_off_c, 0, 70, 111
1, 88468, Note_on_c, 0, 67, 103
1, 88589, Note_off_c, 0, 67, 103
1, 88658, Note_on_c, 0, 68, 112
1, 88759, Note_off_c, 0, 68, 112
1, 88766, Note_on_c, 0, 69, 108
1, 88829, Note_off_c, 0, 69, 108
1, 88842, Note_on_c, 0, 70, 107
1, 88929, Note_off_c, 0, 70, 107
1, 88948, Note_on_c, 0, 69, 114
1, 89063, Note_off_c, 0, 69, 114
1, 89090, Note_on_c, 0, 68, 111
1, 89205, Note_off_c, 0, 68, 111
1, 89232, Note_on_c, 0, 67, 111
1, 89383, Note_off_c, 0, 67, 111
1, 89415, Note_on_c, 0, 66, 104
1, 89500, Note_off_c, 0, 66, 104
1, 89505, Note_on_c, 0, 69, 114
1, 89627, Note_off_c, 0, 69, 114
1, 89631, Note_on_c, 0, 66, 98
1, 89720, Note_off_c, 0, 66, 98
1, 89730, Note_on_c, 0, 65, 101
1, 89823, Note_off_c, 0, 65, 101
1, 89828, Note_on_c, 0, 62, 98
1, 89885, Note_off_c, 0, 62, 98
1, 89972, Note_on_c, 0, 65, 105
1, 90054, Note_off_c, 0, 65, 105
1, 90068, Note_on_c, 0, 68, 111
1, 90176, Note_off_c, 0, 68, 111
1, 90181, Note_on_c, 0, 65, 108
1, 90266, Note_off_c, 0, 65, 108
1, 90268, Note_on_c, 0, 64, 97
1, 90349, Note_off_c, 0, 64, 97
1, 90386, Note_on_c, 0, 61, 94
1, 90445, Note_off_c, 0, 61, 94
1, 90516, Note_on_c, 0, 64, 108
1, 90603, Note_off_c, 0, 64, 108
1, 90618, Note_on_c, 0, 67, 109
1, 90713, Note_off_c, 0, 67, 109
1, 90754, Note_on_c, 0, 64, 100
1, 90835, Note_off_c, 0, 64, 100
1, 90840, Note_on_c, 0, 61, 83
1, 90911, Note_off_c, 0, 61, 83
1, 90926, Note_on_c, 0, 63, 112
1, 90999, Note_off_c, 0, 63, 112
1, 91016, Note_on_c, 0, 64, 101
1, 91095, Note_off_c, 0, 64, 101
1, 91100, Note_on_c, 0, 65, 99
1, 91169, Note_off_c, 0, 65, 99
1, 91182, Note_on_c, 0, 68, 108
1, 91261, Note_off_c, 0, 68, 108
1, 91284, Note_on_c, 0, 65, 101
1, 91365, Note_off_c, 0, 65, 101
1, 91394, Note_on_c, 0, 64, 109
1, 91467, Note_off_c, 0, 64, 109
1, 91492, Note_on_c, 0, 63, 106
1, 91563, Note_off_c, 0, 63, 106
1, 91590, Note_on_c, 0, 61, 84
1, 91649, Note_off_c, 0, 61, 84
1, 91654, Note_on_c, 0, 62, 104
1, 91743, Note_off_c, 0, 62, 104
1, 91760, Note_on_c, 0, 59, 103
1, 91841, Note_off_c, 0, 59, 103
1, 91844, Note_on_c, 0, 58, 101
1, 91903, Note_off_c, 0, 58, 101
1, 91909, Note_on_c, 0, 56, 103
1, 91978, Note_off_c, 0, 56, 103
1, 92033, Note_on_c, 0, 53, 104
1, 92112, Note_off_c, 0, 53, 104
1, 92119, Note_on_c, 0, 54, 108
1, 92192, Note_off_c, 0, 54, 108
1, 92199, Note_on_c, 0, 55, 102
1, 92282, Note_off_c, 0, 55, 102
1, 92291, Note_on_c, 0, 58, 103
1, 92374, Note_off_c, 0, 58, 103
1, 92397, Note_on_c, 0, 55, 102
1, 92468, Note_off_c, 0, 55, 102
1, 92483, Note_on_c, 0, 54, 105
1, 92588, Note_off_c, 0, 54, 105
1, 92597, Note_on_c, 0, 53, 95
1, 92660, Note_off_c, 0, 53, 95
1, 92683, Note_on_c, 0, 51, 90
1, 92736, Note_off_c, 0, 51, 90
1, 92746, Note_on_c, 0, 52, 96
1, 92839, Note_off_c, 0, 52, 96
1, 92844, Note_on_c, 0, 59, 105
1, 92960, Note_off_c, 0, 59, 105
1, 93497, Note_on_c, 0, 71, 110
1, 93582, Note_off_c, 0, 71, 110
1, 93593, Note_on_c, 0, 74, 113
1, 93698, Note_off_c, 0, 74, 113
1, 93700, Note_on_c, 0, 71, 110
1, 93776, Note_off_c, 0, 71, 110
1, 93784, Note_on_c, 0, 69, 113
1, 93880, Note_off_c, 0, 69, 113
1, 93892, Note_on_c, 0, 67, 95
1, 93949, Note_off_c, 0, 67, 95
1, 94083, Note_on_c, 0, 65, 108
1, 94350, Note_off_c, 0, 65, 108
1, 94368, Note_on_c, 0, 67, 106
1, 94445, Note_off_c, 0, 67, 106
1, 94640, Note_on_c, 0, 68, 109
1, 94745, Note_off_c, 0, 68, 109
1, 94756, Note_on_c, 0, 67, 97
1, 94829, Note_off_c, 0, 67, 97
1, 94840, Note_on_c, 0, 68, 83
1, 94967, Note_off_c, 0, 68, 83
1, 95406, Note_on_c, 0, 65, 103
1, 95496, Note_off_c, 0, 65, 103
1, 95504, Note_on_c, 0, 64, 111
1, 95586, Note_off_c, 0, 64, 111
1, 95597, Note_on_c, 0, 63, 108
1, 95699, Note_off_c, 0, 63, 108
1, 95699, Note_on_c, 0, 60, 90
1, 95752, Note_off_c, 0, 60, 90
1, 95775, Note_on_c, 0, 62, 98
1, 95842, Note_off_c, 0, 62, 98
1, 95865, Note_on_c, 0, 65, 100
1, 95954, Note_off_c, 0, 65, 100
1, 96057, Note_on_c, 0, 70, 111
1, 96187, Note_off_c, 0, 70, 111
1, 96246, Note_on_c, 0, 58, 94
1, 96343, Note_off_c, 0, 58, 94
1, 96435, Note_on_c, 0, 60, 99
1, 96525, Note_off_c, 0, 60, 99
1, 96533, Note_on_c, 0, 62, 111
1, 96720, Note_off_c, 0, 62, 111
1, 96732, Note_on_c, 0, 63, 110
1, 96947, Note_off_c, 0, 63, 110
1, 97446, Note_on_c, 0, 56, 102
1, 97523, Note_off_c, 0, 56, 102
1, 97530, Note_on_c, 0, 57, 100
1, 97592, Note_off_c, 0, 57, 100
1, 97600, Note_on_c, 0, 59, 104
1, 97671, Note_off_c, 0, 59, 104
1, 97676, Note_on_c, 0, 60, 105
1, 97769, Note_off_c, 0, 60, 105
1, 97777, Note_on_c, 0, 63, 102
1, 97848, Note_off_c, 0, 63, 102
1, 97865, Note_on_c, 0, 67, 113
1, 97967, Note_off_c, 0, 67, 113
1, 97975, Note_on_c, 0, 64, 104
1, 98037, Note_off_c, 0, 64, 104
1, 98045, Note_on_c, 0, 66, 96
1, 98121, Note_off_c, 0, 66, 96
1, 98132, Note_on_c, 0, 69, 112
1, 98245, Note_off_c, 0, 69, 112
1, 98253, Note_on_c, 0, 62, 101
1, 98326, Note_off_c, 0, 62, 101
1, 98339, Note_on_c, 0, 61, 104
1, 98424, Note_off_c, 0, 61, 104
1, 98441, Note_on_c, 0, 60, 99
1, 98528, Note_off_c, 0, 60, 99
1, 98543, Note_on_c, 0, 57, 91
1, 98616, Note_off_c, 0, 57, 91
1, 98627, Note_on_c, 0, 59, 95
1, 98703, Note_off_c, 0, 59, 95
1, 98708, Note_on_c, 0, 64, 111
1, 98817, Note_off_c, 0, 64, 111
1, 98838, Note_on_c, 0, 62, 108
1, 98905, Note_off_c, 0, 62, 108
1, 98910, Note_on_c, 0, 63, 101
1, 98987, Note_off_c, 0, 63, 101
1, 98993, Note_on_c, 0, 62, 109
1, 99072, Note_off_c, 0, 62, 109
1, 99089, Note_on_c, 0, 61, 105
1, 99185, Note_off_c, 0, 61, 105
1, 99199, Note_on_c, 0, 58, 96
1, 99281, Note_off_c, 0, 58, 96
1, 99306, Note_on_c, 0, 56, 104
1, 99382, Note_off_c, 0, 56, 104
1, 99393, Note_on_c, 0, 53, 100
1, 99468, Note_off_c, 0, 53, 100
1, 99495, Note_on_c, 0, 50, 99
1, 99548, Note_off_c, 0, 50, 99
1, 99555, Note_on_c, 0, 52, 101
1, 99700, Note_off_c, 0, 52, 101
1, 99717, Note_on_c, 0, 54, 107
1, 99876, Note_off_c, 0, 54, 107
1, 99915, Note_on_c, 0, 55, 101
1, 100068, Note_off_c, 0, 55, 101
1, 100087, Note_on_c, 0, 57, 104
1, 100277, Note_off_c, 0, 57, 104
1, 100285, Note_on_c, 0, 59, 104
1, 100424, Note_off_c, 0, 59, 104
1, 100449, Note_on_c, 0, 60, 102
1, 100662, Note_off_c, 0, 60, 102
1, 100670, Note_on_c, 0, 62, 107
1, 100866, Note_off_c, 0, 62, 107
1, 100888, Note_on_c, 0, 64, 100
1, 101064, Note_off_c, 0, 64, 100
1, 101069, Note_on_c, 0, 66, 105
1, 101253, Note_off_c, 0, 66, 105
1, 101278, Note_on_c, 0, 67, 106
1, 101441, Note_off_c, 0, 67, 106
1, 101459, Note_on_c, 0, 69, 108
1, 101586, Note_off_c, 0, 69, 108
1, 101620, Note_on_c, 0, 71, 98
1, 101807, Note_off_c, 0, 71, 98
1, 101818, Note_on_c, 0, 72, 101
1, 101977, Note_off_c, 0, 72, 101
1, 101996, Note_on_c, 0, 73, 108
1, 102192, Note_on_c, 0, 74, 101
1, 102192, Note_off_c, 0, 73, 108
1, 102379, Note_off_c, 0, 74, 101
1, 102398, Note_on_c, 0, 71, 109
1, 102525, Note_off_c, 0, 71, 109
1, 102590, Note_on_c, 0, 69, 100
1, 102749, Note_off_c, 0, 69, 100
1, 102757, Note_on_c, 0, 67, 111
1, 102898, Note_off_c, 0, 67, 111
1, 102952, Note_on_c, 0, 66, 100
1, 103202, Note_off_c, 0, 66, 100
1, 103357, Note_on_c, 0, 74, 111
1, 103428, Note_off_c, 0, 74, 111
1, 103443, Note_on_c, 0, 76, 103
1, 103598, Note_off_c, 0, 76, 103
1, 103617, Note_on_c, 0, 75, 99
1, 103896, Note_off_c, 0, 75, 99
1, 104111, Note_on_c, 0, 75, 108
1, 104202, Note_off_c, 0, 75, 108
1, 104238, Note_on_c, 0, 76, 103
1, 104360, Note_off_c, 0, 76, 103
1, 104377, Note_on_c, 0, 78, 100
1, 104486, Note_off_c, 0, 78, 100
1, 104537, Note_on_c, 0, 79, 109
1, 104588, Note_off_c, 0, 79, 109
1, 104606, Note_on_c, 0, 80, 97
1, 104799, Note_off_c, 0, 80, 97
1, 104876, Note_on_c, 0, 71, 103
1, 104961, Note_off_c, 0, 71, 103
1, 104994, Note_on_c, 0, 73, 102
1, 105083, Note_off_c, 0, 73, 102
1, 105130, Note_on_c, 0, 71, 106
1, 105415, Note_off_c, 0, 71, 106
1, 105634, Note_on_c, 0, 71, 105
1, 105725, Note_off_c, 0, 71, 105
1, 105726, Note_on_c, 0, 70, 114
1, 105841, Note_off_c, 0, 70, 114
1, 105850, Note_on_c, 0, 69, 111
1, 105953, Note_off_c, 0, 69, 111
1, 106002, Note_on_c, 0, 68, 100
1, 106139, Note_off_c, 0, 68, 100
1, 106175, Note_on_c, 0, 67, 107
1, 106271, Note_off_c, 0, 67, 107
1, 106282, Note_on_c, 0, 64, 101
1, 106370, Note_off_c, 0, 64, 101
1, 106387, Note_on_c, 0, 63, 96
1, 106469, Note_off_c, 0, 63, 96
1, 106488, Note_on_c, 0, 61, 101
1, 106619, Note_off_c, 0, 61, 101
1, 106669, Note_on_c, 0, 59, 108
1, 106782, Note_off_c, 0, 59, 108
1, 106801, Note_on_c, 0, 58, 96
1, 106860, Note_off_c, 0, 58, 96
1, 106865, Note_on_c, 0, 54, 106
1, 106958, Note_off_c, 0, 54, 106
1, 106964, Note_on_c, 0, 57, 98
1, 107021, Note_off_c, 0, 57, 98
1, 107050, Note_on_c, 0, 60, 92
1, 107125, Note_off_c, 0, 60, 92
1, 107127, Note_on_c, 0, 65, 106
1, 107249, Note_off_c, 0, 65, 106
1, 107405, Note_on_c, 0, 52, 98
1, 107516, Note_off_c, 0, 52, 98
1, 107601, Note_on_c, 0, 56, 106
1, 107658, Note_off_c, 0, 56, 106
1, 107663, Note_on_c, 0, 59, 101
1, 107782, Note_off_c, 0, 59, 101
1, 107789, Note_on_c, 0, 56, 96
1, 107838, Note_off_c, 0, 56, 96
1, 107857, Note_on_c, 0, 58, 95
1, 107965, Note_off_c, 0, 58, 95
1, 107971, Note_on_c, 0, 62, 104
1, 108042, Note_off_c, 0, 62, 104
1, 108057, Note_on_c, 0, 59, 104
1, 108173, Note_off_c, 0, 59, 104
1, 108188, Note_on_c, 0, 63, 107
1, 108309, Note_off_c, 0, 63, 107
1, 108318, Note_on_c, 0, 62, 100
1, 108386, Note_off_c, 0, 62, 100
1, 108403, Note_on_c, 0, 58, 89
1, 108467, Note_off_c, 0, 58, 89
1, 108467, Note_on_c, 0, 61, 103
1, 108570, Note_off_c, 0, 61, 103
1, 108585, Note_on_c, 0, 57, 90
1, 108632, Note_off_c, 0, 57, 90
1, 108651, Note_on_c, 0, 60, 101
1, 108756, Note_off_c, 0, 60, 101
1, 108764, Note_on_c, 0, 62, 96
1, 108840, Note_off_c, 0, 62, 96
1, 108868, Note_on_c, 0, 64, 107
1, 108961, Note_off_c, 0, 64, 107
1, 108963, Note_on_c, 0, 66, 106
1, 109065, Note_off_c, 0, 66, 106
1, 109067, Note_on_c, 0, 67, 106
1, 109118, Note_off_c, 0, 67, 106
1, 109127, Note_on_c, 0, 69, 98
1, 109204, Note_off_c, 0, 69, 98
1, 109221, Note_on_c, 0, 66, 101
1, 109320, Note_off_c, 0, 66, 101
1, 109399, Note_on_c, 0, 68, 107
1, 109691, Note_off_c, 0, 68, 107
1, 109719, Note_on_c, 0, 64, 98
1, 109807, Note_off_c, 0, 64, 98
1, 109818, Note_on_c, 0, 63, 95
1, 109874, Note_off_c, 0, 63, 95
1, 109885, Note_on_c, 0, 61, 97
1, 109970, Note_off_c, 0, 61, 97
1, 109970, Note_on_c, 0, 59, 79
1, 110078, Note_off_c, 0, 59, 79
1, 110186, Note_on_c, 0, 68, 108
1, 110399, Note_off_c, 0, 68, 108
1, 110427, Note_on_c, 0, 71, 107
1, 110560, Note_off_c, 0, 71, 107
1, 110628, Note_on_c, 0, 64, 89
1, 110696, Note_off_c, 0, 64, 89
1, 110715, Note_on_c, 0, 67, 102
1, 110976, Note_off_c, 0, 67, 102
1, 110990, Note_on_c, 0, 70, 106
1, 111071, Note_off_c, 0, 70, 106
1, 111078, Note_on_c, 0, 67, 97
1, 111155, Note_off_c, 0, 67, 97
1, 111273, Note_on_c, 0, 71, 108
1, 111520, Note_off_c, 0, 71, 108
1, 111534, Note_on_c, 0, 74, 105
1, 111650, Note_off_c, 0, 74, 105
1, 111746, Note_on_c, 0, 68, 84
1, 111811, Note_off_c, 0, 68, 84
1, 111841, Note_on_c, 0, 70, 106
1, 112071, Note_off_c, 0, 70, 106
1, 112405, Note_on_c, 0, 72, 108
1, 112474, Note_off_c, 0, 72, 108
1, 112493, Note_on_c, 0, 75, 108
1, 112576, Note_off_c, 0, 75, 108
1, 112613, Note_on_c, 0, 72, 101
1, 112669, Note_off_c, 0, 72, 101
1, 112686, Note_on_c, 0, 70, 86
1, 112757, Note_off_c, 0, 70, 86
1, 112770, Note_on_c, 0, 73, 107
1, 112849, Note_off_c, 0, 73, 107
1, 112866, Note_on_c, 0, 76, 113
1, 112982, Note_off_c, 0, 76, 113
1, 113001, Note_on_c, 0, 73, 101
1, 113063, Note_off_c, 0, 73, 101
1, 113134, Note_on_c, 0, 73, 108
1, 113207, Note_off_c, 0, 73, 108
1, 113224, Note_on_c, 0, 76, 110
1, 113340, Note_off_c, 0, 76, 110
1, 113340, Note_on_c, 0, 73, 102
1, 113429, Note_off_c, 0, 73, 102
1, 113491, Note_on_c, 0, 72, 94
1, 113579, Note_off_c, 0, 72, 94
1, 113598, Note_on_c, 0, 73, 109
1, 113686, Note_off_c, 0, 73, 109
1, 113691, Note_on_c, 0, 74, 104
1, 113784, Note_off_c, 0, 74, 104
1, 113792, Note_on_c, 0, 73, 110
1, 113897, Note_off_c, 0, 73, 110
1, 113897, Note_on_c, 0, 72, 103
1, 113976, Note_off_c, 0, 72, 103
1, 113984, Note_on_c, 0, 71, 109
1, 114089, Note_off_c, 0, 71, 109
1, 114089, Note_on_c, 0, 70, 112
1, 114165, Note_off_c, 0, 70, 112
1, 114184, Note_on_c, 0, 69, 112
1, 114277, Note_off_c, 0, 69, 112
1, 114285, Note_on_c, 0, 68, 106
1, 114378, Note_off_c, 0, 68, 106
1, 114393, Note_on_c, 0, 66, 80
1, 114450, Note_off_c, 0, 66, 80
1, 114451, Note_on_c, 0, 67, 104
1, 114534, Note_off_c, 0, 67, 104
1, 114553, Note_on_c, 0, 64, 101
1, 114630, Note_off_c, 0, 64, 101
1, 114645, Note_on_c, 0, 63, 89
1, 114726, Note_off_c, 0, 63, 89
1, 114740, Note_on_c, 0, 61, 90
1, 114813, Note_on_c, 0, 60, 86
1, 114813, Note_off_c, 0, 61, 90
1, 114895, Note_off_c, 0, 60, 86
1, 114912, Note_on_c, 0, 59, 100
1, 115003, Note_off_c, 0, 59, 100
1, 115008, Note_on_c, 0, 58, 83
1, 115043, Note_off_c, 0, 58, 83
1, 115072, Note_on_c, 0, 54, 104
1, 115151, Note_off_c, 0, 54, 104
1, 115168, Note_on_c, 0, 57, 99
1, 115267, Note_off_c, 0, 57, 99
1, 115805, Note_on_c, 0, 60, 102
1, 115916, Note_off_c, 0, 60, 102
1, 116345, Note_on_c, 0, 65, 108
1, 116486, Note_off_c, 0, 65, 108
1, 116557, Note_on_c, 0, 58, 91
1, 116713, Note_off_c, 0, 58, 91
1, 116869, Note_on_c, 0, 59, 85
1, 116951, Note_off_c, 0, 59, 85
1, 116956, Note_on_c, 0, 58, 102
1, 117044, Note_off_c, 0, 58, 102
1, 117055, Note_on_c, 0, 57, 101
1, 117120, Note_off_c, 0, 57, 101
1, 117131, Note_on_c, 0, 56, 94
1, 117202, Note_off_c, 0, 56, 94
1, 117221, Note_on_c, 0, 51, 103
1, 117269, Note_off_c, 0, 51, 103
1, 117274, Note_on_c, 0, 55, 99
1, 117364, Note_off_c, 0, 55, 99
1, 117373, Note_on_c, 0, 61, 109
1, 117476, Note_off_c, 0, 61, 109
1, 117485, Note_on_c, 0, 60, 98
1, 117544, Note_off_c, 0, 60, 98
1, 117591, Note_on_c, 0, 56, 84
1, 117630, Note_off_c, 0, 56, 84
1, 117640, Note_on_c, 0, 59, 101
1, 117725, Note_off_c, 0, 59, 101
1, 117742, Note_on_c, 0, 55, 103
1, 117818, Note_off_c, 0, 55, 103
1, 118335, Note_on_c, 0, 55, 101
1, 118417, Note_off_c, 0, 55, 101
1, 118419, Note_on_c, 0, 56, 97
1, 118492, Note_off_c, 0, 56, 97
1, 118494, Note_on_c, 0, 58, 99
1, 118570, Note_off_c, 0, 58, 99
1, 118570, Note_on_c, 0, 60, 100
1, 118683, Note_off_c, 0, 60, 100
1, 118704, Note_on_c, 0, 63, 89
1, 118755, Note_off_c, 0, 63, 89
1, 118780, Note_on_c, 0, 67, 110
1, 118845, Note_off_c, 0, 67, 110
1, 118859, Note_on_c, 0, 68, 110
1, 118935, Note_off_c, 0, 68, 110
1, 118949, Note_on_c, 0, 69, 108
1, 119048, Note_off_c, 0, 69, 108
1, 119062, Note_on_c, 0, 68, 108
1, 119147, Note_off_c, 0, 68, 108
1, 119152, Note_on_c, 0, 67, 106
1, 119228, Note_off_c, 0, 67, 106
1, 119245, Note_on_c, 0, 66, 101
1, 119333, Note_off_c, 0, 66, 101
1, 119352, Note_on_c, 0, 63, 100
1, 119425, Note_off_c, 0, 63, 100
1, 119442, Note_on_c, 0, 65, 96
1, 119581, Note_off_c, 0, 65, 96
1, 119598, Note_on_c, 0, 67, 109
1, 119660, Note_off_c, 0, 67, 109
1, 119662, Note_on_c, 0, 69, 107
1, 119784, Note_off_c, 0, 69, 107
1, 119812, Note_on_c, 0, 63, 105
1, 119911, Note_off_c, 0, 63, 105
1, 119936, Note_on_c, 0, 62, 101
1, 120046, Note_off_c, 0, 62, 101
1, 120068, Note_on_c, 0, 61, 102
1, 120204, Note_off_c, 0, 61, 102
1, 120267, Note_on_c, 0, 60, 100
1, 120498, Note_off_c, 0, 60, 100
1, 120559, Note_on_c, 0, 60, 97
1, 120616, Note_off_c, 0, 60, 97
1, 120635, Note_on_c, 0, 62, 105
1, 120710, Note_off_c, 0, 62, 105
1, 120732, Note_on_c, 0, 64, 103
1, 120805, Note_off_c, 0, 64, 103
1, 120830, Note_on_c, 0, 64, 100
1, 120892, Note_off_c, 0, 64, 100
1, 120911, Note_on_c, 0, 64, 102
1, 120996, Note_off_c, 0, 64, 102
1, 121059, Note_on_c, 0, 65, 108
1, 121104, Note_off_c, 0, 65, 108
1, 121136, Note_on_c, 0, 67, 98
1, 121204, Note_off_c, 0, 67, 98
1, 121212, Note_on_c, 0, 67, 96
1, 121294, Note_off_c, 0, 67, 96
1, 121299, Note_on_c, 0, 67, 101
1, 121378, Note_off_c, 0, 67, 101
1, 121390, Note_on_c, 0, 70, 110
1, 121459, Note_off_c, 0, 70, 110
1, 121506, Note_on_c, 0, 72, 98
1, 121582, Note_off_c, 0, 72, 98
1, 121593, Note_on_c, 0, 72, 97
1, 121675, Note_off_c, 0, 72, 97
1, 121683, Note_on_c, 0, 72, 107
1, 121759, Note_off_c, 0, 72, 107
1, 121799, Note_on_c, 0, 68, 99
1, 121996, Note_off_c, 0, 68, 99
1, 122021, Note_on_c, 0, 68, 99
1, 122136, Note_off_c, 0, 68, 99
1, 122185, Note_on_c, 0, 72, 109
1, 122230, Note_off_c, 0, 72, 109
1, 122274, Note_on_c, 0, 75, 105
1, 122336, Note_off_c, 0, 75, 105
1, 122350, Note_on_c, 0, 75, 99
1, 122432, Note_off_c, 0, 75, 99
1, 122457, Note_on_c, 0, 75, 110
1, 122567, Note_off_c, 0, 75, 110
1, 122569, Note_on_c, 0, 74, 109
1, 122668, Note_off_c, 0, 74, 109
1, 122690, Note_on_c, 0, 74, 101
1, 122786, Note_off_c, 0, 74, 101
1, 122831, Note_on_c, 0, 74, 105
1, 122930, Note_off_c, 0, 74, 105
1, 122972, Note_on_c, 0, 65, 86
1, 123049, Note_off_c, 0, 65, 86
1, 123072, Note_on_c, 0, 67, 86
1, 123167, Note_off_c, 0, 67, 86
1, 123210, Note_on_c, 0, 67, 96
1, 123311, Note_off_c, 0, 67, 96
1, 123328, Note_on_c, 0, 65, 103
1, 123413, Note_off_c, 0, 65, 103
1, 123418, Note_on_c, 0, 65, 99
1, 123508, Note_off_c, 0, 65, 99
1, 123525, Note_on_c, 0, 65, 91
1, 123644, Note_off_c, 0, 65, 91
1, 123669, Note_on_c, 0, 70, 113
1, 123774, Note_off_c, 0, 70, 113
1, 123793, Note_on_c, 0, 70, 105
1, 123912, Note_off_c, 0, 70, 105
1, 123940, Note_on_c, 0, 70, 94
1, 124025, Note_off_c, 0, 70, 94
1, 124077, Note_on_c, 0, 65, 108
1, 124142, Note_off_c, 0, 65, 108
1, 124171, Note_on_c, 0, 67, 103
1, 124247, Note_off_c, 0, 67, 103
1, 124255, Note_on_c, 0, 67, 93
1, 124328, Note_off_c, 0, 67, 93
1, 124342, Note_on_c, 0, 67, 105
1, 124421, Note_off_c, 0, 67, 105
1, 124452, Note_on_c, 0, 63, 108
1, 124649, Note_off_c, 0, 63, 108
1, 124674, Note_on_c, 0, 63, 97
1, 124775, Note_off_c, 0, 63, 97
1, 124800, Note_on_c, 0, 64, 108
1, 124887, Note_off_c, 0, 64, 108
1, 124898, Note_on_c, 0, 65, 106
1, 124937, Note_off_c, 0, 65, 106
1, 124948, Note_on_c, 0, 66, 95
1, 125005, Note_off_c, 0, 66, 95
1, 125058, Note_on_c, 0, 66, 101
1, 125153, Note_off_c, 0, 66, 101
1, 125204, Note_on_c, 0, 69, 111
1, 125315, Note_off_c, 0, 69, 111
1, 125356, Note_on_c, 0, 69, 95
1, 125421, Note_off_c, 0, 69, 95
1, 125444, Note_on_c, 0, 69, 96
1, 125509, Note_off_c, 0, 69, 96
1, 125598, Note_on_c, 0, 60, 101
1, 125657, Note_off_c, 0, 60, 101
1, 125668, Note_on_c, 0, 62, 98
1, 125758, Note_off_c, 0, 62, 98
1, 125780, Note_on_c, 0, 62, 90
1, 125819, Note_off_c, 0, 62, 90
1, 125844, Note_on_c, 0, 62, 91
1, 125915, Note_off_c, 0, 62, 91
1, 125942, Note_on_c, 0, 69, 103
1, 126005, Note_off_c, 0, 69, 103
1, 126030, Note_on_c, 0, 71, 103
1, 126143, Note_off_c, 0, 71, 103
1, 126165, Note_on_c, 0, 71, 98
1, 126221, Note_off_c, 0, 71, 98
1, 126249, Note_on_c, 0, 71, 103
1, 126328, Note_off_c, 0, 71, 103
1, 126333, Note_on_c, 0, 70, 105
1, 126398, Note_off_c, 0, 70, 105
1, 126432, Note_on_c, 0, 72, 102
1, 126486, Note_off_c, 0, 72, 102
1, 126511, Note_on_c, 0, 72, 90
1, 126584, Note_off_c, 0, 72, 90
1, 126592, Note_on_c, 0, 72, 100
1, 126657, Note_off_c, 0, 72, 100
1, 126708, Note_on_c, 0, 72, 107
1, 126773, Note_off_c, 0, 72, 107
1, 126786, Note_on_c, 0, 74, 104
1, 126849, Note_off_c, 0, 74, 104
1, 126928, Note_on_c, 0, 62, 92
1, 127095, Note_off_c, 0, 62, 92
1, 127108, Note_on_c, 0, 61, 86
1, 127271, Note_off_c, 0, 61, 86
1, 127848, Note_on_c, 0, 72, 110
1, 127893, Note_off_c, 0, 72, 110
1, 127906, Note_on_c, 0, 74, 103
1, 128031, Note_off_c, 0, 74, 103
1, 128062, Note_on_c, 0, 74, 111
1, 128227, Note_off_c, 0, 74, 111
1, 128242, Note_on_c, 0, 75, 108
1, 128393, Note_off_c, 0, 75, 108
1, 128482, Note_on_c, 0, 63, 95
1, 128581, Note_off_c, 0, 63, 95
1, 128609, Note_on_c, 0, 62, 83
1, 128785, Note_off_c, 0, 62, 83
1, 129361, Note_on_c, 0, 75, 106
1, 129477, Note_off_c, 0, 75, 106
1, 129494, Note_on_c, 0, 73, 93
1, 129556, Note_off_c, 0, 73, 93
1, 129570, Note_on_c, 0, 75, 108
1, 129737, Note_off_c, 0, 75, 108
1, 129745, Note_on_c, 0, 76, 113
1, 129881, Note_off_c, 0, 76, 113
1, 129943, Note_on_c, 0, 64, 93
1, 130048, Note_off_c, 0, 64, 93
1, 130073, Note_on_c, 0, 63, 89
1, 130158, Note_off_c, 0, 63, 89
1, 130503, Note_on_c, 0, 76, 114
1, 130598, Note_off_c, 0, 76, 114
1, 130673, Note_on_c, 0, 76, 115
1, 130812, Note_off_c, 0, 76, 115
1, 130888, Note_on_c, 0, 76, 100
1, 130970, Note_off_c, 0, 76, 100
1, 130979, Note_on_c, 0, 78, 103
1, 131140, Note_off_c, 0, 78, 103
1, 131205, Note_on_c, 0, 66, 92
1, 131336, Note_off_c, 0, 66, 92
1, 131425, Note_on_c, 0, 79, 104
1, 131504, Note_off_c, 0, 79, 104
1, 131513, Note_on_c, 0, 80, 99
1, 131782, Note_off_c, 0, 80, 99
1, 132031, Note_on_c, 0, 78, 109
1, 132153, Note_off_c, 0, 78, 109
1, 132153, Note_on_c, 0, 76, 114
1, 132272, Note_off_c, 0, 76, 114
1, 132283, Note_on_c, 0, 75, 103
1, 132359, Note_off_c, 0, 75, 103
1, 132364, Note_on_c, 0, 71, 81
1, 132420, Note_off_c, 0, 71, 81
1, 132423, Note_on_c, 0, 74, 107
1, 132534, Note_off_c, 0, 74, 107
1, 132614, Note_on_c, 0, 73, 106
1, 132724, Note_off_c, 0, 73, 106
1, 132795, Note_on_c, 0, 72, 95
1, 132883, Note_off_c, 0, 72, 95
1, 132883, Note_on_c, 0, 68, 113
1, 132993, Note_off_c, 0, 68, 113
1, 132995, Note_on_c, 0, 67, 101
1, 133074, Note_off_c, 0, 67, 101
1, 133077, Note_on_c, 0, 64, 97
1, 133170, Note_off_c, 0, 64, 97
1, 133171, Note_on_c, 0, 63, 97
1, 133247, Note_off_c, 0, 63, 97
1, 133258, Note_on_c, 0, 61, 99
1, 133331, Note_off_c, 0, 61, 99
1, 133353, Note_on_c, 0, 60, 104
1, 133449, Note_off_c, 0, 60, 104
1, 133454, Note_on_c, 0, 59, 105
1, 133581, Note_off_c, 0, 59, 105
1, 133595, Note_on_c, 0, 58, 101
1, 133660, Note_off_c, 0, 58, 101
1, 133677, Note_on_c, 0, 54, 94
1, 133739, Note_off_c, 0, 54, 94
1, 133781, Note_on_c, 0, 57, 99
1, 134039, Note_off_c, 0, 57, 99
1, 134050, Note_on_c, 0, 60, 105
1, 134191, Note_off_c, 0, 60, 105
1, 134264, Note_on_c, 0, 61, 97
1, 134539, Note_off_c, 0, 61, 97
1, 134559, Note_on_c, 0, 63, 100
1, 134688, Note_off_c, 0, 63, 100
1, 134813, Note_on_c, 0, 65, 102
1, 135108, Note_off_c, 0, 65, 102
1, 135166, Note_on_c, 0, 55, 92
1, 135375, Note_off_c, 0, 55, 92
1, 135394, Note_on_c, 0, 56, 111
1, 135477, Note_off_c, 0, 56, 111
1, 135536, Note_on_c, 0, 58, 101
1, 135657, Note_off_c, 0, 58, 101
1, 135744, Note_on_c, 0, 60, 103
1, 135954, Note_off_c, 0, 60, 103
1, 135985, Note_on_c, 0, 61, 105
1, 136084, Note_off_c, 0, 61, 105
1, 136135, Note_on_c, 0, 63, 97
1, 136362, Note_off_c, 0, 63, 97
1, 136891, Note_on_c, 0, 68, 109
1, 136990, Note_off_c, 0, 68, 109
1, 137002, Note_on_c, 0, 65, 103
1, 137084, Note_off_c, 0, 65, 103
1, 137086, Note_on_c, 0, 63, 100
1, 137188, Note_off_c, 0, 63, 100
1, 137205, Note_on_c, 0, 61, 90
1, 137284, Note_off_c, 0, 61, 90
1, 137298, Note_on_c, 0, 68, 107
1, 137403, Note_off_c, 0, 68, 107
1, 137410, Note_on_c, 0, 64, 100
1, 137497, Note_off_c, 0, 64, 100
1, 137521, Note_on_c, 0, 63, 97
1, 137589, Note_off_c, 0, 63, 97
1, 137597, Note_on_c, 0, 61, 90
1, 137690, Note_off_c, 0, 61, 90
1, 137698, Note_on_c, 0, 67, 104
1, 137788, Note_off_c, 0, 67, 104
1, 137799, Note_on_c, 0, 63, 107
1, 137888, Note_off_c, 0, 63, 107
1, 137903, Note_on_c, 0, 62, 101
1, 137971, Note_off_c, 0, 62, 101
1, 137982, Note_on_c, 0, 60, 97
1, 138064, Note_off_c, 0, 60, 97
1, 138082, Note_on_c, 0, 67, 106
1, 138179, Note_off_c, 0, 67, 106
1, 138232, Note_on_c, 0, 67, 107
1, 138313, Note_off_c, 0, 67, 107
1, 138347, Note_on_c, 0, 63, 110
1, 138440, Note_off_c, 0, 63, 110
1, 138442, Note_on_c, 0, 62, 106
1, 138514, Note_off_c, 0, 62, 106
1, 138514, Note_on_c, 0, 60, 93
1, 138591, Note_off_c, 0, 60, 93
1, 138778, Note_on_c, 0, 68, 109
1, 138886, Note_off_c, 0, 68, 109
1, 138894, Note_on_c, 0, 65, 106
1, 138976, Note_off_c, 0, 65, 106
1, 138990, Note_on_c, 0, 63, 102
1, 139075, Note_off_c, 0, 63, 102
1, 139084, Note_on_c, 0, 62, 91
1, 139143, Note_off_c, 0, 62, 91
1, 139170, Note_on_c, 0, 68, 105
1, 139253, Note_off_c, 0, 68, 105
1, 139276, Note_on_c, 0, 65, 105
1, 139357, Note_off_c, 0, 65, 105
1, 139373, Note_on_c, 0, 63, 101
1, 139444, Note_off_c, 0, 63, 101
1, 139452, Note_on_c, 0, 62, 89
1, 139523, Note_off_c, 0, 62, 89
1, 139533, Note_on_c, 0, 68, 108
1, 139636, Note_off_c, 0, 68, 108
1, 139652, Note_on_c, 0, 65, 107
1, 139754, Note_off_c, 0, 65, 107
1, 139767, Note_on_c, 0, 63, 101
1, 139838, Note_off_c, 0, 63, 101
1, 139846, Note_on_c, 0, 62, 88
1, 139902, Note_off_c, 0, 62, 88
1, 139938, Note_on_c, 0, 68, 105
1, 140068, Note_off_c, 0, 68, 105
1, 140068, Note_on_c, 0, 64, 86
1, 140099, Note_off_c, 0, 64, 86
1, 140132, Note_on_c, 0, 68, 108
1, 140309, Note_off_c, 0, 68, 108
1, 140392, Note_on_c, 0, 64, 106
1, 140489, Note_off_c, 0, 64, 106
1, 140503, Note_on_c, 0, 63, 105
1, 140571, Note_off_c, 0, 63, 105
1, 140578, Note_on_c, 0, 61, 86
1, 140653, Note_off_c, 0, 61, 86
1, 140680, Note_on_c, 0, 68, 109
1, 140770, Note_off_c, 0, 68, 109
1, 140778, Note_on_c, 0, 65, 105
1, 140857, Note_off_c, 0, 65, 105
1, 140859, Note_on_c, 0, 63, 104
1, 140955, Note_off_c, 0, 63, 104
1, 140970, Note_on_c, 0, 60, 89
1, 141041, Note_off_c, 0, 60, 89
1, 141049, Note_on_c, 0, 68, 105
1, 141171, Note_off_c, 0, 68, 105
1, 141409, Note_on_c, 0, 68, 107
1, 141519, Note_off_c, 0, 68, 107
1, 141535, Note_on_c, 0, 64, 89
1, 141606, Note_off_c, 0, 64, 89
1, 141622, Note_on_c, 0, 63, 91
1, 141698, Note_off_c, 0, 63, 91
1, 141709, Note_on_c, 0, 61, 86
1, 141780, Note_off_c, 0, 61, 86
1, 141785, Note_on_c, 0, 68, 110
1, 141887, Note_off_c, 0, 68, 110
1, 141898, Note_on_c, 0, 64, 108
1, 141991, Note_off_c, 0, 64, 108
1, 141993, Note_on_c, 0, 63, 104
1, 142064, Note_off_c, 0, 63, 104
1, 142072, Note_on_c, 0, 61, 96
1, 142157, Note_off_c, 0, 61, 96
1, 142158, Note_on_c, 0, 68, 107
1, 142251, Note_off_c, 0, 68, 107
1, 142264, Note_on_c, 0, 65, 105
1, 142325, Note_off_c, 0, 65, 105
1, 142340, Note_on_c, 0, 63, 98
1, 142397, Note_off_c, 0, 63, 98
1, 142410, Note_on_c, 0, 60, 102
1, 142560, Note_off_c, 0, 60, 102
1, 142701, Note_on_c, 0, 68, 110
1, 142788, Note_off_c, 0, 68, 110
1, 142815, Note_on_c, 0, 65, 103
1, 142892, Note_off_c, 0, 65, 103
1, 142899, Note_on_c, 0, 63, 97
1, 142970, Note_off_c, 0, 63, 97
1, 142989, Note_on_c, 0, 61, 99
1, 143072, Note_off_c, 0, 61, 99
1, 143267, Note_on_c, 0, 68, 100
1, 143344, Note_off_c, 0, 68, 100
1, 143363, Note_on_c, 0, 65, 101
1, 143466, Note_off_c, 0, 65, 101
1, 143493, Note_on_c, 0, 63, 96
1, 143562, Note_off_c, 0, 63, 96
1, 143583, Note_on_c, 0, 61, 87
1, 143646, Note_off_c, 0, 61, 87
1, 143650, Note_on_c, 0, 68, 110
1, 143749, Note_off_c, 0, 68, 110
1, 143766, Note_on_c, 0, 64, 100
1, 143845, Note_off_c, 0, 64, 100
1, 143859, Note_on_c, 0, 63, 101
1, 143948, Note_off_c, 0, 63, 101
1, 143977, Note_on_c, 0, 60, 92
1, 144178, Note_off_c, 0, 60, 92
1, 144767, Note_on_c, 0, 68, 108
1, 144878, Note_off_c, 0, 68, 108
1, 144901, Note_on_c, 0, 64, 93
1, 144972, Note_off_c, 0, 64, 93
1, 144983, Note_on_c, 0, 63, 91
1, 145040, Note_off_c, 0, 63, 91
1, 145069, Note_on_c, 0, 61, 95
1, 145146, Note_off_c, 0, 61, 95
1, 145171, Note_on_c, 0, 68, 108
1, 145262, Note_off_c, 0, 68, 108
1, 145275, Note_on_c, 0, 65, 105
1, 145342, Note_off_c, 0, 65, 105
1, 145350, Note_on_c, 0, 63, 100
1, 145443, Note_off_c, 0, 63, 100
1, 145443, Note_on_c, 0, 63, 80
1, 145443, Note_off_c, 0, 63, 80
1, 145460, Note_on_c, 0, 63, 96
1, 145514, Note_off_c, 0, 63, 96
1, 145530, Note_on_c, 0, 70, 109
1, 145633, Note_off_c, 0, 70, 109
1, 145643, Note_on_c, 0, 67, 109
1, 145736, Note_off_c, 0, 67, 109
1, 145753, Note_on_c, 0, 65, 98
1, 145835, Note_off_c, 0, 65, 98
1, 145846, Note_on_c, 0, 65, 99
1, 145902, Note_off_c, 0, 65, 99
1, 145916, Note_on_c, 0, 71, 110
1, 146012, Note_off_c, 0, 71, 110
1, 146026, Note_on_c, 0, 67, 108
1, 146105, Note_off_c, 0, 67, 108
1, 146109, Note_on_c, 0, 66, 106
1, 146174, Note_off_c, 0, 66, 106
1, 146179, Note_on_c, 0, 66, 91
1, 146235, Note_off_c, 0, 66, 91
1, 146274, Note_on_c, 0, 72, 110
1, 146367, Note_off_c, 0, 72, 110
1, 146381, Note_on_c, 0, 69, 110
1, 146463, Note_off_c, 0, 69, 110
1, 146468, Note_on_c, 0, 67, 103
1, 146539, Note_off_c, 0, 67, 103
1, 146550, Note_on_c, 0, 67, 84
1, 146612, Note_off_c, 0, 67, 84
1, 146637, Note_on_c, 0, 74, 109
1, 146742, Note_off_c, 0, 74, 109
1, 146755, Note_on_c, 0, 71, 108
1, 146842, Note_off_c, 0, 71, 108
1, 146854, Note_on_c, 0, 69, 98
1, 146916, Note_off_c, 0, 69, 98
1, 146921, Note_on_c, 0, 67, 88
1, 147137, Note_off_c, 0, 67, 88
1, 147367, Note_on_c, 0, 74, 113
1, 147472, Note_off_c, 0, 74, 113
1, 147497, Note_on_c, 0, 71, 109
1, 147584, Note_off_c, 0, 71, 109
1, 147599, Note_on_c, 0, 69, 105
1, 147687, Note_off_c, 0, 69, 105
1, 147706, Note_on_c, 0, 68, 86
1, 147754, Note_off_c, 0, 68, 86
1, 147759, Note_on_c, 0, 74, 108
1, 147861, Note_off_c, 0, 74, 108
1, 147874, Note_on_c, 0, 70, 108
1, 147961, Note_off_c, 0, 70, 108
1, 147970, Note_on_c, 0, 69, 106
1, 148035, Note_off_c, 0, 69, 106
1, 148038, Note_on_c, 0, 67, 97
1, 148105, Note_off_c, 0, 67, 97
1, 148133, Note_on_c, 0, 72, 101
1, 148400, Note_off_c, 0, 72, 101
1, 148431, Note_on_c, 0, 74, 108
1, 148536, Note_off_c, 0, 74, 108
1, 148619, Note_on_c, 0, 75, 103
1, 148727, Note_off_c, 0, 75, 103
1, 148796, Note_on_c, 0, 72, 104
1, 148898, Note_off_c, 0, 72, 104
1, 148912, Note_on_c, 0, 68, 103
1, 149076, Note_off_c, 0, 68, 103
1, 149076, Note_on_c, 0, 65, 99
1, 149251, Note_off_c, 0, 65, 99
1, 149270, Note_on_c, 0, 64, 95
1, 149429, Note_off_c, 0, 64, 95
1, 149454, Note_on_c, 0, 63, 102
1, 149616, Note_off_c, 0, 63, 102
1, 149641, Note_on_c, 0, 62, 97
1, 149794, Note_off_c, 0, 62, 97
1, 149813, Note_on_c, 0, 74, 112
1, 149926, Note_off_c, 0, 74, 112
1, 149999, Note_on_c, 0, 70, 107
1, 150200, Note_off_c, 0, 70, 107
1, 150230, Note_on_c, 0, 67, 90
1, 150409, Note_off_c, 0, 67, 90
1, 150772, Note_on_c, 0, 65, 109
1, 150907, Note_off_c, 0, 65, 109
1, 150924, Note_on_c, 0, 62, 96
1, 150989, Note_off_c, 0, 62, 96
1, 150994, Note_on_c, 0, 63, 91
1, 151067, Note_off_c, 0, 63, 91
1, 151075, Note_on_c, 0, 65, 103
1, 151148, Note_off_c, 0, 65, 103
1, 151148, Note_on_c, 0, 67, 105
1, 151227, Note_off_c, 0, 67, 105
1, 151258, Note_on_c, 0, 67, 109
1, 151345, Note_off_c, 0, 67, 109
1, 151368, Note_on_c, 0, 65, 107
1, 151464, Note_off_c, 0, 65, 107
1, 151535, Note_on_c, 0, 63, 109
1, 151785, Note_off_c, 0, 63, 109
1, 151796, Note_on_c, 0, 60, 103
1, 151898, Note_off_c, 0, 60, 103
1, 151906, Note_on_c, 0, 57, 99
1, 151968, Note_off_c, 0, 57, 99
1, 151983, Note_on_c, 0, 54, 81
1, 152036, Note_off_c, 0, 54, 81
1, 152183, Note_on_c, 0, 63, 103
1, 152286, Note_off_c, 0, 63, 103
1, 152291, Note_on_c, 0, 60, 97
1, 152333, Note_off_c, 0, 60, 97
1, 152350, Note_on_c, 0, 61, 94
1, 152438, Note_off_c, 0, 61, 94
1, 152446, Note_on_c, 0, 62, 89
1, 152536, Note_off_c, 0, 62, 89
1, 152547, Note_on_c, 0, 61, 102
1, 152652, Note_off_c, 0, 61, 102
1, 152663, Note_on_c, 0, 60, 98
1, 152765, Note_off_c, 0, 60, 98
1, 152769, Note_on_c, 0, 58, 83
1, 152810, Note_off_c, 0, 58, 83
1, 152811, Note_on_c, 0, 59, 97
1, 152924, Note_off_c, 0, 59, 97
1, 152931, Note_on_c, 0, 58, 90
1, 152974, Note_off_c, 0, 58, 90
1, 153396, Note_on_c, 0, 62, 99
1, 153518, Note_off_c, 0, 62, 99
1, 153563, Note_on_c, 0, 67, 101
1, 153679, Note_off_c, 0, 67, 101
1, 153764, Note_on_c, 0, 71, 104
1, 153883, Note_off_c, 0, 71, 104
1, 153962, Note_on_c, 0, 74, 92
1, 154482, Note_off_c, 0, 74, 92
1, 154482, Note_on_c, 0, 74, 80
1, 154482, Note_off_c, 0, 74, 80
1, 154521, Note_on_c, 0, 72, 99
1, 154654, Note_off_c, 0, 72, 99
1, 154716, Note_on_c, 0, 77, 97
1, 155099, Note_off_c, 0, 77, 97
1, 155278, Note_on_c, 0, 75, 103
1, 155387, Note_off_c, 0, 75, 103
1, 155461, Note_on_c, 0, 78, 92
1, 155870, Note_off_c, 0, 78, 92
1, 156020, Note_on_c, 0, 76, 112
1, 156113, Note_off_c, 0, 76, 112
1, 156132, Note_on_c, 0, 76, 115
1, 156231, Note_off_c, 0, 76, 115
1, 156253, Note_on_c, 0, 74, 104
1, 156329, Note_off_c, 0, 74, 104
1, 156425, Note_on_c, 0, 73, 107
1, 156590, Note_off_c, 0, 73, 107
1, 156615, Note_on_c, 0, 74, 100
1, 156705, Note_off_c, 0, 74, 100
1, 156800, Note_on_c, 0, 76, 112
1, 156953, Note_off_c, 0, 76, 112
1, 156981, Note_on_c, 0, 75, 94
1, 157424, Note_off_c, 0, 75, 94
1, 157571, Note_on_c, 0, 73, 107
1, 157736, Note_off_c, 0, 73, 107
1, 157766, Note_on_c, 0, 71, 100
1, 157953, Note_off_c, 0, 71, 100
1, 158000, Note_on_c, 0, 71, 91
1, 158231, Note_off_c, 0, 71, 91
1, 158260, Note_on_c, 0, 69, 106
1, 158445, Note_off_c, 0, 69, 106
1, 158550, Note_on_c, 0, 68, 89
1, 158837, Note_off_c, 0, 68, 89
1, 159076, Note_on_c, 0, 68, 107
1, 159155, Note_off_c, 0, 68, 107
1, 159183, Note_on_c, 0, 71, 106
1, 159316, Note_off_c, 0, 71, 106
1, 159326, Note_on_c, 0, 68, 88
1, 159443, Note_off_c, 0, 68, 88
1, 159613, Note_on_c, 0, 69, 109
1, 159703, Note_off_c, 0, 69, 109
1, 159717, Note_on_c, 0, 72, 106
1, 159842, Note_off_c, 0, 72, 106
1, 159842, Note_on_c, 0, 69, 93
1, 159907, Note_off_c, 0, 69, 93
1, 159918, Note_on_c, 0, 65, 96
1, 160034, Note_off_c, 0, 65, 96
1, 160659, Note_on_c, 0, 72, 103
1, 160748, Note_off_c, 0, 72, 103
1, 160769, Note_on_c, 0, 72, 97
1, 160850, Note_off_c, 0, 72, 97
1, 160850, Note_on_c, 0, 70, 89
1, 160932, Note_off_c, 0, 70, 89
1, 160954, Note_on_c, 0, 66, 89
1, 161033, Note_off_c, 0, 66, 89
1, 161041, Note_on_c, 0, 69, 103
1, 161151, Note_off_c, 0, 69, 103
1, 161190, Note_on_c, 0, 68, 101
1, 161482, Note_off_c, 0, 68, 101
1, 161487, Note_on_c, 0, 65, 99
1, 161586, Note_off_c, 0, 65, 99
1, 161716, Note_on_c, 0, 61, 83
1, 161829, Note_off_c, 0, 61, 83
1, 162155, Note_on_c, 0, 73, 107
1, 162299, Note_off_c, 0, 73, 107
1, 162350, Note_on_c, 0, 67, 99
1, 162588, Note_off_c, 0, 67, 99
1, 162903, Note_on_c, 0, 72, 97
1, 163121, Note_off_c, 0, 72, 97
1, 163197, Note_on_c, 0, 65, 90
1, 163290, Note_off_c, 0, 65, 90
1, 163389, Note_on_c, 0, 65, 103
1, 163500, Note_off_c, 0, 65, 103
1, 163507, Note_on_c, 0, 64, 98
1, 163632, Note_off_c, 0, 64, 98
1, 163668, Note_on_c, 0, 65, 102
1, 163761, Note_off_c, 0, 65, 102
1, 163823, Note_on_c, 0, 76, 91
1, 164237, Note_off_c, 0, 76, 91
1, 164431, Note_on_c, 0, 73, 101
1, 164614, Note_off_c, 0, 73, 101
1, 164809, Note_on_c, 0, 63, 85
1, 164993, Note_off_c, 0, 63, 85
1, 165083, Note_on_c, 0, 63, 106
1, 165196, Note_off_c, 0, 63, 106
1, 165215, Note_on_c, 0, 62, 98
1, 165323, Note_off_c, 0, 62, 98
1, 165357, Note_on_c, 0, 63, 106
1, 165465, Note_off_c, 0, 63, 106
1, 165550, Note_on_c, 0, 65, 103
1, 165621, Note_off_c, 0, 65, 103
1, 165621, Note_on_c, 0, 65, 80
1, 165621, Note_off_c, 0, 65, 80
1, 165653, Note_on_c, 0, 67, 100
1, 165750, Note_off_c, 0, 67, 100
1, 165817, Note_on_c, 0, 65, 104
1, 166008, Note_off_c, 0, 65, 104
1, 166035, Note_on_c, 0, 64, 92
1, 166128, Note_off_c, 0, 64, 92
1, 166359, Note_on_c, 0, 61, 95
1, 166534, Note_off_c, 0, 61, 95
1, 166609, Note_on_c, 0, 65, 101
1, 166800, Note_off_c, 0, 65, 101
1, 166840, Note_on_c, 0, 68, 107
1, 166948, Note_off_c, 0, 68, 107
1, 167053, Note_on_c, 0, 77, 97
1, 167337, Note_off_c, 0, 77, 97
1, 167612, Note_on_c, 0, 67, 91
1, 167879, Note_off_c, 0, 67, 91
1, 167894, Note_on_c, 0, 68, 100
1, 168191, Note_off_c, 0, 68, 100
1, 168206, Note_on_c, 0, 67, 92
1, 168295, Note_off_c, 0, 67, 92
1, 168336, Note_on_c, 0, 66, 84
1, 168445, Note_off_c, 0, 66, 84
1, 168592, Note_on_c, 0, 67, 95
1, 168748, Note_off_c, 0, 67, 95
1, 168772, Note_on_c, 0, 65, 101
1, 168883, Note_off_c, 0, 65, 101
1, 168977, Note_on_c, 0, 64, 104
1, 169178, Note_off_c, 0, 64, 104
1, 169181, Note_on_c, 0, 61, 87
1, 169256, Note_off_c, 0, 61, 87
1, 169395, Note_on_c, 0, 60, 75
1, 170621, Note_off_c, 0, 60, 75
1, 170621, End_track
0, 0, End_of_file
