0, 0, Header, 1, 1, 192
1, 0, Start_track
1, 0, Title_t, "Melody"
1, 0, Tempo, 196078
1, 0, Key_signature, -2, "major"
1, 0, Time_signature, 4, 2, 24, 8
1, 3680, Note_on_c, 0, 63, 115
1, 3761, Note_off_c, 0, 63, 115
1, 3784, Note_on_c, 0, 63, 109
1, 3871, Note_off_c, 0, 63, 109
1, 3904, Note_on_c, 0, 61, 106
1, 4013, Note_off_c, 0, 61, 106
1, 4082, Note_on_c, 0, 61, 111
1, 4143, Note_off_c, 0, 61, 111
1, 4174, Note_on_c, 0, 62, 104
1, 4267, Note_off_c, 0, 62, 104
1, 4472, Note_on_c, 0, 61, 113
1, 4567, Note_off_c, 0, 61, 113
1, 4580, Note_on_c, 0, 62, 93
1, 4641, Note_off_c, 0, 62, 93
1, 4800, Note_on_c, 0, 58, 106
1, 4911, Note_off_c, 0, 58, 106
1, 4948, Note_on_c, 0, 53, 99
1, 5061, Note_off_c, 0, 53, 99
1, 5124, Note_on_c, 0, 51, 101
1, 5199, Note_off_c, 0, 51, 101
1, 5330, Note_on_c, 0, 50, 100
1, 5467, Note_off_c, 0, 50, 100
1, 5492, Note_on_c, 0, 49, 87
1, 5599, Note_off_c, 0, 49, 87
1, 6696, Note_on_c, 0, 64, 122
1, 6735, Note_off_c, 0, 64, 122
1, 6756, Note_on_c, 0, 63, 116
1, 6817, Note_off_c, 0, 63, 116
1, 6840, Note_on_c, 0, 61, 110
1, 6903, Note_off_c, 0, 61, 110
1, 6930, Note_on_c, 0, 58, 105
1, 7029, Note_off_c, 0, 58, 105
1, 7104, Note_on_c, 0, 56, 100
1, 7295, Note_off_c, 0, 56, 100
1, 7318, Note_on_c, 0, 58, 99
1, 7379, Note_off_c, 0, 58, 99
1, 7394, Note_on_c, 0, 57, 81
1, 7465, Note_off_c, 0, 57, 81
1, 7502, Note_on_c, 0, 61, 114
1, 7649, Note_off_c, 0, 61, 114
1, 7670, Note_on_c, 0, 62, 102
1, 7715, Note_off_c, 0, 62, 102
1, 7754, Note_on_c, 0, 63, 93
1, 7827, Note_off_c, 0, 63, 93
1, 9389, Note_on_c, 0, 68, 114
1, 9476, Note_off_c, 0, 68, 114
1, 9491, Note_on_c, 0, 70, 115
1, 9564, Note_off_c, 0, 70, 115
1, 9601, Note_on_c, 0, 72, 115
1, 9662, Note_off_c, 0, 72, 115
1, 9677, Note_on_c, 0, 73, 116
1, 9736, Note_off_c, 0, 73, 116
1, 9749, Note_on_c, 0, 74, 115
1, 9852, Note_off_c, 0, 74, 115
1, 9889, Note_on_c, 0, 72, 106
1, 9942, Note_off_c, 0, 72, 106
1, 9949, Note_on_c, 0, 73, 114
1, 10020, Note_off_c, 0, 73, 114
1, 10063, Note_on_c, 0, 72, 116
1, 10162, Note_off_c, 0, 72, 116
1, 10199, Note_on_c, 0, 71, 114
1, 10260, Note_off_c, 0, 71, 114
1, 10285, Note_on_c, 0, 70, 118
1, 10354, Note_off_c, 0, 70, 118
1, 10397, Note_on_c, 0, 69, 111
1, 10466, Note_off_c, 0, 69, 111
1, 10475, Note_on_c, 0, 68, 116
1, 10572, Note_off_c, 0, 68, 116
1, 10581, Note_on_c, 0, 67, 112
1, 10684, Note_off_c, 0, 67, 112
1, 10755, Note_on_c, 0, 66, 115
1, 10830, Note_off_c, 0, 66, 115
1, 10851, Note_on_c, 0, 67, 108
1, 10916, Note_off_c, 0, 67, 108
1, 10941, Note_on_c, 0, 65, 117
1, 11018, Note_off_c, 0, 65, 117
1, 11045, Note_on_c, 0, 62, 108
1, 11104, Note_off_c, 0, 62, 108
1, 11139, Note_on_c, 0, 61, 105
1, 11224, Note_off_c, 0, 61, 105
1, 11249, Note_on_c, 0, 59, 99
1, 11326, Note_off_c, 0, 59, 99
1, 11351, Note_on_c, 0, 58, 89
1, 11400, Note_off_c, 0, 58, 89
1, 11443, Note_on_c, 0, 57, 107
1, 11542, Note_off_c, 0, 57, 107
1, 11557, Note_on_c, 0, 56, 97
1, 11640, Note_off_c, 0, 56, 97
1, 11731, Note_on_c, 0, 55, 105
1, 11886, Note_off_c, 0, 55, 105
1, 11931, Note_on_c, 0, 63, 109
1, 12016, Note_off_c, 0, 63, 109
1, 12115, Note_on_c, 0, 54, 102
1, 12232, Note_off_c, 0, 54, 102
1, 12253, Note_on_c, 0, 53, 89
1, 12364, Note_off_c, 0, 53, 89
1, 12369, Note_on_c, 0, 54, 88
1, 12436, Note_off_c, 0, 54, 88
1, 12503, Note_on_c, 0, 57, 102
1, 12612, Note_off_c, 0, 57, 102
1, 12707, Note_on_c, 0, 62, 112
1, 12814, Note_off_c, 0, 62, 112
1, 12910, Note_on_c, 0, 53, 97
1, 13069, Note_off_c, 0, 53, 97
1, 13091, Note_on_c, 0, 52, 90
1, 13146, Note_off_c, 0, 52, 90
1, 13158, Note_on_c, 0, 53, 80
1, 13273, Note_off_c, 0, 53, 80
1, 13554, Note_on_c, 0, 58, 105
1, 13677, Note_off_c, 0, 58, 105
1, 13742, Note_on_c, 0, 61, 104
1, 13817, Note_off_c, 0, 61, 104
1, 13894, Note_on_c, 0, 61, 113
1, 14037, Note_off_c, 0, 61, 113
1, 14090, Note_on_c, 0, 58, 105
1, 14181, Note_off_c, 0, 58, 105
1, 14216, Note_on_c, 0, 57, 101
1, 14287, Note_off_c, 0, 57, 101
1, 14334, Note_on_c, 0, 55, 95
1, 14379, Note_off_c, 0, 55, 95
1, 14416, Note_on_c, 0, 54, 95
1, 14491, Note_off_c, 0, 54, 95
1, 14512, Note_on_c, 0, 53, 103
1, 14581, Note_off_c, 0, 53, 103
1, 14618, Note_on_c, 0, 52, 98
1, 14709, Note_off_c, 0, 52, 98
1, 14790, Note_on_c, 0, 51, 99
1, 14983, Note_off_c, 0, 51, 99
1, 15052, Note_on_c, 0, 53, 102
1, 15169, Note_off_c, 0, 53, 102
1, 15262, Note_on_c, 0, 54, 96
1, 15349, Note_off_c, 0, 54, 96
1, 15390, Note_on_c, 0, 56, 105
1, 15613, Note_off_c, 0, 56, 105
1, 15654, Note_on_c, 0, 57, 95
1, 15803, Note_off_c, 0, 57, 95
1, 15880, Note_on_c, 0, 59, 96
1, 15951, Note_off_c, 0, 59, 96
1, 15986, Note_on_c, 0, 61, 113
1, 16151, Note_off_c, 0, 61, 113
1, 16284, Note_on_c, 0, 62, 114
1, 16399, Note_off_c, 0, 62, 114
1, 16434, Note_on_c, 0, 63, 109
1, 16565, Note_off_c, 0, 63, 109
1, 16594, Note_on_c, 0, 66, 112
1, 16695, Note_off_c, 0, 66, 112
1, 16728, Note_on_c, 0, 63, 115
1, 16799, Note_off_c, 0, 63, 115
1, 16816, Note_on_c, 0, 62, 107
1, 16897, Note_off_c, 0, 62, 107
1, 16936, Note_on_c, 0, 61, 97
1, 17043, Note_off_c, 0, 61, 97
1, 17074, Note_on_c, 0, 60, 112
1, 17211, Note_off_c, 0, 60, 112
1, 17226, Note_on_c, 0, 57, 101
1, 17287, Note_off_c, 0, 57, 101
1, 17302, Note_on_c, 0, 56, 95
1, 17339, Note_off_c, 0, 56, 95
1, 17382, Note_on_c, 0, 54, 93
1, 17455, Note_off_c, 0, 54, 93
1, 17482, Note_on_c, 0, 53, 95
1, 17581, Note_off_c, 0, 53, 95
1, 17608, Note_on_c, 0, 52, 100
1, 17681, Note_off_c, 0, 52, 100
1, 17716, Note_on_c, 0, 51, 97
1, 17835, Note_off_c, 0, 51, 97
1, 17890, Note_on_c, 0, 50, 99
1, 18047, Note_off_c, 0, 50, 99
1, 18110, Note_on_c, 0, 52, 89
1, 18193, Note_off_c, 0, 52, 89
1, 18274, Note_on_c, 0, 57, 99
1, 18401, Note_off_c, 0, 57, 99
1, 18482, Note_on_c, 0, 61, 114
1, 18599, Note_off_c, 0, 61, 114
1, 18656, Note_on_c, 0, 62, 112
1, 18913, Note_off_c, 0, 62, 112
1, 18940, Note_on_c, 0, 59, 101
1, 19041, Note_off_c, 0, 59, 101
1, 19126, Note_on_c, 0, 66, 112
1, 19239, Note_off_c, 0, 66, 112
1, 19318, Note_on_c, 0, 64, 112
1, 19451, Note_off_c, 0, 64, 112
1, 19528, Note_on_c, 0, 60, 99
1, 19627, Note_off_c, 0, 60, 99
1, 20216, Note_on_c, 0, 59, 102
1, 20405, Note_off_c, 0, 59, 102
1, 20422, Note_on_c, 0, 61, 106
1, 20541, Note_off_c, 0, 61, 106
1, 20604, Note_on_c, 0, 63, 110
1, 20811, Note_off_c, 0, 63, 110
1, 20856, Note_on_c, 0, 64, 114
1, 21011, Note_off_c, 0, 64, 114
1, 21054, Note_on_c, 0, 66, 108
1, 21229, Note_off_c, 0, 66, 108
1, 21260, Note_on_c, 0, 68, 112
1, 21375, Note_off_c, 0, 68, 112
1, 21424, Note_on_c, 0, 69, 116
1, 21569, Note_off_c, 0, 69, 116
1, 21616, Note_on_c, 0, 65, 108
1, 21701, Note_off_c, 0, 65, 108
1, 21738, Note_on_c, 0, 60, 98
1, 21835, Note_off_c, 0, 60, 98
1, 22560, Note_on_c, 0, 59, 104
1, 22663, Note_off_c, 0, 59, 104
1, 22736, Note_on_c, 0, 61, 102
1, 22809, Note_off_c, 0, 61, 102
1, 22922, Note_on_c, 0, 63, 113
1, 23111, Note_off_c, 0, 63, 113
1, 23188, Note_on_c, 0, 66, 110
1, 23331, Note_off_c, 0, 66, 110
1, 23370, Note_on_c, 0, 68, 110
1, 23459, Note_off_c, 0, 68, 110
1, 23484, Note_on_c, 0, 70, 115
1, 23627, Note_off_c, 0, 70, 115
1, 23694, Note_on_c, 0, 72, 118
1, 23773, Note_off_c, 0, 72, 118
1, 23784, Note_on_c, 0, 73, 117
1, 23851, Note_off_c, 0, 73, 117
1, 23862, Note_on_c, 0, 74, 111
1, 23969, Note_off_c, 0, 74, 111
1, 23984, Note_on_c, 0, 73, 118
1, 24067, Note_off_c, 0, 73, 118
1, 24074, Note_on_c, 0, 72, 116
1, 24143, Note_off_c, 0, 72, 116
1, 24154, Note_on_c, 0, 71, 110
1, 24259, Note_off_c, 0, 71, 110
1, 24294, Note_on_c, 0, 70, 110
1, 24341, Note_off_c, 0, 70, 110
1, 24362, Note_on_c, 0, 69, 113
1, 24471, Note_off_c, 0, 69, 113
1, 24484, Note_on_c, 0, 68, 109
1, 24585, Note_off_c, 0, 68, 109
1, 24587, Note_on_c, 0, 66, 84
1, 24660, Note_off_c, 0, 66, 84
1, 24673, Note_on_c, 0, 67, 114
1, 24796, Note_off_c, 0, 67, 114
1, 24829, Note_on_c, 0, 66, 114
1, 25004, Note_off_c, 0, 66, 114
1, 25299, Note_on_c, 0, 61, 84
1, 25358, Note_off_c, 0, 61, 84
1, 25477, Note_on_c, 0, 64, 91
1, 25560, Note_off_c, 0, 64, 91
1, 25569, Note_on_c, 0, 65, 107
1, 25682, Note_off_c, 0, 65, 107
1, 25695, Note_on_c, 0, 64, 107
1, 25774, Note_off_c, 0, 64, 107
1, 25797, Note_on_c, 0, 63, 103
1, 25922, Note_off_c, 0, 63, 103
1, 25943, Note_on_c, 0, 62, 103
1, 26040, Note_off_c, 0, 62, 103
1, 26075, Note_on_c, 0, 53, 97
1, 26150, Note_off_c, 0, 53, 97
1, 26169, Note_on_c, 0, 55, 96
1, 26226, Note_off_c, 0, 55, 96
1, 26237, Note_on_c, 0, 57, 91
1, 26292, Note_off_c, 0, 57, 91
1, 26343, Note_on_c, 0, 60, 104
1, 26452, Note_off_c, 0, 60, 104
1, 26503, Note_on_c, 0, 58, 91
1, 26578, Note_off_c, 0, 58, 91
1, 26615, Note_on_c, 0, 62, 105
1, 26716, Note_off_c, 0, 62, 105
1, 26739, Note_on_c, 0, 60, 99
1, 26806, Note_off_c, 0, 60, 99
1, 26835, Note_on_c, 0, 64, 110
1, 26932, Note_off_c, 0, 64, 110
1, 26947, Note_on_c, 0, 63, 106
1, 27014, Note_off_c, 0, 63, 106
1, 27051, Note_on_c, 0, 59, 89
1, 27102, Note_off_c, 0, 59, 89
1, 27123, Note_on_c, 0, 62, 98
1, 27234, Note_off_c, 0, 62, 98
1, 27263, Note_on_c, 0, 58, 89
1, 27292, Note_off_c, 0, 58, 89
1, 27307, Note_on_c, 0, 61, 104
1, 27406, Note_off_c, 0, 61, 104
1, 27423, Note_on_c, 0, 57, 90
1, 27466, Note_off_c, 0, 57, 90
1, 27479, Note_on_c, 0, 60, 95
1, 27554, Note_off_c, 0, 60, 95
1, 27584, Note_on_c, 0, 65, 117
1, 27629, Note_off_c, 0, 65, 117
1, 27651, Note_on_c, 0, 65, 114
1, 27923, Note_off_c, 0, 65, 114
1, 27931, Note_on_c, 0, 55, 100
1, 28002, Note_off_c, 0, 55, 100
1, 28019, Note_on_c, 0, 57, 89
1, 28062, Note_off_c, 0, 57, 89
1, 28093, Note_on_c, 0, 60, 107
1, 28366, Note_off_c, 0, 60, 107
1, 28497, Note_on_c, 0, 53, 93
1, 28600, Note_off_c, 0, 53, 93
1, 28621, Note_on_c, 0, 54, 92
1, 28676, Note_off_c, 0, 54, 92
1, 28719, Note_on_c, 0, 58, 103
1, 28930, Note_off_c, 0, 58, 103
1, 28971, Note_on_c, 0, 52, 101
1, 29064, Note_off_c, 0, 52, 101
1, 29139, Note_on_c, 0, 57, 99
1, 29286, Note_off_c, 0, 57, 99
1, 29319, Note_on_c, 0, 49, 94
1, 29414, Note_off_c, 0, 49, 94
1, 29447, Note_on_c, 0, 54, 98
1, 29606, Note_off_c, 0, 54, 98
1, 29638, Note_on_c, 0, 59, 108
1, 29677, Note_off_c, 0, 59, 108
1, 29694, Note_on_c, 0, 59, 98
1, 29824, Note_off_c, 0, 59, 98
1, 29833, Note_on_c, 0, 56, 98
1, 29944, Note_off_c, 0, 56, 98
1, 30010, Note_on_c, 0, 61, 105
1, 30044, Note_off_c, 0, 61, 105
1, 30072, Note_on_c, 0, 61, 105
1, 30207, Note_off_c, 0, 61, 105
1, 30207, Note_on_c, 0, 59, 89
1, 30342, Note_off_c, 0, 59, 89
1, 30394, Note_on_c, 0, 64, 116
1, 30428, Note_off_c, 0, 64, 116
1, 30462, Note_on_c, 0, 64, 113
1, 30598, Note_off_c, 0, 64, 113
1, 30608, Note_on_c, 0, 61, 92
1, 30723, Note_off_c, 0, 61, 92
1, 30767, Note_on_c, 0, 66, 106
1, 30801, Note_off_c, 0, 66, 106
1, 30823, Note_on_c, 0, 66, 116
1, 30976, Note_off_c, 0, 66, 116
1, 30976, Note_on_c, 0, 63, 105
1, 31051, Note_off_c, 0, 63, 105
1, 31150, Note_on_c, 0, 68, 109
1, 31419, Note_off_c, 0, 68, 109
1, 31432, Note_on_c, 0, 65, 115
1, 31533, Note_off_c, 0, 65, 115
1, 31622, Note_on_c, 0, 70, 111
1, 31763, Note_off_c, 0, 70, 111
1, 31832, Note_on_c, 0, 62, 108
1, 31925, Note_off_c, 0, 62, 108
1, 32012, Note_on_c, 0, 67, 108
1, 32297, Note_off_c, 0, 67, 108
1, 32330, Note_on_c, 0, 64, 112
1, 32435, Note_off_c, 0, 64, 112
1, 32492, Note_on_c, 0, 59, 101
1, 32641, Note_off_c, 0, 59, 101
1, 32694, Note_on_c, 0, 54, 98
1, 32779, Note_off_c, 0, 54, 98
1, 32896, Note_on_c, 0, 52, 91
1, 33023, Note_off_c, 0, 52, 91
1, 33080, Note_on_c, 0, 57, 92
1, 33241, Note_off_c, 0, 57, 92
1, 33986, Note_on_c, 0, 66, 116
1, 34083, Note_off_c, 0, 66, 116
1, 34094, Note_on_c, 0, 63, 116
1, 34185, Note_off_c, 0, 63, 116
1, 34218, Note_on_c, 0, 61, 96
1, 34297, Note_off_c, 0, 61, 96
1, 34312, Note_on_c, 0, 57, 87
1, 34377, Note_off_c, 0, 57, 87
1, 34398, Note_on_c, 0, 60, 112
1, 34505, Note_off_c, 0, 60, 112
1, 34512, Note_on_c, 0, 57, 100
1, 34601, Note_off_c, 0, 57, 100
1, 34614, Note_on_c, 0, 56, 89
1, 34649, Note_off_c, 0, 56, 89
1, 34666, Note_on_c, 0, 54, 96
1, 34731, Note_off_c, 0, 54, 96
1, 34748, Note_on_c, 0, 53, 86
1, 34801, Note_off_c, 0, 53, 86
1, 34834, Note_on_c, 0, 51, 99
1, 34933, Note_off_c, 0, 51, 99
1, 34954, Note_on_c, 0, 50, 96
1, 35095, Note_off_c, 0, 50, 96
1, 35126, Note_on_c, 0, 53, 99
1, 35299, Note_off_c, 0, 53, 99
1, 35336, Note_on_c, 0, 58, 102
1, 35489, Note_off_c, 0, 58, 102
1, 36172, Note_on_c, 0, 64, 110
1, 36269, Note_off_c, 0, 64, 110
1, 36354, Note_on_c, 0, 59, 106
1, 36447, Note_off_c, 0, 59, 106
1, 36460, Note_on_c, 0, 56, 106
1, 36559, Note_off_c, 0, 56, 106
1, 36574, Note_on_c, 0, 55, 90
1, 36647, Note_off_c, 0, 55, 90
1, 36654, Note_on_c, 0, 58, 98
1, 36721, Note_off_c, 0, 58, 98
1, 36750, Note_on_c, 0, 62, 99
1, 36805, Note_off_c, 0, 62, 99
1, 36822, Note_on_c, 0, 65, 112
1, 36989, Note_off_c, 0, 65, 112
1, 37018, Note_on_c, 0, 64, 93
1, 37103, Note_off_c, 0, 64, 93
1, 37130, Note_on_c, 0, 68, 106
1, 37205, Note_off_c, 0, 68, 106
1, 37232, Note_on_c, 0, 71, 115
1, 37353, Note_off_c, 0, 71, 115
1, 37410, Note_on_c, 0, 74, 111
1, 37495, Note_off_c, 0, 74, 111
1, 37510, Note_on_c, 0, 75, 118
1, 37575, Note_off_c, 0, 75, 118
1, 37602, Note_on_c, 0, 77, 105
1, 37709, Note_off_c, 0, 77, 105
1, 37732, Note_on_c, 0, 75, 118
1, 37863, Note_off_c, 0, 75, 118
1, 37898, Note_on_c, 0, 73, 118
1, 38029, Note_off_c, 0, 73, 118
1, 38048, Note_on_c, 0, 72, 117
1, 38099, Note_off_c, 0, 72, 117
1, 38134, Note_on_c, 0, 71, 118
1, 38233, Note_off_c, 0, 71, 118
1, 38258, Note_on_c, 0, 70, 116
1, 38381, Note_off_c, 0, 70, 116
1, 38394, Note_on_c, 0, 69, 113
1, 38551, Note_off_c, 0, 69, 113
1, 38590, Note_on_c, 0, 68, 114
1, 38739, Note_off_c, 0, 68, 114
1, 38772, Note_on_c, 0, 67, 111
1, 38833, Note_off_c, 0, 67, 111
1, 38864, Note_on_c, 0, 70, 119
1, 38973, Note_off_c, 0, 70, 119
1, 38992, Note_on_c, 0, 68, 111
1, 39037, Note_off_c, 0, 68, 111
1, 39062, Note_on_c, 0, 65, 107
1, 39167, Note_off_c, 0, 65, 107
1, 39180, Note_on_c, 0, 64, 94
1, 39223, Note_off_c, 0, 64, 94
1, 39250, Note_on_c, 0, 59, 94
1, 39303, Note_off_c, 0, 59, 94
1, 39314, Note_on_c, 0, 58, 92
1, 39361, Note_off_c, 0, 58, 92
1, 39370, Note_on_c, 0, 61, 100
1, 39423, Note_off_c, 0, 61, 100
1, 39442, Note_on_c, 0, 63, 102
1, 39505, Note_off_c, 0, 63, 102
1, 39532, Note_on_c, 0, 65, 115
1, 39647, Note_off_c, 0, 65, 115
1, 39748, Note_on_c, 0, 66, 115
1, 39865, Note_off_c, 0, 66, 115
1, 39870, Note_on_c, 0, 67, 100
1, 39915, Note_off_c, 0, 67, 100
1, 39984, Note_on_c, 0, 68, 116
1, 40109, Note_off_c, 0, 68, 116
1, 40184, Note_on_c, 0, 71, 112
1, 40301, Note_off_c, 0, 71, 112
1, 40350, Note_on_c, 0, 68, 113
1, 40467, Note_off_c, 0, 68, 113
1, 40484, Note_on_c, 0, 66, 106
1, 40559, Note_off_c, 0, 66, 106
1, 40580, Note_on_c, 0, 64, 105
1, 40683, Note_off_c, 0, 64, 105
1, 40702, Note_on_c, 0, 62, 102
1, 40751, Note_off_c, 0, 62, 102
1, 40786, Note_on_c, 0, 59, 97
1, 40839, Note_off_c, 0, 59, 97
1, 40872, Note_on_c, 0, 57, 94
1, 40937, Note_off_c, 0, 57, 94
1, 40958, Note_on_c, 0, 53, 94
1, 41035, Note_off_c, 0, 53, 94
1, 41068, Note_on_c, 0, 56, 104
1, 41157, Note_off_c, 0, 56, 104
1, 41182, Note_on_c, 0, 51, 99
1, 41216, Note_off_c, 0, 51, 99
1, 41227, Note_on_c, 0, 50, 94
1, 41283, Note_off_c, 0, 50, 94
1, 41288, Note_on_c, 0, 55, 92
1, 41465, Note_off_c, 0, 55, 92
1, 42472, Note_on_c, 0, 62, 108
1, 42583, Note_off_c, 0, 62, 108
1, 42650, Note_on_c, 0, 63, 105
1, 42735, Note_off_c, 0, 63, 105
1, 42824, Note_on_c, 0, 67, 118
1, 42943, Note_off_c, 0, 67, 118
1, 43020, Note_on_c, 0, 70, 123
1, 43145, Note_off_c, 0, 70, 123
1, 43236, Note_on_c, 0, 73, 121
1, 43361, Note_off_c, 0, 73, 121
1, 43398, Note_on_c, 0, 74, 123
1, 43475, Note_off_c, 0, 74, 123
1, 43506, Note_on_c, 0, 75, 118
1, 43757, Note_off_c, 0, 75, 118
1, 43792, Note_on_c, 0, 74, 123
1, 43903, Note_off_c, 0, 74, 123
1, 43922, Note_on_c, 0, 73, 120
1, 43977, Note_off_c, 0, 73, 120
1, 44000, Note_on_c, 0, 70, 121
1, 44079, Note_off_c, 0, 70, 121
1, 44108, Note_on_c, 0, 68, 113
1, 44179, Note_off_c, 0, 68, 113
1, 44206, Note_on_c, 0, 65, 104
1, 44287, Note_off_c, 0, 65, 104
1, 44300, Note_on_c, 0, 64, 91
1, 44375, Note_off_c, 0, 64, 91
1, 44394, Note_on_c, 0, 60, 91
1, 44439, Note_off_c, 0, 60, 91
1, 44468, Note_on_c, 0, 63, 100
1, 44589, Note_off_c, 0, 63, 100
1, 44632, Note_on_c, 0, 61, 91
1, 44835, Note_off_c, 0, 61, 91
1, 45474, Note_on_c, 0, 54, 93
1, 45533, Note_off_c, 0, 54, 93
1, 45558, Note_on_c, 0, 58, 88
1, 45613, Note_off_c, 0, 58, 88
1, 45650, Note_on_c, 0, 61, 99
1, 45769, Note_off_c, 0, 61, 99
1, 45792, Note_on_c, 0, 63, 106
1, 45859, Note_off_c, 0, 63, 106
1, 45868, Note_on_c, 0, 65, 111
1, 45951, Note_off_c, 0, 65, 111
1, 45960, Note_on_c, 0, 66, 102
1, 46025, Note_off_c, 0, 66, 102
1, 46060, Note_on_c, 0, 68, 110
1, 46147, Note_off_c, 0, 68, 110
1, 46158, Note_on_c, 0, 67, 106
1, 46233, Note_off_c, 0, 67, 106
1, 46262, Note_on_c, 0, 70, 119
1, 46369, Note_off_c, 0, 70, 119
1, 46390, Note_on_c, 0, 69, 112
1, 46485, Note_off_c, 0, 69, 112
1, 46534, Note_on_c, 0, 68, 114
1, 46641, Note_off_c, 0, 68, 114
1, 46662, Note_on_c, 0, 65, 110
1, 46743, Note_off_c, 0, 65, 110
1, 46764, Note_on_c, 0, 64, 104
1, 46825, Note_off_c, 0, 64, 104
1, 46846, Note_on_c, 0, 63, 96
1, 46923, Note_off_c, 0, 63, 96
1, 47010, Note_on_c, 0, 61, 104
1, 47149, Note_off_c, 0, 61, 104
1, 47176, Note_on_c, 0, 60, 99
1, 47245, Note_off_c, 0, 60, 99
1, 47254, Note_on_c, 0, 56, 94
1, 47303, Note_off_c, 0, 56, 94
1, 47324, Note_on_c, 0, 59, 107
1, 47427, Note_off_c, 0, 59, 107
1, 47448, Note_on_c, 0, 55, 94
1, 47487, Note_off_c, 0, 55, 94
1, 47508, Note_on_c, 0, 58, 98
1, 47599, Note_off_c, 0, 58, 98
1, 47702, Note_on_c, 0, 78, 109
1, 47801, Note_off_c, 0, 78, 109
1, 47810, Note_on_c, 0, 79, 104
1, 47875, Note_off_c, 0, 79, 104
1, 48046, Note_on_c, 0, 77, 118
1, 48273, Note_off_c, 0, 77, 118
1, 48336, Note_on_c, 0, 70, 116
1, 48457, Note_off_c, 0, 70, 116
1, 48528, Note_on_c, 0, 70, 120
1, 48641, Note_off_c, 0, 70, 120
1, 48820, Note_on_c, 0, 70, 118
1, 48955, Note_off_c, 0, 70, 118
1, 49012, Note_on_c, 0, 70, 120
1, 49101, Note_off_c, 0, 70, 120
1, 49204, Note_on_c, 0, 81, 108
1, 49357, Note_off_c, 0, 81, 108
1, 49366, Note_on_c, 0, 82, 89
1, 49417, Note_off_c, 0, 82, 89
1, 49572, Note_on_c, 0, 80, 108
1, 49763, Note_off_c, 0, 80, 108
1, 49840, Note_on_c, 0, 77, 102
1, 49899, Note_off_c, 0, 77, 102
1, 49928, Note_on_c, 0, 76, 119
1, 50005, Note_off_c, 0, 76, 119
1, 50040, Note_on_c, 0, 73, 107
1, 50113, Note_off_c, 0, 73, 107
1, 50132, Note_on_c, 0, 70, 102
1, 50203, Note_off_c, 0, 70, 102
1, 50228, Note_on_c, 0, 68, 89
1, 50291, Note_off_c, 0, 68, 89
1, 50318, Note_on_c, 0, 65, 104
1, 50433, Note_off_c, 0, 65, 104
1, 50456, Note_on_c, 0, 64, 114
1, 50523, Note_off_c, 0, 64, 114
1, 50558, Note_on_c, 0, 63, 106
1, 50629, Note_off_c, 0, 63, 106
1, 50654, Note_on_c, 0, 64, 92
1, 50691, Note_off_c, 0, 64, 92
1, 50710, Note_on_c, 0, 61, 97
1, 50819, Note_off_c, 0, 61, 97
1, 50836, Note_on_c, 0, 62, 99
1, 50869, Note_off_c, 0, 62, 99
1, 50912, Note_on_c, 0, 70, 108
1, 50993, Note_off_c, 0, 70, 108
1, 51036, Note_on_c, 0, 67, 101
1, 51189, Note_off_c, 0, 67, 101
1, 51206, Note_on_c, 0, 59, 99
1, 51325, Note_off_c, 0, 59, 99
1, 51702, Note_on_c, 0, 62, 110
1, 51781, Note_off_c, 0, 62, 110
1, 51818, Note_on_c, 0, 59, 101
1, 51899, Note_off_c, 0, 59, 101
1, 51918, Note_on_c, 0, 62, 105
1, 52015, Note_off_c, 0, 62, 105
1, 52020, Note_on_c, 0, 63, 104
1, 52137, Note_off_c, 0, 63, 104
1, 52188, Note_on_c, 0, 70, 111
1, 52295, Note_off_c, 0, 70, 111
1, 52314, Note_on_c, 0, 67, 92
1, 52365, Note_off_c, 0, 67, 92
1, 52380, Note_on_c, 0, 69, 106
1, 52453, Note_off_c, 0, 69, 106
1, 52492, Note_on_c, 0, 77, 121
1, 52591, Note_off_c, 0, 77, 121
1, 52604, Note_on_c, 0, 76, 109
1, 52693, Note_off_c, 0, 76, 109
1, 52704, Note_on_c, 0, 73, 85
1, 52747, Note_off_c, 0, 73, 85
1, 52766, Note_on_c, 0, 75, 115
1, 52857, Note_off_c, 0, 75, 115
1, 52896, Note_on_c, 0, 72, 119
1, 52973, Note_off_c, 0, 72, 119
1, 52990, Note_on_c, 0, 70, 115
1, 53061, Note_off_c, 0, 70, 115
1, 53086, Note_on_c, 0, 68, 109
1, 53171, Note_off_c, 0, 68, 109
1, 53220, Note_on_c, 0, 66, 99
1, 53293, Note_off_c, 0, 66, 99
1, 53306, Note_on_c, 0, 62, 98
1, 53345, Note_off_c, 0, 62, 98
1, 53358, Note_on_c, 0, 65, 103
1, 53471, Note_off_c, 0, 65, 103
1, 53568, Note_on_c, 0, 64, 104
1, 53733, Note_off_c, 0, 64, 104
1, 53768, Note_on_c, 0, 63, 88
1, 53903, Note_off_c, 0, 63, 88
1, 53916, Note_on_c, 0, 64, 89
1, 53975, Note_off_c, 0, 64, 89
1, 54382, Note_on_c, 0, 64, 103
1, 54493, Note_off_c, 0, 64, 103
1, 54552, Note_on_c, 0, 66, 98
1, 54613, Note_off_c, 0, 66, 98
1, 54650, Note_on_c, 0, 68, 114
1, 54747, Note_off_c, 0, 68, 114
1, 54764, Note_on_c, 0, 66, 100
1, 54799, Note_off_c, 0, 66, 100
1, 54822, Note_on_c, 0, 67, 110
1, 54899, Note_off_c, 0, 67, 110
1, 54928, Note_on_c, 0, 65, 109
1, 55013, Note_off_c, 0, 65, 109
1, 55048, Note_on_c, 0, 63, 98
1, 55117, Note_off_c, 0, 63, 98
1, 55154, Note_on_c, 0, 59, 94
1, 55205, Note_off_c, 0, 59, 94
1, 55236, Note_on_c, 0, 62, 97
1, 55289, Note_off_c, 0, 62, 97
1, 55314, Note_on_c, 0, 64, 106
1, 55379, Note_off_c, 0, 64, 106
1, 55414, Note_on_c, 0, 66, 115
1, 55485, Note_off_c, 0, 66, 115
1, 55502, Note_on_c, 0, 67, 101
1, 55595, Note_off_c, 0, 67, 101
1, 55612, Note_on_c, 0, 69, 98
1, 55667, Note_off_c, 0, 69, 98
1, 55676, Note_on_c, 0, 70, 112
1, 55751, Note_off_c, 0, 70, 112
1, 55764, Note_on_c, 0, 71, 113
1, 55857, Note_off_c, 0, 71, 113
1, 55874, Note_on_c, 0, 72, 115
1, 55973, Note_off_c, 0, 72, 115
1, 55986, Note_on_c, 0, 73, 113
1, 56031, Note_off_c, 0, 73, 113
1, 56038, Note_on_c, 0, 72, 120
1, 56141, Note_off_c, 0, 72, 120
1, 56164, Note_on_c, 0, 71, 117
1, 56225, Note_off_c, 0, 71, 117
1, 56248, Note_on_c, 0, 69, 114
1, 56335, Note_off_c, 0, 69, 114
1, 56354, Note_on_c, 0, 68, 105
1, 56439, Note_off_c, 0, 68, 105
1, 56464, Note_on_c, 0, 67, 115
1, 56507, Note_off_c, 0, 67, 115
1, 56542, Note_on_c, 0, 66, 92
1, 56593, Note_off_c, 0, 66, 92
1, 56622, Note_on_c, 0, 63, 91
1, 56685, Note_off_c, 0, 63, 91
1, 56706, Note_on_c, 0, 65, 115
1, 56807, Note_off_c, 0, 65, 115
1, 56832, Note_on_c, 0, 62, 108
1, 56915, Note_off_c, 0, 62, 108
1, 56932, Note_on_c, 0, 61, 103
1, 56997, Note_off_c, 0, 61, 103
1, 57008, Note_on_c, 0, 59, 90
1, 57099, Note_off_c, 0, 59, 90
1, 57108, Note_on_c, 0, 58, 88
1, 57133, Note_off_c, 0, 58, 88
1, 57154, Note_on_c, 0, 57, 106
1, 57275, Note_off_c, 0, 57, 106
1, 57292, Note_on_c, 0, 56, 97
1, 57373, Note_off_c, 0, 56, 97
1, 57430, Note_on_c, 0, 55, 97
1, 57497, Note_off_c, 0, 55, 97
1, 57516, Note_on_c, 0, 58, 96
1, 57589, Note_off_c, 0, 58, 96
1, 57614, Note_on_c, 0, 63, 110
1, 57699, Note_off_c, 0, 63, 110
1, 57891, Note_on_c, 0, 48, 93
1, 57953, Note_off_c, 0, 48, 93
1, 57970, Note_on_c, 0, 49, 95
1, 58049, Note_off_c, 0, 49, 95
1, 58049, Note_on_c, 0, 52, 23
1, 58112, Note_off_c, 0, 52, 23
1, 58127, Note_on_c, 0, 49, 95
1, 58220, Note_off_c, 0, 49, 95
1, 58234, Note_on_c, 0, 51, 88
1, 58291, Note_off_c, 0, 51, 88
1, 58291, Note_on_c, 0, 55, 105
1, 58392, Note_off_c, 0, 55, 105
1, 58414, Note_on_c, 0, 58, 85
1, 58473, Note_off_c, 0, 58, 85
1, 58510, Note_on_c, 0, 61, 110
1, 58603, Note_off_c, 0, 61, 110
1, 58624, Note_on_c, 0, 60, 105
1, 58713, Note_off_c, 0, 60, 105
1, 58726, Note_on_c, 0, 56, 85
1, 58757, Note_off_c, 0, 56, 85
1, 58782, Note_on_c, 0, 59, 105
1, 58917, Note_off_c, 0, 59, 105
1, 59002, Note_on_c, 0, 53, 96
1, 59091, Note_off_c, 0, 53, 96
1, 59138, Note_on_c, 0, 56, 104
1, 59229, Note_off_c, 0, 56, 104
1, 59244, Note_on_c, 0, 60, 99
1, 59305, Note_off_c, 0, 60, 99
1, 59330, Note_on_c, 0, 63, 104
1, 59401, Note_off_c, 0, 63, 104
1, 59424, Note_on_c, 0, 65, 118
1, 59519, Note_off_c, 0, 65, 118
1, 59534, Note_on_c, 0, 66, 113
1, 59613, Note_off_c, 0, 66, 113
1, 59642, Note_on_c, 0, 67, 112
1, 59703, Note_off_c, 0, 67, 112
1, 59718, Note_on_c, 0, 68, 118
1, 59793, Note_off_c, 0, 68, 118
1, 59830, Note_on_c, 0, 69, 98
1, 59937, Note_off_c, 0, 69, 98
1, 59976, Note_on_c, 0, 69, 116
1, 60079, Note_off_c, 0, 69, 116
1, 60098, Note_on_c, 0, 68, 108
1, 60163, Note_off_c, 0, 68, 108
1, 60182, Note_on_c, 0, 67, 99
1, 60233, Note_off_c, 0, 67, 99
1, 60270, Note_on_c, 0, 66, 89
1, 60339, Note_off_c, 0, 66, 89
1, 60372, Note_on_c, 0, 65, 115
1, 60443, Note_off_c, 0, 65, 115
1, 60486, Note_on_c, 0, 64, 112
1, 60569, Note_off_c, 0, 64, 112
1, 60586, Note_on_c, 0, 61, 88
1, 60643, Note_off_c, 0, 61, 88
1, 60652, Note_on_c, 0, 63, 115
1, 60723, Note_off_c, 0, 63, 115
1, 60746, Note_on_c, 0, 60, 89
1, 60779, Note_off_c, 0, 60, 89
1, 60802, Note_on_c, 0, 62, 109
1, 60905, Note_off_c, 0, 62, 109
1, 60916, Note_on_c, 0, 59, 102
1, 60973, Note_off_c, 0, 59, 102
1, 60996, Note_on_c, 0, 58, 96
1, 61047, Note_off_c, 0, 58, 96
1, 61088, Note_on_c, 0, 56, 84
1, 61129, Note_off_c, 0, 56, 84
1, 61154, Note_on_c, 0, 55, 83
1, 61217, Note_off_c, 0, 55, 83
1, 61266, Note_on_c, 0, 54, 93
1, 61357, Note_off_c, 0, 54, 93
1, 61380, Note_on_c, 0, 53, 78
1, 61429, Note_off_c, 0, 53, 78
1, 61502, Note_on_c, 0, 64, 89
1, 61571, Note_off_c, 0, 64, 89
1, 61614, Note_on_c, 0, 61, 109
1, 61709, Note_off_c, 0, 61, 109
1, 61734, Note_on_c, 0, 62, 82
1, 61821, Note_off_c, 0, 62, 82
1, 61838, Note_on_c, 0, 59, 95
1, 61907, Note_off_c, 0, 59, 95
1, 61924, Note_on_c, 0, 60, 100
1, 62019, Note_off_c, 0, 60, 100
1, 62052, Note_on_c, 0, 59, 106
1, 62133, Note_off_c, 0, 59, 106
1, 62149, Note_on_c, 0, 58, 102
1, 62217, Note_off_c, 0, 58, 102
1, 62234, Note_on_c, 0, 54, 87
1, 62302, Note_off_c, 0, 54, 87
1, 62314, Note_on_c, 0, 57, 103
1, 62425, Note_off_c, 0, 57, 103
1, 62514, Note_on_c, 0, 58, 104
1, 62611, Note_off_c, 0, 58, 104
1, 62634, Note_on_c, 0, 57, 95
1, 62765, Note_off_c, 0, 57, 95
1, 63326, Note_on_c, 0, 59, 109
1, 63405, Note_off_c, 0, 59, 109
1, 63496, Note_on_c, 0, 64, 112
1, 63585, Note_off_c, 0, 64, 112
1, 63662, Note_on_c, 0, 68, 111
1, 63791, Note_off_c, 0, 68, 111
1, 63878, Note_on_c, 0, 70, 114
1, 63981, Note_off_c, 0, 70, 114
1, 64062, Note_on_c, 0, 65, 110
1, 64167, Note_off_c, 0, 65, 110
1, 64184, Note_on_c, 0, 62, 104
1, 64349, Note_off_c, 0, 62, 104
1, 64378, Note_on_c, 0, 62, 103
1, 64543, Note_off_c, 0, 62, 103
1, 64566, Note_on_c, 0, 67, 114
1, 64721, Note_off_c, 0, 67, 114
1, 64766, Note_on_c, 0, 71, 116
1, 64897, Note_off_c, 0, 71, 116
1, 64964, Note_on_c, 0, 73, 116
1, 65129, Note_off_c, 0, 73, 116
1, 65162, Note_on_c, 0, 69, 113
1, 65261, Note_off_c, 0, 69, 113
1, 65314, Note_on_c, 0, 64, 102
1, 65393, Note_off_c, 0, 64, 102
1, 65460, Note_on_c, 0, 63, 102
1, 65557, Note_off_c, 0, 63, 102
1, 65620, Note_on_c, 0, 68, 112
1, 65761, Note_off_c, 0, 68, 112
1, 65818, Note_on_c, 0, 72, 116
1, 65935, Note_off_c, 0, 72, 116
1, 66010, Note_on_c, 0, 73, 118
1, 66113, Note_off_c, 0, 73, 118
1, 66176, Note_on_c, 0, 75, 114
1, 66269, Note_off_c, 0, 75, 114
1, 66286, Note_on_c, 0, 76, 118
1, 66389, Note_off_c, 0, 76, 118
1, 66418, Note_on_c, 0, 73, 95
1, 66459, Note_off_c, 0, 73, 95
1, 66470, Note_on_c, 0, 75, 119
1, 66633, Note_off_c, 0, 75, 119
1, 66660, Note_on_c, 0, 74, 105
1, 66819, Note_off_c, 0, 74, 105
1, 67170, Note_on_c, 0, 73, 118
1, 67239, Note_off_c, 0, 73, 118
1, 67270, Note_on_c, 0, 70, 119
1, 67333, Note_off_c, 0, 70, 119
1, 67380, Note_on_c, 0, 68, 117
1, 67479, Note_off_c, 0, 68, 117
1, 67494, Note_on_c, 0, 66, 88
1, 67533, Note_off_c, 0, 66, 88
1, 67546, Note_on_c, 0, 67, 115
1, 67647, Note_off_c, 0, 67, 115
1, 67664, Note_on_c, 0, 65, 109
1, 67729, Note_off_c, 0, 65, 109
1, 67770, Note_on_c, 0, 63, 108
1, 67855, Note_off_c, 0, 63, 108
1, 67874, Note_on_c, 0, 59, 97
1, 67933, Note_off_c, 0, 59, 97
1, 67964, Note_on_c, 0, 62, 98
1, 68041, Note_off_c, 0, 62, 98
1, 68058, Note_on_c, 0, 58, 89
1, 68091, Note_off_c, 0, 58, 89
1, 68100, Note_on_c, 0, 61, 104
1, 68195, Note_off_c, 0, 61, 104
1, 68256, Note_on_c, 0, 68, 115
1, 68369, Note_off_c, 0, 68, 115
1, 68482, Note_on_c, 0, 78, 113
1, 68589, Note_off_c, 0, 78, 113
1, 68608, Note_on_c, 0, 79, 99
1, 68683, Note_off_c, 0, 79, 99
1, 69798, Note_on_c, 0, 76, 120
1, 69847, Note_off_c, 0, 76, 120
1, 69860, Note_on_c, 0, 75, 127
1, 69905, Note_off_c, 0, 75, 127
1, 69942, Note_on_c, 0, 73, 118
1, 69985, Note_off_c, 0, 73, 118
1, 70004, Note_on_c, 0, 70, 110
1, 70091, Note_off_c, 0, 70, 110
1, 70118, Note_on_c, 0, 67, 77
1, 70175, Note_off_c, 0, 67, 77
1, 70218, Note_on_c, 0, 73, 106
1, 70541, Note_off_c, 0, 73, 106
1, 70588, Note_on_c, 0, 70, 117
1, 70811, Note_off_c, 0, 70, 117
1, 70866, Note_on_c, 0, 68, 114
1, 70945, Note_off_c, 0, 68, 114
1, 70964, Note_on_c, 0, 65, 107
1, 71027, Note_off_c, 0, 65, 107
1, 71050, Note_on_c, 0, 63, 103
1, 71133, Note_off_c, 0, 63, 103
1, 71298, Note_on_c, 0, 65, 84
1, 71357, Note_off_c, 0, 65, 84
1, 71382, Note_on_c, 0, 63, 111
1, 71457, Note_off_c, 0, 63, 111
1, 71480, Note_on_c, 0, 61, 104
1, 71527, Note_off_c, 0, 61, 104
1, 71552, Note_on_c, 0, 58, 104
1, 71611, Note_off_c, 0, 58, 104
1, 71628, Note_on_c, 0, 56, 97
1, 71677, Note_off_c, 0, 56, 97
1, 71702, Note_on_c, 0, 53, 106
1, 71783, Note_off_c, 0, 53, 106
1, 71794, Note_on_c, 0, 52, 102
1, 71887, Note_off_c, 0, 52, 102
1, 71902, Note_on_c, 0, 51, 103
1, 71975, Note_off_c, 0, 51, 103
1, 72004, Note_on_c, 0, 46, 101
1, 72051, Note_off_c, 0, 46, 101
1, 72075, Note_on_c, 0, 49, 100
1, 72143, Note_off_c, 0, 49, 100
1, 72143, Note_on_c, 0, 50, 93
1, 72256, Note_off_c, 0, 50, 93
1, 72298, Note_on_c, 0, 58, 86
1, 73369, Note_off_c, 0, 58, 86
1, 73369, End_track
0, 0, End_of_file
