0, 0, Header, 1, 1, 192
1, 0, Start_track
1, 0, Title_t, "Melody"
1, 0, Tempo, 247933
1, 0, Key_signature, -2, "major"
1, 0, Time_signature, 4, 2, 24, 8
1, 3041, Note_on_c, 0, 55, 86
1, 3110, Note_off_c, 0, 55, 86
1, 3125, Note_on_c, 0, 57, 94
1, 3210, Note_off_c, 0, 57, 94
1, 3223, Note_on_c, 0, 58, 93
1, 3283, Note_off_c, 0, 58, 93
1, 3318, Note_on_c, 0, 60, 108
1, 3389, Note_off_c, 0, 60, 108
1, 3409, Note_on_c, 0, 62, 115
1, 3485, Note_off_c, 0, 62, 115
1, 3511, Note_on_c, 0, 62, 111
1, 3587, Note_off_c, 0, 62, 111
1, 3598, Note_on_c, 0, 60, 106
1, 3699, Note_off_c, 0, 60, 106
1, 3716, Note_on_c, 0, 56, 92
1, 3754, Note_off_c, 0, 56, 92
1, 3793, Note_on_c, 0, 58, 109
1, 3895, Note_off_c, 0, 58, 109
1, 3969, Note_on_c, 0, 60, 109
1, 4081, Note_off_c, 0, 60, 109
1, 4190, Note_on_c, 0, 56, 103
1, 4246, Note_off_c, 0, 56, 103
1, 4272, Note_on_c, 0, 57, 96
1, 4545, Note_off_c, 0, 57, 96
1, 4590, Note_on_c, 0, 57, 107
1, 4858, Note_off_c, 0, 57, 107
1, 4880, Note_on_c, 0, 55, 95
1, 4962, Note_off_c, 0, 55, 95
1, 4966, Note_on_c, 0, 57, 116
1, 5068, Note_off_c, 0, 57, 116
1, 5093, Note_on_c, 0, 55, 108
1, 5178, Note_off_c, 0, 55, 108
1, 5191, Note_on_c, 0, 52, 90
1, 5285, Note_off_c, 0, 52, 90
1, 5293, Note_on_c, 0, 50, 95
1, 5562, Note_off_c, 0, 50, 95
1, 5577, Note_on_c, 0, 53, 109
1, 5693, Note_off_c, 0, 53, 109
1, 6153, Note_on_c, 0, 55, 111
1, 6224, Note_off_c, 0, 55, 111
1, 6262, Note_on_c, 0, 55, 105
1, 6340, Note_off_c, 0, 55, 105
1, 6380, Note_on_c, 0, 53, 89
1, 6444, Note_off_c, 0, 53, 89
1, 6552, Note_on_c, 0, 55, 96
1, 6693, Note_off_c, 0, 55, 96
1, 6710, Note_on_c, 0, 52, 106
1, 6802, Note_off_c, 0, 52, 106
1, 6916, Note_on_c, 0, 48, 99
1, 7039, Note_off_c, 0, 48, 99
1, 7131, Note_on_c, 0, 45, 96
1, 7331, Note_off_c, 0, 45, 96
1, 7613, Note_on_c, 0, 45, 102
1, 7729, Note_off_c, 0, 45, 102
1, 7799, Note_on_c, 0, 48, 95
1, 7888, Note_off_c, 0, 48, 95
1, 7892, Note_on_c, 0, 52, 107
1, 8008, Note_off_c, 0, 52, 107
1, 8118, Note_on_c, 0, 52, 106
1, 8275, Note_off_c, 0, 52, 106
1, 8283, Note_on_c, 0, 53, 94
1, 8370, Note_off_c, 0, 53, 94
1, 8486, Note_on_c, 0, 50, 98
1, 8620, Note_off_c, 0, 50, 98
1, 8671, Note_on_c, 0, 46, 86
1, 8778, Note_off_c, 0, 46, 86
1, 9160, Note_on_c, 0, 45, 95
1, 9218, Note_off_c, 0, 45, 95
1, 9227, Note_on_c, 0, 46, 87
1, 9283, Note_off_c, 0, 46, 87
1, 9346, Note_on_c, 0, 50, 86
1, 9408, Note_off_c, 0, 50, 86
1, 9416, Note_on_c, 0, 53, 90
1, 9510, Note_off_c, 0, 53, 90
1, 9516, Note_on_c, 0, 56, 111
1, 9626, Note_off_c, 0, 56, 111
1, 9632, Note_on_c, 0, 55, 105
1, 9692, Note_off_c, 0, 55, 105
1, 10051, Note_on_c, 0, 47, 89
1, 10221, Note_off_c, 0, 47, 89
1, 10238, Note_on_c, 0, 50, 107
1, 10354, Note_off_c, 0, 50, 107
1, 10366, Note_on_c, 0, 49, 97
1, 10446, Note_off_c, 0, 49, 97
1, 10735, Note_on_c, 0, 48, 99
1, 10840, Note_off_c, 0, 48, 99
1, 10918, Note_on_c, 0, 51, 104
1, 11091, Note_off_c, 0, 51, 104
1, 11196, Note_on_c, 0, 53, 101
1, 11337, Note_off_c, 0, 53, 101
1, 11404, Note_on_c, 0, 53, 101
1, 11462, Note_off_c, 0, 53, 101
1, 11583, Note_on_c, 0, 55, 108
1, 11756, Note_off_c, 0, 55, 108
1, 11793, Note_on_c, 0, 58, 102
1, 11988, Note_off_c, 0, 58, 102
1, 12355, Note_on_c, 0, 55, 101
1, 12437, Note_off_c, 0, 55, 101
1, 12441, Note_on_c, 0, 58, 101
1, 12518, Note_off_c, 0, 58, 101
1, 12527, Note_on_c, 0, 60, 114
1, 12609, Note_off_c, 0, 60, 114
1, 12627, Note_on_c, 0, 61, 107
1, 12712, Note_off_c, 0, 61, 107
1, 12726, Note_on_c, 0, 62, 108
1, 12809, Note_off_c, 0, 62, 108
1, 12837, Note_on_c, 0, 61, 111
1, 12906, Note_off_c, 0, 61, 111
1, 12923, Note_on_c, 0, 60, 107
1, 13013, Note_off_c, 0, 60, 107
1, 13043, Note_on_c, 0, 56, 98
1, 13095, Note_off_c, 0, 56, 98
1, 13101, Note_on_c, 0, 58, 109
1, 13296, Note_off_c, 0, 58, 109
1, 13315, Note_on_c, 0, 55, 97
1, 13465, Note_off_c, 0, 55, 97
1, 13602, Note_on_c, 0, 50, 101
1, 13730, Note_off_c, 0, 50, 101
1, 13792, Note_on_c, 0, 53, 105
1, 13889, Note_off_c, 0, 53, 105
1, 13982, Note_on_c, 0, 55, 110
1, 14087, Note_off_c, 0, 55, 110
1, 14164, Note_on_c, 0, 50, 93
1, 14243, Note_off_c, 0, 50, 93
1, 14252, Note_on_c, 0, 53, 107
1, 14351, Note_off_c, 0, 53, 107
1, 14444, Note_on_c, 0, 55, 113
1, 14581, Note_off_c, 0, 55, 113
1, 14644, Note_on_c, 0, 50, 100
1, 14726, Note_off_c, 0, 50, 100
1, 14738, Note_on_c, 0, 53, 109
1, 14842, Note_off_c, 0, 53, 109
1, 14930, Note_on_c, 0, 55, 110
1, 15034, Note_off_c, 0, 55, 110
1, 15138, Note_on_c, 0, 50, 107
1, 15220, Note_off_c, 0, 50, 107
1, 15235, Note_on_c, 0, 49, 94
1, 15404, Note_off_c, 0, 49, 94
1, 15413, Note_on_c, 0, 53, 109
1, 15544, Note_off_c, 0, 53, 109
1, 15599, Note_on_c, 0, 55, 113
1, 15734, Note_off_c, 0, 55, 113
1, 15798, Note_on_c, 0, 50, 106
1, 15881, Note_off_c, 0, 50, 106
1, 15997, Note_on_c, 0, 53, 114
1, 16088, Note_off_c, 0, 53, 114
1, 16170, Note_on_c, 0, 55, 111
1, 16272, Note_off_c, 0, 55, 111
1, 16295, Note_on_c, 0, 49, 100
1, 16408, Note_off_c, 0, 49, 100
1, 16458, Note_on_c, 0, 53, 109
1, 16565, Note_off_c, 0, 53, 109
1, 16661, Note_on_c, 0, 55, 110
1, 16758, Note_off_c, 0, 55, 110
1, 16767, Note_on_c, 0, 54, 99
1, 16852, Note_off_c, 0, 54, 99
1, 16880, Note_on_c, 0, 49, 91
1, 16952, Note_off_c, 0, 49, 91
1, 16955, Note_on_c, 0, 53, 110
1, 17059, Note_off_c, 0, 53, 110
1, 17141, Note_on_c, 0, 55, 103
1, 17243, Note_off_c, 0, 55, 103
1, 17336, Note_on_c, 0, 49, 103
1, 17448, Note_off_c, 0, 49, 103
1, 17525, Note_on_c, 0, 53, 104
1, 17638, Note_off_c, 0, 53, 104
1, 17707, Note_on_c, 0, 60, 99
1, 17817, Note_off_c, 0, 60, 99
1, 17827, Note_on_c, 0, 58, 82
1, 17878, Note_off_c, 0, 58, 82
1, 17886, Note_on_c, 0, 60, 105
1, 18097, Note_off_c, 0, 60, 105
1, 18487, Note_on_c, 0, 60, 103
1, 18733, Note_off_c, 0, 60, 103
1, 18769, Note_on_c, 0, 58, 99
1, 18821, Note_off_c, 0, 58, 99
1, 18866, Note_on_c, 0, 61, 99
1, 18998, Note_off_c, 0, 61, 99
1, 19002, Note_on_c, 0, 58, 85
1, 19068, Note_off_c, 0, 58, 85
1, 19071, Note_on_c, 0, 55, 94
1, 19164, Note_off_c, 0, 55, 94
1, 19186, Note_on_c, 0, 53, 106
1, 19260, Note_off_c, 0, 53, 106
1, 19280, Note_on_c, 0, 50, 105
1, 19354, Note_off_c, 0, 50, 105
1, 19368, Note_on_c, 0, 49, 106
1, 19456, Note_off_c, 0, 49, 106
1, 19478, Note_on_c, 0, 48, 108
1, 19568, Note_off_c, 0, 48, 108
1, 19664, Note_on_c, 0, 46, 101
1, 19747, Note_off_c, 0, 46, 101
1, 19758, Note_on_c, 0, 48, 107
1, 19851, Note_off_c, 0, 48, 107
1, 19931, Note_on_c, 0, 50, 109
1, 20055, Note_off_c, 0, 50, 109
1, 20061, Note_on_c, 0, 49, 101
1, 20122, Note_off_c, 0, 49, 101
1, 20128, Note_on_c, 0, 53, 107
1, 20244, Note_off_c, 0, 53, 107
1, 20248, Note_on_c, 0, 52, 99
1, 20320, Note_off_c, 0, 52, 99
1, 20327, Note_on_c, 0, 55, 108
1, 20432, Note_off_c, 0, 55, 108
1, 20443, Note_on_c, 0, 54, 88
1, 20498, Note_off_c, 0, 54, 88
1, 20524, Note_on_c, 0, 58, 104
1, 20631, Note_off_c, 0, 58, 104
1, 20711, Note_on_c, 0, 60, 107
1, 20797, Note_off_c, 0, 60, 107
1, 20809, Note_on_c, 0, 59, 93
1, 20869, Note_off_c, 0, 59, 93
1, 20892, Note_on_c, 0, 62, 100
1, 21012, Note_off_c, 0, 62, 100
1, 21059, Note_on_c, 0, 65, 109
1, 21149, Note_off_c, 0, 65, 109
1, 21163, Note_on_c, 0, 64, 94
1, 21224, Note_off_c, 0, 64, 94
1, 21265, Note_on_c, 0, 67, 101
1, 21389, Note_off_c, 0, 67, 101
1, 21449, Note_on_c, 0, 70, 118
1, 21565, Note_off_c, 0, 70, 118
1, 21647, Note_on_c, 0, 72, 113
1, 21749, Note_off_c, 0, 72, 113
1, 21831, Note_on_c, 0, 73, 112
1, 21898, Note_off_c, 0, 73, 112
1, 21910, Note_on_c, 0, 74, 111
1, 21974, Note_off_c, 0, 74, 111
1, 22032, Note_on_c, 0, 77, 91
1, 22101, Note_off_c, 0, 77, 91
1, 22289, Note_on_c, 0, 78, 113
1, 22328, Note_off_c, 0, 78, 113
1, 22345, Note_on_c, 0, 79, 92
1, 22416, Note_off_c, 0, 79, 92
1, 22479, Note_on_c, 0, 77, 101
1, 22689, Note_off_c, 0, 77, 101
1, 22892, Note_on_c, 0, 74, 112
1, 22993, Note_off_c, 0, 74, 112
1, 22997, Note_on_c, 0, 72, 114
1, 23094, Note_off_c, 0, 72, 114
1, 23100, Note_on_c, 0, 70, 100
1, 23250, Note_off_c, 0, 70, 100
1, 23474, Note_on_c, 0, 70, 115
1, 23590, Note_off_c, 0, 70, 115
1, 23594, Note_on_c, 0, 72, 96
1, 23655, Note_off_c, 0, 72, 96
1, 23669, Note_on_c, 0, 74, 105
1, 23776, Note_off_c, 0, 74, 105
1, 23883, Note_on_c, 0, 69, 101
1, 23955, Note_off_c, 0, 69, 101
1, 23956, Note_on_c, 0, 68, 94
1, 24023, Note_off_c, 0, 68, 94
1, 24248, Note_on_c, 0, 69, 118
1, 24349, Note_off_c, 0, 69, 118
1, 24434, Note_on_c, 0, 69, 117
1, 24514, Note_off_c, 0, 69, 117
1, 24534, Note_on_c, 0, 70, 116
1, 24633, Note_off_c, 0, 70, 116
1, 24647, Note_on_c, 0, 69, 116
1, 24727, Note_off_c, 0, 69, 116
1, 24731, Note_on_c, 0, 67, 113
1, 24827, Note_off_c, 0, 67, 113
1, 24827, Note_on_c, 0, 65, 99
1, 24890, Note_off_c, 0, 65, 99
1, 24927, Note_on_c, 0, 62, 108
1, 24990, Note_off_c, 0, 62, 108
1, 25008, Note_on_c, 0, 60, 98
1, 25123, Note_off_c, 0, 60, 98
1, 25202, Note_on_c, 0, 62, 111
1, 25287, Note_off_c, 0, 62, 111
1, 25399, Note_on_c, 0, 58, 97
1, 25473, Note_off_c, 0, 58, 97
1, 25477, Note_on_c, 0, 57, 87
1, 25543, Note_off_c, 0, 57, 87
1, 25794, Note_on_c, 0, 57, 95
1, 25866, Note_off_c, 0, 57, 95
1, 25886, Note_on_c, 0, 58, 103
1, 25965, Note_off_c, 0, 58, 103
1, 25983, Note_on_c, 0, 60, 102
1, 26036, Note_off_c, 0, 60, 102
1, 26056, Note_on_c, 0, 62, 98
1, 26130, Note_off_c, 0, 62, 98
1, 26134, Note_on_c, 0, 63, 104
1, 26239, Note_off_c, 0, 63, 104
1, 26251, Note_on_c, 0, 64, 110
1, 26303, Note_off_c, 0, 64, 110
1, 26333, Note_on_c, 0, 65, 106
1, 26407, Note_off_c, 0, 65, 106
1, 26432, Note_on_c, 0, 64, 112
1, 26504, Note_off_c, 0, 64, 112
1, 26538, Note_on_c, 0, 63, 99
1, 26593, Note_off_c, 0, 63, 99
1, 26632, Note_on_c, 0, 59, 93
1, 26693, Note_off_c, 0, 59, 93
1, 26721, Note_on_c, 0, 62, 108
1, 26777, Note_off_c, 0, 62, 108
1, 26813, Note_on_c, 0, 60, 112
1, 26885, Note_off_c, 0, 60, 112
1, 26994, Note_on_c, 0, 58, 105
1, 27069, Note_off_c, 0, 58, 105
1, 27080, Note_on_c, 0, 59, 98
1, 27168, Note_off_c, 0, 59, 98
1, 27190, Note_on_c, 0, 62, 112
1, 27275, Note_off_c, 0, 62, 112
1, 27306, Note_on_c, 0, 59, 105
1, 27366, Note_off_c, 0, 59, 105
1, 27386, Note_on_c, 0, 63, 109
1, 27472, Note_off_c, 0, 63, 109
1, 27500, Note_on_c, 0, 62, 105
1, 27588, Note_off_c, 0, 62, 105
1, 27606, Note_on_c, 0, 58, 97
1, 27673, Note_off_c, 0, 58, 97
1, 27691, Note_on_c, 0, 61, 108
1, 27760, Note_off_c, 0, 61, 108
1, 27783, Note_on_c, 0, 59, 111
1, 27868, Note_off_c, 0, 59, 111
1, 27899, Note_on_c, 0, 56, 97
1, 27965, Note_off_c, 0, 56, 97
1, 27998, Note_on_c, 0, 54, 89
1, 28042, Note_off_c, 0, 54, 89
1, 28052, Note_on_c, 0, 55, 104
1, 28164, Note_off_c, 0, 55, 104
1, 28195, Note_on_c, 0, 51, 96
1, 28243, Note_off_c, 0, 51, 96
1, 28266, Note_on_c, 0, 54, 111
1, 28368, Note_off_c, 0, 54, 111
1, 28388, Note_on_c, 0, 50, 99
1, 28433, Note_off_c, 0, 50, 99
1, 28444, Note_on_c, 0, 53, 110
1, 28537, Note_off_c, 0, 53, 110
1, 28560, Note_on_c, 0, 49, 99
1, 28605, Note_off_c, 0, 49, 99
1, 28628, Note_on_c, 0, 52, 99
1, 28732, Note_off_c, 0, 52, 99
1, 28743, Note_on_c, 0, 51, 91
1, 28796, Note_off_c, 0, 51, 91
1, 28917, Note_on_c, 0, 55, 107
1, 28997, Note_off_c, 0, 55, 107
1, 29109, Note_on_c, 0, 58, 107
1, 29203, Note_off_c, 0, 58, 107
1, 29296, Note_on_c, 0, 60, 112
1, 29389, Note_off_c, 0, 60, 112
1, 29469, Note_on_c, 0, 62, 118
1, 29581, Note_off_c, 0, 62, 118
1, 29598, Note_on_c, 0, 61, 109
1, 29673, Note_off_c, 0, 61, 109
1, 29682, Note_on_c, 0, 62, 110
1, 29726, Note_off_c, 0, 62, 110
1, 29768, Note_on_c, 0, 60, 107
1, 29859, Note_off_c, 0, 60, 107
1, 29876, Note_on_c, 0, 58, 95
1, 29924, Note_off_c, 0, 58, 95
1, 29946, Note_on_c, 0, 60, 110
1, 30017, Note_off_c, 0, 60, 110
1, 30050, Note_on_c, 0, 60, 109
1, 30113, Note_off_c, 0, 60, 109
1, 30135, Note_on_c, 0, 58, 105
1, 30236, Note_off_c, 0, 58, 105
1, 30316, Note_on_c, 0, 61, 108
1, 30372, Note_off_c, 0, 61, 108
1, 30376, Note_on_c, 0, 62, 111
1, 30469, Note_off_c, 0, 62, 111
1, 30540, Note_on_c, 0, 55, 96
1, 30603, Note_off_c, 0, 55, 96
1, 30626, Note_on_c, 0, 58, 108
1, 30719, Note_off_c, 0, 58, 108
1, 30794, Note_on_c, 0, 60, 110
1, 30882, Note_off_c, 0, 60, 110
1, 30991, Note_on_c, 0, 55, 107
1, 31087, Note_off_c, 0, 55, 107
1, 31096, Note_on_c, 0, 54, 100
1, 31170, Note_off_c, 0, 54, 100
1, 31449, Note_on_c, 0, 50, 90
1, 31534, Note_off_c, 0, 50, 90
1, 31549, Note_on_c, 0, 53, 104
1, 31628, Note_off_c, 0, 53, 104
1, 31643, Note_on_c, 0, 55, 99
1, 31729, Note_off_c, 0, 55, 99
1, 31755, Note_on_c, 0, 58, 104
1, 31834, Note_off_c, 0, 58, 104
1, 31851, Note_on_c, 0, 60, 113
1, 31907, Note_off_c, 0, 60, 113
1, 31937, Note_on_c, 0, 61, 101
1, 32008, Note_off_c, 0, 61, 101
1, 32025, Note_on_c, 0, 62, 103
1, 32124, Note_off_c, 0, 62, 103
1, 32146, Note_on_c, 0, 61, 106
1, 32223, Note_off_c, 0, 61, 106
1, 32235, Note_on_c, 0, 60, 101
1, 32309, Note_off_c, 0, 60, 101
1, 32335, Note_on_c, 0, 56, 96
1, 32410, Note_off_c, 0, 56, 96
1, 32424, Note_on_c, 0, 59, 109
1, 32531, Note_off_c, 0, 59, 109
1, 32548, Note_on_c, 0, 55, 92
1, 32611, Note_off_c, 0, 55, 92
1, 32626, Note_on_c, 0, 58, 110
1, 32711, Note_off_c, 0, 58, 110
1, 32733, Note_on_c, 0, 55, 107
1, 32783, Note_off_c, 0, 55, 107
1, 32803, Note_on_c, 0, 53, 101
1, 32859, Note_off_c, 0, 53, 101
1, 32906, Note_on_c, 0, 50, 104
1, 33013, Note_off_c, 0, 50, 104
1, 33036, Note_on_c, 0, 49, 100
1, 33099, Note_off_c, 0, 49, 100
1, 33163, Note_on_c, 0, 53, 109
1, 33257, Note_off_c, 0, 53, 109
1, 33280, Note_on_c, 0, 49, 94
1, 33336, Note_off_c, 0, 49, 94
1, 33375, Note_on_c, 0, 55, 105
1, 33493, Note_off_c, 0, 55, 105
1, 33545, Note_on_c, 0, 58, 106
1, 33703, Note_off_c, 0, 58, 106
1, 33742, Note_on_c, 0, 61, 103
1, 33828, Note_off_c, 0, 61, 103
1, 33843, Note_on_c, 0, 62, 104
1, 33904, Note_off_c, 0, 62, 104
1, 33930, Note_on_c, 0, 65, 111
1, 34027, Note_off_c, 0, 65, 111
1, 34136, Note_on_c, 0, 67, 120
1, 34265, Note_off_c, 0, 67, 120
1, 34309, Note_on_c, 0, 70, 107
1, 34457, Note_off_c, 0, 70, 107
1, 34480, Note_on_c, 0, 72, 124
1, 34522, Note_off_c, 0, 72, 124
1, 34539, Note_on_c, 0, 74, 111
1, 34594, Note_off_c, 0, 74, 111
1, 34693, Note_on_c, 0, 70, 116
1, 34832, Note_off_c, 0, 70, 116
1, 34839, Note_on_c, 0, 69, 112
1, 34928, Note_off_c, 0, 69, 112
1, 35142, Note_on_c, 0, 67, 123
1, 35241, Note_off_c, 0, 67, 123
1, 35259, Note_on_c, 0, 65, 111
1, 35320, Note_off_c, 0, 65, 111
1, 35340, Note_on_c, 0, 63, 108
1, 35419, Note_off_c, 0, 63, 108
1, 35441, Note_on_c, 0, 61, 103
1, 35523, Note_off_c, 0, 61, 103
1, 35545, Note_on_c, 0, 58, 108
1, 35619, Note_off_c, 0, 58, 108
1, 35641, Note_on_c, 0, 56, 107
1, 35723, Note_off_c, 0, 56, 107
1, 35738, Note_on_c, 0, 52, 101
1, 35801, Note_off_c, 0, 52, 101
1, 35837, Note_on_c, 0, 55, 107
1, 35909, Note_off_c, 0, 55, 107
1, 35926, Note_on_c, 0, 57, 104
1, 36001, Note_off_c, 0, 57, 104
1, 36015, Note_on_c, 0, 58, 101
1, 36084, Note_off_c, 0, 58, 101
1, 36125, Note_on_c, 0, 60, 107
1, 36191, Note_off_c, 0, 60, 107
1, 36206, Note_on_c, 0, 61, 84
1, 36273, Note_off_c, 0, 61, 84
1, 36298, Note_on_c, 0, 65, 112
1, 36383, Note_off_c, 0, 65, 112
1, 36403, Note_on_c, 0, 64, 105
1, 36489, Note_off_c, 0, 64, 105
1, 36512, Note_on_c, 0, 61, 96
1, 36559, Note_off_c, 0, 61, 96
1, 36596, Note_on_c, 0, 63, 111
1, 36665, Note_off_c, 0, 63, 111
1, 36704, Note_on_c, 0, 60, 104
1, 36770, Note_off_c, 0, 60, 104
1, 36798, Note_on_c, 0, 57, 99
1, 36854, Note_off_c, 0, 57, 99
1, 36880, Note_on_c, 0, 55, 105
1, 36966, Note_off_c, 0, 55, 105
1, 36989, Note_on_c, 0, 54, 104
1, 37061, Note_off_c, 0, 54, 104
1, 37076, Note_on_c, 0, 63, 109
1, 37188, Note_off_c, 0, 63, 109
1, 37265, Note_on_c, 0, 61, 105
1, 37325, Note_off_c, 0, 61, 105
1, 37342, Note_on_c, 0, 62, 104
1, 37446, Note_off_c, 0, 62, 104
1, 37450, Note_on_c, 0, 61, 109
1, 37516, Note_off_c, 0, 61, 109
1, 37534, Note_on_c, 0, 60, 102
1, 37606, Note_off_c, 0, 60, 102
1, 37648, Note_on_c, 0, 56, 101
1, 37698, Note_off_c, 0, 56, 101
1, 37729, Note_on_c, 0, 59, 106
1, 37814, Note_off_c, 0, 59, 106
1, 37840, Note_on_c, 0, 55, 101
1, 37903, Note_off_c, 0, 55, 101
1, 37925, Note_on_c, 0, 58, 97
1, 38007, Note_off_c, 0, 58, 97
1, 38024, Note_on_c, 0, 60, 102
1, 38082, Note_off_c, 0, 60, 102
1, 38096, Note_on_c, 0, 62, 109
1, 38206, Note_off_c, 0, 62, 109
1, 38243, Note_on_c, 0, 60, 97
1, 38315, Note_off_c, 0, 60, 97
1, 38386, Note_on_c, 0, 62, 109
1, 38453, Note_off_c, 0, 62, 109
1, 38460, Note_on_c, 0, 65, 108
1, 38535, Note_off_c, 0, 65, 108
1, 38579, Note_on_c, 0, 62, 91
1, 38650, Note_off_c, 0, 62, 91
1, 38751, Note_on_c, 0, 65, 106
1, 38818, Note_off_c, 0, 65, 106
1, 38841, Note_on_c, 0, 67, 114
1, 38934, Note_off_c, 0, 67, 114
1, 38962, Note_on_c, 0, 61, 92
1, 39034, Note_off_c, 0, 61, 92
1, 39113, Note_on_c, 0, 67, 115
1, 39187, Note_off_c, 0, 67, 115
1, 39217, Note_on_c, 0, 70, 120
1, 39345, Note_off_c, 0, 70, 120
1, 39357, Note_on_c, 0, 67, 106
1, 39470, Note_off_c, 0, 67, 106
1, 39503, Note_on_c, 0, 70, 117
1, 39578, Note_off_c, 0, 70, 117
1, 39592, Note_on_c, 0, 72, 118
1, 39723, Note_off_c, 0, 72, 118
1, 39741, Note_on_c, 0, 70, 103
1, 39851, Note_off_c, 0, 70, 103
1, 39890, Note_on_c, 0, 72, 114
1, 39973, Note_off_c, 0, 72, 114
1, 40058, Note_on_c, 0, 73, 112
1, 40122, Note_off_c, 0, 73, 112
1, 40128, Note_on_c, 0, 74, 110
1, 40210, Note_off_c, 0, 74, 110
1, 40249, Note_on_c, 0, 77, 107
1, 40365, Note_off_c, 0, 77, 107
1, 40407, Note_on_c, 0, 77, 75
1, 40525, Note_off_c, 0, 77, 75
1, 40532, Note_on_c, 0, 78, 102
1, 40552, Note_off_c, 0, 78, 102
1, 40577, Note_on_c, 0, 79, 98
1, 40656, Note_off_c, 0, 79, 98
1, 40718, Note_on_c, 0, 77, 107
1, 40985, Note_off_c, 0, 77, 107
1, 41155, Note_on_c, 0, 74, 116
1, 41256, Note_off_c, 0, 74, 116
1, 41308, Note_on_c, 0, 74, 116
1, 41420, Note_off_c, 0, 74, 116
1, 41476, Note_on_c, 0, 74, 92
1, 41556, Note_off_c, 0, 74, 92
1, 41593, Note_on_c, 0, 74, 103
1, 41749, Note_off_c, 0, 74, 103
1, 41824, Note_on_c, 0, 74, 115
1, 41937, Note_off_c, 0, 74, 115
1, 41981, Note_on_c, 0, 74, 122
1, 42074, Note_off_c, 0, 74, 122
1, 42092, Note_on_c, 0, 72, 125
1, 42150, Note_off_c, 0, 72, 125
1, 42159, Note_on_c, 0, 73, 112
1, 42177, Note_off_c, 0, 73, 112
1, 42186, Note_on_c, 0, 75, 97
1, 42239, Note_off_c, 0, 75, 97
1, 42269, Note_on_c, 0, 74, 118
1, 42419, Note_off_c, 0, 74, 118
1, 42641, Note_on_c, 0, 74, 119
1, 42727, Note_off_c, 0, 74, 119
1, 42775, Note_on_c, 0, 74, 95
1, 42915, Note_off_c, 0, 74, 95
1, 42971, Note_on_c, 0, 74, 109
1, 43097, Note_off_c, 0, 74, 109
1, 43127, Note_on_c, 0, 74, 111
1, 43272, Note_off_c, 0, 74, 111
1, 43314, Note_on_c, 0, 74, 116
1, 43411, Note_off_c, 0, 74, 116
1, 43464, Note_on_c, 0, 74, 101
1, 43571, Note_off_c, 0, 74, 101
1, 43605, Note_on_c, 0, 72, 109
1, 43652, Note_off_c, 0, 72, 109
1, 43680, Note_on_c, 0, 74, 83
1, 43844, Note_off_c, 0, 74, 83
1, 43872, Note_on_c, 0, 74, 106
1, 43966, Note_off_c, 0, 74, 106
1, 44029, Note_on_c, 0, 72, 108
1, 44096, Note_off_c, 0, 72, 108
1, 44109, Note_on_c, 0, 74, 92
1, 44198, Note_off_c, 0, 74, 92
1, 44290, Note_on_c, 0, 74, 109
1, 44384, Note_off_c, 0, 74, 109
1, 44453, Note_on_c, 0, 74, 110
1, 44520, Note_off_c, 0, 74, 110
1, 44540, Note_on_c, 0, 72, 95
1, 44582, Note_off_c, 0, 72, 95
1, 44640, Note_on_c, 0, 74, 96
1, 44750, Note_off_c, 0, 74, 96
1, 44835, Note_on_c, 0, 72, 70
1, 44918, Note_off_c, 0, 72, 70
1, 44942, Note_on_c, 0, 74, 97
1, 44991, Note_off_c, 0, 74, 97
1, 45087, Note_on_c, 0, 74, 108
1, 45179, Note_off_c, 0, 74, 108
1, 45217, Note_on_c, 0, 72, 109
1, 45277, Note_off_c, 0, 72, 109
1, 45321, Note_on_c, 0, 74, 100
1, 45444, Note_off_c, 0, 74, 100
1, 45567, Note_on_c, 0, 74, 107
1, 45706, Note_off_c, 0, 74, 107
1, 45748, Note_on_c, 0, 74, 9
1, 45916, Note_off_c, 0, 74, 9
1, 45985, Note_on_c, 0, 74, 109
1, 46054, Note_off_c, 0, 74, 109
1, 46094, Note_on_c, 0, 78, 70
1, 46125, Note_off_c, 0, 78, 70
1, 46138, Note_on_c, 0, 79, 107
1, 46252, Note_off_c, 0, 79, 107
1, 46321, Note_on_c, 0, 80, 111
1, 46471, Note_off_c, 0, 80, 111
1, 46511, Note_on_c, 0, 79, 105
1, 46659, Note_off_c, 0, 79, 105
1, 46717, Note_on_c, 0, 77, 119
1, 46858, Note_off_c, 0, 77, 119
1, 46875, Note_on_c, 0, 77, 112
1, 47113, Note_off_c, 0, 77, 112
1, 47155, Note_on_c, 0, 75, 111
1, 47280, Note_off_c, 0, 75, 111
1, 47338, Note_on_c, 0, 75, 118
1, 47477, Note_off_c, 0, 75, 118
1, 47500, Note_on_c, 0, 74, 115
1, 47591, Note_off_c, 0, 74, 115
1, 47660, Note_on_c, 0, 72, 110
1, 47740, Note_off_c, 0, 72, 110
1, 47766, Note_on_c, 0, 71, 101
1, 47914, Note_off_c, 0, 71, 101
1, 48111, Note_on_c, 0, 70, 118
1, 48212, Note_off_c, 0, 70, 118
1, 48227, Note_on_c, 0, 67, 108
1, 48282, Note_off_c, 0, 67, 108
1, 48297, Note_on_c, 0, 69, 113
1, 48344, Note_off_c, 0, 69, 113
1, 48369, Note_on_c, 0, 72, 124
1, 48468, Note_off_c, 0, 72, 124
1, 48494, Note_on_c, 0, 69, 118
1, 48558, Note_off_c, 0, 69, 118
1, 48572, Note_on_c, 0, 68, 123
1, 48655, Note_off_c, 0, 68, 123
1, 48670, Note_on_c, 0, 67, 108
1, 48760, Note_off_c, 0, 67, 108
1, 48772, Note_on_c, 0, 68, 95
1, 48832, Note_off_c, 0, 68, 95
1, 48849, Note_on_c, 0, 66, 120
1, 48932, Note_off_c, 0, 66, 120
1, 48966, Note_on_c, 0, 65, 106
1, 49010, Note_off_c, 0, 65, 106
1, 49052, Note_on_c, 0, 62, 99
1, 49108, Note_off_c, 0, 62, 99
1, 49120, Note_on_c, 0, 60, 112
1, 49191, Note_off_c, 0, 60, 112
1, 49222, Note_on_c, 0, 57, 106
1, 49315, Note_off_c, 0, 57, 106
1, 49333, Note_on_c, 0, 53, 105
1, 49380, Note_off_c, 0, 53, 105
1, 49402, Note_on_c, 0, 56, 113
1, 49484, Note_off_c, 0, 56, 113
1, 49498, Note_on_c, 0, 58, 108
1, 49561, Note_off_c, 0, 58, 108
1, 49575, Note_on_c, 0, 59, 106
1, 49647, Note_off_c, 0, 59, 106
1, 49677, Note_on_c, 0, 61, 106
1, 49722, Note_off_c, 0, 61, 106
1, 49761, Note_on_c, 0, 63, 104
1, 49841, Note_off_c, 0, 63, 104
1, 49861, Note_on_c, 0, 66, 111
1, 49924, Note_off_c, 0, 66, 111
1, 49958, Note_on_c, 0, 70, 118
1, 50037, Note_off_c, 0, 70, 118
1, 50052, Note_on_c, 0, 71, 116
1, 50132, Note_off_c, 0, 71, 116
1, 50143, Note_on_c, 0, 72, 112
1, 50240, Note_off_c, 0, 72, 112
1, 50257, Note_on_c, 0, 71, 125
1, 50348, Note_off_c, 0, 71, 125
1, 50365, Note_on_c, 0, 70, 119
1, 50423, Note_off_c, 0, 70, 119
1, 50451, Note_on_c, 0, 69, 124
1, 50525, Note_off_c, 0, 69, 124
1, 50531, Note_on_c, 0, 68, 100
1, 50610, Note_off_c, 0, 68, 100
1, 50640, Note_on_c, 0, 67, 127
1, 50730, Note_off_c, 0, 67, 127
1, 50747, Note_on_c, 0, 66, 109
1, 50824, Note_off_c, 0, 66, 109
1, 50847, Note_on_c, 0, 63, 93
1, 50907, Note_off_c, 0, 63, 93
1, 50924, Note_on_c, 0, 65, 118
1, 51003, Note_off_c, 0, 65, 118
1, 51023, Note_on_c, 0, 64, 113
1, 51109, Note_off_c, 0, 64, 113
1, 51129, Note_on_c, 0, 61, 99
1, 51189, Note_off_c, 0, 61, 99
1, 51211, Note_on_c, 0, 59, 114
1, 51291, Note_off_c, 0, 59, 114
1, 51313, Note_on_c, 0, 56, 107
1, 51384, Note_off_c, 0, 56, 107
1, 51404, Note_on_c, 0, 52, 104
1, 51471, Note_off_c, 0, 52, 104
1, 51497, Note_on_c, 0, 55, 99
1, 51563, Note_off_c, 0, 55, 99
1, 51578, Note_on_c, 0, 57, 104
1, 51658, Note_off_c, 0, 57, 104
1, 51670, Note_on_c, 0, 58, 103
1, 51734, Note_off_c, 0, 58, 103
1, 51746, Note_on_c, 0, 60, 103
1, 51817, Note_off_c, 0, 60, 103
1, 51834, Note_on_c, 0, 61, 100
1, 51898, Note_off_c, 0, 61, 100
1, 51939, Note_on_c, 0, 65, 105
1, 52011, Note_off_c, 0, 65, 105
1, 52026, Note_on_c, 0, 68, 117
1, 52106, Note_off_c, 0, 68, 117
1, 52124, Note_on_c, 0, 69, 117
1, 52209, Note_off_c, 0, 69, 117
1, 52223, Note_on_c, 0, 70, 109
1, 52320, Note_off_c, 0, 70, 109
1, 52321, Note_on_c, 0, 69, 119
1, 52430, Note_off_c, 0, 69, 119
1, 52448, Note_on_c, 0, 68, 116
1, 52482, Note_off_c, 0, 68, 116
1, 52489, Note_on_c, 0, 67, 101
1, 52594, Note_off_c, 0, 67, 101
1, 52606, Note_on_c, 0, 66, 101
1, 52672, Note_off_c, 0, 66, 101
1, 52694, Note_on_c, 0, 65, 111
1, 52795, Note_off_c, 0, 65, 111
1, 52801, Note_on_c, 0, 64, 104
1, 52878, Note_off_c, 0, 64, 104
1, 52904, Note_on_c, 0, 61, 101
1, 52957, Note_off_c, 0, 61, 101
1, 52968, Note_on_c, 0, 63, 114
1, 53064, Note_off_c, 0, 63, 114
1, 53094, Note_on_c, 0, 57, 103
1, 53154, Note_off_c, 0, 57, 103
1, 53172, Note_on_c, 0, 60, 99
1, 53243, Note_off_c, 0, 60, 99
1, 53274, Note_on_c, 0, 63, 117
1, 53356, Note_off_c, 0, 63, 117
1, 53370, Note_on_c, 0, 64, 113
1, 53422, Note_off_c, 0, 64, 113
1, 53447, Note_on_c, 0, 58, 100
1, 53507, Note_off_c, 0, 58, 100
1, 53544, Note_on_c, 0, 61, 100
1, 53627, Note_off_c, 0, 61, 100
1, 53647, Note_on_c, 0, 64, 119
1, 53732, Note_off_c, 0, 64, 119
1, 53743, Note_on_c, 0, 65, 113
1, 53822, Note_off_c, 0, 65, 113
1, 53842, Note_on_c, 0, 59, 102
1, 53905, Note_off_c, 0, 59, 102
1, 53930, Note_on_c, 0, 62, 101
1, 54004, Note_off_c, 0, 62, 101
1, 54041, Note_on_c, 0, 65, 113
1, 54107, Note_off_c, 0, 65, 113
1, 54122, Note_on_c, 0, 66, 113
1, 54185, Note_off_c, 0, 66, 113
1, 54219, Note_on_c, 0, 60, 105
1, 54277, Note_off_c, 0, 60, 105
1, 54307, Note_on_c, 0, 63, 99
1, 54390, Note_off_c, 0, 63, 99
1, 54402, Note_on_c, 0, 66, 102
1, 54466, Note_off_c, 0, 66, 102
1, 54503, Note_on_c, 0, 69, 123
1, 54596, Note_off_c, 0, 69, 123
1, 54619, Note_on_c, 0, 67, 113
1, 54674, Note_off_c, 0, 67, 113
1, 54689, Note_on_c, 0, 69, 114
1, 54790, Note_off_c, 0, 69, 114
1, 54802, Note_on_c, 0, 69, 122
1, 54877, Note_off_c, 0, 69, 122
1, 54897, Note_on_c, 0, 67, 121
1, 54988, Note_off_c, 0, 67, 121
1, 55006, Note_on_c, 0, 64, 91
1, 55039, Note_off_c, 0, 64, 91
1, 55056, Note_on_c, 0, 66, 121
1, 55139, Note_off_c, 0, 66, 121
1, 55162, Note_on_c, 0, 63, 108
1, 55242, Note_off_c, 0, 63, 108
1, 55249, Note_on_c, 0, 62, 103
1, 55315, Note_off_c, 0, 62, 103
1, 55360, Note_on_c, 0, 58, 104
1, 55421, Note_off_c, 0, 58, 104
1, 55443, Note_on_c, 0, 57, 102
1, 55499, Note_off_c, 0, 57, 102
1, 55535, Note_on_c, 0, 55, 102
1, 55596, Note_off_c, 0, 55, 102
1, 55611, Note_on_c, 0, 54, 105
1, 55678, Note_off_c, 0, 54, 105
1, 55690, Note_on_c, 0, 51, 113
1, 55762, Note_off_c, 0, 51, 113
1, 55784, Note_on_c, 0, 50, 107
1, 55870, Note_off_c, 0, 50, 107
1, 55900, Note_on_c, 0, 48, 105
1, 55979, Note_off_c, 0, 48, 105
1, 55997, Note_on_c, 0, 46, 104
1, 56113, Note_off_c, 0, 46, 104
1, 56152, Note_on_c, 0, 48, 103
1, 56216, Note_off_c, 0, 48, 103
1, 56252, Note_on_c, 0, 50, 105
1, 56414, Note_off_c, 0, 50, 105
1, 56456, Note_on_c, 0, 53, 108
1, 56615, Note_off_c, 0, 53, 108
1, 56840, Note_on_c, 0, 58, 110
1, 56961, Note_off_c, 0, 58, 110
1, 57016, Note_on_c, 0, 60, 101
1, 57178, Note_off_c, 0, 60, 101
1, 57222, Note_on_c, 0, 62, 104
1, 57367, Note_off_c, 0, 62, 104
1, 57387, Note_on_c, 0, 65, 114
1, 57567, Note_off_c, 0, 65, 114
1, 57592, Note_on_c, 0, 67, 110
1, 57659, Note_off_c, 0, 67, 110
1, 57692, Note_on_c, 0, 69, 95
1, 57755, Note_off_c, 0, 69, 95
1, 57775, Note_on_c, 0, 70, 122
1, 57910, Note_off_c, 0, 70, 122
1, 57985, Note_on_c, 0, 60, 101
1, 58075, Note_off_c, 0, 60, 101
1, 58152, Note_on_c, 0, 60, 108
1, 58242, Note_off_c, 0, 60, 108
1, 58259, Note_on_c, 0, 59, 102
1, 58307, Note_off_c, 0, 59, 102
1, 58588, Note_on_c, 0, 60, 87
1, 58624, Note_off_c, 0, 60, 87
1, 58633, Note_on_c, 0, 61, 114
1, 58677, Note_off_c, 0, 61, 114
1, 58691, Note_on_c, 0, 60, 105
1, 58743, Note_off_c, 0, 60, 105
1, 58823, Note_on_c, 0, 53, 84
1, 58917, Note_off_c, 0, 53, 84
1, 58951, Note_on_c, 0, 55, 94
1, 59172, Note_off_c, 0, 55, 94
1, 59244, Note_on_c, 0, 58, 83
1, 59520, Note_off_c, 0, 58, 83
1, 59520, End_track
0, 0, End_of_file
