0, 0, Header, 1, 1, 840
1, 0, Start_track
1, 0, Title_t, "Melody"
1, 0, Tempo, 468750
1, 0, Key_signature, -3, "major"
1, 0, Time_signature, 4, 2, 24, 8
1, 10777, Note_on_c, 0, 67, 119
1, 11473, Note_off_c, 0, 67, 119
1, 11795, Note_on_c, 0, 72, 113
1, 12231, Note_off_c, 0, 72, 113
1, 12397, Note_on_c, 0, 65, 120
1, 12537, Note_off_c, 0, 65, 120
1, 12568, Note_on_c, 0, 66, 119
1, 12744, Note_off_c, 0, 66, 119
1, 12785, Note_on_c, 0, 65, 106
1, 13268, Note_off_c, 0, 65, 106
1, 13564, Note_on_c, 0, 65, 118
1, 14203, Note_off_c, 0, 65, 118
1, 14301, Note_on_c, 0, 63, 122
1, 14529, Note_off_c, 0, 63, 122
1, 14851, Note_on_c, 0, 66, 117
1, 14944, Note_off_c, 0, 66, 117
1, 14959, Note_on_c, 0, 67, 119
1, 15146, Note_off_c, 0, 67, 119
1, 15338, Note_on_c, 0, 60, 98
1, 15691, Note_off_c, 0, 60, 98
1, 15956, Note_on_c, 0, 60, 108
1, 16325, Note_off_c, 0, 60, 108
1, 16538, Note_on_c, 0, 60, 110
1, 16709, Note_off_c, 0, 60, 110
1, 16865, Note_on_c, 0, 65, 124
1, 16974, Note_off_c, 0, 65, 124
1, 17020, Note_on_c, 0, 66, 116
1, 17124, Note_off_c, 0, 66, 116
1, 17170, Note_on_c, 0, 65, 110
1, 17393, Note_off_c, 0, 65, 110
1, 17476, Note_on_c, 0, 63, 106
1, 17665, Note_off_c, 0, 63, 106
1, 17714, Note_on_c, 0, 60, 99
1, 18093, Note_off_c, 0, 60, 99
1, 18238, Note_on_c, 0, 55, 100
1, 18461, Note_off_c, 0, 55, 100
1, 18773, Note_on_c, 0, 58, 114
1, 19059, Note_off_c, 0, 58, 114
1, 19147, Note_on_c, 0, 60, 112
1, 19516, Note_off_c, 0, 60, 112
1, 19578, Note_on_c, 0, 60, 107
1, 19910, Note_off_c, 0, 60, 107
1, 19988, Note_on_c, 0, 58, 100
1, 20138, Note_off_c, 0, 58, 100
1, 20481, Note_on_c, 0, 61, 108
1, 20735, Note_off_c, 0, 61, 108
1, 20870, Note_on_c, 0, 64, 116
1, 21145, Note_off_c, 0, 64, 116
1, 21233, Note_on_c, 0, 67, 122
1, 21498, Note_off_c, 0, 67, 122
1, 21560, Note_on_c, 0, 68, 107
1, 21757, Note_off_c, 0, 68, 107
1, 21777, Note_on_c, 0, 71, 108
1, 21995, Note_off_c, 0, 71, 108
1, 22083, Note_on_c, 0, 69, 113
1, 22519, Note_off_c, 0, 69, 113
1, 22591, Note_on_c, 0, 61, 100
1, 22695, Note_off_c, 0, 61, 100
1, 22731, Note_on_c, 0, 64, 108
1, 23261, Note_off_c, 0, 64, 108
1, 23365, Note_on_c, 0, 63, 108
1, 23796, Note_off_c, 0, 63, 108
1, 25403, Note_on_c, 0, 68, 113
1, 25689, Note_off_c, 0, 68, 113
1, 25803, Note_on_c, 0, 66, 118
1, 26000, Note_off_c, 0, 66, 118
1, 26041, Note_on_c, 0, 66, 118
1, 26264, Note_off_c, 0, 66, 118
1, 26321, Note_on_c, 0, 65, 119
1, 26393, Note_off_c, 0, 65, 119
1, 26460, Note_on_c, 0, 65, 117
1, 26673, Note_off_c, 0, 65, 117
1, 26725, Note_on_c, 0, 63, 109
1, 26896, Note_off_c, 0, 63, 109
1, 26948, Note_on_c, 0, 61, 100
1, 27072, Note_off_c, 0, 61, 100
1, 27155, Note_on_c, 0, 62, 106
1, 27399, Note_off_c, 0, 62, 106
1, 27435, Note_on_c, 0, 62, 86
1, 27591, Note_off_c, 0, 62, 86
1, 27658, Note_on_c, 0, 61, 113
1, 27954, Note_off_c, 0, 61, 113
1, 27985, Note_on_c, 0, 60, 104
1, 28078, Note_off_c, 0, 60, 104
1, 28161, Note_on_c, 0, 58, 93
1, 28259, Note_off_c, 0, 58, 93
1, 28279, Note_on_c, 0, 59, 109
1, 28492, Note_off_c, 0, 59, 109
1, 28538, Note_on_c, 0, 56, 109
1, 28688, Note_off_c, 0, 56, 109
1, 28914, Note_on_c, 0, 55, 109
1, 29213, Note_off_c, 0, 55, 109
1, 29577, Note_on_c, 0, 55, 116
1, 29764, Note_off_c, 0, 55, 116
1, 29810, Note_on_c, 0, 54, 101
1, 29971, Note_off_c, 0, 54, 101
1, 30215, Note_on_c, 0, 53, 108
1, 30428, Note_off_c, 0, 53, 108
1, 30578, Note_on_c, 0, 51, 100
1, 30739, Note_off_c, 0, 51, 100
1, 30848, Note_on_c, 0, 48, 102
1, 30967, Note_off_c, 0, 48, 102
1, 31024, Note_on_c, 0, 48, 104
1, 31294, Note_off_c, 0, 48, 104
1, 31351, Note_on_c, 0, 46, 103
1, 31533, Note_off_c, 0, 46, 103
1, 31595, Note_on_c, 0, 48, 101
1, 31964, Note_off_c, 0, 48, 101
1, 33139, Note_on_c, 0, 48, 101
1, 33222, Note_off_c, 0, 48, 101
1, 33274, Note_on_c, 0, 49, 96
1, 33388, Note_off_c, 0, 49, 96
1, 33419, Note_on_c, 0, 53, 105
1, 33533, Note_off_c, 0, 53, 105
1, 33595, Note_on_c, 0, 56, 111
1, 33725, Note_off_c, 0, 56, 111
1, 33808, Note_on_c, 0, 58, 115
1, 33948, Note_off_c, 0, 58, 115
1, 34005, Note_on_c, 0, 60, 115
1, 34135, Note_off_c, 0, 60, 115
1, 34192, Note_on_c, 0, 61, 112
1, 34316, Note_off_c, 0, 61, 112
1, 34383, Note_on_c, 0, 63, 119
1, 34539, Note_off_c, 0, 63, 119
1, 34601, Note_on_c, 0, 65, 117
1, 34793, Note_off_c, 0, 65, 117
1, 34829, Note_on_c, 0, 64, 126
1, 35011, Note_off_c, 0, 64, 126
1, 35068, Note_on_c, 0, 63, 113
1, 35224, Note_off_c, 0, 63, 113
1, 35312, Note_on_c, 0, 60, 90
1, 35462, Note_off_c, 0, 60, 90
1, 35477, Note_on_c, 0, 62, 116
1, 35627, Note_off_c, 0, 62, 116
1, 35736, Note_on_c, 0, 59, 113
1, 35881, Note_off_c, 0, 59, 113
1, 35933, Note_on_c, 0, 58, 104
1, 36065, Note_off_c, 0, 58, 104
1, 36143, Note_on_c, 0, 56, 107
1, 36278, Note_off_c, 0, 56, 107
1, 36317, Note_on_c, 0, 55, 99
1, 36493, Note_off_c, 0, 55, 99
1, 36555, Note_on_c, 0, 54, 105
1, 36757, Note_off_c, 0, 54, 105
1, 36788, Note_on_c, 0, 53, 102
1, 37011, Note_off_c, 0, 53, 102
1, 37039, Note_on_c, 0, 50, 97
1, 37119, Note_off_c, 0, 50, 97
1, 37150, Note_on_c, 0, 51, 103
1, 37363, Note_off_c, 0, 51, 103
1, 37620, Note_on_c, 0, 53, 108
1, 37937, Note_off_c, 0, 53, 108
1, 37994, Note_on_c, 0, 55, 111
1, 38280, Note_off_c, 0, 55, 111
1, 38326, Note_on_c, 0, 58, 114
1, 38661, Note_off_c, 0, 58, 114
1, 38931, Note_on_c, 0, 60, 105
1, 39066, Note_off_c, 0, 60, 105
1, 39159, Note_on_c, 0, 63, 119
1, 39517, Note_off_c, 0, 63, 119
1, 39667, Note_on_c, 0, 65, 114
1, 39843, Note_off_c, 0, 65, 114
1, 39931, Note_on_c, 0, 67, 116
1, 40149, Note_off_c, 0, 67, 116
1, 40357, Note_on_c, 0, 70, 117
1, 40544, Note_off_c, 0, 70, 117
1, 40622, Note_on_c, 0, 70, 102
1, 40923, Note_off_c, 0, 70, 102
1, 41094, Note_on_c, 0, 68, 119
1, 41338, Note_off_c, 0, 68, 119
1, 41387, Note_on_c, 0, 67, 112
1, 41592, Note_off_c, 0, 67, 112
1, 41625, Note_on_c, 0, 64, 113
1, 41807, Note_off_c, 0, 64, 113
1, 41833, Note_on_c, 0, 63, 102
1, 42007, Note_off_c, 0, 63, 102
1, 42059, Note_on_c, 0, 59, 107
1, 42308, Note_off_c, 0, 59, 107
1, 42334, Note_on_c, 0, 58, 96
1, 42451, Note_off_c, 0, 58, 96
1, 42552, Note_on_c, 0, 57, 102
1, 42770, Note_off_c, 0, 57, 102
1, 42803, Note_on_c, 0, 56, 100
1, 42946, Note_off_c, 0, 56, 100
1, 42982, Note_on_c, 0, 55, 112
1, 43127, Note_off_c, 0, 55, 112
1, 43153, Note_on_c, 0, 54, 106
1, 43262, Note_off_c, 0, 54, 106
1, 43340, Note_on_c, 0, 50, 103
1, 43501, Note_off_c, 0, 50, 103
1, 43566, Note_on_c, 0, 53, 109
1, 43685, Note_off_c, 0, 53, 109
1, 43742, Note_on_c, 0, 55, 109
1, 43870, Note_off_c, 0, 55, 109
1, 44016, Note_on_c, 0, 51, 102
1, 44162, Note_off_c, 0, 51, 102
1, 44209, Note_on_c, 0, 53, 100
1, 44417, Note_off_c, 0, 53, 100
1, 44599, Note_on_c, 0, 55, 111
1, 44767, Note_off_c, 0, 55, 111
1, 44880, Note_on_c, 0, 57, 112
1, 45066, Note_off_c, 0, 57, 112
1, 45106, Note_on_c, 0, 58, 90
1, 45387, Note_off_c, 0, 58, 90
1, 45427, Note_on_c, 0, 60, 109
1, 45675, Note_off_c, 0, 60, 109
1, 45722, Note_on_c, 0, 58, 104
1, 45967, Note_off_c, 0, 58, 104
1, 46014, Note_on_c, 0, 63, 109
1, 46160, Note_off_c, 0, 63, 109
1, 46353, Note_on_c, 0, 67, 121
1, 46579, Note_off_c, 0, 67, 121
1, 46696, Note_on_c, 0, 70, 121
1, 46915, Note_off_c, 0, 70, 121
1, 47050, Note_on_c, 0, 67, 94
1, 47218, Note_off_c, 0, 67, 94
1, 47327, Note_on_c, 0, 72, 119
1, 47473, Note_off_c, 0, 72, 119
1, 47509, Note_on_c, 0, 74, 112
1, 47911, Note_off_c, 0, 74, 112
1, 49267, Note_on_c, 0, 72, 118
1, 49475, Note_off_c, 0, 72, 118
1, 49545, Note_on_c, 0, 71, 118
1, 49702, Note_off_c, 0, 71, 118
1, 49756, Note_on_c, 0, 67, 124
1, 49949, Note_off_c, 0, 67, 124
1, 49970, Note_on_c, 0, 66, 111
1, 50072, Note_off_c, 0, 66, 111
1, 50123, Note_on_c, 0, 64, 110
1, 50342, Note_off_c, 0, 64, 110
1, 50374, Note_on_c, 0, 62, 105
1, 50542, Note_off_c, 0, 62, 105
1, 50574, Note_on_c, 0, 58, 98
1, 50705, Note_off_c, 0, 58, 98
1, 50723, Note_on_c, 0, 61, 101
1, 50836, Note_off_c, 0, 61, 101
1, 50927, Note_on_c, 0, 66, 118
1, 51139, Note_off_c, 0, 66, 118
1, 51186, Note_on_c, 0, 65, 112
1, 51390, Note_off_c, 0, 65, 112
1, 51528, Note_on_c, 0, 64, 117
1, 51897, Note_off_c, 0, 64, 117
1, 51940, Note_on_c, 0, 63, 117
1, 52097, Note_off_c, 0, 63, 117
1, 52166, Note_on_c, 0, 65, 120
1, 52337, Note_off_c, 0, 65, 120
1, 52395, Note_on_c, 0, 66, 115
1, 52544, Note_off_c, 0, 66, 115
1, 52580, Note_on_c, 0, 68, 116
1, 52755, Note_off_c, 0, 68, 116
1, 52798, Note_on_c, 0, 65, 119
1, 52969, Note_off_c, 0, 65, 119
1, 53001, Note_on_c, 0, 64, 122
1, 53216, Note_off_c, 0, 64, 122
1, 53256, Note_on_c, 0, 63, 115
1, 53380, Note_off_c, 0, 63, 115
1, 53397, Note_on_c, 0, 61, 92
1, 53550, Note_off_c, 0, 61, 92
1, 53598, Note_on_c, 0, 62, 116
1, 53777, Note_off_c, 0, 62, 116
1, 53809, Note_on_c, 0, 60, 106
1, 53977, Note_off_c, 0, 60, 106
1, 54064, Note_on_c, 0, 59, 99
1, 54221, Note_off_c, 0, 59, 99
1, 54250, Note_on_c, 0, 62, 119
1, 54429, Note_off_c, 0, 62, 119
1, 54487, Note_on_c, 0, 56, 105
1, 54618, Note_off_c, 0, 56, 105
1, 54680, Note_on_c, 0, 59, 105
1, 54840, Note_off_c, 0, 59, 105
1, 54916, Note_on_c, 0, 53, 100
1, 55044, Note_off_c, 0, 53, 100
1, 55087, Note_on_c, 0, 56, 108
1, 55288, Note_off_c, 0, 56, 108
1, 55324, Note_on_c, 0, 50, 98
1, 55433, Note_off_c, 0, 50, 98
1, 55476, Note_on_c, 0, 53, 111
1, 55702, Note_off_c, 0, 53, 111
1, 55739, Note_on_c, 0, 47, 101
1, 55947, Note_off_c, 0, 47, 101
1, 56009, Note_on_c, 0, 50, 112
1, 56177, Note_off_c, 0, 50, 112
1, 56245, Note_on_c, 0, 44, 99
1, 56508, Note_off_c, 0, 44, 99
1, 56588, Note_on_c, 0, 43, 111
1, 57019, Note_off_c, 0, 43, 111
1, 57143, Note_on_c, 0, 44, 105
1, 57538, Note_off_c, 0, 44, 105
1, 57562, Note_on_c, 0, 43, 101
1, 57956, Note_off_c, 0, 43, 101
1, 58054, Note_on_c, 0, 43, 105
1, 58364, Note_off_c, 0, 43, 105
1, 58444, Note_on_c, 0, 48, 107
1, 58740, Note_off_c, 0, 48, 107
1, 58853, Note_on_c, 0, 48, 108
1, 59054, Note_off_c, 0, 48, 108
1, 59174, Note_on_c, 0, 51, 108
1, 59554, Note_off_c, 0, 51, 108
1, 59641, Note_on_c, 0, 51, 111
1, 59893, Note_off_c, 0, 51, 111
1, 60116, Note_on_c, 0, 54, 103
1, 60200, Note_off_c, 0, 54, 103
1, 60236, Note_on_c, 0, 55, 103
1, 60477, Note_off_c, 0, 55, 103
1, 60568, Note_on_c, 0, 60, 108
1, 60849, Note_off_c, 0, 60, 108
1, 61031, Note_on_c, 0, 63, 115
1, 61349, Note_off_c, 0, 63, 115
1, 61422, Note_on_c, 0, 63, 120
1, 61667, Note_off_c, 0, 63, 120
1, 61747, Note_on_c, 0, 65, 110
1, 61907, Note_off_c, 0, 65, 110
1, 61943, Note_on_c, 0, 67, 112
1, 62107, Note_off_c, 0, 67, 112
1, 62169, Note_on_c, 0, 67, 123
1, 62454, Note_off_c, 0, 67, 123
1, 62483, Note_on_c, 0, 68, 93
1, 62570, Note_off_c, 0, 68, 93
1, 62587, Note_on_c, 0, 70, 91
1, 62964, Note_off_c, 0, 70, 91
1, 63001, Note_on_c, 0, 72, 116
1, 63289, Note_off_c, 0, 72, 116
1, 63438, Note_on_c, 0, 75, 113
1, 63884, Note_off_c, 0, 75, 113
1, 63884, Note_on_c, 0, 77, 112
1, 64143, Note_off_c, 0, 77, 112
1, 64281, Note_on_c, 0, 78, 118
1, 64361, Note_off_c, 0, 78, 118
1, 64379, Note_on_c, 0, 79, 109
1, 64664, Note_off_c, 0, 79, 109
1, 64770, Note_on_c, 0, 80, 109
1, 65069, Note_off_c, 0, 80, 109
1, 65120, Note_on_c, 0, 79, 109
1, 65408, Note_off_c, 0, 79, 109
1, 65466, Note_on_c, 0, 77, 119
1, 65787, Note_off_c, 0, 77, 119
1, 65955, Note_on_c, 0, 75, 113
1, 66364, Note_off_c, 0, 75, 113
1, 66495, Note_on_c, 0, 72, 89
1, 66648, Note_off_c, 0, 72, 89
1, 66728, Note_on_c, 0, 75, 116
1, 67104, Note_off_c, 0, 75, 116
1, 67221, Note_on_c, 0, 77, 121
1, 67349, Note_off_c, 0, 77, 121
1, 67386, Note_on_c, 0, 79, 105
1, 67690, Note_off_c, 0, 79, 105
1, 67702, Note_on_c, 0, 77, 113
1, 68140, Note_off_c, 0, 77, 113
1, 68293, Note_on_c, 0, 72, 117
1, 68442, Note_off_c, 0, 72, 117
1, 68493, Note_on_c, 0, 74, 113
1, 68723, Note_off_c, 0, 74, 113
1, 68909, Note_on_c, 0, 70, 112
1, 69124, Note_off_c, 0, 70, 112
1, 69177, Note_on_c, 0, 69, 104
1, 69486, Note_off_c, 0, 69, 104
1, 69528, Note_on_c, 0, 67, 107
1, 69703, Note_off_c, 0, 67, 107
1, 69750, Note_on_c, 0, 70, 117
1, 69943, Note_off_c, 0, 70, 117
1, 70041, Note_on_c, 0, 75, 119
1, 70370, Note_off_c, 0, 75, 119
1, 70413, Note_on_c, 0, 74, 114
1, 70584, Note_off_c, 0, 74, 114
1, 70638, Note_on_c, 0, 75, 117
1, 70864, Note_off_c, 0, 75, 117
1, 70889, Note_on_c, 0, 74, 115
1, 71112, Note_off_c, 0, 74, 115
1, 71177, Note_on_c, 0, 72, 100
1, 71795, Note_off_c, 0, 72, 100
1, 72957, Note_on_c, 0, 70, 122
1, 73139, Note_off_c, 0, 70, 122
1, 73175, Note_on_c, 0, 67, 111
1, 73295, Note_off_c, 0, 67, 111
1, 73349, Note_on_c, 0, 68, 110
1, 73525, Note_off_c, 0, 68, 110
1, 73564, Note_on_c, 0, 72, 121
1, 73772, Note_off_c, 0, 72, 121
1, 73793, Note_on_c, 0, 70, 122
1, 73983, Note_off_c, 0, 70, 122
1, 74019, Note_on_c, 0, 69, 122
1, 74311, Note_off_c, 0, 69, 122
1, 74347, Note_on_c, 0, 68, 100
1, 74511, Note_off_c, 0, 68, 100
1, 74602, Note_on_c, 0, 67, 122
1, 74836, Note_off_c, 0, 67, 122
1, 74854, Note_on_c, 0, 64, 103
1, 74982, Note_off_c, 0, 64, 103
1, 75000, Note_on_c, 0, 65, 112
1, 75171, Note_off_c, 0, 65, 112
1, 75211, Note_on_c, 0, 67, 120
1, 75375, Note_off_c, 0, 67, 120
1, 75407, Note_on_c, 0, 68, 108
1, 75578, Note_off_c, 0, 68, 108
1, 75603, Note_on_c, 0, 70, 118
1, 75763, Note_off_c, 0, 70, 118
1, 75810, Note_on_c, 0, 67, 114
1, 76000, Note_off_c, 0, 67, 114
1, 76047, Note_on_c, 0, 66, 112
1, 76240, Note_off_c, 0, 66, 112
1, 76305, Note_on_c, 0, 65, 115
1, 76484, Note_off_c, 0, 65, 115
1, 76524, Note_on_c, 0, 62, 86
1, 76641, Note_off_c, 0, 62, 86
1, 76673, Note_on_c, 0, 64, 121
1, 76852, Note_off_c, 0, 64, 121
1, 76899, Note_on_c, 0, 61, 107
1, 77100, Note_off_c, 0, 61, 107
1, 77143, Note_on_c, 0, 60, 106
1, 77241, Note_off_c, 0, 60, 106
1, 77321, Note_on_c, 0, 58, 110
1, 77478, Note_off_c, 0, 58, 110
1, 77532, Note_on_c, 0, 57, 86
1, 77696, Note_off_c, 0, 57, 86
1, 77747, Note_on_c, 0, 56, 106
1, 77933, Note_off_c, 0, 56, 106
1, 77973, Note_on_c, 0, 55, 104
1, 78243, Note_off_c, 0, 55, 104
1, 78279, Note_on_c, 0, 54, 107
1, 78436, Note_off_c, 0, 54, 107
1, 78517, Note_on_c, 0, 66, 120
1, 78787, Note_off_c, 0, 66, 120
1, 78801, Note_on_c, 0, 63, 101
1, 78943, Note_off_c, 0, 63, 101
1, 79166, Note_on_c, 0, 63, 108
1, 79637, Note_off_c, 0, 63, 108
1, 79819, Note_on_c, 0, 60, 111
1, 79983, Note_off_c, 0, 60, 111
1, 80041, Note_on_c, 0, 59, 107
1, 80205, Note_off_c, 0, 59, 107
1, 80256, Note_on_c, 0, 57, 104
1, 80431, Note_off_c, 0, 57, 104
1, 80460, Note_on_c, 0, 56, 101
1, 80653, Note_off_c, 0, 56, 101
1, 80682, Note_on_c, 0, 54, 105
1, 80817, Note_off_c, 0, 54, 105
1, 80871, Note_on_c, 0, 53, 98
1, 81364, Note_off_c, 0, 53, 98
1, 81484, Note_on_c, 0, 55, 106
1, 81648, Note_off_c, 0, 55, 106
1, 81706, Note_on_c, 0, 56, 107
1, 81844, Note_off_c, 0, 56, 107
1, 81895, Note_on_c, 0, 58, 104
1, 82063, Note_off_c, 0, 58, 104
1, 82103, Note_on_c, 0, 59, 103
1, 82238, Note_off_c, 0, 59, 103
1, 82292, Note_on_c, 0, 63, 110
1, 82416, Note_off_c, 0, 63, 110
1, 82500, Note_on_c, 0, 67, 114
1, 82649, Note_off_c, 0, 67, 114
1, 82678, Note_on_c, 0, 69, 123
1, 82846, Note_off_c, 0, 69, 123
1, 82908, Note_on_c, 0, 70, 110
1, 83083, Note_off_c, 0, 70, 110
1, 83135, Note_on_c, 0, 69, 122
1, 83382, Note_off_c, 0, 69, 122
1, 83396, Note_on_c, 0, 68, 111
1, 83527, Note_off_c, 0, 68, 111
1, 83589, Note_on_c, 0, 64, 100
1, 83698, Note_off_c, 0, 64, 100
1, 83774, Note_on_c, 0, 67, 119
1, 83927, Note_off_c, 0, 67, 119
1, 84014, Note_on_c, 0, 63, 116
1, 84222, Note_off_c, 0, 63, 116
1, 84258, Note_on_c, 0, 62, 110
1, 84367, Note_off_c, 0, 62, 110
1, 84425, Note_on_c, 0, 59, 108
1, 84637, Note_off_c, 0, 59, 108
1, 84655, Note_on_c, 0, 58, 107
1, 84764, Note_off_c, 0, 58, 107
1, 84811, Note_on_c, 0, 56, 107
1, 84986, Note_off_c, 0, 56, 107
1, 85026, Note_on_c, 0, 55, 91
1, 85205, Note_off_c, 0, 55, 91
1, 85260, Note_on_c, 0, 54, 106
1, 85514, Note_off_c, 0, 54, 106
1, 85554, Note_on_c, 0, 53, 101
1, 85685, Note_off_c, 0, 53, 101
1, 85739, Note_on_c, 0, 49, 98
1, 85900, Note_off_c, 0, 49, 98
1, 85944, Note_on_c, 0, 51, 103
1, 86390, Note_off_c, 0, 51, 103
1, 86481, Note_on_c, 0, 51, 107
1, 86756, Note_off_c, 0, 51, 107
1, 86758, Note_on_c, 0, 53, 104
1, 86989, Note_off_c, 0, 53, 104
1, 87012, Note_on_c, 0, 55, 104
1, 87269, Note_off_c, 0, 55, 104
1, 87278, Note_on_c, 0, 55, 113
1, 87482, Note_off_c, 0, 55, 113
1, 87569, Note_on_c, 0, 58, 107
1, 87842, Note_off_c, 0, 58, 107
1, 87868, Note_on_c, 0, 60, 95
1, 88174, Note_off_c, 0, 60, 95
1, 88194, Note_on_c, 0, 60, 106
1, 88417, Note_off_c, 0, 60, 106
1, 88435, Note_on_c, 0, 62, 112
1, 88663, Note_off_c, 0, 62, 112
1, 88694, Note_on_c, 0, 64, 118
1, 88889, Note_off_c, 0, 64, 118
1, 88904, Note_on_c, 0, 64, 117
1, 89119, Note_off_c, 0, 64, 117
1, 89145, Note_on_c, 0, 64, 104
1, 89301, Note_off_c, 0, 64, 104
1, 89314, Note_on_c, 0, 65, 117
1, 89472, Note_off_c, 0, 65, 117
1, 89494, Note_on_c, 0, 67, 122
1, 89654, Note_off_c, 0, 67, 122
1, 89708, Note_on_c, 0, 67, 120
1, 89953, Note_off_c, 0, 67, 120
1, 90048, Note_on_c, 0, 70, 120
1, 90168, Note_off_c, 0, 70, 120
1, 90237, Note_on_c, 0, 71, 120
1, 90313, Note_off_c, 0, 71, 120
1, 90342, Note_on_c, 0, 72, 117
1, 90583, Note_off_c, 0, 72, 117
1, 90626, Note_on_c, 0, 73, 114
1, 90838, Note_off_c, 0, 73, 114
1, 90953, Note_on_c, 0, 70, 110
1, 91128, Note_off_c, 0, 70, 110
1, 91139, Note_on_c, 0, 72, 117
1, 91391, Note_off_c, 0, 72, 117
1, 91406, Note_on_c, 0, 72, 113
1, 91530, Note_off_c, 0, 72, 113
1, 91540, Note_on_c, 0, 71, 113
1, 91598, Note_off_c, 0, 71, 113
1, 91635, Note_on_c, 0, 70, 107
1, 91931, Note_off_c, 0, 70, 107
1, 91966, Note_on_c, 0, 68, 109
1, 92196, Note_off_c, 0, 68, 109
1, 92393, Note_on_c, 0, 65, 96
1, 92641, Note_off_c, 0, 65, 96
1, 92710, Note_on_c, 0, 68, 119
1, 92918, Note_off_c, 0, 68, 119
1, 92947, Note_on_c, 0, 69, 107
1, 93042, Note_off_c, 0, 69, 107
1, 93195, Note_on_c, 0, 77, 124
1, 93326, Note_off_c, 0, 77, 124
1, 93377, Note_on_c, 0, 79, 97
1, 93567, Note_off_c, 0, 79, 97
1, 93598, Note_on_c, 0, 77, 94
1, 93969, Note_off_c, 0, 77, 94
1, 94013, Note_on_c, 0, 75, 113
1, 94429, Note_off_c, 0, 75, 113
1, 94468, Note_on_c, 0, 74, 116
1, 94771, Note_off_c, 0, 74, 116
1, 95016, Note_on_c, 0, 74, 112
1, 95363, Note_off_c, 0, 74, 112
1, 95388, Note_on_c, 0, 76, 113
1, 95457, Note_off_c, 0, 76, 113
1, 95478, Note_on_c, 0, 77, 107
1, 95573, Note_off_c, 0, 77, 107
1, 95598, Note_on_c, 0, 79, 92
1, 95875, Note_off_c, 0, 79, 92
1, 96185, Note_on_c, 0, 70, 108
1, 96430, Note_off_c, 0, 70, 108
1, 97051, Note_on_c, 0, 70, 100
1, 97244, Note_off_c, 0, 70, 100
1, 97335, Note_on_c, 0, 74, 112
1, 97612, Note_off_c, 0, 74, 112
1, 97644, Note_on_c, 0, 75, 121
1, 98028, Note_off_c, 0, 75, 121
1, 98038, Note_on_c, 0, 74, 106
1, 98228, Note_off_c, 0, 74, 106
1, 98246, Note_on_c, 0, 75, 119
1, 98491, Note_off_c, 0, 75, 119
1, 98556, Note_on_c, 0, 74, 108
1, 98727, Note_off_c, 0, 74, 108
1, 98763, Note_on_c, 0, 75, 120
1, 98967, Note_off_c, 0, 75, 120
1, 99021, Note_on_c, 0, 74, 104
1, 99200, Note_off_c, 0, 74, 104
1, 99269, Note_on_c, 0, 75, 118
1, 99539, Note_off_c, 0, 75, 118
1, 99641, Note_on_c, 0, 80, 92
1, 99787, Note_off_c, 0, 80, 92
1, 99833, Note_on_c, 0, 83, 96
1, 99934, Note_off_c, 0, 83, 96
1, 99952, Note_on_c, 0, 82, 90
1, 100071, Note_off_c, 0, 82, 90
1, 100285, Note_on_c, 0, 77, 121
1, 100423, Note_off_c, 0, 77, 121
1, 100459, Note_on_c, 0, 79, 114
1, 100685, Note_off_c, 0, 79, 114
1, 100912, Note_on_c, 0, 75, 115
1, 101031, Note_off_c, 0, 75, 115
1, 101067, Note_on_c, 0, 77, 105
1, 101639, Note_off_c, 0, 77, 105
1, 101667, Note_on_c, 0, 81, 76
1, 101830, Note_off_c, 0, 81, 76
1, 102744, Note_on_c, 0, 77, 122
1, 102835, Note_off_c, 0, 77, 122
1, 102867, Note_on_c, 0, 75, 113
1, 103079, Note_off_c, 0, 75, 113
1, 103110, Note_on_c, 0, 74, 102
1, 103320, Note_off_c, 0, 74, 102
1, 103340, Note_on_c, 0, 73, 115
1, 103607, Note_off_c, 0, 73, 115
1, 103620, Note_on_c, 0, 75, 118
1, 103806, Note_off_c, 0, 75, 118
1, 103835, Note_on_c, 0, 76, 119
1, 104036, Note_off_c, 0, 76, 119
1, 104266, Note_on_c, 0, 75, 118
1, 104430, Note_off_c, 0, 75, 118
1, 104536, Note_on_c, 0, 74, 123
1, 104740, Note_off_c, 0, 74, 123
1, 104770, Note_on_c, 0, 73, 100
1, 105079, Note_off_c, 0, 73, 100
1, 105115, Note_on_c, 0, 72, 118
1, 105351, Note_off_c, 0, 72, 118
1, 105395, Note_on_c, 0, 68, 118
1, 105642, Note_off_c, 0, 68, 118
1, 105660, Note_on_c, 0, 67, 95
1, 105927, Note_off_c, 0, 67, 95
1, 105943, Note_on_c, 0, 66, 115
1, 106162, Note_off_c, 0, 66, 115
1, 106187, Note_on_c, 0, 63, 104
1, 106296, Note_off_c, 0, 63, 104
1, 106552, Note_on_c, 0, 58, 105
1, 106778, Note_off_c, 0, 58, 105
1, 106796, Note_on_c, 0, 57, 102
1, 106913, Note_off_c, 0, 57, 102
1, 107019, Note_on_c, 0, 69, 9
1, 107366, Note_off_c, 0, 69, 9
1, 107468, Note_on_c, 0, 67, 117
1, 107636, Note_off_c, 0, 67, 117
1, 107668, Note_on_c, 0, 68, 116
1, 107814, Note_off_c, 0, 68, 116
1, 107843, Note_on_c, 0, 67, 124
1, 108077, Note_off_c, 0, 67, 124
1, 108128, Note_on_c, 0, 66, 109
1, 108307, Note_off_c, 0, 66, 109
1, 108365, Note_on_c, 0, 64, 96
1, 108440, Note_off_c, 0, 64, 96
1, 108452, Note_on_c, 0, 65, 119
1, 108627, Note_off_c, 0, 65, 119
1, 108663, Note_on_c, 0, 65, 122
1, 108878, Note_off_c, 0, 65, 122
1, 108940, Note_on_c, 0, 65, 111
1, 109163, Note_off_c, 0, 65, 111
1, 109272, Note_on_c, 0, 65, 116
1, 109531, Note_off_c, 0, 65, 116
1, 109545, Note_on_c, 0, 65, 127
1, 109662, Note_off_c, 0, 65, 127
1, 109749, Note_on_c, 0, 65, 118
1, 110012, Note_off_c, 0, 65, 118
1, 110114, Note_on_c, 0, 65, 116
1, 110254, Note_off_c, 0, 65, 116
1, 110277, Note_on_c, 0, 67, 110
1, 110396, Note_off_c, 0, 67, 110
1, 110423, Note_on_c, 0, 70, 115
1, 110803, Note_off_c, 0, 70, 115
1, 110978, Note_on_c, 0, 65, 98
1, 111054, Note_off_c, 0, 65, 98
1, 111090, Note_on_c, 0, 66, 101
1, 111122, Note_off_c, 0, 66, 101
1, 111162, Note_on_c, 0, 67, 105
1, 111257, Note_off_c, 0, 67, 105
1, 111333, Note_on_c, 0, 70, 110
1, 111687, Note_off_c, 0, 70, 110
1, 111814, Note_on_c, 0, 65, 109
1, 111909, Note_off_c, 0, 65, 109
1, 111949, Note_on_c, 0, 67, 111
1, 112102, Note_off_c, 0, 67, 111
1, 112189, Note_on_c, 0, 70, 119
1, 112434, Note_off_c, 0, 70, 119
1, 112541, Note_on_c, 0, 67, 107
1, 112751, Note_off_c, 0, 67, 107
1, 112765, Note_on_c, 0, 65, 110
1, 112984, Note_off_c, 0, 65, 110
1, 113057, Note_on_c, 0, 63, 105
1, 113302, Note_off_c, 0, 63, 105
1, 113382, Note_on_c, 0, 60, 102
1, 113857, Note_off_c, 0, 60, 102
1, 113948, Note_on_c, 0, 63, 115
1, 114240, Note_off_c, 0, 63, 115
1, 114513, Note_on_c, 0, 63, 119
1, 114622, Note_off_c, 0, 63, 119
1, 114659, Note_on_c, 0, 65, 115
1, 115105, Note_off_c, 0, 65, 115
1, 115148, Note_on_c, 0, 63, 107
1, 115495, Note_off_c, 0, 63, 107
1, 115586, Note_on_c, 0, 66, 114
1, 115801, Note_off_c, 0, 66, 114
1, 115811, Note_on_c, 0, 67, 121
1, 116037, Note_off_c, 0, 67, 121
1, 116677, Note_on_c, 0, 72, 118
1, 117075, Note_off_c, 0, 72, 118
1, 117206, Note_on_c, 0, 75, 113
1, 117469, Note_off_c, 0, 75, 113
1, 117582, Note_on_c, 0, 78, 94
1, 117658, Note_off_c, 0, 78, 94
1, 117672, Note_on_c, 0, 79, 93
1, 118235, Note_off_c, 0, 79, 93
1, 118322, Note_on_c, 0, 78, 118
1, 118402, Note_off_c, 0, 78, 118
1, 118429, Note_on_c, 0, 79, 79
1, 119638, Note_off_c, 0, 79, 79
1, 120149, Note_on_c, 0, 72, 109
1, 120492, Note_off_c, 0, 72, 109
1, 120667, Note_on_c, 0, 75, 114
1, 120996, Note_off_c, 0, 75, 114
1, 121202, Note_on_c, 0, 76, 122
1, 121326, Note_off_c, 0, 76, 122
1, 121349, Note_on_c, 0, 77, 111
1, 121681, Note_off_c, 0, 77, 111
1, 121750, Note_on_c, 0, 75, 120
1, 122068, Note_off_c, 0, 75, 120
1, 122239, Note_on_c, 0, 78, 110
1, 122334, Note_off_c, 0, 78, 110
1, 122355, Note_on_c, 0, 79, 108
1, 122673, Note_off_c, 0, 79, 108
1, 122830, Note_on_c, 0, 67, 107
1, 123239, Note_off_c, 0, 67, 107
1, 123381, Note_on_c, 0, 72, 109
1, 123746, Note_off_c, 0, 72, 109
1, 123881, Note_on_c, 0, 75, 120
1, 124151, Note_off_c, 0, 75, 120
1, 124345, Note_on_c, 0, 78, 117
1, 124414, Note_off_c, 0, 78, 117
1, 124438, Note_on_c, 0, 79, 91
1, 124858, Note_off_c, 0, 79, 91
1, 124923, Note_on_c, 0, 78, 121
1, 125043, Note_off_c, 0, 78, 121
1, 125082, Note_on_c, 0, 79, 79
1, 126184, Note_off_c, 0, 79, 79
1, 126701, Note_on_c, 0, 72, 119
1, 126902, Note_off_c, 0, 72, 119
1, 126982, Note_on_c, 0, 73, 116
1, 127216, Note_off_c, 0, 73, 116
1, 127340, Note_on_c, 0, 74, 115
1, 127632, Note_off_c, 0, 74, 115
1, 127792, Note_on_c, 0, 71, 122
1, 128062, Note_off_c, 0, 71, 122
1, 128142, Note_on_c, 0, 67, 125
1, 128416, Note_off_c, 0, 67, 125
1, 128448, Note_on_c, 0, 66, 107
1, 128576, Note_off_c, 0, 66, 107
1, 128616, Note_on_c, 0, 64, 102
1, 128769, Note_off_c, 0, 64, 102
1, 128889, Note_on_c, 0, 62, 104
1, 129068, Note_off_c, 0, 62, 104
1, 129107, Note_on_c, 0, 60, 93
1, 129200, Note_off_c, 0, 60, 93
1, 129205, Note_on_c, 0, 61, 107
1, 129424, Note_off_c, 0, 61, 107
1, 129456, Note_on_c, 0, 66, 114
1, 129675, Note_off_c, 0, 66, 114
1, 129729, Note_on_c, 0, 65, 112
1, 129904, Note_off_c, 0, 65, 112
1, 129950, Note_on_c, 0, 63, 91
1, 130033, Note_off_c, 0, 63, 91
1, 130046, Note_on_c, 0, 64, 122
1, 130181, Note_off_c, 0, 64, 122
1, 130232, Note_on_c, 0, 66, 116
1, 130422, Note_off_c, 0, 66, 116
1, 130473, Note_on_c, 0, 67, 112
1, 130652, Note_off_c, 0, 67, 112
1, 130662, Note_on_c, 0, 68, 114
1, 130833, Note_off_c, 0, 68, 114
1, 130935, Note_on_c, 0, 69, 117
1, 131095, Note_off_c, 0, 69, 117
1, 131131, Note_on_c, 0, 70, 112
1, 131244, Note_off_c, 0, 70, 112
1, 131269, Note_on_c, 0, 71, 100
1, 131418, Note_off_c, 0, 71, 100
1, 131564, Note_on_c, 0, 72, 114
1, 131827, Note_off_c, 0, 72, 114
1, 131918, Note_on_c, 0, 73, 123
1, 132203, Note_off_c, 0, 73, 123
1, 132349, Note_on_c, 0, 72, 113
1, 132590, Note_off_c, 0, 72, 113
1, 132718, Note_on_c, 0, 71, 119
1, 132963, Note_off_c, 0, 71, 119
1, 133006, Note_on_c, 0, 70, 111
1, 133210, Note_off_c, 0, 70, 111
1, 133252, Note_on_c, 0, 67, 94
1, 133340, Note_off_c, 0, 67, 94
1, 133348, Note_on_c, 0, 68, 118
1, 133589, Note_off_c, 0, 68, 118
1, 133640, Note_on_c, 0, 65, 124
1, 133852, Note_off_c, 0, 65, 124
1, 133899, Note_on_c, 0, 63, 112
1, 134133, Note_off_c, 0, 63, 112
1, 134202, Note_on_c, 0, 62, 116
1, 134373, Note_off_c, 0, 62, 116
1, 134427, Note_on_c, 0, 60, 106
1, 134569, Note_off_c, 0, 60, 106
1, 134638, Note_on_c, 0, 58, 99
1, 134744, Note_off_c, 0, 58, 99
1, 134787, Note_on_c, 0, 59, 91
1, 134936, Note_off_c, 0, 59, 91
1, 134983, Note_on_c, 0, 62, 117
1, 135176, Note_off_c, 0, 62, 117
1, 135271, Note_on_c, 0, 56, 107
1, 135472, Note_off_c, 0, 56, 107
1, 135607, Note_on_c, 0, 54, 107
1, 135786, Note_off_c, 0, 54, 107
1, 135811, Note_on_c, 0, 55, 106
1, 136195, Note_off_c, 0, 55, 106
1, 136227, Note_on_c, 0, 54, 92
1, 136336, Note_off_c, 0, 54, 92
1, 137213, Note_on_c, 0, 51, 115
1, 137447, Note_off_c, 0, 51, 115
1, 137490, Note_on_c, 0, 48, 96
1, 138060, Note_off_c, 0, 48, 96
1, 138345, Note_on_c, 0, 51, 114
1, 138838, Note_off_c, 0, 51, 114
1, 138911, Note_on_c, 0, 48, 89
1, 139126, Note_off_c, 0, 48, 89
1, 139213, Note_on_c, 0, 53, 98
1, 139319, Note_off_c, 0, 53, 98
1, 139377, Note_on_c, 0, 55, 97
1, 139859, Note_off_c, 0, 55, 97
1, 139939, Note_on_c, 0, 58, 110
1, 140633, Note_off_c, 0, 58, 110
1, 140706, Note_on_c, 0, 60, 102
1, 141393, Note_off_c, 0, 60, 102
1, 141572, Note_on_c, 0, 63, 116
1, 142098, Note_off_c, 0, 63, 116
1, 142127, Note_on_c, 0, 64, 114
1, 142265, Note_off_c, 0, 64, 114
1, 142290, Note_on_c, 0, 65, 104
1, 142381, Note_off_c, 0, 65, 104
1, 142464, Note_on_c, 0, 68, 121
1, 142531, Note_off_c, 0, 68, 121
1, 142559, Note_on_c, 0, 70, 103
1, 143970, Note_off_c, 0, 70, 103
1, 143988, Note_on_c, 0, 67, 100
1, 145747, Note_off_c, 0, 67, 100
1, 145747, End_track
0, 0, End_of_file
