0, 0, Header, 1, 1, 192
1, 0, Start_track
1, 0, Title_t, "Melody"
1, 0, Tempo, 257510
1, 0, Key_signature, -2, "major"
1, 0, Time_signature, 4, 2, 24, 8
1, 2120, Note_on_c, 0, 69, 113
1, 2180, Note_off_c, 0, 69, 113
1, 2195, Note_on_c, 0, 70, 124
1, 2328, Note_off_c, 0, 70, 124
1, 2352, Note_on_c, 0, 72, 114
1, 2458, Note_off_c, 0, 72, 114
1, 2506, Note_on_c, 0, 74, 109
1, 2630, Note_off_c, 0, 74, 109
1, 2715, Note_on_c, 0, 72, 111
1, 2949, Note_off_c, 0, 72, 111
1, 2991, Note_on_c, 0, 70, 104
1, 3258, Note_off_c, 0, 70, 104
1, 3705, Note_on_c, 0, 67, 111
1, 3762, Note_off_c, 0, 67, 111
1, 3783, Note_on_c, 0, 69, 118
1, 3913, Note_off_c, 0, 69, 118
1, 3937, Note_on_c, 0, 70, 118
1, 4037, Note_off_c, 0, 70, 118
1, 4094, Note_on_c, 0, 72, 113
1, 4191, Note_off_c, 0, 72, 113
1, 4267, Note_on_c, 0, 70, 117
1, 4531, Note_off_c, 0, 70, 117
1, 4564, Note_on_c, 0, 69, 105
1, 4853, Note_off_c, 0, 69, 105
1, 4871, Note_on_c, 0, 62, 100
1, 4947, Note_off_c, 0, 62, 100
1, 4986, Note_on_c, 0, 63, 109
1, 5101, Note_off_c, 0, 63, 109
1, 5104, Note_on_c, 0, 62, 104
1, 5283, Note_off_c, 0, 62, 104
1, 5313, Note_on_c, 0, 61, 108
1, 5404, Note_off_c, 0, 61, 108
1, 5434, Note_on_c, 0, 62, 108
1, 5662, Note_off_c, 0, 62, 108
1, 5692, Note_on_c, 0, 70, 118
1, 5804, Note_off_c, 0, 70, 118
1, 5864, Note_on_c, 0, 69, 114
1, 6058, Note_off_c, 0, 69, 114
1, 6091, Note_on_c, 0, 67, 103
1, 6331, Note_off_c, 0, 67, 103
1, 6957, Note_on_c, 0, 57, 109
1, 7051, Note_off_c, 0, 57, 109
1, 7093, Note_on_c, 0, 58, 112
1, 7211, Note_off_c, 0, 58, 112
1, 7259, Note_on_c, 0, 62, 113
1, 7593, Note_off_c, 0, 62, 113
1, 7641, Note_on_c, 0, 66, 112
1, 7717, Note_off_c, 0, 66, 112
1, 7753, Note_on_c, 0, 67, 113
1, 7993, Note_off_c, 0, 67, 113
1, 8005, Note_on_c, 0, 70, 112
1, 8266, Note_off_c, 0, 70, 112
1, 8381, Note_on_c, 0, 72, 114
1, 8490, Note_off_c, 0, 72, 114
1, 8566, Note_on_c, 0, 70, 125
1, 8709, Note_off_c, 0, 70, 125
1, 8782, Note_on_c, 0, 63, 92
1, 9600, Note_off_c, 0, 63, 92
1, 9889, Note_on_c, 0, 72, 117
1, 10019, Note_off_c, 0, 72, 117
1, 10022, Note_on_c, 0, 71, 113
1, 10055, Note_off_c, 0, 71, 113
1, 10082, Note_on_c, 0, 70, 122
1, 10109, Note_off_c, 0, 70, 122
1, 10112, Note_on_c, 0, 69, 114
1, 10279, Note_off_c, 0, 69, 114
1, 10279, Note_on_c, 0, 65, 103
1, 11003, Note_off_c, 0, 65, 103
1, 11444, Note_on_c, 0, 68, 109
1, 11486, Note_off_c, 0, 68, 109
1, 11525, Note_on_c, 0, 69, 116
1, 11808, Note_off_c, 0, 69, 116
1, 11823, Note_on_c, 0, 67, 108
1, 12410, Note_off_c, 0, 67, 108
1, 12915, Note_on_c, 0, 69, 113
1, 13021, Note_off_c, 0, 69, 113
1, 13069, Note_on_c, 0, 70, 117
1, 13187, Note_off_c, 0, 70, 117
1, 13260, Note_on_c, 0, 67, 111
1, 13339, Note_off_c, 0, 67, 111
1, 13339, Note_on_c, 0, 69, 114
1, 13698, Note_off_c, 0, 69, 114
1, 13701, Note_on_c, 0, 66, 117
1, 14057, Note_off_c, 0, 66, 117
1, 14096, Note_on_c, 0, 67, 112
1, 14339, Note_off_c, 0, 67, 112
1, 14506, Note_on_c, 0, 68, 114
1, 14569, Note_off_c, 0, 68, 114
1, 14575, Note_on_c, 0, 69, 111
1, 14842, Note_off_c, 0, 69, 111
1, 14851, Note_on_c, 0, 65, 113
1, 15222, Note_off_c, 0, 65, 113
1, 15273, Note_on_c, 0, 60, 113
1, 15355, Note_off_c, 0, 60, 113
1, 15379, Note_on_c, 0, 62, 106
1, 15652, Note_off_c, 0, 62, 106
1, 15679, Note_on_c, 0, 57, 103
1, 16205, Note_off_c, 0, 57, 103
1, 16731, Note_on_c, 0, 69, 114
1, 16813, Note_off_c, 0, 69, 114
1, 16828, Note_on_c, 0, 72, 122
1, 16891, Note_off_c, 0, 72, 122
1, 16924, Note_on_c, 0, 72, 116
1, 17006, Note_off_c, 0, 72, 116
1, 17012, Note_on_c, 0, 69, 121
1, 17097, Note_off_c, 0, 69, 121
1, 17121, Note_on_c, 0, 69, 120
1, 17190, Note_off_c, 0, 69, 120
1, 17190, Note_on_c, 0, 66, 126
1, 17272, Note_off_c, 0, 66, 126
1, 17299, Note_on_c, 0, 66, 118
1, 17384, Note_off_c, 0, 66, 118
1, 17387, Note_on_c, 0, 62, 116
1, 17481, Note_off_c, 0, 62, 116
1, 17496, Note_on_c, 0, 62, 109
1, 17578, Note_off_c, 0, 62, 109
1, 17578, Note_on_c, 0, 57, 107
1, 17666, Note_off_c, 0, 57, 107
1, 17681, Note_on_c, 0, 57, 112
1, 17741, Note_off_c, 0, 57, 112
1, 17741, Note_on_c, 0, 62, 117
1, 17798, Note_off_c, 0, 62, 117
1, 17837, Note_on_c, 0, 62, 117
1, 17922, Note_off_c, 0, 62, 117
1, 17925, Note_on_c, 0, 58, 97
1, 18296, Note_off_c, 0, 58, 97
1, 18442, Note_on_c, 0, 58, 103
1, 18511, Note_off_c, 0, 58, 103
1, 18535, Note_on_c, 0, 62, 91
1, 18595, Note_off_c, 0, 62, 91
1, 18595, Note_on_c, 0, 67, 113
1, 18692, Note_off_c, 0, 67, 113
1, 18710, Note_on_c, 0, 70, 116
1, 18950, Note_off_c, 0, 70, 116
1, 19093, Note_on_c, 0, 72, 119
1, 19178, Note_off_c, 0, 72, 119
1, 19181, Note_on_c, 0, 70, 123
1, 19275, Note_off_c, 0, 70, 123
1, 19275, Note_on_c, 0, 67, 117
1, 19354, Note_off_c, 0, 67, 117
1, 19387, Note_on_c, 0, 62, 115
1, 19456, Note_off_c, 0, 62, 115
1, 19468, Note_on_c, 0, 60, 113
1, 19571, Note_off_c, 0, 60, 113
1, 19571, Note_on_c, 0, 62, 103
1, 20079, Note_off_c, 0, 62, 103
1, 20721, Note_on_c, 0, 62, 110
1, 20763, Note_on_c, 0, 63, 115
1, 20763, Note_off_c, 0, 62, 110
1, 20829, Note_off_c, 0, 63, 115
1, 20835, Note_on_c, 0, 62, 113
1, 21005, Note_off_c, 0, 62, 113
1, 21017, Note_on_c, 0, 63, 110
1, 21169, Note_off_c, 0, 63, 110
1, 21202, Note_on_c, 0, 65, 121
1, 21329, Note_off_c, 0, 65, 121
1, 21395, Note_on_c, 0, 65, 120
1, 21553, Note_off_c, 0, 65, 120
1, 21586, Note_on_c, 0, 67, 111
1, 21701, Note_off_c, 0, 67, 111
1, 21780, Note_on_c, 0, 67, 118
1, 21971, Note_off_c, 0, 67, 118
1, 21971, Note_on_c, 0, 69, 120
1, 22065, Note_off_c, 0, 69, 120
1, 22147, Note_on_c, 0, 69, 120
1, 22314, Note_off_c, 0, 69, 120
1, 22329, Note_on_c, 0, 72, 108
1, 22453, Note_off_c, 0, 72, 108
1, 22538, Note_on_c, 0, 72, 114
1, 22717, Note_off_c, 0, 72, 114
1, 22717, Note_on_c, 0, 74, 112
1, 22841, Note_off_c, 0, 74, 112
1, 22892, Note_on_c, 0, 74, 109
1, 23132, Note_off_c, 0, 74, 109
1, 23293, Note_on_c, 0, 67, 118
1, 23429, Note_off_c, 0, 67, 118
1, 23465, Note_on_c, 0, 68, 114
1, 23568, Note_off_c, 0, 68, 114
1, 23653, Note_on_c, 0, 66, 110
1, 23738, Note_off_c, 0, 66, 110
1, 23777, Note_on_c, 0, 67, 115
1, 24047, Note_off_c, 0, 67, 115
1, 24080, Note_on_c, 0, 70, 100
1, 24469, Note_off_c, 0, 70, 100
1, 24493, Note_on_c, 0, 63, 103
1, 24581, Note_off_c, 0, 63, 103
1, 24681, Note_on_c, 0, 60, 103
1, 24763, Note_off_c, 0, 60, 103
1, 24857, Note_on_c, 0, 69, 116
1, 25176, Note_off_c, 0, 69, 116
1, 25258, Note_on_c, 0, 65, 116
1, 25370, Note_off_c, 0, 65, 116
1, 25388, Note_on_c, 0, 62, 101
1, 25470, Note_off_c, 0, 62, 101
1, 25524, Note_on_c, 0, 58, 90
1, 25928, Note_off_c, 0, 58, 90
1, 26758, Note_on_c, 0, 69, 121
1, 26855, Note_off_c, 0, 69, 121
1, 26879, Note_on_c, 0, 69, 118
1, 26964, Note_off_c, 0, 69, 118
1, 27079, Note_on_c, 0, 69, 119
1, 27161, Note_off_c, 0, 69, 119
1, 27185, Note_on_c, 0, 69, 118
1, 27267, Note_off_c, 0, 69, 118
1, 27346, Note_on_c, 0, 69, 117
1, 27419, Note_off_c, 0, 69, 117
1, 27455, Note_on_c, 0, 69, 107
1, 27552, Note_off_c, 0, 69, 107
1, 27634, Note_on_c, 0, 69, 119
1, 27691, Note_off_c, 0, 69, 119
1, 27724, Note_on_c, 0, 69, 112
1, 27839, Note_off_c, 0, 69, 112
1, 27899, Note_on_c, 0, 69, 111
1, 28005, Note_off_c, 0, 69, 111
1, 28099, Note_on_c, 0, 69, 120
1, 28193, Note_off_c, 0, 69, 120
1, 28284, Note_on_c, 0, 69, 119
1, 28360, Note_off_c, 0, 69, 119
1, 28405, Note_on_c, 0, 69, 108
1, 28511, Note_off_c, 0, 69, 108
1, 28593, Note_on_c, 0, 69, 119
1, 28687, Note_off_c, 0, 69, 119
1, 28781, Note_on_c, 0, 69, 119
1, 28869, Note_off_c, 0, 69, 119
1, 28881, Note_on_c, 0, 69, 111
1, 29304, Note_off_c, 0, 69, 111
1, 29465, Note_on_c, 0, 69, 109
1, 29684, Note_off_c, 0, 69, 109
1, 29732, Note_on_c, 0, 66, 115
1, 29826, Note_off_c, 0, 66, 115
1, 29838, Note_on_c, 0, 62, 97
1, 29914, Note_off_c, 0, 62, 97
1, 29953, Note_on_c, 0, 60, 106
1, 30019, Note_off_c, 0, 60, 106
1, 30031, Note_on_c, 0, 58, 113
1, 30082, Note_off_c, 0, 58, 113
1, 30124, Note_on_c, 0, 59, 118
1, 30181, Note_off_c, 0, 59, 118
1, 30208, Note_on_c, 0, 60, 108
1, 30357, Note_off_c, 0, 60, 108
1, 31154, Note_on_c, 0, 58, 98
1, 31214, Note_off_c, 0, 58, 98
1, 31250, Note_on_c, 0, 62, 95
1, 31316, Note_off_c, 0, 62, 95
1, 31328, Note_on_c, 0, 67, 124
1, 31416, Note_off_c, 0, 67, 124
1, 31431, Note_on_c, 0, 69, 121
1, 31513, Note_off_c, 0, 69, 121
1, 31519, Note_on_c, 0, 70, 126
1, 31613, Note_off_c, 0, 70, 126
1, 31622, Note_on_c, 0, 71, 121
1, 31685, Note_off_c, 0, 71, 121
1, 31700, Note_on_c, 0, 72, 119
1, 31788, Note_off_c, 0, 72, 119
1, 31797, Note_on_c, 0, 70, 118
1, 31879, Note_off_c, 0, 70, 118
1, 31879, Note_on_c, 0, 67, 119
1, 31952, Note_off_c, 0, 67, 119
1, 31973, Note_on_c, 0, 62, 112
1, 32085, Note_off_c, 0, 62, 112
1, 32085, Note_on_c, 0, 60, 111
1, 32161, Note_off_c, 0, 60, 111
1, 32197, Note_on_c, 0, 62, 102
1, 32437, Note_off_c, 0, 62, 102
1, 33258, Note_on_c, 0, 70, 114
1, 33401, Note_off_c, 0, 70, 114
1, 33446, Note_on_c, 0, 63, 110
1, 33655, Note_off_c, 0, 63, 110
1, 33773, Note_on_c, 0, 67, 114
1, 33961, Note_off_c, 0, 67, 114
1, 34012, Note_on_c, 0, 75, 100
1, 34167, Note_off_c, 0, 75, 100
1, 34352, Note_on_c, 0, 69, 109
1, 34534, Note_off_c, 0, 69, 109
1, 34616, Note_on_c, 0, 72, 105
1, 34780, Note_off_c, 0, 72, 105
1, 34941, Note_on_c, 0, 62, 115
1, 35120, Note_off_c, 0, 62, 115
1, 35186, Note_on_c, 0, 65, 106
1, 35472, Note_off_c, 0, 65, 106
1, 35478, Note_on_c, 0, 69, 114
1, 35633, Note_off_c, 0, 69, 114
1, 35745, Note_on_c, 0, 72, 112
1, 35894, Note_off_c, 0, 72, 112
1, 36052, Note_on_c, 0, 70, 120
1, 36319, Note_off_c, 0, 70, 120
1, 36337, Note_on_c, 0, 71, 97
1, 36589, Note_off_c, 0, 71, 97
1, 36634, Note_on_c, 0, 67, 117
1, 36758, Note_off_c, 0, 67, 117
1, 36837, Note_on_c, 0, 64, 106
1, 37086, Note_off_c, 0, 64, 106
1, 37143, Note_on_c, 0, 61, 113
1, 37273, Note_off_c, 0, 61, 113
1, 37291, Note_on_c, 0, 62, 112
1, 37379, Note_off_c, 0, 62, 112
1, 37485, Note_on_c, 0, 61, 110
1, 37631, Note_off_c, 0, 61, 110
1, 37649, Note_on_c, 0, 64, 103
1, 37728, Note_off_c, 0, 64, 103
1, 37861, Note_on_c, 0, 69, 99
1, 38253, Note_off_c, 0, 69, 99
1, 39391, Note_on_c, 0, 72, 115
1, 39509, Note_off_c, 0, 72, 115
1, 39539, Note_on_c, 0, 74, 113
1, 39672, Note_off_c, 0, 74, 113
1, 39760, Note_on_c, 0, 74, 116
1, 39863, Note_off_c, 0, 74, 116
1, 39981, Note_on_c, 0, 74, 98
1, 40093, Note_off_c, 0, 74, 98
1, 40181, Note_on_c, 0, 74, 114
1, 40293, Note_off_c, 0, 74, 114
1, 40311, Note_on_c, 0, 74, 114
1, 40399, Note_off_c, 0, 74, 114
1, 40468, Note_on_c, 0, 74, 106
1, 40568, Note_off_c, 0, 74, 106
1, 40613, Note_on_c, 0, 72, 113
1, 40698, Note_off_c, 0, 72, 113
1, 40698, Note_on_c, 0, 70, 109
1, 40844, Note_off_c, 0, 70, 109
1, 40889, Note_on_c, 0, 62, 100
1, 41025, Note_off_c, 0, 62, 100
1, 41055, Note_on_c, 0, 62, 117
1, 41240, Note_off_c, 0, 62, 117
1, 41297, Note_on_c, 0, 62, 108
1, 41643, Note_off_c, 0, 62, 108
1, 41673, Note_on_c, 0, 62, 107
1, 41828, Note_off_c, 0, 62, 107
1, 41934, Note_on_c, 0, 62, 116
1, 42098, Note_off_c, 0, 62, 116
1, 42174, Note_on_c, 0, 61, 116
1, 42231, Note_off_c, 0, 61, 116
1, 42264, Note_on_c, 0, 62, 115
1, 42388, Note_off_c, 0, 62, 115
1, 42388, Note_on_c, 0, 70, 121
1, 42683, Note_off_c, 0, 70, 121
1, 42719, Note_on_c, 0, 72, 116
1, 42871, Note_off_c, 0, 72, 116
1, 42928, Note_on_c, 0, 72, 110
1, 43122, Note_off_c, 0, 72, 110
1, 43204, Note_on_c, 0, 72, 113
1, 43389, Note_off_c, 0, 72, 113
1, 43519, Note_on_c, 0, 70, 112
1, 43616, Note_off_c, 0, 70, 112
1, 43755, Note_on_c, 0, 69, 110
1, 43791, Note_off_c, 0, 69, 110
1, 43791, Note_on_c, 0, 70, 113
1, 43903, Note_off_c, 0, 70, 113
1, 44039, Note_on_c, 0, 60, 89
1, 44516, Note_off_c, 0, 60, 89
1, 45246, Note_on_c, 0, 63, 98
1, 45285, Note_off_c, 0, 63, 98
1, 45300, Note_on_c, 0, 67, 118
1, 45430, Note_off_c, 0, 67, 118
1, 45499, Note_on_c, 0, 70, 116
1, 45766, Note_off_c, 0, 70, 116
1, 45829, Note_on_c, 0, 58, 106
1, 45889, Note_off_c, 0, 58, 106
1, 45916, Note_on_c, 0, 59, 116
1, 45949, Note_off_c, 0, 59, 116
1, 45979, Note_on_c, 0, 60, 103
1, 46045, Note_off_c, 0, 60, 103
1, 46051, Note_on_c, 0, 63, 98
1, 46151, Note_off_c, 0, 63, 98
1, 46169, Note_on_c, 0, 67, 102
1, 46238, Note_off_c, 0, 67, 102
1, 46265, Note_on_c, 0, 70, 127
1, 46411, Note_off_c, 0, 70, 127
1, 46438, Note_on_c, 0, 72, 79
1, 46511, Note_off_c, 0, 72, 79
1, 46568, Note_on_c, 0, 69, 110
1, 46701, Note_off_c, 0, 69, 110
1, 46743, Note_on_c, 0, 67, 119
1, 46995, Note_off_c, 0, 67, 119
1, 47016, Note_on_c, 0, 65, 111
1, 47375, Note_off_c, 0, 65, 111
1, 47417, Note_on_c, 0, 67, 119
1, 47563, Note_off_c, 0, 67, 119
1, 47584, Note_on_c, 0, 68, 100
1, 47696, Note_off_c, 0, 68, 100
1, 47708, Note_on_c, 0, 67, 104
1, 48398, Note_off_c, 0, 67, 104
1, 48897, Note_on_c, 0, 62, 79
1, 48951, Note_off_c, 0, 62, 79
1, 48975, Note_on_c, 0, 65, 124
1, 49066, Note_off_c, 0, 65, 124
1, 49108, Note_on_c, 0, 66, 123
1, 49235, Note_off_c, 0, 66, 123
1, 49268, Note_on_c, 0, 65, 108
1, 49584, Note_off_c, 0, 65, 108
1, 49584, Note_on_c, 0, 63, 91
1, 49684, Note_off_c, 0, 63, 91
1, 49718, Note_on_c, 0, 60, 76
1, 49836, Note_off_c, 0, 60, 76
1, 49905, Note_on_c, 0, 65, 119
1, 50060, Note_off_c, 0, 65, 119
1, 50120, Note_on_c, 0, 70, 92
1, 51057, Note_off_c, 0, 70, 92
1, 51114, Note_on_c, 0, 67, 114
1, 51217, Note_off_c, 0, 67, 114
1, 51360, Note_on_c, 0, 61, 118
1, 51426, Note_off_c, 0, 61, 118
1, 51453, Note_on_c, 0, 62, 104
1, 51586, Note_off_c, 0, 62, 104
1, 51622, Note_on_c, 0, 58, 78
1, 52300, Note_off_c, 0, 58, 78
1, 52300, End_track
0, 0, End_of_file
