0, 0, Header, 1, 1, 192
1, 0, Start_track
1, 0, Title_t, "Melody"
1, 0, Tempo, 397350
1, 0, Key_signature, -4, "major"
1, 0, Time_signature, 4, 2, 24, 8
1, 1438, Note_on_c, 0, 67, 120
1, 1523, Note_off_c, 0, 67, 120
1, 1532, Note_on_c, 0, 68, 118
1, 1621, Note_off_c, 0, 68, 118
1, 1630, Note_on_c, 0, 65, 120
1, 1709, Note_off_c, 0, 65, 120
1, 1713, Note_on_c, 0, 67, 119
1, 1801, Note_off_c, 0, 67, 119
1, 1822, Note_on_c, 0, 68, 118
1, 1904, Note_off_c, 0, 68, 118
1, 1912, Note_on_c, 0, 70, 111
1, 1993, Note_off_c, 0, 70, 111
1, 2016, Note_on_c, 0, 68, 117
1, 2088, Note_off_c, 0, 68, 117
1, 2105, Note_on_c, 0, 67, 98
1, 2752, Note_off_c, 0, 67, 98
1, 3207, Note_on_c, 0, 72, 113
1, 3289, Note_off_c, 0, 72, 113
1, 3353, Note_on_c, 0, 67, 117
1, 3428, Note_off_c, 0, 67, 117
1, 3442, Note_on_c, 0, 69, 117
1, 3479, Note_off_c, 0, 69, 117
1, 3485, Note_on_c, 0, 70, 113
1, 3960, Note_off_c, 0, 70, 113
1, 3965, Note_on_c, 0, 68, 110
1, 3992, Note_off_c, 0, 68, 110
1, 4004, Note_on_c, 0, 67, 120
1, 4045, Note_off_c, 0, 67, 120
1, 4053, Note_on_c, 0, 65, 117
1, 4141, Note_off_c, 0, 65, 117
1, 4143, Note_on_c, 0, 67, 97
1, 4435, Note_off_c, 0, 67, 97
1, 4808, Note_on_c, 0, 65, 126
1, 4893, Note_off_c, 0, 65, 126
1, 4903, Note_on_c, 0, 67, 121
1, 4991, Note_off_c, 0, 67, 121
1, 4998, Note_on_c, 0, 68, 112
1, 5474, Note_off_c, 0, 68, 112
1, 5497, Note_on_c, 0, 77, 123
1, 5586, Note_off_c, 0, 77, 123
1, 5646, Note_on_c, 0, 65, 121
1, 5724, Note_off_c, 0, 65, 121
1, 5745, Note_on_c, 0, 68, 118
1, 5904, Note_off_c, 0, 68, 118
1, 5917, Note_on_c, 0, 70, 110
1, 6036, Note_off_c, 0, 70, 110
1, 6051, Note_on_c, 0, 67, 113
1, 6307, Note_off_c, 0, 67, 113
1, 6330, Note_on_c, 0, 77, 119
1, 6507, Note_off_c, 0, 77, 119
1, 6516, Note_on_c, 0, 75, 100
1, 6746, Note_off_c, 0, 75, 100
1, 7690, Note_on_c, 0, 79, 116
1, 7771, Note_off_c, 0, 79, 116
1, 7786, Note_on_c, 0, 77, 123
1, 7865, Note_off_c, 0, 77, 123
1, 7883, Note_on_c, 0, 75, 119
1, 7966, Note_off_c, 0, 75, 119
1, 7980, Note_on_c, 0, 72, 114
1, 8050, Note_off_c, 0, 72, 114
1, 8066, Note_on_c, 0, 73, 116
1, 8162, Note_off_c, 0, 73, 116
1, 8174, Note_on_c, 0, 75, 121
1, 8245, Note_off_c, 0, 75, 121
1, 8260, Note_on_c, 0, 72, 112
1, 8353, Note_off_c, 0, 72, 112
1, 8363, Note_on_c, 0, 70, 102
1, 8426, Note_off_c, 0, 70, 102
1, 8444, Note_on_c, 0, 73, 114
1, 8609, Note_off_c, 0, 73, 114
1, 8625, Note_on_c, 0, 72, 112
1, 8731, Note_off_c, 0, 72, 112
1, 8752, Note_on_c, 0, 70, 105
1, 8993, Note_off_c, 0, 70, 105
1, 9009, Note_on_c, 0, 66, 115
1, 9091, Note_off_c, 0, 66, 115
1, 9114, Note_on_c, 0, 67, 119
1, 9196, Note_off_c, 0, 67, 119
1, 9208, Note_on_c, 0, 68, 119
1, 9280, Note_off_c, 0, 68, 119
1, 9298, Note_on_c, 0, 70, 113
1, 9364, Note_off_c, 0, 70, 113
1, 9381, Note_on_c, 0, 67, 117
1, 9488, Note_off_c, 0, 67, 117
1, 9502, Note_on_c, 0, 65, 107
1, 9574, Note_off_c, 0, 65, 107
1, 9580, Note_on_c, 0, 68, 112
1, 9772, Note_off_c, 0, 68, 112
1, 9791, Note_on_c, 0, 67, 116
1, 9868, Note_off_c, 0, 67, 116
1, 9897, Note_on_c, 0, 65, 103
1, 10149, Note_off_c, 0, 65, 103
1, 10651, Note_on_c, 0, 67, 120
1, 10740, Note_off_c, 0, 67, 120
1, 10748, Note_on_c, 0, 68, 121
1, 10829, Note_off_c, 0, 68, 121
1, 10836, Note_on_c, 0, 65, 123
1, 10911, Note_off_c, 0, 65, 123
1, 10933, Note_on_c, 0, 67, 118
1, 11021, Note_off_c, 0, 67, 118
1, 11027, Note_on_c, 0, 68, 120
1, 11110, Note_off_c, 0, 68, 120
1, 11124, Note_on_c, 0, 70, 116
1, 11208, Note_off_c, 0, 70, 116
1, 11219, Note_on_c, 0, 72, 115
1, 11294, Note_off_c, 0, 72, 115
1, 11299, Note_on_c, 0, 68, 119
1, 11387, Note_off_c, 0, 68, 119
1, 11401, Note_on_c, 0, 67, 119
1, 11488, Note_off_c, 0, 67, 119
1, 11498, Note_on_c, 0, 68, 117
1, 11585, Note_off_c, 0, 68, 117
1, 11600, Note_on_c, 0, 70, 113
1, 11677, Note_off_c, 0, 70, 113
1, 11686, Note_on_c, 0, 67, 119
1, 11774, Note_off_c, 0, 67, 119
1, 11787, Note_on_c, 0, 65, 121
1, 11869, Note_off_c, 0, 65, 121
1, 11879, Note_on_c, 0, 67, 115
1, 12154, Note_off_c, 0, 67, 115
1, 12168, Note_on_c, 0, 65, 119
1, 12256, Note_off_c, 0, 65, 119
1, 12266, Note_on_c, 0, 67, 115
1, 12309, Note_off_c, 0, 67, 115
1, 12317, Note_on_c, 0, 68, 116
1, 12433, Note_off_c, 0, 68, 116
1, 12447, Note_on_c, 0, 67, 119
1, 12489, Note_off_c, 0, 67, 119
1, 12491, Note_on_c, 0, 68, 113
1, 12625, Note_off_c, 0, 68, 113
1, 12640, Note_on_c, 0, 67, 116
1, 12675, Note_off_c, 0, 67, 116
1, 12677, Note_on_c, 0, 68, 119
1, 12830, Note_off_c, 0, 68, 119
1, 12838, Note_on_c, 0, 67, 115
1, 12958, Note_off_c, 0, 67, 115
1, 12972, Note_on_c, 0, 67, 109
1, 13479, Note_off_c, 0, 67, 109
1, 14210, Note_on_c, 0, 75, 122
1, 14308, Note_off_c, 0, 75, 122
1, 14382, Note_on_c, 0, 72, 113
1, 14481, Note_off_c, 0, 72, 113
1, 14534, Note_on_c, 0, 64, 104
1, 14836, Note_off_c, 0, 64, 104
1, 15106, Note_on_c, 0, 67, 110
1, 15166, Note_off_c, 0, 67, 110
1, 15177, Note_on_c, 0, 70, 121
1, 15259, Note_off_c, 0, 70, 121
1, 15274, Note_on_c, 0, 67, 119
1, 15358, Note_off_c, 0, 67, 119
1, 15372, Note_on_c, 0, 68, 118
1, 15450, Note_off_c, 0, 68, 118
1, 15461, Note_on_c, 0, 69, 126
1, 15543, Note_off_c, 0, 69, 126
1, 15550, Note_on_c, 0, 70, 117
1, 15639, Note_off_c, 0, 70, 117
1, 15656, Note_on_c, 0, 71, 116
1, 15730, Note_off_c, 0, 71, 116
1, 15737, Note_on_c, 0, 72, 111
1, 15822, Note_off_c, 0, 72, 111
1, 15860, Note_on_c, 0, 68, 109
1, 15904, Note_off_c, 0, 68, 109
1, 15932, Note_on_c, 0, 70, 119
1, 16098, Note_off_c, 0, 70, 119
1, 16124, Note_on_c, 0, 67, 117
1, 16271, Note_off_c, 0, 67, 117
1, 16324, Note_on_c, 0, 62, 104
1, 16636, Note_off_c, 0, 62, 104
1, 16986, Note_on_c, 0, 65, 123
1, 17075, Note_off_c, 0, 65, 123
1, 17084, Note_on_c, 0, 67, 115
1, 17164, Note_off_c, 0, 67, 115
1, 17171, Note_on_c, 0, 68, 117
1, 17265, Note_off_c, 0, 68, 117
1, 17280, Note_on_c, 0, 68, 119
1, 17370, Note_off_c, 0, 68, 119
1, 17392, Note_on_c, 0, 73, 118
1, 17451, Note_off_c, 0, 73, 118
1, 17479, Note_on_c, 0, 68, 115
1, 17561, Note_off_c, 0, 68, 115
1, 17584, Note_on_c, 0, 65, 105
1, 17650, Note_off_c, 0, 65, 105
1, 17669, Note_on_c, 0, 68, 116
1, 17758, Note_off_c, 0, 68, 116
1, 17769, Note_on_c, 0, 73, 121
1, 17842, Note_off_c, 0, 73, 121
1, 17863, Note_on_c, 0, 68, 116
1, 17945, Note_off_c, 0, 68, 116
1, 17955, Note_on_c, 0, 65, 115
1, 18030, Note_off_c, 0, 65, 115
1, 18040, Note_on_c, 0, 68, 117
1, 18131, Note_off_c, 0, 68, 117
1, 18154, Note_on_c, 0, 73, 115
1, 18224, Note_off_c, 0, 73, 115
1, 18248, Note_on_c, 0, 68, 118
1, 18330, Note_off_c, 0, 68, 118
1, 18339, Note_on_c, 0, 65, 115
1, 18402, Note_off_c, 0, 65, 115
1, 18421, Note_on_c, 0, 67, 113
1, 18454, Note_off_c, 0, 67, 113
1, 18463, Note_on_c, 0, 68, 118
1, 18509, Note_off_c, 0, 68, 118
1, 18516, Note_on_c, 0, 67, 117
1, 18546, Note_off_c, 0, 67, 117
1, 18560, Note_on_c, 0, 65, 116
1, 18599, Note_off_c, 0, 65, 116
1, 18617, Note_on_c, 0, 63, 114
1, 18712, Note_off_c, 0, 63, 114
1, 18725, Note_on_c, 0, 61, 100
1, 18790, Note_off_c, 0, 61, 100
1, 18804, Note_on_c, 0, 63, 108
1, 19196, Note_off_c, 0, 63, 108
1, 19472, Note_on_c, 0, 74, 119
1, 19556, Note_off_c, 0, 74, 119
1, 19582, Note_on_c, 0, 77, 122
1, 19669, Note_off_c, 0, 77, 122
1, 19676, Note_on_c, 0, 76, 120
1, 19758, Note_off_c, 0, 76, 120
1, 19763, Note_on_c, 0, 75, 118
1, 19848, Note_off_c, 0, 75, 118
1, 19866, Note_on_c, 0, 74, 116
1, 19931, Note_off_c, 0, 74, 116
1, 19956, Note_on_c, 0, 69, 126
1, 20037, Note_off_c, 0, 69, 126
1, 20047, Note_on_c, 0, 66, 115
1, 20120, Note_off_c, 0, 66, 115
1, 20137, Note_on_c, 0, 65, 119
1, 20206, Note_off_c, 0, 65, 119
1, 20227, Note_on_c, 0, 63, 112
1, 20301, Note_off_c, 0, 63, 112
1, 20303, Note_on_c, 0, 61, 110
1, 20391, Note_off_c, 0, 61, 110
1, 20415, Note_on_c, 0, 65, 117
1, 20489, Note_off_c, 0, 65, 117
1, 20500, Note_on_c, 0, 68, 118
1, 20590, Note_off_c, 0, 68, 118
1, 20601, Note_on_c, 0, 72, 115
1, 20677, Note_off_c, 0, 72, 115
1, 20685, Note_on_c, 0, 75, 118
1, 20802, Note_off_c, 0, 75, 118
1, 20830, Note_on_c, 0, 73, 111
1, 21078, Note_off_c, 0, 73, 111
1, 21084, Note_on_c, 0, 72, 110
1, 21258, Note_off_c, 0, 72, 110
1, 21274, Note_on_c, 0, 70, 119
1, 21440, Note_off_c, 0, 70, 119
1, 21447, Note_on_c, 0, 66, 112
1, 21570, Note_off_c, 0, 66, 112
1, 21581, Note_on_c, 0, 67, 112
1, 21704, Note_off_c, 0, 67, 112
1, 21981, Note_on_c, 0, 68, 120
1, 22017, Note_off_c, 0, 68, 120
1, 22019, Note_on_c, 0, 70, 118
1, 22205, Note_off_c, 0, 70, 118
1, 22212, Note_on_c, 0, 68, 113
1, 22578, Note_off_c, 0, 68, 113
1, 22604, Note_on_c, 0, 68, 111
1, 22942, Note_off_c, 0, 68, 111
1, 22974, Note_on_c, 0, 67, 115
1, 23059, Note_off_c, 0, 67, 115
1, 23065, Note_on_c, 0, 68, 115
1, 23346, Note_off_c, 0, 68, 115
1, 23358, Note_on_c, 0, 67, 115
1, 23454, Note_off_c, 0, 67, 115
1, 23501, Note_on_c, 0, 60, 107
1, 23858, Note_off_c, 0, 60, 107
1, 24436, Note_on_c, 0, 67, 115
1, 24496, Note_off_c, 0, 67, 115
1, 24518, Note_on_c, 0, 70, 118
1, 24601, Note_off_c, 0, 70, 118
1, 24620, Note_on_c, 0, 72, 115
1, 24693, Note_off_c, 0, 72, 115
1, 24710, Note_on_c, 0, 68, 116
1, 24787, Note_off_c, 0, 68, 116
1, 24797, Note_on_c, 0, 67, 116
1, 24879, Note_off_c, 0, 67, 116
1, 24885, Note_on_c, 0, 65, 118
1, 25068, Note_off_c, 0, 65, 118
1, 25075, Note_on_c, 0, 67, 112
1, 25249, Note_off_c, 0, 67, 112
1, 25263, Note_on_c, 0, 68, 106
1, 25457, Note_off_c, 0, 68, 106
1, 25472, Note_on_c, 0, 72, 110
1, 25545, Note_off_c, 0, 72, 110
1, 26211, Note_on_c, 0, 79, 122
1, 26302, Note_off_c, 0, 79, 122
1, 26314, Note_on_c, 0, 77, 122
1, 26410, Note_off_c, 0, 77, 122
1, 26411, Note_on_c, 0, 75, 120
1, 26501, Note_off_c, 0, 75, 120
1, 26512, Note_on_c, 0, 75, 122
1, 26592, Note_off_c, 0, 75, 122
1, 26604, Note_on_c, 0, 75, 122
1, 26689, Note_off_c, 0, 75, 122
1, 26701, Note_on_c, 0, 75, 122
1, 26785, Note_off_c, 0, 75, 122
1, 26792, Note_on_c, 0, 75, 123
1, 26899, Note_off_c, 0, 75, 123
1, 26922, Note_on_c, 0, 75, 121
1, 27026, Note_off_c, 0, 75, 121
1, 27084, Note_on_c, 0, 75, 118
1, 27206, Note_off_c, 0, 75, 118
1, 27251, Note_on_c, 0, 64, 106
1, 27607, Note_off_c, 0, 64, 106
1, 27942, Note_on_c, 0, 72, 116
1, 28047, Note_off_c, 0, 72, 116
1, 28118, Note_on_c, 0, 67, 114
1, 28228, Note_off_c, 0, 67, 114
1, 28263, Note_on_c, 0, 70, 113
1, 28363, Note_off_c, 0, 70, 113
1, 28415, Note_on_c, 0, 65, 111
1, 28503, Note_off_c, 0, 65, 111
1, 28521, Note_on_c, 0, 68, 102
1, 28850, Note_off_c, 0, 68, 102
1, 29143, Note_on_c, 0, 65, 95
1, 29190, Note_off_c, 0, 65, 95
1, 29191, Note_on_c, 0, 67, 116
1, 29266, Note_off_c, 0, 67, 116
1, 29273, Note_on_c, 0, 68, 120
1, 29368, Note_off_c, 0, 68, 120
1, 29380, Note_on_c, 0, 70, 117
1, 29460, Note_off_c, 0, 70, 117
1, 29475, Note_on_c, 0, 72, 110
1, 29563, Note_off_c, 0, 72, 110
1, 29584, Note_on_c, 0, 72, 111
1, 29663, Note_off_c, 0, 72, 111
1, 29682, Note_on_c, 0, 72, 111
1, 29759, Note_off_c, 0, 72, 111
1, 29773, Note_on_c, 0, 72, 108
1, 29844, Note_off_c, 0, 72, 108
1, 29887, Note_on_c, 0, 72, 105
1, 29970, Note_off_c, 0, 72, 105
1, 30021, Note_on_c, 0, 72, 107
1, 30127, Note_off_c, 0, 72, 107
1, 30175, Note_on_c, 0, 72, 101
1, 30269, Note_off_c, 0, 72, 101
1, 30320, Note_on_c, 0, 61, 107
1, 30811, Note_off_c, 0, 61, 107
1, 30968, Note_on_c, 0, 70, 116
1, 31110, Note_off_c, 0, 70, 116
1, 31170, Note_on_c, 0, 60, 107
1, 31260, Note_off_c, 0, 60, 107
1, 31307, Note_on_c, 0, 67, 114
1, 31400, Note_off_c, 0, 67, 114
1, 31490, Note_on_c, 0, 60, 107
1, 31521, Note_off_c, 0, 60, 107
1, 31545, Note_on_c, 0, 70, 100
1, 31923, Note_off_c, 0, 70, 100
1, 32231, Note_on_c, 0, 68, 122
1, 32300, Note_off_c, 0, 68, 122
1, 32315, Note_on_c, 0, 70, 118
1, 32412, Note_off_c, 0, 70, 118
1, 32423, Note_on_c, 0, 72, 118
1, 32503, Note_off_c, 0, 72, 118
1, 32524, Note_on_c, 0, 73, 114
1, 32603, Note_off_c, 0, 73, 114
1, 32646, Note_on_c, 0, 65, 118
1, 32721, Note_off_c, 0, 65, 118
1, 32807, Note_on_c, 0, 67, 111
1, 33055, Note_off_c, 0, 67, 111
1, 33409, Note_on_c, 0, 68, 105
1, 33440, Note_off_c, 0, 68, 105
1, 33445, Note_on_c, 0, 70, 121
1, 33551, Note_off_c, 0, 70, 121
1, 33561, Note_on_c, 0, 72, 118
1, 33629, Note_off_c, 0, 72, 118
1, 33650, Note_on_c, 0, 73, 114
1, 33735, Note_off_c, 0, 73, 114
1, 33751, Note_on_c, 0, 69, 121
1, 33833, Note_off_c, 0, 69, 121
1, 33841, Note_on_c, 0, 70, 117
1, 33929, Note_off_c, 0, 70, 117
1, 33937, Note_on_c, 0, 71, 114
1, 34028, Note_off_c, 0, 71, 114
1, 34038, Note_on_c, 0, 72, 115
1, 34127, Note_off_c, 0, 72, 115
1, 34162, Note_on_c, 0, 77, 123
1, 34265, Note_off_c, 0, 77, 123
1, 34895, Note_on_c, 0, 70, 119
1, 34969, Note_off_c, 0, 70, 119
1, 34980, Note_on_c, 0, 72, 118
1, 35061, Note_off_c, 0, 72, 118
1, 35075, Note_on_c, 0, 68, 118
1, 35152, Note_off_c, 0, 68, 118
1, 35161, Note_on_c, 0, 70, 118
1, 35245, Note_off_c, 0, 70, 118
1, 35259, Note_on_c, 0, 67, 115
1, 35339, Note_off_c, 0, 67, 115
1, 35351, Note_on_c, 0, 68, 115
1, 35436, Note_off_c, 0, 68, 115
1, 35447, Note_on_c, 0, 65, 116
1, 35522, Note_off_c, 0, 65, 116
1, 35532, Note_on_c, 0, 67, 115
1, 36193, Note_off_c, 0, 67, 115
1, 36206, Note_on_c, 0, 65, 121
1, 36295, Note_off_c, 0, 65, 121
1, 36315, Note_on_c, 0, 62, 122
1, 36393, Note_off_c, 0, 62, 122
1, 36419, Note_on_c, 0, 57, 111
1, 36475, Note_off_c, 0, 57, 111
1, 36488, Note_on_c, 0, 60, 122
1, 36573, Note_off_c, 0, 60, 122
1, 36589, Note_on_c, 0, 58, 117
1, 36672, Note_off_c, 0, 58, 117
1, 36687, Note_on_c, 0, 59, 119
1, 36754, Note_off_c, 0, 59, 119
1, 36777, Note_on_c, 0, 62, 118
1, 36842, Note_off_c, 0, 62, 118
1, 36848, Note_on_c, 0, 65, 120
1, 36944, Note_off_c, 0, 65, 120
1, 36959, Note_on_c, 0, 68, 117
1, 37036, Note_off_c, 0, 68, 117
1, 37041, Note_on_c, 0, 67, 115
1, 37139, Note_off_c, 0, 67, 115
1, 37150, Note_on_c, 0, 68, 111
1, 37225, Note_off_c, 0, 68, 111
1, 37235, Note_on_c, 0, 70, 115
1, 37332, Note_off_c, 0, 70, 115
1, 37348, Note_on_c, 0, 72, 116
1, 37421, Note_off_c, 0, 72, 116
1, 37434, Note_on_c, 0, 73, 115
1, 37519, Note_off_c, 0, 73, 115
1, 37542, Note_on_c, 0, 65, 121
1, 37626, Note_off_c, 0, 65, 121
1, 37630, Note_on_c, 0, 66, 117
1, 37709, Note_off_c, 0, 66, 117
1, 37727, Note_on_c, 0, 70, 115
1, 37799, Note_off_c, 0, 70, 115
1, 37803, Note_on_c, 0, 73, 116
1, 37885, Note_off_c, 0, 73, 116
1, 37920, Note_on_c, 0, 78, 125
1, 37993, Note_off_c, 0, 78, 125
1, 38002, Note_on_c, 0, 77, 124
1, 38112, Note_off_c, 0, 77, 124
1, 38125, Note_on_c, 0, 76, 118
1, 38202, Note_off_c, 0, 76, 118
1, 38213, Note_on_c, 0, 72, 109
1, 38287, Note_off_c, 0, 72, 109
1, 38307, Note_on_c, 0, 67, 116
1, 38382, Note_off_c, 0, 67, 116
1, 38393, Note_on_c, 0, 68, 116
1, 38476, Note_off_c, 0, 68, 116
1, 38487, Note_on_c, 0, 70, 115
1, 38567, Note_off_c, 0, 70, 115
1, 38594, Note_on_c, 0, 72, 106
1, 38750, Note_off_c, 0, 72, 106
1, 38768, Note_on_c, 0, 72, 82
1, 39229, Note_off_c, 0, 72, 82
1, 39711, Note_on_c, 0, 70, 117
1, 39806, Note_off_c, 0, 70, 117
1, 39820, Note_on_c, 0, 70, 117
1, 39886, Note_off_c, 0, 70, 117
1, 39897, Note_on_c, 0, 70, 119
1, 39978, Note_off_c, 0, 70, 119
1, 39990, Note_on_c, 0, 70, 112
1, 40063, Note_off_c, 0, 70, 112
1, 40089, Note_on_c, 0, 68, 113
1, 40150, Note_off_c, 0, 68, 113
1, 40159, Note_on_c, 0, 70, 110
1, 40261, Note_off_c, 0, 70, 110
1, 40273, Note_on_c, 0, 70, 117
1, 40338, Note_off_c, 0, 70, 117
1, 40361, Note_on_c, 0, 70, 114
1, 40431, Note_off_c, 0, 70, 114
1, 40486, Note_on_c, 0, 68, 120
1, 40551, Note_off_c, 0, 68, 120
1, 40559, Note_on_c, 0, 70, 109
1, 40644, Note_off_c, 0, 70, 109
1, 40654, Note_on_c, 0, 70, 116
1, 40736, Note_off_c, 0, 70, 116
1, 40753, Note_on_c, 0, 70, 115
1, 40833, Note_off_c, 0, 70, 115
1, 40849, Note_on_c, 0, 68, 110
1, 40906, Note_off_c, 0, 68, 110
1, 40913, Note_on_c, 0, 70, 111
1, 41207, Note_off_c, 0, 70, 111
1, 41223, Note_on_c, 0, 68, 111
1, 41503, Note_off_c, 0, 68, 111
1, 41513, Note_on_c, 0, 67, 114
1, 41565, Note_off_c, 0, 67, 114
1, 41570, Note_on_c, 0, 65, 119
1, 41608, Note_off_c, 0, 65, 119
1, 41608, Note_on_c, 0, 68, 117
1, 41708, Note_off_c, 0, 68, 117
1, 41777, Note_on_c, 0, 58, 115
1, 41891, Note_off_c, 0, 58, 115
1, 41921, Note_on_c, 0, 61, 104
1, 42168, Note_off_c, 0, 61, 104
1, 42671, Note_on_c, 0, 65, 122
1, 42751, Note_off_c, 0, 65, 122
1, 42762, Note_on_c, 0, 67, 117
1, 42842, Note_off_c, 0, 67, 117
1, 42859, Note_on_c, 0, 68, 118
1, 42933, Note_off_c, 0, 68, 118
1, 42939, Note_on_c, 0, 70, 115
1, 43103, Note_off_c, 0, 70, 115
1, 43123, Note_on_c, 0, 73, 119
1, 43194, Note_off_c, 0, 73, 119
1, 43198, Note_on_c, 0, 74, 120
1, 43316, Note_off_c, 0, 74, 120
1, 43321, Note_on_c, 0, 77, 127
1, 43502, Note_off_c, 0, 77, 127
1, 43510, Note_on_c, 0, 75, 115
1, 43643, Note_off_c, 0, 75, 115
1, 43696, Note_on_c, 0, 63, 113
1, 43819, Note_off_c, 0, 63, 113
1, 43843, Note_on_c, 0, 71, 83
1, 44255, Note_off_c, 0, 71, 83
1, 44674, Note_on_c, 0, 72, 116
1, 44766, Note_off_c, 0, 72, 116
1, 44784, Note_on_c, 0, 68, 112
1, 44976, Note_off_c, 0, 68, 112
1, 45047, Note_on_c, 0, 61, 111
1, 45126, Note_off_c, 0, 61, 111
1, 45150, Note_on_c, 0, 65, 122
1, 45221, Note_off_c, 0, 65, 122
1, 45234, Note_on_c, 0, 68, 120
1, 45325, Note_off_c, 0, 68, 120
1, 45337, Note_on_c, 0, 72, 113
1, 45415, Note_off_c, 0, 72, 113
1, 45434, Note_on_c, 0, 75, 119
1, 45520, Note_off_c, 0, 75, 119
1, 45541, Note_on_c, 0, 72, 106
1, 45779, Note_off_c, 0, 72, 106
1, 45848, Note_on_c, 0, 64, 114
1, 45920, Note_off_c, 0, 64, 114
1, 45924, Note_on_c, 0, 67, 116
1, 45980, Note_off_c, 0, 67, 116
1, 46006, Note_on_c, 0, 72, 112
1, 46085, Note_off_c, 0, 72, 112
1, 46105, Note_on_c, 0, 75, 119
1, 46193, Note_off_c, 0, 75, 119
1, 46199, Note_on_c, 0, 79, 120
1, 46305, Note_off_c, 0, 79, 120
1, 46310, Note_on_c, 0, 77, 121
1, 46556, Note_off_c, 0, 77, 121
1, 46569, Note_on_c, 0, 75, 116
1, 46656, Note_off_c, 0, 75, 116
1, 46679, Note_on_c, 0, 72, 105
1, 46749, Note_off_c, 0, 72, 105
1, 46754, Note_on_c, 0, 71, 106
1, 46793, Note_off_c, 0, 71, 106
1, 46802, Note_on_c, 0, 70, 104
1, 46852, Note_off_c, 0, 70, 104
1, 46863, Note_on_c, 0, 69, 119
1, 46915, Note_off_c, 0, 69, 119
1, 46933, Note_on_c, 0, 68, 106
1, 47311, Note_off_c, 0, 68, 106
1, 47332, Note_on_c, 0, 68, 108
1, 47422, Note_off_c, 0, 68, 108
1, 47496, Note_on_c, 0, 68, 110
1, 47687, Note_off_c, 0, 68, 110
1, 47696, Note_on_c, 0, 67, 106
1, 47980, Note_off_c, 0, 67, 106
1, 48791, Note_on_c, 0, 67, 107
1, 48819, Note_off_c, 0, 67, 107
1, 48846, Note_on_c, 0, 68, 123
1, 48877, Note_off_c, 0, 68, 123
1, 48884, Note_on_c, 0, 70, 115
1, 49000, Note_off_c, 0, 70, 115
1, 49028, Note_on_c, 0, 68, 121
1, 49076, Note_off_c, 0, 68, 121
1, 49085, Note_on_c, 0, 70, 115
1, 49195, Note_off_c, 0, 70, 115
1, 49217, Note_on_c, 0, 68, 118
1, 49270, Note_off_c, 0, 68, 118
1, 49275, Note_on_c, 0, 70, 115
1, 49904, Note_off_c, 0, 70, 115
1, 49927, Note_on_c, 0, 67, 117
1, 50003, Note_off_c, 0, 67, 117
1, 50010, Note_on_c, 0, 68, 117
1, 50106, Note_off_c, 0, 68, 117
1, 50112, Note_on_c, 0, 70, 116
1, 50183, Note_off_c, 0, 70, 116
1, 50188, Note_on_c, 0, 67, 116
1, 50275, Note_off_c, 0, 67, 116
1, 50282, Note_on_c, 0, 65, 119
1, 50353, Note_off_c, 0, 65, 119
1, 50372, Note_on_c, 0, 67, 112
1, 50490, Note_off_c, 0, 67, 112
1, 50539, Note_on_c, 0, 65, 107
1, 50715, Note_off_c, 0, 65, 107
1, 50770, Note_on_c, 0, 60, 99
1, 51093, Note_off_c, 0, 60, 99
1, 51093, End_track
0, 0, End_of_file
