0, 0, Header, 1, 1, 192
1, 0, Start_track
1, 0, Title_t, "Melody"
1, 0, Tempo, 312500
1, 0, Key_signature, -4, "major"
1, 0, Time_signature, 4, 2, 24, 8
1, 1482, Note_on_c, 0, 72, 108
1, 1612, Note_off_c, 0, 72, 108
1, 1672, Note_on_c, 0, 68, 113
1, 1800, Note_off_c, 0, 68, 113
1, 1869, Note_on_c, 0, 63, 104
1, 2289, Note_off_c, 0, 63, 104
1, 2980, Note_on_c, 0, 65, 114
1, 3054, Note_off_c, 0, 65, 114
1, 3078, Note_on_c, 0, 67, 121
1, 3160, Note_off_c, 0, 67, 121
1, 3184, Note_on_c, 0, 68, 117
1, 3230, Note_off_c, 0, 68, 117
1, 3262, Note_on_c, 0, 70, 114
1, 3336, Note_off_c, 0, 70, 114
1, 3360, Note_on_c, 0, 73, 117
1, 3442, Note_off_c, 0, 73, 117
1, 3459, Note_on_c, 0, 72, 110
1, 3537, Note_off_c, 0, 72, 110
1, 3594, Note_on_c, 0, 68, 116
1, 3633, Note_off_c, 0, 68, 116
1, 3736, Note_on_c, 0, 63, 106
1, 3892, Note_off_c, 0, 63, 106
1, 4594, Note_on_c, 0, 77, 124
1, 4708, Note_off_c, 0, 77, 124
1, 4708, Note_on_c, 0, 75, 117
1, 4775, Note_off_c, 0, 75, 117
1, 4799, Note_on_c, 0, 72, 110
1, 4881, Note_off_c, 0, 72, 110
1, 4895, Note_on_c, 0, 70, 113
1, 4977, Note_off_c, 0, 70, 113
1, 4987, Note_on_c, 0, 68, 111
1, 5079, Note_off_c, 0, 68, 111
1, 5125, Note_on_c, 0, 63, 106
1, 5224, Note_off_c, 0, 63, 106
1, 5273, Note_on_c, 0, 63, 98
1, 5668, Note_off_c, 0, 63, 98
1, 5871, Note_on_c, 0, 65, 115
1, 5942, Note_off_c, 0, 65, 115
1, 5956, Note_on_c, 0, 67, 116
1, 6045, Note_off_c, 0, 67, 116
1, 6062, Note_on_c, 0, 68, 117
1, 6158, Note_off_c, 0, 68, 117
1, 6168, Note_on_c, 0, 70, 114
1, 6242, Note_off_c, 0, 70, 114
1, 6252, Note_on_c, 0, 67, 118
1, 6309, Note_off_c, 0, 67, 118
1, 6344, Note_on_c, 0, 63, 114
1, 6411, Note_off_c, 0, 63, 114
1, 6439, Note_on_c, 0, 61, 112
1, 6513, Note_off_c, 0, 61, 112
1, 6530, Note_on_c, 0, 60, 110
1, 6622, Note_off_c, 0, 60, 110
1, 6650, Note_on_c, 0, 63, 100
1, 6981, Note_off_c, 0, 63, 100
1, 7412, Note_on_c, 0, 60, 106
1, 7486, Note_off_c, 0, 60, 106
1, 7518, Note_on_c, 0, 63, 100
1, 7592, Note_off_c, 0, 63, 100
1, 7599, Note_on_c, 0, 65, 119
1, 7681, Note_off_c, 0, 65, 119
1, 7691, Note_on_c, 0, 66, 118
1, 7769, Note_off_c, 0, 66, 118
1, 7793, Note_on_c, 0, 65, 107
1, 7860, Note_off_c, 0, 65, 107
1, 7888, Note_on_c, 0, 63, 111
1, 7970, Note_on_c, 0, 60, 102
1, 7970, Note_off_c, 0, 63, 111
1, 8066, Note_off_c, 0, 60, 102
1, 8073, Note_on_c, 0, 61, 99
1, 8279, Note_off_c, 0, 61, 99
1, 8385, Note_on_c, 0, 72, 106
1, 8520, Note_off_c, 0, 72, 106
1, 8691, Note_on_c, 0, 70, 106
1, 8965, Note_off_c, 0, 70, 106
1, 9075, Note_on_c, 0, 67, 118
1, 9171, Note_off_c, 0, 67, 118
1, 9171, Note_on_c, 0, 68, 107
1, 9231, Note_off_c, 0, 68, 107
1, 9252, Note_on_c, 0, 70, 113
1, 9341, Note_off_c, 0, 70, 113
1, 9365, Note_on_c, 0, 67, 119
1, 9443, Note_off_c, 0, 67, 119
1, 9443, Note_on_c, 0, 63, 112
1, 9539, Note_off_c, 0, 63, 112
1, 9560, Note_on_c, 0, 61, 112
1, 9620, Note_off_c, 0, 61, 112
1, 9634, Note_on_c, 0, 60, 107
1, 9872, Note_off_c, 0, 60, 107
1, 9982, Note_on_c, 0, 70, 114
1, 10110, Note_off_c, 0, 70, 114
1, 10206, Note_on_c, 0, 68, 111
1, 10430, Note_off_c, 0, 68, 111
1, 10594, Note_on_c, 0, 65, 110
1, 10672, Note_off_c, 0, 65, 110
1, 10689, Note_on_c, 0, 67, 116
1, 10774, Note_off_c, 0, 67, 116
1, 10774, Note_on_c, 0, 68, 116
1, 10848, Note_off_c, 0, 68, 116
1, 10894, Note_on_c, 0, 67, 120
1, 10958, Note_off_c, 0, 67, 120
1, 10972, Note_on_c, 0, 65, 113
1, 11046, Note_off_c, 0, 65, 113
1, 11085, Note_on_c, 0, 61, 103
1, 11156, Note_off_c, 0, 61, 103
1, 11177, Note_on_c, 0, 60, 105
1, 11344, Note_off_c, 0, 60, 105
1, 12075, Note_on_c, 0, 62, 112
1, 12146, Note_off_c, 0, 62, 112
1, 12146, Note_on_c, 0, 65, 113
1, 12238, Note_off_c, 0, 65, 113
1, 12248, Note_on_c, 0, 69, 121
1, 12340, Note_off_c, 0, 69, 121
1, 12357, Note_on_c, 0, 71, 117
1, 12414, Note_off_c, 0, 71, 117
1, 12442, Note_on_c, 0, 72, 114
1, 12524, Note_off_c, 0, 72, 114
1, 12534, Note_on_c, 0, 73, 104
1, 12587, Note_off_c, 0, 73, 104
1, 12626, Note_on_c, 0, 74, 120
1, 12715, Note_off_c, 0, 74, 120
1, 12729, Note_on_c, 0, 71, 109
1, 12800, Note_off_c, 0, 71, 109
1, 12842, Note_on_c, 0, 67, 118
1, 12927, Note_off_c, 0, 67, 118
1, 13030, Note_on_c, 0, 67, 112
1, 13301, Note_off_c, 0, 67, 112
1, 13397, Note_on_c, 0, 69, 117
1, 13479, Note_off_c, 0, 69, 117
1, 13525, Note_on_c, 0, 71, 112
1, 13589, Note_off_c, 0, 71, 112
1, 13621, Note_on_c, 0, 67, 113
1, 13710, Note_off_c, 0, 67, 113
1, 13795, Note_on_c, 0, 67, 110
1, 14055, Note_off_c, 0, 67, 110
1, 14079, Note_on_c, 0, 69, 116
1, 14150, Note_off_c, 0, 69, 116
1, 14182, Note_on_c, 0, 71, 111
1, 14274, Note_off_c, 0, 71, 111
1, 14298, Note_on_c, 0, 72, 110
1, 14362, Note_off_c, 0, 72, 110
1, 14397, Note_on_c, 0, 69, 103
1, 14486, Note_off_c, 0, 69, 103
1, 14575, Note_on_c, 0, 69, 115
1, 14767, Note_off_c, 0, 69, 115
1, 14806, Note_on_c, 0, 71, 112
1, 14902, Note_off_c, 0, 71, 112
1, 14916, Note_on_c, 0, 72, 107
1, 15008, Note_off_c, 0, 72, 107
1, 15029, Note_on_c, 0, 73, 113
1, 15118, Note_off_c, 0, 73, 113
1, 15171, Note_on_c, 0, 74, 116
1, 15256, Note_off_c, 0, 74, 116
1, 15341, Note_on_c, 0, 72, 106
1, 15405, Note_off_c, 0, 72, 106
1, 15522, Note_on_c, 0, 71, 104
1, 15661, Note_off_c, 0, 71, 104
1, 15685, Note_on_c, 0, 69, 117
1, 15795, Note_off_c, 0, 69, 117
1, 15798, Note_on_c, 0, 71, 105
1, 15922, Note_off_c, 0, 71, 105
1, 15954, Note_on_c, 0, 67, 113
1, 16028, Note_off_c, 0, 67, 113
1, 16102, Note_on_c, 0, 67, 109
1, 16365, Note_off_c, 0, 67, 109
1, 16867, Note_on_c, 0, 69, 123
1, 16945, Note_off_c, 0, 69, 123
1, 16948, Note_on_c, 0, 71, 112
1, 17058, Note_off_c, 0, 71, 112
1, 17058, Note_on_c, 0, 72, 111
1, 17132, Note_off_c, 0, 72, 111
1, 17149, Note_on_c, 0, 71, 110
1, 17234, Note_off_c, 0, 71, 110
1, 17255, Note_on_c, 0, 69, 119
1, 17333, Note_off_c, 0, 69, 119
1, 17350, Note_on_c, 0, 71, 110
1, 17442, Note_off_c, 0, 71, 110
1, 17474, Note_on_c, 0, 67, 112
1, 17595, Note_off_c, 0, 67, 112
1, 17612, Note_on_c, 0, 67, 114
1, 17868, Note_off_c, 0, 67, 114
1, 17914, Note_on_c, 0, 64, 112
1, 18006, Note_off_c, 0, 64, 112
1, 18023, Note_on_c, 0, 62, 110
1, 18080, Note_off_c, 0, 62, 110
1, 18104, Note_on_c, 0, 64, 103
1, 18214, Note_off_c, 0, 64, 103
1, 18256, Note_on_c, 0, 67, 120
1, 18355, Note_off_c, 0, 67, 120
1, 18433, Note_on_c, 0, 67, 116
1, 18554, Note_off_c, 0, 67, 116
1, 18671, Note_on_c, 0, 64, 106
1, 18849, Note_off_c, 0, 64, 106
1, 18895, Note_on_c, 0, 60, 100
1, 19212, Note_off_c, 0, 60, 100
1, 20406, Note_on_c, 0, 65, 114
1, 20502, Note_off_c, 0, 65, 114
1, 20605, Note_on_c, 0, 72, 106
1, 20719, Note_off_c, 0, 72, 106
1, 20793, Note_on_c, 0, 69, 119
1, 20896, Note_off_c, 0, 69, 119
1, 20945, Note_on_c, 0, 70, 114
1, 20987, Note_off_c, 0, 70, 114
1, 21111, Note_on_c, 0, 72, 106
1, 21228, Note_off_c, 0, 72, 106
1, 21317, Note_on_c, 0, 70, 104
1, 21534, Note_off_c, 0, 70, 104
1, 21573, Note_on_c, 0, 66, 117
1, 21662, Note_off_c, 0, 66, 117
1, 21676, Note_on_c, 0, 67, 118
1, 21754, Note_off_c, 0, 67, 118
1, 21775, Note_on_c, 0, 70, 115
1, 21849, Note_off_c, 0, 70, 115
1, 21870, Note_on_c, 0, 69, 118
1, 21941, Note_off_c, 0, 69, 118
1, 21962, Note_on_c, 0, 68, 115
1, 22051, Note_off_c, 0, 68, 115
1, 22058, Note_on_c, 0, 67, 113
1, 22143, Note_off_c, 0, 67, 113
1, 22164, Note_on_c, 0, 63, 109
1, 22249, Note_off_c, 0, 63, 109
1, 22256, Note_on_c, 0, 60, 101
1, 22366, Note_off_c, 0, 60, 101
1, 22366, Note_on_c, 0, 63, 114
1, 22444, Note_off_c, 0, 63, 114
1, 22483, Note_on_c, 0, 65, 113
1, 22600, Note_off_c, 0, 65, 113
1, 22642, Note_on_c, 0, 63, 103
1, 22745, Note_off_c, 0, 63, 103
1, 22841, Note_on_c, 0, 65, 108
1, 23058, Note_off_c, 0, 65, 108
1, 23132, Note_on_c, 0, 63, 92
1, 23235, Note_off_c, 0, 63, 92
1, 23270, Note_on_c, 0, 65, 110
1, 23483, Note_off_c, 0, 65, 110
1, 23490, Note_on_c, 0, 63, 101
1, 23846, Note_off_c, 0, 63, 101
1, 24402, Note_on_c, 0, 70, 114
1, 24594, Note_off_c, 0, 70, 114
1, 24636, Note_on_c, 0, 72, 114
1, 24728, Note_off_c, 0, 72, 114
1, 24738, Note_on_c, 0, 75, 114
1, 24827, Note_off_c, 0, 75, 114
1, 24827, Note_on_c, 0, 72, 109
1, 24933, Note_off_c, 0, 72, 109
1, 24940, Note_on_c, 0, 70, 111
1, 25025, Note_off_c, 0, 70, 111
1, 25032, Note_on_c, 0, 67, 120
1, 25131, Note_off_c, 0, 67, 120
1, 25138, Note_on_c, 0, 68, 110
1, 25216, Note_off_c, 0, 68, 110
1, 25237, Note_on_c, 0, 65, 110
1, 25311, Note_off_c, 0, 65, 110
1, 25321, Note_on_c, 0, 67, 115
1, 25388, Note_off_c, 0, 67, 115
1, 25441, Note_on_c, 0, 63, 112
1, 25505, Note_off_c, 0, 63, 112
1, 25533, Note_on_c, 0, 63, 103
1, 25697, Note_off_c, 0, 63, 103
1, 26538, Note_on_c, 0, 77, 120
1, 26648, Note_off_c, 0, 77, 120
1, 26744, Note_on_c, 0, 65, 112
1, 26815, Note_off_c, 0, 65, 112
1, 26868, Note_on_c, 0, 67, 119
1, 26974, Note_off_c, 0, 67, 119
1, 27056, Note_on_c, 0, 68, 111
1, 27148, Note_off_c, 0, 68, 111
1, 27226, Note_on_c, 0, 69, 118
1, 27322, Note_off_c, 0, 69, 118
1, 27421, Note_on_c, 0, 70, 113
1, 27574, Note_off_c, 0, 70, 113
1, 27713, Note_on_c, 0, 72, 109
1, 27830, Note_off_c, 0, 72, 109
1, 27830, Note_on_c, 0, 73, 111
1, 27983, Note_off_c, 0, 73, 111
1, 27997, Note_on_c, 0, 74, 115
1, 28139, Note_off_c, 0, 74, 115
1, 28185, Note_on_c, 0, 77, 117
1, 28438, Note_off_c, 0, 77, 117
1, 28466, Note_on_c, 0, 75, 109
1, 28597, Note_off_c, 0, 75, 109
1, 28650, Note_on_c, 0, 63, 116
1, 28746, Note_off_c, 0, 63, 116
1, 28803, Note_on_c, 0, 71, 106
1, 28902, Note_off_c, 0, 71, 106
1, 28955, Note_on_c, 0, 72, 108
1, 29144, Note_off_c, 0, 72, 108
1, 29261, Note_on_c, 0, 75, 115
1, 29364, Note_off_c, 0, 75, 115
1, 29442, Note_on_c, 0, 72, 107
1, 29531, Note_off_c, 0, 72, 107
1, 29563, Note_on_c, 0, 70, 110
1, 29630, Note_off_c, 0, 70, 110
1, 29633, Note_on_c, 0, 68, 109
1, 29718, Note_off_c, 0, 68, 109
1, 29750, Note_on_c, 0, 65, 108
1, 29799, Note_off_c, 0, 65, 108
1, 29831, Note_on_c, 0, 61, 106
1, 29888, Note_off_c, 0, 61, 106
1, 29930, Note_on_c, 0, 58, 92
1, 30004, Note_off_c, 0, 58, 92
1, 30007, Note_on_c, 0, 63, 108
1, 30110, Note_off_c, 0, 63, 108
1, 30149, Note_on_c, 0, 63, 105
1, 30473, Note_off_c, 0, 63, 105
1, 30933, Note_on_c, 0, 60, 95
1, 30990, Note_off_c, 0, 60, 95
1, 30990, Note_on_c, 0, 63, 114
1, 31057, Note_off_c, 0, 63, 114
1, 31074, Note_on_c, 0, 65, 114
1, 31134, Note_off_c, 0, 65, 114
1, 31169, Note_on_c, 0, 67, 123
1, 31233, Note_off_c, 0, 67, 123
1, 31265, Note_on_c, 0, 67, 120
1, 31354, Note_off_c, 0, 67, 120
1, 31361, Note_on_c, 0, 65, 109
1, 31425, Note_off_c, 0, 65, 109
1, 31446, Note_on_c, 0, 65, 111
1, 31513, Note_off_c, 0, 65, 111
1, 31530, Note_on_c, 0, 67, 121
1, 31601, Note_off_c, 0, 67, 121
1, 31625, Note_on_c, 0, 67, 120
1, 31696, Note_off_c, 0, 67, 120
1, 31735, Note_on_c, 0, 65, 109
1, 31792, Note_off_c, 0, 65, 109
1, 31827, Note_on_c, 0, 65, 105
1, 31901, Note_off_c, 0, 65, 105
1, 31922, Note_on_c, 0, 67, 112
1, 32171, Note_off_c, 0, 67, 112
1, 32199, Note_on_c, 0, 65, 112
1, 32266, Note_off_c, 0, 65, 112
1, 32319, Note_on_c, 0, 67, 121
1, 32372, Note_off_c, 0, 67, 121
1, 32407, Note_on_c, 0, 67, 122
1, 32471, Note_off_c, 0, 67, 122
1, 32495, Note_on_c, 0, 65, 108
1, 32548, Note_off_c, 0, 65, 108
1, 32569, Note_on_c, 0, 65, 106
1, 32633, Note_off_c, 0, 65, 106
1, 32661, Note_on_c, 0, 63, 109
1, 32732, Note_off_c, 0, 63, 109
1, 32749, Note_on_c, 0, 63, 104
1, 33155, Note_off_c, 0, 63, 104
1, 33714, Note_on_c, 0, 61, 111
1, 33781, Note_off_c, 0, 61, 111
1, 33830, Note_on_c, 0, 63, 121
1, 33879, Note_off_c, 0, 63, 121
1, 33914, Note_on_c, 0, 63, 114
1, 33978, Note_off_c, 0, 63, 114
1, 33999, Note_on_c, 0, 61, 112
1, 34056, Note_off_c, 0, 61, 112
1, 34088, Note_on_c, 0, 61, 113
1, 34137, Note_off_c, 0, 61, 113
1, 34166, Note_on_c, 0, 60, 115
1, 34248, Note_off_c, 0, 60, 115
1, 34278, Note_on_c, 0, 60, 109
1, 34449, Note_off_c, 0, 60, 109
1, 35212, Note_on_c, 0, 60, 112
1, 35304, Note_off_c, 0, 60, 112
1, 35339, Note_on_c, 0, 66, 123
1, 35417, Note_off_c, 0, 66, 123
1, 35427, Note_on_c, 0, 65, 113
1, 35487, Note_off_c, 0, 65, 113
1, 35511, Note_on_c, 0, 63, 112
1, 35578, Note_off_c, 0, 63, 112
1, 35613, Note_on_c, 0, 60, 108
1, 35691, Note_off_c, 0, 60, 108
1, 35719, Note_on_c, 0, 61, 107
1, 35776, Note_off_c, 0, 61, 107
1, 35800, Note_on_c, 0, 63, 115
1, 35896, Note_off_c, 0, 63, 115
1, 35985, Note_on_c, 0, 61, 116
1, 36045, Note_off_c, 0, 61, 116
1, 36069, Note_on_c, 0, 58, 103
1, 36154, Note_off_c, 0, 58, 103
1, 36196, Note_on_c, 0, 60, 113
1, 36270, Note_off_c, 0, 60, 113
1, 36270, Note_on_c, 0, 61, 108
1, 36337, Note_off_c, 0, 61, 108
1, 36376, Note_on_c, 0, 63, 122
1, 36418, Note_off_c, 0, 63, 122
1, 36442, Note_on_c, 0, 64, 118
1, 36531, Note_off_c, 0, 64, 118
1, 36570, Note_on_c, 0, 61, 97
1, 36716, Note_off_c, 0, 61, 97
1, 36969, Note_on_c, 0, 64, 9
1, 37075, Note_off_c, 0, 64, 9
1, 37092, Note_on_c, 0, 62, 105
1, 37231, Note_off_c, 0, 62, 105
1, 37648, Note_on_c, 0, 60, 98
1, 37726, Note_off_c, 0, 60, 98
1, 37761, Note_on_c, 0, 64, 111
1, 37835, Note_off_c, 0, 64, 111
1, 37852, Note_on_c, 0, 67, 127
1, 37926, Note_off_c, 0, 67, 127
1, 37943, Note_on_c, 0, 71, 116
1, 38010, Note_off_c, 0, 71, 116
1, 38027, Note_on_c, 0, 71, 111
1, 38084, Note_off_c, 0, 71, 111
1, 38126, Note_on_c, 0, 67, 123
1, 38186, Note_off_c, 0, 67, 123
1, 38210, Note_on_c, 0, 67, 125
1, 38288, Note_off_c, 0, 67, 125
1, 38305, Note_on_c, 0, 64, 118
1, 38365, Note_off_c, 0, 64, 118
1, 38386, Note_on_c, 0, 64, 117
1, 38482, Note_off_c, 0, 64, 117
1, 38517, Note_on_c, 0, 60, 114
1, 38581, Note_off_c, 0, 60, 114
1, 38609, Note_on_c, 0, 60, 110
1, 38676, Note_off_c, 0, 60, 110
1, 38679, Note_on_c, 0, 57, 101
1, 39149, Note_off_c, 0, 57, 101
1, 39548, Note_on_c, 0, 69, 115
1, 39744, Note_off_c, 0, 69, 115
1, 39797, Note_on_c, 0, 65, 115
1, 39882, Note_off_c, 0, 65, 115
1, 39935, Note_on_c, 0, 62, 116
1, 40002, Note_off_c, 0, 62, 116
1, 40030, Note_on_c, 0, 59, 110
1, 40097, Note_off_c, 0, 59, 110
1, 40114, Note_on_c, 0, 55, 105
1, 40741, Note_off_c, 0, 55, 105
1, 41069, Note_on_c, 0, 64, 126
1, 41101, Note_off_c, 0, 64, 126
1, 41101, Note_on_c, 0, 66, 120
1, 41136, Note_off_c, 0, 66, 120
1, 41136, Note_on_c, 0, 67, 123
1, 41314, Note_off_c, 0, 67, 123
1, 41335, Note_on_c, 0, 64, 121
1, 41434, Note_off_c, 0, 64, 121
1, 41448, Note_on_c, 0, 60, 103
1, 41544, Note_off_c, 0, 60, 103
1, 41590, Note_on_c, 0, 57, 114
1, 41675, Note_off_c, 0, 57, 114
1, 41689, Note_on_c, 0, 64, 115
1, 41945, Note_off_c, 0, 64, 115
1, 41994, Note_on_c, 0, 60, 110
1, 42100, Note_off_c, 0, 60, 110
1, 42149, Note_on_c, 0, 57, 117
1, 42259, Note_off_c, 0, 57, 117
1, 42259, Note_on_c, 0, 64, 115
1, 42455, Note_off_c, 0, 64, 115
1, 42569, Note_on_c, 0, 62, 114
1, 42665, Note_off_c, 0, 62, 114
1, 42736, Note_on_c, 0, 60, 114
1, 42803, Note_off_c, 0, 60, 114
1, 42817, Note_on_c, 0, 59, 110
1, 42877, Note_off_c, 0, 59, 110
1, 42894, Note_on_c, 0, 60, 102
1, 42968, Note_off_c, 0, 60, 102
1, 42996, Note_on_c, 0, 62, 119
1, 43070, Note_off_c, 0, 62, 119
1, 43087, Note_on_c, 0, 59, 113
1, 43169, Note_off_c, 0, 59, 113
1, 43197, Note_on_c, 0, 60, 104
1, 43717, Note_off_c, 0, 60, 104
1, 44230, Note_on_c, 0, 65, 116
1, 44361, Note_off_c, 0, 65, 116
1, 44410, Note_on_c, 0, 65, 111
1, 44566, Note_off_c, 0, 65, 111
1, 44669, Note_on_c, 0, 65, 105
1, 45011, Note_off_c, 0, 65, 105
1, 45553, Note_on_c, 0, 70, 112
1, 45674, Note_off_c, 0, 70, 112
1, 45838, Note_on_c, 0, 70, 108
1, 45937, Note_off_c, 0, 70, 108
1, 46022, Note_on_c, 0, 70, 114
1, 46157, Note_off_c, 0, 70, 114
1, 46210, Note_on_c, 0, 70, 108
1, 46338, Note_off_c, 0, 70, 108
1, 46402, Note_on_c, 0, 63, 108
1, 46476, Note_off_c, 0, 63, 108
1, 46511, Note_on_c, 0, 63, 110
1, 46767, Note_off_c, 0, 63, 110
1, 47091, Note_on_c, 0, 68, 109
1, 47205, Note_off_c, 0, 68, 109
1, 47319, Note_on_c, 0, 68, 115
1, 47422, Note_off_c, 0, 68, 115
1, 47525, Note_on_c, 0, 68, 115
1, 47624, Note_off_c, 0, 68, 115
1, 47706, Note_on_c, 0, 68, 114
1, 47788, Note_off_c, 0, 68, 114
1, 47891, Note_on_c, 0, 61, 109
1, 47980, Note_off_c, 0, 61, 109
1, 48033, Note_on_c, 0, 61, 106
1, 48129, Note_off_c, 0, 61, 106
1, 48232, Note_on_c, 0, 63, 107
1, 48306, Note_off_c, 0, 63, 107
1, 48380, Note_on_c, 0, 65, 112
1, 48472, Note_off_c, 0, 65, 112
1, 48557, Note_on_c, 0, 68, 112
1, 48688, Note_off_c, 0, 68, 112
1, 48834, Note_on_c, 0, 67, 117
1, 48933, Note_off_c, 0, 67, 117
1, 48940, Note_on_c, 0, 70, 111
1, 49014, Note_off_c, 0, 70, 111
1, 49014, Note_on_c, 0, 67, 118
1, 49103, Note_off_c, 0, 67, 118
1, 49110, Note_on_c, 0, 65, 107
1, 49192, Note_off_c, 0, 65, 107
1, 49234, Note_on_c, 0, 63, 116
1, 49319, Note_off_c, 0, 63, 116
1, 49361, Note_on_c, 0, 60, 104
1, 49467, Note_off_c, 0, 60, 104
1, 49527, Note_on_c, 0, 60, 95
1, 50497, Note_off_c, 0, 60, 95
1, 50497, End_track
0, 0, End_of_file
