0, 0, Header, 1, 1, 192
1, 0, Start_track
1, 0, Title_t, "Melody"
1, 0, Tempo, 512820
1, 0, Key_signature, -1, "major"
1, 0, Time_signature, 4, 2, 24, 8
1, 1055, Note_on_c, 0, 65, 94
1, 1104, Note_off_c, 0, 65, 94
1, 1119, Note_on_c, 0, 72, 115
1, 1193, Note_off_c, 0, 72, 115
1, 1223, Note_on_c, 0, 71, 114
1, 1292, Note_off_c, 0, 71, 114
1, 1313, Note_on_c, 0, 70, 111
1, 1385, Note_off_c, 0, 70, 111
1, 1420, Note_on_c, 0, 65, 115
1, 1483, Note_off_c, 0, 65, 115
1, 1500, Note_on_c, 0, 68, 121
1, 1559, Note_off_c, 0, 68, 121
1, 1568, Note_on_c, 0, 70, 96
1, 1597, Note_off_c, 0, 70, 96
1, 1605, Note_on_c, 0, 71, 113
1, 1679, Note_off_c, 0, 71, 113
1, 1694, Note_on_c, 0, 70, 111
1, 1742, Note_off_c, 0, 70, 111
1, 1746, Note_on_c, 0, 71, 104
1, 1773, Note_off_c, 0, 71, 104
1, 1775, Note_on_c, 0, 70, 113
1, 1805, Note_off_c, 0, 70, 113
1, 1807, Note_on_c, 0, 68, 123
1, 1867, Note_off_c, 0, 68, 123
1, 1886, Note_on_c, 0, 65, 108
1, 1960, Note_off_c, 0, 65, 108
1, 1993, Note_on_c, 0, 65, 101
1, 2291, Note_off_c, 0, 65, 101
1, 2366, Note_on_c, 0, 55, 93
1, 2402, Note_off_c, 0, 55, 93
1, 2432, Note_on_c, 0, 63, 80
1, 2687, Note_off_c, 0, 63, 80
1, 3264, Note_on_c, 0, 60, 105
1, 3291, Note_off_c, 0, 60, 105
1, 3295, Note_on_c, 0, 62, 99
1, 3332, Note_off_c, 0, 62, 99
1, 3347, Note_on_c, 0, 67, 107
1, 3435, Note_off_c, 0, 67, 107
1, 3439, Note_on_c, 0, 70, 114
1, 3505, Note_off_c, 0, 70, 114
1, 3551, Note_on_c, 0, 71, 113
1, 3602, Note_off_c, 0, 71, 113
1, 3609, Note_on_c, 0, 72, 111
1, 3867, Note_off_c, 0, 72, 111
1, 3913, Note_on_c, 0, 70, 104
1, 3970, Note_off_c, 0, 70, 104
1, 3975, Note_on_c, 0, 72, 101
1, 3990, Note_off_c, 0, 72, 101
1, 3992, Note_on_c, 0, 70, 110
1, 4021, Note_off_c, 0, 70, 110
1, 4024, Note_on_c, 0, 68, 121
1, 4095, Note_off_c, 0, 68, 121
1, 4100, Note_on_c, 0, 65, 115
1, 4184, Note_off_c, 0, 65, 115
1, 4211, Note_on_c, 0, 65, 98
1, 4454, Note_off_c, 0, 65, 98
1, 4497, Note_on_c, 0, 62, 87
1, 4539, Note_off_c, 0, 62, 87
1, 4590, Note_on_c, 0, 65, 119
1, 4662, Note_off_c, 0, 65, 119
1, 5166, Note_on_c, 0, 57, 108
1, 5219, Note_off_c, 0, 57, 108
1, 5250, Note_on_c, 0, 62, 102
1, 5309, Note_off_c, 0, 62, 102
1, 5338, Note_on_c, 0, 67, 125
1, 5410, Note_off_c, 0, 67, 125
1, 5430, Note_on_c, 0, 72, 108
1, 5582, Note_off_c, 0, 72, 108
1, 5623, Note_on_c, 0, 77, 121
1, 5739, Note_off_c, 0, 77, 121
1, 5743, Note_on_c, 0, 72, 111
1, 5805, Note_off_c, 0, 72, 111
1, 6280, Note_on_c, 0, 74, 121
1, 6355, Note_off_c, 0, 74, 121
1, 6366, Note_on_c, 0, 69, 125
1, 6447, Note_off_c, 0, 69, 125
1, 6460, Note_on_c, 0, 72, 121
1, 6528, Note_off_c, 0, 72, 121
1, 6550, Note_on_c, 0, 70, 118
1, 6620, Note_off_c, 0, 70, 118
1, 6650, Note_on_c, 0, 77, 121
1, 6723, Note_off_c, 0, 77, 121
1, 6748, Note_on_c, 0, 69, 119
1, 6783, Note_off_c, 0, 69, 119
1, 6785, Note_on_c, 0, 70, 110
1, 6802, Note_off_c, 0, 70, 110
1, 6804, Note_on_c, 0, 69, 122
1, 6837, Note_off_c, 0, 69, 122
1, 6841, Note_on_c, 0, 65, 112
1, 6906, Note_off_c, 0, 65, 112
1, 6909, Note_on_c, 0, 67, 122
1, 7000, Note_off_c, 0, 67, 122
1, 7023, Note_on_c, 0, 72, 115
1, 7084, Note_off_c, 0, 72, 115
1, 7106, Note_on_c, 0, 69, 117
1, 7184, Note_off_c, 0, 69, 117
1, 7763, Note_on_c, 0, 60, 88
1, 7782, Note_off_c, 0, 60, 88
1, 7785, Note_on_c, 0, 62, 83
1, 7806, Note_off_c, 0, 62, 83
1, 7829, Note_on_c, 0, 65, 121
1, 7878, Note_off_c, 0, 65, 121
1, 7881, Note_on_c, 0, 67, 123
1, 7916, Note_off_c, 0, 67, 123
1, 7918, Note_on_c, 0, 70, 118
1, 7968, Note_off_c, 0, 70, 118
1, 7970, Note_on_c, 0, 69, 121
1, 8017, Note_off_c, 0, 69, 121
1, 8037, Note_on_c, 0, 65, 113
1, 8099, Note_off_c, 0, 65, 113
1, 8135, Note_on_c, 0, 60, 98
1, 8181, Note_off_c, 0, 60, 98
1, 8212, Note_on_c, 0, 62, 99
1, 8279, Note_off_c, 0, 62, 99
1, 8315, Note_on_c, 0, 63, 88
1, 8523, Note_off_c, 0, 63, 88
1, 8570, Note_on_c, 0, 66, 114
1, 8609, Note_off_c, 0, 66, 114
1, 8617, Note_on_c, 0, 69, 103
1, 8657, Note_off_c, 0, 69, 103
1, 8662, Note_on_c, 0, 72, 118
1, 8732, Note_off_c, 0, 72, 118
1, 8736, Note_on_c, 0, 70, 108
1, 8798, Note_off_c, 0, 70, 108
1, 8819, Note_on_c, 0, 74, 92
1, 8845, Note_off_c, 0, 74, 92
1, 8855, Note_on_c, 0, 77, 120
1, 8919, Note_off_c, 0, 77, 120
1, 8932, Note_on_c, 0, 69, 118
1, 8973, Note_off_c, 0, 69, 118
1, 8973, Note_on_c, 0, 70, 116
1, 8990, Note_off_c, 0, 70, 116
1, 8990, Note_on_c, 0, 69, 121
1, 9042, Note_off_c, 0, 69, 121
1, 9043, Note_on_c, 0, 67, 117
1, 9105, Note_off_c, 0, 67, 117
1, 9124, Note_on_c, 0, 69, 117
1, 9190, Note_off_c, 0, 69, 117
1, 9887, Note_on_c, 0, 79, 120
1, 9930, Note_off_c, 0, 79, 120
1, 9934, Note_on_c, 0, 80, 117
1, 9974, Note_off_c, 0, 80, 117
1, 10045, Note_on_c, 0, 79, 121
1, 10098, Note_off_c, 0, 79, 121
1, 10099, Note_on_c, 0, 80, 118
1, 10223, Note_off_c, 0, 80, 118
1, 10251, Note_on_c, 0, 77, 108
1, 10416, Note_off_c, 0, 77, 108
1, 10450, Note_on_c, 0, 75, 117
1, 10511, Note_off_c, 0, 75, 117
1, 10518, Note_on_c, 0, 75, 117
1, 10550, Note_off_c, 0, 75, 117
1, 10551, Note_on_c, 0, 72, 121
1, 10613, Note_off_c, 0, 72, 121
1, 10649, Note_on_c, 0, 70, 118
1, 10704, Note_off_c, 0, 70, 118
1, 10708, Note_on_c, 0, 72, 116
1, 10723, Note_off_c, 0, 72, 116
1, 10724, Note_on_c, 0, 70, 119
1, 10746, Note_off_c, 0, 70, 119
1, 10748, Note_on_c, 0, 69, 124
1, 10808, Note_off_c, 0, 69, 124
1, 10823, Note_on_c, 0, 65, 121
1, 10904, Note_off_c, 0, 65, 121
1, 10928, Note_on_c, 0, 65, 114
1, 11162, Note_off_c, 0, 65, 114
1, 11509, Note_on_c, 0, 60, 87
1, 11524, Note_off_c, 0, 60, 87
1, 11545, Note_on_c, 0, 66, 121
1, 11562, Note_off_c, 0, 66, 121
1, 11564, Note_on_c, 0, 67, 122
1, 11641, Note_off_c, 0, 67, 122
1, 11649, Note_on_c, 0, 69, 124
1, 11727, Note_off_c, 0, 69, 124
1, 11753, Note_on_c, 0, 70, 120
1, 11817, Note_off_c, 0, 70, 120
1, 11819, Note_on_c, 0, 72, 115
1, 11838, Note_off_c, 0, 72, 115
1, 11839, Note_on_c, 0, 70, 117
1, 11861, Note_off_c, 0, 70, 117
1, 11863, Note_on_c, 0, 69, 121
1, 11913, Note_off_c, 0, 69, 121
1, 11946, Note_on_c, 0, 72, 117
1, 12009, Note_off_c, 0, 72, 117
1, 12036, Note_on_c, 0, 71, 112
1, 12090, Note_off_c, 0, 71, 112
1, 12126, Note_on_c, 0, 70, 114
1, 12185, Note_off_c, 0, 70, 114
1, 12214, Note_on_c, 0, 69, 120
1, 12274, Note_off_c, 0, 69, 120
1, 12287, Note_on_c, 0, 67, 118
1, 12326, Note_off_c, 0, 67, 118
1, 12335, Note_on_c, 0, 68, 118
1, 12385, Note_off_c, 0, 68, 118
1, 12426, Note_on_c, 0, 62, 83
1, 12773, Note_off_c, 0, 62, 83
1, 12806, Note_on_c, 0, 56, 101
1, 12834, Note_off_c, 0, 56, 101
1, 12872, Note_on_c, 0, 62, 94
1, 13012, Note_off_c, 0, 62, 94
1, 13431, Note_on_c, 0, 56, 101
1, 13463, Note_off_c, 0, 56, 101
1, 13489, Note_on_c, 0, 62, 98
1, 13505, Note_off_c, 0, 62, 98
1, 13520, Note_on_c, 0, 68, 124
1, 13591, Note_off_c, 0, 68, 124
1, 13612, Note_on_c, 0, 74, 117
1, 13684, Note_off_c, 0, 74, 117
1, 14177, Note_on_c, 0, 55, 106
1, 14212, Note_off_c, 0, 55, 106
1, 14238, Note_on_c, 0, 62, 91
1, 14257, Note_off_c, 0, 62, 91
1, 14274, Note_on_c, 0, 67, 123
1, 14340, Note_off_c, 0, 67, 123
1, 14364, Note_on_c, 0, 74, 114
1, 14436, Note_off_c, 0, 74, 114
1, 14657, Note_on_c, 0, 56, 108
1, 14704, Note_off_c, 0, 56, 108
1, 14738, Note_on_c, 0, 55, 107
1, 14816, Note_off_c, 0, 55, 107
1, 14826, Note_on_c, 0, 62, 95
1, 14875, Note_off_c, 0, 62, 95
1, 14899, Note_on_c, 0, 67, 126
1, 14956, Note_off_c, 0, 67, 126
1, 14961, Note_on_c, 0, 74, 102
1, 14981, Note_off_c, 0, 74, 102
1, 15011, Note_on_c, 0, 66, 114
1, 15068, Note_off_c, 0, 66, 114
1, 15088, Note_on_c, 0, 74, 113
1, 15148, Note_off_c, 0, 74, 113
1, 15235, Note_on_c, 0, 54, 101
1, 15256, Note_off_c, 0, 54, 101
1, 15296, Note_on_c, 0, 62, 99
1, 15350, Note_off_c, 0, 62, 99
1, 15388, Note_on_c, 0, 66, 118
1, 15454, Note_off_c, 0, 66, 118
1, 15469, Note_on_c, 0, 74, 108
1, 15627, Note_off_c, 0, 74, 108
1, 15674, Note_on_c, 0, 65, 108
1, 15732, Note_off_c, 0, 65, 108
1, 16853, Note_on_c, 0, 65, 120
1, 16908, Note_off_c, 0, 65, 120
1, 16910, Note_on_c, 0, 67, 125
1, 16953, Note_off_c, 0, 67, 125
1, 16957, Note_on_c, 0, 68, 123
1, 16994, Note_off_c, 0, 68, 123
1, 16998, Note_on_c, 0, 69, 120
1, 17048, Note_off_c, 0, 69, 120
1, 17050, Note_on_c, 0, 70, 119
1, 17088, Note_off_c, 0, 70, 119
1, 17090, Note_on_c, 0, 71, 116
1, 17128, Note_off_c, 0, 71, 116
1, 17129, Note_on_c, 0, 72, 118
1, 17192, Note_off_c, 0, 72, 118
1, 17203, Note_on_c, 0, 77, 121
1, 17267, Note_off_c, 0, 77, 121
1, 17292, Note_on_c, 0, 75, 117
1, 17352, Note_off_c, 0, 75, 117
1, 17394, Note_on_c, 0, 72, 117
1, 17483, Note_off_c, 0, 72, 117
1, 17501, Note_on_c, 0, 72, 106
1, 17511, Note_off_c, 0, 72, 106
1, 17533, Note_on_c, 0, 70, 107
1, 17572, Note_off_c, 0, 70, 107
1, 17961, Note_on_c, 0, 62, 94
1, 17971, Note_off_c, 0, 62, 94
1, 17984, Note_on_c, 0, 65, 121
1, 18027, Note_off_c, 0, 65, 121
1, 18033, Note_on_c, 0, 65, 119
1, 18062, Note_off_c, 0, 65, 119
1, 18065, Note_on_c, 0, 69, 121
1, 18112, Note_off_c, 0, 69, 121
1, 18123, Note_on_c, 0, 69, 122
1, 18147, Note_off_c, 0, 69, 122
1, 18152, Note_on_c, 0, 72, 119
1, 18203, Note_off_c, 0, 72, 119
1, 18214, Note_on_c, 0, 72, 119
1, 18241, Note_off_c, 0, 72, 119
1, 18244, Note_on_c, 0, 70, 115
1, 18286, Note_off_c, 0, 70, 115
1, 18288, Note_on_c, 0, 72, 104
1, 18302, Note_off_c, 0, 72, 104
1, 18309, Note_on_c, 0, 70, 114
1, 18337, Note_off_c, 0, 70, 114
1, 18341, Note_on_c, 0, 69, 122
1, 18389, Note_off_c, 0, 69, 122
1, 18430, Note_on_c, 0, 65, 102
1, 18685, Note_off_c, 0, 65, 102
1, 19031, Note_on_c, 0, 65, 115
1, 19084, Note_off_c, 0, 65, 115
1, 19093, Note_on_c, 0, 67, 123
1, 19116, Note_off_c, 0, 67, 123
1, 19124, Note_on_c, 0, 68, 121
1, 19181, Note_off_c, 0, 68, 121
1, 19223, Note_on_c, 0, 65, 95
1, 19997, Note_off_c, 0, 65, 95
1, 20034, Note_on_c, 0, 67, 121
1, 20069, Note_off_c, 0, 67, 121
1, 20073, Note_on_c, 0, 68, 119
1, 20130, Note_off_c, 0, 68, 119
1, 20207, Note_on_c, 0, 67, 122
1, 20237, Note_off_c, 0, 67, 122
1, 20241, Note_on_c, 0, 68, 120
1, 20310, Note_off_c, 0, 68, 120
1, 20315, Note_on_c, 0, 67, 112
1, 20538, Note_off_c, 0, 67, 112
1, 20918, Note_on_c, 0, 65, 112
1, 20972, Note_off_c, 0, 65, 112
1, 20981, Note_on_c, 0, 67, 119
1, 21013, Note_off_c, 0, 67, 119
1, 21016, Note_on_c, 0, 68, 124
1, 21064, Note_off_c, 0, 68, 124
1, 21067, Note_on_c, 0, 70, 115
1, 21113, Note_off_c, 0, 70, 115
1, 21130, Note_on_c, 0, 71, 111
1, 21170, Note_off_c, 0, 71, 111
1, 21189, Note_on_c, 0, 72, 109
1, 21247, Note_off_c, 0, 72, 109
1, 21278, Note_on_c, 0, 71, 119
1, 21327, Note_off_c, 0, 71, 119
1, 21336, Note_on_c, 0, 72, 119
1, 21476, Note_off_c, 0, 72, 119
1, 21489, Note_on_c, 0, 72, 114
1, 21517, Note_off_c, 0, 72, 114
1, 21519, Note_on_c, 0, 71, 108
1, 21539, Note_off_c, 0, 71, 108
1, 21542, Note_on_c, 0, 68, 124
1, 21582, Note_off_c, 0, 68, 124
1, 21584, Note_on_c, 0, 65, 106
1, 21653, Note_off_c, 0, 65, 106
1, 21670, Note_on_c, 0, 65, 115
1, 21859, Note_off_c, 0, 65, 115
1, 21878, Note_on_c, 0, 62, 85
1, 22026, Note_off_c, 0, 62, 85
1, 22065, Note_on_c, 0, 55, 105
1, 22097, Note_off_c, 0, 55, 105
1, 22437, Note_on_c, 0, 55, 108
1, 22467, Note_off_c, 0, 55, 108
1, 22480, Note_on_c, 0, 56, 110
1, 22510, Note_off_c, 0, 56, 110
1, 22579, Note_on_c, 0, 62, 94
1, 22605, Note_off_c, 0, 62, 94
1, 22619, Note_on_c, 0, 67, 125
1, 22674, Note_off_c, 0, 67, 125
1, 22682, Note_on_c, 0, 64, 83
1, 22778, Note_off_c, 0, 64, 83
1, 23115, Note_on_c, 0, 57, 99
1, 23150, Note_off_c, 0, 57, 99
1, 23152, Note_on_c, 0, 60, 88
1, 23180, Note_off_c, 0, 60, 88
1, 23202, Note_on_c, 0, 65, 120
1, 23245, Note_off_c, 0, 65, 120
1, 23247, Note_on_c, 0, 67, 127
1, 23287, Note_off_c, 0, 67, 127
1, 23291, Note_on_c, 0, 69, 122
1, 23339, Note_off_c, 0, 69, 122
1, 23340, Note_on_c, 0, 70, 121
1, 23379, Note_off_c, 0, 70, 121
1, 23382, Note_on_c, 0, 69, 111
1, 23398, Note_off_c, 0, 69, 111
1, 23401, Note_on_c, 0, 70, 113
1, 23429, Note_off_c, 0, 70, 113
1, 23431, Note_on_c, 0, 69, 120
1, 23473, Note_off_c, 0, 69, 120
1, 23474, Note_on_c, 0, 67, 122
1, 23524, Note_off_c, 0, 67, 122
1, 23571, Note_on_c, 0, 72, 118
1, 23619, Note_off_c, 0, 72, 118
1, 23662, Note_on_c, 0, 65, 111
1, 23716, Note_off_c, 0, 65, 111
1, 23720, Note_on_c, 0, 67, 109
1, 23935, Note_off_c, 0, 67, 109
1, 24136, Note_on_c, 0, 60, 105
1, 24176, Note_off_c, 0, 60, 105
1, 24182, Note_on_c, 0, 62, 97
1, 24209, Note_off_c, 0, 62, 97
1, 24230, Note_on_c, 0, 63, 93
1, 24260, Note_off_c, 0, 63, 93
1, 24267, Note_on_c, 0, 66, 119
1, 24315, Note_off_c, 0, 66, 119
1, 24319, Note_on_c, 0, 69, 94
1, 24354, Note_off_c, 0, 69, 94
1, 24372, Note_on_c, 0, 72, 118
1, 24415, Note_off_c, 0, 72, 118
1, 24418, Note_on_c, 0, 75, 118
1, 24471, Note_off_c, 0, 75, 118
1, 24519, Note_on_c, 0, 74, 120
1, 24659, Note_off_c, 0, 74, 120
1, 24693, Note_on_c, 0, 76, 111
1, 24708, Note_off_c, 0, 76, 111
1, 24710, Note_on_c, 0, 77, 115
1, 24764, Note_off_c, 0, 77, 115
1, 25097, Note_on_c, 0, 77, 114
1, 25148, Note_off_c, 0, 77, 114
1, 25152, Note_on_c, 0, 76, 120
1, 25183, Note_off_c, 0, 76, 120
1, 25186, Note_on_c, 0, 75, 116
1, 25218, Note_off_c, 0, 75, 116
1, 25220, Note_on_c, 0, 74, 119
1, 25280, Note_off_c, 0, 74, 119
1, 25314, Note_on_c, 0, 68, 122
1, 25361, Note_off_c, 0, 68, 122
1, 25363, Note_on_c, 0, 69, 119
1, 25411, Note_off_c, 0, 69, 119
1, 25413, Note_on_c, 0, 70, 119
1, 25455, Note_off_c, 0, 70, 119
1, 25458, Note_on_c, 0, 71, 117
1, 25491, Note_off_c, 0, 71, 117
1, 25502, Note_on_c, 0, 72, 114
1, 25552, Note_off_c, 0, 72, 114
1, 25554, Note_on_c, 0, 69, 116
1, 25600, Note_off_c, 0, 69, 116
1, 25604, Note_on_c, 0, 65, 108
1, 25639, Note_off_c, 0, 65, 108
1, 25655, Note_on_c, 0, 62, 99
1, 25675, Note_off_c, 0, 62, 99
1, 25689, Note_on_c, 0, 55, 84
1, 25827, Note_off_c, 0, 55, 84
1, 26253, Note_on_c, 0, 72, 117
1, 26306, Note_off_c, 0, 72, 117
1, 26308, Note_on_c, 0, 74, 104
1, 26321, Note_off_c, 0, 74, 104
1, 26323, Note_on_c, 0, 72, 117
1, 26356, Note_off_c, 0, 72, 117
1, 26358, Note_on_c, 0, 71, 115
1, 26412, Note_off_c, 0, 71, 115
1, 26415, Note_on_c, 0, 70, 115
1, 26451, Note_off_c, 0, 70, 115
1, 26459, Note_on_c, 0, 68, 115
1, 26501, Note_off_c, 0, 68, 115
1, 26507, Note_on_c, 0, 69, 120
1, 26554, Note_off_c, 0, 69, 120
1, 26557, Note_on_c, 0, 70, 119
1, 26600, Note_off_c, 0, 70, 119
1, 26607, Note_on_c, 0, 71, 119
1, 26641, Note_off_c, 0, 71, 119
1, 26643, Note_on_c, 0, 72, 115
1, 26702, Note_off_c, 0, 72, 115
1, 26704, Note_on_c, 0, 73, 118
1, 26741, Note_off_c, 0, 73, 118
1, 26745, Note_on_c, 0, 74, 117
1, 26794, Note_off_c, 0, 74, 117
1, 26795, Note_on_c, 0, 70, 116
1, 26833, Note_off_c, 0, 70, 116
1, 26838, Note_on_c, 0, 67, 114
1, 26884, Note_off_c, 0, 67, 114
1, 26888, Note_on_c, 0, 69, 120
1, 26933, Note_off_c, 0, 69, 120
1, 26938, Note_on_c, 0, 70, 119
1, 26983, Note_off_c, 0, 70, 119
1, 26986, Note_on_c, 0, 71, 116
1, 27021, Note_off_c, 0, 71, 116
1, 27023, Note_on_c, 0, 72, 115
1, 27088, Note_off_c, 0, 72, 115
1, 27402, Note_on_c, 0, 79, 113
1, 27430, Note_off_c, 0, 79, 113
1, 27434, Note_on_c, 0, 80, 111
1, 27462, Note_off_c, 0, 80, 111
1, 27511, Note_on_c, 0, 79, 119
1, 27544, Note_off_c, 0, 79, 119
1, 27547, Note_on_c, 0, 80, 118
1, 27605, Note_off_c, 0, 80, 118
1, 27615, Note_on_c, 0, 77, 118
1, 27979, Note_off_c, 0, 77, 118
1, 28009, Note_on_c, 0, 75, 118
1, 28064, Note_off_c, 0, 75, 118
1, 28068, Note_on_c, 0, 75, 119
1, 28109, Note_off_c, 0, 75, 119
1, 28112, Note_on_c, 0, 72, 117
1, 28157, Note_off_c, 0, 72, 117
1, 28166, Note_on_c, 0, 72, 118
1, 28205, Note_off_c, 0, 72, 118
1, 28213, Note_on_c, 0, 71, 118
1, 28275, Note_off_c, 0, 71, 118
1, 28283, Note_on_c, 0, 70, 112
1, 28317, Note_off_c, 0, 70, 112
1, 28362, Note_on_c, 0, 65, 116
1, 28419, Note_off_c, 0, 65, 116
1, 28473, Note_on_c, 0, 67, 123
1, 28576, Note_off_c, 0, 67, 123
1, 28592, Note_on_c, 0, 65, 112
1, 28761, Note_off_c, 0, 65, 112
1, 28793, Note_on_c, 0, 65, 119
1, 28830, Note_off_c, 0, 65, 119
1, 28840, Note_on_c, 0, 67, 122
1, 28874, Note_off_c, 0, 67, 122
1, 28879, Note_on_c, 0, 68, 121
1, 28926, Note_off_c, 0, 68, 121
1, 28930, Note_on_c, 0, 70, 120
1, 28969, Note_off_c, 0, 70, 120
1, 28983, Note_on_c, 0, 71, 108
1, 29023, Note_off_c, 0, 71, 108
1, 29029, Note_on_c, 0, 70, 118
1, 29070, Note_off_c, 0, 70, 118
1, 29075, Note_on_c, 0, 68, 120
1, 29125, Note_off_c, 0, 68, 120
1, 29172, Note_on_c, 0, 65, 99
1, 29323, Note_off_c, 0, 65, 99
1, 29327, Note_on_c, 0, 60, 107
1, 29349, Note_off_c, 0, 60, 107
1, 29426, Note_on_c, 0, 65, 119
1, 29480, Note_off_c, 0, 65, 119
1, 30033, Note_on_c, 0, 65, 120
1, 30086, Note_off_c, 0, 65, 120
1, 30090, Note_on_c, 0, 69, 121
1, 30126, Note_off_c, 0, 69, 121
1, 30136, Note_on_c, 0, 73, 123
1, 30190, Note_off_c, 0, 73, 123
1, 30194, Note_on_c, 0, 69, 122
1, 30237, Note_off_c, 0, 69, 122
1, 30242, Note_on_c, 0, 65, 113
1, 30287, Note_off_c, 0, 65, 113
1, 30295, Note_on_c, 0, 61, 104
1, 30321, Note_off_c, 0, 61, 104
1, 30356, Note_on_c, 0, 57, 93
1, 30458, Note_off_c, 0, 57, 93
1, 30555, Note_on_c, 0, 61, 93
1, 30577, Note_off_c, 0, 61, 93
1, 30592, Note_on_c, 0, 65, 116
1, 30659, Note_off_c, 0, 65, 116
1, 30733, Note_on_c, 0, 66, 114
1, 30768, Note_off_c, 0, 66, 114
1, 30773, Note_on_c, 0, 69, 119
1, 30909, Note_off_c, 0, 69, 119
1, 30915, Note_on_c, 0, 67, 121
1, 30967, Note_off_c, 0, 67, 121
1, 30969, Note_on_c, 0, 65, 109
1, 31023, Note_off_c, 0, 65, 109
1, 31026, Note_on_c, 0, 62, 101
1, 31069, Note_off_c, 0, 62, 101
1, 31073, Note_on_c, 0, 57, 102
1, 31113, Note_off_c, 0, 57, 102
1, 31151, Note_on_c, 0, 58, 103
1, 31181, Note_off_c, 0, 58, 103
1, 31198, Note_on_c, 0, 62, 89
1, 31215, Note_off_c, 0, 62, 89
1, 31222, Note_on_c, 0, 65, 118
1, 31291, Note_off_c, 0, 65, 118
1, 31293, Note_on_c, 0, 67, 121
1, 31345, Note_off_c, 0, 67, 121
1, 31532, Note_on_c, 0, 66, 118
1, 31606, Note_off_c, 0, 66, 118
1, 31610, Note_on_c, 0, 68, 121
1, 31700, Note_off_c, 0, 68, 121
1, 31726, Note_on_c, 0, 67, 120
1, 31771, Note_off_c, 0, 67, 120
1, 31774, Note_on_c, 0, 65, 114
1, 31823, Note_off_c, 0, 65, 114
1, 31829, Note_on_c, 0, 62, 101
1, 31860, Note_off_c, 0, 62, 101
1, 31868, Note_on_c, 0, 55, 100
1, 31920, Note_off_c, 0, 55, 100
1, 31936, Note_on_c, 0, 56, 109
1, 31966, Note_off_c, 0, 56, 109
1, 31981, Note_on_c, 0, 59, 100
1, 32007, Note_off_c, 0, 59, 100
1, 32029, Note_on_c, 0, 62, 101
1, 32058, Note_off_c, 0, 62, 101
1, 32069, Note_on_c, 0, 66, 114
1, 32119, Note_off_c, 0, 66, 114
1, 32131, Note_on_c, 0, 67, 120
1, 32169, Note_off_c, 0, 67, 120
1, 32398, Note_on_c, 0, 67, 124
1, 32423, Note_off_c, 0, 67, 124
1, 32425, Note_on_c, 0, 66, 118
1, 32443, Note_off_c, 0, 66, 118
1, 32445, Note_on_c, 0, 68, 119
1, 32463, Note_off_c, 0, 68, 119
1, 32466, Note_on_c, 0, 67, 120
1, 32493, Note_off_c, 0, 67, 120
1, 32504, Note_on_c, 0, 65, 116
1, 32539, Note_off_c, 0, 65, 116
1, 32552, Note_on_c, 0, 62, 104
1, 32584, Note_off_c, 0, 62, 104
1, 32591, Note_on_c, 0, 57, 109
1, 32626, Note_off_c, 0, 57, 109
1, 32842, Note_on_c, 0, 55, 105
1, 32877, Note_off_c, 0, 55, 105
1, 33178, Note_on_c, 0, 57, 109
1, 33221, Note_off_c, 0, 57, 109
1, 33231, Note_on_c, 0, 58, 102
1, 33265, Note_off_c, 0, 58, 102
1, 33281, Note_on_c, 0, 60, 109
1, 33328, Note_off_c, 0, 60, 109
1, 33339, Note_on_c, 0, 62, 104
1, 33367, Note_off_c, 0, 62, 104
1, 33376, Note_on_c, 0, 63, 109
1, 33431, Note_off_c, 0, 63, 109
1, 33490, Note_on_c, 0, 62, 102
1, 33551, Note_off_c, 0, 62, 102
1, 33583, Note_on_c, 0, 60, 87
1, 33602, Note_off_c, 0, 60, 87
1, 33640, Note_on_c, 0, 66, 119
1, 33670, Note_off_c, 0, 66, 119
1, 33698, Note_on_c, 0, 69, 108
1, 33727, Note_off_c, 0, 69, 108
1, 33736, Note_on_c, 0, 74, 120
1, 33770, Note_off_c, 0, 74, 120
1, 33781, Note_on_c, 0, 68, 108
1, 33823, Note_off_c, 0, 68, 108
1, 33828, Note_on_c, 0, 69, 120
1, 33873, Note_off_c, 0, 69, 120
1, 33881, Note_on_c, 0, 70, 119
1, 33920, Note_off_c, 0, 70, 119
1, 33936, Note_on_c, 0, 71, 118
1, 33963, Note_off_c, 0, 71, 118
1, 33975, Note_on_c, 0, 72, 118
1, 34024, Note_off_c, 0, 72, 118
1, 34027, Note_on_c, 0, 73, 120
1, 34066, Note_off_c, 0, 73, 120
1, 34075, Note_on_c, 0, 74, 116
1, 34123, Note_off_c, 0, 74, 116
1, 34134, Note_on_c, 0, 68, 116
1, 34170, Note_off_c, 0, 68, 116
1, 34172, Note_on_c, 0, 70, 112
1, 34196, Note_off_c, 0, 70, 112
1, 34201, Note_on_c, 0, 69, 117
1, 34224, Note_off_c, 0, 69, 117
1, 34226, Note_on_c, 0, 65, 113
1, 34248, Note_off_c, 0, 65, 113
1, 34283, Note_on_c, 0, 62, 103
1, 34322, Note_off_c, 0, 62, 103
1, 34790, Note_on_c, 0, 57, 99
1, 34826, Note_off_c, 0, 57, 99
1, 34829, Note_on_c, 0, 58, 100
1, 34872, Note_off_c, 0, 58, 100
1, 34880, Note_on_c, 0, 60, 109
1, 34925, Note_off_c, 0, 60, 109
1, 34972, Note_on_c, 0, 57, 106
1, 35016, Note_off_c, 0, 57, 106
1, 35019, Note_on_c, 0, 58, 107
1, 35072, Note_off_c, 0, 58, 107
1, 35076, Note_on_c, 0, 60, 108
1, 35129, Note_off_c, 0, 60, 108
1, 35137, Note_on_c, 0, 61, 96
1, 35224, Note_off_c, 0, 61, 96
1, 35273, Note_on_c, 0, 60, 105
1, 35424, Note_off_c, 0, 60, 105
1, 35456, Note_on_c, 0, 57, 107
1, 35495, Note_off_c, 0, 57, 107
1, 35500, Note_on_c, 0, 58, 104
1, 35531, Note_off_c, 0, 58, 104
1, 35539, Note_on_c, 0, 60, 109
1, 35599, Note_off_c, 0, 60, 109
1, 35606, Note_on_c, 0, 62, 105
1, 35629, Note_off_c, 0, 62, 105
1, 35938, Note_on_c, 0, 60, 110
1, 35979, Note_off_c, 0, 60, 110
1, 35992, Note_on_c, 0, 62, 104
1, 36021, Note_off_c, 0, 62, 104
1, 36025, Note_on_c, 0, 63, 100
1, 36065, Note_off_c, 0, 63, 100
1, 36084, Note_on_c, 0, 61, 104
1, 36112, Note_off_c, 0, 61, 104
1, 36116, Note_on_c, 0, 62, 98
1, 36142, Note_off_c, 0, 62, 98
1, 36172, Note_on_c, 0, 66, 87
1, 36184, Note_off_c, 0, 66, 87
1, 36191, Note_on_c, 0, 69, 97
1, 36221, Note_off_c, 0, 69, 97
1, 36226, Note_on_c, 0, 72, 118
1, 36296, Note_off_c, 0, 72, 118
1, 36303, Note_on_c, 0, 69, 114
1, 36417, Note_off_c, 0, 69, 114
1, 36429, Note_on_c, 0, 70, 113
1, 36615, Note_off_c, 0, 70, 113
1, 36629, Note_on_c, 0, 69, 116
1, 36662, Note_off_c, 0, 69, 116
1, 36668, Note_on_c, 0, 70, 108
1, 36696, Note_off_c, 0, 70, 108
1, 36698, Note_on_c, 0, 69, 117
1, 36750, Note_off_c, 0, 69, 117
1, 36764, Note_on_c, 0, 65, 108
1, 36805, Note_off_c, 0, 65, 108
1, 36854, Note_on_c, 0, 63, 98
1, 36896, Note_off_c, 0, 63, 98
1, 36931, Note_on_c, 0, 60, 105
1, 36969, Note_off_c, 0, 60, 105
1, 36979, Note_on_c, 0, 58, 98
1, 37015, Note_off_c, 0, 58, 98
1, 37044, Note_on_c, 0, 55, 99
1, 37066, Note_off_c, 0, 55, 99
1, 37079, Note_on_c, 0, 57, 97
1, 37137, Note_off_c, 0, 57, 97
1, 37162, Note_on_c, 0, 65, 78
1, 37394, Note_off_c, 0, 65, 78
1, 37394, End_track
0, 0, End_of_file
