0, 0, Header, 1, 1, 192
1, 0, Start_track
1, 0, Title_t, "Melody"
1, 0, Tempo, 394736
1, 0, Key_signature, -4, "major"
1, 0, Time_signature, 4, 2, 24, 8
1, 1197, Note_on_c, 0, 68, 115
1, 1315, Note_off_c, 0, 68, 115
1, 1360, Note_on_c, 0, 70, 99
1, 1625, Note_off_c, 0, 70, 99
1, 1684, Note_on_c, 0, 65, 121
1, 1777, Note_off_c, 0, 65, 121
1, 1849, Note_on_c, 0, 67, 116
1, 2212, Note_off_c, 0, 67, 116
1, 2263, Note_on_c, 0, 70, 107
1, 2366, Note_off_c, 0, 70, 107
1, 2427, Note_on_c, 0, 73, 100
1, 2678, Note_off_c, 0, 73, 100
1, 2699, Note_on_c, 0, 72, 106
1, 2808, Note_off_c, 0, 72, 106
1, 2888, Note_on_c, 0, 68, 108
1, 3153, Note_off_c, 0, 68, 108
1, 3188, Note_on_c, 0, 70, 106
1, 3322, Note_off_c, 0, 70, 106
1, 3349, Note_on_c, 0, 67, 105
1, 3716, Note_off_c, 0, 67, 105
1, 3753, Note_on_c, 0, 68, 117
1, 3830, Note_off_c, 0, 68, 117
1, 3852, Note_on_c, 0, 65, 120
1, 3934, Note_off_c, 0, 65, 120
1, 3943, Note_on_c, 0, 67, 117
1, 4000, Note_off_c, 0, 67, 117
1, 4005, Note_on_c, 0, 68, 115
1, 4127, Note_off_c, 0, 68, 115
1, 4335, Note_on_c, 0, 61, 98
1, 4595, Note_off_c, 0, 61, 98
1, 5084, Note_on_c, 0, 63, 95
1, 5128, Note_off_c, 0, 63, 95
1, 5150, Note_on_c, 0, 65, 117
1, 5239, Note_off_c, 0, 65, 117
1, 5253, Note_on_c, 0, 68, 122
1, 5337, Note_off_c, 0, 68, 122
1, 5348, Note_on_c, 0, 67, 112
1, 5441, Note_off_c, 0, 67, 112
1, 5456, Note_on_c, 0, 65, 118
1, 5528, Note_off_c, 0, 65, 118
1, 5551, Note_on_c, 0, 63, 111
1, 5622, Note_off_c, 0, 63, 111
1, 5642, Note_on_c, 0, 61, 106
1, 5717, Note_off_c, 0, 61, 106
1, 5739, Note_on_c, 0, 60, 100
1, 6485, Note_off_c, 0, 60, 100
1, 7263, Note_on_c, 0, 63, 106
1, 7501, Note_off_c, 0, 63, 106
1, 7515, Note_on_c, 0, 64, 105
1, 7751, Note_off_c, 0, 64, 105
1, 7786, Note_on_c, 0, 75, 108
1, 8168, Note_off_c, 0, 75, 108
1, 8184, Note_on_c, 0, 73, 111
1, 8284, Note_off_c, 0, 73, 111
1, 8293, Note_on_c, 0, 69, 119
1, 8366, Note_off_c, 0, 69, 119
1, 8385, Note_on_c, 0, 70, 113
1, 8473, Note_off_c, 0, 70, 113
1, 8484, Note_on_c, 0, 71, 112
1, 8556, Note_off_c, 0, 71, 112
1, 8563, Note_on_c, 0, 72, 109
1, 8662, Note_off_c, 0, 72, 109
1, 8670, Note_on_c, 0, 68, 112
1, 8755, Note_off_c, 0, 68, 112
1, 8764, Note_on_c, 0, 70, 113
1, 8858, Note_off_c, 0, 70, 113
1, 8875, Note_on_c, 0, 72, 110
1, 8945, Note_off_c, 0, 72, 110
1, 8952, Note_on_c, 0, 68, 114
1, 9048, Note_off_c, 0, 68, 114
1, 9056, Note_on_c, 0, 67, 117
1, 9140, Note_off_c, 0, 67, 117
1, 9151, Note_on_c, 0, 68, 115
1, 9246, Note_off_c, 0, 68, 115
1, 9257, Note_on_c, 0, 70, 112
1, 9334, Note_off_c, 0, 70, 112
1, 9343, Note_on_c, 0, 72, 96
1, 9489, Note_off_c, 0, 72, 96
1, 10300, Note_on_c, 0, 79, 119
1, 10400, Note_off_c, 0, 79, 119
1, 10411, Note_on_c, 0, 76, 120
1, 10493, Note_off_c, 0, 76, 120
1, 10505, Note_on_c, 0, 72, 110
1, 10590, Note_off_c, 0, 72, 110
1, 10596, Note_on_c, 0, 69, 121
1, 10676, Note_off_c, 0, 69, 121
1, 10687, Note_on_c, 0, 65, 115
1, 10756, Note_off_c, 0, 65, 115
1, 10770, Note_on_c, 0, 60, 117
1, 10856, Note_off_c, 0, 60, 117
1, 10868, Note_on_c, 0, 57, 110
1, 10960, Note_off_c, 0, 57, 110
1, 10965, Note_on_c, 0, 58, 114
1, 11047, Note_off_c, 0, 58, 114
1, 11059, Note_on_c, 0, 59, 125
1, 11133, Note_off_c, 0, 59, 125
1, 11151, Note_on_c, 0, 62, 112
1, 11219, Note_off_c, 0, 62, 112
1, 11229, Note_on_c, 0, 65, 121
1, 11315, Note_off_c, 0, 65, 121
1, 11329, Note_on_c, 0, 67, 119
1, 11415, Note_off_c, 0, 67, 119
1, 11428, Note_on_c, 0, 68, 117
1, 11514, Note_off_c, 0, 68, 117
1, 11527, Note_on_c, 0, 69, 123
1, 11592, Note_off_c, 0, 69, 123
1, 11604, Note_on_c, 0, 70, 113
1, 11690, Note_off_c, 0, 70, 113
1, 11701, Note_on_c, 0, 71, 115
1, 11778, Note_off_c, 0, 71, 115
1, 11787, Note_on_c, 0, 72, 112
1, 11871, Note_off_c, 0, 72, 112
1, 11885, Note_on_c, 0, 68, 115
1, 11971, Note_off_c, 0, 68, 115
1, 11982, Note_on_c, 0, 65, 115
1, 12058, Note_off_c, 0, 65, 115
1, 12079, Note_on_c, 0, 62, 118
1, 12170, Note_off_c, 0, 62, 118
1, 12174, Note_on_c, 0, 60, 112
1, 12243, Note_off_c, 0, 60, 112
1, 12261, Note_on_c, 0, 56, 99
1, 12350, Note_off_c, 0, 56, 99
1, 12371, Note_on_c, 0, 58, 111
1, 12466, Note_off_c, 0, 58, 111
1, 12478, Note_on_c, 0, 59, 110
1, 12543, Note_off_c, 0, 59, 110
1, 12557, Note_on_c, 0, 62, 108
1, 12639, Note_off_c, 0, 62, 108
1, 12650, Note_on_c, 0, 65, 122
1, 12734, Note_off_c, 0, 65, 122
1, 12746, Note_on_c, 0, 67, 118
1, 12825, Note_off_c, 0, 67, 118
1, 12846, Note_on_c, 0, 68, 115
1, 12925, Note_off_c, 0, 68, 115
1, 12929, Note_on_c, 0, 70, 111
1, 13097, Note_off_c, 0, 70, 111
1, 13111, Note_on_c, 0, 72, 111
1, 13273, Note_off_c, 0, 72, 111
1, 13301, Note_on_c, 0, 72, 89
1, 13711, Note_off_c, 0, 72, 89
1, 14273, Note_on_c, 0, 65, 118
1, 14366, Note_off_c, 0, 65, 118
1, 14375, Note_on_c, 0, 67, 118
1, 14450, Note_off_c, 0, 67, 118
1, 14464, Note_on_c, 0, 68, 113
1, 14629, Note_off_c, 0, 68, 113
1, 14647, Note_on_c, 0, 70, 110
1, 14741, Note_off_c, 0, 70, 110
1, 14749, Note_on_c, 0, 69, 103
1, 14797, Note_off_c, 0, 69, 103
1, 14835, Note_on_c, 0, 70, 98
1, 15573, Note_off_c, 0, 70, 98
1, 15924, Note_on_c, 0, 67, 118
1, 16005, Note_off_c, 0, 67, 118
1, 16014, Note_on_c, 0, 68, 119
1, 16112, Note_off_c, 0, 68, 119
1, 16120, Note_on_c, 0, 70, 115
1, 16208, Note_off_c, 0, 70, 115
1, 16269, Note_on_c, 0, 67, 116
1, 16365, Note_off_c, 0, 67, 116
1, 16377, Note_on_c, 0, 68, 110
1, 16661, Note_off_c, 0, 68, 110
1, 16677, Note_on_c, 0, 67, 115
1, 16759, Note_off_c, 0, 67, 115
1, 16771, Note_on_c, 0, 68, 115
1, 16863, Note_off_c, 0, 68, 115
1, 16880, Note_on_c, 0, 70, 113
1, 16941, Note_off_c, 0, 70, 113
1, 16948, Note_on_c, 0, 68, 113
1, 16982, Note_off_c, 0, 68, 113
1, 16986, Note_on_c, 0, 70, 103
1, 17012, Note_off_c, 0, 70, 103
1, 17018, Note_on_c, 0, 68, 114
1, 17066, Note_off_c, 0, 68, 114
1, 17082, Note_on_c, 0, 65, 113
1, 17140, Note_off_c, 0, 65, 113
1, 17145, Note_on_c, 0, 68, 113
1, 17312, Note_off_c, 0, 68, 113
1, 17316, Note_on_c, 0, 67, 113
1, 17351, Note_off_c, 0, 67, 113
1, 17354, Note_on_c, 0, 65, 111
1, 17444, Note_off_c, 0, 65, 111
1, 17450, Note_on_c, 0, 67, 115
1, 17634, Note_off_c, 0, 67, 115
1, 17685, Note_on_c, 0, 76, 120
1, 17732, Note_off_c, 0, 76, 120
1, 17736, Note_on_c, 0, 77, 122
1, 17891, Note_off_c, 0, 77, 122
1, 17900, Note_on_c, 0, 75, 110
1, 18333, Note_off_c, 0, 75, 110
1, 18958, Note_on_c, 0, 65, 123
1, 19042, Note_off_c, 0, 65, 123
1, 19045, Note_on_c, 0, 66, 120
1, 19127, Note_off_c, 0, 66, 120
1, 19134, Note_on_c, 0, 69, 127
1, 19220, Note_off_c, 0, 69, 127
1, 19227, Note_on_c, 0, 70, 114
1, 19315, Note_off_c, 0, 70, 114
1, 19324, Note_on_c, 0, 72, 115
1, 19416, Note_off_c, 0, 72, 115
1, 19429, Note_on_c, 0, 75, 118
1, 19537, Note_off_c, 0, 75, 118
1, 19555, Note_on_c, 0, 73, 114
1, 19795, Note_off_c, 0, 73, 114
1, 19808, Note_on_c, 0, 72, 109
1, 20119, Note_off_c, 0, 72, 109
1, 20125, Note_on_c, 0, 70, 115
1, 20206, Note_off_c, 0, 70, 115
1, 20236, Note_on_c, 0, 72, 112
1, 20273, Note_off_c, 0, 72, 112
1, 20280, Note_on_c, 0, 73, 110
1, 20374, Note_off_c, 0, 73, 110
1, 20383, Note_on_c, 0, 72, 104
1, 20476, Note_off_c, 0, 72, 104
1, 20506, Note_on_c, 0, 70, 106
1, 20717, Note_off_c, 0, 70, 106
1, 21110, Note_on_c, 0, 72, 117
1, 21225, Note_off_c, 0, 72, 117
1, 21234, Note_on_c, 0, 70, 118
1, 21325, Note_off_c, 0, 70, 118
1, 21335, Note_on_c, 0, 68, 120
1, 21435, Note_off_c, 0, 68, 120
1, 21449, Note_on_c, 0, 67, 115
1, 21669, Note_off_c, 0, 67, 115
1, 21672, Note_on_c, 0, 69, 118
1, 21712, Note_off_c, 0, 69, 118
1, 21720, Note_on_c, 0, 70, 111
1, 22167, Note_off_c, 0, 70, 111
1, 22192, Note_on_c, 0, 68, 113
1, 22296, Note_off_c, 0, 68, 113
1, 22302, Note_on_c, 0, 67, 114
1, 22372, Note_off_c, 0, 67, 114
1, 22387, Note_on_c, 0, 68, 112
1, 22468, Note_off_c, 0, 68, 112
1, 22486, Note_on_c, 0, 60, 106
1, 22975, Note_off_c, 0, 60, 106
1, 23325, Note_on_c, 0, 65, 122
1, 23410, Note_off_c, 0, 65, 122
1, 23420, Note_on_c, 0, 64, 110
1, 23479, Note_off_c, 0, 64, 110
1, 23511, Note_on_c, 0, 65, 120
1, 23582, Note_off_c, 0, 65, 120
1, 23589, Note_on_c, 0, 67, 119
1, 23671, Note_off_c, 0, 67, 119
1, 23680, Note_on_c, 0, 68, 116
1, 23765, Note_off_c, 0, 68, 116
1, 23785, Note_on_c, 0, 70, 112
1, 23868, Note_off_c, 0, 70, 112
1, 23881, Note_on_c, 0, 67, 112
1, 23964, Note_off_c, 0, 67, 112
1, 23972, Note_on_c, 0, 68, 109
1, 24261, Note_off_c, 0, 68, 109
1, 24275, Note_on_c, 0, 70, 91
1, 24740, Note_off_c, 0, 70, 91
1, 24740, End_track
0, 0, End_of_file
