0, 0, Header, 1, 1, 192
1, 0, Start_track
1, 0, Title_t, "Melody"
1, 0, Tempo, 253164
1, 0, Key_signature, -2, "major"
1, 0, Time_signature, 4, 2, 24, 8
1, 2352, Note_on_c, 0, 65, 122
1, 2460, Note_off_c, 0, 65, 122
1, 2466, Note_on_c, 0, 67, 115
1, 2521, Note_off_c, 0, 67, 115
1, 2527, Note_on_c, 0, 69, 118
1, 2650, Note_off_c, 0, 69, 118
1, 2690, Note_on_c, 0, 70, 122
1, 2792, Note_off_c, 0, 70, 122
1, 2850, Note_on_c, 0, 72, 109
1, 2930, Note_off_c, 0, 72, 109
1, 3022, Note_on_c, 0, 70, 119
1, 3117, Note_off_c, 0, 70, 119
1, 3203, Note_on_c, 0, 72, 108
1, 3289, Note_off_c, 0, 72, 108
1, 3289, Note_on_c, 0, 69, 108
1, 3654, Note_off_c, 0, 69, 108
1, 3737, Note_on_c, 0, 67, 118
1, 3823, Note_off_c, 0, 67, 118
1, 3860, Note_on_c, 0, 69, 112
1, 4095, Note_off_c, 0, 69, 112
1, 4095, Note_on_c, 0, 66, 104
1, 4398, Note_off_c, 0, 66, 104
1, 4620, Note_on_c, 0, 66, 118
1, 4824, Note_off_c, 0, 66, 118
1, 4851, Note_on_c, 0, 62, 106
1, 5070, Note_off_c, 0, 62, 106
1, 5846, Note_on_c, 0, 58, 99
1, 5914, Note_off_c, 0, 58, 99
1, 5935, Note_on_c, 0, 62, 97
1, 5990, Note_off_c, 0, 62, 97
1, 5990, Note_on_c, 0, 67, 126
1, 6079, Note_off_c, 0, 67, 126
1, 6106, Note_on_c, 0, 69, 124
1, 6180, Note_off_c, 0, 69, 124
1, 6204, Note_on_c, 0, 70, 127
1, 6290, Note_off_c, 0, 70, 127
1, 6299, Note_on_c, 0, 71, 121
1, 6367, Note_off_c, 0, 71, 121
1, 6370, Note_on_c, 0, 72, 116
1, 6478, Note_off_c, 0, 72, 116
1, 6490, Note_on_c, 0, 70, 120
1, 6576, Note_off_c, 0, 70, 120
1, 6576, Note_on_c, 0, 67, 121
1, 6662, Note_off_c, 0, 67, 121
1, 6671, Note_on_c, 0, 65, 87
1, 6736, Note_off_c, 0, 65, 87
1, 6776, Note_on_c, 0, 60, 108
1, 6871, Note_off_c, 0, 60, 108
1, 6874, Note_on_c, 0, 62, 114
1, 7152, Note_off_c, 0, 62, 114
1, 7737, Note_on_c, 0, 72, 119
1, 7845, Note_off_c, 0, 72, 119
1, 7848, Note_on_c, 0, 70, 124
1, 7928, Note_off_c, 0, 70, 124
1, 7928, Note_on_c, 0, 67, 118
1, 8033, Note_off_c, 0, 67, 118
1, 8054, Note_on_c, 0, 63, 112
1, 8125, Note_off_c, 0, 63, 112
1, 8125, Note_on_c, 0, 60, 111
1, 8205, Note_off_c, 0, 60, 111
1, 8211, Note_on_c, 0, 55, 100
1, 8285, Note_off_c, 0, 55, 100
1, 8346, Note_on_c, 0, 58, 103
1, 8441, Note_off_c, 0, 58, 103
1, 8490, Note_on_c, 0, 55, 97
1, 8688, Note_off_c, 0, 55, 97
1, 8712, Note_on_c, 0, 62, 107
1, 9004, Note_off_c, 0, 62, 107
1, 9033, Note_on_c, 0, 60, 118
1, 9094, Note_off_c, 0, 60, 118
1, 9128, Note_on_c, 0, 56, 108
1, 9242, Note_off_c, 0, 56, 108
1, 9263, Note_on_c, 0, 57, 114
1, 9439, Note_off_c, 0, 57, 114
1, 9482, Note_on_c, 0, 67, 119
1, 9670, Note_off_c, 0, 67, 119
1, 9778, Note_on_c, 0, 65, 109
1, 10174, Note_off_c, 0, 65, 109
1, 10257, Note_on_c, 0, 69, 111
1, 10436, Note_off_c, 0, 69, 111
1, 10448, Note_on_c, 0, 66, 106
1, 10534, Note_off_c, 0, 66, 106
1, 10552, Note_on_c, 0, 67, 107
1, 10982, Note_off_c, 0, 67, 107
1, 11025, Note_on_c, 0, 71, 111
1, 11136, Note_off_c, 0, 71, 111
1, 11213, Note_on_c, 0, 67, 117
1, 11386, Note_off_c, 0, 67, 117
1, 11404, Note_on_c, 0, 69, 111
1, 11642, Note_off_c, 0, 69, 111
1, 11756, Note_on_c, 0, 73, 103
1, 11895, Note_off_c, 0, 73, 103
1, 11978, Note_on_c, 0, 69, 116
1, 12092, Note_off_c, 0, 69, 116
1, 12107, Note_on_c, 0, 71, 112
1, 12230, Note_off_c, 0, 71, 112
1, 12264, Note_on_c, 0, 67, 110
1, 12363, Note_off_c, 0, 67, 110
1, 12375, Note_on_c, 0, 69, 117
1, 12554, Note_off_c, 0, 69, 117
1, 12563, Note_on_c, 0, 66, 111
1, 12866, Note_off_c, 0, 66, 111
1, 12915, Note_on_c, 0, 69, 109
1, 13060, Note_off_c, 0, 69, 109
1, 14230, Note_on_c, 0, 65, 120
1, 14375, Note_off_c, 0, 65, 120
1, 14501, Note_on_c, 0, 65, 109
1, 14618, Note_off_c, 0, 65, 109
1, 14673, Note_on_c, 0, 66, 103
1, 14812, Note_off_c, 0, 66, 103
1, 14917, Note_on_c, 0, 66, 114
1, 15028, Note_off_c, 0, 66, 114
1, 15034, Note_on_c, 0, 67, 107
1, 15157, Note_off_c, 0, 67, 107
1, 15197, Note_on_c, 0, 67, 112
1, 15410, Note_off_c, 0, 67, 112
1, 15434, Note_on_c, 0, 67, 108
1, 15564, Note_off_c, 0, 67, 108
1, 15641, Note_on_c, 0, 67, 117
1, 15789, Note_off_c, 0, 67, 117
1, 15829, Note_on_c, 0, 68, 99
1, 15943, Note_off_c, 0, 68, 99
1, 16020, Note_on_c, 0, 68, 110
1, 16137, Note_off_c, 0, 68, 110
1, 16236, Note_on_c, 0, 69, 112
1, 16331, Note_off_c, 0, 69, 112
1, 16464, Note_on_c, 0, 69, 116
1, 16597, Note_off_c, 0, 69, 116
1, 16714, Note_on_c, 0, 70, 119
1, 16822, Note_off_c, 0, 70, 119
1, 16831, Note_on_c, 0, 72, 112
1, 16930, Note_off_c, 0, 72, 112
1, 16998, Note_on_c, 0, 69, 113
1, 17121, Note_off_c, 0, 69, 113
1, 17182, Note_on_c, 0, 70, 119
1, 17290, Note_off_c, 0, 70, 119
1, 17330, Note_on_c, 0, 70, 117
1, 17419, Note_off_c, 0, 70, 117
1, 17419, Note_on_c, 0, 67, 116
1, 17511, Note_off_c, 0, 67, 116
1, 17600, Note_on_c, 0, 69, 117
1, 17699, Note_off_c, 0, 69, 117
1, 17720, Note_on_c, 0, 70, 119
1, 17819, Note_off_c, 0, 70, 119
1, 17893, Note_on_c, 0, 69, 119
1, 17979, Note_off_c, 0, 69, 119
1, 18093, Note_on_c, 0, 67, 117
1, 18204, Note_off_c, 0, 67, 117
1, 18247, Note_on_c, 0, 62, 115
1, 18358, Note_off_c, 0, 62, 115
1, 18385, Note_on_c, 0, 57, 108
1, 18496, Note_off_c, 0, 57, 108
1, 18526, Note_on_c, 0, 58, 107
1, 18680, Note_off_c, 0, 58, 107
1, 18714, Note_on_c, 0, 62, 98
1, 18989, Note_off_c, 0, 62, 98
1, 19970, Note_on_c, 0, 60, 107
1, 20069, Note_off_c, 0, 60, 107
1, 20164, Note_on_c, 0, 67, 117
1, 20266, Note_off_c, 0, 67, 117
1, 20284, Note_on_c, 0, 70, 111
1, 20612, Note_off_c, 0, 70, 111
1, 20652, Note_on_c, 0, 72, 116
1, 20720, Note_off_c, 0, 72, 116
1, 20757, Note_on_c, 0, 70, 119
1, 20837, Note_off_c, 0, 70, 119
1, 20837, Note_on_c, 0, 67, 116
1, 20923, Note_off_c, 0, 67, 116
1, 20923, Note_on_c, 0, 63, 108
1, 21006, Note_off_c, 0, 63, 108
1, 21046, Note_on_c, 0, 62, 110
1, 21138, Note_off_c, 0, 62, 110
1, 21172, Note_on_c, 0, 60, 114
1, 21277, Note_off_c, 0, 60, 114
1, 21360, Note_on_c, 0, 59, 111
1, 21465, Note_off_c, 0, 59, 111
1, 21514, Note_on_c, 0, 60, 110
1, 21730, Note_off_c, 0, 60, 110
1, 21754, Note_on_c, 0, 68, 114
1, 21843, Note_off_c, 0, 68, 114
1, 21855, Note_on_c, 0, 69, 112
1, 22161, Note_off_c, 0, 69, 112
1, 22182, Note_on_c, 0, 65, 112
1, 22525, Note_off_c, 0, 65, 112
1, 22568, Note_on_c, 0, 62, 99
1, 22828, Note_off_c, 0, 62, 99
1, 23447, Note_on_c, 0, 70, 112
1, 23713, Note_off_c, 0, 70, 112
1, 23734, Note_on_c, 0, 67, 117
1, 23820, Note_off_c, 0, 67, 117
1, 23909, Note_on_c, 0, 58, 102
1, 24113, Note_off_c, 0, 58, 102
1, 24166, Note_on_c, 0, 61, 119
1, 24252, Note_off_c, 0, 61, 119
1, 24257, Note_on_c, 0, 62, 115
1, 24505, Note_off_c, 0, 62, 115
1, 24605, Note_on_c, 0, 62, 112
1, 24849, Note_off_c, 0, 62, 112
1, 24852, Note_on_c, 0, 58, 108
1, 25108, Note_off_c, 0, 58, 108
1, 25321, Note_on_c, 0, 62, 108
1, 25624, Note_off_c, 0, 62, 108
1, 25658, Note_on_c, 0, 65, 107
1, 25834, Note_off_c, 0, 65, 107
1, 25834, End_track
0, 0, End_of_file
