0, 0, Header, 1, 1, 192
1, 0, Start_track
1, 0, Title_t, "Melody"
1, 0, Tempo, 422535
1, 0, Key_signature, -4, "major"
1, 0, Time_signature, 4, 2, 24, 8
1, 1980, Note_on_c, 0, 63, 105
1, 2195, Note_off_c, 0, 63, 105
1, 2246, Note_on_c, 0, 65, 119
1, 2338, Note_off_c, 0, 65, 119
1, 2367, Note_on_c, 0, 67, 120
1, 2470, Note_off_c, 0, 67, 120
1, 2484, Note_on_c, 0, 68, 120
1, 2691, Note_off_c, 0, 68, 120
1, 2724, Note_on_c, 0, 70, 79
1, 3291, Note_off_c, 0, 70, 79
1, 3413, Note_on_c, 0, 68, 123
1, 3479, Note_off_c, 0, 68, 123
1, 3482, Note_on_c, 0, 66, 113
1, 3522, Note_off_c, 0, 66, 113
1, 3533, Note_on_c, 0, 67, 123
1, 3586, Note_off_c, 0, 67, 123
1, 3619, Note_on_c, 0, 67, 127
1, 3657, Note_off_c, 0, 67, 127
1, 3714, Note_on_c, 0, 67, 126
1, 3747, Note_off_c, 0, 67, 126
1, 3802, Note_on_c, 0, 67, 126
1, 3857, Note_off_c, 0, 67, 126
1, 3866, Note_on_c, 0, 66, 115
1, 3890, Note_off_c, 0, 66, 115
1, 3901, Note_on_c, 0, 67, 125
1, 4067, Note_off_c, 0, 67, 125
1, 4081, Note_on_c, 0, 67, 124
1, 4218, Note_off_c, 0, 67, 124
1, 4238, Note_on_c, 0, 66, 112
1, 4263, Note_off_c, 0, 66, 112
1, 4272, Note_on_c, 0, 67, 124
1, 4457, Note_off_c, 0, 67, 124
1, 4475, Note_on_c, 0, 67, 121
1, 4599, Note_off_c, 0, 67, 121
1, 4621, Note_on_c, 0, 66, 107
1, 4650, Note_off_c, 0, 66, 107
1, 4666, Note_on_c, 0, 67, 126
1, 4819, Note_off_c, 0, 67, 126
1, 4822, Note_on_c, 0, 63, 105
1, 5007, Note_off_c, 0, 63, 105
1, 5014, Note_on_c, 0, 63, 97
1, 5772, Note_off_c, 0, 63, 97
1, 6116, Note_on_c, 0, 72, 120
1, 6175, Note_off_c, 0, 72, 120
1, 6189, Note_on_c, 0, 71, 115
1, 6231, Note_off_c, 0, 71, 115
1, 6238, Note_on_c, 0, 72, 118
1, 6304, Note_off_c, 0, 72, 118
1, 6305, Note_on_c, 0, 70, 123
1, 6386, Note_off_c, 0, 70, 123
1, 6386, Note_on_c, 0, 67, 123
1, 6471, Note_off_c, 0, 67, 123
1, 6471, Note_on_c, 0, 63, 121
1, 6543, Note_off_c, 0, 63, 121
1, 6550, Note_on_c, 0, 60, 112
1, 6585, Note_off_c, 0, 60, 112
1, 6588, Note_on_c, 0, 61, 108
1, 7181, Note_off_c, 0, 61, 108
1, 7639, Note_on_c, 0, 70, 123
1, 7722, Note_off_c, 0, 70, 123
1, 7731, Note_on_c, 0, 68, 120
1, 7760, Note_off_c, 0, 68, 120
1, 7767, Note_on_c, 0, 70, 122
1, 7900, Note_off_c, 0, 70, 122
1, 7903, Note_on_c, 0, 68, 116
1, 8094, Note_off_c, 0, 68, 116
1, 8099, Note_on_c, 0, 65, 113
1, 8744, Note_off_c, 0, 65, 113
1, 9209, Note_on_c, 0, 68, 102
1, 9270, Note_off_c, 0, 68, 102
1, 9277, Note_on_c, 0, 72, 121
1, 9366, Note_off_c, 0, 72, 121
1, 9373, Note_on_c, 0, 75, 119
1, 9450, Note_off_c, 0, 75, 119
1, 9453, Note_on_c, 0, 72, 118
1, 9532, Note_off_c, 0, 72, 118
1, 9541, Note_on_c, 0, 68, 119
1, 9620, Note_off_c, 0, 68, 119
1, 9620, Note_on_c, 0, 62, 107
1, 9653, Note_off_c, 0, 62, 107
1, 9667, Note_on_c, 0, 64, 112
1, 9813, Note_off_c, 0, 64, 112
1, 9844, Note_on_c, 0, 64, 102
1, 10329, Note_off_c, 0, 64, 102
1, 10705, Note_on_c, 0, 75, 120
1, 10803, Note_off_c, 0, 75, 120
1, 10808, Note_on_c, 0, 78, 120
1, 10893, Note_off_c, 0, 78, 120
1, 10900, Note_on_c, 0, 75, 116
1, 10977, Note_off_c, 0, 75, 116
1, 10991, Note_on_c, 0, 73, 115
1, 11059, Note_off_c, 0, 73, 115
1, 11071, Note_on_c, 0, 70, 116
1, 11160, Note_off_c, 0, 70, 116
1, 11171, Note_on_c, 0, 69, 112
1, 11291, Note_off_c, 0, 69, 112
1, 11313, Note_on_c, 0, 69, 110
1, 11535, Note_off_c, 0, 69, 110
1, 11570, Note_on_c, 0, 71, 116
1, 11649, Note_off_c, 0, 71, 116
1, 11650, Note_on_c, 0, 68, 119
1, 11748, Note_off_c, 0, 68, 119
1, 11751, Note_on_c, 0, 69, 119
1, 11830, Note_off_c, 0, 69, 119
1, 11844, Note_on_c, 0, 71, 115
1, 11929, Note_off_c, 0, 71, 115
1, 11929, Note_on_c, 0, 68, 119
1, 12014, Note_off_c, 0, 68, 119
1, 12028, Note_on_c, 0, 69, 109
1, 12328, Note_off_c, 0, 69, 109
1, 12343, Note_on_c, 0, 67, 118
1, 12420, Note_off_c, 0, 67, 118
1, 12425, Note_on_c, 0, 68, 119
1, 12492, Note_off_c, 0, 68, 119
1, 12492, Note_on_c, 0, 71, 103
1, 12647, Note_off_c, 0, 71, 103
1, 12691, Note_on_c, 0, 64, 96
1, 13047, Note_off_c, 0, 64, 96
1, 13584, Note_on_c, 0, 65, 117
1, 13648, Note_off_c, 0, 65, 117
1, 13669, Note_on_c, 0, 67, 116
1, 13840, Note_off_c, 0, 67, 116
1, 13851, Note_on_c, 0, 71, 112
1, 14016, Note_off_c, 0, 71, 112
1, 14028, Note_on_c, 0, 67, 117
1, 14163, Note_off_c, 0, 67, 117
1, 14220, Note_on_c, 0, 70, 98
1, 14496, Note_off_c, 0, 70, 98
1, 14520, Note_on_c, 0, 63, 117
1, 14618, Note_off_c, 0, 63, 117
1, 14638, Note_on_c, 0, 63, 108
1, 14777, Note_off_c, 0, 63, 108
1, 14906, Note_on_c, 0, 70, 95
1, 15033, Note_off_c, 0, 70, 95
1, 15313, Note_on_c, 0, 63, 100
1, 15398, Note_off_c, 0, 63, 100
1, 15405, Note_on_c, 0, 70, 120
1, 15482, Note_off_c, 0, 70, 120
1, 15504, Note_on_c, 0, 70, 114
1, 15598, Note_off_c, 0, 70, 114
1, 15598, Note_on_c, 0, 63, 105
1, 15683, Note_off_c, 0, 63, 105
1, 15686, Note_on_c, 0, 63, 113
1, 15758, Note_off_c, 0, 63, 113
1, 15774, Note_on_c, 0, 70, 114
1, 15881, Note_off_c, 0, 70, 114
1, 15960, Note_on_c, 0, 70, 111
1, 16110, Note_off_c, 0, 70, 111
1, 16145, Note_on_c, 0, 70, 104
1, 16358, Note_off_c, 0, 70, 104
1, 16365, Note_on_c, 0, 63, 103
1, 16481, Note_off_c, 0, 63, 103
1, 16518, Note_on_c, 0, 63, 104
1, 16733, Note_off_c, 0, 63, 104
1, 17033, Note_on_c, 0, 72, 115
1, 17123, Note_off_c, 0, 72, 115
1, 17321, Note_on_c, 0, 72, 112
1, 17480, Note_off_c, 0, 72, 112
1, 17830, Note_on_c, 0, 65, 117
1, 17972, Note_off_c, 0, 65, 117
1, 18010, Note_on_c, 0, 63, 109
1, 18084, Note_off_c, 0, 63, 109
1, 18099, Note_on_c, 0, 67, 123
1, 18220, Note_off_c, 0, 67, 123
1, 18234, Note_on_c, 0, 68, 120
1, 18441, Note_off_c, 0, 68, 120
1, 18471, Note_on_c, 0, 69, 120
1, 18581, Note_off_c, 0, 69, 120
1, 18590, Note_on_c, 0, 70, 116
1, 18870, Note_off_c, 0, 70, 116
1, 18897, Note_on_c, 0, 70, 85
1, 19299, Note_off_c, 0, 70, 85
1, 19339, Note_on_c, 0, 65, 118
1, 19407, Note_off_c, 0, 65, 118
1, 19423, Note_on_c, 0, 66, 121
1, 19508, Note_off_c, 0, 66, 121
1, 19524, Note_on_c, 0, 68, 118
1, 19609, Note_off_c, 0, 68, 118
1, 19625, Note_on_c, 0, 69, 121
1, 19704, Note_off_c, 0, 69, 121
1, 19716, Note_on_c, 0, 72, 117
1, 19803, Note_off_c, 0, 72, 117
1, 19810, Note_on_c, 0, 77, 120
1, 19895, Note_off_c, 0, 77, 120
1, 19920, Note_on_c, 0, 65, 116
1, 19988, Note_off_c, 0, 65, 116
1, 19999, Note_on_c, 0, 69, 119
1, 20082, Note_off_c, 0, 69, 119
1, 20100, Note_on_c, 0, 72, 114
1, 20174, Note_off_c, 0, 72, 114
1, 20185, Note_on_c, 0, 69, 120
1, 20262, Note_off_c, 0, 69, 120
1, 20278, Note_on_c, 0, 65, 116
1, 20357, Note_off_c, 0, 65, 116
1, 20366, Note_on_c, 0, 60, 109
1, 20827, Note_off_c, 0, 60, 109
1, 20886, Note_on_c, 0, 61, 104
1, 20945, Note_off_c, 0, 61, 104
1, 20950, Note_on_c, 0, 65, 119
1, 21031, Note_off_c, 0, 65, 119
1, 21053, Note_on_c, 0, 68, 121
1, 21140, Note_on_c, 0, 71, 119
1, 21140, Note_off_c, 0, 68, 121
1, 21229, Note_off_c, 0, 71, 119
1, 21241, Note_on_c, 0, 70, 119
1, 21330, Note_off_c, 0, 70, 119
1, 21497, Note_on_c, 0, 68, 102
1, 21527, Note_off_c, 0, 68, 102
1, 22574, Note_on_c, 0, 70, 124
1, 22661, Note_off_c, 0, 70, 124
1, 22668, Note_on_c, 0, 69, 117
1, 22901, Note_off_c, 0, 69, 117
1, 22967, Note_on_c, 0, 65, 119
1, 23052, Note_off_c, 0, 65, 119
1, 23057, Note_on_c, 0, 60, 126
1, 23146, Note_off_c, 0, 60, 126
1, 23151, Note_on_c, 0, 57, 124
1, 23227, Note_off_c, 0, 57, 124
1, 23239, Note_on_c, 0, 60, 124
1, 23322, Note_off_c, 0, 60, 124
1, 23342, Note_on_c, 0, 65, 115
1, 23425, Note_off_c, 0, 65, 115
1, 23443, Note_on_c, 0, 69, 121
1, 23556, Note_off_c, 0, 69, 121
1, 23570, Note_on_c, 0, 70, 105
1, 24363, Note_off_c, 0, 70, 105
1, 24503, Note_on_c, 0, 68, 121
1, 24580, Note_off_c, 0, 68, 121
1, 24591, Note_on_c, 0, 67, 119
1, 24618, Note_off_c, 0, 67, 119
1, 24621, Note_on_c, 0, 68, 122
1, 24650, Note_on_c, 0, 67, 123
1, 24650, Note_off_c, 0, 68, 122
1, 24698, Note_off_c, 0, 67, 123
1, 24698, Note_on_c, 0, 65, 120
1, 24736, Note_off_c, 0, 65, 120
1, 24739, Note_on_c, 0, 63, 118
1, 24831, Note_off_c, 0, 63, 118
1, 24862, Note_on_c, 0, 61, 118
1, 24932, Note_off_c, 0, 61, 118
1, 24946, Note_on_c, 0, 63, 113
1, 25086, Note_off_c, 0, 63, 113
1, 25126, Note_on_c, 0, 63, 119
1, 25278, Note_off_c, 0, 63, 119
1, 25344, Note_on_c, 0, 70, 110
1, 25514, Note_off_c, 0, 70, 110
1, 25514, Note_on_c, 0, 75, 103
1, 25641, Note_off_c, 0, 75, 103
1, 26026, Note_on_c, 0, 63, 108
1, 26085, Note_off_c, 0, 63, 108
1, 26096, Note_on_c, 0, 70, 118
1, 26181, Note_off_c, 0, 70, 118
1, 26210, Note_on_c, 0, 70, 118
1, 26295, Note_off_c, 0, 70, 118
1, 26295, Note_on_c, 0, 75, 117
1, 26384, Note_off_c, 0, 75, 117
1, 26408, Note_on_c, 0, 75, 118
1, 26485, Note_off_c, 0, 75, 118
1, 26501, Note_on_c, 0, 70, 122
1, 26643, Note_off_c, 0, 70, 122
1, 26680, Note_on_c, 0, 70, 114
1, 26859, Note_on_c, 0, 63, 9
1, 26859, Note_off_c, 0, 70, 114
1, 27165, Note_off_c, 0, 63, 9
1, 27411, Note_on_c, 0, 70, 107
1, 27455, Note_on_c, 0, 75, 117
1, 27455, Note_off_c, 0, 70, 107
1, 27538, Note_off_c, 0, 75, 117
1, 27780, Note_on_c, 0, 75, 117
1, 27852, Note_off_c, 0, 75, 117
1, 27852, Note_on_c, 0, 79, 120
1, 27954, Note_off_c, 0, 79, 120
1, 28324, Note_on_c, 0, 79, 123
1, 28414, Note_off_c, 0, 79, 123
1, 28432, Note_on_c, 0, 75, 121
1, 28498, Note_off_c, 0, 75, 121
1, 28529, Note_on_c, 0, 75, 117
1, 28593, Note_off_c, 0, 75, 117
1, 28594, Note_on_c, 0, 70, 120
1, 28662, Note_off_c, 0, 70, 120
1, 28706, Note_on_c, 0, 70, 121
1, 28785, Note_off_c, 0, 70, 121
1, 28786, Note_on_c, 0, 67, 120
1, 28882, Note_off_c, 0, 67, 120
1, 28958, Note_on_c, 0, 67, 123
1, 29082, Note_off_c, 0, 67, 123
1, 29159, Note_on_c, 0, 69, 112
1, 29346, Note_off_c, 0, 69, 112
1, 29366, Note_on_c, 0, 65, 119
1, 29534, Note_off_c, 0, 65, 119
1, 29541, Note_on_c, 0, 72, 103
1, 29732, Note_off_c, 0, 72, 103
1, 29854, Note_on_c, 0, 65, 121
1, 29920, Note_off_c, 0, 65, 121
1, 29927, Note_on_c, 0, 68, 118
1, 30012, Note_off_c, 0, 68, 118
1, 30420, Note_on_c, 0, 58, 108
1, 30499, Note_off_c, 0, 58, 108
1, 30519, Note_on_c, 0, 60, 121
1, 30606, Note_off_c, 0, 60, 121
1, 30615, Note_on_c, 0, 61, 123
1, 30687, Note_off_c, 0, 61, 123
1, 30701, Note_on_c, 0, 63, 109
1, 30788, Note_off_c, 0, 63, 109
1, 30795, Note_on_c, 0, 65, 118
1, 30871, Note_off_c, 0, 65, 118
1, 30889, Note_on_c, 0, 66, 116
1, 30968, Note_off_c, 0, 66, 116
1, 30977, Note_on_c, 0, 68, 119
1, 31045, Note_off_c, 0, 68, 119
1, 31063, Note_on_c, 0, 69, 118
1, 31101, Note_off_c, 0, 69, 118
1, 31106, Note_on_c, 0, 70, 119
1, 31211, Note_off_c, 0, 70, 119
1, 31229, Note_on_c, 0, 69, 113
1, 31264, Note_off_c, 0, 69, 113
1, 31273, Note_on_c, 0, 70, 119
1, 31431, Note_off_c, 0, 70, 119
1, 31446, Note_on_c, 0, 70, 110
1, 31723, Note_off_c, 0, 70, 110
1, 31749, Note_on_c, 0, 63, 101
1, 32053, Note_off_c, 0, 63, 101
1, 32325, Note_on_c, 0, 68, 114
1, 32430, Note_off_c, 0, 68, 114
1, 32522, Note_on_c, 0, 63, 108
1, 32858, Note_off_c, 0, 63, 108
1, 32913, Note_on_c, 0, 61, 122
1, 32979, Note_off_c, 0, 61, 122
1, 32995, Note_on_c, 0, 65, 115
1, 33071, Note_off_c, 0, 65, 115
1, 33093, Note_on_c, 0, 68, 115
1, 33172, Note_off_c, 0, 68, 115
1, 33186, Note_on_c, 0, 72, 114
1, 33269, Note_off_c, 0, 72, 114
1, 33278, Note_on_c, 0, 75, 113
1, 33348, Note_off_c, 0, 75, 113
1, 33381, Note_on_c, 0, 72, 113
1, 33451, Note_off_c, 0, 72, 113
1, 33480, Note_on_c, 0, 68, 116
1, 33544, Note_off_c, 0, 68, 116
1, 33555, Note_on_c, 0, 65, 110
1, 33640, Note_off_c, 0, 65, 110
1, 33669, Note_on_c, 0, 68, 114
1, 33735, Note_off_c, 0, 68, 114
1, 33744, Note_on_c, 0, 72, 114
1, 33829, Note_off_c, 0, 72, 114
1, 33841, Note_on_c, 0, 65, 104
1, 33918, Note_off_c, 0, 65, 104
1, 33945, Note_on_c, 0, 68, 115
1, 34030, Note_off_c, 0, 68, 115
1, 34031, Note_on_c, 0, 71, 115
1, 34127, Note_off_c, 0, 71, 115
1, 34127, Note_on_c, 0, 68, 115
1, 34204, Note_off_c, 0, 68, 115
1, 34235, Note_on_c, 0, 64, 111
1, 34325, Note_off_c, 0, 64, 111
1, 34328, Note_on_c, 0, 61, 111
1, 34400, Note_on_c, 0, 59, 107
1, 34400, Note_off_c, 0, 61, 111
1, 34485, Note_off_c, 0, 59, 107
1, 34518, Note_on_c, 0, 63, 110
1, 34664, Note_off_c, 0, 63, 110
1, 34676, Note_on_c, 0, 66, 113
1, 34844, Note_off_c, 0, 66, 113
1, 34844, Note_on_c, 0, 63, 101
1, 35252, Note_off_c, 0, 63, 101
1, 35546, Note_on_c, 0, 66, 119
1, 35633, Note_off_c, 0, 66, 119
1, 35657, Note_on_c, 0, 73, 114
1, 35790, Note_off_c, 0, 73, 114
1, 35804, Note_on_c, 0, 71, 111
1, 35915, Note_off_c, 0, 71, 111
1, 35952, Note_on_c, 0, 66, 110
1, 36146, Note_off_c, 0, 66, 110
1, 36203, Note_on_c, 0, 68, 100
1, 36421, Note_off_c, 0, 68, 100
1, 36678, Note_on_c, 0, 69, 117
1, 36774, Note_off_c, 0, 69, 117
1, 36779, Note_on_c, 0, 71, 113
1, 36868, Note_off_c, 0, 71, 113
1, 36871, Note_on_c, 0, 68, 117
1, 36935, Note_off_c, 0, 68, 117
1, 36953, Note_on_c, 0, 69, 113
1, 37030, Note_off_c, 0, 69, 113
1, 37041, Note_on_c, 0, 71, 112
1, 37131, Note_off_c, 0, 71, 112
1, 37131, Note_on_c, 0, 66, 115
1, 37169, Note_off_c, 0, 66, 115
1, 37180, Note_on_c, 0, 68, 112
1, 37311, Note_off_c, 0, 68, 112
1, 37320, Note_on_c, 0, 67, 106
1, 37358, Note_off_c, 0, 67, 106
1, 37363, Note_on_c, 0, 68, 112
1, 37505, Note_off_c, 0, 68, 112
1, 37530, Note_on_c, 0, 64, 97
1, 37904, Note_off_c, 0, 64, 97
1, 38402, Note_on_c, 0, 65, 116
1, 38470, Note_off_c, 0, 65, 116
1, 38516, Note_on_c, 0, 71, 100
1, 38541, Note_off_c, 0, 71, 100
1, 38542, Note_on_c, 0, 72, 113
1, 38664, Note_off_c, 0, 72, 113
1, 38669, Note_on_c, 0, 75, 111
1, 38848, Note_off_c, 0, 75, 111
1, 38848, Note_on_c, 0, 67, 115
1, 38990, Note_off_c, 0, 67, 115
1, 39041, Note_on_c, 0, 75, 98
1, 39337, Note_off_c, 0, 75, 98
1, 39357, Note_on_c, 0, 65, 112
1, 39436, Note_off_c, 0, 65, 112
1, 39703, Note_on_c, 0, 75, 105
1, 39960, Note_off_c, 0, 75, 105
1, 39986, Note_on_c, 0, 67, 121
1, 40076, Note_off_c, 0, 67, 121
1, 40291, Note_on_c, 0, 75, 113
1, 40380, Note_off_c, 0, 75, 113
1, 40407, Note_on_c, 0, 67, 111
1, 40479, Note_off_c, 0, 67, 111
1, 40556, Note_on_c, 0, 75, 101
1, 40728, Note_off_c, 0, 75, 101
1, 40753, Note_on_c, 0, 65, 113
1, 40838, Note_off_c, 0, 65, 113
1, 40928, Note_on_c, 0, 67, 112
1, 41091, Note_off_c, 0, 67, 112
1, 41139, Note_on_c, 0, 75, 101
1, 41233, Note_off_c, 0, 75, 101
1, 41244, Note_on_c, 0, 69, 117
1, 41321, Note_off_c, 0, 69, 117
1, 41806, Note_on_c, 0, 77, 117
1, 41872, Note_off_c, 0, 77, 117
1, 41899, Note_on_c, 0, 68, 117
1, 42015, Note_off_c, 0, 68, 117
1, 42059, Note_on_c, 0, 65, 112
1, 42309, Note_off_c, 0, 65, 112
1, 42340, Note_on_c, 0, 68, 121
1, 42442, Note_off_c, 0, 68, 121
1, 42484, Note_on_c, 0, 69, 109
1, 42571, Note_off_c, 0, 69, 109
1, 42600, Note_on_c, 0, 70, 109
1, 42711, Note_off_c, 0, 70, 109
1, 42747, Note_on_c, 0, 72, 105
1, 43006, Note_off_c, 0, 72, 105
1, 43016, Note_on_c, 0, 73, 113
1, 43153, Note_off_c, 0, 73, 113
1, 43208, Note_on_c, 0, 77, 116
1, 43289, Note_off_c, 0, 77, 116
1, 43314, Note_on_c, 0, 78, 111
1, 43382, Note_off_c, 0, 78, 111
1, 43400, Note_on_c, 0, 75, 111
1, 43490, Note_off_c, 0, 75, 111
1, 43506, Note_on_c, 0, 73, 117
1, 43593, Note_off_c, 0, 73, 117
1, 43607, Note_on_c, 0, 70, 113
1, 43690, Note_off_c, 0, 70, 113
1, 43695, Note_on_c, 0, 66, 116
1, 43780, Note_off_c, 0, 66, 116
1, 43787, Note_on_c, 0, 65, 112
1, 43850, Note_off_c, 0, 65, 112
1, 43888, Note_on_c, 0, 63, 110
1, 43973, Note_off_c, 0, 63, 110
1, 43980, Note_on_c, 0, 68, 108
1, 44174, Note_off_c, 0, 68, 108
1, 44643, Note_on_c, 0, 72, 113
1, 44728, Note_off_c, 0, 72, 113
1, 44752, Note_on_c, 0, 75, 107
1, 44833, Note_off_c, 0, 75, 107
1, 44849, Note_on_c, 0, 72, 111
1, 44936, Note_off_c, 0, 72, 111
1, 44937, Note_on_c, 0, 68, 114
1, 45018, Note_off_c, 0, 68, 114
1, 45051, Note_on_c, 0, 65, 112
1, 45123, Note_off_c, 0, 65, 112
1, 45145, Note_on_c, 0, 68, 114
1, 45397, Note_off_c, 0, 68, 114
1, 45417, Note_on_c, 0, 70, 114
1, 45500, Note_off_c, 0, 70, 114
1, 45529, Note_on_c, 0, 71, 110
1, 45603, Note_off_c, 0, 71, 110
1, 45632, Note_on_c, 0, 68, 115
1, 45704, Note_off_c, 0, 68, 115
1, 45739, Note_on_c, 0, 64, 109
1, 45789, Note_off_c, 0, 64, 109
1, 45822, Note_on_c, 0, 61, 97
1, 45879, Note_off_c, 0, 61, 97
1, 45904, Note_on_c, 0, 63, 110
1, 46067, Note_off_c, 0, 63, 110
1, 46083, Note_on_c, 0, 64, 111
1, 46240, Note_off_c, 0, 64, 111
1, 46247, Note_on_c, 0, 66, 103
1, 46621, Note_off_c, 0, 66, 103
1, 46917, Note_on_c, 0, 61, 121
1, 47009, Note_off_c, 0, 61, 121
1, 47027, Note_on_c, 0, 60, 115
1, 47123, Note_off_c, 0, 60, 115
1, 47130, Note_on_c, 0, 65, 113
1, 47209, Note_off_c, 0, 65, 113
1, 47218, Note_on_c, 0, 69, 119
1, 47301, Note_off_c, 0, 69, 119
1, 47301, Note_on_c, 0, 72, 117
1, 47377, Note_off_c, 0, 72, 117
1, 47408, Note_on_c, 0, 77, 112
1, 47495, Note_off_c, 0, 77, 112
1, 47498, Note_on_c, 0, 72, 112
1, 47577, Note_off_c, 0, 72, 112
1, 47593, Note_on_c, 0, 69, 117
1, 47683, Note_off_c, 0, 69, 117
1, 47773, Note_on_c, 0, 70, 90
1, 48147, Note_off_c, 0, 70, 90
1, 48527, Note_on_c, 0, 70, 107
1, 48580, Note_off_c, 0, 70, 107
1, 48594, Note_on_c, 0, 71, 116
1, 48636, Note_off_c, 0, 71, 116
1, 48654, Note_on_c, 0, 72, 113
1, 48715, Note_off_c, 0, 72, 113
1, 48718, Note_on_c, 0, 75, 106
1, 49276, Note_off_c, 0, 75, 106
1, 49337, Note_on_c, 0, 70, 112
1, 49435, Note_off_c, 0, 70, 112
1, 49512, Note_on_c, 0, 70, 115
1, 49604, Note_off_c, 0, 70, 115
1, 49609, Note_on_c, 0, 68, 109
1, 49672, Note_off_c, 0, 68, 109
1, 49697, Note_on_c, 0, 70, 114
1, 49784, Note_off_c, 0, 70, 114
1, 49824, Note_on_c, 0, 70, 116
1, 49888, Note_off_c, 0, 70, 116
1, 49982, Note_on_c, 0, 70, 105
1, 50301, Note_off_c, 0, 70, 105
1, 50334, Note_on_c, 0, 70, 115
1, 50352, Note_off_c, 0, 70, 115
1, 50364, Note_on_c, 0, 69, 118
1, 50389, Note_off_c, 0, 69, 118
1, 50400, Note_on_c, 0, 68, 117
1, 50433, Note_off_c, 0, 68, 117
1, 50445, Note_on_c, 0, 67, 120
1, 50535, Note_off_c, 0, 67, 120
1, 50544, Note_on_c, 0, 66, 118
1, 50603, Note_off_c, 0, 66, 118
1, 50615, Note_on_c, 0, 65, 113
1, 50687, Note_off_c, 0, 65, 113
1, 50718, Note_on_c, 0, 64, 109
1, 50797, Note_off_c, 0, 64, 109
1, 50809, Note_on_c, 0, 63, 97
1, 51116, Note_off_c, 0, 63, 97
1, 51116, End_track
0, 0, End_of_file
