0, 0, Header, 1, 1, 192
1, 0, Start_track
1, 0, Title_t, "Melody"
1, 0, Tempo, 303030
1, 0, Key_signature, -3, "major"
1, 0, Time_signature, 4, 2, 24, 8
1, 2444, Note_on_c, 0, 62, 101
1, 2538, Note_off_c, 0, 62, 101
1, 2562, Note_on_c, 0, 59, 104
1, 2609, Note_off_c, 0, 59, 104
1, 2623, Note_on_c, 0, 55, 126
1, 2728, Note_off_c, 0, 55, 126
1, 2752, Note_on_c, 0, 58, 106
1, 2806, Note_off_c, 0, 58, 106
1, 2825, Note_on_c, 0, 63, 99
1, 2894, Note_off_c, 0, 63, 99
1, 2912, Note_on_c, 0, 65, 111
1, 2992, Note_off_c, 0, 65, 111
1, 3011, Note_on_c, 0, 67, 106
1, 3108, Note_off_c, 0, 67, 106
1, 3121, Note_on_c, 0, 65, 94
1, 3209, Note_off_c, 0, 65, 94
1, 3479, Note_on_c, 0, 67, 106
1, 3596, Note_off_c, 0, 67, 106
1, 3687, Note_on_c, 0, 63, 95
1, 3744, Note_off_c, 0, 63, 95
1, 3749, Note_on_c, 0, 65, 112
1, 3846, Note_off_c, 0, 65, 112
1, 3857, Note_on_c, 0, 67, 111
1, 3915, Note_off_c, 0, 67, 111
1, 3924, Note_on_c, 0, 68, 110
1, 4029, Note_off_c, 0, 68, 110
1, 4041, Note_on_c, 0, 69, 108
1, 4116, Note_off_c, 0, 69, 108
1, 4122, Note_on_c, 0, 71, 99
1, 4251, Note_off_c, 0, 71, 99
1, 4263, Note_on_c, 0, 69, 104
1, 4323, Note_off_c, 0, 69, 104
1, 4432, Note_on_c, 0, 71, 92
1, 4680, Note_off_c, 0, 71, 92
1, 4712, Note_on_c, 0, 67, 112
1, 4789, Note_off_c, 0, 67, 112
1, 4796, Note_on_c, 0, 65, 103
1, 4872, Note_off_c, 0, 65, 103
1, 4892, Note_on_c, 0, 63, 94
1, 4980, Note_off_c, 0, 63, 94
1, 4992, Note_on_c, 0, 60, 82
1, 5057, Note_off_c, 0, 60, 82
1, 5088, Note_on_c, 0, 62, 101
1, 5165, Note_off_c, 0, 62, 101
1, 5190, Note_on_c, 0, 59, 95
1, 5256, Note_off_c, 0, 59, 95
1, 5405, Note_on_c, 0, 60, 88
1, 5448, Note_off_c, 0, 60, 88
1, 5456, Note_on_c, 0, 63, 101
1, 5553, Note_off_c, 0, 63, 101
1, 5558, Note_on_c, 0, 65, 117
1, 5636, Note_off_c, 0, 65, 117
1, 5641, Note_on_c, 0, 66, 109
1, 5728, Note_off_c, 0, 66, 109
1, 5737, Note_on_c, 0, 65, 104
1, 5806, Note_off_c, 0, 65, 104
1, 5831, Note_on_c, 0, 63, 97
1, 5920, Note_off_c, 0, 63, 97
1, 5922, Note_on_c, 0, 60, 100
1, 6009, Note_off_c, 0, 60, 100
1, 6016, Note_on_c, 0, 55, 102
1, 6183, Note_off_c, 0, 55, 102
1, 6407, Note_on_c, 0, 60, 97
1, 6708, Note_off_c, 0, 60, 97
1, 6724, Note_on_c, 0, 62, 92
1, 7008, Note_off_c, 0, 62, 92
1, 7093, Note_on_c, 0, 67, 109
1, 7193, Note_off_c, 0, 67, 109
1, 7913, Note_on_c, 0, 60, 101
1, 8018, Note_off_c, 0, 60, 101
1, 8065, Note_on_c, 0, 62, 93
1, 8175, Note_off_c, 0, 62, 93
1, 8268, Note_on_c, 0, 65, 91
1, 8555, Note_off_c, 0, 65, 91
1, 8579, Note_on_c, 0, 72, 85
1, 8889, Note_off_c, 0, 72, 85
1, 9157, Note_on_c, 0, 60, 101
1, 9218, Note_off_c, 0, 60, 101
1, 9229, Note_on_c, 0, 63, 97
1, 9301, Note_off_c, 0, 63, 97
1, 9335, Note_on_c, 0, 66, 118
1, 9395, Note_off_c, 0, 66, 118
1, 9406, Note_on_c, 0, 69, 108
1, 9508, Note_off_c, 0, 69, 108
1, 9543, Note_on_c, 0, 74, 88
1, 9579, Note_off_c, 0, 74, 88
1, 9597, Note_on_c, 0, 77, 106
1, 9704, Note_off_c, 0, 77, 106
1, 9712, Note_on_c, 0, 70, 88
1, 9954, Note_off_c, 0, 70, 88
1, 9965, Note_on_c, 0, 72, 99
1, 10071, Note_off_c, 0, 72, 99
1, 10103, Note_on_c, 0, 68, 114
1, 10162, Note_off_c, 0, 68, 114
1, 10169, Note_on_c, 0, 70, 100
1, 10250, Note_off_c, 0, 70, 100
1, 10272, Note_on_c, 0, 67, 105
1, 10351, Note_off_c, 0, 67, 105
1, 10362, Note_on_c, 0, 68, 110
1, 10432, Note_off_c, 0, 68, 110
1, 10443, Note_on_c, 0, 70, 93
1, 10479, Note_off_c, 0, 70, 93
1, 10486, Note_on_c, 0, 68, 110
1, 10552, Note_off_c, 0, 68, 110
1, 10570, Note_on_c, 0, 65, 103
1, 10662, Note_off_c, 0, 65, 103
1, 10696, Note_on_c, 0, 67, 108
1, 10791, Note_off_c, 0, 67, 108
1, 10955, Note_on_c, 0, 65, 107
1, 11028, Note_off_c, 0, 65, 107
1, 11089, Note_on_c, 0, 62, 89
1, 11144, Note_off_c, 0, 62, 89
1, 11158, Note_on_c, 0, 63, 101
1, 11249, Note_off_c, 0, 63, 101
1, 11261, Note_on_c, 0, 60, 100
1, 11423, Note_off_c, 0, 60, 100
1, 11435, Note_on_c, 0, 62, 97
1, 11538, Note_off_c, 0, 62, 97
1, 11581, Note_on_c, 0, 59, 103
1, 11660, Note_off_c, 0, 59, 103
1, 11666, Note_on_c, 0, 60, 101
1, 11766, Note_off_c, 0, 60, 101
1, 11773, Note_on_c, 0, 62, 99
1, 11815, Note_off_c, 0, 62, 99
1, 11824, Note_on_c, 0, 60, 102
1, 11869, Note_off_c, 0, 60, 102
1, 11889, Note_on_c, 0, 59, 100
1, 11967, Note_off_c, 0, 59, 100
1, 12073, Note_on_c, 0, 62, 93
1, 12320, Note_off_c, 0, 62, 93
1, 12344, Note_on_c, 0, 59, 101
1, 12418, Note_off_c, 0, 59, 101
1, 12427, Note_on_c, 0, 60, 102
1, 12505, Note_off_c, 0, 60, 102
1, 12560, Note_on_c, 0, 67, 105
1, 12675, Note_off_c, 0, 67, 105
1, 13588, Note_on_c, 0, 77, 110
1, 13697, Note_off_c, 0, 77, 110
1, 13762, Note_on_c, 0, 75, 107
1, 13842, Note_off_c, 0, 75, 107
1, 13854, Note_on_c, 0, 74, 106
1, 13932, Note_off_c, 0, 74, 106
1, 13940, Note_on_c, 0, 72, 94
1, 14052, Note_off_c, 0, 72, 94
1, 14078, Note_on_c, 0, 67, 105
1, 14154, Note_off_c, 0, 67, 105
1, 14245, Note_on_c, 0, 65, 103
1, 14496, Note_off_c, 0, 65, 103
1, 14516, Note_on_c, 0, 63, 99
1, 14603, Note_off_c, 0, 63, 99
1, 14624, Note_on_c, 0, 62, 95
1, 14682, Note_off_c, 0, 62, 95
1, 15002, Note_on_c, 0, 60, 98
1, 15226, Note_off_c, 0, 60, 98
1, 15247, Note_on_c, 0, 63, 103
1, 15332, Note_off_c, 0, 63, 103
1, 15361, Note_on_c, 0, 66, 111
1, 15423, Note_off_c, 0, 66, 111
1, 15430, Note_on_c, 0, 67, 107
1, 15544, Note_off_c, 0, 67, 107
1, 15563, Note_on_c, 0, 72, 100
1, 15640, Note_off_c, 0, 72, 100
1, 15738, Note_on_c, 0, 69, 102
1, 15981, Note_off_c, 0, 69, 102
1, 16007, Note_on_c, 0, 65, 109
1, 16102, Note_off_c, 0, 65, 109
1, 16165, Note_on_c, 0, 62, 97
1, 16257, Note_off_c, 0, 62, 97
1, 16336, Note_on_c, 0, 59, 103
1, 16466, Note_off_c, 0, 59, 103
1, 16473, Note_on_c, 0, 60, 100
1, 16591, Note_off_c, 0, 60, 100
1, 17301, Note_on_c, 0, 70, 110
1, 17389, Note_off_c, 0, 70, 110
1, 17395, Note_on_c, 0, 72, 100
1, 17471, Note_off_c, 0, 72, 100
1, 17497, Note_on_c, 0, 73, 97
1, 17583, Note_off_c, 0, 73, 97
1, 17596, Note_on_c, 0, 70, 99
1, 17655, Note_off_c, 0, 70, 99
1, 17686, Note_on_c, 0, 67, 99
1, 17802, Note_off_c, 0, 67, 99
1, 17809, Note_on_c, 0, 68, 108
1, 17851, Note_off_c, 0, 68, 108
1, 17862, Note_on_c, 0, 70, 102
1, 17967, Note_off_c, 0, 70, 102
1, 17983, Note_on_c, 0, 72, 97
1, 18062, Note_off_c, 0, 72, 97
1, 18166, Note_on_c, 0, 65, 106
1, 18312, Note_off_c, 0, 65, 106
1, 18416, Note_on_c, 0, 67, 99
1, 18710, Note_off_c, 0, 67, 99
1, 18722, Note_on_c, 0, 68, 116
1, 18791, Note_off_c, 0, 68, 116
1, 18801, Note_on_c, 0, 64, 93
1, 18878, Note_off_c, 0, 64, 93
1, 18939, Note_on_c, 0, 65, 109
1, 18985, Note_off_c, 0, 65, 109
1, 18992, Note_on_c, 0, 67, 113
1, 19074, Note_off_c, 0, 67, 113
1, 19078, Note_on_c, 0, 68, 111
1, 19159, Note_off_c, 0, 68, 111
1, 19173, Note_on_c, 0, 70, 101
1, 19257, Note_off_c, 0, 70, 101
1, 19288, Note_on_c, 0, 71, 103
1, 19359, Note_off_c, 0, 71, 103
1, 19368, Note_on_c, 0, 72, 97
1, 19440, Note_off_c, 0, 72, 97
1, 19461, Note_on_c, 0, 75, 100
1, 19543, Note_off_c, 0, 75, 100
1, 19578, Note_on_c, 0, 74, 101
1, 19643, Note_off_c, 0, 74, 101
1, 19653, Note_on_c, 0, 69, 108
1, 19731, Note_off_c, 0, 69, 108
1, 19750, Note_on_c, 0, 66, 103
1, 19816, Note_off_c, 0, 66, 103
1, 19867, Note_on_c, 0, 63, 96
1, 19929, Note_off_c, 0, 63, 96
1, 19959, Note_on_c, 0, 59, 101
1, 20059, Note_off_c, 0, 59, 101
1, 20064, Note_on_c, 0, 60, 96
1, 20217, Note_off_c, 0, 60, 96
1, 20231, Note_on_c, 0, 62, 94
1, 20462, Note_off_c, 0, 62, 94
1, 20508, Note_on_c, 0, 66, 109
1, 20576, Note_off_c, 0, 66, 109
1, 21161, Note_on_c, 0, 67, 102
1, 21420, Note_off_c, 0, 67, 102
1, 21433, Note_on_c, 0, 70, 106
1, 21515, Note_off_c, 0, 70, 106
1, 21522, Note_on_c, 0, 67, 109
1, 21605, Note_off_c, 0, 67, 109
1, 21615, Note_on_c, 0, 65, 102
1, 21701, Note_off_c, 0, 65, 102
1, 21722, Note_on_c, 0, 63, 100
1, 21812, Note_off_c, 0, 63, 100
1, 21827, Note_on_c, 0, 62, 98
1, 21935, Note_off_c, 0, 62, 98
1, 21995, Note_on_c, 0, 65, 112
1, 22068, Note_off_c, 0, 65, 112
1, 22082, Note_on_c, 0, 69, 107
1, 22161, Note_off_c, 0, 69, 107
1, 22167, Note_on_c, 0, 72, 104
1, 22273, Note_off_c, 0, 72, 104
1, 22336, Note_on_c, 0, 71, 101
1, 22398, Note_off_c, 0, 71, 101
1, 22496, Note_on_c, 0, 67, 99
1, 22849, Note_off_c, 0, 67, 99
1, 22858, Note_on_c, 0, 65, 96
1, 22905, Note_off_c, 0, 65, 96
1, 22914, Note_on_c, 0, 64, 93
1, 22970, Note_off_c, 0, 64, 93
1, 23063, Note_on_c, 0, 62, 91
1, 23234, Note_off_c, 0, 62, 91
1, 24192, Note_on_c, 0, 58, 109
1, 24258, Note_off_c, 0, 58, 109
1, 24276, Note_on_c, 0, 61, 99
1, 24349, Note_off_c, 0, 61, 99
1, 24371, Note_on_c, 0, 66, 112
1, 24447, Note_off_c, 0, 66, 112
1, 24470, Note_on_c, 0, 70, 103
1, 24606, Note_off_c, 0, 70, 103
1, 24613, Note_on_c, 0, 72, 89
1, 24705, Note_off_c, 0, 72, 89
1, 24755, Note_on_c, 0, 73, 97
1, 25000, Note_off_c, 0, 73, 97
1, 25035, Note_on_c, 0, 72, 104
1, 25120, Note_off_c, 0, 72, 104
1, 25129, Note_on_c, 0, 70, 104
1, 25205, Note_off_c, 0, 70, 104
1, 25224, Note_on_c, 0, 68, 110
1, 25306, Note_off_c, 0, 68, 110
1, 25325, Note_on_c, 0, 70, 102
1, 25396, Note_off_c, 0, 70, 102
1, 25429, Note_on_c, 0, 67, 82
1, 25489, Note_off_c, 0, 67, 82
1, 25534, Note_on_c, 0, 68, 105
1, 25775, Note_off_c, 0, 68, 105
1, 25792, Note_on_c, 0, 67, 108
1, 25883, Note_off_c, 0, 67, 108
1, 25901, Note_on_c, 0, 66, 105
1, 25962, Note_off_c, 0, 66, 105
1, 25974, Note_on_c, 0, 65, 103
1, 26041, Note_off_c, 0, 65, 103
1, 26076, Note_on_c, 0, 60, 98
1, 26138, Note_off_c, 0, 60, 98
1, 26151, Note_on_c, 0, 55, 127
1, 26313, Note_off_c, 0, 55, 127
1, 26328, Note_on_c, 0, 60, 103
1, 26394, Note_off_c, 0, 60, 103
1, 27202, Note_on_c, 0, 65, 117
1, 27273, Note_off_c, 0, 65, 117
1, 27282, Note_on_c, 0, 67, 108
1, 27373, Note_off_c, 0, 67, 108
1, 27390, Note_on_c, 0, 68, 111
1, 27462, Note_off_c, 0, 68, 111
1, 27473, Note_on_c, 0, 70, 98
1, 27561, Note_off_c, 0, 70, 98
1, 27579, Note_on_c, 0, 71, 102
1, 27646, Note_off_c, 0, 71, 102
1, 27659, Note_on_c, 0, 68, 108
1, 27734, Note_off_c, 0, 68, 108
1, 27761, Note_on_c, 0, 71, 98
1, 27839, Note_off_c, 0, 71, 98
1, 27871, Note_on_c, 0, 70, 92
1, 27951, Note_off_c, 0, 70, 92
1, 28142, Note_on_c, 0, 68, 104
1, 28387, Note_off_c, 0, 68, 104
1, 28421, Note_on_c, 0, 70, 88
1, 28677, Note_off_c, 0, 70, 88
1, 28792, Note_on_c, 0, 65, 111
1, 28876, Note_off_c, 0, 65, 111
1, 28907, Note_on_c, 0, 67, 111
1, 28970, Note_off_c, 0, 67, 111
1, 28987, Note_on_c, 0, 68, 112
1, 29067, Note_off_c, 0, 68, 112
1, 29083, Note_on_c, 0, 70, 102
1, 29137, Note_off_c, 0, 70, 102
1, 29166, Note_on_c, 0, 67, 108
1, 29250, Note_off_c, 0, 67, 108
1, 29262, Note_on_c, 0, 70, 100
1, 29332, Note_off_c, 0, 70, 100
1, 29352, Note_on_c, 0, 68, 105
1, 29468, Note_off_c, 0, 68, 105
1, 29664, Note_on_c, 0, 65, 108
1, 29737, Note_off_c, 0, 65, 108
1, 29850, Note_on_c, 0, 65, 107
1, 29887, Note_off_c, 0, 65, 107
1, 29907, Note_on_c, 0, 67, 99
1, 30165, Note_off_c, 0, 67, 99
1, 30218, Note_on_c, 0, 60, 98
1, 30307, Note_off_c, 0, 60, 98
1, 30319, Note_on_c, 0, 62, 93
1, 30367, Note_off_c, 0, 62, 93
1, 30402, Note_on_c, 0, 63, 94
1, 30460, Note_off_c, 0, 63, 94
1, 30491, Note_on_c, 0, 65, 113
1, 30567, Note_off_c, 0, 65, 113
1, 30585, Note_on_c, 0, 67, 108
1, 30665, Note_off_c, 0, 67, 108
1, 30698, Note_on_c, 0, 63, 95
1, 30745, Note_off_c, 0, 63, 95
1, 30761, Note_on_c, 0, 67, 112
1, 30842, Note_off_c, 0, 67, 112
1, 30845, Note_on_c, 0, 65, 99
1, 30989, Note_off_c, 0, 65, 99
1, 31153, Note_on_c, 0, 57, 109
1, 31246, Note_off_c, 0, 57, 109
1, 31430, Note_on_c, 0, 59, 104
1, 31517, Note_off_c, 0, 59, 104
1, 31589, Note_on_c, 0, 59, 80
1, 31636, Note_off_c, 0, 59, 80
1, 31647, Note_on_c, 0, 62, 96
1, 31742, Note_off_c, 0, 62, 96
1, 31937, Note_on_c, 0, 60, 97
1, 32075, Note_off_c, 0, 60, 97
1, 32091, Note_on_c, 0, 67, 104
1, 32240, Note_off_c, 0, 67, 104
1, 32363, Note_on_c, 0, 67, 95
1, 32597, Note_off_c, 0, 67, 95
1, 33482, Note_on_c, 0, 66, 116
1, 33551, Note_off_c, 0, 66, 116
1, 33557, Note_on_c, 0, 69, 104
1, 33656, Note_off_c, 0, 69, 104
1, 33664, Note_on_c, 0, 72, 100
1, 33749, Note_off_c, 0, 72, 100
1, 33759, Note_on_c, 0, 74, 101
1, 33843, Note_off_c, 0, 74, 101
1, 33858, Note_on_c, 0, 75, 98
1, 33929, Note_off_c, 0, 75, 98
1, 33973, Note_on_c, 0, 74, 101
1, 34033, Note_off_c, 0, 74, 101
1, 34049, Note_on_c, 0, 72, 99
1, 34136, Note_off_c, 0, 72, 99
1, 34230, Note_on_c, 0, 74, 105
1, 34325, Note_off_c, 0, 74, 105
1, 34403, Note_on_c, 0, 67, 107
1, 34495, Note_off_c, 0, 67, 107
1, 34591, Note_on_c, 0, 63, 95
1, 34889, Note_off_c, 0, 63, 95
1, 34969, Note_on_c, 0, 65, 110
1, 35063, Note_off_c, 0, 65, 110
1, 35083, Note_on_c, 0, 68, 105
1, 35155, Note_off_c, 0, 68, 105
1, 35261, Note_on_c, 0, 75, 108
1, 35335, Note_off_c, 0, 75, 108
1, 35346, Note_on_c, 0, 74, 103
1, 35442, Note_off_c, 0, 74, 103
1, 35498, Note_on_c, 0, 67, 107
1, 35564, Note_off_c, 0, 67, 107
1, 36078, Note_on_c, 0, 79, 115
1, 36163, Note_off_c, 0, 79, 115
1, 36170, Note_on_c, 0, 77, 101
1, 36252, Note_off_c, 0, 77, 101
1, 36269, Note_on_c, 0, 75, 101
1, 36339, Note_off_c, 0, 75, 101
1, 36371, Note_on_c, 0, 74, 98
1, 36449, Note_off_c, 0, 74, 98
1, 36483, Note_on_c, 0, 72, 95
1, 36594, Note_off_c, 0, 72, 95
1, 36611, Note_on_c, 0, 67, 99
1, 36682, Note_off_c, 0, 67, 99
1, 36755, Note_on_c, 0, 69, 110
1, 36867, Note_off_c, 0, 69, 110
1, 36943, Note_on_c, 0, 72, 85
1, 37190, Note_off_c, 0, 72, 85
1, 37206, Note_on_c, 0, 71, 104
1, 37330, Note_off_c, 0, 71, 104
1, 37362, Note_on_c, 0, 74, 99
1, 37416, Note_off_c, 0, 74, 99
1, 37508, Note_on_c, 0, 67, 110
1, 37612, Note_off_c, 0, 67, 110
1, 37697, Note_on_c, 0, 74, 96
1, 37945, Note_off_c, 0, 74, 96
1, 37961, Note_on_c, 0, 72, 9
1, 38060, Note_off_c, 0, 72, 9
1, 38072, Note_on_c, 0, 70, 93
1, 38137, Note_off_c, 0, 70, 93
1, 38151, Note_on_c, 0, 67, 97
1, 38251, Note_off_c, 0, 67, 97
1, 38263, Note_on_c, 0, 63, 82
1, 38328, Note_off_c, 0, 63, 82
1, 38362, Note_on_c, 0, 65, 100
1, 38465, Note_off_c, 0, 65, 100
1, 38488, Note_on_c, 0, 66, 95
1, 38563, Note_off_c, 0, 66, 95
1, 38653, Note_on_c, 0, 67, 96
1, 38899, Note_off_c, 0, 67, 96
1, 38935, Note_on_c, 0, 62, 82
1, 39009, Note_off_c, 0, 62, 82
1, 39021, Note_on_c, 0, 55, 88
1, 39665, Note_off_c, 0, 55, 88
1, 40035, Note_on_c, 0, 58, 97
1, 40066, Note_off_c, 0, 58, 97
1, 40083, Note_on_c, 0, 61, 93
1, 40155, Note_off_c, 0, 61, 93
1, 40194, Note_on_c, 0, 69, 99
1, 40309, Note_off_c, 0, 69, 99
1, 40368, Note_on_c, 0, 73, 81
1, 40614, Note_off_c, 0, 73, 81
1, 40626, Note_on_c, 0, 72, 95
1, 40711, Note_off_c, 0, 72, 95
1, 40721, Note_on_c, 0, 71, 94
1, 40797, Note_off_c, 0, 71, 94
1, 40807, Note_on_c, 0, 70, 93
1, 40897, Note_off_c, 0, 70, 93
1, 40911, Note_on_c, 0, 69, 89
1, 40990, Note_off_c, 0, 69, 89
1, 41024, Note_on_c, 0, 68, 99
1, 41116, Note_off_c, 0, 68, 99
1, 41125, Note_on_c, 0, 67, 95
1, 41159, Note_off_c, 0, 67, 95
1, 41162, Note_on_c, 0, 68, 101
1, 41243, Note_off_c, 0, 68, 101
1, 41294, Note_on_c, 0, 68, 94
1, 41558, Note_off_c, 0, 68, 94
1, 41569, Note_on_c, 0, 68, 98
1, 41703, Note_off_c, 0, 68, 98
1, 41711, Note_on_c, 0, 68, 100
1, 41782, Note_off_c, 0, 68, 100
1, 41879, Note_on_c, 0, 68, 99
1, 42115, Note_off_c, 0, 68, 99
1, 42121, Note_on_c, 0, 65, 87
1, 42376, Note_off_c, 0, 65, 87
1, 43226, Note_on_c, 0, 66, 96
1, 43436, Note_off_c, 0, 66, 96
1, 43445, Note_on_c, 0, 67, 99
1, 43585, Note_off_c, 0, 67, 99
1, 43642, Note_on_c, 0, 70, 88
1, 43941, Note_off_c, 0, 70, 88
1, 43961, Note_on_c, 0, 67, 102
1, 44043, Note_off_c, 0, 67, 102
1, 44055, Note_on_c, 0, 65, 92
1, 44210, Note_off_c, 0, 65, 92
1, 44358, Note_on_c, 0, 67, 93
1, 44705, Note_off_c, 0, 67, 93
1, 44721, Note_on_c, 0, 64, 95
1, 44788, Note_off_c, 0, 64, 95
1, 44797, Note_on_c, 0, 62, 94
1, 44929, Note_off_c, 0, 62, 94
1, 44967, Note_on_c, 0, 60, 93
1, 45059, Note_off_c, 0, 60, 93
1, 45080, Note_on_c, 0, 59, 96
1, 45406, Note_off_c, 0, 59, 96
1, 45445, Note_on_c, 0, 55, 109
1, 45525, Note_off_c, 0, 55, 109
1, 45534, Note_on_c, 0, 57, 90
1, 45667, Note_off_c, 0, 57, 90
1, 45681, Note_on_c, 0, 59, 94
1, 45726, Note_off_c, 0, 59, 94
1, 45837, Note_on_c, 0, 62, 90
1, 46001, Note_off_c, 0, 62, 90
1, 46802, Note_on_c, 0, 60, 82
1, 47263, Note_off_c, 0, 60, 82
1, 47567, Note_on_c, 0, 62, 100
1, 47640, Note_off_c, 0, 62, 100
1, 47654, Note_on_c, 0, 63, 101
1, 47741, Note_off_c, 0, 63, 101
1, 47751, Note_on_c, 0, 65, 103
1, 47823, Note_off_c, 0, 65, 103
1, 47834, Note_on_c, 0, 67, 94
1, 47997, Note_off_c, 0, 67, 94
1, 48006, Note_on_c, 0, 67, 85
1, 48112, Note_off_c, 0, 67, 85
1, 48126, Note_on_c, 0, 67, 87
1, 48742, Note_off_c, 0, 67, 87
1, 49075, Note_on_c, 0, 65, 110
1, 49149, Note_off_c, 0, 65, 110
1, 49160, Note_on_c, 0, 63, 92
1, 49246, Note_off_c, 0, 63, 92
1, 49289, Note_on_c, 0, 60, 96
1, 49350, Note_off_c, 0, 60, 96
1, 49373, Note_on_c, 0, 62, 92
1, 49468, Note_off_c, 0, 62, 92
1, 49527, Note_on_c, 0, 59, 89
1, 49606, Note_off_c, 0, 59, 89
1, 49640, Note_on_c, 0, 60, 92
1, 49778, Note_off_c, 0, 60, 92
1, 49805, Note_on_c, 0, 62, 92
1, 49878, Note_off_c, 0, 62, 92
1, 49910, Note_on_c, 0, 63, 93
1, 49980, Note_off_c, 0, 63, 93
1, 50005, Note_on_c, 0, 65, 103
1, 50078, Note_off_c, 0, 65, 103
1, 50093, Note_on_c, 0, 67, 98
1, 50182, Note_off_c, 0, 67, 98
1, 51539, Note_on_c, 0, 72, 88
1, 51762, Note_off_c, 0, 72, 88
1, 51793, Note_on_c, 0, 77, 92
1, 51887, Note_off_c, 0, 77, 92
1, 51907, Note_on_c, 0, 72, 96
1, 51974, Note_off_c, 0, 72, 96
1, 51990, Note_on_c, 0, 70, 93
1, 52077, Note_off_c, 0, 70, 93
1, 52086, Note_on_c, 0, 69, 96
1, 52175, Note_off_c, 0, 69, 96
1, 52180, Note_on_c, 0, 68, 101
1, 52271, Note_off_c, 0, 68, 101
1, 52276, Note_on_c, 0, 67, 100
1, 52356, Note_off_c, 0, 67, 100
1, 52366, Note_on_c, 0, 65, 99
1, 52451, Note_off_c, 0, 65, 99
1, 52485, Note_on_c, 0, 66, 100
1, 52547, Note_off_c, 0, 66, 100
1, 52555, Note_on_c, 0, 69, 88
1, 52639, Note_off_c, 0, 69, 88
1, 52646, Note_on_c, 0, 72, 94
1, 52724, Note_off_c, 0, 72, 94
1, 52756, Note_on_c, 0, 75, 99
1, 52858, Note_off_c, 0, 75, 99
1, 52927, Note_on_c, 0, 74, 100
1, 53014, Note_off_c, 0, 74, 100
1, 53017, Note_on_c, 0, 73, 89
1, 53094, Note_off_c, 0, 73, 89
1, 53112, Note_on_c, 0, 72, 93
1, 53202, Note_off_c, 0, 72, 93
1, 53219, Note_on_c, 0, 69, 98
1, 53289, Note_off_c, 0, 69, 98
1, 53300, Note_on_c, 0, 66, 94
1, 53391, Note_off_c, 0, 66, 94
1, 53430, Note_on_c, 0, 66, 83
1, 53480, Note_off_c, 0, 66, 83
1, 53514, Note_on_c, 0, 70, 95
1, 53615, Note_off_c, 0, 70, 95
1, 53674, Note_on_c, 0, 69, 102
1, 53768, Note_off_c, 0, 69, 102
1, 53775, Note_on_c, 0, 68, 102
1, 53853, Note_off_c, 0, 68, 102
1, 53863, Note_on_c, 0, 67, 97
1, 53964, Note_off_c, 0, 67, 97
1, 53976, Note_on_c, 0, 64, 97
1, 54026, Note_off_c, 0, 64, 97
1, 54035, Note_on_c, 0, 59, 104
1, 54115, Note_off_c, 0, 59, 104
1, 54184, Note_on_c, 0, 56, 114
1, 54222, Note_off_c, 0, 56, 114
1, 54231, Note_on_c, 0, 55, 99
1, 54392, Note_off_c, 0, 55, 99
1, 54456, Note_on_c, 0, 58, 89
1, 54527, Note_off_c, 0, 58, 89
1, 54566, Note_on_c, 0, 62, 88
1, 54606, Note_off_c, 0, 62, 88
1, 54616, Note_on_c, 0, 65, 105
1, 54716, Note_off_c, 0, 65, 105
1, 54751, Note_on_c, 0, 62, 88
1, 54805, Note_off_c, 0, 62, 88
1, 54821, Note_on_c, 0, 63, 90
1, 54905, Note_off_c, 0, 63, 90
1, 54917, Note_on_c, 0, 65, 105
1, 55004, Note_off_c, 0, 65, 105
1, 55017, Note_on_c, 0, 67, 102
1, 55097, Note_off_c, 0, 67, 102
1, 55188, Note_on_c, 0, 68, 106
1, 55271, Note_off_c, 0, 68, 106
1, 55290, Note_on_c, 0, 65, 96
1, 55357, Note_off_c, 0, 65, 96
1, 55367, Note_on_c, 0, 61, 87
1, 55469, Note_off_c, 0, 61, 87
1, 55498, Note_on_c, 0, 56, 107
1, 55539, Note_off_c, 0, 56, 107
1, 55556, Note_on_c, 0, 55, 99
1, 55636, Note_off_c, 0, 55, 99
1, 55679, Note_on_c, 0, 55, 113
1, 55746, Note_off_c, 0, 55, 113
1, 55776, Note_on_c, 0, 59, 100
1, 55847, Note_off_c, 0, 59, 100
1, 55874, Note_on_c, 0, 62, 93
1, 55949, Note_off_c, 0, 62, 93
1, 56044, Note_on_c, 0, 60, 99
1, 56123, Note_off_c, 0, 60, 99
1, 56133, Note_on_c, 0, 64, 96
1, 56200, Note_off_c, 0, 64, 96
1, 56223, Note_on_c, 0, 67, 106
1, 56299, Note_off_c, 0, 67, 106
1, 56320, Note_on_c, 0, 71, 96
1, 56388, Note_off_c, 0, 71, 96
1, 56405, Note_on_c, 0, 74, 93
1, 56485, Note_off_c, 0, 74, 93
1, 56492, Note_on_c, 0, 71, 94
1, 56579, Note_off_c, 0, 71, 94
1, 56593, Note_on_c, 0, 67, 97
1, 56669, Note_off_c, 0, 67, 97
1, 56676, Note_on_c, 0, 64, 90
1, 56769, Note_off_c, 0, 64, 90
1, 56787, Note_on_c, 0, 59, 96
1, 56858, Note_off_c, 0, 59, 96
1, 56868, Note_on_c, 0, 62, 89
1, 56956, Note_off_c, 0, 62, 89
1, 56976, Note_on_c, 0, 61, 90
1, 57036, Note_off_c, 0, 61, 90
1, 57052, Note_on_c, 0, 60, 93
1, 57135, Note_off_c, 0, 60, 93
1, 57145, Note_on_c, 0, 59, 97
1, 57224, Note_off_c, 0, 59, 97
1, 57244, Note_on_c, 0, 58, 92
1, 57339, Note_off_c, 0, 58, 92
1, 57347, Note_on_c, 0, 61, 82
1, 57399, Note_off_c, 0, 61, 82
1, 57420, Note_on_c, 0, 66, 103
1, 57507, Note_off_c, 0, 66, 103
1, 57521, Note_on_c, 0, 67, 97
1, 57619, Note_off_c, 0, 67, 97
1, 57629, Note_on_c, 0, 68, 100
1, 57744, Note_off_c, 0, 68, 100
1, 57767, Note_on_c, 0, 69, 94
1, 57891, Note_off_c, 0, 69, 94
1, 57931, Note_on_c, 0, 70, 93
1, 58185, Note_off_c, 0, 70, 93
1, 58204, Note_on_c, 0, 67, 97
1, 58297, Note_off_c, 0, 67, 97
1, 58316, Note_on_c, 0, 68, 99
1, 58385, Note_off_c, 0, 68, 99
1, 58673, Note_on_c, 0, 67, 91
1, 58940, Note_off_c, 0, 67, 91
1, 58976, Note_on_c, 0, 64, 89
1, 59049, Note_off_c, 0, 64, 89
1, 59059, Note_on_c, 0, 65, 104
1, 59140, Note_off_c, 0, 65, 104
1, 59812, Note_on_c, 0, 67, 105
1, 59918, Note_off_c, 0, 67, 105
1, 59923, Note_on_c, 0, 68, 100
1, 60017, Note_off_c, 0, 68, 100
1, 60023, Note_on_c, 0, 72, 76
1, 60081, Note_off_c, 0, 72, 76
1, 60085, Note_on_c, 0, 75, 97
1, 60179, Note_off_c, 0, 75, 97
1, 60199, Note_on_c, 0, 80, 89
1, 60392, Note_off_c, 0, 80, 89
1, 60402, Note_on_c, 0, 79, 104
1, 60475, Note_off_c, 0, 79, 104
1, 60574, Note_on_c, 0, 77, 102
1, 60659, Note_off_c, 0, 77, 102
1, 60667, Note_on_c, 0, 75, 94
1, 60766, Note_off_c, 0, 75, 94
1, 60776, Note_on_c, 0, 71, 79
1, 60897, Note_off_c, 0, 71, 79
1, 61046, Note_on_c, 0, 70, 87
1, 61309, Note_off_c, 0, 70, 87
1, 61323, Note_on_c, 0, 67, 107
1, 61412, Note_off_c, 0, 67, 107
1, 61423, Note_on_c, 0, 68, 103
1, 61505, Note_off_c, 0, 68, 103
1, 61537, Note_on_c, 0, 69, 99
1, 61611, Note_off_c, 0, 69, 99
1, 61621, Note_on_c, 0, 70, 91
1, 61692, Note_off_c, 0, 70, 91
1, 61707, Note_on_c, 0, 71, 92
1, 61770, Note_off_c, 0, 71, 92
1, 61789, Note_on_c, 0, 72, 91
1, 61885, Note_off_c, 0, 72, 91
1, 61899, Note_on_c, 0, 70, 93
1, 61962, Note_off_c, 0, 70, 93
1, 62005, Note_on_c, 0, 67, 99
1, 62077, Note_off_c, 0, 67, 99
1, 62184, Note_on_c, 0, 68, 105
1, 62253, Note_off_c, 0, 68, 105
1, 62265, Note_on_c, 0, 67, 96
1, 62338, Note_off_c, 0, 67, 96
1, 62358, Note_on_c, 0, 63, 92
1, 62436, Note_off_c, 0, 63, 92
1, 62476, Note_on_c, 0, 62, 104
1, 62526, Note_off_c, 0, 62, 104
1, 62543, Note_on_c, 0, 69, 103
1, 62632, Note_off_c, 0, 69, 103
1, 62648, Note_on_c, 0, 65, 97
1, 62710, Note_off_c, 0, 65, 97
1, 62711, Note_on_c, 0, 62, 95
1, 62839, Note_off_c, 0, 62, 95
1, 62850, Note_on_c, 0, 60, 94
1, 62905, Note_off_c, 0, 60, 94
1, 62915, Note_on_c, 0, 59, 99
1, 63021, Note_off_c, 0, 59, 99
1, 63024, Note_on_c, 0, 62, 98
1, 63072, Note_off_c, 0, 62, 98
1, 63105, Note_on_c, 0, 65, 101
1, 63182, Note_off_c, 0, 65, 101
1, 63210, Note_on_c, 0, 68, 96
1, 63299, Note_off_c, 0, 68, 96
1, 63312, Note_on_c, 0, 67, 98
1, 63461, Note_off_c, 0, 67, 98
1, 63473, Note_on_c, 0, 63, 96
1, 63542, Note_off_c, 0, 63, 96
1, 63660, Note_on_c, 0, 62, 83
1, 64383, Note_off_c, 0, 62, 83
1, 64392, Note_on_c, 0, 62, 85
1, 65103, Note_off_c, 0, 62, 85
1, 65146, Note_on_c, 0, 55, 92
1, 65488, Note_off_c, 0, 55, 92
1, 66312, Note_on_c, 0, 60, 95
1, 66433, Note_off_c, 0, 60, 95
1, 66449, Note_on_c, 0, 62, 83
1, 66497, Note_off_c, 0, 62, 83
1, 66519, Note_on_c, 0, 63, 95
1, 66671, Note_off_c, 0, 63, 95
1, 66772, Note_on_c, 0, 60, 81
1, 66821, Note_off_c, 0, 60, 81
1, 66849, Note_on_c, 0, 63, 80
1, 66900, Note_off_c, 0, 63, 80
1, 66991, Note_on_c, 0, 65, 106
1, 67078, Note_off_c, 0, 65, 106
1, 67087, Note_on_c, 0, 66, 104
1, 67178, Note_off_c, 0, 66, 104
1, 67188, Note_on_c, 0, 65, 100
1, 67244, Note_off_c, 0, 65, 100
1, 67262, Note_on_c, 0, 63, 95
1, 67350, Note_off_c, 0, 63, 95
1, 67437, Note_on_c, 0, 62, 95
1, 67549, Note_off_c, 0, 62, 95
1, 67572, Note_on_c, 0, 60, 90
1, 67654, Note_off_c, 0, 60, 90
1, 67668, Note_on_c, 0, 55, 124
1, 67760, Note_off_c, 0, 55, 124
1, 67789, Note_on_c, 0, 60, 92
1, 67871, Note_off_c, 0, 60, 92
1, 69120, Note_on_c, 0, 60, 94
1, 69168, Note_off_c, 0, 60, 94
1, 69174, Note_on_c, 0, 62, 95
1, 69243, Note_off_c, 0, 62, 95
1, 69254, Note_on_c, 0, 59, 102
1, 69301, Note_off_c, 0, 59, 102
1, 69324, Note_on_c, 0, 60, 92
1, 69358, Note_off_c, 0, 60, 92
1, 69363, Note_on_c, 0, 62, 93
1, 69396, Note_off_c, 0, 62, 93
1, 69401, Note_on_c, 0, 63, 99
1, 69470, Note_off_c, 0, 63, 99
1, 69636, Note_on_c, 0, 67, 91
1, 69881, Note_off_c, 0, 67, 91
1, 69915, Note_on_c, 0, 72, 93
1, 70047, Note_off_c, 0, 72, 93
1, 70102, Note_on_c, 0, 57, 87
1, 70306, Note_off_c, 0, 57, 87
1, 70419, Note_on_c, 0, 65, 96
1, 70659, Note_off_c, 0, 65, 96
1, 70680, Note_on_c, 0, 71, 94
1, 70787, Note_off_c, 0, 71, 94
1, 70899, Note_on_c, 0, 55, 96
1, 70993, Note_off_c, 0, 55, 96
1, 71172, Note_on_c, 0, 63, 93
1, 71411, Note_off_c, 0, 63, 93
1, 71461, Note_on_c, 0, 72, 95
1, 71583, Note_off_c, 0, 72, 95
1, 71613, Note_on_c, 0, 62, 83
1, 71710, Note_off_c, 0, 62, 83
1, 71725, Note_on_c, 0, 65, 106
1, 71795, Note_off_c, 0, 65, 106
1, 71805, Note_on_c, 0, 69, 104
1, 71890, Note_off_c, 0, 69, 104
1, 71930, Note_on_c, 0, 72, 97
1, 71987, Note_off_c, 0, 72, 97
1, 71997, Note_on_c, 0, 71, 92
1, 72082, Note_off_c, 0, 71, 92
1, 72098, Note_on_c, 0, 74, 97
1, 72152, Note_off_c, 0, 74, 97
1, 72185, Note_on_c, 0, 67, 86
1, 72270, Note_off_c, 0, 67, 86
1, 73063, Note_on_c, 0, 60, 102
1, 73133, Note_off_c, 0, 60, 102
1, 73144, Note_on_c, 0, 61, 86
1, 73258, Note_off_c, 0, 61, 86
1, 73263, Note_on_c, 0, 65, 105
1, 73327, Note_off_c, 0, 65, 105
1, 73329, Note_on_c, 0, 67, 102
1, 73422, Note_off_c, 0, 67, 102
1, 73438, Note_on_c, 0, 70, 92
1, 73507, Note_off_c, 0, 70, 92
1, 73516, Note_on_c, 0, 72, 93
1, 73634, Note_off_c, 0, 72, 93
1, 73657, Note_on_c, 0, 73, 91
1, 73742, Note_off_c, 0, 73, 91
1, 73813, Note_on_c, 0, 72, 87
1, 74073, Note_off_c, 0, 72, 87
1, 74092, Note_on_c, 0, 70, 96
1, 74214, Note_off_c, 0, 70, 96
1, 74229, Note_on_c, 0, 72, 85
1, 74361, Note_off_c, 0, 72, 85
1, 74404, Note_on_c, 0, 70, 90
1, 74632, Note_off_c, 0, 70, 90
1, 74642, Note_on_c, 0, 68, 104
1, 74738, Note_off_c, 0, 68, 104
1, 74747, Note_on_c, 0, 70, 95
1, 74831, Note_off_c, 0, 70, 95
1, 74859, Note_on_c, 0, 67, 91
1, 74927, Note_off_c, 0, 67, 91
1, 74937, Note_on_c, 0, 68, 104
1, 75015, Note_off_c, 0, 68, 104
1, 75029, Note_on_c, 0, 65, 96
1, 75114, Note_off_c, 0, 65, 96
1, 75139, Note_on_c, 0, 67, 103
1, 75205, Note_off_c, 0, 67, 103
1, 75214, Note_on_c, 0, 68, 102
1, 75317, Note_off_c, 0, 68, 102
1, 75419, Note_on_c, 0, 66, 96
1, 75576, Note_off_c, 0, 66, 96
1, 75628, Note_on_c, 0, 63, 88
1, 75701, Note_off_c, 0, 63, 88
1, 75750, Note_on_c, 0, 60, 9
1, 75947, Note_off_c, 0, 60, 9
1, 76664, Note_on_c, 0, 70, 105
1, 76737, Note_off_c, 0, 70, 105
1, 76751, Note_on_c, 0, 72, 100
1, 76851, Note_off_c, 0, 72, 100
1, 76857, Note_on_c, 0, 75, 98
1, 76933, Note_off_c, 0, 75, 98
1, 76944, Note_on_c, 0, 74, 98
1, 77032, Note_off_c, 0, 74, 98
1, 77043, Note_on_c, 0, 70, 98
1, 77109, Note_off_c, 0, 70, 98
1, 77141, Note_on_c, 0, 72, 100
1, 77246, Note_off_c, 0, 72, 100
1, 77251, Note_on_c, 0, 68, 85
1, 77290, Note_off_c, 0, 68, 85
1, 77307, Note_on_c, 0, 70, 84
1, 77763, Note_off_c, 0, 70, 84
1, 77823, Note_on_c, 0, 67, 108
1, 77897, Note_off_c, 0, 67, 108
1, 77906, Note_on_c, 0, 69, 104
1, 77988, Note_off_c, 0, 69, 104
1, 77998, Note_on_c, 0, 72, 98
1, 78068, Note_off_c, 0, 72, 98
1, 78077, Note_on_c, 0, 71, 93
1, 78168, Note_off_c, 0, 71, 93
1, 78184, Note_on_c, 0, 67, 103
1, 78266, Note_off_c, 0, 67, 103
1, 78282, Note_on_c, 0, 69, 103
1, 78360, Note_off_c, 0, 69, 103
1, 78389, Note_on_c, 0, 65, 98
1, 78460, Note_off_c, 0, 65, 98
1, 78474, Note_on_c, 0, 67, 94
1, 78769, Note_off_c, 0, 67, 94
1, 78805, Note_on_c, 0, 64, 86
1, 78839, Note_off_c, 0, 64, 86
1, 78852, Note_on_c, 0, 65, 103
1, 78957, Note_off_c, 0, 65, 103
1, 78963, Note_on_c, 0, 66, 104
1, 79031, Note_off_c, 0, 66, 104
1, 79043, Note_on_c, 0, 67, 104
1, 79123, Note_off_c, 0, 67, 104
1, 79145, Note_on_c, 0, 64, 97
1, 79223, Note_off_c, 0, 64, 97
1, 79235, Note_on_c, 0, 62, 87
1, 79326, Note_off_c, 0, 62, 87
1, 79329, Note_on_c, 0, 61, 93
1, 79368, Note_off_c, 0, 61, 93
1, 79374, Note_on_c, 0, 60, 98
1, 79407, Note_off_c, 0, 60, 98
1, 79413, Note_on_c, 0, 59, 103
1, 79493, Note_off_c, 0, 59, 103
1, 79513, Note_on_c, 0, 60, 97
1, 79547, Note_off_c, 0, 60, 97
1, 79552, Note_on_c, 0, 61, 96
1, 79587, Note_off_c, 0, 61, 96
1, 79596, Note_on_c, 0, 60, 101
1, 79633, Note_off_c, 0, 60, 101
1, 79639, Note_on_c, 0, 62, 95
1, 79694, Note_off_c, 0, 62, 95
1, 79700, Note_on_c, 0, 60, 92
1, 79749, Note_off_c, 0, 60, 92
1, 79778, Note_on_c, 0, 59, 103
1, 79886, Note_off_c, 0, 59, 103
1, 79899, Note_on_c, 0, 62, 91
1, 79931, Note_off_c, 0, 62, 91
1, 79946, Note_on_c, 0, 60, 104
1, 79991, Note_off_c, 0, 60, 104
1, 80013, Note_on_c, 0, 62, 93
1, 80663, Note_off_c, 0, 62, 93
1, 80667, Note_on_c, 0, 67, 84
1, 81110, Note_off_c, 0, 67, 84
1, 81660, Note_on_c, 0, 62, 108
1, 81714, Note_off_c, 0, 62, 108
1, 81820, Note_on_c, 0, 62, 100
1, 81880, Note_off_c, 0, 62, 100
1, 81945, Note_on_c, 0, 62, 97
1, 82018, Note_off_c, 0, 62, 97
1, 82052, Note_on_c, 0, 59, 101
1, 82139, Note_off_c, 0, 59, 101
1, 82147, Note_on_c, 0, 60, 92
1, 82229, Note_off_c, 0, 60, 92
1, 82257, Note_on_c, 0, 70, 92
1, 82465, Note_off_c, 0, 70, 92
1, 82484, Note_on_c, 0, 68, 89
1, 82526, Note_off_c, 0, 68, 89
1, 82554, Note_on_c, 0, 63, 93
1, 82610, Note_off_c, 0, 63, 93
1, 82617, Note_on_c, 0, 59, 100
1, 82692, Note_off_c, 0, 59, 100
1, 82699, Note_on_c, 0, 58, 106
1, 82774, Note_off_c, 0, 58, 106
1, 82779, Note_on_c, 0, 56, 106
1, 82838, Note_off_c, 0, 56, 106
1, 82935, Note_on_c, 0, 56, 115
1, 82999, Note_off_c, 0, 56, 115
1, 83032, Note_on_c, 0, 62, 97
1, 83149, Note_off_c, 0, 62, 97
1, 83169, Note_on_c, 0, 59, 99
1, 83230, Note_off_c, 0, 59, 99
1, 83348, Note_on_c, 0, 62, 95
1, 83416, Note_off_c, 0, 62, 95
1, 83428, Note_on_c, 0, 63, 92
1, 83516, Note_off_c, 0, 63, 92
1, 83537, Note_on_c, 0, 65, 104
1, 83606, Note_off_c, 0, 65, 104
1, 83622, Note_on_c, 0, 67, 103
1, 83719, Note_off_c, 0, 67, 103
1, 83724, Note_on_c, 0, 68, 105
1, 83788, Note_off_c, 0, 68, 105
1, 83806, Note_on_c, 0, 70, 96
1, 83928, Note_off_c, 0, 70, 96
1, 83960, Note_on_c, 0, 72, 94
1, 84055, Note_off_c, 0, 72, 94
1, 84106, Note_on_c, 0, 72, 82
1, 84443, Note_off_c, 0, 72, 82
1, 85520, Note_on_c, 0, 77, 107
1, 85634, Note_off_c, 0, 77, 107
1, 85637, Note_on_c, 0, 76, 103
1, 85704, Note_off_c, 0, 76, 103
1, 85717, Note_on_c, 0, 72, 97
1, 85793, Note_off_c, 0, 72, 97
1, 85825, Note_on_c, 0, 75, 95
1, 85895, Note_off_c, 0, 75, 95
1, 85905, Note_on_c, 0, 74, 96
1, 85985, Note_off_c, 0, 74, 96
1, 86039, Note_on_c, 0, 70, 90
1, 86275, Note_off_c, 0, 70, 90
1, 86292, Note_on_c, 0, 71, 98
1, 86403, Note_off_c, 0, 71, 98
1, 86476, Note_on_c, 0, 72, 100
1, 86575, Note_off_c, 0, 72, 100
1, 86675, Note_on_c, 0, 65, 94
1, 86774, Note_off_c, 0, 65, 94
1, 86858, Note_on_c, 0, 68, 106
1, 87000, Note_off_c, 0, 68, 106
1, 87009, Note_on_c, 0, 69, 96
1, 87121, Note_off_c, 0, 69, 96
1, 87165, Note_on_c, 0, 70, 97
1, 87278, Note_off_c, 0, 70, 97
1, 87358, Note_on_c, 0, 58, 89
1, 87537, Note_off_c, 0, 58, 89
1, 87558, Note_on_c, 0, 58, 103
1, 87612, Note_off_c, 0, 58, 103
1, 87619, Note_on_c, 0, 66, 107
1, 87739, Note_off_c, 0, 66, 107
1, 87803, Note_on_c, 0, 67, 106
1, 87903, Note_off_c, 0, 67, 106
1, 87972, Note_on_c, 0, 68, 101
1, 88089, Note_off_c, 0, 68, 101
1, 88160, Note_on_c, 0, 60, 87
1, 88255, Note_off_c, 0, 60, 87
1, 88379, Note_on_c, 0, 65, 104
1, 88505, Note_off_c, 0, 65, 104
1, 88535, Note_on_c, 0, 66, 103
1, 88633, Note_off_c, 0, 66, 103
1, 88673, Note_on_c, 0, 67, 106
1, 88749, Note_off_c, 0, 67, 106
1, 88858, Note_on_c, 0, 60, 98
1, 88951, Note_off_c, 0, 60, 98
1, 89025, Note_on_c, 0, 64, 88
1, 89556, Note_off_c, 0, 64, 88
1, 90002, Note_on_c, 0, 62, 103
1, 90058, Note_off_c, 0, 62, 103
1, 90071, Note_on_c, 0, 59, 104
1, 90177, Note_off_c, 0, 59, 104
1, 90182, Note_on_c, 0, 60, 98
1, 90240, Note_off_c, 0, 60, 98
1, 90277, Note_on_c, 0, 64, 98
1, 90374, Note_off_c, 0, 64, 98
1, 90387, Note_on_c, 0, 67, 108
1, 90474, Note_off_c, 0, 67, 108
1, 90556, Note_on_c, 0, 69, 88
1, 91194, Note_off_c, 0, 69, 88
1, 91500, Note_on_c, 0, 70, 104
1, 91569, Note_off_c, 0, 70, 104
1, 91576, Note_on_c, 0, 72, 92
1, 91702, Note_off_c, 0, 72, 92
1, 91712, Note_on_c, 0, 73, 93
1, 91769, Note_off_c, 0, 73, 93
1, 91825, Note_on_c, 0, 72, 91
1, 91912, Note_off_c, 0, 72, 91
1, 91962, Note_on_c, 0, 70, 94
1, 92052, Note_off_c, 0, 70, 94
1, 92081, Note_on_c, 0, 67, 88
1, 92672, Note_off_c, 0, 67, 88
1, 92930, Note_on_c, 0, 60, 82
1, 92987, Note_off_c, 0, 60, 82
1, 93031, Note_on_c, 0, 65, 110
1, 93116, Note_off_c, 0, 65, 110
1, 93124, Note_on_c, 0, 67, 104
1, 93215, Note_off_c, 0, 67, 104
1, 93227, Note_on_c, 0, 68, 107
1, 93306, Note_off_c, 0, 68, 107
1, 93328, Note_on_c, 0, 70, 95
1, 93396, Note_off_c, 0, 70, 95
1, 93471, Note_on_c, 0, 71, 94
1, 93574, Note_off_c, 0, 71, 94
1, 93634, Note_on_c, 0, 68, 93
1, 94233, Note_off_c, 0, 68, 93
1, 94563, Note_on_c, 0, 56, 103
1, 94649, Note_off_c, 0, 56, 103
1, 94666, Note_on_c, 0, 59, 102
1, 94749, Note_off_c, 0, 59, 102
1, 94762, Note_on_c, 0, 62, 96
1, 94835, Note_off_c, 0, 62, 96
1, 94846, Note_on_c, 0, 64, 102
1, 94939, Note_off_c, 0, 64, 102
1, 94959, Note_on_c, 0, 68, 108
1, 95035, Note_off_c, 0, 68, 108
1, 95118, Note_on_c, 0, 70, 94
1, 95365, Note_off_c, 0, 70, 94
1, 95394, Note_on_c, 0, 67, 107
1, 95486, Note_off_c, 0, 67, 107
1, 95506, Note_on_c, 0, 68, 107
1, 95577, Note_off_c, 0, 68, 107
1, 95605, Note_on_c, 0, 65, 101
1, 95700, Note_off_c, 0, 65, 101
1, 95719, Note_on_c, 0, 66, 104
1, 95807, Note_off_c, 0, 66, 104
1, 95887, Note_on_c, 0, 67, 98
1, 96118, Note_off_c, 0, 67, 98
1, 96147, Note_on_c, 0, 64, 99
1, 96231, Note_off_c, 0, 64, 99
1, 96275, Note_on_c, 0, 60, 104
1, 96318, Note_off_c, 0, 60, 104
1, 96331, Note_on_c, 0, 59, 101
1, 96437, Note_off_c, 0, 59, 101
1, 96484, Note_on_c, 0, 65, 103
1, 96566, Note_off_c, 0, 65, 103
1, 96634, Note_on_c, 0, 67, 89
1, 97367, Note_off_c, 0, 67, 89
1, 97377, Note_on_c, 0, 65, 91
1, 97414, Note_off_c, 0, 65, 91
1, 97426, Note_on_c, 0, 63, 97
1, 97477, Note_off_c, 0, 63, 97
1, 97494, Note_on_c, 0, 62, 92
1, 97585, Note_off_c, 0, 62, 92
1, 97599, Note_on_c, 0, 62, 89
1, 98001, Note_off_c, 0, 62, 89
1, 98369, Note_on_c, 0, 60, 102
1, 98430, Note_off_c, 0, 60, 102
1, 98435, Note_on_c, 0, 62, 103
1, 98541, Note_off_c, 0, 62, 103
1, 98549, Note_on_c, 0, 59, 103
1, 98620, Note_off_c, 0, 59, 103
1, 98622, Note_on_c, 0, 60, 96
1, 98734, Note_off_c, 0, 60, 96
1, 98754, Note_on_c, 0, 62, 95
1, 98818, Note_off_c, 0, 62, 95
1, 98836, Note_on_c, 0, 63, 98
1, 98904, Note_off_c, 0, 63, 98
1, 98941, Note_on_c, 0, 65, 109
1, 99037, Note_off_c, 0, 65, 109
1, 99102, Note_on_c, 0, 57, 92
1, 99174, Note_off_c, 0, 57, 92
1, 99194, Note_on_c, 0, 60, 104
1, 99294, Note_off_c, 0, 60, 104
1, 99301, Note_on_c, 0, 59, 102
1, 99446, Note_off_c, 0, 59, 102
1, 99879, Note_on_c, 0, 67, 99
1, 100140, Note_off_c, 0, 67, 99
1, 100160, Note_on_c, 0, 65, 103
1, 100251, Note_off_c, 0, 65, 103
1, 100273, Note_on_c, 0, 63, 96
1, 100342, Note_off_c, 0, 63, 96
1, 100350, Note_on_c, 0, 60, 98
1, 100446, Note_off_c, 0, 60, 98
1, 100453, Note_on_c, 0, 56, 103
1, 100510, Note_off_c, 0, 56, 103
1, 100512, Note_on_c, 0, 57, 95
1, 100611, Note_off_c, 0, 57, 95
1, 100660, Note_on_c, 0, 60, 98
1, 100725, Note_off_c, 0, 60, 98
1, 100738, Note_on_c, 0, 63, 98
1, 100812, Note_off_c, 0, 63, 98
1, 100819, Note_on_c, 0, 66, 109
1, 100905, Note_off_c, 0, 66, 109
1, 100917, Note_on_c, 0, 65, 100
1, 101008, Note_off_c, 0, 65, 100
1, 101030, Note_on_c, 0, 63, 97
1, 101079, Note_off_c, 0, 63, 97
1, 101126, Note_on_c, 0, 60, 95
1, 101207, Note_off_c, 0, 60, 95
1, 101217, Note_on_c, 0, 62, 97
1, 101294, Note_off_c, 0, 62, 97
1, 101314, Note_on_c, 0, 63, 100
1, 101396, Note_off_c, 0, 63, 100
1, 101417, Note_on_c, 0, 60, 90
1, 101490, Note_off_c, 0, 60, 90
1, 101492, Note_on_c, 0, 62, 100
1, 101574, Note_off_c, 0, 62, 100
1, 101603, Note_on_c, 0, 59, 107
1, 101674, Note_off_c, 0, 59, 107
1, 101679, Note_on_c, 0, 60, 101
1, 101754, Note_off_c, 0, 60, 101
1, 101790, Note_on_c, 0, 62, 93
1, 101845, Note_off_c, 0, 62, 93
1, 101856, Note_on_c, 0, 63, 96
1, 101951, Note_off_c, 0, 63, 96
1, 101962, Note_on_c, 0, 65, 106
1, 102048, Note_off_c, 0, 65, 106
1, 102057, Note_on_c, 0, 66, 104
1, 102136, Note_off_c, 0, 66, 104
1, 102152, Note_on_c, 0, 65, 95
1, 102237, Note_off_c, 0, 65, 95
1, 102273, Note_on_c, 0, 63, 91
1, 102325, Note_off_c, 0, 63, 91
1, 102429, Note_on_c, 0, 65, 104
1, 102509, Note_off_c, 0, 65, 104
1, 102521, Note_on_c, 0, 63, 92
1, 102591, Note_off_c, 0, 63, 92
1, 102609, Note_on_c, 0, 60, 99
1, 102646, Note_off_c, 0, 60, 99
1, 102656, Note_on_c, 0, 58, 94
1, 102690, Note_off_c, 0, 58, 94
1, 102701, Note_on_c, 0, 60, 84
1, 103412, Note_off_c, 0, 60, 84
1, 103412, End_track
0, 0, End_of_file
