0, 0, Header, 1, 1, 192
1, 0, Start_track
1, 0, Note_on_c, 0, 64, 107
1, 79, Note_off_c, 0, 64, 107
1, 115, Note_on_c, 0, 57, 98
1, 184, Note_off_c, 0, 57, 98
1, 199, Note_on_c, 0, 60, 108
1, 281, Note_off_c, 0, 60, 108
1, 302, Note_on_c, 0, 64, 116
1, 359, Note_off_c, 0, 64, 116
1, 372, Note_on_c, 0, 62, 110
1, 438, Note_off_c, 0, 62, 110
1, 444, Note_on_c, 0, 64, 98
1, 477, Note_off_c, 0, 64, 98
1, 480, Note_on_c, 0, 62, 105
1, 494, Note_off_c, 0, 62, 105
1, 498, Note_on_c, 0, 60, 103
1, 540, Note_off_c, 0, 60, 103
1, 574, Note_on_c, 0, 65, 103
1, 679, Note_off_c, 0, 65, 103
1, 694, Note_on_c, 0, 59, 102
1, 743, Note_off_c, 0, 59, 102
1, 749, Note_on_c, 0, 62, 92
1, 866, Note_off_c, 0, 62, 92
1, 878, Note_on_c, 0, 65, 97
1, 957, Note_off_c, 0, 65, 97
1, 960, Note_on_c, 0, 64, 95
1, 1049, Note_off_c, 0, 64, 95
1, 1073, Note_on_c, 0, 59, 102
1, 1134, Note_off_c, 0, 59, 102
1, 1139, Note_on_c, 0, 62, 112
1, 1209, Note_off_c, 0, 62, 112
1, 1217, Note_on_c, 0, 64, 95
1, 1241, Note_off_c, 0, 64, 95
1, 1244, Note_on_c, 0, 62, 103
1, 1277, Note_off_c, 0, 62, 103
1, 1280, Note_on_c, 0, 59, 99
1, 1321, Note_off_c, 0, 59, 99
1, 1339, Note_on_c, 0, 60, 100
1, 1434, Note_off_c, 0, 60, 100
1, 1450, Note_on_c, 0, 64, 91
1, 1524, Note_off_c, 0, 64, 91
1, 1535, Note_on_c, 0, 59, 104
1, 1586, Note_off_c, 0, 59, 104
1, 1598, Note_on_c, 0, 60, 102
1, 1626, Note_off_c, 0, 60, 102
1, 1626, Note_on_c, 0, 59, 104
1, 1650, Note_off_c, 0, 59, 104
1, 1655, Note_on_c, 0, 57, 98
1, 1734, Note_off_c, 0, 57, 98
1, 1751, Note_on_c, 0, 56, 93
1, 1831, Note_off_c, 0, 56, 93
1, 1845, Note_on_c, 0, 53, 104
1, 1919, Note_off_c, 0, 53, 104
1, 1923, Note_on_c, 0, 52, 80
1, 2027, Note_off_c, 0, 52, 80
1, 2033, Note_on_c, 0, 50, 89
1, 2115, Note_off_c, 0, 50, 89
1, 2120, Note_on_c, 0, 48, 90
1, 2222, Note_off_c, 0, 48, 90
1, 2231, Note_on_c, 0, 52, 83
1, 2297, Note_off_c, 0, 52, 83
1, 2301, Note_on_c, 0, 47, 91
1, 2421, Note_off_c, 0, 47, 91
1, 2426, Note_on_c, 0, 45, 81
1, 2571, Note_off_c, 0, 45, 81
1, 3232, Note_on_c, 0, 48, 116
1, 3299, Note_off_c, 0, 48, 116
1, 3299, Note_on_c, 0, 45, 114
1, 3363, Note_off_c, 0, 45, 114
1, 3369, Note_on_c, 0, 46, 116
1, 3416, Note_off_c, 0, 46, 116
1, 3448, Note_on_c, 0, 57, 110
1, 3581, Note_off_c, 0, 57, 110
1, 3589, Note_on_c, 0, 55, 114
1, 3643, Note_off_c, 0, 55, 114
1, 3658, Note_on_c, 0, 48, 108
1, 3714, Note_off_c, 0, 48, 108
1, 3719, Note_on_c, 0, 49, 101
1, 3768, Note_off_c, 0, 49, 101
1, 3798, Note_on_c, 0, 60, 118
1, 3940, Note_off_c, 0, 60, 118
1, 3943, Note_on_c, 0, 58, 116
1, 4008, Note_off_c, 0, 58, 116
1, 4056, Note_on_c, 0, 63, 111
1, 4155, Note_off_c, 0, 63, 111
1, 4157, Note_on_c, 0, 61, 107
1, 4215, Note_off_c, 0, 61, 107
1, 4224, Note_on_c, 0, 56, 105
1, 4281, Note_off_c, 0, 56, 105
1, 4281, Note_on_c, 0, 54, 111
1, 4332, Note_off_c, 0, 54, 111
1, 4337, Note_on_c, 0, 60, 109
1, 4383, Note_off_c, 0, 60, 109
1, 4389, Note_on_c, 0, 58, 109
1, 4435, Note_off_c, 0, 58, 109
1, 4438, Note_on_c, 0, 56, 96
1, 4461, Note_off_c, 0, 56, 96
1, 4466, Note_on_c, 0, 57, 89
1, 4607, Note_off_c, 0, 57, 89
1, 4637, Note_on_c, 0, 60, 113
1, 4695, Note_off_c, 0, 60, 113
1, 4697, Note_on_c, 0, 57, 103
1, 4748, Note_off_c, 0, 57, 103
1, 4748, Note_on_c, 0, 55, 102
1, 4803, Note_off_c, 0, 55, 102
1, 4806, Note_on_c, 0, 53, 114
1, 4847, Note_off_c, 0, 53, 114
1, 4869, Note_on_c, 0, 60, 114
1, 4910, Note_off_c, 0, 60, 114
1, 4912, Note_on_c, 0, 56, 104
1, 4957, Note_off_c, 0, 56, 104
1, 4962, Note_on_c, 0, 52, 90
1, 5006, Note_off_c, 0, 52, 90
1, 5010, Note_on_c, 0, 48, 86
1, 5062, Note_off_c, 0, 48, 86
1, 5065, Note_on_c, 0, 50, 92
1, 5111, Note_off_c, 0, 50, 92
1, 5113, Note_on_c, 0, 52, 86
1, 5161, Note_off_c, 0, 52, 86
1, 5166, Note_on_c, 0, 56, 97
1, 5199, Note_off_c, 0, 56, 97
1, 5232, Note_on_c, 0, 53, 87
1, 5263, Note_off_c, 0, 53, 87
1, 5267, Note_on_c, 0, 57, 95
1, 5343, Note_off_c, 0, 57, 95
1, 5352, Note_on_c, 0, 60, 102
1, 5384, Note_off_c, 0, 60, 102
1, 5388, Note_on_c, 0, 57, 96
1, 5437, Note_off_c, 0, 57, 96
1, 5447, Note_on_c, 0, 52, 82
1, 5510, Note_off_c, 0, 52, 82
1, 5512, Note_on_c, 0, 50, 82
1, 5577, Note_off_c, 0, 50, 82
1, 5823, Note_on_c, 0, 52, 88
1, 5853, Note_off_c, 0, 52, 88
1, 5855, Note_on_c, 0, 53, 120
1, 5916, Note_off_c, 0, 53, 120
1, 5919, Note_on_c, 0, 55, 120
1, 5973, Note_off_c, 0, 55, 120
1, 5974, Note_on_c, 0, 53, 125
1, 5987, Note_off_c, 0, 53, 125
1, 5990, Note_on_c, 0, 54, 108
1, 6117, Note_off_c, 0, 54, 108
1, 6302, Note_on_c, 0, 59, 112
1, 6346, Note_off_c, 0, 59, 112
1, 6350, Note_on_c, 0, 60, 118
1, 6395, Note_off_c, 0, 60, 118
1, 6398, Note_on_c, 0, 62, 117
1, 6442, Note_off_c, 0, 62, 117
1, 6447, Note_on_c, 0, 63, 116
1, 6487, Note_off_c, 0, 63, 116
1, 6490, Note_on_c, 0, 60, 115
1, 6538, Note_off_c, 0, 60, 115
1, 6554, Note_on_c, 0, 57, 102
1, 6597, Note_off_c, 0, 57, 102
1, 6600, Note_on_c, 0, 54, 110
1, 6647, Note_off_c, 0, 54, 110
1, 6693, Note_on_c, 0, 55, 100
1, 6860, Note_off_c, 0, 55, 100
1, 6960, Note_on_c, 0, 51, 97
1, 6991, Note_off_c, 0, 51, 97
1, 6991, Note_on_c, 0, 52, 93
1, 7031, Note_off_c, 0, 52, 93
1, 7035, Note_on_c, 0, 54, 127
1, 7091, Note_off_c, 0, 54, 127
1, 7092, Note_on_c, 0, 55, 116
1, 7139, Note_off_c, 0, 55, 116
1, 7140, Note_on_c, 0, 57, 117
1, 7170, Note_off_c, 0, 57, 117
1, 7177, Note_on_c, 0, 59, 112
1, 7215, Note_off_c, 0, 59, 112
1, 7216, Note_on_c, 0, 63, 108
1, 7247, Note_off_c, 0, 63, 108
1, 7265, Note_on_c, 0, 66, 110
1, 7337, Note_off_c, 0, 66, 110
1, 7338, Note_on_c, 0, 64, 104
1, 7372, Note_off_c, 0, 64, 104
1, 7436, Note_on_c, 0, 50, 103
1, 7452, Note_off_c, 0, 50, 103
1, 7454, Note_on_c, 0, 51, 90
1, 7611, Note_off_c, 0, 51, 90
1, 7615, Note_on_c, 0, 56, 103
1, 7630, Note_off_c, 0, 56, 103
1, 7634, Note_on_c, 0, 57, 92
1, 7808, Note_off_c, 0, 57, 92
1, 7854, Note_on_c, 0, 51, 92
1, 7885, Note_off_c, 0, 51, 92
1, 7886, Note_on_c, 0, 50, 92
1, 8012, Note_off_c, 0, 50, 92
1, 8525, Note_on_c, 0, 50, 110
1, 8612, Note_off_c, 0, 50, 110
1, 8616, Note_on_c, 0, 47, 99
1, 8715, Note_off_c, 0, 47, 99
1, 8715, Note_on_c, 0, 48, 99
1, 8904, Note_off_c, 0, 48, 99
1, 9129, Note_on_c, 0, 58, 114
1, 9157, Note_off_c, 0, 58, 114
1, 9164, Note_on_c, 0, 60, 119
1, 9264, Note_off_c, 0, 60, 119
1, 9267, Note_on_c, 0, 55, 115
1, 9329, Note_off_c, 0, 55, 115
1, 9330, Note_on_c, 0, 51, 99
1, 9368, Note_off_c, 0, 51, 99
1, 9376, Note_on_c, 0, 56, 114
1, 9397, Note_off_c, 0, 56, 114
1, 9401, Note_on_c, 0, 58, 115
1, 9515, Note_off_c, 0, 58, 115
1, 9515, Note_on_c, 0, 54, 117
1, 9579, Note_off_c, 0, 54, 117
1, 9579, Note_on_c, 0, 53, 113
1, 9668, Note_off_c, 0, 53, 113
1, 9673, Note_on_c, 0, 51, 92
1, 9709, Note_off_c, 0, 51, 92
1, 9718, Note_on_c, 0, 55, 110
1, 9736, Note_off_c, 0, 55, 110
1, 9740, Note_on_c, 0, 57, 90
1, 9796, Title_t, "Melody"
1, 9796, Tempo, 674157
1, 9796, Key_signature, 0, "major"
1, 9796, Time_signature, 4, 2, 24, 8
1, 9919, Note_off_c, 0, 57, 90
1, 9996, Note_on_c, 0, 48, 93
1, 10027, Note_off_c, 0, 48, 93
1, 10028, Note_on_c, 0, 49, 96
1, 10064, Note_off_c, 0, 49, 96
1, 10066, Note_on_c, 0, 51, 93
1, 10091, Note_off_c, 0, 51, 93
1, 10096, Note_on_c, 0, 53, 122
1, 10140, Note_off_c, 0, 53, 122
1, 10142, Note_on_c, 0, 55, 115
1, 10193, Note_off_c, 0, 55, 115
1, 10196, Note_on_c, 0, 54, 121
1, 10221, Note_off_c, 0, 54, 121
1, 10221, Note_on_c, 0, 56, 102
1, 10337, Note_off_c, 0, 56, 102
1, 10343, Note_on_c, 0, 53, 100
1, 10388, Note_off_c, 0, 53, 100
1, 10391, Note_on_c, 0, 55, 97
1, 10507, Note_off_c, 0, 55, 97
1, 10722, Note_on_c, 0, 51, 90
1, 10760, Note_off_c, 0, 51, 90
1, 10764, Note_on_c, 0, 55, 119
1, 10798, Note_off_c, 0, 55, 119
1, 10800, Note_on_c, 0, 59, 117
1, 10842, Note_off_c, 0, 59, 117
1, 10850, Note_on_c, 0, 57, 108
1, 10886, Note_off_c, 0, 57, 108
1, 10896, Note_on_c, 0, 55, 106
1, 10948, Note_off_c, 0, 55, 106
1, 10953, Note_on_c, 0, 52, 90
1, 10990, Note_off_c, 0, 52, 90
1, 10993, Note_on_c, 0, 50, 94
1, 11035, Note_off_c, 0, 50, 94
1, 11040, Note_on_c, 0, 48, 101
1, 11072, Note_off_c, 0, 48, 101
1, 11081, Note_on_c, 0, 47, 102
1, 11128, Note_off_c, 0, 47, 102
1, 11129, Note_on_c, 0, 48, 99
1, 11187, Note_off_c, 0, 48, 99
1, 11191, Note_on_c, 0, 52, 89
1, 11237, Note_off_c, 0, 52, 89
1, 11243, Note_on_c, 0, 55, 114
1, 11297, Note_off_c, 0, 55, 114
1, 11301, Note_on_c, 0, 57, 109
1, 11369, Note_off_c, 0, 57, 109
1, 11371, Note_on_c, 0, 62, 113
1, 11429, Note_off_c, 0, 62, 113
1, 11435, Note_on_c, 0, 56, 100
1, 11493, Note_off_c, 0, 56, 100
1, 11520, Note_on_c, 0, 47, 91
1, 11548, Note_off_c, 0, 47, 91
1, 11552, Note_on_c, 0, 50, 93
1, 11606, Note_off_c, 0, 50, 93
1, 11611, Note_on_c, 0, 52, 100
1, 11625, Note_off_c, 0, 52, 100
1, 11626, Note_on_c, 0, 53, 112
1, 11780, Note_off_c, 0, 53, 112
1, 11786, Note_on_c, 0, 56, 102
1, 11821, Note_off_c, 0, 56, 102
1, 11824, Note_on_c, 0, 52, 87
1, 11947, Note_off_c, 0, 52, 87
1, 11958, Note_on_c, 0, 50, 93
1, 12000, Note_off_c, 0, 50, 93
1, 12006, Note_on_c, 0, 48, 88
1, 12191, Note_off_c, 0, 48, 88
1, 12191, End_track
0, 0, End_of_file
