0, 0, Header, 1, 1, 840
1, 0, Start_track
1, 0, Title_t, "Melody"
1, 0, Tempo, 468750
1, 0, Key_signature, -1, "major"
1, 0, Time_signature, 4, 2, 24, 8
1, 2340, Note_on_c, 0, 49, 111
1, 2509, Note_off_c, 0, 49, 111
1, 2540, Note_on_c, 0, 50, 109
1, 2794, Note_off_c, 0, 50, 109
1, 2846, Note_on_c, 0, 52, 113
1, 2969, Note_off_c, 0, 52, 113
1, 3002, Note_on_c, 0, 53, 118
1, 3243, Note_off_c, 0, 53, 118
1, 3266, Note_on_c, 0, 55, 114
1, 3405, Note_off_c, 0, 55, 114
1, 3431, Note_on_c, 0, 57, 114
1, 3590, Note_off_c, 0, 57, 114
1, 3595, Note_on_c, 0, 58, 112
1, 3727, Note_off_c, 0, 58, 112
1, 3760, Note_on_c, 0, 59, 117
1, 3869, Note_off_c, 0, 59, 117
1, 3890, Note_on_c, 0, 60, 114
1, 3944, Note_off_c, 0, 60, 114
1, 3947, Note_on_c, 0, 61, 114
1, 4005, Note_off_c, 0, 61, 114
1, 4045, Note_on_c, 0, 62, 107
1, 4167, Note_off_c, 0, 62, 107
1, 4177, Note_on_c, 0, 64, 122
1, 4382, Note_off_c, 0, 64, 122
1, 4482, Note_on_c, 0, 62, 118
1, 4635, Note_off_c, 0, 62, 118
1, 5338, Note_on_c, 0, 48, 117
1, 5469, Note_off_c, 0, 48, 117
1, 5492, Note_on_c, 0, 49, 116
1, 5630, Note_off_c, 0, 49, 116
1, 5681, Note_on_c, 0, 51, 116
1, 5873, Note_off_c, 0, 51, 116
1, 5926, Note_on_c, 0, 53, 113
1, 6120, Note_off_c, 0, 53, 113
1, 6133, Note_on_c, 0, 55, 112
1, 6244, Note_off_c, 0, 55, 112
1, 6275, Note_on_c, 0, 57, 114
1, 6439, Note_off_c, 0, 57, 114
1, 6482, Note_on_c, 0, 60, 106
1, 6607, Note_off_c, 0, 60, 106
1, 6697, Note_on_c, 0, 65, 122
1, 6931, Note_off_c, 0, 65, 122
1, 6985, Note_on_c, 0, 61, 113
1, 7250, Note_off_c, 0, 61, 113
1, 7317, Note_on_c, 0, 61, 123
1, 7510, Note_off_c, 0, 61, 123
1, 7566, Note_on_c, 0, 57, 113
1, 7809, Note_off_c, 0, 57, 113
1, 7860, Note_on_c, 0, 53, 113
1, 8086, Note_off_c, 0, 53, 113
1, 8667, Note_on_c, 0, 49, 115
1, 8794, Note_off_c, 0, 49, 115
1, 8816, Note_on_c, 0, 50, 110
1, 9005, Note_off_c, 0, 50, 110
1, 9054, Note_on_c, 0, 52, 112
1, 9243, Note_off_c, 0, 52, 112
1, 9280, Note_on_c, 0, 53, 115
1, 9424, Note_off_c, 0, 53, 115
1, 9436, Note_on_c, 0, 55, 114
1, 9558, Note_off_c, 0, 55, 114
1, 9574, Note_on_c, 0, 57, 115
1, 9658, Note_off_c, 0, 57, 115
1, 9672, Note_on_c, 0, 60, 120
1, 9789, Note_off_c, 0, 60, 120
1, 9834, Note_on_c, 0, 64, 115
1, 9914, Note_off_c, 0, 64, 115
1, 9935, Note_on_c, 0, 65, 122
1, 10066, Note_off_c, 0, 65, 122
1, 10097, Note_on_c, 0, 56, 117
1, 10321, Note_off_c, 0, 56, 117
1, 10326, Note_on_c, 0, 57, 119
1, 10474, Note_off_c, 0, 57, 119
1, 10501, Note_on_c, 0, 69, 126
1, 10676, Note_off_c, 0, 69, 126
1, 10895, Note_on_c, 0, 52, 110
1, 11081, Note_off_c, 0, 52, 110
1, 11179, Note_on_c, 0, 67, 122
1, 11371, Note_off_c, 0, 67, 122
1, 11413, Note_on_c, 0, 65, 118
1, 11595, Note_off_c, 0, 65, 118
1, 12306, Note_on_c, 0, 63, 122
1, 12529, Note_off_c, 0, 63, 122
1, 12550, Note_on_c, 0, 61, 119
1, 12762, Note_off_c, 0, 61, 119
1, 12890, Note_on_c, 0, 53, 115
1, 13140, Note_off_c, 0, 53, 115
1, 13142, Note_on_c, 0, 55, 110
1, 13248, Note_off_c, 0, 55, 110
1, 13251, Note_on_c, 0, 57, 114
1, 13379, Note_off_c, 0, 57, 114
1, 13386, Note_on_c, 0, 58, 113
1, 13528, Note_off_c, 0, 58, 113
1, 13540, Note_on_c, 0, 60, 116
1, 13967, Note_off_c, 0, 60, 116
1, 14018, Note_on_c, 0, 58, 118
1, 14213, Note_off_c, 0, 58, 118
1, 14246, Note_on_c, 0, 57, 114
1, 14404, Note_off_c, 0, 57, 114
1, 14472, Note_on_c, 0, 55, 111
1, 14599, Note_off_c, 0, 55, 111
1, 14639, Note_on_c, 0, 53, 112
1, 14811, Note_off_c, 0, 53, 112
1, 14861, Note_on_c, 0, 51, 111
1, 15027, Note_off_c, 0, 51, 111
1, 15088, Note_on_c, 0, 50, 108
1, 15241, Note_off_c, 0, 50, 108
1, 15306, Note_on_c, 0, 45, 109
1, 15517, Note_off_c, 0, 45, 109
1, 15621, Note_on_c, 0, 47, 109
1, 15734, Note_off_c, 0, 47, 109
1, 15767, Note_on_c, 0, 48, 107
1, 15877, Note_off_c, 0, 48, 107
1, 15893, Note_on_c, 0, 50, 111
1, 16000, Note_off_c, 0, 50, 111
1, 16024, Note_on_c, 0, 52, 120
1, 16161, Note_off_c, 0, 52, 120
1, 16209, Note_on_c, 0, 49, 106
1, 16404, Note_off_c, 0, 49, 106
1, 16423, Note_on_c, 0, 50, 112
1, 16621, Note_off_c, 0, 50, 112
1, 16652, Note_on_c, 0, 52, 114
1, 16813, Note_off_c, 0, 52, 114
1, 16848, Note_on_c, 0, 53, 113
1, 17062, Note_off_c, 0, 53, 113
1, 17095, Note_on_c, 0, 55, 111
1, 17230, Note_off_c, 0, 55, 111
1, 17261, Note_on_c, 0, 57, 108
1, 17463, Note_off_c, 0, 57, 108
1, 17512, Note_on_c, 0, 59, 103
1, 17614, Note_off_c, 0, 59, 103
1, 17638, Note_on_c, 0, 62, 102
1, 17727, Note_off_c, 0, 62, 102
1, 17767, Note_on_c, 0, 64, 121
1, 17984, Note_off_c, 0, 64, 121
1, 18099, Note_on_c, 0, 62, 116
1, 18223, Note_off_c, 0, 62, 116
1, 18446, Note_on_c, 0, 57, 117
1, 18581, Note_off_c, 0, 57, 117
1, 18623, Note_on_c, 0, 56, 121
1, 18716, Note_off_c, 0, 56, 121
1, 18735, Note_on_c, 0, 60, 113
1, 19053, Note_off_c, 0, 60, 113
1, 19119, Note_on_c, 0, 57, 119
1, 19312, Note_off_c, 0, 57, 119
1, 19318, Note_on_c, 0, 58, 102
1, 19676, Note_off_c, 0, 58, 102
1, 20317, Note_on_c, 0, 58, 116
1, 20462, Note_off_c, 0, 58, 116
1, 20483, Note_on_c, 0, 60, 121
1, 20620, Note_off_c, 0, 60, 121
1, 20644, Note_on_c, 0, 62, 124
1, 20708, Note_off_c, 0, 62, 124
1, 20733, Note_on_c, 0, 63, 121
1, 20886, Note_off_c, 0, 63, 121
1, 20906, Note_on_c, 0, 65, 117
1, 21044, Note_off_c, 0, 65, 117
1, 21064, Note_on_c, 0, 63, 124
1, 21191, Note_off_c, 0, 63, 124
1, 21205, Note_on_c, 0, 64, 119
1, 21503, Note_off_c, 0, 64, 119
1, 23199, Note_on_c, 0, 64, 122
1, 23400, Note_off_c, 0, 64, 122
1, 23425, Note_on_c, 0, 62, 119
1, 23582, Note_off_c, 0, 62, 119
1, 23617, Note_on_c, 0, 59, 116
1, 23769, Note_off_c, 0, 59, 116
1, 23819, Note_on_c, 0, 57, 111
1, 23971, Note_off_c, 0, 57, 111
1, 24026, Note_on_c, 0, 53, 111
1, 24169, Note_off_c, 0, 53, 111
1, 24198, Note_on_c, 0, 52, 114
1, 24333, Note_off_c, 0, 52, 114
1, 24368, Note_on_c, 0, 50, 106
1, 24546, Note_off_c, 0, 50, 106
1, 24618, Note_on_c, 0, 45, 108
1, 24832, Note_off_c, 0, 45, 108
1, 24848, Note_on_c, 0, 46, 108
1, 25039, Note_off_c, 0, 46, 108
1, 25127, Note_on_c, 0, 48, 111
1, 25290, Note_off_c, 0, 48, 111
1, 25326, Note_on_c, 0, 49, 112
1, 25474, Note_off_c, 0, 49, 112
1, 25549, Note_on_c, 0, 51, 114
1, 25685, Note_off_c, 0, 51, 114
1, 25743, Note_on_c, 0, 53, 108
1, 25957, Note_off_c, 0, 53, 108
1, 25995, Note_on_c, 0, 46, 110
1, 26072, Note_off_c, 0, 46, 110
1, 26082, Note_on_c, 0, 48, 109
1, 26232, Note_off_c, 0, 48, 109
1, 26258, Note_on_c, 0, 49, 106
1, 26503, Note_off_c, 0, 49, 106
1, 26519, Note_on_c, 0, 51, 111
1, 26643, Note_off_c, 0, 51, 111
1, 26670, Note_on_c, 0, 53, 118
1, 26772, Note_off_c, 0, 53, 118
1, 26854, Note_on_c, 0, 55, 109
1, 27031, Note_off_c, 0, 55, 109
1, 27042, Note_on_c, 0, 57, 116
1, 27183, Note_off_c, 0, 57, 116
1, 27368, Note_on_c, 0, 53, 113
1, 27501, Note_off_c, 0, 53, 113
1, 27508, Note_on_c, 0, 55, 113
1, 27724, Note_off_c, 0, 55, 113
1, 27740, Note_on_c, 0, 57, 116
1, 27958, Note_off_c, 0, 57, 116
1, 27976, Note_on_c, 0, 58, 113
1, 28184, Note_off_c, 0, 58, 113
1, 28202, Note_on_c, 0, 61, 122
1, 28343, Note_off_c, 0, 61, 122
1, 28364, Note_on_c, 0, 64, 125
1, 28500, Note_off_c, 0, 64, 125
1, 28512, Note_on_c, 0, 61, 111
1, 28710, Note_off_c, 0, 61, 111
1, 28733, Note_on_c, 0, 62, 112
1, 28918, Note_off_c, 0, 62, 112
1, 28940, Note_on_c, 0, 64, 120
1, 29113, Note_off_c, 0, 64, 120
1, 29134, Note_on_c, 0, 65, 117
1, 29339, Note_off_c, 0, 65, 117
1, 29371, Note_on_c, 0, 68, 124
1, 29580, Note_off_c, 0, 68, 124
1, 29599, Note_on_c, 0, 69, 123
1, 29797, Note_off_c, 0, 69, 123
1, 30523, Note_on_c, 0, 64, 115
1, 30727, Note_off_c, 0, 64, 115
1, 30761, Note_on_c, 0, 67, 121
1, 30978, Note_off_c, 0, 67, 121
1, 30990, Note_on_c, 0, 65, 119
1, 31145, Note_off_c, 0, 65, 119
1, 31162, Note_on_c, 0, 63, 122
1, 31243, Note_off_c, 0, 63, 122
1, 31252, Note_on_c, 0, 60, 114
1, 31363, Note_off_c, 0, 60, 114
1, 31378, Note_on_c, 0, 58, 112
1, 31437, Note_off_c, 0, 58, 112
1, 31447, Note_on_c, 0, 53, 113
1, 31574, Note_off_c, 0, 53, 113
1, 31638, Note_on_c, 0, 51, 109
1, 31871, Note_off_c, 0, 51, 109
1, 31882, Note_on_c, 0, 61, 116
1, 32110, Note_off_c, 0, 61, 116
1, 32819, Note_on_c, 0, 61, 120
1, 33007, Note_off_c, 0, 61, 120
1, 33046, Note_on_c, 0, 63, 121
1, 33211, Note_off_c, 0, 63, 121
1, 33229, Note_on_c, 0, 65, 118
1, 33401, Note_off_c, 0, 65, 118
1, 33488, Note_on_c, 0, 61, 115
1, 33608, Note_off_c, 0, 61, 115
1, 33639, Note_on_c, 0, 57, 111
1, 33869, Note_off_c, 0, 57, 111
1, 33913, Note_on_c, 0, 59, 111
1, 34095, Note_off_c, 0, 59, 111
1, 34118, Note_on_c, 0, 61, 115
1, 34320, Note_off_c, 0, 61, 115
1, 34347, Note_on_c, 0, 57, 114
1, 34530, Note_off_c, 0, 57, 114
1, 34549, Note_on_c, 0, 53, 105
1, 34773, Note_off_c, 0, 53, 105
1, 34784, Note_on_c, 0, 55, 110
1, 34918, Note_off_c, 0, 55, 110
1, 34940, Note_on_c, 0, 57, 117
1, 35115, Note_off_c, 0, 57, 117
1, 35165, Note_on_c, 0, 53, 110
1, 35393, Note_off_c, 0, 53, 110
1, 35459, Note_on_c, 0, 45, 104
1, 35566, Note_off_c, 0, 45, 104
1, 35613, Note_on_c, 0, 49, 101
1, 35717, Note_off_c, 0, 49, 101
1, 35779, Note_on_c, 0, 52, 119
1, 35948, Note_off_c, 0, 52, 119
1, 35979, Note_on_c, 0, 49, 108
1, 36189, Note_off_c, 0, 49, 108
1, 36203, Note_on_c, 0, 50, 106
1, 36401, Note_off_c, 0, 50, 106
1, 36420, Note_on_c, 0, 52, 118
1, 36564, Note_off_c, 0, 52, 118
1, 36582, Note_on_c, 0, 53, 113
1, 36781, Note_off_c, 0, 53, 113
1, 36828, Note_on_c, 0, 55, 109
1, 36969, Note_off_c, 0, 55, 109
1, 36998, Note_on_c, 0, 57, 108
1, 37203, Note_off_c, 0, 57, 108
1, 37239, Note_on_c, 0, 59, 101
1, 37381, Note_off_c, 0, 59, 101
1, 37461, Note_on_c, 0, 59, 114
1, 37534, Note_off_c, 0, 59, 114
1, 37546, Note_on_c, 0, 61, 116
1, 37717, Note_off_c, 0, 61, 116
1, 37737, Note_on_c, 0, 64, 125
1, 37912, Note_off_c, 0, 64, 125
1, 37959, Note_on_c, 0, 62, 120
1, 38110, Note_off_c, 0, 62, 120
1, 38148, Note_on_c, 0, 57, 114
1, 38331, Note_off_c, 0, 57, 114
1, 38365, Note_on_c, 0, 60, 117
1, 38528, Note_off_c, 0, 60, 117
1, 38627, Note_on_c, 0, 57, 116
1, 38711, Note_off_c, 0, 57, 116
1, 38724, Note_on_c, 0, 58, 114
1, 38921, Note_off_c, 0, 58, 114
1, 38999, Note_on_c, 0, 53, 110
1, 39225, Note_off_c, 0, 53, 110
1, 39555, Note_on_c, 0, 57, 120
1, 39667, Note_off_c, 0, 57, 120
1, 39677, Note_on_c, 0, 58, 116
1, 39794, Note_off_c, 0, 58, 116
1, 39798, Note_on_c, 0, 57, 114
1, 39866, Note_off_c, 0, 57, 114
1, 39894, Note_on_c, 0, 55, 113
1, 40109, Note_off_c, 0, 55, 113
1, 40193, Note_on_c, 0, 53, 110
1, 40318, Note_off_c, 0, 53, 110
1, 40328, Note_on_c, 0, 51, 112
1, 40551, Note_off_c, 0, 51, 112
1, 40613, Note_on_c, 0, 49, 117
1, 40676, Note_off_c, 0, 49, 117
1, 40695, Note_on_c, 0, 48, 112
1, 40840, Note_off_c, 0, 48, 112
1, 40928, Note_on_c, 0, 46, 105
1, 41136, Note_off_c, 0, 46, 105
1, 41166, Note_on_c, 0, 45, 100
1, 41286, Note_off_c, 0, 45, 100
1, 42059, Note_on_c, 0, 52, 121
1, 42148, Note_off_c, 0, 52, 121
1, 42183, Note_on_c, 0, 49, 110
1, 42365, Note_off_c, 0, 49, 110
1, 42371, Note_on_c, 0, 50, 111
1, 42651, Note_off_c, 0, 50, 111
1, 42695, Note_on_c, 0, 52, 118
1, 42866, Note_off_c, 0, 52, 118
1, 42909, Note_on_c, 0, 53, 110
1, 43116, Note_off_c, 0, 53, 110
1, 43134, Note_on_c, 0, 55, 109
1, 43302, Note_off_c, 0, 55, 109
1, 43315, Note_on_c, 0, 57, 108
1, 43509, Note_off_c, 0, 57, 108
1, 43716, Note_on_c, 0, 59, 102
1, 43809, Note_off_c, 0, 59, 102
1, 43820, Note_on_c, 0, 64, 111
1, 44027, Note_off_c, 0, 64, 111
1, 44068, Note_on_c, 0, 61, 116
1, 44233, Note_off_c, 0, 61, 116
1, 44250, Note_on_c, 0, 62, 119
1, 44475, Note_off_c, 0, 62, 119
1, 44525, Note_on_c, 0, 57, 117
1, 44679, Note_off_c, 0, 57, 117
1, 44759, Note_on_c, 0, 55, 110
1, 44856, Note_off_c, 0, 55, 110
1, 44892, Note_on_c, 0, 53, 105
1, 45015, Note_off_c, 0, 53, 105
1, 45032, Note_on_c, 0, 57, 117
1, 45233, Note_off_c, 0, 57, 117
1, 45327, Note_on_c, 0, 60, 115
1, 45487, Note_off_c, 0, 60, 115
1, 45557, Note_on_c, 0, 53, 114
1, 45807, Note_off_c, 0, 53, 114
1, 46833, Note_on_c, 0, 57, 119
1, 47024, Note_off_c, 0, 57, 119
1, 47042, Note_on_c, 0, 58, 113
1, 47173, Note_off_c, 0, 58, 113
1, 47181, Note_on_c, 0, 57, 115
1, 47370, Note_off_c, 0, 57, 115
1, 47406, Note_on_c, 0, 55, 112
1, 47590, Note_off_c, 0, 55, 112
1, 47631, Note_on_c, 0, 53, 109
1, 47802, Note_off_c, 0, 53, 109
1, 47847, Note_on_c, 0, 51, 113
1, 47964, Note_off_c, 0, 51, 113
1, 48005, Note_on_c, 0, 46, 114
1, 48202, Note_off_c, 0, 46, 114
1, 48262, Note_on_c, 0, 45, 107
1, 48379, Note_off_c, 0, 45, 107
1, 48433, Note_on_c, 0, 52, 119
1, 48610, Note_off_c, 0, 52, 119
1, 48633, Note_on_c, 0, 49, 108
1, 48778, Note_off_c, 0, 49, 108
1, 48797, Note_on_c, 0, 50, 115
1, 49086, Note_off_c, 0, 50, 115
1, 49112, Note_on_c, 0, 52, 114
1, 49268, Note_off_c, 0, 52, 114
1, 49316, Note_on_c, 0, 53, 111
1, 49513, Note_off_c, 0, 53, 111
1, 49535, Note_on_c, 0, 55, 110
1, 49665, Note_off_c, 0, 55, 110
1, 49688, Note_on_c, 0, 57, 104
1, 49900, Note_off_c, 0, 57, 104
1, 49944, Note_on_c, 0, 59, 98
1, 50081, Note_off_c, 0, 59, 98
1, 50100, Note_on_c, 0, 64, 127
1, 50207, Note_off_c, 0, 64, 127
1, 50214, Note_on_c, 0, 63, 121
1, 50360, Note_off_c, 0, 63, 121
1, 50380, Note_on_c, 0, 64, 121
1, 50720, Note_off_c, 0, 64, 121
1, 50796, Note_on_c, 0, 61, 112
1, 50991, Note_off_c, 0, 61, 112
1, 51007, Note_on_c, 0, 62, 122
1, 51200, Note_off_c, 0, 62, 122
1, 51230, Note_on_c, 0, 57, 115
1, 51434, Note_off_c, 0, 57, 115
1, 51461, Note_on_c, 0, 55, 105
1, 51576, Note_off_c, 0, 55, 105
1, 51641, Note_on_c, 0, 53, 102
1, 51755, Note_off_c, 0, 53, 102
1, 51756, Note_on_c, 0, 57, 113
1, 52034, Note_off_c, 0, 57, 113
1, 52059, Note_on_c, 0, 60, 118
1, 52228, Note_off_c, 0, 60, 118
1, 52668, Note_on_c, 0, 57, 117
1, 52855, Note_off_c, 0, 57, 117
1, 52863, Note_on_c, 0, 58, 114
1, 52949, Note_off_c, 0, 58, 114
1, 52963, Note_on_c, 0, 59, 116
1, 53110, Note_off_c, 0, 59, 116
1, 53116, Note_on_c, 0, 60, 115
1, 53288, Note_off_c, 0, 60, 115
1, 53317, Note_on_c, 0, 62, 122
1, 53474, Note_off_c, 0, 62, 122
1, 53492, Note_on_c, 0, 63, 125
1, 53680, Note_off_c, 0, 63, 125
1, 53696, Note_on_c, 0, 56, 112
1, 53916, Note_off_c, 0, 56, 112
1, 53925, Note_on_c, 0, 57, 110
1, 54081, Note_off_c, 0, 57, 110
1, 54162, Note_on_c, 0, 62, 118
1, 54335, Note_off_c, 0, 62, 118
1, 54354, Note_on_c, 0, 60, 116
1, 54539, Note_off_c, 0, 60, 116
1, 54581, Note_on_c, 0, 55, 109
1, 54730, Note_off_c, 0, 55, 109
1, 55586, Note_on_c, 0, 55, 113
1, 55712, Note_off_c, 0, 55, 113
1, 55720, Note_on_c, 0, 57, 119
1, 55839, Note_off_c, 0, 57, 119
1, 55861, Note_on_c, 0, 58, 114
1, 56032, Note_off_c, 0, 58, 114
1, 56056, Note_on_c, 0, 59, 121
1, 56197, Note_off_c, 0, 59, 121
1, 56220, Note_on_c, 0, 62, 122
1, 56343, Note_off_c, 0, 62, 122
1, 56351, Note_on_c, 0, 64, 125
1, 56459, Note_off_c, 0, 64, 125
1, 56474, Note_on_c, 0, 60, 119
1, 56587, Note_off_c, 0, 60, 119
1, 56607, Note_on_c, 0, 59, 117
1, 56680, Note_off_c, 0, 59, 117
1, 56698, Note_on_c, 0, 58, 114
1, 56797, Note_off_c, 0, 58, 114
1, 56814, Note_on_c, 0, 57, 116
1, 56906, Note_off_c, 0, 57, 116
1, 56921, Note_on_c, 0, 55, 113
1, 57023, Note_off_c, 0, 55, 113
1, 57050, Note_on_c, 0, 54, 113
1, 57248, Note_off_c, 0, 54, 113
1, 57270, Note_on_c, 0, 56, 114
1, 57323, Note_off_c, 0, 56, 114
1, 57329, Note_on_c, 0, 57, 119
1, 57485, Note_off_c, 0, 57, 119
1, 57507, Note_on_c, 0, 50, 114
1, 57557, Note_off_c, 0, 50, 114
1, 57565, Note_on_c, 0, 51, 119
1, 57710, Note_off_c, 0, 51, 119
1, 57786, Note_on_c, 0, 49, 112
1, 57848, Note_off_c, 0, 49, 112
1, 57858, Note_on_c, 0, 50, 114
1, 58057, Note_off_c, 0, 50, 114
1, 58542, Note_on_c, 0, 48, 119
1, 58627, Note_off_c, 0, 48, 119
1, 58640, Note_on_c, 0, 50, 116
1, 58746, Note_off_c, 0, 50, 116
1, 58766, Note_on_c, 0, 48, 116
1, 58883, Note_off_c, 0, 48, 116
1, 58919, Note_on_c, 0, 44, 110
1, 59029, Note_off_c, 0, 44, 110
1, 59039, Note_on_c, 0, 46, 112
1, 59296, Note_off_c, 0, 46, 112
1, 59318, Note_on_c, 0, 48, 109
1, 59480, Note_off_c, 0, 48, 109
1, 59504, Note_on_c, 0, 50, 104
1, 59697, Note_off_c, 0, 50, 104
1, 59738, Note_on_c, 0, 52, 105
1, 59832, Note_off_c, 0, 52, 105
1, 59864, Note_on_c, 0, 57, 113
1, 60046, Note_off_c, 0, 57, 113
1, 60077, Note_on_c, 0, 54, 105
1, 60266, Note_off_c, 0, 54, 105
1, 60294, Note_on_c, 0, 55, 115
1, 60457, Note_off_c, 0, 55, 115
1, 60497, Note_on_c, 0, 57, 114
1, 60654, Note_off_c, 0, 57, 114
1, 60677, Note_on_c, 0, 58, 110
1, 60866, Note_off_c, 0, 58, 110
1, 60891, Note_on_c, 0, 60, 118
1, 61053, Note_off_c, 0, 60, 118
1, 61067, Note_on_c, 0, 64, 125
1, 61290, Note_off_c, 0, 64, 125
1, 61311, Note_on_c, 0, 62, 117
1, 61485, Note_off_c, 0, 62, 117
1, 61511, Note_on_c, 0, 58, 112
1, 61720, Note_off_c, 0, 58, 112
1, 61747, Note_on_c, 0, 55, 106
1, 61883, Note_off_c, 0, 55, 106
1, 61963, Note_on_c, 0, 56, 118
1, 62024, Note_off_c, 0, 56, 118
1, 62036, Note_on_c, 0, 57, 113
1, 62303, Note_off_c, 0, 57, 113
1, 63653, Note_on_c, 0, 64, 125
1, 63854, Note_off_c, 0, 64, 125
1, 63911, Note_on_c, 0, 62, 119
1, 64076, Note_off_c, 0, 62, 119
1, 64096, Note_on_c, 0, 64, 125
1, 64250, Note_off_c, 0, 64, 125
1, 64312, Note_on_c, 0, 62, 117
1, 64469, Note_off_c, 0, 62, 117
1, 64492, Note_on_c, 0, 58, 112
1, 64667, Note_off_c, 0, 58, 112
1, 64724, Note_on_c, 0, 55, 114
1, 64874, Note_off_c, 0, 55, 114
1, 64894, Note_on_c, 0, 57, 117
1, 65071, Note_off_c, 0, 57, 117
1, 65089, Note_on_c, 0, 54, 103
1, 65226, Note_off_c, 0, 54, 103
1, 65284, Note_on_c, 0, 55, 113
1, 65507, Note_off_c, 0, 55, 113
1, 65574, Note_on_c, 0, 57, 113
1, 65736, Note_off_c, 0, 57, 113
1, 65755, Note_on_c, 0, 58, 113
1, 65933, Note_off_c, 0, 58, 113
1, 66035, Note_on_c, 0, 60, 116
1, 66103, Note_off_c, 0, 60, 116
1, 66121, Note_on_c, 0, 61, 116
1, 66280, Note_off_c, 0, 61, 116
1, 66308, Note_on_c, 0, 55, 111
1, 66459, Note_off_c, 0, 55, 111
1, 67066, Note_on_c, 0, 61, 118
1, 67225, Note_off_c, 0, 61, 118
1, 67241, Note_on_c, 0, 60, 116
1, 67343, Note_off_c, 0, 60, 116
1, 67355, Note_on_c, 0, 59, 114
1, 67478, Note_off_c, 0, 59, 114
1, 67492, Note_on_c, 0, 58, 115
1, 67649, Note_off_c, 0, 58, 115
1, 67691, Note_on_c, 0, 57, 113
1, 67823, Note_off_c, 0, 57, 113
1, 67849, Note_on_c, 0, 56, 114
1, 68040, Note_off_c, 0, 56, 114
1, 68121, Note_on_c, 0, 55, 109
1, 68211, Note_off_c, 0, 55, 109
1, 68234, Note_on_c, 0, 53, 111
1, 68325, Note_off_c, 0, 53, 111
1, 68370, Note_on_c, 0, 52, 116
1, 68525, Note_off_c, 0, 52, 116
1, 68541, Note_on_c, 0, 49, 110
1, 68722, Note_off_c, 0, 49, 110
1, 68744, Note_on_c, 0, 48, 117
1, 68909, Note_off_c, 0, 48, 117
1, 68968, Note_on_c, 0, 47, 114
1, 69101, Note_off_c, 0, 47, 114
1, 69124, Note_on_c, 0, 46, 111
1, 69264, Note_off_c, 0, 46, 111
1, 69349, Note_on_c, 0, 49, 112
1, 69507, Note_off_c, 0, 49, 112
1, 69585, Note_on_c, 0, 45, 108
1, 69786, Note_off_c, 0, 45, 108
1, 69835, Note_on_c, 0, 42, 107
1, 69981, Note_off_c, 0, 42, 107
1, 70005, Note_on_c, 0, 43, 113
1, 70161, Note_off_c, 0, 43, 113
1, 70198, Note_on_c, 0, 45, 111
1, 70350, Note_off_c, 0, 45, 111
1, 70384, Note_on_c, 0, 46, 112
1, 70585, Note_off_c, 0, 46, 112
1, 70628, Note_on_c, 0, 48, 111
1, 70758, Note_off_c, 0, 48, 111
1, 70781, Note_on_c, 0, 49, 111
1, 70968, Note_off_c, 0, 49, 111
1, 71007, Note_on_c, 0, 51, 114
1, 71159, Note_off_c, 0, 51, 114
1, 71185, Note_on_c, 0, 52, 112
1, 71359, Note_off_c, 0, 52, 112
1, 71385, Note_on_c, 0, 55, 111
1, 71580, Note_off_c, 0, 55, 111
1, 71619, Note_on_c, 0, 58, 115
1, 71824, Note_off_c, 0, 58, 115
1, 71876, Note_on_c, 0, 61, 122
1, 72029, Note_off_c, 0, 61, 122
1, 72039, Note_on_c, 0, 58, 110
1, 72230, Note_off_c, 0, 58, 110
1, 72245, Note_on_c, 0, 59, 110
1, 72376, Note_off_c, 0, 59, 110
1, 72451, Note_on_c, 0, 60, 120
1, 72670, Note_off_c, 0, 60, 120
1, 72724, Note_on_c, 0, 57, 118
1, 72917, Note_off_c, 0, 57, 118
1, 72935, Note_on_c, 0, 55, 116
1, 73126, Note_off_c, 0, 55, 116
1, 73144, Note_on_c, 0, 53, 114
1, 73332, Note_off_c, 0, 53, 114
1, 73355, Note_on_c, 0, 52, 113
1, 73553, Note_off_c, 0, 52, 113
1, 73605, Note_on_c, 0, 48, 101
1, 73757, Note_off_c, 0, 48, 101
1, 73781, Note_on_c, 0, 50, 110
1, 74021, Note_off_c, 0, 50, 110
1, 74070, Note_on_c, 0, 52, 108
1, 74193, Note_off_c, 0, 52, 108
1, 74224, Note_on_c, 0, 55, 112
1, 74393, Note_off_c, 0, 55, 112
1, 74469, Note_on_c, 0, 53, 104
1, 74647, Note_off_c, 0, 53, 104
1, 74689, Note_on_c, 0, 52, 112
1, 74873, Note_off_c, 0, 52, 112
1, 74900, Note_on_c, 0, 53, 105
1, 75057, Note_off_c, 0, 53, 105
1, 75079, Note_on_c, 0, 55, 100
1, 75259, Note_off_c, 0, 55, 100
1, 75321, Note_on_c, 0, 57, 103
1, 75444, Note_off_c, 0, 57, 103
1, 75506, Note_on_c, 0, 60, 116
1, 75720, Note_off_c, 0, 60, 116
1, 75830, Note_on_c, 0, 57, 113
1, 75922, Note_off_c, 0, 57, 113
1, 75936, Note_on_c, 0, 58, 110
1, 76108, Note_off_c, 0, 58, 110
1, 76153, Note_on_c, 0, 55, 110
1, 76349, Note_off_c, 0, 55, 110
1, 77165, Note_on_c, 0, 55, 114
1, 77339, Note_off_c, 0, 55, 114
1, 77380, Note_on_c, 0, 57, 113
1, 77518, Note_off_c, 0, 57, 113
1, 77544, Note_on_c, 0, 58, 114
1, 77708, Note_off_c, 0, 58, 114
1, 77815, Note_on_c, 0, 60, 118
1, 77971, Note_off_c, 0, 60, 118
1, 77989, Note_on_c, 0, 61, 118
1, 78176, Note_off_c, 0, 61, 118
1, 78216, Note_on_c, 0, 64, 122
1, 78357, Note_off_c, 0, 64, 122
1, 78380, Note_on_c, 0, 61, 117
1, 78582, Note_off_c, 0, 61, 117
1, 78626, Note_on_c, 0, 57, 110
1, 78784, Note_off_c, 0, 57, 110
1, 78799, Note_on_c, 0, 59, 115
1, 78842, Note_off_c, 0, 59, 115
1, 78848, Note_on_c, 0, 60, 115
1, 79220, Note_off_c, 0, 60, 115
1, 80071, Note_on_c, 0, 61, 118
1, 80167, Note_off_c, 0, 61, 118
1, 80187, Note_on_c, 0, 60, 119
1, 80269, Note_off_c, 0, 60, 119
1, 80293, Note_on_c, 0, 57, 111
1, 80481, Note_off_c, 0, 57, 111
1, 80494, Note_on_c, 0, 58, 115
1, 80655, Note_off_c, 0, 58, 115
1, 80746, Note_on_c, 0, 60, 116
1, 80871, Note_off_c, 0, 60, 116
1, 80891, Note_on_c, 0, 61, 117
1, 81112, Note_off_c, 0, 61, 117
1, 81161, Note_on_c, 0, 63, 122
1, 81332, Note_off_c, 0, 63, 122
1, 81354, Note_on_c, 0, 65, 119
1, 81556, Note_off_c, 0, 65, 119
1, 81635, Note_on_c, 0, 61, 118
1, 81814, Note_off_c, 0, 61, 118
1, 81833, Note_on_c, 0, 60, 117
1, 81981, Note_off_c, 0, 60, 117
1, 82075, Note_on_c, 0, 57, 116
1, 82219, Note_off_c, 0, 57, 116
1, 82280, Note_on_c, 0, 52, 117
1, 82384, Note_off_c, 0, 52, 117
1, 82441, Note_on_c, 0, 64, 122
1, 82625, Note_off_c, 0, 64, 122
1, 82661, Note_on_c, 0, 62, 120
1, 82859, Note_off_c, 0, 62, 120
1, 82900, Note_on_c, 0, 58, 118
1, 83037, Note_off_c, 0, 58, 118
1, 83056, Note_on_c, 0, 59, 112
1, 83379, Note_off_c, 0, 59, 112
1, 83934, Note_on_c, 0, 64, 123
1, 84132, Note_off_c, 0, 64, 123
1, 84168, Note_on_c, 0, 62, 121
1, 84316, Note_off_c, 0, 62, 121
1, 84324, Note_on_c, 0, 64, 124
1, 84528, Note_off_c, 0, 64, 124
1, 84554, Note_on_c, 0, 62, 119
1, 84727, Note_off_c, 0, 62, 119
1, 84741, Note_on_c, 0, 59, 116
1, 84969, Note_off_c, 0, 59, 116
1, 84993, Note_on_c, 0, 58, 112
1, 85108, Note_off_c, 0, 58, 112
1, 85135, Note_on_c, 0, 59, 113
1, 85317, Note_off_c, 0, 59, 113
1, 85370, Note_on_c, 0, 57, 113
1, 85490, Note_off_c, 0, 57, 113
1, 85614, Note_on_c, 0, 65, 117
1, 85820, Note_off_c, 0, 65, 117
1, 85874, Note_on_c, 0, 63, 120
1, 86025, Note_off_c, 0, 63, 120
1, 86056, Note_on_c, 0, 65, 116
1, 86233, Note_off_c, 0, 65, 116
1, 86247, Note_on_c, 0, 63, 121
1, 86417, Note_off_c, 0, 63, 121
1, 86433, Note_on_c, 0, 60, 117
1, 86661, Note_off_c, 0, 60, 117
1, 86699, Note_on_c, 0, 58, 112
1, 86798, Note_off_c, 0, 58, 112
1, 86855, Note_on_c, 0, 60, 114
1, 87084, Note_off_c, 0, 60, 114
1, 87122, Note_on_c, 0, 58, 108
1, 87239, Note_off_c, 0, 58, 108
1, 87303, Note_on_c, 0, 57, 115
1, 87383, Note_off_c, 0, 57, 115
1, 87402, Note_on_c, 0, 55, 113
1, 87483, Note_off_c, 0, 55, 113
1, 87562, Note_on_c, 0, 55, 108
1, 87649, Note_off_c, 0, 55, 108
1, 88300, Note_on_c, 0, 57, 115
1, 88478, Note_off_c, 0, 57, 115
1, 88536, Note_on_c, 0, 55, 118
1, 88677, Note_off_c, 0, 55, 118
1, 88707, Note_on_c, 0, 53, 111
1, 88879, Note_off_c, 0, 53, 111
1, 88901, Note_on_c, 0, 49, 116
1, 89027, Note_off_c, 0, 49, 116
1, 89048, Note_on_c, 0, 52, 109
1, 89197, Note_off_c, 0, 52, 109
1, 89816, Note_on_c, 0, 52, 114
1, 89981, Note_off_c, 0, 52, 114
1, 90018, Note_on_c, 0, 49, 110
1, 90169, Note_off_c, 0, 49, 110
1, 90180, Note_on_c, 0, 50, 110
1, 90418, Note_off_c, 0, 50, 110
1, 90431, Note_on_c, 0, 52, 117
1, 90571, Note_off_c, 0, 52, 117
1, 90607, Note_on_c, 0, 53, 118
1, 90794, Note_off_c, 0, 53, 118
1, 90848, Note_on_c, 0, 55, 113
1, 90997, Note_off_c, 0, 55, 113
1, 91037, Note_on_c, 0, 57, 104
1, 91285, Note_off_c, 0, 57, 104
1, 91316, Note_on_c, 0, 59, 109
1, 91436, Note_off_c, 0, 59, 109
1, 91467, Note_on_c, 0, 64, 122
1, 91675, Note_off_c, 0, 64, 122
1, 91717, Note_on_c, 0, 62, 115
1, 91922, Note_off_c, 0, 62, 115
1, 91953, Note_on_c, 0, 57, 108
1, 92112, Note_off_c, 0, 57, 108
1, 92175, Note_on_c, 0, 55, 111
1, 92266, Note_off_c, 0, 55, 111
1, 92339, Note_on_c, 0, 58, 113
1, 92444, Note_off_c, 0, 58, 113
1, 92452, Note_on_c, 0, 60, 116
1, 92718, Note_off_c, 0, 60, 116
1, 92790, Note_on_c, 0, 58, 116
1, 92963, Note_off_c, 0, 58, 116
1, 93059, Note_on_c, 0, 51, 114
1, 93316, Note_off_c, 0, 51, 114
1, 94130, Note_on_c, 0, 47, 119
1, 94291, Note_off_c, 0, 47, 119
1, 94335, Note_on_c, 0, 49, 114
1, 94487, Note_off_c, 0, 49, 114
1, 94553, Note_on_c, 0, 53, 114
1, 94720, Note_off_c, 0, 53, 114
1, 94795, Note_on_c, 0, 57, 112
1, 94912, Note_off_c, 0, 57, 112
1, 95007, Note_on_c, 0, 60, 117
1, 95243, Note_off_c, 0, 60, 117
1, 95328, Note_on_c, 0, 58, 114
1, 95485, Note_off_c, 0, 58, 114
1, 95665, Note_on_c, 0, 49, 113
1, 95843, Note_off_c, 0, 49, 113
1, 96086, Note_on_c, 0, 50, 108
1, 96238, Note_off_c, 0, 50, 108
1, 96283, Note_on_c, 0, 53, 106
1, 96410, Note_off_c, 0, 53, 106
1, 96464, Note_on_c, 0, 57, 105
1, 96613, Note_off_c, 0, 57, 105
1, 96668, Note_on_c, 0, 63, 122
1, 96926, Note_off_c, 0, 63, 122
1, 96937, Note_on_c, 0, 64, 123
1, 97191, Note_off_c, 0, 64, 123
1, 97280, Note_on_c, 0, 62, 114
1, 97437, Note_off_c, 0, 62, 114
1, 97458, Note_on_c, 0, 61, 112
1, 97580, Note_off_c, 0, 61, 112
1, 97750, Note_on_c, 0, 64, 117
1, 97876, Note_off_c, 0, 64, 117
1, 97930, Note_on_c, 0, 59, 108
1, 98111, Note_off_c, 0, 59, 108
1, 98165, Note_on_c, 0, 57, 108
1, 98263, Note_off_c, 0, 57, 108
1, 99540, Note_on_c, 0, 56, 113
1, 99712, Note_off_c, 0, 56, 113
1, 99728, Note_on_c, 0, 58, 114
1, 99846, Note_off_c, 0, 58, 114
1, 99878, Note_on_c, 0, 60, 115
1, 99997, Note_off_c, 0, 60, 115
1, 100012, Note_on_c, 0, 62, 117
1, 100096, Note_off_c, 0, 62, 117
1, 100097, Note_on_c, 0, 64, 115
1, 100190, Note_off_c, 0, 64, 115
1, 100203, Note_on_c, 0, 63, 120
1, 100342, Note_off_c, 0, 63, 120
1, 100942, Note_on_c, 0, 63, 119
1, 101131, Note_off_c, 0, 63, 119
1, 101162, Note_on_c, 0, 62, 116
1, 101302, Note_off_c, 0, 62, 116
1, 101346, Note_on_c, 0, 60, 115
1, 101550, Note_off_c, 0, 60, 115
1, 101592, Note_on_c, 0, 59, 116
1, 101757, Note_off_c, 0, 59, 116
1, 101777, Note_on_c, 0, 58, 112
1, 101961, Note_off_c, 0, 58, 112
1, 102068, Note_on_c, 0, 55, 110
1, 102282, Note_off_c, 0, 55, 110
1, 102324, Note_on_c, 0, 53, 101
1, 102455, Note_off_c, 0, 53, 101
1, 102664, Note_on_c, 0, 57, 114
1, 102849, Note_off_c, 0, 57, 114
1, 102916, Note_on_c, 0, 53, 113
1, 103069, Note_off_c, 0, 53, 113
1, 103089, Note_on_c, 0, 49, 112
1, 103226, Note_off_c, 0, 49, 112
1, 103280, Note_on_c, 0, 45, 108
1, 103445, Note_off_c, 0, 45, 108
1, 103459, Note_on_c, 0, 52, 116
1, 103628, Note_off_c, 0, 52, 116
1, 103721, Note_on_c, 0, 49, 109
1, 103857, Note_off_c, 0, 49, 109
1, 103880, Note_on_c, 0, 50, 109
1, 104095, Note_off_c, 0, 50, 109
1, 104138, Note_on_c, 0, 52, 112
1, 104290, Note_off_c, 0, 52, 112
1, 104297, Note_on_c, 0, 53, 114
1, 104489, Note_off_c, 0, 53, 114
1, 104535, Note_on_c, 0, 55, 107
1, 104666, Note_off_c, 0, 55, 107
1, 104686, Note_on_c, 0, 57, 105
1, 104920, Note_off_c, 0, 57, 105
1, 104929, Note_on_c, 0, 58, 100
1, 105066, Note_off_c, 0, 58, 100
1, 105179, Note_on_c, 0, 64, 104
1, 105363, Note_off_c, 0, 64, 104
1, 105404, Note_on_c, 0, 62, 113
1, 105553, Note_off_c, 0, 62, 113
1, 105593, Note_on_c, 0, 64, 121
1, 105802, Note_off_c, 0, 64, 121
1, 105855, Note_on_c, 0, 62, 116
1, 106017, Note_off_c, 0, 62, 116
1, 106156, Note_on_c, 0, 65, 116
1, 106338, Note_off_c, 0, 65, 116
1, 106365, Note_on_c, 0, 63, 118
1, 106582, Note_off_c, 0, 63, 118
1, 106611, Note_on_c, 0, 59, 103
1, 106754, Note_off_c, 0, 59, 103
1, 106784, Note_on_c, 0, 53, 106
1, 106884, Note_off_c, 0, 53, 106
1, 106916, Note_on_c, 0, 56, 93
1, 107005, Note_off_c, 0, 56, 93
1, 107010, Note_on_c, 0, 60, 75
1, 107255, Note_off_c, 0, 60, 75
1, 107267, Note_on_c, 0, 58, 110
1, 107449, Note_off_c, 0, 58, 110
1, 107869, Note_on_c, 0, 63, 118
1, 108057, Note_off_c, 0, 63, 118
1, 108072, Note_on_c, 0, 61, 113
1, 108156, Note_off_c, 0, 61, 113
1, 108278, Note_on_c, 0, 53, 110
1, 108361, Note_off_c, 0, 53, 110
1, 108380, Note_on_c, 0, 55, 105
1, 108439, Note_off_c, 0, 55, 105
1, 108452, Note_on_c, 0, 57, 101
1, 108555, Note_off_c, 0, 57, 101
1, 108597, Note_on_c, 0, 60, 113
1, 108812, Note_off_c, 0, 60, 113
1, 108857, Note_on_c, 0, 58, 105
1, 108964, Note_off_c, 0, 58, 105
1, 109203, Note_on_c, 0, 64, 121
1, 109369, Note_off_c, 0, 64, 121
1, 109385, Note_on_c, 0, 62, 112
1, 109493, Note_off_c, 0, 62, 112
1, 109563, Note_on_c, 0, 54, 109
1, 109648, Note_off_c, 0, 54, 109
1, 109669, Note_on_c, 0, 56, 109
1, 109729, Note_off_c, 0, 56, 109
1, 109755, Note_on_c, 0, 57, 107
1, 109865, Note_off_c, 0, 57, 107
1, 109890, Note_on_c, 0, 60, 114
1, 110120, Note_off_c, 0, 60, 114
1, 110165, Note_on_c, 0, 59, 110
1, 110293, Note_off_c, 0, 59, 110
1, 111130, Note_on_c, 0, 59, 113
1, 111274, Note_off_c, 0, 59, 113
1, 111327, Note_on_c, 0, 57, 119
1, 111476, Note_off_c, 0, 57, 119
1, 111511, Note_on_c, 0, 53, 109
1, 111669, Note_off_c, 0, 53, 109
1, 111731, Note_on_c, 0, 52, 111
1, 111894, Note_off_c, 0, 52, 111
1, 111922, Note_on_c, 0, 50, 110
1, 112088, Note_off_c, 0, 50, 110
1, 112136, Note_on_c, 0, 47, 111
1, 112299, Note_off_c, 0, 47, 111
1, 113179, Note_on_c, 0, 51, 122
1, 113283, Note_off_c, 0, 51, 122
1, 113299, Note_on_c, 0, 52, 118
1, 113417, Note_off_c, 0, 52, 118
1, 113435, Note_on_c, 0, 48, 110
1, 113610, Note_off_c, 0, 48, 110
1, 113637, Note_on_c, 0, 49, 109
1, 113818, Note_off_c, 0, 49, 109
1, 113858, Note_on_c, 0, 51, 116
1, 114031, Note_off_c, 0, 51, 116
1, 114051, Note_on_c, 0, 53, 119
1, 114217, Note_off_c, 0, 53, 119
1, 114286, Note_on_c, 0, 55, 112
1, 114419, Note_off_c, 0, 55, 112
1, 114442, Note_on_c, 0, 57, 112
1, 114639, Note_off_c, 0, 57, 112
1, 114670, Note_on_c, 0, 59, 91
1, 114757, Note_off_c, 0, 59, 91
1, 114815, Note_on_c, 0, 64, 105
1, 114941, Note_off_c, 0, 64, 105
1, 115058, Note_on_c, 0, 60, 110
1, 115237, Note_off_c, 0, 60, 110
1, 115257, Note_on_c, 0, 61, 114
1, 115436, Note_off_c, 0, 61, 114
1, 115469, Note_on_c, 0, 64, 121
1, 115613, Note_off_c, 0, 64, 121
1, 115640, Note_on_c, 0, 65, 116
1, 115871, Note_off_c, 0, 65, 116
1, 115890, Note_on_c, 0, 66, 120
1, 116014, Note_off_c, 0, 66, 120
1, 116032, Note_on_c, 0, 67, 120
1, 116240, Note_off_c, 0, 67, 120
1, 116927, Note_on_c, 0, 67, 119
1, 117129, Note_off_c, 0, 67, 119
1, 117207, Note_on_c, 0, 65, 114
1, 117362, Note_off_c, 0, 65, 114
1, 117404, Note_on_c, 0, 61, 114
1, 117573, Note_off_c, 0, 61, 114
1, 117620, Note_on_c, 0, 57, 113
1, 117779, Note_off_c, 0, 57, 113
1, 117799, Note_on_c, 0, 63, 109
1, 117897, Note_off_c, 0, 63, 109
1, 117913, Note_on_c, 0, 64, 121
1, 118382, Note_off_c, 0, 64, 121
1, 118411, Note_on_c, 0, 61, 115
1, 118596, Note_off_c, 0, 61, 115
1, 118633, Note_on_c, 0, 62, 119
1, 118806, Note_off_c, 0, 62, 119
1, 118901, Note_on_c, 0, 57, 115
1, 119087, Note_off_c, 0, 57, 115
1, 119158, Note_on_c, 0, 55, 103
1, 119234, Note_off_c, 0, 55, 103
1, 119271, Note_on_c, 0, 53, 105
1, 119414, Note_off_c, 0, 53, 105
1, 119440, Note_on_c, 0, 60, 114
1, 119670, Note_off_c, 0, 60, 114
1, 119710, Note_on_c, 0, 57, 112
1, 119860, Note_off_c, 0, 57, 112
1, 120783, Note_on_c, 0, 57, 115
1, 121017, Note_off_c, 0, 57, 115
1, 121062, Note_on_c, 0, 60, 111
1, 121241, Note_off_c, 0, 60, 111
1, 121263, Note_on_c, 0, 61, 112
1, 121422, Note_off_c, 0, 61, 112
1, 121454, Note_on_c, 0, 63, 117
1, 121576, Note_off_c, 0, 63, 117
1, 121605, Note_on_c, 0, 61, 116
1, 121781, Note_off_c, 0, 61, 116
1, 121804, Note_on_c, 0, 59, 110
1, 121997, Note_off_c, 0, 59, 110
1, 122029, Note_on_c, 0, 57, 112
1, 122201, Note_off_c, 0, 57, 112
1, 122243, Note_on_c, 0, 55, 110
1, 122412, Note_off_c, 0, 55, 110
1, 122437, Note_on_c, 0, 53, 116
1, 122592, Note_off_c, 0, 53, 116
1, 123201, Note_on_c, 0, 52, 122
1, 123411, Note_off_c, 0, 52, 122
1, 123433, Note_on_c, 0, 49, 111
1, 123565, Note_off_c, 0, 49, 111
1, 123588, Note_on_c, 0, 50, 112
1, 123824, Note_off_c, 0, 50, 112
1, 123872, Note_on_c, 0, 52, 117
1, 124010, Note_off_c, 0, 52, 117
1, 124026, Note_on_c, 0, 53, 108
1, 124208, Note_off_c, 0, 53, 108
1, 124247, Note_on_c, 0, 55, 105
1, 124365, Note_off_c, 0, 55, 105
1, 124410, Note_on_c, 0, 57, 106
1, 124636, Note_off_c, 0, 57, 106
1, 124652, Note_on_c, 0, 58, 100
1, 124733, Note_off_c, 0, 58, 100
1, 124805, Note_on_c, 0, 64, 109
1, 125042, Note_off_c, 0, 64, 109
1, 125104, Note_on_c, 0, 62, 115
1, 125306, Note_off_c, 0, 62, 115
1, 125441, Note_on_c, 0, 57, 115
1, 125616, Note_off_c, 0, 57, 115
1, 125637, Note_on_c, 0, 55, 110
1, 125707, Note_off_c, 0, 55, 110
1, 125744, Note_on_c, 0, 53, 108
1, 125868, Note_off_c, 0, 53, 108
1, 125983, Note_on_c, 0, 64, 120
1, 126116, Note_off_c, 0, 64, 120
1, 126132, Note_on_c, 0, 65, 113
1, 126364, Note_off_c, 0, 65, 113
1, 126422, Note_on_c, 0, 63, 121
1, 126610, Note_off_c, 0, 63, 121
1, 126661, Note_on_c, 0, 57, 119
1, 126779, Note_off_c, 0, 57, 119
1, 126802, Note_on_c, 0, 58, 109
1, 127045, Note_off_c, 0, 58, 109
1, 127650, Note_on_c, 0, 58, 114
1, 127832, Note_off_c, 0, 58, 114
1, 127864, Note_on_c, 0, 60, 110
1, 128026, Note_off_c, 0, 60, 110
1, 128055, Note_on_c, 0, 58, 108
1, 128204, Note_off_c, 0, 58, 108
1, 128342, Note_on_c, 0, 55, 110
1, 128501, Note_off_c, 0, 55, 110
1, 128561, Note_on_c, 0, 53, 106
1, 128743, Note_off_c, 0, 53, 106
1, 128799, Note_on_c, 0, 51, 114
1, 128952, Note_off_c, 0, 51, 114
1, 128977, Note_on_c, 0, 46, 116
1, 129126, Note_off_c, 0, 46, 116
1, 129147, Note_on_c, 0, 45, 113
1, 129377, Note_off_c, 0, 45, 113
1, 129411, Note_on_c, 0, 52, 118
1, 129615, Note_off_c, 0, 52, 118
1, 129666, Note_on_c, 0, 49, 107
1, 129861, Note_off_c, 0, 49, 107
1, 129877, Note_on_c, 0, 50, 106
1, 130065, Note_off_c, 0, 50, 106
1, 130078, Note_on_c, 0, 52, 118
1, 130253, Note_off_c, 0, 52, 118
1, 130287, Note_on_c, 0, 53, 108
1, 130526, Note_off_c, 0, 53, 108
1, 130563, Note_on_c, 0, 55, 110
1, 130683, Note_off_c, 0, 55, 110
1, 130714, Note_on_c, 0, 57, 102
1, 130963, Note_off_c, 0, 57, 102
1, 131143, Note_on_c, 0, 63, 122
1, 131291, Note_off_c, 0, 63, 122
1, 131316, Note_on_c, 0, 64, 118
1, 131511, Note_off_c, 0, 64, 118
1, 131549, Note_on_c, 0, 62, 111
1, 131777, Note_off_c, 0, 62, 111
1, 131830, Note_on_c, 0, 57, 116
1, 132031, Note_off_c, 0, 57, 116
1, 132150, Note_on_c, 0, 55, 109
1, 132269, Note_off_c, 0, 55, 109
1, 132284, Note_on_c, 0, 53, 110
1, 132518, Note_off_c, 0, 53, 110
1, 133097, Note_on_c, 0, 63, 121
1, 133221, Note_off_c, 0, 63, 121
1, 133247, Note_on_c, 0, 61, 118
1, 133379, Note_off_c, 0, 61, 118
1, 133419, Note_on_c, 0, 58, 109
1, 133525, Note_off_c, 0, 58, 109
1, 133580, Note_on_c, 0, 57, 102
1, 133651, Note_off_c, 0, 57, 102
1, 133690, Note_on_c, 0, 60, 119
1, 133909, Note_off_c, 0, 60, 119
1, 133977, Note_on_c, 0, 58, 115
1, 134112, Note_off_c, 0, 58, 115
1, 134309, Note_on_c, 0, 53, 110
1, 134449, Note_off_c, 0, 53, 110
1, 134468, Note_on_c, 0, 56, 116
1, 134570, Note_off_c, 0, 56, 116
1, 134575, Note_on_c, 0, 57, 113
1, 134853, Note_off_c, 0, 57, 113
1, 134888, Note_on_c, 0, 55, 113
1, 135059, Note_off_c, 0, 55, 113
1, 135158, Note_on_c, 0, 53, 109
1, 135342, Note_off_c, 0, 53, 109
1, 135499, Note_on_c, 0, 51, 118
1, 135664, Note_off_c, 0, 51, 118
1, 135683, Note_on_c, 0, 49, 110
1, 135909, Note_off_c, 0, 49, 110
1, 135944, Note_on_c, 0, 45, 101
1, 136061, Note_off_c, 0, 45, 101
1, 136088, Note_on_c, 0, 52, 118
1, 136329, Note_off_c, 0, 52, 118
1, 136433, Note_on_c, 0, 49, 110
1, 136525, Note_off_c, 0, 49, 110
1, 136536, Note_on_c, 0, 50, 108
1, 136757, Note_off_c, 0, 50, 108
1, 136777, Note_on_c, 0, 52, 120
1, 136988, Note_off_c, 0, 52, 120
1, 137019, Note_on_c, 0, 53, 114
1, 137163, Note_off_c, 0, 53, 114
1, 137247, Note_on_c, 0, 55, 109
1, 137397, Note_off_c, 0, 55, 109
1, 137410, Note_on_c, 0, 57, 109
1, 137598, Note_off_c, 0, 57, 109
1, 137624, Note_on_c, 0, 59, 111
1, 137768, Note_off_c, 0, 59, 111
1, 137785, Note_on_c, 0, 61, 120
1, 138050, Note_off_c, 0, 61, 120
1, 138112, Note_on_c, 0, 64, 120
1, 138302, Note_off_c, 0, 64, 120
1, 138322, Note_on_c, 0, 65, 114
1, 138407, Note_off_c, 0, 65, 114
1, 138476, Note_on_c, 0, 65, 116
1, 138530, Note_off_c, 0, 65, 116
1, 138531, Note_on_c, 0, 64, 102
1, 138648, Note_off_c, 0, 64, 102
1, 138654, Note_on_c, 0, 58, 106
1, 138814, Note_off_c, 0, 58, 106
1, 139919, Note_on_c, 0, 60, 121
1, 140028, Note_off_c, 0, 60, 121
1, 140036, Note_on_c, 0, 61, 120
1, 140138, Note_off_c, 0, 61, 120
1, 140146, Note_on_c, 0, 60, 119
1, 140246, Note_off_c, 0, 60, 119
1, 140259, Note_on_c, 0, 57, 117
1, 140360, Note_off_c, 0, 57, 117
1, 140379, Note_on_c, 0, 58, 116
1, 140517, Note_off_c, 0, 58, 116
1, 140619, Note_on_c, 0, 60, 114
1, 140775, Note_off_c, 0, 60, 114
1, 140786, Note_on_c, 0, 61, 117
1, 140953, Note_off_c, 0, 61, 117
1, 140979, Note_on_c, 0, 63, 121
1, 141150, Note_off_c, 0, 63, 121
1, 141182, Note_on_c, 0, 65, 118
1, 141373, Note_off_c, 0, 65, 118
1, 141464, Note_on_c, 0, 61, 118
1, 141648, Note_off_c, 0, 61, 118
1, 141781, Note_on_c, 0, 61, 118
1, 142003, Note_off_c, 0, 61, 118
1, 142074, Note_on_c, 0, 57, 114
1, 142282, Note_off_c, 0, 57, 114
1, 142357, Note_on_c, 0, 53, 106
1, 142572, Note_off_c, 0, 53, 106
1, 143722, Note_on_c, 0, 57, 115
1, 143939, Note_off_c, 0, 57, 115
1, 144013, Note_on_c, 0, 53, 114
1, 144164, Note_off_c, 0, 53, 114
1, 144187, Note_on_c, 0, 49, 115
1, 144302, Note_off_c, 0, 49, 115
1, 144323, Note_on_c, 0, 45, 101
1, 144480, Note_off_c, 0, 45, 101
1, 144564, Note_on_c, 0, 51, 116
1, 144794, Note_off_c, 0, 51, 116
1, 144823, Note_on_c, 0, 52, 114
1, 145135, Note_off_c, 0, 52, 114
1, 145166, Note_on_c, 0, 49, 112
1, 145342, Note_off_c, 0, 49, 112
1, 145362, Note_on_c, 0, 50, 115
1, 145651, Note_off_c, 0, 50, 115
1, 145699, Note_on_c, 0, 47, 116
1, 145874, Note_off_c, 0, 47, 116
1, 146490, Note_on_c, 0, 45, 115
1, 146652, Note_off_c, 0, 45, 115
1, 146659, Note_on_c, 0, 46, 114
1, 146829, Note_off_c, 0, 46, 114
1, 146846, Note_on_c, 0, 48, 114
1, 146979, Note_off_c, 0, 48, 114
1, 147014, Note_on_c, 0, 49, 114
1, 147205, Note_off_c, 0, 49, 114
1, 147241, Note_on_c, 0, 51, 112
1, 147425, Note_off_c, 0, 51, 112
1, 147452, Note_on_c, 0, 53, 117
1, 147644, Note_off_c, 0, 53, 117
1, 147695, Note_on_c, 0, 48, 116
1, 147872, Note_off_c, 0, 48, 116
1, 147914, Note_on_c, 0, 49, 113
1, 148120, Note_off_c, 0, 49, 113
1, 148141, Note_on_c, 0, 52, 110
1, 148345, Note_off_c, 0, 52, 110
1, 148392, Note_on_c, 0, 57, 104
1, 148496, Note_off_c, 0, 57, 104
1, 148539, Note_on_c, 0, 55, 113
1, 148758, Note_off_c, 0, 55, 113
1, 148796, Note_on_c, 0, 57, 112
1, 148986, Note_off_c, 0, 57, 112
1, 149040, Note_on_c, 0, 49, 114
1, 149233, Note_off_c, 0, 49, 114
1, 149248, Note_on_c, 0, 51, 114
1, 149387, Note_off_c, 0, 51, 114
1, 149399, Note_on_c, 0, 52, 115
1, 149550, Note_off_c, 0, 52, 115
1, 149572, Note_on_c, 0, 53, 120
1, 149792, Note_off_c, 0, 53, 120
1, 149810, Note_on_c, 0, 55, 113
1, 149971, Note_off_c, 0, 55, 113
1, 149994, Note_on_c, 0, 57, 113
1, 150154, Note_off_c, 0, 57, 113
1, 150222, Note_on_c, 0, 54, 108
1, 150420, Note_off_c, 0, 54, 108
1, 150435, Note_on_c, 0, 55, 111
1, 150622, Note_off_c, 0, 55, 111
1, 150654, Note_on_c, 0, 57, 112
1, 150772, Note_off_c, 0, 57, 112
1, 150809, Note_on_c, 0, 58, 114
1, 151009, Note_off_c, 0, 58, 114
1, 151032, Note_on_c, 0, 56, 118
1, 151191, Note_off_c, 0, 56, 118
1, 151254, Note_on_c, 0, 57, 115
1, 151433, Note_off_c, 0, 57, 115
1, 151482, Note_on_c, 0, 59, 112
1, 151641, Note_off_c, 0, 59, 112
1, 151711, Note_on_c, 0, 64, 123
1, 151868, Note_off_c, 0, 64, 123
1, 151905, Note_on_c, 0, 61, 118
1, 152093, Note_off_c, 0, 61, 118
1, 152111, Note_on_c, 0, 62, 116
1, 152284, Note_off_c, 0, 62, 116
1, 152303, Note_on_c, 0, 64, 119
1, 152437, Note_off_c, 0, 64, 119
1, 152456, Note_on_c, 0, 65, 123
1, 152616, Note_off_c, 0, 65, 123
1, 152639, Note_on_c, 0, 66, 110
1, 152827, Note_off_c, 0, 66, 110
1, 152850, Note_on_c, 0, 68, 118
1, 153028, Note_off_c, 0, 68, 118
1, 153047, Note_on_c, 0, 69, 121
1, 153932, Note_off_c, 0, 69, 121
1, 154632, Note_on_c, 0, 63, 124
1, 154871, Note_off_c, 0, 63, 124
1, 154898, Note_on_c, 0, 58, 117
1, 155080, Note_off_c, 0, 58, 117
1, 155101, Note_on_c, 0, 57, 120
1, 155252, Note_off_c, 0, 57, 120
1, 155270, Note_on_c, 0, 51, 117
1, 155455, Note_off_c, 0, 51, 117
1, 155523, Note_on_c, 0, 46, 116
1, 155722, Note_off_c, 0, 46, 116
1, 155769, Note_on_c, 0, 45, 118
1, 155986, Note_off_c, 0, 45, 118
1, 157055, Note_on_c, 0, 52, 117
1, 157211, Note_off_c, 0, 52, 117
1, 157229, Note_on_c, 0, 49, 109
1, 157392, Note_off_c, 0, 49, 109
1, 157414, Note_on_c, 0, 50, 113
1, 157675, Note_off_c, 0, 50, 113
1, 157696, Note_on_c, 0, 52, 116
1, 157872, Note_off_c, 0, 52, 116
1, 157884, Note_on_c, 0, 53, 114
1, 158079, Note_off_c, 0, 53, 114
1, 158099, Note_on_c, 0, 55, 109
1, 158283, Note_off_c, 0, 55, 109
1, 158292, Note_on_c, 0, 57, 104
1, 158502, Note_off_c, 0, 57, 104
1, 158533, Note_on_c, 0, 58, 101
1, 158614, Note_off_c, 0, 58, 101
1, 158723, Note_on_c, 0, 64, 122
1, 158931, Note_off_c, 0, 64, 122
1, 158947, Note_on_c, 0, 62, 119
1, 159077, Note_off_c, 0, 62, 119
1, 159088, Note_on_c, 0, 60, 115
1, 159304, Note_off_c, 0, 60, 115
1, 159324, Note_on_c, 0, 58, 108
1, 159426, Note_off_c, 0, 58, 108
1, 159456, Note_on_c, 0, 57, 114
1, 159726, Note_off_c, 0, 57, 114
1, 160388, Note_on_c, 0, 57, 118
1, 160610, Note_off_c, 0, 57, 118
1, 160629, Note_on_c, 0, 58, 114
1, 160731, Note_off_c, 0, 58, 114
1, 160746, Note_on_c, 0, 60, 120
1, 160981, Note_off_c, 0, 60, 120
1, 161008, Note_on_c, 0, 62, 122
1, 161135, Note_off_c, 0, 62, 122
1, 161158, Note_on_c, 0, 63, 125
1, 161353, Note_off_c, 0, 63, 125
1, 161427, Note_on_c, 0, 57, 115
1, 161593, Note_off_c, 0, 57, 115
1, 161617, Note_on_c, 0, 58, 110
1, 161760, Note_off_c, 0, 58, 110
1, 161827, Note_on_c, 0, 63, 119
1, 162055, Note_off_c, 0, 63, 119
1, 162073, Note_on_c, 0, 62, 119
1, 162282, Note_off_c, 0, 62, 119
1, 162301, Note_on_c, 0, 61, 120
1, 162451, Note_off_c, 0, 61, 120
1, 162496, Note_on_c, 0, 60, 121
1, 162680, Note_off_c, 0, 60, 121
1, 162712, Note_on_c, 0, 59, 116
1, 162813, Note_off_c, 0, 59, 116
1, 162825, Note_on_c, 0, 58, 117
1, 162910, Note_off_c, 0, 58, 117
1, 162940, Note_on_c, 0, 57, 118
1, 163063, Note_off_c, 0, 57, 118
1, 163138, Note_on_c, 0, 60, 116
1, 163312, Note_off_c, 0, 60, 116
1, 163334, Note_on_c, 0, 57, 117
1, 163492, Note_off_c, 0, 57, 117
1, 163512, Note_on_c, 0, 55, 116
1, 163679, Note_off_c, 0, 55, 116
1, 163719, Note_on_c, 0, 54, 108
1, 163901, Note_off_c, 0, 54, 108
1, 163943, Note_on_c, 0, 57, 114
1, 164071, Note_off_c, 0, 57, 114
1, 164100, Note_on_c, 0, 51, 119
1, 164289, Note_off_c, 0, 51, 119
1, 164311, Note_on_c, 0, 48, 105
1, 164452, Note_off_c, 0, 48, 105
1, 164515, Note_on_c, 0, 50, 119
1, 164664, Note_off_c, 0, 50, 119
1, 164718, Note_on_c, 0, 45, 121
1, 164909, Note_off_c, 0, 45, 121
1, 164936, Note_on_c, 0, 48, 113
1, 165132, Note_off_c, 0, 48, 113
1, 165178, Note_on_c, 0, 45, 111
1, 165393, Note_off_c, 0, 45, 111
1, 165417, Note_on_c, 0, 46, 107
1, 165599, Note_off_c, 0, 46, 107
1, 165617, Note_on_c, 0, 48, 113
1, 165800, Note_off_c, 0, 48, 113
1, 165828, Note_on_c, 0, 50, 111
1, 165977, Note_off_c, 0, 50, 111
1, 166008, Note_on_c, 0, 52, 109
1, 166123, Note_off_c, 0, 52, 109
1, 166146, Note_on_c, 0, 57, 112
1, 166365, Note_off_c, 0, 57, 112
1, 166388, Note_on_c, 0, 54, 116
1, 166554, Note_off_c, 0, 54, 116
1, 166582, Note_on_c, 0, 55, 109
1, 166764, Note_off_c, 0, 55, 109
1, 166831, Note_on_c, 0, 57, 113
1, 167027, Note_off_c, 0, 57, 113
1, 167045, Note_on_c, 0, 58, 113
1, 167236, Note_off_c, 0, 58, 113
1, 167263, Note_on_c, 0, 60, 114
1, 167417, Note_off_c, 0, 60, 114
1, 167428, Note_on_c, 0, 62, 119
1, 167599, Note_off_c, 0, 62, 119
1, 167632, Note_on_c, 0, 64, 123
1, 167798, Note_off_c, 0, 64, 123
1, 167912, Note_on_c, 0, 66, 117
1, 168036, Note_off_c, 0, 66, 117
1, 168047, Note_on_c, 0, 67, 119
1, 168234, Note_off_c, 0, 67, 119
1, 168270, Note_on_c, 0, 64, 119
1, 168467, Note_off_c, 0, 64, 119
1, 168521, Note_on_c, 0, 62, 115
1, 168705, Note_off_c, 0, 62, 115
1, 169961, Note_on_c, 0, 62, 121
1, 170142, Note_off_c, 0, 62, 121
1, 170176, Note_on_c, 0, 64, 121
1, 170335, Note_off_c, 0, 64, 121
1, 170348, Note_on_c, 0, 66, 116
1, 170430, Note_off_c, 0, 66, 116
1, 170439, Note_on_c, 0, 67, 123
1, 170548, Note_off_c, 0, 67, 123
1, 170574, Note_on_c, 0, 66, 114
1, 170641, Note_off_c, 0, 66, 114
1, 170648, Note_on_c, 0, 64, 120
1, 170794, Note_off_c, 0, 64, 120
1, 170818, Note_on_c, 0, 62, 117
1, 170996, Note_off_c, 0, 62, 117
1, 171012, Note_on_c, 0, 58, 116
1, 171179, Note_off_c, 0, 58, 116
1, 171227, Note_on_c, 0, 62, 121
1, 171323, Note_off_c, 0, 62, 121
1, 171365, Note_on_c, 0, 58, 116
1, 171467, Note_off_c, 0, 58, 116
1, 171489, Note_on_c, 0, 55, 114
1, 171639, Note_off_c, 0, 55, 114
1, 171656, Note_on_c, 0, 57, 115
1, 171836, Note_off_c, 0, 57, 115
1, 171926, Note_on_c, 0, 54, 106
1, 172052, Note_off_c, 0, 54, 106
1, 172071, Note_on_c, 0, 55, 111
1, 172227, Note_off_c, 0, 55, 111
1, 172347, Note_on_c, 0, 57, 112
1, 172457, Note_off_c, 0, 57, 112
1, 172474, Note_on_c, 0, 58, 113
1, 172634, Note_off_c, 0, 58, 113
1, 172669, Note_on_c, 0, 60, 116
1, 172859, Note_off_c, 0, 60, 116
1, 172896, Note_on_c, 0, 62, 118
1, 173057, Note_off_c, 0, 62, 118
1, 173125, Note_on_c, 0, 58, 112
1, 173307, Note_off_c, 0, 58, 112
1, 173323, Note_on_c, 0, 57, 110
1, 173473, Note_off_c, 0, 57, 110
1, 173515, Note_on_c, 0, 55, 106
1, 173683, Note_off_c, 0, 55, 106
1, 173699, Note_on_c, 0, 60, 117
1, 173873, Note_off_c, 0, 60, 117
1, 173920, Note_on_c, 0, 57, 112
1, 174063, Note_off_c, 0, 57, 112
1, 174081, Note_on_c, 0, 58, 115
1, 174276, Note_off_c, 0, 58, 115
1, 174323, Note_on_c, 0, 54, 93
1, 174388, Note_off_c, 0, 54, 93
1, 175325, Note_on_c, 0, 57, 117
1, 175526, Note_off_c, 0, 57, 117
1, 175538, Note_on_c, 0, 54, 111
1, 175708, Note_off_c, 0, 54, 111
1, 175729, Note_on_c, 0, 55, 111
1, 175950, Note_off_c, 0, 55, 111
1, 175980, Note_on_c, 0, 57, 113
1, 176131, Note_off_c, 0, 57, 113
1, 176144, Note_on_c, 0, 58, 117
1, 176357, Note_off_c, 0, 58, 117
1, 176394, Note_on_c, 0, 52, 114
1, 176548, Note_off_c, 0, 52, 114
1, 176575, Note_on_c, 0, 55, 110
1, 176720, Note_off_c, 0, 55, 110
1, 176746, Note_on_c, 0, 57, 115
1, 176821, Note_off_c, 0, 57, 115
1, 176840, Note_on_c, 0, 58, 115
1, 177001, Note_off_c, 0, 58, 115
1, 177014, Note_on_c, 0, 57, 114
1, 177146, Note_off_c, 0, 57, 114
1, 177175, Note_on_c, 0, 56, 116
1, 177375, Note_off_c, 0, 56, 116
1, 177390, Note_on_c, 0, 55, 109
1, 177533, Note_off_c, 0, 55, 109
1, 177636, Note_on_c, 0, 53, 111
1, 177790, Note_off_c, 0, 53, 111
1, 177835, Note_on_c, 0, 52, 117
1, 178008, Note_off_c, 0, 52, 117
1, 178064, Note_on_c, 0, 49, 106
1, 178438, Note_off_c, 0, 49, 106
1, 178509, Note_on_c, 0, 47, 110
1, 178647, Note_off_c, 0, 47, 110
1, 178678, Note_on_c, 0, 46, 112
1, 178851, Note_off_c, 0, 46, 112
1, 178871, Note_on_c, 0, 44, 107
1, 179068, Note_off_c, 0, 44, 107
1, 179078, Note_on_c, 0, 46, 109
1, 179314, Note_off_c, 0, 46, 109
1, 179345, Note_on_c, 0, 48, 105
1, 179546, Note_off_c, 0, 48, 105
1, 179591, Note_on_c, 0, 50, 108
1, 179743, Note_off_c, 0, 50, 108
1, 179759, Note_on_c, 0, 52, 115
1, 179903, Note_off_c, 0, 52, 115
1, 179931, Note_on_c, 0, 55, 110
1, 180088, Note_off_c, 0, 55, 110
1, 180140, Note_on_c, 0, 53, 106
1, 180310, Note_off_c, 0, 53, 106
1, 180328, Note_on_c, 0, 52, 110
1, 180541, Note_off_c, 0, 52, 110
1, 180560, Note_on_c, 0, 53, 108
1, 180711, Note_off_c, 0, 53, 108
1, 180714, Note_on_c, 0, 55, 109
1, 180834, Note_off_c, 0, 55, 109
1, 180849, Note_on_c, 0, 57, 113
1, 181032, Note_off_c, 0, 57, 113
1, 181130, Note_on_c, 0, 63, 120
1, 181198, Note_off_c, 0, 63, 120
1, 181201, Note_on_c, 0, 64, 124
1, 181330, Note_off_c, 0, 64, 124
1, 181369, Note_on_c, 0, 60, 114
1, 181559, Note_off_c, 0, 60, 114
1, 181575, Note_on_c, 0, 62, 114
1, 181754, Note_off_c, 0, 62, 114
1, 181770, Note_on_c, 0, 64, 122
1, 181925, Note_off_c, 0, 64, 122
1, 181937, Note_on_c, 0, 66, 116
1, 181988, Note_off_c, 0, 66, 116
1, 181993, Note_on_c, 0, 67, 122
1, 182172, Note_off_c, 0, 67, 122
1, 182190, Note_on_c, 0, 65, 117
1, 182362, Note_off_c, 0, 65, 117
1, 182377, Note_on_c, 0, 64, 121
1, 182561, Note_off_c, 0, 64, 121
1, 182611, Note_on_c, 0, 62, 115
1, 182783, Note_off_c, 0, 62, 115
1, 182804, Note_on_c, 0, 63, 119
1, 182882, Note_off_c, 0, 63, 119
1, 182897, Note_on_c, 0, 64, 121
1, 183244, Note_off_c, 0, 64, 121
1, 183800, Note_on_c, 0, 52, 114
1, 183982, Note_off_c, 0, 52, 114
1, 184005, Note_on_c, 0, 55, 112
1, 184181, Note_off_c, 0, 55, 112
1, 184201, Note_on_c, 0, 56, 114
1, 184285, Note_off_c, 0, 56, 114
1, 184347, Note_on_c, 0, 57, 121
1, 184465, Note_off_c, 0, 57, 121
1, 184476, Note_on_c, 0, 58, 115
1, 184613, Note_off_c, 0, 58, 115
1, 184752, Note_on_c, 0, 57, 116
1, 184863, Note_off_c, 0, 57, 116
1, 184870, Note_on_c, 0, 58, 115
1, 184985, Note_off_c, 0, 58, 115
1, 185061, Note_on_c, 0, 58, 116
1, 185253, Note_off_c, 0, 58, 116
1, 185268, Note_on_c, 0, 57, 115
1, 185505, Note_off_c, 0, 57, 115
1, 185555, Note_on_c, 0, 51, 113
1, 185696, Note_off_c, 0, 51, 113
1, 186232, Note_on_c, 0, 48, 114
1, 186402, Note_off_c, 0, 48, 114
1, 186412, Note_on_c, 0, 49, 114
1, 186594, Note_off_c, 0, 49, 114
1, 186614, Note_on_c, 0, 53, 114
1, 186719, Note_off_c, 0, 53, 114
1, 186727, Note_on_c, 0, 57, 112
1, 186795, Note_off_c, 0, 57, 112
1, 186889, Note_on_c, 0, 59, 122
1, 186985, Note_off_c, 0, 59, 122
1, 186997, Note_on_c, 0, 60, 122
1, 187134, Note_off_c, 0, 60, 122
1, 187240, Note_on_c, 0, 60, 119
1, 187503, Note_off_c, 0, 60, 119
1, 187565, Note_on_c, 0, 60, 117
1, 187709, Note_off_c, 0, 60, 117
1, 187751, Note_on_c, 0, 58, 112
1, 187979, Note_off_c, 0, 58, 112
1, 188019, Note_on_c, 0, 55, 108
1, 188181, Note_off_c, 0, 55, 108
1, 188760, Note_on_c, 0, 56, 116
1, 189008, Note_off_c, 0, 56, 116
1, 189022, Note_on_c, 0, 57, 116
1, 189636, Note_off_c, 0, 57, 116
1, 189666, Note_on_c, 0, 53, 117
1, 189901, Note_off_c, 0, 53, 117
1, 189925, Note_on_c, 0, 49, 116
1, 190045, Note_off_c, 0, 49, 116
1, 190073, Note_on_c, 0, 46, 109
1, 190204, Note_off_c, 0, 46, 109
1, 190253, Note_on_c, 0, 52, 117
1, 190532, Note_off_c, 0, 52, 117
1, 190942, Note_on_c, 0, 49, 123
1, 191051, Note_off_c, 0, 49, 123
1, 191060, Note_on_c, 0, 50, 119
1, 191195, Note_off_c, 0, 50, 119
1, 191274, Note_on_c, 0, 52, 121
1, 191459, Note_off_c, 0, 52, 121
1, 191484, Note_on_c, 0, 53, 117
1, 191632, Note_off_c, 0, 53, 117
1, 191641, Note_on_c, 0, 55, 114
1, 191802, Note_off_c, 0, 55, 114
1, 191817, Note_on_c, 0, 57, 114
1, 191948, Note_off_c, 0, 57, 114
1, 192008, Note_on_c, 0, 59, 112
1, 192148, Note_off_c, 0, 59, 112
1, 192247, Note_on_c, 0, 64, 125
1, 192464, Note_off_c, 0, 64, 125
1, 192488, Note_on_c, 0, 62, 115
1, 192654, Note_off_c, 0, 62, 115
1, 192711, Note_on_c, 0, 65, 114
1, 192874, Note_off_c, 0, 65, 114
1, 192953, Note_on_c, 0, 63, 122
1, 193081, Note_off_c, 0, 63, 122
1, 193092, Note_on_c, 0, 65, 121
1, 193281, Note_off_c, 0, 65, 121
1, 193349, Note_on_c, 0, 63, 122
1, 193506, Note_off_c, 0, 63, 122
1, 193561, Note_on_c, 0, 58, 108
1, 193733, Note_off_c, 0, 58, 108
1, 194707, Note_on_c, 0, 65, 124
1, 194894, Note_off_c, 0, 65, 124
1, 194911, Note_on_c, 0, 63, 122
1, 195096, Note_off_c, 0, 63, 122
1, 195123, Note_on_c, 0, 65, 119
1, 195341, Note_off_c, 0, 65, 119
1, 195362, Note_on_c, 0, 63, 123
1, 195531, Note_off_c, 0, 63, 123
1, 195543, Note_on_c, 0, 58, 114
1, 195696, Note_off_c, 0, 58, 114
1, 195919, Note_on_c, 0, 67, 122
1, 196101, Note_off_c, 0, 67, 122
1, 196129, Note_on_c, 0, 64, 119
1, 196260, Note_off_c, 0, 64, 119
1, 196292, Note_on_c, 0, 67, 121
1, 196529, Note_off_c, 0, 67, 121
1, 196595, Note_on_c, 0, 64, 120
1, 196739, Note_off_c, 0, 64, 120
1, 196813, Note_on_c, 0, 60, 120
1, 196931, Note_off_c, 0, 60, 120
1, 196944, Note_on_c, 0, 61, 119
1, 197360, Note_off_c, 0, 61, 119
1, 197378, Note_on_c, 0, 64, 124
1, 197557, Note_off_c, 0, 64, 124
1, 197601, Note_on_c, 0, 62, 117
1, 197775, Note_off_c, 0, 62, 117
1, 197871, Note_on_c, 0, 57, 116
1, 198034, Note_off_c, 0, 57, 116
1, 198067, Note_on_c, 0, 55, 117
1, 198193, Note_off_c, 0, 55, 117
1, 198255, Note_on_c, 0, 53, 110
1, 198404, Note_off_c, 0, 53, 110
1, 198426, Note_on_c, 0, 52, 110
1, 198565, Note_off_c, 0, 52, 110
1, 198592, Note_on_c, 0, 50, 112
1, 198831, Note_off_c, 0, 50, 112
1, 199520, Note_on_c, 0, 48, 116
1, 199647, Note_off_c, 0, 48, 116
1, 199663, Note_on_c, 0, 49, 114
1, 199891, Note_off_c, 0, 49, 114
1, 199928, Note_on_c, 0, 51, 118
1, 200091, Note_off_c, 0, 51, 118
1, 200114, Note_on_c, 0, 53, 118
1, 200289, Note_off_c, 0, 53, 118
1, 200346, Note_on_c, 0, 56, 114
1, 200438, Note_off_c, 0, 56, 114
1, 200452, Note_on_c, 0, 57, 112
1, 200592, Note_off_c, 0, 57, 112
1, 200655, Note_on_c, 0, 58, 105
1, 200751, Note_off_c, 0, 58, 105
1, 200761, Note_on_c, 0, 60, 106
1, 200862, Note_off_c, 0, 60, 106
1, 200880, Note_on_c, 0, 63, 121
1, 201145, Note_off_c, 0, 63, 121
1, 201256, Note_on_c, 0, 61, 115
1, 201413, Note_off_c, 0, 61, 115
1, 201517, Note_on_c, 0, 53, 113
1, 201637, Note_off_c, 0, 53, 113
1, 201655, Note_on_c, 0, 55, 107
1, 201727, Note_off_c, 0, 55, 107
1, 201737, Note_on_c, 0, 57, 109
1, 201848, Note_off_c, 0, 57, 109
1, 201861, Note_on_c, 0, 60, 113
1, 202080, Note_off_c, 0, 60, 113
1, 202120, Note_on_c, 0, 58, 113
1, 202268, Note_off_c, 0, 58, 113
1, 202423, Note_on_c, 0, 64, 123
1, 202668, Note_off_c, 0, 64, 123
1, 202770, Note_on_c, 0, 62, 118
1, 202941, Note_off_c, 0, 62, 118
1, 202992, Note_on_c, 0, 53, 113
1, 203125, Note_off_c, 0, 53, 113
1, 203141, Note_on_c, 0, 55, 113
1, 203215, Note_off_c, 0, 55, 113
1, 203236, Note_on_c, 0, 57, 104
1, 203333, Note_off_c, 0, 57, 104
1, 203375, Note_on_c, 0, 61, 119
1, 203571, Note_off_c, 0, 61, 119
1, 203632, Note_on_c, 0, 59, 118
1, 203812, Note_off_c, 0, 59, 118
1, 204654, Note_on_c, 0, 61, 121
1, 204831, Note_off_c, 0, 61, 121
1, 204915, Note_on_c, 0, 59, 121
1, 205063, Note_off_c, 0, 59, 121
1, 205088, Note_on_c, 0, 57, 119
1, 205239, Note_off_c, 0, 57, 119
1, 205347, Note_on_c, 0, 53, 113
1, 205505, Note_off_c, 0, 53, 113
1, 205527, Note_on_c, 0, 52, 119
1, 205664, Note_off_c, 0, 52, 119
1, 205674, Note_on_c, 0, 50, 116
1, 205845, Note_off_c, 0, 50, 116
1, 205873, Note_on_c, 0, 51, 113
1, 206048, Note_off_c, 0, 51, 113
1, 206088, Note_on_c, 0, 53, 113
1, 206338, Note_off_c, 0, 53, 113
1, 206345, Note_on_c, 0, 55, 112
1, 206514, Note_off_c, 0, 55, 112
1, 206535, Note_on_c, 0, 57, 111
1, 206664, Note_off_c, 0, 57, 111
1, 206689, Note_on_c, 0, 58, 114
1, 206898, Note_off_c, 0, 58, 114
1, 206927, Note_on_c, 0, 55, 113
1, 207090, Note_off_c, 0, 55, 113
1, 207103, Note_on_c, 0, 56, 119
1, 207305, Note_off_c, 0, 56, 119
1, 207336, Note_on_c, 0, 57, 117
1, 207496, Note_off_c, 0, 57, 117
1, 207980, Note_on_c, 0, 57, 116
1, 208202, Note_off_c, 0, 57, 116
1, 208220, Note_on_c, 0, 58, 114
1, 208350, Note_off_c, 0, 58, 114
1, 208377, Note_on_c, 0, 57, 116
1, 208583, Note_off_c, 0, 57, 116
1, 208638, Note_on_c, 0, 53, 118
1, 208758, Note_off_c, 0, 53, 118
1, 208785, Note_on_c, 0, 51, 117
1, 208956, Note_off_c, 0, 51, 117
1, 208988, Note_on_c, 0, 45, 112
1, 209155, Note_off_c, 0, 45, 112
1, 209217, Note_on_c, 0, 52, 118
1, 209394, Note_off_c, 0, 52, 118
1, 209493, Note_on_c, 0, 49, 109
1, 209610, Note_off_c, 0, 49, 109
1, 209632, Note_on_c, 0, 50, 115
1, 209858, Note_off_c, 0, 50, 115
1, 209872, Note_on_c, 0, 52, 114
1, 210055, Note_off_c, 0, 52, 114
1, 210071, Note_on_c, 0, 53, 110
1, 210256, Note_off_c, 0, 53, 110
1, 210351, Note_on_c, 0, 55, 109
1, 210509, Note_off_c, 0, 55, 109
1, 210525, Note_on_c, 0, 57, 101
1, 210718, Note_off_c, 0, 57, 101
1, 210739, Note_on_c, 0, 58, 105
1, 210841, Note_off_c, 0, 58, 105
1, 210888, Note_on_c, 0, 64, 124
1, 211072, Note_off_c, 0, 64, 124
1, 211092, Note_on_c, 0, 62, 119
1, 211203, Note_off_c, 0, 62, 119
1, 211217, Note_on_c, 0, 64, 125
1, 211350, Note_off_c, 0, 64, 125
1, 211372, Note_on_c, 0, 62, 118
1, 211456, Note_off_c, 0, 62, 118
1, 211472, Note_on_c, 0, 59, 114
1, 211574, Note_off_c, 0, 59, 114
1, 211604, Note_on_c, 0, 57, 112
1, 211714, Note_off_c, 0, 57, 112
1, 211828, Note_on_c, 0, 64, 120
1, 211951, Note_off_c, 0, 64, 120
1, 211964, Note_on_c, 0, 62, 115
1, 212068, Note_off_c, 0, 62, 115
1, 212079, Note_on_c, 0, 64, 121
1, 212179, Note_off_c, 0, 64, 121
1, 212208, Note_on_c, 0, 62, 119
1, 212300, Note_off_c, 0, 62, 119
1, 212315, Note_on_c, 0, 59, 109
1, 212409, Note_off_c, 0, 59, 109
1, 212426, Note_on_c, 0, 57, 112
1, 212595, Note_off_c, 0, 57, 112
1, 212645, Note_on_c, 0, 64, 119
1, 212773, Note_off_c, 0, 64, 119
1, 212797, Note_on_c, 0, 65, 115
1, 213064, Note_off_c, 0, 65, 115
1, 213086, Note_on_c, 0, 63, 116
1, 213245, Note_off_c, 0, 63, 116
1, 213270, Note_on_c, 0, 57, 114
1, 213379, Note_off_c, 0, 57, 114
1, 213383, Note_on_c, 0, 58, 104
1, 213549, Note_off_c, 0, 58, 104
1, 213549, End_track
0, 0, End_of_file
