0, 0, Header, 1, 1, 192
1, 0, Start_track
1, 0, Title_t, "Melody"
1, 0, Tempo, 191082
1, 0, Key_signature, -1, "major"
1, 0, Time_signature, 4, 2, 24, 8
1, 1618, Note_on_c, 0, 55, 107
1, 1712, Note_off_c, 0, 55, 107
1, 1718, Note_on_c, 0, 52, 107
1, 1812, Note_off_c, 0, 52, 107
1, 1827, Note_on_c, 0, 53, 104
1, 1925, Note_off_c, 0, 53, 104
1, 1933, Note_on_c, 0, 55, 105
1, 2008, Note_off_c, 0, 55, 105
1, 2016, Note_on_c, 0, 57, 109
1, 2096, Note_off_c, 0, 57, 109
1, 2123, Note_on_c, 0, 60, 115
1, 2194, Note_off_c, 0, 60, 115
1, 2199, Note_on_c, 0, 64, 122
1, 2286, Note_off_c, 0, 64, 122
1, 2298, Note_on_c, 0, 62, 115
1, 2366, Note_off_c, 0, 62, 115
1, 2378, Note_on_c, 0, 60, 113
1, 2482, Note_off_c, 0, 60, 113
1, 2501, Note_on_c, 0, 57, 107
1, 2572, Note_off_c, 0, 57, 107
1, 2582, Note_on_c, 0, 55, 102
1, 2633, Note_off_c, 0, 55, 102
1, 2644, Note_on_c, 0, 53, 100
1, 2724, Note_off_c, 0, 53, 100
1, 2733, Note_on_c, 0, 52, 111
1, 2843, Note_off_c, 0, 52, 111
1, 2857, Note_on_c, 0, 48, 96
1, 2919, Note_off_c, 0, 48, 96
1, 2934, Note_on_c, 0, 50, 104
1, 3037, Note_off_c, 0, 50, 104
1, 3080, Note_on_c, 0, 55, 105
1, 3168, Note_off_c, 0, 55, 105
1, 3179, Note_on_c, 0, 52, 111
1, 3273, Note_off_c, 0, 52, 111
1, 3295, Note_on_c, 0, 53, 101
1, 3367, Note_off_c, 0, 53, 101
1, 3387, Note_on_c, 0, 57, 106
1, 3462, Note_off_c, 0, 57, 106
1, 3478, Note_on_c, 0, 58, 108
1, 3585, Note_off_c, 0, 58, 108
1, 3604, Note_on_c, 0, 56, 113
1, 3710, Note_off_c, 0, 56, 113
1, 3717, Note_on_c, 0, 55, 98
1, 3767, Note_off_c, 0, 55, 98
1, 3779, Note_on_c, 0, 53, 105
1, 3843, Note_off_c, 0, 53, 105
1, 3861, Note_on_c, 0, 52, 122
1, 3930, Note_off_c, 0, 52, 122
1, 3944, Note_on_c, 0, 50, 118
1, 4018, Note_off_c, 0, 50, 118
1, 4051, Note_on_c, 0, 49, 113
1, 4195, Note_off_c, 0, 49, 113
1, 4233, Note_on_c, 0, 52, 125
1, 4320, Note_off_c, 0, 52, 125
1, 4329, Note_on_c, 0, 49, 114
1, 4398, Note_off_c, 0, 49, 114
1, 4410, Note_on_c, 0, 50, 114
1, 4543, Note_off_c, 0, 50, 114
1, 4564, Note_on_c, 0, 52, 121
1, 4624, Note_off_c, 0, 52, 121
1, 4654, Note_on_c, 0, 53, 113
1, 4752, Note_off_c, 0, 53, 113
1, 4765, Note_on_c, 0, 55, 111
1, 4825, Note_off_c, 0, 55, 111
1, 4833, Note_on_c, 0, 57, 112
1, 4923, Note_off_c, 0, 57, 112
1, 4936, Note_on_c, 0, 58, 109
1, 5008, Note_off_c, 0, 58, 109
1, 5019, Note_on_c, 0, 64, 109
1, 5099, Note_off_c, 0, 64, 109
1, 5131, Note_on_c, 0, 62, 118
1, 5190, Note_off_c, 0, 62, 118
1, 5202, Note_on_c, 0, 64, 123
1, 5270, Note_off_c, 0, 64, 123
1, 5291, Note_on_c, 0, 62, 120
1, 5373, Note_off_c, 0, 62, 120
1, 5385, Note_on_c, 0, 59, 116
1, 5461, Note_off_c, 0, 59, 116
1, 5469, Note_on_c, 0, 57, 110
1, 5538, Note_off_c, 0, 57, 110
1, 5586, Note_on_c, 0, 59, 113
1, 5660, Note_off_c, 0, 59, 113
1, 5675, Note_on_c, 0, 57, 112
1, 5761, Note_off_c, 0, 57, 112
1, 6165, Note_on_c, 0, 52, 118
1, 6259, Note_off_c, 0, 52, 118
1, 6271, Note_on_c, 0, 53, 112
1, 6359, Note_off_c, 0, 53, 112
1, 6367, Note_on_c, 0, 55, 114
1, 6447, Note_off_c, 0, 55, 114
1, 6452, Note_on_c, 0, 57, 116
1, 6528, Note_off_c, 0, 57, 116
1, 6543, Note_on_c, 0, 58, 116
1, 6623, Note_off_c, 0, 58, 116
1, 6642, Note_on_c, 0, 57, 114
1, 6724, Note_off_c, 0, 57, 114
1, 6739, Note_on_c, 0, 56, 115
1, 6844, Note_off_c, 0, 56, 115
1, 6855, Note_on_c, 0, 55, 103
1, 6919, Note_off_c, 0, 55, 103
1, 6935, Note_on_c, 0, 53, 108
1, 6993, Note_off_c, 0, 53, 108
1, 7010, Note_on_c, 0, 52, 111
1, 7085, Note_off_c, 0, 52, 111
1, 7109, Note_on_c, 0, 50, 109
1, 7234, Note_off_c, 0, 50, 109
1, 7259, Note_on_c, 0, 47, 103
1, 7313, Note_off_c, 0, 47, 103
1, 7323, Note_on_c, 0, 48, 116
1, 7406, Note_off_c, 0, 48, 116
1, 7475, Note_on_c, 0, 47, 102
1, 7517, Note_off_c, 0, 47, 102
1, 7525, Note_on_c, 0, 48, 105
1, 7617, Note_off_c, 0, 48, 105
1, 7646, Note_on_c, 0, 50, 109
1, 7711, Note_off_c, 0, 50, 109
1, 7724, Note_on_c, 0, 51, 118
1, 7825, Note_off_c, 0, 51, 118
1, 7830, Note_on_c, 0, 53, 111
1, 7923, Note_off_c, 0, 53, 111
1, 7931, Note_on_c, 0, 55, 109
1, 7997, Note_off_c, 0, 55, 109
1, 8006, Note_on_c, 0, 57, 116
1, 8058, Note_off_c, 0, 57, 116
1, 8066, Note_on_c, 0, 62, 123
1, 8191, Note_off_c, 0, 62, 123
1, 8203, Note_on_c, 0, 59, 116
1, 8318, Note_off_c, 0, 59, 116
1, 8328, Note_on_c, 0, 60, 116
1, 8397, Note_off_c, 0, 60, 116
1, 8404, Note_on_c, 0, 62, 124
1, 8471, Note_off_c, 0, 62, 124
1, 8481, Note_on_c, 0, 63, 123
1, 8577, Note_off_c, 0, 63, 123
1, 8587, Note_on_c, 0, 65, 118
1, 8679, Note_off_c, 0, 65, 118
1, 8978, Note_on_c, 0, 49, 113
1, 9061, Note_off_c, 0, 49, 113
1, 9112, Note_on_c, 0, 53, 107
1, 9172, Note_off_c, 0, 53, 107
1, 9178, Note_on_c, 0, 55, 101
1, 9233, Note_off_c, 0, 55, 101
1, 9241, Note_on_c, 0, 60, 119
1, 9333, Note_off_c, 0, 60, 119
1, 9348, Note_on_c, 0, 58, 111
1, 9399, Note_off_c, 0, 58, 111
1, 9410, Note_on_c, 0, 57, 113
1, 9499, Note_off_c, 0, 57, 113
1, 9544, Note_on_c, 0, 53, 109
1, 9625, Note_off_c, 0, 53, 109
1, 9656, Note_on_c, 0, 60, 118
1, 9787, Note_off_c, 0, 60, 118
1, 9796, Note_on_c, 0, 56, 119
1, 9869, Note_off_c, 0, 56, 119
1, 9900, Note_on_c, 0, 53, 110
1, 9967, Note_off_c, 0, 53, 110
1, 9981, Note_on_c, 0, 49, 108
1, 10027, Note_off_c, 0, 49, 108
1, 10030, Note_on_c, 0, 48, 106
1, 10165, Note_off_c, 0, 48, 106
1, 10169, Note_on_c, 0, 46, 109
1, 10260, Note_off_c, 0, 46, 109
1, 10794, Note_on_c, 0, 44, 113
1, 10885, Note_off_c, 0, 44, 113
1, 10905, Note_on_c, 0, 48, 108
1, 10964, Note_off_c, 0, 48, 108
1, 11004, Note_on_c, 0, 51, 116
1, 11065, Note_off_c, 0, 51, 116
1, 11113, Note_on_c, 0, 55, 114
1, 11179, Note_off_c, 0, 55, 114
1, 11200, Note_on_c, 0, 56, 121
1, 11291, Note_off_c, 0, 56, 121
1, 11303, Note_on_c, 0, 58, 112
1, 11385, Note_off_c, 0, 58, 112
1, 11393, Note_on_c, 0, 59, 117
1, 11476, Note_off_c, 0, 59, 117
1, 11487, Note_on_c, 0, 61, 121
1, 11551, Note_off_c, 0, 61, 121
1, 11558, Note_on_c, 0, 60, 119
1, 11607, Note_off_c, 0, 60, 119
1, 11608, Note_on_c, 0, 58, 115
1, 11656, Note_off_c, 0, 58, 115
1, 11662, Note_on_c, 0, 56, 116
1, 11779, Note_off_c, 0, 56, 116
1, 12318, Note_on_c, 0, 55, 109
1, 12457, Note_off_c, 0, 55, 109
1, 12479, Note_on_c, 0, 57, 109
1, 12542, Note_off_c, 0, 57, 109
1, 12559, Note_on_c, 0, 58, 101
1, 12607, Note_off_c, 0, 58, 101
1, 12631, Note_on_c, 0, 60, 113
1, 12741, Note_off_c, 0, 60, 113
1, 12753, Note_on_c, 0, 61, 112
1, 12876, Note_off_c, 0, 61, 112
1, 12899, Note_on_c, 0, 62, 122
1, 12964, Note_off_c, 0, 62, 122
1, 12969, Note_on_c, 0, 58, 110
1, 13066, Note_off_c, 0, 58, 110
1, 13074, Note_on_c, 0, 59, 116
1, 13160, Note_off_c, 0, 59, 116
1, 13166, Note_on_c, 0, 60, 118
1, 13277, Note_off_c, 0, 60, 118
1, 13634, Note_on_c, 0, 60, 117
1, 13727, Note_off_c, 0, 60, 117
1, 13743, Note_on_c, 0, 57, 114
1, 13816, Note_off_c, 0, 57, 114
1, 13826, Note_on_c, 0, 55, 113
1, 13894, Note_off_c, 0, 55, 113
1, 13919, Note_on_c, 0, 53, 111
1, 13991, Note_off_c, 0, 53, 111
1, 13991, Note_on_c, 0, 52, 110
1, 14104, Note_off_c, 0, 52, 110
1, 14157, Note_on_c, 0, 48, 98
1, 14205, Note_off_c, 0, 48, 98
1, 14215, Note_on_c, 0, 50, 111
1, 14301, Note_off_c, 0, 50, 111
1, 14315, Note_on_c, 0, 52, 113
1, 14390, Note_off_c, 0, 52, 113
1, 14417, Note_on_c, 0, 55, 114
1, 14498, Note_off_c, 0, 55, 114
1, 14509, Note_on_c, 0, 53, 110
1, 14612, Note_off_c, 0, 53, 110
1, 14624, Note_on_c, 0, 52, 119
1, 14698, Note_off_c, 0, 52, 119
1, 14699, Note_on_c, 0, 50, 113
1, 14789, Note_off_c, 0, 50, 113
1, 14808, Note_on_c, 0, 58, 113
1, 14883, Note_off_c, 0, 58, 113
1, 14896, Note_on_c, 0, 55, 106
1, 14974, Note_off_c, 0, 55, 106
1, 14993, Note_on_c, 0, 57, 111
1, 15111, Note_off_c, 0, 57, 111
1, 15426, Note_on_c, 0, 51, 115
1, 15507, Note_off_c, 0, 51, 115
1, 15510, Note_on_c, 0, 53, 110
1, 15567, Note_off_c, 0, 53, 110
1, 15575, Note_on_c, 0, 55, 115
1, 15608, Note_off_c, 0, 55, 115
1, 15610, Note_on_c, 0, 57, 116
1, 15664, Note_off_c, 0, 57, 116
1, 15712, Note_on_c, 0, 57, 121
1, 15766, Note_off_c, 0, 57, 121
1, 15778, Note_on_c, 0, 58, 116
1, 15819, Note_off_c, 0, 58, 116
1, 15898, Note_on_c, 0, 57, 116
1, 15942, Note_off_c, 0, 57, 116
1, 15946, Note_on_c, 0, 58, 116
1, 15985, Note_off_c, 0, 58, 116
1, 16054, Note_on_c, 0, 58, 112
1, 16140, Note_off_c, 0, 58, 112
1, 16153, Note_on_c, 0, 57, 114
1, 16258, Note_off_c, 0, 57, 114
1, 16293, Note_on_c, 0, 51, 115
1, 16376, Note_off_c, 0, 51, 115
1, 16661, Note_on_c, 0, 49, 116
1, 16706, Note_off_c, 0, 49, 116
1, 16714, Note_on_c, 0, 50, 113
1, 16803, Note_off_c, 0, 50, 113
1, 16840, Note_on_c, 0, 52, 119
1, 16897, Note_off_c, 0, 52, 119
1, 16910, Note_on_c, 0, 53, 118
1, 17001, Note_off_c, 0, 53, 118
1, 17026, Note_on_c, 0, 55, 112
1, 17100, Note_off_c, 0, 55, 112
1, 17108, Note_on_c, 0, 57, 113
1, 17203, Note_off_c, 0, 57, 113
1, 17212, Note_on_c, 0, 58, 109
1, 17267, Note_off_c, 0, 58, 109
1, 17278, Note_on_c, 0, 51, 116
1, 17344, Note_off_c, 0, 51, 116
1, 17349, Note_on_c, 0, 52, 110
1, 17516, Note_off_c, 0, 52, 110
1, 17536, Note_on_c, 0, 62, 120
1, 17637, Note_off_c, 0, 62, 120
1, 17647, Note_on_c, 0, 64, 124
1, 17767, Note_off_c, 0, 64, 124
1, 17776, Note_on_c, 0, 62, 114
1, 17859, Note_off_c, 0, 62, 114
1, 18405, Note_on_c, 0, 57, 119
1, 18471, Note_off_c, 0, 57, 119
1, 18473, Note_on_c, 0, 58, 115
1, 18577, Note_off_c, 0, 58, 115
1, 18611, Note_on_c, 0, 52, 111
1, 18714, Note_off_c, 0, 52, 111
1, 18762, Note_on_c, 0, 56, 114
1, 18816, Note_off_c, 0, 56, 114
1, 18826, Note_on_c, 0, 57, 110
1, 18925, Note_off_c, 0, 57, 110
1, 19220, Note_on_c, 0, 56, 113
1, 19312, Note_off_c, 0, 56, 113
1, 19317, Note_on_c, 0, 53, 109
1, 19388, Note_off_c, 0, 53, 109
1, 19424, Note_on_c, 0, 49, 110
1, 19514, Note_off_c, 0, 49, 110
1, 19526, Note_on_c, 0, 45, 113
1, 19605, Note_off_c, 0, 45, 113
1, 19607, Note_on_c, 0, 50, 110
1, 19742, Note_off_c, 0, 50, 110
1, 19954, Note_on_c, 0, 50, 119
1, 20070, Note_off_c, 0, 50, 119
1, 20078, Note_on_c, 0, 47, 113
1, 20126, Note_off_c, 0, 47, 113
1, 20131, Note_on_c, 0, 48, 115
1, 20222, Note_off_c, 0, 48, 115
1, 20270, Note_on_c, 0, 49, 110
1, 20365, Note_off_c, 0, 49, 110
1, 20390, Note_on_c, 0, 51, 113
1, 20513, Note_off_c, 0, 51, 113
1, 20782, Note_on_c, 0, 49, 118
1, 20842, Note_off_c, 0, 49, 118
1, 20851, Note_on_c, 0, 51, 117
1, 20923, Note_off_c, 0, 51, 117
1, 20960, Note_on_c, 0, 55, 113
1, 21068, Note_off_c, 0, 55, 113
1, 21106, Note_on_c, 0, 60, 116
1, 21193, Note_off_c, 0, 60, 116
1, 21205, Note_on_c, 0, 62, 122
1, 21308, Note_off_c, 0, 62, 122
1, 21311, Note_on_c, 0, 65, 122
1, 21420, Note_off_c, 0, 65, 122
1, 21424, Note_on_c, 0, 60, 117
1, 21525, Note_off_c, 0, 60, 117
1, 21828, Note_on_c, 0, 60, 112
1, 21903, Note_off_c, 0, 60, 112
1, 21906, Note_on_c, 0, 61, 118
1, 21996, Note_off_c, 0, 61, 118
1, 22022, Note_on_c, 0, 51, 106
1, 22091, Note_off_c, 0, 51, 106
1, 22117, Note_on_c, 0, 53, 103
1, 22178, Note_off_c, 0, 53, 103
1, 22180, Note_on_c, 0, 55, 105
1, 22237, Note_off_c, 0, 55, 105
1, 22284, Note_on_c, 0, 60, 113
1, 22384, Note_off_c, 0, 60, 113
1, 22396, Note_on_c, 0, 58, 109
1, 22469, Note_off_c, 0, 58, 109
1, 22858, Note_on_c, 0, 64, 121
1, 22950, Note_off_c, 0, 64, 121
1, 22954, Note_on_c, 0, 62, 113
1, 23029, Note_off_c, 0, 62, 113
1, 23041, Note_on_c, 0, 60, 114
1, 23146, Note_off_c, 0, 60, 114
1, 23164, Note_on_c, 0, 57, 107
1, 23239, Note_off_c, 0, 57, 107
1, 23253, Note_on_c, 0, 55, 110
1, 23341, Note_off_c, 0, 55, 110
1, 23350, Note_on_c, 0, 53, 102
1, 23429, Note_off_c, 0, 53, 102
1, 23440, Note_on_c, 0, 52, 112
1, 23536, Note_off_c, 0, 52, 112
1, 23626, Note_on_c, 0, 52, 112
1, 23742, Note_off_c, 0, 52, 112
1, 23767, Note_on_c, 0, 48, 113
1, 23821, Note_off_c, 0, 48, 113
1, 23845, Note_on_c, 0, 50, 106
1, 23985, Note_off_c, 0, 50, 106
1, 24352, Note_on_c, 0, 50, 113
1, 24498, Note_off_c, 0, 50, 113
1, 24507, Note_on_c, 0, 54, 102
1, 24559, Note_off_c, 0, 54, 102
1, 24564, Note_on_c, 0, 57, 102
1, 24611, Note_off_c, 0, 57, 102
1, 24617, Note_on_c, 0, 60, 118
1, 24692, Note_off_c, 0, 60, 118
1, 24713, Note_on_c, 0, 57, 111
1, 24799, Note_off_c, 0, 57, 111
1, 24808, Note_on_c, 0, 58, 111
1, 24899, Note_off_c, 0, 58, 111
1, 24916, Note_on_c, 0, 60, 115
1, 24987, Note_off_c, 0, 60, 115
1, 24997, Note_on_c, 0, 61, 119
1, 25128, Note_off_c, 0, 61, 119
1, 25143, Note_on_c, 0, 63, 121
1, 25267, Note_off_c, 0, 63, 121
1, 25333, Note_on_c, 0, 60, 113
1, 25432, Note_off_c, 0, 60, 113
1, 25497, Note_on_c, 0, 58, 106
1, 25566, Note_off_c, 0, 58, 106
1, 25630, Note_on_c, 0, 53, 104
1, 25705, Note_off_c, 0, 53, 104
1, 25719, Note_on_c, 0, 55, 107
1, 25771, Note_off_c, 0, 55, 107
1, 25778, Note_on_c, 0, 57, 108
1, 25939, Note_off_c, 0, 57, 108
1, 26326, Note_on_c, 0, 57, 113
1, 26428, Note_off_c, 0, 57, 113
1, 26438, Note_on_c, 0, 60, 119
1, 26521, Note_off_c, 0, 60, 119
1, 26535, Note_on_c, 0, 64, 121
1, 26631, Note_off_c, 0, 64, 121
1, 26644, Note_on_c, 0, 62, 118
1, 26706, Note_off_c, 0, 62, 118
1, 26714, Note_on_c, 0, 60, 117
1, 26827, Note_off_c, 0, 60, 117
1, 26836, Note_on_c, 0, 57, 111
1, 26939, Note_off_c, 0, 57, 111
1, 26962, Note_on_c, 0, 55, 110
1, 27029, Note_off_c, 0, 55, 110
1, 27037, Note_on_c, 0, 53, 108
1, 27113, Note_off_c, 0, 53, 108
1, 27123, Note_on_c, 0, 52, 110
1, 27241, Note_off_c, 0, 52, 110
1, 27256, Note_on_c, 0, 50, 96
1, 27308, Note_off_c, 0, 50, 96
1, 27322, Note_on_c, 0, 53, 107
1, 27423, Note_off_c, 0, 53, 107
1, 27431, Note_on_c, 0, 52, 114
1, 27498, Note_off_c, 0, 52, 114
1, 27510, Note_on_c, 0, 53, 108
1, 27611, Note_off_c, 0, 53, 108
1, 27623, Note_on_c, 0, 55, 106
1, 27702, Note_off_c, 0, 55, 106
1, 27711, Note_on_c, 0, 56, 112
1, 27809, Note_off_c, 0, 56, 112
1, 27980, Note_on_c, 0, 50, 97
1, 28065, Note_off_c, 0, 50, 97
1, 28074, Note_on_c, 0, 55, 111
1, 28156, Note_off_c, 0, 55, 111
1, 28172, Note_on_c, 0, 53, 106
1, 28245, Note_off_c, 0, 53, 106
1, 28257, Note_on_c, 0, 51, 114
1, 28359, Note_off_c, 0, 51, 114
1, 28386, Note_on_c, 0, 48, 105
1, 28438, Note_off_c, 0, 48, 105
1, 28447, Note_on_c, 0, 50, 112
1, 28542, Note_off_c, 0, 50, 112
1, 28567, Note_on_c, 0, 58, 104
1, 28639, Note_off_c, 0, 58, 104
1, 29066, Note_on_c, 0, 55, 112
1, 29157, Note_off_c, 0, 55, 112
1, 29167, Note_on_c, 0, 58, 112
1, 29234, Note_off_c, 0, 58, 112
1, 29244, Note_on_c, 0, 62, 116
1, 29332, Note_off_c, 0, 62, 116
1, 29361, Note_on_c, 0, 60, 114
1, 29442, Note_off_c, 0, 60, 114
1, 29452, Note_on_c, 0, 58, 113
1, 29539, Note_off_c, 0, 58, 113
1, 29553, Note_on_c, 0, 55, 110
1, 29641, Note_off_c, 0, 55, 110
1, 29657, Note_on_c, 0, 53, 106
1, 29733, Note_off_c, 0, 53, 106
1, 29741, Note_on_c, 0, 51, 112
1, 29816, Note_off_c, 0, 51, 112
1, 29823, Note_on_c, 0, 50, 108
1, 29915, Note_off_c, 0, 50, 108
1, 29940, Note_on_c, 0, 46, 102
1, 30005, Note_off_c, 0, 46, 102
1, 30010, Note_on_c, 0, 49, 106
1, 30105, Note_off_c, 0, 49, 106
1, 30153, Note_on_c, 0, 47, 99
1, 30208, Note_off_c, 0, 47, 99
1, 30224, Note_on_c, 0, 48, 110
1, 30298, Note_off_c, 0, 48, 110
1, 30802, Note_on_c, 0, 46, 112
1, 30932, Note_off_c, 0, 46, 112
1, 30940, Note_on_c, 0, 43, 101
1, 30995, Note_off_c, 0, 43, 101
1, 31009, Note_on_c, 0, 44, 112
1, 31104, Note_off_c, 0, 44, 112
1, 31112, Note_on_c, 0, 46, 109
1, 31220, Note_off_c, 0, 46, 109
1, 31232, Note_on_c, 0, 48, 104
1, 31287, Note_off_c, 0, 48, 104
1, 31298, Note_on_c, 0, 51, 112
1, 31373, Note_off_c, 0, 51, 112
1, 31380, Note_on_c, 0, 55, 114
1, 31471, Note_off_c, 0, 55, 114
1, 31492, Note_on_c, 0, 53, 111
1, 31571, Note_off_c, 0, 53, 111
1, 31581, Note_on_c, 0, 56, 113
1, 31661, Note_off_c, 0, 56, 113
1, 31669, Note_on_c, 0, 58, 112
1, 31750, Note_off_c, 0, 58, 112
1, 31802, Note_on_c, 0, 55, 112
1, 31863, Note_off_c, 0, 55, 112
1, 31872, Note_on_c, 0, 53, 106
1, 31939, Note_off_c, 0, 53, 106
1, 31957, Note_on_c, 0, 51, 112
1, 32012, Note_off_c, 0, 51, 112
1, 32023, Note_on_c, 0, 50, 114
1, 32071, Note_off_c, 0, 50, 114
1, 32082, Note_on_c, 0, 46, 105
1, 32170, Note_off_c, 0, 46, 105
1, 32190, Note_on_c, 0, 48, 103
1, 32268, Note_off_c, 0, 48, 103
1, 32283, Note_on_c, 0, 50, 106
1, 32344, Note_off_c, 0, 50, 106
1, 32355, Note_on_c, 0, 53, 112
1, 32472, Note_off_c, 0, 53, 112
1, 32487, Note_on_c, 0, 51, 112
1, 32555, Note_off_c, 0, 51, 112
1, 32575, Note_on_c, 0, 50, 109
1, 32663, Note_off_c, 0, 50, 109
1, 32681, Note_on_c, 0, 51, 110
1, 32757, Note_off_c, 0, 51, 110
1, 32771, Note_on_c, 0, 55, 111
1, 32848, Note_off_c, 0, 55, 111
1, 32858, Note_on_c, 0, 58, 109
1, 32933, Note_off_c, 0, 58, 109
1, 32941, Note_on_c, 0, 60, 115
1, 33025, Note_off_c, 0, 60, 115
1, 33039, Note_on_c, 0, 63, 121
1, 33141, Note_off_c, 0, 63, 121
1, 33738, Note_on_c, 0, 52, 115
1, 33824, Note_off_c, 0, 52, 115
1, 33833, Note_on_c, 0, 49, 109
1, 33899, Note_off_c, 0, 49, 109
1, 33905, Note_on_c, 0, 50, 108
1, 33988, Note_off_c, 0, 50, 108
1, 34001, Note_on_c, 0, 52, 112
1, 34072, Note_off_c, 0, 52, 112
1, 34095, Note_on_c, 0, 57, 110
1, 34199, Note_off_c, 0, 57, 110
1, 34204, Note_on_c, 0, 55, 113
1, 34257, Note_off_c, 0, 55, 113
1, 34265, Note_on_c, 0, 57, 112
1, 34344, Note_off_c, 0, 57, 112
1, 34374, Note_on_c, 0, 59, 117
1, 34457, Note_off_c, 0, 59, 117
1, 34465, Note_on_c, 0, 57, 107
1, 34528, Note_off_c, 0, 57, 107
1, 34533, Note_on_c, 0, 58, 101
1, 34601, Note_off_c, 0, 58, 101
1, 34641, Note_on_c, 0, 59, 114
1, 34719, Note_off_c, 0, 59, 114
1, 34747, Note_on_c, 0, 56, 114
1, 34832, Note_off_c, 0, 56, 114
1, 34837, Note_on_c, 0, 55, 110
1, 34912, Note_off_c, 0, 55, 110
1, 34930, Note_on_c, 0, 53, 113
1, 34995, Note_off_c, 0, 53, 113
1, 35073, Note_on_c, 0, 52, 110
1, 35198, Note_off_c, 0, 52, 110
1, 35209, Note_on_c, 0, 55, 109
1, 35320, Note_off_c, 0, 55, 109
1, 35332, Note_on_c, 0, 62, 113
1, 35406, Note_off_c, 0, 62, 113
1, 35412, Note_on_c, 0, 59, 115
1, 35513, Note_off_c, 0, 59, 115
1, 35535, Note_on_c, 0, 60, 116
1, 35647, Note_off_c, 0, 60, 116
1, 35977, Note_on_c, 0, 59, 108
1, 36083, Note_off_c, 0, 59, 108
1, 36091, Note_on_c, 0, 57, 115
1, 36179, Note_off_c, 0, 57, 115
1, 36185, Note_on_c, 0, 55, 115
1, 36265, Note_off_c, 0, 55, 115
1, 36282, Note_on_c, 0, 52, 111
1, 36396, Note_off_c, 0, 52, 111
1, 36411, Note_on_c, 0, 48, 101
1, 36489, Note_off_c, 0, 48, 101
1, 36584, Note_on_c, 0, 54, 114
1, 36742, Note_off_c, 0, 54, 114
1, 36756, Note_on_c, 0, 57, 110
1, 36855, Note_off_c, 0, 57, 110
1, 36868, Note_on_c, 0, 60, 113
1, 36946, Note_off_c, 0, 60, 113
1, 36956, Note_on_c, 0, 64, 121
1, 37070, Note_off_c, 0, 64, 121
1, 37377, Note_on_c, 0, 63, 124
1, 37433, Note_off_c, 0, 63, 124
1, 37438, Note_on_c, 0, 64, 119
1, 37502, Note_off_c, 0, 64, 119
1, 37507, Note_on_c, 0, 63, 122
1, 37574, Note_off_c, 0, 63, 122
1, 37583, Note_on_c, 0, 60, 118
1, 37658, Note_off_c, 0, 60, 118
1, 37665, Note_on_c, 0, 59, 113
1, 37716, Note_off_c, 0, 59, 113
1, 37720, Note_on_c, 0, 56, 119
1, 37796, Note_off_c, 0, 56, 119
1, 37803, Note_on_c, 0, 55, 116
1, 37861, Note_off_c, 0, 55, 116
1, 37886, Note_on_c, 0, 53, 107
1, 37947, Note_off_c, 0, 53, 107
1, 38683, Note_on_c, 0, 52, 112
1, 38779, Note_off_c, 0, 52, 112
1, 38799, Note_on_c, 0, 55, 112
1, 38891, Note_off_c, 0, 55, 112
1, 38896, Note_on_c, 0, 59, 114
1, 38975, Note_off_c, 0, 59, 114
1, 38991, Note_on_c, 0, 57, 115
1, 39082, Note_off_c, 0, 57, 115
1, 39087, Note_on_c, 0, 55, 115
1, 39165, Note_off_c, 0, 55, 115
1, 39186, Note_on_c, 0, 52, 107
1, 39273, Note_off_c, 0, 52, 107
1, 39278, Note_on_c, 0, 50, 109
1, 39333, Note_off_c, 0, 50, 109
1, 39364, Note_on_c, 0, 48, 109
1, 39463, Note_off_c, 0, 48, 109
1, 39473, Note_on_c, 0, 47, 112
1, 39540, Note_off_c, 0, 47, 112
1, 39576, Note_on_c, 0, 43, 109
1, 39647, Note_off_c, 0, 43, 109
1, 39647, Note_on_c, 0, 48, 111
1, 39777, Note_off_c, 0, 48, 111
1, 40207, Note_on_c, 0, 48, 113
1, 40266, Note_off_c, 0, 48, 113
1, 40271, Note_on_c, 0, 47, 113
1, 40341, Note_off_c, 0, 47, 113
1, 40362, Note_on_c, 0, 45, 109
1, 40425, Note_off_c, 0, 45, 109
1, 40453, Note_on_c, 0, 44, 112
1, 40583, Note_off_c, 0, 44, 112
1, 40611, Note_on_c, 0, 46, 121
1, 40681, Note_off_c, 0, 46, 121
1, 40683, Note_on_c, 0, 48, 118
1, 40745, Note_off_c, 0, 48, 118
1, 40755, Note_on_c, 0, 51, 116
1, 40817, Note_off_c, 0, 51, 116
1, 40825, Note_on_c, 0, 50, 113
1, 41005, Note_off_c, 0, 50, 113
1, 41021, Note_on_c, 0, 51, 111
1, 41119, Note_off_c, 0, 51, 111
1, 41158, Note_on_c, 0, 53, 113
1, 41213, Note_off_c, 0, 53, 113
1, 41220, Note_on_c, 0, 55, 116
1, 41276, Note_off_c, 0, 55, 116
1, 41282, Note_on_c, 0, 57, 116
1, 41381, Note_off_c, 0, 57, 116
1, 42011, Note_on_c, 0, 50, 118
1, 42082, Note_off_c, 0, 50, 118
1, 42084, Note_on_c, 0, 53, 118
1, 42172, Note_off_c, 0, 53, 118
1, 42186, Note_on_c, 0, 57, 116
1, 42288, Note_off_c, 0, 57, 116
1, 42312, Note_on_c, 0, 58, 115
1, 42381, Note_off_c, 0, 58, 115
1, 42483, Note_on_c, 0, 57, 115
1, 42563, Note_off_c, 0, 57, 115
1, 42576, Note_on_c, 0, 53, 115
1, 42649, Note_off_c, 0, 53, 115
1, 42679, Note_on_c, 0, 49, 110
1, 42755, Note_off_c, 0, 49, 110
1, 42779, Note_on_c, 0, 55, 113
1, 42923, Note_off_c, 0, 55, 113
1, 43342, Note_on_c, 0, 63, 114
1, 43404, Note_off_c, 0, 63, 114
1, 43434, Note_on_c, 0, 55, 110
1, 43513, Note_off_c, 0, 55, 110
1, 43527, Note_on_c, 0, 57, 110
1, 43596, Note_off_c, 0, 57, 110
1, 43606, Note_on_c, 0, 58, 113
1, 43664, Note_off_c, 0, 58, 113
1, 43708, Note_on_c, 0, 51, 118
1, 43772, Note_off_c, 0, 51, 118
1, 43783, Note_on_c, 0, 53, 115
1, 43829, Note_off_c, 0, 53, 115
1, 43831, Note_on_c, 0, 55, 109
1, 43910, Note_off_c, 0, 55, 109
1, 43921, Note_on_c, 0, 58, 109
1, 43991, Note_off_c, 0, 58, 109
1, 44008, Note_on_c, 0, 57, 109
1, 44093, Note_off_c, 0, 57, 109
1, 44684, Note_on_c, 0, 60, 119
1, 44805, Note_off_c, 0, 60, 119
1, 44810, Note_on_c, 0, 59, 114
1, 44875, Note_off_c, 0, 59, 114
1, 44884, Note_on_c, 0, 57, 114
1, 44969, Note_off_c, 0, 57, 114
1, 44989, Note_on_c, 0, 55, 107
1, 45081, Note_off_c, 0, 55, 107
1, 45104, Note_on_c, 0, 53, 112
1, 45176, Note_off_c, 0, 53, 112
1, 45199, Note_on_c, 0, 52, 115
1, 45262, Note_off_c, 0, 52, 115
1, 45266, Note_on_c, 0, 51, 116
1, 45366, Note_off_c, 0, 51, 116
1, 45400, Note_on_c, 0, 53, 111
1, 45449, Note_off_c, 0, 53, 111
1, 45470, Note_on_c, 0, 55, 109
1, 45544, Note_off_c, 0, 55, 109
1, 45579, Note_on_c, 0, 57, 111
1, 45660, Note_off_c, 0, 57, 111
1, 45685, Note_on_c, 0, 62, 122
1, 45772, Note_off_c, 0, 62, 122
1, 45783, Note_on_c, 0, 60, 116
1, 45875, Note_off_c, 0, 60, 116
1, 45895, Note_on_c, 0, 65, 124
1, 45972, Note_off_c, 0, 65, 124
1, 45999, Note_on_c, 0, 61, 115
1, 46075, Note_off_c, 0, 61, 115
1, 46085, Note_on_c, 0, 60, 115
1, 46191, Note_off_c, 0, 60, 115
1, 46201, Note_on_c, 0, 58, 110
1, 46281, Note_off_c, 0, 58, 110
1, 46290, Note_on_c, 0, 57, 112
1, 46356, Note_off_c, 0, 57, 112
1, 46363, Note_on_c, 0, 55, 107
1, 46434, Note_off_c, 0, 55, 107
1, 46582, Note_on_c, 0, 64, 118
1, 46665, Note_off_c, 0, 64, 118
1, 46673, Note_on_c, 0, 65, 116
1, 46767, Note_off_c, 0, 65, 116
1, 46776, Note_on_c, 0, 61, 123
1, 46876, Note_off_c, 0, 61, 123
1, 46887, Note_on_c, 0, 60, 118
1, 46940, Note_off_c, 0, 60, 118
1, 46943, Note_on_c, 0, 58, 112
1, 46993, Note_off_c, 0, 58, 112
1, 47006, Note_on_c, 0, 51, 115
1, 47150, Note_off_c, 0, 51, 115
1, 47168, Note_on_c, 0, 54, 109
1, 47229, Note_off_c, 0, 54, 109
1, 47724, Note_on_c, 0, 57, 117
1, 47837, Note_off_c, 0, 57, 117
1, 47842, Note_on_c, 0, 60, 116
1, 47919, Note_off_c, 0, 60, 116
1, 47926, Note_on_c, 0, 64, 124
1, 48022, Note_off_c, 0, 64, 124
1, 48038, Note_on_c, 0, 67, 123
1, 48152, Note_off_c, 0, 67, 123
1, 48231, Note_on_c, 0, 64, 121
1, 48273, Note_off_c, 0, 64, 121
1, 48276, Note_on_c, 0, 65, 121
1, 48320, Note_off_c, 0, 65, 121
1, 48326, Note_on_c, 0, 66, 117
1, 48410, Note_off_c, 0, 66, 117
1, 48427, Note_on_c, 0, 62, 117
1, 48531, Note_off_c, 0, 62, 117
1, 48897, Note_on_c, 0, 64, 120
1, 48997, Note_off_c, 0, 64, 120
1, 49003, Note_on_c, 0, 65, 118
1, 49075, Note_off_c, 0, 65, 118
1, 49081, Note_on_c, 0, 62, 122
1, 49175, Note_off_c, 0, 62, 122
1, 49181, Note_on_c, 0, 58, 110
1, 49250, Note_off_c, 0, 58, 110
1, 49256, Note_on_c, 0, 57, 116
1, 49354, Note_off_c, 0, 57, 116
1, 49369, Note_on_c, 0, 55, 110
1, 49450, Note_off_c, 0, 55, 110
1, 49455, Note_on_c, 0, 54, 117
1, 49530, Note_off_c, 0, 54, 117
1, 49547, Note_on_c, 0, 52, 112
1, 49603, Note_off_c, 0, 52, 112
1, 49616, Note_on_c, 0, 53, 117
1, 49737, Note_off_c, 0, 53, 117
1, 49750, Note_on_c, 0, 51, 108
1, 49799, Note_off_c, 0, 51, 108
1, 49806, Note_on_c, 0, 52, 108
1, 49894, Note_off_c, 0, 52, 108
1, 49943, Note_on_c, 0, 60, 117
1, 50047, Note_off_c, 0, 60, 117
1, 50613, Note_on_c, 0, 60, 117
1, 50710, Note_off_c, 0, 60, 117
1, 50720, Note_on_c, 0, 62, 121
1, 50791, Note_off_c, 0, 62, 121
1, 50799, Note_on_c, 0, 64, 122
1, 50903, Note_off_c, 0, 64, 122
1, 50913, Note_on_c, 0, 65, 117
1, 50981, Note_off_c, 0, 65, 117
1, 50985, Note_on_c, 0, 64, 122
1, 51056, Note_off_c, 0, 64, 122
1, 51060, Note_on_c, 0, 62, 117
1, 51116, Note_off_c, 0, 62, 117
1, 51121, Note_on_c, 0, 60, 115
1, 51241, Note_off_c, 0, 60, 115
1, 51248, Note_on_c, 0, 62, 117
1, 51319, Note_off_c, 0, 62, 117
1, 51323, Note_on_c, 0, 60, 114
1, 51404, Note_off_c, 0, 60, 114
1, 51424, Note_on_c, 0, 58, 108
1, 51507, Note_off_c, 0, 58, 108
1, 51512, Note_on_c, 0, 57, 108
1, 51593, Note_off_c, 0, 57, 108
1, 51629, Note_on_c, 0, 48, 111
1, 51710, Note_off_c, 0, 48, 111
1, 51715, Note_on_c, 0, 50, 108
1, 51815, Note_off_c, 0, 50, 108
1, 51817, Note_on_c, 0, 52, 108
1, 51877, Note_off_c, 0, 52, 108
1, 51902, Note_on_c, 0, 55, 113
1, 52007, Note_off_c, 0, 55, 113
1, 52015, Note_on_c, 0, 53, 108
1, 52079, Note_off_c, 0, 53, 108
1, 52091, Note_on_c, 0, 52, 118
1, 52190, Note_off_c, 0, 52, 118
1, 52200, Note_on_c, 0, 48, 106
1, 52299, Note_off_c, 0, 48, 106
1, 52305, Note_on_c, 0, 50, 108
1, 52388, Note_off_c, 0, 50, 108
1, 52389, Note_on_c, 0, 45, 108
1, 52464, Note_off_c, 0, 45, 108
1, 52481, Note_on_c, 0, 46, 111
1, 52582, Note_off_c, 0, 46, 111
1, 52589, Note_on_c, 0, 47, 105
1, 52661, Note_off_c, 0, 47, 105
1, 52676, Note_on_c, 0, 49, 118
1, 52734, Note_off_c, 0, 49, 118
1, 52791, Note_on_c, 0, 51, 124
1, 52865, Note_off_c, 0, 51, 124
1, 52874, Note_on_c, 0, 52, 127
1, 52970, Note_off_c, 0, 52, 127
1, 52975, Note_on_c, 0, 54, 109
1, 53056, Note_off_c, 0, 54, 109
1, 53059, Note_on_c, 0, 55, 116
1, 53146, Note_off_c, 0, 55, 116
1, 53152, Note_on_c, 0, 57, 117
1, 53222, Note_off_c, 0, 57, 117
1, 53230, Note_on_c, 0, 58, 117
1, 53312, Note_off_c, 0, 58, 117
1, 53356, Note_on_c, 0, 59, 116
1, 53396, Note_off_c, 0, 59, 116
1, 53406, Note_on_c, 0, 61, 118
1, 53494, Note_off_c, 0, 61, 118
1, 53525, Note_on_c, 0, 64, 125
1, 53617, Note_off_c, 0, 64, 125
1, 53622, Note_on_c, 0, 62, 121
1, 53702, Note_off_c, 0, 62, 121
1, 53724, Note_on_c, 0, 57, 115
1, 53799, Note_off_c, 0, 57, 115
1, 53808, Note_on_c, 0, 55, 110
1, 53896, Note_off_c, 0, 55, 110
1, 54245, Note_on_c, 0, 61, 120
1, 54309, Note_off_c, 0, 61, 120
1, 54313, Note_on_c, 0, 64, 122
1, 54380, Note_off_c, 0, 64, 122
1, 54398, Note_on_c, 0, 62, 119
1, 54475, Note_off_c, 0, 62, 119
1, 54522, Note_on_c, 0, 57, 115
1, 54599, Note_off_c, 0, 57, 115
1, 54612, Note_on_c, 0, 55, 116
1, 54677, Note_off_c, 0, 55, 116
1, 54693, Note_on_c, 0, 53, 110
1, 54758, Note_off_c, 0, 53, 110
1, 54775, Note_on_c, 0, 52, 117
1, 54868, Note_off_c, 0, 52, 117
1, 54900, Note_on_c, 0, 49, 114
1, 54975, Note_off_c, 0, 49, 114
1, 54980, Note_on_c, 0, 50, 111
1, 55084, Note_off_c, 0, 50, 111
1, 55107, Note_on_c, 0, 45, 106
1, 55196, Note_off_c, 0, 45, 106
1, 55208, Note_on_c, 0, 46, 111
1, 55278, Note_off_c, 0, 46, 111
1, 55305, Note_on_c, 0, 48, 108
1, 55361, Note_off_c, 0, 48, 108
1, 55364, Note_on_c, 0, 49, 107
1, 55448, Note_off_c, 0, 49, 107
1, 55479, Note_on_c, 0, 51, 119
1, 55542, Note_off_c, 0, 51, 119
1, 55552, Note_on_c, 0, 52, 124
1, 55629, Note_off_c, 0, 52, 124
1, 55640, Note_on_c, 0, 54, 107
1, 55723, Note_off_c, 0, 54, 107
1, 55733, Note_on_c, 0, 55, 113
1, 55822, Note_off_c, 0, 55, 113
1, 55823, Note_on_c, 0, 57, 118
1, 55893, Note_off_c, 0, 57, 118
1, 55905, Note_on_c, 0, 58, 115
1, 56006, Note_off_c, 0, 58, 115
1, 56016, Note_on_c, 0, 60, 118
1, 56071, Note_off_c, 0, 60, 118
1, 56079, Note_on_c, 0, 61, 120
1, 56151, Note_off_c, 0, 61, 120
1, 56174, Note_on_c, 0, 64, 125
1, 56252, Note_off_c, 0, 64, 125
1, 56270, Note_on_c, 0, 62, 119
1, 56348, Note_off_c, 0, 62, 119
1, 56364, Note_on_c, 0, 59, 116
1, 56486, Note_off_c, 0, 59, 116
1, 56514, Note_on_c, 0, 60, 114
1, 56591, Note_off_c, 0, 60, 114
1, 57053, Note_on_c, 0, 59, 112
1, 57116, Note_off_c, 0, 59, 112
1, 57120, Note_on_c, 0, 60, 120
1, 57210, Note_off_c, 0, 60, 120
1, 57212, Note_on_c, 0, 62, 122
1, 57251, Note_off_c, 0, 62, 122
1, 57259, Note_on_c, 0, 63, 122
1, 57324, Note_off_c, 0, 63, 122
1, 57366, Note_on_c, 0, 53, 112
1, 57445, Note_off_c, 0, 53, 112
1, 57455, Note_on_c, 0, 55, 110
1, 57528, Note_off_c, 0, 55, 110
1, 57537, Note_on_c, 0, 57, 103
1, 57590, Note_off_c, 0, 57, 103
1, 57590, Note_on_c, 0, 61, 123
1, 57681, Note_off_c, 0, 61, 123
1, 57701, Note_on_c, 0, 60, 121
1, 57788, Note_off_c, 0, 60, 121
1, 58157, Note_on_c, 0, 62, 119
1, 58251, Note_off_c, 0, 62, 119
1, 58265, Note_on_c, 0, 67, 121
1, 58360, Note_off_c, 0, 67, 121
1, 58378, Note_on_c, 0, 65, 118
1, 58453, Note_off_c, 0, 65, 118
1, 58626, Note_on_c, 0, 60, 110
1, 58705, Note_off_c, 0, 60, 110
1, 58713, Note_on_c, 0, 61, 116
1, 58790, Note_off_c, 0, 61, 116
1, 58832, Note_on_c, 0, 51, 113
1, 58907, Note_off_c, 0, 51, 113
1, 59045, Note_on_c, 0, 53, 104
1, 59094, Note_off_c, 0, 53, 104
1, 59104, Note_on_c, 0, 60, 113
1, 59187, Note_off_c, 0, 60, 113
1, 59217, Note_on_c, 0, 58, 108
1, 59297, Note_off_c, 0, 58, 108
1, 59696, Note_on_c, 0, 59, 112
1, 59758, Note_off_c, 0, 59, 112
1, 59792, Note_on_c, 0, 64, 118
1, 59849, Note_off_c, 0, 64, 118
1, 59861, Note_on_c, 0, 62, 116
1, 59911, Note_off_c, 0, 62, 116
1, 60268, Note_on_c, 0, 63, 119
1, 60338, Note_off_c, 0, 63, 119
1, 60350, Note_on_c, 0, 60, 118
1, 60384, Note_off_c, 0, 60, 118
1, 60391, Note_on_c, 0, 61, 115
1, 60430, Note_off_c, 0, 61, 115
1, 60447, Note_on_c, 0, 58, 115
1, 60582, Note_off_c, 0, 58, 115
1, 60598, Note_on_c, 0, 57, 112
1, 60655, Note_off_c, 0, 57, 112
1, 60663, Note_on_c, 0, 55, 109
1, 60779, Note_off_c, 0, 55, 109
1, 60792, Note_on_c, 0, 54, 107
1, 60867, Note_off_c, 0, 54, 107
1, 61163, Note_on_c, 0, 50, 108
1, 61203, Note_off_c, 0, 50, 108
1, 61212, Note_on_c, 0, 55, 111
1, 61296, Note_off_c, 0, 55, 111
1, 61307, Note_on_c, 0, 57, 113
1, 61410, Note_off_c, 0, 57, 113
1, 61415, Note_on_c, 0, 58, 116
1, 61501, Note_off_c, 0, 58, 116
1, 61531, Note_on_c, 0, 47, 111
1, 61592, Note_off_c, 0, 47, 111
1, 61604, Note_on_c, 0, 48, 113
1, 61682, Note_off_c, 0, 48, 113
1, 61692, Note_on_c, 0, 50, 115
1, 61752, Note_off_c, 0, 50, 115
1, 61765, Note_on_c, 0, 57, 109
1, 61874, Note_off_c, 0, 57, 109
1, 61885, Note_on_c, 0, 55, 108
1, 61940, Note_off_c, 0, 55, 108
1, 61953, Note_on_c, 0, 53, 107
1, 62040, Note_off_c, 0, 53, 107
1, 62065, Note_on_c, 0, 51, 108
1, 62164, Note_off_c, 0, 51, 108
1, 62173, Note_on_c, 0, 52, 121
1, 62260, Note_off_c, 0, 52, 121
1, 62264, Note_on_c, 0, 50, 112
1, 62335, Note_off_c, 0, 50, 112
1, 62345, Note_on_c, 0, 48, 109
1, 62448, Note_off_c, 0, 48, 109
1, 62453, Note_on_c, 0, 46, 109
1, 62540, Note_off_c, 0, 46, 109
1, 62553, Note_on_c, 0, 45, 109
1, 62632, Note_off_c, 0, 45, 109
1, 62649, Note_on_c, 0, 48, 109
1, 62712, Note_off_c, 0, 48, 109
1, 62730, Note_on_c, 0, 52, 118
1, 62824, Note_off_c, 0, 52, 118
1, 62839, Note_on_c, 0, 48, 109
1, 62890, Note_off_c, 0, 48, 109
1, 62918, Note_on_c, 0, 52, 117
1, 63017, Note_off_c, 0, 52, 117
1, 63049, Note_on_c, 0, 48, 114
1, 63106, Note_off_c, 0, 48, 114
1, 63651, Note_on_c, 0, 48, 116
1, 63759, Note_off_c, 0, 48, 116
1, 63772, Note_on_c, 0, 50, 109
1, 63837, Note_off_c, 0, 50, 109
1, 63843, Note_on_c, 0, 52, 109
1, 63894, Note_off_c, 0, 52, 109
1, 63939, Note_on_c, 0, 55, 114
1, 64023, Note_off_c, 0, 55, 114
1, 64047, Note_on_c, 0, 52, 110
1, 64120, Note_off_c, 0, 52, 110
1, 64141, Note_on_c, 0, 53, 112
1, 64231, Note_off_c, 0, 53, 112
1, 64239, Note_on_c, 0, 57, 109
1, 64341, Note_off_c, 0, 57, 109
1, 64359, Note_on_c, 0, 60, 107
1, 64419, Note_off_c, 0, 60, 107
1, 64440, Note_on_c, 0, 64, 124
1, 64563, Note_off_c, 0, 64, 124
1, 64579, Note_on_c, 0, 62, 113
1, 64692, Note_off_c, 0, 62, 113
1, 64734, Note_on_c, 0, 57, 114
1, 64813, Note_off_c, 0, 57, 114
1, 64819, Note_on_c, 0, 58, 111
1, 64917, Note_off_c, 0, 58, 111
1, 64927, Note_on_c, 0, 60, 118
1, 65018, Note_off_c, 0, 60, 118
1, 65028, Note_on_c, 0, 61, 117
1, 65093, Note_off_c, 0, 61, 117
1, 65100, Note_on_c, 0, 64, 122
1, 65175, Note_off_c, 0, 64, 122
1, 65204, Note_on_c, 0, 66, 118
1, 65302, Note_off_c, 0, 66, 118
1, 65944, Note_on_c, 0, 56, 106
1, 66484, Note_off_c, 0, 56, 106
1, 66699, Note_on_c, 0, 68, 123
1, 66839, Note_off_c, 0, 68, 123
1, 66847, Note_on_c, 0, 69, 122
1, 67304, Note_off_c, 0, 69, 122
1, 67350, Note_on_c, 0, 64, 114
1, 67420, Note_off_c, 0, 64, 114
1, 67427, Note_on_c, 0, 67, 124
1, 67554, Note_off_c, 0, 67, 124
1, 67567, Note_on_c, 0, 65, 118
1, 67657, Note_off_c, 0, 65, 118
1, 67741, Note_on_c, 0, 64, 118
1, 67839, Note_off_c, 0, 64, 118
1, 67924, Note_on_c, 0, 62, 114
1, 68009, Note_off_c, 0, 62, 114
1, 68115, Note_on_c, 0, 61, 109
1, 68197, Note_off_c, 0, 61, 109
1, 68288, Note_on_c, 0, 64, 119
1, 68359, Note_off_c, 0, 64, 119
1, 68369, Note_on_c, 0, 65, 106
1, 68478, Note_off_c, 0, 65, 106
1, 68519, Note_on_c, 0, 56, 110
1, 68583, Note_off_c, 0, 56, 110
1, 68593, Note_on_c, 0, 57, 102
1, 68677, Note_off_c, 0, 57, 102
1, 68988, Note_on_c, 0, 60, 114
1, 69088, Note_off_c, 0, 60, 114
1, 69094, Note_on_c, 0, 59, 117
1, 69198, Note_off_c, 0, 59, 117
1, 69205, Note_on_c, 0, 58, 113
1, 69243, Note_off_c, 0, 58, 113
1, 69251, Note_on_c, 0, 57, 108
1, 69305, Note_off_c, 0, 57, 108
1, 69315, Note_on_c, 0, 55, 113
1, 69418, Note_off_c, 0, 55, 113
1, 69435, Note_on_c, 0, 53, 106
1, 69498, Note_off_c, 0, 53, 106
1, 69504, Note_on_c, 0, 51, 114
1, 69700, Note_off_c, 0, 51, 114
1, 69718, Note_on_c, 0, 53, 107
1, 69847, Note_off_c, 0, 53, 107
1, 69847, Note_on_c, 0, 55, 105
1, 69893, Note_off_c, 0, 55, 105
1, 69898, Note_on_c, 0, 57, 107
1, 69949, Note_off_c, 0, 57, 107
1, 69957, Note_on_c, 0, 62, 119
1, 70045, Note_off_c, 0, 62, 119
1, 70079, Note_on_c, 0, 60, 114
1, 70138, Note_off_c, 0, 60, 114
1, 70171, Note_on_c, 0, 64, 120
1, 70213, Note_off_c, 0, 64, 120
1, 70218, Note_on_c, 0, 65, 116
1, 70364, Note_off_c, 0, 65, 116
1, 70390, Note_on_c, 0, 62, 114
1, 70466, Note_off_c, 0, 62, 114
1, 70469, Note_on_c, 0, 60, 112
1, 70588, Note_off_c, 0, 60, 112
1, 70594, Note_on_c, 0, 58, 110
1, 70668, Note_off_c, 0, 58, 110
1, 70674, Note_on_c, 0, 57, 110
1, 70723, Note_off_c, 0, 57, 110
1, 70726, Note_on_c, 0, 51, 109
1, 70799, Note_off_c, 0, 51, 109
1, 70813, Note_on_c, 0, 48, 105
1, 70916, Note_off_c, 0, 48, 105
1, 70932, Note_on_c, 0, 49, 107
1, 71050, Note_off_c, 0, 49, 107
1, 71056, Note_on_c, 0, 51, 108
1, 71150, Note_off_c, 0, 51, 108
1, 71176, Note_on_c, 0, 53, 103
1, 71236, Note_off_c, 0, 53, 103
1, 71266, Note_on_c, 0, 60, 116
1, 71350, Note_off_c, 0, 60, 116
1, 71373, Note_on_c, 0, 58, 112
1, 71454, Note_off_c, 0, 58, 112
1, 71983, Note_on_c, 0, 56, 116
1, 72075, Note_off_c, 0, 56, 116
1, 72089, Note_on_c, 0, 55, 113
1, 72188, Note_off_c, 0, 55, 113
1, 72209, Note_on_c, 0, 63, 116
1, 72293, Note_off_c, 0, 63, 116
1, 72293, Note_on_c, 0, 67, 120
1, 72385, Note_off_c, 0, 67, 120
1, 72396, Note_on_c, 0, 64, 118
1, 72495, Note_off_c, 0, 64, 118
1, 72580, Note_on_c, 0, 56, 114
1, 72629, Note_off_c, 0, 56, 114
1, 72637, Note_on_c, 0, 55, 110
1, 72694, Note_off_c, 0, 55, 110
1, 72707, Note_on_c, 0, 56, 117
1, 72789, Note_off_c, 0, 56, 117
1, 72797, Note_on_c, 0, 58, 107
1, 72842, Note_off_c, 0, 58, 107
1, 72843, Note_on_c, 0, 60, 112
1, 72890, Note_off_c, 0, 60, 112
1, 72896, Note_on_c, 0, 63, 119
1, 72970, Note_off_c, 0, 63, 119
1, 72978, Note_on_c, 0, 68, 119
1, 73080, Note_off_c, 0, 68, 119
1, 73544, Note_on_c, 0, 54, 117
1, 73596, Note_off_c, 0, 54, 117
1, 73605, Note_on_c, 0, 55, 116
1, 73706, Note_off_c, 0, 55, 116
1, 73722, Note_on_c, 0, 58, 115
1, 73755, Note_off_c, 0, 58, 115
1, 73765, Note_on_c, 0, 61, 118
1, 73805, Note_off_c, 0, 61, 118
1, 73817, Note_on_c, 0, 65, 122
1, 73898, Note_off_c, 0, 65, 122
1, 73910, Note_on_c, 0, 62, 118
1, 74019, Note_off_c, 0, 62, 118
1, 74080, Note_on_c, 0, 53, 111
1, 74161, Note_off_c, 0, 53, 111
1, 74165, Note_on_c, 0, 54, 110
1, 74267, Note_off_c, 0, 54, 110
1, 74286, Note_on_c, 0, 56, 113
1, 74331, Note_off_c, 0, 56, 113
1, 74346, Note_on_c, 0, 61, 110
1, 74404, Note_off_c, 0, 61, 110
1, 74424, Note_on_c, 0, 65, 116
1, 74478, Note_off_c, 0, 65, 116
1, 74507, Note_on_c, 0, 69, 100
1, 74575, Note_off_c, 0, 69, 100
1, 75074, Note_on_c, 0, 64, 120
1, 75169, Note_off_c, 0, 64, 120
1, 75181, Note_on_c, 0, 62, 115
1, 75242, Note_off_c, 0, 62, 115
1, 75251, Note_on_c, 0, 60, 117
1, 75338, Note_off_c, 0, 60, 117
1, 75347, Note_on_c, 0, 57, 112
1, 75444, Note_off_c, 0, 57, 112
1, 75461, Note_on_c, 0, 55, 110
1, 75511, Note_off_c, 0, 55, 110
1, 75517, Note_on_c, 0, 53, 104
1, 75582, Note_off_c, 0, 53, 104
1, 75595, Note_on_c, 0, 52, 112
1, 75744, Note_off_c, 0, 52, 112
1, 75768, Note_on_c, 0, 48, 106
1, 75819, Note_off_c, 0, 48, 106
1, 75825, Note_on_c, 0, 50, 105
1, 75960, Note_off_c, 0, 50, 105
1, 76022, Note_on_c, 0, 55, 112
1, 76111, Note_off_c, 0, 55, 112
1, 76124, Note_on_c, 0, 53, 112
1, 76203, Note_off_c, 0, 53, 112
1, 76207, Note_on_c, 0, 52, 114
1, 76283, Note_off_c, 0, 52, 114
1, 76318, Note_on_c, 0, 53, 107
1, 76368, Note_off_c, 0, 53, 107
1, 76379, Note_on_c, 0, 58, 111
1, 76481, Note_off_c, 0, 58, 111
1, 76492, Note_on_c, 0, 57, 110
1, 76545, Note_off_c, 0, 57, 110
1, 76562, Note_on_c, 0, 56, 114
1, 76618, Note_off_c, 0, 56, 114
1, 76621, Note_on_c, 0, 55, 113
1, 76665, Note_off_c, 0, 55, 113
1, 76675, Note_on_c, 0, 57, 112
1, 76751, Note_off_c, 0, 57, 112
1, 76779, Note_on_c, 0, 60, 115
1, 76850, Note_off_c, 0, 60, 115
1, 76858, Note_on_c, 0, 59, 113
1, 76948, Note_off_c, 0, 59, 113
1, 76958, Note_on_c, 0, 60, 116
1, 77067, Note_off_c, 0, 60, 116
1, 77108, Note_on_c, 0, 62, 114
1, 77167, Note_off_c, 0, 62, 114
1, 77176, Note_on_c, 0, 63, 121
1, 77257, Note_off_c, 0, 63, 121
1, 77271, Note_on_c, 0, 59, 110
1, 77318, Note_off_c, 0, 59, 110
1, 77334, Note_on_c, 0, 56, 113
1, 77371, Note_off_c, 0, 56, 113
1, 77383, Note_on_c, 0, 55, 110
1, 77442, Note_off_c, 0, 55, 110
1, 77461, Note_on_c, 0, 53, 103
1, 77506, Note_off_c, 0, 53, 103
1, 77551, Note_on_c, 0, 58, 108
1, 77624, Note_off_c, 0, 58, 108
1, 77661, Note_on_c, 0, 55, 106
1, 77731, Note_off_c, 0, 55, 106
1, 77738, Note_on_c, 0, 53, 106
1, 77816, Note_off_c, 0, 53, 106
1, 77831, Note_on_c, 0, 51, 113
1, 77906, Note_off_c, 0, 51, 113
1, 77915, Note_on_c, 0, 50, 105
1, 78003, Note_off_c, 0, 50, 105
1, 78028, Note_on_c, 0, 46, 108
1, 78092, Note_off_c, 0, 46, 108
1, 78099, Note_on_c, 0, 48, 105
1, 78187, Note_off_c, 0, 48, 105
1, 78214, Note_on_c, 0, 50, 109
1, 78316, Note_off_c, 0, 50, 109
1, 78334, Note_on_c, 0, 53, 115
1, 78433, Note_off_c, 0, 53, 115
1, 78446, Note_on_c, 0, 51, 108
1, 78551, Note_off_c, 0, 51, 108
1, 78567, Note_on_c, 0, 49, 102
1, 78642, Note_off_c, 0, 49, 102
1, 78649, Note_on_c, 0, 51, 104
1, 78705, Note_off_c, 0, 51, 104
1, 78714, Note_on_c, 0, 56, 107
1, 78786, Note_off_c, 0, 56, 107
1, 78798, Note_on_c, 0, 58, 105
1, 78848, Note_off_c, 0, 58, 105
1, 78857, Note_on_c, 0, 61, 116
1, 78959, Note_off_c, 0, 61, 116
1, 78968, Note_on_c, 0, 60, 114
1, 79073, Note_off_c, 0, 60, 114
1, 79487, Note_on_c, 0, 63, 118
1, 79575, Note_off_c, 0, 63, 118
1, 79588, Note_on_c, 0, 59, 115
1, 79640, Note_off_c, 0, 59, 115
1, 79646, Note_on_c, 0, 56, 114
1, 79702, Note_off_c, 0, 56, 114
1, 79716, Note_on_c, 0, 53, 108
1, 79767, Note_off_c, 0, 53, 108
1, 79776, Note_on_c, 0, 53, 111
1, 79841, Note_off_c, 0, 53, 111
1, 79952, Note_on_c, 0, 62, 116
1, 80061, Note_off_c, 0, 62, 116
1, 80077, Note_on_c, 0, 63, 116
1, 80176, Note_off_c, 0, 63, 116
1, 80177, Note_on_c, 0, 60, 118
1, 80263, Note_off_c, 0, 60, 118
1, 80285, Note_on_c, 0, 56, 111
1, 80383, Note_off_c, 0, 56, 111
1, 80393, Note_on_c, 0, 54, 107
1, 80502, Note_off_c, 0, 54, 107
1, 80542, Note_on_c, 0, 58, 106
1, 80617, Note_off_c, 0, 58, 106
1, 80970, Note_on_c, 0, 62, 116
1, 81067, Note_off_c, 0, 62, 116
1, 81073, Note_on_c, 0, 60, 113
1, 81161, Note_off_c, 0, 60, 113
1, 81165, Note_on_c, 0, 58, 112
1, 81250, Note_off_c, 0, 58, 112
1, 81261, Note_on_c, 0, 55, 113
1, 81339, Note_off_c, 0, 55, 113
1, 81345, Note_on_c, 0, 53, 110
1, 81431, Note_off_c, 0, 53, 110
1, 81450, Note_on_c, 0, 51, 107
1, 81543, Note_off_c, 0, 51, 107
1, 81547, Note_on_c, 0, 50, 105
1, 81648, Note_off_c, 0, 50, 105
1, 81658, Note_on_c, 0, 51, 105
1, 81737, Note_off_c, 0, 51, 105
1, 81744, Note_on_c, 0, 55, 104
1, 81833, Note_off_c, 0, 55, 104
1, 81847, Note_on_c, 0, 58, 97
1, 81932, Note_off_c, 0, 58, 97
1, 81945, Note_on_c, 0, 62, 119
1, 82039, Note_off_c, 0, 62, 119
1, 82053, Note_on_c, 0, 60, 114
1, 82153, Note_off_c, 0, 60, 114
1, 82236, Note_on_c, 0, 50, 110
1, 82329, Note_off_c, 0, 50, 110
1, 82408, Note_on_c, 0, 52, 114
1, 82490, Note_off_c, 0, 52, 114
1, 82499, Note_on_c, 0, 53, 102
1, 82590, Note_off_c, 0, 53, 102
1, 82608, Note_on_c, 0, 57, 112
1, 82668, Note_off_c, 0, 57, 112
1, 82671, Note_on_c, 0, 60, 117
1, 82748, Note_off_c, 0, 60, 117
1, 83116, Note_on_c, 0, 60, 115
1, 83217, Note_off_c, 0, 60, 115
1, 83238, Note_on_c, 0, 57, 113
1, 83278, Note_off_c, 0, 57, 113
1, 83287, Note_on_c, 0, 59, 114
1, 83360, Note_off_c, 0, 59, 114
1, 83392, Note_on_c, 0, 62, 120
1, 83446, Note_off_c, 0, 62, 120
1, 83476, Note_on_c, 0, 56, 113
1, 83591, Note_off_c, 0, 56, 113
1, 83600, Note_on_c, 0, 53, 108
1, 83647, Note_off_c, 0, 53, 108
1, 83650, Note_on_c, 0, 55, 110
1, 83755, Note_off_c, 0, 55, 110
1, 83785, Note_on_c, 0, 53, 104
1, 83836, Note_off_c, 0, 53, 104
1, 83845, Note_on_c, 0, 52, 107
1, 83935, Note_off_c, 0, 52, 107
1, 83965, Note_on_c, 0, 55, 100
1, 84047, Note_off_c, 0, 55, 100
1, 84057, Note_on_c, 0, 57, 107
1, 84125, Note_off_c, 0, 57, 107
1, 84133, Note_on_c, 0, 59, 95
1, 84179, Note_off_c, 0, 59, 95
1, 84200, Note_on_c, 0, 61, 119
1, 84261, Note_off_c, 0, 61, 119
1, 84265, Note_on_c, 0, 62, 119
1, 84438, Note_off_c, 0, 62, 119
1, 84464, Note_on_c, 0, 60, 114
1, 84542, Note_off_c, 0, 60, 114
1, 84558, Note_on_c, 0, 59, 116
1, 84677, Note_off_c, 0, 59, 116
1, 84688, Note_on_c, 0, 60, 115
1, 84748, Note_off_c, 0, 60, 115
1, 84756, Note_on_c, 0, 59, 112
1, 84842, Note_off_c, 0, 59, 112
1, 84861, Note_on_c, 0, 57, 114
1, 84948, Note_off_c, 0, 57, 114
1, 84972, Note_on_c, 0, 55, 111
1, 85034, Note_off_c, 0, 55, 111
1, 85066, Note_on_c, 0, 52, 111
1, 85143, Note_off_c, 0, 52, 111
1, 85161, Note_on_c, 0, 50, 108
1, 85250, Note_off_c, 0, 50, 108
1, 85553, Note_on_c, 0, 45, 112
1, 85677, Note_off_c, 0, 45, 112
1, 85685, Note_on_c, 0, 47, 112
1, 85721, Note_off_c, 0, 47, 112
1, 85726, Note_on_c, 0, 48, 111
1, 85762, Note_off_c, 0, 48, 111
1, 85764, Note_on_c, 0, 52, 115
1, 85848, Note_off_c, 0, 52, 115
1, 85855, Note_on_c, 0, 54, 110
1, 85889, Note_off_c, 0, 54, 110
1, 85894, Note_on_c, 0, 56, 116
1, 85969, Note_off_c, 0, 56, 116
1, 86101, Note_on_c, 0, 54, 109
1, 86246, Note_off_c, 0, 54, 109
1, 86254, Note_on_c, 0, 53, 102
1, 86325, Note_off_c, 0, 53, 102
1, 86792, Note_on_c, 0, 53, 114
1, 86890, Note_off_c, 0, 53, 114
1, 86895, Note_on_c, 0, 55, 113
1, 86958, Note_off_c, 0, 55, 113
1, 86965, Note_on_c, 0, 56, 114
1, 87044, Note_off_c, 0, 56, 114
1, 87053, Note_on_c, 0, 58, 110
1, 87121, Note_off_c, 0, 58, 110
1, 87125, Note_on_c, 0, 60, 118
1, 87211, Note_off_c, 0, 60, 118
1, 87219, Note_on_c, 0, 62, 114
1, 87275, Note_off_c, 0, 62, 114
1, 87282, Note_on_c, 0, 60, 116
1, 87339, Note_off_c, 0, 60, 116
1, 87343, Note_on_c, 0, 59, 110
1, 87403, Note_off_c, 0, 59, 110
1, 87812, Note_on_c, 0, 61, 119
1, 87886, Note_off_c, 0, 61, 119
1, 87899, Note_on_c, 0, 60, 116
1, 87987, Note_off_c, 0, 60, 116
1, 88004, Note_on_c, 0, 59, 117
1, 88095, Note_off_c, 0, 59, 117
1, 88115, Note_on_c, 0, 56, 117
1, 88202, Note_off_c, 0, 56, 117
1, 88210, Note_on_c, 0, 55, 114
1, 88286, Note_off_c, 0, 55, 114
1, 88319, Note_on_c, 0, 52, 116
1, 88392, Note_off_c, 0, 52, 116
1, 88402, Note_on_c, 0, 48, 113
1, 88578, Note_off_c, 0, 48, 113
1, 88590, Note_on_c, 0, 50, 108
1, 88789, Note_off_c, 0, 50, 108
1, 89159, Note_on_c, 0, 52, 119
1, 89237, Note_off_c, 0, 52, 119
1, 89253, Note_on_c, 0, 53, 111
1, 89323, Note_off_c, 0, 53, 111
1, 89330, Note_on_c, 0, 55, 110
1, 89436, Note_off_c, 0, 55, 110
1, 89452, Note_on_c, 0, 57, 113
1, 89529, Note_off_c, 0, 57, 113
1, 89535, Note_on_c, 0, 58, 111
1, 89603, Note_off_c, 0, 58, 111
1, 89625, Note_on_c, 0, 56, 112
1, 89695, Note_off_c, 0, 56, 112
1, 89704, Note_on_c, 0, 57, 112
1, 89795, Note_off_c, 0, 57, 112
1, 89810, Note_on_c, 0, 55, 106
1, 89871, Note_off_c, 0, 55, 106
1, 89892, Note_on_c, 0, 53, 108
1, 90014, Note_off_c, 0, 53, 108
1, 91117, Note_on_c, 0, 56, 119
1, 91163, Note_off_c, 0, 56, 119
1, 91165, Note_on_c, 0, 54, 109
1, 91211, Note_off_c, 0, 54, 109
1, 91219, Note_on_c, 0, 53, 116
1, 91278, Note_off_c, 0, 53, 116
1, 91278, Note_on_c, 0, 49, 115
1, 91364, Note_off_c, 0, 49, 115
1, 91385, Note_on_c, 0, 46, 108
1, 91450, Note_off_c, 0, 46, 108
1, 91475, Note_on_c, 0, 49, 107
1, 91525, Note_off_c, 0, 49, 107
1, 91528, Note_on_c, 0, 50, 109
1, 91775, Note_off_c, 0, 50, 109
1, 91859, Note_on_c, 0, 49, 114
1, 91929, Note_off_c, 0, 49, 114
1, 92030, Note_on_c, 0, 52, 117
1, 92117, Note_off_c, 0, 52, 117
1, 92138, Note_on_c, 0, 46, 110
1, 92329, Note_off_c, 0, 46, 110
1, 92591, Note_on_c, 0, 52, 121
1, 92669, Note_off_c, 0, 52, 121
1, 92681, Note_on_c, 0, 48, 111
1, 92720, Note_off_c, 0, 48, 111
1, 92734, Note_on_c, 0, 45, 123
1, 92782, Note_off_c, 0, 45, 123
1, 92798, Note_on_c, 0, 46, 121
1, 92830, Note_off_c, 0, 46, 121
1, 92856, Note_on_c, 0, 46, 113
1, 92914, Note_off_c, 0, 46, 113
1, 93147, Note_on_c, 0, 50, 114
1, 93232, Note_off_c, 0, 50, 114
1, 93248, Note_on_c, 0, 47, 110
1, 93330, Note_off_c, 0, 47, 110
1, 93334, Note_on_c, 0, 48, 117
1, 93418, Note_off_c, 0, 48, 117
1, 93435, Note_on_c, 0, 50, 114
1, 93498, Note_off_c, 0, 50, 114
1, 93507, Note_on_c, 0, 51, 117
1, 93583, Note_off_c, 0, 51, 117
1, 93606, Note_on_c, 0, 53, 111
1, 93686, Note_off_c, 0, 53, 111
1, 93698, Note_on_c, 0, 55, 112
1, 93767, Note_off_c, 0, 55, 112
1, 93779, Note_on_c, 0, 57, 114
1, 93842, Note_off_c, 0, 57, 114
1, 93845, Note_on_c, 0, 62, 119
1, 93943, Note_off_c, 0, 62, 119
1, 93962, Note_on_c, 0, 60, 116
1, 94070, Note_off_c, 0, 60, 116
1, 94332, Note_on_c, 0, 49, 115
1, 94392, Note_off_c, 0, 49, 115
1, 94403, Note_on_c, 0, 50, 108
1, 94462, Note_off_c, 0, 50, 108
1, 94495, Note_on_c, 0, 53, 105
1, 94547, Note_off_c, 0, 53, 105
1, 94551, Note_on_c, 0, 55, 107
1, 94615, Note_off_c, 0, 55, 107
1, 94617, Note_on_c, 0, 57, 113
1, 94722, Note_off_c, 0, 57, 113
1, 94735, Note_on_c, 0, 60, 119
1, 94835, Note_off_c, 0, 60, 119
1, 94849, Note_on_c, 0, 58, 111
1, 94935, Note_off_c, 0, 58, 111
1, 95029, Note_on_c, 0, 48, 112
1, 95127, Note_off_c, 0, 48, 112
1, 95136, Note_on_c, 0, 49, 104
1, 95225, Note_off_c, 0, 49, 104
1, 95272, Note_on_c, 0, 53, 111
1, 95318, Note_off_c, 0, 53, 111
1, 95344, Note_on_c, 0, 55, 106
1, 95395, Note_off_c, 0, 55, 106
1, 95404, Note_on_c, 0, 57, 112
1, 95484, Note_off_c, 0, 57, 112
1, 95504, Note_on_c, 0, 60, 118
1, 95585, Note_off_c, 0, 60, 118
1, 95595, Note_on_c, 0, 63, 119
1, 95697, Note_off_c, 0, 63, 119
1, 96191, Note_on_c, 0, 64, 119
1, 96280, Note_off_c, 0, 64, 119
1, 96288, Note_on_c, 0, 62, 122
1, 96356, Note_off_c, 0, 62, 122
1, 96359, Note_on_c, 0, 60, 117
1, 96466, Note_off_c, 0, 60, 117
1, 96497, Note_on_c, 0, 57, 110
1, 96587, Note_off_c, 0, 57, 110
1, 96592, Note_on_c, 0, 55, 111
1, 96635, Note_off_c, 0, 55, 111
1, 96640, Note_on_c, 0, 54, 109
1, 96685, Note_off_c, 0, 54, 109
1, 96692, Note_on_c, 0, 53, 114
1, 96753, Note_off_c, 0, 53, 114
1, 96761, Note_on_c, 0, 52, 112
1, 96825, Note_off_c, 0, 52, 112
1, 96834, Note_on_c, 0, 48, 108
1, 96904, Note_off_c, 0, 48, 108
1, 96904, Note_on_c, 0, 51, 116
1, 96994, Note_off_c, 0, 51, 116
1, 97027, Note_on_c, 0, 58, 109
1, 97126, Note_off_c, 0, 58, 109
1, 97388, Note_on_c, 0, 49, 110
1, 97450, Note_off_c, 0, 49, 110
1, 97454, Note_on_c, 0, 50, 111
1, 97506, Note_off_c, 0, 50, 111
1, 97553, Note_on_c, 0, 53, 111
1, 97596, Note_off_c, 0, 53, 111
1, 97603, Note_on_c, 0, 57, 114
1, 97632, Note_off_c, 0, 57, 114
1, 97636, Note_on_c, 0, 60, 114
1, 97689, Note_off_c, 0, 60, 114
1, 97695, Note_on_c, 0, 58, 109
1, 97732, Note_off_c, 0, 58, 109
1, 97739, Note_on_c, 0, 57, 110
1, 97860, Note_off_c, 0, 57, 110
1, 97875, Note_on_c, 0, 58, 112
1, 97926, Note_off_c, 0, 58, 112
1, 97931, Note_on_c, 0, 60, 118
1, 98015, Note_off_c, 0, 60, 118
1, 98026, Note_on_c, 0, 61, 116
1, 98115, Note_off_c, 0, 61, 116
1, 98129, Note_on_c, 0, 63, 116
1, 98190, Note_off_c, 0, 63, 116
1, 98268, Note_on_c, 0, 60, 118
1, 98349, Note_off_c, 0, 60, 118
1, 98421, Note_on_c, 0, 58, 110
1, 98492, Note_off_c, 0, 58, 110
1, 98522, Note_on_c, 0, 53, 114
1, 98613, Note_off_c, 0, 53, 114
1, 98622, Note_on_c, 0, 55, 110
1, 98662, Note_off_c, 0, 55, 110
1, 98671, Note_on_c, 0, 56, 117
1, 98716, Note_off_c, 0, 56, 117
1, 98721, Note_on_c, 0, 57, 110
1, 98832, Note_off_c, 0, 57, 110
1, 99081, Note_on_c, 0, 57, 114
1, 99179, Note_off_c, 0, 57, 114
1, 99185, Note_on_c, 0, 60, 119
1, 99255, Note_off_c, 0, 60, 119
1, 99259, Note_on_c, 0, 63, 114
1, 99294, Note_off_c, 0, 63, 114
1, 99295, Note_on_c, 0, 64, 120
1, 99362, Note_off_c, 0, 64, 120
1, 99369, Note_on_c, 0, 62, 117
1, 99433, Note_off_c, 0, 62, 117
1, 99447, Note_on_c, 0, 60, 114
1, 99540, Note_off_c, 0, 60, 114
1, 99553, Note_on_c, 0, 57, 116
1, 99639, Note_off_c, 0, 57, 116
1, 99657, Note_on_c, 0, 55, 111
1, 99763, Note_off_c, 0, 55, 111
1, 99773, Note_on_c, 0, 53, 108
1, 99803, Note_off_c, 0, 53, 108
1, 99808, Note_on_c, 0, 52, 114
1, 99899, Note_off_c, 0, 52, 114
1, 99938, Note_on_c, 0, 48, 108
1, 100003, Note_off_c, 0, 48, 108
1, 100012, Note_on_c, 0, 50, 104
1, 100087, Note_off_c, 0, 50, 104
1, 100101, Note_on_c, 0, 52, 101
1, 100185, Note_off_c, 0, 52, 101
1, 100213, Note_on_c, 0, 55, 111
1, 100314, Note_off_c, 0, 55, 111
1, 100316, Note_on_c, 0, 52, 107
1, 100407, Note_off_c, 0, 52, 107
1, 100415, Note_on_c, 0, 53, 107
1, 100500, Note_off_c, 0, 53, 107
1, 100534, Note_on_c, 0, 55, 110
1, 100607, Note_off_c, 0, 55, 110
1, 100988, Note_on_c, 0, 55, 112
1, 101053, Note_off_c, 0, 55, 112
1, 101081, Note_on_c, 0, 57, 115
1, 101149, Note_off_c, 0, 57, 115
1, 101157, Note_on_c, 0, 58, 110
1, 101268, Note_off_c, 0, 58, 110
1, 101284, Note_on_c, 0, 56, 118
1, 101350, Note_off_c, 0, 56, 118
1, 101361, Note_on_c, 0, 55, 113
1, 101401, Note_off_c, 0, 55, 113
1, 101402, Note_on_c, 0, 57, 112
1, 101525, Note_off_c, 0, 57, 112
1, 101611, Note_on_c, 0, 53, 108
1, 101727, Note_off_c, 0, 53, 108
1, 101734, Note_on_c, 0, 50, 104
1, 101903, Note_off_c, 0, 50, 104
1, 101903, End_track
0, 0, End_of_file
