0, 0, Header, 1, 1, 192
1, 0, Start_track
1, 0, Title_t, "Melody"
1, 0, Tempo, 521739
1, 0, Key_signature, 1, "major"
1, 0, Time_signature, 4, 2, 24, 8
1, 2159, Note_on_c, 0, 50, 108
1, 2258, Note_off_c, 0, 50, 108
1, 2261, Note_on_c, 0, 49, 111
1, 2293, Note_off_c, 0, 49, 111
1, 2299, Note_on_c, 0, 48, 104
1, 2324, Note_off_c, 0, 48, 104
1, 2332, Note_on_c, 0, 47, 106
1, 2554, Note_off_c, 0, 47, 106
1, 2564, Note_on_c, 0, 48, 104
1, 2592, Note_off_c, 0, 48, 104
1, 2595, Note_on_c, 0, 50, 103
1, 2625, Note_off_c, 0, 50, 103
1, 2628, Note_on_c, 0, 51, 106
1, 2664, Note_off_c, 0, 51, 106
1, 2664, Note_on_c, 0, 55, 112
1, 2682, Note_off_c, 0, 55, 112
1, 2682, Note_on_c, 0, 59, 119
1, 2708, Note_off_c, 0, 59, 119
1, 2708, Note_on_c, 0, 62, 115
1, 2735, Note_off_c, 0, 62, 115
1, 2737, Note_on_c, 0, 64, 123
1, 2761, Note_off_c, 0, 64, 123
1, 2770, Note_on_c, 0, 67, 113
1, 2857, Note_off_c, 0, 67, 113
1, 2927, Note_on_c, 0, 64, 103
1, 3023, Note_off_c, 0, 64, 103
1, 3044, Note_on_c, 0, 55, 105
1, 3076, Note_off_c, 0, 55, 105
1, 3084, Note_on_c, 0, 57, 110
1, 3254, Note_off_c, 0, 57, 110
1, 3320, Note_on_c, 0, 67, 107
1, 3388, Note_off_c, 0, 67, 107
1, 3415, Note_on_c, 0, 64, 101
1, 3479, Note_off_c, 0, 64, 101
1, 3502, Note_on_c, 0, 57, 102
1, 3525, Note_off_c, 0, 57, 102
1, 3544, Note_on_c, 0, 58, 100
1, 3640, Note_off_c, 0, 58, 100
1, 3676, Note_on_c, 0, 49, 110
1, 3718, Note_off_c, 0, 49, 110
1, 3722, Note_on_c, 0, 50, 100
1, 3754, Note_off_c, 0, 50, 100
1, 3762, Note_on_c, 0, 51, 98
1, 3791, Note_off_c, 0, 51, 98
1, 3793, Note_on_c, 0, 57, 107
1, 3882, Note_off_c, 0, 57, 107
1, 3899, Note_on_c, 0, 54, 112
1, 3995, Note_off_c, 0, 54, 112
1, 4029, Note_on_c, 0, 55, 84
1, 4148, Note_off_c, 0, 55, 84
1, 4391, Note_on_c, 0, 45, 108
1, 4448, Note_off_c, 0, 45, 108
1, 4452, Note_on_c, 0, 46, 109
1, 4488, Note_off_c, 0, 46, 109
1, 4496, Note_on_c, 0, 50, 104
1, 4547, Note_off_c, 0, 50, 104
1, 4547, Note_on_c, 0, 53, 117
1, 4596, Note_off_c, 0, 53, 117
1, 4596, Note_on_c, 0, 58, 117
1, 4617, Note_off_c, 0, 58, 117
1, 4619, Note_on_c, 0, 60, 116
1, 4676, Note_off_c, 0, 60, 116
1, 4688, Note_on_c, 0, 58, 109
1, 4752, Note_off_c, 0, 58, 109
1, 4752, Note_on_c, 0, 53, 115
1, 4813, Note_off_c, 0, 53, 115
1, 4815, Note_on_c, 0, 50, 101
1, 4896, Note_off_c, 0, 50, 101
1, 4968, Note_on_c, 0, 50, 103
1, 5027, Note_off_c, 0, 50, 103
1, 5027, Note_on_c, 0, 57, 89
1, 5225, Note_off_c, 0, 57, 89
1, 5560, Note_on_c, 0, 54, 98
1, 5588, Note_off_c, 0, 54, 98
1, 5590, Note_on_c, 0, 55, 108
1, 5639, Note_off_c, 0, 55, 108
1, 5640, Note_on_c, 0, 52, 98
1, 5678, Note_off_c, 0, 52, 98
1, 5682, Note_on_c, 0, 53, 116
1, 5718, Note_off_c, 0, 53, 116
1, 5724, Note_on_c, 0, 55, 116
1, 5762, Note_off_c, 0, 55, 116
1, 5764, Note_on_c, 0, 57, 122
1, 5802, Note_off_c, 0, 57, 122
1, 5802, Note_on_c, 0, 60, 120
1, 5838, Note_off_c, 0, 60, 120
1, 5846, Note_on_c, 0, 64, 124
1, 5897, Note_off_c, 0, 64, 124
1, 5897, Note_on_c, 0, 62, 116
1, 5937, Note_off_c, 0, 62, 116
1, 5943, Note_on_c, 0, 60, 106
1, 5994, Note_off_c, 0, 60, 106
1, 6006, Note_on_c, 0, 57, 115
1, 6050, Note_off_c, 0, 57, 115
1, 6054, Note_on_c, 0, 55, 106
1, 6096, Note_off_c, 0, 55, 106
1, 6098, Note_on_c, 0, 53, 121
1, 6138, Note_off_c, 0, 53, 121
1, 6140, Note_on_c, 0, 52, 100
1, 6201, Note_off_c, 0, 52, 100
1, 6205, Note_on_c, 0, 58, 118
1, 6219, Note_off_c, 0, 58, 118
1, 6223, Note_on_c, 0, 60, 110
1, 6276, Note_off_c, 0, 60, 110
1, 6286, Note_on_c, 0, 58, 112
1, 6309, Note_off_c, 0, 58, 112
1, 6319, Note_on_c, 0, 56, 109
1, 6340, Note_off_c, 0, 56, 109
1, 6346, Note_on_c, 0, 52, 101
1, 6412, Note_off_c, 0, 52, 101
1, 6418, Note_on_c, 0, 48, 88
1, 6447, Note_off_c, 0, 48, 88
1, 6459, Note_on_c, 0, 50, 104
1, 6501, Note_off_c, 0, 50, 104
1, 6519, Note_on_c, 0, 58, 101
1, 6536, Note_off_c, 0, 58, 101
1, 6541, Note_on_c, 0, 60, 109
1, 6617, Note_off_c, 0, 60, 109
1, 6644, Note_on_c, 0, 56, 104
1, 6678, Note_off_c, 0, 56, 104
1, 6680, Note_on_c, 0, 53, 112
1, 6716, Note_off_c, 0, 53, 112
1, 6728, Note_on_c, 0, 51, 100
1, 6785, Note_off_c, 0, 51, 100
1, 6791, Note_on_c, 0, 55, 108
1, 6840, Note_off_c, 0, 55, 108
1, 6852, Note_on_c, 0, 53, 115
1, 6892, Note_off_c, 0, 53, 115
1, 6892, Note_on_c, 0, 51, 102
1, 6919, Note_off_c, 0, 51, 102
1, 6925, Note_on_c, 0, 50, 100
1, 6971, Note_off_c, 0, 50, 100
1, 6977, Note_on_c, 0, 48, 93
1, 7019, Note_off_c, 0, 48, 93
1, 7027, Note_on_c, 0, 46, 104
1, 7065, Note_off_c, 0, 46, 104
1, 7071, Note_on_c, 0, 45, 106
1, 7111, Note_off_c, 0, 45, 106
1, 7112, Note_on_c, 0, 44, 95
1, 7170, Note_off_c, 0, 44, 95
1, 7173, Note_on_c, 0, 46, 98
1, 7224, Note_off_c, 0, 46, 98
1, 7306, Note_on_c, 0, 55, 108
1, 7352, Note_off_c, 0, 55, 108
1, 7362, Note_on_c, 0, 51, 95
1, 7391, Note_off_c, 0, 51, 95
1, 7395, Note_on_c, 0, 53, 117
1, 7437, Note_off_c, 0, 53, 117
1, 7439, Note_on_c, 0, 55, 109
1, 7481, Note_off_c, 0, 55, 109
1, 7481, Note_on_c, 0, 56, 108
1, 7519, Note_off_c, 0, 56, 108
1, 7519, Note_on_c, 0, 58, 112
1, 7561, Note_off_c, 0, 58, 112
1, 7563, Note_on_c, 0, 59, 112
1, 7609, Note_off_c, 0, 59, 112
1, 7609, Note_on_c, 0, 62, 101
1, 7649, Note_off_c, 0, 62, 101
1, 7663, Note_on_c, 0, 67, 103
1, 7699, Note_off_c, 0, 67, 103
1, 7709, Note_on_c, 0, 62, 96
1, 7758, Note_off_c, 0, 62, 96
1, 7762, Note_on_c, 0, 65, 102
1, 7806, Note_off_c, 0, 65, 102
1, 7825, Note_on_c, 0, 59, 107
1, 7914, Note_off_c, 0, 59, 107
1, 7922, Note_on_c, 0, 59, 108
1, 7975, Note_off_c, 0, 59, 108
1, 7983, Note_on_c, 0, 58, 91
1, 8091, Note_off_c, 0, 58, 91
1, 8285, Note_on_c, 0, 62, 110
1, 8336, Note_off_c, 0, 62, 110
1, 8336, Note_on_c, 0, 60, 111
1, 8370, Note_off_c, 0, 60, 111
1, 8376, Note_on_c, 0, 58, 112
1, 8418, Note_off_c, 0, 58, 112
1, 8422, Note_on_c, 0, 55, 105
1, 8451, Note_off_c, 0, 55, 105
1, 8461, Note_on_c, 0, 53, 119
1, 8510, Note_off_c, 0, 53, 119
1, 8518, Note_on_c, 0, 51, 102
1, 8567, Note_off_c, 0, 51, 102
1, 8575, Note_on_c, 0, 50, 103
1, 8615, Note_off_c, 0, 50, 103
1, 8617, Note_on_c, 0, 46, 105
1, 8659, Note_off_c, 0, 46, 105
1, 8659, Note_on_c, 0, 50, 98
1, 8701, Note_off_c, 0, 50, 98
1, 8708, Note_on_c, 0, 49, 110
1, 8748, Note_off_c, 0, 49, 110
1, 8752, Note_on_c, 0, 48, 120
1, 8794, Note_off_c, 0, 48, 120
1, 8796, Note_on_c, 0, 50, 103
1, 8836, Note_off_c, 0, 50, 103
1, 8844, Note_on_c, 0, 52, 97
1, 8873, Note_off_c, 0, 52, 97
1, 8881, Note_on_c, 0, 55, 93
1, 8913, Note_off_c, 0, 55, 93
1, 8919, Note_on_c, 0, 59, 108
1, 8965, Note_off_c, 0, 59, 108
1, 8969, Note_on_c, 0, 60, 109
1, 9018, Note_off_c, 0, 60, 109
1, 9022, Note_on_c, 0, 57, 110
1, 9073, Note_off_c, 0, 57, 110
1, 9075, Note_on_c, 0, 55, 108
1, 9113, Note_off_c, 0, 55, 108
1, 9119, Note_on_c, 0, 54, 116
1, 9174, Note_off_c, 0, 54, 116
1, 9174, Note_on_c, 0, 51, 105
1, 9208, Note_off_c, 0, 51, 105
1, 9208, Note_on_c, 0, 50, 104
1, 9251, Note_off_c, 0, 50, 104
1, 9257, Note_on_c, 0, 49, 103
1, 9293, Note_off_c, 0, 49, 103
1, 9296, Note_on_c, 0, 48, 93
1, 9348, Note_off_c, 0, 48, 93
1, 9364, Note_on_c, 0, 52, 90
1, 9410, Note_off_c, 0, 52, 90
1, 9413, Note_on_c, 0, 51, 87
1, 9450, Note_off_c, 0, 51, 87
1, 9459, Note_on_c, 0, 46, 111
1, 9490, Note_off_c, 0, 46, 111
1, 9493, Note_on_c, 0, 45, 99
1, 9589, Note_off_c, 0, 45, 99
1, 9781, Note_on_c, 0, 50, 111
1, 9844, Note_off_c, 0, 50, 111
1, 9847, Note_on_c, 0, 49, 107
1, 9872, Note_off_c, 0, 49, 107
1, 9873, Note_on_c, 0, 48, 108
1, 9891, Note_off_c, 0, 48, 108
1, 9898, Note_on_c, 0, 47, 105
1, 9941, Note_off_c, 0, 47, 105
1, 9941, Note_on_c, 0, 50, 108
1, 9989, Note_off_c, 0, 50, 108
1, 10004, Note_on_c, 0, 54, 119
1, 10049, Note_off_c, 0, 54, 119
1, 10056, Note_on_c, 0, 57, 119
1, 10111, Note_off_c, 0, 57, 119
1, 10121, Note_on_c, 0, 54, 109
1, 10175, Note_off_c, 0, 54, 109
1, 10176, Note_on_c, 0, 55, 107
1, 10209, Note_off_c, 0, 55, 107
1, 10210, Note_on_c, 0, 57, 120
1, 10258, Note_off_c, 0, 57, 120
1, 10259, Note_on_c, 0, 59, 116
1, 10292, Note_off_c, 0, 59, 116
1, 10293, Note_on_c, 0, 62, 118
1, 10338, Note_off_c, 0, 62, 118
1, 10348, Note_on_c, 0, 66, 123
1, 10397, Note_off_c, 0, 66, 123
1, 10407, Note_on_c, 0, 64, 110
1, 10450, Note_off_c, 0, 64, 110
1, 10457, Note_on_c, 0, 62, 112
1, 10491, Note_off_c, 0, 62, 112
1, 10494, Note_on_c, 0, 59, 109
1, 10540, Note_off_c, 0, 59, 109
1, 10540, Note_on_c, 0, 57, 110
1, 10594, Note_off_c, 0, 57, 110
1, 10595, Note_on_c, 0, 55, 103
1, 10625, Note_off_c, 0, 55, 103
1, 10629, Note_on_c, 0, 54, 117
1, 10707, Note_off_c, 0, 54, 117
1, 10714, Note_on_c, 0, 52, 94
1, 10742, Note_off_c, 0, 52, 94
1, 10742, Note_on_c, 0, 54, 90
1, 10775, Note_off_c, 0, 54, 90
1, 10778, Note_on_c, 0, 57, 114
1, 10836, Note_off_c, 0, 57, 114
1, 10843, Note_on_c, 0, 54, 120
1, 10903, Note_off_c, 0, 54, 120
1, 10933, Note_on_c, 0, 52, 101
1, 10984, Note_off_c, 0, 52, 101
1, 11153, Note_on_c, 0, 47, 100
1, 11190, Note_off_c, 0, 47, 100
1, 11190, Note_on_c, 0, 52, 96
1, 11223, Note_off_c, 0, 52, 96
1, 11223, Note_on_c, 0, 54, 127
1, 11313, Note_off_c, 0, 54, 127
1, 11323, Note_on_c, 0, 55, 115
1, 11359, Note_off_c, 0, 55, 115
1, 11360, Note_on_c, 0, 57, 116
1, 11390, Note_off_c, 0, 57, 116
1, 11396, Note_on_c, 0, 54, 123
1, 11436, Note_off_c, 0, 54, 123
1, 11443, Note_on_c, 0, 55, 106
1, 11471, Note_off_c, 0, 55, 106
1, 11480, Note_on_c, 0, 57, 115
1, 11520, Note_off_c, 0, 57, 115
1, 11524, Note_on_c, 0, 59, 109
1, 11554, Note_off_c, 0, 59, 109
1, 11563, Note_on_c, 0, 60, 111
1, 11600, Note_off_c, 0, 60, 111
1, 11603, Note_on_c, 0, 62, 113
1, 11651, Note_off_c, 0, 62, 113
1, 11651, Note_on_c, 0, 59, 109
1, 11681, Note_off_c, 0, 59, 109
1, 11685, Note_on_c, 0, 60, 110
1, 11718, Note_off_c, 0, 60, 110
1, 11724, Note_on_c, 0, 62, 116
1, 11769, Note_off_c, 0, 62, 116
1, 11776, Note_on_c, 0, 64, 110
1, 11813, Note_off_c, 0, 64, 110
1, 11813, Note_on_c, 0, 65, 102
1, 11825, Note_off_c, 0, 65, 102
1, 11832, Note_on_c, 0, 64, 104
1, 11863, Note_off_c, 0, 64, 104
1, 11863, Note_on_c, 0, 62, 108
1, 11912, Note_off_c, 0, 62, 108
1, 11915, Note_on_c, 0, 60, 106
1, 11952, Note_off_c, 0, 60, 106
1, 11958, Note_on_c, 0, 59, 108
1, 12003, Note_off_c, 0, 59, 108
1, 12010, Note_on_c, 0, 62, 110
1, 12053, Note_off_c, 0, 62, 110
1, 12059, Note_on_c, 0, 59, 111
1, 12092, Note_off_c, 0, 59, 111
1, 12092, Note_on_c, 0, 57, 111
1, 12141, Note_off_c, 0, 57, 111
1, 12145, Note_on_c, 0, 56, 106
1, 12181, Note_off_c, 0, 56, 106
1, 12187, Note_on_c, 0, 59, 103
1, 12226, Note_off_c, 0, 59, 103
1, 12232, Note_on_c, 0, 53, 93
1, 12274, Note_off_c, 0, 53, 93
1, 12274, Note_on_c, 0, 51, 123
1, 12313, Note_off_c, 0, 51, 123
1, 12314, Note_on_c, 0, 52, 106
1, 12359, Note_off_c, 0, 52, 106
1, 12374, Note_on_c, 0, 49, 99
1, 12414, Note_off_c, 0, 49, 99
1, 12421, Note_on_c, 0, 50, 100
1, 12466, Note_on_c, 0, 46, 99
1, 12466, Note_off_c, 0, 50, 100
1, 12491, Note_off_c, 0, 46, 99
1, 12497, Note_on_c, 0, 47, 107
1, 12539, Note_off_c, 0, 47, 107
1, 12543, Note_on_c, 0, 48, 112
1, 12582, Note_off_c, 0, 48, 112
1, 12586, Note_on_c, 0, 50, 106
1, 12616, Note_off_c, 0, 50, 106
1, 12625, Note_on_c, 0, 52, 100
1, 12665, Note_off_c, 0, 52, 100
1, 12668, Note_on_c, 0, 55, 95
1, 12689, Note_off_c, 0, 55, 95
1, 12705, Note_on_c, 0, 59, 103
1, 12828, Note_off_c, 0, 59, 103
1, 12952, Note_on_c, 0, 59, 112
1, 12994, Note_off_c, 0, 59, 112
1, 13003, Note_on_c, 0, 55, 109
1, 13036, Note_off_c, 0, 55, 109
1, 13037, Note_on_c, 0, 52, 104
1, 13068, Note_off_c, 0, 52, 104
1, 13078, Note_on_c, 0, 48, 103
1, 13111, Note_off_c, 0, 48, 103
1, 13115, Note_on_c, 0, 47, 108
1, 13145, Note_off_c, 0, 47, 108
1, 13157, Note_on_c, 0, 45, 103
1, 13203, Note_off_c, 0, 45, 103
1, 13207, Note_on_c, 0, 52, 99
1, 13249, Note_off_c, 0, 52, 99
1, 13250, Note_on_c, 0, 50, 104
1, 13289, Note_off_c, 0, 50, 104
1, 13289, Note_on_c, 0, 47, 104
1, 13317, Note_off_c, 0, 47, 104
1, 13317, Note_on_c, 0, 48, 99
1, 13348, Note_off_c, 0, 48, 99
1, 13357, Note_on_c, 0, 50, 99
1, 13385, Note_off_c, 0, 50, 99
1, 13399, Note_on_c, 0, 52, 110
1, 13427, Note_off_c, 0, 52, 110
1, 13432, Note_on_c, 0, 54, 118
1, 13442, Note_off_c, 0, 54, 118
1, 13450, Note_on_c, 0, 55, 108
1, 13476, Note_off_c, 0, 55, 108
1, 13488, Note_on_c, 0, 62, 112
1, 13699, Note_off_c, 0, 62, 112
1, 13715, Note_on_c, 0, 60, 107
1, 13761, Note_off_c, 0, 60, 107
1, 13777, Note_on_c, 0, 55, 112
1, 13822, Note_off_c, 0, 55, 112
1, 13828, Note_on_c, 0, 52, 97
1, 13865, Note_off_c, 0, 52, 97
1, 13869, Note_on_c, 0, 51, 97
1, 13897, Note_off_c, 0, 51, 97
1, 13897, Note_on_c, 0, 59, 89
1, 13922, Note_off_c, 0, 59, 89
1, 13928, Note_on_c, 0, 58, 105
1, 13985, Note_off_c, 0, 58, 105
1, 13991, Note_on_c, 0, 57, 103
1, 14033, Note_off_c, 0, 57, 103
1, 14036, Note_on_c, 0, 59, 107
1, 14148, Note_off_c, 0, 59, 107
1, 14148, End_track
0, 0, End_of_file
