0, 0, Header, 1, 1, 2520
1, 0, Start_track
1, 0, Title_t, "Melody"
1, 0, Tempo, 1000000
1, 0, Key_signature, 1, "major"
1, 0, Time_signature, 4, 2, 24, 8
1, 7365, Note_on_c, 0, 55, 121
1, 7950, Note_off_c, 0, 55, 121
1, 8026, Note_on_c, 0, 58, 119
1, 8285, Note_off_c, 0, 58, 119
1, 8317, Note_on_c, 0, 59, 117
1, 8770, Note_off_c, 0, 59, 117
1, 8802, Note_on_c, 0, 64, 123
1, 9270, Note_off_c, 0, 64, 123
1, 9328, Note_on_c, 0, 62, 106
1, 10011, Note_off_c, 0, 62, 106
1, 10051, Note_on_c, 0, 52, 112
1, 10365, Note_off_c, 0, 52, 112
1, 10386, Note_on_c, 0, 53, 80
1, 15050, Note_off_c, 0, 53, 80
1, 15296, Note_on_c, 0, 51, 101
1, 15478, Note_off_c, 0, 51, 101
1, 15503, Note_on_c, 0, 52, 82
1, 17616, Note_off_c, 0, 52, 82
1, 17769, Note_on_c, 0, 56, 106
1, 17938, Note_off_c, 0, 56, 106
1, 17961, Note_on_c, 0, 57, 95
1, 19023, Note_off_c, 0, 57, 95
1, 19106, Note_on_c, 0, 55, 103
1, 19623, Note_off_c, 0, 55, 103
1, 19844, Note_on_c, 0, 48, 100
1, 20608, Note_off_c, 0, 48, 100
1, 20626, Note_on_c, 0, 49, 85
1, 21489, Note_off_c, 0, 49, 85
1, 21819, Note_on_c, 0, 56, 109
1, 21955, Note_off_c, 0, 56, 109
1, 21975, Note_on_c, 0, 57, 87
1, 23883, Note_off_c, 0, 57, 87
1, 23927, Note_on_c, 0, 55, 97
1, 24347, Note_off_c, 0, 55, 97
1, 24668, Note_on_c, 0, 49, 90
1, 25077, Note_off_c, 0, 49, 90
1, 25119, Note_on_c, 0, 46, 91
1, 25429, Note_off_c, 0, 46, 91
1, 25473, Note_on_c, 0, 50, 93
1, 26050, Note_off_c, 0, 50, 93
1, 28836, Note_on_c, 0, 52, 94
1, 29334, Note_off_c, 0, 52, 94
1, 29370, Note_on_c, 0, 53, 112
1, 29984, Note_off_c, 0, 53, 112
1, 30029, Note_on_c, 0, 55, 119
1, 30559, Note_off_c, 0, 55, 119
1, 30606, Note_on_c, 0, 57, 107
1, 31165, Note_off_c, 0, 57, 107
1, 31252, Note_on_c, 0, 60, 105
1, 31650, Note_off_c, 0, 60, 105
1, 31679, Note_on_c, 0, 64, 114
1, 32549, Note_off_c, 0, 64, 114
1, 32589, Note_on_c, 0, 62, 115
1, 33097, Note_off_c, 0, 62, 115
1, 33663, Note_on_c, 0, 55, 104
1, 34123, Note_off_c, 0, 55, 104
1, 34152, Note_on_c, 0, 57, 104
1, 34318, Note_off_c, 0, 57, 104
1, 34337, Note_on_c, 0, 60, 103
1, 35093, Note_off_c, 0, 60, 103
1, 35130, Note_on_c, 0, 58, 98
1, 35285, Note_off_c, 0, 58, 98
1, 35292, Note_on_c, 0, 59, 90
1, 36593, Note_off_c, 0, 59, 90
1, 36689, Note_on_c, 0, 55, 96
1, 37029, Note_off_c, 0, 55, 96
1, 37058, Note_on_c, 0, 57, 90
1, 37418, Note_off_c, 0, 57, 90
1, 37511, Note_on_c, 0, 53, 89
1, 37938, Note_off_c, 0, 53, 89
1, 41064, Note_on_c, 0, 50, 104
1, 41142, Note_off_c, 0, 50, 104
1, 41144, Note_on_c, 0, 51, 105
1, 41442, Note_off_c, 0, 51, 105
1, 41467, Note_on_c, 0, 49, 104
1, 41787, Note_off_c, 0, 49, 104
1, 41809, Note_on_c, 0, 48, 101
1, 41956, Note_off_c, 0, 48, 101
1, 41986, Note_on_c, 0, 47, 100
1, 42520, Note_off_c, 0, 47, 100
1, 42554, Note_on_c, 0, 49, 100
1, 42724, Note_off_c, 0, 49, 100
1, 42777, Note_on_c, 0, 53, 112
1, 43184, Note_off_c, 0, 53, 112
1, 43274, Note_on_c, 0, 55, 122
1, 43432, Note_off_c, 0, 55, 122
1, 43445, Note_on_c, 0, 56, 116
1, 44122, Note_off_c, 0, 56, 116
1, 44129, Note_on_c, 0, 55, 109
1, 44342, Note_off_c, 0, 55, 109
1, 44378, Note_on_c, 0, 53, 104
1, 44613, Note_off_c, 0, 53, 104
1, 44741, Note_on_c, 0, 52, 93
1, 45046, Note_off_c, 0, 52, 93
1, 45084, Note_on_c, 0, 55, 108
1, 45276, Note_off_c, 0, 55, 108
1, 45305, Note_on_c, 0, 58, 107
1, 45656, Note_off_c, 0, 58, 107
1, 45741, Note_on_c, 0, 54, 118
1, 45949, Note_off_c, 0, 54, 118
1, 45954, Note_on_c, 0, 55, 86
1, 47617, Note_off_c, 0, 55, 86
1, 47959, Note_on_c, 0, 55, 101
1, 48679, Note_off_c, 0, 55, 101
1, 48720, Note_on_c, 0, 57, 96
1, 49152, Note_off_c, 0, 57, 96
1, 49506, Note_on_c, 0, 50, 92
1, 50087, Note_off_c, 0, 50, 92
1, 50117, Note_on_c, 0, 48, 82
1, 52451, Note_off_c, 0, 48, 82
1, 52460, Note_on_c, 0, 55, 100
1, 52893, Note_off_c, 0, 55, 100
1, 52907, Note_on_c, 0, 58, 98
1, 53698, Note_off_c, 0, 58, 98
1, 53743, Note_on_c, 0, 60, 106
1, 54161, Note_off_c, 0, 60, 106
1, 57602, Note_on_c, 0, 55, 122
1, 58156, Note_off_c, 0, 55, 122
1, 58188, Note_on_c, 0, 58, 122
1, 58994, Note_off_c, 0, 58, 122
1, 59109, Note_on_c, 0, 60, 121
1, 59789, Note_off_c, 0, 60, 121
1, 60348, Note_on_c, 0, 60, 116
1, 60545, Note_off_c, 0, 60, 116
1, 60559, Note_on_c, 0, 61, 119
1, 61098, Note_off_c, 0, 61, 119
1, 61132, Note_on_c, 0, 60, 115
1, 61360, Note_off_c, 0, 60, 115
1, 61392, Note_on_c, 0, 58, 108
1, 61715, Note_off_c, 0, 58, 108
1, 61746, Note_on_c, 0, 55, 101
1, 62108, Note_off_c, 0, 55, 101
1, 62179, Note_on_c, 0, 60, 114
1, 62893, Note_off_c, 0, 60, 114
1, 62978, Note_on_c, 0, 58, 117
1, 63399, Note_off_c, 0, 58, 117
1, 63514, Note_on_c, 0, 55, 96
1, 64226, Note_off_c, 0, 55, 96
1, 64840, Note_on_c, 0, 53, 97
1, 65668, Note_off_c, 0, 53, 97
1, 65722, Note_on_c, 0, 54, 115
1, 65858, Note_off_c, 0, 54, 115
1, 65878, Note_on_c, 0, 55, 84
1, 67498, Note_off_c, 0, 55, 84
1, 68234, Note_on_c, 0, 58, 119
1, 68727, Note_off_c, 0, 58, 119
1, 68752, Note_on_c, 0, 61, 113
1, 68887, Note_off_c, 0, 61, 113
1, 68931, Note_on_c, 0, 58, 111
1, 69192, Note_off_c, 0, 58, 111
1, 69236, Note_on_c, 0, 55, 100
1, 69609, Note_off_c, 0, 55, 100
1, 69786, Note_on_c, 0, 50, 100
1, 70284, Note_off_c, 0, 50, 100
1, 70345, Note_on_c, 0, 49, 92
1, 70791, Note_off_c, 0, 49, 92
1, 70819, Note_on_c, 0, 48, 91
1, 71279, Note_off_c, 0, 48, 91
1, 72995, Note_on_c, 0, 55, 125
1, 73508, Note_off_c, 0, 55, 125
1, 73601, Note_on_c, 0, 57, 118
1, 74030, Note_off_c, 0, 57, 118
1, 74072, Note_on_c, 0, 58, 117
1, 74456, Note_off_c, 0, 58, 117
1, 74475, Note_on_c, 0, 55, 112
1, 74776, Note_off_c, 0, 55, 112
1, 74931, Note_on_c, 0, 50, 105
1, 75320, Note_off_c, 0, 50, 105
1, 75335, Note_on_c, 0, 48, 102
1, 75534, Note_off_c, 0, 48, 102
1, 75573, Note_on_c, 0, 49, 103
1, 75927, Note_off_c, 0, 49, 103
1, 76053, Note_on_c, 0, 46, 101
1, 76222, Note_off_c, 0, 46, 101
1, 76227, Note_on_c, 0, 47, 85
1, 77695, Note_off_c, 0, 47, 85
1, 77731, Note_on_c, 0, 50, 89
1, 77919, Note_off_c, 0, 50, 89
1, 77925, Note_on_c, 0, 54, 106
1, 78312, Note_off_c, 0, 54, 106
1, 78324, Note_on_c, 0, 57, 93
1, 78811, Note_off_c, 0, 57, 93
1, 78910, Note_on_c, 0, 52, 88
1, 79506, Note_off_c, 0, 52, 88
1, 79590, Note_on_c, 0, 48, 95
1, 80749, Note_off_c, 0, 48, 95
1, 80902, Note_on_c, 0, 50, 87
1, 82108, Note_off_c, 0, 50, 87
1, 83252, Note_on_c, 0, 55, 125
1, 83866, Note_off_c, 0, 55, 125
1, 83913, Note_on_c, 0, 53, 115
1, 84563, Note_off_c, 0, 53, 115
1, 84596, Note_on_c, 0, 46, 108
1, 85206, Note_off_c, 0, 46, 108
1, 85229, Note_on_c, 0, 47, 101
1, 85578, Note_off_c, 0, 47, 101
1, 85690, Note_on_c, 0, 51, 106
1, 85839, Note_off_c, 0, 51, 106
1, 85859, Note_on_c, 0, 52, 99
1, 86272, Note_off_c, 0, 52, 99
1, 86333, Note_on_c, 0, 45, 88
1, 87991, Note_off_c, 0, 45, 88
1, 88214, Note_on_c, 0, 50, 109
1, 88756, Note_off_c, 0, 50, 109
1, 88792, Note_on_c, 0, 47, 95
1, 89303, Note_off_c, 0, 47, 95
1, 89423, Note_on_c, 0, 48, 101
1, 89934, Note_off_c, 0, 48, 101
1, 89980, Note_on_c, 0, 52, 89
1, 90556, Note_off_c, 0, 52, 89
1, 90610, Note_on_c, 0, 55, 109
1, 90982, Note_off_c, 0, 55, 109
1, 91011, Note_on_c, 0, 57, 107
1, 91183, Note_off_c, 0, 57, 107
1, 91196, Note_on_c, 0, 59, 92
1, 92096, Note_off_c, 0, 59, 92
1, 92167, Note_on_c, 0, 62, 98
1, 92899, Note_off_c, 0, 62, 98
1, 92973, Note_on_c, 0, 57, 85
1, 93446, Note_off_c, 0, 57, 85
1, 95041, Note_on_c, 0, 62, 117
1, 95459, Note_off_c, 0, 62, 117
1, 95488, Note_on_c, 0, 64, 113
1, 95652, Note_off_c, 0, 64, 113
1, 95677, Note_on_c, 0, 62, 118
1, 95806, Note_off_c, 0, 62, 118
1, 95827, Note_on_c, 0, 59, 100
1, 96057, Note_off_c, 0, 59, 100
1, 96294, Note_on_c, 0, 60, 111
1, 96818, Note_off_c, 0, 60, 111
1, 97010, Note_on_c, 0, 51, 89
1, 97573, Note_off_c, 0, 51, 89
1, 97587, Note_on_c, 0, 52, 88
1, 98194, Note_off_c, 0, 52, 88
1, 98300, Note_on_c, 0, 55, 101
1, 98658, Note_off_c, 0, 55, 101
1, 98811, Note_on_c, 0, 59, 108
1, 99732, Note_off_c, 0, 59, 108
1, 99814, Note_on_c, 0, 57, 105
1, 100307, Note_off_c, 0, 57, 105
1, 100352, Note_on_c, 0, 55, 103
1, 100736, Note_off_c, 0, 55, 103
1, 100943, Note_on_c, 0, 50, 96
1, 101464, Note_off_c, 0, 50, 96
1, 101484, Note_on_c, 0, 51, 87
1, 102162, Note_off_c, 0, 51, 87
1, 103771, Note_on_c, 0, 62, 127
1, 104282, Note_off_c, 0, 62, 127
1, 104319, Note_on_c, 0, 64, 124
1, 104484, Note_off_c, 0, 64, 124
1, 104495, Note_on_c, 0, 62, 123
1, 104627, Note_off_c, 0, 62, 123
1, 104638, Note_on_c, 0, 60, 121
1, 104902, Note_off_c, 0, 60, 121
1, 105217, Note_on_c, 0, 67, 121
1, 105765, Note_off_c, 0, 67, 121
1, 105903, Note_on_c, 0, 63, 114
1, 106431, Note_off_c, 0, 63, 114
1, 106443, Note_on_c, 0, 60, 114
1, 106574, Note_off_c, 0, 60, 114
1, 106583, Note_on_c, 0, 62, 108
1, 108055, Note_off_c, 0, 62, 108
1, 108380, Note_on_c, 0, 55, 106
1, 108515, Note_off_c, 0, 55, 106
1, 108564, Note_on_c, 0, 67, 109
1, 108816, Note_off_c, 0, 67, 109
1, 109490, Note_on_c, 0, 62, 113
1, 109983, Note_off_c, 0, 62, 113
1, 110010, Note_on_c, 0, 59, 98
1, 110445, Note_off_c, 0, 59, 98
1, 110530, Note_on_c, 0, 59, 96
1, 110853, Note_off_c, 0, 59, 96
1, 110896, Note_on_c, 0, 55, 97
1, 111384, Note_off_c, 0, 55, 97
1, 111413, Note_on_c, 0, 60, 87
1, 112378, Note_off_c, 0, 60, 87
1, 113650, Note_on_c, 0, 55, 109
1, 114129, Note_off_c, 0, 55, 109
1, 114150, Note_on_c, 0, 58, 109
1, 114643, Note_off_c, 0, 58, 109
1, 114690, Note_on_c, 0, 60, 109
1, 115004, Note_off_c, 0, 60, 109
1, 115035, Note_on_c, 0, 58, 109
1, 115417, Note_off_c, 0, 58, 109
1, 115449, Note_on_c, 0, 55, 100
1, 115781, Note_off_c, 0, 55, 100
1, 115972, Note_on_c, 0, 50, 102
1, 116337, Note_off_c, 0, 50, 102
1, 116367, Note_on_c, 0, 48, 99
1, 116599, Note_off_c, 0, 48, 99
1, 116623, Note_on_c, 0, 50, 98
1, 116952, Note_off_c, 0, 50, 98
1, 116988, Note_on_c, 0, 46, 100
1, 117161, Note_off_c, 0, 46, 100
1, 117162, Note_on_c, 0, 47, 89
1, 118235, Note_off_c, 0, 47, 89
1, 118369, Note_on_c, 0, 50, 82
1, 118578, Note_off_c, 0, 50, 82
1, 118599, Note_on_c, 0, 55, 97
1, 119555, Note_off_c, 0, 55, 97
1, 119601, Note_on_c, 0, 52, 85
1, 120166, Note_off_c, 0, 52, 85
1, 123950, Note_on_c, 0, 52, 106
1, 124509, Note_off_c, 0, 52, 106
1, 124582, Note_on_c, 0, 49, 113
1, 125141, Note_off_c, 0, 49, 113
1, 125203, Note_on_c, 0, 50, 101
1, 125769, Note_off_c, 0, 50, 101
1, 125856, Note_on_c, 0, 52, 113
1, 126364, Note_off_c, 0, 52, 113
1, 126389, Note_on_c, 0, 53, 115
1, 127008, Note_off_c, 0, 53, 115
1, 127070, Note_on_c, 0, 55, 125
1, 127548, Note_off_c, 0, 55, 125
1, 127596, Note_on_c, 0, 57, 120
1, 128074, Note_off_c, 0, 57, 120
1, 128236, Note_on_c, 0, 60, 120
1, 128799, Note_off_c, 0, 60, 120
1, 128827, Note_on_c, 0, 63, 120
1, 129073, Note_off_c, 0, 63, 120
1, 129098, Note_on_c, 0, 64, 120
1, 130496, Note_off_c, 0, 64, 120
1, 130549, Note_on_c, 0, 60, 119
1, 130942, Note_off_c, 0, 60, 119
1, 130990, Note_on_c, 0, 57, 109
1, 131334, Note_off_c, 0, 57, 109
1, 131393, Note_on_c, 0, 53, 106
1, 131789, Note_off_c, 0, 53, 106
1, 132439, Note_on_c, 0, 45, 106
1, 132655, Note_off_c, 0, 45, 106
1, 132763, Note_on_c, 0, 51, 106
1, 132979, Note_off_c, 0, 51, 106
1, 133002, Note_on_c, 0, 52, 104
1, 133413, Note_off_c, 0, 52, 104
1, 133474, Note_on_c, 0, 50, 103
1, 133746, Note_off_c, 0, 50, 103
1, 133805, Note_on_c, 0, 48, 103
1, 134036, Note_off_c, 0, 48, 103
1, 134101, Note_on_c, 0, 47, 93
1, 134869, Note_off_c, 0, 47, 93
1, 138941, Note_on_c, 0, 50, 114
1, 139308, Note_off_c, 0, 50, 114
1, 139356, Note_on_c, 0, 52, 100
1, 139492, Note_off_c, 0, 52, 100
1, 139525, Note_on_c, 0, 50, 113
1, 139710, Note_off_c, 0, 50, 113
1, 139751, Note_on_c, 0, 47, 107
1, 140180, Note_off_c, 0, 47, 107
1, 140218, Note_on_c, 0, 48, 112
1, 140814, Note_off_c, 0, 48, 112
1, 140847, Note_on_c, 0, 50, 110
1, 141515, Note_off_c, 0, 50, 110
1, 141571, Note_on_c, 0, 51, 106
1, 142128, Note_off_c, 0, 51, 106
1, 142168, Note_on_c, 0, 53, 113
1, 142709, Note_off_c, 0, 53, 113
1, 142756, Note_on_c, 0, 55, 118
1, 143326, Note_off_c, 0, 55, 118
1, 143366, Note_on_c, 0, 58, 122
1, 143876, Note_off_c, 0, 58, 122
1, 143918, Note_on_c, 0, 60, 117
1, 144049, Note_off_c, 0, 60, 117
1, 144056, Note_on_c, 0, 62, 120
1, 144686, Note_off_c, 0, 62, 120
1, 144797, Note_on_c, 0, 58, 115
1, 145027, Note_off_c, 0, 58, 115
1, 145080, Note_on_c, 0, 50, 109
1, 145264, Note_off_c, 0, 50, 109
1, 145285, Note_on_c, 0, 52, 102
1, 145679, Note_off_c, 0, 52, 102
1, 145982, Note_on_c, 0, 58, 114
1, 146138, Note_off_c, 0, 58, 114
1, 146184, Note_on_c, 0, 60, 118
1, 146626, Note_off_c, 0, 60, 118
1, 146734, Note_on_c, 0, 57, 112
1, 146888, Note_off_c, 0, 57, 112
1, 146926, Note_on_c, 0, 59, 103
1, 148445, Note_off_c, 0, 59, 103
1, 148537, Note_on_c, 0, 55, 106
1, 149082, Note_off_c, 0, 55, 106
1, 149141, Note_on_c, 0, 57, 97
1, 149717, Note_off_c, 0, 57, 97
1, 149975, Note_on_c, 0, 53, 100
1, 150455, Note_off_c, 0, 53, 100
1, 150480, Note_on_c, 0, 52, 10
1, 150977, Note_off_c, 0, 52, 10
1, 151190, Note_on_c, 0, 50, 87
1, 151475, Note_off_c, 0, 50, 87
1, 151635, Note_on_c, 0, 54, 117
1, 151883, Note_off_c, 0, 54, 117
1, 151919, Note_on_c, 0, 55, 91
1, 152763, Note_off_c, 0, 55, 91
1, 157489, Note_on_c, 0, 52, 104
1, 157933, Note_off_c, 0, 52, 104
1, 157966, Note_on_c, 0, 53, 113
1, 158428, Note_off_c, 0, 53, 113
1, 158500, Note_on_c, 0, 57, 115
1, 158739, Note_off_c, 0, 57, 115
1, 158772, Note_on_c, 0, 58, 118
1, 159098, Note_off_c, 0, 58, 118
1, 159252, Note_on_c, 0, 62, 120
1, 159586, Note_off_c, 0, 62, 120
1, 159601, Note_on_c, 0, 64, 119
1, 161241, Note_off_c, 0, 64, 119
1, 161256, Note_on_c, 0, 62, 114
1, 161356, Note_off_c, 0, 62, 114
1, 161373, Note_on_c, 0, 60, 116
1, 161679, Note_off_c, 0, 60, 116
1, 161747, Note_on_c, 0, 59, 114
1, 161887, Note_off_c, 0, 59, 114
1, 161910, Note_on_c, 0, 58, 113
1, 162116, Note_off_c, 0, 58, 113
1, 162156, Note_on_c, 0, 59, 109
1, 163629, Note_off_c, 0, 59, 109
1, 163651, Note_on_c, 0, 58, 111
1, 163764, Note_off_c, 0, 58, 111
1, 163786, Note_on_c, 0, 57, 113
1, 164164, Note_off_c, 0, 57, 113
1, 164236, Note_on_c, 0, 56, 108
1, 165102, Note_off_c, 0, 56, 108
1, 165120, Note_on_c, 0, 55, 105
1, 165397, Note_off_c, 0, 55, 105
1, 165439, Note_on_c, 0, 54, 116
1, 165669, Note_off_c, 0, 54, 116
1, 165718, Note_on_c, 0, 53, 101
1, 166473, Note_off_c, 0, 53, 101
1, 166515, Note_on_c, 0, 51, 96
1, 166948, Note_off_c, 0, 51, 96
1, 167006, Note_on_c, 0, 52, 90
1, 167534, Note_off_c, 0, 52, 90
1, 167733, Note_on_c, 0, 58, 115
1, 168154, Note_off_c, 0, 58, 115
1, 168231, Note_on_c, 0, 55, 102
1, 168498, Note_off_c, 0, 55, 102
1, 168683, Note_on_c, 0, 55, 97
1, 168986, Note_off_c, 0, 55, 97
1, 169106, Note_on_c, 0, 52, 89
1, 169309, Note_off_c, 0, 52, 89
1, 169373, Note_on_c, 0, 55, 102
1, 170118, Note_off_c, 0, 55, 102
1, 170190, Note_on_c, 0, 58, 110
1, 170678, Note_off_c, 0, 58, 110
1, 172799, Note_on_c, 0, 55, 109
1, 173219, Note_off_c, 0, 55, 109
1, 173277, Note_on_c, 0, 58, 117
1, 173949, Note_off_c, 0, 58, 117
1, 174048, Note_on_c, 0, 60, 111
1, 174306, Note_off_c, 0, 60, 111
1, 174321, Note_on_c, 0, 61, 111
1, 174813, Note_off_c, 0, 61, 111
1, 174862, Note_on_c, 0, 60, 112
1, 175174, Note_off_c, 0, 60, 112
1, 175192, Note_on_c, 0, 58, 104
1, 175327, Note_off_c, 0, 58, 104
1, 175354, Note_on_c, 0, 55, 106
1, 175578, Note_off_c, 0, 55, 106
1, 175951, Note_on_c, 0, 60, 112
1, 176473, Note_off_c, 0, 60, 112
1, 176655, Note_on_c, 0, 58, 110
1, 176925, Note_off_c, 0, 58, 110
1, 177122, Note_on_c, 0, 55, 99
1, 178237, Note_off_c, 0, 55, 99
1, 178397, Note_on_c, 0, 55, 102
1, 179117, Note_off_c, 0, 55, 102
1, 179274, Note_on_c, 0, 57, 103
1, 179705, Note_off_c, 0, 57, 103
1, 180246, Note_on_c, 0, 57, 98
1, 180597, Note_off_c, 0, 57, 98
1, 180977, Note_on_c, 0, 48, 98
1, 181401, Note_off_c, 0, 48, 98
1, 184299, Note_on_c, 0, 43, 110
1, 184710, Note_off_c, 0, 43, 110
1, 184792, Note_on_c, 0, 49, 100
1, 185568, Note_off_c, 0, 49, 100
1, 185727, Note_on_c, 0, 52, 106
1, 186472, Note_off_c, 0, 52, 106
1, 186752, Note_on_c, 0, 49, 97
1, 186996, Note_off_c, 0, 49, 97
1, 187044, Note_on_c, 0, 50, 100
1, 187643, Note_off_c, 0, 50, 100
1, 187771, Note_on_c, 0, 55, 119
1, 188269, Note_off_c, 0, 55, 119
1, 188307, Note_on_c, 0, 50, 105
1, 188993, Note_off_c, 0, 50, 105
1, 189016, Note_on_c, 0, 48, 103
1, 189399, Note_off_c, 0, 48, 103
1, 189457, Note_on_c, 0, 47, 95
1, 190328, Note_off_c, 0, 47, 95
1, 190509, Note_on_c, 0, 43, 95
1, 190876, Note_off_c, 0, 43, 95
1, 191671, Note_on_c, 0, 48, 112
1, 192128, Note_off_c, 0, 48, 112
1, 192969, Note_on_c, 0, 43, 109
1, 193404, Note_off_c, 0, 43, 109
1, 194204, Note_on_c, 0, 51, 107
1, 194796, Note_off_c, 0, 51, 107
1, 194832, Note_on_c, 0, 50, 98
1, 195468, Note_off_c, 0, 50, 98
1, 195511, Note_on_c, 0, 48, 88
1, 195807, Note_off_c, 0, 48, 88
1, 195872, Note_on_c, 0, 54, 121
1, 196661, Note_off_c, 0, 54, 121
1, 196715, Note_on_c, 0, 56, 122
1, 196985, Note_off_c, 0, 56, 122
1, 197010, Note_on_c, 0, 57, 103
1, 198077, Note_off_c, 0, 57, 103
1, 198102, Note_on_c, 0, 56, 114
1, 198251, Note_off_c, 0, 56, 114
1, 198274, Note_on_c, 0, 55, 105
1, 198524, Note_off_c, 0, 55, 105
1, 198566, Note_on_c, 0, 54, 113
1, 199188, Note_off_c, 0, 54, 113
1, 199398, Note_on_c, 0, 62, 117
1, 199946, Note_off_c, 0, 62, 117
1, 200485, Note_on_c, 0, 59, 105
1, 200942, Note_off_c, 0, 59, 105
1, 201063, Note_on_c, 0, 54, 109
1, 201808, Note_off_c, 0, 54, 109
1, 202018, Note_on_c, 0, 50, 84
1, 202197, Note_off_c, 0, 50, 84
1, 202306, Note_on_c, 0, 53, 99
1, 203110, Note_off_c, 0, 53, 99
1, 203264, Note_on_c, 0, 50, 80
1, 203557, Note_off_c, 0, 50, 80
1, 203611, Note_on_c, 0, 52, 84
1, 204271, Note_off_c, 0, 52, 84
1, 208470, Note_on_c, 0, 47, 110
1, 208794, Note_off_c, 0, 47, 110
1, 208837, Note_on_c, 0, 44, 100
1, 209045, Note_off_c, 0, 44, 100
1, 209148, Note_on_c, 0, 45, 106
1, 209322, Note_off_c, 0, 45, 106
1, 209438, Note_on_c, 0, 47, 103
1, 209677, Note_off_c, 0, 47, 103
1, 209724, Note_on_c, 0, 48, 109
1, 210131, Note_off_c, 0, 48, 109
1, 210147, Note_on_c, 0, 50, 103
1, 210457, Note_off_c, 0, 50, 103
1, 210473, Note_on_c, 0, 52, 94
1, 210686, Note_off_c, 0, 52, 94
1, 210811, Note_on_c, 0, 55, 108
1, 211011, Note_off_c, 0, 55, 108
1, 211047, Note_on_c, 0, 59, 113
1, 211378, Note_off_c, 0, 59, 113
1, 211394, Note_on_c, 0, 56, 109
1, 211613, Note_off_c, 0, 56, 109
1, 211735, Note_on_c, 0, 57, 112
1, 211948, Note_off_c, 0, 57, 112
1, 211966, Note_on_c, 0, 59, 113
1, 212201, Note_off_c, 0, 59, 113
1, 212265, Note_on_c, 0, 60, 125
1, 212553, Note_off_c, 0, 60, 125
1, 212593, Note_on_c, 0, 62, 123
1, 212803, Note_off_c, 0, 62, 123
1, 212830, Note_on_c, 0, 64, 124
1, 213148, Note_off_c, 0, 64, 124
1, 213180, Note_on_c, 0, 66, 125
1, 213313, Note_off_c, 0, 66, 125
1, 213325, Note_on_c, 0, 67, 126
1, 213644, Note_off_c, 0, 67, 126
1, 213665, Note_on_c, 0, 66, 122
1, 213883, Note_off_c, 0, 66, 122
1, 213964, Note_on_c, 0, 62, 120
1, 214420, Note_off_c, 0, 62, 120
1, 214476, Note_on_c, 0, 61, 111
1, 214543, Note_off_c, 0, 61, 111
1, 214561, Note_on_c, 0, 60, 115
1, 214976, Note_off_c, 0, 60, 115
1, 215102, Note_on_c, 0, 51, 101
1, 215352, Note_off_c, 0, 51, 101
1, 215358, Note_on_c, 0, 52, 95
1, 215604, Note_off_c, 0, 52, 95
1, 215640, Note_on_c, 0, 55, 107
1, 215902, Note_off_c, 0, 55, 107
1, 215930, Note_on_c, 0, 59, 111
1, 216228, Note_off_c, 0, 59, 111
1, 216264, Note_on_c, 0, 60, 112
1, 216636, Note_off_c, 0, 60, 112
1, 216655, Note_on_c, 0, 56, 111
1, 216908, Note_off_c, 0, 56, 111
1, 216940, Note_on_c, 0, 59, 104
1, 217197, Note_off_c, 0, 59, 104
1, 217218, Note_on_c, 0, 57, 104
1, 217471, Note_off_c, 0, 57, 104
1, 217678, Note_on_c, 0, 52, 88
1, 217814, Note_off_c, 0, 52, 88
1, 217981, Note_on_c, 0, 55, 110
1, 218302, Note_off_c, 0, 55, 110
1, 218340, Note_on_c, 0, 52, 94
1, 218448, Note_off_c, 0, 52, 94
1, 218456, Note_on_c, 0, 54, 115
1, 218846, Note_off_c, 0, 54, 115
1, 218866, Note_on_c, 0, 52, 100
1, 219080, Note_off_c, 0, 52, 100
1, 219092, Note_on_c, 0, 50, 98
1, 219335, Note_off_c, 0, 50, 98
1, 219380, Note_on_c, 0, 49, 99
1, 219566, Note_off_c, 0, 49, 99
1, 219688, Note_on_c, 0, 48, 105
1, 220011, Note_off_c, 0, 48, 105
1, 220073, Note_on_c, 0, 50, 97
1, 220287, Note_off_c, 0, 50, 97
1, 220325, Note_on_c, 0, 52, 99
1, 220566, Note_off_c, 0, 52, 99
1, 220584, Note_on_c, 0, 55, 112
1, 220827, Note_off_c, 0, 55, 112
1, 220864, Note_on_c, 0, 57, 119
1, 221053, Note_off_c, 0, 57, 119
1, 221061, Note_on_c, 0, 59, 112
1, 221482, Note_off_c, 0, 59, 112
1, 221598, Note_on_c, 0, 55, 111
1, 221769, Note_off_c, 0, 55, 111
1, 221792, Note_on_c, 0, 52, 100
1, 221989, Note_off_c, 0, 52, 100
1, 221996, Note_on_c, 0, 48, 105
1, 222442, Note_off_c, 0, 48, 105
1, 222531, Note_on_c, 0, 52, 99
1, 222816, Note_off_c, 0, 52, 99
1, 222847, Note_on_c, 0, 55, 110
1, 223059, Note_off_c, 0, 55, 110
1, 223071, Note_on_c, 0, 58, 114
1, 223334, Note_off_c, 0, 58, 114
1, 223423, Note_on_c, 0, 61, 125
1, 223682, Note_off_c, 0, 61, 125
1, 223705, Note_on_c, 0, 62, 123
1, 224011, Note_off_c, 0, 62, 123
1, 224035, Note_on_c, 0, 60, 112
1, 224164, Note_off_c, 0, 60, 112
1, 224181, Note_on_c, 0, 57, 117
1, 224326, Note_off_c, 0, 57, 117
1, 224396, Note_on_c, 0, 51, 108
1, 224792, Note_off_c, 0, 51, 108
1, 224802, Note_on_c, 0, 50, 104
1, 225141, Note_off_c, 0, 50, 104
1, 226118, Note_on_c, 0, 59, 114
1, 226400, Note_off_c, 0, 59, 114
1, 226474, Note_on_c, 0, 60, 114
1, 226636, Note_off_c, 0, 60, 114
1, 226679, Note_on_c, 0, 62, 115
1, 227129, Note_off_c, 0, 62, 115
1, 227143, Note_on_c, 0, 57, 112
1, 227309, Note_off_c, 0, 57, 112
1, 227330, Note_on_c, 0, 59, 107
1, 227867, Note_off_c, 0, 59, 107
1, 227907, Note_on_c, 0, 55, 104
1, 228513, Note_off_c, 0, 55, 104
1, 228659, Note_on_c, 0, 55, 110
1, 229057, Note_off_c, 0, 55, 110
1, 229113, Note_on_c, 0, 57, 105
1, 229426, Note_off_c, 0, 57, 105
1, 232094, Note_on_c, 0, 50, 102
1, 232282, Note_off_c, 0, 50, 102
1, 232300, Note_on_c, 0, 55, 119
1, 232689, Note_off_c, 0, 55, 119
1, 232720, Note_on_c, 0, 58, 121
1, 233023, Note_off_c, 0, 58, 121
1, 233054, Note_on_c, 0, 60, 114
1, 233310, Note_off_c, 0, 60, 114
1, 233424, Note_on_c, 0, 60, 123
1, 233694, Note_off_c, 0, 60, 123
1, 233700, Note_on_c, 0, 61, 115
1, 233912, Note_off_c, 0, 61, 115
1, 233930, Note_on_c, 0, 60, 115
1, 234145, Note_off_c, 0, 60, 115
1, 234176, Note_on_c, 0, 58, 111
1, 234324, Note_off_c, 0, 58, 111
1, 234349, Note_on_c, 0, 55, 110
1, 234685, Note_off_c, 0, 55, 110
1, 234734, Note_on_c, 0, 58, 113
1, 234887, Note_off_c, 0, 58, 113
1, 234897, Note_on_c, 0, 60, 119
1, 235456, Note_off_c, 0, 60, 119
1, 235501, Note_on_c, 0, 58, 103
1, 235642, Note_off_c, 0, 58, 103
1, 236008, Note_on_c, 0, 49, 106
1, 236326, Note_off_c, 0, 49, 106
1, 236391, Note_on_c, 0, 48, 104
1, 236577, Note_off_c, 0, 48, 104
1, 236670, Note_on_c, 0, 55, 115
1, 236924, Note_off_c, 0, 55, 115
1, 236967, Note_on_c, 0, 55, 104
1, 237188, Note_off_c, 0, 55, 104
1, 237295, Note_on_c, 0, 52, 90
1, 237485, Note_off_c, 0, 52, 90
1, 237678, Note_on_c, 0, 55, 113
1, 238120, Note_off_c, 0, 55, 113
1, 238251, Note_on_c, 0, 54, 109
1, 238361, Note_off_c, 0, 54, 109
1, 238361, Note_on_c, 0, 55, 109
1, 238649, Note_off_c, 0, 55, 109
1, 238728, Note_on_c, 0, 55, 109
1, 238854, Note_off_c, 0, 55, 109
1, 238864, Note_on_c, 0, 57, 88
1, 239684, Note_off_c, 0, 57, 88
1, 241813, Note_on_c, 0, 50, 105
1, 242118, Note_off_c, 0, 50, 105
1, 242131, Note_on_c, 0, 49, 96
1, 242334, Note_off_c, 0, 49, 96
1, 242382, Note_on_c, 0, 48, 101
1, 242697, Note_off_c, 0, 48, 101
1, 242798, Note_on_c, 0, 50, 97
1, 243019, Note_off_c, 0, 50, 97
1, 243363, Note_on_c, 0, 55, 103
1, 243630, Note_off_c, 0, 55, 103
1, 243684, Note_on_c, 0, 59, 111
1, 243987, Note_off_c, 0, 59, 111
1, 244023, Note_on_c, 0, 60, 113
1, 244300, Note_off_c, 0, 60, 113
1, 244334, Note_on_c, 0, 57, 106
1, 244597, Note_off_c, 0, 57, 106
1, 244682, Note_on_c, 0, 55, 107
1, 244963, Note_off_c, 0, 55, 107
1, 244975, Note_on_c, 0, 54, 115
1, 245247, Note_off_c, 0, 54, 115
1, 245296, Note_on_c, 0, 57, 104
1, 245544, Note_off_c, 0, 57, 104
1, 245707, Note_on_c, 0, 52, 94
1, 245889, Note_off_c, 0, 52, 94
1, 246020, Note_on_c, 0, 48, 97
1, 246210, Note_off_c, 0, 48, 97
1, 246266, Note_on_c, 0, 50, 96
1, 246590, Note_off_c, 0, 50, 96
1, 246790, Note_on_c, 0, 50, 95
1, 247027, Note_off_c, 0, 50, 95
1, 247108, Note_on_c, 0, 48, 107
1, 247344, Note_off_c, 0, 48, 107
1, 247364, Note_on_c, 0, 45, 114
1, 247614, Note_off_c, 0, 45, 114
1, 247641, Note_on_c, 0, 47, 102
1, 248024, Note_off_c, 0, 47, 102
1, 248047, Note_on_c, 0, 55, 103
1, 248654, Note_off_c, 0, 55, 103
1, 248654, End_track
0, 0, End_of_file
