0, 0, Header, 1, 1, 192
1, 0, Start_track
1, 0, Title_t, "Melody"
1, 0, Tempo, 247933
1, 0, Key_signature, -2, "major"
1, 0, Time_signature, 4, 2, 24, 8
1, 3007, Note_on_c, 0, 60, 107
1, 3123, Note_off_c, 0, 60, 107
1, 3158, Note_on_c, 0, 62, 92
1, 3310, Note_off_c, 0, 62, 92
1, 3368, Note_on_c, 0, 60, 102
1, 3421, Note_off_c, 0, 60, 102
1, 3452, Note_on_c, 0, 63, 113
1, 3591, Note_off_c, 0, 63, 113
1, 3698, Note_on_c, 0, 60, 94
1, 3805, Note_off_c, 0, 60, 94
1, 3836, Note_on_c, 0, 64, 112
1, 3984, Note_off_c, 0, 64, 112
1, 4024, Note_on_c, 0, 60, 88
1, 4122, Note_off_c, 0, 60, 88
1, 4162, Note_on_c, 0, 64, 114
1, 4265, Note_off_c, 0, 64, 114
1, 4296, Note_on_c, 0, 65, 111
1, 4462, Note_off_c, 0, 65, 111
1, 4483, Note_on_c, 0, 72, 113
1, 4565, Note_off_c, 0, 72, 113
1, 4631, Note_on_c, 0, 74, 127
1, 4869, Note_off_c, 0, 74, 127
1, 4869, Note_on_c, 0, 72, 122
1, 4936, Note_off_c, 0, 72, 122
1, 4949, Note_on_c, 0, 70, 120
1, 5053, Note_off_c, 0, 70, 120
1, 5071, Note_on_c, 0, 66, 111
1, 5162, Note_off_c, 0, 66, 111
1, 5162, Note_on_c, 0, 63, 104
1, 5263, Note_off_c, 0, 63, 104
1, 5275, Note_on_c, 0, 60, 104
1, 5341, Note_off_c, 0, 60, 104
1, 5359, Note_on_c, 0, 58, 100
1, 5456, Note_off_c, 0, 58, 100
1, 5468, Note_on_c, 0, 57, 96
1, 5521, Note_off_c, 0, 57, 96
1, 5521, Note_on_c, 0, 58, 99
1, 5628, Note_off_c, 0, 58, 99
1, 5873, Note_on_c, 0, 58, 106
1, 5994, Note_off_c, 0, 58, 106
1, 5994, Note_on_c, 0, 57, 93
1, 6065, Note_off_c, 0, 57, 93
1, 6091, Note_on_c, 0, 56, 100
1, 6185, Note_off_c, 0, 56, 100
1, 6185, Note_on_c, 0, 58, 102
1, 6265, Note_off_c, 0, 58, 102
1, 6408, Note_on_c, 0, 63, 107
1, 6461, Note_off_c, 0, 63, 107
1, 6473, Note_on_c, 0, 67, 122
1, 6586, Note_off_c, 0, 67, 122
1, 6589, Note_on_c, 0, 66, 114
1, 6683, Note_off_c, 0, 66, 114
1, 6687, Note_on_c, 0, 65, 110
1, 6756, Note_off_c, 0, 65, 110
1, 6767, Note_on_c, 0, 64, 108
1, 6849, Note_off_c, 0, 64, 108
1, 6852, Note_on_c, 0, 63, 103
1, 6931, Note_off_c, 0, 63, 103
1, 6962, Note_on_c, 0, 65, 107
1, 7056, Note_off_c, 0, 65, 107
1, 7172, Note_on_c, 0, 70, 102
1, 7244, Note_off_c, 0, 70, 102
1, 7256, Note_on_c, 0, 73, 113
1, 7342, Note_off_c, 0, 73, 113
1, 7400, Note_on_c, 0, 71, 111
1, 7516, Note_off_c, 0, 71, 111
1, 7519, Note_on_c, 0, 73, 115
1, 7616, Note_off_c, 0, 73, 115
1, 7634, Note_on_c, 0, 70, 114
1, 7738, Note_off_c, 0, 70, 114
1, 7769, Note_on_c, 0, 67, 105
1, 7851, Note_off_c, 0, 67, 105
1, 7854, Note_on_c, 0, 63, 92
1, 7929, Note_off_c, 0, 63, 92
1, 7960, Note_on_c, 0, 58, 94
1, 8034, Note_off_c, 0, 58, 94
1, 8060, Note_on_c, 0, 63, 97
1, 8135, Note_off_c, 0, 63, 97
1, 8138, Note_on_c, 0, 65, 109
1, 8213, Note_off_c, 0, 65, 109
1, 8573, Note_on_c, 0, 60, 95
1, 8661, Note_off_c, 0, 60, 95
1, 9258, Note_on_c, 0, 63, 106
1, 9333, Note_off_c, 0, 63, 106
1, 9336, Note_on_c, 0, 61, 91
1, 9452, Note_off_c, 0, 61, 91
1, 9452, Note_on_c, 0, 63, 88
1, 9524, Note_off_c, 0, 63, 88
1, 9533, Note_on_c, 0, 67, 121
1, 9643, Note_off_c, 0, 67, 121
1, 9655, Note_on_c, 0, 64, 101
1, 9718, Note_off_c, 0, 64, 101
1, 9730, Note_on_c, 0, 65, 101
1, 9821, Note_off_c, 0, 65, 101
1, 9827, Note_on_c, 0, 67, 110
1, 9924, Note_off_c, 0, 67, 110
1, 9942, Note_on_c, 0, 68, 90
1, 9992, Note_off_c, 0, 68, 90
1, 10014, Note_on_c, 0, 70, 94
1, 10093, Note_off_c, 0, 70, 94
1, 10118, Note_on_c, 0, 72, 114
1, 10200, Note_off_c, 0, 72, 114
1, 10206, Note_on_c, 0, 71, 113
1, 10288, Note_off_c, 0, 71, 113
1, 10297, Note_on_c, 0, 70, 110
1, 10394, Note_off_c, 0, 70, 110
1, 10397, Note_on_c, 0, 69, 108
1, 10472, Note_off_c, 0, 69, 108
1, 10503, Note_on_c, 0, 67, 111
1, 10585, Note_off_c, 0, 67, 111
1, 10591, Note_on_c, 0, 66, 105
1, 10654, Note_off_c, 0, 66, 105
1, 10666, Note_on_c, 0, 65, 106
1, 10763, Note_off_c, 0, 65, 106
1, 10763, Note_on_c, 0, 64, 106
1, 10864, Note_off_c, 0, 64, 106
1, 10867, Note_on_c, 0, 62, 102
1, 10911, Note_off_c, 0, 62, 102
1, 11056, Note_on_c, 0, 58, 92
1, 11135, Note_off_c, 0, 58, 92
1, 11160, Note_on_c, 0, 62, 98
1, 11216, Note_off_c, 0, 62, 98
1, 11228, Note_on_c, 0, 60, 96
1, 11310, Note_off_c, 0, 60, 96
1, 11332, Note_on_c, 0, 58, 99
1, 11464, Note_off_c, 0, 58, 99
1, 11561, Note_on_c, 0, 66, 100
1, 11640, Note_off_c, 0, 66, 100
1, 11646, Note_on_c, 0, 65, 95
1, 11715, Note_off_c, 0, 65, 95
1, 11727, Note_on_c, 0, 63, 107
1, 11793, Note_off_c, 0, 63, 107
1, 11805, Note_on_c, 0, 62, 99
1, 11912, Note_off_c, 0, 62, 99
1, 11930, Note_on_c, 0, 65, 110
1, 12031, Note_off_c, 0, 65, 110
1, 12035, Note_on_c, 0, 67, 97
1, 12099, Note_off_c, 0, 67, 97
1, 12174, Note_on_c, 0, 67, 99
1, 12211, Note_off_c, 0, 67, 99
1, 12211, Note_on_c, 0, 68, 117
1, 12302, Note_off_c, 0, 68, 117
1, 12305, Note_on_c, 0, 67, 114
1, 12393, Note_off_c, 0, 67, 114
1, 12399, Note_on_c, 0, 65, 106
1, 12484, Note_off_c, 0, 65, 106
1, 12490, Note_on_c, 0, 64, 107
1, 12565, Note_off_c, 0, 64, 107
1, 12577, Note_on_c, 0, 63, 105
1, 12643, Note_off_c, 0, 63, 105
1, 12668, Note_on_c, 0, 57, 102
1, 12728, Note_off_c, 0, 57, 102
1, 12734, Note_on_c, 0, 58, 98
1, 12841, Note_off_c, 0, 58, 98
1, 12938, Note_on_c, 0, 61, 104
1, 13048, Note_off_c, 0, 61, 104
1, 13161, Note_on_c, 0, 60, 102
1, 13249, Note_off_c, 0, 60, 102
1, 13261, Note_on_c, 0, 58, 102
1, 13469, Note_off_c, 0, 58, 102
1, 13500, Note_on_c, 0, 62, 104
1, 13616, Note_off_c, 0, 62, 104
1, 13758, Note_on_c, 0, 69, 117
1, 13827, Note_off_c, 0, 69, 117
1, 13830, Note_on_c, 0, 72, 118
1, 13893, Note_off_c, 0, 72, 118
1, 13908, Note_on_c, 0, 70, 113
1, 14009, Note_off_c, 0, 70, 113
1, 14018, Note_on_c, 0, 67, 117
1, 14157, Note_off_c, 0, 67, 117
1, 14204, Note_on_c, 0, 72, 114
1, 14276, Note_off_c, 0, 72, 114
1, 14282, Note_on_c, 0, 70, 110
1, 14386, Note_off_c, 0, 70, 110
1, 14395, Note_on_c, 0, 66, 111
1, 14502, Note_off_c, 0, 66, 111
1, 14590, Note_on_c, 0, 72, 114
1, 14662, Note_off_c, 0, 72, 114
1, 14680, Note_on_c, 0, 70, 107
1, 14768, Note_off_c, 0, 70, 107
1, 14783, Note_on_c, 0, 67, 120
1, 14843, Note_off_c, 0, 67, 120
1, 14868, Note_on_c, 0, 69, 111
1, 15041, Note_off_c, 0, 69, 111
1, 15059, Note_on_c, 0, 63, 104
1, 15093, Note_off_c, 0, 63, 104
1, 15105, Note_on_c, 0, 60, 101
1, 15165, Note_off_c, 0, 60, 101
1, 15174, Note_on_c, 0, 57, 100
1, 15211, Note_off_c, 0, 57, 100
1, 15213, Note_on_c, 0, 56, 99
1, 15282, Note_off_c, 0, 56, 99
1, 15355, Note_on_c, 0, 67, 120
1, 15459, Note_off_c, 0, 67, 120
1, 15471, Note_on_c, 0, 68, 115
1, 15610, Note_off_c, 0, 68, 115
1, 15622, Note_on_c, 0, 63, 104
1, 15656, Note_off_c, 0, 63, 104
1, 15666, Note_on_c, 0, 60, 99
1, 15712, Note_off_c, 0, 60, 99
1, 15712, Note_on_c, 0, 56, 98
1, 15775, Note_off_c, 0, 56, 98
1, 16125, Note_on_c, 0, 67, 113
1, 16169, Note_off_c, 0, 67, 113
1, 16194, Note_on_c, 0, 68, 101
1, 16301, Note_off_c, 0, 68, 101
1, 16307, Note_on_c, 0, 66, 102
1, 16379, Note_off_c, 0, 66, 102
1, 16394, Note_on_c, 0, 65, 103
1, 16473, Note_off_c, 0, 65, 103
1, 16479, Note_on_c, 0, 64, 107
1, 16576, Note_off_c, 0, 64, 107
1, 16578, Note_on_c, 0, 62, 98
1, 16647, Note_off_c, 0, 62, 98
1, 16672, Note_on_c, 0, 60, 94
1, 16741, Note_off_c, 0, 60, 94
1, 16750, Note_on_c, 0, 59, 98
1, 16841, Note_off_c, 0, 59, 98
1, 16866, Note_on_c, 0, 62, 104
1, 16941, Note_off_c, 0, 62, 104
1, 16947, Note_on_c, 0, 57, 108
1, 17026, Note_off_c, 0, 57, 108
1, 17152, Note_on_c, 0, 55, 99
1, 17218, Note_off_c, 0, 55, 99
1, 17240, Note_on_c, 0, 58, 101
1, 17309, Note_off_c, 0, 58, 101
1, 17309, Note_on_c, 0, 59, 104
1, 17391, Note_off_c, 0, 59, 104
1, 17422, Note_on_c, 0, 63, 105
1, 17485, Note_on_c, 0, 67, 117
1, 17485, Note_off_c, 0, 63, 105
1, 17589, Note_off_c, 0, 67, 117
1, 17958, Note_on_c, 0, 54, 105
1, 18055, Note_off_c, 0, 54, 105
1, 18058, Note_on_c, 0, 58, 100
1, 18168, Note_off_c, 0, 58, 100
1, 18168, Note_on_c, 0, 62, 98
1, 18240, Note_off_c, 0, 62, 98
1, 18240, Note_on_c, 0, 56, 101
1, 18334, Note_off_c, 0, 56, 101
1, 18359, Note_on_c, 0, 61, 89
1, 18428, Note_off_c, 0, 61, 89
1, 18434, Note_on_c, 0, 64, 104
1, 18541, Note_off_c, 0, 64, 104
1, 18566, Note_on_c, 0, 58, 94
1, 18648, Note_off_c, 0, 58, 94
1, 18654, Note_on_c, 0, 62, 90
1, 18729, Note_off_c, 0, 62, 90
1, 18732, Note_on_c, 0, 66, 112
1, 18792, Note_off_c, 0, 66, 112
1, 18843, Note_on_c, 0, 61, 95
1, 18923, Note_off_c, 0, 61, 95
1, 18929, Note_on_c, 0, 66, 96
1, 19005, Note_off_c, 0, 66, 96
1, 19011, Note_on_c, 0, 68, 117
1, 19099, Note_off_c, 0, 68, 117
1, 19140, Note_on_c, 0, 51, 111
1, 19223, Note_off_c, 0, 51, 111
1, 19337, Note_on_c, 0, 61, 105
1, 19415, Note_off_c, 0, 61, 105
1, 19430, Note_on_c, 0, 56, 98
1, 19499, Note_off_c, 0, 56, 98
1, 19511, Note_on_c, 0, 55, 97
1, 19586, Note_off_c, 0, 55, 97
1, 19601, Note_on_c, 0, 57, 99
1, 19676, Note_off_c, 0, 57, 99
1, 19698, Note_on_c, 0, 59, 90
1, 19760, Note_off_c, 0, 59, 90
1, 19773, Note_on_c, 0, 63, 109
1, 19838, Note_off_c, 0, 63, 109
1, 19853, Note_on_c, 0, 67, 118
1, 19945, Note_off_c, 0, 67, 118
1, 19947, Note_on_c, 0, 63, 102
1, 20012, Note_off_c, 0, 63, 102
1, 20041, Note_on_c, 0, 58, 93
1, 20128, Note_off_c, 0, 58, 93
1, 20132, Note_on_c, 0, 59, 98
1, 20244, Note_off_c, 0, 59, 98
1, 20261, Note_on_c, 0, 63, 110
1, 20319, Note_off_c, 0, 63, 110
1, 20319, Note_on_c, 0, 65, 111
1, 20420, Note_off_c, 0, 65, 111
1, 20424, Note_on_c, 0, 69, 116
1, 20529, Note_off_c, 0, 69, 116
1, 20529, Note_on_c, 0, 67, 120
1, 20625, Note_off_c, 0, 67, 120
1, 20638, Note_on_c, 0, 65, 107
1, 20694, Note_off_c, 0, 65, 107
1, 20709, Note_on_c, 0, 61, 105
1, 20792, Note_off_c, 0, 61, 105
1, 20796, Note_on_c, 0, 57, 99
1, 20892, Note_off_c, 0, 57, 99
1, 20910, Note_on_c, 0, 60, 101
1, 20976, Note_off_c, 0, 60, 101
1, 20985, Note_on_c, 0, 59, 91
1, 21035, Note_off_c, 0, 59, 91
1, 21060, Note_on_c, 0, 58, 106
1, 21148, Note_off_c, 0, 58, 106
1, 21256, Note_on_c, 0, 63, 103
1, 21336, Note_off_c, 0, 63, 103
1, 21338, Note_on_c, 0, 61, 92
1, 21412, Note_off_c, 0, 61, 92
1, 21416, Note_on_c, 0, 62, 89
1, 21465, Note_off_c, 0, 62, 89
1, 21500, Note_on_c, 0, 67, 115
1, 21614, Note_off_c, 0, 67, 115
1, 21622, Note_on_c, 0, 64, 97
1, 21675, Note_off_c, 0, 64, 97
1, 21717, Note_on_c, 0, 65, 94
1, 21777, Note_off_c, 0, 65, 94
1, 21785, Note_on_c, 0, 67, 109
1, 21881, Note_off_c, 0, 67, 109
1, 21894, Note_on_c, 0, 69, 83
1, 21972, Note_off_c, 0, 69, 83
1, 21976, Note_on_c, 0, 70, 87
1, 22034, Note_off_c, 0, 70, 87
1, 22040, Note_on_c, 0, 72, 111
1, 22165, Note_off_c, 0, 72, 111
1, 22171, Note_on_c, 0, 70, 114
1, 22220, Note_off_c, 0, 70, 114
1, 22233, Note_on_c, 0, 71, 112
1, 22331, Note_off_c, 0, 71, 112
1, 22380, Note_on_c, 0, 72, 117
1, 22415, Note_off_c, 0, 72, 117
1, 22435, Note_on_c, 0, 74, 112
1, 22527, Note_off_c, 0, 74, 112
1, 22594, Note_on_c, 0, 72, 114
1, 22656, Note_off_c, 0, 72, 114
1, 22680, Note_on_c, 0, 74, 116
1, 22859, Note_off_c, 0, 74, 116
1, 22876, Note_on_c, 0, 70, 107
1, 22945, Note_off_c, 0, 70, 107
1, 22976, Note_on_c, 0, 65, 109
1, 23050, Note_off_c, 0, 65, 109
1, 23070, Note_on_c, 0, 64, 102
1, 23157, Note_off_c, 0, 64, 102
1, 23159, Note_on_c, 0, 62, 97
1, 23210, Note_off_c, 0, 62, 97
1, 23225, Note_on_c, 0, 63, 97
1, 23323, Note_off_c, 0, 63, 97
1, 23325, Note_on_c, 0, 65, 102
1, 23401, Note_off_c, 0, 65, 102
1, 23414, Note_on_c, 0, 67, 89
1, 23490, Note_off_c, 0, 67, 89
1, 23512, Note_on_c, 0, 70, 93
1, 23563, Note_off_c, 0, 70, 93
1, 23567, Note_on_c, 0, 72, 93
1, 23609, Note_off_c, 0, 72, 93
1, 23617, Note_on_c, 0, 73, 116
1, 23695, Note_off_c, 0, 73, 116
1, 23695, Note_on_c, 0, 70, 105
1, 23721, Note_off_c, 0, 70, 105
1, 23729, Note_on_c, 0, 67, 106
1, 23769, Note_off_c, 0, 67, 106
1, 23809, Note_on_c, 0, 63, 102
1, 23937, Note_off_c, 0, 63, 102
1, 23997, Note_on_c, 0, 62, 95
1, 24100, Note_off_c, 0, 62, 95
1, 24158, Note_on_c, 0, 70, 117
1, 24764, Note_off_c, 0, 70, 117
1, 24781, Note_on_c, 0, 68, 117
1, 24850, Note_off_c, 0, 68, 117
1, 24881, Note_on_c, 0, 68, 106
1, 24957, Note_off_c, 0, 68, 106
1, 24974, Note_on_c, 0, 65, 99
1, 25041, Note_off_c, 0, 65, 99
1, 25047, Note_on_c, 0, 68, 103
1, 25141, Note_off_c, 0, 68, 103
1, 25161, Note_on_c, 0, 65, 90
1, 25214, Note_off_c, 0, 65, 90
1, 25240, Note_on_c, 0, 65, 101
1, 25336, Note_off_c, 0, 65, 101
1, 25344, Note_on_c, 0, 63, 97
1, 25404, Note_off_c, 0, 63, 97
1, 25439, Note_on_c, 0, 65, 103
1, 25513, Note_off_c, 0, 65, 103
1, 25537, Note_on_c, 0, 63, 92
1, 25602, Note_off_c, 0, 63, 92
1, 25633, Note_on_c, 0, 63, 100
1, 25707, Note_off_c, 0, 63, 100
1, 25707, Note_on_c, 0, 61, 98
1, 25790, Note_off_c, 0, 61, 98
1, 25812, Note_on_c, 0, 63, 99
1, 25901, Note_off_c, 0, 63, 99
1, 25901, Note_on_c, 0, 61, 102
1, 25968, Note_off_c, 0, 61, 102
1, 25992, Note_on_c, 0, 61, 91
1, 26084, Note_off_c, 0, 61, 91
1, 26101, Note_on_c, 0, 58, 116
1, 26157, Note_off_c, 0, 58, 116
1, 26174, Note_on_c, 0, 61, 87
1, 26268, Note_off_c, 0, 61, 87
1, 26286, Note_on_c, 0, 58, 111
1, 26347, Note_off_c, 0, 58, 111
1, 26369, Note_on_c, 0, 58, 97
1, 26436, Note_off_c, 0, 58, 97
1, 26461, Note_on_c, 0, 56, 108
1, 26544, Note_off_c, 0, 56, 108
1, 26576, Note_on_c, 0, 58, 94
1, 26661, Note_off_c, 0, 58, 94
1, 26661, End_track
0, 0, End_of_file
