0, 0, Header, 1, 1, 192
1, 0, Start_track
1, 0, Title_t, "Melody"
1, 0, Tempo, 253164
1, 0, Key_signature, -1, "major"
1, 0, Time_signature, 4, 2, 24, 8
1, 3553, Note_on_c, 0, 62, 94
1, 3639, Note_off_c, 0, 62, 94
1, 3652, Note_on_c, 0, 62, 88
1, 3715, Note_off_c, 0, 62, 88
1, 3835, Note_on_c, 0, 62, 92
1, 3918, Note_on_c, 0, 62, 96
1, 3918, Note_off_c, 0, 62, 92
1, 4017, Note_off_c, 0, 62, 96
1, 4017, Note_on_c, 0, 62, 99
1, 4103, Note_off_c, 0, 62, 99
1, 4109, Note_on_c, 0, 62, 108
1, 4217, Note_off_c, 0, 62, 108
1, 4217, Note_on_c, 0, 62, 109
1, 4300, Note_off_c, 0, 62, 109
1, 4300, Note_on_c, 0, 62, 107
1, 4408, Note_off_c, 0, 62, 107
1, 4408, Note_on_c, 0, 62, 103
1, 4497, Note_off_c, 0, 62, 103
1, 4497, Note_on_c, 0, 62, 116
1, 4608, Note_off_c, 0, 62, 116
1, 4608, Note_on_c, 0, 62, 114
1, 4685, Note_on_c, 0, 62, 108
1, 4685, Note_off_c, 0, 62, 114
1, 4802, Note_off_c, 0, 62, 108
1, 4802, Note_on_c, 0, 62, 108
1, 4888, Note_off_c, 0, 62, 108
1, 4888, Note_on_c, 0, 62, 115
1, 4956, Note_off_c, 0, 62, 115
1, 5071, Note_on_c, 0, 65, 97
1, 5185, Note_off_c, 0, 65, 97
1, 5383, Note_on_c, 0, 69, 115
1, 5453, Note_off_c, 0, 69, 115
1, 5646, Note_on_c, 0, 74, 112
1, 5751, Note_off_c, 0, 74, 112
1, 5957, Note_on_c, 0, 69, 115
1, 6018, Note_off_c, 0, 69, 115
1, 6025, Note_on_c, 0, 65, 98
1, 6120, Note_off_c, 0, 65, 98
1, 6126, Note_on_c, 0, 62, 94
1, 6180, Note_off_c, 0, 62, 94
1, 6354, Note_on_c, 0, 62, 100
1, 6402, Note_off_c, 0, 62, 100
1, 6410, Note_on_c, 0, 65, 104
1, 6480, Note_off_c, 0, 65, 104
1, 6603, Note_on_c, 0, 69, 117
1, 6699, Note_off_c, 0, 69, 117
1, 6795, Note_on_c, 0, 65, 104
1, 6878, Note_off_c, 0, 65, 104
1, 6988, Note_on_c, 0, 68, 111
1, 7084, Note_off_c, 0, 68, 111
1, 7115, Note_on_c, 0, 64, 88
1, 7194, Note_off_c, 0, 64, 88
1, 7290, Note_on_c, 0, 67, 112
1, 7386, Note_off_c, 0, 67, 112
1, 7474, Note_on_c, 0, 64, 92
1, 7557, Note_off_c, 0, 64, 92
1, 7737, Note_on_c, 0, 63, 91
1, 7842, Note_off_c, 0, 63, 91
1, 7881, Note_on_c, 0, 65, 84
1, 7955, Note_off_c, 0, 65, 84
1, 8632, Note_on_c, 0, 60, 92
1, 8676, Note_off_c, 0, 60, 92
1, 8676, Note_on_c, 0, 59, 109
1, 8711, Note_off_c, 0, 59, 109
1, 8723, Note_on_c, 0, 58, 83
1, 8792, Note_off_c, 0, 58, 83
1, 8792, Note_on_c, 0, 64, 103
1, 8871, Note_off_c, 0, 64, 103
1, 8884, Note_on_c, 0, 65, 106
1, 8985, Note_off_c, 0, 65, 106
1, 9064, Note_on_c, 0, 72, 119
1, 9156, Note_off_c, 0, 72, 119
1, 9200, Note_on_c, 0, 69, 118
1, 9262, Note_off_c, 0, 69, 118
1, 9265, Note_on_c, 0, 70, 109
1, 9366, Note_off_c, 0, 70, 109
1, 9367, Note_on_c, 0, 72, 90
1, 9447, Note_off_c, 0, 72, 90
1, 9461, Note_on_c, 0, 74, 113
1, 9571, Note_off_c, 0, 74, 113
1, 9584, Note_on_c, 0, 72, 115
1, 9645, Note_off_c, 0, 72, 115
1, 9777, Note_on_c, 0, 60, 99
1, 9834, Note_off_c, 0, 60, 99
1, 9935, Note_on_c, 0, 66, 103
1, 9974, Note_off_c, 0, 66, 103
1, 9977, Note_on_c, 0, 67, 99
1, 10036, Note_off_c, 0, 67, 99
1, 10043, Note_on_c, 0, 68, 92
1, 10100, Note_off_c, 0, 68, 92
1, 10104, Note_on_c, 0, 67, 91
1, 10153, Note_off_c, 0, 67, 91
1, 10159, Note_on_c, 0, 65, 95
1, 10220, Note_off_c, 0, 65, 95
1, 10220, Note_on_c, 0, 64, 93
1, 10316, Note_off_c, 0, 64, 93
1, 10324, Note_on_c, 0, 62, 96
1, 10403, Note_off_c, 0, 62, 96
1, 10419, Note_on_c, 0, 60, 94
1, 10521, Note_off_c, 0, 60, 94
1, 10604, Note_on_c, 0, 58, 98
1, 10687, Note_off_c, 0, 58, 98
1, 10687, Note_on_c, 0, 60, 96
1, 10726, Note_off_c, 0, 60, 96
1, 10726, Note_on_c, 0, 58, 93
1, 10786, Note_off_c, 0, 58, 93
1, 10786, Note_on_c, 0, 57, 85
1, 10868, Note_off_c, 0, 57, 85
1, 10879, Note_on_c, 0, 60, 89
1, 10980, Note_off_c, 0, 60, 89
1, 11059, Note_on_c, 0, 64, 86
1, 11155, Note_on_c, 0, 67, 113
1, 11155, Note_off_c, 0, 64, 86
1, 11251, Note_off_c, 0, 67, 113
1, 11735, Note_on_c, 0, 67, 114
1, 11836, Note_off_c, 0, 67, 114
1, 11836, Note_on_c, 0, 68, 111
1, 11919, Note_off_c, 0, 68, 111
1, 11919, Note_on_c, 0, 66, 99
1, 12011, Note_off_c, 0, 66, 99
1, 12011, Note_on_c, 0, 61, 97
1, 12099, Note_off_c, 0, 61, 97
1, 12102, Note_on_c, 0, 58, 99
1, 12187, Note_off_c, 0, 58, 99
1, 12286, Note_on_c, 0, 66, 102
1, 12385, Note_off_c, 0, 66, 102
1, 12388, Note_on_c, 0, 67, 104
1, 12489, Note_off_c, 0, 67, 104
1, 12493, Note_on_c, 0, 62, 87
1, 12589, Note_off_c, 0, 62, 87
1, 12589, Note_on_c, 0, 60, 93
1, 12673, Note_off_c, 0, 60, 93
1, 12673, Note_on_c, 0, 58, 91
1, 12765, Note_off_c, 0, 58, 91
1, 12869, Note_on_c, 0, 67, 113
1, 12961, Note_off_c, 0, 67, 113
1, 12961, Note_on_c, 0, 68, 108
1, 13066, Note_off_c, 0, 68, 108
1, 13066, Note_on_c, 0, 64, 94
1, 13171, Note_off_c, 0, 64, 94
1, 13171, Note_on_c, 0, 61, 100
1, 13254, Note_off_c, 0, 61, 100
1, 13262, Note_on_c, 0, 58, 97
1, 13350, Note_off_c, 0, 58, 97
1, 13632, Note_on_c, 0, 58, 100
1, 13724, Note_off_c, 0, 58, 100
1, 13724, Note_on_c, 0, 59, 93
1, 13829, Note_off_c, 0, 59, 93
1, 13829, Note_on_c, 0, 60, 93
1, 13921, Note_off_c, 0, 60, 93
1, 13921, Note_on_c, 0, 67, 104
1, 14013, Note_off_c, 0, 67, 104
1, 14013, Note_on_c, 0, 64, 91
1, 14114, Note_off_c, 0, 64, 91
1, 14118, Note_on_c, 0, 60, 85
1, 14210, Note_off_c, 0, 60, 85
1, 14213, Note_on_c, 0, 65, 96
1, 14324, Note_off_c, 0, 65, 96
1, 14387, Note_on_c, 0, 65, 86
1, 14673, Note_off_c, 0, 65, 86
1, 14852, Note_on_c, 0, 51, 105
1, 14888, Note_off_c, 0, 51, 105
1, 14973, Note_on_c, 0, 62, 98
1, 15061, Note_off_c, 0, 62, 98
1, 15061, Note_on_c, 0, 61, 97
1, 15162, Note_off_c, 0, 61, 97
1, 15162, Note_on_c, 0, 60, 89
1, 15258, Note_off_c, 0, 60, 89
1, 15382, Note_on_c, 0, 53, 92
1, 15461, Note_off_c, 0, 53, 92
1, 15474, Note_on_c, 0, 60, 84
1, 15533, Note_off_c, 0, 60, 84
1, 15556, Note_on_c, 0, 63, 101
1, 15652, Note_off_c, 0, 63, 101
1, 15652, Note_on_c, 0, 67, 111
1, 15722, Note_on_c, 0, 57, 100
1, 15722, Note_off_c, 0, 67, 111
1, 15810, Note_off_c, 0, 57, 100
1, 15819, Note_on_c, 0, 60, 87
1, 15854, Note_off_c, 0, 60, 87
1, 15910, Note_on_c, 0, 65, 105
1, 15993, Note_off_c, 0, 65, 105
1, 15993, Note_on_c, 0, 64, 98
1, 16098, Note_off_c, 0, 64, 98
1, 16106, Note_on_c, 0, 63, 88
1, 16194, Note_off_c, 0, 63, 88
1, 16194, Note_on_c, 0, 60, 91
1, 16290, Note_off_c, 0, 60, 91
1, 16290, Note_on_c, 0, 63, 102
1, 16395, Note_off_c, 0, 63, 102
1, 16474, Note_on_c, 0, 60, 98
1, 16575, Note_off_c, 0, 60, 98
1, 16800, Note_on_c, 0, 63, 100
1, 16879, Note_off_c, 0, 63, 100
1, 16882, Note_on_c, 0, 61, 86
1, 16976, Note_off_c, 0, 61, 86
1, 16990, Note_on_c, 0, 60, 78
1, 17039, Note_off_c, 0, 60, 78
1, 17074, Note_on_c, 0, 67, 114
1, 17135, Note_off_c, 0, 67, 114
1, 17157, Note_on_c, 0, 64, 96
1, 17249, Note_off_c, 0, 64, 96
1, 17249, Note_on_c, 0, 65, 94
1, 17354, Note_off_c, 0, 65, 94
1, 17354, Note_on_c, 0, 72, 113
1, 17433, Note_off_c, 0, 72, 113
1, 17433, Note_on_c, 0, 69, 95
1, 17534, Note_off_c, 0, 69, 95
1, 17534, Note_on_c, 0, 70, 87
1, 17622, Note_off_c, 0, 70, 87
1, 17632, Note_on_c, 0, 75, 109
1, 17737, Note_off_c, 0, 75, 109
1, 17746, Note_on_c, 0, 72, 114
1, 17823, Note_off_c, 0, 72, 114
1, 17840, Note_on_c, 0, 73, 109
1, 17936, Note_off_c, 0, 73, 109
1, 18145, Note_on_c, 0, 72, 116
1, 18191, Note_off_c, 0, 72, 116
1, 18208, Note_on_c, 0, 73, 108
1, 18401, Note_off_c, 0, 73, 108
1, 18404, Note_on_c, 0, 72, 108
1, 18509, Note_off_c, 0, 72, 108
1, 18692, Note_on_c, 0, 70, 84
1, 18715, Note_off_c, 0, 70, 84
1, 18731, Note_on_c, 0, 71, 117
1, 18803, Note_off_c, 0, 71, 117
1, 18812, Note_on_c, 0, 72, 118
1, 18886, Note_off_c, 0, 72, 118
1, 18886, Note_on_c, 0, 73, 109
1, 18930, Note_off_c, 0, 73, 109
1, 18930, Note_on_c, 0, 72, 113
1, 18987, Note_off_c, 0, 72, 113
1, 18987, Note_on_c, 0, 70, 105
1, 19105, Note_off_c, 0, 70, 105
1, 19297, Note_on_c, 0, 70, 107
1, 19340, Note_off_c, 0, 70, 107
1, 19340, Note_on_c, 0, 71, 114
1, 19381, Note_off_c, 0, 71, 114
1, 19381, Note_on_c, 0, 72, 109
1, 19442, Note_off_c, 0, 72, 109
1, 19442, Note_on_c, 0, 71, 109
1, 19499, Note_off_c, 0, 71, 109
1, 19499, Note_on_c, 0, 70, 99
1, 19569, Note_off_c, 0, 70, 99
1, 19569, Note_on_c, 0, 71, 110
1, 19661, Note_off_c, 0, 71, 110
1, 19753, Note_on_c, 0, 69, 115
1, 19841, Note_off_c, 0, 69, 115
1, 19951, Note_on_c, 0, 70, 109
1, 20047, Note_off_c, 0, 70, 109
1, 20047, Note_on_c, 0, 66, 99
1, 20135, Note_off_c, 0, 66, 99
1, 20135, Note_on_c, 0, 63, 89
1, 20245, Note_off_c, 0, 63, 89
1, 20252, Note_on_c, 0, 60, 85
1, 20309, Note_off_c, 0, 60, 85
1, 20336, Note_on_c, 0, 67, 110
1, 20415, Note_off_c, 0, 67, 110
1, 20415, Note_on_c, 0, 68, 105
1, 20516, Note_off_c, 0, 68, 105
1, 20520, Note_on_c, 0, 64, 98
1, 20621, Note_off_c, 0, 64, 98
1, 20621, Note_on_c, 0, 61, 96
1, 20724, Note_off_c, 0, 61, 96
1, 20724, Note_on_c, 0, 58, 101
1, 20790, Note_off_c, 0, 58, 101
1, 21004, Note_on_c, 0, 64, 103
1, 21053, Note_off_c, 0, 64, 103
1, 21062, Note_on_c, 0, 65, 86
1, 21392, Note_off_c, 0, 65, 86
1, 21610, Note_on_c, 0, 63, 108
1, 21679, Note_off_c, 0, 63, 108
1, 21691, Note_on_c, 0, 65, 104
1, 21858, Note_off_c, 0, 65, 104
1, 21858, Note_on_c, 0, 42, 80
1, 21858, Note_off_c, 0, 42, 80
1, 22236, Note_on_c, 0, 65, 108
1, 22403, Note_off_c, 0, 65, 108
1, 22486, Note_on_c, 0, 64, 102
1, 22569, Note_off_c, 0, 64, 102
1, 22648, Note_on_c, 0, 65, 102
1, 22780, Note_off_c, 0, 65, 102
1, 22863, Note_on_c, 0, 64, 101
1, 22959, Note_off_c, 0, 64, 101
1, 23042, Note_on_c, 0, 65, 102
1, 23178, Note_off_c, 0, 65, 102
1, 23239, Note_on_c, 0, 64, 103
1, 23335, Note_off_c, 0, 64, 103
1, 23335, Note_on_c, 0, 65, 98
1, 23436, Note_off_c, 0, 65, 98
1, 23528, Note_on_c, 0, 64, 92
1, 23563, Note_off_c, 0, 64, 92
1, 23585, Note_on_c, 0, 65, 96
1, 23765, Note_off_c, 0, 65, 96
1, 23813, Note_on_c, 0, 64, 105
1, 23909, Note_off_c, 0, 64, 105
1, 23913, Note_on_c, 0, 65, 96
1, 24036, Note_off_c, 0, 65, 96
1, 24132, Note_on_c, 0, 64, 90
1, 24215, Note_off_c, 0, 64, 90
1, 24215, Note_on_c, 0, 65, 93
1, 24320, Note_off_c, 0, 65, 93
1, 24405, Note_on_c, 0, 64, 107
1, 24484, Note_off_c, 0, 64, 107
1, 24503, Note_on_c, 0, 65, 100
1, 24877, Note_off_c, 0, 65, 100
1, 24895, Note_on_c, 0, 64, 98
1, 24961, Note_off_c, 0, 64, 98
1, 24973, Note_on_c, 0, 65, 94
1, 25153, Note_off_c, 0, 65, 94
1, 25161, Note_on_c, 0, 62, 95
1, 25240, Note_off_c, 0, 62, 95
1, 25248, Note_on_c, 0, 64, 95
1, 25348, Note_off_c, 0, 64, 95
1, 25348, Note_on_c, 0, 60, 94
1, 25440, Note_off_c, 0, 60, 94
1, 25440, Note_on_c, 0, 62, 93
1, 25523, Note_off_c, 0, 62, 93
1, 25537, Note_on_c, 0, 58, 100
1, 25618, Note_off_c, 0, 58, 100
1, 25624, Note_on_c, 0, 60, 95
1, 25720, Note_off_c, 0, 60, 95
1, 25727, Note_on_c, 0, 57, 92
1, 25911, Note_off_c, 0, 57, 92
1, 26033, Note_on_c, 0, 67, 114
1, 26074, Note_off_c, 0, 67, 114
1, 26087, Note_on_c, 0, 68, 109
1, 26201, Note_off_c, 0, 68, 109
1, 26201, Note_on_c, 0, 63, 99
1, 26242, Note_off_c, 0, 63, 99
1, 26242, Note_on_c, 0, 60, 99
1, 26281, Note_off_c, 0, 60, 99
1, 26283, Note_on_c, 0, 56, 93
1, 26401, Note_off_c, 0, 56, 93
1, 26418, Note_on_c, 0, 54, 91
1, 26467, Note_off_c, 0, 54, 91
1, 26473, Note_on_c, 0, 55, 92
1, 26569, Note_off_c, 0, 55, 92
1, 26673, Note_on_c, 0, 55, 92
1, 26777, Note_off_c, 0, 55, 92
1, 26777, Note_on_c, 0, 65, 103
1, 26861, Note_off_c, 0, 65, 103
1, 26861, Note_on_c, 0, 66, 96
1, 26935, Note_off_c, 0, 66, 96
1, 26972, Note_on_c, 0, 61, 100
1, 27014, Note_off_c, 0, 61, 100
1, 27014, Note_on_c, 0, 58, 103
1, 27060, Note_on_c, 0, 54, 95
1, 27060, Note_off_c, 0, 58, 103
1, 27164, Note_off_c, 0, 54, 95
1, 27633, Note_on_c, 0, 60, 118
1, 27766, Note_off_c, 0, 60, 118
1, 27770, Note_on_c, 0, 60, 116
1, 27831, Note_off_c, 0, 60, 116
1, 27840, Note_on_c, 0, 60, 99
1, 27980, Note_off_c, 0, 60, 99
1, 28045, Note_on_c, 0, 60, 106
1, 28253, Note_off_c, 0, 60, 106
1, 28267, Note_on_c, 0, 60, 92
1, 28349, Note_off_c, 0, 60, 92
1, 28357, Note_on_c, 0, 60, 90
1, 28494, Note_off_c, 0, 60, 90
1, 28501, Note_on_c, 0, 60, 89
1, 28578, Note_off_c, 0, 60, 89
1, 28583, Note_on_c, 0, 60, 99
1, 28771, Note_off_c, 0, 60, 99
1, 28771, End_track
0, 0, End_of_file
