0, 0, Header, 1, 1, 192
1, 0, Start_track
1, 0, Title_t, "Melody"
1, 0, Tempo, 247933
1, 0, Key_signature, -2, "major"
1, 0, Time_signature, 4, 2, 24, 8
1, 1917, Note_on_c, 0, 68, 109
1, 2007, Note_off_c, 0, 68, 109
1, 2021, Note_on_c, 0, 67, 108
1, 2093, Note_off_c, 0, 67, 108
1, 2113, Note_on_c, 0, 66, 107
1, 2203, Note_off_c, 0, 66, 107
1, 2228, Note_on_c, 0, 64, 87
1, 2276, Note_off_c, 0, 64, 87
1, 2281, Note_on_c, 0, 65, 111
1, 2401, Note_off_c, 0, 65, 111
1, 2412, Note_on_c, 0, 64, 97
1, 2524, Note_off_c, 0, 64, 97
1, 2525, Note_on_c, 0, 63, 93
1, 2568, Note_off_c, 0, 63, 93
1, 2662, Note_on_c, 0, 67, 107
1, 2774, Note_off_c, 0, 67, 107
1, 2779, Note_on_c, 0, 66, 106
1, 2875, Note_off_c, 0, 66, 106
1, 2882, Note_on_c, 0, 65, 103
1, 2965, Note_off_c, 0, 65, 103
1, 2976, Note_on_c, 0, 63, 98
1, 3036, Note_off_c, 0, 63, 98
1, 3048, Note_on_c, 0, 60, 97
1, 3149, Note_off_c, 0, 60, 97
1, 3159, Note_on_c, 0, 58, 105
1, 3243, Note_off_c, 0, 58, 105
1, 3263, Note_on_c, 0, 57, 92
1, 3325, Note_off_c, 0, 57, 92
1, 3329, Note_on_c, 0, 66, 113
1, 3431, Note_off_c, 0, 66, 113
1, 3444, Note_on_c, 0, 63, 91
1, 3518, Note_off_c, 0, 63, 91
1, 3542, Note_on_c, 0, 64, 95
1, 3604, Note_off_c, 0, 64, 95
1, 3645, Note_on_c, 0, 65, 111
1, 3727, Note_off_c, 0, 65, 111
1, 3730, Note_on_c, 0, 62, 112
1, 3818, Note_off_c, 0, 62, 112
1, 3841, Note_on_c, 0, 58, 96
1, 3920, Note_off_c, 0, 58, 96
1, 3937, Note_on_c, 0, 55, 99
1, 4001, Note_off_c, 0, 55, 99
1, 4014, Note_on_c, 0, 60, 104
1, 4115, Note_off_c, 0, 60, 104
1, 4125, Note_on_c, 0, 58, 109
1, 4208, Note_off_c, 0, 58, 109
1, 4215, Note_on_c, 0, 57, 93
1, 4287, Note_off_c, 0, 57, 93
1, 4305, Note_on_c, 0, 58, 106
1, 4383, Note_off_c, 0, 58, 106
1, 4410, Note_on_c, 0, 59, 83
1, 4472, Note_off_c, 0, 59, 83
1, 4480, Note_on_c, 0, 60, 100
1, 4545, Note_off_c, 0, 60, 100
1, 4562, Note_on_c, 0, 61, 111
1, 4636, Note_off_c, 0, 61, 111
1, 4659, Note_on_c, 0, 62, 106
1, 4750, Note_off_c, 0, 62, 106
1, 5067, Note_on_c, 0, 59, 89
1, 5122, Note_off_c, 0, 59, 89
1, 5132, Note_on_c, 0, 60, 98
1, 5211, Note_off_c, 0, 60, 98
1, 5223, Note_on_c, 0, 62, 97
1, 5288, Note_off_c, 0, 62, 97
1, 5321, Note_on_c, 0, 63, 96
1, 5391, Note_off_c, 0, 63, 96
1, 5538, Note_on_c, 0, 67, 106
1, 5589, Note_off_c, 0, 67, 106
1, 5622, Note_on_c, 0, 63, 95
1, 5684, Note_off_c, 0, 63, 95
1, 5696, Note_on_c, 0, 60, 97
1, 5784, Note_off_c, 0, 60, 97
1, 5819, Note_on_c, 0, 58, 105
1, 5896, Note_off_c, 0, 58, 105
1, 6022, Note_on_c, 0, 58, 94
1, 6074, Note_off_c, 0, 58, 94
1, 6092, Note_on_c, 0, 61, 108
1, 6188, Note_off_c, 0, 61, 108
1, 6211, Note_on_c, 0, 69, 93
1, 6253, Note_off_c, 0, 69, 93
1, 6270, Note_on_c, 0, 69, 114
1, 6359, Note_off_c, 0, 69, 114
1, 6367, Note_on_c, 0, 68, 113
1, 6440, Note_off_c, 0, 68, 113
1, 6465, Note_on_c, 0, 67, 103
1, 6534, Note_off_c, 0, 67, 103
1, 6549, Note_on_c, 0, 66, 98
1, 6631, Note_off_c, 0, 66, 98
1, 6642, Note_on_c, 0, 65, 102
1, 6738, Note_off_c, 0, 65, 102
1, 6753, Note_on_c, 0, 62, 102
1, 6851, Note_off_c, 0, 62, 102
1, 6873, Note_on_c, 0, 58, 99
1, 6929, Note_off_c, 0, 58, 99
1, 6940, Note_on_c, 0, 55, 104
1, 7006, Note_off_c, 0, 55, 104
1, 7028, Note_on_c, 0, 60, 106
1, 7107, Note_off_c, 0, 60, 106
1, 7137, Note_on_c, 0, 59, 108
1, 7233, Note_off_c, 0, 59, 108
1, 7244, Note_on_c, 0, 58, 101
1, 7314, Note_off_c, 0, 58, 101
1, 7333, Note_on_c, 0, 57, 93
1, 7401, Note_off_c, 0, 57, 93
1, 7418, Note_on_c, 0, 55, 105
1, 7482, Note_off_c, 0, 55, 105
1, 7495, Note_on_c, 0, 53, 102
1, 7561, Note_off_c, 0, 53, 102
1, 7793, Note_on_c, 0, 60, 100
1, 7879, Note_off_c, 0, 60, 100
1, 7890, Note_on_c, 0, 63, 100
1, 8001, Note_off_c, 0, 63, 100
1, 8028, Note_on_c, 0, 60, 94
1, 8083, Note_off_c, 0, 60, 94
1, 8093, Note_on_c, 0, 61, 98
1, 8149, Note_off_c, 0, 61, 98
1, 8162, Note_on_c, 0, 62, 106
1, 8208, Note_off_c, 0, 62, 106
1, 8254, Note_on_c, 0, 61, 105
1, 8336, Note_off_c, 0, 61, 105
1, 8353, Note_on_c, 0, 60, 104
1, 8416, Note_off_c, 0, 60, 104
1, 8446, Note_on_c, 0, 59, 92
1, 8528, Note_off_c, 0, 59, 92
1, 8548, Note_on_c, 0, 58, 99
1, 8623, Note_off_c, 0, 58, 99
1, 8638, Note_on_c, 0, 56, 104
1, 8698, Note_off_c, 0, 56, 104
1, 8837, Note_on_c, 0, 54, 85
1, 8889, Note_off_c, 0, 54, 85
1, 8901, Note_on_c, 0, 55, 99
1, 9008, Note_off_c, 0, 55, 99
1, 9013, Note_on_c, 0, 58, 103
1, 9087, Note_off_c, 0, 58, 103
1, 9095, Note_on_c, 0, 59, 94
1, 9172, Note_off_c, 0, 59, 94
1, 9196, Note_on_c, 0, 61, 100
1, 9264, Note_off_c, 0, 61, 100
1, 9286, Note_on_c, 0, 62, 98
1, 9362, Note_off_c, 0, 62, 98
1, 9406, Note_on_c, 0, 63, 106
1, 9482, Note_off_c, 0, 63, 106
1, 9497, Note_on_c, 0, 64, 94
1, 9569, Note_off_c, 0, 64, 94
1, 9577, Note_on_c, 0, 65, 110
1, 9688, Note_off_c, 0, 65, 110
1, 9698, Note_on_c, 0, 66, 93
1, 9759, Note_off_c, 0, 66, 93
1, 9773, Note_on_c, 0, 67, 103
1, 9826, Note_off_c, 0, 67, 103
1, 9844, Note_on_c, 0, 67, 107
1, 9886, Note_off_c, 0, 67, 107
1, 9903, Note_on_c, 0, 63, 99
1, 9942, Note_off_c, 0, 63, 99
1, 9946, Note_on_c, 0, 60, 104
1, 10002, Note_off_c, 0, 60, 104
1, 10017, Note_on_c, 0, 58, 93
1, 10066, Note_off_c, 0, 58, 93
1, 10244, Note_on_c, 0, 65, 115
1, 10341, Note_off_c, 0, 65, 115
1, 10348, Note_on_c, 0, 66, 102
1, 10397, Note_off_c, 0, 66, 102
1, 10406, Note_on_c, 0, 63, 103
1, 10491, Note_off_c, 0, 63, 103
1, 10517, Note_on_c, 0, 60, 103
1, 10584, Note_off_c, 0, 60, 103
1, 10776, Note_on_c, 0, 64, 99
1, 10895, Note_off_c, 0, 64, 99
1, 10903, Note_on_c, 0, 65, 104
1, 10958, Note_off_c, 0, 65, 104
1, 10961, Note_on_c, 0, 62, 103
1, 11054, Note_off_c, 0, 62, 103
1, 11071, Note_on_c, 0, 58, 107
1, 11153, Note_off_c, 0, 58, 107
1, 11343, Note_on_c, 0, 64, 106
1, 11437, Note_off_c, 0, 64, 106
1, 11448, Note_on_c, 0, 65, 109
1, 11515, Note_off_c, 0, 65, 109
1, 11523, Note_on_c, 0, 62, 100
1, 11598, Note_off_c, 0, 62, 100
1, 11623, Note_on_c, 0, 58, 104
1, 11691, Note_off_c, 0, 58, 104
1, 11886, Note_on_c, 0, 66, 98
1, 12005, Note_off_c, 0, 66, 98
1, 12012, Note_on_c, 0, 67, 106
1, 12071, Note_off_c, 0, 67, 106
1, 12097, Note_on_c, 0, 63, 100
1, 12172, Note_off_c, 0, 63, 100
1, 12182, Note_on_c, 0, 62, 102
1, 12255, Note_off_c, 0, 62, 102
1, 12266, Note_on_c, 0, 60, 106
1, 12360, Note_off_c, 0, 60, 106
1, 12367, Note_on_c, 0, 58, 106
1, 12465, Note_off_c, 0, 58, 106
1, 12480, Note_on_c, 0, 59, 97
1, 12552, Note_off_c, 0, 59, 97
1, 12565, Note_on_c, 0, 62, 111
1, 12631, Note_off_c, 0, 62, 111
1, 12768, Note_on_c, 0, 62, 104
1, 12833, Note_off_c, 0, 62, 104
1, 12845, Note_on_c, 0, 64, 113
1, 12941, Note_off_c, 0, 64, 113
1, 12955, Note_on_c, 0, 67, 102
1, 13002, Note_off_c, 0, 67, 102
1, 13040, Note_on_c, 0, 74, 121
1, 13104, Note_off_c, 0, 74, 121
1, 13110, Note_on_c, 0, 72, 112
1, 13143, Note_off_c, 0, 72, 112
1, 13155, Note_on_c, 0, 71, 110
1, 13216, Note_off_c, 0, 71, 110
1, 13238, Note_on_c, 0, 70, 106
1, 13317, Note_off_c, 0, 70, 106
1, 13336, Note_on_c, 0, 69, 112
1, 13392, Note_off_c, 0, 69, 112
1, 13401, Note_on_c, 0, 67, 99
1, 13499, Note_off_c, 0, 67, 99
1, 13515, Note_on_c, 0, 66, 101
1, 13586, Note_off_c, 0, 66, 101
1, 13594, Note_on_c, 0, 65, 102
1, 13687, Note_off_c, 0, 65, 102
1, 13699, Note_on_c, 0, 64, 99
1, 13752, Note_off_c, 0, 64, 99
1, 13772, Note_on_c, 0, 63, 98
1, 13828, Note_off_c, 0, 63, 98
1, 13868, Note_on_c, 0, 55, 111
1, 13954, Note_off_c, 0, 55, 111
1, 13972, Note_on_c, 0, 58, 88
1, 14060, Note_off_c, 0, 58, 88
1, 14076, Note_on_c, 0, 62, 111
1, 14148, Note_off_c, 0, 62, 111
1, 14169, Note_on_c, 0, 60, 102
1, 14255, Note_off_c, 0, 60, 102
1, 14272, Note_on_c, 0, 59, 97
1, 14352, Note_off_c, 0, 59, 97
1, 14368, Note_on_c, 0, 58, 104
1, 14454, Note_off_c, 0, 58, 104
1, 14465, Note_on_c, 0, 56, 108
1, 14534, Note_off_c, 0, 56, 108
1, 14545, Note_on_c, 0, 57, 90
1, 14639, Note_off_c, 0, 57, 90
1, 14665, Note_on_c, 0, 60, 90
1, 14721, Note_off_c, 0, 60, 90
1, 14734, Note_on_c, 0, 63, 114
1, 14791, Note_off_c, 0, 63, 114
1, 14845, Note_on_c, 0, 66, 107
1, 14938, Note_off_c, 0, 66, 107
1, 14945, Note_on_c, 0, 67, 104
1, 15018, Note_off_c, 0, 67, 104
1, 15031, Note_on_c, 0, 63, 103
1, 15099, Note_off_c, 0, 63, 103
1, 15114, Note_on_c, 0, 60, 103
1, 15197, Note_off_c, 0, 60, 103
1, 15225, Note_on_c, 0, 58, 108
1, 15318, Note_off_c, 0, 58, 108
1, 15329, Note_on_c, 0, 57, 90
1, 15391, Note_off_c, 0, 57, 90
1, 15398, Note_on_c, 0, 66, 104
1, 15483, Note_off_c, 0, 66, 104
1, 15527, Note_on_c, 0, 63, 92
1, 15562, Note_off_c, 0, 63, 92
1, 15576, Note_on_c, 0, 64, 108
1, 15624, Note_off_c, 0, 64, 108
1, 15652, Note_on_c, 0, 65, 111
1, 15742, Note_off_c, 0, 65, 111
1, 15757, Note_on_c, 0, 62, 103
1, 15832, Note_off_c, 0, 62, 103
1, 15891, Note_on_c, 0, 58, 94
1, 15960, Note_off_c, 0, 58, 94
1, 15969, Note_on_c, 0, 55, 96
1, 16043, Note_off_c, 0, 55, 96
1, 16049, Note_on_c, 0, 60, 107
1, 16133, Note_off_c, 0, 60, 107
1, 16151, Note_on_c, 0, 58, 106
1, 16212, Note_off_c, 0, 58, 106
1, 16227, Note_on_c, 0, 57, 106
1, 16321, Note_off_c, 0, 57, 106
1, 16336, Note_on_c, 0, 58, 98
1, 16407, Note_off_c, 0, 58, 98
1, 16419, Note_on_c, 0, 62, 111
1, 16525, Note_off_c, 0, 62, 111
1, 16536, Note_on_c, 0, 65, 104
1, 16606, Note_off_c, 0, 65, 104
1, 16614, Note_on_c, 0, 67, 117
1, 16691, Note_off_c, 0, 67, 117
1, 16728, Note_on_c, 0, 67, 114
1, 16783, Note_off_c, 0, 67, 114
1, 16797, Note_on_c, 0, 68, 105
1, 16886, Note_off_c, 0, 68, 105
1, 16904, Note_on_c, 0, 65, 102
1, 16984, Note_off_c, 0, 65, 102
1, 16996, Note_on_c, 0, 64, 96
1, 17091, Note_off_c, 0, 64, 96
1, 17099, Note_on_c, 0, 67, 113
1, 17179, Note_off_c, 0, 67, 113
1, 17185, Note_on_c, 0, 65, 109
1, 17274, Note_off_c, 0, 65, 109
1, 17676, Note_on_c, 0, 59, 94
1, 17752, Note_off_c, 0, 59, 94
1, 17763, Note_on_c, 0, 60, 100
1, 17845, Note_off_c, 0, 60, 100
1, 17852, Note_on_c, 0, 62, 108
1, 17932, Note_off_c, 0, 62, 108
1, 18225, Note_on_c, 0, 60, 108
1, 18301, Note_off_c, 0, 60, 108
1, 18311, Note_on_c, 0, 61, 108
1, 18384, Note_off_c, 0, 61, 108
1, 18412, Note_on_c, 0, 64, 106
1, 18487, Note_off_c, 0, 64, 106
1, 18792, Note_on_c, 0, 61, 105
1, 18847, Note_off_c, 0, 61, 105
1, 18851, Note_on_c, 0, 62, 104
1, 18935, Note_off_c, 0, 62, 104
1, 19063, Note_on_c, 0, 65, 123
1, 19146, Note_off_c, 0, 65, 123
1, 19365, Note_on_c, 0, 61, 109
1, 19437, Note_off_c, 0, 61, 109
1, 19445, Note_on_c, 0, 62, 99
1, 19546, Note_off_c, 0, 62, 99
1, 19557, Note_on_c, 0, 66, 120
1, 19630, Note_off_c, 0, 66, 120
1, 19768, Note_on_c, 0, 59, 95
1, 19809, Note_off_c, 0, 59, 95
1, 19823, Note_on_c, 0, 60, 102
1, 19894, Note_off_c, 0, 60, 102
1, 20008, Note_on_c, 0, 67, 121
1, 20086, Note_off_c, 0, 67, 121
1, 20328, Note_on_c, 0, 57, 98
1, 20376, Note_off_c, 0, 57, 98
1, 20381, Note_on_c, 0, 58, 99
1, 20501, Note_off_c, 0, 58, 99
1, 20515, Note_on_c, 0, 59, 94
1, 20578, Note_off_c, 0, 59, 94
1, 20593, Note_on_c, 0, 60, 103
1, 20682, Note_off_c, 0, 60, 103
1, 20899, Note_on_c, 0, 59, 96
1, 20953, Note_off_c, 0, 59, 96
1, 20971, Note_on_c, 0, 58, 101
1, 21068, Note_off_c, 0, 58, 101
1, 21090, Note_on_c, 0, 56, 102
1, 21161, Note_off_c, 0, 56, 102
1, 21339, Note_on_c, 0, 55, 113
1, 21434, Note_off_c, 0, 55, 113
1, 21742, Note_on_c, 0, 55, 116
1, 21846, Note_off_c, 0, 55, 116
1, 21909, Note_on_c, 0, 62, 113
1, 21999, Note_off_c, 0, 62, 113
1, 22022, Note_on_c, 0, 65, 115
1, 22094, Note_off_c, 0, 65, 115
1, 22127, Note_on_c, 0, 62, 111
1, 22194, Note_off_c, 0, 62, 111
1, 22212, Note_on_c, 0, 63, 107
1, 22259, Note_off_c, 0, 63, 107
1, 22271, Note_on_c, 0, 65, 100
1, 22309, Note_off_c, 0, 65, 100
1, 22313, Note_on_c, 0, 66, 100
1, 22406, Note_off_c, 0, 66, 100
1, 22409, Note_on_c, 0, 67, 97
1, 22469, Note_off_c, 0, 67, 97
1, 22479, Note_on_c, 0, 67, 108
1, 22503, Note_off_c, 0, 67, 108
1, 22506, Note_on_c, 0, 68, 112
1, 22579, Note_off_c, 0, 68, 112
1, 22591, Note_on_c, 0, 69, 116
1, 22691, Note_off_c, 0, 69, 116
1, 22697, Note_on_c, 0, 70, 109
1, 22770, Note_off_c, 0, 70, 109
1, 22776, Note_on_c, 0, 66, 104
1, 22850, Note_off_c, 0, 66, 104
1, 22863, Note_on_c, 0, 63, 103
1, 22943, Note_off_c, 0, 63, 103
1, 23052, Note_on_c, 0, 65, 111
1, 23162, Note_off_c, 0, 65, 111
1, 23173, Note_on_c, 0, 63, 102
1, 23231, Note_off_c, 0, 63, 102
1, 23304, Note_on_c, 0, 60, 98
1, 23373, Note_off_c, 0, 60, 98
1, 23380, Note_on_c, 0, 61, 111
1, 23441, Note_off_c, 0, 61, 111
1, 23448, Note_on_c, 0, 62, 107
1, 23526, Note_off_c, 0, 62, 107
1, 23533, Note_on_c, 0, 58, 111
1, 23621, Note_off_c, 0, 58, 111
1, 23636, Note_on_c, 0, 55, 96
1, 23683, Note_off_c, 0, 55, 96
1, 23831, Note_on_c, 0, 60, 108
1, 23913, Note_off_c, 0, 60, 108
1, 23925, Note_on_c, 0, 58, 109
1, 24005, Note_off_c, 0, 58, 109
1, 24027, Note_on_c, 0, 57, 97
1, 24090, Note_off_c, 0, 57, 97
1, 24129, Note_on_c, 0, 58, 111
1, 24182, Note_off_c, 0, 58, 111
1, 24195, Note_on_c, 0, 59, 92
1, 24239, Note_off_c, 0, 59, 92
1, 24381, Note_on_c, 0, 65, 118
1, 24488, Note_off_c, 0, 65, 118
1, 24493, Note_on_c, 0, 68, 118
1, 24585, Note_off_c, 0, 68, 118
1, 24588, Note_on_c, 0, 67, 109
1, 24673, Note_off_c, 0, 67, 109
1, 24677, Note_on_c, 0, 65, 105
1, 24742, Note_off_c, 0, 65, 105
1, 24779, Note_on_c, 0, 64, 98
1, 24853, Note_off_c, 0, 64, 98
1, 24865, Note_on_c, 0, 67, 110
1, 24940, Note_off_c, 0, 67, 110
1, 24946, Note_on_c, 0, 70, 103
1, 25033, Note_off_c, 0, 70, 103
1, 25045, Note_on_c, 0, 74, 112
1, 25138, Note_off_c, 0, 74, 112
1, 25152, Note_on_c, 0, 69, 105
1, 25235, Note_off_c, 0, 69, 105
1, 25243, Note_on_c, 0, 67, 92
1, 25292, Note_off_c, 0, 67, 92
1, 25332, Note_on_c, 0, 72, 112
1, 25415, Note_off_c, 0, 72, 112
1, 25429, Note_on_c, 0, 71, 106
1, 25539, Note_off_c, 0, 71, 106
1, 25546, Note_on_c, 0, 70, 107
1, 25608, Note_off_c, 0, 70, 107
1, 25615, Note_on_c, 0, 67, 107
1, 25682, Note_off_c, 0, 67, 107
1, 25691, Note_on_c, 0, 63, 101
1, 25798, Note_off_c, 0, 63, 101
1, 25818, Note_on_c, 0, 60, 106
1, 25903, Note_off_c, 0, 60, 106
1, 25913, Note_on_c, 0, 61, 106
1, 25989, Note_off_c, 0, 61, 106
1, 26094, Note_on_c, 0, 69, 120
1, 26188, Note_off_c, 0, 69, 120
1, 26193, Note_on_c, 0, 67, 111
1, 26271, Note_off_c, 0, 67, 111
1, 26281, Note_on_c, 0, 65, 113
1, 26369, Note_off_c, 0, 65, 113
1, 26389, Note_on_c, 0, 62, 113
1, 26465, Note_off_c, 0, 62, 113
1, 26484, Note_on_c, 0, 58, 102
1, 26566, Note_off_c, 0, 58, 102
1, 26578, Note_on_c, 0, 55, 105
1, 26649, Note_off_c, 0, 55, 105
1, 26664, Note_on_c, 0, 60, 114
1, 26754, Note_off_c, 0, 60, 114
1, 26766, Note_on_c, 0, 58, 116
1, 26867, Note_off_c, 0, 58, 116
1, 27014, Note_on_c, 0, 62, 118
1, 27119, Note_off_c, 0, 62, 118
1, 27124, Note_on_c, 0, 65, 124
1, 27203, Note_off_c, 0, 65, 124
1, 27717, Note_on_c, 0, 68, 104
1, 27821, Note_off_c, 0, 68, 104
1, 27846, Note_on_c, 0, 70, 98
1, 27990, Note_off_c, 0, 70, 98
1, 28036, Note_on_c, 0, 70, 104
1, 28109, Note_off_c, 0, 70, 104
1, 28138, Note_on_c, 0, 70, 106
1, 28171, Note_off_c, 0, 70, 106
1, 28178, Note_on_c, 0, 70, 116
1, 28367, Note_off_c, 0, 70, 116
1, 28389, Note_on_c, 0, 70, 113
1, 28440, Note_off_c, 0, 70, 113
1, 28463, Note_on_c, 0, 70, 106
1, 28502, Note_off_c, 0, 70, 106
1, 28517, Note_on_c, 0, 70, 110
1, 28659, Note_off_c, 0, 70, 110
1, 28687, Note_on_c, 0, 67, 108
1, 28770, Note_off_c, 0, 67, 108
1, 28770, Note_on_c, 0, 68, 107
1, 28855, Note_off_c, 0, 68, 107
1, 28864, Note_on_c, 0, 71, 96
1, 28900, Note_off_c, 0, 71, 96
1, 28909, Note_on_c, 0, 68, 107
1, 28946, Note_off_c, 0, 68, 107
1, 28954, Note_on_c, 0, 65, 111
1, 29025, Note_off_c, 0, 65, 111
1, 29069, Note_on_c, 0, 62, 107
1, 29143, Note_off_c, 0, 62, 107
1, 29165, Note_on_c, 0, 58, 105
1, 29229, Note_off_c, 0, 58, 105
1, 29251, Note_on_c, 0, 55, 101
1, 29306, Note_off_c, 0, 55, 101
1, 29317, Note_on_c, 0, 60, 104
1, 29599, Note_off_c, 0, 60, 104
1, 29638, Note_on_c, 0, 63, 116
1, 29729, Note_off_c, 0, 63, 116
1, 30019, Note_on_c, 0, 60, 109
1, 30072, Note_off_c, 0, 60, 109
1, 30087, Note_on_c, 0, 59, 101
1, 30207, Note_off_c, 0, 59, 101
1, 30209, Note_on_c, 0, 61, 110
1, 30357, Note_off_c, 0, 61, 110
1, 30377, Note_on_c, 0, 64, 110
1, 30453, Note_off_c, 0, 64, 110
1, 30581, Note_on_c, 0, 61, 107
1, 30672, Note_off_c, 0, 61, 107
1, 30677, Note_on_c, 0, 62, 99
1, 30756, Note_off_c, 0, 62, 99
1, 30766, Note_on_c, 0, 63, 103
1, 30837, Note_off_c, 0, 63, 103
1, 30855, Note_on_c, 0, 64, 104
1, 30941, Note_off_c, 0, 64, 104
1, 30953, Note_on_c, 0, 65, 114
1, 31030, Note_off_c, 0, 65, 114
1, 31038, Note_on_c, 0, 62, 106
1, 31126, Note_off_c, 0, 62, 106
1, 31142, Note_on_c, 0, 58, 106
1, 31242, Note_off_c, 0, 58, 106
1, 31426, Note_on_c, 0, 60, 108
1, 31516, Note_off_c, 0, 60, 108
1, 31544, Note_on_c, 0, 59, 97
1, 31627, Note_off_c, 0, 59, 97
1, 31634, Note_on_c, 0, 58, 107
1, 31697, Note_off_c, 0, 58, 107
1, 31705, Note_on_c, 0, 57, 101
1, 31771, Note_off_c, 0, 57, 101
1, 31796, Note_on_c, 0, 55, 103
1, 31886, Note_off_c, 0, 55, 103
1, 31901, Note_on_c, 0, 53, 98
1, 31966, Note_off_c, 0, 53, 98
1, 32064, Note_on_c, 0, 63, 105
1, 32156, Note_off_c, 0, 63, 105
1, 32207, Note_on_c, 0, 60, 94
1, 32265, Note_off_c, 0, 60, 94
1, 32276, Note_on_c, 0, 61, 103
1, 32351, Note_off_c, 0, 61, 103
1, 32359, Note_on_c, 0, 62, 112
1, 32439, Note_off_c, 0, 62, 112
1, 32727, Note_on_c, 0, 58, 112
1, 32833, Note_off_c, 0, 58, 112
1, 32842, Note_on_c, 0, 60, 99
1, 32904, Note_off_c, 0, 60, 99
1, 32918, Note_on_c, 0, 63, 113
1, 32988, Note_off_c, 0, 63, 113
1, 33014, Note_on_c, 0, 66, 120
1, 33110, Note_off_c, 0, 66, 120
1, 33120, Note_on_c, 0, 67, 114
1, 33214, Note_off_c, 0, 67, 114
1, 33230, Note_on_c, 0, 70, 92
1, 33266, Note_off_c, 0, 70, 92
1, 33292, Note_on_c, 0, 72, 123
1, 33392, Note_off_c, 0, 72, 123
1, 33410, Note_on_c, 0, 72, 116
1, 33545, Note_off_c, 0, 72, 116
1, 33556, Note_on_c, 0, 73, 115
1, 33685, Note_off_c, 0, 73, 115
1, 33694, Note_on_c, 0, 72, 115
1, 33769, Note_off_c, 0, 72, 115
1, 33781, Note_on_c, 0, 71, 111
1, 33874, Note_off_c, 0, 71, 111
1, 33882, Note_on_c, 0, 70, 104
1, 33965, Note_off_c, 0, 70, 104
1, 33979, Note_on_c, 0, 67, 103
1, 34055, Note_off_c, 0, 67, 103
1, 34080, Note_on_c, 0, 63, 99
1, 34147, Note_off_c, 0, 63, 99
1, 34247, Note_on_c, 0, 71, 118
1, 34289, Note_off_c, 0, 71, 118
1, 34295, Note_on_c, 0, 72, 119
1, 34353, Note_off_c, 0, 72, 119
1, 34363, Note_on_c, 0, 73, 113
1, 34456, Note_off_c, 0, 73, 113
1, 34461, Note_on_c, 0, 72, 117
1, 34534, Note_off_c, 0, 72, 117
1, 34546, Note_on_c, 0, 71, 114
1, 34629, Note_off_c, 0, 71, 114
1, 34638, Note_on_c, 0, 70, 111
1, 34714, Note_off_c, 0, 70, 111
1, 34738, Note_on_c, 0, 71, 112
1, 34905, Note_off_c, 0, 71, 112
1, 34919, Note_on_c, 0, 73, 108
1, 34990, Note_off_c, 0, 73, 108
1, 35018, Note_on_c, 0, 72, 112
1, 35105, Note_off_c, 0, 72, 112
1, 35112, Note_on_c, 0, 71, 108
1, 35203, Note_off_c, 0, 71, 108
1, 35213, Note_on_c, 0, 70, 109
1, 35295, Note_off_c, 0, 70, 109
1, 35307, Note_on_c, 0, 67, 106
1, 35385, Note_off_c, 0, 67, 106
1, 35408, Note_on_c, 0, 63, 100
1, 35467, Note_off_c, 0, 63, 100
1, 35595, Note_on_c, 0, 71, 120
1, 35711, Note_off_c, 0, 71, 120
1, 35712, Note_on_c, 0, 73, 113
1, 35786, Note_off_c, 0, 73, 113
1, 35792, Note_on_c, 0, 72, 117
1, 35877, Note_off_c, 0, 72, 117
1, 35888, Note_on_c, 0, 71, 109
1, 35961, Note_off_c, 0, 71, 109
1, 35967, Note_on_c, 0, 70, 110
1, 36051, Note_off_c, 0, 70, 110
1, 36081, Note_on_c, 0, 71, 118
1, 36165, Note_off_c, 0, 71, 118
1, 36175, Note_on_c, 0, 72, 114
1, 36239, Note_off_c, 0, 72, 114
1, 36262, Note_on_c, 0, 73, 109
1, 36342, Note_off_c, 0, 73, 109
1, 36358, Note_on_c, 0, 72, 113
1, 36449, Note_off_c, 0, 72, 113
1, 36454, Note_on_c, 0, 70, 109
1, 36551, Note_off_c, 0, 70, 109
1, 36562, Note_on_c, 0, 71, 111
1, 36630, Note_off_c, 0, 71, 111
1, 36637, Note_on_c, 0, 67, 108
1, 36707, Note_off_c, 0, 67, 108
1, 36729, Note_on_c, 0, 64, 98
1, 36790, Note_off_c, 0, 64, 98
1, 36899, Note_on_c, 0, 67, 115
1, 36977, Note_off_c, 0, 67, 115
1, 36999, Note_on_c, 0, 68, 108
1, 37044, Note_off_c, 0, 68, 108
1, 37054, Note_on_c, 0, 67, 107
1, 37109, Note_off_c, 0, 67, 107
1, 37112, Note_on_c, 0, 65, 105
1, 37190, Note_off_c, 0, 65, 105
1, 37276, Note_on_c, 0, 64, 115
1, 37352, Note_off_c, 0, 64, 115
1, 37501, Note_on_c, 0, 58, 98
1, 37570, Note_off_c, 0, 58, 98
1, 37580, Note_on_c, 0, 62, 116
1, 37648, Note_off_c, 0, 62, 116
1, 37676, Note_on_c, 0, 57, 99
1, 37744, Note_off_c, 0, 57, 99
1, 37752, Note_on_c, 0, 55, 106
1, 37825, Note_off_c, 0, 55, 106
1, 37834, Note_on_c, 0, 60, 115
1, 37939, Note_off_c, 0, 60, 115
1, 37953, Note_on_c, 0, 59, 107
1, 38028, Note_off_c, 0, 59, 107
1, 38042, Note_on_c, 0, 58, 116
1, 38113, Note_off_c, 0, 58, 116
1, 38530, Note_on_c, 0, 66, 118
1, 38617, Note_off_c, 0, 66, 118
1, 38622, Note_on_c, 0, 67, 111
1, 38702, Note_off_c, 0, 67, 111
1, 38727, Note_on_c, 0, 63, 96
1, 38805, Note_off_c, 0, 63, 96
1, 38815, Note_on_c, 0, 60, 97
1, 38901, Note_off_c, 0, 60, 97
1, 38906, Note_on_c, 0, 58, 108
1, 39009, Note_off_c, 0, 58, 108
1, 39028, Note_on_c, 0, 55, 100
1, 39104, Note_off_c, 0, 55, 100
1, 39108, Note_on_c, 0, 56, 102
1, 39187, Note_off_c, 0, 56, 102
1, 39199, Note_on_c, 0, 57, 98
1, 39262, Note_off_c, 0, 57, 98
1, 39385, Note_on_c, 0, 63, 108
1, 39464, Note_off_c, 0, 63, 108
1, 39475, Note_on_c, 0, 65, 117
1, 39572, Note_off_c, 0, 65, 117
1, 39581, Note_on_c, 0, 66, 110
1, 39664, Note_off_c, 0, 66, 110
1, 39668, Note_on_c, 0, 63, 109
1, 39735, Note_off_c, 0, 63, 109
1, 39748, Note_on_c, 0, 60, 97
1, 39813, Note_off_c, 0, 60, 97
1, 39875, Note_on_c, 0, 57, 92
1, 39937, Note_off_c, 0, 57, 92
1, 39940, Note_on_c, 0, 60, 108
1, 40041, Note_off_c, 0, 60, 108
1, 40053, Note_on_c, 0, 58, 104
1, 40160, Note_off_c, 0, 58, 104
1, 40310, Note_on_c, 0, 62, 108
1, 40399, Note_off_c, 0, 62, 108
1, 40496, Note_on_c, 0, 67, 111
1, 40574, Note_off_c, 0, 67, 111
1, 40599, Note_on_c, 0, 67, 105
1, 40629, Note_off_c, 0, 67, 105
1, 40637, Note_on_c, 0, 68, 111
1, 40725, Note_off_c, 0, 68, 111
1, 40799, Note_on_c, 0, 67, 109
1, 40889, Note_off_c, 0, 67, 109
1, 40969, Note_on_c, 0, 66, 109
1, 41042, Note_off_c, 0, 66, 109
1, 41063, Note_on_c, 0, 65, 111
1, 41143, Note_off_c, 0, 65, 111
1, 41181, Note_on_c, 0, 73, 113
1, 41246, Note_off_c, 0, 73, 113
1, 41249, Note_on_c, 0, 74, 101
1, 41333, Note_off_c, 0, 74, 101
1, 41359, Note_on_c, 0, 72, 118
1, 41457, Note_off_c, 0, 72, 118
1, 41942, Note_on_c, 0, 72, 122
1, 42031, Note_off_c, 0, 72, 122
1, 42034, Note_on_c, 0, 74, 109
1, 42073, Note_off_c, 0, 74, 109
1, 42084, Note_on_c, 0, 72, 104
1, 42125, Note_off_c, 0, 72, 104
1, 42136, Note_on_c, 0, 71, 104
1, 42200, Note_off_c, 0, 71, 104
1, 42223, Note_on_c, 0, 70, 107
1, 42307, Note_off_c, 0, 70, 107
1, 42329, Note_on_c, 0, 67, 104
1, 42389, Note_off_c, 0, 67, 104
1, 42414, Note_on_c, 0, 63, 99
1, 42484, Note_off_c, 0, 63, 99
1, 42500, Note_on_c, 0, 60, 105
1, 42602, Note_off_c, 0, 60, 105
1, 42615, Note_on_c, 0, 61, 103
1, 42681, Note_off_c, 0, 61, 103
1, 42787, Note_on_c, 0, 69, 118
1, 42876, Note_off_c, 0, 69, 118
1, 42885, Note_on_c, 0, 67, 110
1, 42968, Note_off_c, 0, 67, 110
1, 42977, Note_on_c, 0, 65, 107
1, 43059, Note_off_c, 0, 65, 107
1, 43070, Note_on_c, 0, 62, 106
1, 43129, Note_off_c, 0, 62, 106
1, 43215, Note_on_c, 0, 58, 103
1, 43265, Note_off_c, 0, 58, 103
1, 43269, Note_on_c, 0, 55, 98
1, 43333, Note_off_c, 0, 55, 98
1, 43341, Note_on_c, 0, 60, 108
1, 43433, Note_off_c, 0, 60, 108
1, 43441, Note_on_c, 0, 59, 95
1, 43526, Note_off_c, 0, 59, 95
1, 43534, Note_on_c, 0, 58, 104
1, 43622, Note_off_c, 0, 58, 104
1, 43630, Note_on_c, 0, 57, 96
1, 43692, Note_off_c, 0, 57, 96
1, 43711, Note_on_c, 0, 55, 103
1, 43786, Note_off_c, 0, 55, 103
1, 43818, Note_on_c, 0, 53, 103
1, 43864, Note_off_c, 0, 53, 103
1, 43875, Note_on_c, 0, 54, 93
1, 43952, Note_off_c, 0, 54, 93
1, 43993, Note_on_c, 0, 56, 102
1, 44071, Note_off_c, 0, 56, 102
1, 44087, Note_on_c, 0, 57, 96
1, 44169, Note_off_c, 0, 57, 96
1, 44199, Note_on_c, 0, 59, 92
1, 44254, Note_off_c, 0, 59, 92
1, 44267, Note_on_c, 0, 60, 104
1, 44355, Note_off_c, 0, 60, 104
1, 44364, Note_on_c, 0, 62, 106
1, 44455, Note_off_c, 0, 62, 106
1, 44465, Note_on_c, 0, 63, 100
1, 44529, Note_off_c, 0, 63, 100
1, 44566, Note_on_c, 0, 65, 109
1, 44673, Note_off_c, 0, 65, 109
1, 44681, Note_on_c, 0, 66, 96
1, 44744, Note_off_c, 0, 66, 96
1, 44769, Note_on_c, 0, 67, 98
1, 44811, Note_off_c, 0, 67, 98
1, 44837, Note_on_c, 0, 67, 106
1, 44865, Note_off_c, 0, 67, 106
1, 44869, Note_on_c, 0, 68, 109
1, 44934, Note_off_c, 0, 68, 109
1, 44952, Note_on_c, 0, 68, 108
1, 44975, Note_off_c, 0, 68, 108
1, 44975, Note_on_c, 0, 69, 114
1, 45042, Note_off_c, 0, 69, 114
1, 45053, Note_on_c, 0, 70, 14
1, 45140, Note_off_c, 0, 70, 14
1, 45150, Note_on_c, 0, 71, 92
1, 45206, Note_off_c, 0, 71, 92
1, 45215, Note_on_c, 0, 72, 95
1, 45249, Note_off_c, 0, 72, 95
1, 45252, Note_on_c, 0, 74, 104
1, 45303, Note_off_c, 0, 74, 104
1, 45308, Note_on_c, 0, 72, 103
1, 45344, Note_off_c, 0, 72, 103
1, 45349, Note_on_c, 0, 71, 106
1, 45419, Note_off_c, 0, 71, 106
1, 45435, Note_on_c, 0, 70, 102
1, 45500, Note_off_c, 0, 70, 102
1, 45514, Note_on_c, 0, 67, 100
1, 45598, Note_off_c, 0, 67, 100
1, 45620, Note_on_c, 0, 63, 93
1, 45673, Note_off_c, 0, 63, 93
1, 45770, Note_on_c, 0, 65, 114
1, 45889, Note_off_c, 0, 65, 114
1, 45896, Note_on_c, 0, 64, 103
1, 45954, Note_off_c, 0, 64, 103
1, 45966, Note_on_c, 0, 63, 99
1, 46041, Note_off_c, 0, 63, 99
1, 46068, Note_on_c, 0, 65, 109
1, 46182, Note_off_c, 0, 65, 109
1, 46291, Note_on_c, 0, 70, 86
1, 46330, Note_off_c, 0, 70, 86
1, 46345, Note_on_c, 0, 74, 123
1, 46420, Note_off_c, 0, 74, 123
1, 46431, Note_on_c, 0, 75, 117
1, 46515, Note_off_c, 0, 75, 117
1, 46550, Note_on_c, 0, 72, 106
1, 46623, Note_off_c, 0, 72, 106
1, 46637, Note_on_c, 0, 71, 109
1, 46716, Note_off_c, 0, 71, 109
1, 46733, Note_on_c, 0, 70, 105
1, 46819, Note_off_c, 0, 70, 105
1, 46827, Note_on_c, 0, 66, 105
1, 46902, Note_off_c, 0, 66, 105
1, 46918, Note_on_c, 0, 63, 95
1, 46993, Note_off_c, 0, 63, 95
1, 47113, Note_on_c, 0, 68, 110
1, 47202, Note_off_c, 0, 68, 110
1, 47208, Note_on_c, 0, 67, 107
1, 47284, Note_off_c, 0, 67, 107
1, 47294, Note_on_c, 0, 66, 103
1, 47352, Note_off_c, 0, 66, 103
1, 47410, Note_on_c, 0, 57, 93
1, 47464, Note_off_c, 0, 57, 93
1, 47475, Note_on_c, 0, 58, 96
1, 47580, Note_off_c, 0, 58, 96
1, 47591, Note_on_c, 0, 63, 101
1, 47669, Note_off_c, 0, 63, 101
1, 47797, Note_on_c, 0, 61, 101
1, 47856, Note_off_c, 0, 61, 101
1, 47870, Note_on_c, 0, 62, 111
1, 47945, Note_off_c, 0, 62, 111
1, 47960, Note_on_c, 0, 61, 107
1, 48053, Note_off_c, 0, 61, 107
1, 48062, Note_on_c, 0, 60, 104
1, 48137, Note_off_c, 0, 60, 104
1, 48156, Note_on_c, 0, 59, 102
1, 48212, Note_off_c, 0, 59, 102
1, 48222, Note_on_c, 0, 58, 99
1, 48286, Note_off_c, 0, 58, 99
1, 48347, Note_on_c, 0, 68, 113
1, 48429, Note_off_c, 0, 68, 113
1, 48468, Note_on_c, 0, 62, 105
1, 48541, Note_off_c, 0, 62, 105
1, 48625, Note_on_c, 0, 67, 117
1, 48713, Note_off_c, 0, 67, 117
1, 48990, Note_on_c, 0, 67, 113
1, 49114, Note_off_c, 0, 67, 113
1, 49141, Note_on_c, 0, 70, 92
1, 49176, Note_off_c, 0, 70, 92
1, 49180, Note_on_c, 0, 72, 116
1, 49280, Note_off_c, 0, 72, 116
1, 49312, Note_on_c, 0, 72, 113
1, 49559, Note_off_c, 0, 72, 113
1, 49585, Note_on_c, 0, 73, 109
1, 50137, Note_off_c, 0, 73, 109
1, 50170, Note_on_c, 0, 73, 113
1, 50331, Note_off_c, 0, 73, 113
1, 50346, Note_on_c, 0, 72, 110
1, 50425, Note_off_c, 0, 72, 110
1, 50442, Note_on_c, 0, 73, 107
1, 50485, Note_off_c, 0, 73, 107
1, 50490, Note_on_c, 0, 72, 108
1, 50539, Note_off_c, 0, 72, 108
1, 50554, Note_on_c, 0, 70, 107
1, 50626, Note_off_c, 0, 70, 107
1, 50635, Note_on_c, 0, 67, 105
1, 50711, Note_off_c, 0, 67, 105
1, 50895, Note_on_c, 0, 67, 111
1, 51031, Note_off_c, 0, 67, 111
1, 51089, Note_on_c, 0, 65, 104
1, 51153, Note_off_c, 0, 65, 104
1, 51779, Note_on_c, 0, 65, 116
1, 51865, Note_off_c, 0, 65, 116
1, 51878, Note_on_c, 0, 67, 96
1, 51954, Note_off_c, 0, 67, 96
1, 51973, Note_on_c, 0, 69, 92
1, 52031, Note_off_c, 0, 69, 92
1, 52052, Note_on_c, 0, 70, 107
1, 52140, Note_off_c, 0, 70, 107
1, 52159, Note_on_c, 0, 62, 98
1, 52237, Note_off_c, 0, 62, 98
1, 52247, Note_on_c, 0, 63, 94
1, 52321, Note_off_c, 0, 63, 94
1, 52337, Note_on_c, 0, 64, 102
1, 52417, Note_off_c, 0, 64, 102
1, 52432, Note_on_c, 0, 65, 106
1, 52507, Note_off_c, 0, 65, 106
1, 52583, Note_on_c, 0, 58, 108
1, 52664, Note_off_c, 0, 58, 108
1, 52669, Note_on_c, 0, 60, 100
1, 52721, Note_off_c, 0, 60, 100
1, 52728, Note_on_c, 0, 61, 103
1, 52820, Note_off_c, 0, 61, 103
1, 52832, Note_on_c, 0, 62, 110
1, 52912, Note_off_c, 0, 62, 110
1, 52922, Note_on_c, 0, 61, 110
1, 53005, Note_off_c, 0, 61, 110
1, 53018, Note_on_c, 0, 60, 105
1, 53094, Note_off_c, 0, 60, 105
1, 53107, Note_on_c, 0, 58, 105
1, 53204, Note_off_c, 0, 58, 105
1, 53216, Note_on_c, 0, 59, 100
1, 53283, Note_off_c, 0, 59, 100
1, 53292, Note_on_c, 0, 68, 116
1, 53373, Note_off_c, 0, 68, 116
1, 53498, Note_on_c, 0, 66, 95
1, 53565, Note_off_c, 0, 66, 95
1, 53575, Note_on_c, 0, 67, 112
1, 53647, Note_off_c, 0, 67, 112
1, 53680, Note_on_c, 0, 63, 106
1, 53746, Note_off_c, 0, 63, 106
1, 53769, Note_on_c, 0, 60, 88
1, 53836, Note_off_c, 0, 60, 88
1, 53879, Note_on_c, 0, 58, 103
1, 53943, Note_off_c, 0, 58, 103
1, 53949, Note_on_c, 0, 62, 112
1, 54029, Note_off_c, 0, 62, 112
1, 54041, Note_on_c, 0, 59, 93
1, 54120, Note_off_c, 0, 59, 93
1, 54130, Note_on_c, 0, 60, 107
1, 54227, Note_off_c, 0, 60, 107
1, 54248, Note_on_c, 0, 61, 111
1, 54330, Note_off_c, 0, 61, 111
1, 54436, Note_on_c, 0, 64, 101
1, 54500, Note_off_c, 0, 64, 101
1, 54619, Note_on_c, 0, 67, 111
1, 54686, Note_off_c, 0, 67, 111
1, 54801, Note_on_c, 0, 71, 112
1, 54842, Note_off_c, 0, 71, 112
1, 54847, Note_on_c, 0, 72, 113
1, 54887, Note_off_c, 0, 72, 113
1, 54891, Note_on_c, 0, 73, 109
1, 54942, Note_off_c, 0, 73, 109
1, 54949, Note_on_c, 0, 72, 103
1, 54997, Note_off_c, 0, 72, 103
1, 55004, Note_on_c, 0, 71, 102
1, 55054, Note_off_c, 0, 71, 102
1, 55092, Note_on_c, 0, 70, 110
1, 55167, Note_off_c, 0, 70, 110
1, 55180, Note_on_c, 0, 69, 110
1, 55263, Note_off_c, 0, 69, 110
1, 55294, Note_on_c, 0, 67, 104
1, 55355, Note_off_c, 0, 67, 104
1, 55366, Note_on_c, 0, 66, 102
1, 55459, Note_off_c, 0, 66, 102
1, 55468, Note_on_c, 0, 65, 99
1, 55553, Note_off_c, 0, 65, 99
1, 55563, Note_on_c, 0, 62, 100
1, 55655, Note_off_c, 0, 62, 100
1, 55674, Note_on_c, 0, 58, 104
1, 55753, Note_off_c, 0, 58, 104
1, 55758, Note_on_c, 0, 57, 94
1, 55832, Note_off_c, 0, 57, 94
1, 55848, Note_on_c, 0, 55, 100
1, 55924, Note_off_c, 0, 55, 100
1, 55940, Note_on_c, 0, 53, 91
1, 56015, Note_off_c, 0, 53, 91
1, 56024, Note_on_c, 0, 54, 91
1, 56080, Note_off_c, 0, 54, 91
1, 56201, Note_on_c, 0, 60, 102
1, 56308, Note_off_c, 0, 60, 102
1, 56320, Note_on_c, 0, 63, 102
1, 56385, Note_off_c, 0, 63, 102
1, 56435, Note_on_c, 0, 60, 91
1, 56497, Note_off_c, 0, 60, 91
1, 56512, Note_on_c, 0, 61, 97
1, 56580, Note_off_c, 0, 61, 97
1, 56585, Note_on_c, 0, 62, 110
1, 56679, Note_off_c, 0, 62, 110
1, 56691, Note_on_c, 0, 63, 104
1, 56765, Note_off_c, 0, 63, 104
1, 57079, Note_on_c, 0, 62, 96
1, 57144, Note_off_c, 0, 62, 96
1, 57156, Note_on_c, 0, 63, 96
1, 57210, Note_off_c, 0, 63, 96
1, 57268, Note_on_c, 0, 67, 100
1, 57303, Note_off_c, 0, 67, 100
1, 57307, Note_on_c, 0, 70, 94
1, 57341, Note_off_c, 0, 70, 94
1, 57382, Note_on_c, 0, 73, 119
1, 57453, Note_off_c, 0, 73, 119
1, 57458, Note_on_c, 0, 74, 121
1, 57530, Note_off_c, 0, 74, 121
1, 57537, Note_on_c, 0, 75, 115
1, 57632, Note_off_c, 0, 75, 115
1, 57678, Note_on_c, 0, 72, 113
1, 57806, Note_off_c, 0, 72, 113
1, 58054, Note_on_c, 0, 70, 102
1, 58139, Note_off_c, 0, 70, 102
1, 58161, Note_on_c, 0, 72, 101
1, 58289, Note_off_c, 0, 72, 101
1, 58289, Note_on_c, 0, 74, 112
1, 58407, Note_off_c, 0, 74, 112
1, 58420, Note_on_c, 0, 70, 109
1, 58533, Note_off_c, 0, 70, 109
1, 58583, Note_on_c, 0, 69, 109
1, 58631, Note_off_c, 0, 69, 109
1, 58640, Note_on_c, 0, 70, 107
1, 59058, Note_off_c, 0, 70, 107
1, 59071, Note_on_c, 0, 72, 108
1, 59157, Note_off_c, 0, 72, 108
1, 59172, Note_on_c, 0, 68, 111
1, 59284, Note_off_c, 0, 68, 111
1, 59384, Note_on_c, 0, 68, 110
1, 59539, Note_off_c, 0, 68, 110
1, 59565, Note_on_c, 0, 70, 104
1, 59625, Note_off_c, 0, 70, 104
1, 59637, Note_on_c, 0, 66, 107
1, 59708, Note_off_c, 0, 66, 107
1, 59720, Note_on_c, 0, 68, 106
1, 59796, Note_off_c, 0, 68, 106
1, 59833, Note_on_c, 0, 65, 108
1, 59916, Note_off_c, 0, 65, 108
1, 59928, Note_on_c, 0, 66, 101
1, 59980, Note_off_c, 0, 66, 101
1, 60028, Note_on_c, 0, 63, 99
1, 60106, Note_off_c, 0, 63, 99
1, 60127, Note_on_c, 0, 65, 98
1, 60181, Note_off_c, 0, 65, 98
1, 60206, Note_on_c, 0, 62, 104
1, 60278, Note_off_c, 0, 62, 104
1, 60285, Note_on_c, 0, 63, 100
1, 60347, Note_off_c, 0, 63, 100
1, 60562, Note_on_c, 0, 59, 97
1, 60667, Note_off_c, 0, 59, 97
1, 60685, Note_on_c, 0, 61, 105
1, 60754, Note_off_c, 0, 61, 105
1, 60762, Note_on_c, 0, 62, 96
1, 60841, Note_off_c, 0, 62, 96
1, 60856, Note_on_c, 0, 60, 100
1, 60913, Note_off_c, 0, 60, 100
1, 60928, Note_on_c, 0, 59, 97
1, 61005, Note_off_c, 0, 59, 97
1, 61038, Note_on_c, 0, 56, 101
1, 61122, Note_off_c, 0, 56, 101
1, 61236, Note_on_c, 0, 53, 102
1, 61317, Note_off_c, 0, 53, 102
1, 61321, Note_on_c, 0, 52, 115
1, 61379, Note_off_c, 0, 52, 115
1, 61525, Note_on_c, 0, 58, 105
1, 61605, Note_off_c, 0, 58, 105
1, 61623, Note_on_c, 0, 62, 105
1, 61698, Note_off_c, 0, 62, 105
1, 61747, Note_on_c, 0, 57, 90
1, 61813, Note_off_c, 0, 57, 90
1, 61821, Note_on_c, 0, 58, 98
1, 61877, Note_off_c, 0, 58, 98
1, 61895, Note_on_c, 0, 60, 108
1, 61975, Note_off_c, 0, 60, 108
1, 61992, Note_on_c, 0, 58, 110
1, 62079, Note_off_c, 0, 58, 110
1, 62202, Note_on_c, 0, 58, 97
1, 62260, Note_off_c, 0, 58, 97
1, 62273, Note_on_c, 0, 62, 105
1, 62357, Note_off_c, 0, 62, 105
1, 62476, Note_on_c, 0, 69, 120
1, 62555, Note_off_c, 0, 69, 120
1, 62564, Note_on_c, 0, 68, 112
1, 62664, Note_off_c, 0, 68, 112
1, 62669, Note_on_c, 0, 67, 108
1, 62752, Note_off_c, 0, 67, 108
1, 62779, Note_on_c, 0, 63, 102
1, 62821, Note_off_c, 0, 63, 102
1, 62828, Note_on_c, 0, 60, 96
1, 62930, Note_off_c, 0, 60, 96
1, 62973, Note_on_c, 0, 57, 96
1, 63031, Note_off_c, 0, 57, 96
1, 63066, Note_on_c, 0, 59, 96
1, 63151, Note_off_c, 0, 59, 96
1, 63164, Note_on_c, 0, 57, 92
1, 63226, Note_off_c, 0, 57, 92
1, 63257, Note_on_c, 0, 58, 108
1, 63382, Note_off_c, 0, 58, 108
1, 63413, Note_on_c, 0, 57, 103
1, 63495, Note_off_c, 0, 57, 103
1, 63517, Note_on_c, 0, 65, 116
1, 63624, Note_off_c, 0, 65, 116
1, 63981, Note_on_c, 0, 65, 113
1, 64087, Note_off_c, 0, 65, 113
1, 64100, Note_on_c, 0, 66, 103
1, 64159, Note_off_c, 0, 66, 103
1, 64176, Note_on_c, 0, 67, 100
1, 64315, Note_off_c, 0, 67, 100
1, 64366, Note_on_c, 0, 67, 105
1, 64454, Note_off_c, 0, 67, 105
1, 64464, Note_on_c, 0, 68, 108
1, 64548, Note_off_c, 0, 68, 108
1, 64551, Note_on_c, 0, 69, 110
1, 64645, Note_off_c, 0, 69, 110
1, 64763, Note_on_c, 0, 69, 113
1, 64845, Note_off_c, 0, 69, 113
1, 64856, Note_on_c, 0, 68, 109
1, 64953, Note_off_c, 0, 68, 109
1, 64964, Note_on_c, 0, 67, 105
1, 65031, Note_off_c, 0, 67, 105
1, 65134, Note_on_c, 0, 67, 105
1, 65229, Note_off_c, 0, 67, 105
1, 65241, Note_on_c, 0, 68, 106
1, 65332, Note_off_c, 0, 68, 106
1, 65339, Note_on_c, 0, 69, 108
1, 65423, Note_off_c, 0, 69, 108
1, 65441, Note_on_c, 0, 68, 106
1, 65510, Note_off_c, 0, 68, 106
1, 65516, Note_on_c, 0, 67, 103
1, 65579, Note_off_c, 0, 67, 103
1, 65704, Note_on_c, 0, 66, 104
1, 65753, Note_off_c, 0, 66, 104
1, 65758, Note_on_c, 0, 67, 104
1, 65802, Note_off_c, 0, 67, 104
1, 65910, Note_on_c, 0, 67, 108
1, 66003, Note_off_c, 0, 67, 108
1, 66012, Note_on_c, 0, 68, 108
1, 66092, Note_off_c, 0, 68, 108
1, 66106, Note_on_c, 0, 69, 110
1, 66190, Note_off_c, 0, 69, 110
1, 66296, Note_on_c, 0, 68, 111
1, 66370, Note_off_c, 0, 68, 111
1, 66375, Note_on_c, 0, 69, 111
1, 66792, Note_off_c, 0, 69, 111
1, 66817, Note_on_c, 0, 68, 102
1, 66884, Note_off_c, 0, 68, 102
1, 66892, Note_on_c, 0, 67, 103
1, 66945, Note_off_c, 0, 67, 103
1, 66999, Note_on_c, 0, 64, 105
1, 67047, Note_off_c, 0, 64, 105
1, 67053, Note_on_c, 0, 61, 97
1, 67138, Note_off_c, 0, 61, 97
1, 67175, Note_on_c, 0, 57, 88
1, 67220, Note_off_c, 0, 57, 88
1, 67239, Note_on_c, 0, 60, 108
1, 67329, Note_off_c, 0, 60, 108
1, 67348, Note_on_c, 0, 58, 103
1, 67432, Note_off_c, 0, 58, 103
1, 67438, Note_on_c, 0, 57, 99
1, 67519, Note_off_c, 0, 57, 99
1, 67536, Note_on_c, 0, 58, 95
1, 67611, Note_off_c, 0, 58, 95
1, 67619, Note_on_c, 0, 62, 107
1, 67703, Note_off_c, 0, 62, 107
1, 67830, Note_on_c, 0, 70, 112
1, 67909, Note_off_c, 0, 70, 112
1, 67915, Note_on_c, 0, 69, 112
1, 67988, Note_off_c, 0, 69, 112
1, 67997, Note_on_c, 0, 68, 109
1, 68092, Note_off_c, 0, 68, 109
1, 68103, Note_on_c, 0, 67, 106
1, 68179, Note_off_c, 0, 67, 106
1, 68187, Note_on_c, 0, 66, 103
1, 68278, Note_off_c, 0, 66, 103
1, 68281, Note_on_c, 0, 62, 104
1, 68370, Note_off_c, 0, 62, 104
1, 68394, Note_on_c, 0, 60, 100
1, 68477, Note_off_c, 0, 60, 100
1, 68491, Note_on_c, 0, 59, 97
1, 68568, Note_off_c, 0, 59, 97
1, 68582, Note_on_c, 0, 58, 108
1, 68673, Note_off_c, 0, 58, 108
1, 68685, Note_on_c, 0, 56, 105
1, 68760, Note_off_c, 0, 56, 105
1, 68767, Note_on_c, 0, 55, 112
1, 68863, Note_off_c, 0, 55, 112
1, 68885, Note_on_c, 0, 58, 96
1, 68950, Note_off_c, 0, 58, 96
1, 68961, Note_on_c, 0, 62, 109
1, 69043, Note_off_c, 0, 62, 109
1, 69057, Note_on_c, 0, 65, 113
1, 69154, Note_off_c, 0, 65, 113
1, 70034, Note_on_c, 0, 66, 109
1, 70103, Note_off_c, 0, 66, 109
1, 70126, Note_on_c, 0, 67, 89
1, 70189, Note_off_c, 0, 67, 89
1, 70203, Note_on_c, 0, 74, 108
1, 70269, Note_off_c, 0, 74, 108
1, 70290, Note_on_c, 0, 77, 127
1, 70379, Note_off_c, 0, 77, 127
1, 70391, Note_on_c, 0, 76, 120
1, 70477, Note_off_c, 0, 76, 120
1, 70484, Note_on_c, 0, 75, 123
1, 70530, Note_off_c, 0, 75, 123
1, 70587, Note_on_c, 0, 65, 112
1, 70653, Note_off_c, 0, 65, 112
1, 70662, Note_on_c, 0, 64, 101
1, 70726, Note_off_c, 0, 64, 101
1, 70735, Note_on_c, 0, 65, 93
1, 70789, Note_off_c, 0, 65, 93
1, 70855, Note_on_c, 0, 74, 113
1, 70933, Note_off_c, 0, 74, 113
1, 70949, Note_on_c, 0, 73, 113
1, 71039, Note_off_c, 0, 73, 113
1, 71056, Note_on_c, 0, 72, 111
1, 71132, Note_off_c, 0, 72, 111
1, 71145, Note_on_c, 0, 71, 113
1, 71236, Note_off_c, 0, 71, 113
1, 71244, Note_on_c, 0, 70, 107
1, 71331, Note_off_c, 0, 70, 107
1, 71339, Note_on_c, 0, 66, 99
1, 71417, Note_off_c, 0, 66, 99
1, 71423, Note_on_c, 0, 63, 104
1, 71511, Note_off_c, 0, 63, 104
1, 71614, Note_on_c, 0, 68, 110
1, 71704, Note_off_c, 0, 68, 110
1, 71719, Note_on_c, 0, 67, 106
1, 71779, Note_off_c, 0, 67, 106
1, 71788, Note_on_c, 0, 66, 102
1, 71846, Note_off_c, 0, 66, 102
1, 71853, Note_on_c, 0, 65, 97
1, 71889, Note_off_c, 0, 65, 97
1, 72305, Note_on_c, 0, 61, 102
1, 72361, Note_off_c, 0, 61, 102
1, 72378, Note_on_c, 0, 62, 101
1, 72480, Note_off_c, 0, 62, 101
1, 72493, Note_on_c, 0, 66, 91
1, 72557, Note_off_c, 0, 66, 91
1, 72569, Note_on_c, 0, 66, 106
1, 72601, Note_off_c, 0, 66, 106
1, 72611, Note_on_c, 0, 67, 104
1, 72708, Note_off_c, 0, 67, 104
1, 72712, Note_on_c, 0, 66, 105
1, 72749, Note_off_c, 0, 66, 105
1, 72756, Note_on_c, 0, 62, 105
1, 72843, Note_off_c, 0, 62, 105
1, 72854, Note_on_c, 0, 67, 110
1, 73027, Note_off_c, 0, 67, 110
1, 73037, Note_on_c, 0, 68, 105
1, 73085, Note_off_c, 0, 68, 105
1, 73091, Note_on_c, 0, 67, 106
1, 73128, Note_off_c, 0, 67, 106
1, 73130, Note_on_c, 0, 65, 109
1, 73203, Note_off_c, 0, 65, 109
1, 73313, Note_on_c, 0, 64, 104
1, 73407, Note_off_c, 0, 64, 104
1, 73525, Note_on_c, 0, 58, 102
1, 73622, Note_off_c, 0, 58, 102
1, 73627, Note_on_c, 0, 62, 104
1, 73697, Note_off_c, 0, 62, 104
1, 74115, Note_on_c, 0, 60, 105
1, 74190, Note_off_c, 0, 60, 105
1, 74196, Note_on_c, 0, 62, 105
1, 74268, Note_off_c, 0, 62, 105
1, 74282, Note_on_c, 0, 63, 96
1, 74364, Note_off_c, 0, 63, 96
1, 74388, Note_on_c, 0, 64, 99
1, 74448, Note_off_c, 0, 64, 99
1, 74467, Note_on_c, 0, 65, 106
1, 74542, Note_off_c, 0, 65, 106
1, 74567, Note_on_c, 0, 61, 103
1, 74657, Note_off_c, 0, 61, 103
1, 74668, Note_on_c, 0, 62, 96
1, 74739, Note_off_c, 0, 62, 96
1, 74755, Note_on_c, 0, 65, 109
1, 74831, Note_off_c, 0, 65, 109
1, 74852, Note_on_c, 0, 61, 105
1, 74903, Note_on_c, 0, 60, 100
1, 74903, Note_off_c, 0, 61, 105
1, 74947, Note_off_c, 0, 60, 100
1, 74964, Note_on_c, 0, 58, 106
1, 75033, Note_off_c, 0, 58, 106
1, 75039, Note_on_c, 0, 55, 103
1, 75130, Note_off_c, 0, 55, 103
1, 75232, Note_on_c, 0, 60, 109
1, 75320, Note_off_c, 0, 60, 109
1, 75343, Note_on_c, 0, 59, 97
1, 75413, Note_off_c, 0, 59, 97
1, 75425, Note_on_c, 0, 58, 108
1, 75505, Note_off_c, 0, 58, 108
1, 75523, Note_on_c, 0, 56, 107
1, 75601, Note_off_c, 0, 56, 107
1, 75609, Note_on_c, 0, 57, 95
1, 75691, Note_off_c, 0, 57, 95
1, 75731, Note_on_c, 0, 60, 98
1, 75776, Note_off_c, 0, 60, 98
1, 75801, Note_on_c, 0, 63, 114
1, 75886, Note_off_c, 0, 63, 114
1, 75893, Note_on_c, 0, 66, 116
1, 75985, Note_off_c, 0, 66, 116
1, 75996, Note_on_c, 0, 67, 115
1, 76084, Note_off_c, 0, 67, 115
1, 76097, Note_on_c, 0, 63, 109
1, 76170, Note_off_c, 0, 63, 109
1, 76182, Note_on_c, 0, 60, 94
1, 76258, Note_off_c, 0, 60, 94
1, 76300, Note_on_c, 0, 58, 101
1, 76364, Note_off_c, 0, 58, 101
1, 76376, Note_on_c, 0, 60, 113
1, 76486, Note_off_c, 0, 60, 113
1, 76670, Note_on_c, 0, 58, 112
1, 76761, Note_off_c, 0, 58, 112
1, 76770, Note_on_c, 0, 60, 112
1, 76861, Note_off_c, 0, 60, 112
1, 77066, Note_on_c, 0, 58, 112
1, 77136, Note_off_c, 0, 58, 112
1, 77149, Note_on_c, 0, 60, 117
1, 77193, Note_off_c, 0, 60, 117
1, 77196, Note_on_c, 0, 61, 109
1, 77235, Note_off_c, 0, 61, 109
1, 77236, Note_on_c, 0, 60, 105
1, 77270, Note_off_c, 0, 60, 105
1, 77278, Note_on_c, 0, 58, 103
1, 77329, Note_off_c, 0, 58, 103
1, 77332, Note_on_c, 0, 60, 105
1, 77408, Note_off_c, 0, 60, 105
1, 77434, Note_on_c, 0, 61, 112
1, 77554, Note_off_c, 0, 61, 112
1, 77650, Note_on_c, 0, 60, 112
1, 77728, Note_off_c, 0, 60, 112
1, 77737, Note_on_c, 0, 61, 102
1, 77808, Note_off_c, 0, 61, 102
1, 77823, Note_on_c, 0, 58, 107
1, 77882, Note_off_c, 0, 58, 107
1, 77912, Note_on_c, 0, 60, 112
1, 78009, Note_off_c, 0, 60, 112
1, 78217, Note_on_c, 0, 58, 105
1, 78304, Note_off_c, 0, 58, 105
1, 78309, Note_on_c, 0, 60, 110
1, 78398, Note_off_c, 0, 60, 110
1, 78595, Note_on_c, 0, 58, 106
1, 78659, Note_off_c, 0, 58, 106
1, 78663, Note_on_c, 0, 60, 110
1, 78702, Note_off_c, 0, 60, 110
1, 78707, Note_on_c, 0, 61, 108
1, 78742, Note_off_c, 0, 61, 108
1, 78748, Note_on_c, 0, 60, 106
1, 78782, Note_off_c, 0, 60, 106
1, 78792, Note_on_c, 0, 58, 107
1, 78848, Note_off_c, 0, 58, 107
1, 78869, Note_on_c, 0, 58, 111
1, 78903, Note_off_c, 0, 58, 111
1, 78905, Note_on_c, 0, 60, 112
1, 78969, Note_off_c, 0, 60, 112
1, 78983, Note_on_c, 0, 61, 119
1, 79078, Note_off_c, 0, 61, 119
1, 79154, Note_on_c, 0, 58, 111
1, 79256, Note_off_c, 0, 58, 111
1, 79270, Note_on_c, 0, 60, 103
1, 79301, Note_off_c, 0, 60, 103
1, 79309, Note_on_c, 0, 58, 102
1, 79367, Note_off_c, 0, 58, 102
1, 79383, Note_on_c, 0, 55, 96
1, 79416, Note_off_c, 0, 55, 96
1, 79449, Note_on_c, 0, 60, 111
1, 79529, Note_off_c, 0, 60, 111
1, 79545, Note_on_c, 0, 58, 110
1, 79668, Note_off_c, 0, 58, 110
1, 79845, Note_on_c, 0, 62, 111
1, 79927, Note_off_c, 0, 62, 111
1, 80035, Note_on_c, 0, 70, 117
1, 80124, Note_off_c, 0, 70, 117
1, 80135, Note_on_c, 0, 69, 118
1, 80193, Note_off_c, 0, 69, 118
1, 80200, Note_on_c, 0, 68, 111
1, 80310, Note_off_c, 0, 68, 111
1, 80326, Note_on_c, 0, 72, 87
1, 80374, Note_off_c, 0, 72, 87
1, 80396, Note_on_c, 0, 75, 119
1, 80489, Note_off_c, 0, 75, 119
1, 80502, Note_on_c, 0, 77, 120
1, 80600, Note_off_c, 0, 77, 120
1, 80609, Note_on_c, 0, 78, 123
1, 80695, Note_off_c, 0, 78, 123
1, 80699, Note_on_c, 0, 73, 109
1, 80739, Note_off_c, 0, 73, 109
1, 80753, Note_on_c, 0, 71, 110
1, 80805, Note_off_c, 0, 71, 110
1, 80811, Note_on_c, 0, 68, 110
1, 80890, Note_off_c, 0, 68, 110
1, 80918, Note_on_c, 0, 66, 106
1, 80970, Note_off_c, 0, 66, 106
1, 80989, Note_on_c, 0, 67, 90
1, 81093, Note_off_c, 0, 67, 90
1, 81160, Note_on_c, 0, 74, 114
1, 81249, Note_off_c, 0, 74, 114
1, 81271, Note_on_c, 0, 77, 116
1, 81405, Note_off_c, 0, 77, 116
1, 81535, Note_on_c, 0, 75, 112
1, 81639, Note_off_c, 0, 75, 112
1, 81689, Note_on_c, 0, 65, 93
1, 81773, Note_off_c, 0, 65, 93
1, 81865, Note_on_c, 0, 74, 111
1, 81971, Note_off_c, 0, 74, 111
1, 82044, Note_on_c, 0, 70, 84
1, 82123, Note_off_c, 0, 70, 84
1, 82148, Note_on_c, 0, 72, 110
1, 82224, Note_off_c, 0, 72, 110
1, 82245, Note_on_c, 0, 67, 101
1, 82316, Note_off_c, 0, 67, 101
1, 82350, Note_on_c, 0, 63, 89
1, 82417, Note_off_c, 0, 63, 89
1, 82514, Note_on_c, 0, 69, 112
1, 82571, Note_off_c, 0, 69, 112
1, 82577, Note_on_c, 0, 70, 111
1, 82798, Note_off_c, 0, 70, 111
1, 82819, Note_on_c, 0, 67, 111
1, 82893, Note_off_c, 0, 67, 111
1, 82978, Note_on_c, 0, 63, 101
1, 83050, Note_off_c, 0, 63, 101
1, 83062, Note_on_c, 0, 60, 108
1, 83149, Note_off_c, 0, 60, 108
1, 83250, Note_on_c, 0, 69, 113
1, 83315, Note_off_c, 0, 69, 113
1, 83318, Note_on_c, 0, 70, 114
1, 83542, Note_off_c, 0, 70, 114
1, 83558, Note_on_c, 0, 67, 111
1, 83667, Note_off_c, 0, 67, 111
1, 83740, Note_on_c, 0, 64, 95
1, 83859, Note_off_c, 0, 64, 95
1, 83881, Note_on_c, 0, 60, 97
1, 83955, Note_off_c, 0, 60, 97
1, 83960, Note_on_c, 0, 58, 87
1, 84028, Note_off_c, 0, 58, 87
1, 84030, Note_on_c, 0, 69, 117
1, 84082, Note_off_c, 0, 69, 117
1, 84096, Note_on_c, 0, 70, 109
1, 84324, Note_off_c, 0, 70, 109
1, 84335, Note_on_c, 0, 65, 112
1, 84450, Note_off_c, 0, 65, 112
1, 84901, Note_on_c, 0, 62, 102
1, 84972, Note_off_c, 0, 62, 102
1, 84976, Note_on_c, 0, 65, 94
1, 85059, Note_off_c, 0, 65, 94
1, 85087, Note_on_c, 0, 67, 89
1, 85135, Note_off_c, 0, 67, 89
1, 85190, Note_on_c, 0, 68, 112
1, 85282, Note_off_c, 0, 68, 112
1, 85557, Note_on_c, 0, 67, 109
1, 85649, Note_off_c, 0, 67, 109
1, 85665, Note_on_c, 0, 68, 98
1, 85706, Note_off_c, 0, 68, 98
1, 85713, Note_on_c, 0, 67, 104
1, 85773, Note_off_c, 0, 67, 104
1, 85779, Note_on_c, 0, 65, 97
1, 85844, Note_off_c, 0, 65, 97
1, 85886, Note_on_c, 0, 60, 98
1, 85923, Note_off_c, 0, 60, 98
1, 85945, Note_on_c, 0, 64, 103
1, 86034, Note_off_c, 0, 64, 103
1, 86077, Note_on_c, 0, 55, 106
1, 86142, Note_off_c, 0, 55, 106
1, 86157, Note_on_c, 0, 58, 88
1, 86224, Note_off_c, 0, 58, 88
1, 86252, Note_on_c, 0, 62, 110
1, 86334, Note_off_c, 0, 62, 110
1, 86531, Note_on_c, 0, 60, 109
1, 86619, Note_off_c, 0, 60, 109
1, 86625, Note_on_c, 0, 59, 93
1, 86705, Note_off_c, 0, 59, 93
1, 86724, Note_on_c, 0, 58, 106
1, 86811, Note_off_c, 0, 58, 106
1, 86822, Note_on_c, 0, 60, 107
1, 86897, Note_off_c, 0, 60, 107
1, 86903, Note_on_c, 0, 55, 101
1, 87002, Note_off_c, 0, 55, 101
1, 87009, Note_on_c, 0, 56, 103
1, 87085, Note_off_c, 0, 56, 103
1, 87096, Note_on_c, 0, 57, 92
1, 87168, Note_off_c, 0, 57, 92
1, 87174, Note_on_c, 0, 60, 99
1, 87244, Note_off_c, 0, 60, 99
1, 87277, Note_on_c, 0, 63, 107
1, 87357, Note_off_c, 0, 63, 107
1, 87371, Note_on_c, 0, 66, 110
1, 87467, Note_off_c, 0, 66, 110
1, 87474, Note_on_c, 0, 67, 107
1, 87563, Note_off_c, 0, 67, 107
1, 87578, Note_on_c, 0, 63, 106
1, 87644, Note_off_c, 0, 63, 106
1, 87650, Note_on_c, 0, 60, 103
1, 87724, Note_off_c, 0, 60, 103
1, 87791, Note_on_c, 0, 58, 106
1, 87845, Note_off_c, 0, 58, 106
1, 87849, Note_on_c, 0, 57, 93
1, 87940, Note_off_c, 0, 57, 93
1, 87954, Note_on_c, 0, 60, 96
1, 88009, Note_off_c, 0, 60, 96
1, 88040, Note_on_c, 0, 63, 106
1, 88107, Note_off_c, 0, 63, 106
1, 88136, Note_on_c, 0, 67, 91
1, 88201, Note_off_c, 0, 67, 91
1, 88206, Note_on_c, 0, 68, 117
1, 88313, Note_off_c, 0, 68, 117
1, 88324, Note_on_c, 0, 67, 110
1, 88396, Note_off_c, 0, 67, 110
1, 88405, Note_on_c, 0, 66, 106
1, 88496, Note_off_c, 0, 66, 106
1, 88516, Note_on_c, 0, 64, 88
1, 88586, Note_off_c, 0, 64, 88
1, 88596, Note_on_c, 0, 65, 106
1, 88657, Note_off_c, 0, 65, 106
1, 88710, Note_on_c, 0, 62, 101
1, 88787, Note_off_c, 0, 62, 101
1, 88798, Note_on_c, 0, 58, 99
1, 88880, Note_off_c, 0, 58, 99
1, 88888, Note_on_c, 0, 55, 99
1, 88955, Note_off_c, 0, 55, 99
1, 88977, Note_on_c, 0, 60, 110
1, 89056, Note_off_c, 0, 60, 110
1, 89068, Note_on_c, 0, 58, 107
1, 89153, Note_off_c, 0, 58, 107
1, 89164, Note_on_c, 0, 57, 95
1, 89268, Note_off_c, 0, 57, 95
1, 89280, Note_on_c, 0, 58, 103
1, 89373, Note_off_c, 0, 58, 103
1, 89387, Note_on_c, 0, 59, 93
1, 89439, Note_off_c, 0, 59, 93
1, 89450, Note_on_c, 0, 61, 108
1, 89532, Note_off_c, 0, 61, 108
1, 89542, Note_on_c, 0, 62, 101
1, 89630, Note_off_c, 0, 62, 101
1, 89650, Note_on_c, 0, 64, 106
1, 89733, Note_off_c, 0, 64, 106
1, 89747, Note_on_c, 0, 65, 100
1, 89825, Note_off_c, 0, 65, 100
1, 89836, Note_on_c, 0, 68, 113
1, 89920, Note_off_c, 0, 68, 113
1, 90041, Note_on_c, 0, 66, 88
1, 90091, Note_off_c, 0, 66, 88
1, 90097, Note_on_c, 0, 67, 106
1, 90195, Note_off_c, 0, 67, 106
1, 90217, Note_on_c, 0, 63, 108
1, 90278, Note_off_c, 0, 63, 108
1, 90497, Note_on_c, 0, 62, 108
1, 90563, Note_off_c, 0, 62, 108
1, 90610, Note_on_c, 0, 59, 87
1, 90664, Note_off_c, 0, 59, 87
1, 90670, Note_on_c, 0, 60, 92
1, 90748, Note_off_c, 0, 60, 92
1, 90995, Note_on_c, 0, 60, 104
1, 91059, Note_off_c, 0, 60, 104
1, 91116, Note_on_c, 0, 64, 84
1, 91160, Note_off_c, 0, 64, 84
1, 91172, Note_on_c, 0, 67, 47
1, 91217, Note_off_c, 0, 67, 47
1, 91220, Note_on_c, 0, 70, 84
1, 91244, Note_off_c, 0, 70, 84
1, 91279, Note_on_c, 0, 71, 116
1, 91308, Note_off_c, 0, 71, 116
1, 91313, Note_on_c, 0, 72, 116
1, 91357, Note_off_c, 0, 72, 116
1, 91362, Note_on_c, 0, 74, 109
1, 91413, Note_off_c, 0, 74, 109
1, 91418, Note_on_c, 0, 73, 105
1, 91453, Note_off_c, 0, 73, 105
1, 91464, Note_on_c, 0, 70, 111
1, 91544, Note_off_c, 0, 70, 111
1, 91566, Note_on_c, 0, 65, 118
1, 91652, Note_off_c, 0, 65, 118
1, 92127, Note_on_c, 0, 72, 120
1, 92216, Note_off_c, 0, 72, 120
1, 92221, Note_on_c, 0, 74, 119
1, 92274, Note_off_c, 0, 74, 119
1, 92282, Note_on_c, 0, 72, 111
1, 92316, Note_off_c, 0, 72, 111
1, 92321, Note_on_c, 0, 70, 111
1, 92381, Note_off_c, 0, 70, 111
1, 92391, Note_on_c, 0, 66, 119
1, 92480, Note_off_c, 0, 66, 119
1, 92702, Note_on_c, 0, 71, 116
1, 92739, Note_off_c, 0, 71, 116
1, 92742, Note_on_c, 0, 72, 116
1, 92793, Note_off_c, 0, 72, 116
1, 92795, Note_on_c, 0, 74, 110
1, 92850, Note_off_c, 0, 74, 110
1, 92855, Note_on_c, 0, 72, 107
1, 92897, Note_off_c, 0, 72, 107
1, 92907, Note_on_c, 0, 70, 107
1, 92970, Note_off_c, 0, 70, 107
1, 92975, Note_on_c, 0, 67, 114
1, 93061, Note_off_c, 0, 67, 114
1, 93266, Note_on_c, 0, 72, 119
1, 93355, Note_off_c, 0, 72, 119
1, 93365, Note_on_c, 0, 74, 109
1, 93417, Note_off_c, 0, 74, 109
1, 93422, Note_on_c, 0, 72, 107
1, 93468, Note_off_c, 0, 72, 107
1, 93478, Note_on_c, 0, 71, 102
1, 93539, Note_off_c, 0, 71, 102
1, 93553, Note_on_c, 0, 70, 113
1, 93648, Note_off_c, 0, 70, 113
1, 93653, Note_on_c, 0, 67, 104
1, 93718, Note_off_c, 0, 67, 104
1, 93730, Note_on_c, 0, 63, 101
1, 93835, Note_off_c, 0, 63, 101
1, 93853, Note_on_c, 0, 60, 101
1, 93924, Note_off_c, 0, 60, 101
1, 93933, Note_on_c, 0, 62, 107
1, 94024, Note_off_c, 0, 62, 107
1, 94030, Note_on_c, 0, 61, 113
1, 94130, Note_off_c, 0, 61, 113
1, 94138, Note_on_c, 0, 60, 102
1, 94230, Note_off_c, 0, 60, 102
1, 94237, Note_on_c, 0, 58, 106
1, 94330, Note_off_c, 0, 58, 106
1, 94338, Note_on_c, 0, 59, 90
1, 94393, Note_off_c, 0, 59, 90
1, 94412, Note_on_c, 0, 68, 115
1, 94519, Note_off_c, 0, 68, 115
1, 94527, Note_on_c, 0, 65, 102
1, 94600, Note_off_c, 0, 65, 102
1, 94604, Note_on_c, 0, 66, 108
1, 94678, Note_off_c, 0, 66, 108
1, 94694, Note_on_c, 0, 67, 104
1, 94780, Note_off_c, 0, 67, 104
1, 94795, Note_on_c, 0, 63, 109
1, 94876, Note_off_c, 0, 63, 109
1, 94881, Note_on_c, 0, 62, 98
1, 94966, Note_off_c, 0, 62, 98
1, 95085, Note_on_c, 0, 65, 119
1, 95179, Note_off_c, 0, 65, 119
1, 95189, Note_on_c, 0, 64, 109
1, 95260, Note_off_c, 0, 64, 109
1, 95264, Note_on_c, 0, 63, 107
1, 95359, Note_off_c, 0, 63, 107
1, 95378, Note_on_c, 0, 65, 117
1, 95479, Note_off_c, 0, 65, 117
1, 95487, Note_on_c, 0, 66, 95
1, 95557, Note_off_c, 0, 66, 95
1, 95572, Note_on_c, 0, 70, 95
1, 95656, Note_off_c, 0, 70, 95
1, 95660, Note_on_c, 0, 73, 115
1, 95777, Note_off_c, 0, 73, 115
1, 95788, Note_on_c, 0, 70, 89
1, 95825, Note_off_c, 0, 70, 89
1, 95841, Note_on_c, 0, 72, 113
1, 95926, Note_off_c, 0, 72, 113
1, 95929, Note_on_c, 0, 73, 110
1, 95960, Note_off_c, 0, 73, 110
1, 95965, Note_on_c, 0, 72, 109
1, 96028, Note_off_c, 0, 72, 109
1, 96030, Note_on_c, 0, 70, 109
1, 96121, Note_off_c, 0, 70, 109
1, 96130, Note_on_c, 0, 69, 112
1, 96206, Note_off_c, 0, 69, 112
1, 96216, Note_on_c, 0, 67, 108
1, 96305, Note_off_c, 0, 67, 108
1, 96308, Note_on_c, 0, 66, 104
1, 96394, Note_off_c, 0, 66, 104
1, 96408, Note_on_c, 0, 65, 106
1, 96508, Note_off_c, 0, 65, 106
1, 96517, Note_on_c, 0, 61, 106
1, 96535, Note_off_c, 0, 61, 106
1, 96544, Note_on_c, 0, 62, 105
1, 96593, Note_off_c, 0, 62, 105
1, 96604, Note_on_c, 0, 58, 104
1, 96709, Note_off_c, 0, 58, 104
1, 96728, Note_on_c, 0, 55, 105
1, 96774, Note_off_c, 0, 55, 105
1, 96795, Note_on_c, 0, 60, 108
1, 96884, Note_off_c, 0, 60, 108
1, 96892, Note_on_c, 0, 58, 109
1, 96992, Note_off_c, 0, 58, 109
1, 96995, Note_on_c, 0, 57, 98
1, 97074, Note_off_c, 0, 57, 98
1, 97085, Note_on_c, 0, 58, 100
1, 97123, Note_off_c, 0, 58, 100
1, 97125, Note_on_c, 0, 61, 106
1, 97228, Note_off_c, 0, 61, 106
1, 97345, Note_on_c, 0, 68, 116
1, 97461, Note_off_c, 0, 68, 116
1, 97547, Note_on_c, 0, 67, 112
1, 97622, Note_off_c, 0, 67, 112
1, 97632, Note_on_c, 0, 66, 108
1, 97721, Note_off_c, 0, 66, 108
1, 97725, Note_on_c, 0, 67, 108
1, 97907, Note_off_c, 0, 67, 108
1, 97920, Note_on_c, 0, 70, 114
1, 98017, Note_off_c, 0, 70, 114
1, 98122, Note_on_c, 0, 67, 115
1, 98233, Note_off_c, 0, 67, 115
1, 98289, Note_on_c, 0, 66, 100
1, 98335, Note_off_c, 0, 66, 100
1, 98338, Note_on_c, 0, 67, 100
1, 98386, Note_off_c, 0, 67, 100
1, 98428, Note_on_c, 0, 61, 107
1, 98492, Note_off_c, 0, 61, 107
1, 98492, Note_on_c, 0, 62, 95
1, 98598, Note_off_c, 0, 62, 95
1, 98623, Note_on_c, 0, 65, 115
1, 98711, Note_off_c, 0, 65, 115
1, 98803, Note_on_c, 0, 62, 108
1, 98926, Note_off_c, 0, 62, 108
1, 98934, Note_on_c, 0, 60, 99
1, 98984, Note_off_c, 0, 60, 99
1, 98990, Note_on_c, 0, 58, 101
1, 99036, Note_off_c, 0, 58, 101
1, 99057, Note_on_c, 0, 57, 106
1, 99106, Note_off_c, 0, 57, 106
1, 99131, Note_on_c, 0, 55, 107
1, 99220, Note_off_c, 0, 55, 107
1, 99317, Note_on_c, 0, 57, 104
1, 99373, Note_off_c, 0, 57, 104
1, 99379, Note_on_c, 0, 58, 109
1, 99464, Note_off_c, 0, 58, 109
1, 99477, Note_on_c, 0, 62, 110
1, 99572, Note_off_c, 0, 62, 110
1, 99659, Note_on_c, 0, 58, 118
1, 99781, Note_off_c, 0, 58, 118
1, 99897, Note_on_c, 0, 57, 105
1, 99971, Note_off_c, 0, 57, 105
1, 99979, Note_on_c, 0, 60, 105
1, 100066, Note_off_c, 0, 60, 105
1, 100141, Note_on_c, 0, 62, 116
1, 100221, Note_off_c, 0, 62, 116
1, 100234, Note_on_c, 0, 63, 109
1, 100301, Note_off_c, 0, 63, 109
1, 100337, Note_on_c, 0, 67, 110
1, 100415, Note_off_c, 0, 67, 110
1, 100466, Note_on_c, 0, 61, 100
1, 100515, Note_off_c, 0, 61, 100
1, 100637, Note_on_c, 0, 69, 123
1, 100716, Note_off_c, 0, 69, 123
1, 100722, Note_on_c, 0, 67, 118
1, 100806, Note_off_c, 0, 67, 118
1, 100813, Note_on_c, 0, 65, 121
1, 100909, Note_off_c, 0, 65, 121
1, 100925, Note_on_c, 0, 62, 115
1, 101023, Note_off_c, 0, 62, 115
1, 101023, End_track
0, 0, End_of_file
