0, 0, Header, 1, 1, 192
1, 0, Start_track
1, 0, Title_t, "Melody"
1, 0, Tempo, 277777
1, 0, Key_signature, -1, "major"
1, 0, Time_signature, 4, 2, 24, 8
1, 2538, Note_on_c, 0, 55, 95
1, 2600, Note_off_c, 0, 55, 95
1, 2611, Note_on_c, 0, 58, 98
1, 2715, Note_off_c, 0, 58, 98
1, 2717, Note_on_c, 0, 55, 97
1, 2812, Note_off_c, 0, 55, 97
1, 2819, Note_on_c, 0, 56, 96
1, 2897, Note_off_c, 0, 56, 96
1, 2904, Note_on_c, 0, 58, 101
1, 3030, Note_off_c, 0, 58, 101
1, 3032, Note_on_c, 0, 59, 95
1, 3119, Note_off_c, 0, 59, 95
1, 3124, Note_on_c, 0, 63, 95
1, 3177, Note_off_c, 0, 63, 95
1, 3188, Note_on_c, 0, 69, 123
1, 3300, Note_off_c, 0, 69, 123
1, 3316, Note_on_c, 0, 67, 114
1, 3403, Note_off_c, 0, 67, 114
1, 3403, Note_on_c, 0, 65, 101
1, 3487, Note_off_c, 0, 65, 101
1, 3515, Note_on_c, 0, 60, 100
1, 3582, Note_off_c, 0, 60, 100
1, 3593, Note_on_c, 0, 64, 111
1, 3674, Note_off_c, 0, 64, 111
1, 3693, Note_on_c, 0, 61, 102
1, 3774, Note_off_c, 0, 61, 102
1, 3785, Note_on_c, 0, 60, 101
1, 3866, Note_off_c, 0, 60, 101
1, 3885, Note_on_c, 0, 58, 106
1, 3952, Note_off_c, 0, 58, 106
1, 3961, Note_on_c, 0, 57, 104
1, 4052, Note_off_c, 0, 57, 104
1, 4071, Note_on_c, 0, 60, 101
1, 4147, Note_off_c, 0, 60, 101
1, 4152, Note_on_c, 0, 62, 108
1, 4247, Note_off_c, 0, 62, 108
1, 4266, Note_on_c, 0, 60, 100
1, 4333, Note_off_c, 0, 60, 100
1, 4344, Note_on_c, 0, 67, 115
1, 4445, Note_off_c, 0, 67, 115
1, 4461, Note_on_c, 0, 64, 113
1, 4523, Note_off_c, 0, 64, 113
1, 4531, Note_on_c, 0, 65, 113
1, 4621, Note_off_c, 0, 65, 113
1, 4646, Note_on_c, 0, 67, 113
1, 4727, Note_off_c, 0, 67, 113
1, 4741, Note_on_c, 0, 68, 115
1, 4817, Note_off_c, 0, 68, 115
1, 4831, Note_on_c, 0, 69, 121
1, 4929, Note_off_c, 0, 69, 121
1, 4940, Note_on_c, 0, 70, 112
1, 5004, Note_off_c, 0, 70, 112
1, 5012, Note_on_c, 0, 71, 114
1, 5088, Note_off_c, 0, 71, 114
1, 5110, Note_on_c, 0, 72, 109
1, 5188, Note_off_c, 0, 72, 109
1, 5207, Note_on_c, 0, 71, 109
1, 5297, Note_off_c, 0, 71, 109
1, 5313, Note_on_c, 0, 70, 107
1, 5391, Note_off_c, 0, 70, 107
1, 5402, Note_on_c, 0, 69, 116
1, 5497, Note_off_c, 0, 69, 116
1, 5508, Note_on_c, 0, 67, 107
1, 5581, Note_off_c, 0, 67, 107
1, 5593, Note_on_c, 0, 65, 109
1, 5667, Note_off_c, 0, 65, 109
1, 5675, Note_on_c, 0, 64, 108
1, 5759, Note_off_c, 0, 64, 108
1, 5773, Note_on_c, 0, 62, 96
1, 5863, Note_off_c, 0, 62, 96
1, 5885, Note_on_c, 0, 61, 98
1, 5967, Note_on_c, 0, 64, 108
1, 5967, Note_off_c, 0, 61, 98
1, 6033, Note_off_c, 0, 64, 108
1, 6099, Note_on_c, 0, 67, 93
1, 6155, Note_off_c, 0, 67, 93
1, 6161, Note_on_c, 0, 69, 93
1, 6229, Note_off_c, 0, 69, 93
1, 6257, Note_on_c, 0, 72, 111
1, 6331, Note_off_c, 0, 72, 111
1, 6335, Note_on_c, 0, 74, 86
1, 6357, Note_off_c, 0, 74, 86
1, 6373, Note_on_c, 0, 72, 106
1, 6417, Note_off_c, 0, 72, 106
1, 6427, Note_on_c, 0, 70, 105
1, 6503, Note_off_c, 0, 70, 105
1, 6515, Note_on_c, 0, 72, 96
1, 6541, Note_off_c, 0, 72, 96
1, 6555, Note_on_c, 0, 70, 102
1, 6607, Note_off_c, 0, 70, 102
1, 6609, Note_on_c, 0, 69, 110
1, 6717, Note_off_c, 0, 69, 110
1, 6733, Note_on_c, 0, 65, 108
1, 6811, Note_off_c, 0, 65, 108
1, 6813, Note_on_c, 0, 61, 97
1, 6925, Note_off_c, 0, 61, 97
1, 6941, Note_on_c, 0, 57, 87
1, 6985, Note_off_c, 0, 57, 87
1, 6995, Note_on_c, 0, 64, 109
1, 7107, Note_off_c, 0, 64, 109
1, 7131, Note_on_c, 0, 57, 87
1, 7171, Note_off_c, 0, 57, 87
1, 7195, Note_on_c, 0, 62, 106
1, 7303, Note_off_c, 0, 62, 106
1, 7319, Note_on_c, 0, 64, 109
1, 7355, Note_off_c, 0, 64, 109
1, 7371, Note_on_c, 0, 65, 105
1, 7577, Note_off_c, 0, 65, 105
1, 7585, Note_on_c, 0, 64, 108
1, 7681, Note_off_c, 0, 64, 108
1, 7695, Note_on_c, 0, 63, 103
1, 7755, Note_off_c, 0, 63, 103
1, 7769, Note_on_c, 0, 62, 99
1, 7867, Note_off_c, 0, 62, 99
1, 7883, Note_on_c, 0, 57, 106
1, 7953, Note_off_c, 0, 57, 106
1, 8350, Note_on_c, 0, 58, 105
1, 8438, Note_off_c, 0, 58, 105
1, 8444, Note_on_c, 0, 57, 103
1, 8506, Note_off_c, 0, 57, 103
1, 8532, Note_on_c, 0, 56, 101
1, 8598, Note_off_c, 0, 56, 101
1, 8618, Note_on_c, 0, 58, 104
1, 8730, Note_off_c, 0, 58, 104
1, 8736, Note_on_c, 0, 60, 89
1, 8812, Note_off_c, 0, 60, 89
1, 8820, Note_on_c, 0, 64, 99
1, 8888, Note_off_c, 0, 64, 99
1, 8892, Note_on_c, 0, 67, 119
1, 8986, Note_off_c, 0, 67, 119
1, 9110, Note_on_c, 0, 57, 100
1, 9184, Note_off_c, 0, 57, 100
1, 9196, Note_on_c, 0, 56, 95
1, 9270, Note_off_c, 0, 56, 95
1, 9282, Note_on_c, 0, 55, 96
1, 9370, Note_off_c, 0, 55, 96
1, 9394, Note_on_c, 0, 57, 102
1, 9478, Note_off_c, 0, 57, 102
1, 9484, Note_on_c, 0, 59, 92
1, 9560, Note_off_c, 0, 59, 92
1, 9562, Note_on_c, 0, 62, 96
1, 9640, Note_off_c, 0, 62, 96
1, 9654, Note_on_c, 0, 66, 119
1, 9744, Note_off_c, 0, 66, 119
1, 9856, Note_on_c, 0, 60, 104
1, 9942, Note_off_c, 0, 60, 104
1, 9952, Note_on_c, 0, 58, 103
1, 10026, Note_off_c, 0, 58, 103
1, 10048, Note_on_c, 0, 57, 97
1, 10124, Note_off_c, 0, 57, 97
1, 10134, Note_on_c, 0, 55, 100
1, 10222, Note_off_c, 0, 55, 100
1, 10248, Note_on_c, 0, 52, 91
1, 10332, Note_off_c, 0, 52, 91
1, 10406, Note_on_c, 0, 60, 108
1, 10498, Note_off_c, 0, 60, 108
1, 10524, Note_on_c, 0, 63, 104
1, 10614, Note_off_c, 0, 63, 104
1, 10618, Note_on_c, 0, 62, 99
1, 10688, Note_off_c, 0, 62, 99
1, 10704, Note_on_c, 0, 60, 106
1, 10794, Note_off_c, 0, 60, 106
1, 10804, Note_on_c, 0, 58, 99
1, 10888, Note_off_c, 0, 58, 99
1, 10906, Note_on_c, 0, 60, 91
1, 10966, Note_off_c, 0, 60, 91
1, 10990, Note_on_c, 0, 62, 107
1, 11104, Note_off_c, 0, 62, 107
1, 11144, Note_on_c, 0, 69, 114
1, 11266, Note_off_c, 0, 69, 114
1, 11278, Note_on_c, 0, 66, 110
1, 11362, Note_off_c, 0, 66, 110
1, 11378, Note_on_c, 0, 67, 103
1, 11444, Note_off_c, 0, 67, 103
1, 11462, Note_on_c, 0, 69, 112
1, 11524, Note_off_c, 0, 69, 112
1, 11568, Note_on_c, 0, 70, 110
1, 11588, Note_off_c, 0, 70, 110
1, 11604, Note_on_c, 0, 71, 109
1, 11684, Note_off_c, 0, 71, 109
1, 11700, Note_on_c, 0, 67, 114
1, 11748, Note_off_c, 0, 67, 114
1, 11754, Note_on_c, 0, 68, 106
1, 11814, Note_off_c, 0, 68, 106
1, 11834, Note_on_c, 0, 65, 111
1, 11894, Note_off_c, 0, 65, 111
1, 11936, Note_on_c, 0, 62, 102
1, 12018, Note_off_c, 0, 62, 102
1, 12054, Note_on_c, 0, 59, 101
1, 12136, Note_off_c, 0, 59, 101
1, 12599, Note_on_c, 0, 60, 108
1, 12683, Note_off_c, 0, 60, 108
1, 12688, Note_on_c, 0, 61, 103
1, 12733, Note_off_c, 0, 61, 103
1, 12741, Note_on_c, 0, 60, 99
1, 12786, Note_off_c, 0, 60, 99
1, 12786, Note_on_c, 0, 59, 104
1, 12850, Note_off_c, 0, 59, 104
1, 12866, Note_on_c, 0, 58, 109
1, 12964, Note_off_c, 0, 58, 109
1, 12978, Note_on_c, 0, 57, 109
1, 13048, Note_off_c, 0, 57, 109
1, 13062, Note_on_c, 0, 55, 106
1, 13146, Note_off_c, 0, 55, 106
1, 13179, Note_on_c, 0, 57, 110
1, 13246, Note_off_c, 0, 57, 110
1, 13251, Note_on_c, 0, 59, 101
1, 13344, Note_off_c, 0, 59, 101
1, 13349, Note_on_c, 0, 60, 102
1, 13416, Note_off_c, 0, 60, 102
1, 13427, Note_on_c, 0, 64, 123
1, 13508, Note_off_c, 0, 64, 123
1, 13536, Note_on_c, 0, 61, 111
1, 13629, Note_off_c, 0, 61, 111
1, 13637, Note_on_c, 0, 62, 106
1, 13713, Note_off_c, 0, 62, 106
1, 13715, Note_on_c, 0, 64, 110
1, 13802, Note_off_c, 0, 64, 110
1, 13804, Note_on_c, 0, 65, 111
1, 13902, Note_off_c, 0, 65, 111
1, 13902, Note_on_c, 0, 67, 109
1, 13986, Note_off_c, 0, 67, 109
1, 13988, Note_on_c, 0, 64, 106
1, 14075, Note_off_c, 0, 64, 106
1, 14094, Note_on_c, 0, 63, 101
1, 14172, Note_off_c, 0, 63, 101
1, 14186, Note_on_c, 0, 62, 111
1, 14281, Note_off_c, 0, 62, 111
1, 14289, Note_on_c, 0, 64, 113
1, 14365, Note_off_c, 0, 64, 113
1, 14370, Note_on_c, 0, 65, 98
1, 14446, Note_off_c, 0, 65, 98
1, 14457, Note_on_c, 0, 67, 85
1, 14530, Note_on_c, 0, 69, 117
1, 14530, Note_off_c, 0, 67, 85
1, 14648, Note_off_c, 0, 69, 117
1, 14667, Note_on_c, 0, 60, 104
1, 14737, Note_off_c, 0, 60, 104
1, 14751, Note_on_c, 0, 59, 98
1, 14832, Note_off_c, 0, 59, 98
1, 14840, Note_on_c, 0, 57, 98
1, 14924, Note_off_c, 0, 57, 98
1, 14932, Note_on_c, 0, 58, 95
1, 15019, Note_off_c, 0, 58, 95
1, 15027, Note_on_c, 0, 67, 105
1, 15103, Note_off_c, 0, 67, 105
1, 15111, Note_on_c, 0, 64, 96
1, 15223, Note_off_c, 0, 64, 96
1, 15239, Note_on_c, 0, 60, 90
1, 15289, Note_off_c, 0, 60, 90
1, 15294, Note_on_c, 0, 65, 110
1, 15375, Note_off_c, 0, 65, 110
1, 15389, Note_on_c, 0, 62, 108
1, 15462, Note_off_c, 0, 62, 108
1, 15490, Note_on_c, 0, 58, 100
1, 15568, Note_off_c, 0, 58, 100
1, 15568, Note_on_c, 0, 55, 97
1, 15646, Note_off_c, 0, 55, 97
1, 15775, Note_on_c, 0, 64, 112
1, 15853, Note_off_c, 0, 64, 112
1, 15853, Note_on_c, 0, 62, 94
1, 15920, Note_off_c, 0, 62, 94
1, 15948, Note_on_c, 0, 61, 100
1, 16026, Note_off_c, 0, 61, 100
1, 16034, Note_on_c, 0, 60, 105
1, 16121, Note_off_c, 0, 60, 105
1, 16149, Note_on_c, 0, 62, 103
1, 16205, Note_off_c, 0, 62, 103
1, 16224, Note_on_c, 0, 65, 106
1, 16359, Note_off_c, 0, 65, 106
1, 16423, Note_on_c, 0, 69, 116
1, 16558, Note_off_c, 0, 69, 116
1, 16577, Note_on_c, 0, 74, 114
1, 16715, Note_off_c, 0, 74, 114
1, 16729, Note_on_c, 0, 73, 108
1, 16776, Note_off_c, 0, 73, 108
1, 16790, Note_on_c, 0, 74, 116
1, 16998, Note_off_c, 0, 74, 116
1, 17012, Note_on_c, 0, 72, 112
1, 17079, Note_off_c, 0, 72, 112
1, 17095, Note_on_c, 0, 73, 97
1, 17134, Note_off_c, 0, 73, 97
1, 17136, Note_on_c, 0, 72, 106
1, 17183, Note_off_c, 0, 72, 106
1, 17185, Note_on_c, 0, 69, 111
1, 17283, Note_off_c, 0, 69, 111
1, 17288, Note_on_c, 0, 65, 100
1, 17361, Note_off_c, 0, 65, 100
1, 17392, Note_on_c, 0, 62, 94
1, 17468, Note_off_c, 0, 62, 94
1, 17479, Note_on_c, 0, 60, 98
1, 17543, Note_on_c, 0, 67, 112
1, 17543, Note_off_c, 0, 60, 98
1, 17675, Note_off_c, 0, 67, 112
1, 18019, Note_on_c, 0, 67, 94
1, 18064, Note_off_c, 0, 67, 94
1, 18064, Note_on_c, 0, 66, 106
1, 18111, Note_off_c, 0, 66, 106
1, 18122, Note_on_c, 0, 64, 102
1, 18198, Note_off_c, 0, 64, 102
1, 18223, Note_on_c, 0, 62, 99
1, 18301, Note_off_c, 0, 62, 99
1, 18320, Note_on_c, 0, 61, 97
1, 18384, Note_off_c, 0, 61, 97
1, 18389, Note_on_c, 0, 64, 105
1, 18476, Note_off_c, 0, 64, 105
1, 18495, Note_on_c, 0, 67, 91
1, 18568, Note_off_c, 0, 67, 91
1, 18579, Note_on_c, 0, 69, 95
1, 18655, Note_off_c, 0, 69, 95
1, 18671, Note_on_c, 0, 72, 114
1, 18764, Note_off_c, 0, 72, 114
1, 18775, Note_on_c, 0, 71, 110
1, 18865, Note_off_c, 0, 71, 110
1, 18873, Note_on_c, 0, 70, 109
1, 18954, Note_off_c, 0, 70, 109
1, 18956, Note_on_c, 0, 68, 114
1, 19043, Note_off_c, 0, 68, 114
1, 19054, Note_on_c, 0, 69, 114
1, 19141, Note_off_c, 0, 69, 114
1, 19169, Note_on_c, 0, 65, 108
1, 19231, Note_off_c, 0, 65, 108
1, 19245, Note_on_c, 0, 61, 102
1, 19355, Note_off_c, 0, 61, 102
1, 19402, Note_on_c, 0, 67, 106
1, 19469, Note_off_c, 0, 67, 106
1, 19474, Note_on_c, 0, 68, 109
1, 19595, Note_off_c, 0, 68, 109
1, 19600, Note_on_c, 0, 67, 112
1, 19712, Note_off_c, 0, 67, 112
1, 19728, Note_on_c, 0, 66, 106
1, 19798, Note_off_c, 0, 66, 106
1, 19814, Note_on_c, 0, 65, 102
1, 19887, Note_off_c, 0, 65, 102
1, 19895, Note_on_c, 0, 62, 99
1, 19982, Note_off_c, 0, 62, 99
1, 20314, Note_on_c, 0, 65, 105
1, 20359, Note_off_c, 0, 65, 105
1, 20370, Note_on_c, 0, 70, 115
1, 20437, Note_off_c, 0, 70, 115
1, 20456, Note_on_c, 0, 69, 121
1, 20563, Note_off_c, 0, 69, 121
1, 20565, Note_on_c, 0, 68, 112
1, 20635, Note_off_c, 0, 68, 112
1, 20640, Note_on_c, 0, 72, 115
1, 20713, Note_off_c, 0, 72, 115
1, 20727, Note_on_c, 0, 67, 104
1, 20822, Note_off_c, 0, 67, 104
1, 20822, Note_on_c, 0, 65, 105
1, 20903, Note_off_c, 0, 65, 105
1, 20911, Note_on_c, 0, 64, 104
1, 20995, Note_off_c, 0, 64, 104
1, 21009, Note_on_c, 0, 62, 101
1, 21104, Note_off_c, 0, 62, 101
1, 21126, Note_on_c, 0, 59, 92
1, 21193, Note_off_c, 0, 59, 92
1, 21201, Note_on_c, 0, 60, 98
1, 21271, Note_off_c, 0, 60, 98
1, 21299, Note_on_c, 0, 61, 113
1, 21380, Note_off_c, 0, 61, 113
1, 21405, Note_on_c, 0, 64, 98
1, 21472, Note_off_c, 0, 64, 98
1, 21480, Note_on_c, 0, 67, 114
1, 21567, Note_off_c, 0, 67, 114
1, 21572, Note_on_c, 0, 69, 116
1, 21659, Note_off_c, 0, 69, 116
1, 21673, Note_on_c, 0, 70, 110
1, 21743, Note_off_c, 0, 70, 110
1, 21748, Note_on_c, 0, 72, 102
1, 21784, Note_off_c, 0, 72, 102
1, 21792, Note_on_c, 0, 70, 111
1, 21848, Note_off_c, 0, 70, 111
1, 21862, Note_on_c, 0, 69, 117
1, 21949, Note_off_c, 0, 69, 117
1, 21960, Note_on_c, 0, 67, 112
1, 22030, Note_off_c, 0, 67, 112
1, 22038, Note_on_c, 0, 66, 107
1, 22128, Note_off_c, 0, 66, 107
1, 22218, Note_on_c, 0, 60, 108
1, 22328, Note_off_c, 0, 60, 108
1, 22339, Note_on_c, 0, 63, 111
1, 22406, Note_off_c, 0, 63, 111
1, 22411, Note_on_c, 0, 62, 96
1, 22498, Note_off_c, 0, 62, 96
1, 22537, Note_on_c, 0, 60, 97
1, 22599, Note_off_c, 0, 60, 97
1, 22601, Note_on_c, 0, 62, 112
1, 22713, Note_off_c, 0, 62, 112
1, 22893, Note_on_c, 0, 60, 112
1, 22994, Note_off_c, 0, 60, 112
1, 23013, Note_on_c, 0, 61, 97
1, 23046, Note_off_c, 0, 61, 97
1, 23057, Note_on_c, 0, 60, 101
1, 23110, Note_off_c, 0, 60, 101
1, 23110, Note_on_c, 0, 57, 100
1, 23174, Note_off_c, 0, 57, 100
1, 23174, Note_on_c, 0, 58, 109
1, 23312, Note_off_c, 0, 58, 109
1, 23343, Note_on_c, 0, 65, 115
1, 23469, Note_off_c, 0, 65, 115
1, 23474, Note_on_c, 0, 68, 122
1, 23564, Note_off_c, 0, 68, 122
1, 23572, Note_on_c, 0, 67, 102
1, 23665, Note_off_c, 0, 67, 102
1, 23676, Note_on_c, 0, 65, 105
1, 23715, Note_off_c, 0, 65, 105
1, 23734, Note_on_c, 0, 67, 124
1, 23844, Note_off_c, 0, 67, 124
1, 24041, Note_on_c, 0, 64, 94
1, 24221, Note_off_c, 0, 64, 94
1, 24223, Note_on_c, 0, 60, 95
1, 24285, Note_off_c, 0, 60, 95
1, 24301, Note_on_c, 0, 62, 101
1, 24439, Note_off_c, 0, 62, 101
1, 24596, Note_on_c, 0, 57, 109
1, 24669, Note_off_c, 0, 57, 109
1, 24680, Note_on_c, 0, 58, 100
1, 24770, Note_off_c, 0, 58, 100
1, 24778, Note_on_c, 0, 59, 106
1, 24851, Note_off_c, 0, 59, 106
1, 24865, Note_on_c, 0, 60, 111
1, 24960, Note_off_c, 0, 60, 111
1, 24976, Note_on_c, 0, 59, 103
1, 25052, Note_off_c, 0, 59, 103
1, 25063, Note_on_c, 0, 58, 100
1, 25156, Note_off_c, 0, 58, 100
1, 25172, Note_on_c, 0, 57, 105
1, 25245, Note_off_c, 0, 57, 105
1, 25245, Note_on_c, 0, 55, 93
1, 25307, Note_off_c, 0, 55, 93
1, 25315, Note_on_c, 0, 53, 101
1, 25408, Note_off_c, 0, 53, 101
1, 25444, Note_on_c, 0, 52, 105
1, 25520, Note_off_c, 0, 52, 105
1, 25525, Note_on_c, 0, 55, 95
1, 25587, Note_off_c, 0, 55, 95
1, 25603, Note_on_c, 0, 58, 107
1, 25713, Note_off_c, 0, 58, 107
1, 25727, Note_on_c, 0, 62, 101
1, 25814, Note_off_c, 0, 62, 101
1, 25891, Note_on_c, 0, 57, 91
1, 25984, Note_off_c, 0, 57, 91
1, 26002, Note_on_c, 0, 60, 107
1, 26080, Note_off_c, 0, 60, 107
1, 26088, Note_on_c, 0, 58, 107
1, 26164, Note_off_c, 0, 58, 107
1, 26189, Note_on_c, 0, 57, 91
1, 26270, Note_off_c, 0, 57, 91
1, 26292, Note_on_c, 0, 60, 94
1, 26342, Note_off_c, 0, 60, 94
1, 26347, Note_on_c, 0, 62, 106
1, 26454, Note_off_c, 0, 62, 106
1, 26468, Note_on_c, 0, 60, 110
1, 26524, Note_off_c, 0, 60, 110
1, 26553, Note_on_c, 0, 62, 110
1, 26584, Note_off_c, 0, 62, 110
1, 26589, Note_on_c, 0, 63, 102
1, 26662, Note_off_c, 0, 63, 102
1, 26710, Note_on_c, 0, 60, 100
1, 26822, Note_off_c, 0, 60, 100
1, 26836, Note_on_c, 0, 62, 100
1, 27137, Note_off_c, 0, 62, 100
1, 27650, Note_on_c, 0, 62, 112
1, 27762, Note_off_c, 0, 62, 112
1, 27840, Note_on_c, 0, 70, 120
1, 27916, Note_off_c, 0, 70, 120
1, 27961, Note_on_c, 0, 70, 114
1, 28006, Note_off_c, 0, 70, 114
1, 28025, Note_on_c, 0, 71, 109
1, 28081, Note_off_c, 0, 71, 109
1, 28148, Note_on_c, 0, 70, 113
1, 28689, Note_off_c, 0, 70, 113
1, 28717, Note_on_c, 0, 70, 110
1, 28762, Note_off_c, 0, 70, 110
1, 28767, Note_on_c, 0, 71, 107
1, 28829, Note_off_c, 0, 71, 107
1, 28891, Note_on_c, 0, 70, 114
1, 29001, Note_off_c, 0, 70, 114
1, 29020, Note_on_c, 0, 68, 112
1, 29076, Note_off_c, 0, 68, 112
1, 29098, Note_on_c, 0, 65, 113
1, 29171, Note_off_c, 0, 65, 113
1, 29193, Note_on_c, 0, 63, 107
1, 29252, Note_off_c, 0, 63, 107
1, 29257, Note_on_c, 0, 61, 101
1, 29307, Note_off_c, 0, 61, 101
1, 29315, Note_on_c, 0, 60, 102
1, 29360, Note_off_c, 0, 60, 102
1, 29376, Note_on_c, 0, 59, 102
1, 29440, Note_off_c, 0, 59, 102
1, 29440, Note_on_c, 0, 62, 105
1, 29538, Note_off_c, 0, 62, 105
1, 29549, Note_on_c, 0, 60, 105
1, 29647, Note_off_c, 0, 60, 105
1, 29655, Note_on_c, 0, 59, 101
1, 29731, Note_off_c, 0, 59, 101
1, 29742, Note_on_c, 0, 58, 104
1, 29804, Note_off_c, 0, 58, 104
1, 29823, Note_on_c, 0, 56, 100
1, 29896, Note_off_c, 0, 56, 100
1, 29912, Note_on_c, 0, 57, 102
1, 30003, Note_off_c, 0, 57, 102
1, 30005, Note_on_c, 0, 58, 95
1, 30079, Note_off_c, 0, 58, 95
1, 30087, Note_on_c, 0, 64, 113
1, 30180, Note_off_c, 0, 64, 113
1, 30194, Note_on_c, 0, 67, 121
1, 30298, Note_off_c, 0, 67, 121
1, 30735, Note_on_c, 0, 60, 115
1, 30828, Note_off_c, 0, 60, 115
1, 30842, Note_on_c, 0, 62, 112
1, 30940, Note_off_c, 0, 62, 112
1, 30954, Note_on_c, 0, 64, 112
1, 31024, Note_off_c, 0, 64, 112
1, 31119, Note_on_c, 0, 67, 116
1, 31197, Note_off_c, 0, 67, 116
1, 31213, Note_on_c, 0, 65, 110
1, 31317, Note_off_c, 0, 65, 110
1, 31331, Note_on_c, 0, 64, 112
1, 31429, Note_off_c, 0, 64, 112
1, 31493, Note_on_c, 0, 60, 106
1, 31560, Note_off_c, 0, 60, 106
1, 31576, Note_on_c, 0, 62, 112
1, 31663, Note_off_c, 0, 62, 112
1, 31679, Note_on_c, 0, 64, 110
1, 31763, Note_off_c, 0, 64, 110
1, 31844, Note_on_c, 0, 67, 113
1, 31931, Note_off_c, 0, 67, 113
1, 31931, Note_on_c, 0, 65, 114
1, 32055, Note_off_c, 0, 65, 114
1, 32069, Note_on_c, 0, 64, 114
1, 32162, Note_off_c, 0, 64, 114
1, 32246, Note_on_c, 0, 60, 108
1, 32316, Note_off_c, 0, 60, 108
1, 32330, Note_on_c, 0, 62, 104
1, 32431, Note_off_c, 0, 62, 104
1, 32450, Note_on_c, 0, 63, 109
1, 32492, Note_off_c, 0, 63, 109
1, 32500, Note_on_c, 0, 64, 99
1, 32697, Note_off_c, 0, 64, 99
1, 32722, Note_on_c, 0, 59, 99
1, 32792, Note_off_c, 0, 59, 99
1, 32868, Note_on_c, 0, 63, 107
1, 32961, Note_off_c, 0, 63, 107
1, 33071, Note_on_c, 0, 59, 98
1, 33147, Note_off_c, 0, 59, 98
1, 33265, Note_on_c, 0, 62, 105
1, 33346, Note_off_c, 0, 62, 105
1, 33467, Note_on_c, 0, 59, 97
1, 33554, Note_off_c, 0, 59, 97
1, 33568, Note_on_c, 0, 60, 101
1, 33644, Note_off_c, 0, 60, 101
1, 33658, Note_on_c, 0, 61, 98
1, 33739, Note_off_c, 0, 61, 98
1, 33755, Note_on_c, 0, 70, 115
1, 33822, Note_off_c, 0, 70, 115
1, 33824, Note_on_c, 0, 69, 115
1, 33939, Note_off_c, 0, 69, 115
1, 33941, Note_on_c, 0, 67, 106
1, 34017, Note_off_c, 0, 67, 106
1, 34019, Note_on_c, 0, 65, 110
1, 34117, Note_off_c, 0, 65, 110
1, 34131, Note_on_c, 0, 61, 100
1, 34187, Note_off_c, 0, 61, 100
1, 34206, Note_on_c, 0, 57, 94
1, 34279, Note_off_c, 0, 57, 94
1, 34290, Note_on_c, 0, 53, 90
1, 34342, Note_off_c, 0, 53, 90
1, 34397, Note_on_c, 0, 64, 103
1, 34512, Note_off_c, 0, 64, 103
1, 34526, Note_on_c, 0, 61, 97
1, 34596, Note_off_c, 0, 61, 97
1, 34604, Note_on_c, 0, 62, 101
1, 34677, Note_off_c, 0, 62, 101
1, 34693, Note_on_c, 0, 65, 113
1, 34817, Note_off_c, 0, 65, 113
1, 35237, Note_on_c, 0, 65, 120
1, 35321, Note_off_c, 0, 65, 120
1, 35343, Note_on_c, 0, 67, 88
1, 35396, Note_off_c, 0, 67, 88
1, 35412, Note_on_c, 0, 72, 104
1, 35454, Note_off_c, 0, 72, 104
1, 35462, Note_on_c, 0, 75, 104
1, 35515, Note_off_c, 0, 75, 104
1, 35529, Note_on_c, 0, 74, 116
1, 35627, Note_off_c, 0, 74, 116
1, 35635, Note_on_c, 0, 72, 115
1, 35730, Note_off_c, 0, 72, 115
1, 35735, Note_on_c, 0, 70, 109
1, 35813, Note_off_c, 0, 70, 109
1, 35815, Note_on_c, 0, 69, 117
1, 35913, Note_off_c, 0, 69, 117
1, 35918, Note_on_c, 0, 68, 112
1, 36011, Note_off_c, 0, 68, 112
1, 36374, Note_on_c, 0, 67, 114
1, 36450, Note_off_c, 0, 67, 114
1, 36464, Note_on_c, 0, 68, 105
1, 36506, Note_on_c, 0, 67, 102
1, 36506, Note_off_c, 0, 68, 105
1, 36565, Note_off_c, 0, 67, 102
1, 36565, Note_on_c, 0, 65, 104
1, 36627, Note_off_c, 0, 65, 104
1, 36635, Note_on_c, 0, 64, 108
1, 36739, Note_off_c, 0, 64, 108
1, 36747, Note_on_c, 0, 62, 106
1, 36806, Note_off_c, 0, 62, 106
1, 36820, Note_on_c, 0, 61, 104
1, 36921, Note_off_c, 0, 61, 104
1, 36949, Note_on_c, 0, 58, 111
1, 37022, Note_off_c, 0, 58, 111
1, 37036, Note_on_c, 0, 57, 98
1, 37112, Note_off_c, 0, 57, 98
1, 37126, Note_on_c, 0, 55, 102
1, 37224, Note_off_c, 0, 55, 102
1, 37226, Note_on_c, 0, 54, 84
1, 37290, Note_off_c, 0, 54, 84
1, 37321, Note_on_c, 0, 57, 88
1, 37368, Note_off_c, 0, 57, 88
1, 37390, Note_on_c, 0, 60, 108
1, 37508, Note_off_c, 0, 60, 108
1, 37508, Note_on_c, 0, 63, 105
1, 37575, Note_off_c, 0, 63, 105
1, 37611, Note_on_c, 0, 60, 102
1, 37695, Note_off_c, 0, 60, 102
1, 37700, Note_on_c, 0, 61, 106
1, 37781, Note_off_c, 0, 61, 106
1, 37797, Note_on_c, 0, 62, 107
1, 37875, Note_off_c, 0, 62, 107
1, 37880, Note_on_c, 0, 58, 113
1, 37961, Note_off_c, 0, 58, 113
1, 37972, Note_on_c, 0, 57, 104
1, 38053, Note_off_c, 0, 57, 104
1, 38078, Note_on_c, 0, 55, 98
1, 38142, Note_off_c, 0, 55, 98
1, 38147, Note_on_c, 0, 60, 114
1, 38257, Note_off_c, 0, 60, 114
1, 38268, Note_on_c, 0, 58, 115
1, 38341, Note_off_c, 0, 58, 115
1, 38355, Note_on_c, 0, 57, 102
1, 38425, Note_off_c, 0, 57, 102
1, 38444, Note_on_c, 0, 58, 97
1, 38500, Note_off_c, 0, 58, 97
1, 38516, Note_on_c, 0, 59, 108
1, 38654, Note_off_c, 0, 59, 108
1, 38662, Note_on_c, 0, 62, 92
1, 38698, Note_on_c, 0, 65, 118
1, 38698, Note_off_c, 0, 62, 92
1, 38827, Note_off_c, 0, 65, 118
1, 38831, Note_on_c, 0, 66, 119
1, 38879, Note_off_c, 0, 66, 119
1, 38879, Note_on_c, 0, 67, 109
1, 39084, Note_off_c, 0, 67, 109
1, 39089, Note_on_c, 0, 66, 109
1, 39219, Note_off_c, 0, 66, 109
1, 39287, Note_on_c, 0, 65, 118
1, 39391, Note_off_c, 0, 65, 118
1, 39413, Note_on_c, 0, 62, 109
1, 39509, Note_off_c, 0, 62, 109
1, 39850, Note_on_c, 0, 66, 106
1, 39898, Note_off_c, 0, 66, 106
1, 39910, Note_on_c, 0, 67, 99
1, 40208, Note_off_c, 0, 67, 99
1, 40214, Note_on_c, 0, 65, 112
1, 40342, Note_off_c, 0, 65, 112
1, 40444, Note_on_c, 0, 63, 103
1, 40484, Note_off_c, 0, 63, 103
1, 40486, Note_on_c, 0, 64, 34
1, 40626, Note_off_c, 0, 64, 34
1, 40628, Note_on_c, 0, 62, 108
1, 40758, Note_off_c, 0, 62, 108
1, 40828, Note_on_c, 0, 60, 103
1, 41002, Note_off_c, 0, 60, 103
1, 41014, Note_on_c, 0, 59, 103
1, 41156, Note_off_c, 0, 59, 103
1, 41218, Note_on_c, 0, 56, 98
1, 41240, Note_off_c, 0, 56, 98
1, 41250, Note_on_c, 0, 57, 99
1, 41378, Note_off_c, 0, 57, 99
1, 41384, Note_on_c, 0, 55, 105
1, 41516, Note_off_c, 0, 55, 105
1, 41734, Note_on_c, 0, 57, 108
1, 41759, Note_off_c, 0, 57, 108
1, 41767, Note_on_c, 0, 55, 100
1, 41789, Note_off_c, 0, 55, 100
1, 41790, Note_on_c, 0, 53, 99
1, 41856, Note_off_c, 0, 53, 99
1, 41902, Note_on_c, 0, 55, 110
1, 41974, Note_off_c, 0, 55, 110
1, 41990, Note_on_c, 0, 58, 113
1, 42078, Note_off_c, 0, 58, 113
1, 42086, Note_on_c, 0, 62, 116
1, 42158, Note_off_c, 0, 62, 116
1, 42178, Note_on_c, 0, 57, 102
1, 42278, Note_off_c, 0, 57, 102
1, 42284, Note_on_c, 0, 55, 94
1, 42340, Note_on_c, 0, 60, 117
1, 42340, Note_off_c, 0, 55, 94
1, 42448, Note_off_c, 0, 60, 117
1, 42454, Note_on_c, 0, 59, 108
1, 42544, Note_off_c, 0, 59, 108
1, 42562, Note_on_c, 0, 58, 107
1, 42660, Note_off_c, 0, 58, 107
1, 42668, Note_on_c, 0, 60, 107
1, 42738, Note_off_c, 0, 60, 107
1, 42776, Note_on_c, 0, 55, 95
1, 42843, Note_off_c, 0, 55, 95
1, 42861, Note_on_c, 0, 56, 106
1, 42921, Note_off_c, 0, 56, 106
1, 42935, Note_on_c, 0, 57, 96
1, 43027, Note_off_c, 0, 57, 96
1, 43033, Note_on_c, 0, 60, 89
1, 43081, Note_off_c, 0, 60, 89
1, 43093, Note_on_c, 0, 62, 104
1, 43217, Note_off_c, 0, 62, 104
1, 43227, Note_on_c, 0, 60, 98
1, 43269, Note_off_c, 0, 60, 98
1, 43279, Note_on_c, 0, 65, 122
1, 43397, Note_off_c, 0, 65, 122
1, 43491, Note_on_c, 0, 67, 115
1, 43619, Note_off_c, 0, 67, 115
1, 43659, Note_on_c, 0, 69, 121
1, 43755, Note_off_c, 0, 69, 121
1, 43795, Note_on_c, 0, 71, 112
1, 43837, Note_off_c, 0, 71, 112
1, 43843, Note_on_c, 0, 72, 107
1, 44039, Note_off_c, 0, 72, 107
1, 44057, Note_on_c, 0, 69, 115
1, 44145, Note_off_c, 0, 69, 115
1, 44195, Note_on_c, 0, 60, 96
1, 44558, Note_off_c, 0, 60, 96
1, 44718, Note_on_c, 0, 69, 118
1, 44800, Note_off_c, 0, 69, 118
1, 44814, Note_on_c, 0, 70, 113
1, 44890, Note_off_c, 0, 70, 113
1, 44904, Note_on_c, 0, 69, 120
1, 45016, Note_off_c, 0, 69, 120
1, 45030, Note_on_c, 0, 67, 105
1, 45096, Note_off_c, 0, 67, 105
1, 45104, Note_on_c, 0, 65, 111
1, 45182, Note_off_c, 0, 65, 111
1, 45190, Note_on_c, 0, 64, 106
1, 45274, Note_off_c, 0, 64, 106
1, 45294, Note_on_c, 0, 62, 104
1, 45372, Note_off_c, 0, 62, 104
1, 45380, Note_on_c, 0, 61, 97
1, 45478, Note_off_c, 0, 61, 97
1, 45486, Note_on_c, 0, 64, 105
1, 45546, Note_off_c, 0, 64, 105
1, 45556, Note_on_c, 0, 67, 98
1, 45646, Note_off_c, 0, 67, 98
1, 45712, Note_on_c, 0, 70, 95
1, 45748, Note_off_c, 0, 70, 95
1, 45766, Note_on_c, 0, 72, 112
1, 45862, Note_off_c, 0, 72, 112
1, 45872, Note_on_c, 0, 74, 111
1, 45890, Note_off_c, 0, 74, 111
1, 45906, Note_on_c, 0, 72, 112
1, 45950, Note_off_c, 0, 72, 112
1, 45960, Note_on_c, 0, 70, 113
1, 46034, Note_off_c, 0, 70, 113
1, 46050, Note_on_c, 0, 72, 102
1, 46070, Note_off_c, 0, 72, 102
1, 46080, Note_on_c, 0, 70, 112
1, 46132, Note_off_c, 0, 70, 112
1, 46132, Note_on_c, 0, 69, 116
1, 46238, Note_off_c, 0, 69, 116
1, 46258, Note_on_c, 0, 65, 110
1, 46342, Note_off_c, 0, 65, 110
1, 46342, Note_on_c, 0, 61, 103
1, 46448, Note_off_c, 0, 61, 103
1, 46510, Note_on_c, 0, 64, 108
1, 46646, Note_off_c, 0, 64, 108
1, 46660, Note_on_c, 0, 61, 100
1, 46704, Note_off_c, 0, 61, 100
1, 46718, Note_on_c, 0, 62, 104
1, 46812, Note_off_c, 0, 62, 104
1, 46846, Note_on_c, 0, 65, 117
1, 46986, Note_off_c, 0, 65, 117
1, 47353, Note_on_c, 0, 70, 95
1, 47399, Note_off_c, 0, 70, 95
1, 47401, Note_on_c, 0, 69, 124
1, 47465, Note_off_c, 0, 69, 124
1, 47475, Note_on_c, 0, 68, 124
1, 47531, Note_off_c, 0, 68, 124
1, 47567, Note_on_c, 0, 72, 118
1, 47641, Note_off_c, 0, 72, 118
1, 47731, Note_on_c, 0, 67, 117
1, 47785, Note_off_c, 0, 67, 117
1, 47795, Note_on_c, 0, 66, 113
1, 47855, Note_off_c, 0, 66, 113
1, 47867, Note_on_c, 0, 65, 104
1, 47909, Note_off_c, 0, 65, 104
1, 47945, Note_on_c, 0, 58, 107
1, 48021, Note_off_c, 0, 58, 107
1, 48115, Note_on_c, 0, 69, 117
1, 48175, Note_off_c, 0, 69, 117
1, 48177, Note_on_c, 0, 68, 115
1, 48233, Note_off_c, 0, 68, 115
1, 48233, Note_on_c, 0, 67, 111
1, 48293, Note_off_c, 0, 67, 111
1, 48343, Note_on_c, 0, 71, 106
1, 48419, Note_off_c, 0, 71, 106
1, 48525, Note_on_c, 0, 66, 108
1, 48569, Note_off_c, 0, 66, 108
1, 48591, Note_on_c, 0, 64, 103
1, 48643, Note_off_c, 0, 64, 103
1, 48691, Note_on_c, 0, 57, 96
1, 48763, Note_off_c, 0, 57, 96
1, 49051, Note_on_c, 0, 60, 102
1, 49083, Note_off_c, 0, 60, 102
1, 49089, Note_on_c, 0, 59, 107
1, 49115, Note_off_c, 0, 59, 107
1, 49127, Note_on_c, 0, 58, 102
1, 49199, Note_off_c, 0, 58, 102
1, 49251, Note_on_c, 0, 57, 106
1, 49305, Note_off_c, 0, 57, 106
1, 49309, Note_on_c, 0, 55, 99
1, 49427, Note_off_c, 0, 55, 99
1, 49455, Note_on_c, 0, 53, 100
1, 49521, Note_off_c, 0, 53, 100
1, 49525, Note_on_c, 0, 54, 93
1, 49623, Note_off_c, 0, 54, 93
1, 49638, Note_on_c, 0, 63, 106
1, 49706, Note_off_c, 0, 63, 106
1, 49726, Note_on_c, 0, 60, 102
1, 49806, Note_off_c, 0, 60, 102
1, 49830, Note_on_c, 0, 61, 106
1, 49900, Note_off_c, 0, 61, 106
1, 49904, Note_on_c, 0, 62, 108
1, 49986, Note_off_c, 0, 62, 108
1, 50022, Note_on_c, 0, 58, 110
1, 50110, Note_off_c, 0, 58, 110
1, 50112, Note_on_c, 0, 57, 99
1, 50178, Note_off_c, 0, 57, 99
1, 50198, Note_on_c, 0, 55, 96
1, 50266, Note_off_c, 0, 55, 96
1, 50288, Note_on_c, 0, 60, 107
1, 50390, Note_off_c, 0, 60, 107
1, 50406, Note_on_c, 0, 58, 112
1, 50496, Note_off_c, 0, 58, 112
1, 50506, Note_on_c, 0, 59, 100
1, 50568, Note_off_c, 0, 59, 100
1, 50576, Note_on_c, 0, 61, 103
1, 50646, Note_off_c, 0, 61, 103
1, 50650, Note_on_c, 0, 62, 102
1, 50728, Note_off_c, 0, 62, 102
1, 50768, Note_on_c, 0, 64, 107
1, 50846, Note_off_c, 0, 64, 107
1, 50854, Note_on_c, 0, 65, 104
1, 50946, Note_off_c, 0, 65, 104
1, 50962, Note_on_c, 0, 67, 97
1, 51034, Note_off_c, 0, 67, 97
1, 51048, Note_on_c, 0, 68, 119
1, 51136, Note_off_c, 0, 68, 119
1, 51146, Note_on_c, 0, 69, 124
1, 51228, Note_off_c, 0, 69, 124
1, 51240, Note_on_c, 0, 70, 116
1, 51332, Note_off_c, 0, 70, 116
1, 51346, Note_on_c, 0, 71, 100
1, 51402, Note_off_c, 0, 71, 100
1, 51422, Note_on_c, 0, 72, 115
1, 51522, Note_off_c, 0, 72, 115
1, 51556, Note_on_c, 0, 62, 107
1, 51646, Note_off_c, 0, 62, 107
1, 52163, Note_on_c, 0, 67, 115
1, 52311, Note_off_c, 0, 67, 115
1, 52311, Note_on_c, 0, 70, 93
1, 52341, Note_off_c, 0, 70, 93
1, 52367, Note_on_c, 0, 74, 114
1, 52483, Note_off_c, 0, 74, 114
1, 52487, Note_on_c, 0, 66, 120
1, 52615, Note_off_c, 0, 66, 120
1, 52641, Note_on_c, 0, 70, 96
1, 52671, Note_off_c, 0, 70, 96
1, 52689, Note_on_c, 0, 74, 107
1, 52735, Note_off_c, 0, 74, 107
1, 52753, Note_on_c, 0, 65, 118
1, 52869, Note_off_c, 0, 65, 118
1, 52889, Note_on_c, 0, 70, 93
1, 52923, Note_off_c, 0, 70, 93
1, 52943, Note_on_c, 0, 74, 109
1, 53043, Note_off_c, 0, 74, 109
1, 53069, Note_on_c, 0, 62, 102
1, 53107, Note_off_c, 0, 62, 102
1, 53107, Note_on_c, 0, 64, 104
1, 53199, Note_off_c, 0, 64, 104
1, 53199, Note_on_c, 0, 68, 83
1, 53221, Note_off_c, 0, 68, 83
1, 53235, Note_on_c, 0, 74, 96
1, 53333, Note_off_c, 0, 74, 96
1, 53339, Note_on_c, 0, 69, 125
1, 53453, Note_off_c, 0, 69, 125
1, 53465, Note_on_c, 0, 67, 102
1, 53495, Note_off_c, 0, 67, 102
1, 53523, Note_on_c, 0, 72, 117
1, 53629, Note_off_c, 0, 72, 117
1, 53725, Note_on_c, 0, 69, 120
1, 53843, Note_off_c, 0, 69, 120
1, 53895, Note_on_c, 0, 76, 121
1, 54011, Note_off_c, 0, 76, 121
1, 54029, Note_on_c, 0, 68, 113
1, 54151, Note_off_c, 0, 68, 113
1, 54189, Note_on_c, 0, 76, 102
1, 54283, Note_off_c, 0, 76, 102
1, 54293, Note_on_c, 0, 67, 109
1, 54431, Note_off_c, 0, 67, 109
1, 54476, Note_on_c, 0, 76, 116
1, 54605, Note_off_c, 0, 76, 116
1, 54613, Note_on_c, 0, 66, 108
1, 54734, Note_off_c, 0, 66, 108
1, 54745, Note_on_c, 0, 72, 84
1, 54764, Note_off_c, 0, 72, 84
1, 54769, Note_on_c, 0, 76, 111
1, 54867, Note_off_c, 0, 76, 111
1, 54875, Note_on_c, 0, 71, 108
1, 54976, Note_off_c, 0, 71, 108
1, 54976, Note_on_c, 0, 69, 103
1, 55029, Note_off_c, 0, 69, 103
1, 55054, Note_on_c, 0, 74, 114
1, 55158, Note_off_c, 0, 74, 114
1, 55236, Note_on_c, 0, 67, 111
1, 55371, Note_off_c, 0, 67, 111
1, 55413, Note_on_c, 0, 74, 108
1, 55523, Note_off_c, 0, 74, 108
1, 55534, Note_on_c, 0, 66, 111
1, 55663, Note_off_c, 0, 66, 111
1, 55674, Note_on_c, 0, 70, 86
1, 55713, Note_off_c, 0, 70, 86
1, 55721, Note_on_c, 0, 74, 97
1, 55791, Note_off_c, 0, 74, 97
1, 55796, Note_on_c, 0, 65, 112
1, 55925, Note_off_c, 0, 65, 112
1, 55984, Note_on_c, 0, 74, 109
1, 56068, Note_off_c, 0, 74, 109
1, 56130, Note_on_c, 0, 64, 101
1, 56242, Note_off_c, 0, 64, 101
1, 56258, Note_on_c, 0, 67, 85
1, 56300, Note_off_c, 0, 67, 85
1, 56300, Note_on_c, 0, 74, 100
1, 56359, Note_off_c, 0, 74, 100
1, 56364, Note_on_c, 0, 69, 123
1, 56507, Note_off_c, 0, 69, 123
1, 56534, Note_on_c, 0, 67, 93
1, 56580, Note_off_c, 0, 67, 93
1, 56580, Note_on_c, 0, 72, 110
1, 56664, Note_off_c, 0, 72, 110
1, 56666, Note_on_c, 0, 70, 117
1, 56747, Note_off_c, 0, 70, 117
1, 56752, Note_on_c, 0, 69, 116
1, 56864, Note_off_c, 0, 69, 116
1, 56880, Note_on_c, 0, 65, 112
1, 56936, Note_off_c, 0, 65, 112
1, 56944, Note_on_c, 0, 62, 110
1, 57039, Note_off_c, 0, 62, 110
1, 57050, Note_on_c, 0, 60, 96
1, 57123, Note_off_c, 0, 60, 96
1, 57131, Note_on_c, 0, 67, 115
1, 57263, Note_off_c, 0, 67, 115
1, 57279, Note_on_c, 0, 62, 109
1, 57380, Note_off_c, 0, 62, 109
1, 57681, Note_on_c, 0, 70, 112
1, 57734, Note_off_c, 0, 70, 112
1, 57745, Note_on_c, 0, 72, 111
1, 58360, Note_off_c, 0, 72, 111
1, 58366, Note_on_c, 0, 71, 116
1, 58400, Note_off_c, 0, 71, 116
1, 58406, Note_on_c, 0, 70, 118
1, 58436, Note_off_c, 0, 70, 118
1, 58448, Note_on_c, 0, 69, 119
1, 58556, Note_off_c, 0, 69, 119
1, 58562, Note_on_c, 0, 65, 108
1, 58636, Note_off_c, 0, 65, 108
1, 58650, Note_on_c, 0, 62, 98
1, 58742, Note_off_c, 0, 62, 98
1, 58750, Note_on_c, 0, 60, 101
1, 58834, Note_off_c, 0, 60, 101
1, 58844, Note_on_c, 0, 67, 111
1, 58956, Note_off_c, 0, 67, 111
1, 58964, Note_on_c, 0, 62, 104
1, 59052, Note_off_c, 0, 62, 104
1, 59147, Note_on_c, 0, 70, 115
1, 59222, Note_off_c, 0, 70, 115
1, 59229, Note_on_c, 0, 71, 108
1, 59895, Note_off_c, 0, 71, 108
1, 59899, Note_on_c, 0, 69, 107
1, 59933, Note_off_c, 0, 69, 107
1, 59933, Note_on_c, 0, 68, 111
1, 59977, Note_off_c, 0, 68, 111
1, 59985, Note_on_c, 0, 67, 104
1, 60069, Note_off_c, 0, 67, 104
1, 60089, Note_on_c, 0, 64, 102
1, 60161, Note_off_c, 0, 64, 102
1, 60177, Note_on_c, 0, 62, 96
1, 60253, Note_off_c, 0, 62, 96
1, 60267, Note_on_c, 0, 59, 96
1, 60343, Note_off_c, 0, 59, 96
1, 60359, Note_on_c, 0, 60, 100
1, 60463, Note_off_c, 0, 60, 100
1, 60471, Note_on_c, 0, 61, 105
1, 60541, Note_off_c, 0, 61, 105
1, 60807, Note_on_c, 0, 57, 100
1, 60897, Note_off_c, 0, 57, 100
1, 60911, Note_on_c, 0, 59, 93
1, 61005, Note_off_c, 0, 59, 93
1, 61023, Note_on_c, 0, 61, 105
1, 61097, Note_off_c, 0, 61, 105
1, 61097, Note_on_c, 0, 64, 105
1, 61203, Note_off_c, 0, 64, 105
1, 61231, Note_on_c, 0, 61, 94
1, 61309, Note_off_c, 0, 61, 94
1, 61325, Note_on_c, 0, 62, 96
1, 61409, Note_off_c, 0, 62, 96
1, 61423, Note_on_c, 0, 64, 103
1, 61517, Note_off_c, 0, 64, 103
1, 61525, Note_on_c, 0, 65, 92
1, 61601, Note_off_c, 0, 65, 92
1, 61619, Note_on_c, 0, 67, 78
1, 61679, Note_off_c, 0, 67, 78
1, 61679, Note_on_c, 0, 69, 115
1, 61789, Note_off_c, 0, 69, 115
1, 61809, Note_on_c, 0, 65, 108
1, 61871, Note_on_c, 0, 61, 101
1, 61871, Note_off_c, 0, 65, 108
1, 62005, Note_off_c, 0, 61, 101
1, 62047, Note_on_c, 0, 64, 98
1, 62175, Note_off_c, 0, 64, 98
1, 62199, Note_on_c, 0, 61, 96
1, 62249, Note_off_c, 0, 61, 96
1, 62249, Note_on_c, 0, 62, 103
1, 62351, Note_off_c, 0, 62, 103
1, 62379, Note_on_c, 0, 65, 119
1, 62481, Note_off_c, 0, 65, 119
1, 62757, Note_on_c, 0, 69, 117
1, 62825, Note_off_c, 0, 69, 117
1, 62831, Note_on_c, 0, 70, 106
1, 62923, Note_off_c, 0, 70, 106
1, 62929, Note_on_c, 0, 69, 116
1, 63019, Note_off_c, 0, 69, 116
1, 63027, Note_on_c, 0, 68, 115
1, 63109, Note_off_c, 0, 68, 115
1, 63121, Note_on_c, 0, 72, 110
1, 63207, Note_off_c, 0, 72, 110
1, 63229, Note_on_c, 0, 67, 105
1, 63315, Note_off_c, 0, 67, 105
1, 63321, Note_on_c, 0, 65, 112
1, 63385, Note_off_c, 0, 65, 112
1, 63389, Note_on_c, 0, 64, 103
1, 63475, Note_off_c, 0, 64, 103
1, 63489, Note_on_c, 0, 62, 103
1, 63573, Note_off_c, 0, 62, 103
1, 63583, Note_on_c, 0, 61, 105
1, 63681, Note_off_c, 0, 61, 105
1, 63707, Note_on_c, 0, 58, 108
1, 63767, Note_off_c, 0, 58, 108
1, 63781, Note_on_c, 0, 57, 99
1, 63867, Note_off_c, 0, 57, 99
1, 63887, Note_on_c, 0, 55, 104
1, 63963, Note_off_c, 0, 55, 104
1, 63969, Note_on_c, 0, 54, 96
1, 64057, Note_off_c, 0, 54, 96
1, 64057, Note_on_c, 0, 57, 91
1, 64107, Note_off_c, 0, 57, 91
1, 64139, Note_on_c, 0, 60, 107
1, 64239, Note_off_c, 0, 60, 107
1, 64257, Note_on_c, 0, 63, 104
1, 64321, Note_off_c, 0, 63, 104
1, 64327, Note_on_c, 0, 62, 99
1, 64427, Note_off_c, 0, 62, 99
1, 64433, Note_on_c, 0, 58, 110
1, 64533, Note_off_c, 0, 58, 110
1, 64540, Note_on_c, 0, 57, 92
1, 64613, Note_off_c, 0, 57, 92
1, 64632, Note_on_c, 0, 55, 95
1, 64688, Note_off_c, 0, 55, 95
1, 64707, Note_on_c, 0, 60, 111
1, 64833, Note_off_c, 0, 60, 111
1, 64847, Note_on_c, 0, 57, 102
1, 64893, Note_off_c, 0, 57, 102
1, 64903, Note_on_c, 0, 58, 112
1, 65011, Note_off_c, 0, 58, 112
1, 65017, Note_on_c, 0, 65, 110
1, 65416, Note_off_c, 0, 65, 110
1, 65789, Note_on_c, 0, 58, 110
1, 65849, Note_off_c, 0, 58, 110
1, 65861, Note_on_c, 0, 59, 92
1, 65959, Note_off_c, 0, 59, 92
1, 66033, Note_on_c, 0, 65, 125
1, 66135, Note_off_c, 0, 65, 125
1, 66215, Note_on_c, 0, 68, 119
1, 66321, Note_off_c, 0, 68, 119
1, 66535, Note_on_c, 0, 59, 100
1, 66603, Note_off_c, 0, 59, 100
1, 66613, Note_on_c, 0, 60, 97
1, 66727, Note_off_c, 0, 60, 97
1, 66807, Note_on_c, 0, 67, 115
1, 66907, Note_off_c, 0, 67, 115
1, 66991, Note_on_c, 0, 69, 124
1, 67087, Note_off_c, 0, 69, 124
1, 67309, Note_on_c, 0, 60, 101
1, 67361, Note_off_c, 0, 60, 101
1, 67369, Note_on_c, 0, 62, 106
1, 67467, Note_off_c, 0, 62, 106
1, 67485, Note_on_c, 0, 65, 99
1, 67549, Note_off_c, 0, 65, 99
1, 67565, Note_on_c, 0, 69, 126
1, 67651, Note_off_c, 0, 69, 126
1, 67775, Note_on_c, 0, 72, 102
1, 67865, Note_off_c, 0, 72, 102
1, 67947, Note_on_c, 0, 69, 120
1, 68057, Note_off_c, 0, 69, 120
1, 68173, Note_on_c, 0, 60, 111
1, 68247, Note_off_c, 0, 60, 111
1, 68259, Note_on_c, 0, 65, 97
1, 68323, Note_off_c, 0, 65, 97
1, 68333, Note_on_c, 0, 69, 121
1, 68425, Note_off_c, 0, 69, 121
1, 68493, Note_on_c, 0, 70, 113
1, 68541, Note_off_c, 0, 70, 113
1, 68545, Note_on_c, 0, 71, 107
1, 68633, Note_off_c, 0, 71, 107
1, 68633, Note_on_c, 0, 72, 106
1, 68673, Note_off_c, 0, 72, 106
1, 68677, Note_on_c, 0, 71, 110
1, 68721, Note_off_c, 0, 71, 110
1, 68727, Note_on_c, 0, 69, 120
1, 68837, Note_off_c, 0, 69, 120
1, 68841, Note_on_c, 0, 68, 117
1, 68923, Note_off_c, 0, 68, 117
1, 68931, Note_on_c, 0, 67, 104
1, 69037, Note_off_c, 0, 67, 104
1, 69043, Note_on_c, 0, 66, 109
1, 69109, Note_off_c, 0, 66, 109
1, 69119, Note_on_c, 0, 65, 107
1, 69195, Note_off_c, 0, 65, 107
1, 69195, Note_on_c, 0, 61, 100
1, 69289, Note_off_c, 0, 61, 100
1, 69295, Note_on_c, 0, 58, 99
1, 69389, Note_off_c, 0, 58, 99
1, 69403, Note_on_c, 0, 55, 94
1, 69441, Note_off_c, 0, 55, 94
1, 69470, Note_on_c, 0, 60, 108
1, 69585, Note_off_c, 0, 60, 108
1, 69608, Note_on_c, 0, 58, 109
1, 69678, Note_off_c, 0, 58, 109
1, 69680, Note_on_c, 0, 57, 95
1, 69784, Note_off_c, 0, 57, 95
1, 69844, Note_on_c, 0, 62, 107
1, 69946, Note_off_c, 0, 62, 107
1, 69976, Note_on_c, 0, 65, 92
1, 70020, Note_off_c, 0, 65, 92
1, 70030, Note_on_c, 0, 69, 116
1, 70164, Note_off_c, 0, 69, 116
1, 70174, Note_on_c, 0, 71, 93
1, 70218, Note_off_c, 0, 71, 93
1, 70232, Note_on_c, 0, 72, 117
1, 70288, Note_off_c, 0, 72, 117
1, 70297, Note_on_c, 0, 74, 108
1, 70334, Note_off_c, 0, 74, 108
1, 70341, Note_on_c, 0, 75, 111
1, 70411, Note_off_c, 0, 75, 111
1, 70423, Note_on_c, 0, 76, 114
1, 70996, Note_off_c, 0, 76, 114
1, 71002, Note_on_c, 0, 74, 110
1, 71110, Note_off_c, 0, 74, 110
1, 71126, Note_on_c, 0, 73, 114
1, 71196, Note_off_c, 0, 73, 114
1, 71210, Note_on_c, 0, 72, 113
1, 71300, Note_off_c, 0, 72, 113
1, 71314, Note_on_c, 0, 69, 123
1, 71416, Note_off_c, 0, 69, 123
1, 71863, Note_on_c, 0, 69, 118
1, 71963, Note_off_c, 0, 69, 118
1, 71981, Note_on_c, 0, 70, 98
1, 72039, Note_off_c, 0, 70, 98
1, 72061, Note_on_c, 0, 69, 116
1, 72149, Note_off_c, 0, 69, 116
1, 72159, Note_on_c, 0, 68, 99
1, 72215, Note_off_c, 0, 68, 99
1, 72233, Note_on_c, 0, 69, 115
1, 72329, Note_off_c, 0, 69, 115
1, 72337, Note_on_c, 0, 70, 108
1, 72417, Note_off_c, 0, 70, 108
1, 72427, Note_on_c, 0, 69, 121
1, 72529, Note_off_c, 0, 69, 121
1, 72537, Note_on_c, 0, 68, 111
1, 72613, Note_off_c, 0, 68, 111
1, 72625, Note_on_c, 0, 69, 116
1, 72715, Note_off_c, 0, 69, 116
1, 72727, Note_on_c, 0, 70, 113
1, 72809, Note_off_c, 0, 70, 113
1, 72811, Note_on_c, 0, 69, 118
1, 72897, Note_off_c, 0, 69, 118
1, 72901, Note_on_c, 0, 68, 115
1, 72985, Note_off_c, 0, 68, 115
1, 73007, Note_on_c, 0, 69, 119
1, 73089, Note_off_c, 0, 69, 119
1, 73101, Note_on_c, 0, 70, 111
1, 73199, Note_off_c, 0, 70, 111
1, 73209, Note_on_c, 0, 69, 117
1, 73301, Note_off_c, 0, 69, 117
1, 73319, Note_on_c, 0, 67, 105
1, 73389, Note_off_c, 0, 67, 105
1, 73399, Note_on_c, 0, 66, 107
1, 73473, Note_off_c, 0, 66, 107
1, 73485, Note_on_c, 0, 65, 107
1, 73567, Note_off_c, 0, 65, 107
1, 73597, Note_on_c, 0, 61, 98
1, 73691, Note_off_c, 0, 61, 98
1, 73709, Note_on_c, 0, 57, 95
1, 73779, Note_off_c, 0, 57, 95
1, 73790, Note_on_c, 0, 61, 84
1, 73833, Note_off_c, 0, 61, 84
1, 73848, Note_on_c, 0, 64, 107
1, 73974, Note_off_c, 0, 64, 107
1, 73976, Note_on_c, 0, 61, 97
1, 74036, Note_off_c, 0, 61, 97
1, 74054, Note_on_c, 0, 62, 103
1, 74138, Note_off_c, 0, 62, 103
1, 74150, Note_on_c, 0, 64, 109
1, 74214, Note_off_c, 0, 64, 109
1, 74228, Note_on_c, 0, 65, 107
1, 74322, Note_off_c, 0, 65, 107
1, 74338, Note_on_c, 0, 67, 103
1, 74374, Note_off_c, 0, 67, 103
1, 74378, Note_on_c, 0, 65, 112
1, 74422, Note_off_c, 0, 65, 112
1, 74424, Note_on_c, 0, 64, 108
1, 74496, Note_off_c, 0, 64, 108
1, 74518, Note_on_c, 0, 63, 98
1, 74592, Note_off_c, 0, 63, 98
1, 74612, Note_on_c, 0, 62, 105
1, 74706, Note_off_c, 0, 62, 105
1, 74728, Note_on_c, 0, 57, 110
1, 74788, Note_off_c, 0, 57, 110
1, 75092, Note_on_c, 0, 57, 109
1, 75182, Note_off_c, 0, 57, 109
1, 75198, Note_on_c, 0, 56, 109
1, 75260, Note_off_c, 0, 56, 109
1, 75292, Note_on_c, 0, 66, 114
1, 75356, Note_off_c, 0, 66, 114
1, 75366, Note_on_c, 0, 67, 115
1, 75454, Note_off_c, 0, 67, 115
1, 75466, Note_on_c, 0, 68, 113
1, 75498, Note_off_c, 0, 68, 113
1, 75500, Note_on_c, 0, 67, 115
1, 75538, Note_off_c, 0, 67, 115
1, 75546, Note_on_c, 0, 65, 122
1, 75646, Note_off_c, 0, 65, 122
1, 75868, Note_on_c, 0, 57, 102
1, 75890, Note_off_c, 0, 57, 102
1, 75890, Note_on_c, 0, 56, 102
1, 75913, Note_off_c, 0, 56, 102
1, 75918, Note_on_c, 0, 55, 105
1, 75980, Note_off_c, 0, 55, 105
1, 76042, Note_on_c, 0, 65, 119
1, 76120, Note_off_c, 0, 65, 119
1, 76136, Note_on_c, 0, 66, 110
1, 76288, Note_off_c, 0, 66, 110
1, 76302, Note_on_c, 0, 64, 111
1, 76388, Note_off_c, 0, 64, 111
1, 76616, Note_on_c, 0, 57, 97
1, 76676, Note_off_c, 0, 57, 97
1, 76702, Note_on_c, 0, 60, 103
1, 76782, Note_off_c, 0, 60, 103
1, 76800, Note_on_c, 0, 59, 101
1, 76868, Note_off_c, 0, 59, 101
1, 76882, Note_on_c, 0, 58, 105
1, 76948, Note_off_c, 0, 58, 105
1, 76982, Note_on_c, 0, 57, 106
1, 77036, Note_off_c, 0, 57, 106
1, 77084, Note_on_c, 0, 55, 96
1, 77154, Note_off_c, 0, 55, 96
1, 77168, Note_on_c, 0, 54, 85
1, 77238, Note_off_c, 0, 54, 85
1, 77240, Note_on_c, 0, 57, 109
1, 77342, Note_off_c, 0, 57, 109
1, 77488, Note_on_c, 0, 55, 102
1, 77552, Note_off_c, 0, 55, 102
1, 77588, Note_on_c, 0, 60, 113
1, 77604, Note_off_c, 0, 60, 113
1, 77609, Note_on_c, 0, 62, 101
1, 77807, Note_off_c, 0, 62, 101
1, 78164, Note_on_c, 0, 55, 100
1, 78220, Note_off_c, 0, 55, 100
1, 78274, Note_on_c, 0, 59, 99
1, 78334, Note_off_c, 0, 59, 99
1, 78344, Note_on_c, 0, 62, 104
1, 78402, Note_off_c, 0, 62, 104
1, 78442, Note_on_c, 0, 67, 116
1, 78540, Note_off_c, 0, 67, 116
1, 78563, Note_on_c, 0, 64, 93
1, 78608, Note_off_c, 0, 64, 93
1, 78618, Note_on_c, 0, 65, 117
1, 78730, Note_off_c, 0, 65, 117
1, 78746, Note_on_c, 0, 72, 100
1, 79135, Note_off_c, 0, 72, 100
1, 79494, Note_on_c, 0, 69, 124
1, 79540, Note_off_c, 0, 69, 124
1, 79562, Note_on_c, 0, 70, 120
1, 79652, Note_off_c, 0, 70, 120
1, 79672, Note_on_c, 0, 69, 123
1, 79704, Note_off_c, 0, 69, 123
1, 79712, Note_on_c, 0, 67, 113
1, 79752, Note_off_c, 0, 67, 113
1, 79760, Note_on_c, 0, 66, 113
1, 79850, Note_off_c, 0, 66, 113
1, 79868, Note_on_c, 0, 69, 117
1, 79968, Note_off_c, 0, 69, 117
1, 79974, Note_on_c, 0, 67, 117
1, 80054, Note_off_c, 0, 67, 117
1, 80056, Note_on_c, 0, 69, 118
1, 80138, Note_off_c, 0, 69, 118
1, 80158, Note_on_c, 0, 70, 119
1, 80252, Note_off_c, 0, 70, 119
1, 80258, Note_on_c, 0, 69, 118
1, 80286, Note_off_c, 0, 69, 118
1, 80294, Note_on_c, 0, 67, 118
1, 80322, Note_off_c, 0, 67, 118
1, 80340, Note_on_c, 0, 66, 115
1, 80416, Note_off_c, 0, 66, 115
1, 80432, Note_on_c, 0, 69, 109
1, 80538, Note_off_c, 0, 69, 109
1, 80550, Note_on_c, 0, 67, 117
1, 80624, Note_off_c, 0, 67, 117
1, 80640, Note_on_c, 0, 69, 121
1, 80724, Note_off_c, 0, 69, 121
1, 80742, Note_on_c, 0, 70, 119
1, 80816, Note_off_c, 0, 70, 119
1, 80822, Note_on_c, 0, 69, 102
1, 80850, Note_off_c, 0, 69, 102
1, 80850, Note_on_c, 0, 67, 115
1, 80882, Note_off_c, 0, 67, 115
1, 80904, Note_on_c, 0, 66, 113
1, 80980, Note_off_c, 0, 66, 113
1, 81022, Note_on_c, 0, 69, 110
1, 81084, Note_off_c, 0, 69, 110
1, 81100, Note_on_c, 0, 72, 116
1, 81184, Note_off_c, 0, 72, 116
1, 81198, Note_on_c, 0, 71, 110
1, 81242, Note_off_c, 0, 71, 110
1, 81246, Note_on_c, 0, 70, 117
1, 81286, Note_off_c, 0, 70, 117
1, 81294, Note_on_c, 0, 69, 119
1, 81380, Note_off_c, 0, 69, 119
1, 81402, Note_on_c, 0, 70, 117
1, 81490, Note_off_c, 0, 70, 117
1, 81502, Note_on_c, 0, 69, 118
1, 81592, Note_off_c, 0, 69, 118
1, 81600, Note_on_c, 0, 68, 114
1, 81642, Note_off_c, 0, 68, 114
1, 81646, Note_on_c, 0, 67, 112
1, 81686, Note_off_c, 0, 67, 112
1, 81690, Note_on_c, 0, 66, 114
1, 81768, Note_off_c, 0, 66, 114
1, 82000, Note_on_c, 0, 58, 95
1, 82044, Note_off_c, 0, 58, 95
1, 82058, Note_on_c, 0, 60, 108
1, 82168, Note_off_c, 0, 60, 108
1, 82172, Note_on_c, 0, 63, 107
1, 82246, Note_off_c, 0, 63, 107
1, 82264, Note_on_c, 0, 62, 105
1, 82340, Note_off_c, 0, 62, 105
1, 82346, Note_on_c, 0, 61, 108
1, 82420, Note_off_c, 0, 61, 108
1, 82442, Note_on_c, 0, 60, 108
1, 82520, Note_off_c, 0, 60, 108
1, 82530, Note_on_c, 0, 59, 105
1, 82616, Note_off_c, 0, 59, 105
1, 82624, Note_on_c, 0, 58, 99
1, 82742, Note_off_c, 0, 58, 99
1, 82766, Note_on_c, 0, 60, 104
1, 82810, Note_off_c, 0, 60, 104
1, 82824, Note_on_c, 0, 62, 111
1, 82932, Note_off_c, 0, 62, 111
1, 82996, Note_on_c, 0, 69, 127
1, 83114, Note_off_c, 0, 69, 127
1, 83144, Note_on_c, 0, 72, 100
1, 83178, Note_off_c, 0, 72, 100
1, 83196, Note_on_c, 0, 74, 116
1, 83354, Note_off_c, 0, 74, 116
1, 83372, Note_on_c, 0, 75, 115
1, 83596, Note_off_c, 0, 75, 115
1, 83604, Note_on_c, 0, 74, 116
1, 83698, Note_off_c, 0, 74, 116
1, 83700, Note_on_c, 0, 73, 112
1, 83800, Note_off_c, 0, 73, 112
1, 83806, Note_on_c, 0, 72, 117
1, 83878, Note_off_c, 0, 72, 117
1, 83886, Note_on_c, 0, 68, 120
1, 83958, Note_off_c, 0, 68, 120
1, 83974, Note_on_c, 0, 64, 109
1, 84046, Note_off_c, 0, 64, 109
1, 84060, Note_on_c, 0, 62, 105
1, 84128, Note_off_c, 0, 62, 105
1, 84152, Note_on_c, 0, 67, 116
1, 84266, Note_off_c, 0, 67, 116
1, 84290, Note_on_c, 0, 64, 105
1, 84332, Note_off_c, 0, 64, 105
1, 84346, Note_on_c, 0, 65, 113
1, 84474, Note_off_c, 0, 65, 113
1, 84482, Note_on_c, 0, 67, 96
1, 84516, Note_off_c, 0, 67, 96
1, 84536, Note_on_c, 0, 69, 125
1, 84638, Note_off_c, 0, 69, 125
1, 84638, Note_on_c, 0, 60, 119
1, 84736, Note_off_c, 0, 60, 119
1, 85024, Note_on_c, 0, 60, 114
1, 85100, Note_off_c, 0, 60, 114
1, 85112, Note_on_c, 0, 62, 102
1, 85152, Note_off_c, 0, 62, 102
1, 85166, Note_on_c, 0, 60, 108
1, 85234, Note_off_c, 0, 60, 108
1, 85236, Note_on_c, 0, 59, 105
1, 85300, Note_off_c, 0, 59, 105
1, 85306, Note_on_c, 0, 58, 113
1, 85384, Note_off_c, 0, 58, 113
1, 85392, Note_on_c, 0, 67, 117
1, 85484, Note_off_c, 0, 67, 117
1, 85492, Note_on_c, 0, 64, 110
1, 85588, Note_off_c, 0, 64, 110
1, 85614, Note_on_c, 0, 60, 95
1, 85652, Note_off_c, 0, 60, 95
1, 85658, Note_on_c, 0, 65, 123
1, 85772, Note_off_c, 0, 65, 123
1, 85772, End_track
0, 0, End_of_file
