0, 0, Header, 1, 1, 192
1, 0, Start_track
1, 0, Title_t, "Melody"
1, 0, Tempo, 257510
1, 0, Key_signature, -1, "major"
1, 0, Time_signature, 4, 2, 24, 8
1, 3457, Note_on_c, 0, 54, 113
1, 3517, Note_off_c, 0, 54, 113
1, 3559, Note_on_c, 0, 57, 116
1, 3595, Note_off_c, 0, 57, 116
1, 3601, Note_on_c, 0, 62, 108
1, 3637, Note_off_c, 0, 62, 108
1, 3658, Note_on_c, 0, 65, 114
1, 3727, Note_off_c, 0, 65, 114
1, 3754, Note_on_c, 0, 66, 116
1, 3836, Note_off_c, 0, 66, 116
1, 3851, Note_on_c, 0, 61, 110
1, 3917, Note_off_c, 0, 61, 110
1, 3935, Note_on_c, 0, 58, 107
1, 4014, Note_off_c, 0, 58, 107
1, 4020, Note_on_c, 0, 54, 106
1, 4096, Note_off_c, 0, 54, 106
1, 4105, Note_on_c, 0, 55, 98
1, 4171, Note_off_c, 0, 55, 98
1, 4226, Note_on_c, 0, 58, 98
1, 4262, Note_off_c, 0, 58, 98
1, 4316, Note_on_c, 0, 62, 115
1, 4385, Note_off_c, 0, 62, 115
1, 4412, Note_on_c, 0, 66, 126
1, 4485, Note_off_c, 0, 66, 126
1, 4503, Note_on_c, 0, 67, 121
1, 4588, Note_off_c, 0, 67, 121
1, 4603, Note_on_c, 0, 62, 107
1, 4660, Note_off_c, 0, 62, 107
1, 4660, Note_on_c, 0, 58, 117
1, 4737, Note_off_c, 0, 58, 117
1, 4791, Note_on_c, 0, 54, 110
1, 4860, Note_off_c, 0, 54, 110
1, 4875, Note_on_c, 0, 55, 106
1, 4937, Note_off_c, 0, 55, 106
1, 4962, Note_on_c, 0, 57, 106
1, 5037, Note_off_c, 0, 57, 106
1, 5049, Note_on_c, 0, 58, 102
1, 5139, Note_off_c, 0, 58, 102
1, 5162, Note_on_c, 0, 62, 110
1, 5207, Note_off_c, 0, 62, 110
1, 5213, Note_on_c, 0, 64, 111
1, 5267, Note_off_c, 0, 64, 111
1, 5286, Note_on_c, 0, 69, 122
1, 5389, Note_off_c, 0, 69, 122
1, 5399, Note_on_c, 0, 65, 112
1, 5466, Note_off_c, 0, 65, 112
1, 5468, Note_on_c, 0, 62, 104
1, 5532, Note_off_c, 0, 62, 104
1, 5564, Note_on_c, 0, 57, 103
1, 5615, Note_off_c, 0, 57, 103
1, 5625, Note_on_c, 0, 58, 106
1, 5713, Note_off_c, 0, 58, 106
1, 5725, Note_on_c, 0, 60, 110
1, 5783, Note_off_c, 0, 60, 110
1, 5910, Note_on_c, 0, 69, 122
1, 5979, Note_off_c, 0, 69, 122
1, 5989, Note_on_c, 0, 70, 121
1, 6097, Note_off_c, 0, 70, 121
1, 6103, Note_on_c, 0, 66, 118
1, 6170, Note_off_c, 0, 66, 118
1, 6172, Note_on_c, 0, 61, 109
1, 6265, Note_off_c, 0, 61, 109
1, 6327, Note_on_c, 0, 57, 103
1, 6391, Note_off_c, 0, 57, 103
1, 6397, Note_on_c, 0, 60, 108
1, 6444, Note_off_c, 0, 60, 108
1, 6448, Note_on_c, 0, 61, 109
1, 6489, Note_off_c, 0, 61, 109
1, 6499, Note_on_c, 0, 60, 108
1, 6540, Note_off_c, 0, 60, 108
1, 6540, Note_on_c, 0, 57, 114
1, 6628, Note_off_c, 0, 57, 114
1, 6653, Note_on_c, 0, 58, 91
1, 6748, Note_off_c, 0, 58, 91
1, 6776, Note_on_c, 0, 60, 106
1, 6840, Note_off_c, 0, 60, 106
1, 6865, Note_on_c, 0, 65, 114
1, 6942, Note_off_c, 0, 65, 114
1, 6959, Note_on_c, 0, 63, 106
1, 7045, Note_off_c, 0, 63, 106
1, 7062, Note_on_c, 0, 61, 105
1, 7116, Note_off_c, 0, 61, 105
1, 7130, Note_on_c, 0, 62, 105
1, 7218, Note_off_c, 0, 62, 105
1, 7233, Note_on_c, 0, 65, 100
1, 7297, Note_off_c, 0, 65, 100
1, 7322, Note_on_c, 0, 67, 117
1, 7415, Note_off_c, 0, 67, 117
1, 7423, Note_on_c, 0, 68, 123
1, 7498, Note_off_c, 0, 68, 123
1, 7502, Note_on_c, 0, 65, 104
1, 7582, Note_off_c, 0, 65, 104
1, 7629, Note_on_c, 0, 60, 104
1, 7700, Note_off_c, 0, 60, 104
1, 7704, Note_on_c, 0, 58, 103
1, 7788, Note_off_c, 0, 58, 103
1, 7798, Note_on_c, 0, 56, 101
1, 7869, Note_off_c, 0, 56, 101
1, 7879, Note_on_c, 0, 57, 104
1, 7952, Note_off_c, 0, 57, 104
1, 8090, Note_on_c, 0, 58, 97
1, 8172, Note_off_c, 0, 58, 97
1, 8178, Note_on_c, 0, 59, 104
1, 8253, Note_off_c, 0, 59, 104
1, 8272, Note_on_c, 0, 60, 103
1, 8349, Note_off_c, 0, 60, 103
1, 8387, Note_on_c, 0, 67, 113
1, 8462, Note_off_c, 0, 67, 113
1, 8472, Note_on_c, 0, 64, 100
1, 8567, Note_off_c, 0, 64, 100
1, 8575, Note_on_c, 0, 60, 98
1, 8629, Note_off_c, 0, 60, 98
1, 8659, Note_on_c, 0, 69, 126
1, 8715, Note_off_c, 0, 69, 126
1, 8732, Note_on_c, 0, 70, 116
1, 8773, Note_off_c, 0, 70, 116
1, 8775, Note_on_c, 0, 69, 118
1, 8831, Note_off_c, 0, 69, 118
1, 8843, Note_on_c, 0, 67, 116
1, 8944, Note_off_c, 0, 67, 116
1, 8946, Note_on_c, 0, 65, 113
1, 8991, Note_off_c, 0, 65, 113
1, 9003, Note_on_c, 0, 66, 116
1, 9074, Note_off_c, 0, 66, 116
1, 9138, Note_on_c, 0, 75, 117
1, 9228, Note_off_c, 0, 75, 117
1, 9232, Note_on_c, 0, 74, 117
1, 9309, Note_off_c, 0, 74, 117
1, 9319, Note_on_c, 0, 72, 119
1, 9396, Note_off_c, 0, 72, 119
1, 9396, Note_on_c, 0, 70, 115
1, 9467, Note_off_c, 0, 70, 115
1, 9510, Note_on_c, 0, 62, 105
1, 9574, Note_off_c, 0, 62, 105
1, 9591, Note_on_c, 0, 67, 106
1, 9679, Note_off_c, 0, 67, 106
1, 9700, Note_on_c, 0, 70, 118
1, 9775, Note_off_c, 0, 70, 118
1, 9824, Note_on_c, 0, 69, 96
1, 9886, Note_off_c, 0, 69, 96
1, 9922, Note_on_c, 0, 67, 96
1, 9982, Note_off_c, 0, 67, 96
1, 9990, Note_on_c, 0, 70, 116
1, 10052, Note_off_c, 0, 70, 116
1, 10071, Note_on_c, 0, 69, 85
1, 10131, Note_off_c, 0, 69, 85
1, 10154, Note_on_c, 0, 67, 101
1, 10238, Note_off_c, 0, 67, 101
1, 10255, Note_on_c, 0, 70, 117
1, 10348, Note_off_c, 0, 70, 117
1, 10356, Note_on_c, 0, 69, 102
1, 10405, Note_off_c, 0, 69, 102
1, 10446, Note_on_c, 0, 67, 100
1, 10519, Note_off_c, 0, 67, 100
1, 10557, Note_on_c, 0, 73, 104
1, 10621, Note_off_c, 0, 73, 104
1, 10654, Note_on_c, 0, 62, 84
1, 10702, Note_off_c, 0, 62, 84
1, 10721, Note_on_c, 0, 67, 102
1, 10810, Note_off_c, 0, 67, 102
1, 10811, Note_on_c, 0, 70, 116
1, 10893, Note_off_c, 0, 70, 116
1, 10908, Note_on_c, 0, 69, 98
1, 10983, Note_off_c, 0, 69, 98
1, 10989, Note_on_c, 0, 67, 92
1, 11060, Note_off_c, 0, 67, 92
1, 11083, Note_on_c, 0, 70, 114
1, 11167, Note_off_c, 0, 70, 114
1, 11175, Note_on_c, 0, 69, 101
1, 11224, Note_off_c, 0, 69, 101
1, 11234, Note_on_c, 0, 62, 99
1, 11275, Note_off_c, 0, 62, 99
1, 11275, Note_on_c, 0, 67, 99
1, 11348, Note_off_c, 0, 67, 99
1, 11386, Note_on_c, 0, 70, 119
1, 11457, Note_off_c, 0, 70, 119
1, 11474, Note_on_c, 0, 69, 100
1, 11534, Note_off_c, 0, 69, 100
1, 11557, Note_on_c, 0, 67, 80
1, 11630, Note_off_c, 0, 67, 80
1, 11649, Note_on_c, 0, 70, 114
1, 11726, Note_off_c, 0, 70, 114
1, 11728, Note_on_c, 0, 69, 106
1, 11782, Note_off_c, 0, 69, 106
1, 11816, Note_on_c, 0, 62, 102
1, 11867, Note_off_c, 0, 62, 102
1, 11873, Note_on_c, 0, 67, 102
1, 11924, Note_off_c, 0, 67, 102
1, 11930, Note_on_c, 0, 70, 94
1, 12010, Note_off_c, 0, 70, 94
1, 12020, Note_on_c, 0, 69, 102
1, 12113, Note_off_c, 0, 69, 102
1, 12128, Note_on_c, 0, 67, 92
1, 12203, Note_off_c, 0, 67, 92
1, 12237, Note_on_c, 0, 69, 116
1, 12321, Note_off_c, 0, 69, 116
1, 12327, Note_on_c, 0, 67, 111
1, 12400, Note_off_c, 0, 67, 111
1, 12415, Note_on_c, 0, 65, 105
1, 12492, Note_off_c, 0, 65, 105
1, 13009, Note_on_c, 0, 74, 123
1, 13099, Note_off_c, 0, 74, 123
1, 13107, Note_on_c, 0, 73, 124
1, 13184, Note_off_c, 0, 73, 124
1, 13194, Note_on_c, 0, 72, 123
1, 13289, Note_off_c, 0, 72, 123
1, 13297, Note_on_c, 0, 71, 118
1, 13379, Note_off_c, 0, 71, 118
1, 13379, Note_on_c, 0, 70, 115
1, 13443, Note_off_c, 0, 70, 115
1, 13479, Note_on_c, 0, 65, 105
1, 13541, Note_off_c, 0, 65, 105
1, 13551, Note_on_c, 0, 61, 97
1, 13644, Note_off_c, 0, 61, 97
1, 13652, Note_on_c, 0, 58, 98
1, 13712, Note_off_c, 0, 58, 98
1, 13753, Note_on_c, 0, 56, 97
1, 13893, Note_off_c, 0, 56, 97
1, 13912, Note_on_c, 0, 57, 96
1, 14078, Note_off_c, 0, 57, 96
1, 14101, Note_on_c, 0, 58, 110
1, 14194, Note_off_c, 0, 58, 110
1, 14213, Note_on_c, 0, 59, 101
1, 14280, Note_off_c, 0, 59, 101
1, 14284, Note_on_c, 0, 60, 104
1, 14405, Note_off_c, 0, 60, 104
1, 14420, Note_on_c, 0, 67, 109
1, 14523, Note_off_c, 0, 67, 109
1, 14548, Note_on_c, 0, 64, 88
1, 14625, Note_off_c, 0, 64, 88
1, 14637, Note_on_c, 0, 60, 95
1, 14708, Note_off_c, 0, 60, 95
1, 14731, Note_on_c, 0, 65, 104
1, 14806, Note_off_c, 0, 65, 104
1, 14816, Note_on_c, 0, 63, 103
1, 14857, Note_off_c, 0, 63, 103
1, 14876, Note_on_c, 0, 65, 96
1, 15122, Note_off_c, 0, 65, 96
1, 15381, Note_on_c, 0, 51, 111
1, 15469, Note_off_c, 0, 51, 111
1, 15510, Note_on_c, 0, 58, 103
1, 15574, Note_off_c, 0, 58, 103
1, 15591, Note_on_c, 0, 61, 113
1, 15660, Note_off_c, 0, 61, 113
1, 15660, Note_on_c, 0, 57, 113
1, 15748, Note_off_c, 0, 57, 113
1, 15782, Note_on_c, 0, 53, 98
1, 15838, Note_off_c, 0, 53, 98
1, 15859, Note_on_c, 0, 55, 110
1, 15936, Note_off_c, 0, 55, 110
1, 15959, Note_on_c, 0, 59, 104
1, 16021, Note_off_c, 0, 59, 104
1, 16042, Note_on_c, 0, 63, 110
1, 16132, Note_off_c, 0, 63, 110
1, 16164, Note_on_c, 0, 67, 115
1, 16228, Note_off_c, 0, 67, 115
1, 16236, Note_on_c, 0, 61, 105
1, 16324, Note_off_c, 0, 61, 105
1, 16336, Note_on_c, 0, 57, 97
1, 16400, Note_off_c, 0, 57, 97
1, 16421, Note_on_c, 0, 59, 109
1, 16505, Note_off_c, 0, 59, 109
1, 16533, Note_on_c, 0, 63, 114
1, 16600, Note_off_c, 0, 63, 114
1, 16617, Note_on_c, 0, 65, 111
1, 16699, Note_off_c, 0, 65, 111
1, 16733, Note_on_c, 0, 69, 122
1, 16810, Note_off_c, 0, 69, 122
1, 16816, Note_on_c, 0, 63, 101
1, 16902, Note_off_c, 0, 63, 101
1, 16908, Note_on_c, 0, 60, 94
1, 16977, Note_off_c, 0, 60, 94
1, 17007, Note_on_c, 0, 67, 114
1, 17056, Note_off_c, 0, 67, 114
1, 17060, Note_on_c, 0, 69, 110
1, 17085, Note_off_c, 0, 69, 110
1, 17085, Note_on_c, 0, 67, 111
1, 17130, Note_off_c, 0, 67, 111
1, 17130, Note_on_c, 0, 66, 108
1, 17197, Note_off_c, 0, 66, 108
1, 17212, Note_on_c, 0, 65, 103
1, 17309, Note_off_c, 0, 65, 103
1, 17319, Note_on_c, 0, 61, 107
1, 17375, Note_off_c, 0, 61, 107
1, 17385, Note_on_c, 0, 57, 96
1, 17495, Note_off_c, 0, 57, 96
1, 17611, Note_on_c, 0, 60, 102
1, 17684, Note_off_c, 0, 60, 102
1, 17692, Note_on_c, 0, 57, 95
1, 17752, Note_off_c, 0, 57, 95
1, 17764, Note_on_c, 0, 58, 94
1, 17861, Note_off_c, 0, 58, 94
1, 17891, Note_on_c, 0, 60, 92
1, 17947, Note_off_c, 0, 60, 92
1, 18079, Note_on_c, 0, 65, 99
1, 18139, Note_off_c, 0, 65, 99
1, 18151, Note_on_c, 0, 69, 124
1, 18283, Note_off_c, 0, 69, 124
1, 18283, Note_on_c, 0, 67, 121
1, 18350, Note_off_c, 0, 67, 121
1, 18663, Note_on_c, 0, 64, 107
1, 18723, Note_off_c, 0, 64, 107
1, 18738, Note_on_c, 0, 65, 109
1, 18772, Note_off_c, 0, 65, 109
1, 18787, Note_on_c, 0, 67, 98
1, 18832, Note_off_c, 0, 67, 98
1, 18836, Note_on_c, 0, 69, 106
1, 18905, Note_off_c, 0, 69, 106
1, 18922, Note_on_c, 0, 76, 118
1, 18963, Note_off_c, 0, 76, 118
1, 18979, Note_on_c, 0, 77, 124
1, 19038, Note_off_c, 0, 77, 124
1, 19046, Note_on_c, 0, 78, 122
1, 19104, Note_off_c, 0, 78, 122
1, 19106, Note_on_c, 0, 79, 127
1, 19207, Note_off_c, 0, 79, 127
1, 19207, Note_on_c, 0, 76, 111
1, 19295, Note_off_c, 0, 76, 111
1, 19295, Note_on_c, 0, 65, 105
1, 19392, Note_off_c, 0, 65, 105
1, 19404, Note_on_c, 0, 62, 105
1, 19451, Note_off_c, 0, 62, 105
1, 19463, Note_on_c, 0, 60, 99
1, 19517, Note_off_c, 0, 60, 99
1, 19541, Note_on_c, 0, 71, 109
1, 19610, Note_off_c, 0, 71, 109
1, 19631, Note_on_c, 0, 69, 116
1, 19700, Note_off_c, 0, 69, 116
1, 19710, Note_on_c, 0, 67, 112
1, 19792, Note_off_c, 0, 67, 112
1, 19804, Note_on_c, 0, 66, 110
1, 19901, Note_off_c, 0, 66, 110
1, 19907, Note_on_c, 0, 65, 108
1, 19987, Note_off_c, 0, 65, 108
1, 19995, Note_on_c, 0, 62, 101
1, 20070, Note_off_c, 0, 62, 101
1, 20082, Note_on_c, 0, 58, 104
1, 20153, Note_off_c, 0, 58, 104
1, 20279, Note_on_c, 0, 60, 115
1, 20315, Note_off_c, 0, 60, 115
1, 20322, Note_on_c, 0, 62, 103
1, 20352, Note_off_c, 0, 62, 103
1, 20365, Note_on_c, 0, 60, 96
1, 20407, Note_off_c, 0, 60, 96
1, 20428, Note_on_c, 0, 57, 102
1, 20505, Note_off_c, 0, 57, 102
1, 20513, Note_on_c, 0, 58, 98
1, 20584, Note_off_c, 0, 58, 98
1, 20588, Note_on_c, 0, 60, 99
1, 20648, Note_off_c, 0, 60, 99
1, 20660, Note_on_c, 0, 62, 92
1, 20735, Note_off_c, 0, 62, 92
1, 20741, Note_on_c, 0, 65, 89
1, 20818, Note_off_c, 0, 65, 89
1, 20826, Note_on_c, 0, 68, 108
1, 20871, Note_off_c, 0, 68, 108
1, 20883, Note_on_c, 0, 69, 118
1, 20982, Note_off_c, 0, 69, 118
1, 20988, Note_on_c, 0, 72, 101
1, 21219, Note_off_c, 0, 72, 101
1, 21634, Note_on_c, 0, 72, 116
1, 21705, Note_off_c, 0, 72, 116
1, 21726, Note_on_c, 0, 72, 97
1, 21799, Note_off_c, 0, 72, 97
1, 21811, Note_on_c, 0, 72, 97
1, 21888, Note_off_c, 0, 72, 97
1, 21922, Note_on_c, 0, 71, 119
1, 21989, Note_off_c, 0, 71, 119
1, 21993, Note_on_c, 0, 72, 99
1, 22150, Note_off_c, 0, 72, 99
1, 22199, Note_on_c, 0, 72, 102
1, 22270, Note_off_c, 0, 72, 102
1, 22278, Note_on_c, 0, 72, 97
1, 22349, Note_off_c, 0, 72, 97
1, 22364, Note_on_c, 0, 72, 100
1, 22463, Note_off_c, 0, 72, 100
1, 22484, Note_on_c, 0, 71, 121
1, 22531, Note_off_c, 0, 71, 121
1, 22542, Note_on_c, 0, 72, 106
1, 22703, Note_off_c, 0, 72, 106
1, 22733, Note_on_c, 0, 72, 101
1, 22810, Note_off_c, 0, 72, 101
1, 22831, Note_on_c, 0, 72, 97
1, 22913, Note_off_c, 0, 72, 97
1, 22925, Note_on_c, 0, 72, 96
1, 23022, Note_off_c, 0, 72, 96
1, 23065, Note_on_c, 0, 71, 119
1, 23168, Note_off_c, 0, 71, 119
1, 23180, Note_on_c, 0, 72, 113
1, 23299, Note_off_c, 0, 72, 113
1, 23332, Note_on_c, 0, 71, 114
1, 23406, Note_off_c, 0, 71, 114
1, 23416, Note_on_c, 0, 72, 110
1, 23479, Note_off_c, 0, 72, 110
1, 23497, Note_on_c, 0, 72, 103
1, 23535, Note_off_c, 0, 72, 103
1, 23543, Note_on_c, 0, 68, 107
1, 23603, Note_off_c, 0, 68, 107
1, 23615, Note_on_c, 0, 65, 108
1, 23679, Note_off_c, 0, 65, 108
1, 23698, Note_on_c, 0, 60, 100
1, 23841, Note_off_c, 0, 60, 100
1, 23877, Note_on_c, 0, 67, 111
1, 23992, Note_off_c, 0, 67, 111
1, 24007, Note_on_c, 0, 65, 103
1, 24066, Note_off_c, 0, 65, 103
1, 24082, Note_on_c, 0, 62, 94
1, 24145, Note_off_c, 0, 62, 94
1, 24173, Note_on_c, 0, 58, 105
1, 24358, Note_off_c, 0, 58, 105
1, 24432, Note_on_c, 0, 60, 110
1, 24524, Note_off_c, 0, 60, 110
1, 24533, Note_on_c, 0, 58, 106
1, 24596, Note_off_c, 0, 58, 106
1, 24612, Note_on_c, 0, 57, 104
1, 24732, Note_off_c, 0, 57, 104
1, 24747, Note_on_c, 0, 60, 97
1, 24795, Note_off_c, 0, 60, 97
1, 24805, Note_on_c, 0, 62, 99
1, 24919, Note_off_c, 0, 62, 99
1, 24929, Note_on_c, 0, 60, 93
1, 24983, Note_off_c, 0, 60, 93
1, 25011, Note_on_c, 0, 65, 113
1, 25091, Note_off_c, 0, 65, 113
1, 25114, Note_on_c, 0, 63, 114
1, 25185, Note_off_c, 0, 63, 114
1, 25197, Note_on_c, 0, 62, 98
1, 25290, Note_off_c, 0, 62, 98
1, 25298, Note_on_c, 0, 60, 102
1, 25367, Note_off_c, 0, 60, 102
1, 25373, Note_on_c, 0, 58, 100
1, 25453, Note_off_c, 0, 58, 100
1, 25502, Note_on_c, 0, 62, 94
1, 25560, Note_off_c, 0, 62, 94
1, 25575, Note_on_c, 0, 67, 118
1, 25691, Note_off_c, 0, 67, 118
1, 25699, Note_on_c, 0, 68, 119
1, 25763, Note_off_c, 0, 68, 119
1, 25763, Note_on_c, 0, 65, 109
1, 25836, Note_off_c, 0, 65, 109
1, 25855, Note_on_c, 0, 61, 107
1, 25930, Note_off_c, 0, 61, 107
1, 25942, Note_on_c, 0, 58, 106
1, 26006, Note_off_c, 0, 58, 106
1, 26018, Note_on_c, 0, 56, 103
1, 26109, Note_off_c, 0, 56, 103
1, 26118, Note_on_c, 0, 57, 100
1, 26215, Note_off_c, 0, 57, 100
1, 26327, Note_on_c, 0, 58, 100
1, 26430, Note_off_c, 0, 58, 100
1, 26453, Note_on_c, 0, 60, 99
1, 26522, Note_off_c, 0, 60, 99
1, 26635, Note_on_c, 0, 67, 114
1, 26689, Note_off_c, 0, 67, 114
1, 26701, Note_on_c, 0, 69, 113
1, 27125, Note_off_c, 0, 69, 113
1, 27131, Note_on_c, 0, 70, 110
1, 27176, Note_off_c, 0, 70, 110
1, 27186, Note_on_c, 0, 69, 111
1, 27218, Note_off_c, 0, 69, 111
1, 27224, Note_on_c, 0, 67, 105
1, 27258, Note_off_c, 0, 67, 105
1, 27264, Note_on_c, 0, 66, 97
1, 27315, Note_off_c, 0, 66, 97
1, 27315, Note_on_c, 0, 63, 96
1, 27366, Note_off_c, 0, 63, 96
1, 27368, Note_on_c, 0, 62, 102
1, 27417, Note_off_c, 0, 62, 102
1, 27425, Note_on_c, 0, 60, 116
1, 27470, Note_off_c, 0, 60, 116
1, 27472, Note_on_c, 0, 58, 101
1, 27513, Note_off_c, 0, 58, 101
1, 27519, Note_on_c, 0, 57, 94
1, 27570, Note_off_c, 0, 57, 94
1, 27580, Note_on_c, 0, 56, 91
1, 27629, Note_off_c, 0, 56, 91
1, 27639, Note_on_c, 0, 55, 100
1, 27747, Note_off_c, 0, 55, 100
1, 27747, End_track
0, 0, End_of_file
