0, 0, Header, 1, 1, 192
1, 0, Start_track
1, 0, Title_t, "Melody"
1, 0, Tempo, 431654
1, 0, Key_signature, -3, "major"
1, 0, Time_signature, 4, 2, 24, 8
1, 2342, Note_on_c, 0, 75, 127
1, 2406, Note_off_c, 0, 75, 127
1, 2532, Note_on_c, 0, 73, 117
1, 2609, Note_off_c, 0, 73, 117
1, 2628, Note_on_c, 0, 70, 107
1, 2704, Note_off_c, 0, 70, 107
1, 2707, Note_on_c, 0, 68, 109
1, 2772, Note_off_c, 0, 68, 109
1, 2785, Note_on_c, 0, 66, 90
1, 2888, Note_off_c, 0, 66, 90
1, 2970, Note_on_c, 0, 62, 92
1, 3008, Note_off_c, 0, 62, 92
1, 3018, Note_on_c, 0, 63, 87
1, 3147, Note_off_c, 0, 63, 87
1, 3168, Note_on_c, 0, 63, 84
1, 3342, Note_off_c, 0, 63, 84
1, 3353, Note_on_c, 0, 63, 91
1, 3550, Note_off_c, 0, 63, 91
1, 3558, Note_on_c, 0, 66, 90
1, 3659, Note_off_c, 0, 66, 90
1, 3669, Note_on_c, 0, 63, 100
1, 3746, Note_off_c, 0, 63, 100
1, 3875, Note_on_c, 0, 71, 101
1, 3951, Note_off_c, 0, 71, 101
1, 3954, Note_on_c, 0, 72, 97
1, 4037, Note_off_c, 0, 72, 97
1, 4077, Note_on_c, 0, 70, 104
1, 4150, Note_off_c, 0, 70, 104
1, 4155, Note_on_c, 0, 67, 93
1, 4260, Note_off_c, 0, 67, 93
1, 4266, Note_on_c, 0, 63, 97
1, 4335, Note_off_c, 0, 63, 97
1, 4342, Note_on_c, 0, 60, 97
1, 4450, Note_off_c, 0, 60, 97
1, 4457, Note_on_c, 0, 58, 83
1, 4511, Note_off_c, 0, 58, 83
1, 4514, Note_on_c, 0, 63, 86
1, 4673, Note_off_c, 0, 63, 86
1, 4694, Note_on_c, 0, 63, 116
1, 4777, Note_off_c, 0, 63, 116
1, 5001, Note_on_c, 0, 63, 95
1, 5066, Note_off_c, 0, 63, 95
1, 5134, Note_on_c, 0, 67, 87
1, 5198, Note_off_c, 0, 67, 87
1, 5200, Note_on_c, 0, 72, 107
1, 5281, Note_off_c, 0, 72, 107
1, 5305, Note_on_c, 0, 72, 117
1, 5343, Note_off_c, 0, 72, 117
1, 5344, Note_on_c, 0, 73, 108
1, 5389, Note_off_c, 0, 73, 108
1, 5393, Note_on_c, 0, 72, 112
1, 5470, Note_off_c, 0, 72, 112
1, 5477, Note_on_c, 0, 70, 109
1, 5500, Note_off_c, 0, 70, 109
1, 5512, Note_on_c, 0, 72, 97
1, 5532, Note_off_c, 0, 72, 97
1, 5538, Note_on_c, 0, 70, 95
1, 5575, Note_off_c, 0, 70, 95
1, 5582, Note_on_c, 0, 67, 109
1, 5643, Note_off_c, 0, 67, 109
1, 5655, Note_on_c, 0, 63, 98
1, 5739, Note_off_c, 0, 63, 98
1, 5765, Note_on_c, 0, 60, 89
1, 5847, Note_off_c, 0, 60, 89
1, 5847, Note_on_c, 0, 63, 87
1, 6198, Note_off_c, 0, 63, 87
1, 6203, Note_on_c, 0, 63, 115
1, 6313, Note_off_c, 0, 63, 115
1, 6576, Note_on_c, 0, 56, 92
1, 6689, Note_off_c, 0, 56, 92
1, 6707, Note_on_c, 0, 58, 103
1, 6797, Note_off_c, 0, 58, 103
1, 6807, Note_on_c, 0, 60, 98
1, 6931, Note_off_c, 0, 60, 98
1, 6937, Note_on_c, 0, 63, 78
1, 6978, Note_off_c, 0, 63, 78
1, 6980, Note_on_c, 0, 65, 122
1, 7061, Note_off_c, 0, 65, 122
1, 7113, Note_on_c, 0, 66, 116
1, 7190, Note_off_c, 0, 66, 116
1, 7388, Note_on_c, 0, 57, 84
1, 7763, Note_off_c, 0, 57, 84
1, 7766, Note_on_c, 0, 58, 106
1, 7879, Note_off_c, 0, 58, 106
1, 8091, Note_on_c, 0, 58, 100
1, 8168, Note_off_c, 0, 58, 100
1, 8196, Note_on_c, 0, 60, 89
1, 8225, Note_off_c, 0, 60, 89
1, 8233, Note_on_c, 0, 63, 88
1, 8267, Note_off_c, 0, 63, 88
1, 8267, Note_on_c, 0, 67, 114
1, 8317, Note_off_c, 0, 67, 114
1, 8392, Note_on_c, 0, 68, 107
1, 8460, Note_off_c, 0, 68, 107
1, 8474, Note_on_c, 0, 67, 114
1, 8516, Note_off_c, 0, 67, 114
1, 8589, Note_on_c, 0, 68, 113
1, 8648, Note_off_c, 0, 68, 113
1, 8655, Note_on_c, 0, 67, 99
1, 8720, Note_off_c, 0, 67, 99
1, 8722, Note_on_c, 0, 68, 111
1, 8768, Note_off_c, 0, 68, 111
1, 8818, Note_on_c, 0, 67, 105
1, 8883, Note_off_c, 0, 67, 105
1, 8948, Note_on_c, 0, 68, 113
1, 9017, Note_off_c, 0, 68, 113
1, 9020, Note_on_c, 0, 67, 93
1, 9094, Note_off_c, 0, 67, 93
1, 9096, Note_on_c, 0, 68, 111
1, 9154, Note_off_c, 0, 68, 111
1, 9203, Note_on_c, 0, 67, 107
1, 9261, Note_off_c, 0, 67, 107
1, 9320, Note_on_c, 0, 68, 112
1, 9372, Note_off_c, 0, 68, 112
1, 9379, Note_on_c, 0, 67, 101
1, 9452, Note_off_c, 0, 67, 101
1, 9457, Note_on_c, 0, 68, 109
1, 9564, Note_off_c, 0, 68, 109
1, 9585, Note_on_c, 0, 70, 106
1, 9773, Note_off_c, 0, 70, 106
1, 9999, Note_on_c, 0, 58, 102
1, 10077, Note_off_c, 0, 58, 102
1, 10077, Note_on_c, 0, 60, 86
1, 10135, Note_off_c, 0, 60, 86
1, 10136, Note_on_c, 0, 63, 99
1, 10197, Note_on_c, 0, 66, 114
1, 10197, Note_off_c, 0, 63, 99
1, 10220, Note_off_c, 0, 66, 114
1, 10223, Note_on_c, 0, 67, 102
1, 10300, Note_off_c, 0, 67, 102
1, 10405, Note_on_c, 0, 66, 112
1, 10424, Note_off_c, 0, 66, 112
1, 10427, Note_on_c, 0, 67, 102
1, 10508, Note_off_c, 0, 67, 102
1, 10522, Note_on_c, 0, 63, 93
1, 10762, Note_off_c, 0, 63, 93
1, 10773, Note_on_c, 0, 61, 101
1, 10871, Note_off_c, 0, 61, 101
1, 10874, Note_on_c, 0, 60, 106
1, 10939, Note_off_c, 0, 60, 106
1, 10953, Note_on_c, 0, 58, 108
1, 11065, Note_off_c, 0, 58, 108
1, 11156, Note_on_c, 0, 58, 112
1, 11256, Note_off_c, 0, 58, 112
1, 11266, Note_on_c, 0, 57, 104
1, 11331, Note_off_c, 0, 57, 104
1, 11347, Note_on_c, 0, 56, 96
1, 11439, Note_off_c, 0, 56, 96
1, 11439, Note_on_c, 0, 58, 112
1, 11504, Note_off_c, 0, 58, 112
1, 11514, Note_on_c, 0, 60, 108
1, 11621, Note_off_c, 0, 60, 108
1, 11628, Note_on_c, 0, 63, 105
1, 11689, Note_off_c, 0, 63, 105
1, 11698, Note_on_c, 0, 66, 105
1, 11778, Note_off_c, 0, 66, 105
1, 11787, Note_on_c, 0, 67, 107
1, 11837, Note_off_c, 0, 67, 107
1, 11839, Note_on_c, 0, 70, 86
1, 11873, Note_off_c, 0, 70, 86
1, 11873, Note_on_c, 0, 72, 122
1, 12008, Note_off_c, 0, 72, 122
1, 12053, Note_on_c, 0, 75, 111
1, 12520, Note_off_c, 0, 75, 111
1, 12540, Note_on_c, 0, 72, 109
1, 12565, Note_off_c, 0, 72, 109
1, 12570, Note_on_c, 0, 73, 99
1, 12647, Note_off_c, 0, 73, 99
1, 12649, Note_on_c, 0, 70, 98
1, 12753, Note_off_c, 0, 70, 98
1, 13002, Note_on_c, 0, 75, 122
1, 13060, Note_off_c, 0, 75, 122
1, 13115, Note_on_c, 0, 73, 120
1, 13173, Note_off_c, 0, 73, 120
1, 13194, Note_on_c, 0, 70, 106
1, 13226, Note_off_c, 0, 70, 106
1, 13226, Note_on_c, 0, 68, 115
1, 13284, Note_off_c, 0, 68, 115
1, 13304, Note_on_c, 0, 66, 103
1, 13358, Note_off_c, 0, 66, 103
1, 13365, Note_on_c, 0, 63, 97
1, 13401, Note_off_c, 0, 63, 97
1, 13408, Note_on_c, 0, 61, 105
1, 13473, Note_off_c, 0, 61, 105
1, 13479, Note_on_c, 0, 58, 99
1, 13544, Note_off_c, 0, 58, 99
1, 13550, Note_on_c, 0, 56, 94
1, 13615, Note_off_c, 0, 56, 94
1, 13618, Note_on_c, 0, 54, 97
1, 13672, Note_off_c, 0, 54, 97
1, 13679, Note_on_c, 0, 55, 101
1, 13913, Note_off_c, 0, 55, 101
1, 13925, Note_on_c, 0, 63, 89
1, 14183, Note_off_c, 0, 63, 89
1, 14523, Note_on_c, 0, 58, 104
1, 14608, Note_off_c, 0, 58, 104
1, 14700, Note_on_c, 0, 68, 118
1, 14787, Note_off_c, 0, 68, 118
1, 14797, Note_on_c, 0, 67, 117
1, 14838, Note_off_c, 0, 67, 117
1, 14843, Note_on_c, 0, 68, 112
1, 14868, Note_on_c, 0, 67, 113
1, 14868, Note_off_c, 0, 68, 112
1, 14891, Note_off_c, 0, 67, 113
1, 14905, Note_on_c, 0, 65, 109
1, 14955, Note_off_c, 0, 65, 109
1, 14969, Note_on_c, 0, 63, 96
1, 15076, Note_off_c, 0, 63, 96
1, 15079, Note_on_c, 0, 61, 113
1, 15177, Note_off_c, 0, 61, 113
1, 15183, Note_on_c, 0, 60, 105
1, 15299, Note_off_c, 0, 60, 105
1, 15299, Note_on_c, 0, 56, 96
1, 15391, Note_off_c, 0, 56, 96
1, 15393, Note_on_c, 0, 55, 91
1, 15449, Note_off_c, 0, 55, 91
1, 15503, Note_on_c, 0, 53, 82
1, 15549, Note_off_c, 0, 53, 82
1, 15574, Note_on_c, 0, 58, 112
1, 15692, Note_off_c, 0, 58, 112
1, 15694, Note_on_c, 0, 55, 97
1, 15753, Note_off_c, 0, 55, 97
1, 15756, Note_on_c, 0, 56, 100
1, 15877, Note_off_c, 0, 56, 100
1, 15883, Note_on_c, 0, 57, 92
1, 16231, Note_off_c, 0, 57, 92
1, 16234, Note_on_c, 0, 59, 100
1, 16314, Note_off_c, 0, 59, 100
1, 16317, Note_on_c, 0, 60, 101
1, 16425, Note_off_c, 0, 60, 101
1, 16428, Note_on_c, 0, 66, 111
1, 16501, Note_off_c, 0, 66, 111
1, 16511, Note_on_c, 0, 62, 96
1, 16640, Note_on_c, 0, 58, 96
1, 16640, Note_off_c, 0, 62, 96
1, 16694, Note_off_c, 0, 58, 96
1, 16694, Note_on_c, 0, 65, 111
1, 16829, Note_off_c, 0, 65, 111
1, 16829, Note_on_c, 0, 62, 80
1, 16890, Note_off_c, 0, 62, 80
1, 16892, Note_on_c, 0, 63, 105
1, 16988, Note_off_c, 0, 63, 105
1, 16993, Note_on_c, 0, 68, 118
1, 17070, Note_off_c, 0, 68, 118
1, 17077, Note_on_c, 0, 66, 86
1, 17197, Note_off_c, 0, 66, 86
1, 17197, Note_on_c, 0, 67, 85
1, 17270, Note_off_c, 0, 67, 85
1, 17281, Note_on_c, 0, 72, 117
1, 17373, Note_off_c, 0, 72, 117
1, 17382, Note_on_c, 0, 69, 110
1, 17447, Note_off_c, 0, 69, 110
1, 17453, Note_on_c, 0, 70, 102
1, 17580, Note_off_c, 0, 70, 102
1, 17583, Note_on_c, 0, 62, 84
1, 17637, Note_off_c, 0, 62, 84
1, 17649, Note_on_c, 0, 63, 97
1, 17761, Note_off_c, 0, 63, 97
1, 17761, Note_on_c, 0, 68, 116
1, 17835, Note_off_c, 0, 68, 116
1, 17844, Note_on_c, 0, 67, 102
1, 17884, Note_off_c, 0, 67, 102
1, 17887, Note_on_c, 0, 68, 101
1, 17910, Note_off_c, 0, 68, 101
1, 17910, Note_on_c, 0, 67, 99
1, 17953, Note_off_c, 0, 67, 99
1, 17963, Note_on_c, 0, 64, 101
1, 18017, Note_off_c, 0, 64, 101
1, 18022, Note_on_c, 0, 61, 101
1, 18148, Note_off_c, 0, 61, 101
1, 18154, Note_on_c, 0, 58, 88
1, 18225, Note_off_c, 0, 58, 88
1, 18225, Note_on_c, 0, 67, 107
1, 18341, Note_off_c, 0, 67, 107
1, 18369, Note_on_c, 0, 58, 99
1, 18611, Note_off_c, 0, 58, 99
1, 18794, Note_on_c, 0, 58, 103
1, 18912, Note_off_c, 0, 58, 103
1, 18935, Note_on_c, 0, 60, 94
1, 18986, Note_off_c, 0, 60, 94
1, 18988, Note_on_c, 0, 63, 104
1, 19099, Note_off_c, 0, 63, 104
1, 19099, Note_on_c, 0, 66, 113
1, 19168, Note_off_c, 0, 66, 113
1, 19175, Note_on_c, 0, 65, 102
1, 19293, Note_off_c, 0, 65, 102
1, 19300, Note_on_c, 0, 60, 89
1, 19371, Note_off_c, 0, 60, 89
1, 19371, Note_on_c, 0, 66, 104
1, 19466, Note_off_c, 0, 66, 104
1, 19472, Note_on_c, 0, 65, 103
1, 19539, Note_off_c, 0, 65, 103
1, 19551, Note_on_c, 0, 60, 100
1, 19682, Note_off_c, 0, 60, 100
1, 19682, Note_on_c, 0, 66, 111
1, 19756, Note_off_c, 0, 66, 111
1, 19762, Note_on_c, 0, 65, 103
1, 19863, Note_off_c, 0, 65, 103
1, 19875, Note_on_c, 0, 60, 87
1, 19924, Note_off_c, 0, 60, 87
1, 19924, Note_on_c, 0, 66, 104
1, 20046, Note_off_c, 0, 66, 104
1, 20062, Note_on_c, 0, 65, 104
1, 20116, Note_off_c, 0, 65, 104
1, 20118, Note_on_c, 0, 60, 97
1, 20254, Note_off_c, 0, 60, 97
1, 20254, Note_on_c, 0, 66, 114
1, 20331, Note_off_c, 0, 66, 114
1, 20338, Note_on_c, 0, 65, 105
1, 20428, Note_off_c, 0, 65, 105
1, 20438, Note_on_c, 0, 60, 86
1, 20505, Note_off_c, 0, 60, 86
1, 20505, Note_on_c, 0, 66, 108
1, 20551, Note_off_c, 0, 66, 108
1, 20556, Note_on_c, 0, 65, 105
1, 20636, Note_off_c, 0, 65, 105
1, 20656, Note_on_c, 0, 60, 101
1, 20728, Note_off_c, 0, 60, 101
1, 21019, Note_on_c, 0, 71, 107
1, 21088, Note_off_c, 0, 71, 107
1, 21093, Note_on_c, 0, 72, 91
1, 21444, Note_off_c, 0, 72, 91
1, 21459, Note_on_c, 0, 72, 110
1, 21541, Note_off_c, 0, 72, 110
1, 21644, Note_on_c, 0, 72, 106
1, 21775, Note_off_c, 0, 72, 106
1, 21780, Note_on_c, 0, 70, 103
1, 21847, Note_off_c, 0, 70, 103
1, 21847, Note_on_c, 0, 67, 101
1, 21960, Note_off_c, 0, 67, 101
1, 21983, Note_on_c, 0, 63, 84
1, 22032, Note_on_c, 0, 70, 111
1, 22032, Note_off_c, 0, 63, 84
1, 22140, Note_off_c, 0, 70, 111
1, 22204, Note_on_c, 0, 70, 108
1, 22304, Note_off_c, 0, 70, 108
1, 22368, Note_on_c, 0, 70, 110
1, 22476, Note_off_c, 0, 70, 110
1, 22558, Note_on_c, 0, 68, 108
1, 22625, Note_off_c, 0, 68, 108
1, 22663, Note_on_c, 0, 63, 91
1, 22781, Note_off_c, 0, 63, 91
1, 22833, Note_on_c, 0, 66, 111
1, 22929, Note_off_c, 0, 66, 111
1, 22938, Note_on_c, 0, 67, 115
1, 23015, Note_off_c, 0, 67, 115
1, 23029, Note_on_c, 0, 68, 111
1, 23130, Note_off_c, 0, 68, 111
1, 23137, Note_on_c, 0, 69, 112
1, 23217, Note_off_c, 0, 69, 112
1, 23229, Note_on_c, 0, 70, 104
1, 23310, Note_off_c, 0, 70, 104
1, 23317, Note_on_c, 0, 71, 110
1, 23400, Note_off_c, 0, 71, 110
1, 23403, Note_on_c, 0, 72, 110
1, 23457, Note_on_c, 0, 73, 109
1, 23457, Note_off_c, 0, 72, 110
1, 23498, Note_off_c, 0, 73, 109
1, 23503, Note_on_c, 0, 72, 108
1, 23532, Note_off_c, 0, 72, 108
1, 23535, Note_on_c, 0, 71, 106
1, 23596, Note_off_c, 0, 71, 106
1, 23606, Note_on_c, 0, 70, 101
1, 23693, Note_off_c, 0, 70, 101
1, 23699, Note_on_c, 0, 67, 103
1, 23780, Note_off_c, 0, 67, 103
1, 23790, Note_on_c, 0, 63, 89
1, 23888, Note_off_c, 0, 63, 89
1, 23893, Note_on_c, 0, 61, 79
1, 23951, Note_off_c, 0, 61, 79
1, 23966, Note_on_c, 0, 70, 87
1, 24002, Note_off_c, 0, 70, 87
1, 24013, Note_on_c, 0, 71, 102
1, 24086, Note_off_c, 0, 71, 102
1, 24088, Note_on_c, 0, 67, 93
1, 24130, Note_on_c, 0, 64, 95
1, 24130, Note_off_c, 0, 67, 93
1, 24164, Note_off_c, 0, 64, 95
1, 24167, Note_on_c, 0, 61, 102
1, 24259, Note_off_c, 0, 61, 102
1, 24289, Note_on_c, 0, 56, 81
1, 24341, Note_off_c, 0, 56, 81
1, 24350, Note_on_c, 0, 60, 95
1, 24492, Note_off_c, 0, 60, 95
1, 24494, Note_on_c, 0, 70, 110
1, 24597, Note_off_c, 0, 70, 110
1, 25043, Note_on_c, 0, 63, 98
1, 25134, Note_off_c, 0, 63, 98
1, 25139, Note_on_c, 0, 66, 89
1, 25239, Note_off_c, 0, 66, 89
1, 25245, Note_on_c, 0, 68, 101
1, 25304, Note_off_c, 0, 68, 101
1, 25324, Note_on_c, 0, 66, 99
1, 25435, Note_off_c, 0, 66, 99
1, 25442, Note_on_c, 0, 63, 79
1, 25483, Note_off_c, 0, 63, 79
1, 25489, Note_on_c, 0, 66, 97
1, 25680, Note_off_c, 0, 66, 97
1, 25683, Note_on_c, 0, 68, 106
1, 25799, Note_off_c, 0, 68, 106
1, 26192, Note_on_c, 0, 58, 99
1, 26274, Note_off_c, 0, 58, 99
1, 26281, Note_on_c, 0, 61, 92
1, 26362, Note_off_c, 0, 61, 92
1, 26376, Note_on_c, 0, 63, 99
1, 26456, Note_off_c, 0, 63, 99
1, 26459, Note_on_c, 0, 61, 9
1, 26580, Note_off_c, 0, 61, 9
1, 26592, Note_on_c, 0, 58, 87
1, 26651, Note_off_c, 0, 58, 87
1, 26658, Note_on_c, 0, 60, 100
1, 26697, Note_off_c, 0, 60, 100
1, 26707, Note_on_c, 0, 61, 102
1, 26823, Note_off_c, 0, 61, 102
1, 26826, Note_on_c, 0, 63, 100
1, 26942, Note_off_c, 0, 63, 100
1, 26945, Note_on_c, 0, 61, 104
1, 27061, Note_off_c, 0, 61, 104
1, 27072, Note_on_c, 0, 62, 92
1, 27099, Note_off_c, 0, 62, 92
1, 27100, Note_on_c, 0, 61, 92
1, 27150, Note_off_c, 0, 61, 92
1, 27155, Note_on_c, 0, 58, 105
1, 27227, Note_off_c, 0, 58, 105
1, 27236, Note_on_c, 0, 57, 87
1, 27372, Note_off_c, 0, 57, 87
1, 27388, Note_on_c, 0, 54, 98
1, 27426, Note_off_c, 0, 54, 98
1, 27431, Note_on_c, 0, 56, 97
1, 27694, Note_off_c, 0, 56, 97
1, 27712, Note_on_c, 0, 55, 105
1, 27781, Note_off_c, 0, 55, 105
1, 27788, Note_on_c, 0, 56, 96
1, 27857, Note_off_c, 0, 56, 96
1, 27864, Note_on_c, 0, 60, 87
1, 27901, Note_off_c, 0, 60, 87
1, 27904, Note_on_c, 0, 63, 106
1, 27947, Note_off_c, 0, 63, 106
1, 27965, Note_on_c, 0, 67, 116
1, 28039, Note_off_c, 0, 67, 116
1, 28088, Note_on_c, 0, 64, 109
1, 28148, Note_off_c, 0, 64, 109
1, 28153, Note_on_c, 0, 65, 114
1, 28258, Note_off_c, 0, 65, 114
1, 28261, Note_on_c, 0, 67, 119
1, 28346, Note_off_c, 0, 67, 119
1, 28349, Note_on_c, 0, 68, 117
1, 28449, Note_off_c, 0, 68, 117
1, 28458, Note_on_c, 0, 69, 111
1, 28530, Note_off_c, 0, 69, 111
1, 28537, Note_on_c, 0, 70, 103
1, 28642, Note_off_c, 0, 70, 103
1, 28649, Note_on_c, 0, 66, 103
1, 28718, Note_off_c, 0, 66, 103
1, 28718, Note_on_c, 0, 62, 92
1, 28826, Note_off_c, 0, 62, 92
1, 28844, Note_on_c, 0, 61, 109
1, 28917, Note_off_c, 0, 61, 109
1, 28923, Note_on_c, 0, 60, 93
1, 29021, Note_off_c, 0, 60, 93
1, 29030, Note_on_c, 0, 62, 84
1, 29116, Note_off_c, 0, 62, 84
1, 29118, Note_on_c, 0, 63, 100
1, 29221, Note_off_c, 0, 63, 100
1, 29241, Note_on_c, 0, 65, 87
1, 29302, Note_off_c, 0, 65, 87
1, 29307, Note_on_c, 0, 67, 108
1, 29402, Note_off_c, 0, 67, 108
1, 29440, Note_on_c, 0, 58, 97
1, 29687, Note_off_c, 0, 58, 97
1, 29960, Note_on_c, 0, 70, 112
1, 30032, Note_off_c, 0, 70, 112
1, 30041, Note_on_c, 0, 73, 115
1, 30180, Note_off_c, 0, 73, 115
1, 30247, Note_on_c, 0, 74, 116
1, 30390, Note_off_c, 0, 74, 116
1, 30394, Note_on_c, 0, 75, 114
1, 30821, Note_off_c, 0, 75, 114
1, 30843, Note_on_c, 0, 72, 103
1, 30897, Note_off_c, 0, 72, 103
1, 30907, Note_on_c, 0, 73, 102
1, 30965, Note_off_c, 0, 73, 102
1, 30983, Note_on_c, 0, 70, 107
1, 31073, Note_off_c, 0, 70, 107
1, 31333, Note_on_c, 0, 75, 122
1, 31407, Note_off_c, 0, 75, 122
1, 31518, Note_on_c, 0, 73, 115
1, 31582, Note_off_c, 0, 73, 115
1, 31589, Note_on_c, 0, 70, 105
1, 31689, Note_off_c, 0, 70, 105
1, 31694, Note_on_c, 0, 68, 114
1, 31772, Note_off_c, 0, 68, 114
1, 31781, Note_on_c, 0, 66, 103
1, 31892, Note_off_c, 0, 66, 103
1, 31941, Note_on_c, 0, 65, 99
1, 31970, Note_off_c, 0, 65, 99
1, 31975, Note_on_c, 0, 66, 107
1, 32064, Note_off_c, 0, 66, 107
1, 32070, Note_on_c, 0, 65, 105
1, 32144, Note_off_c, 0, 65, 105
1, 32147, Note_on_c, 0, 60, 95
1, 32270, Note_off_c, 0, 60, 95
1, 32276, Note_on_c, 0, 65, 105
1, 32505, Note_off_c, 0, 65, 105
1, 32760, Note_on_c, 0, 57, 96
1, 32809, Note_off_c, 0, 57, 96
1, 32809, Note_on_c, 0, 58, 94
1, 32850, Note_off_c, 0, 58, 94
1, 32853, Note_on_c, 0, 60, 98
1, 32904, Note_off_c, 0, 60, 98
1, 32907, Note_on_c, 0, 61, 103
1, 32954, Note_off_c, 0, 61, 103
1, 32963, Note_on_c, 0, 63, 97
1, 33004, Note_off_c, 0, 63, 97
1, 33004, Note_on_c, 0, 65, 105
1, 33050, Note_off_c, 0, 65, 105
1, 33050, Note_on_c, 0, 68, 118
1, 33099, Note_off_c, 0, 68, 118
1, 33105, Note_on_c, 0, 67, 110
1, 33148, Note_off_c, 0, 67, 110
1, 33154, Note_on_c, 0, 66, 100
1, 33199, Note_off_c, 0, 66, 100
1, 33204, Note_on_c, 0, 65, 102
1, 33236, Note_off_c, 0, 65, 102
1, 33243, Note_on_c, 0, 61, 105
1, 33294, Note_off_c, 0, 61, 105
1, 33294, Note_on_c, 0, 58, 100
1, 33330, Note_off_c, 0, 58, 100
1, 33330, Note_on_c, 0, 55, 100
1, 33381, Note_off_c, 0, 55, 100
1, 33381, Note_on_c, 0, 58, 106
1, 33440, Note_off_c, 0, 58, 106
1, 33440, Note_on_c, 0, 55, 100
1, 33476, Note_off_c, 0, 55, 100
1, 33481, Note_on_c, 0, 56, 96
1, 33524, Note_on_c, 0, 58, 96
1, 33524, Note_off_c, 0, 56, 96
1, 33567, Note_off_c, 0, 58, 96
1, 33572, Note_on_c, 0, 60, 94
1, 33639, Note_off_c, 0, 60, 94
1, 33651, Note_on_c, 0, 60, 87
1, 33733, Note_off_c, 0, 60, 87
1, 33880, Note_on_c, 0, 55, 99
1, 33929, Note_off_c, 0, 55, 99
1, 33932, Note_on_c, 0, 56, 93
1, 33975, Note_off_c, 0, 56, 93
1, 33976, Note_on_c, 0, 57, 95
1, 34025, Note_off_c, 0, 57, 95
1, 34030, Note_on_c, 0, 58, 97
1, 34071, Note_off_c, 0, 58, 97
1, 34076, Note_on_c, 0, 60, 104
1, 34119, Note_on_c, 0, 62, 93
1, 34119, Note_off_c, 0, 60, 104
1, 34157, Note_off_c, 0, 62, 93
1, 34162, Note_on_c, 0, 63, 98
1, 34192, Note_off_c, 0, 63, 98
1, 34450, Note_on_c, 0, 56, 96
1, 34491, Note_off_c, 0, 56, 96
1, 34491, Note_on_c, 0, 57, 97
1, 34529, Note_off_c, 0, 57, 97
1, 34532, Note_on_c, 0, 59, 97
1, 34570, Note_off_c, 0, 59, 97
1, 34576, Note_on_c, 0, 60, 101
1, 34622, Note_off_c, 0, 60, 101
1, 34627, Note_on_c, 0, 62, 96
1, 34656, Note_off_c, 0, 62, 96
1, 34658, Note_on_c, 0, 63, 99
1, 34687, Note_off_c, 0, 63, 99
1, 34688, Note_on_c, 0, 65, 120
1, 34743, Note_off_c, 0, 65, 120
1, 34745, Note_on_c, 0, 66, 116
1, 34797, Note_off_c, 0, 66, 116
1, 35000, Note_on_c, 0, 57, 94
1, 35036, Note_off_c, 0, 57, 94
1, 35039, Note_on_c, 0, 58, 92
1, 35071, Note_off_c, 0, 58, 92
1, 35076, Note_on_c, 0, 59, 92
1, 35110, Note_off_c, 0, 59, 92
1, 35115, Note_on_c, 0, 60, 97
1, 35165, Note_off_c, 0, 60, 97
1, 35179, Note_on_c, 0, 61, 101
1, 35220, Note_off_c, 0, 61, 101
1, 35223, Note_on_c, 0, 62, 97
1, 35257, Note_off_c, 0, 62, 97
1, 35263, Note_on_c, 0, 63, 92
1, 35292, Note_off_c, 0, 63, 92
1, 35298, Note_on_c, 0, 64, 98
1, 35348, Note_off_c, 0, 64, 98
1, 35354, Note_on_c, 0, 65, 110
1, 35408, Note_off_c, 0, 65, 110
1, 35411, Note_on_c, 0, 66, 97
1, 35441, Note_off_c, 0, 66, 97
1, 35451, Note_on_c, 0, 67, 95
1, 35487, Note_off_c, 0, 67, 95
1, 35489, Note_on_c, 0, 68, 108
1, 35550, Note_off_c, 0, 68, 108
1, 35728, Note_on_c, 0, 57, 92
1, 35777, Note_off_c, 0, 57, 92
1, 35779, Note_on_c, 0, 58, 95
1, 35819, Note_off_c, 0, 58, 95
1, 35822, Note_on_c, 0, 59, 90
1, 35871, Note_off_c, 0, 59, 90
1, 35873, Note_on_c, 0, 60, 97
1, 35917, Note_off_c, 0, 60, 97
1, 35919, Note_on_c, 0, 61, 99
1, 35968, Note_off_c, 0, 61, 99
1, 35971, Note_on_c, 0, 62, 95
1, 36006, Note_off_c, 0, 62, 95
1, 36008, Note_on_c, 0, 63, 95
1, 36059, Note_off_c, 0, 63, 95
1, 36060, Note_on_c, 0, 64, 104
1, 36098, Note_off_c, 0, 64, 104
1, 36100, Note_on_c, 0, 65, 110
1, 36148, Note_off_c, 0, 65, 110
1, 36152, Note_on_c, 0, 66, 99
1, 36203, Note_off_c, 0, 66, 99
1, 36204, Note_on_c, 0, 67, 107
1, 36241, Note_off_c, 0, 67, 107
1, 36244, Note_on_c, 0, 68, 108
1, 36284, Note_off_c, 0, 68, 108
1, 36289, Note_on_c, 0, 69, 109
1, 36328, Note_off_c, 0, 69, 109
1, 36330, Note_on_c, 0, 70, 103
1, 36379, Note_off_c, 0, 70, 103
1, 36383, Note_on_c, 0, 71, 101
1, 36419, Note_off_c, 0, 71, 101
1, 36423, Note_on_c, 0, 72, 102
1, 36475, Note_off_c, 0, 72, 102
1, 36477, Note_on_c, 0, 71, 109
1, 36515, Note_off_c, 0, 71, 109
1, 36519, Note_on_c, 0, 70, 104
1, 36555, Note_off_c, 0, 70, 104
1, 36556, Note_on_c, 0, 69, 107
1, 36607, Note_off_c, 0, 69, 107
1, 36609, Note_on_c, 0, 68, 106
1, 36642, Note_off_c, 0, 68, 106
1, 36656, Note_on_c, 0, 60, 89
1, 36691, Note_off_c, 0, 60, 89
1, 36702, Note_on_c, 0, 63, 98
1, 36743, Note_off_c, 0, 63, 98
1, 36748, Note_on_c, 0, 67, 111
1, 36825, Note_off_c, 0, 67, 111
1, 36827, Note_on_c, 0, 68, 103
1, 36846, Note_off_c, 0, 68, 103
1, 36848, Note_on_c, 0, 67, 113
1, 36873, Note_off_c, 0, 67, 113
1, 36875, Note_on_c, 0, 65, 111
1, 36924, Note_off_c, 0, 65, 111
1, 36926, Note_on_c, 0, 64, 106
1, 36961, Note_off_c, 0, 64, 106
1, 36964, Note_on_c, 0, 63, 100
1, 37002, Note_off_c, 0, 63, 100
1, 37009, Note_on_c, 0, 60, 102
1, 37058, Note_off_c, 0, 60, 102
1, 37060, Note_on_c, 0, 56, 93
1, 37098, Note_off_c, 0, 56, 93
1, 37098, Note_on_c, 0, 53, 89
1, 37132, Note_off_c, 0, 53, 89
1, 37143, Note_on_c, 0, 58, 110
1, 37194, Note_off_c, 0, 58, 110
1, 37194, Note_on_c, 0, 55, 101
1, 37243, Note_off_c, 0, 55, 101
1, 37245, Note_on_c, 0, 56, 97
1, 37287, Note_off_c, 0, 56, 97
1, 37290, Note_on_c, 0, 58, 109
1, 37328, Note_off_c, 0, 58, 109
1, 37379, Note_on_c, 0, 63, 90
1, 37417, Note_off_c, 0, 63, 90
1, 37417, Note_on_c, 0, 67, 113
1, 37463, Note_off_c, 0, 67, 113
1, 37467, Note_on_c, 0, 64, 105
1, 37501, Note_off_c, 0, 64, 105
1, 37504, Note_on_c, 0, 65, 104
1, 37543, Note_off_c, 0, 65, 104
1, 37546, Note_on_c, 0, 67, 115
1, 37582, Note_off_c, 0, 67, 115
1, 37586, Note_on_c, 0, 68, 99
1, 37633, Note_off_c, 0, 68, 99
1, 37642, Note_on_c, 0, 69, 91
1, 37665, Note_off_c, 0, 69, 91
1, 37672, Note_on_c, 0, 70, 103
1, 37731, Note_off_c, 0, 70, 103
1, 37734, Note_on_c, 0, 69, 107
1, 37783, Note_off_c, 0, 69, 107
1, 37787, Note_on_c, 0, 68, 98
1, 37838, Note_off_c, 0, 68, 98
1, 37847, Note_on_c, 0, 65, 88
1, 37867, Note_off_c, 0, 65, 88
1, 37872, Note_on_c, 0, 66, 105
1, 37913, Note_off_c, 0, 66, 105
1, 37916, Note_on_c, 0, 67, 111
1, 37955, Note_off_c, 0, 67, 111
1, 37958, Note_on_c, 0, 68, 108
1, 37995, Note_off_c, 0, 68, 108
1, 38000, Note_on_c, 0, 69, 108
1, 38049, Note_off_c, 0, 69, 108
1, 38054, Note_on_c, 0, 70, 100
1, 38095, Note_off_c, 0, 70, 100
1, 38101, Note_on_c, 0, 72, 84
1, 38127, Note_off_c, 0, 72, 84
1, 38136, Note_on_c, 0, 75, 117
1, 38181, Note_off_c, 0, 75, 117
1, 38191, Note_on_c, 0, 72, 93
1, 38206, Note_off_c, 0, 72, 93
1, 38206, Note_on_c, 0, 73, 116
1, 38265, Note_off_c, 0, 73, 116
1, 38265, Note_on_c, 0, 75, 108
1, 38293, Note_off_c, 0, 75, 108
1, 38296, Note_on_c, 0, 73, 101
1, 38322, Note_off_c, 0, 73, 101
1, 38323, Note_on_c, 0, 70, 103
1, 38364, Note_off_c, 0, 70, 103
1, 38372, Note_on_c, 0, 67, 89
1, 38384, Note_off_c, 0, 67, 89
1, 38385, Note_on_c, 0, 68, 110
1, 38443, Note_off_c, 0, 68, 110
1, 38449, Note_on_c, 0, 70, 98
1, 38479, Note_off_c, 0, 70, 98
1, 38480, Note_on_c, 0, 68, 102
1, 38514, Note_off_c, 0, 68, 102
1, 38518, Note_on_c, 0, 66, 99
1, 38562, Note_off_c, 0, 66, 99
1, 38562, Note_on_c, 0, 62, 91
1, 38576, Note_off_c, 0, 62, 91
1, 38581, Note_on_c, 0, 63, 105
1, 38619, Note_off_c, 0, 63, 105
1, 38621, Note_on_c, 0, 64, 96
1, 38640, Note_off_c, 0, 64, 96
1, 38643, Note_on_c, 0, 63, 98
1, 38671, Note_off_c, 0, 63, 98
1, 38675, Note_on_c, 0, 61, 95
1, 38718, Note_off_c, 0, 61, 95
1, 38725, Note_on_c, 0, 57, 92
1, 38743, Note_off_c, 0, 57, 92
1, 38747, Note_on_c, 0, 58, 110
1, 38782, Note_off_c, 0, 58, 110
1, 38786, Note_on_c, 0, 60, 107
1, 38811, Note_off_c, 0, 60, 107
1, 38814, Note_on_c, 0, 58, 100
1, 38850, Note_off_c, 0, 58, 100
1, 38852, Note_on_c, 0, 56, 106
1, 38901, Note_off_c, 0, 56, 106
1, 38906, Note_on_c, 0, 54, 104
1, 38988, Note_off_c, 0, 54, 104
1, 39264, Note_on_c, 0, 65, 117
1, 39320, Note_off_c, 0, 65, 117
1, 39332, Note_on_c, 0, 65, 101
1, 39357, Note_off_c, 0, 65, 101
1, 39364, Note_on_c, 0, 66, 110
1, 39443, Note_off_c, 0, 66, 110
1, 39452, Note_on_c, 0, 66, 120
1, 39506, Note_off_c, 0, 66, 120
1, 39511, Note_on_c, 0, 65, 106
1, 39536, Note_off_c, 0, 65, 106
1, 39546, Note_on_c, 0, 66, 112
1, 39636, Note_off_c, 0, 66, 112
1, 39655, Note_on_c, 0, 66, 115
1, 39696, Note_off_c, 0, 66, 115
1, 39711, Note_on_c, 0, 66, 111
1, 39824, Note_off_c, 0, 66, 111
1, 39831, Note_on_c, 0, 65, 111
1, 39885, Note_off_c, 0, 65, 111
1, 39897, Note_on_c, 0, 63, 102
1, 39992, Note_off_c, 0, 63, 102
1, 40257, Note_on_c, 0, 66, 121
1, 40308, Note_off_c, 0, 66, 121
1, 40426, Note_on_c, 0, 68, 119
1, 40490, Note_off_c, 0, 68, 119
1, 40508, Note_on_c, 0, 66, 108
1, 40572, Note_off_c, 0, 66, 108
1, 40575, Note_on_c, 0, 68, 98
1, 40624, Note_off_c, 0, 68, 98
1, 40625, Note_on_c, 0, 66, 97
1, 40679, Note_off_c, 0, 66, 97
1, 40683, Note_on_c, 0, 63, 100
1, 40788, Note_off_c, 0, 63, 100
1, 40860, Note_on_c, 0, 65, 109
1, 40892, Note_off_c, 0, 65, 109
1, 40893, Note_on_c, 0, 66, 107
1, 40991, Note_off_c, 0, 66, 107
1, 41005, Note_on_c, 0, 66, 106
1, 41059, Note_off_c, 0, 66, 106
1, 41077, Note_on_c, 0, 66, 102
1, 41177, Note_off_c, 0, 66, 102
1, 41192, Note_on_c, 0, 66, 115
1, 41253, Note_off_c, 0, 66, 115
1, 41260, Note_on_c, 0, 66, 109
1, 41355, Note_off_c, 0, 66, 109
1, 41367, Note_on_c, 0, 65, 109
1, 41431, Note_off_c, 0, 65, 109
1, 41431, Note_on_c, 0, 63, 95
1, 41536, Note_off_c, 0, 63, 95
1, 41776, Note_on_c, 0, 63, 96
1, 41845, Note_off_c, 0, 63, 96
1, 41909, Note_on_c, 0, 67, 85
1, 41947, Note_off_c, 0, 67, 85
1, 41959, Note_on_c, 0, 72, 106
1, 42028, Note_off_c, 0, 72, 106
1, 42044, Note_on_c, 0, 75, 122
1, 42129, Note_off_c, 0, 75, 122
1, 42136, Note_on_c, 0, 73, 118
1, 42190, Note_off_c, 0, 73, 118
1, 42211, Note_on_c, 0, 69, 99
1, 42238, Note_off_c, 0, 69, 99
1, 42245, Note_on_c, 0, 70, 106
1, 42328, Note_off_c, 0, 70, 106
1, 42336, Note_on_c, 0, 68, 114
1, 42410, Note_off_c, 0, 68, 114
1, 42420, Note_on_c, 0, 66, 107
1, 42505, Note_off_c, 0, 66, 107
1, 42626, Note_on_c, 0, 63, 101
1, 42724, Note_off_c, 0, 63, 101
1, 42724, Note_on_c, 0, 66, 117
1, 42805, Note_off_c, 0, 66, 117
1, 42808, Note_on_c, 0, 65, 100
1, 42951, Note_off_c, 0, 65, 100
1, 42953, Note_on_c, 0, 63, 94
1, 42992, Note_off_c, 0, 63, 94
1, 42999, Note_on_c, 0, 66, 117
1, 43095, Note_off_c, 0, 66, 117
1, 43177, Note_on_c, 0, 63, 98
1, 43262, Note_off_c, 0, 63, 98
1, 43296, Note_on_c, 0, 66, 118
1, 43365, Note_off_c, 0, 66, 118
1, 43372, Note_on_c, 0, 65, 92
1, 43499, Note_off_c, 0, 65, 92
1, 43501, Note_on_c, 0, 63, 81
1, 43542, Note_off_c, 0, 63, 81
1, 43563, Note_on_c, 0, 66, 115
1, 43648, Note_off_c, 0, 66, 115
1, 43756, Note_on_c, 0, 63, 101
1, 43845, Note_off_c, 0, 63, 101
1, 43877, Note_on_c, 0, 66, 111
1, 43954, Note_off_c, 0, 66, 111
1, 43954, Note_on_c, 0, 65, 95
1, 44083, Note_off_c, 0, 65, 95
1, 44087, Note_on_c, 0, 63, 81
1, 44119, Note_off_c, 0, 63, 81
1, 44177, Note_on_c, 0, 67, 115
1, 44266, Note_off_c, 0, 67, 115
1, 44345, Note_on_c, 0, 63, 99
1, 44441, Note_off_c, 0, 63, 99
1, 44456, Note_on_c, 0, 67, 110
1, 44541, Note_off_c, 0, 67, 110
1, 44548, Note_on_c, 0, 66, 87
1, 44651, Note_off_c, 0, 66, 87
1, 44696, Note_on_c, 0, 63, 91
1, 44730, Note_off_c, 0, 63, 91
1, 44738, Note_on_c, 0, 67, 112
1, 44830, Note_off_c, 0, 67, 112
1, 44930, Note_on_c, 0, 63, 98
1, 45030, Note_off_c, 0, 63, 98
1, 45055, Note_on_c, 0, 67, 116
1, 45120, Note_off_c, 0, 67, 116
1, 45125, Note_on_c, 0, 66, 92
1, 45232, Note_off_c, 0, 66, 92
1, 45242, Note_on_c, 0, 63, 106
1, 45301, Note_off_c, 0, 63, 106
1, 45304, Note_on_c, 0, 66, 113
1, 45393, Note_off_c, 0, 66, 113
1, 45497, Note_on_c, 0, 63, 99
1, 45589, Note_off_c, 0, 63, 99
1, 45613, Note_on_c, 0, 66, 112
1, 45673, Note_off_c, 0, 66, 112
1, 45676, Note_on_c, 0, 65, 94
1, 45803, Note_off_c, 0, 65, 94
1, 45826, Note_on_c, 0, 60, 96
1, 45860, Note_off_c, 0, 60, 96
1, 45875, Note_on_c, 0, 67, 115
1, 45980, Note_off_c, 0, 67, 115
1, 46009, Note_on_c, 0, 58, 96
1, 46221, Note_off_c, 0, 58, 96
1, 46552, Note_on_c, 0, 70, 116
1, 46606, Note_off_c, 0, 70, 116
1, 46728, Note_on_c, 0, 69, 111
1, 46799, Note_off_c, 0, 69, 111
1, 46799, Note_on_c, 0, 68, 107
1, 46924, Note_off_c, 0, 68, 107
1, 46934, Note_on_c, 0, 63, 101
1, 47002, Note_off_c, 0, 63, 101
1, 47012, Note_on_c, 0, 66, 101
1, 47115, Note_off_c, 0, 66, 101
1, 47118, Note_on_c, 0, 67, 116
1, 47189, Note_off_c, 0, 67, 116
1, 47190, Note_on_c, 0, 68, 118
1, 47297, Note_off_c, 0, 68, 118
1, 47301, Note_on_c, 0, 69, 118
1, 47390, Note_off_c, 0, 69, 118
1, 47394, Note_on_c, 0, 70, 111
1, 47482, Note_off_c, 0, 70, 111
1, 47486, Note_on_c, 0, 68, 116
1, 47554, Note_off_c, 0, 68, 116
1, 47556, Note_on_c, 0, 64, 107
1, 47678, Note_off_c, 0, 64, 107
1, 47683, Note_on_c, 0, 60, 86
1, 47747, Note_off_c, 0, 60, 86
1, 47747, Note_on_c, 0, 67, 116
1, 47876, Note_off_c, 0, 67, 116
1, 47896, Note_on_c, 0, 58, 100
1, 48160, Note_off_c, 0, 58, 100
1, 48355, Note_on_c, 0, 71, 101
1, 48445, Note_off_c, 0, 71, 101
1, 48457, Note_on_c, 0, 72, 115
1, 48513, Note_off_c, 0, 72, 115
1, 48523, Note_on_c, 0, 72, 113
1, 48634, Note_off_c, 0, 72, 113
1, 48641, Note_on_c, 0, 72, 118
1, 48713, Note_off_c, 0, 72, 118
1, 48725, Note_on_c, 0, 72, 105
1, 48825, Note_off_c, 0, 72, 105
1, 48832, Note_on_c, 0, 72, 108
1, 48893, Note_off_c, 0, 72, 108
1, 48898, Note_on_c, 0, 72, 112
1, 49001, Note_off_c, 0, 72, 112
1, 49244, Note_on_c, 0, 71, 106
1, 49292, Note_off_c, 0, 71, 106
1, 49435, Note_on_c, 0, 72, 115
1, 49494, Note_off_c, 0, 72, 115
1, 49500, Note_on_c, 0, 71, 103
1, 49557, Note_off_c, 0, 71, 103
1, 49558, Note_on_c, 0, 72, 92
1, 49629, Note_off_c, 0, 72, 92
1, 49634, Note_on_c, 0, 71, 93
1, 49682, Note_off_c, 0, 71, 93
1, 49686, Note_on_c, 0, 72, 113
1, 49792, Note_off_c, 0, 72, 113
1, 49795, Note_on_c, 0, 68, 116
1, 49878, Note_off_c, 0, 68, 116
1, 49888, Note_on_c, 0, 66, 105
1, 50004, Note_off_c, 0, 66, 105
1, 50069, Note_on_c, 0, 66, 113
1, 50146, Note_off_c, 0, 66, 113
1, 50167, Note_on_c, 0, 67, 107
1, 50252, Note_off_c, 0, 67, 107
1, 50254, Note_on_c, 0, 58, 100
1, 50373, Note_off_c, 0, 58, 100
1, 50389, Note_on_c, 0, 63, 84
1, 50685, Note_off_c, 0, 63, 84
1, 50958, Note_on_c, 0, 65, 106
1, 51086, Note_off_c, 0, 65, 106
1, 51093, Note_on_c, 0, 68, 88
1, 51142, Note_off_c, 0, 68, 88
1, 51151, Note_on_c, 0, 73, 120
1, 51212, Note_off_c, 0, 73, 120
1, 51212, Note_on_c, 0, 76, 120
1, 51266, Note_off_c, 0, 76, 120
1, 51269, Note_on_c, 0, 78, 111
1, 51795, Note_off_c, 0, 78, 111
1, 51816, Note_on_c, 0, 76, 113
1, 51861, Note_off_c, 0, 76, 113
1, 51864, Note_on_c, 0, 77, 114
1, 51916, Note_off_c, 0, 77, 114
1, 51932, Note_on_c, 0, 76, 117
1, 52003, Note_off_c, 0, 76, 117
1, 52017, Note_on_c, 0, 75, 106
1, 52111, Note_off_c, 0, 75, 106
1, 52118, Note_on_c, 0, 72, 109
1, 52185, Note_off_c, 0, 72, 109
1, 52211, Note_on_c, 0, 68, 112
1, 52325, Note_off_c, 0, 68, 112
1, 52335, Note_on_c, 0, 67, 106
1, 52409, Note_off_c, 0, 67, 106
1, 52417, Note_on_c, 0, 66, 100
1, 52535, Note_off_c, 0, 66, 100
1, 52544, Note_on_c, 0, 70, 82
1, 52587, Note_off_c, 0, 70, 82
1, 52587, Note_on_c, 0, 74, 113
1, 52682, Note_off_c, 0, 74, 113
1, 52706, Note_on_c, 0, 68, 99
1, 52775, Note_off_c, 0, 68, 99
1, 52779, Note_on_c, 0, 69, 92
1, 52895, Note_off_c, 0, 69, 92
1, 52906, Note_on_c, 0, 77, 9
1, 52994, Note_off_c, 0, 77, 9
1, 53002, Note_on_c, 0, 74, 110
1, 53089, Note_off_c, 0, 74, 110
1, 53302, Note_on_c, 0, 70, 107
1, 53366, Note_off_c, 0, 70, 107
1, 53372, Note_on_c, 0, 72, 87
1, 53402, Note_off_c, 0, 72, 87
1, 53407, Note_on_c, 0, 74, 99
1, 53439, Note_off_c, 0, 74, 99
1, 53443, Note_on_c, 0, 72, 99
1, 53481, Note_off_c, 0, 72, 99
1, 53490, Note_on_c, 0, 70, 98
1, 53544, Note_off_c, 0, 70, 98
1, 53553, Note_on_c, 0, 67, 103
1, 53662, Note_off_c, 0, 67, 103
1, 53674, Note_on_c, 0, 61, 110
1, 53727, Note_off_c, 0, 61, 110
1, 53729, Note_on_c, 0, 62, 96
1, 54133, Note_off_c, 0, 62, 96
1, 54146, Note_on_c, 0, 70, 100
1, 54244, Note_off_c, 0, 70, 100
1, 54261, Note_on_c, 0, 62, 104
1, 54330, Note_off_c, 0, 62, 104
1, 54335, Note_on_c, 0, 61, 105
1, 54433, Note_off_c, 0, 61, 105
1, 54486, Note_on_c, 0, 72, 112
1, 54586, Note_off_c, 0, 72, 112
1, 54637, Note_on_c, 0, 67, 110
1, 54731, Note_off_c, 0, 67, 110
1, 54737, Note_on_c, 0, 70, 106
1, 54828, Note_off_c, 0, 70, 106
1, 54829, Note_on_c, 0, 68, 103
1, 55089, Note_off_c, 0, 68, 103
1, 55256, Note_on_c, 0, 60, 101
1, 55359, Note_off_c, 0, 60, 101
1, 55383, Note_on_c, 0, 65, 111
1, 55457, Note_off_c, 0, 65, 111
1, 55457, Note_on_c, 0, 66, 104
1, 55548, Note_off_c, 0, 66, 104
1, 55561, Note_on_c, 0, 67, 105
1, 55649, Note_off_c, 0, 67, 105
1, 55653, Note_on_c, 0, 68, 109
1, 55755, Note_off_c, 0, 68, 109
1, 55759, Note_on_c, 0, 69, 110
1, 55839, Note_off_c, 0, 69, 110
1, 55843, Note_on_c, 0, 70, 101
1, 55878, Note_off_c, 0, 70, 101
1, 55878, Note_on_c, 0, 72, 91
1, 55905, Note_off_c, 0, 72, 91
1, 55909, Note_on_c, 0, 70, 94
1, 55950, Note_off_c, 0, 70, 94
1, 55952, Note_on_c, 0, 66, 100
1, 56036, Note_off_c, 0, 66, 100
1, 56036, Note_on_c, 0, 63, 92
1, 56139, Note_off_c, 0, 63, 92
1, 56165, Note_on_c, 0, 60, 91
1, 56216, Note_off_c, 0, 60, 91
1, 56221, Note_on_c, 0, 63, 97
1, 56514, Note_off_c, 0, 63, 97
1, 56516, Note_on_c, 0, 66, 101
1, 56559, Note_off_c, 0, 66, 101
1, 56564, Note_on_c, 0, 67, 103
1, 56612, Note_off_c, 0, 67, 103
1, 56635, Note_on_c, 0, 63, 95
1, 56892, Note_off_c, 0, 63, 95
1, 56914, Note_on_c, 0, 67, 103
1, 56952, Note_off_c, 0, 67, 103
1, 56953, Note_on_c, 0, 68, 112
1, 56989, Note_off_c, 0, 68, 112
1, 57002, Note_on_c, 0, 63, 96
1, 57274, Note_off_c, 0, 63, 96
1, 57279, Note_on_c, 0, 68, 109
1, 57320, Note_off_c, 0, 68, 109
1, 57323, Note_on_c, 0, 69, 104
1, 57374, Note_off_c, 0, 69, 104
1, 57422, Note_on_c, 0, 63, 97
1, 57650, Note_off_c, 0, 63, 97
1, 57657, Note_on_c, 0, 69, 113
1, 57695, Note_off_c, 0, 69, 113
1, 57696, Note_on_c, 0, 70, 92
1, 57741, Note_off_c, 0, 70, 92
1, 57762, Note_on_c, 0, 63, 97
1, 57999, Note_off_c, 0, 63, 97
1, 58031, Note_on_c, 0, 71, 116
1, 58070, Note_off_c, 0, 71, 116
1, 58073, Note_on_c, 0, 72, 86
1, 58124, Note_off_c, 0, 72, 86
1, 58178, Note_on_c, 0, 63, 88
1, 58462, Note_off_c, 0, 63, 88
1, 58567, Note_on_c, 0, 70, 89
1, 58608, Note_off_c, 0, 70, 89
1, 58613, Note_on_c, 0, 71, 93
1, 58662, Note_off_c, 0, 71, 93
1, 58726, Note_on_c, 0, 63, 104
1, 58845, Note_off_c, 0, 63, 104
1, 58846, Note_on_c, 0, 69, 82
1, 58882, Note_off_c, 0, 69, 82
1, 58892, Note_on_c, 0, 70, 99
1, 58928, Note_off_c, 0, 70, 99
1, 58997, Note_on_c, 0, 63, 103
1, 59106, Note_off_c, 0, 63, 103
1, 59107, Note_on_c, 0, 68, 78
1, 59140, Note_off_c, 0, 68, 78
1, 59147, Note_on_c, 0, 69, 104
1, 59190, Note_off_c, 0, 69, 104
1, 59236, Note_on_c, 0, 63, 98
1, 59501, Note_off_c, 0, 63, 98
1, 59810, Note_on_c, 0, 63, 108
1, 59871, Note_off_c, 0, 63, 108
1, 59872, Note_on_c, 0, 66, 104
1, 59938, Note_off_c, 0, 66, 104
1, 59943, Note_on_c, 0, 67, 108
1, 59996, Note_off_c, 0, 67, 108
1, 59997, Note_on_c, 0, 68, 109
1, 60064, Note_off_c, 0, 68, 109
1, 60068, Note_on_c, 0, 69, 115
1, 60126, Note_off_c, 0, 69, 115
1, 60132, Note_on_c, 0, 70, 111
1, 60190, Note_off_c, 0, 70, 111
1, 60196, Note_on_c, 0, 69, 111
1, 60240, Note_off_c, 0, 69, 111
1, 60246, Note_on_c, 0, 70, 109
1, 60313, Note_off_c, 0, 70, 109
1, 60322, Note_on_c, 0, 69, 111
1, 60387, Note_off_c, 0, 69, 111
1, 60394, Note_on_c, 0, 70, 112
1, 60450, Note_off_c, 0, 70, 112
1, 60455, Note_on_c, 0, 69, 112
1, 60508, Note_off_c, 0, 69, 112
1, 60512, Note_on_c, 0, 70, 111
1, 60559, Note_off_c, 0, 70, 111
1, 60562, Note_on_c, 0, 69, 111
1, 60627, Note_off_c, 0, 69, 111
1, 60630, Note_on_c, 0, 70, 109
1, 60696, Note_off_c, 0, 70, 109
1, 60702, Note_on_c, 0, 69, 113
1, 60760, Note_off_c, 0, 69, 113
1, 60760, Note_on_c, 0, 70, 115
1, 60814, Note_off_c, 0, 70, 115
1, 60820, Note_on_c, 0, 67, 99
1, 60856, Note_off_c, 0, 67, 99
1, 60865, Note_on_c, 0, 68, 107
1, 60924, Note_off_c, 0, 68, 107
1, 60928, Note_on_c, 0, 70, 98
1, 60963, Note_on_c, 0, 68, 103
1, 60963, Note_off_c, 0, 70, 98
1, 61001, Note_off_c, 0, 68, 103
1, 61015, Note_on_c, 0, 66, 101
1, 61144, Note_off_c, 0, 66, 101
1, 61215, Note_on_c, 0, 65, 107
1, 61367, Note_on_c, 0, 66, 110
1, 61367, Note_off_c, 0, 65, 107
1, 61790, Note_off_c, 0, 66, 110
1, 61810, Note_on_c, 0, 65, 110
1, 61915, Note_off_c, 0, 65, 110
1, 61928, Note_on_c, 0, 64, 111
1, 62008, Note_off_c, 0, 64, 111
1, 62010, Note_on_c, 0, 63, 98
1, 62110, Note_off_c, 0, 63, 98
1, 62120, Note_on_c, 0, 60, 110
1, 62195, Note_off_c, 0, 60, 110
1, 62200, Note_on_c, 0, 57, 104
1, 62300, Note_off_c, 0, 57, 104
1, 62311, Note_on_c, 0, 54, 95
1, 62396, Note_off_c, 0, 54, 95
1, 62403, Note_on_c, 0, 55, 102
1, 62491, Note_off_c, 0, 55, 102
1, 62495, Note_on_c, 0, 56, 105
1, 62572, Note_off_c, 0, 56, 105
1, 62578, Note_on_c, 0, 57, 94
1, 62680, Note_off_c, 0, 57, 94
1, 62685, Note_on_c, 0, 58, 104
1, 62768, Note_off_c, 0, 58, 104
1, 62769, Note_on_c, 0, 63, 108
1, 62874, Note_off_c, 0, 63, 108
1, 62878, Note_on_c, 0, 60, 107
1, 62958, Note_off_c, 0, 60, 107
1, 62958, Note_on_c, 0, 65, 113
1, 63059, Note_off_c, 0, 65, 113
1, 63065, Note_on_c, 0, 66, 107
1, 63136, Note_off_c, 0, 66, 107
1, 63141, Note_on_c, 0, 67, 111
1, 63268, Note_off_c, 0, 67, 111
1, 63275, Note_on_c, 0, 63, 94
1, 63327, Note_off_c, 0, 63, 94
1, 63331, Note_on_c, 0, 68, 115
1, 63454, Note_off_c, 0, 68, 115
1, 63458, Note_on_c, 0, 69, 111
1, 63527, Note_off_c, 0, 69, 111
1, 63532, Note_on_c, 0, 70, 108
1, 63632, Note_off_c, 0, 70, 108
1, 63640, Note_on_c, 0, 75, 102
1, 63713, Note_off_c, 0, 75, 102
1, 63713, Note_on_c, 0, 68, 103
1, 63747, Note_off_c, 0, 68, 103
1, 63750, Note_on_c, 0, 69, 100
1, 63838, Note_off_c, 0, 69, 100
1, 63843, Note_on_c, 0, 68, 99
1, 64128, Note_off_c, 0, 68, 99
1, 64289, Note_on_c, 0, 65, 110
1, 64398, Note_off_c, 0, 65, 110
1, 64407, Note_on_c, 0, 68, 95
1, 64476, Note_off_c, 0, 68, 95
1, 64477, Note_on_c, 0, 72, 111
1, 64589, Note_off_c, 0, 72, 111
1, 64594, Note_on_c, 0, 75, 95
1, 64675, Note_off_c, 0, 75, 95
1, 64676, Note_on_c, 0, 79, 105
1, 64805, Note_off_c, 0, 79, 105
1, 64807, Note_on_c, 0, 70, 99
1, 65060, Note_off_c, 0, 70, 99
1, 65072, Note_on_c, 0, 70, 101
1, 65176, Note_off_c, 0, 70, 101
1, 65183, Note_on_c, 0, 69, 107
1, 65242, Note_off_c, 0, 69, 107
1, 65246, Note_on_c, 0, 68, 109
1, 65368, Note_off_c, 0, 68, 109
1, 65371, Note_on_c, 0, 70, 108
1, 65429, Note_off_c, 0, 70, 108
1, 65434, Note_on_c, 0, 67, 98
1, 65477, Note_off_c, 0, 67, 98
1, 65480, Note_on_c, 0, 68, 103
1, 65509, Note_off_c, 0, 68, 103
1, 65510, Note_on_c, 0, 67, 93
1, 65564, Note_off_c, 0, 67, 93
1, 65564, Note_on_c, 0, 63, 98
1, 65633, Note_off_c, 0, 63, 98
1, 65633, Note_on_c, 0, 60, 105
1, 65697, Note_off_c, 0, 60, 105
1, 65730, Note_on_c, 0, 67, 123
1, 65807, Note_off_c, 0, 67, 123
1, 65814, Note_on_c, 0, 68, 102
1, 65849, Note_off_c, 0, 68, 102
1, 65855, Note_on_c, 0, 70, 99
1, 65884, Note_off_c, 0, 70, 99
1, 65890, Note_on_c, 0, 68, 103
1, 65924, Note_off_c, 0, 68, 103
1, 65929, Note_on_c, 0, 64, 102
1, 65994, Note_off_c, 0, 64, 102
1, 66001, Note_on_c, 0, 61, 107
1, 66068, Note_off_c, 0, 61, 107
1, 66104, Note_on_c, 0, 69, 117
1, 66187, Note_off_c, 0, 69, 117
1, 66198, Note_on_c, 0, 70, 99
1, 66239, Note_off_c, 0, 70, 99
1, 66242, Note_on_c, 0, 72, 90
1, 66274, Note_off_c, 0, 72, 90
1, 66274, Note_on_c, 0, 70, 97
1, 66315, Note_off_c, 0, 70, 97
1, 66315, Note_on_c, 0, 67, 106
1, 66379, Note_off_c, 0, 67, 106
1, 66380, Note_on_c, 0, 63, 99
1, 66434, Note_off_c, 0, 63, 99
1, 66472, Note_on_c, 0, 70, 111
1, 66546, Note_off_c, 0, 70, 111
1, 66560, Note_on_c, 0, 71, 94
1, 66589, Note_off_c, 0, 71, 94
1, 66592, Note_on_c, 0, 73, 90
1, 66615, Note_off_c, 0, 73, 90
1, 66616, Note_on_c, 0, 71, 89
1, 66640, Note_off_c, 0, 71, 89
1, 66647, Note_on_c, 0, 66, 95
1, 66729, Note_off_c, 0, 66, 95
1, 66734, Note_on_c, 0, 62, 97
1, 66845, Note_off_c, 0, 62, 97
1, 66861, Note_on_c, 0, 58, 99
1, 66941, Note_off_c, 0, 58, 99
1, 66944, Note_on_c, 0, 60, 100
1, 67248, Note_off_c, 0, 60, 100
1, 67248, End_track
0, 0, End_of_file
