0, 0, Header, 1, 1, 192
1, 0, Start_track
1, 0, Title_t, "Melody"
1, 0, Tempo, 226415
1, 0, Key_signature, -2, "major"
1, 0, Time_signature, 4, 2, 24, 8
1, 5584, Note_on_c, 0, 48, 101
1, 5684, Note_off_c, 0, 48, 101
1, 5698, Note_on_c, 0, 45, 97
1, 5789, Note_off_c, 0, 45, 97
1, 5798, Note_on_c, 0, 46, 90
1, 5884, Note_off_c, 0, 46, 90
1, 5888, Note_on_c, 0, 48, 90
1, 5966, Note_off_c, 0, 48, 90
1, 5970, Note_on_c, 0, 49, 100
1, 6048, Note_off_c, 0, 49, 100
1, 6048, Note_on_c, 0, 50, 89
1, 6131, Note_off_c, 0, 50, 89
1, 6133, Note_on_c, 0, 51, 94
1, 6236, Note_off_c, 0, 51, 94
1, 6238, Note_on_c, 0, 52, 89
1, 6333, Note_off_c, 0, 52, 89
1, 6344, Note_on_c, 0, 53, 98
1, 6437, Note_off_c, 0, 53, 98
1, 6445, Note_on_c, 0, 51, 91
1, 6534, Note_off_c, 0, 51, 91
1, 6551, Note_on_c, 0, 48, 89
1, 6630, Note_off_c, 0, 48, 89
1, 6635, Note_on_c, 0, 49, 85
1, 6724, Note_off_c, 0, 49, 85
1, 6736, Note_on_c, 0, 50, 98
1, 6841, Note_off_c, 0, 50, 98
1, 6849, Note_on_c, 0, 48, 97
1, 6932, Note_off_c, 0, 48, 97
1, 6949, Note_on_c, 0, 47, 92
1, 7038, Note_off_c, 0, 47, 92
1, 7117, Note_on_c, 0, 56, 111
1, 7227, Note_off_c, 0, 56, 111
1, 7228, Note_on_c, 0, 55, 107
1, 7331, Note_off_c, 0, 55, 107
1, 7332, Note_on_c, 0, 53, 103
1, 7432, Note_off_c, 0, 53, 103
1, 7433, Note_on_c, 0, 50, 89
1, 7495, Note_off_c, 0, 50, 89
1, 7501, Note_on_c, 0, 51, 87
1, 7646, Note_off_c, 0, 51, 87
1, 7682, Note_on_c, 0, 55, 93
1, 7785, Note_off_c, 0, 55, 93
1, 7794, Note_on_c, 0, 58, 87
1, 7875, Note_off_c, 0, 58, 87
1, 7892, Note_on_c, 0, 62, 111
1, 8012, Note_off_c, 0, 62, 111
1, 8016, Note_on_c, 0, 61, 99
1, 8089, Note_off_c, 0, 61, 99
1, 8093, Note_on_c, 0, 60, 85
1, 8164, Note_off_c, 0, 60, 85
1, 8167, Note_on_c, 0, 58, 98
1, 8327, Note_off_c, 0, 58, 98
1, 8347, Note_on_c, 0, 55, 88
1, 8440, Note_off_c, 0, 55, 88
1, 8441, Note_on_c, 0, 56, 106
1, 8524, Note_off_c, 0, 56, 106
1, 8530, Note_on_c, 0, 48, 93
1, 8593, Note_off_c, 0, 48, 93
1, 8623, Note_on_c, 0, 51, 88
1, 8704, Note_off_c, 0, 51, 88
1, 8721, Note_on_c, 0, 55, 102
1, 8819, Note_off_c, 0, 55, 102
1, 8826, Note_on_c, 0, 54, 99
1, 8921, Note_off_c, 0, 54, 99
1, 8928, Note_on_c, 0, 50, 84
1, 8987, Note_off_c, 0, 50, 84
1, 9009, Note_on_c, 0, 53, 90
1, 9097, Note_off_c, 0, 53, 90
1, 9097, Note_on_c, 0, 50, 95
1, 9188, Note_off_c, 0, 50, 95
1, 9190, Note_on_c, 0, 51, 99
1, 9288, Note_off_c, 0, 51, 99
1, 9297, Note_on_c, 0, 53, 90
1, 9365, Note_off_c, 0, 53, 90
1, 9369, Note_on_c, 0, 54, 89
1, 9464, Note_off_c, 0, 54, 89
1, 9466, Note_on_c, 0, 56, 94
1, 9554, Note_off_c, 0, 56, 94
1, 9563, Note_on_c, 0, 58, 105
1, 9678, Note_off_c, 0, 58, 105
1, 9682, Note_on_c, 0, 54, 96
1, 9748, Note_off_c, 0, 54, 96
1, 9760, Note_on_c, 0, 53, 81
1, 9838, Note_off_c, 0, 53, 81
1, 9847, Note_on_c, 0, 51, 90
1, 9938, Note_off_c, 0, 51, 90
1, 9955, Note_on_c, 0, 48, 84
1, 10033, Note_off_c, 0, 48, 84
1, 10037, Note_on_c, 0, 49, 93
1, 10100, Note_off_c, 0, 49, 93
1, 10114, Note_on_c, 0, 50, 96
1, 10207, Note_off_c, 0, 50, 96
1, 10209, Note_on_c, 0, 53, 93
1, 10287, Note_off_c, 0, 53, 93
1, 10287, Note_on_c, 0, 52, 97
1, 10368, Note_off_c, 0, 52, 97
1, 10377, Note_on_c, 0, 50, 84
1, 10477, Note_off_c, 0, 50, 84
1, 10484, Note_on_c, 0, 51, 88
1, 10582, Note_off_c, 0, 51, 88
1, 10589, Note_on_c, 0, 53, 88
1, 10680, Note_off_c, 0, 53, 88
1, 10692, Note_on_c, 0, 55, 91
1, 10775, Note_off_c, 0, 55, 91
1, 10779, Note_on_c, 0, 58, 74
1, 10860, Note_off_c, 0, 58, 74
1, 10874, Note_on_c, 0, 62, 102
1, 10967, Note_off_c, 0, 62, 102
1, 10971, Note_on_c, 0, 60, 102
1, 11064, Note_off_c, 0, 60, 102
1, 11081, Note_on_c, 0, 57, 84
1, 11140, Note_off_c, 0, 57, 84
1, 11154, Note_on_c, 0, 53, 78
1, 11215, Note_off_c, 0, 53, 78
1, 11222, Note_on_c, 0, 58, 109
1, 11330, Note_off_c, 0, 58, 109
1, 11413, Note_on_c, 0, 53, 84
1, 11491, Note_off_c, 0, 53, 84
1, 11513, Note_on_c, 0, 55, 91
1, 11604, Note_off_c, 0, 55, 91
1, 11631, Note_on_c, 0, 53, 86
1, 11768, Note_off_c, 0, 53, 86
1, 11770, Note_on_c, 0, 62, 109
1, 11981, Note_off_c, 0, 62, 109
1, 11981, Note_on_c, 0, 53, 79
1, 12086, Note_off_c, 0, 53, 79
1, 12090, Note_on_c, 0, 55, 93
1, 12176, Note_off_c, 0, 55, 93
1, 12195, Note_on_c, 0, 53, 81
1, 12350, Note_off_c, 0, 53, 81
1, 12359, Note_on_c, 0, 63, 118
1, 12523, Note_off_c, 0, 63, 118
1, 12547, Note_on_c, 0, 53, 83
1, 12657, Note_off_c, 0, 53, 83
1, 12669, Note_on_c, 0, 55, 91
1, 12755, Note_off_c, 0, 55, 91
1, 12762, Note_on_c, 0, 53, 78
1, 12904, Note_off_c, 0, 53, 78
1, 12928, Note_on_c, 0, 64, 108
1, 13127, Note_off_c, 0, 64, 108
1, 13134, Note_on_c, 0, 53, 88
1, 13234, Note_off_c, 0, 53, 88
1, 13253, Note_on_c, 0, 55, 96
1, 13358, Note_off_c, 0, 55, 96
1, 13367, Note_on_c, 0, 53, 80
1, 13490, Note_off_c, 0, 53, 80
1, 13517, Note_on_c, 0, 63, 102
1, 14041, Note_off_c, 0, 63, 102
1, 14109, Note_on_c, 0, 62, 115
1, 14209, Note_off_c, 0, 62, 115
1, 14231, Note_on_c, 0, 61, 102
1, 14314, Note_off_c, 0, 61, 102
1, 14323, Note_on_c, 0, 60, 89
1, 14394, Note_off_c, 0, 60, 89
1, 14403, Note_on_c, 0, 58, 99
1, 14481, Note_off_c, 0, 58, 99
1, 14498, Note_on_c, 0, 57, 92
1, 14576, Note_off_c, 0, 57, 92
1, 14583, Note_on_c, 0, 55, 88
1, 14642, Note_off_c, 0, 55, 88
1, 14646, Note_on_c, 0, 56, 103
1, 14749, Note_off_c, 0, 56, 103
1, 14753, Note_on_c, 0, 69, 102
1, 14898, Note_off_c, 0, 69, 102
1, 14937, Note_on_c, 0, 62, 102
1, 15008, Note_off_c, 0, 62, 102
1, 15022, Note_on_c, 0, 65, 111
1, 15130, Note_off_c, 0, 65, 111
1, 15144, Note_on_c, 0, 62, 99
1, 15212, Note_off_c, 0, 62, 99
1, 15219, Note_on_c, 0, 63, 102
1, 15322, Note_off_c, 0, 63, 102
1, 15322, Note_on_c, 0, 65, 101
1, 15410, Note_off_c, 0, 65, 101
1, 15419, Note_on_c, 0, 66, 100
1, 15519, Note_off_c, 0, 66, 100
1, 15528, Note_on_c, 0, 62, 99
1, 15574, Note_off_c, 0, 62, 99
1, 15576, Note_on_c, 0, 65, 110
1, 15691, Note_off_c, 0, 65, 110
1, 15700, Note_on_c, 0, 63, 104
1, 15776, Note_off_c, 0, 63, 104
1, 15783, Note_on_c, 0, 62, 94
1, 15859, Note_off_c, 0, 62, 94
1, 15859, Note_on_c, 0, 60, 105
1, 15954, Note_off_c, 0, 60, 105
1, 15973, Note_on_c, 0, 58, 91
1, 16054, Note_off_c, 0, 58, 91
1, 16058, Note_on_c, 0, 57, 86
1, 16112, Note_off_c, 0, 57, 86
1, 16134, Note_on_c, 0, 58, 101
1, 16220, Note_off_c, 0, 58, 101
1, 16239, Note_on_c, 0, 60, 100
1, 16347, Note_off_c, 0, 60, 100
1, 16351, Note_on_c, 0, 61, 81
1, 16419, Note_off_c, 0, 61, 81
1, 16419, Note_on_c, 0, 62, 102
1, 16492, Note_off_c, 0, 62, 102
1, 16496, Note_on_c, 0, 67, 112
1, 16596, Note_off_c, 0, 67, 112
1, 16603, Note_on_c, 0, 66, 109
1, 16698, Note_off_c, 0, 66, 109
1, 16698, Note_on_c, 0, 65, 100
1, 16781, Note_off_c, 0, 65, 100
1, 16781, Note_on_c, 0, 63, 112
1, 16869, Note_off_c, 0, 63, 112
1, 16881, Note_on_c, 0, 62, 108
1, 16959, Note_off_c, 0, 62, 108
1, 16966, Note_on_c, 0, 60, 94
1, 17057, Note_off_c, 0, 60, 94
1, 17059, Note_on_c, 0, 58, 106
1, 17150, Note_off_c, 0, 58, 106
1, 17164, Note_on_c, 0, 57, 99
1, 17247, Note_off_c, 0, 57, 99
1, 17256, Note_on_c, 0, 55, 92
1, 17356, Note_off_c, 0, 55, 92
1, 17358, Note_on_c, 0, 54, 98
1, 17441, Note_off_c, 0, 54, 98
1, 17450, Note_on_c, 0, 53, 93
1, 17548, Note_off_c, 0, 53, 93
1, 17548, Note_on_c, 0, 45, 90
1, 17609, Note_off_c, 0, 45, 90
1, 17611, Note_on_c, 0, 48, 95
1, 17702, Note_off_c, 0, 48, 95
1, 17716, Note_on_c, 0, 51, 99
1, 17807, Note_off_c, 0, 51, 99
1, 17814, Note_on_c, 0, 48, 95
1, 17912, Note_off_c, 0, 48, 95
1, 17912, Note_on_c, 0, 49, 91
1, 17988, Note_off_c, 0, 49, 91
1, 17995, Note_on_c, 0, 50, 107
1, 18093, Note_off_c, 0, 50, 107
1, 18105, Note_on_c, 0, 48, 100
1, 18196, Note_off_c, 0, 48, 100
1, 18205, Note_on_c, 0, 45, 94
1, 18305, Note_off_c, 0, 45, 94
1, 18305, Note_on_c, 0, 46, 88
1, 18371, Note_off_c, 0, 46, 88
1, 18380, Note_on_c, 0, 47, 102
1, 18503, Note_off_c, 0, 47, 102
1, 18574, Note_on_c, 0, 43, 101
1, 18689, Note_off_c, 0, 43, 101
1, 18696, Note_on_c, 0, 41, 101
1, 18762, Note_off_c, 0, 41, 101
1, 19376, Note_on_c, 0, 36, 99
1, 19457, Note_off_c, 0, 36, 99
1, 19462, Note_on_c, 0, 37, 105
1, 19553, Note_off_c, 0, 37, 105
1, 19560, Note_on_c, 0, 38, 107
1, 19653, Note_off_c, 0, 38, 107
1, 19659, Note_on_c, 0, 47, 101
1, 19740, Note_off_c, 0, 47, 101
1, 19740, Note_on_c, 0, 48, 106
1, 19813, Note_off_c, 0, 48, 106
1, 19827, Note_on_c, 0, 45, 95
1, 19895, Note_off_c, 0, 45, 95
1, 19899, Note_on_c, 0, 47, 106
1, 19987, Note_off_c, 0, 47, 106
1, 19999, Note_on_c, 0, 38, 95
1, 20080, Note_off_c, 0, 38, 95
1, 20087, Note_on_c, 0, 41, 113
1, 20170, Note_off_c, 0, 41, 113
1, 20179, Note_on_c, 0, 44, 100
1, 20272, Note_off_c, 0, 44, 100
1, 20387, Note_on_c, 0, 42, 88
1, 20450, Note_off_c, 0, 42, 88
1, 20452, Note_on_c, 0, 43, 121
1, 20535, Note_off_c, 0, 43, 121
1, 20537, Note_on_c, 0, 41, 102
1, 20637, Note_off_c, 0, 41, 102
1, 20654, Note_on_c, 0, 40, 103
1, 20767, Note_off_c, 0, 40, 103
1, 20779, Note_on_c, 0, 50, 99
1, 20884, Note_off_c, 0, 50, 99
1, 20952, Note_on_c, 0, 45, 93
1, 21028, Note_off_c, 0, 45, 93
1, 21030, Note_on_c, 0, 48, 99
1, 21148, Note_off_c, 0, 48, 99
1, 21416, Note_on_c, 0, 57, 113
1, 21529, Note_off_c, 0, 57, 113
1, 21538, Note_on_c, 0, 54, 99
1, 21616, Note_off_c, 0, 54, 99
1, 21625, Note_on_c, 0, 55, 97
1, 21723, Note_off_c, 0, 55, 97
1, 21725, Note_on_c, 0, 57, 99
1, 21798, Note_off_c, 0, 57, 99
1, 21802, Note_on_c, 0, 58, 104
1, 21902, Note_off_c, 0, 58, 104
1, 21909, Note_on_c, 0, 55, 100
1, 22002, Note_off_c, 0, 55, 100
1, 22011, Note_on_c, 0, 51, 104
1, 22092, Note_off_c, 0, 51, 104
1, 22096, Note_on_c, 0, 48, 94
1, 22164, Note_off_c, 0, 48, 94
1, 22178, Note_on_c, 0, 50, 98
1, 22465, Note_off_c, 0, 50, 98
1, 22470, Note_on_c, 0, 48, 96
1, 22556, Note_off_c, 0, 48, 96
1, 22570, Note_on_c, 0, 47, 97
1, 22644, Note_off_c, 0, 47, 97
1, 22659, Note_on_c, 0, 45, 99
1, 22762, Note_off_c, 0, 45, 99
1, 22771, Note_on_c, 0, 46, 106
1, 22866, Note_off_c, 0, 46, 106
1, 22866, Note_on_c, 0, 54, 102
1, 23007, Note_off_c, 0, 54, 102
1, 23051, Note_on_c, 0, 52, 96
1, 23151, Note_off_c, 0, 52, 96
1, 23158, Note_on_c, 0, 53, 98
1, 23246, Note_off_c, 0, 53, 98
1, 23255, Note_on_c, 0, 51, 100
1, 23328, Note_off_c, 0, 51, 100
1, 23529, Note_on_c, 0, 50, 105
1, 23642, Note_off_c, 0, 50, 105
1, 23664, Note_on_c, 0, 46, 99
1, 23725, Note_off_c, 0, 46, 99
1, 23739, Note_on_c, 0, 45, 100
1, 23832, Note_off_c, 0, 45, 100
1, 23832, Note_on_c, 0, 44, 98
1, 23932, Note_off_c, 0, 44, 98
1, 23941, Note_on_c, 0, 43, 100
1, 24019, Note_off_c, 0, 43, 100
1, 24028, Note_on_c, 0, 42, 96
1, 24101, Note_off_c, 0, 42, 96
1, 24105, Note_on_c, 0, 43, 96
1, 24193, Note_off_c, 0, 43, 96
1, 24200, Note_on_c, 0, 46, 90
1, 24273, Note_off_c, 0, 46, 90
1, 24273, Note_on_c, 0, 43, 106
1, 24430, Note_off_c, 0, 43, 106
1, 24444, Note_on_c, 0, 60, 112
1, 24559, Note_off_c, 0, 60, 112
1, 24561, Note_on_c, 0, 58, 109
1, 24637, Note_off_c, 0, 58, 109
1, 24641, Note_on_c, 0, 57, 103
1, 24734, Note_off_c, 0, 57, 103
1, 24746, Note_on_c, 0, 55, 104
1, 24861, Note_off_c, 0, 55, 104
1, 24868, Note_on_c, 0, 53, 96
1, 24961, Note_off_c, 0, 53, 96
1, 24970, Note_on_c, 0, 51, 99
1, 25063, Note_off_c, 0, 51, 99
1, 25075, Note_on_c, 0, 48, 97
1, 25166, Note_off_c, 0, 48, 97
1, 25173, Note_on_c, 0, 49, 86
1, 25239, Note_off_c, 0, 49, 86
1, 25253, Note_on_c, 0, 50, 90
1, 25376, Note_off_c, 0, 50, 90
1, 25393, Note_on_c, 0, 47, 93
1, 25508, Note_off_c, 0, 47, 93
1, 25542, Note_on_c, 0, 53, 101
1, 25633, Note_off_c, 0, 53, 101
1, 25642, Note_on_c, 0, 52, 101
1, 25728, Note_off_c, 0, 52, 101
1, 25740, Note_on_c, 0, 50, 99
1, 25835, Note_off_c, 0, 50, 99
1, 25842, Note_on_c, 0, 51, 100
1, 25940, Note_off_c, 0, 51, 100
1, 25957, Note_on_c, 0, 43, 105
1, 26030, Note_off_c, 0, 43, 105
1, 26037, Note_on_c, 0, 46, 97
1, 26130, Note_off_c, 0, 46, 97
1, 26137, Note_on_c, 0, 50, 98
1, 26365, Note_off_c, 0, 50, 98
1, 26404, Note_on_c, 0, 48, 105
1, 26502, Note_off_c, 0, 48, 105
1, 26509, Note_on_c, 0, 43, 100
1, 26585, Note_off_c, 0, 43, 100
1, 26592, Note_on_c, 0, 44, 101
1, 26646, Note_off_c, 0, 44, 101
1, 26655, Note_on_c, 0, 48, 102
1, 26714, Note_off_c, 0, 48, 102
1, 26723, Note_on_c, 0, 51, 96
1, 26786, Note_off_c, 0, 51, 96
1, 26803, Note_on_c, 0, 55, 111
1, 26967, Note_off_c, 0, 55, 111
1, 26979, Note_on_c, 0, 58, 111
1, 27161, Note_off_c, 0, 58, 111
1, 27572, Note_on_c, 0, 54, 104
1, 27744, Note_off_c, 0, 54, 104
1, 27748, Note_on_c, 0, 58, 109
1, 27903, Note_off_c, 0, 58, 109
1, 27917, Note_on_c, 0, 54, 97
1, 27985, Note_off_c, 0, 54, 97
1, 27992, Note_on_c, 0, 53, 91
1, 28078, Note_off_c, 0, 53, 91
1, 28090, Note_on_c, 0, 51, 93
1, 28163, Note_off_c, 0, 51, 93
1, 28175, Note_on_c, 0, 48, 97
1, 28273, Note_off_c, 0, 48, 97
1, 28275, Note_on_c, 0, 49, 99
1, 28336, Note_off_c, 0, 49, 99
1, 28343, Note_on_c, 0, 50, 102
1, 28461, Note_off_c, 0, 50, 102
1, 28470, Note_on_c, 0, 53, 95
1, 28593, Note_off_c, 0, 53, 95
1, 29304, Note_on_c, 0, 53, 93
1, 29434, Note_off_c, 0, 53, 93
1, 29485, Note_on_c, 0, 58, 105
1, 29664, Note_off_c, 0, 58, 105
1, 29676, Note_on_c, 0, 57, 97
1, 29794, Note_off_c, 0, 57, 97
1, 29796, Note_on_c, 0, 60, 98
1, 29987, Note_off_c, 0, 60, 98
1, 30001, Note_on_c, 0, 58, 98
1, 30163, Note_off_c, 0, 58, 98
1, 30244, Note_on_c, 0, 53, 100
1, 30364, Note_off_c, 0, 53, 100
1, 30371, Note_on_c, 0, 55, 98
1, 30420, Note_off_c, 0, 55, 98
1, 30429, Note_on_c, 0, 53, 98
1, 30453, Note_off_c, 0, 53, 98
1, 30457, Note_on_c, 0, 52, 91
1, 30548, Note_off_c, 0, 52, 91
1, 30565, Note_on_c, 0, 55, 104
1, 30707, Note_off_c, 0, 55, 104
1, 30735, Note_on_c, 0, 53, 98
1, 30853, Note_off_c, 0, 53, 98
1, 30918, Note_on_c, 0, 51, 102
1, 31038, Note_off_c, 0, 51, 102
1, 31052, Note_on_c, 0, 48, 89
1, 31138, Note_off_c, 0, 48, 89
1, 31147, Note_on_c, 0, 49, 98
1, 31230, Note_off_c, 0, 49, 98
1, 31242, Note_on_c, 0, 50, 106
1, 31333, Note_off_c, 0, 50, 106
1, 31337, Note_on_c, 0, 48, 100
1, 31410, Note_off_c, 0, 48, 100
1, 31417, Note_on_c, 0, 47, 92
1, 31510, Note_off_c, 0, 47, 92
1, 31524, Note_on_c, 0, 56, 112
1, 31624, Note_off_c, 0, 56, 112
1, 31628, Note_on_c, 0, 55, 103
1, 31719, Note_off_c, 0, 55, 103
1, 31738, Note_on_c, 0, 50, 90
1, 31799, Note_off_c, 0, 50, 90
1, 31813, Note_on_c, 0, 53, 93
1, 31906, Note_off_c, 0, 53, 93
1, 31910, Note_on_c, 0, 50, 95
1, 31988, Note_off_c, 0, 50, 95
1, 31997, Note_on_c, 0, 51, 90
1, 32056, Note_off_c, 0, 51, 90
1, 32056, Note_on_c, 0, 55, 91
1, 32097, Note_off_c, 0, 55, 91
1, 32114, Note_on_c, 0, 58, 103
1, 32168, Note_off_c, 0, 58, 103
1, 32177, Note_on_c, 0, 62, 116
1, 32309, Note_off_c, 0, 62, 116
1, 32309, Note_on_c, 0, 61, 104
1, 32382, Note_off_c, 0, 61, 104
1, 32384, Note_on_c, 0, 60, 97
1, 32467, Note_off_c, 0, 60, 97
1, 32476, Note_on_c, 0, 58, 106
1, 32576, Note_off_c, 0, 58, 106
1, 32593, Note_on_c, 0, 57, 94
1, 32656, Note_off_c, 0, 57, 94
1, 32663, Note_on_c, 0, 55, 96
1, 32736, Note_off_c, 0, 55, 96
1, 32740, Note_on_c, 0, 56, 104
1, 32838, Note_off_c, 0, 56, 104
1, 32857, Note_on_c, 0, 60, 107
1, 32948, Note_off_c, 0, 60, 107
1, 32967, Note_on_c, 0, 55, 96
1, 33065, Note_off_c, 0, 55, 96
1, 33069, Note_on_c, 0, 53, 88
1, 33113, Note_on_c, 0, 58, 110
1, 33113, Note_off_c, 0, 53, 88
1, 33243, Note_off_c, 0, 58, 110
1, 33255, Note_on_c, 0, 56, 106
1, 33378, Note_off_c, 0, 56, 106
1, 33444, Note_on_c, 0, 54, 90
1, 33510, Note_off_c, 0, 54, 90
1, 33512, Note_on_c, 0, 55, 112
1, 33622, Note_off_c, 0, 55, 112
1, 33634, Note_on_c, 0, 53, 100
1, 33722, Note_off_c, 0, 53, 100
1, 33731, Note_on_c, 0, 52, 94
1, 33817, Note_off_c, 0, 52, 94
1, 33819, Note_on_c, 0, 55, 102
1, 33902, Note_off_c, 0, 55, 102
1, 33909, Note_on_c, 0, 58, 93
1, 33990, Note_off_c, 0, 58, 93
1, 33992, Note_on_c, 0, 61, 108
1, 34063, Note_off_c, 0, 61, 108
1, 34085, Note_on_c, 0, 62, 120
1, 34173, Note_off_c, 0, 62, 120
1, 34195, Note_on_c, 0, 53, 86
1, 34436, Note_off_c, 0, 53, 86
1, 34460, Note_on_c, 0, 55, 111
1, 34644, Note_off_c, 0, 55, 111
1, 35549, Note_on_c, 0, 61, 103
1, 35642, Note_off_c, 0, 61, 103
1, 35644, Note_on_c, 0, 62, 102
1, 35737, Note_off_c, 0, 62, 102
1, 35741, Note_on_c, 0, 65, 111
1, 35854, Note_off_c, 0, 65, 111
1, 35856, Note_on_c, 0, 60, 96
1, 35934, Note_off_c, 0, 60, 96
1, 35941, Note_on_c, 0, 61, 95
1, 36014, Note_off_c, 0, 61, 95
1, 36014, Note_on_c, 0, 64, 105
1, 36139, Note_off_c, 0, 64, 105
1, 36143, Note_on_c, 0, 59, 91
1, 36202, Note_off_c, 0, 59, 91
1, 36209, Note_on_c, 0, 60, 92
1, 36309, Note_off_c, 0, 60, 92
1, 36323, Note_on_c, 0, 63, 115
1, 36448, Note_off_c, 0, 63, 115
1, 36460, Note_on_c, 0, 58, 90
1, 36536, Note_off_c, 0, 58, 90
1, 36540, Note_on_c, 0, 59, 91
1, 36606, Note_off_c, 0, 59, 91
1, 36613, Note_on_c, 0, 62, 110
1, 36740, Note_off_c, 0, 62, 110
1, 36749, Note_on_c, 0, 57, 95
1, 36822, Note_off_c, 0, 57, 95
1, 36826, Note_on_c, 0, 58, 92
1, 36909, Note_off_c, 0, 58, 92
1, 36913, Note_on_c, 0, 61, 102
1, 37011, Note_off_c, 0, 61, 102
1, 37015, Note_on_c, 0, 56, 95
1, 37086, Note_off_c, 0, 56, 95
1, 37086, Note_on_c, 0, 57, 92
1, 37162, Note_off_c, 0, 57, 92
1, 37166, Note_on_c, 0, 60, 100
1, 37303, Note_off_c, 0, 60, 100
1, 37539, Note_on_c, 0, 59, 100
1, 37662, Note_off_c, 0, 59, 100
1, 37666, Note_on_c, 0, 57, 100
1, 37761, Note_off_c, 0, 57, 100
1, 37765, Note_on_c, 0, 58, 101
1, 37843, Note_off_c, 0, 58, 101
1, 37857, Note_on_c, 0, 55, 104
1, 37936, Note_off_c, 0, 55, 104
1, 37937, Note_on_c, 0, 51, 90
1, 38025, Note_off_c, 0, 51, 90
1, 38120, Note_on_c, 0, 54, 104
1, 38206, Note_off_c, 0, 54, 104
1, 38208, Note_on_c, 0, 56, 103
1, 38257, Note_off_c, 0, 56, 103
1, 38257, Note_on_c, 0, 54, 103
1, 38311, Note_off_c, 0, 54, 103
1, 38315, Note_on_c, 0, 53, 96
1, 38415, Note_off_c, 0, 53, 96
1, 38424, Note_on_c, 0, 51, 97
1, 38512, Note_off_c, 0, 51, 97
1, 38516, Note_on_c, 0, 50, 100
1, 38609, Note_off_c, 0, 50, 100
1, 38618, Note_on_c, 0, 48, 94
1, 38704, Note_off_c, 0, 48, 94
1, 38716, Note_on_c, 0, 46, 100
1, 38811, Note_off_c, 0, 46, 100
1, 38813, Note_on_c, 0, 43, 89
1, 38886, Note_off_c, 0, 43, 89
1, 38898, Note_on_c, 0, 44, 98
1, 38993, Note_off_c, 0, 44, 98
1, 38997, Note_on_c, 0, 46, 96
1, 39102, Note_off_c, 0, 46, 96
1, 39111, Note_on_c, 0, 48, 93
1, 39202, Note_off_c, 0, 48, 93
1, 39206, Note_on_c, 0, 50, 98
1, 39292, Note_off_c, 0, 50, 98
1, 39296, Note_on_c, 0, 55, 105
1, 39372, Note_off_c, 0, 55, 105
1, 39379, Note_on_c, 0, 50, 97
1, 39445, Note_off_c, 0, 50, 97
1, 39450, Note_on_c, 0, 53, 97
1, 39531, Note_off_c, 0, 53, 97
1, 39534, Note_on_c, 0, 50, 97
1, 39610, Note_off_c, 0, 50, 97
1, 39613, Note_on_c, 0, 51, 102
1, 39690, Note_off_c, 0, 51, 102
1, 39702, Note_on_c, 0, 53, 89
1, 39790, Note_off_c, 0, 53, 89
1, 39795, Note_on_c, 0, 54, 97
1, 39888, Note_off_c, 0, 54, 97
1, 39983, Note_on_c, 0, 53, 100
1, 40069, Note_off_c, 0, 53, 100
1, 40074, Note_on_c, 0, 51, 99
1, 40158, Note_off_c, 0, 51, 99
1, 40168, Note_on_c, 0, 50, 97
1, 40251, Note_off_c, 0, 50, 97
1, 40264, Note_on_c, 0, 48, 104
1, 40347, Note_off_c, 0, 48, 104
1, 40355, Note_on_c, 0, 46, 107
1, 40438, Note_off_c, 0, 46, 107
1, 40446, Note_on_c, 0, 45, 95
1, 40529, Note_off_c, 0, 45, 95
1, 40530, Note_on_c, 0, 46, 100
1, 40616, Note_off_c, 0, 46, 100
1, 40621, Note_on_c, 0, 48, 96
1, 40710, Note_off_c, 0, 48, 96
1, 40716, Note_on_c, 0, 50, 93
1, 40807, Note_off_c, 0, 50, 93
1, 40813, Note_on_c, 0, 51, 90
1, 40908, Note_off_c, 0, 51, 90
1, 40916, Note_on_c, 0, 53, 98
1, 41016, Note_off_c, 0, 53, 98
1, 41031, Note_on_c, 0, 48, 102
1, 41105, Note_off_c, 0, 48, 102
1, 41115, Note_on_c, 0, 51, 93
1, 41192, Note_off_c, 0, 51, 93
1, 41204, Note_on_c, 0, 48, 91
1, 41280, Note_off_c, 0, 48, 91
1, 41293, Note_on_c, 0, 46, 96
1, 41376, Note_off_c, 0, 46, 96
1, 41378, Note_on_c, 0, 47, 94
1, 41442, Note_off_c, 0, 47, 94
1, 41442, Note_on_c, 0, 50, 92
1, 41512, Note_off_c, 0, 50, 92
1, 41574, Note_on_c, 0, 54, 101
1, 41615, Note_off_c, 0, 54, 101
1, 41616, Note_on_c, 0, 57, 98
1, 41669, Note_off_c, 0, 57, 98
1, 41675, Note_on_c, 0, 62, 115
1, 41799, Note_off_c, 0, 62, 115
1, 41804, Note_on_c, 0, 59, 96
1, 41868, Note_off_c, 0, 59, 96
1, 42408, Note_on_c, 0, 62, 127
1, 42555, Note_off_c, 0, 62, 127
1, 42562, Note_on_c, 0, 57, 103
1, 42655, Note_off_c, 0, 57, 103
1, 42722, Note_on_c, 0, 54, 101
1, 42798, Note_off_c, 0, 54, 101
1, 42805, Note_on_c, 0, 50, 98
1, 42945, Note_off_c, 0, 50, 98
1, 43374, Note_on_c, 0, 49, 107
1, 43472, Note_off_c, 0, 49, 107
1, 43481, Note_on_c, 0, 50, 93
1, 43581, Note_off_c, 0, 50, 93
1, 43598, Note_on_c, 0, 53, 85
1, 43681, Note_off_c, 0, 53, 85
1, 43690, Note_on_c, 0, 57, 85
1, 43781, Note_off_c, 0, 57, 85
1, 43788, Note_on_c, 0, 60, 95
1, 43879, Note_off_c, 0, 60, 95
1, 43886, Note_on_c, 0, 58, 98
1, 43952, Note_off_c, 0, 58, 98
1, 43954, Note_on_c, 0, 59, 103
1, 44042, Note_off_c, 0, 59, 103
1, 44059, Note_on_c, 0, 50, 96
1, 44142, Note_off_c, 0, 50, 96
1, 44149, Note_on_c, 0, 53, 97
1, 44230, Note_off_c, 0, 53, 97
1, 44237, Note_on_c, 0, 56, 116
1, 44350, Note_off_c, 0, 56, 116
1, 44357, Note_on_c, 0, 53, 102
1, 44440, Note_off_c, 0, 53, 102
1, 44449, Note_on_c, 0, 54, 97
1, 44515, Note_off_c, 0, 54, 97
1, 44515, Note_on_c, 0, 55, 115
1, 44623, Note_off_c, 0, 55, 115
1, 44635, Note_on_c, 0, 53, 103
1, 44716, Note_off_c, 0, 53, 103
1, 44728, Note_on_c, 0, 50, 91
1, 44806, Note_off_c, 0, 50, 91
1, 44808, Note_on_c, 0, 51, 91
1, 44886, Note_off_c, 0, 51, 91
1, 44890, Note_on_c, 0, 52, 101
1, 44999, Note_off_c, 0, 52, 101
1, 45078, Note_on_c, 0, 48, 105
1, 45192, Note_off_c, 0, 48, 105
1, 45212, Note_on_c, 0, 45, 98
1, 45289, Note_off_c, 0, 45, 98
1, 45478, Note_on_c, 0, 57, 116
1, 45549, Note_off_c, 0, 57, 116
1, 45553, Note_on_c, 0, 56, 112
1, 45621, Note_off_c, 0, 56, 112
1, 45633, Note_on_c, 0, 55, 101
1, 45704, Note_off_c, 0, 55, 101
1, 45711, Note_on_c, 0, 54, 99
1, 45799, Note_off_c, 0, 54, 99
1, 45801, Note_on_c, 0, 50, 102
1, 45973, Note_off_c, 0, 50, 102
1, 46036, Note_on_c, 0, 49, 109
1, 46131, Note_off_c, 0, 49, 109
1, 46150, Note_on_c, 0, 51, 107
1, 46206, Note_off_c, 0, 51, 107
1, 46218, Note_on_c, 0, 49, 106
1, 46267, Note_off_c, 0, 49, 106
1, 46269, Note_on_c, 0, 48, 98
1, 46374, Note_off_c, 0, 48, 98
1, 46376, Note_on_c, 0, 46, 101
1, 46471, Note_off_c, 0, 46, 101
1, 46478, Note_on_c, 0, 43, 99
1, 46549, Note_off_c, 0, 43, 99
1, 46553, Note_on_c, 0, 44, 95
1, 46621, Note_off_c, 0, 44, 95
1, 46625, Note_on_c, 0, 45, 100
1, 46799, Note_off_c, 0, 45, 100
1, 46816, Note_on_c, 0, 41, 107
1, 46939, Note_off_c, 0, 41, 107
1, 46953, Note_on_c, 0, 39, 106
1, 47093, Note_off_c, 0, 39, 106
1, 47110, Note_on_c, 0, 39, 101
1, 47257, Note_off_c, 0, 39, 101
1, 47323, Note_on_c, 0, 46, 88
1, 47377, Note_off_c, 0, 46, 88
1, 47391, Note_on_c, 0, 50, 106
1, 47575, Note_off_c, 0, 50, 106
1, 47592, Note_on_c, 0, 48, 109
1, 47749, Note_off_c, 0, 48, 109
1, 47780, Note_on_c, 0, 46, 97
1, 47952, Note_off_c, 0, 46, 97
1, 47971, Note_on_c, 0, 41, 102
1, 48123, Note_off_c, 0, 41, 102
1, 48164, Note_on_c, 0, 43, 107
1, 48323, Note_off_c, 0, 43, 107
1, 48354, Note_on_c, 0, 45, 108
1, 48538, Note_off_c, 0, 45, 108
1, 48594, Note_on_c, 0, 46, 94
1, 48758, Note_off_c, 0, 46, 94
1, 48777, Note_on_c, 0, 48, 101
1, 48968, Note_off_c, 0, 48, 101
1, 48987, Note_on_c, 0, 50, 96
1, 49176, Note_off_c, 0, 50, 96
1, 49205, Note_on_c, 0, 51, 96
1, 49342, Note_off_c, 0, 51, 96
1, 49383, Note_on_c, 0, 53, 97
1, 49488, Note_off_c, 0, 53, 97
1, 49532, Note_on_c, 0, 53, 95
1, 49642, Note_off_c, 0, 53, 95
1, 49651, Note_on_c, 0, 50, 94
1, 50059, Note_off_c, 0, 50, 94
1, 50137, Note_on_c, 0, 51, 103
1, 50289, Note_off_c, 0, 51, 103
1, 50308, Note_on_c, 0, 51, 97
1, 50416, Note_off_c, 0, 51, 97
1, 50425, Note_on_c, 0, 48, 9
1, 50870, Note_off_c, 0, 48, 9
1, 50919, Note_on_c, 0, 50, 99
1, 51078, Note_off_c, 0, 50, 99
1, 51109, Note_on_c, 0, 50, 104
1, 51217, Note_off_c, 0, 50, 104
1, 51221, Note_on_c, 0, 46, 105
1, 51641, Note_off_c, 0, 46, 105
1, 51872, Note_on_c, 0, 46, 104
1, 52024, Note_off_c, 0, 46, 104
1, 52252, Note_on_c, 0, 46, 104
1, 52404, Note_off_c, 0, 46, 104
1, 52455, Note_on_c, 0, 41, 100
1, 52610, Note_off_c, 0, 41, 100
1, 52639, Note_on_c, 0, 45, 111
1, 52776, Note_off_c, 0, 45, 111
1, 52824, Note_on_c, 0, 45, 105
1, 52986, Note_off_c, 0, 45, 105
1, 53017, Note_on_c, 0, 45, 122
1, 53169, Note_off_c, 0, 45, 122
1, 53177, Note_on_c, 0, 46, 107
1, 53341, Note_off_c, 0, 46, 107
1, 53375, Note_on_c, 0, 48, 102
1, 53552, Note_off_c, 0, 48, 102
1, 53583, Note_on_c, 0, 50, 90
1, 53772, Note_off_c, 0, 50, 90
1, 53801, Note_on_c, 0, 51, 92
1, 53970, Note_off_c, 0, 51, 92
1, 53989, Note_on_c, 0, 53, 83
1, 54168, Note_off_c, 0, 53, 83
1, 54379, Note_on_c, 0, 43, 101
1, 55506, Note_off_c, 0, 43, 101
1, 55506, End_track
0, 0, End_of_file
