0, 0, Header, 1, 1, 192
1, 0, Start_track
1, 0, Title_t, "Melody"
1, 0, Tempo, 338983
1, 0, Key_signature, -2, "major"
1, 0, Time_signature, 4, 2, 24, 8
1, 3426, Note_on_c, 0, 65, 111
1, 3471, Note_off_c, 0, 65, 111
1, 3500, Note_on_c, 0, 65, 106
1, 3528, Note_off_c, 0, 65, 106
1, 3555, Note_on_c, 0, 65, 110
1, 3596, Note_off_c, 0, 65, 110
1, 3705, Note_on_c, 0, 74, 116
1, 3815, Note_off_c, 0, 74, 116
1, 3867, Note_on_c, 0, 74, 100
1, 3905, Note_off_c, 0, 74, 100
1, 3908, Note_on_c, 0, 75, 120
1, 4004, Note_off_c, 0, 75, 120
1, 4087, Note_on_c, 0, 72, 117
1, 4311, Note_off_c, 0, 72, 117
1, 4983, Note_on_c, 0, 65, 113
1, 5029, Note_off_c, 0, 65, 113
1, 5041, Note_on_c, 0, 65, 111
1, 5068, Note_off_c, 0, 65, 111
1, 5077, Note_on_c, 0, 65, 101
1, 5132, Note_off_c, 0, 65, 101
1, 5164, Note_on_c, 0, 71, 111
1, 5193, Note_off_c, 0, 71, 111
1, 5197, Note_on_c, 0, 72, 122
1, 5410, Note_off_c, 0, 72, 122
1, 5456, Note_on_c, 0, 73, 113
1, 5480, Note_off_c, 0, 73, 113
1, 5484, Note_on_c, 0, 74, 119
1, 5591, Note_off_c, 0, 74, 119
1, 5623, Note_on_c, 0, 70, 116
1, 5861, Note_off_c, 0, 70, 116
1, 6610, Note_on_c, 0, 74, 116
1, 6665, Note_off_c, 0, 74, 116
1, 6671, Note_on_c, 0, 75, 119
1, 6775, Note_off_c, 0, 75, 119
1, 6827, Note_on_c, 0, 77, 113
1, 6873, Note_off_c, 0, 77, 113
1, 6878, Note_on_c, 0, 79, 120
1, 6953, Note_off_c, 0, 79, 120
1, 7055, Note_on_c, 0, 72, 118
1, 7169, Note_off_c, 0, 72, 118
1, 7262, Note_on_c, 0, 75, 117
1, 7353, Note_off_c, 0, 75, 117
1, 7459, Note_on_c, 0, 68, 109
1, 7486, Note_off_c, 0, 68, 109
1, 7488, Note_on_c, 0, 69, 113
1, 7646, Note_off_c, 0, 69, 113
1, 7656, Note_on_c, 0, 72, 117
1, 7745, Note_off_c, 0, 72, 117
1, 7842, Note_on_c, 0, 65, 111
1, 8003, Note_off_c, 0, 65, 111
1, 8037, Note_on_c, 0, 67, 104
1, 8110, Note_off_c, 0, 67, 104
1, 8206, Note_on_c, 0, 67, 89
1, 8228, Note_off_c, 0, 67, 89
1, 8229, Note_on_c, 0, 68, 111
1, 8330, Note_off_c, 0, 68, 111
1, 8369, Note_on_c, 0, 70, 113
1, 8466, Note_off_c, 0, 70, 113
1, 8509, Note_on_c, 0, 68, 110
1, 8578, Note_off_c, 0, 68, 110
1, 8614, Note_on_c, 0, 65, 110
1, 8719, Note_off_c, 0, 65, 110
1, 8811, Note_on_c, 0, 65, 110
1, 8942, Note_off_c, 0, 65, 110
1, 8964, Note_on_c, 0, 65, 85
1, 9504, Note_off_c, 0, 65, 85
1, 10479, Note_on_c, 0, 76, 119
1, 10563, Note_off_c, 0, 76, 119
1, 10588, Note_on_c, 0, 77, 118
1, 10657, Note_off_c, 0, 77, 118
1, 10677, Note_on_c, 0, 82, 121
1, 10764, Note_off_c, 0, 82, 121
1, 10777, Note_on_c, 0, 79, 124
1, 10846, Note_off_c, 0, 79, 124
1, 10875, Note_on_c, 0, 77, 123
1, 10997, Note_off_c, 0, 77, 123
1, 11069, Note_on_c, 0, 73, 119
1, 11128, Note_off_c, 0, 73, 119
1, 11136, Note_on_c, 0, 74, 112
1, 11176, Note_off_c, 0, 74, 112
1, 11179, Note_on_c, 0, 77, 116
1, 11247, Note_off_c, 0, 77, 116
1, 11256, Note_on_c, 0, 73, 107
1, 11295, Note_off_c, 0, 73, 107
1, 11297, Note_on_c, 0, 74, 118
1, 11353, Note_off_c, 0, 74, 118
1, 11363, Note_on_c, 0, 70, 111
1, 11439, Note_off_c, 0, 70, 111
1, 11451, Note_on_c, 0, 72, 106
1, 11630, Note_off_c, 0, 72, 106
1, 11649, Note_on_c, 0, 71, 108
1, 11666, Note_off_c, 0, 71, 108
1, 11668, Note_on_c, 0, 72, 110
1, 11710, Note_off_c, 0, 72, 110
1, 11715, Note_on_c, 0, 72, 111
1, 11788, Note_off_c, 0, 72, 111
1, 11822, Note_on_c, 0, 67, 92
1, 11924, Note_off_c, 0, 67, 92
1, 11988, Note_on_c, 0, 67, 83
1, 12204, Note_off_c, 0, 67, 83
1, 12555, Note_on_c, 0, 65, 100
1, 12582, Note_off_c, 0, 65, 100
1, 12589, Note_on_c, 0, 70, 114
1, 12651, Note_off_c, 0, 70, 114
1, 12656, Note_on_c, 0, 72, 113
1, 12695, Note_off_c, 0, 72, 113
1, 12701, Note_on_c, 0, 74, 109
1, 12776, Note_off_c, 0, 74, 109
1, 12803, Note_on_c, 0, 66, 109
1, 13007, Note_off_c, 0, 66, 109
1, 13089, Note_on_c, 0, 67, 92
1, 13329, Note_off_c, 0, 67, 92
1, 13688, Note_on_c, 0, 63, 107
1, 13731, Note_off_c, 0, 63, 107
1, 13752, Note_on_c, 0, 67, 104
1, 13839, Note_off_c, 0, 67, 104
1, 13949, Note_on_c, 0, 68, 107
1, 13979, Note_off_c, 0, 68, 107
1, 13981, Note_on_c, 0, 69, 104
1, 14054, Note_off_c, 0, 69, 104
1, 14122, Note_on_c, 0, 74, 117
1, 14192, Note_off_c, 0, 74, 117
1, 14250, Note_on_c, 0, 65, 99
1, 14302, Note_off_c, 0, 65, 99
1, 14320, Note_on_c, 0, 72, 113
1, 14412, Note_off_c, 0, 72, 113
1, 14418, Note_on_c, 0, 70, 114
1, 14482, Note_off_c, 0, 70, 114
1, 14516, Note_on_c, 0, 70, 115
1, 14615, Note_off_c, 0, 70, 115
1, 14692, Note_on_c, 0, 70, 103
1, 14906, Note_off_c, 0, 70, 103
1, 15841, Note_on_c, 0, 73, 107
1, 15868, Note_off_c, 0, 73, 107
1, 15870, Note_on_c, 0, 74, 115
1, 15964, Note_off_c, 0, 74, 115
1, 16232, Note_on_c, 0, 68, 108
1, 16262, Note_off_c, 0, 68, 108
1, 16265, Note_on_c, 0, 69, 110
1, 16323, Note_off_c, 0, 69, 110
1, 16331, Note_on_c, 0, 71, 109
1, 16407, Note_off_c, 0, 71, 109
1, 16514, Note_on_c, 0, 76, 117
1, 16597, Note_off_c, 0, 76, 117
1, 16613, Note_on_c, 0, 74, 118
1, 16745, Note_off_c, 0, 74, 118
1, 16927, Note_on_c, 0, 74, 117
1, 17070, Note_off_c, 0, 74, 117
1, 17556, Note_on_c, 0, 74, 116
1, 17664, Note_off_c, 0, 74, 116
1, 17771, Note_on_c, 0, 74, 114
1, 17978, Note_off_c, 0, 74, 114
1, 18031, Note_on_c, 0, 76, 117
1, 18095, Note_off_c, 0, 76, 117
1, 18112, Note_on_c, 0, 74, 114
1, 18200, Note_off_c, 0, 74, 114
1, 18210, Note_on_c, 0, 71, 105
1, 18281, Note_off_c, 0, 71, 105
1, 18286, Note_on_c, 0, 69, 104
1, 18374, Note_off_c, 0, 69, 104
1, 18415, Note_on_c, 0, 67, 90
1, 18565, Note_off_c, 0, 67, 90
1, 18685, Note_on_c, 0, 64, 101
1, 18747, Note_off_c, 0, 64, 101
1, 18773, Note_on_c, 0, 67, 96
1, 18800, Note_off_c, 0, 67, 96
1, 18808, Note_on_c, 0, 70, 98
1, 18838, Note_off_c, 0, 70, 98
1, 18851, Note_on_c, 0, 74, 115
1, 18944, Note_off_c, 0, 74, 115
1, 18960, Note_on_c, 0, 70, 99
1, 19029, Note_off_c, 0, 70, 99
1, 19045, Note_on_c, 0, 72, 114
1, 19124, Note_off_c, 0, 72, 114
1, 19151, Note_on_c, 0, 69, 105
1, 19203, Note_off_c, 0, 69, 105
1, 19206, Note_on_c, 0, 70, 110
1, 19302, Note_off_c, 0, 70, 110
1, 19325, Note_on_c, 0, 68, 108
1, 19385, Note_off_c, 0, 68, 108
1, 19398, Note_on_c, 0, 69, 98
1, 19434, Note_off_c, 0, 69, 98
1, 19435, Note_on_c, 0, 70, 98
1, 19469, Note_off_c, 0, 70, 98
1, 19498, Note_on_c, 0, 65, 104
1, 19574, Note_off_c, 0, 65, 104
1, 19582, Note_on_c, 0, 67, 99
1, 19738, Note_off_c, 0, 67, 99
1, 19766, Note_on_c, 0, 63, 95
1, 19878, Note_off_c, 0, 63, 95
1, 19887, Note_on_c, 0, 64, 90
1, 20107, Note_off_c, 0, 64, 90
1, 20326, Note_on_c, 0, 66, 103
1, 20347, Note_off_c, 0, 66, 103
1, 20353, Note_on_c, 0, 67, 110
1, 20390, Note_off_c, 0, 67, 110
1, 20396, Note_on_c, 0, 68, 103
1, 20432, Note_off_c, 0, 68, 103
1, 20437, Note_on_c, 0, 65, 98
1, 20489, Note_off_c, 0, 65, 98
1, 20493, Note_on_c, 0, 66, 95
1, 20525, Note_off_c, 0, 66, 95
1, 20527, Note_on_c, 0, 67, 106
1, 20585, Note_off_c, 0, 67, 106
1, 20632, Note_on_c, 0, 68, 105
1, 20670, Note_off_c, 0, 68, 105
1, 20676, Note_on_c, 0, 69, 99
1, 20704, Note_off_c, 0, 69, 99
1, 20716, Note_on_c, 0, 65, 101
1, 20766, Note_off_c, 0, 65, 101
1, 20792, Note_on_c, 0, 66, 97
1, 20819, Note_off_c, 0, 66, 97
1, 20823, Note_on_c, 0, 67, 100
1, 20882, Note_off_c, 0, 67, 100
1, 20902, Note_on_c, 0, 68, 101
1, 20993, Note_off_c, 0, 68, 101
1, 21006, Note_on_c, 0, 65, 101
1, 21058, Note_off_c, 0, 65, 101
1, 21071, Note_on_c, 0, 66, 95
1, 21102, Note_off_c, 0, 66, 95
1, 21109, Note_on_c, 0, 67, 96
1, 21197, Note_off_c, 0, 67, 96
1, 21780, Note_on_c, 0, 65, 99
1, 21816, Note_off_c, 0, 65, 99
1, 21820, Note_on_c, 0, 65, 94
1, 21840, Note_off_c, 0, 65, 94
1, 21853, Note_on_c, 0, 65, 99
1, 21886, Note_off_c, 0, 65, 99
1, 21965, Note_on_c, 0, 65, 96
1, 21992, Note_off_c, 0, 65, 96
1, 22010, Note_on_c, 0, 65, 97
1, 22032, Note_off_c, 0, 65, 97
1, 22054, Note_on_c, 0, 65, 97
1, 22079, Note_off_c, 0, 65, 97
1, 22151, Note_on_c, 0, 65, 79
1, 22172, Note_off_c, 0, 65, 79
1, 22186, Note_on_c, 0, 65, 86
1, 22214, Note_off_c, 0, 65, 86
1, 22217, Note_on_c, 0, 69, 106
1, 22248, Note_off_c, 0, 69, 106
1, 22248, Note_on_c, 0, 70, 109
1, 22288, Note_off_c, 0, 70, 109
1, 22329, Note_on_c, 0, 72, 105
1, 22386, Note_off_c, 0, 72, 105
1, 22417, Note_on_c, 0, 74, 98
1, 22486, Note_off_c, 0, 74, 98
1, 22535, Note_on_c, 0, 65, 99
1, 22559, Note_off_c, 0, 65, 99
1, 22564, Note_on_c, 0, 65, 92
1, 22613, Note_off_c, 0, 65, 92
1, 22617, Note_on_c, 0, 65, 102
1, 22660, Note_off_c, 0, 65, 102
1, 22721, Note_on_c, 0, 65, 90
1, 22759, Note_off_c, 0, 65, 90
1, 22762, Note_on_c, 0, 65, 89
1, 22791, Note_off_c, 0, 65, 89
1, 22798, Note_on_c, 0, 65, 101
1, 22855, Note_off_c, 0, 65, 101
1, 22912, Note_on_c, 0, 74, 97
1, 22995, Note_off_c, 0, 74, 97
1, 23002, Note_on_c, 0, 72, 109
1, 23077, Note_off_c, 0, 72, 109
1, 23113, Note_on_c, 0, 64, 101
1, 23171, Note_off_c, 0, 64, 101
1, 23219, Note_on_c, 0, 66, 90
1, 23243, Note_off_c, 0, 66, 90
1, 23390, Note_on_c, 0, 70, 109
1, 23454, Note_off_c, 0, 70, 109
1, 23493, Note_on_c, 0, 72, 113
1, 23556, Note_off_c, 0, 72, 113
1, 23565, Note_on_c, 0, 74, 114
1, 23652, Note_off_c, 0, 74, 114
1, 23672, Note_on_c, 0, 77, 118
1, 23745, Note_off_c, 0, 77, 118
1, 23749, Note_on_c, 0, 79, 123
1, 23845, Note_off_c, 0, 79, 123
1, 23861, Note_on_c, 0, 77, 114
1, 23934, Note_off_c, 0, 77, 114
1, 23943, Note_on_c, 0, 79, 116
1, 23974, Note_off_c, 0, 79, 116
1, 23975, Note_on_c, 0, 80, 118
1, 24020, Note_off_c, 0, 80, 118
1, 24022, Note_on_c, 0, 79, 100
1, 24045, Note_off_c, 0, 79, 100
1, 24050, Note_on_c, 0, 77, 116
1, 24124, Note_off_c, 0, 77, 116
1, 24130, Note_on_c, 0, 79, 121
1, 24274, Note_off_c, 0, 79, 121
1, 24631, Note_on_c, 0, 84, 99
1, 24644, Note_off_c, 0, 84, 99
1, 24645, Note_on_c, 0, 85, 109
1, 24810, Note_off_c, 0, 85, 109
1, 24824, Note_on_c, 0, 86, 112
1, 24887, Note_off_c, 0, 86, 112
1, 24900, Note_on_c, 0, 89, 117
1, 25020, Note_off_c, 0, 89, 117
1, 25109, Note_on_c, 0, 75, 117
1, 25180, Note_off_c, 0, 75, 117
1, 25213, Note_on_c, 0, 67, 93
1, 25273, Note_off_c, 0, 67, 93
1, 25392, Note_on_c, 0, 74, 114
1, 25465, Note_off_c, 0, 74, 114
1, 25487, Note_on_c, 0, 72, 107
1, 25585, Note_off_c, 0, 72, 107
1, 25677, Note_on_c, 0, 70, 88
1, 25746, Note_off_c, 0, 70, 88
1, 25751, Note_on_c, 0, 67, 87
1, 25797, Note_off_c, 0, 67, 87
1, 25811, Note_on_c, 0, 62, 96
1, 25857, Note_off_c, 0, 62, 96
1, 26584, Note_on_c, 0, 82, 116
1, 28197, Note_off_c, 0, 82, 116
1, 28351, Note_on_c, 0, 79, 119
1, 28452, Note_off_c, 0, 79, 119
1, 28484, Note_on_c, 0, 73, 101
1, 28504, Note_off_c, 0, 73, 101
1, 28513, Note_on_c, 0, 75, 113
1, 28574, Note_off_c, 0, 75, 113
1, 28675, Note_on_c, 0, 72, 99
1, 28901, Note_off_c, 0, 72, 99
1, 29238, Note_on_c, 0, 82, 121
1, 29289, Note_off_c, 0, 82, 121
1, 29316, Note_on_c, 0, 81, 118
1, 29409, Note_off_c, 0, 81, 118
1, 29426, Note_on_c, 0, 84, 113
1, 29491, Note_off_c, 0, 84, 113
1, 29509, Note_on_c, 0, 82, 118
1, 29609, Note_off_c, 0, 82, 118
1, 29705, Note_on_c, 0, 73, 114
1, 29791, Note_off_c, 0, 73, 114
1, 29804, Note_on_c, 0, 74, 98
1, 29854, Note_off_c, 0, 74, 98
1, 29888, Note_on_c, 0, 81, 118
1, 30021, Note_off_c, 0, 81, 118
1, 30077, Note_on_c, 0, 73, 116
1, 30176, Note_off_c, 0, 73, 116
1, 30180, Note_on_c, 0, 74, 115
1, 30237, Note_off_c, 0, 74, 115
1, 30258, Note_on_c, 0, 79, 107
1, 30464, Note_off_c, 0, 79, 107
1, 30594, Note_on_c, 0, 77, 118
1, 30686, Note_off_c, 0, 77, 118
1, 30797, Note_on_c, 0, 77, 111
1, 30885, Note_off_c, 0, 77, 111
1, 30965, Note_on_c, 0, 77, 113
1, 31212, Note_off_c, 0, 77, 113
1, 31232, Note_on_c, 0, 75, 116
1, 31339, Note_off_c, 0, 75, 116
1, 31351, Note_on_c, 0, 74, 91
1, 31411, Note_off_c, 0, 74, 91
1, 31417, Note_on_c, 0, 75, 117
1, 31527, Note_off_c, 0, 75, 117
1, 31536, Note_on_c, 0, 77, 99
1, 31599, Note_off_c, 0, 77, 99
1, 31929, Note_on_c, 0, 73, 110
1, 32013, Note_off_c, 0, 73, 110
1, 32019, Note_on_c, 0, 74, 113
1, 32184, Note_off_c, 0, 74, 113
1, 32199, Note_on_c, 0, 77, 122
1, 32283, Note_off_c, 0, 77, 122
1, 32301, Note_on_c, 0, 74, 118
1, 32371, Note_off_c, 0, 74, 118
1, 32377, Note_on_c, 0, 73, 117
1, 32476, Note_off_c, 0, 73, 117
1, 32487, Note_on_c, 0, 72, 113
1, 32721, Note_off_c, 0, 72, 113
1, 32755, Note_on_c, 0, 70, 111
1, 32849, Note_off_c, 0, 70, 111
1, 32858, Note_on_c, 0, 69, 98
1, 32894, Note_off_c, 0, 69, 98
1, 32956, Note_on_c, 0, 70, 98
1, 33189, Note_off_c, 0, 70, 98
1, 33476, Note_on_c, 0, 80, 117
1, 33573, Note_off_c, 0, 80, 117
1, 33652, Note_on_c, 0, 80, 122
1, 33759, Note_off_c, 0, 80, 122
1, 33849, Note_on_c, 0, 80, 123
1, 33986, Note_off_c, 0, 80, 123
1, 34046, Note_on_c, 0, 77, 84
1, 34098, Note_off_c, 0, 77, 84
1, 34112, Note_on_c, 0, 80, 120
1, 34212, Note_off_c, 0, 80, 120
1, 34224, Note_on_c, 0, 80, 121
1, 34288, Note_off_c, 0, 80, 121
1, 34304, Note_on_c, 0, 77, 10
1, 34405, Note_off_c, 0, 77, 10
1, 34411, Note_on_c, 0, 80, 120
1, 34476, Note_off_c, 0, 80, 120
1, 34492, Note_on_c, 0, 79, 116
1, 34724, Note_off_c, 0, 79, 116
1, 34803, Note_on_c, 0, 78, 116
1, 34918, Note_off_c, 0, 78, 116
1, 34978, Note_on_c, 0, 77, 113
1, 35128, Note_off_c, 0, 77, 113
1, 35166, Note_on_c, 0, 73, 89
1, 35234, Note_off_c, 0, 73, 89
1, 35262, Note_on_c, 0, 75, 111
1, 35314, Note_off_c, 0, 75, 111
1, 35335, Note_on_c, 0, 77, 118
1, 35411, Note_off_c, 0, 77, 118
1, 35427, Note_on_c, 0, 79, 121
1, 35540, Note_off_c, 0, 79, 121
1, 35642, Note_on_c, 0, 82, 119
1, 35752, Note_off_c, 0, 82, 119
1, 36695, Note_on_c, 0, 78, 108
1, 36745, Note_off_c, 0, 78, 108
1, 36755, Note_on_c, 0, 80, 113
1, 36783, Note_off_c, 0, 80, 113
1, 36791, Note_on_c, 0, 81, 115
1, 36853, Note_off_c, 0, 81, 115
1, 36905, Note_on_c, 0, 74, 89
1, 36937, Note_off_c, 0, 74, 89
1, 36973, Note_on_c, 0, 82, 119
1, 37062, Note_off_c, 0, 82, 119
1, 37131, Note_on_c, 0, 84, 116
1, 37178, Note_off_c, 0, 84, 116
1, 37186, Note_on_c, 0, 82, 117
1, 37420, Note_off_c, 0, 82, 117
1, 37469, Note_on_c, 0, 86, 125
1, 37626, Note_off_c, 0, 86, 125
1, 38223, Note_on_c, 0, 74, 93
1, 38260, Note_off_c, 0, 74, 93
1, 38280, Note_on_c, 0, 80, 100
1, 38418, Note_off_c, 0, 80, 100
1, 38431, Note_on_c, 0, 82, 109
1, 39214, Note_off_c, 0, 82, 109
1, 40193, Note_on_c, 0, 74, 114
1, 40523, Note_off_c, 0, 74, 114
1, 40612, Note_on_c, 0, 86, 124
1, 40835, Note_off_c, 0, 86, 124
1, 40867, Note_on_c, 0, 85, 117
1, 40931, Note_off_c, 0, 85, 117
1, 40941, Note_on_c, 0, 84, 120
1, 41057, Note_off_c, 0, 84, 120
1, 41145, Note_on_c, 0, 83, 122
1, 41271, Note_off_c, 0, 83, 122
1, 41324, Note_on_c, 0, 82, 118
1, 41469, Note_off_c, 0, 82, 118
1, 41517, Note_on_c, 0, 81, 123
1, 41640, Note_off_c, 0, 81, 123
1, 41704, Note_on_c, 0, 74, 106
1, 41802, Note_off_c, 0, 74, 106
1, 41828, Note_on_c, 0, 81, 122
1, 41883, Note_off_c, 0, 81, 122
1, 41906, Note_on_c, 0, 81, 117
1, 42012, Note_off_c, 0, 81, 117
1, 42025, Note_on_c, 0, 71, 89
1, 42062, Note_off_c, 0, 71, 89
1, 42083, Note_on_c, 0, 81, 114
1, 42438, Note_off_c, 0, 81, 114
1, 43234, Note_on_c, 0, 72, 116
1, 43510, Note_off_c, 0, 72, 116
1, 43577, Note_on_c, 0, 79, 103
1, 43617, Note_off_c, 0, 79, 103
1, 43632, Note_on_c, 0, 84, 114
1, 43878, Note_off_c, 0, 84, 114
1, 43886, Note_on_c, 0, 83, 116
1, 43953, Note_off_c, 0, 83, 116
1, 43957, Note_on_c, 0, 82, 122
1, 44103, Note_off_c, 0, 82, 122
1, 44160, Note_on_c, 0, 81, 121
1, 44272, Note_off_c, 0, 81, 121
1, 44365, Note_on_c, 0, 80, 119
1, 44478, Note_off_c, 0, 80, 119
1, 44538, Note_on_c, 0, 79, 118
1, 44642, Note_off_c, 0, 79, 118
1, 44731, Note_on_c, 0, 72, 107
1, 44797, Note_off_c, 0, 72, 107
1, 44829, Note_on_c, 0, 76, 109
1, 44882, Note_off_c, 0, 76, 109
1, 44882, Note_on_c, 0, 79, 104
1, 44912, Note_off_c, 0, 79, 104
1, 44924, Note_on_c, 0, 79, 119
1, 45028, Note_off_c, 0, 79, 119
1, 45114, Note_on_c, 0, 79, 107
1, 45305, Note_off_c, 0, 79, 107
1, 45795, Note_on_c, 0, 68, 96
1, 45815, Note_off_c, 0, 68, 96
1, 45822, Note_on_c, 0, 72, 100
1, 45852, Note_off_c, 0, 72, 100
1, 45853, Note_on_c, 0, 75, 104
1, 45876, Note_off_c, 0, 75, 104
1, 45880, Note_on_c, 0, 77, 119
1, 45940, Note_off_c, 0, 77, 119
1, 45953, Note_on_c, 0, 79, 114
1, 45984, Note_off_c, 0, 79, 114
1, 45986, Note_on_c, 0, 80, 105
1, 46016, Note_off_c, 0, 80, 105
1, 46033, Note_on_c, 0, 82, 119
1, 46123, Note_off_c, 0, 82, 119
1, 46160, Note_on_c, 0, 86, 125
1, 46260, Note_off_c, 0, 86, 125
1, 46338, Note_on_c, 0, 86, 127
1, 46453, Note_off_c, 0, 86, 127
1, 46945, Note_on_c, 0, 73, 101
1, 46975, Note_off_c, 0, 73, 101
1, 46978, Note_on_c, 0, 74, 103
1, 46999, Note_off_c, 0, 74, 103
1, 47007, Note_on_c, 0, 78, 113
1, 47109, Note_off_c, 0, 78, 113
1, 47114, Note_on_c, 0, 81, 104
1, 47181, Note_off_c, 0, 81, 104
1, 47187, Note_on_c, 0, 83, 113
1, 47298, Note_off_c, 0, 83, 113
1, 47305, Note_on_c, 0, 86, 120
1, 47405, Note_off_c, 0, 86, 120
1, 47489, Note_on_c, 0, 86, 118
1, 47673, Note_off_c, 0, 86, 118
1, 47749, Note_on_c, 0, 82, 116
1, 47881, Note_off_c, 0, 82, 116
1, 48509, Note_on_c, 0, 89, 102
1, 48529, Note_off_c, 0, 89, 102
1, 48533, Note_on_c, 0, 90, 81
1, 49096, Note_off_c, 0, 90, 81
1, 49105, Note_on_c, 0, 85, 111
1, 49148, Note_off_c, 0, 85, 111
1, 49237, Note_on_c, 0, 83, 120
1, 49320, Note_off_c, 0, 83, 120
1, 49396, Note_on_c, 0, 81, 117
1, 49423, Note_off_c, 0, 81, 117
1, 49424, Note_on_c, 0, 83, 90
1, 49634, Note_off_c, 0, 83, 90
1, 49958, Note_on_c, 0, 78, 100
1, 49985, Note_off_c, 0, 78, 100
1, 50017, Note_on_c, 0, 84, 120
1, 50088, Note_off_c, 0, 84, 120
1, 50097, Note_on_c, 0, 83, 98
1, 50139, Note_off_c, 0, 83, 98
1, 50143, Note_on_c, 0, 82, 121
1, 50189, Note_off_c, 0, 82, 121
1, 50198, Note_on_c, 0, 82, 118
1, 50301, Note_off_c, 0, 82, 118
1, 50397, Note_on_c, 0, 82, 120
1, 50515, Note_off_c, 0, 82, 120
1, 50578, Note_on_c, 0, 82, 122
1, 50680, Note_off_c, 0, 82, 122
1, 50691, Note_on_c, 0, 82, 111
1, 51013, Note_off_c, 0, 82, 111
1, 51140, Note_on_c, 0, 82, 107
1, 51264, Note_off_c, 0, 82, 107
1, 51332, Note_on_c, 0, 82, 114
1, 51525, Note_off_c, 0, 82, 114
1, 51666, Note_on_c, 0, 82, 115
1, 51736, Note_off_c, 0, 82, 115
1, 51915, Note_on_c, 0, 82, 95
1, 51939, Note_off_c, 0, 82, 95
1, 51944, Note_on_c, 0, 83, 123
1, 52004, Note_off_c, 0, 83, 123
1, 52016, Note_on_c, 0, 85, 118
1, 52084, Note_off_c, 0, 85, 118
1, 52095, Note_on_c, 0, 83, 121
1, 52208, Note_off_c, 0, 83, 121
1, 52281, Note_on_c, 0, 83, 123
1, 52400, Note_off_c, 0, 83, 123
1, 52400, End_track
0, 0, End_of_file
