0, 0, Header, 1, 1, 2520
1, 0, Start_track
1, 0, Note_on_c, 0, 72, 91
1, 855, Note_off_c, 0, 72, 91
1, 1223, Note_on_c, 0, 74, 115
1, 1244, Title_t, "Melody"
1, 1244, Tempo, 555555
1, 1244, Key_signature, -5, "major"
1, 1244, Time_signature, 4, 2, 24, 8
1, 1880, Note_off_c, 0, 74, 115
1, 2222, Note_on_c, 0, 76, 124
1, 2998, Note_off_c, 0, 76, 124
1, 3234, Note_on_c, 0, 74, 106
1, 3865, Note_off_c, 0, 74, 106
1, 4167, Note_on_c, 0, 74, 113
1, 4588, Note_off_c, 0, 74, 113
1, 4732, Note_on_c, 0, 72, 119
1, 5166, Note_off_c, 0, 72, 119
1, 5389, Note_on_c, 0, 69, 117
1, 5757, Note_off_c, 0, 69, 117
1, 5941, Note_on_c, 0, 65, 101
1, 6441, Note_off_c, 0, 65, 101
1, 6533, Note_on_c, 0, 62, 87
1, 6901, Note_off_c, 0, 62, 87
1, 7058, Note_on_c, 0, 63, 104
1, 7953, Note_off_c, 0, 63, 104
1, 8308, Note_on_c, 0, 55, 84
1, 8808, Note_off_c, 0, 55, 84
1, 8992, Note_on_c, 0, 56, 97
1, 9386, Note_off_c, 0, 56, 97
1, 9563, Note_on_c, 0, 59, 96
1, 10023, Note_off_c, 0, 59, 96
1, 10174, Note_on_c, 0, 62, 108
1, 10568, Note_off_c, 0, 62, 108
1, 10699, Note_on_c, 0, 63, 104
1, 11172, Note_off_c, 0, 63, 104
1, 11316, Note_on_c, 0, 65, 103
1, 11645, Note_off_c, 0, 65, 103
1, 11816, Note_on_c, 0, 67, 113
1, 12329, Note_off_c, 0, 67, 113
1, 12407, Note_on_c, 0, 68, 114
1, 12801, Note_off_c, 0, 68, 114
1, 13024, Note_on_c, 0, 70, 112
1, 13603, Note_off_c, 0, 70, 112
1, 13734, Note_on_c, 0, 70, 109
1, 14207, Note_off_c, 0, 70, 109
1, 14325, Note_on_c, 0, 69, 107
1, 14838, Note_off_c, 0, 69, 107
1, 15022, Note_on_c, 0, 70, 96
1, 16391, Note_off_c, 0, 70, 96
1, 16641, Note_on_c, 0, 68, 111
1, 17404, Note_off_c, 0, 68, 111
1, 17535, Note_on_c, 0, 70, 102
1, 17798, Note_off_c, 0, 70, 102
1, 17960, Note_on_c, 0, 65, 94
1, 19000, Note_off_c, 0, 65, 94
1, 19351, Note_on_c, 0, 63, 101
1, 20009, Note_off_c, 0, 63, 101
1, 21957, Note_on_c, 0, 65, 104
1, 22839, Note_off_c, 0, 65, 104
1, 23168, Note_on_c, 0, 63, 110
1, 23865, Note_off_c, 0, 63, 110
1, 24352, Note_on_c, 0, 65, 96
1, 25800, Note_off_c, 0, 65, 96
1, 31426, Note_on_c, 0, 58, 105
1, 31676, Note_off_c, 0, 58, 105
1, 31934, Note_on_c, 0, 63, 123
1, 32447, Note_off_c, 0, 63, 123
1, 32618, Note_on_c, 0, 66, 124
1, 32947, Note_off_c, 0, 66, 124
1, 33118, Note_on_c, 0, 68, 127
1, 33736, Note_off_c, 0, 68, 127
1, 33907, Note_on_c, 0, 70, 125
1, 34288, Note_off_c, 0, 70, 125
1, 34380, Note_on_c, 0, 69, 118
1, 35038, Note_off_c, 0, 69, 118
1, 35231, Note_on_c, 0, 57, 94
1, 35596, Note_off_c, 0, 57, 94
1, 35711, Note_on_c, 0, 61, 107
1, 36085, Note_off_c, 0, 61, 107
1, 36191, Note_on_c, 0, 64, 105
1, 36704, Note_off_c, 0, 64, 105
1, 36838, Note_on_c, 0, 69, 119
1, 37364, Note_off_c, 0, 69, 119
1, 37495, Note_on_c, 0, 73, 122
1, 37916, Note_off_c, 0, 73, 122
1, 37994, Note_on_c, 0, 71, 115
1, 38533, Note_off_c, 0, 71, 115
1, 38638, Note_on_c, 0, 69, 118
1, 39032, Note_off_c, 0, 69, 118
1, 39189, Note_on_c, 0, 68, 97
1, 40660, Note_off_c, 0, 68, 97
1, 41808, Note_on_c, 0, 70, 120
1, 42413, Note_off_c, 0, 70, 120
1, 42491, Note_on_c, 0, 70, 116
1, 42938, Note_off_c, 0, 70, 116
1, 43109, Note_on_c, 0, 68, 114
1, 43688, Note_off_c, 0, 68, 114
1, 44175, Note_on_c, 0, 70, 117
1, 44978, Note_off_c, 0, 70, 117
1, 45096, Note_on_c, 0, 68, 109
1, 45556, Note_off_c, 0, 68, 109
1, 46205, Note_on_c, 0, 70, 95
1, 47871, Note_off_c, 0, 70, 95
1, 51878, Note_on_c, 0, 75, 121
1, 52391, Note_off_c, 0, 75, 121
1, 53059, Note_on_c, 0, 75, 122
1, 53769, Note_off_c, 0, 75, 122
1, 54229, Note_on_c, 0, 75, 120
1, 54900, Note_off_c, 0, 75, 120
1, 55268, Note_on_c, 0, 74, 122
1, 55939, Note_off_c, 0, 74, 122
1, 56327, Note_on_c, 0, 73, 118
1, 56886, Note_off_c, 0, 73, 118
1, 56925, Note_on_c, 0, 72, 119
1, 57655, Note_off_c, 0, 72, 119
1, 58158, Note_on_c, 0, 71, 107
1, 59092, Note_off_c, 0, 71, 107
1, 59339, Note_on_c, 0, 72, 120
1, 60477, Note_off_c, 0, 72, 120
1, 60536, Note_on_c, 0, 73, 112
1, 61786, Note_off_c, 0, 73, 112
1, 62095, Note_on_c, 0, 70, 86
1, 63780, Note_off_c, 0, 70, 86
1, 66482, Note_on_c, 0, 70, 116
1, 66840, Note_off_c, 0, 70, 116
1, 66965, Note_on_c, 0, 73, 122
1, 67662, Note_off_c, 0, 73, 122
1, 67859, Note_on_c, 0, 71, 114
1, 68214, Note_off_c, 0, 71, 114
1, 68319, Note_on_c, 0, 73, 118
1, 69003, Note_off_c, 0, 73, 118
1, 69388, Note_on_c, 0, 70, 116
1, 70200, Note_off_c, 0, 70, 116
1, 70318, Note_on_c, 0, 65, 115
1, 70660, Note_off_c, 0, 65, 115
1, 70765, Note_on_c, 0, 64, 110
1, 71396, Note_off_c, 0, 64, 110
1, 71593, Note_on_c, 0, 63, 89
1, 73014, Note_off_c, 0, 63, 89
1, 76367, Note_on_c, 0, 77, 119
1, 78091, Note_off_c, 0, 77, 119
1, 78331, Note_on_c, 0, 75, 124
1, 78818, Note_off_c, 0, 75, 124
1, 78975, Note_on_c, 0, 73, 107
1, 79317, Note_off_c, 0, 73, 107
1, 79536, Note_on_c, 0, 70, 113
1, 80151, Note_off_c, 0, 70, 113
1, 80211, Note_on_c, 0, 65, 116
1, 80632, Note_off_c, 0, 65, 116
1, 80737, Note_on_c, 0, 64, 112
1, 81171, Note_off_c, 0, 64, 112
1, 81381, Note_on_c, 0, 63, 110
1, 81775, Note_off_c, 0, 63, 110
1, 81959, Note_on_c, 0, 61, 104
1, 82564, Note_off_c, 0, 61, 104
1, 82669, Note_on_c, 0, 56, 90
1, 84130, Note_off_c, 0, 56, 90
1, 84404, Note_on_c, 0, 57, 96
1, 84943, Note_off_c, 0, 57, 96
1, 85089, Note_on_c, 0, 61, 98
1, 85510, Note_off_c, 0, 61, 98
1, 85694, Note_on_c, 0, 64, 109
1, 86115, Note_off_c, 0, 64, 109
1, 86365, Note_on_c, 0, 66, 113
1, 86786, Note_off_c, 0, 66, 113
1, 86930, Note_on_c, 0, 69, 114
1, 87561, Note_off_c, 0, 69, 114
1, 87890, Note_on_c, 0, 69, 111
1, 88758, Note_off_c, 0, 69, 111
1, 88878, Note_on_c, 0, 68, 106
1, 90488, Note_off_c, 0, 68, 106
1, 90573, Note_on_c, 0, 71, 116
1, 91323, Note_off_c, 0, 71, 116
1, 91507, Note_on_c, 0, 70, 110
1, 91901, Note_off_c, 0, 70, 110
1, 91993, Note_on_c, 0, 68, 116
1, 92414, Note_off_c, 0, 68, 116
1, 92623, Note_on_c, 0, 62, 85
1, 93189, Note_off_c, 0, 62, 85
1, 93242, Note_on_c, 0, 63, 103
1, 93794, Note_off_c, 0, 63, 103
1, 93951, Note_on_c, 0, 65, 107
1, 94319, Note_off_c, 0, 65, 107
1, 94437, Note_on_c, 0, 68, 116
1, 95095, Note_off_c, 0, 68, 116
1, 95200, Note_on_c, 0, 70, 110
1, 95502, Note_off_c, 0, 70, 110
1, 95646, Note_on_c, 0, 71, 110
1, 96317, Note_off_c, 0, 71, 110
1, 96435, Note_on_c, 0, 70, 110
1, 96737, Note_off_c, 0, 70, 110
1, 96892, Note_on_c, 0, 68, 110
1, 97550, Note_off_c, 0, 68, 110
1, 97697, Note_on_c, 0, 65, 106
1, 99211, Note_off_c, 0, 65, 106
1, 99418, Note_on_c, 0, 63, 90
1, 101880, Note_off_c, 0, 63, 90
1, 101949, Note_on_c, 0, 65, 100
1, 102580, Note_off_c, 0, 65, 100
1, 106358, Note_on_c, 0, 80, 116
1, 107095, Note_off_c, 0, 80, 116
1, 107631, Note_on_c, 0, 80, 117
1, 108302, Note_off_c, 0, 80, 117
1, 108897, Note_on_c, 0, 80, 113
1, 109594, Note_off_c, 0, 80, 113
1, 110028, Note_on_c, 0, 65, 94
1, 110417, Note_off_c, 0, 65, 94
1, 110528, Note_on_c, 0, 77, 114
1, 111186, Note_off_c, 0, 77, 114
1, 111291, Note_on_c, 0, 80, 115
1, 111699, Note_off_c, 0, 80, 115
1, 111843, Note_on_c, 0, 79, 111
1, 112501, Note_off_c, 0, 79, 111
1, 112569, Note_on_c, 0, 64, 87
1, 112996, Note_off_c, 0, 64, 87
1, 113197, Note_on_c, 0, 76, 113
1, 113684, Note_off_c, 0, 76, 113
1, 113776, Note_on_c, 0, 79, 114
1, 114170, Note_off_c, 0, 79, 114
1, 114341, Note_on_c, 0, 78, 115
1, 115065, Note_off_c, 0, 78, 115
1, 115213, Note_on_c, 0, 69, 87
1, 115550, Note_off_c, 0, 69, 87
1, 115674, Note_on_c, 0, 75, 109
1, 116240, Note_off_c, 0, 75, 109
1, 116298, Note_on_c, 0, 78, 114
1, 116758, Note_off_c, 0, 78, 114
1, 116851, Note_on_c, 0, 77, 115
1, 117575, Note_off_c, 0, 77, 115
1, 117792, Note_on_c, 0, 71, 80
1, 118071, Note_off_c, 0, 71, 80
1, 118113, Note_on_c, 0, 77, 114
1, 118665, Note_off_c, 0, 77, 114
1, 118836, Note_on_c, 0, 75, 111
1, 119165, Note_off_c, 0, 75, 111
1, 119336, Note_on_c, 0, 73, 110
1, 119836, Note_off_c, 0, 73, 110
1, 120020, Note_on_c, 0, 70, 90
1, 120559, Note_off_c, 0, 70, 90
1, 120769, Note_on_c, 0, 65, 101
1, 121150, Note_off_c, 0, 65, 101
1, 121347, Note_on_c, 0, 64, 94
1, 121662, Note_off_c, 0, 64, 94
1, 121780, Note_on_c, 0, 63, 92
1, 122319, Note_off_c, 0, 63, 92
1, 122516, Note_on_c, 0, 61, 88
1, 123003, Note_off_c, 0, 61, 88
1, 123091, Note_on_c, 0, 58, 78
1, 124091, Note_off_c, 0, 58, 78
1, 124265, Note_on_c, 0, 57, 91
1, 124831, Note_off_c, 0, 57, 91
1, 125028, Note_on_c, 0, 58, 81
1, 125343, Note_off_c, 0, 58, 81
1, 125633, Note_on_c, 0, 61, 101
1, 126199, Note_off_c, 0, 61, 101
1, 126276, Note_on_c, 0, 63, 105
1, 126723, Note_off_c, 0, 63, 105
1, 126841, Note_on_c, 0, 65, 109
1, 127407, Note_off_c, 0, 65, 109
1, 127657, Note_on_c, 0, 68, 109
1, 128130, Note_off_c, 0, 68, 109
1, 128222, Note_on_c, 0, 70, 112
1, 128748, Note_off_c, 0, 70, 112
1, 128984, Note_on_c, 0, 69, 91
1, 129247, Note_off_c, 0, 69, 91
1, 129510, Note_on_c, 0, 72, 103
1, 130168, Note_off_c, 0, 72, 103
1, 130655, Note_on_c, 0, 72, 102
1, 131339, Note_off_c, 0, 72, 102
1, 131773, Note_on_c, 0, 72, 107
1, 132589, Note_off_c, 0, 72, 107
1, 133076, Note_on_c, 0, 70, 107
1, 133852, Note_off_c, 0, 70, 107
1, 134325, Note_on_c, 0, 73, 112
1, 135088, Note_off_c, 0, 73, 112
1, 135298, Note_on_c, 0, 70, 89
1, 135653, Note_off_c, 0, 70, 89
1, 135731, Note_on_c, 0, 72, 96
1, 136810, Note_off_c, 0, 72, 96
1, 136849, Note_on_c, 0, 73, 109
1, 137559, Note_off_c, 0, 73, 109
1, 137716, Note_on_c, 0, 70, 111
1, 138084, Note_off_c, 0, 70, 111
1, 138821, Note_on_c, 0, 72, 115
1, 139670, Note_off_c, 0, 72, 115
1, 139709, Note_on_c, 0, 73, 105
1, 140854, Note_off_c, 0, 73, 105
1, 141360, Note_on_c, 0, 70, 88
1, 142729, Note_off_c, 0, 70, 88
1, 147784, Note_on_c, 0, 71, 114
1, 148060, Note_off_c, 0, 71, 114
1, 148204, Note_on_c, 0, 73, 123
1, 148704, Note_off_c, 0, 73, 123
1, 148835, Note_on_c, 0, 78, 120
1, 149216, Note_off_c, 0, 78, 120
1, 149321, Note_on_c, 0, 80, 117
1, 151137, Note_off_c, 0, 80, 117
1, 151703, Note_on_c, 0, 77, 111
1, 153440, Note_off_c, 0, 77, 111
1, 153716, Note_on_c, 0, 75, 101
1, 154110, Note_off_c, 0, 75, 101
1, 154307, Note_on_c, 0, 73, 114
1, 154820, Note_off_c, 0, 73, 114
1, 155096, Note_on_c, 0, 70, 104
1, 155398, Note_off_c, 0, 70, 104
1, 155713, Note_on_c, 0, 65, 110
1, 156305, Note_off_c, 0, 65, 110
1, 156436, Note_on_c, 0, 64, 114
1, 156923, Note_off_c, 0, 64, 114
1, 157041, Note_on_c, 0, 63, 108
1, 157607, Note_off_c, 0, 63, 108
1, 157738, Note_on_c, 0, 61, 101
1, 158080, Note_off_c, 0, 61, 101
1, 158935, Note_on_c, 0, 57, 98
1, 162897, Note_off_c, 0, 57, 98
1, 163124, Note_on_c, 0, 61, 105
1, 163627, Note_off_c, 0, 61, 105
1, 163765, Note_on_c, 0, 64, 109
1, 164186, Note_off_c, 0, 64, 109
1, 164383, Note_on_c, 0, 69, 116
1, 165028, Note_off_c, 0, 69, 116
1, 165093, Note_on_c, 0, 73, 112
1, 165553, Note_off_c, 0, 73, 112
1, 165645, Note_on_c, 0, 71, 106
1, 166276, Note_off_c, 0, 71, 106
1, 166381, Note_on_c, 0, 69, 108
1, 168592, Note_off_c, 0, 69, 108
1, 168763, Note_on_c, 0, 68, 90
1, 170783, Note_off_c, 0, 68, 90
1, 172698, Note_on_c, 0, 65, 109
1, 172987, Note_off_c, 0, 65, 109
1, 173196, Note_on_c, 0, 69, 116
1, 173643, Note_off_c, 0, 69, 116
1, 173789, Note_on_c, 0, 70, 121
1, 174170, Note_off_c, 0, 70, 121
1, 174248, Note_on_c, 0, 71, 114
1, 174840, Note_off_c, 0, 71, 114
1, 174984, Note_on_c, 0, 74, 109
1, 175299, Note_off_c, 0, 74, 109
1, 175575, Note_on_c, 0, 71, 112
1, 176127, Note_off_c, 0, 71, 112
1, 176179, Note_on_c, 0, 72, 110
1, 176508, Note_off_c, 0, 72, 110
1, 176718, Note_on_c, 0, 73, 107
1, 177336, Note_off_c, 0, 73, 107
1, 177546, Note_on_c, 0, 76, 118
1, 177927, Note_off_c, 0, 76, 118
1, 181322, Note_on_c, 0, 59, 91
1, 181637, Note_off_c, 0, 59, 91
1, 181690, Note_on_c, 0, 62, 112
1, 182308, Note_off_c, 0, 62, 112
1, 182465, Note_on_c, 0, 64, 110
1, 182833, Note_off_c, 0, 64, 110
1, 182951, Note_on_c, 0, 66, 109
1, 183490, Note_off_c, 0, 66, 109
1, 183634, Note_on_c, 0, 69, 116
1, 184107, Note_off_c, 0, 69, 116
1, 184910, Note_on_c, 0, 69, 91
1, 186805, Note_off_c, 0, 69, 91
1, 191228, Note_on_c, 0, 69, 106
1, 191583, Note_off_c, 0, 69, 106
1, 191740, Note_on_c, 0, 74, 115
1, 192292, Note_off_c, 0, 74, 115
1, 192344, Note_on_c, 0, 76, 116
1, 192870, Note_off_c, 0, 76, 116
1, 192935, Note_on_c, 0, 77, 111
1, 193487, Note_off_c, 0, 77, 111
1, 193605, Note_on_c, 0, 76, 117
1, 194039, Note_off_c, 0, 76, 117
1, 194170, Note_on_c, 0, 74, 108
1, 194880, Note_off_c, 0, 74, 108
1, 195024, Note_on_c, 0, 69, 111
1, 195774, Note_off_c, 0, 69, 111
1, 195892, Note_on_c, 0, 70, 100
1, 196523, Note_off_c, 0, 70, 100
1, 196654, Note_on_c, 0, 69, 99
1, 198800, Note_off_c, 0, 69, 99
1, 201104, Note_on_c, 0, 57, 94
1, 201538, Note_off_c, 0, 57, 94
1, 201643, Note_on_c, 0, 62, 116
1, 202248, Note_off_c, 0, 62, 116
1, 202353, Note_on_c, 0, 64, 116
1, 202708, Note_off_c, 0, 64, 116
1, 202763, Note_on_c, 0, 66, 115
1, 203296, Note_off_c, 0, 66, 115
1, 203424, Note_on_c, 0, 68, 110
1, 203924, Note_off_c, 0, 68, 110
1, 203983, Note_on_c, 0, 72, 120
1, 204812, Note_off_c, 0, 72, 120
1, 204996, Note_on_c, 0, 74, 106
1, 207550, Note_off_c, 0, 74, 106
1, 207716, Note_on_c, 0, 70, 97
1, 208505, Note_off_c, 0, 70, 97
1, 208613, Note_on_c, 0, 69, 116
1, 209094, Note_off_c, 0, 69, 116
1, 209704, Note_on_c, 0, 57, 94
1, 210296, Note_off_c, 0, 57, 94
1, 210469, Note_on_c, 0, 62, 102
1, 210929, Note_off_c, 0, 62, 102
1, 211086, Note_on_c, 0, 64, 105
1, 211454, Note_off_c, 0, 64, 105
1, 211572, Note_on_c, 0, 65, 104
1, 212032, Note_off_c, 0, 65, 104
1, 212282, Note_on_c, 0, 67, 106
1, 212716, Note_off_c, 0, 67, 106
1, 212808, Note_on_c, 0, 69, 112
1, 213532, Note_off_c, 0, 69, 112
1, 213929, Note_on_c, 0, 64, 106
1, 215025, Note_off_c, 0, 64, 106
1, 215108, Note_on_c, 0, 57, 91
1, 215677, Note_off_c, 0, 57, 91
1, 215804, Note_on_c, 0, 62, 90
1, 217374, Note_off_c, 0, 62, 90
1, 221317, Note_on_c, 0, 76, 113
1, 221869, Note_off_c, 0, 76, 113
1, 222550, Note_on_c, 0, 76, 113
1, 223168, Note_off_c, 0, 76, 113
1, 223793, Note_on_c, 0, 76, 112
1, 224503, Note_off_c, 0, 76, 112
1, 225009, Note_on_c, 0, 76, 113
1, 225522, Note_off_c, 0, 76, 113
1, 226295, Note_on_c, 0, 76, 113
1, 226979, Note_off_c, 0, 76, 113
1, 227163, Note_on_c, 0, 76, 108
1, 227742, Note_off_c, 0, 76, 108
1, 228229, Note_on_c, 0, 76, 112
1, 228847, Note_off_c, 0, 76, 112
1, 228912, Note_on_c, 0, 75, 108
1, 229504, Note_off_c, 0, 75, 108
1, 229569, Note_on_c, 0, 76, 100
1, 229990, Note_off_c, 0, 76, 100
1, 230147, Note_on_c, 0, 79, 111
1, 230739, Note_off_c, 0, 79, 111
1, 231318, Note_on_c, 0, 76, 114
1, 231963, Note_off_c, 0, 76, 114
1, 232107, Note_on_c, 0, 74, 108
1, 232528, Note_off_c, 0, 74, 108
1, 232725, Note_on_c, 0, 72, 111
1, 233277, Note_off_c, 0, 72, 111
1, 233474, Note_on_c, 0, 69, 96
1, 233921, Note_off_c, 0, 69, 96
1, 233973, Note_on_c, 0, 72, 96
1, 235408, Note_off_c, 0, 72, 96
1, 235850, Note_on_c, 0, 68, 108
1, 236257, Note_off_c, 0, 68, 108
1, 236358, Note_on_c, 0, 69, 111
1, 238264, Note_off_c, 0, 69, 111
1, 238394, Note_on_c, 0, 72, 110
1, 239078, Note_off_c, 0, 72, 110
1, 239525, Note_on_c, 0, 69, 114
1, 239893, Note_off_c, 0, 69, 114
1, 240208, Note_on_c, 0, 65, 111
1, 240602, Note_off_c, 0, 65, 111
1, 240825, Note_on_c, 0, 65, 101
1, 241312, Note_off_c, 0, 65, 101
1, 241430, Note_on_c, 0, 62, 97
1, 242022, Note_off_c, 0, 62, 97
1, 242153, Note_on_c, 0, 65, 95
1, 242403, Note_off_c, 0, 65, 95
1, 242653, Note_on_c, 0, 67, 104
1, 243205, Note_off_c, 0, 67, 104
1, 243323, Note_on_c, 0, 71, 108
1, 243796, Note_off_c, 0, 71, 108
1, 245757, Note_on_c, 0, 73, 113
1, 246033, Note_off_c, 0, 73, 113
1, 246098, Note_on_c, 0, 74, 113
1, 247230, Note_off_c, 0, 74, 113
1, 247427, Note_on_c, 0, 73, 116
1, 248164, Note_off_c, 0, 73, 116
1, 248321, Note_on_c, 0, 74, 113
1, 248636, Note_off_c, 0, 74, 113
1, 248912, Note_on_c, 0, 72, 114
1, 249517, Note_off_c, 0, 72, 114
1, 249609, Note_on_c, 0, 73, 113
1, 249990, Note_off_c, 0, 73, 113
1, 250115, Note_on_c, 0, 74, 113
1, 250531, Note_off_c, 0, 74, 113
1, 250697, Note_on_c, 0, 67, 89
1, 251215, Note_off_c, 0, 67, 89
1, 251318, Note_on_c, 0, 68, 104
1, 251870, Note_off_c, 0, 68, 104
1, 251975, Note_on_c, 0, 70, 111
1, 252541, Note_off_c, 0, 70, 111
1, 252583, Note_on_c, 0, 71, 116
1, 253254, Note_off_c, 0, 71, 116
1, 253316, Note_on_c, 0, 72, 112
1, 253710, Note_off_c, 0, 72, 112
1, 253775, Note_on_c, 0, 73, 112
1, 254380, Note_off_c, 0, 73, 112
1, 254458, Note_on_c, 0, 74, 115
1, 254905, Note_off_c, 0, 74, 115
1, 255010, Note_on_c, 0, 73, 111
1, 255655, Note_off_c, 0, 73, 111
1, 255681, Note_on_c, 0, 72, 108
1, 256075, Note_off_c, 0, 72, 108
1, 256193, Note_on_c, 0, 70, 103
1, 256653, Note_off_c, 0, 70, 103
1, 256982, Note_on_c, 0, 68, 109
1, 257390, Note_off_c, 0, 68, 109
1, 257547, Note_on_c, 0, 65, 107
1, 258099, Note_off_c, 0, 65, 107
1, 258836, Note_on_c, 0, 63, 97
1, 261179, Note_off_c, 0, 63, 97
1, 261350, Note_on_c, 0, 65, 103
1, 262047, Note_off_c, 0, 65, 103
1, 262605, Note_on_c, 0, 58, 10
1, 263077, Note_off_c, 0, 58, 10
1, 263251, Note_on_c, 0, 63, 89
1, 265166, Note_off_c, 0, 63, 89
1, 268319, Note_on_c, 0, 58, 95
1, 268674, Note_off_c, 0, 58, 95
1, 268904, Note_on_c, 0, 63, 116
1, 269483, Note_off_c, 0, 63, 116
1, 269667, Note_on_c, 0, 65, 115
1, 270061, Note_off_c, 0, 65, 115
1, 270192, Note_on_c, 0, 68, 117
1, 270718, Note_off_c, 0, 68, 117
1, 270875, Note_on_c, 0, 70, 109
1, 271111, Note_off_c, 0, 70, 109
1, 271295, Note_on_c, 0, 68, 115
1, 272032, Note_off_c, 0, 68, 115
1, 272516, Note_on_c, 0, 56, 112
1, 273016, Note_off_c, 0, 56, 112
1, 273293, Note_on_c, 0, 56, 98
1, 273793, Note_off_c, 0, 56, 98
1, 273912, Note_on_c, 0, 57, 103
1, 274570, Note_off_c, 0, 57, 103
1, 274661, Note_on_c, 0, 58, 92
1, 275082, Note_off_c, 0, 58, 92
1, 275148, Note_on_c, 0, 61, 105
1, 275477, Note_off_c, 0, 61, 105
1, 275687, Note_on_c, 0, 64, 113
1, 276029, Note_off_c, 0, 64, 113
1, 276134, Note_on_c, 0, 66, 114
1, 276726, Note_off_c, 0, 66, 114
1, 276844, Note_on_c, 0, 69, 115
1, 278476, Note_off_c, 0, 69, 115
1, 278607, Note_on_c, 0, 68, 109
1, 279396, Note_off_c, 0, 68, 109
1, 279784, Note_on_c, 0, 56, 96
1, 280517, Note_off_c, 0, 56, 96
1, 280750, Note_on_c, 0, 61, 89
1, 282343, Note_off_c, 0, 61, 89
1, 285469, Note_on_c, 0, 68, 118
1, 285863, Note_off_c, 0, 68, 118
1, 286027, Note_on_c, 0, 70, 117
1, 286487, Note_off_c, 0, 70, 117
1, 286816, Note_on_c, 0, 70, 117
1, 287066, Note_off_c, 0, 70, 117
1, 287144, Note_on_c, 0, 68, 118
1, 287815, Note_off_c, 0, 68, 118
1, 288473, Note_on_c, 0, 75, 108
1, 289052, Note_off_c, 0, 75, 108
1, 289631, Note_on_c, 0, 75, 109
1, 290249, Note_off_c, 0, 75, 109
1, 290828, Note_on_c, 0, 75, 108
1, 291644, Note_off_c, 0, 75, 108
1, 292157, Note_on_c, 0, 75, 110
1, 292881, Note_off_c, 0, 75, 110
1, 293348, Note_on_c, 0, 75, 109
1, 294272, Note_off_c, 0, 75, 109
1, 294406, Note_on_c, 0, 74, 111
1, 294958, Note_off_c, 0, 74, 111
1, 295155, Note_on_c, 0, 73, 113
1, 295694, Note_off_c, 0, 73, 113
1, 295812, Note_on_c, 0, 72, 102
1, 297194, Note_off_c, 0, 72, 102
1, 297312, Note_on_c, 0, 70, 110
1, 297891, Note_off_c, 0, 70, 110
1, 300998, Note_on_c, 0, 73, 115
1, 303723, Note_off_c, 0, 73, 115
1, 304019, Note_on_c, 0, 70, 105
1, 308218, Note_off_c, 0, 70, 105
1, 308382, Note_on_c, 0, 73, 115
1, 309329, Note_off_c, 0, 73, 115
1, 309473, Note_on_c, 0, 70, 104
1, 310282, Note_off_c, 0, 70, 104
1, 310341, Note_on_c, 0, 65, 103
1, 311341, Note_off_c, 0, 65, 103
1, 311709, Note_on_c, 0, 65, 84
1, 315553, Note_off_c, 0, 65, 84
1, 318778, Note_on_c, 0, 77, 119
1, 319923, Note_off_c, 0, 77, 119
1, 320107, Note_on_c, 0, 76, 121
1, 320989, Note_off_c, 0, 76, 121
1, 321186, Note_on_c, 0, 75, 105
1, 322041, Note_off_c, 0, 75, 105
1, 322225, Note_on_c, 0, 73, 102
1, 323067, Note_off_c, 0, 73, 102
1, 323211, Note_on_c, 0, 70, 103
1, 323921, Note_off_c, 0, 70, 103
1, 324223, Note_on_c, 0, 65, 106
1, 324920, Note_off_c, 0, 65, 106
1, 325038, Note_on_c, 0, 64, 105
1, 325841, Note_off_c, 0, 64, 105
1, 326038, Note_on_c, 0, 63, 101
1, 326906, Note_off_c, 0, 63, 101
1, 327077, Note_on_c, 0, 61, 92
1, 327748, Note_off_c, 0, 61, 92
1, 328125, Note_on_c, 0, 58, 91
1, 329020, Note_off_c, 0, 58, 91
1, 329156, Note_on_c, 0, 61, 92
1, 329656, Note_off_c, 0, 61, 92
1, 329879, Note_on_c, 0, 64, 102
1, 330524, Note_off_c, 0, 64, 102
1, 330800, Note_on_c, 0, 69, 110
1, 331550, Note_off_c, 0, 69, 110
1, 331760, Note_on_c, 0, 73, 103
1, 333129, Note_off_c, 0, 73, 103
1, 333510, Note_on_c, 0, 68, 114
1, 336340, Note_off_c, 0, 68, 114
1, 336537, Note_on_c, 0, 73, 112
1, 337340, Note_off_c, 0, 73, 112
1, 337458, Note_on_c, 0, 71, 99
1, 337958, Note_off_c, 0, 71, 99
1, 338129, Note_on_c, 0, 69, 102
1, 338839, Note_off_c, 0, 69, 102
1, 339194, Note_on_c, 0, 67, 104
1, 339786, Note_off_c, 0, 67, 104
1, 339812, Note_on_c, 0, 64, 100
1, 340720, Note_off_c, 0, 64, 100
1, 340838, Note_on_c, 0, 62, 92
1, 341535, Note_off_c, 0, 62, 92
1, 341771, Note_on_c, 0, 61, 94
1, 342363, Note_off_c, 0, 61, 94
1, 342718, Note_on_c, 0, 64, 98
1, 343705, Note_off_c, 0, 64, 98
1, 343941, Note_on_c, 0, 69, 100
1, 344823, Note_off_c, 0, 69, 100
1, 345273, Note_on_c, 0, 62, 84
1, 347698, Note_off_c, 0, 62, 84
1, 347698, End_track
0, 0, End_of_file
