0, 0, Header, 1, 1, 192
1, 0, Start_track
1, 0, Title_t, "Melody"
1, 0, Tempo, 247933
1, 0, Key_signature, -2, "major"
1, 0, Time_signature, 4, 2, 24, 8
1, 2670, Note_on_c, 0, 70, 104
1, 2856, Note_off_c, 0, 70, 104
1, 3053, Note_on_c, 0, 70, 108
1, 3226, Note_off_c, 0, 70, 108
1, 3351, Note_on_c, 0, 70, 101
1, 3598, Note_off_c, 0, 70, 101
1, 4564, Note_on_c, 0, 70, 114
1, 4650, Note_off_c, 0, 70, 114
1, 4675, Note_on_c, 0, 72, 112
1, 4763, Note_off_c, 0, 72, 112
1, 4851, Note_on_c, 0, 73, 117
1, 4934, Note_off_c, 0, 73, 117
1, 5036, Note_on_c, 0, 70, 113
1, 5114, Note_off_c, 0, 70, 113
1, 5202, Note_on_c, 0, 70, 112
1, 5287, Note_off_c, 0, 70, 112
1, 5293, Note_on_c, 0, 69, 106
1, 5339, Note_off_c, 0, 69, 106
1, 5350, Note_on_c, 0, 69, 104
1, 5401, Note_off_c, 0, 69, 104
1, 5412, Note_on_c, 0, 68, 106
1, 5468, Note_off_c, 0, 68, 106
1, 5480, Note_on_c, 0, 67, 111
1, 5559, Note_off_c, 0, 67, 111
1, 5593, Note_on_c, 0, 65, 119
1, 5650, Note_off_c, 0, 65, 119
1, 5661, Note_on_c, 0, 64, 113
1, 5795, Note_off_c, 0, 64, 113
1, 6405, Note_on_c, 0, 73, 111
1, 6511, Note_off_c, 0, 73, 111
1, 6526, Note_on_c, 0, 74, 113
1, 6587, Note_off_c, 0, 74, 113
1, 6596, Note_on_c, 0, 75, 115
1, 6706, Note_off_c, 0, 75, 115
1, 6720, Note_on_c, 0, 76, 122
1, 6789, Note_off_c, 0, 76, 122
1, 6801, Note_on_c, 0, 77, 125
1, 6902, Note_off_c, 0, 77, 125
1, 6917, Note_on_c, 0, 75, 114
1, 6985, Note_off_c, 0, 75, 114
1, 6993, Note_on_c, 0, 72, 107
1, 7084, Note_off_c, 0, 72, 107
1, 7107, Note_on_c, 0, 70, 98
1, 7159, Note_off_c, 0, 70, 98
1, 7174, Note_on_c, 0, 72, 115
1, 7266, Note_off_c, 0, 72, 115
1, 7307, Note_on_c, 0, 70, 110
1, 7356, Note_off_c, 0, 70, 110
1, 7363, Note_on_c, 0, 67, 98
1, 7426, Note_off_c, 0, 67, 98
1, 7440, Note_on_c, 0, 68, 101
1, 7504, Note_off_c, 0, 68, 101
1, 7520, Note_on_c, 0, 69, 111
1, 7556, Note_off_c, 0, 69, 111
1, 7568, Note_on_c, 0, 70, 110
1, 7644, Note_off_c, 0, 70, 110
1, 7673, Note_on_c, 0, 71, 113
1, 7742, Note_off_c, 0, 71, 113
1, 7752, Note_on_c, 0, 72, 99
1, 7830, Note_off_c, 0, 72, 99
1, 7850, Note_on_c, 0, 73, 108
1, 7918, Note_off_c, 0, 73, 108
1, 7925, Note_on_c, 0, 74, 114
1, 8005, Note_off_c, 0, 74, 114
1, 8018, Note_on_c, 0, 73, 111
1, 8097, Note_off_c, 0, 73, 111
1, 8109, Note_on_c, 0, 72, 101
1, 8185, Note_off_c, 0, 72, 101
1, 8232, Note_on_c, 0, 70, 107
1, 8270, Note_off_c, 0, 70, 107
1, 8284, Note_on_c, 0, 68, 112
1, 8383, Note_off_c, 0, 68, 112
1, 8414, Note_on_c, 0, 65, 93
1, 8459, Note_off_c, 0, 65, 93
1, 8472, Note_on_c, 0, 67, 110
1, 8569, Note_off_c, 0, 67, 110
1, 8661, Note_on_c, 0, 65, 117
1, 8762, Note_off_c, 0, 65, 117
1, 8799, Note_on_c, 0, 70, 103
1, 8932, Note_off_c, 0, 70, 103
1, 8949, Note_on_c, 0, 68, 104
1, 9067, Note_off_c, 0, 68, 104
1, 9158, Note_on_c, 0, 65, 114
1, 9242, Note_off_c, 0, 65, 114
1, 9355, Note_on_c, 0, 70, 104
1, 9465, Note_off_c, 0, 70, 104
1, 9539, Note_on_c, 0, 68, 89
1, 9875, Note_off_c, 0, 68, 89
1, 10090, Note_on_c, 0, 68, 110
1, 10156, Note_off_c, 0, 68, 110
1, 10170, Note_on_c, 0, 67, 101
1, 10269, Note_off_c, 0, 67, 101
1, 10298, Note_on_c, 0, 77, 122
1, 10432, Note_off_c, 0, 77, 122
1, 10505, Note_on_c, 0, 75, 109
1, 10592, Note_off_c, 0, 75, 109
1, 10677, Note_on_c, 0, 67, 108
1, 10786, Note_off_c, 0, 67, 108
1, 10848, Note_on_c, 0, 77, 119
1, 10958, Note_off_c, 0, 77, 119
1, 11003, Note_on_c, 0, 75, 110
1, 11104, Note_off_c, 0, 75, 110
1, 11130, Note_on_c, 0, 66, 99
1, 11477, Note_off_c, 0, 66, 99
1, 11588, Note_on_c, 0, 65, 110
1, 11673, Note_off_c, 0, 65, 110
1, 11782, Note_on_c, 0, 70, 105
1, 11838, Note_off_c, 0, 70, 105
1, 11851, Note_on_c, 0, 68, 102
1, 12022, Note_off_c, 0, 68, 102
1, 12531, Note_on_c, 0, 70, 114
1, 12590, Note_off_c, 0, 70, 114
1, 12594, Note_on_c, 0, 67, 100
1, 12718, Note_off_c, 0, 67, 100
1, 12727, Note_on_c, 0, 69, 114
1, 12818, Note_off_c, 0, 69, 114
1, 12826, Note_on_c, 0, 70, 111
1, 12885, Note_off_c, 0, 70, 111
1, 12899, Note_on_c, 0, 72, 110
1, 12980, Note_off_c, 0, 72, 110
1, 12993, Note_on_c, 0, 73, 109
1, 13078, Note_off_c, 0, 73, 109
1, 13086, Note_on_c, 0, 74, 110
1, 13156, Note_off_c, 0, 74, 110
1, 13165, Note_on_c, 0, 75, 113
1, 13259, Note_off_c, 0, 75, 113
1, 13269, Note_on_c, 0, 76, 118
1, 13391, Note_off_c, 0, 76, 118
1, 13458, Note_on_c, 0, 76, 114
1, 13796, Note_off_c, 0, 76, 114
1, 13823, Note_on_c, 0, 75, 119
1, 13913, Note_off_c, 0, 75, 119
1, 13928, Note_on_c, 0, 73, 102
1, 14022, Note_off_c, 0, 73, 102
1, 14040, Note_on_c, 0, 70, 107
1, 14097, Note_off_c, 0, 70, 107
1, 14115, Note_on_c, 0, 67, 99
1, 14200, Note_off_c, 0, 67, 99
1, 14279, Note_on_c, 0, 70, 99
1, 14448, Note_off_c, 0, 70, 99
1, 14465, Note_on_c, 0, 67, 101
1, 14572, Note_off_c, 0, 67, 101
1, 14587, Note_on_c, 0, 70, 105
1, 14641, Note_off_c, 0, 70, 105
1, 14648, Note_on_c, 0, 68, 107
1, 14753, Note_off_c, 0, 68, 107
1, 14778, Note_on_c, 0, 70, 108
1, 14824, Note_off_c, 0, 70, 108
1, 14840, Note_on_c, 0, 72, 97
1, 14924, Note_off_c, 0, 72, 97
1, 14943, Note_on_c, 0, 74, 107
1, 15026, Note_off_c, 0, 74, 107
1, 15081, Note_on_c, 0, 79, 117
1, 15140, Note_off_c, 0, 79, 117
1, 15146, Note_on_c, 0, 78, 127
1, 15227, Note_off_c, 0, 78, 127
1, 15232, Note_on_c, 0, 77, 123
1, 15319, Note_off_c, 0, 77, 123
1, 15333, Note_on_c, 0, 76, 118
1, 15412, Note_off_c, 0, 76, 118
1, 15423, Note_on_c, 0, 75, 113
1, 15516, Note_off_c, 0, 75, 113
1, 15540, Note_on_c, 0, 70, 103
1, 15587, Note_off_c, 0, 70, 103
1, 15602, Note_on_c, 0, 74, 102
1, 15693, Note_off_c, 0, 74, 102
1, 15724, Note_on_c, 0, 73, 109
1, 15807, Note_off_c, 0, 73, 109
1, 15903, Note_on_c, 0, 70, 113
1, 15965, Note_off_c, 0, 70, 113
1, 15985, Note_on_c, 0, 72, 102
1, 16080, Note_off_c, 0, 72, 102
1, 16105, Note_on_c, 0, 70, 107
1, 16168, Note_off_c, 0, 70, 107
1, 16183, Note_on_c, 0, 68, 97
1, 16223, Note_off_c, 0, 68, 97
1, 16234, Note_on_c, 0, 70, 97
1, 16284, Note_off_c, 0, 70, 97
1, 16296, Note_on_c, 0, 68, 102
1, 16338, Note_off_c, 0, 68, 102
1, 16344, Note_on_c, 0, 67, 98
1, 16373, Note_off_c, 0, 67, 98
1, 16379, Note_on_c, 0, 65, 108
1, 16476, Note_off_c, 0, 65, 108
1, 16490, Note_on_c, 0, 64, 89
1, 16548, Note_off_c, 0, 64, 89
1, 16571, Note_on_c, 0, 63, 99
1, 16705, Note_off_c, 0, 63, 99
1, 16750, Note_on_c, 0, 60, 83
1, 16790, Note_off_c, 0, 60, 83
1, 16798, Note_on_c, 0, 61, 87
1, 16836, Note_off_c, 0, 61, 87
1, 16853, Note_on_c, 0, 63, 93
1, 17087, Note_off_c, 0, 63, 93
1, 17099, Note_on_c, 0, 59, 87
1, 17138, Note_off_c, 0, 59, 87
1, 17142, Note_on_c, 0, 60, 86
1, 17212, Note_off_c, 0, 60, 86
1, 17225, Note_on_c, 0, 63, 108
1, 17304, Note_off_c, 0, 63, 108
1, 17312, Note_on_c, 0, 65, 119
1, 17396, Note_off_c, 0, 65, 119
1, 17408, Note_on_c, 0, 67, 110
1, 17491, Note_off_c, 0, 67, 110
1, 17501, Note_on_c, 0, 68, 108
1, 17568, Note_off_c, 0, 68, 108
1, 17586, Note_on_c, 0, 70, 114
1, 17650, Note_off_c, 0, 70, 114
1, 17686, Note_on_c, 0, 67, 106
1, 17745, Note_off_c, 0, 67, 106
1, 17752, Note_on_c, 0, 68, 103
1, 17807, Note_off_c, 0, 68, 103
1, 17818, Note_on_c, 0, 69, 107
1, 17873, Note_off_c, 0, 69, 107
1, 17885, Note_on_c, 0, 70, 112
1, 17950, Note_off_c, 0, 70, 112
1, 17964, Note_on_c, 0, 71, 106
1, 18065, Note_off_c, 0, 71, 106
1, 18079, Note_on_c, 0, 72, 103
1, 18143, Note_off_c, 0, 72, 103
1, 18150, Note_on_c, 0, 73, 109
1, 18210, Note_off_c, 0, 73, 109
1, 18220, Note_on_c, 0, 74, 116
1, 18294, Note_off_c, 0, 74, 116
1, 18318, Note_on_c, 0, 73, 108
1, 18403, Note_off_c, 0, 73, 108
1, 18422, Note_on_c, 0, 72, 102
1, 18487, Note_off_c, 0, 72, 102
1, 18502, Note_on_c, 0, 70, 107
1, 18581, Note_off_c, 0, 70, 107
1, 18586, Note_on_c, 0, 67, 94
1, 18669, Note_off_c, 0, 67, 94
1, 18778, Note_on_c, 0, 70, 108
1, 18863, Note_off_c, 0, 70, 108
1, 18987, Note_on_c, 0, 67, 111
1, 19061, Note_off_c, 0, 67, 111
1, 19072, Note_on_c, 0, 70, 111
1, 19143, Note_off_c, 0, 70, 111
1, 19157, Note_on_c, 0, 70, 103
1, 19247, Note_off_c, 0, 70, 103
1, 19263, Note_on_c, 0, 69, 110
1, 19333, Note_off_c, 0, 69, 110
1, 19340, Note_on_c, 0, 67, 109
1, 19417, Note_off_c, 0, 67, 109
1, 19426, Note_on_c, 0, 63, 105
1, 19506, Note_off_c, 0, 63, 105
1, 19517, Note_on_c, 0, 60, 81
1, 19691, Note_off_c, 0, 60, 81
1, 19697, Note_on_c, 0, 65, 110
1, 19811, Note_off_c, 0, 65, 110
1, 19908, Note_on_c, 0, 63, 105
1, 20012, Note_off_c, 0, 63, 105
1, 20027, Note_on_c, 0, 65, 117
1, 20105, Note_off_c, 0, 65, 117
1, 20618, Note_on_c, 0, 66, 103
1, 20666, Note_off_c, 0, 66, 103
1, 20672, Note_on_c, 0, 62, 97
1, 20728, Note_off_c, 0, 62, 97
1, 20733, Note_on_c, 0, 63, 97
1, 20795, Note_off_c, 0, 63, 97
1, 20803, Note_on_c, 0, 64, 109
1, 20857, Note_off_c, 0, 64, 109
1, 20865, Note_on_c, 0, 65, 121
1, 20955, Note_off_c, 0, 65, 121
1, 20969, Note_on_c, 0, 68, 115
1, 21036, Note_off_c, 0, 68, 115
1, 21049, Note_on_c, 0, 67, 116
1, 21150, Note_off_c, 0, 67, 116
1, 21168, Note_on_c, 0, 68, 114
1, 21230, Note_off_c, 0, 68, 114
1, 21256, Note_on_c, 0, 64, 111
1, 21332, Note_off_c, 0, 64, 111
1, 21352, Note_on_c, 0, 67, 106
1, 21409, Note_off_c, 0, 67, 106
1, 21426, Note_on_c, 0, 70, 108
1, 21510, Note_off_c, 0, 70, 108
1, 21534, Note_on_c, 0, 72, 106
1, 21613, Note_off_c, 0, 72, 106
1, 21621, Note_on_c, 0, 73, 109
1, 21691, Note_off_c, 0, 73, 109
1, 21728, Note_on_c, 0, 70, 98
1, 21776, Note_off_c, 0, 70, 98
1, 21798, Note_on_c, 0, 72, 108
1, 21877, Note_off_c, 0, 72, 108
1, 21912, Note_on_c, 0, 69, 108
1, 21968, Note_off_c, 0, 69, 108
1, 21976, Note_on_c, 0, 68, 110
1, 22066, Note_off_c, 0, 68, 110
1, 22095, Note_on_c, 0, 65, 92
1, 22148, Note_off_c, 0, 65, 92
1, 22156, Note_on_c, 0, 67, 112
1, 22262, Note_off_c, 0, 67, 112
1, 22338, Note_on_c, 0, 77, 117
1, 22735, Note_off_c, 0, 77, 117
1, 22743, Note_on_c, 0, 75, 110
1, 22865, Note_off_c, 0, 75, 110
1, 22881, Note_on_c, 0, 68, 110
1, 22965, Note_off_c, 0, 68, 110
1, 23494, Note_on_c, 0, 77, 118
1, 23624, Note_off_c, 0, 77, 118
1, 23691, Note_on_c, 0, 80, 110
1, 23800, Note_off_c, 0, 80, 110
1, 23817, Note_on_c, 0, 80, 117
1, 23888, Note_off_c, 0, 80, 117
1, 23895, Note_on_c, 0, 79, 104
1, 23980, Note_off_c, 0, 79, 104
1, 24087, Note_on_c, 0, 77, 119
1, 24191, Note_off_c, 0, 77, 119
1, 24209, Note_on_c, 0, 75, 117
1, 24292, Note_off_c, 0, 75, 117
1, 24384, Note_on_c, 0, 73, 95
1, 24554, Note_off_c, 0, 73, 95
1, 24570, Note_on_c, 0, 70, 87
1, 24636, Note_off_c, 0, 70, 87
1, 24666, Note_on_c, 0, 76, 125
1, 24763, Note_off_c, 0, 76, 125
1, 24774, Note_on_c, 0, 75, 119
1, 24848, Note_off_c, 0, 75, 119
1, 24863, Note_on_c, 0, 73, 86
1, 24957, Note_off_c, 0, 73, 86
1, 24977, Note_on_c, 0, 70, 103
1, 25020, Note_off_c, 0, 70, 103
1, 25030, Note_on_c, 0, 70, 97
1, 25060, Note_off_c, 0, 70, 97
1, 25077, Note_on_c, 0, 67, 92
1, 25165, Note_off_c, 0, 67, 92
1, 25217, Note_on_c, 0, 70, 98
1, 25322, Note_off_c, 0, 70, 98
1, 25397, Note_on_c, 0, 70, 97
1, 25495, Note_off_c, 0, 70, 97
1, 25595, Note_on_c, 0, 74, 104
1, 25700, Note_off_c, 0, 74, 104
1, 26157, Note_on_c, 0, 80, 99
1, 27674, Note_off_c, 0, 80, 99
1, 27703, Note_on_c, 0, 76, 119
1, 27790, Note_off_c, 0, 76, 119
1, 27894, Note_on_c, 0, 77, 117
1, 27997, Note_off_c, 0, 77, 117
1, 28454, Note_on_c, 0, 70, 91
1, 28509, Note_off_c, 0, 70, 91
1, 28518, Note_on_c, 0, 70, 88
1, 28557, Note_off_c, 0, 70, 88
1, 28572, Note_on_c, 0, 70, 93
1, 28610, Note_off_c, 0, 70, 93
1, 28625, Note_on_c, 0, 70, 103
1, 28718, Note_off_c, 0, 70, 103
1, 29211, Note_on_c, 0, 70, 96
1, 30166, Note_off_c, 0, 70, 96
1, 30192, Note_on_c, 0, 70, 107
1, 30322, Note_off_c, 0, 70, 107
1, 30695, Note_on_c, 0, 70, 102
1, 31609, Note_off_c, 0, 70, 102
1, 31658, Note_on_c, 0, 73, 113
1, 31765, Note_off_c, 0, 73, 113
1, 32216, Note_on_c, 0, 70, 98
1, 32768, Note_off_c, 0, 70, 98
1, 32787, Note_on_c, 0, 72, 107
1, 32871, Note_off_c, 0, 72, 107
1, 32896, Note_on_c, 0, 70, 102
1, 33137, Note_off_c, 0, 70, 102
1, 33148, Note_on_c, 0, 72, 105
1, 33260, Note_off_c, 0, 72, 105
1, 33280, Note_on_c, 0, 70, 99
1, 33487, Note_off_c, 0, 70, 99
1, 33515, Note_on_c, 0, 72, 104
1, 33586, Note_off_c, 0, 72, 104
1, 33621, Note_on_c, 0, 68, 95
1, 33660, Note_off_c, 0, 68, 95
1, 33676, Note_on_c, 0, 70, 100
1, 33856, Note_off_c, 0, 70, 100
1, 33871, Note_on_c, 0, 73, 99
1, 33978, Note_off_c, 0, 73, 99
1, 34007, Note_on_c, 0, 73, 98
1, 34232, Note_off_c, 0, 73, 98
1, 34252, Note_on_c, 0, 72, 106
1, 34330, Note_off_c, 0, 72, 106
1, 34381, Note_on_c, 0, 70, 79
1, 34422, Note_off_c, 0, 70, 79
1, 34434, Note_on_c, 0, 72, 103
1, 34534, Note_off_c, 0, 72, 103
1, 34560, Note_on_c, 0, 69, 108
1, 34612, Note_off_c, 0, 69, 108
1, 34630, Note_on_c, 0, 67, 102
1, 34724, Note_off_c, 0, 67, 102
1, 34817, Note_on_c, 0, 70, 111
1, 34911, Note_off_c, 0, 70, 111
1, 34921, Note_on_c, 0, 67, 92
1, 34989, Note_off_c, 0, 67, 92
1, 34996, Note_on_c, 0, 70, 105
1, 35099, Note_off_c, 0, 70, 105
1, 35114, Note_on_c, 0, 70, 104
1, 35150, Note_off_c, 0, 70, 104
1, 35170, Note_on_c, 0, 67, 99
1, 35302, Note_off_c, 0, 67, 99
1, 35309, Note_on_c, 0, 72, 114
1, 35387, Note_off_c, 0, 72, 114
1, 35489, Note_on_c, 0, 70, 109
1, 35551, Note_off_c, 0, 70, 109
1, 35566, Note_on_c, 0, 72, 105
1, 35662, Note_off_c, 0, 72, 105
1, 35681, Note_on_c, 0, 70, 106
1, 35745, Note_off_c, 0, 70, 106
1, 35763, Note_on_c, 0, 67, 104
1, 35845, Note_off_c, 0, 67, 104
1, 35862, Note_on_c, 0, 65, 112
1, 35928, Note_off_c, 0, 65, 112
1, 35946, Note_on_c, 0, 63, 116
1, 36042, Note_off_c, 0, 63, 116
1, 36071, Note_on_c, 0, 64, 114
1, 36136, Note_off_c, 0, 64, 114
1, 36150, Note_on_c, 0, 67, 108
1, 36240, Note_off_c, 0, 67, 108
1, 36251, Note_on_c, 0, 69, 117
1, 36328, Note_off_c, 0, 69, 117
1, 36343, Note_on_c, 0, 70, 110
1, 36422, Note_off_c, 0, 70, 110
1, 36454, Note_on_c, 0, 72, 110
1, 36518, Note_off_c, 0, 72, 110
1, 36526, Note_on_c, 0, 73, 106
1, 36605, Note_off_c, 0, 73, 106
1, 36659, Note_on_c, 0, 71, 107
1, 36707, Note_off_c, 0, 71, 107
1, 36722, Note_on_c, 0, 70, 104
1, 36807, Note_off_c, 0, 70, 104
1, 36848, Note_on_c, 0, 68, 103
1, 36914, Note_off_c, 0, 68, 103
1, 36934, Note_on_c, 0, 67, 108
1, 36989, Note_off_c, 0, 67, 108
1, 37021, Note_on_c, 0, 65, 117
1, 37089, Note_off_c, 0, 65, 117
1, 37103, Note_on_c, 0, 64, 106
1, 37169, Note_off_c, 0, 64, 106
1, 37192, Note_on_c, 0, 63, 109
1, 37281, Note_off_c, 0, 63, 109
1, 37288, Note_on_c, 0, 60, 98
1, 37363, Note_off_c, 0, 60, 98
1, 37377, Note_on_c, 0, 61, 94
1, 37429, Note_off_c, 0, 61, 94
1, 37441, Note_on_c, 0, 64, 101
1, 37482, Note_off_c, 0, 64, 101
1, 37492, Note_on_c, 0, 62, 99
1, 37567, Note_off_c, 0, 62, 99
1, 37581, Note_on_c, 0, 65, 101
1, 37645, Note_off_c, 0, 65, 101
1, 37667, Note_on_c, 0, 70, 110
1, 37754, Note_off_c, 0, 70, 110
1, 37771, Note_on_c, 0, 73, 112
1, 37824, Note_off_c, 0, 73, 112
1, 37849, Note_on_c, 0, 70, 90
1, 37938, Note_off_c, 0, 70, 90
1, 38352, Note_on_c, 0, 82, 110
1, 38389, Note_off_c, 0, 82, 110
1, 38397, Note_on_c, 0, 80, 116
1, 38456, Note_off_c, 0, 80, 116
1, 38556, Note_on_c, 0, 80, 117
1, 38627, Note_off_c, 0, 80, 117
1, 38720, Note_on_c, 0, 79, 120
1, 38779, Note_off_c, 0, 79, 120
1, 38794, Note_on_c, 0, 80, 111
1, 38914, Note_off_c, 0, 80, 111
1, 38936, Note_on_c, 0, 79, 114
1, 38992, Note_off_c, 0, 79, 114
1, 39003, Note_on_c, 0, 80, 101
1, 39109, Note_off_c, 0, 80, 101
1, 39120, Note_on_c, 0, 79, 112
1, 39176, Note_off_c, 0, 79, 112
1, 39189, Note_on_c, 0, 77, 117
1, 39238, Note_off_c, 0, 77, 117
1, 39248, Note_on_c, 0, 78, 109
1, 39285, Note_off_c, 0, 78, 109
1, 39306, Note_on_c, 0, 75, 119
1, 39375, Note_off_c, 0, 75, 119
1, 39390, Note_on_c, 0, 77, 117
1, 39479, Note_off_c, 0, 77, 117
1, 39497, Note_on_c, 0, 75, 116
1, 39567, Note_off_c, 0, 75, 116
1, 39588, Note_on_c, 0, 73, 103
1, 39676, Note_off_c, 0, 73, 103
1, 39697, Note_on_c, 0, 70, 97
1, 39751, Note_off_c, 0, 70, 97
1, 39762, Note_on_c, 0, 73, 111
1, 39882, Note_off_c, 0, 73, 111
1, 39891, Note_on_c, 0, 75, 122
1, 39958, Note_off_c, 0, 75, 122
1, 39965, Note_on_c, 0, 77, 114
1, 40066, Note_off_c, 0, 77, 114
1, 40084, Note_on_c, 0, 74, 116
1, 40156, Note_off_c, 0, 74, 116
1, 40173, Note_on_c, 0, 73, 104
1, 40274, Note_off_c, 0, 73, 104
1, 40279, Note_on_c, 0, 70, 95
1, 40340, Note_off_c, 0, 70, 95
1, 40346, Note_on_c, 0, 72, 106
1, 40448, Note_off_c, 0, 72, 106
1, 40478, Note_on_c, 0, 70, 108
1, 40533, Note_off_c, 0, 70, 108
1, 40539, Note_on_c, 0, 67, 103
1, 40674, Note_off_c, 0, 67, 103
1, 40688, Note_on_c, 0, 65, 98
1, 40725, Note_off_c, 0, 65, 98
1, 40730, Note_on_c, 0, 70, 111
1, 40837, Note_off_c, 0, 70, 111
1, 40919, Note_on_c, 0, 68, 111
1, 41018, Note_off_c, 0, 68, 111
1, 41038, Note_on_c, 0, 65, 109
1, 41106, Note_off_c, 0, 65, 109
1, 41129, Note_on_c, 0, 67, 106
1, 41195, Note_off_c, 0, 67, 106
1, 41217, Note_on_c, 0, 70, 111
1, 41285, Note_off_c, 0, 70, 111
1, 41293, Note_on_c, 0, 67, 100
1, 41344, Note_off_c, 0, 67, 100
1, 41369, Note_on_c, 0, 68, 100
1, 41438, Note_off_c, 0, 68, 100
1, 41453, Note_on_c, 0, 69, 109
1, 41515, Note_off_c, 0, 69, 109
1, 41525, Note_on_c, 0, 70, 114
1, 41598, Note_off_c, 0, 70, 114
1, 41609, Note_on_c, 0, 71, 112
1, 41702, Note_off_c, 0, 71, 112
1, 41717, Note_on_c, 0, 72, 105
1, 41774, Note_off_c, 0, 72, 105
1, 41789, Note_on_c, 0, 73, 109
1, 41856, Note_off_c, 0, 73, 109
1, 41875, Note_on_c, 0, 74, 111
1, 42009, Note_off_c, 0, 74, 111
1, 42091, Note_on_c, 0, 74, 116
1, 42194, Note_off_c, 0, 74, 116
1, 42303, Note_on_c, 0, 79, 118
1, 42516, Note_off_c, 0, 79, 118
1, 42588, Note_on_c, 0, 73, 114
1, 42693, Note_off_c, 0, 73, 114
1, 42764, Note_on_c, 0, 73, 114
1, 42865, Note_off_c, 0, 73, 114
1, 42883, Note_on_c, 0, 67, 98
1, 43211, Note_off_c, 0, 67, 98
1, 43438, Note_on_c, 0, 70, 113
1, 43517, Note_off_c, 0, 70, 113
1, 43636, Note_on_c, 0, 70, 102
1, 43700, Note_off_c, 0, 70, 102
1, 43823, Note_on_c, 0, 73, 103
1, 44048, Note_off_c, 0, 73, 103
1, 44151, Note_on_c, 0, 72, 108
1, 44222, Note_off_c, 0, 72, 108
1, 44316, Note_on_c, 0, 72, 111
1, 44380, Note_off_c, 0, 72, 111
1, 44400, Note_on_c, 0, 67, 94
1, 44454, Note_off_c, 0, 67, 94
1, 44468, Note_on_c, 0, 65, 95
1, 44899, Note_off_c, 0, 65, 95
1, 44977, Note_on_c, 0, 70, 103
1, 45069, Note_off_c, 0, 70, 103
1, 45547, Note_on_c, 0, 75, 111
1, 45614, Note_off_c, 0, 75, 111
1, 45629, Note_on_c, 0, 73, 111
1, 45972, Note_off_c, 0, 73, 111
1, 45983, Note_on_c, 0, 73, 103
1, 46069, Note_off_c, 0, 73, 103
1, 46161, Note_on_c, 0, 73, 9
1, 46243, Note_off_c, 0, 73, 9
1, 46348, Note_on_c, 0, 73, 108
1, 46424, Note_off_c, 0, 73, 108
1, 46461, Note_on_c, 0, 73, 116
1, 46542, Note_off_c, 0, 73, 116
1, 46633, Note_on_c, 0, 72, 112
1, 46686, Note_off_c, 0, 72, 112
1, 46703, Note_on_c, 0, 72, 103
1, 46790, Note_off_c, 0, 72, 103
1, 46811, Note_on_c, 0, 72, 101
1, 46878, Note_off_c, 0, 72, 101
1, 46890, Note_on_c, 0, 72, 105
1, 46984, Note_off_c, 0, 72, 105
1, 47009, Note_on_c, 0, 72, 108
1, 47071, Note_off_c, 0, 72, 108
1, 47096, Note_on_c, 0, 72, 98
1, 47185, Note_off_c, 0, 72, 98
1, 47202, Note_on_c, 0, 72, 103
1, 47263, Note_off_c, 0, 72, 103
1, 47294, Note_on_c, 0, 72, 110
1, 47516, Note_off_c, 0, 72, 110
1, 47572, Note_on_c, 0, 75, 122
1, 47667, Note_off_c, 0, 75, 122
1, 48176, Note_on_c, 0, 70, 106
1, 48240, Note_off_c, 0, 70, 106
1, 48261, Note_on_c, 0, 73, 93
1, 48337, Note_off_c, 0, 73, 93
1, 48349, Note_on_c, 0, 76, 117
1, 48455, Note_off_c, 0, 76, 117
1, 48473, Note_on_c, 0, 75, 111
1, 48527, Note_off_c, 0, 75, 111
1, 48546, Note_on_c, 0, 72, 101
1, 48586, Note_off_c, 0, 72, 101
1, 48601, Note_on_c, 0, 70, 96
1, 48695, Note_off_c, 0, 70, 96
1, 48731, Note_on_c, 0, 67, 92
1, 48802, Note_off_c, 0, 67, 92
1, 48832, Note_on_c, 0, 70, 107
1, 48926, Note_off_c, 0, 70, 107
1, 48936, Note_on_c, 0, 65, 96
1, 49014, Note_off_c, 0, 65, 96
1, 49020, Note_on_c, 0, 67, 104
1, 49067, Note_off_c, 0, 67, 104
1, 49070, Note_on_c, 0, 68, 96
1, 49109, Note_off_c, 0, 68, 96
1, 49119, Note_on_c, 0, 69, 104
1, 49193, Note_off_c, 0, 69, 104
1, 49207, Note_on_c, 0, 70, 106
1, 49306, Note_off_c, 0, 70, 106
1, 49331, Note_on_c, 0, 72, 109
1, 49401, Note_off_c, 0, 72, 109
1, 49418, Note_on_c, 0, 73, 102
1, 49500, Note_off_c, 0, 73, 102
1, 49526, Note_on_c, 0, 70, 100
1, 49572, Note_off_c, 0, 70, 100
1, 49594, Note_on_c, 0, 72, 102
1, 49701, Note_off_c, 0, 72, 102
1, 49709, Note_on_c, 0, 70, 105
1, 49773, Note_off_c, 0, 70, 105
1, 49783, Note_on_c, 0, 67, 100
1, 49880, Note_off_c, 0, 67, 100
1, 49894, Note_on_c, 0, 65, 113
1, 49951, Note_off_c, 0, 65, 113
1, 49957, Note_on_c, 0, 64, 104
1, 50042, Note_off_c, 0, 64, 104
1, 50063, Note_on_c, 0, 63, 110
1, 50144, Note_off_c, 0, 63, 110
1, 50161, Note_on_c, 0, 60, 91
1, 50254, Note_off_c, 0, 60, 91
1, 50318, Note_on_c, 0, 62, 100
1, 50432, Note_off_c, 0, 62, 100
1, 50543, Note_on_c, 0, 65, 106
1, 50648, Note_off_c, 0, 65, 106
1, 50680, Note_on_c, 0, 62, 87
1, 50733, Note_off_c, 0, 62, 87
1, 50746, Note_on_c, 0, 63, 105
1, 50816, Note_off_c, 0, 63, 105
1, 50848, Note_on_c, 0, 67, 102
1, 51020, Note_off_c, 0, 67, 102
1, 51046, Note_on_c, 0, 64, 97
1, 51114, Note_off_c, 0, 64, 97
1, 51118, Note_on_c, 0, 67, 105
1, 51209, Note_off_c, 0, 67, 105
1, 51248, Note_on_c, 0, 70, 97
1, 51324, Note_off_c, 0, 70, 97
1, 51324, End_track
0, 0, End_of_file
