0, 0, Header, 1, 1, 192
1, 0, Start_track
1, 0, Title_t, "Melody"
1, 0, Tempo, 165745
1, 0, Key_signature, 1, "major"
1, 0, Time_signature, 4, 2, 24, 8
1, 2809, Note_on_c, 0, 74, 92
1, 2910, Note_off_c, 0, 74, 92
1, 3014, Note_on_c, 0, 74, 101
1, 3113, Note_off_c, 0, 74, 101
1, 3200, Note_on_c, 0, 74, 93
1, 3337, Note_off_c, 0, 74, 93
1, 3379, Note_on_c, 0, 74, 103
1, 3494, Note_off_c, 0, 74, 103
1, 3572, Note_on_c, 0, 74, 105
1, 3720, Note_off_c, 0, 74, 105
1, 4065, Note_on_c, 0, 70, 108
1, 4140, Note_off_c, 0, 70, 108
1, 4140, Note_on_c, 0, 72, 108
1, 4218, Note_off_c, 0, 72, 108
1, 4227, Note_on_c, 0, 73, 106
1, 4290, Note_off_c, 0, 73, 106
1, 4304, Note_on_c, 0, 74, 111
1, 4398, Note_off_c, 0, 74, 111
1, 4478, Note_on_c, 0, 70, 99
1, 4617, Note_off_c, 0, 70, 99
1, 4695, Note_on_c, 0, 69, 106
1, 4834, Note_off_c, 0, 69, 106
1, 4953, Note_on_c, 0, 69, 112
1, 5077, Note_off_c, 0, 69, 112
1, 5715, Note_on_c, 0, 72, 97
1, 5849, Note_off_c, 0, 72, 97
1, 5918, Note_on_c, 0, 72, 109
1, 6028, Note_off_c, 0, 72, 109
1, 6117, Note_on_c, 0, 72, 98
1, 6239, Note_off_c, 0, 72, 98
1, 6301, Note_on_c, 0, 72, 116
1, 6374, Note_off_c, 0, 72, 116
1, 6409, Note_on_c, 0, 72, 107
1, 6486, Note_off_c, 0, 72, 107
1, 6509, Note_on_c, 0, 72, 105
1, 6571, Note_off_c, 0, 72, 105
1, 6582, Note_on_c, 0, 72, 108
1, 6664, Note_off_c, 0, 72, 108
1, 6695, Note_on_c, 0, 72, 104
1, 6747, Note_off_c, 0, 72, 104
1, 6767, Note_on_c, 0, 72, 96
1, 6842, Note_off_c, 0, 72, 96
1, 6885, Note_on_c, 0, 72, 110
1, 6960, Note_off_c, 0, 72, 110
1, 6998, Note_on_c, 0, 72, 110
1, 7050, Note_off_c, 0, 72, 110
1, 7068, Note_on_c, 0, 71, 111
1, 7189, Note_off_c, 0, 71, 111
1, 7199, Note_on_c, 0, 72, 111
1, 7247, Note_off_c, 0, 72, 111
1, 7260, Note_on_c, 0, 74, 111
1, 7407, Note_off_c, 0, 74, 111
1, 7486, Note_on_c, 0, 70, 102
1, 7645, Note_off_c, 0, 70, 102
1, 7670, Note_on_c, 0, 67, 115
1, 7807, Note_off_c, 0, 67, 115
1, 7982, Note_on_c, 0, 64, 104
1, 8086, Note_off_c, 0, 64, 104
1, 8694, Note_on_c, 0, 74, 107
1, 8984, Note_off_c, 0, 74, 107
1, 9026, Note_on_c, 0, 73, 113
1, 9101, Note_off_c, 0, 73, 113
1, 9101, Note_on_c, 0, 74, 110
1, 9179, Note_off_c, 0, 74, 110
1, 9202, Note_on_c, 0, 73, 113
1, 9284, Note_off_c, 0, 73, 113
1, 9312, Note_on_c, 0, 74, 111
1, 9380, Note_off_c, 0, 74, 111
1, 9410, Note_on_c, 0, 73, 115
1, 9468, Note_off_c, 0, 73, 115
1, 9479, Note_on_c, 0, 74, 116
1, 9551, Note_off_c, 0, 74, 116
1, 9557, Note_on_c, 0, 75, 114
1, 9701, Note_off_c, 0, 75, 114
1, 9702, Note_on_c, 0, 74, 112
1, 9772, Note_off_c, 0, 74, 112
1, 9778, Note_on_c, 0, 75, 117
1, 9893, Note_off_c, 0, 75, 117
1, 9893, Note_on_c, 0, 74, 122
1, 9953, Note_off_c, 0, 74, 122
1, 9969, Note_on_c, 0, 73, 117
1, 10048, Note_off_c, 0, 73, 117
1, 10064, Note_on_c, 0, 74, 115
1, 10146, Note_off_c, 0, 74, 115
1, 10162, Note_on_c, 0, 73, 120
1, 10256, Note_off_c, 0, 73, 120
1, 10262, Note_on_c, 0, 74, 114
1, 10346, Note_off_c, 0, 74, 114
1, 10347, Note_on_c, 0, 75, 114
1, 10473, Note_off_c, 0, 75, 114
1, 10481, Note_on_c, 0, 74, 105
1, 10558, Note_off_c, 0, 74, 105
1, 10571, Note_on_c, 0, 75, 113
1, 10666, Note_off_c, 0, 75, 113
1, 10666, Note_on_c, 0, 74, 111
1, 10731, Note_off_c, 0, 74, 111
1, 10742, Note_on_c, 0, 73, 111
1, 10822, Note_off_c, 0, 73, 111
1, 10840, Note_on_c, 0, 74, 108
1, 10917, Note_off_c, 0, 74, 108
1, 10923, Note_on_c, 0, 73, 111
1, 11020, Note_off_c, 0, 73, 111
1, 11030, Note_on_c, 0, 74, 115
1, 11090, Note_off_c, 0, 74, 115
1, 11111, Note_on_c, 0, 75, 114
1, 11210, Note_off_c, 0, 75, 114
1, 11218, Note_on_c, 0, 74, 111
1, 11295, Note_off_c, 0, 74, 111
1, 11296, Note_on_c, 0, 75, 109
1, 11388, Note_off_c, 0, 75, 109
1, 11396, Note_on_c, 0, 74, 111
1, 11466, Note_off_c, 0, 74, 111
1, 11482, Note_on_c, 0, 73, 109
1, 11571, Note_off_c, 0, 73, 109
1, 11584, Note_on_c, 0, 74, 108
1, 11649, Note_off_c, 0, 74, 108
1, 11669, Note_on_c, 0, 73, 113
1, 11753, Note_off_c, 0, 73, 113
1, 11783, Note_on_c, 0, 76, 97
1, 11825, Note_off_c, 0, 76, 97
1, 11830, Note_on_c, 0, 75, 112
1, 11935, Note_off_c, 0, 75, 112
1, 11950, Note_on_c, 0, 74, 110
1, 12023, Note_off_c, 0, 74, 110
1, 12029, Note_on_c, 0, 75, 108
1, 12143, Note_off_c, 0, 75, 108
1, 12149, Note_on_c, 0, 74, 110
1, 12214, Note_off_c, 0, 74, 110
1, 12225, Note_on_c, 0, 73, 109
1, 12307, Note_off_c, 0, 73, 109
1, 12323, Note_on_c, 0, 74, 105
1, 12407, Note_off_c, 0, 74, 105
1, 12423, Note_on_c, 0, 73, 110
1, 12517, Note_off_c, 0, 73, 110
1, 12535, Note_on_c, 0, 74, 106
1, 12603, Note_off_c, 0, 74, 106
1, 12621, Note_on_c, 0, 75, 113
1, 12731, Note_off_c, 0, 75, 113
1, 12739, Note_on_c, 0, 74, 116
1, 12797, Note_off_c, 0, 74, 116
1, 12818, Note_on_c, 0, 75, 113
1, 12928, Note_off_c, 0, 75, 113
1, 12929, Note_on_c, 0, 74, 113
1, 12987, Note_off_c, 0, 74, 113
1, 13010, Note_on_c, 0, 73, 114
1, 13077, Note_off_c, 0, 73, 114
1, 13092, Note_on_c, 0, 74, 109
1, 13167, Note_off_c, 0, 74, 109
1, 13183, Note_on_c, 0, 73, 114
1, 13251, Note_off_c, 0, 73, 114
1, 13254, Note_on_c, 0, 74, 110
1, 13339, Note_off_c, 0, 74, 110
1, 13365, Note_on_c, 0, 75, 112
1, 13475, Note_off_c, 0, 75, 112
1, 13483, Note_on_c, 0, 74, 108
1, 13573, Note_off_c, 0, 74, 108
1, 13579, Note_on_c, 0, 73, 99
1, 13625, Note_off_c, 0, 73, 99
1, 13632, Note_on_c, 0, 70, 114
1, 13716, Note_off_c, 0, 70, 114
1, 13731, Note_on_c, 0, 67, 116
1, 13912, Note_off_c, 0, 67, 116
1, 14147, Note_on_c, 0, 69, 106
1, 14313, Note_off_c, 0, 69, 106
1, 14528, Note_on_c, 0, 74, 110
1, 14682, Note_off_c, 0, 74, 110
1, 14962, Note_on_c, 0, 70, 119
1, 15034, Note_off_c, 0, 70, 119
1, 15037, Note_on_c, 0, 69, 118
1, 15105, Note_off_c, 0, 69, 118
1, 15115, Note_on_c, 0, 67, 113
1, 15212, Note_off_c, 0, 67, 113
1, 15222, Note_on_c, 0, 64, 109
1, 15301, Note_off_c, 0, 64, 109
1, 15326, Note_on_c, 0, 63, 105
1, 15428, Note_off_c, 0, 63, 105
1, 16073, Note_on_c, 0, 70, 116
1, 16146, Note_off_c, 0, 70, 116
1, 16147, Note_on_c, 0, 69, 124
1, 16222, Note_off_c, 0, 69, 124
1, 16233, Note_on_c, 0, 67, 119
1, 16333, Note_off_c, 0, 67, 119
1, 16356, Note_on_c, 0, 64, 110
1, 16423, Note_off_c, 0, 64, 110
1, 16465, Note_on_c, 0, 62, 96
1, 16597, Note_off_c, 0, 62, 96
1, 16649, Note_on_c, 0, 64, 109
1, 16803, Note_off_c, 0, 64, 109
1, 16841, Note_on_c, 0, 67, 116
1, 16987, Note_off_c, 0, 67, 116
1, 17141, Note_on_c, 0, 69, 123
1, 17225, Note_off_c, 0, 69, 123
1, 17968, Note_on_c, 0, 70, 126
1, 18075, Note_off_c, 0, 70, 126
1, 18076, Note_on_c, 0, 69, 121
1, 18160, Note_off_c, 0, 69, 121
1, 18173, Note_on_c, 0, 67, 120
1, 18272, Note_off_c, 0, 67, 120
1, 18287, Note_on_c, 0, 64, 114
1, 18369, Note_off_c, 0, 64, 114
1, 18386, Note_on_c, 0, 62, 107
1, 18564, Note_off_c, 0, 62, 107
1, 19164, Note_on_c, 0, 70, 127
1, 19237, Note_off_c, 0, 70, 127
1, 19248, Note_on_c, 0, 69, 123
1, 19330, Note_off_c, 0, 69, 123
1, 19348, Note_on_c, 0, 67, 121
1, 19432, Note_off_c, 0, 67, 121
1, 19445, Note_on_c, 0, 64, 108
1, 19539, Note_off_c, 0, 64, 108
1, 19550, Note_on_c, 0, 62, 102
1, 19664, Note_off_c, 0, 62, 102
1, 19748, Note_on_c, 0, 64, 110
1, 19880, Note_off_c, 0, 64, 110
1, 19931, Note_on_c, 0, 70, 103
1, 20012, Note_off_c, 0, 70, 103
1, 20199, Note_on_c, 0, 69, 116
1, 20336, Note_off_c, 0, 69, 116
1, 21211, Note_on_c, 0, 70, 117
1, 21264, Note_off_c, 0, 70, 117
1, 21292, Note_on_c, 0, 71, 107
1, 21362, Note_off_c, 0, 71, 107
1, 21409, Note_on_c, 0, 74, 94
1, 21449, Note_off_c, 0, 74, 94
1, 21462, Note_on_c, 0, 77, 115
1, 21609, Note_off_c, 0, 77, 115
1, 21622, Note_on_c, 0, 76, 112
1, 21684, Note_off_c, 0, 76, 112
1, 21689, Note_on_c, 0, 77, 112
1, 21783, Note_off_c, 0, 77, 112
1, 21784, Note_on_c, 0, 76, 116
1, 21864, Note_off_c, 0, 76, 116
1, 21865, Note_on_c, 0, 74, 118
1, 21986, Note_off_c, 0, 74, 118
1, 21986, Note_on_c, 0, 72, 113
1, 22075, Note_off_c, 0, 72, 113
1, 22075, Note_on_c, 0, 73, 115
1, 22177, Note_off_c, 0, 73, 115
1, 22187, Note_on_c, 0, 74, 115
1, 22264, Note_off_c, 0, 74, 115
1, 22274, Note_on_c, 0, 72, 110
1, 22373, Note_off_c, 0, 72, 110
1, 22381, Note_on_c, 0, 73, 117
1, 22454, Note_off_c, 0, 73, 117
1, 22470, Note_on_c, 0, 74, 118
1, 22549, Note_off_c, 0, 74, 118
1, 22549, Note_on_c, 0, 70, 118
1, 22604, Note_off_c, 0, 70, 118
1, 22622, Note_on_c, 0, 69, 122
1, 22714, Note_off_c, 0, 69, 122
1, 22720, Note_on_c, 0, 67, 112
1, 22859, Note_off_c, 0, 67, 112
1, 22870, Note_on_c, 0, 65, 99
1, 22943, Note_off_c, 0, 65, 99
1, 22948, Note_on_c, 0, 67, 112
1, 23274, Note_off_c, 0, 67, 112
1, 23302, Note_on_c, 0, 71, 114
1, 23446, Note_off_c, 0, 71, 114
1, 24047, Note_on_c, 0, 73, 115
1, 24126, Note_off_c, 0, 73, 115
1, 24139, Note_on_c, 0, 74, 108
1, 24349, Note_off_c, 0, 74, 108
1, 24355, Note_on_c, 0, 73, 109
1, 24422, Note_off_c, 0, 73, 109
1, 24423, Note_on_c, 0, 74, 106
1, 24461, Note_off_c, 0, 74, 106
1, 24474, Note_on_c, 0, 73, 107
1, 24532, Note_off_c, 0, 73, 107
1, 24538, Note_on_c, 0, 74, 107
1, 24699, Note_off_c, 0, 74, 107
1, 24779, Note_on_c, 0, 73, 116
1, 24834, Note_off_c, 0, 73, 116
1, 24834, Note_on_c, 0, 74, 112
1, 24870, Note_off_c, 0, 74, 112
1, 24880, Note_on_c, 0, 73, 110
1, 24945, Note_off_c, 0, 73, 110
1, 24955, Note_on_c, 0, 74, 108
1, 25055, Note_off_c, 0, 74, 108
1, 25149, Note_on_c, 0, 73, 111
1, 25194, Note_off_c, 0, 73, 111
1, 25197, Note_on_c, 0, 74, 111
1, 25247, Note_off_c, 0, 74, 111
1, 25262, Note_on_c, 0, 73, 109
1, 25320, Note_off_c, 0, 73, 109
1, 25325, Note_on_c, 0, 74, 107
1, 25454, Note_off_c, 0, 74, 107
1, 25536, Note_on_c, 0, 73, 113
1, 25586, Note_off_c, 0, 73, 113
1, 25589, Note_on_c, 0, 74, 113
1, 25646, Note_off_c, 0, 74, 113
1, 25661, Note_on_c, 0, 73, 110
1, 25714, Note_off_c, 0, 73, 110
1, 25727, Note_on_c, 0, 74, 110
1, 25849, Note_off_c, 0, 74, 110
1, 25889, Note_on_c, 0, 73, 85
1, 25944, Note_off_c, 0, 73, 85
1, 25960, Note_on_c, 0, 74, 110
1, 26023, Note_off_c, 0, 74, 110
1, 26029, Note_on_c, 0, 73, 109
1, 26092, Note_off_c, 0, 73, 109
1, 26108, Note_on_c, 0, 74, 93
1, 26235, Note_off_c, 0, 74, 93
1, 26282, Note_on_c, 0, 73, 113
1, 26355, Note_off_c, 0, 73, 113
1, 26366, Note_on_c, 0, 74, 110
1, 26413, Note_off_c, 0, 74, 110
1, 26426, Note_on_c, 0, 73, 110
1, 26483, Note_off_c, 0, 73, 110
1, 26484, Note_on_c, 0, 74, 111
1, 26598, Note_off_c, 0, 74, 111
1, 26643, Note_on_c, 0, 73, 96
1, 26708, Note_off_c, 0, 73, 96
1, 26718, Note_on_c, 0, 74, 110
1, 26771, Note_off_c, 0, 74, 110
1, 26786, Note_on_c, 0, 73, 110
1, 26846, Note_off_c, 0, 73, 110
1, 26856, Note_on_c, 0, 74, 108
1, 26971, Note_off_c, 0, 74, 108
1, 27051, Note_on_c, 0, 73, 115
1, 27103, Note_off_c, 0, 73, 115
1, 27108, Note_on_c, 0, 74, 113
1, 27160, Note_off_c, 0, 74, 113
1, 27178, Note_on_c, 0, 73, 116
1, 27243, Note_off_c, 0, 73, 116
1, 27258, Note_on_c, 0, 74, 94
1, 27352, Note_off_c, 0, 74, 94
1, 27409, Note_on_c, 0, 73, 105
1, 27467, Note_off_c, 0, 73, 105
1, 27472, Note_on_c, 0, 74, 114
1, 27544, Note_off_c, 0, 74, 114
1, 27552, Note_on_c, 0, 73, 115
1, 27612, Note_off_c, 0, 73, 115
1, 27620, Note_on_c, 0, 74, 111
1, 27722, Note_off_c, 0, 74, 111
1, 27794, Note_on_c, 0, 73, 108
1, 27849, Note_off_c, 0, 73, 108
1, 27859, Note_on_c, 0, 74, 112
1, 27924, Note_off_c, 0, 74, 112
1, 27944, Note_on_c, 0, 73, 109
1, 28002, Note_off_c, 0, 73, 109
1, 28017, Note_on_c, 0, 74, 99
1, 28117, Note_off_c, 0, 74, 99
1, 28184, Note_on_c, 0, 73, 110
1, 28241, Note_off_c, 0, 73, 110
1, 28251, Note_on_c, 0, 74, 111
1, 28293, Note_off_c, 0, 74, 111
1, 28316, Note_on_c, 0, 73, 108
1, 28401, Note_off_c, 0, 73, 108
1, 28406, Note_on_c, 0, 74, 102
1, 28525, Note_off_c, 0, 74, 102
1, 28565, Note_on_c, 0, 73, 118
1, 28627, Note_off_c, 0, 73, 118
1, 28627, Note_on_c, 0, 74, 113
1, 28669, Note_off_c, 0, 74, 113
1, 28674, Note_on_c, 0, 73, 111
1, 28746, Note_off_c, 0, 73, 111
1, 28754, Note_on_c, 0, 74, 109
1, 28854, Note_off_c, 0, 74, 109
1, 28949, Note_on_c, 0, 73, 116
1, 29021, Note_off_c, 0, 73, 116
1, 29021, Note_on_c, 0, 74, 116
1, 29061, Note_off_c, 0, 74, 116
1, 29077, Note_on_c, 0, 73, 115
1, 29137, Note_off_c, 0, 73, 115
1, 29137, Note_on_c, 0, 74, 114
1, 29301, Note_off_c, 0, 74, 114
1, 29351, Note_on_c, 0, 73, 117
1, 29399, Note_off_c, 0, 73, 117
1, 29400, Note_on_c, 0, 74, 117
1, 29448, Note_off_c, 0, 74, 117
1, 29463, Note_on_c, 0, 73, 116
1, 29518, Note_off_c, 0, 73, 116
1, 29526, Note_on_c, 0, 74, 111
1, 29655, Note_off_c, 0, 74, 111
1, 29725, Note_on_c, 0, 73, 114
1, 29765, Note_off_c, 0, 73, 114
1, 29773, Note_on_c, 0, 74, 112
1, 29820, Note_off_c, 0, 74, 112
1, 29838, Note_on_c, 0, 73, 116
1, 29895, Note_off_c, 0, 73, 116
1, 29903, Note_on_c, 0, 74, 110
1, 30008, Note_off_c, 0, 74, 110
1, 30080, Note_on_c, 0, 73, 111
1, 30152, Note_off_c, 0, 73, 111
1, 30160, Note_on_c, 0, 74, 114
1, 30213, Note_off_c, 0, 74, 114
1, 30234, Note_on_c, 0, 73, 114
1, 30274, Note_off_c, 0, 73, 114
1, 30294, Note_on_c, 0, 74, 110
1, 30408, Note_off_c, 0, 74, 110
1, 30426, Note_on_c, 0, 74, 113
1, 30464, Note_off_c, 0, 74, 113
1, 30478, Note_on_c, 0, 73, 116
1, 30529, Note_off_c, 0, 73, 116
1, 30548, Note_on_c, 0, 74, 111
1, 30648, Note_off_c, 0, 74, 111
1, 30697, Note_on_c, 0, 74, 110
1, 30785, Note_off_c, 0, 74, 110
1, 31286, Note_on_c, 0, 74, 115
1, 31371, Note_off_c, 0, 74, 115
1, 31386, Note_on_c, 0, 72, 113
1, 31476, Note_off_c, 0, 72, 113
1, 31482, Note_on_c, 0, 73, 105
1, 31550, Note_off_c, 0, 73, 105
1, 31563, Note_on_c, 0, 74, 117
1, 31662, Note_off_c, 0, 74, 117
1, 31670, Note_on_c, 0, 72, 111
1, 31755, Note_off_c, 0, 72, 111
1, 31765, Note_on_c, 0, 73, 112
1, 31855, Note_off_c, 0, 73, 112
1, 31866, Note_on_c, 0, 74, 113
1, 31939, Note_off_c, 0, 74, 113
1, 31952, Note_on_c, 0, 72, 111
1, 32047, Note_off_c, 0, 72, 111
1, 32048, Note_on_c, 0, 73, 111
1, 32106, Note_off_c, 0, 73, 111
1, 32106, Note_on_c, 0, 74, 118
1, 32220, Note_off_c, 0, 74, 118
1, 32258, Note_on_c, 0, 70, 108
1, 32328, Note_off_c, 0, 70, 108
1, 32349, Note_on_c, 0, 67, 104
1, 32453, Note_off_c, 0, 67, 104
1, 32574, Note_on_c, 0, 67, 114
1, 32698, Note_off_c, 0, 67, 114
1, 32704, Note_on_c, 0, 66, 81
1, 32734, Note_off_c, 0, 66, 81
1, 33396, Note_on_c, 0, 74, 116
1, 33510, Note_off_c, 0, 74, 116
1, 33510, Note_on_c, 0, 76, 116
1, 33647, Note_off_c, 0, 76, 116
1, 33669, Note_on_c, 0, 79, 100
1, 34950, Note_off_c, 0, 79, 100
1, 35060, Note_on_c, 0, 76, 105
1, 35201, Note_off_c, 0, 76, 105
1, 35264, Note_on_c, 0, 74, 95
1, 35422, Note_off_c, 0, 74, 95
1, 35462, Note_on_c, 0, 71, 105
1, 35626, Note_off_c, 0, 71, 105
1, 35642, Note_on_c, 0, 70, 107
1, 35703, Note_off_c, 0, 70, 107
1, 35719, Note_on_c, 0, 71, 112
1, 35789, Note_off_c, 0, 71, 112
1, 35803, Note_on_c, 0, 70, 107
1, 35873, Note_off_c, 0, 70, 107
1, 35877, Note_on_c, 0, 71, 109
1, 36033, Note_off_c, 0, 71, 109
1, 36430, Note_on_c, 0, 72, 109
1, 36534, Note_off_c, 0, 72, 109
1, 36543, Note_on_c, 0, 73, 111
1, 36663, Note_off_c, 0, 73, 111
1, 36703, Note_on_c, 0, 79, 100
1, 36785, Note_off_c, 0, 79, 100
1, 36813, Note_on_c, 0, 83, 94
1, 36945, Note_off_c, 0, 83, 94
1, 37027, Note_on_c, 0, 81, 103
1, 37140, Note_off_c, 0, 81, 103
1, 37208, Note_on_c, 0, 81, 89
1, 37352, Note_off_c, 0, 81, 89
1, 37422, Note_on_c, 0, 79, 106
1, 37537, Note_off_c, 0, 79, 106
1, 37607, Note_on_c, 0, 79, 94
1, 37758, Note_off_c, 0, 79, 94
1, 37802, Note_on_c, 0, 78, 100
1, 37906, Note_off_c, 0, 78, 100
1, 37993, Note_on_c, 0, 78, 93
1, 38118, Note_off_c, 0, 78, 93
1, 38198, Note_on_c, 0, 78, 92
1, 38294, Note_off_c, 0, 78, 92
1, 38357, Note_on_c, 0, 76, 111
1, 38463, Note_off_c, 0, 76, 111
1, 38470, Note_on_c, 0, 74, 103
1, 38550, Note_off_c, 0, 74, 103
1, 38552, Note_on_c, 0, 75, 104
1, 38587, Note_off_c, 0, 75, 104
1, 38596, Note_on_c, 0, 71, 106
1, 38695, Note_off_c, 0, 71, 106
1, 38704, Note_on_c, 0, 72, 110
1, 38741, Note_off_c, 0, 72, 110
1, 38745, Note_on_c, 0, 74, 108
1, 38882, Note_off_c, 0, 74, 108
1, 38960, Note_on_c, 0, 71, 111
1, 39054, Note_off_c, 0, 71, 111
1, 39054, Note_on_c, 0, 72, 111
1, 39110, Note_off_c, 0, 72, 111
1, 39110, Note_on_c, 0, 74, 110
1, 39218, Note_off_c, 0, 74, 110
1, 39218, Note_on_c, 0, 76, 109
1, 39295, Note_off_c, 0, 76, 109
1, 39300, Note_on_c, 0, 77, 111
1, 39404, Note_off_c, 0, 77, 111
1, 39417, Note_on_c, 0, 76, 112
1, 39502, Note_off_c, 0, 76, 112
1, 39503, Note_on_c, 0, 77, 109
1, 39603, Note_off_c, 0, 77, 109
1, 39608, Note_on_c, 0, 76, 110
1, 39690, Note_off_c, 0, 76, 110
1, 39691, Note_on_c, 0, 77, 106
1, 39776, Note_off_c, 0, 77, 106
1, 39776, Note_on_c, 0, 76, 108
1, 39865, Note_off_c, 0, 76, 108
1, 39865, Note_on_c, 0, 74, 113
1, 39967, Note_off_c, 0, 74, 113
1, 39978, Note_on_c, 0, 72, 113
1, 40078, Note_off_c, 0, 72, 113
1, 40088, Note_on_c, 0, 73, 109
1, 40175, Note_off_c, 0, 73, 109
1, 40176, Note_on_c, 0, 74, 107
1, 40265, Note_off_c, 0, 74, 107
1, 40266, Note_on_c, 0, 72, 110
1, 40371, Note_off_c, 0, 72, 110
1, 40379, Note_on_c, 0, 73, 107
1, 40434, Note_off_c, 0, 73, 107
1, 40437, Note_on_c, 0, 74, 110
1, 40546, Note_off_c, 0, 74, 110
1, 40547, Note_on_c, 0, 70, 112
1, 40590, Note_off_c, 0, 70, 112
1, 40613, Note_on_c, 0, 69, 121
1, 40744, Note_off_c, 0, 69, 121
1, 40769, Note_on_c, 0, 67, 112
1, 40947, Note_off_c, 0, 67, 112
1, 40949, Note_on_c, 0, 69, 122
1, 41064, Note_off_c, 0, 69, 122
1, 41075, Note_on_c, 0, 68, 112
1, 41132, Note_off_c, 0, 68, 112
1, 41143, Note_on_c, 0, 69, 113
1, 41220, Note_off_c, 0, 69, 113
1, 41224, Note_on_c, 0, 66, 111
1, 41286, Note_off_c, 0, 66, 111
1, 41287, Note_on_c, 0, 70, 109
1, 41369, Note_off_c, 0, 70, 109
1, 41379, Note_on_c, 0, 66, 113
1, 41429, Note_off_c, 0, 66, 113
1, 41429, Note_on_c, 0, 67, 122
1, 41528, Note_off_c, 0, 67, 122
1, 41544, Note_on_c, 0, 64, 106
1, 41604, Note_off_c, 0, 64, 106
1, 41609, Note_on_c, 0, 67, 121
1, 41724, Note_off_c, 0, 67, 121
1, 41739, Note_on_c, 0, 66, 117
1, 41779, Note_off_c, 0, 66, 117
1, 41792, Note_on_c, 0, 67, 119
1, 42040, Note_off_c, 0, 67, 119
1, 42051, Note_on_c, 0, 66, 104
1, 42111, Note_off_c, 0, 66, 104
1, 42137, Note_on_c, 0, 67, 118
1, 42363, Note_off_c, 0, 67, 118
1, 42368, Note_on_c, 0, 64, 81
1, 42450, Note_off_c, 0, 64, 81
1, 42452, Note_on_c, 0, 72, 118
1, 42603, Note_off_c, 0, 72, 118
1, 42603, End_track
0, 0, End_of_file
