0, 0, Header, 1, 1, 192
1, 0, Start_track
1, 0, Title_t, "Melody"
1, 0, Tempo, 252100
1, 0, Key_signature, -4, "major"
1, 0, Time_signature, 4, 2, 24, 8
1, 2678, Note_on_c, 0, 77, 104
1, 2783, Note_off_c, 0, 77, 104
1, 2866, Note_on_c, 0, 77, 113
1, 2949, Note_off_c, 0, 77, 113
1, 3045, Note_on_c, 0, 77, 108
1, 3166, Note_off_c, 0, 77, 108
1, 3265, Note_on_c, 0, 77, 112
1, 3355, Note_off_c, 0, 77, 112
1, 3463, Note_on_c, 0, 79, 114
1, 3637, Note_off_c, 0, 79, 114
1, 5393, Note_on_c, 0, 77, 115
1, 5476, Note_off_c, 0, 77, 115
1, 5531, Note_on_c, 0, 79, 114
1, 5636, Note_off_c, 0, 79, 114
1, 5657, Note_on_c, 0, 77, 118
1, 5753, Note_off_c, 0, 77, 118
1, 5859, Note_on_c, 0, 77, 110
1, 6301, Note_off_c, 0, 77, 110
1, 6360, Note_on_c, 0, 74, 110
1, 6497, Note_off_c, 0, 74, 110
1, 6576, Note_on_c, 0, 72, 102
1, 6648, Note_off_c, 0, 72, 102
1, 6648, Note_on_c, 0, 70, 95
1, 6740, Note_off_c, 0, 70, 95
1, 6748, Note_on_c, 0, 68, 93
1, 6867, Note_off_c, 0, 68, 93
1, 6867, Note_on_c, 0, 70, 105
1, 6968, Note_off_c, 0, 70, 105
1, 6972, Note_on_c, 0, 68, 107
1, 7056, Note_off_c, 0, 68, 107
1, 7075, Note_on_c, 0, 67, 101
1, 7183, Note_off_c, 0, 67, 101
1, 7209, Note_on_c, 0, 65, 98
1, 7295, Note_off_c, 0, 65, 98
1, 7317, Note_on_c, 0, 64, 107
1, 7363, Note_off_c, 0, 64, 107
1, 7374, Note_on_c, 0, 63, 101
1, 7451, Note_off_c, 0, 63, 101
1, 7466, Note_on_c, 0, 62, 103
1, 7523, Note_off_c, 0, 62, 103
1, 7527, Note_on_c, 0, 63, 127
1, 7551, Note_off_c, 0, 63, 127
1, 7551, Note_on_c, 0, 64, 110
1, 7595, Note_off_c, 0, 64, 110
1, 7597, Note_on_c, 0, 65, 95
1, 7751, Note_off_c, 0, 65, 95
1, 7755, Note_on_c, 0, 62, 86
1, 7836, Note_off_c, 0, 62, 86
1, 7836, Note_on_c, 0, 63, 93
1, 7946, Note_off_c, 0, 63, 93
1, 7952, Note_on_c, 0, 60, 97
1, 8022, Note_off_c, 0, 60, 97
1, 8026, Note_on_c, 0, 62, 91
1, 8328, Note_off_c, 0, 62, 91
1, 8341, Note_on_c, 0, 70, 100
1, 8447, Note_off_c, 0, 70, 100
1, 9143, Note_on_c, 0, 80, 109
1, 9306, Note_off_c, 0, 80, 109
1, 9317, Note_on_c, 0, 82, 113
1, 9796, Note_off_c, 0, 82, 113
1, 9824, Note_on_c, 0, 80, 104
1, 9927, Note_off_c, 0, 80, 104
1, 9929, Note_on_c, 0, 81, 108
1, 10015, Note_off_c, 0, 81, 108
1, 10017, Note_on_c, 0, 77, 110
1, 10085, Note_off_c, 0, 77, 110
1, 10107, Note_on_c, 0, 73, 93
1, 10228, Note_off_c, 0, 73, 93
1, 10232, Note_on_c, 0, 70, 95
1, 10302, Note_off_c, 0, 70, 95
1, 10306, Note_on_c, 0, 68, 105
1, 10376, Note_off_c, 0, 68, 105
1, 10402, Note_on_c, 0, 65, 99
1, 10477, Note_off_c, 0, 65, 99
1, 10490, Note_on_c, 0, 64, 114
1, 10565, Note_off_c, 0, 64, 114
1, 10582, Note_on_c, 0, 63, 98
1, 10650, Note_off_c, 0, 63, 98
1, 10661, Note_on_c, 0, 62, 97
1, 10715, Note_off_c, 0, 62, 97
1, 10718, Note_on_c, 0, 64, 105
1, 10773, Note_off_c, 0, 64, 105
1, 10790, Note_on_c, 0, 65, 106
1, 10984, Note_off_c, 0, 65, 106
1, 11026, Note_on_c, 0, 63, 104
1, 11156, Note_off_c, 0, 63, 104
1, 11169, Note_on_c, 0, 62, 97
1, 11330, Note_off_c, 0, 62, 97
1, 11334, Note_on_c, 0, 65, 110
1, 11364, Note_off_c, 0, 65, 110
1, 12276, Note_on_c, 0, 75, 92
1, 12348, Note_off_c, 0, 75, 92
1, 12354, Note_on_c, 0, 77, 103
1, 12446, Note_off_c, 0, 77, 103
1, 12452, Note_on_c, 0, 80, 101
1, 12527, Note_off_c, 0, 80, 101
1, 12549, Note_on_c, 0, 85, 110
1, 12628, Note_off_c, 0, 85, 110
1, 12632, Note_on_c, 0, 84, 86
1, 12713, Note_off_c, 0, 84, 86
1, 12732, Note_on_c, 0, 82, 110
1, 12851, Note_off_c, 0, 82, 110
1, 12853, Note_on_c, 0, 80, 107
1, 12948, Note_off_c, 0, 80, 107
1, 13032, Note_on_c, 0, 80, 109
1, 13107, Note_off_c, 0, 80, 109
1, 13133, Note_on_c, 0, 78, 102
1, 13276, Note_off_c, 0, 78, 102
1, 13291, Note_on_c, 0, 77, 106
1, 13425, Note_off_c, 0, 77, 106
1, 13436, Note_on_c, 0, 75, 89
1, 13579, Note_off_c, 0, 75, 89
1, 13614, Note_on_c, 0, 68, 88
1, 13693, Note_off_c, 0, 68, 88
1, 13693, Note_on_c, 0, 70, 94
1, 13861, Note_off_c, 0, 70, 94
1, 13861, Note_on_c, 0, 68, 93
1, 14057, Note_off_c, 0, 68, 93
1, 14061, Note_on_c, 0, 70, 91
1, 14286, Note_off_c, 0, 70, 91
1, 14385, Note_on_c, 0, 67, 104
1, 14446, Note_off_c, 0, 67, 104
1, 14448, Note_on_c, 0, 68, 108
1, 14565, Note_off_c, 0, 68, 108
1, 14569, Note_on_c, 0, 69, 100
1, 14668, Note_off_c, 0, 69, 100
1, 14670, Note_on_c, 0, 72, 100
1, 14729, Note_off_c, 0, 72, 100
1, 14775, Note_on_c, 0, 74, 106
1, 15126, Note_off_c, 0, 74, 106
1, 15161, Note_on_c, 0, 71, 98
1, 15220, Note_off_c, 0, 71, 98
1, 15250, Note_on_c, 0, 67, 106
1, 15586, Note_off_c, 0, 67, 106
1, 15888, Note_on_c, 0, 74, 107
1, 16188, Note_off_c, 0, 74, 107
1, 16192, Note_on_c, 0, 72, 106
1, 16273, Note_off_c, 0, 72, 106
1, 16275, Note_on_c, 0, 74, 110
1, 16336, Note_off_c, 0, 74, 110
1, 16336, Note_on_c, 0, 75, 108
1, 16475, Note_on_c, 0, 74, 108
1, 16475, Note_off_c, 0, 75, 108
1, 16539, Note_off_c, 0, 74, 108
1, 16541, Note_on_c, 0, 75, 108
1, 16678, Note_off_c, 0, 75, 108
1, 16680, Note_on_c, 0, 74, 111
1, 16750, Note_off_c, 0, 74, 111
1, 16752, Note_on_c, 0, 72, 104
1, 16847, Note_off_c, 0, 72, 104
1, 16855, Note_on_c, 0, 68, 99
1, 16965, Note_off_c, 0, 68, 99
1, 16965, Note_on_c, 0, 65, 94
1, 17060, Note_off_c, 0, 65, 94
1, 17060, Note_on_c, 0, 62, 95
1, 17124, Note_off_c, 0, 62, 95
1, 17124, Note_on_c, 0, 63, 97
1, 17406, Note_off_c, 0, 63, 97
1, 17408, Note_on_c, 0, 65, 109
1, 17496, Note_off_c, 0, 65, 109
1, 18046, Note_on_c, 0, 84, 100
1, 18092, Note_off_c, 0, 84, 100
1, 18111, Note_on_c, 0, 89, 111
1, 18321, Note_off_c, 0, 89, 111
1, 18351, Note_on_c, 0, 87, 113
1, 18421, Note_off_c, 0, 87, 113
1, 18421, Note_on_c, 0, 86, 104
1, 18558, Note_off_c, 0, 86, 104
1, 18649, Note_on_c, 0, 82, 116
1, 18723, Note_off_c, 0, 82, 116
1, 18744, Note_on_c, 0, 77, 100
1, 18824, Note_off_c, 0, 77, 100
1, 18855, Note_on_c, 0, 74, 84
1, 18914, Note_off_c, 0, 74, 84
1, 18917, Note_on_c, 0, 75, 80
1, 18988, Note_off_c, 0, 75, 80
1, 19009, Note_on_c, 0, 77, 114
1, 19127, Note_off_c, 0, 77, 114
1, 19133, Note_on_c, 0, 76, 102
1, 19188, Note_off_c, 0, 76, 102
1, 19212, Note_on_c, 0, 75, 103
1, 19330, Note_off_c, 0, 75, 103
1, 19348, Note_on_c, 0, 74, 99
1, 19497, Note_off_c, 0, 74, 99
1, 19512, Note_on_c, 0, 73, 97
1, 19586, Note_off_c, 0, 73, 97
1, 19595, Note_on_c, 0, 72, 100
1, 19663, Note_off_c, 0, 72, 100
1, 19684, Note_on_c, 0, 70, 93
1, 19752, Note_off_c, 0, 70, 93
1, 19770, Note_on_c, 0, 68, 108
1, 19863, Note_off_c, 0, 68, 108
1, 19868, Note_on_c, 0, 67, 109
1, 19956, Note_off_c, 0, 67, 109
1, 19968, Note_on_c, 0, 70, 105
1, 20083, Note_off_c, 0, 70, 105
1, 20132, Note_on_c, 0, 68, 91
1, 20467, Note_off_c, 0, 68, 91
1, 20482, Note_on_c, 0, 67, 104
1, 20600, Note_off_c, 0, 67, 104
1, 21231, Note_on_c, 0, 79, 103
1, 21395, Note_off_c, 0, 79, 103
1, 21398, Note_on_c, 0, 80, 103
1, 22622, Note_off_c, 0, 80, 103
1, 22634, Note_on_c, 0, 77, 107
1, 22733, Note_off_c, 0, 77, 107
1, 22832, Note_on_c, 0, 80, 109
1, 22953, Note_off_c, 0, 80, 109
1, 23036, Note_on_c, 0, 77, 109
1, 23126, Note_off_c, 0, 77, 109
1, 23228, Note_on_c, 0, 79, 106
1, 23321, Note_off_c, 0, 79, 106
1, 23364, Note_on_c, 0, 77, 98
1, 23482, Note_off_c, 0, 77, 98
1, 23525, Note_on_c, 0, 79, 94
1, 23689, Note_off_c, 0, 79, 94
1, 23701, Note_on_c, 0, 77, 106
1, 23788, Note_off_c, 0, 77, 106
1, 23890, Note_on_c, 0, 79, 95
1, 24098, Note_off_c, 0, 79, 95
1, 24101, Note_on_c, 0, 77, 81
1, 24187, Note_off_c, 0, 77, 81
1, 24189, Note_on_c, 0, 79, 102
1, 24303, Note_off_c, 0, 79, 102
1, 24303, Note_on_c, 0, 77, 87
1, 24387, Note_off_c, 0, 77, 87
1, 24387, Note_on_c, 0, 79, 103
1, 24508, Note_off_c, 0, 79, 103
1, 24512, Note_on_c, 0, 77, 106
1, 24615, Note_off_c, 0, 77, 106
1, 24687, Note_on_c, 0, 75, 92
1, 24881, Note_off_c, 0, 75, 92
1, 24885, Note_on_c, 0, 77, 102
1, 25092, Note_off_c, 0, 77, 102
1, 25092, Note_on_c, 0, 78, 89
1, 25129, Note_off_c, 0, 78, 89
1, 25137, Note_on_c, 0, 77, 107
1, 25258, Note_off_c, 0, 77, 107
1, 25262, Note_on_c, 0, 75, 102
1, 25350, Note_off_c, 0, 75, 102
1, 25354, Note_on_c, 0, 72, 78
1, 25473, Note_off_c, 0, 72, 78
1, 25510, Note_on_c, 0, 71, 105
1, 25605, Note_off_c, 0, 71, 105
1, 25616, Note_on_c, 0, 72, 95
1, 25737, Note_off_c, 0, 72, 95
1, 25882, Note_on_c, 0, 73, 96
1, 26098, Note_off_c, 0, 73, 96
1, 26175, Note_on_c, 0, 71, 92
1, 26303, Note_off_c, 0, 71, 92
1, 26311, Note_on_c, 0, 72, 95
1, 26379, Note_off_c, 0, 72, 95
1, 26396, Note_on_c, 0, 68, 97
1, 26480, Note_off_c, 0, 68, 97
1, 26499, Note_on_c, 0, 65, 86
1, 26625, Note_off_c, 0, 65, 86
1, 26625, Note_on_c, 0, 68, 91
1, 26859, Note_off_c, 0, 68, 91
1, 27030, Note_on_c, 0, 77, 108
1, 27177, Note_off_c, 0, 77, 108
1, 27980, Note_on_c, 0, 77, 109
1, 28079, Note_off_c, 0, 77, 109
1, 28079, Note_on_c, 0, 79, 105
1, 28164, Note_off_c, 0, 79, 105
1, 28164, Note_on_c, 0, 81, 101
1, 28224, Note_off_c, 0, 81, 101
1, 28225, Note_on_c, 0, 82, 97
1, 28312, Note_off_c, 0, 82, 97
1, 28312, Note_on_c, 0, 84, 107
1, 28423, Note_off_c, 0, 84, 107
1, 28427, Note_on_c, 0, 86, 112
1, 28504, Note_off_c, 0, 86, 112
1, 28508, Note_on_c, 0, 87, 114
1, 28577, Note_off_c, 0, 87, 114
1, 28592, Note_on_c, 0, 89, 106
1, 28730, Note_off_c, 0, 89, 106
1, 29695, Note_on_c, 0, 86, 115
1, 29830, Note_off_c, 0, 86, 115
1, 29847, Note_on_c, 0, 87, 115
1, 29926, Note_off_c, 0, 87, 115
1, 30027, Note_on_c, 0, 88, 112
1, 30124, Note_off_c, 0, 88, 112
1, 30217, Note_on_c, 0, 89, 92
1, 30304, Note_off_c, 0, 89, 92
1, 30358, Note_on_c, 0, 84, 96
1, 30427, Note_off_c, 0, 84, 96
1, 30436, Note_on_c, 0, 84, 98
1, 30504, Note_off_c, 0, 84, 98
1, 30605, Note_on_c, 0, 84, 112
1, 30668, Note_off_c, 0, 84, 112
1, 30669, Note_on_c, 0, 85, 87
1, 30729, Note_off_c, 0, 85, 87
1, 30778, Note_on_c, 0, 86, 118
1, 30885, Note_off_c, 0, 86, 118
1, 31012, Note_on_c, 0, 82, 93
1, 31072, Note_off_c, 0, 82, 93
1, 31078, Note_on_c, 0, 80, 110
1, 31114, Note_off_c, 0, 80, 110
1, 31116, Note_on_c, 0, 82, 88
1, 31175, Note_off_c, 0, 82, 88
1, 31279, Note_on_c, 0, 81, 108
1, 31311, Note_off_c, 0, 81, 108
1, 31311, Note_on_c, 0, 82, 100
1, 31385, Note_off_c, 0, 82, 100
1, 31398, Note_on_c, 0, 82, 98
1, 31464, Note_off_c, 0, 82, 98
1, 31557, Note_on_c, 0, 76, 104
1, 31630, Note_off_c, 0, 76, 104
1, 31841, Note_on_c, 0, 71, 91
1, 31904, Note_off_c, 0, 71, 91
1, 31904, Note_on_c, 0, 72, 88
1, 31955, Note_off_c, 0, 72, 88
1, 31958, Note_on_c, 0, 71, 91
1, 32040, Note_off_c, 0, 71, 91
1, 32052, Note_on_c, 0, 72, 99
1, 32142, Note_off_c, 0, 72, 99
1, 32145, Note_on_c, 0, 70, 101
1, 32246, Note_off_c, 0, 70, 101
1, 32249, Note_on_c, 0, 68, 99
1, 32332, Note_off_c, 0, 68, 99
1, 32363, Note_on_c, 0, 65, 101
1, 32392, Note_on_c, 0, 67, 103
1, 32392, Note_off_c, 0, 65, 101
1, 32558, Note_off_c, 0, 67, 103
1, 32573, Note_on_c, 0, 65, 99
1, 32691, Note_off_c, 0, 65, 99
1, 32694, Note_on_c, 0, 70, 104
1, 32751, Note_off_c, 0, 70, 104
1, 33507, Note_on_c, 0, 70, 94
1, 33606, Note_off_c, 0, 70, 94
1, 33641, Note_on_c, 0, 73, 98
1, 33706, Note_off_c, 0, 73, 98
1, 33706, Note_on_c, 0, 77, 105
1, 33761, Note_off_c, 0, 77, 105
1, 33778, Note_on_c, 0, 80, 102
1, 33869, Note_off_c, 0, 80, 102
1, 33876, Note_on_c, 0, 82, 103
1, 33935, Note_off_c, 0, 82, 103
1, 33945, Note_on_c, 0, 84, 99
1, 34014, Note_off_c, 0, 84, 99
1, 34017, Note_on_c, 0, 86, 98
1, 34060, Note_off_c, 0, 86, 98
1, 34073, Note_on_c, 0, 84, 99
1, 34144, Note_on_c, 0, 82, 104
1, 34144, Note_off_c, 0, 84, 99
1, 34217, Note_off_c, 0, 82, 104
1, 34378, Note_on_c, 0, 80, 101
1, 34463, Note_off_c, 0, 80, 101
1, 34466, Note_on_c, 0, 77, 94
1, 34624, Note_off_c, 0, 77, 94
1, 34625, Note_on_c, 0, 79, 104
1, 34747, Note_off_c, 0, 79, 104
1, 34754, Note_on_c, 0, 80, 106
1, 34875, Note_off_c, 0, 80, 106
1, 34892, Note_on_c, 0, 79, 95
1, 35005, Note_off_c, 0, 79, 95
1, 35019, Note_on_c, 0, 75, 95
1, 35080, Note_off_c, 0, 75, 95
1, 35080, Note_on_c, 0, 70, 93
1, 35159, Note_off_c, 0, 70, 93
1, 35162, Note_on_c, 0, 68, 90
1, 35272, Note_off_c, 0, 68, 90
1, 35287, Note_on_c, 0, 65, 96
1, 35395, Note_off_c, 0, 65, 96
1, 35398, Note_on_c, 0, 64, 89
1, 35478, Note_off_c, 0, 64, 89
1, 35482, Note_on_c, 0, 63, 97
1, 35749, Note_off_c, 0, 63, 97
1, 35755, Note_on_c, 0, 65, 107
1, 35856, Note_off_c, 0, 65, 107
1, 36592, Note_on_c, 0, 81, 93
1, 36652, Note_off_c, 0, 81, 93
1, 36655, Note_on_c, 0, 82, 108
1, 36696, Note_off_c, 0, 82, 108
1, 36697, Note_on_c, 0, 84, 104
1, 36791, Note_on_c, 0, 86, 89
1, 36791, Note_off_c, 0, 84, 104
1, 36834, Note_off_c, 0, 86, 89
1, 36835, Note_on_c, 0, 87, 93
1, 36957, Note_off_c, 0, 87, 93
1, 36966, Note_on_c, 0, 81, 86
1, 37038, Note_off_c, 0, 81, 86
1, 37049, Note_on_c, 0, 82, 78
1, 37091, Note_off_c, 0, 82, 78
1, 37095, Note_on_c, 0, 83, 68
1, 37134, Note_off_c, 0, 83, 68
1, 37134, Note_on_c, 0, 84, 99
1, 37211, Note_off_c, 0, 84, 99
1, 37243, Note_on_c, 0, 77, 86
1, 37327, Note_off_c, 0, 77, 86
1, 37349, Note_on_c, 0, 79, 78
1, 37399, Note_off_c, 0, 79, 78
1, 37425, Note_on_c, 0, 80, 88
1, 37573, Note_off_c, 0, 80, 88
1, 37590, Note_on_c, 0, 77, 104
1, 37647, Note_off_c, 0, 77, 104
1, 37652, Note_on_c, 0, 78, 108
1, 37715, Note_off_c, 0, 78, 108
1, 37716, Note_on_c, 0, 77, 102
1, 37799, Note_off_c, 0, 77, 102
1, 37800, Note_on_c, 0, 75, 104
1, 37894, Note_off_c, 0, 75, 104
1, 37897, Note_on_c, 0, 74, 106
1, 37974, Note_off_c, 0, 74, 106
1, 37977, Note_on_c, 0, 72, 101
1, 38008, Note_off_c, 0, 72, 101
1, 38011, Note_on_c, 0, 73, 101
1, 38090, Note_off_c, 0, 73, 101
1, 38091, Note_on_c, 0, 74, 95
1, 38159, Note_off_c, 0, 74, 95
1, 38163, Note_on_c, 0, 71, 103
1, 38267, Note_off_c, 0, 71, 103
1, 38296, Note_on_c, 0, 70, 100
1, 38364, Note_off_c, 0, 70, 100
1, 38364, Note_on_c, 0, 68, 92
1, 38514, Note_on_c, 0, 70, 94
1, 38514, Note_off_c, 0, 68, 92
1, 38712, Note_off_c, 0, 70, 94
1, 38727, Note_on_c, 0, 68, 100
1, 38896, Note_off_c, 0, 68, 100
1, 38905, Note_on_c, 0, 69, 105
1, 39139, Note_off_c, 0, 69, 105
1, 39142, Note_on_c, 0, 70, 110
1, 39241, Note_off_c, 0, 70, 110
1, 39262, Note_on_c, 0, 68, 101
1, 39355, Note_off_c, 0, 68, 101
1, 39356, Note_on_c, 0, 69, 100
1, 39444, Note_off_c, 0, 69, 100
1, 39445, Note_on_c, 0, 70, 110
1, 39542, Note_off_c, 0, 70, 110
1, 39543, Note_on_c, 0, 68, 105
1, 39639, Note_off_c, 0, 68, 105
1, 39640, Note_on_c, 0, 69, 94
1, 39728, Note_off_c, 0, 69, 94
1, 39729, Note_on_c, 0, 70, 110
1, 39839, Note_off_c, 0, 70, 110
1, 39848, Note_on_c, 0, 68, 90
1, 39874, Note_off_c, 0, 68, 90
1, 39878, Note_on_c, 0, 69, 93
1, 40025, Note_off_c, 0, 69, 93
1, 40110, Note_on_c, 0, 73, 103
1, 40246, Note_off_c, 0, 73, 103
1, 40247, Note_on_c, 0, 74, 107
1, 40626, Note_off_c, 0, 74, 107
1, 40646, Note_on_c, 0, 67, 101
1, 40802, Note_off_c, 0, 67, 101
1, 40806, Note_on_c, 0, 65, 99
1, 41065, Note_off_c, 0, 65, 99
1, 41082, Note_on_c, 0, 63, 101
1, 41172, Note_off_c, 0, 63, 101
1, 41184, Note_on_c, 0, 60, 94
1, 41255, Note_off_c, 0, 60, 94
1, 41258, Note_on_c, 0, 63, 91
1, 41514, Note_off_c, 0, 63, 91
1, 42009, Note_on_c, 0, 72, 105
1, 42078, Note_off_c, 0, 72, 105
1, 42078, Note_on_c, 0, 73, 113
1, 42126, Note_on_c, 0, 74, 116
1, 42126, Note_off_c, 0, 73, 113
1, 42188, Note_off_c, 0, 74, 116
1, 42192, Note_on_c, 0, 74, 104
1, 42243, Note_off_c, 0, 74, 104
1, 42244, Note_on_c, 0, 75, 108
1, 42321, Note_off_c, 0, 75, 108
1, 42322, Note_on_c, 0, 76, 96
1, 42382, Note_off_c, 0, 76, 96
1, 42383, Note_on_c, 0, 77, 104
1, 42871, Note_off_c, 0, 77, 104
1, 42877, Note_on_c, 0, 76, 110
1, 42946, Note_off_c, 0, 76, 110
1, 42961, Note_on_c, 0, 75, 108
1, 43048, Note_off_c, 0, 75, 108
1, 43059, Note_on_c, 0, 74, 108
1, 43136, Note_off_c, 0, 74, 108
1, 43170, Note_on_c, 0, 73, 103
1, 43236, Note_off_c, 0, 73, 103
1, 43245, Note_on_c, 0, 72, 89
1, 43338, Note_off_c, 0, 72, 89
1, 43342, Note_on_c, 0, 70, 106
1, 43457, Note_off_c, 0, 70, 106
1, 43462, Note_on_c, 0, 68, 96
1, 43525, Note_off_c, 0, 68, 96
1, 43538, Note_on_c, 0, 67, 95
1, 43660, Note_off_c, 0, 67, 95
1, 43667, Note_on_c, 0, 65, 109
1, 43774, Note_on_c, 0, 64, 107
1, 43774, Note_off_c, 0, 65, 109
1, 43840, Note_off_c, 0, 64, 107
1, 43840, Note_on_c, 0, 63, 95
1, 43915, Note_off_c, 0, 63, 95
1, 43915, Note_on_c, 0, 62, 91
1, 44055, Note_off_c, 0, 62, 91
1, 44055, Note_on_c, 0, 64, 100
1, 44114, Note_off_c, 0, 64, 100
1, 44120, Note_on_c, 0, 65, 118
1, 44177, Note_off_c, 0, 65, 118
1, 44186, Note_on_c, 0, 65, 102
1, 44268, Note_off_c, 0, 65, 102
1, 44297, Note_on_c, 0, 63, 98
1, 44433, Note_off_c, 0, 63, 98
1, 44488, Note_on_c, 0, 62, 89
1, 44665, Note_off_c, 0, 62, 89
1, 44715, Note_on_c, 0, 65, 102
1, 44967, Note_off_c, 0, 65, 102
1, 44986, Note_on_c, 0, 68, 101
1, 45069, Note_off_c, 0, 68, 101
1, 45755, Note_on_c, 0, 72, 91
1, 45832, Note_off_c, 0, 72, 91
1, 45877, Note_on_c, 0, 77, 113
1, 45943, Note_off_c, 0, 77, 113
1, 45943, Note_on_c, 0, 79, 96
1, 46034, Note_off_c, 0, 79, 96
1, 46040, Note_on_c, 0, 80, 107
1, 46136, Note_off_c, 0, 80, 107
1, 46138, Note_on_c, 0, 79, 54
1, 46222, Note_off_c, 0, 79, 54
1, 46225, Note_on_c, 0, 80, 108
1, 46331, Note_off_c, 0, 80, 108
1, 46334, Note_on_c, 0, 79, 106
1, 46410, Note_off_c, 0, 79, 106
1, 46412, Note_on_c, 0, 80, 105
1, 46537, Note_off_c, 0, 80, 105
1, 46537, Note_on_c, 0, 79, 108
1, 46600, Note_off_c, 0, 79, 108
1, 46609, Note_on_c, 0, 77, 113
1, 46716, Note_off_c, 0, 77, 113
1, 46717, Note_on_c, 0, 76, 108
1, 46779, Note_off_c, 0, 76, 108
1, 46809, Note_on_c, 0, 74, 98
1, 46922, Note_off_c, 0, 74, 98
1, 46924, Note_on_c, 0, 73, 103
1, 46976, Note_off_c, 0, 73, 103
1, 46978, Note_on_c, 0, 72, 102
1, 47097, Note_off_c, 0, 72, 102
1, 47104, Note_on_c, 0, 70, 105
1, 47168, Note_off_c, 0, 70, 105
1, 47168, Note_on_c, 0, 68, 115
1, 47241, Note_off_c, 0, 68, 115
1, 47363, Note_on_c, 0, 70, 112
1, 47467, Note_off_c, 0, 70, 112
1, 47472, Note_on_c, 0, 68, 99
1, 47533, Note_off_c, 0, 68, 99
1, 47536, Note_on_c, 0, 70, 107
1, 47692, Note_off_c, 0, 70, 107
1, 47692, Note_on_c, 0, 68, 104
1, 47765, Note_off_c, 0, 68, 104
1, 47768, Note_on_c, 0, 67, 107
1, 47833, Note_off_c, 0, 67, 107
1, 47833, Note_on_c, 0, 63, 102
1, 47892, Note_off_c, 0, 63, 102
1, 48446, Note_on_c, 0, 83, 112
1, 48529, Note_off_c, 0, 83, 112
1, 48660, Note_on_c, 0, 83, 99
1, 48878, Note_off_c, 0, 83, 99
1, 48922, Note_on_c, 0, 80, 116
1, 48981, Note_off_c, 0, 80, 116
1, 48985, Note_on_c, 0, 82, 111
1, 49110, Note_off_c, 0, 82, 111
1, 49131, Note_on_c, 0, 80, 107
1, 49207, Note_off_c, 0, 80, 107
1, 49222, Note_on_c, 0, 80, 100
1, 49319, Note_off_c, 0, 80, 100
1, 49342, Note_on_c, 0, 77, 110
1, 49411, Note_off_c, 0, 77, 110
1, 49414, Note_on_c, 0, 80, 104
1, 49493, Note_off_c, 0, 80, 104
1, 49494, Note_on_c, 0, 77, 98
1, 49593, Note_off_c, 0, 77, 98
1, 49599, Note_on_c, 0, 77, 104
1, 49684, Note_off_c, 0, 77, 104
1, 49688, Note_on_c, 0, 75, 113
1, 49782, Note_off_c, 0, 75, 113
1, 49788, Note_on_c, 0, 74, 114
1, 49868, Note_off_c, 0, 74, 114
1, 49889, Note_on_c, 0, 73, 108
1, 49980, Note_off_c, 0, 73, 108
1, 49986, Note_on_c, 0, 72, 104
1, 50068, Note_off_c, 0, 72, 104
1, 50070, Note_on_c, 0, 71, 105
1, 50186, Note_off_c, 0, 71, 105
1, 50186, Note_on_c, 0, 70, 108
1, 50265, Note_off_c, 0, 70, 108
1, 50267, Note_on_c, 0, 68, 112
1, 50372, Note_off_c, 0, 68, 112
1, 50378, Note_on_c, 0, 67, 93
1, 50451, Note_off_c, 0, 67, 93
1, 50492, Note_on_c, 0, 70, 111
1, 50579, Note_off_c, 0, 70, 111
1, 50633, Note_on_c, 0, 68, 104
1, 50794, Note_off_c, 0, 68, 104
1, 50800, Note_on_c, 0, 70, 108
1, 50860, Note_off_c, 0, 70, 108
1, 50869, Note_on_c, 0, 68, 114
1, 50888, Note_off_c, 0, 68, 114
1, 50890, Note_on_c, 0, 70, 105
1, 50912, Note_off_c, 0, 70, 105
1, 50914, Note_on_c, 0, 68, 103
1, 51019, Note_off_c, 0, 68, 103
1, 51021, Note_on_c, 0, 65, 110
1, 51123, Note_off_c, 0, 65, 110
1, 51127, Note_on_c, 0, 64, 106
1, 51183, Note_off_c, 0, 64, 106
1, 51186, Note_on_c, 0, 63, 92
1, 51380, Note_off_c, 0, 63, 92
1, 51459, Note_on_c, 0, 56, 97
1, 52027, Note_off_c, 0, 56, 97
1, 52045, Note_on_c, 0, 56, 82
1, 52400, Note_off_c, 0, 56, 82
1, 52409, Note_on_c, 0, 56, 72
1, 52724, Note_off_c, 0, 56, 72
1, 52724, End_track
0, 0, End_of_file
