0, 0, Header, 1, 1, 192
1, 0, Start_track
1, 0, Note_on_c, 0, 65, 77
1, 99, Note_off_c, 0, 65, 77
1, 118, Note_on_c, 0, 69, 92
1, 225, Note_off_c, 0, 69, 92
1, 293, Note_on_c, 0, 65, 73
1, 452, Note_off_c, 0, 65, 73
1, 475, Note_on_c, 0, 69, 62
1, 651, Note_off_c, 0, 69, 62
1, 653, Note_on_c, 0, 65, 79
1, 803, Note_off_c, 0, 65, 79
1, 850, Note_on_c, 0, 68, 93
1, 977, Note_off_c, 0, 68, 93
1, 1037, Note_on_c, 0, 65, 94
1, 1151, Note_off_c, 0, 65, 94
1, 1153, Note_on_c, 0, 68, 82
1, 1288, Note_off_c, 0, 68, 82
1, 1335, Note_on_c, 0, 70, 101
1, 1421, Note_off_c, 0, 70, 101
1, 1423, Note_on_c, 0, 68, 102
1, 1552, Note_on_c, 0, 69, 103
1, 1552, Note_off_c, 0, 68, 102
1, 1623, Note_off_c, 0, 69, 103
1, 1623, Note_on_c, 0, 70, 99
1, 1713, Note_off_c, 0, 70, 99
1, 1715, Note_on_c, 0, 68, 101
1, 1801, Note_on_c, 0, 69, 110
1, 1801, Note_off_c, 0, 68, 101
1, 1897, Note_off_c, 0, 69, 110
1, 1897, Note_on_c, 0, 70, 101
1, 1989, Note_off_c, 0, 70, 101
1, 1991, Note_on_c, 0, 69, 94
1, 2040, Note_off_c, 0, 69, 94
1, 2040, Note_on_c, 0, 70, 93
1, 2102, Note_off_c, 0, 70, 93
1, 2106, Note_on_c, 0, 69, 101
1, 2119, Title_t, "Melody"
1, 2119, Tempo, 258620
1, 2119, Key_signature, -4, "major"
1, 2119, Time_signature, 4, 2, 24, 8
1, 2157, Note_off_c, 0, 69, 101
1, 2157, Note_on_c, 0, 68, 97
1, 2314, Note_off_c, 0, 68, 97
1, 2361, Note_on_c, 0, 70, 78
1, 2492, Note_off_c, 0, 70, 78
1, 2569, Note_on_c, 0, 68, 93
1, 2709, Note_off_c, 0, 68, 93
1, 2709, Note_on_c, 0, 66, 95
1, 2749, Note_on_c, 0, 67, 109
1, 2749, Note_off_c, 0, 66, 95
1, 2873, Note_off_c, 0, 67, 109
1, 2877, Note_on_c, 0, 65, 117
1, 2993, Note_off_c, 0, 65, 117
1, 3174, Note_on_c, 0, 65, 114
1, 3281, Note_off_c, 0, 65, 114
1, 3953, Note_on_c, 0, 68, 108
1, 4009, Note_on_c, 0, 70, 108
1, 4009, Note_off_c, 0, 68, 108
1, 4067, Note_off_c, 0, 70, 108
1, 4067, Note_on_c, 0, 69, 112
1, 4153, Note_on_c, 0, 68, 117
1, 4153, Note_off_c, 0, 69, 112
1, 4234, Note_off_c, 0, 68, 117
1, 4234, Note_on_c, 0, 69, 98
1, 4274, Note_off_c, 0, 69, 98
1, 4276, Note_on_c, 0, 68, 115
1, 4349, Note_on_c, 0, 67, 118
1, 4349, Note_off_c, 0, 68, 115
1, 4441, Note_on_c, 0, 68, 99
1, 4441, Note_off_c, 0, 67, 118
1, 4475, Note_off_c, 0, 68, 99
1, 4475, Note_on_c, 0, 67, 108
1, 4550, Note_off_c, 0, 67, 108
1, 4552, Note_on_c, 0, 66, 114
1, 4720, Note_off_c, 0, 66, 114
1, 4722, Note_on_c, 0, 65, 127
1, 4831, Note_off_c, 0, 65, 127
1, 5483, Note_on_c, 0, 69, 108
1, 5528, Note_off_c, 0, 69, 108
1, 5528, Note_on_c, 0, 70, 112
1, 5590, Note_off_c, 0, 70, 112
1, 5590, Note_on_c, 0, 69, 114
1, 5671, Note_off_c, 0, 69, 114
1, 5671, Note_on_c, 0, 68, 118
1, 5763, Note_off_c, 0, 68, 118
1, 5763, Note_on_c, 0, 69, 99
1, 5806, Note_off_c, 0, 69, 99
1, 5806, Note_on_c, 0, 68, 112
1, 5857, Note_off_c, 0, 68, 112
1, 5861, Note_on_c, 0, 67, 115
1, 6046, Note_off_c, 0, 67, 115
1, 6046, Note_on_c, 0, 66, 124
1, 6138, Note_off_c, 0, 66, 124
1, 6142, Note_on_c, 0, 65, 119
1, 6193, Note_off_c, 0, 65, 119
1, 6193, Note_on_c, 0, 66, 118
1, 6251, Note_off_c, 0, 66, 118
1, 6253, Note_on_c, 0, 65, 118
1, 6382, Note_off_c, 0, 65, 118
1, 7049, Note_on_c, 0, 68, 118
1, 7113, Note_off_c, 0, 68, 118
1, 7113, Note_on_c, 0, 69, 99
1, 7147, Note_off_c, 0, 69, 99
1, 7149, Note_on_c, 0, 68, 111
1, 7220, Note_off_c, 0, 68, 111
1, 7220, Note_on_c, 0, 67, 115
1, 7310, Note_off_c, 0, 67, 115
1, 7310, Note_on_c, 0, 68, 104
1, 7372, Note_off_c, 0, 68, 104
1, 7372, Note_on_c, 0, 67, 111
1, 7404, Note_off_c, 0, 67, 111
1, 7406, Note_on_c, 0, 66, 111
1, 7485, Note_off_c, 0, 66, 111
1, 7485, Note_on_c, 0, 65, 120
1, 7545, Note_off_c, 0, 65, 120
1, 7547, Note_on_c, 0, 66, 118
1, 7570, Note_off_c, 0, 66, 118
1, 7574, Note_on_c, 0, 65, 123
1, 7662, Note_off_c, 0, 65, 123
1, 7666, Note_on_c, 0, 64, 117
1, 7709, Note_off_c, 0, 64, 117
1, 7711, Note_on_c, 0, 65, 113
1, 7782, Note_off_c, 0, 65, 113
1, 7782, Note_on_c, 0, 63, 114
1, 7909, Note_off_c, 0, 63, 114
1, 8484, Note_on_c, 0, 70, 115
1, 8572, Note_off_c, 0, 70, 115
1, 8574, Note_on_c, 0, 68, 107
1, 8625, Note_off_c, 0, 68, 107
1, 8631, Note_on_c, 0, 70, 99
1, 8684, Note_off_c, 0, 70, 99
1, 8688, Note_on_c, 0, 68, 111
1, 8759, Note_off_c, 0, 68, 111
1, 8759, Note_on_c, 0, 67, 115
1, 8836, Note_off_c, 0, 67, 115
1, 8846, Note_on_c, 0, 67, 103
1, 8947, Note_off_c, 0, 67, 103
1, 8959, Note_on_c, 0, 66, 118
1, 9015, Note_off_c, 0, 66, 118
1, 9021, Note_on_c, 0, 67, 92
1, 9044, Note_off_c, 0, 67, 92
1, 9048, Note_on_c, 0, 66, 112
1, 9093, Note_off_c, 0, 66, 112
1, 9095, Note_on_c, 0, 67, 117
1, 9125, Note_on_c, 0, 65, 121
1, 9125, Note_off_c, 0, 67, 117
1, 9189, Note_off_c, 0, 65, 121
1, 9193, Note_on_c, 0, 66, 107
1, 9240, Note_off_c, 0, 66, 107
1, 9240, Note_on_c, 0, 65, 104
1, 9296, Note_off_c, 0, 65, 104
1, 9296, Note_on_c, 0, 66, 115
1, 9339, Note_off_c, 0, 66, 115
1, 9362, Note_on_c, 0, 73, 107
1, 9443, Note_off_c, 0, 73, 107
1, 10225, Note_on_c, 0, 70, 103
1, 10298, Note_off_c, 0, 70, 103
1, 10328, Note_on_c, 0, 74, 87
1, 10371, Note_off_c, 0, 74, 87
1, 10420, Note_on_c, 0, 78, 100
1, 10467, Note_off_c, 0, 78, 100
1, 10479, Note_on_c, 0, 82, 109
1, 10565, Note_off_c, 0, 82, 109
1, 10586, Note_on_c, 0, 84, 115
1, 10663, Note_off_c, 0, 84, 115
1, 10680, Note_on_c, 0, 82, 112
1, 10740, Note_off_c, 0, 82, 112
1, 10875, Note_on_c, 0, 80, 111
1, 10965, Note_off_c, 0, 80, 111
1, 11057, Note_on_c, 0, 78, 88
1, 11158, Note_off_c, 0, 78, 88
1, 11254, Note_on_c, 0, 80, 114
1, 11340, Note_off_c, 0, 80, 114
1, 11380, Note_on_c, 0, 77, 107
1, 11453, Note_off_c, 0, 77, 107
1, 11457, Note_on_c, 0, 73, 93
1, 11541, Note_off_c, 0, 73, 93
1, 11584, Note_on_c, 0, 72, 88
1, 11616, Note_off_c, 0, 72, 88
1, 11626, Note_on_c, 0, 70, 103
1, 11660, Note_off_c, 0, 70, 103
1, 11670, Note_on_c, 0, 68, 105
1, 11756, Note_off_c, 0, 68, 105
1, 11771, Note_on_c, 0, 65, 105
1, 11833, Note_off_c, 0, 65, 105
1, 11833, Note_on_c, 0, 72, 108
1, 11957, Note_off_c, 0, 72, 108
1, 11963, Note_on_c, 0, 70, 108
1, 12021, Note_off_c, 0, 70, 108
1, 12029, Note_on_c, 0, 68, 106
1, 12130, Note_off_c, 0, 68, 106
1, 12142, Note_on_c, 0, 65, 119
1, 12238, Note_off_c, 0, 65, 119
1, 12240, Note_on_c, 0, 64, 107
1, 12330, Note_off_c, 0, 64, 107
1, 12338, Note_on_c, 0, 63, 108
1, 12404, Note_off_c, 0, 63, 108
1, 12404, Note_on_c, 0, 62, 108
1, 12565, Note_off_c, 0, 62, 108
1, 12565, Note_on_c, 0, 63, 94
1, 12601, Note_off_c, 0, 63, 94
1, 12601, Note_on_c, 0, 65, 125
1, 12734, Note_off_c, 0, 65, 125
1, 12751, Note_on_c, 0, 59, 108
1, 12828, Note_off_c, 0, 59, 108
1, 12851, Note_on_c, 0, 64, 107
1, 12924, Note_off_c, 0, 64, 107
1, 12924, Note_on_c, 0, 65, 121
1, 12997, Note_on_c, 0, 63, 109
1, 12997, Note_off_c, 0, 65, 121
1, 13106, Note_off_c, 0, 63, 109
1, 13110, Note_on_c, 0, 64, 93
1, 13187, Note_off_c, 0, 64, 93
1, 13189, Note_on_c, 0, 65, 118
1, 13305, Note_off_c, 0, 65, 118
1, 13305, Note_on_c, 0, 59, 102
1, 13384, Note_off_c, 0, 59, 102
1, 13416, Note_on_c, 0, 62, 112
1, 13506, Note_off_c, 0, 62, 112
1, 13523, Note_on_c, 0, 64, 112
1, 13594, Note_on_c, 0, 65, 119
1, 13594, Note_off_c, 0, 64, 112
1, 13686, Note_off_c, 0, 65, 119
1, 13707, Note_on_c, 0, 67, 110
1, 13773, Note_off_c, 0, 67, 110
1, 13777, Note_on_c, 0, 68, 112
1, 13884, Note_off_c, 0, 68, 112
1, 13890, Note_on_c, 0, 71, 105
1, 13989, Note_off_c, 0, 71, 105
1, 13989, Note_on_c, 0, 68, 99
1, 14053, Note_off_c, 0, 68, 99
1, 14055, Note_on_c, 0, 70, 90
1, 14089, Note_off_c, 0, 70, 90
1, 14091, Note_on_c, 0, 68, 104
1, 14166, Note_off_c, 0, 68, 104
1, 14166, Note_on_c, 0, 65, 119
1, 14265, Note_off_c, 0, 65, 119
1, 14282, Note_on_c, 0, 64, 96
1, 14376, Note_off_c, 0, 64, 96
1, 14376, Note_on_c, 0, 63, 118
1, 14475, Note_off_c, 0, 63, 118
1, 14475, Note_on_c, 0, 65, 94
1, 14537, Note_off_c, 0, 65, 94
1, 14552, Note_on_c, 0, 68, 99
1, 14668, Note_off_c, 0, 68, 99
1, 14668, Note_on_c, 0, 70, 109
1, 14732, Note_off_c, 0, 70, 109
1, 14738, Note_on_c, 0, 67, 109
1, 14850, Note_off_c, 0, 67, 109
1, 14850, Note_on_c, 0, 64, 118
1, 14938, Note_off_c, 0, 64, 118
1, 14942, Note_on_c, 0, 63, 109
1, 15075, Note_off_c, 0, 63, 109
1, 15098, Note_on_c, 0, 61, 110
1, 15235, Note_off_c, 0, 61, 110
1, 15310, Note_on_c, 0, 65, 116
1, 15434, Note_off_c, 0, 65, 116
1, 15524, Note_on_c, 0, 65, 118
1, 15659, Note_off_c, 0, 65, 118
1, 16219, Note_on_c, 0, 70, 113
1, 16300, Note_on_c, 0, 69, 101
1, 16300, Note_off_c, 0, 70, 113
1, 16476, Note_off_c, 0, 69, 101
1, 16484, Note_on_c, 0, 68, 110
1, 16611, Note_off_c, 0, 68, 110
1, 16611, Note_on_c, 0, 69, 108
1, 16647, Note_off_c, 0, 69, 108
1, 16649, Note_on_c, 0, 67, 111
1, 16780, Note_off_c, 0, 67, 111
1, 16788, Note_on_c, 0, 69, 94
1, 16854, Note_off_c, 0, 69, 94
1, 16854, Note_on_c, 0, 66, 114
1, 16916, Note_off_c, 0, 66, 114
1, 16927, Note_on_c, 0, 67, 108
1, 16951, Note_off_c, 0, 67, 108
1, 16957, Note_on_c, 0, 66, 110
1, 16978, Note_off_c, 0, 66, 110
1, 16986, Note_on_c, 0, 67, 103
1, 17029, Note_off_c, 0, 67, 103
1, 17044, Note_on_c, 0, 65, 117
1, 17158, Note_off_c, 0, 65, 117
1, 17825, Note_on_c, 0, 74, 117
1, 17902, Note_off_c, 0, 74, 117
1, 17904, Note_on_c, 0, 73, 106
1, 17951, Note_off_c, 0, 73, 106
1, 17951, Note_on_c, 0, 74, 107
1, 18011, Note_off_c, 0, 74, 107
1, 18011, Note_on_c, 0, 73, 102
1, 18073, Note_off_c, 0, 73, 102
1, 18073, Note_on_c, 0, 74, 96
1, 18185, Note_off_c, 0, 74, 96
1, 18185, Note_on_c, 0, 72, 99
1, 18288, Note_on_c, 0, 73, 84
1, 18288, Note_off_c, 0, 72, 99
1, 18318, Note_off_c, 0, 73, 84
1, 18318, Note_on_c, 0, 72, 92
1, 18386, Note_off_c, 0, 72, 92
1, 18388, Note_on_c, 0, 71, 98
1, 18474, Note_off_c, 0, 71, 98
1, 18476, Note_on_c, 0, 72, 95
1, 18523, Note_off_c, 0, 72, 95
1, 18523, Note_on_c, 0, 71, 96
1, 18583, Note_off_c, 0, 71, 96
1, 18583, Note_on_c, 0, 70, 107
1, 18651, Note_on_c, 0, 71, 106
1, 18651, Note_off_c, 0, 70, 107
1, 18700, Note_off_c, 0, 71, 106
1, 19378, Note_on_c, 0, 77, 108
1, 19492, Note_off_c, 0, 77, 108
1, 19496, Note_on_c, 0, 79, 89
1, 19577, Note_off_c, 0, 79, 89
1, 19583, Note_on_c, 0, 78, 80
1, 19617, Note_off_c, 0, 78, 80
1, 19617, Note_on_c, 0, 77, 85
1, 19664, Note_off_c, 0, 77, 85
1, 19666, Note_on_c, 0, 76, 84
1, 19756, Note_off_c, 0, 76, 84
1, 19760, Note_on_c, 0, 75, 98
1, 19828, Note_off_c, 0, 75, 98
1, 19832, Note_on_c, 0, 74, 95
1, 19885, Note_off_c, 0, 74, 95
1, 19885, Note_on_c, 0, 75, 99
1, 19941, Note_on_c, 0, 74, 97
1, 19941, Note_off_c, 0, 75, 99
1, 20134, Note_off_c, 0, 74, 97
1, 20134, Note_on_c, 0, 73, 97
1, 20200, Note_off_c, 0, 73, 97
1, 20202, Note_on_c, 0, 74, 93
1, 20266, Note_on_c, 0, 73, 96
1, 20266, Note_off_c, 0, 74, 93
1, 20313, Note_off_c, 0, 73, 96
1, 20317, Note_on_c, 0, 72, 91
1, 20360, Note_off_c, 0, 72, 91
1, 20360, Note_on_c, 0, 73, 90
1, 20508, Note_off_c, 0, 73, 90
1, 20508, Note_on_c, 0, 71, 100
1, 20596, Note_off_c, 0, 71, 100
1, 20596, Note_on_c, 0, 72, 91
1, 20652, Note_on_c, 0, 71, 94
1, 20652, Note_off_c, 0, 72, 91
1, 20708, Note_off_c, 0, 71, 94
1, 20716, Note_on_c, 0, 70, 91
1, 20774, Note_off_c, 0, 70, 91
1, 20776, Note_on_c, 0, 69, 102
1, 20825, Note_off_c, 0, 69, 102
1, 20825, Note_on_c, 0, 70, 100
1, 20885, Note_off_c, 0, 70, 100
1, 20885, Note_on_c, 0, 69, 104
1, 20964, Note_off_c, 0, 69, 104
1, 20966, Note_on_c, 0, 70, 100
1, 21022, Note_off_c, 0, 70, 100
1, 21024, Note_on_c, 0, 69, 107
1, 21077, Note_off_c, 0, 69, 107
1, 21081, Note_on_c, 0, 68, 108
1, 21173, Note_off_c, 0, 68, 108
1, 21173, Note_on_c, 0, 69, 91
1, 21205, Note_off_c, 0, 69, 91
1, 21209, Note_on_c, 0, 68, 102
1, 21271, Note_off_c, 0, 68, 102
1, 21273, Note_on_c, 0, 70, 103
1, 21335, Note_off_c, 0, 70, 103
1, 21339, Note_on_c, 0, 68, 98
1, 21392, Note_off_c, 0, 68, 98
1, 21392, Note_on_c, 0, 70, 99
1, 21448, Note_off_c, 0, 70, 99
1, 21450, Note_on_c, 0, 69, 107
1, 21471, Note_off_c, 0, 69, 107
1, 21473, Note_on_c, 0, 68, 114
1, 21492, Note_off_c, 0, 68, 114
1, 21492, Note_on_c, 0, 69, 99
1, 21520, Note_off_c, 0, 69, 99
1, 21554, Note_on_c, 0, 69, 77
1, 21603, Note_off_c, 0, 69, 77
1, 21603, Note_on_c, 0, 70, 102
1, 21659, Note_off_c, 0, 70, 102
1, 21659, Note_on_c, 0, 68, 96
1, 21771, Note_off_c, 0, 68, 96
1, 21775, Note_on_c, 0, 70, 103
1, 21831, Note_off_c, 0, 70, 103
1, 21833, Note_on_c, 0, 68, 108
1, 21889, Note_off_c, 0, 68, 108
1, 21893, Note_on_c, 0, 67, 104
1, 21951, Note_off_c, 0, 67, 104
1, 21953, Note_on_c, 0, 70, 100
1, 22037, Note_off_c, 0, 70, 100
1, 22037, Note_on_c, 0, 68, 104
1, 22164, Note_off_c, 0, 68, 104
1, 22164, Note_on_c, 0, 70, 103
1, 22232, Note_off_c, 0, 70, 103
1, 22236, Note_on_c, 0, 68, 104
1, 22356, Note_off_c, 0, 68, 104
1, 22358, Note_on_c, 0, 70, 104
1, 22424, Note_off_c, 0, 70, 104
1, 22430, Note_on_c, 0, 67, 109
1, 22524, Note_off_c, 0, 67, 109
1, 22530, Note_on_c, 0, 68, 107
1, 22564, Note_off_c, 0, 68, 107
1, 22564, Note_on_c, 0, 70, 103
1, 22622, Note_off_c, 0, 70, 103
1, 22624, Note_on_c, 0, 67, 114
1, 22710, Note_off_c, 0, 67, 114
1, 22710, Note_on_c, 0, 68, 109
1, 22755, Note_off_c, 0, 68, 109
1, 22755, Note_on_c, 0, 70, 102
1, 22817, Note_off_c, 0, 70, 102
1, 22821, Note_on_c, 0, 67, 112
1, 22896, Note_on_c, 0, 68, 108
1, 22896, Note_off_c, 0, 67, 112
1, 22949, Note_off_c, 0, 68, 108
1, 22949, Note_on_c, 0, 70, 102
1, 23002, Note_off_c, 0, 70, 102
1, 23006, Note_on_c, 0, 67, 116
1, 23100, Note_off_c, 0, 67, 116
1, 23100, Note_on_c, 0, 68, 105
1, 23130, Note_off_c, 0, 68, 105
1, 23130, Note_on_c, 0, 70, 106
1, 23203, Note_off_c, 0, 70, 106
1, 23203, Note_on_c, 0, 68, 104
1, 23287, Note_off_c, 0, 68, 104
1, 23287, Note_on_c, 0, 70, 101
1, 23366, Note_off_c, 0, 70, 101
1, 23376, Note_on_c, 0, 68, 108
1, 23472, Note_off_c, 0, 68, 108
1, 23491, Note_on_c, 0, 70, 101
1, 23566, Note_off_c, 0, 70, 101
1, 23568, Note_on_c, 0, 68, 110
1, 23647, Note_off_c, 0, 68, 110
1, 23649, Note_on_c, 0, 69, 101
1, 23692, Note_off_c, 0, 69, 101
1, 23692, Note_on_c, 0, 70, 105
1, 23752, Note_off_c, 0, 70, 105
1, 23752, Note_on_c, 0, 68, 104
1, 23870, Note_off_c, 0, 68, 104
1, 23870, Note_on_c, 0, 70, 103
1, 23947, Note_off_c, 0, 70, 103
1, 23955, Note_on_c, 0, 67, 109
1, 24045, Note_off_c, 0, 67, 109
1, 24045, Note_on_c, 0, 68, 103
1, 24073, Note_off_c, 0, 68, 103
1, 24077, Note_on_c, 0, 70, 106
1, 24122, Note_off_c, 0, 70, 106
1, 24143, Note_on_c, 0, 67, 112
1, 24211, Note_on_c, 0, 68, 106
1, 24211, Note_off_c, 0, 67, 112
1, 24258, Note_off_c, 0, 68, 106
1, 24258, Note_on_c, 0, 70, 103
1, 24322, Note_off_c, 0, 70, 103
1, 24332, Note_on_c, 0, 67, 105
1, 24383, Note_off_c, 0, 67, 105
1, 24383, Note_on_c, 0, 68, 109
1, 24436, Note_on_c, 0, 70, 102
1, 24436, Note_off_c, 0, 68, 109
1, 24513, Note_off_c, 0, 70, 102
1, 24513, Note_on_c, 0, 67, 95
1, 24555, Note_off_c, 0, 67, 95
1, 24568, Note_on_c, 0, 69, 105
1, 24633, Note_off_c, 0, 69, 105
1, 24634, Note_on_c, 0, 70, 100
1, 24697, Note_off_c, 0, 70, 100
1, 24698, Note_on_c, 0, 68, 112
1, 24799, Note_off_c, 0, 68, 112
1, 25392, Note_on_c, 0, 75, 101
1, 25476, Note_off_c, 0, 75, 101
1, 25476, Note_on_c, 0, 78, 114
1, 25569, Note_off_c, 0, 78, 114
1, 25575, Note_on_c, 0, 77, 89
1, 25650, Note_off_c, 0, 77, 89
1, 25653, Note_on_c, 0, 78, 106
1, 25742, Note_off_c, 0, 78, 106
1, 25767, Note_on_c, 0, 77, 105
1, 25841, Note_on_c, 0, 75, 101
1, 25841, Note_off_c, 0, 77, 105
1, 25944, Note_off_c, 0, 75, 101
1, 25957, Note_on_c, 0, 73, 100
1, 26032, Note_off_c, 0, 73, 100
1, 26036, Note_on_c, 0, 71, 100
1, 26151, Note_off_c, 0, 71, 100
1, 26234, Note_on_c, 0, 73, 94
1, 26337, Note_off_c, 0, 73, 94
1, 26352, Note_on_c, 0, 66, 100
1, 26421, Note_off_c, 0, 66, 100
1, 26421, Note_on_c, 0, 68, 111
1, 26542, Note_off_c, 0, 68, 111
1, 26542, Note_on_c, 0, 70, 103
1, 26611, Note_off_c, 0, 70, 103
1, 26611, Note_on_c, 0, 68, 102
1, 26673, Note_on_c, 0, 70, 93
1, 26673, Note_off_c, 0, 68, 102
1, 26735, Note_on_c, 0, 68, 105
1, 26735, Note_off_c, 0, 70, 93
1, 26795, Note_off_c, 0, 68, 105
1, 26799, Note_on_c, 0, 65, 120
1, 26908, Note_off_c, 0, 65, 120
1, 26908, Note_on_c, 0, 64, 108
1, 26992, Note_off_c, 0, 64, 108
1, 27002, Note_on_c, 0, 63, 113
1, 27105, Note_off_c, 0, 63, 113
1, 27122, Note_on_c, 0, 63, 98
1, 27290, Note_off_c, 0, 63, 98
1, 27514, Note_on_c, 0, 69, 118
1, 27606, Note_off_c, 0, 69, 118
1, 27692, Note_on_c, 0, 65, 105
1, 27748, Note_off_c, 0, 65, 105
1, 27748, Note_on_c, 0, 69, 105
1, 27849, Note_off_c, 0, 69, 105
1, 27956, Note_on_c, 0, 70, 99
1, 28080, Note_off_c, 0, 70, 99
1, 28080, Note_on_c, 0, 68, 103
1, 28161, Note_off_c, 0, 68, 103
1, 28163, Note_on_c, 0, 69, 107
1, 28257, Note_off_c, 0, 69, 107
1, 28386, Note_on_c, 0, 70, 102
1, 28485, Note_off_c, 0, 70, 102
1, 28485, Note_on_c, 0, 69, 91
1, 28545, Note_off_c, 0, 69, 91
1, 28551, Note_on_c, 0, 69, 108
1, 28652, Note_off_c, 0, 69, 108
1, 28652, Note_on_c, 0, 70, 106
1, 28740, Note_off_c, 0, 70, 106
1, 28746, Note_on_c, 0, 68, 107
1, 28868, Note_off_c, 0, 68, 107
1, 28868, Note_on_c, 0, 69, 100
1, 28934, Note_off_c, 0, 69, 100
1, 28936, Note_on_c, 0, 70, 106
1, 29024, Note_off_c, 0, 70, 106
1, 29026, Note_on_c, 0, 68, 100
1, 29101, Note_off_c, 0, 68, 100
1, 29101, Note_on_c, 0, 69, 110
1, 29182, Note_off_c, 0, 69, 110
1, 29222, Note_on_c, 0, 74, 95
1, 29478, Note_off_c, 0, 74, 95
1, 29514, Note_on_c, 0, 67, 106
1, 29619, Note_off_c, 0, 67, 106
1, 29700, Note_on_c, 0, 65, 110
1, 29898, Note_off_c, 0, 65, 110
1, 30354, Note_on_c, 0, 64, 119
1, 31026, Note_off_c, 0, 64, 119
1, 31026, Note_on_c, 0, 65, 124
1, 31191, Note_off_c, 0, 65, 124
1, 31191, Note_on_c, 0, 63, 117
1, 31311, Note_off_c, 0, 63, 117
1, 31425, Note_on_c, 0, 62, 109
1, 31547, Note_off_c, 0, 62, 109
1, 31547, Note_on_c, 0, 63, 118
1, 31615, Note_off_c, 0, 63, 118
1, 31617, Note_on_c, 0, 65, 113
1, 31729, Note_off_c, 0, 65, 113
1, 31729, Note_on_c, 0, 67, 114
1, 31791, Note_off_c, 0, 67, 114
1, 31791, Note_on_c, 0, 68, 116
1, 31896, Note_off_c, 0, 68, 116
1, 31896, Note_on_c, 0, 70, 107
1, 31969, Note_off_c, 0, 70, 107
1, 31969, Note_on_c, 0, 68, 109
1, 32093, Note_off_c, 0, 68, 109
1, 32097, Note_on_c, 0, 65, 105
1, 32172, Note_off_c, 0, 65, 105
1, 32172, Note_on_c, 0, 67, 118
1, 32279, Note_off_c, 0, 67, 118
1, 32378, Note_on_c, 0, 65, 120
1, 32490, Note_off_c, 0, 65, 120
1, 32507, Note_on_c, 0, 62, 111
1, 32571, Note_off_c, 0, 62, 111
1, 32571, Note_on_c, 0, 63, 116
1, 32665, Note_off_c, 0, 63, 116
1, 32705, Note_on_c, 0, 60, 107
1, 32780, Note_off_c, 0, 60, 107
1, 32780, Note_on_c, 0, 62, 115
1, 32868, Note_off_c, 0, 62, 115
1, 32913, Note_on_c, 0, 58, 118
1, 33081, Note_off_c, 0, 58, 118
1, 33083, Note_on_c, 0, 59, 108
1, 33143, Note_off_c, 0, 59, 108
1, 33160, Note_on_c, 0, 63, 118
1, 33276, Note_off_c, 0, 63, 118
1, 33282, Note_on_c, 0, 65, 115
1, 33348, Note_off_c, 0, 65, 115
1, 33358, Note_on_c, 0, 67, 99
1, 33463, Note_off_c, 0, 67, 99
1, 33471, Note_on_c, 0, 70, 92
1, 33557, Note_off_c, 0, 70, 92
1, 33557, Note_on_c, 0, 66, 107
1, 33755, Note_off_c, 0, 66, 107
1, 34308, Note_on_c, 0, 70, 119
1, 34402, Note_off_c, 0, 70, 119
1, 34419, Note_on_c, 0, 70, 109
1, 34483, Note_off_c, 0, 70, 109
1, 34485, Note_on_c, 0, 73, 106
1, 34603, Note_off_c, 0, 73, 106
1, 34605, Note_on_c, 0, 75, 103
1, 34676, Note_off_c, 0, 75, 103
1, 34678, Note_on_c, 0, 77, 114
1, 34796, Note_off_c, 0, 77, 114
1, 35287, Note_on_c, 0, 70, 107
1, 35405, Note_off_c, 0, 70, 107
1, 35413, Note_on_c, 0, 70, 106
1, 35449, Note_off_c, 0, 70, 106
1, 35457, Note_on_c, 0, 73, 102
1, 35549, Note_off_c, 0, 73, 102
1, 35553, Note_on_c, 0, 77, 89
1, 35628, Note_off_c, 0, 77, 89
1, 35628, Note_on_c, 0, 80, 117
1, 35722, Note_off_c, 0, 80, 117
1, 35812, Note_on_c, 0, 80, 106
1, 35997, Note_off_c, 0, 80, 106
1, 36363, Note_on_c, 0, 80, 110
1, 36619, Note_off_c, 0, 80, 110
1, 36625, Note_on_c, 0, 76, 110
1, 36715, Note_off_c, 0, 76, 110
1, 36736, Note_on_c, 0, 73, 112
1, 36802, Note_off_c, 0, 73, 112
1, 36834, Note_on_c, 0, 69, 95
1, 36911, Note_off_c, 0, 69, 95
1, 36911, Note_on_c, 0, 66, 95
1, 36995, Note_off_c, 0, 66, 95
1, 36995, Note_on_c, 0, 68, 106
1, 37081, Note_off_c, 0, 68, 106
1, 37111, Note_on_c, 0, 68, 90
1, 37360, Note_off_c, 0, 68, 90
1, 37667, Note_on_c, 0, 77, 106
1, 37947, Note_off_c, 0, 77, 106
1, 37953, Note_on_c, 0, 76, 115
1, 38049, Note_off_c, 0, 76, 115
1, 38053, Note_on_c, 0, 75, 112
1, 38132, Note_off_c, 0, 75, 112
1, 38140, Note_on_c, 0, 74, 104
1, 38243, Note_off_c, 0, 74, 104
1, 38253, Note_on_c, 0, 73, 103
1, 38321, Note_off_c, 0, 73, 103
1, 38333, Note_on_c, 0, 72, 96
1, 38421, Note_off_c, 0, 72, 96
1, 38455, Note_on_c, 0, 70, 106
1, 38502, Note_off_c, 0, 70, 106
1, 38504, Note_on_c, 0, 68, 96
1, 38628, Note_off_c, 0, 68, 96
1, 38638, Note_on_c, 0, 66, 93
1, 38696, Note_off_c, 0, 66, 93
1, 38696, Note_on_c, 0, 70, 103
1, 38788, Note_off_c, 0, 70, 103
1, 38792, Note_on_c, 0, 67, 86
1, 38871, Note_off_c, 0, 67, 86
1, 38873, Note_on_c, 0, 68, 105
1, 38993, Note_off_c, 0, 68, 105
1, 38997, Note_on_c, 0, 70, 106
1, 39078, Note_off_c, 0, 70, 106
1, 39103, Note_on_c, 0, 67, 107
1, 39152, Note_off_c, 0, 67, 107
1, 39162, Note_on_c, 0, 68, 69
1, 39252, Note_off_c, 0, 68, 69
1, 39252, Note_on_c, 0, 70, 107
1, 39364, Note_off_c, 0, 70, 107
1, 39376, Note_on_c, 0, 67, 108
1, 39449, Note_on_c, 0, 68, 107
1, 39449, Note_off_c, 0, 67, 108
1, 39558, Note_off_c, 0, 68, 107
1, 39558, Note_on_c, 0, 69, 102
1, 39650, Note_off_c, 0, 69, 102
1, 39650, Note_on_c, 0, 70, 101
1, 39755, Note_off_c, 0, 70, 101
1, 39757, Note_on_c, 0, 71, 96
1, 39830, Note_off_c, 0, 71, 96
1, 39834, Note_on_c, 0, 73, 95
1, 40400, Note_off_c, 0, 73, 95
1, 40400, Note_on_c, 0, 74, 96
1, 40507, Note_off_c, 0, 74, 96
1, 40535, Note_on_c, 0, 69, 90
1, 40640, Note_off_c, 0, 69, 90
1, 40715, Note_on_c, 0, 67, 97
1, 40988, Note_off_c, 0, 67, 97
1, 40994, Note_on_c, 0, 65, 100
1, 41101, Note_off_c, 0, 65, 100
1, 41176, Note_on_c, 0, 69, 95
1, 41344, Note_off_c, 0, 69, 95
1, 41923, Note_on_c, 0, 74, 114
1, 42041, Note_off_c, 0, 74, 114
1, 42041, Note_on_c, 0, 77, 109
1, 42114, Note_off_c, 0, 77, 109
1, 42114, Note_on_c, 0, 74, 105
1, 42217, Note_off_c, 0, 74, 105
1, 42331, Note_on_c, 0, 73, 106
1, 42434, Note_off_c, 0, 73, 106
1, 42438, Note_on_c, 0, 77, 101
1, 42513, Note_off_c, 0, 77, 101
1, 42525, Note_on_c, 0, 73, 97
1, 42593, Note_off_c, 0, 73, 97
1, 42638, Note_on_c, 0, 70, 94
1, 42685, Note_off_c, 0, 70, 94
1, 42691, Note_on_c, 0, 72, 104
1, 42787, Note_off_c, 0, 72, 104
1, 42879, Note_on_c, 0, 74, 112
1, 42971, Note_off_c, 0, 74, 112
1, 42992, Note_on_c, 0, 72, 103
1, 43063, Note_off_c, 0, 72, 103
1, 43075, Note_on_c, 0, 70, 101
1, 43154, Note_off_c, 0, 70, 101
1, 43173, Note_on_c, 0, 69, 106
1, 43244, Note_off_c, 0, 69, 106
1, 43248, Note_on_c, 0, 68, 108
1, 43360, Note_off_c, 0, 68, 108
1, 43368, Note_on_c, 0, 65, 102
1, 43428, Note_off_c, 0, 65, 102
1, 43430, Note_on_c, 0, 67, 104
1, 43539, Note_off_c, 0, 67, 104
1, 43556, Note_on_c, 0, 65, 115
1, 43661, Note_off_c, 0, 65, 115
1, 43663, Note_on_c, 0, 64, 114
1, 43723, Note_off_c, 0, 64, 114
1, 43738, Note_on_c, 0, 63, 110
1, 43834, Note_off_c, 0, 63, 110
1, 43834, Note_on_c, 0, 62, 107
1, 43939, Note_off_c, 0, 62, 107
1, 43995, Note_on_c, 0, 65, 9
1, 44107, Note_off_c, 0, 65, 9
1, 44139, Note_on_c, 0, 62, 102
1, 44192, Note_off_c, 0, 62, 102
1, 44192, Note_on_c, 0, 63, 120
1, 44301, Note_off_c, 0, 63, 120
1, 44397, Note_on_c, 0, 62, 119
1, 44502, Note_off_c, 0, 62, 119
1, 44596, Note_on_c, 0, 65, 117
1, 44740, Note_off_c, 0, 65, 117
1, 44742, Note_on_c, 0, 63, 109
1, 44907, Note_off_c, 0, 63, 109
1, 44907, Note_on_c, 0, 64, 117
1, 44952, Note_off_c, 0, 64, 117
1, 44952, Note_on_c, 0, 65, 116
1, 45085, Note_off_c, 0, 65, 116
1, 45117, Note_on_c, 0, 63, 115
1, 45248, Note_off_c, 0, 63, 115
1, 45263, Note_on_c, 0, 60, 98
1, 45334, Note_off_c, 0, 60, 98
1, 45334, Note_on_c, 0, 63, 112
1, 45437, Note_off_c, 0, 63, 112
1, 45439, Note_on_c, 0, 65, 115
1, 45529, Note_off_c, 0, 65, 115
1, 45529, Note_on_c, 0, 68, 102
1, 45628, Note_off_c, 0, 68, 102
1, 45632, Note_on_c, 0, 72, 110
1, 45707, Note_off_c, 0, 72, 110
1, 46383, Note_on_c, 0, 72, 96
1, 46451, Note_off_c, 0, 72, 96
1, 46451, Note_on_c, 0, 77, 112
1, 46588, Note_off_c, 0, 77, 112
1, 46592, Note_on_c, 0, 79, 101
1, 46641, Note_off_c, 0, 79, 101
1, 46643, Note_on_c, 0, 80, 118
1, 46765, Note_off_c, 0, 80, 118
1, 46765, Note_on_c, 0, 79, 113
1, 46831, Note_off_c, 0, 79, 113
1, 46833, Note_on_c, 0, 80, 104
1, 46960, Note_off_c, 0, 80, 104
1, 46962, Note_on_c, 0, 79, 101
1, 47030, Note_off_c, 0, 79, 101
1, 47032, Note_on_c, 0, 78, 101
1, 47113, Note_off_c, 0, 78, 101
1, 47117, Note_on_c, 0, 76, 90
1, 47151, Note_off_c, 0, 76, 90
1, 47151, Note_on_c, 0, 79, 111
1, 47217, Note_off_c, 0, 79, 111
1, 47217, Note_on_c, 0, 77, 112
1, 47311, Note_off_c, 0, 77, 112
1, 47313, Note_on_c, 0, 76, 109
1, 47399, Note_on_c, 0, 74, 113
1, 47399, Note_off_c, 0, 76, 109
1, 47506, Note_off_c, 0, 74, 113
1, 47508, Note_on_c, 0, 73, 110
1, 47583, Note_off_c, 0, 73, 110
1, 47585, Note_on_c, 0, 72, 107
1, 47703, Note_off_c, 0, 72, 107
1, 47703, Note_on_c, 0, 70, 110
1, 47765, Note_off_c, 0, 70, 110
1, 47769, Note_on_c, 0, 68, 113
1, 47896, Note_off_c, 0, 68, 113
1, 47913, Note_on_c, 0, 65, 101
1, 47962, Note_off_c, 0, 65, 101
1, 47966, Note_on_c, 0, 70, 113
1, 48071, Note_off_c, 0, 70, 113
1, 48073, Note_on_c, 0, 68, 112
1, 48139, Note_off_c, 0, 68, 112
1, 48147, Note_on_c, 0, 70, 113
1, 48259, Note_off_c, 0, 70, 113
1, 48265, Note_on_c, 0, 68, 115
1, 48361, Note_off_c, 0, 68, 115
1, 48361, Note_on_c, 0, 67, 120
1, 48434, Note_off_c, 0, 67, 120
1, 48434, Note_on_c, 0, 65, 122
1, 48526, Note_off_c, 0, 65, 122
1, 48530, Note_on_c, 0, 64, 120
1, 48629, Note_off_c, 0, 64, 120
1, 48629, Note_on_c, 0, 63, 121
1, 48702, Note_off_c, 0, 63, 121
1, 48704, Note_on_c, 0, 62, 118
1, 48839, Note_off_c, 0, 62, 118
1, 48879, Note_on_c, 0, 65, 113
1, 49003, Note_off_c, 0, 65, 113
1, 49048, Note_on_c, 0, 63, 113
1, 49190, Note_off_c, 0, 63, 113
1, 49196, Note_on_c, 0, 60, 94
1, 49295, Note_off_c, 0, 60, 94
1, 49297, Note_on_c, 0, 61, 114
1, 49376, Note_off_c, 0, 61, 114
1, 49401, Note_on_c, 0, 58, 103
1, 49452, Note_off_c, 0, 58, 103
1, 49475, Note_on_c, 0, 60, 106
1, 49550, Note_off_c, 0, 60, 106
1, 49552, Note_on_c, 0, 63, 110
1, 49627, Note_off_c, 0, 63, 110
1, 49629, Note_on_c, 0, 65, 118
1, 49741, Note_off_c, 0, 65, 118
1, 49743, Note_on_c, 0, 69, 103
1, 49816, Note_off_c, 0, 69, 103
1, 49816, Note_on_c, 0, 72, 108
1, 49902, Note_off_c, 0, 72, 108
1, 49945, Note_on_c, 0, 67, 103
1, 50216, Note_off_c, 0, 67, 103
1, 50235, Note_on_c, 0, 65, 114
1, 50327, Note_off_c, 0, 65, 114
1, 50329, Note_on_c, 0, 64, 115
1, 50404, Note_off_c, 0, 64, 115
1, 50404, Note_on_c, 0, 65, 115
1, 50500, Note_off_c, 0, 65, 115
1, 50512, Note_on_c, 0, 64, 109
1, 50572, Note_off_c, 0, 64, 109
1, 50591, Note_on_c, 0, 63, 113
1, 50670, Note_off_c, 0, 63, 113
1, 50691, Note_on_c, 0, 58, 112
1, 50755, Note_off_c, 0, 58, 112
1, 50755, Note_on_c, 0, 62, 103
1, 50834, Note_off_c, 0, 62, 103
1, 50836, Note_on_c, 0, 65, 106
1, 50917, Note_off_c, 0, 65, 106
1, 50917, Note_on_c, 0, 69, 115
1, 51147, Note_off_c, 0, 69, 115
1, 51147, Note_on_c, 0, 68, 105
1, 51500, Note_off_c, 0, 68, 105
1, 51504, Note_on_c, 0, 67, 100
1, 51715, Note_off_c, 0, 67, 100
1, 51719, Note_on_c, 0, 65, 113
1, 51837, Note_off_c, 0, 65, 113
1, 52013, Note_on_c, 0, 65, 112
1, 52463, Note_off_c, 0, 65, 112
1, 52463, End_track
0, 0, End_of_file
