0, 0, Header, 1, 1, 192
1, 0, Start_track
1, 0, Title_t, "Melody"
1, 0, Tempo, 402684
1, 0, Key_signature, -2, "major"
1, 0, Time_signature, 4, 2, 24, 8
1, 2203, Note_on_c, 0, 70, 118
1, 2286, Note_off_c, 0, 70, 118
1, 2409, Note_on_c, 0, 70, 103
1, 2523, Note_off_c, 0, 70, 103
1, 2952, Note_on_c, 0, 70, 112
1, 3063, Note_off_c, 0, 70, 112
1, 3107, Note_on_c, 0, 73, 98
1, 3194, Note_off_c, 0, 73, 98
1, 3270, Note_on_c, 0, 70, 111
1, 3334, Note_off_c, 0, 70, 111
1, 3359, Note_on_c, 0, 67, 108
1, 3458, Note_off_c, 0, 67, 108
1, 3476, Note_on_c, 0, 65, 82
1, 3682, Note_off_c, 0, 65, 82
1, 4310, Note_on_c, 0, 68, 123
1, 4413, Note_off_c, 0, 68, 123
1, 4420, Note_on_c, 0, 70, 117
1, 4479, Note_off_c, 0, 70, 117
1, 4499, Note_on_c, 0, 68, 119
1, 4604, Note_off_c, 0, 68, 119
1, 4609, Note_on_c, 0, 70, 113
1, 4672, Note_off_c, 0, 70, 113
1, 4694, Note_on_c, 0, 67, 116
1, 4801, Note_off_c, 0, 67, 116
1, 4814, Note_on_c, 0, 65, 111
1, 4892, Note_off_c, 0, 65, 111
1, 4982, Note_on_c, 0, 73, 103
1, 5078, Note_off_c, 0, 73, 103
1, 5170, Note_on_c, 0, 67, 91
1, 5427, Note_off_c, 0, 67, 91
1, 5923, Note_on_c, 0, 73, 109
1, 5985, Note_off_c, 0, 73, 109
1, 6005, Note_on_c, 0, 75, 119
1, 6097, Note_off_c, 0, 75, 119
1, 6114, Note_on_c, 0, 77, 118
1, 6177, Note_off_c, 0, 77, 118
1, 6204, Note_on_c, 0, 70, 110
1, 6293, Note_off_c, 0, 70, 110
1, 6384, Note_on_c, 0, 73, 100
1, 6473, Note_off_c, 0, 73, 100
1, 6502, Note_on_c, 0, 74, 107
1, 6564, Note_off_c, 0, 74, 107
1, 6574, Note_on_c, 0, 70, 102
1, 6670, Note_off_c, 0, 70, 102
1, 6695, Note_on_c, 0, 65, 111
1, 6753, Note_off_c, 0, 65, 111
1, 6764, Note_on_c, 0, 63, 100
1, 6867, Note_off_c, 0, 63, 100
1, 6890, Note_on_c, 0, 60, 76
1, 6937, Note_off_c, 0, 60, 76
1, 6948, Note_on_c, 0, 62, 100
1, 7054, Note_off_c, 0, 62, 100
1, 7071, Note_on_c, 0, 65, 89
1, 7290, Note_off_c, 0, 65, 89
1, 7526, Note_on_c, 0, 74, 117
1, 7640, Note_off_c, 0, 74, 117
1, 7648, Note_on_c, 0, 72, 102
1, 7701, Note_off_c, 0, 72, 102
1, 7711, Note_on_c, 0, 73, 108
1, 8000, Note_off_c, 0, 73, 108
1, 8006, Note_on_c, 0, 71, 108
1, 8093, Note_off_c, 0, 71, 108
1, 8108, Note_on_c, 0, 72, 103
1, 8191, Note_off_c, 0, 72, 103
1, 8214, Note_on_c, 0, 63, 89
1, 8448, Note_off_c, 0, 63, 89
1, 8834, Note_on_c, 0, 70, 108
1, 8928, Note_off_c, 0, 70, 108
1, 8945, Note_on_c, 0, 73, 106
1, 9012, Note_off_c, 0, 73, 106
1, 9023, Note_on_c, 0, 74, 111
1, 9121, Note_off_c, 0, 74, 111
1, 9130, Note_on_c, 0, 75, 118
1, 9196, Note_off_c, 0, 75, 118
1, 9218, Note_on_c, 0, 76, 119
1, 9309, Note_off_c, 0, 76, 119
1, 9317, Note_on_c, 0, 77, 127
1, 9387, Note_off_c, 0, 77, 127
1, 9413, Note_on_c, 0, 70, 100
1, 9493, Note_off_c, 0, 70, 100
1, 9526, Note_on_c, 0, 76, 110
1, 9705, Note_off_c, 0, 76, 110
1, 9713, Note_on_c, 0, 75, 118
1, 9892, Note_off_c, 0, 75, 118
1, 9904, Note_on_c, 0, 73, 103
1, 9957, Note_off_c, 0, 73, 103
1, 9962, Note_on_c, 0, 75, 114
1, 10075, Note_off_c, 0, 75, 114
1, 10085, Note_on_c, 0, 73, 104
1, 10140, Note_off_c, 0, 73, 104
1, 10161, Note_on_c, 0, 70, 104
1, 10230, Note_off_c, 0, 70, 104
1, 10351, Note_on_c, 0, 70, 97
1, 10523, Note_off_c, 0, 70, 97
1, 10754, Note_on_c, 0, 65, 105
1, 10839, Note_off_c, 0, 65, 105
1, 10852, Note_on_c, 0, 67, 121
1, 10908, Note_off_c, 0, 67, 121
1, 10930, Note_on_c, 0, 70, 115
1, 11006, Note_off_c, 0, 70, 115
1, 11102, Note_on_c, 0, 72, 106
1, 11286, Note_off_c, 0, 72, 106
1, 11299, Note_on_c, 0, 70, 99
1, 11375, Note_off_c, 0, 70, 99
1, 11467, Note_on_c, 0, 72, 98
1, 11679, Note_off_c, 0, 72, 98
1, 11708, Note_on_c, 0, 70, 93
1, 11790, Note_off_c, 0, 70, 93
1, 11814, Note_on_c, 0, 75, 112
1, 11915, Note_off_c, 0, 75, 112
1, 12076, Note_on_c, 0, 70, 99
1, 12164, Note_off_c, 0, 70, 99
1, 12274, Note_on_c, 0, 77, 120
1, 12374, Note_off_c, 0, 77, 120
1, 12388, Note_on_c, 0, 75, 116
1, 12452, Note_off_c, 0, 75, 116
1, 12464, Note_on_c, 0, 73, 90
1, 12542, Note_off_c, 0, 73, 90
1, 12559, Note_on_c, 0, 74, 108
1, 12631, Note_off_c, 0, 74, 108
1, 12660, Note_on_c, 0, 70, 103
1, 12749, Note_off_c, 0, 70, 103
1, 12769, Note_on_c, 0, 65, 107
1, 12827, Note_off_c, 0, 65, 107
1, 12839, Note_on_c, 0, 63, 94
1, 12998, Note_off_c, 0, 63, 94
1, 13005, Note_on_c, 0, 62, 93
1, 13214, Note_off_c, 0, 62, 93
1, 13240, Note_on_c, 0, 65, 90
1, 13319, Note_off_c, 0, 65, 90
1, 13333, Note_on_c, 0, 70, 121
1, 13389, Note_off_c, 0, 70, 121
1, 13406, Note_on_c, 0, 68, 100
1, 13513, Note_off_c, 0, 68, 100
1, 13530, Note_on_c, 0, 70, 113
1, 13591, Note_off_c, 0, 70, 113
1, 13909, Note_on_c, 0, 66, 115
1, 13989, Note_off_c, 0, 66, 115
1, 14002, Note_on_c, 0, 67, 121
1, 14086, Note_off_c, 0, 67, 121
1, 14093, Note_on_c, 0, 70, 123
1, 14157, Note_off_c, 0, 70, 123
1, 14182, Note_on_c, 0, 73, 109
1, 14258, Note_off_c, 0, 73, 109
1, 14279, Note_on_c, 0, 75, 119
1, 14350, Note_off_c, 0, 75, 119
1, 14372, Note_on_c, 0, 77, 122
1, 14461, Note_off_c, 0, 77, 122
1, 14473, Note_on_c, 0, 77, 119
1, 14547, Note_off_c, 0, 77, 119
1, 14568, Note_on_c, 0, 75, 118
1, 14657, Note_off_c, 0, 75, 118
1, 14670, Note_on_c, 0, 75, 108
1, 14718, Note_off_c, 0, 75, 108
1, 14751, Note_on_c, 0, 70, 103
1, 14837, Note_off_c, 0, 70, 103
1, 14854, Note_on_c, 0, 76, 113
1, 14980, Note_off_c, 0, 76, 113
1, 15043, Note_on_c, 0, 75, 113
1, 15159, Note_off_c, 0, 75, 113
1, 15225, Note_on_c, 0, 73, 106
1, 15290, Note_off_c, 0, 73, 106
1, 15311, Note_on_c, 0, 70, 117
1, 15404, Note_off_c, 0, 70, 117
1, 15417, Note_on_c, 0, 68, 111
1, 15482, Note_off_c, 0, 68, 111
1, 15501, Note_on_c, 0, 65, 102
1, 15585, Note_off_c, 0, 65, 102
1, 15608, Note_on_c, 0, 63, 106
1, 15653, Note_off_c, 0, 63, 106
1, 15662, Note_on_c, 0, 62, 97
1, 15786, Note_off_c, 0, 62, 97
1, 15871, Note_on_c, 0, 70, 102
1, 16140, Note_off_c, 0, 70, 102
1, 16147, Note_on_c, 0, 69, 111
1, 16178, Note_off_c, 0, 69, 111
1, 16188, Note_on_c, 0, 68, 110
1, 16217, Note_off_c, 0, 68, 110
1, 16222, Note_on_c, 0, 67, 103
1, 16353, Note_off_c, 0, 67, 103
1, 16360, Note_on_c, 0, 65, 93
1, 16575, Note_off_c, 0, 65, 93
1, 16897, Note_on_c, 0, 82, 115
1, 17352, Note_off_c, 0, 82, 115
1, 17368, Note_on_c, 0, 73, 103
1, 17484, Note_off_c, 0, 73, 103
1, 17555, Note_on_c, 0, 72, 108
1, 17653, Note_off_c, 0, 72, 108
1, 17668, Note_on_c, 0, 70, 118
1, 17723, Note_off_c, 0, 70, 118
1, 17762, Note_on_c, 0, 65, 101
1, 17835, Note_off_c, 0, 65, 101
1, 17852, Note_on_c, 0, 63, 93
1, 18037, Note_off_c, 0, 63, 93
1, 18135, Note_on_c, 0, 67, 114
1, 18214, Note_off_c, 0, 67, 114
1, 18225, Note_on_c, 0, 70, 113
1, 18295, Note_off_c, 0, 70, 113
1, 18320, Note_on_c, 0, 73, 108
1, 18414, Note_off_c, 0, 73, 108
1, 18424, Note_on_c, 0, 74, 109
1, 18485, Note_off_c, 0, 74, 109
1, 18529, Note_on_c, 0, 65, 103
1, 18605, Note_off_c, 0, 65, 103
1, 18616, Note_on_c, 0, 67, 122
1, 18686, Note_off_c, 0, 67, 122
1, 18710, Note_on_c, 0, 72, 110
1, 18802, Note_off_c, 0, 72, 110
1, 18817, Note_on_c, 0, 70, 104
1, 19084, Note_off_c, 0, 70, 104
1, 19094, Note_on_c, 0, 68, 104
1, 19116, Note_off_c, 0, 68, 104
1, 19126, Note_on_c, 0, 70, 109
1, 19151, Note_off_c, 0, 70, 109
1, 19163, Note_on_c, 0, 68, 109
1, 19188, Note_off_c, 0, 68, 109
1, 19206, Note_on_c, 0, 65, 94
1, 19240, Note_off_c, 0, 65, 94
1, 19260, Note_on_c, 0, 69, 109
1, 19372, Note_off_c, 0, 69, 109
1, 19384, Note_on_c, 0, 70, 117
1, 19448, Note_off_c, 0, 70, 117
1, 19465, Note_on_c, 0, 65, 100
1, 19564, Note_off_c, 0, 65, 100
1, 19649, Note_on_c, 0, 63, 106
1, 19750, Note_off_c, 0, 63, 106
1, 19839, Note_on_c, 0, 62, 102
1, 19954, Note_off_c, 0, 62, 102
1, 19969, Note_on_c, 0, 65, 100
1, 20211, Note_off_c, 0, 65, 100
1, 20211, End_track
0, 0, End_of_file
