0, 0, Header, 1, 1, 840
1, 0, Start_track
1, 0, Title_t, "Melody"
1, 0, Tempo, 845070
1, 0, Key_signature, -2, "major"
1, 0, Time_signature, 4, 2, 24, 8
1, 5169, Note_on_c, 0, 77, 123
1, 5371, Note_off_c, 0, 77, 123
1, 5573, Note_on_c, 0, 77, 122
1, 5857, Note_off_c, 0, 77, 122
1, 5954, Note_on_c, 0, 73, 121
1, 6221, Note_off_c, 0, 73, 121
1, 6448, Note_on_c, 0, 74, 118
1, 6740, Note_off_c, 0, 74, 118
1, 6748, Note_on_c, 0, 75, 116
1, 6837, Note_off_c, 0, 75, 116
1, 6837, Note_on_c, 0, 77, 113
1, 8143, Note_off_c, 0, 77, 113
1, 8167, Note_on_c, 0, 74, 117
1, 8296, Note_off_c, 0, 74, 117
1, 8304, Note_on_c, 0, 72, 111
1, 8409, Note_off_c, 0, 72, 111
1, 8441, Note_on_c, 0, 70, 98
1, 8538, Note_off_c, 0, 70, 98
1, 8578, Note_on_c, 0, 65, 94
1, 9316, Note_off_c, 0, 65, 94
1, 10142, Note_on_c, 0, 77, 78
1, 10223, Note_off_c, 0, 77, 78
1, 10312, Note_on_c, 0, 79, 108
1, 12364, Note_off_c, 0, 79, 108
1, 12373, Note_on_c, 0, 74, 111
1, 12626, Note_off_c, 0, 74, 111
1, 12649, Note_on_c, 0, 75, 114
1, 12920, Note_off_c, 0, 75, 114
1, 12925, Note_on_c, 0, 74, 109
1, 13225, Note_off_c, 0, 74, 109
1, 13230, Note_on_c, 0, 75, 115
1, 13385, Note_off_c, 0, 75, 115
1, 13402, Note_on_c, 0, 74, 112
1, 13575, Note_off_c, 0, 74, 112
1, 13580, Note_on_c, 0, 75, 115
1, 13781, Note_off_c, 0, 75, 115
1, 13786, Note_on_c, 0, 74, 107
1, 13999, Note_off_c, 0, 74, 107
1, 14010, Note_on_c, 0, 75, 117
1, 14125, Note_off_c, 0, 75, 117
1, 14142, Note_on_c, 0, 74, 105
1, 14361, Note_off_c, 0, 74, 105
1, 14366, Note_on_c, 0, 75, 118
1, 14492, Note_off_c, 0, 75, 118
1, 14526, Note_on_c, 0, 74, 105
1, 14716, Note_off_c, 0, 74, 105
1, 14716, Note_on_c, 0, 75, 116
1, 14877, Note_off_c, 0, 75, 116
1, 14877, Note_on_c, 0, 74, 113
1, 15067, Note_off_c, 0, 74, 113
1, 15095, Note_on_c, 0, 75, 111
1, 16047, Note_off_c, 0, 75, 111
1, 16081, Note_on_c, 0, 74, 108
1, 16306, Note_off_c, 0, 74, 108
1, 16334, Note_on_c, 0, 75, 111
1, 16639, Note_off_c, 0, 75, 111
1, 16656, Note_on_c, 0, 74, 109
1, 16823, Note_off_c, 0, 74, 109
1, 16863, Note_on_c, 0, 70, 102
1, 17082, Note_off_c, 0, 70, 102
1, 17082, Note_on_c, 0, 68, 101
1, 18339, Note_off_c, 0, 68, 101
1, 18627, Note_on_c, 0, 78, 118
1, 18730, Note_off_c, 0, 78, 118
1, 18741, Note_on_c, 0, 79, 115
1, 19000, Note_off_c, 0, 79, 115
1, 19057, Note_on_c, 0, 78, 122
1, 19143, Note_off_c, 0, 78, 122
1, 19143, Note_on_c, 0, 79, 114
1, 19350, Note_off_c, 0, 79, 114
1, 19396, Note_on_c, 0, 78, 111
1, 19465, Note_off_c, 0, 78, 111
1, 19482, Note_on_c, 0, 79, 110
1, 19637, Note_off_c, 0, 79, 110
1, 19683, Note_on_c, 0, 79, 109
1, 19879, Note_off_c, 0, 79, 109
1, 19914, Note_on_c, 0, 77, 99
1, 19976, Note_off_c, 0, 77, 99
1, 19976, Note_on_c, 0, 79, 109
1, 20051, Note_off_c, 0, 79, 109
1, 20051, Note_on_c, 0, 77, 110
1, 20812, Note_off_c, 0, 77, 110
1, 20817, Note_on_c, 0, 76, 118
1, 20892, Note_off_c, 0, 76, 118
1, 20897, Note_on_c, 0, 75, 116
1, 20977, Note_off_c, 0, 75, 116
1, 20994, Note_on_c, 0, 74, 109
1, 21074, Note_off_c, 0, 74, 109
1, 21085, Note_on_c, 0, 70, 104
1, 21165, Note_off_c, 0, 70, 104
1, 21193, Note_on_c, 0, 67, 106
1, 21285, Note_off_c, 0, 67, 106
1, 21308, Note_on_c, 0, 66, 115
1, 21385, Note_off_c, 0, 66, 115
1, 21405, Note_on_c, 0, 64, 119
1, 21462, Note_off_c, 0, 64, 119
1, 21479, Note_on_c, 0, 63, 121
1, 21554, Note_off_c, 0, 63, 121
1, 21554, Note_on_c, 0, 62, 120
1, 21657, Note_off_c, 0, 62, 120
1, 21668, Note_on_c, 0, 61, 115
1, 21771, Note_off_c, 0, 61, 115
1, 21776, Note_on_c, 0, 67, 106
1, 22629, Note_off_c, 0, 67, 106
1, 23073, Note_on_c, 0, 67, 109
1, 23257, Note_off_c, 0, 67, 109
1, 23280, Note_on_c, 0, 70, 100
1, 23487, Note_off_c, 0, 70, 100
1, 23521, Note_on_c, 0, 72, 123
1, 23607, Note_off_c, 0, 72, 123
1, 23612, Note_on_c, 0, 73, 118
1, 23738, Note_off_c, 0, 73, 118
1, 23743, Note_on_c, 0, 70, 101
1, 23835, Note_off_c, 0, 70, 101
1, 23846, Note_on_c, 0, 72, 116
1, 24001, Note_off_c, 0, 72, 116
1, 24001, Note_on_c, 0, 70, 96
1, 24099, Note_off_c, 0, 70, 96
1, 24104, Note_on_c, 0, 72, 113
1, 24202, Note_off_c, 0, 72, 113
1, 24207, Note_on_c, 0, 73, 120
1, 24472, Note_off_c, 0, 73, 120
1, 24495, Note_on_c, 0, 70, 101
1, 24581, Note_off_c, 0, 70, 101
1, 24592, Note_on_c, 0, 72, 114
1, 24690, Note_off_c, 0, 72, 114
1, 24736, Note_on_c, 0, 70, 100
1, 24822, Note_off_c, 0, 70, 100
1, 24822, Note_on_c, 0, 72, 120
1, 24908, Note_off_c, 0, 72, 120
1, 24913, Note_on_c, 0, 73, 116
1, 25011, Note_off_c, 0, 73, 116
1, 25011, Note_on_c, 0, 70, 97
1, 25103, Note_on_c, 0, 72, 111
1, 25103, Note_off_c, 0, 70, 97
1, 25229, Note_off_c, 0, 72, 111
1, 25246, Note_on_c, 0, 70, 102
1, 25315, Note_off_c, 0, 70, 102
1, 25315, Note_on_c, 0, 72, 122
1, 25516, Note_off_c, 0, 72, 122
1, 25539, Note_on_c, 0, 73, 115
1, 25792, Note_off_c, 0, 73, 115
1, 25803, Note_on_c, 0, 72, 114
1, 25889, Note_off_c, 0, 72, 114
1, 25894, Note_on_c, 0, 70, 103
1, 26072, Note_off_c, 0, 70, 103
1, 26100, Note_on_c, 0, 65, 115
1, 26226, Note_off_c, 0, 65, 115
1, 26237, Note_on_c, 0, 63, 116
1, 26358, Note_off_c, 0, 63, 116
1, 26386, Note_on_c, 0, 61, 112
1, 26501, Note_off_c, 0, 61, 112
1, 26512, Note_on_c, 0, 62, 116
1, 26650, Note_off_c, 0, 62, 116
1, 26684, Note_on_c, 0, 70, 103
1, 26978, Note_off_c, 0, 70, 103
1, 27018, Note_on_c, 0, 70, 96
1, 28120, Note_off_c, 0, 70, 96
1, 28131, Note_on_c, 0, 67, 102
1, 28240, Note_on_c, 0, 65, 108
1, 28240, Note_off_c, 0, 67, 102
1, 28291, Note_off_c, 0, 65, 108
1, 28291, Note_on_c, 0, 61, 109
1, 28400, Note_off_c, 0, 61, 109
1, 28405, Note_on_c, 0, 62, 120
1, 28583, Note_off_c, 0, 62, 120
1, 28600, Note_on_c, 0, 65, 100
1, 29448, Note_off_c, 0, 65, 100
1, 29944, Note_on_c, 0, 67, 112
1, 30128, Note_off_c, 0, 67, 112
1, 30237, Note_on_c, 0, 70, 96
1, 30796, Note_off_c, 0, 70, 96
1, 31113, Note_on_c, 0, 72, 120
1, 31164, Note_off_c, 0, 72, 120
1, 31164, Note_on_c, 0, 73, 124
1, 31290, Note_off_c, 0, 73, 124
1, 31416, Note_on_c, 0, 74, 117
1, 31566, Note_off_c, 0, 74, 117
1, 31646, Note_on_c, 0, 75, 121
1, 31824, Note_off_c, 0, 75, 121
1, 31847, Note_on_c, 0, 74, 117
1, 31962, Note_off_c, 0, 74, 117
1, 31990, Note_on_c, 0, 73, 113
1, 32111, Note_off_c, 0, 73, 113
1, 32139, Note_on_c, 0, 74, 115
1, 32271, Note_off_c, 0, 74, 115
1, 32294, Note_on_c, 0, 75, 122
1, 32420, Note_off_c, 0, 75, 122
1, 32454, Note_on_c, 0, 74, 112
1, 32598, Note_off_c, 0, 74, 112
1, 32621, Note_on_c, 0, 73, 114
1, 32747, Note_off_c, 0, 73, 114
1, 32787, Note_on_c, 0, 74, 118
1, 32913, Note_off_c, 0, 74, 118
1, 32964, Note_on_c, 0, 74, 114
1, 33096, Note_off_c, 0, 74, 114
1, 33096, Note_on_c, 0, 75, 120
1, 33609, Note_off_c, 0, 75, 120
1, 33626, Note_on_c, 0, 73, 108
1, 33683, Note_off_c, 0, 73, 108
1, 33683, Note_on_c, 0, 75, 124
1, 33746, Note_off_c, 0, 75, 124
1, 33751, Note_on_c, 0, 74, 118
1, 33831, Note_off_c, 0, 74, 118
1, 33925, Note_on_c, 0, 72, 105
1, 34002, Note_off_c, 0, 72, 105
1, 34042, Note_on_c, 0, 70, 100
1, 34102, Note_off_c, 0, 70, 100
1, 34146, Note_on_c, 0, 69, 105
1, 34247, Note_off_c, 0, 69, 105
1, 34279, Note_on_c, 0, 67, 108
1, 34364, Note_off_c, 0, 67, 108
1, 34416, Note_on_c, 0, 66, 111
1, 34554, Note_off_c, 0, 66, 111
1, 34669, Note_on_c, 0, 69, 105
1, 34813, Note_off_c, 0, 69, 105
1, 34905, Note_on_c, 0, 67, 107
1, 35066, Note_off_c, 0, 67, 107
1, 35071, Note_on_c, 0, 66, 108
1, 35209, Note_off_c, 0, 66, 108
1, 35226, Note_on_c, 0, 65, 111
1, 35399, Note_off_c, 0, 65, 111
1, 35422, Note_on_c, 0, 64, 110
1, 35577, Note_off_c, 0, 64, 110
1, 35600, Note_on_c, 0, 63, 120
1, 35738, Note_off_c, 0, 63, 120
1, 35743, Note_on_c, 0, 60, 105
1, 35910, Note_off_c, 0, 60, 105
1, 35944, Note_on_c, 0, 63, 122
1, 36111, Note_off_c, 0, 63, 122
1, 36128, Note_on_c, 0, 65, 112
1, 36272, Note_off_c, 0, 65, 112
1, 36352, Note_on_c, 0, 69, 107
1, 36507, Note_off_c, 0, 69, 107
1, 36507, Note_on_c, 0, 71, 111
1, 36570, Note_off_c, 0, 71, 111
1, 36593, Note_on_c, 0, 74, 108
1, 37666, Note_off_c, 0, 74, 108
1, 37960, Note_on_c, 0, 69, 104
1, 38040, Note_off_c, 0, 69, 104
1, 38236, Note_on_c, 0, 65, 106
1, 38414, Note_off_c, 0, 65, 106
1, 38454, Note_on_c, 0, 64, 111
1, 38673, Note_off_c, 0, 64, 111
1, 38724, Note_on_c, 0, 63, 106
1, 39329, Note_off_c, 0, 63, 106
1, 39655, Note_on_c, 0, 72, 112
1, 39865, Note_off_c, 0, 72, 112
1, 39886, Note_on_c, 0, 74, 118
1, 40151, Note_off_c, 0, 74, 118
1, 40214, Note_on_c, 0, 74, 114
1, 40479, Note_off_c, 0, 74, 114
1, 40548, Note_on_c, 0, 70, 90
1, 41338, Note_off_c, 0, 70, 90
1, 41470, Note_on_c, 0, 62, 117
1, 41568, Note_off_c, 0, 62, 117
1, 41579, Note_on_c, 0, 65, 110
1, 41688, Note_off_c, 0, 65, 110
1, 41693, Note_on_c, 0, 67, 106
1, 41773, Note_off_c, 0, 67, 106
1, 41801, Note_on_c, 0, 70, 100
1, 41899, Note_off_c, 0, 70, 100
1, 41910, Note_on_c, 0, 73, 120
1, 42083, Note_off_c, 0, 73, 120
1, 42123, Note_on_c, 0, 72, 123
1, 42238, Note_off_c, 0, 72, 123
1, 42243, Note_on_c, 0, 73, 107
1, 43085, Note_off_c, 0, 73, 107
1, 43113, Note_on_c, 0, 70, 94
1, 43280, Note_off_c, 0, 70, 94
1, 43291, Note_on_c, 0, 67, 105
1, 43406, Note_off_c, 0, 67, 105
1, 43417, Note_on_c, 0, 65, 107
1, 43503, Note_off_c, 0, 65, 107
1, 43514, Note_on_c, 0, 61, 109
1, 43635, Note_off_c, 0, 61, 109
1, 43640, Note_on_c, 0, 62, 117
1, 43853, Note_off_c, 0, 62, 117
1, 43853, Note_on_c, 0, 70, 105
1, 43939, Note_off_c, 0, 70, 105
1, 44625, Note_on_c, 0, 62, 84
1, 44711, Note_off_c, 0, 62, 84
1, 44739, Note_on_c, 0, 65, 113
1, 45217, Note_off_c, 0, 65, 113
1, 45257, Note_on_c, 0, 77, 100
1, 46047, Note_off_c, 0, 77, 100
1, 47071, Note_on_c, 0, 70, 80
1, 47225, Note_off_c, 0, 70, 80
1, 47257, Note_on_c, 0, 82, 104
1, 51525, Note_off_c, 0, 82, 104
1, 51589, Note_on_c, 0, 79, 123
1, 51775, Note_off_c, 0, 79, 123
1, 51815, Note_on_c, 0, 77, 106
1, 51944, Note_off_c, 0, 77, 106
1, 51944, Note_on_c, 0, 79, 123
1, 52171, Note_off_c, 0, 79, 123
1, 52187, Note_on_c, 0, 80, 118
1, 53160, Note_off_c, 0, 80, 118
1, 53168, Note_on_c, 0, 77, 99
1, 53225, Note_off_c, 0, 77, 99
1, 53225, Note_on_c, 0, 74, 113
1, 53288, Note_off_c, 0, 74, 113
1, 53322, Note_on_c, 0, 70, 99
1, 53379, Note_off_c, 0, 70, 99
1, 53396, Note_on_c, 0, 76, 118
1, 53517, Note_off_c, 0, 76, 118
1, 53545, Note_on_c, 0, 72, 109
1, 53625, Note_off_c, 0, 72, 109
1, 53636, Note_on_c, 0, 73, 113
1, 53814, Note_off_c, 0, 73, 113
1, 53825, Note_on_c, 0, 74, 102
1, 54817, Note_off_c, 0, 74, 102
1, 54851, Note_on_c, 0, 70, 100
1, 54966, Note_off_c, 0, 70, 100
1, 55006, Note_on_c, 0, 65, 109
1, 55132, Note_off_c, 0, 65, 109
1, 55172, Note_on_c, 0, 68, 106
1, 56793, Note_off_c, 0, 68, 106
1, 57725, Note_on_c, 0, 77, 78
1, 57788, Note_off_c, 0, 77, 78
1, 57812, Note_on_c, 0, 79, 111
1, 59866, Note_off_c, 0, 79, 111
1, 59894, Note_on_c, 0, 73, 113
1, 59934, Note_off_c, 0, 73, 113
1, 59934, Note_on_c, 0, 74, 116
1, 60089, Note_off_c, 0, 74, 116
1, 60146, Note_on_c, 0, 74, 114
1, 60324, Note_off_c, 0, 74, 114
1, 60341, Note_on_c, 0, 65, 109
1, 60467, Note_off_c, 0, 65, 109
1, 60467, Note_on_c, 0, 77, 106
1, 60645, Note_off_c, 0, 77, 106
1, 60662, Note_on_c, 0, 74, 110
1, 60996, Note_off_c, 0, 74, 110
1, 61019, Note_on_c, 0, 75, 9
1, 61278, Note_off_c, 0, 75, 9
1, 61283, Note_on_c, 0, 74, 107
1, 61704, Note_off_c, 0, 74, 107
1, 61727, Note_on_c, 0, 75, 115
1, 61969, Note_off_c, 0, 75, 115
1, 61974, Note_on_c, 0, 74, 112
1, 62181, Note_off_c, 0, 74, 112
1, 62186, Note_on_c, 0, 70, 99
1, 62347, Note_off_c, 0, 70, 99
1, 62358, Note_on_c, 0, 67, 107
1, 62508, Note_off_c, 0, 67, 107
1, 62531, Note_on_c, 0, 65, 109
1, 62686, Note_off_c, 0, 65, 109
1, 62732, Note_on_c, 0, 63, 113
1, 63528, Note_off_c, 0, 63, 113
1, 64030, Note_on_c, 0, 72, 124
1, 64174, Note_off_c, 0, 72, 124
1, 64191, Note_on_c, 0, 73, 110
1, 64502, Note_off_c, 0, 73, 110
1, 64628, Note_on_c, 0, 72, 116
1, 64829, Note_off_c, 0, 72, 116
1, 64915, Note_on_c, 0, 70, 101
1, 65059, Note_off_c, 0, 70, 101
1, 65082, Note_on_c, 0, 67, 104
1, 65226, Note_off_c, 0, 67, 104
1, 65231, Note_on_c, 0, 65, 113
1, 65375, Note_off_c, 0, 65, 113
1, 65380, Note_on_c, 0, 64, 112
1, 65506, Note_off_c, 0, 64, 112
1, 65517, Note_on_c, 0, 63, 112
1, 66440, Note_off_c, 0, 63, 112
1, 66463, Note_on_c, 0, 65, 107
1, 66624, Note_off_c, 0, 65, 107
1, 66652, Note_on_c, 0, 61, 107
1, 66802, Note_off_c, 0, 61, 107
1, 66802, Note_on_c, 0, 62, 113
1, 66905, Note_off_c, 0, 62, 113
1, 66910, Note_on_c, 0, 67, 100
1, 67019, Note_off_c, 0, 67, 100
1, 67030, Note_on_c, 0, 62, 115
1, 67145, Note_off_c, 0, 62, 115
1, 67162, Note_on_c, 0, 65, 101
1, 67940, Note_off_c, 0, 65, 101
1, 68713, Note_on_c, 0, 65, 109
1, 68863, Note_off_c, 0, 65, 109
1, 68880, Note_on_c, 0, 67, 110
1, 69024, Note_off_c, 0, 67, 110
1, 69029, Note_on_c, 0, 70, 103
1, 69115, Note_off_c, 0, 70, 103
1, 69132, Note_on_c, 0, 72, 123
1, 69264, Note_off_c, 0, 72, 123
1, 69264, Note_on_c, 0, 74, 119
1, 69356, Note_off_c, 0, 74, 119
1, 69373, Note_on_c, 0, 79, 116
1, 69476, Note_off_c, 0, 79, 116
1, 69493, Note_on_c, 0, 74, 114
1, 69596, Note_off_c, 0, 74, 114
1, 69601, Note_on_c, 0, 77, 115
1, 69716, Note_off_c, 0, 77, 115
1, 69727, Note_on_c, 0, 74, 117
1, 69848, Note_off_c, 0, 74, 117
1, 69848, Note_on_c, 0, 72, 116
1, 69980, Note_off_c, 0, 72, 116
1, 69985, Note_on_c, 0, 70, 106
1, 70094, Note_off_c, 0, 70, 106
1, 70105, Note_on_c, 0, 67, 109
1, 70231, Note_off_c, 0, 67, 109
1, 70248, Note_on_c, 0, 65, 114
1, 70357, Note_off_c, 0, 65, 114
1, 70391, Note_on_c, 0, 61, 116
1, 70506, Note_off_c, 0, 61, 116
1, 70523, Note_on_c, 0, 62, 117
1, 70609, Note_off_c, 0, 62, 117
1, 70628, Note_on_c, 0, 67, 108
1, 70720, Note_off_c, 0, 67, 108
1, 70735, Note_on_c, 0, 65, 103
1, 71179, Note_off_c, 0, 65, 103
1, 71530, Note_on_c, 0, 72, 123
1, 71680, Note_off_c, 0, 72, 123
1, 71824, Note_on_c, 0, 74, 117
1, 71945, Note_off_c, 0, 74, 117
1, 72135, Note_on_c, 0, 75, 108
1, 72261, Note_off_c, 0, 75, 108
1, 72353, Note_on_c, 0, 74, 115
1, 72474, Note_off_c, 0, 74, 115
1, 72520, Note_on_c, 0, 73, 118
1, 72623, Note_off_c, 0, 73, 118
1, 72646, Note_on_c, 0, 74, 113
1, 72778, Note_off_c, 0, 74, 113
1, 72812, Note_on_c, 0, 75, 114
1, 72979, Note_off_c, 0, 75, 114
1, 73002, Note_on_c, 0, 74, 110
1, 73134, Note_off_c, 0, 74, 110
1, 73174, Note_on_c, 0, 73, 117
1, 73318, Note_off_c, 0, 73, 117
1, 73335, Note_on_c, 0, 74, 110
1, 73479, Note_off_c, 0, 74, 110
1, 73530, Note_on_c, 0, 73, 114
1, 73651, Note_off_c, 0, 73, 114
1, 73651, Note_on_c, 0, 74, 120
1, 73824, Note_off_c, 0, 74, 120
1, 73835, Note_on_c, 0, 75, 119
1, 74504, Note_off_c, 0, 75, 119
1, 74521, Note_on_c, 0, 74, 113
1, 74584, Note_off_c, 0, 74, 113
1, 74584, Note_on_c, 0, 75, 120
1, 74641, Note_off_c, 0, 75, 120
1, 74641, Note_on_c, 0, 74, 114
1, 74762, Note_off_c, 0, 74, 114
1, 74785, Note_on_c, 0, 72, 111
1, 74900, Note_off_c, 0, 72, 111
1, 74923, Note_on_c, 0, 69, 101
1, 75026, Note_off_c, 0, 69, 101
1, 75054, Note_on_c, 0, 65, 110
1, 75180, Note_off_c, 0, 65, 110
1, 75208, Note_on_c, 0, 64, 109
1, 75294, Note_off_c, 0, 64, 109
1, 75322, Note_on_c, 0, 63, 112
1, 76199, Note_off_c, 0, 63, 112
1, 76712, Note_on_c, 0, 64, 113
1, 76937, Note_off_c, 0, 64, 113
1, 77006, Note_on_c, 0, 65, 114
1, 77179, Note_off_c, 0, 65, 114
1, 77184, Note_on_c, 0, 66, 109
1, 77334, Note_off_c, 0, 66, 109
1, 77351, Note_on_c, 0, 67, 111
1, 77489, Note_off_c, 0, 67, 111
1, 77512, Note_on_c, 0, 70, 106
1, 77604, Note_off_c, 0, 70, 106
1, 77604, Note_on_c, 0, 72, 127
1, 77707, Note_off_c, 0, 72, 127
1, 77712, Note_on_c, 0, 73, 116
1, 77856, Note_off_c, 0, 73, 116
1, 77861, Note_on_c, 0, 74, 112
1, 78484, Note_off_c, 0, 74, 112
1, 78599, Note_on_c, 0, 70, 104
1, 78697, Note_off_c, 0, 70, 104
1, 78754, Note_on_c, 0, 67, 105
1, 78869, Note_off_c, 0, 67, 105
1, 78909, Note_on_c, 0, 62, 118
1, 79099, Note_off_c, 0, 62, 118
1, 79104, Note_on_c, 0, 65, 101
1, 80211, Note_off_c, 0, 65, 101
1, 80707, Note_on_c, 0, 67, 109
1, 80937, Note_off_c, 0, 67, 109
1, 80954, Note_on_c, 0, 70, 104
1, 81127, Note_off_c, 0, 70, 104
1, 81138, Note_on_c, 0, 73, 119
1, 81334, Note_off_c, 0, 73, 119
1, 81345, Note_on_c, 0, 74, 113
1, 82031, Note_off_c, 0, 74, 113
1, 82077, Note_on_c, 0, 70, 101
1, 82186, Note_off_c, 0, 70, 101
1, 82220, Note_on_c, 0, 65, 126
1, 82398, Note_off_c, 0, 65, 126
1, 82438, Note_on_c, 0, 62, 116
1, 82553, Note_off_c, 0, 62, 116
1, 82564, Note_on_c, 0, 63, 119
1, 83037, Note_off_c, 0, 63, 119
1, 83094, Note_on_c, 0, 72, 114
1, 83613, Note_off_c, 0, 72, 114
1, 83786, Note_on_c, 0, 63, 116
1, 83907, Note_off_c, 0, 63, 116
1, 83935, Note_on_c, 0, 60, 117
1, 84027, Note_off_c, 0, 60, 117
1, 84044, Note_on_c, 0, 61, 110
1, 84142, Note_off_c, 0, 61, 110
1, 84153, Note_on_c, 0, 62, 115
1, 84279, Note_off_c, 0, 62, 115
1, 84290, Note_on_c, 0, 70, 91
1, 85536, Note_off_c, 0, 70, 91
1, 85590, Note_on_c, 0, 73, 107
1, 85703, Note_off_c, 0, 73, 107
1, 85703, End_track
0, 0, End_of_file
