0, 0, Header, 1, 1, 192
1, 0, Start_track
1, 0, Title_t, "Melody"
1, 0, Tempo, 285714
1, 0, Key_signature, -2, "major"
1, 0, Time_signature, 4, 2, 24, 8
1, 3031, Note_on_c, 0, 65, 107
1, 3081, Note_off_c, 0, 65, 107
1, 3123, Note_on_c, 0, 67, 102
1, 3189, Note_off_c, 0, 67, 102
1, 3212, Note_on_c, 0, 70, 105
1, 3262, Note_off_c, 0, 70, 105
1, 3269, Note_on_c, 0, 73, 109
1, 3308, Note_off_c, 0, 73, 109
1, 3315, Note_on_c, 0, 74, 120
1, 3373, Note_off_c, 0, 74, 120
1, 3400, Note_on_c, 0, 74, 120
1, 3454, Note_off_c, 0, 74, 120
1, 3481, Note_on_c, 0, 74, 120
1, 3574, Note_off_c, 0, 74, 120
1, 3691, Note_on_c, 0, 74, 120
1, 3769, Note_off_c, 0, 74, 120
1, 3819, Note_on_c, 0, 73, 115
1, 3854, Note_off_c, 0, 73, 115
1, 3861, Note_on_c, 0, 74, 118
1, 3927, Note_off_c, 0, 74, 118
1, 4005, Note_on_c, 0, 74, 120
1, 4067, Note_off_c, 0, 74, 120
1, 4090, Note_on_c, 0, 74, 118
1, 4195, Note_off_c, 0, 74, 118
1, 4230, Note_on_c, 0, 74, 117
1, 4304, Note_off_c, 0, 74, 117
1, 4393, Note_on_c, 0, 74, 116
1, 4720, Note_off_c, 0, 74, 116
1, 4852, Note_on_c, 0, 67, 99
1, 4941, Note_off_c, 0, 67, 99
1, 4952, Note_on_c, 0, 69, 93
1, 5041, Note_off_c, 0, 69, 93
1, 5044, Note_on_c, 0, 70, 103
1, 5125, Note_off_c, 0, 70, 103
1, 5152, Note_on_c, 0, 72, 115
1, 5233, Note_off_c, 0, 72, 115
1, 5233, Note_on_c, 0, 74, 120
1, 5334, Note_on_c, 0, 79, 121
1, 5334, Note_off_c, 0, 74, 120
1, 5412, Note_off_c, 0, 79, 121
1, 5423, Note_on_c, 0, 74, 122
1, 5516, Note_off_c, 0, 74, 122
1, 5523, Note_on_c, 0, 70, 103
1, 5597, Note_off_c, 0, 70, 103
1, 5624, Note_on_c, 0, 69, 101
1, 5717, Note_off_c, 0, 69, 101
1, 5748, Note_on_c, 0, 67, 106
1, 5826, Note_off_c, 0, 67, 106
1, 5939, Note_on_c, 0, 69, 99
1, 6032, Note_off_c, 0, 69, 99
1, 6117, Note_on_c, 0, 67, 95
1, 6300, Note_off_c, 0, 67, 95
1, 6612, Note_on_c, 0, 68, 113
1, 6682, Note_off_c, 0, 68, 113
1, 6682, Note_on_c, 0, 69, 101
1, 6742, Note_off_c, 0, 69, 101
1, 6769, Note_on_c, 0, 74, 124
1, 6878, Note_off_c, 0, 74, 124
1, 6878, Note_on_c, 0, 73, 124
1, 6938, Note_off_c, 0, 73, 124
1, 6959, Note_on_c, 0, 72, 122
1, 7074, Note_off_c, 0, 72, 122
1, 7084, Note_on_c, 0, 70, 92
1, 7353, Note_off_c, 0, 70, 92
1, 7551, Note_on_c, 0, 73, 125
1, 7613, Note_off_c, 0, 73, 125
1, 7613, Note_on_c, 0, 74, 126
1, 7675, Note_off_c, 0, 74, 126
1, 7760, Note_on_c, 0, 73, 124
1, 7865, Note_off_c, 0, 73, 124
1, 7950, Note_on_c, 0, 72, 124
1, 8070, Note_off_c, 0, 72, 124
1, 8077, Note_on_c, 0, 74, 125
1, 8166, Note_off_c, 0, 74, 125
1, 8166, Note_on_c, 0, 72, 123
1, 8259, Note_off_c, 0, 72, 123
1, 8266, Note_on_c, 0, 67, 98
1, 8336, Note_off_c, 0, 67, 98
1, 8336, Note_on_c, 0, 72, 124
1, 8460, Note_off_c, 0, 72, 124
1, 8460, Note_on_c, 0, 74, 125
1, 8541, Note_off_c, 0, 74, 125
1, 8548, Note_on_c, 0, 72, 122
1, 8622, Note_off_c, 0, 72, 122
1, 8661, Note_on_c, 0, 72, 107
1, 8945, Note_off_c, 0, 72, 107
1, 9225, Note_on_c, 0, 73, 122
1, 9322, Note_off_c, 0, 73, 122
1, 9341, Note_on_c, 0, 74, 125
1, 9411, Note_off_c, 0, 74, 125
1, 9426, Note_on_c, 0, 77, 116
1, 9496, Note_off_c, 0, 77, 116
1, 9519, Note_on_c, 0, 74, 121
1, 9597, Note_off_c, 0, 74, 121
1, 9710, Note_on_c, 0, 74, 124
1, 9803, Note_off_c, 0, 74, 124
1, 9908, Note_on_c, 0, 74, 121
1, 10005, Note_off_c, 0, 74, 121
1, 10086, Note_on_c, 0, 74, 123
1, 10187, Note_off_c, 0, 74, 123
1, 10229, Note_on_c, 0, 74, 119
1, 10463, Note_off_c, 0, 74, 119
1, 10486, Note_on_c, 0, 69, 104
1, 10571, Note_off_c, 0, 69, 104
1, 10594, Note_on_c, 0, 67, 101
1, 10824, Note_off_c, 0, 67, 101
1, 11058, Note_on_c, 0, 72, 123
1, 11151, Note_off_c, 0, 72, 123
1, 11182, Note_on_c, 0, 67, 106
1, 11217, Note_off_c, 0, 67, 106
1, 11244, Note_on_c, 0, 72, 125
1, 11345, Note_off_c, 0, 72, 125
1, 11434, Note_on_c, 0, 73, 125
1, 11543, Note_off_c, 0, 73, 125
1, 11550, Note_on_c, 0, 72, 101
1, 11628, Note_off_c, 0, 72, 101
1, 11635, Note_on_c, 0, 73, 124
1, 11732, Note_off_c, 0, 73, 124
1, 11747, Note_on_c, 0, 74, 109
1, 12078, Note_off_c, 0, 74, 109
1, 12319, Note_on_c, 0, 73, 126
1, 12408, Note_off_c, 0, 73, 126
1, 12431, Note_on_c, 0, 74, 123
1, 12512, Note_off_c, 0, 74, 123
1, 12527, Note_on_c, 0, 70, 102
1, 12589, Note_off_c, 0, 70, 102
1, 12604, Note_on_c, 0, 72, 124
1, 12693, Note_off_c, 0, 72, 124
1, 12700, Note_on_c, 0, 70, 98
1, 12770, Note_off_c, 0, 70, 98
1, 12785, Note_on_c, 0, 72, 123
1, 12820, Note_off_c, 0, 72, 123
1, 12843, Note_on_c, 0, 73, 127
1, 12905, Note_off_c, 0, 73, 127
1, 12979, Note_on_c, 0, 72, 118
1, 13096, Note_off_c, 0, 72, 118
1, 13111, Note_on_c, 0, 70, 109
1, 13181, Note_off_c, 0, 70, 109
1, 13298, Note_on_c, 0, 69, 112
1, 13337, Note_off_c, 0, 69, 112
1, 13337, Note_on_c, 0, 70, 112
1, 13364, Note_off_c, 0, 70, 112
1, 13481, Note_on_c, 0, 67, 113
1, 13547, Note_off_c, 0, 67, 113
1, 13570, Note_on_c, 0, 61, 103
1, 13679, Note_off_c, 0, 61, 103
1, 13679, Note_on_c, 0, 62, 108
1, 13753, Note_off_c, 0, 62, 108
1, 13753, Note_on_c, 0, 69, 105
1, 13834, Note_off_c, 0, 69, 105
1, 13861, Note_on_c, 0, 67, 107
1, 13939, Note_off_c, 0, 67, 107
1, 14149, Note_on_c, 0, 67, 111
1, 14246, Note_off_c, 0, 67, 111
1, 14249, Note_on_c, 0, 69, 105
1, 14307, Note_off_c, 0, 69, 105
1, 14334, Note_on_c, 0, 70, 106
1, 14412, Note_off_c, 0, 70, 106
1, 14427, Note_on_c, 0, 72, 126
1, 14497, Note_off_c, 0, 72, 126
1, 14512, Note_on_c, 0, 74, 125
1, 14601, Note_off_c, 0, 74, 125
1, 14616, Note_on_c, 0, 75, 121
1, 14694, Note_off_c, 0, 75, 121
1, 14701, Note_on_c, 0, 76, 113
1, 14771, Note_off_c, 0, 76, 113
1, 14833, Note_on_c, 0, 76, 117
1, 14868, Note_off_c, 0, 76, 117
1, 14883, Note_on_c, 0, 77, 114
1, 15171, Note_off_c, 0, 77, 114
1, 15198, Note_on_c, 0, 76, 117
1, 15276, Note_off_c, 0, 76, 117
1, 15299, Note_on_c, 0, 75, 122
1, 15384, Note_off_c, 0, 75, 122
1, 15419, Note_on_c, 0, 74, 124
1, 15485, Note_off_c, 0, 74, 124
1, 15586, Note_on_c, 0, 79, 123
1, 15664, Note_off_c, 0, 79, 123
1, 15777, Note_on_c, 0, 72, 126
1, 15835, Note_off_c, 0, 72, 126
1, 15838, Note_on_c, 0, 73, 122
1, 15955, Note_off_c, 0, 73, 122
1, 15974, Note_on_c, 0, 70, 103
1, 16044, Note_off_c, 0, 70, 103
1, 16047, Note_on_c, 0, 72, 119
1, 16148, Note_off_c, 0, 72, 119
1, 16171, Note_on_c, 0, 70, 108
1, 16229, Note_off_c, 0, 70, 108
1, 16236, Note_on_c, 0, 67, 113
1, 16337, Note_off_c, 0, 67, 113
1, 16356, Note_on_c, 0, 65, 107
1, 16414, Note_off_c, 0, 65, 107
1, 16453, Note_on_c, 0, 70, 104
1, 16811, Note_off_c, 0, 70, 104
1, 16826, Note_on_c, 0, 67, 112
1, 16907, Note_off_c, 0, 67, 112
1, 16942, Note_on_c, 0, 65, 112
1, 17031, Note_off_c, 0, 65, 112
1, 17136, Note_on_c, 0, 65, 113
1, 17194, Note_off_c, 0, 65, 113
1, 17194, End_track
0, 0, End_of_file
