0, 0, Header, 1, 1, 2520
1, 0, Start_track
1, 0, Title_t, "Melody"
1, 0, Tempo, 705882
1, 0, Key_signature, -2, "major"
1, 0, Time_signature, 4, 2, 24, 8
1, 22622, Note_on_c, 0, 66, 103
1, 22884, Note_off_c, 0, 66, 103
1, 23119, Note_on_c, 0, 67, 103
1, 23439, Note_off_c, 0, 67, 103
1, 23968, Note_on_c, 0, 66, 113
1, 24288, Note_off_c, 0, 66, 113
1, 24402, Note_on_c, 0, 67, 107
1, 25014, Note_off_c, 0, 67, 107
1, 25189, Note_on_c, 0, 66, 113
1, 25801, Note_off_c, 0, 66, 113
1, 25935, Note_on_c, 0, 67, 99
1, 28849, Note_off_c, 0, 67, 99
1, 28891, Note_on_c, 0, 69, 106
1, 29298, Note_off_c, 0, 69, 106
1, 29560, Note_on_c, 0, 70, 95
1, 29938, Note_off_c, 0, 70, 95
1, 29938, Note_on_c, 0, 62, 82
1, 34455, Note_off_c, 0, 62, 82
1, 34513, Note_on_c, 0, 63, 96
1, 35095, Note_off_c, 0, 63, 96
1, 35095, Note_on_c, 0, 62, 85
1, 37834, Note_off_c, 0, 62, 85
1, 44041, Note_on_c, 0, 66, 92
1, 44390, Note_off_c, 0, 66, 92
1, 44593, Note_on_c, 0, 67, 109
1, 44942, Note_off_c, 0, 67, 109
1, 45146, Note_on_c, 0, 66, 103
1, 45845, Note_off_c, 0, 66, 103
1, 46029, Note_on_c, 0, 67, 96
1, 48098, Note_off_c, 0, 67, 96
1, 48729, Note_on_c, 0, 69, 113
1, 49078, Note_off_c, 0, 69, 113
1, 49427, Note_on_c, 0, 70, 110
1, 49805, Note_off_c, 0, 70, 110
1, 50154, Note_on_c, 0, 62, 89
1, 54263, Note_off_c, 0, 62, 89
1, 54321, Note_on_c, 0, 63, 107
1, 55253, Note_off_c, 0, 63, 107
1, 55311, Note_on_c, 0, 62, 88
1, 58196, Note_off_c, 0, 62, 88
1, 64551, Note_on_c, 0, 66, 101
1, 64667, Note_off_c, 0, 66, 101
1, 64882, Note_on_c, 0, 67, 115
1, 65377, Note_off_c, 0, 67, 115
1, 65710, Note_on_c, 0, 66, 115
1, 66205, Note_off_c, 0, 66, 115
1, 66372, Note_on_c, 0, 67, 105
1, 68091, Note_off_c, 0, 67, 105
1, 68888, Note_on_c, 0, 69, 110
1, 69645, Note_off_c, 0, 69, 110
1, 69703, Note_on_c, 0, 70, 101
1, 70489, Note_off_c, 0, 70, 101
1, 70634, Note_on_c, 0, 72, 94
1, 83194, Note_off_c, 0, 72, 94
1, 85059, Note_on_c, 0, 67, 105
1, 85845, Note_off_c, 0, 67, 105
1, 85903, Note_on_c, 0, 60, 107
1, 87709, Note_off_c, 0, 60, 107
1, 87738, Note_on_c, 0, 62, 113
1, 88670, Note_off_c, 0, 62, 113
1, 88728, Note_on_c, 0, 63, 116
1, 89456, Note_off_c, 0, 63, 116
1, 89456, Note_on_c, 0, 67, 108
1, 90709, Note_off_c, 0, 67, 108
1, 90818, Note_on_c, 0, 66, 91
1, 97283, Note_off_c, 0, 66, 91
1, 97760, Note_on_c, 0, 63, 108
1, 99042, Note_off_c, 0, 63, 108
1, 99126, Note_on_c, 0, 62, 104
1, 101447, Note_off_c, 0, 62, 104
1, 101459, Note_on_c, 0, 66, 99
1, 103732, Note_off_c, 0, 66, 99
1, 106150, Note_on_c, 0, 73, 119
1, 106645, Note_off_c, 0, 73, 119
1, 106674, Note_on_c, 0, 74, 118
1, 110542, Note_off_c, 0, 74, 118
1, 110542, Note_on_c, 0, 70, 113
1, 111661, Note_off_c, 0, 70, 113
1, 111661, Note_on_c, 0, 73, 116
1, 112158, Note_off_c, 0, 73, 116
1, 112240, Note_on_c, 0, 74, 108
1, 113483, Note_off_c, 0, 74, 108
1, 113524, Note_on_c, 0, 70, 105
1, 114477, Note_off_c, 0, 70, 105
1, 114642, Note_on_c, 0, 73, 116
1, 115139, Note_off_c, 0, 73, 116
1, 115221, Note_on_c, 0, 74, 113
1, 116878, Note_off_c, 0, 74, 113
1, 117002, Note_on_c, 0, 70, 105
1, 118245, Note_off_c, 0, 70, 105
1, 118410, Note_on_c, 0, 73, 116
1, 119073, Note_off_c, 0, 73, 116
1, 119446, Note_on_c, 0, 74, 112
1, 127113, Note_off_c, 0, 74, 112
1, 127386, Note_on_c, 0, 72, 108
1, 128056, Note_on_c, 0, 70, 95
1, 128056, Note_off_c, 0, 72, 108
1, 128697, Note_off_c, 0, 70, 95
1, 128697, Note_on_c, 0, 72, 111
1, 129396, Note_off_c, 0, 72, 111
1, 129483, Note_on_c, 0, 74, 101
1, 130065, Note_off_c, 0, 74, 101
1, 130181, Note_on_c, 0, 67, 97
1, 130997, Note_off_c, 0, 67, 97
1, 131171, Note_on_c, 0, 70, 101
1, 132074, Note_off_c, 0, 70, 101
1, 132219, Note_on_c, 0, 72, 112
1, 133413, Note_on_c, 0, 67, 96
1, 133413, Note_off_c, 0, 72, 112
1, 134316, Note_off_c, 0, 67, 96
1, 134665, Note_on_c, 0, 70, 93
1, 137229, Note_off_c, 0, 70, 93
1, 137229, Note_on_c, 0, 67, 81
1, 139939, Note_off_c, 0, 67, 81
1, 141308, Note_on_c, 0, 68, 91
1, 141890, Note_off_c, 0, 68, 91
1, 141948, Note_on_c, 0, 70, 76
1, 149816, Note_off_c, 0, 70, 76
1, 150049, Note_on_c, 0, 67, 87
1, 151447, Note_off_c, 0, 67, 87
1, 151505, Note_on_c, 0, 62, 96
1, 152466, Note_off_c, 0, 62, 96
1, 152524, Note_on_c, 0, 65, 94
1, 154913, Note_off_c, 0, 65, 94
1, 156370, Note_on_c, 0, 62, 106
1, 157215, Note_off_c, 0, 62, 106
1, 157331, Note_on_c, 0, 65, 115
1, 158117, Note_off_c, 0, 65, 115
1, 158437, Note_on_c, 0, 67, 116
1, 159194, Note_off_c, 0, 67, 116
1, 159310, Note_on_c, 0, 70, 110
1, 159834, Note_off_c, 0, 70, 110
1, 159950, Note_on_c, 0, 72, 117
1, 160882, Note_off_c, 0, 72, 117
1, 161086, Note_on_c, 0, 74, 113
1, 165253, Note_off_c, 0, 74, 113
1, 165486, Note_on_c, 0, 72, 116
1, 166826, Note_off_c, 0, 72, 116
1, 167029, Note_on_c, 0, 70, 83
1, 170147, Note_off_c, 0, 70, 83
1, 170234, Note_on_c, 0, 72, 110
1, 171749, Note_off_c, 0, 72, 110
1, 171749, Note_on_c, 0, 67, 106
1, 172652, Note_off_c, 0, 67, 106
1, 173030, Note_on_c, 0, 66, 105
1, 174224, Note_off_c, 0, 66, 105
1, 174282, Note_on_c, 0, 67, 86
1, 184948, Note_off_c, 0, 67, 86
1, 192058, Note_on_c, 0, 62, 103
1, 193107, Note_off_c, 0, 62, 103
1, 193107, Note_on_c, 0, 67, 97
1, 194505, Note_off_c, 0, 67, 97
1, 194913, Note_on_c, 0, 79, 82
1, 195903, Note_off_c, 0, 79, 82
1, 196369, Note_on_c, 0, 79, 86
1, 204878, Note_off_c, 0, 79, 86
1, 204878, Note_on_c, 0, 74, 117
1, 205985, Note_off_c, 0, 74, 117
1, 205985, Note_on_c, 0, 76, 111
1, 206917, Note_off_c, 0, 76, 111
1, 207033, Note_on_c, 0, 77, 118
1, 210879, Note_off_c, 0, 77, 118
1, 211228, Note_on_c, 0, 76, 119
1, 212160, Note_off_c, 0, 76, 119
1, 212334, Note_on_c, 0, 74, 91
1, 212800, Note_off_c, 0, 74, 91
1, 213091, Note_on_c, 0, 75, 9
1, 220784, Note_off_c, 0, 75, 9
1, 220957, Note_on_c, 0, 74, 107
1, 221288, Note_off_c, 0, 74, 107
1, 221288, Note_on_c, 0, 75, 99
1, 221619, Note_off_c, 0, 75, 99
1, 221784, Note_on_c, 0, 74, 115
1, 222074, Note_off_c, 0, 74, 115
1, 222198, Note_on_c, 0, 67, 104
1, 223565, Note_off_c, 0, 67, 104
1, 223565, Note_on_c, 0, 69, 77
1, 224269, Note_off_c, 0, 69, 77
1, 224434, Note_on_c, 0, 70, 75
1, 227874, Note_off_c, 0, 70, 75
1, 231272, Note_on_c, 0, 73, 99
1, 232059, Note_off_c, 0, 73, 99
1, 232266, Note_on_c, 0, 74, 97
1, 250917, Note_off_c, 0, 74, 97
1, 250958, Note_on_c, 0, 72, 115
1, 251413, Note_off_c, 0, 72, 115
1, 251413, Note_on_c, 0, 74, 118
1, 251786, Note_off_c, 0, 74, 118
1, 251827, Note_on_c, 0, 72, 117
1, 252821, Note_off_c, 0, 72, 117
1, 252862, Note_on_c, 0, 67, 105
1, 253815, Note_off_c, 0, 67, 105
1, 253897, Note_on_c, 0, 69, 91
1, 258829, Note_off_c, 0, 69, 91
1, 260404, Note_on_c, 0, 62, 105
1, 261771, Note_off_c, 0, 62, 105
1, 261853, Note_on_c, 0, 63, 103
1, 263883, Note_off_c, 0, 63, 103
1, 265540, Note_on_c, 0, 62, 106
1, 266659, Note_off_c, 0, 62, 106
1, 266783, Note_on_c, 0, 63, 117
1, 267943, Note_off_c, 0, 63, 117
1, 269144, Note_on_c, 0, 62, 110
1, 270387, Note_off_c, 0, 62, 110
1, 270552, Note_on_c, 0, 63, 118
1, 271380, Note_off_c, 0, 63, 118
1, 271587, Note_on_c, 0, 64, 121
1, 271960, Note_off_c, 0, 64, 121
1, 271960, Note_on_c, 0, 62, 121
1, 272457, Note_on_c, 0, 64, 116
1, 272457, Note_off_c, 0, 62, 121
1, 272871, Note_off_c, 0, 64, 116
1, 272995, Note_on_c, 0, 65, 120
1, 275979, Note_off_c, 0, 65, 120
1, 276269, Note_on_c, 0, 64, 112
1, 280579, Note_off_c, 0, 64, 112
1, 282029, Note_on_c, 0, 70, 104
1, 283355, Note_off_c, 0, 70, 104
1, 283479, Note_on_c, 0, 74, 115
1, 289364, Note_off_c, 0, 74, 115
1, 289364, Note_on_c, 0, 70, 101
1, 289944, Note_off_c, 0, 70, 101
1, 289985, Note_on_c, 0, 72, 120
1, 290896, Note_off_c, 0, 72, 120
1, 290896, Note_on_c, 0, 74, 122
1, 291517, Note_off_c, 0, 74, 122
1, 291575, Note_on_c, 0, 67, 110
1, 292245, Note_off_c, 0, 67, 110
1, 292303, Note_on_c, 0, 70, 99
1, 292915, Note_off_c, 0, 70, 99
1, 292944, Note_on_c, 0, 72, 120
1, 293730, Note_off_c, 0, 72, 120
1, 293730, Note_on_c, 0, 74, 119
1, 294516, Note_off_c, 0, 74, 119
1, 294574, Note_on_c, 0, 67, 105
1, 295273, Note_off_c, 0, 67, 105
1, 295564, Note_on_c, 0, 70, 93
1, 296525, Note_off_c, 0, 70, 93
1, 296641, Note_on_c, 0, 72, 112
1, 299700, Note_off_c, 0, 72, 112
1, 299758, Note_on_c, 0, 67, 91
1, 302031, Note_off_c, 0, 67, 91
1, 303604, Note_on_c, 0, 67, 106
1, 304128, Note_off_c, 0, 67, 106
1, 304331, Note_on_c, 0, 69, 106
1, 304913, Note_off_c, 0, 69, 106
1, 304913, Note_on_c, 0, 70, 96
1, 305991, Note_off_c, 0, 70, 96
1, 306179, Note_on_c, 0, 64, 109
1, 306697, Note_off_c, 0, 64, 109
1, 306759, Note_on_c, 0, 65, 106
1, 307132, Note_off_c, 0, 65, 106
1, 307277, Note_on_c, 0, 66, 106
1, 307712, Note_off_c, 0, 66, 106
1, 307898, Note_on_c, 0, 67, 104
1, 308436, Note_off_c, 0, 67, 104
1, 308518, Note_on_c, 0, 61, 97
1, 309098, Note_off_c, 0, 61, 97
1, 309118, Note_on_c, 0, 62, 106
1, 309553, Note_off_c, 0, 62, 106
1, 309677, Note_on_c, 0, 63, 111
1, 310215, Note_off_c, 0, 63, 111
1, 310277, Note_on_c, 0, 64, 110
1, 310753, Note_off_c, 0, 64, 110
1, 310856, Note_on_c, 0, 67, 113
1, 311498, Note_off_c, 0, 67, 113
1, 311539, Note_on_c, 0, 70, 102
1, 311974, Note_off_c, 0, 70, 102
1, 311974, Note_on_c, 0, 73, 112
1, 312678, Note_off_c, 0, 73, 112
1, 312678, Note_on_c, 0, 74, 113
1, 313299, Note_off_c, 0, 74, 113
1, 313319, Note_on_c, 0, 75, 123
1, 314065, Note_off_c, 0, 75, 123
1, 314065, Note_on_c, 0, 76, 117
1, 314624, Note_off_c, 0, 76, 117
1, 314748, Note_on_c, 0, 77, 111
1, 315266, Note_off_c, 0, 77, 111
1, 315286, Note_on_c, 0, 78, 113
1, 315928, Note_off_c, 0, 78, 113
1, 316010, Note_on_c, 0, 79, 116
1, 316714, Note_off_c, 0, 79, 116
1, 316755, Note_on_c, 0, 76, 120
1, 317252, Note_off_c, 0, 76, 120
1, 317314, Note_on_c, 0, 77, 115
1, 317852, Note_off_c, 0, 77, 115
1, 317872, Note_on_c, 0, 73, 115
1, 318431, Note_off_c, 0, 73, 115
1, 318493, Note_on_c, 0, 74, 117
1, 319176, Note_off_c, 0, 74, 117
1, 319238, Note_on_c, 0, 70, 102
1, 319673, Note_off_c, 0, 70, 102
1, 319673, Note_on_c, 0, 67, 110
1, 320481, Note_off_c, 0, 67, 110
1, 320563, Note_on_c, 0, 61, 102
1, 320936, Note_off_c, 0, 61, 102
1, 321018, Note_on_c, 0, 62, 112
1, 321639, Note_off_c, 0, 62, 112
1, 321701, Note_on_c, 0, 65, 109
1, 322260, Note_off_c, 0, 65, 109
1, 322260, Note_on_c, 0, 67, 116
1, 322923, Note_off_c, 0, 67, 116
1, 322985, Note_on_c, 0, 70, 107
1, 323565, Note_off_c, 0, 70, 107
1, 323565, Note_on_c, 0, 72, 118
1, 324331, Note_off_c, 0, 72, 118
1, 324538, Note_on_c, 0, 72, 116
1, 324890, Note_off_c, 0, 72, 116
1, 324972, Note_on_c, 0, 74, 121
1, 326484, Note_off_c, 0, 74, 121
1, 326608, Note_on_c, 0, 72, 122
1, 327582, Note_off_c, 0, 72, 122
1, 327623, Note_on_c, 0, 70, 105
1, 328928, Note_off_c, 0, 70, 105
1, 328928, Note_on_c, 0, 71, 97
1, 329218, Note_off_c, 0, 71, 97
1, 329321, Note_on_c, 0, 72, 119
1, 332284, Note_off_c, 0, 72, 119
1, 332698, Note_on_c, 0, 73, 91
1, 333216, Note_off_c, 0, 73, 91
1, 333443, Note_on_c, 0, 74, 123
1, 335163, Note_off_c, 0, 74, 123
1, 335225, Note_on_c, 0, 67, 90
1, 337960, Note_off_c, 0, 67, 90
1, 339141, Note_on_c, 0, 67, 83
1, 343119, Note_off_c, 0, 67, 83
1, 344424, Note_on_c, 0, 67, 89
1, 347553, Note_off_c, 0, 67, 89
1, 349335, Note_on_c, 0, 67, 89
1, 351884, Note_off_c, 0, 67, 89
1, 352858, Note_on_c, 0, 70, 108
1, 353728, Note_off_c, 0, 70, 108
1, 355385, Note_on_c, 0, 74, 109
1, 356089, Note_off_c, 0, 74, 109
1, 357000, Note_on_c, 0, 79, 104
1, 357828, Note_off_c, 0, 79, 104
1, 365433, Note_on_c, 0, 74, 62
1, 365578, Note_off_c, 0, 74, 62
1, 365930, Note_on_c, 0, 81, 108
1, 372644, Note_off_c, 0, 81, 108
1, 372685, Note_on_c, 0, 79, 110
1, 372809, Note_on_c, 0, 78, 113
1, 372809, Note_off_c, 0, 79, 110
1, 372995, Note_off_c, 0, 78, 113
1, 373005, Note_on_c, 0, 77, 119
1, 373067, Note_off_c, 0, 77, 119
1, 373077, Note_on_c, 0, 76, 123
1, 373325, Note_off_c, 0, 76, 123
1, 374796, Note_on_c, 0, 74, 127
1, 375334, Note_off_c, 0, 74, 127
1, 375789, Note_on_c, 0, 70, 84
1, 378047, Note_off_c, 0, 70, 84
1, 379995, Note_on_c, 0, 62, 100
1, 380699, Note_off_c, 0, 62, 100
1, 380947, Note_on_c, 0, 64, 107
1, 382294, Note_off_c, 0, 64, 107
1, 382542, Note_on_c, 0, 67, 109
1, 383453, Note_off_c, 0, 67, 109
1, 383453, Note_on_c, 0, 72, 103
1, 383991, Note_off_c, 0, 72, 103
1, 384115, Note_on_c, 0, 74, 113
1, 385938, Note_off_c, 0, 74, 113
1, 386186, Note_on_c, 0, 70, 111
1, 386932, Note_off_c, 0, 70, 111
1, 387678, Note_on_c, 0, 67, 100
1, 388527, Note_off_c, 0, 67, 100
1, 388568, Note_on_c, 0, 62, 86
1, 390018, Note_off_c, 0, 62, 86
1, 390764, Note_on_c, 0, 73, 66
1, 390909, Note_off_c, 0, 73, 66
1, 391116, Note_on_c, 0, 74, 114
1, 391944, Note_off_c, 0, 74, 114
1, 392275, Note_on_c, 0, 73, 79
1, 392544, Note_on_c, 0, 74, 116
1, 392544, Note_off_c, 0, 73, 79
1, 393310, Note_off_c, 0, 74, 116
1, 393372, Note_on_c, 0, 73, 91
1, 393620, Note_off_c, 0, 73, 91
1, 393702, Note_on_c, 0, 74, 117
1, 394406, Note_off_c, 0, 74, 117
1, 394861, Note_on_c, 0, 73, 83
1, 395192, Note_off_c, 0, 73, 83
1, 395233, Note_on_c, 0, 74, 118
1, 395999, Note_off_c, 0, 74, 118
1, 395999, Note_on_c, 0, 73, 111
1, 396330, Note_off_c, 0, 73, 111
1, 396330, Note_on_c, 0, 74, 115
1, 400702, Note_off_c, 0, 74, 115
1, 400702, Note_on_c, 0, 72, 113
1, 401033, Note_off_c, 0, 72, 113
1, 401033, Note_on_c, 0, 74, 114
1, 401260, Note_off_c, 0, 74, 114
1, 401384, Note_on_c, 0, 72, 108
1, 401839, Note_off_c, 0, 72, 108
1, 402046, Note_on_c, 0, 67, 100
1, 402646, Note_off_c, 0, 67, 100
1, 402936, Note_on_c, 0, 63, 103
1, 403661, Note_off_c, 0, 63, 103
1, 403661, Note_on_c, 0, 60, 93
1, 404738, Note_off_c, 0, 60, 93
1, 405256, Note_on_c, 0, 60, 90
1, 405856, Note_off_c, 0, 60, 90
1, 408860, Note_on_c, 0, 60, 104
1, 409253, Note_off_c, 0, 60, 104
1, 409253, Note_on_c, 0, 62, 107
1, 409584, Note_off_c, 0, 62, 107
1, 409584, Note_on_c, 0, 64, 109
1, 409687, Note_off_c, 0, 64, 109
1, 409707, Note_on_c, 0, 65, 117
1, 409893, Note_off_c, 0, 65, 117
1, 409996, Note_on_c, 0, 66, 120
1, 410203, Note_off_c, 0, 66, 120
1, 410265, Note_on_c, 0, 67, 101
1, 412503, Note_off_c, 0, 67, 101
1, 412730, Note_on_c, 0, 72, 122
1, 413745, Note_off_c, 0, 72, 122
1, 413745, Note_on_c, 0, 74, 119
1, 414781, Note_off_c, 0, 74, 119
1, 414905, Note_on_c, 0, 75, 124
1, 416148, Note_off_c, 0, 75, 124
1, 416168, Note_on_c, 0, 66, 95
1, 419255, Note_off_c, 0, 66, 95
1, 419503, Note_on_c, 0, 62, 109
1, 421223, Note_off_c, 0, 62, 109
1, 421554, Note_on_c, 0, 66, 113
1, 422818, Note_off_c, 0, 66, 113
1, 423108, Note_on_c, 0, 69, 101
1, 423978, Note_off_c, 0, 69, 101
1, 423998, Note_on_c, 0, 74, 109
1, 424267, Note_off_c, 0, 74, 109
1, 424329, Note_on_c, 0, 75, 119
1, 426629, Note_off_c, 0, 75, 119
1, 426670, Note_on_c, 0, 66, 93
1, 429136, Note_off_c, 0, 66, 93
1, 430503, Note_on_c, 0, 74, 9
1, 431808, Note_off_c, 0, 74, 9
1, 432015, Note_on_c, 0, 75, 119
1, 437050, Note_off_c, 0, 75, 119
1, 437050, Note_on_c, 0, 74, 115
1, 438293, Note_off_c, 0, 74, 115
1, 438375, Note_on_c, 0, 70, 88
1, 441918, Note_off_c, 0, 70, 88
1, 442353, Note_on_c, 0, 74, 99
1, 447057, Note_off_c, 0, 74, 99
1, 448735, Note_on_c, 0, 73, 96
1, 449108, Note_off_c, 0, 73, 96
1, 449128, Note_on_c, 0, 74, 117
1, 450060, Note_off_c, 0, 74, 117
1, 450412, Note_on_c, 0, 72, 110
1, 451406, Note_off_c, 0, 72, 110
1, 451426, Note_on_c, 0, 70, 93
1, 452337, Note_off_c, 0, 70, 93
1, 452647, Note_on_c, 0, 72, 108
1, 453641, Note_off_c, 0, 72, 108
1, 453703, Note_on_c, 0, 71, 87
1, 454076, Note_off_c, 0, 71, 87
1, 454096, Note_on_c, 0, 72, 108
1, 456562, Note_off_c, 0, 72, 108
1, 456582, Note_on_c, 0, 74, 115
1, 457535, Note_off_c, 0, 74, 115
1, 457576, Note_on_c, 0, 70, 80
1, 460808, Note_off_c, 0, 70, 80
1, 461802, Note_on_c, 0, 67, 81
1, 465407, Note_off_c, 0, 67, 81
1, 466961, Note_on_c, 0, 67, 80
1, 470256, Note_off_c, 0, 67, 80
1, 472038, Note_on_c, 0, 69, 90
1, 472493, Note_off_c, 0, 69, 90
1, 472513, Note_on_c, 0, 70, 84
1, 475248, Note_off_c, 0, 70, 84
1, 477237, Note_on_c, 0, 69, 93
1, 477423, Note_off_c, 0, 69, 93
1, 477547, Note_on_c, 0, 70, 77
1, 481380, Note_off_c, 0, 70, 77
1, 482354, Note_on_c, 0, 69, 94
1, 482581, Note_off_c, 0, 69, 94
1, 482601, Note_on_c, 0, 70, 87
1, 485357, Note_off_c, 0, 70, 87
1, 487553, Note_on_c, 0, 69, 103
1, 487801, Note_off_c, 0, 69, 103
1, 487904, Note_on_c, 0, 70, 85
1, 490245, Note_off_c, 0, 70, 85
1, 492130, Note_on_c, 0, 73, 57
1, 492461, Note_off_c, 0, 73, 57
1, 492481, Note_on_c, 0, 74, 116
1, 493268, Note_off_c, 0, 74, 116
1, 493309, Note_on_c, 0, 72, 104
1, 495588, Note_off_c, 0, 72, 104
1, 497432, Note_on_c, 0, 74, 109
1, 498260, Note_off_c, 0, 74, 109
1, 498260, Note_on_c, 0, 67, 84
1, 501140, Note_off_c, 0, 67, 84
1, 502632, Note_on_c, 0, 70, 90
1, 503460, Note_off_c, 0, 70, 90
1, 503605, Note_on_c, 0, 74, 112
1, 504558, Note_off_c, 0, 74, 112
1, 505179, Note_on_c, 0, 70, 111
1, 505966, Note_off_c, 0, 70, 111
1, 506152, Note_on_c, 0, 74, 116
1, 507022, Note_off_c, 0, 74, 116
1, 507519, Note_on_c, 0, 74, 118
1, 508347, Note_off_c, 0, 74, 118
1, 508720, Note_on_c, 0, 74, 116
1, 509569, Note_off_c, 0, 74, 116
1, 510128, Note_on_c, 0, 74, 115
1, 510418, Note_off_c, 0, 74, 115
1, 510459, Note_on_c, 0, 75, 122
1, 511080, Note_off_c, 0, 75, 122
1, 511411, Note_on_c, 0, 74, 108
1, 512239, Note_off_c, 0, 74, 108
1, 512777, Note_on_c, 0, 74, 78
1, 512922, Note_off_c, 0, 74, 78
1, 513067, Note_on_c, 0, 75, 120
1, 513792, Note_off_c, 0, 75, 120
1, 513978, Note_on_c, 0, 74, 107
1, 514765, Note_off_c, 0, 74, 107
1, 515283, Note_on_c, 0, 74, 80
1, 515469, Note_off_c, 0, 74, 80
1, 515489, Note_on_c, 0, 75, 118
1, 516297, Note_off_c, 0, 75, 118
1, 516752, Note_on_c, 0, 76, 120
1, 517477, Note_off_c, 0, 76, 120
1, 518098, Note_on_c, 0, 77, 119
1, 519154, Note_off_c, 0, 77, 119
1, 519278, Note_on_c, 0, 76, 114
1, 524334, Note_off_c, 0, 76, 114
1, 524334, Note_on_c, 0, 70, 82
1, 528167, Note_off_c, 0, 70, 82
1, 529659, Note_on_c, 0, 76, 111
1, 531234, Note_off_c, 0, 76, 111
1, 531316, Note_on_c, 0, 79, 114
1, 532227, Note_off_c, 0, 79, 114
1, 532227, Note_on_c, 0, 76, 116
1, 533698, Note_off_c, 0, 76, 116
1, 533718, Note_on_c, 0, 70, 104
1, 534795, Note_off_c, 0, 70, 104
1, 534795, Note_on_c, 0, 72, 109
1, 537240, Note_off_c, 0, 72, 109
1, 537322, Note_on_c, 0, 72, 110
1, 537467, Note_off_c, 0, 72, 110
1, 537467, Note_on_c, 0, 74, 111
1, 538441, Note_off_c, 0, 74, 111
1, 538876, Note_on_c, 0, 67, 104
1, 539850, Note_off_c, 0, 67, 104
1, 539850, Note_on_c, 0, 70, 90
1, 542357, Note_off_c, 0, 70, 90
1, 542522, Note_on_c, 0, 72, 108
1, 543413, Note_off_c, 0, 72, 108
1, 544076, Note_on_c, 0, 67, 91
1, 546666, Note_off_c, 0, 67, 91
1, 548013, Note_on_c, 0, 80, 104
1, 548613, Note_off_c, 0, 80, 104
1, 548716, Note_on_c, 0, 81, 91
1, 552342, Note_off_c, 0, 81, 91
1, 552404, Note_on_c, 0, 79, 102
1, 552735, Note_off_c, 0, 79, 102
1, 552797, Note_on_c, 0, 81, 92
1, 552921, Note_off_c, 0, 81, 92
1, 553107, Note_on_c, 0, 79, 114
1, 553562, Note_off_c, 0, 79, 114
1, 553665, Note_on_c, 0, 76, 110
1, 554224, Note_off_c, 0, 76, 110
1, 554224, Note_on_c, 0, 74, 98
1, 554804, Note_off_c, 0, 74, 98
1, 554866, Note_on_c, 0, 70, 95
1, 555280, Note_off_c, 0, 70, 95
1, 555383, Note_on_c, 0, 69, 84
1, 557227, Note_off_c, 0, 69, 84
1, 559838, Note_on_c, 0, 67, 114
1, 560687, Note_off_c, 0, 67, 114
1, 561163, Note_on_c, 0, 72, 118
1, 561971, Note_off_c, 0, 72, 118
1, 562613, Note_on_c, 0, 72, 120
1, 563110, Note_off_c, 0, 72, 120
1, 563420, Note_on_c, 0, 72, 118
1, 564311, Note_off_c, 0, 72, 118
1, 564559, Note_on_c, 0, 72, 113
1, 565077, Note_off_c, 0, 72, 113
1, 565367, Note_on_c, 0, 72, 112
1, 568454, Note_off_c, 0, 72, 112
1, 568806, Note_on_c, 0, 67, 97
1, 569344, Note_off_c, 0, 67, 97
1, 569654, Note_on_c, 0, 63, 114
1, 570296, Note_off_c, 0, 63, 114
1, 570378, Note_on_c, 0, 62, 101
1, 570833, Note_off_c, 0, 62, 101
1, 570915, Note_on_c, 0, 60, 93
1, 573256, Note_off_c, 0, 60, 93
1, 576944, Note_on_c, 0, 67, 108
1, 577503, Note_off_c, 0, 67, 108
1, 577979, Note_on_c, 0, 69, 94
1, 578766, Note_off_c, 0, 69, 94
1, 578848, Note_on_c, 0, 70, 92
1, 579345, Note_off_c, 0, 70, 92
1, 579593, Note_on_c, 0, 72, 111
1, 580276, Note_off_c, 0, 72, 111
1, 580379, Note_on_c, 0, 69, 85
1, 583404, Note_off_c, 0, 69, 85
1, 583590, Note_on_c, 0, 62, 104
1, 585144, Note_off_c, 0, 62, 104
1, 585268, Note_on_c, 0, 63, 111
1, 586324, Note_off_c, 0, 63, 111
1, 586324, Note_on_c, 0, 60, 96
1, 589080, Note_off_c, 0, 60, 96
1, 589162, Note_on_c, 0, 62, 107
1, 590446, Note_off_c, 0, 62, 107
1, 590508, Note_on_c, 0, 63, 111
1, 591564, Note_off_c, 0, 63, 111
1, 591999, Note_on_c, 0, 57, 110
1, 594465, Note_off_c, 0, 57, 110
1, 594465, Note_on_c, 0, 60, 105
1, 594983, Note_off_c, 0, 60, 105
1, 595065, Note_on_c, 0, 63, 109
1, 595583, Note_off_c, 0, 63, 109
1, 595665, Note_on_c, 0, 66, 108
1, 596224, Note_off_c, 0, 66, 108
1, 596265, Note_on_c, 0, 69, 101
1, 598005, Note_off_c, 0, 69, 101
1, 599227, Note_on_c, 0, 74, 106
1, 600283, Note_off_c, 0, 74, 106
1, 600531, Note_on_c, 0, 75, 107
1, 601732, Note_off_c, 0, 75, 107
1, 601939, Note_on_c, 0, 74, 109
1, 606591, Note_off_c, 0, 74, 109
1, 606642, Note_on_c, 0, 70, 91
1, 609937, Note_off_c, 0, 70, 91
1, 609957, Note_on_c, 0, 73, 108
1, 610371, Note_off_c, 0, 73, 108
1, 610453, Note_on_c, 0, 74, 111
1, 612608, Note_off_c, 0, 74, 111
1, 614970, Note_on_c, 0, 73, 92
1, 615260, Note_off_c, 0, 73, 92
1, 615405, Note_on_c, 0, 74, 114
1, 615881, Note_off_c, 0, 74, 114
1, 615943, Note_on_c, 0, 72, 111
1, 616150, Note_off_c, 0, 72, 111
1, 616212, Note_on_c, 0, 74, 117
1, 616377, Note_off_c, 0, 74, 117
1, 616501, Note_on_c, 0, 72, 120
1, 616791, Note_off_c, 0, 72, 120
1, 617060, Note_on_c, 0, 70, 106
1, 617329, Note_off_c, 0, 70, 106
1, 617577, Note_on_c, 0, 71, 99
1, 617825, Note_off_c, 0, 71, 99
1, 618115, Note_on_c, 0, 74, 117
1, 618736, Note_off_c, 0, 74, 117
1, 618881, Note_on_c, 0, 72, 115
1, 619088, Note_off_c, 0, 72, 115
1, 619088, Note_on_c, 0, 74, 119
1, 619315, Note_off_c, 0, 74, 119
1, 619377, Note_on_c, 0, 72, 116
1, 619708, Note_off_c, 0, 72, 116
1, 619770, Note_on_c, 0, 70, 110
1, 620225, Note_off_c, 0, 70, 110
1, 620328, Note_on_c, 0, 72, 115
1, 620783, Note_off_c, 0, 72, 115
1, 620824, Note_on_c, 0, 74, 116
1, 621694, Note_off_c, 0, 74, 116
1, 621714, Note_on_c, 0, 72, 97
1, 621900, Note_off_c, 0, 72, 97
1, 621962, Note_on_c, 0, 74, 116
1, 622127, Note_off_c, 0, 74, 116
1, 622168, Note_on_c, 0, 72, 116
1, 622499, Note_off_c, 0, 72, 116
1, 622685, Note_on_c, 0, 70, 97
1, 623244, Note_off_c, 0, 70, 97
1, 623347, Note_on_c, 0, 72, 116
1, 624093, Note_off_c, 0, 72, 116
1, 624093, Note_on_c, 0, 74, 109
1, 624776, Note_off_c, 0, 74, 109
1, 624817, Note_on_c, 0, 67, 101
1, 625708, Note_off_c, 0, 67, 101
1, 625873, Note_on_c, 0, 70, 100
1, 626784, Note_off_c, 0, 70, 100
1, 626908, Note_on_c, 0, 72, 114
1, 628047, Note_off_c, 0, 72, 114
1, 628047, Note_on_c, 0, 67, 93
1, 630450, Note_off_c, 0, 67, 93
1, 631506, Note_on_c, 0, 67, 107
1, 632169, Note_off_c, 0, 67, 107
1, 632438, Note_on_c, 0, 69, 102
1, 633101, Note_off_c, 0, 69, 102
1, 633339, Note_on_c, 0, 70, 88
1, 637349, Note_off_c, 0, 70, 88
1, 637349, Note_on_c, 0, 64, 99
1, 639898, Note_off_c, 0, 64, 99
1, 643255, Note_on_c, 0, 65, 9
1, 645969, Note_off_c, 0, 65, 9
1, 646238, Note_on_c, 0, 62, 106
1, 646859, Note_off_c, 0, 62, 106
1, 647004, Note_on_c, 0, 65, 112
1, 647687, Note_off_c, 0, 65, 112
1, 647749, Note_on_c, 0, 67, 109
1, 649303, Note_off_c, 0, 67, 109
1, 651810, Note_on_c, 0, 67, 93
1, 652431, Note_off_c, 0, 67, 93
1, 652576, Note_on_c, 0, 70, 110
1, 653135, Note_off_c, 0, 70, 110
1, 653217, Note_on_c, 0, 72, 116
1, 653859, Note_off_c, 0, 72, 116
1, 654066, Note_on_c, 0, 74, 110
1, 655641, Note_off_c, 0, 74, 110
1, 655723, Note_on_c, 0, 72, 100
1, 655992, Note_off_c, 0, 72, 100
1, 655992, Note_on_c, 0, 75, 118
1, 657940, Note_off_c, 0, 75, 118
1, 658126, Note_on_c, 0, 74, 117
1, 658333, Note_off_c, 0, 74, 117
1, 658395, Note_on_c, 0, 75, 114
1, 658622, Note_off_c, 0, 75, 114
1, 658684, Note_on_c, 0, 74, 120
1, 658911, Note_off_c, 0, 74, 120
1, 659014, Note_on_c, 0, 72, 121
1, 659532, Note_off_c, 0, 72, 121
1, 659656, Note_on_c, 0, 70, 98
1, 659987, Note_off_c, 0, 70, 98
1, 660090, Note_on_c, 0, 69, 93
1, 660421, Note_off_c, 0, 69, 93
1, 660462, Note_on_c, 0, 67, 100
1, 661000, Note_off_c, 0, 67, 100
1, 661082, Note_on_c, 0, 66, 95
1, 661786, Note_off_c, 0, 66, 95
1, 661931, Note_on_c, 0, 69, 98
1, 666407, Note_on_c, 0, 68, 111
1, 666407, Note_off_c, 0, 69, 98
1, 666655, Note_off_c, 0, 68, 111
1, 666737, Note_on_c, 0, 67, 106
1, 667006, Note_off_c, 0, 67, 106
1, 667088, Note_on_c, 0, 66, 110
1, 667378, Note_off_c, 0, 66, 110
1, 667440, Note_on_c, 0, 64, 112
1, 668082, Note_off_c, 0, 64, 112
1, 668082, Note_on_c, 0, 63, 106
1, 668372, Note_off_c, 0, 63, 106
1, 668434, Note_on_c, 0, 62, 100
1, 672226, Note_off_c, 0, 62, 100
1, 673573, Note_on_c, 0, 61, 106
1, 673987, Note_off_c, 0, 61, 106
1, 674028, Note_on_c, 0, 62, 103
1, 674836, Note_off_c, 0, 62, 103
1, 674981, Note_on_c, 0, 66, 118
1, 675478, Note_off_c, 0, 66, 118
1, 675602, Note_on_c, 0, 67, 104
1, 676845, Note_off_c, 0, 67, 104
1, 676886, Note_on_c, 0, 66, 105
1, 677176, Note_off_c, 0, 66, 105
1, 677238, Note_on_c, 0, 65, 107
1, 677528, Note_off_c, 0, 65, 107
1, 677548, Note_on_c, 0, 64, 104
1, 677900, Note_off_c, 0, 64, 104
1, 677941, Note_on_c, 0, 62, 98
1, 678355, Note_off_c, 0, 62, 98
1, 678355, Note_on_c, 0, 61, 97
1, 678810, Note_off_c, 0, 61, 97
1, 678810, Note_on_c, 0, 59, 94
1, 679286, Note_off_c, 0, 59, 94
1, 679348, Note_on_c, 0, 60, 100
1, 679845, Note_off_c, 0, 60, 100
1, 679865, Note_on_c, 0, 62, 103
1, 680238, Note_off_c, 0, 62, 103
1, 680258, Note_on_c, 0, 65, 103
1, 680651, Note_off_c, 0, 65, 103
1, 680651, Note_on_c, 0, 69, 94
1, 680858, Note_off_c, 0, 69, 94
1, 680858, Note_on_c, 0, 74, 103
1, 681189, Note_off_c, 0, 74, 103
1, 681230, Note_on_c, 0, 76, 114
1, 683302, Note_off_c, 0, 76, 114
1, 683467, Note_on_c, 0, 77, 108
1, 685746, Note_off_c, 0, 77, 108
1, 686077, Note_on_c, 0, 79, 115
1, 687838, Note_off_c, 0, 79, 115
1, 687879, Note_on_c, 0, 78, 112
1, 688231, Note_off_c, 0, 78, 112
1, 688334, Note_on_c, 0, 79, 99
1, 697245, Note_off_c, 0, 79, 99
1, 697245, End_track
0, 0, End_of_file
