0, 0, Header, 1, 1, 192
1, 0, Start_track
1, 0, Note_on_c, 0, 73, 87
1, 103, Note_off_c, 0, 73, 87
1, 124, Note_on_c, 0, 70, 54
1, 198, Note_off_c, 0, 70, 54
1, 205, Note_on_c, 0, 72, 89
1, 329, Note_off_c, 0, 72, 89
1, 392, Note_on_c, 0, 73, 97
1, 530, Note_on_c, 0, 74, 95
1, 530, Note_off_c, 0, 73, 97
1, 640, Note_off_c, 0, 74, 95
1, 714, Note_on_c, 0, 75, 99
1, 1275, Note_off_c, 0, 75, 99
1, 1285, Note_on_c, 0, 72, 110
1, 1363, Note_off_c, 0, 72, 110
1, 1366, Note_on_c, 0, 75, 108
1, 1465, Note_off_c, 0, 75, 108
1, 1482, Note_on_c, 0, 72, 109
1, 1514, Title_t, "Melody"
1, 1514, Tempo, 220588
1, 1514, Key_signature, -4, "major"
1, 1514, Time_signature, 4, 2, 24, 8
1, 1563, Note_off_c, 0, 72, 109
1, 1573, Note_on_c, 0, 70, 99
1, 1668, Note_off_c, 0, 70, 99
1, 1682, Note_on_c, 0, 68, 108
1, 1760, Note_off_c, 0, 68, 108
1, 1777, Note_on_c, 0, 65, 111
1, 1858, Note_off_c, 0, 65, 111
1, 1879, Note_on_c, 0, 68, 106
1, 2326, Note_off_c, 0, 68, 106
1, 2336, Note_on_c, 0, 65, 121
1, 2460, Note_off_c, 0, 65, 121
1, 2474, Note_on_c, 0, 68, 108
1, 2783, Note_off_c, 0, 68, 108
1, 3233, Note_on_c, 0, 68, 114
1, 3323, Note_off_c, 0, 68, 114
1, 3328, Note_on_c, 0, 65, 116
1, 3403, Note_off_c, 0, 65, 116
1, 3403, Note_on_c, 0, 68, 112
1, 3468, Note_off_c, 0, 68, 112
1, 3468, Note_on_c, 0, 65, 116
1, 3538, Note_off_c, 0, 65, 116
1, 3543, Note_on_c, 0, 61, 125
1, 3623, Note_off_c, 0, 61, 125
1, 3633, Note_on_c, 0, 68, 119
1, 3729, Note_off_c, 0, 68, 119
1, 3734, Note_on_c, 0, 65, 117
1, 3789, Note_off_c, 0, 65, 117
1, 3789, Note_on_c, 0, 68, 113
1, 3829, Note_off_c, 0, 68, 113
1, 3829, Note_on_c, 0, 65, 118
1, 3919, Note_off_c, 0, 65, 118
1, 3919, Note_on_c, 0, 61, 127
1, 4009, Note_off_c, 0, 61, 127
1, 4019, Note_on_c, 0, 68, 114
1, 4099, Note_on_c, 0, 65, 113
1, 4099, Note_off_c, 0, 68, 114
1, 4159, Note_off_c, 0, 65, 113
1, 4174, Note_on_c, 0, 68, 111
1, 4209, Note_off_c, 0, 68, 111
1, 4209, Note_on_c, 0, 65, 116
1, 4274, Note_off_c, 0, 65, 116
1, 4294, Note_on_c, 0, 61, 126
1, 4379, Note_off_c, 0, 61, 126
1, 4384, Note_on_c, 0, 68, 116
1, 4449, Note_off_c, 0, 68, 116
1, 4459, Note_on_c, 0, 65, 113
1, 4499, Note_off_c, 0, 65, 113
1, 4514, Note_on_c, 0, 68, 108
1, 4569, Note_on_c, 0, 65, 114
1, 4569, Note_off_c, 0, 68, 108
1, 4639, Note_off_c, 0, 65, 114
1, 4649, Note_on_c, 0, 61, 126
1, 4745, Note_off_c, 0, 61, 126
1, 4760, Note_on_c, 0, 68, 112
1, 4840, Note_off_c, 0, 68, 112
1, 4845, Note_on_c, 0, 65, 113
1, 4890, Note_off_c, 0, 65, 113
1, 4900, Note_on_c, 0, 68, 110
1, 4945, Note_off_c, 0, 68, 110
1, 4945, Note_on_c, 0, 65, 115
1, 5025, Note_off_c, 0, 65, 115
1, 5035, Note_on_c, 0, 61, 125
1, 5110, Note_off_c, 0, 61, 125
1, 5125, Note_on_c, 0, 68, 115
1, 5195, Note_off_c, 0, 68, 115
1, 5210, Note_on_c, 0, 65, 116
1, 5265, Note_off_c, 0, 65, 116
1, 5275, Note_on_c, 0, 68, 110
1, 5317, Note_off_c, 0, 68, 110
1, 5324, Note_on_c, 0, 65, 118
1, 5402, Note_off_c, 0, 65, 118
1, 5409, Note_on_c, 0, 61, 124
1, 5497, Note_off_c, 0, 61, 124
1, 5500, Note_on_c, 0, 68, 116
1, 5588, Note_off_c, 0, 68, 116
1, 5595, Note_on_c, 0, 65, 113
1, 5658, Note_off_c, 0, 65, 113
1, 5658, Note_on_c, 0, 68, 111
1, 5707, Note_off_c, 0, 68, 111
1, 5707, Note_on_c, 0, 65, 117
1, 5778, Note_off_c, 0, 65, 117
1, 5778, Note_on_c, 0, 61, 125
1, 5881, Note_off_c, 0, 61, 125
1, 5888, Note_on_c, 0, 68, 117
1, 5969, Note_off_c, 0, 68, 117
1, 5972, Note_on_c, 0, 65, 111
1, 6021, Note_off_c, 0, 65, 111
1, 6021, Note_on_c, 0, 68, 109
1, 6084, Note_off_c, 0, 68, 109
1, 6084, Note_on_c, 0, 65, 113
1, 6158, Note_off_c, 0, 65, 113
1, 6168, Note_on_c, 0, 60, 123
1, 6267, Note_off_c, 0, 60, 123
1, 6267, Note_on_c, 0, 68, 116
1, 6345, Note_off_c, 0, 68, 116
1, 6355, Note_on_c, 0, 65, 112
1, 6408, Note_off_c, 0, 65, 112
1, 6411, Note_on_c, 0, 68, 108
1, 6460, Note_off_c, 0, 68, 108
1, 6460, Note_on_c, 0, 65, 115
1, 6538, Note_off_c, 0, 65, 115
1, 6538, Note_on_c, 0, 62, 122
1, 6630, Note_off_c, 0, 62, 122
1, 6640, Note_on_c, 0, 68, 116
1, 6718, Note_off_c, 0, 68, 116
1, 6725, Note_on_c, 0, 65, 116
1, 6778, Note_off_c, 0, 65, 116
1, 6778, Note_on_c, 0, 68, 112
1, 6841, Note_off_c, 0, 68, 112
1, 6841, Note_on_c, 0, 65, 115
1, 6926, Note_off_c, 0, 65, 115
1, 6933, Note_on_c, 0, 60, 117
1, 7032, Note_off_c, 0, 60, 117
1, 7032, Note_on_c, 0, 68, 116
1, 7110, Note_on_c, 0, 65, 111
1, 7110, Note_off_c, 0, 68, 116
1, 7166, Note_off_c, 0, 65, 111
1, 7166, Note_on_c, 0, 68, 111
1, 7219, Note_on_c, 0, 65, 115
1, 7219, Note_off_c, 0, 68, 111
1, 7304, Note_off_c, 0, 65, 115
1, 7311, Note_on_c, 0, 62, 121
1, 7403, Note_off_c, 0, 62, 121
1, 7406, Note_on_c, 0, 68, 117
1, 7494, Note_off_c, 0, 68, 117
1, 7494, Note_on_c, 0, 65, 112
1, 7550, Note_off_c, 0, 65, 112
1, 7550, Note_on_c, 0, 68, 108
1, 7599, Note_off_c, 0, 68, 108
1, 7599, Note_on_c, 0, 65, 115
1, 7652, Note_off_c, 0, 65, 115
1, 7655, Note_on_c, 0, 61, 121
1, 7736, Note_off_c, 0, 61, 121
1, 7736, Note_on_c, 0, 68, 117
1, 7824, Note_off_c, 0, 68, 117
1, 7831, Note_on_c, 0, 65, 114
1, 7894, Note_off_c, 0, 65, 114
1, 7894, Note_on_c, 0, 68, 109
1, 7929, Note_on_c, 0, 65, 114
1, 7929, Note_off_c, 0, 68, 109
1, 8007, Note_off_c, 0, 65, 114
1, 8010, Note_on_c, 0, 62, 121
1, 8109, Note_off_c, 0, 62, 121
1, 8109, Note_on_c, 0, 68, 117
1, 8172, Note_off_c, 0, 68, 117
1, 8189, Note_on_c, 0, 65, 114
1, 8235, Note_off_c, 0, 65, 114
1, 8249, Note_on_c, 0, 68, 106
1, 8298, Note_on_c, 0, 65, 114
1, 8298, Note_off_c, 0, 68, 106
1, 8379, Note_off_c, 0, 65, 114
1, 8386, Note_on_c, 0, 60, 125
1, 8485, Note_off_c, 0, 60, 125
1, 8492, Note_on_c, 0, 68, 118
1, 8584, Note_off_c, 0, 68, 118
1, 8584, Note_on_c, 0, 65, 109
1, 8633, Note_off_c, 0, 65, 109
1, 8636, Note_on_c, 0, 68, 112
1, 8692, Note_off_c, 0, 68, 112
1, 8695, Note_on_c, 0, 65, 119
1, 8744, Note_off_c, 0, 65, 119
1, 8744, Note_on_c, 0, 62, 120
1, 8815, Note_off_c, 0, 62, 120
1, 9159, Note_on_c, 0, 63, 121
1, 9258, Note_off_c, 0, 63, 121
1, 9258, Note_on_c, 0, 65, 120
1, 9353, Note_off_c, 0, 65, 120
1, 9353, Note_on_c, 0, 63, 118
1, 9438, Note_off_c, 0, 63, 118
1, 9445, Note_on_c, 0, 65, 118
1, 9537, Note_off_c, 0, 65, 118
1, 9547, Note_on_c, 0, 60, 120
1, 9646, Note_off_c, 0, 60, 120
1, 9646, Note_on_c, 0, 63, 118
1, 9720, Note_on_c, 0, 65, 116
1, 9720, Note_off_c, 0, 63, 118
1, 9808, Note_off_c, 0, 65, 116
1, 9808, Note_on_c, 0, 68, 112
1, 9886, Note_off_c, 0, 68, 112
1, 9893, Note_on_c, 0, 72, 123
1, 9996, Note_off_c, 0, 72, 123
1, 9999, Note_on_c, 0, 75, 121
1, 10094, Note_off_c, 0, 75, 121
1, 10097, Note_on_c, 0, 77, 121
1, 10175, Note_off_c, 0, 77, 121
1, 10182, Note_on_c, 0, 80, 120
1, 10260, Note_off_c, 0, 80, 120
1, 10267, Note_on_c, 0, 77, 121
1, 10355, Note_off_c, 0, 77, 121
1, 10355, Note_on_c, 0, 75, 123
1, 10450, Note_off_c, 0, 75, 123
1, 10453, Note_on_c, 0, 72, 122
1, 10541, Note_off_c, 0, 72, 122
1, 10548, Note_on_c, 0, 68, 114
1, 10629, Note_off_c, 0, 68, 114
1, 10632, Note_on_c, 0, 72, 114
1, 11040, Note_off_c, 0, 72, 114
1, 11114, Note_on_c, 0, 79, 117
1, 11948, Note_off_c, 0, 79, 117
1, 11958, Note_on_c, 0, 77, 123
1, 12093, Note_off_c, 0, 77, 123
1, 12096, Note_on_c, 0, 79, 118
1, 12216, Note_off_c, 0, 79, 118
1, 12223, Note_on_c, 0, 80, 120
1, 12343, Note_off_c, 0, 80, 120
1, 12357, Note_on_c, 0, 76, 122
1, 12470, Note_off_c, 0, 76, 122
1, 12473, Note_on_c, 0, 79, 121
1, 12618, Note_off_c, 0, 79, 121
1, 12664, Note_on_c, 0, 76, 121
1, 12859, Note_off_c, 0, 76, 121
1, 12865, Note_on_c, 0, 78, 119
1, 13007, Note_off_c, 0, 78, 119
1, 13011, Note_on_c, 0, 79, 116
1, 13636, Note_off_c, 0, 79, 116
1, 13650, Note_on_c, 0, 70, 106
1, 13713, Note_off_c, 0, 70, 106
1, 13723, Note_on_c, 0, 76, 119
1, 13833, Note_off_c, 0, 76, 119
1, 13836, Note_on_c, 0, 77, 122
1, 13914, Note_off_c, 0, 77, 122
1, 13928, Note_on_c, 0, 73, 123
1, 14027, Note_off_c, 0, 73, 123
1, 14037, Note_on_c, 0, 70, 109
1, 14104, Note_off_c, 0, 70, 109
1, 14111, Note_on_c, 0, 67, 112
1, 14199, Note_off_c, 0, 67, 112
1, 14209, Note_on_c, 0, 65, 117
1, 14280, Note_off_c, 0, 65, 117
1, 14287, Note_on_c, 0, 61, 111
1, 14390, Note_off_c, 0, 61, 111
1, 14390, Note_on_c, 0, 63, 119
1, 14489, Note_off_c, 0, 63, 119
1, 14499, Note_on_c, 0, 65, 111
1, 14772, Note_off_c, 0, 65, 111
1, 14775, Note_on_c, 0, 67, 111
1, 14860, Note_off_c, 0, 67, 111
1, 15353, Note_on_c, 0, 68, 108
1, 15424, Note_off_c, 0, 68, 108
1, 15441, Note_on_c, 0, 65, 116
1, 15519, Note_off_c, 0, 65, 116
1, 15529, Note_on_c, 0, 68, 107
1, 15578, Note_off_c, 0, 68, 107
1, 15581, Note_on_c, 0, 65, 117
1, 15637, Note_off_c, 0, 65, 117
1, 15637, Note_on_c, 0, 61, 123
1, 15740, Note_on_c, 0, 68, 116
1, 15740, Note_off_c, 0, 61, 123
1, 15839, Note_off_c, 0, 68, 116
1, 15842, Note_on_c, 0, 65, 111
1, 15884, Note_off_c, 0, 65, 111
1, 15891, Note_on_c, 0, 68, 105
1, 15933, Note_off_c, 0, 68, 105
1, 15936, Note_on_c, 0, 65, 111
1, 16017, Note_off_c, 0, 65, 111
1, 16020, Note_on_c, 0, 61, 121
1, 16101, Note_off_c, 0, 61, 121
1, 16111, Note_on_c, 0, 68, 117
1, 16192, Note_off_c, 0, 68, 117
1, 16202, Note_on_c, 0, 65, 113
1, 16255, Note_off_c, 0, 65, 113
1, 16255, Note_on_c, 0, 68, 110
1, 16311, Note_off_c, 0, 68, 110
1, 16314, Note_on_c, 0, 65, 115
1, 16388, Note_off_c, 0, 65, 115
1, 16391, Note_on_c, 0, 61, 123
1, 16494, Note_off_c, 0, 61, 123
1, 16497, Note_on_c, 0, 68, 113
1, 16575, Note_off_c, 0, 68, 113
1, 16585, Note_on_c, 0, 65, 113
1, 16648, Note_off_c, 0, 65, 113
1, 16648, Note_on_c, 0, 68, 108
1, 16676, Note_off_c, 0, 68, 108
1, 16683, Note_on_c, 0, 65, 110
1, 16768, Note_off_c, 0, 65, 110
1, 16771, Note_on_c, 0, 61, 120
1, 16866, Note_off_c, 0, 61, 120
1, 16869, Note_on_c, 0, 68, 116
1, 16947, Note_off_c, 0, 68, 116
1, 16950, Note_on_c, 0, 65, 116
1, 17010, Note_off_c, 0, 65, 116
1, 17010, Note_on_c, 0, 68, 107
1, 17052, Note_off_c, 0, 68, 107
1, 17052, Note_on_c, 0, 65, 116
1, 17140, Note_off_c, 0, 65, 116
1, 17147, Note_on_c, 0, 61, 123
1, 17232, Note_off_c, 0, 61, 123
1, 17232, Note_on_c, 0, 68, 115
1, 17313, Note_off_c, 0, 68, 115
1, 17316, Note_on_c, 0, 65, 115
1, 17379, Note_off_c, 0, 65, 115
1, 17382, Note_on_c, 0, 68, 110
1, 17431, Note_off_c, 0, 68, 110
1, 17431, Note_on_c, 0, 65, 113
1, 17519, Note_off_c, 0, 65, 113
1, 17526, Note_on_c, 0, 61, 122
1, 17611, Note_off_c, 0, 61, 122
1, 17614, Note_on_c, 0, 68, 113
1, 17706, Note_on_c, 0, 65, 114
1, 17706, Note_off_c, 0, 68, 113
1, 17766, Note_off_c, 0, 65, 114
1, 17766, Note_on_c, 0, 68, 112
1, 17801, Note_off_c, 0, 68, 112
1, 17811, Note_on_c, 0, 65, 112
1, 17896, Note_off_c, 0, 65, 112
1, 17896, Note_on_c, 0, 61, 123
1, 17988, Note_off_c, 0, 61, 123
1, 17991, Note_on_c, 0, 68, 114
1, 18072, Note_off_c, 0, 68, 114
1, 18072, Note_on_c, 0, 65, 111
1, 18128, Note_off_c, 0, 65, 111
1, 18131, Note_on_c, 0, 68, 113
1, 18177, Note_off_c, 0, 68, 113
1, 18184, Note_on_c, 0, 65, 113
1, 18265, Note_off_c, 0, 65, 113
1, 18272, Note_on_c, 0, 60, 126
1, 18382, Note_off_c, 0, 60, 126
1, 18382, Note_on_c, 0, 68, 115
1, 18474, Note_off_c, 0, 68, 115
1, 18474, Note_on_c, 0, 65, 113
1, 18516, Note_off_c, 0, 65, 113
1, 18523, Note_on_c, 0, 68, 110
1, 18569, Note_off_c, 0, 68, 110
1, 18569, Note_on_c, 0, 65, 113
1, 18654, Note_off_c, 0, 65, 113
1, 18657, Note_on_c, 0, 62, 125
1, 18752, Note_off_c, 0, 62, 125
1, 18762, Note_on_c, 0, 68, 114
1, 18836, Note_off_c, 0, 68, 114
1, 18836, Note_on_c, 0, 65, 116
1, 18896, Note_off_c, 0, 65, 116
1, 18896, Note_on_c, 0, 68, 110
1, 18945, Note_on_c, 0, 65, 112
1, 18945, Note_off_c, 0, 68, 110
1, 19030, Note_off_c, 0, 65, 112
1, 19033, Note_on_c, 0, 60, 123
1, 19139, Note_off_c, 0, 60, 123
1, 19142, Note_on_c, 0, 68, 113
1, 19230, Note_off_c, 0, 68, 113
1, 19233, Note_on_c, 0, 65, 114
1, 19282, Note_off_c, 0, 65, 114
1, 19282, Note_on_c, 0, 68, 110
1, 19324, Note_off_c, 0, 68, 110
1, 19324, Note_on_c, 0, 65, 113
1, 19402, Note_off_c, 0, 65, 113
1, 19412, Note_on_c, 0, 62, 122
1, 19504, Note_off_c, 0, 62, 122
1, 19511, Note_on_c, 0, 68, 114
1, 19578, Note_off_c, 0, 68, 114
1, 19581, Note_on_c, 0, 65, 117
1, 19655, Note_off_c, 0, 65, 117
1, 19655, Note_on_c, 0, 68, 112
1, 19683, Note_off_c, 0, 68, 112
1, 19686, Note_on_c, 0, 65, 114
1, 19774, Note_off_c, 0, 65, 114
1, 19788, Note_on_c, 0, 60, 124
1, 19891, Note_off_c, 0, 60, 124
1, 19894, Note_on_c, 0, 68, 117
1, 19979, Note_off_c, 0, 68, 117
1, 19982, Note_on_c, 0, 65, 112
1, 20038, Note_off_c, 0, 65, 112
1, 20038, Note_on_c, 0, 68, 109
1, 20084, Note_off_c, 0, 68, 109
1, 20084, Note_on_c, 0, 65, 114
1, 20155, Note_off_c, 0, 65, 114
1, 20169, Note_on_c, 0, 62, 123
1, 20257, Note_off_c, 0, 62, 123
1, 20267, Note_on_c, 0, 68, 116
1, 20348, Note_off_c, 0, 68, 116
1, 20348, Note_on_c, 0, 65, 114
1, 20408, Note_off_c, 0, 65, 114
1, 20411, Note_on_c, 0, 68, 112
1, 20453, Note_off_c, 0, 68, 112
1, 20453, Note_on_c, 0, 65, 116
1, 20545, Note_off_c, 0, 65, 116
1, 20545, Note_on_c, 0, 60, 121
1, 20637, Note_off_c, 0, 60, 121
1, 20637, Note_on_c, 0, 68, 118
1, 20708, Note_off_c, 0, 68, 118
1, 20715, Note_on_c, 0, 65, 113
1, 20757, Note_off_c, 0, 65, 113
1, 20760, Note_on_c, 0, 68, 114
1, 20827, Note_off_c, 0, 68, 114
1, 20830, Note_on_c, 0, 65, 119
1, 20890, Note_off_c, 0, 65, 119
1, 20893, Note_on_c, 0, 62, 120
1, 20967, Note_off_c, 0, 62, 120
1, 21261, Note_on_c, 0, 75, 120
1, 21562, Note_off_c, 0, 75, 120
1, 21572, Note_on_c, 0, 72, 117
1, 21653, Note_off_c, 0, 72, 117
1, 21653, Note_on_c, 0, 75, 121
1, 21763, Note_off_c, 0, 75, 121
1, 21763, Note_on_c, 0, 72, 116
1, 21862, Note_off_c, 0, 72, 116
1, 21933, Note_on_c, 0, 77, 114
1, 22302, Note_off_c, 0, 77, 114
1, 22305, Note_on_c, 0, 75, 121
1, 22361, Note_off_c, 0, 75, 121
1, 22364, Note_on_c, 0, 77, 119
1, 22420, Note_on_c, 0, 75, 121
1, 22420, Note_off_c, 0, 77, 119
1, 22508, Note_off_c, 0, 75, 121
1, 22508, Note_on_c, 0, 72, 116
1, 22596, Note_off_c, 0, 72, 116
1, 22691, Note_on_c, 0, 73, 120
1, 22801, Note_off_c, 0, 73, 120
1, 22886, Note_on_c, 0, 73, 115
1, 22999, Note_off_c, 0, 73, 115
1, 23070, Note_on_c, 0, 73, 125
1, 23162, Note_off_c, 0, 73, 125
1, 23172, Note_on_c, 0, 72, 122
1, 23275, Note_off_c, 0, 72, 122
1, 23285, Note_on_c, 0, 73, 115
1, 23409, Note_off_c, 0, 73, 115
1, 23487, Note_on_c, 0, 70, 107
1, 23909, Note_off_c, 0, 70, 107
1, 24278, Note_on_c, 0, 73, 124
1, 24377, Note_off_c, 0, 73, 124
1, 24480, Note_on_c, 0, 72, 120
1, 24590, Note_off_c, 0, 72, 120
1, 24657, Note_on_c, 0, 73, 123
1, 24788, Note_off_c, 0, 73, 123
1, 24802, Note_on_c, 0, 74, 121
1, 24915, Note_off_c, 0, 74, 121
1, 24961, Note_on_c, 0, 75, 116
1, 25710, Note_off_c, 0, 75, 116
1, 25717, Note_on_c, 0, 72, 118
1, 25809, Note_off_c, 0, 72, 118
1, 25809, Note_on_c, 0, 70, 110
1, 25912, Note_off_c, 0, 70, 110
1, 25919, Note_on_c, 0, 68, 116
1, 26000, Note_off_c, 0, 68, 116
1, 26000, Note_on_c, 0, 65, 102
1, 26106, Note_off_c, 0, 65, 102
1, 26230, Note_on_c, 0, 68, 111
1, 26375, Note_off_c, 0, 68, 111
1, 26382, Note_on_c, 0, 65, 114
1, 26445, Note_off_c, 0, 65, 114
1, 26555, Note_on_c, 0, 68, 116
1, 26672, Note_off_c, 0, 68, 116
1, 26682, Note_on_c, 0, 65, 106
1, 26763, Note_off_c, 0, 65, 106
1, 26848, Note_on_c, 0, 68, 105
1, 27174, Note_off_c, 0, 68, 105
1, 27174, End_track
0, 0, End_of_file
