0, 0, Header, 1, 1, 192
1, 0, Start_track
1, 0, Title_t, "Melody"
1, 0, Tempo, 314136
1, 0, Key_signature, -1, "major"
1, 0, Time_signature, 4, 2, 24, 8
1, 2282, Note_on_c, 0, 72, 122
1, 2367, Note_off_c, 0, 72, 122
1, 2381, Note_on_c, 0, 74, 122
1, 2459, Note_off_c, 0, 74, 122
1, 2476, Note_on_c, 0, 77, 109
1, 2546, Note_off_c, 0, 77, 109
1, 2546, Note_on_c, 0, 81, 114
1, 3422, Note_off_c, 0, 81, 114
1, 3450, Note_on_c, 0, 77, 115
1, 3517, Note_off_c, 0, 77, 115
1, 3524, Note_on_c, 0, 79, 121
1, 3626, Note_off_c, 0, 79, 121
1, 3626, Note_on_c, 0, 81, 117
1, 3707, Note_off_c, 0, 81, 117
1, 3721, Note_on_c, 0, 79, 116
1, 3816, Note_off_c, 0, 79, 116
1, 3819, Note_on_c, 0, 77, 120
1, 3897, Note_off_c, 0, 77, 120
1, 3911, Note_on_c, 0, 74, 125
1, 4017, Note_off_c, 0, 74, 125
1, 4027, Note_on_c, 0, 68, 107
1, 4069, Note_off_c, 0, 68, 107
1, 4072, Note_on_c, 0, 69, 106
1, 4831, Note_off_c, 0, 69, 106
1, 4855, Note_on_c, 0, 72, 124
1, 4957, Note_off_c, 0, 72, 124
1, 4974, Note_on_c, 0, 69, 109
1, 5041, Note_off_c, 0, 69, 109
1, 5041, Note_on_c, 0, 65, 113
1, 5122, Note_off_c, 0, 65, 113
1, 5139, Note_on_c, 0, 64, 118
1, 5209, Note_off_c, 0, 64, 118
1, 5223, Note_on_c, 0, 63, 117
1, 5329, Note_off_c, 0, 63, 117
1, 5336, Note_on_c, 0, 74, 123
1, 5421, Note_off_c, 0, 74, 123
1, 5424, Note_on_c, 0, 69, 101
1, 5512, Note_off_c, 0, 69, 101
1, 5529, Note_on_c, 0, 72, 119
1, 5887, Note_off_c, 0, 72, 119
1, 5922, Note_on_c, 0, 70, 105
1, 5978, Note_off_c, 0, 70, 105
1, 5988, Note_on_c, 0, 69, 102
1, 6069, Note_off_c, 0, 69, 102
1, 6136, Note_on_c, 0, 67, 107
1, 6178, Note_off_c, 0, 67, 107
1, 6305, Note_on_c, 0, 69, 106
1, 6365, Note_off_c, 0, 69, 106
1, 6485, Note_on_c, 0, 67, 106
1, 6722, Note_off_c, 0, 67, 106
1, 6743, Note_on_c, 0, 65, 114
1, 6835, Note_off_c, 0, 65, 114
1, 6838, Note_on_c, 0, 62, 115
1, 6923, Note_off_c, 0, 62, 115
1, 6937, Note_on_c, 0, 60, 119
1, 7068, Note_off_c, 0, 60, 119
1, 7082, Note_on_c, 0, 62, 116
1, 7135, Note_off_c, 0, 62, 116
1, 7138, Note_on_c, 0, 65, 110
1, 7421, Note_off_c, 0, 65, 110
1, 7435, Note_on_c, 0, 69, 109
1, 7481, Note_off_c, 0, 69, 109
1, 7722, Note_on_c, 0, 65, 122
1, 7807, Note_off_c, 0, 65, 122
1, 7831, Note_on_c, 0, 69, 109
1, 7891, Note_off_c, 0, 69, 109
1, 8018, Note_on_c, 0, 65, 115
1, 8081, Note_off_c, 0, 65, 115
1, 8102, Note_on_c, 0, 69, 110
1, 8204, Note_off_c, 0, 69, 110
1, 8274, Note_on_c, 0, 64, 111
1, 8387, Note_off_c, 0, 64, 111
1, 8397, Note_on_c, 0, 65, 116
1, 8453, Note_off_c, 0, 65, 116
1, 8460, Note_on_c, 0, 69, 107
1, 8527, Note_off_c, 0, 69, 107
1, 8555, Note_on_c, 0, 72, 123
1, 8633, Note_off_c, 0, 72, 123
1, 8640, Note_on_c, 0, 77, 120
1, 8760, Note_off_c, 0, 77, 120
1, 8774, Note_on_c, 0, 74, 123
1, 8844, Note_off_c, 0, 74, 123
1, 8943, Note_on_c, 0, 77, 98
1, 9365, Note_off_c, 0, 77, 98
1, 9694, Note_on_c, 0, 72, 125
1, 9782, Note_off_c, 0, 72, 125
1, 9789, Note_on_c, 0, 74, 126
1, 9867, Note_off_c, 0, 74, 126
1, 9867, Note_on_c, 0, 76, 121
1, 9948, Note_off_c, 0, 76, 121
1, 9958, Note_on_c, 0, 77, 121
1, 10046, Note_off_c, 0, 77, 121
1, 10053, Note_on_c, 0, 79, 118
1, 10138, Note_off_c, 0, 79, 118
1, 10145, Note_on_c, 0, 76, 114
1, 10510, Note_off_c, 0, 76, 114
1, 10517, Note_on_c, 0, 72, 123
1, 10609, Note_off_c, 0, 72, 123
1, 10630, Note_on_c, 0, 69, 107
1, 10708, Note_off_c, 0, 69, 107
1, 10715, Note_on_c, 0, 64, 112
1, 10785, Note_off_c, 0, 64, 112
1, 10884, Note_on_c, 0, 64, 114
1, 10965, Note_off_c, 0, 64, 114
1, 11007, Note_on_c, 0, 69, 111
1, 11074, Note_off_c, 0, 69, 111
1, 11074, Note_on_c, 0, 72, 124
1, 11162, Note_off_c, 0, 72, 124
1, 11165, Note_on_c, 0, 74, 123
1, 11253, Note_off_c, 0, 74, 123
1, 11267, Note_on_c, 0, 76, 121
1, 11373, Note_off_c, 0, 76, 121
1, 11390, Note_on_c, 0, 75, 111
1, 11425, Note_off_c, 0, 75, 111
1, 11428, Note_on_c, 0, 76, 119
1, 11516, Note_off_c, 0, 76, 119
1, 11576, Note_on_c, 0, 69, 107
1, 11650, Note_off_c, 0, 69, 107
1, 11657, Note_on_c, 0, 74, 122
1, 11749, Note_off_c, 0, 74, 122
1, 11773, Note_on_c, 0, 74, 123
1, 11829, Note_off_c, 0, 74, 123
1, 11853, Note_on_c, 0, 74, 122
1, 11945, Note_off_c, 0, 74, 122
1, 11962, Note_on_c, 0, 74, 121
1, 12139, Note_off_c, 0, 74, 121
1, 12149, Note_on_c, 0, 75, 122
1, 12212, Note_off_c, 0, 75, 122
1, 12222, Note_on_c, 0, 76, 117
1, 12317, Note_off_c, 0, 76, 117
1, 12341, Note_on_c, 0, 72, 117
1, 12433, Note_off_c, 0, 72, 117
1, 12518, Note_on_c, 0, 72, 122
1, 12581, Note_off_c, 0, 72, 122
1, 12609, Note_on_c, 0, 72, 120
1, 12704, Note_off_c, 0, 72, 120
1, 12735, Note_on_c, 0, 72, 123
1, 12834, Note_off_c, 0, 72, 123
1, 12894, Note_on_c, 0, 73, 124
1, 12957, Note_off_c, 0, 73, 124
1, 12974, Note_on_c, 0, 74, 122
1, 13069, Note_off_c, 0, 74, 122
1, 13093, Note_on_c, 0, 70, 105
1, 13305, Note_off_c, 0, 70, 105
1, 13532, Note_on_c, 0, 77, 118
1, 13624, Note_off_c, 0, 77, 118
1, 13648, Note_on_c, 0, 74, 125
1, 13704, Note_off_c, 0, 74, 125
1, 13721, Note_on_c, 0, 70, 113
1, 13806, Note_off_c, 0, 70, 113
1, 13846, Note_on_c, 0, 69, 97
1, 14214, Note_off_c, 0, 69, 97
1, 14226, Note_on_c, 0, 65, 112
1, 14272, Note_off_c, 0, 65, 112
1, 14300, Note_on_c, 0, 69, 109
1, 14381, Note_off_c, 0, 69, 109
1, 14508, Note_on_c, 0, 69, 108
1, 14603, Note_off_c, 0, 69, 108
1, 14684, Note_on_c, 0, 67, 111
1, 14886, Note_off_c, 0, 67, 111
1, 14995, Note_on_c, 0, 67, 102
1, 15403, Note_off_c, 0, 67, 102
1, 15736, Note_on_c, 0, 65, 120
1, 15803, Note_off_c, 0, 65, 120
1, 15824, Note_on_c, 0, 69, 111
1, 15912, Note_off_c, 0, 69, 111
1, 15919, Note_on_c, 0, 65, 112
1, 15982, Note_off_c, 0, 65, 112
1, 15999, Note_on_c, 0, 69, 112
1, 16080, Note_off_c, 0, 69, 112
1, 16104, Note_on_c, 0, 67, 102
1, 16380, Note_off_c, 0, 67, 102
1, 16489, Note_on_c, 0, 67, 101
1, 17031, Note_off_c, 0, 67, 101
1, 17243, Note_on_c, 0, 73, 127
1, 17292, Note_off_c, 0, 73, 127
1, 17306, Note_on_c, 0, 74, 124
1, 17405, Note_off_c, 0, 74, 124
1, 17422, Note_on_c, 0, 77, 118
1, 17482, Note_off_c, 0, 77, 118
1, 17492, Note_on_c, 0, 74, 124
1, 17580, Note_off_c, 0, 74, 124
1, 17668, Note_on_c, 0, 76, 120
1, 17717, Note_on_c, 0, 77, 115
1, 17717, Note_off_c, 0, 76, 120
1, 18068, Note_off_c, 0, 77, 115
1, 18078, Note_on_c, 0, 74, 124
1, 18184, Note_off_c, 0, 74, 124
1, 18208, Note_on_c, 0, 69, 103
1, 18442, Note_off_c, 0, 69, 103
1, 18459, Note_on_c, 0, 72, 121
1, 18565, Note_off_c, 0, 72, 121
1, 18568, Note_on_c, 0, 76, 118
1, 18635, Note_off_c, 0, 76, 118
1, 18649, Note_on_c, 0, 72, 122
1, 18719, Note_off_c, 0, 72, 122
1, 18747, Note_on_c, 0, 71, 111
1, 18814, Note_off_c, 0, 71, 111
1, 18824, Note_on_c, 0, 70, 114
1, 18919, Note_off_c, 0, 70, 114
1, 18997, Note_on_c, 0, 69, 105
1, 19075, Note_off_c, 0, 69, 105
1, 19138, Note_on_c, 0, 65, 107
1, 19460, Note_off_c, 0, 65, 107
1, 19520, Note_on_c, 0, 65, 106
1, 19849, Note_off_c, 0, 65, 106
1, 19884, Note_on_c, 0, 65, 108
1, 20224, Note_off_c, 0, 65, 108
1, 20259, Note_on_c, 0, 69, 110
1, 20333, Note_off_c, 0, 69, 110
1, 20333, End_track
0, 0, End_of_file
