0, 0, Header, 1, 1, 192
1, 0, Start_track
1, 0, Title_t, "Melody"
1, 0, Tempo, 375000
1, 0, Key_signature, 1, "major"
1, 0, Time_signature, 4, 2, 24, 8
1, 1937, Note_on_c, 0, 67, 116
1, 2495, Note_off_c, 0, 67, 116
1, 2509, Note_on_c, 0, 65, 104
1, 2525, Note_off_c, 0, 65, 104
1, 2537, Note_on_c, 0, 62, 122
1, 2704, Note_off_c, 0, 62, 122
1, 2720, Note_on_c, 0, 60, 115
1, 2815, Note_off_c, 0, 60, 115
1, 2820, Note_on_c, 0, 59, 118
1, 2842, Note_off_c, 0, 59, 118
1, 4055, Note_on_c, 0, 62, 123
1, 4191, Note_off_c, 0, 62, 123
1, 4208, Note_on_c, 0, 64, 119
1, 4242, Note_off_c, 0, 64, 119
1, 4375, Note_on_c, 0, 62, 123
1, 4463, Note_off_c, 0, 62, 123
1, 4564, Note_on_c, 0, 55, 113
1, 4636, Note_off_c, 0, 55, 113
1, 4737, Note_on_c, 0, 60, 120
1, 4835, Note_off_c, 0, 60, 120
1, 4916, Note_on_c, 0, 62, 123
1, 5006, Note_off_c, 0, 62, 123
1, 5026, Note_on_c, 0, 59, 116
1, 5111, Note_off_c, 0, 59, 116
1, 5128, Note_on_c, 0, 55, 114
1, 5192, Note_off_c, 0, 55, 114
1, 5217, Note_on_c, 0, 57, 116
1, 5422, Note_off_c, 0, 57, 116
1, 5769, Note_on_c, 0, 55, 112
1, 5893, Note_off_c, 0, 55, 112
1, 5915, Note_on_c, 0, 52, 118
1, 5978, Note_off_c, 0, 52, 118
1, 5990, Note_on_c, 0, 55, 119
1, 6132, Note_off_c, 0, 55, 119
1, 6382, Note_on_c, 0, 60, 114
1, 6501, Note_off_c, 0, 60, 114
1, 6511, Note_on_c, 0, 62, 121
1, 6595, Note_off_c, 0, 62, 121
1, 6950, Note_on_c, 0, 59, 120
1, 7022, Note_off_c, 0, 59, 120
1, 7079, Note_on_c, 0, 55, 117
1, 7145, Note_off_c, 0, 55, 117
1, 7150, Note_on_c, 0, 57, 119
1, 7258, Note_off_c, 0, 57, 119
1, 7266, Note_on_c, 0, 55, 115
1, 7323, Note_off_c, 0, 55, 115
1, 7508, Note_on_c, 0, 64, 123
1, 7609, Note_off_c, 0, 64, 123
1, 7625, Note_on_c, 0, 62, 124
1, 7691, Note_off_c, 0, 62, 124
1, 7699, Note_on_c, 0, 58, 115
1, 7820, Note_off_c, 0, 58, 115
1, 7837, Note_on_c, 0, 55, 115
1, 7915, Note_off_c, 0, 55, 115
1, 7925, Note_on_c, 0, 57, 112
1, 8053, Note_off_c, 0, 57, 112
1, 8661, Note_on_c, 0, 59, 119
1, 8763, Note_off_c, 0, 59, 119
1, 8770, Note_on_c, 0, 62, 125
1, 8846, Note_off_c, 0, 62, 125
1, 8853, Note_on_c, 0, 67, 119
1, 9016, Note_off_c, 0, 67, 119
1, 9037, Note_on_c, 0, 69, 120
1, 9367, Note_off_c, 0, 69, 120
1, 9376, Note_on_c, 0, 67, 117
1, 9404, Note_off_c, 0, 67, 117
1, 9421, Note_on_c, 0, 64, 107
1, 9449, Note_off_c, 0, 64, 107
1, 9459, Note_on_c, 0, 62, 98
1, 9490, Note_off_c, 0, 62, 98
1, 10004, Note_on_c, 0, 64, 125
1, 10118, Note_off_c, 0, 64, 125
1, 10125, Note_on_c, 0, 62, 121
1, 10200, Note_off_c, 0, 62, 121
1, 10205, Note_on_c, 0, 67, 119
1, 10317, Note_off_c, 0, 67, 119
1, 10330, Note_on_c, 0, 64, 122
1, 10380, Note_off_c, 0, 64, 122
1, 10574, Note_on_c, 0, 59, 123
1, 10599, Note_off_c, 0, 59, 123
1, 10603, Note_on_c, 0, 60, 115
1, 10919, Note_off_c, 0, 60, 115
1, 10953, Note_on_c, 0, 58, 118
1, 10998, Note_off_c, 0, 58, 118
1, 11013, Note_on_c, 0, 60, 117
1, 11098, Note_off_c, 0, 60, 117
1, 11113, Note_on_c, 0, 58, 117
1, 11171, Note_off_c, 0, 58, 117
1, 11719, Note_on_c, 0, 55, 119
1, 11807, Note_off_c, 0, 55, 119
1, 11820, Note_on_c, 0, 53, 119
1, 11912, Note_off_c, 0, 53, 119
1, 11932, Note_on_c, 0, 55, 117
1, 12190, Note_off_c, 0, 55, 117
1, 12210, Note_on_c, 0, 58, 118
1, 12293, Note_off_c, 0, 58, 118
1, 12518, Note_on_c, 0, 60, 115
1, 12592, Note_off_c, 0, 60, 115
1, 12617, Note_on_c, 0, 62, 123
1, 12687, Note_off_c, 0, 62, 123
1, 12698, Note_on_c, 0, 65, 121
1, 12796, Note_off_c, 0, 65, 121
1, 12807, Note_on_c, 0, 67, 119
1, 12981, Note_off_c, 0, 67, 119
1, 12996, Note_on_c, 0, 70, 121
1, 13067, Note_off_c, 0, 70, 121
1, 13081, Note_on_c, 0, 70, 121
1, 13162, Note_off_c, 0, 70, 121
1, 13187, Note_on_c, 0, 65, 120
1, 13260, Note_off_c, 0, 65, 120
1, 13269, Note_on_c, 0, 67, 118
1, 13441, Note_off_c, 0, 67, 118
1, 13458, Note_on_c, 0, 65, 120
1, 13544, Note_off_c, 0, 65, 120
1, 13566, Note_on_c, 0, 62, 123
1, 13636, Note_off_c, 0, 62, 123
1, 13648, Note_on_c, 0, 60, 119
1, 13720, Note_off_c, 0, 60, 119
1, 13736, Note_on_c, 0, 62, 127
1, 13807, Note_off_c, 0, 62, 127
1, 13831, Note_on_c, 0, 62, 122
1, 13940, Note_off_c, 0, 62, 122
1, 14049, Note_on_c, 0, 69, 120
1, 14064, Note_off_c, 0, 69, 120
1, 14073, Note_on_c, 0, 70, 121
1, 14144, Note_off_c, 0, 70, 121
1, 14234, Note_on_c, 0, 69, 119
1, 14301, Note_off_c, 0, 69, 119
1, 14308, Note_on_c, 0, 70, 119
1, 14431, Note_off_c, 0, 70, 119
1, 14437, Note_on_c, 0, 67, 115
1, 14616, Note_off_c, 0, 67, 115
1, 15229, Note_on_c, 0, 62, 122
1, 15376, Note_off_c, 0, 62, 122
1, 15384, Note_on_c, 0, 65, 112
1, 15412, Note_off_c, 0, 65, 112
1, 15533, Note_on_c, 0, 65, 125
1, 15550, Note_off_c, 0, 65, 125
1, 15561, Note_on_c, 0, 67, 120
1, 15644, Note_off_c, 0, 67, 120
1, 15711, Note_on_c, 0, 65, 119
1, 15811, Note_off_c, 0, 65, 119
1, 15821, Note_on_c, 0, 62, 122
1, 16236, Note_off_c, 0, 62, 122
1, 16431, Note_on_c, 0, 54, 103
1, 16496, Note_off_c, 0, 54, 103
1, 16527, Note_on_c, 0, 58, 116
1, 16612, Note_off_c, 0, 58, 116
1, 16715, Note_on_c, 0, 60, 118
1, 16916, Note_off_c, 0, 60, 118
1, 16924, Note_on_c, 0, 62, 122
1, 16992, Note_off_c, 0, 62, 122
1, 17121, Note_on_c, 0, 60, 116
1, 17231, Note_off_c, 0, 60, 116
1, 17248, Note_on_c, 0, 58, 115
1, 17318, Note_off_c, 0, 58, 115
1, 17332, Note_on_c, 0, 55, 117
1, 17403, Note_off_c, 0, 55, 117
1, 17431, Note_on_c, 0, 53, 118
1, 17508, Note_off_c, 0, 53, 118
1, 17538, Note_on_c, 0, 55, 116
1, 17704, Note_off_c, 0, 55, 116
1, 17715, Note_on_c, 0, 50, 119
1, 17786, Note_off_c, 0, 50, 119
1, 17795, Note_on_c, 0, 53, 123
1, 17887, Note_off_c, 0, 53, 123
1, 17895, Note_on_c, 0, 48, 117
1, 18024, Note_off_c, 0, 48, 117
1, 18028, Note_on_c, 0, 50, 119
1, 18184, Note_off_c, 0, 50, 119
1, 18191, Note_on_c, 0, 53, 110
1, 18384, Note_off_c, 0, 53, 110
1, 18395, Note_on_c, 0, 55, 115
1, 18549, Note_off_c, 0, 55, 115
1, 18571, Note_on_c, 0, 58, 116
1, 18734, Note_off_c, 0, 58, 116
1, 18759, Note_on_c, 0, 60, 120
1, 18825, Note_off_c, 0, 60, 120
1, 18830, Note_on_c, 0, 62, 122
1, 18923, Note_off_c, 0, 62, 122
1, 18937, Note_on_c, 0, 65, 121
1, 19020, Note_off_c, 0, 65, 121
1, 19040, Note_on_c, 0, 67, 119
1, 19115, Note_off_c, 0, 67, 119
1, 19137, Note_on_c, 0, 70, 121
1, 19169, Note_off_c, 0, 70, 121
1, 19225, Note_on_c, 0, 72, 121
1, 19317, Note_off_c, 0, 72, 121
1, 19330, Note_on_c, 0, 67, 116
1, 19413, Note_off_c, 0, 67, 116
1, 19430, Note_on_c, 0, 70, 116
1, 19593, Note_off_c, 0, 70, 116
1, 19612, Note_on_c, 0, 67, 115
1, 19699, Note_off_c, 0, 67, 115
1, 19719, Note_on_c, 0, 65, 120
1, 19765, Note_off_c, 0, 65, 120
1, 19788, Note_on_c, 0, 60, 118
1, 19844, Note_off_c, 0, 60, 118
1, 19849, Note_on_c, 0, 62, 116
1, 19895, Note_off_c, 0, 62, 116
1, 19899, Note_on_c, 0, 60, 117
1, 19968, Note_off_c, 0, 60, 117
1, 19994, Note_on_c, 0, 58, 116
1, 20077, Note_off_c, 0, 58, 116
1, 20097, Note_on_c, 0, 55, 116
1, 20177, Note_off_c, 0, 55, 116
1, 20181, Note_on_c, 0, 58, 112
1, 20356, Note_off_c, 0, 58, 112
1, 20372, Note_on_c, 0, 60, 122
1, 20449, Note_off_c, 0, 60, 122
1, 21073, Note_on_c, 0, 67, 120
1, 21148, Note_off_c, 0, 67, 120
1, 21231, Note_on_c, 0, 67, 122
1, 21306, Note_off_c, 0, 67, 122
1, 21414, Note_on_c, 0, 72, 122
1, 21460, Note_off_c, 0, 72, 122
1, 21465, Note_on_c, 0, 73, 121
1, 21494, Note_off_c, 0, 73, 121
1, 21501, Note_on_c, 0, 74, 118
1, 21673, Note_off_c, 0, 74, 118
1, 21814, Note_on_c, 0, 72, 119
1, 21931, Note_off_c, 0, 72, 119
1, 21945, Note_on_c, 0, 67, 118
1, 21995, Note_off_c, 0, 67, 118
1, 22079, Note_on_c, 0, 69, 117
1, 22104, Note_off_c, 0, 69, 117
1, 22112, Note_on_c, 0, 70, 114
1, 22205, Note_off_c, 0, 70, 114
1, 22240, Note_on_c, 0, 69, 111
1, 22265, Note_off_c, 0, 69, 111
1, 22275, Note_on_c, 0, 72, 117
1, 22362, Note_off_c, 0, 72, 117
1, 22409, Note_on_c, 0, 70, 117
1, 22486, Note_off_c, 0, 70, 117
1, 22493, Note_on_c, 0, 67, 114
1, 22757, Note_off_c, 0, 67, 114
1, 22779, Note_on_c, 0, 65, 122
1, 22868, Note_off_c, 0, 65, 122
1, 22879, Note_on_c, 0, 64, 116
1, 23008, Note_off_c, 0, 64, 116
1, 23018, Note_on_c, 0, 65, 117
1, 23110, Note_off_c, 0, 65, 117
1, 23138, Note_on_c, 0, 62, 119
1, 23334, Note_off_c, 0, 62, 119
1, 23338, Note_on_c, 0, 61, 122
1, 23400, Note_off_c, 0, 61, 122
1, 23414, Note_on_c, 0, 60, 119
1, 23443, Note_off_c, 0, 60, 119
1, 24778, Note_on_c, 0, 65, 111
1, 24804, Note_off_c, 0, 65, 111
1, 24820, Note_on_c, 0, 69, 118
1, 24886, Note_off_c, 0, 69, 118
1, 24905, Note_on_c, 0, 67, 110
1, 24940, Note_off_c, 0, 67, 110
1, 25064, Note_on_c, 0, 67, 123
1, 25103, Note_off_c, 0, 67, 123
1, 25109, Note_on_c, 0, 69, 119
1, 25516, Note_off_c, 0, 69, 119
1, 25540, Note_on_c, 0, 67, 107
1, 25632, Note_off_c, 0, 67, 107
1, 25655, Note_on_c, 0, 69, 118
1, 25720, Note_off_c, 0, 69, 118
1, 25725, Note_on_c, 0, 67, 117
1, 25805, Note_off_c, 0, 67, 117
1, 25822, Note_on_c, 0, 65, 115
1, 25905, Note_off_c, 0, 65, 115
1, 25927, Note_on_c, 0, 62, 124
1, 26007, Note_off_c, 0, 62, 124
1, 26015, Note_on_c, 0, 61, 119
1, 26081, Note_off_c, 0, 61, 119
1, 26098, Note_on_c, 0, 60, 117
1, 26181, Note_off_c, 0, 60, 117
1, 26198, Note_on_c, 0, 58, 116
1, 26281, Note_off_c, 0, 58, 116
1, 26283, Note_on_c, 0, 60, 116
1, 26376, Note_off_c, 0, 60, 116
1, 26414, Note_on_c, 0, 58, 114
1, 26467, Note_off_c, 0, 58, 114
1, 26492, Note_on_c, 0, 55, 120
1, 26566, Note_off_c, 0, 55, 120
1, 26586, Note_on_c, 0, 53, 117
1, 26663, Note_off_c, 0, 53, 117
1, 26689, Note_on_c, 0, 55, 116
1, 27020, Note_off_c, 0, 55, 116
1, 27052, Note_on_c, 0, 58, 118
1, 27139, Note_off_c, 0, 58, 118
1, 27153, Note_on_c, 0, 60, 117
1, 27240, Note_off_c, 0, 60, 117
1, 27254, Note_on_c, 0, 58, 113
1, 27332, Note_off_c, 0, 58, 113
1, 27343, Note_on_c, 0, 55, 114
1, 27408, Note_off_c, 0, 55, 114
1, 27437, Note_on_c, 0, 64, 122
1, 27521, Note_off_c, 0, 64, 122
1, 27538, Note_on_c, 0, 62, 118
1, 27618, Note_off_c, 0, 62, 118
1, 27631, Note_on_c, 0, 64, 125
1, 27718, Note_off_c, 0, 64, 125
1, 27738, Note_on_c, 0, 62, 122
1, 27807, Note_off_c, 0, 62, 122
1, 27830, Note_on_c, 0, 64, 122
1, 27971, Note_off_c, 0, 64, 122
1, 28002, Note_on_c, 0, 67, 120
1, 28088, Note_off_c, 0, 67, 120
1, 28563, Note_on_c, 0, 55, 113
1, 28650, Note_off_c, 0, 55, 113
1, 28672, Note_on_c, 0, 58, 118
1, 28734, Note_off_c, 0, 58, 118
1, 28747, Note_on_c, 0, 60, 121
1, 28821, Note_off_c, 0, 60, 121
1, 28829, Note_on_c, 0, 62, 123
1, 28915, Note_off_c, 0, 62, 123
1, 28938, Note_on_c, 0, 64, 125
1, 29027, Note_off_c, 0, 64, 125
1, 29043, Note_on_c, 0, 62, 125
1, 29109, Note_off_c, 0, 62, 125
1, 29147, Note_on_c, 0, 57, 116
1, 29222, Note_off_c, 0, 57, 116
1, 29235, Note_on_c, 0, 55, 114
1, 29316, Note_off_c, 0, 55, 114
1, 29333, Note_on_c, 0, 57, 119
1, 29414, Note_off_c, 0, 57, 119
1, 29433, Note_on_c, 0, 57, 116
1, 29508, Note_off_c, 0, 57, 116
1, 29539, Note_on_c, 0, 55, 118
1, 29628, Note_off_c, 0, 55, 118
1, 29638, Note_on_c, 0, 53, 108
1, 29698, Note_off_c, 0, 53, 108
1, 29698, End_track
0, 0, End_of_file
