0, 0, Header, 1, 1, 840
1, 0, Start_track
1, 0, Title_t, "Melody"
1, 0, Tempo, 526315
1, 0, Key_signature, -2, "major"
1, 0, Time_signature, 4, 2, 24, 8
1, 12572, Note_on_c, 0, 56, 87
1, 12780, Note_off_c, 0, 56, 87
1, 12949, Note_on_c, 0, 58, 102
1, 20635, Note_off_c, 0, 58, 102
1, 20947, Note_on_c, 0, 65, 109
1, 21598, Note_off_c, 0, 65, 109
1, 24320, Note_on_c, 0, 56, 104
1, 24541, Note_off_c, 0, 56, 104
1, 24658, Note_on_c, 0, 58, 105
1, 28983, Note_off_c, 0, 58, 105
1, 29104, Note_on_c, 0, 53, 102
1, 29363, Note_off_c, 0, 53, 102
1, 29400, Note_on_c, 0, 55, 96
1, 30187, Note_off_c, 0, 55, 96
1, 32845, Note_on_c, 0, 57, 99
1, 32993, Note_off_c, 0, 57, 99
1, 33057, Note_on_c, 0, 58, 96
1, 33140, Note_off_c, 0, 58, 96
1, 33204, Note_on_c, 0, 57, 78
1, 33305, Note_off_c, 0, 57, 78
1, 33369, Note_on_c, 0, 62, 112
1, 33711, Note_off_c, 0, 62, 112
1, 33849, Note_on_c, 0, 67, 114
1, 34191, Note_off_c, 0, 67, 114
1, 34265, Note_on_c, 0, 62, 117
1, 34607, Note_off_c, 0, 62, 117
1, 34634, Note_on_c, 0, 58, 98
1, 34735, Note_off_c, 0, 58, 98
1, 34781, Note_on_c, 0, 59, 98
1, 34855, Note_off_c, 0, 59, 98
1, 34901, Note_on_c, 0, 58, 98
1, 35012, Note_off_c, 0, 58, 98
1, 35074, Note_on_c, 0, 55, 94
1, 35223, Note_off_c, 0, 55, 94
1, 35275, Note_on_c, 0, 62, 113
1, 35932, Note_off_c, 0, 62, 113
1, 36107, Note_on_c, 0, 58, 101
1, 36549, Note_off_c, 0, 58, 101
1, 36653, Note_on_c, 0, 55, 96
1, 37024, Note_off_c, 0, 55, 96
1, 37558, Note_on_c, 0, 53, 100
1, 38268, Note_off_c, 0, 53, 100
1, 38352, Note_on_c, 0, 50, 88
1, 38495, Note_off_c, 0, 50, 88
1, 38573, Note_on_c, 0, 54, 101
1, 40116, Note_off_c, 0, 54, 101
1, 42441, Note_on_c, 0, 52, 86
1, 42590, Note_off_c, 0, 52, 86
1, 42785, Note_on_c, 0, 55, 105
1, 43247, Note_off_c, 0, 55, 105
1, 43383, Note_on_c, 0, 50, 109
1, 43930, Note_off_c, 0, 50, 109
1, 46893, Note_on_c, 0, 58, 116
1, 47094, Note_off_c, 0, 58, 116
1, 47152, Note_on_c, 0, 61, 104
1, 47262, Note_off_c, 0, 61, 104
1, 47320, Note_on_c, 0, 62, 115
1, 47489, Note_off_c, 0, 62, 115
1, 47567, Note_on_c, 0, 67, 113
1, 47814, Note_off_c, 0, 67, 113
1, 47918, Note_on_c, 0, 61, 103
1, 49084, Note_off_c, 0, 61, 103
1, 49598, Note_on_c, 0, 67, 109
1, 50047, Note_off_c, 0, 67, 109
1, 50261, Note_on_c, 0, 61, 99
1, 50931, Note_off_c, 0, 61, 99
1, 53478, Note_on_c, 0, 53, 108
1, 53745, Note_off_c, 0, 53, 108
1, 53803, Note_on_c, 0, 56, 102
1, 54161, Note_off_c, 0, 56, 102
1, 54271, Note_on_c, 0, 60, 108
1, 54687, Note_off_c, 0, 60, 108
1, 54810, Note_on_c, 0, 56, 93
1, 56112, Note_off_c, 0, 56, 93
1, 56222, Note_on_c, 0, 53, 109
1, 56489, Note_off_c, 0, 53, 109
1, 56873, Note_on_c, 0, 60, 112
1, 57283, Note_off_c, 0, 60, 112
1, 57374, Note_on_c, 0, 56, 93
1, 58416, Note_off_c, 0, 56, 93
1, 63158, Note_on_c, 0, 56, 87
1, 63255, Note_off_c, 0, 56, 87
1, 63333, Note_on_c, 0, 60, 115
1, 63521, Note_off_c, 0, 60, 115
1, 63553, Note_on_c, 0, 61, 112
1, 63644, Note_off_c, 0, 61, 112
1, 63709, Note_on_c, 0, 63, 119
1, 63930, Note_off_c, 0, 63, 119
1, 64001, Note_on_c, 0, 65, 110
1, 64098, Note_off_c, 0, 65, 110
1, 64182, Note_on_c, 0, 67, 107
1, 64357, Note_off_c, 0, 67, 107
1, 64409, Note_on_c, 0, 69, 93
1, 64539, Note_off_c, 0, 69, 93
1, 64662, Note_on_c, 0, 70, 87
1, 64759, Note_off_c, 0, 70, 87
1, 64824, Note_on_c, 0, 72, 116
1, 65045, Note_off_c, 0, 72, 116
1, 65071, Note_on_c, 0, 69, 95
1, 65194, Note_off_c, 0, 69, 95
1, 65233, Note_on_c, 0, 70, 109
1, 65474, Note_off_c, 0, 70, 109
1, 65552, Note_on_c, 0, 72, 103
1, 65760, Note_off_c, 0, 72, 103
1, 65799, Note_on_c, 0, 73, 115
1, 66111, Note_off_c, 0, 73, 115
1, 66195, Note_on_c, 0, 69, 97
1, 66683, Note_off_c, 0, 69, 97
1, 66845, Note_on_c, 0, 65, 113
1, 67079, Note_off_c, 0, 65, 113
1, 67137, Note_on_c, 0, 61, 106
1, 67338, Note_off_c, 0, 61, 106
1, 67416, Note_on_c, 0, 57, 102
1, 67611, Note_off_c, 0, 57, 102
1, 67702, Note_on_c, 0, 53, 99
1, 67988, Note_off_c, 0, 53, 99
1, 69662, Note_on_c, 0, 55, 103
1, 69916, Note_off_c, 0, 55, 103
1, 70013, Note_on_c, 0, 52, 102
1, 70221, Note_off_c, 0, 52, 102
1, 70266, Note_on_c, 0, 53, 105
1, 70500, Note_off_c, 0, 53, 105
1, 70591, Note_on_c, 0, 55, 100
1, 70675, Note_off_c, 0, 55, 100
1, 70714, Note_on_c, 0, 56, 108
1, 71137, Note_off_c, 0, 56, 108
1, 71293, Note_on_c, 0, 52, 98
1, 71670, Note_off_c, 0, 52, 98
1, 72626, Note_on_c, 0, 50, 87
1, 72737, Note_off_c, 0, 50, 87
1, 72755, Note_on_c, 0, 52, 88
1, 72898, Note_off_c, 0, 52, 88
1, 72967, Note_on_c, 0, 53, 104
1, 73346, Note_off_c, 0, 53, 104
1, 73497, Note_on_c, 0, 51, 89
1, 73581, Note_off_c, 0, 51, 89
1, 73659, Note_on_c, 0, 53, 107
1, 73862, Note_off_c, 0, 53, 107
1, 73964, Note_on_c, 0, 57, 100
1, 74211, Note_off_c, 0, 57, 100
1, 74230, Note_on_c, 0, 62, 117
1, 74484, Note_off_c, 0, 62, 117
1, 74510, Note_on_c, 0, 59, 95
1, 74646, Note_off_c, 0, 59, 95
1, 74678, Note_on_c, 0, 60, 106
1, 74919, Note_off_c, 0, 60, 106
1, 74951, Note_on_c, 0, 62, 103
1, 75029, Note_off_c, 0, 62, 103
1, 75081, Note_on_c, 0, 63, 122
1, 75478, Note_off_c, 0, 63, 122
1, 75569, Note_on_c, 0, 59, 99
1, 76018, Note_off_c, 0, 59, 99
1, 80630, Note_on_c, 0, 53, 104
1, 80962, Note_off_c, 0, 53, 104
1, 81033, Note_on_c, 0, 56, 110
1, 81469, Note_off_c, 0, 56, 110
1, 81618, Note_on_c, 0, 52, 92
1, 83428, Note_off_c, 0, 52, 92
1, 88795, Note_on_c, 0, 65, 103
1, 89042, Note_off_c, 0, 65, 103
1, 89133, Note_on_c, 0, 67, 108
1, 89315, Note_off_c, 0, 67, 108
1, 89367, Note_on_c, 0, 68, 111
1, 89705, Note_off_c, 0, 68, 111
1, 89783, Note_on_c, 0, 65, 104
1, 90037, Note_off_c, 0, 65, 104
1, 92343, Note_on_c, 0, 57, 107
1, 92616, Note_off_c, 0, 57, 107
1, 92674, Note_on_c, 0, 58, 9
1, 96979, Note_off_c, 0, 58, 9
1, 99793, Note_on_c, 0, 56, 107
1, 99955, Note_off_c, 0, 56, 107
1, 100026, Note_on_c, 0, 58, 100
1, 100143, Note_off_c, 0, 58, 100
1, 100188, Note_on_c, 0, 59, 100
1, 100324, Note_off_c, 0, 59, 100
1, 100389, Note_on_c, 0, 62, 108
1, 100545, Note_off_c, 0, 62, 108
1, 100597, Note_on_c, 0, 65, 110
1, 100851, Note_off_c, 0, 65, 110
1, 100883, Note_on_c, 0, 66, 101
1, 100987, Note_off_c, 0, 66, 101
1, 101045, Note_on_c, 0, 62, 108
1, 101207, Note_off_c, 0, 62, 108
1, 101252, Note_on_c, 0, 59, 92
1, 101388, Note_off_c, 0, 59, 92
1, 101440, Note_on_c, 0, 58, 94
1, 101661, Note_off_c, 0, 58, 94
1, 101700, Note_on_c, 0, 56, 105
1, 101901, Note_off_c, 0, 56, 105
1, 101966, Note_on_c, 0, 55, 93
1, 102102, Note_off_c, 0, 55, 93
1, 105978, Note_on_c, 0, 69, 106
1, 106173, Note_off_c, 0, 69, 106
1, 106223, Note_on_c, 0, 65, 110
1, 106366, Note_off_c, 0, 65, 110
1, 106407, Note_on_c, 0, 67, 112
1, 106610, Note_off_c, 0, 67, 112
1, 106647, Note_on_c, 0, 69, 109
1, 106804, Note_off_c, 0, 69, 109
1, 106873, Note_on_c, 0, 65, 108
1, 107035, Note_off_c, 0, 65, 108
1, 107085, Note_on_c, 0, 61, 103
1, 107265, Note_off_c, 0, 61, 103
1, 107325, Note_on_c, 0, 57, 97
1, 107487, Note_off_c, 0, 57, 97
1, 107547, Note_on_c, 0, 53, 91
1, 107648, Note_off_c, 0, 53, 91
1, 110103, Note_on_c, 0, 67, 112
1, 110251, Note_off_c, 0, 67, 112
1, 110269, Note_on_c, 0, 69, 98
1, 110324, Note_off_c, 0, 69, 98
1, 110356, Note_on_c, 0, 68, 108
1, 110490, Note_off_c, 0, 68, 108
1, 110559, Note_on_c, 0, 64, 109
1, 111865, Note_off_c, 0, 64, 109
1, 111929, Note_on_c, 0, 67, 106
1, 112206, Note_off_c, 0, 67, 106
1, 112261, Note_on_c, 0, 65, 106
1, 112515, Note_off_c, 0, 65, 106
1, 112806, Note_on_c, 0, 57, 101
1, 112991, Note_off_c, 0, 57, 101
1, 113069, Note_on_c, 0, 58, 98
1, 113258, Note_off_c, 0, 58, 98
1, 113308, Note_on_c, 0, 63, 111
1, 113609, Note_off_c, 0, 63, 111
1, 113697, Note_on_c, 0, 61, 103
1, 113854, Note_off_c, 0, 61, 103
1, 113872, Note_on_c, 0, 62, 114
1, 114001, Note_off_c, 0, 62, 114
1, 114028, Note_on_c, 0, 63, 100
1, 114208, Note_off_c, 0, 63, 100
1, 114258, Note_on_c, 0, 58, 98
1, 114554, Note_off_c, 0, 58, 98
1, 114702, Note_on_c, 0, 53, 104
1, 115054, Note_off_c, 0, 53, 104
1, 115799, Note_on_c, 0, 52, 103
1, 116021, Note_off_c, 0, 52, 103
1, 116076, Note_on_c, 0, 51, 95
1, 117076, Note_off_c, 0, 51, 95
1, 117205, Note_on_c, 0, 55, 89
1, 117362, Note_off_c, 0, 55, 89
1, 117436, Note_on_c, 0, 58, 97
1, 117625, Note_off_c, 0, 58, 97
1, 117713, Note_on_c, 0, 61, 105
1, 117819, Note_off_c, 0, 61, 105
1, 117837, Note_on_c, 0, 62, 111
1, 118258, Note_off_c, 0, 62, 111
1, 118350, Note_on_c, 0, 58, 99
1, 118609, Note_off_c, 0, 58, 99
1, 119975, Note_on_c, 0, 53, 102
1, 120243, Note_off_c, 0, 53, 102
1, 120289, Note_on_c, 0, 51, 94
1, 120956, Note_off_c, 0, 51, 94
1, 121006, Note_on_c, 0, 53, 105
1, 121237, Note_off_c, 0, 53, 105
1, 121788, Note_on_c, 0, 51, 105
1, 122070, Note_off_c, 0, 51, 105
1, 122111, Note_on_c, 0, 50, 94
1, 123491, Note_off_c, 0, 50, 94
1, 128730, Note_on_c, 0, 60, 103
1, 128864, Note_off_c, 0, 60, 103
1, 128887, Note_on_c, 0, 62, 101
1, 129276, Note_off_c, 0, 62, 101
1, 129669, Note_on_c, 0, 57, 98
1, 129891, Note_off_c, 0, 57, 98
1, 129946, Note_on_c, 0, 58, 96
1, 130455, Note_off_c, 0, 58, 96
1, 130950, Note_on_c, 0, 53, 107
1, 131380, Note_off_c, 0, 53, 107
1, 131546, Note_on_c, 0, 51, 95
1, 131953, Note_off_c, 0, 51, 95
1, 132129, Note_on_c, 0, 51, 89
1, 132944, Note_off_c, 0, 51, 89
1, 136283, Note_on_c, 0, 53, 98
1, 136500, Note_off_c, 0, 53, 98
1, 136527, Note_on_c, 0, 55, 91
1, 136665, Note_off_c, 0, 55, 91
1, 136729, Note_on_c, 0, 58, 99
1, 136858, Note_off_c, 0, 58, 99
1, 136936, Note_on_c, 0, 62, 105
1, 137107, Note_off_c, 0, 62, 105
1, 137134, Note_on_c, 0, 63, 117
1, 137282, Note_off_c, 0, 63, 117
1, 137328, Note_on_c, 0, 62, 113
1, 137476, Note_off_c, 0, 62, 113
1, 137573, Note_on_c, 0, 58, 97
1, 137721, Note_off_c, 0, 58, 97
1, 137771, Note_on_c, 0, 55, 92
1, 137896, Note_off_c, 0, 55, 92
1, 137923, Note_on_c, 0, 56, 107
1, 138117, Note_off_c, 0, 56, 107
1, 138158, Note_on_c, 0, 55, 95
1, 138320, Note_off_c, 0, 55, 95
1, 138394, Note_on_c, 0, 53, 99
1, 138565, Note_off_c, 0, 53, 99
1, 138602, Note_on_c, 0, 52, 98
1, 138778, Note_off_c, 0, 52, 98
1, 138824, Note_on_c, 0, 55, 98
1, 138990, Note_off_c, 0, 55, 98
1, 139258, Note_on_c, 0, 53, 104
1, 139429, Note_off_c, 0, 53, 104
1, 139466, Note_on_c, 0, 51, 90
1, 139591, Note_off_c, 0, 51, 90
1, 139614, Note_on_c, 0, 50, 92
1, 139799, Note_off_c, 0, 50, 92
1, 139849, Note_on_c, 0, 53, 101
1, 140034, Note_off_c, 0, 53, 101
1, 140080, Note_on_c, 0, 56, 101
1, 140283, Note_off_c, 0, 56, 101
1, 140320, Note_on_c, 0, 59, 96
1, 140421, Note_off_c, 0, 59, 96
1, 140490, Note_on_c, 0, 58, 96
1, 140693, Note_off_c, 0, 58, 96
1, 140743, Note_on_c, 0, 55, 96
1, 140807, Note_off_c, 0, 55, 96
1, 140834, Note_on_c, 0, 56, 104
1, 141074, Note_off_c, 0, 56, 104
1, 141148, Note_on_c, 0, 54, 100
1, 141268, Note_off_c, 0, 54, 100
1, 141291, Note_on_c, 0, 55, 98
1, 141467, Note_off_c, 0, 55, 98
1, 141504, Note_on_c, 0, 58, 98
1, 141670, Note_off_c, 0, 58, 98
1, 141744, Note_on_c, 0, 53, 100
1, 141929, Note_off_c, 0, 53, 100
1, 141979, Note_on_c, 0, 49, 93
1, 142104, Note_off_c, 0, 49, 93
1, 142131, Note_on_c, 0, 51, 97
1, 142381, Note_off_c, 0, 51, 97
1, 145276, Note_on_c, 0, 58, 107
1, 145419, Note_off_c, 0, 58, 107
1, 145456, Note_on_c, 0, 63, 127
1, 145636, Note_off_c, 0, 63, 127
1, 145673, Note_on_c, 0, 65, 109
1, 145816, Note_off_c, 0, 65, 109
1, 145885, Note_on_c, 0, 64, 121
1, 145977, Note_off_c, 0, 64, 121
1, 145995, Note_on_c, 0, 65, 112
1, 146069, Note_off_c, 0, 65, 112
1, 146087, Note_on_c, 0, 63, 113
1, 146221, Note_off_c, 0, 63, 113
1, 146258, Note_on_c, 0, 61, 99
1, 146364, Note_off_c, 0, 61, 99
1, 146396, Note_on_c, 0, 58, 94
1, 146539, Note_off_c, 0, 58, 94
1, 146557, Note_on_c, 0, 63, 120
1, 146756, Note_off_c, 0, 63, 120
1, 146793, Note_on_c, 0, 65, 105
1, 147033, Note_off_c, 0, 65, 105
1, 147056, Note_on_c, 0, 64, 116
1, 147139, Note_off_c, 0, 64, 116
1, 147148, Note_on_c, 0, 65, 109
1, 147273, Note_off_c, 0, 65, 109
1, 147273, Note_on_c, 0, 61, 105
1, 147416, Note_off_c, 0, 61, 105
1, 147443, Note_on_c, 0, 58, 99
1, 147568, Note_off_c, 0, 58, 99
1, 147618, Note_on_c, 0, 63, 122
1, 147784, Note_off_c, 0, 63, 122
1, 147830, Note_on_c, 0, 65, 104
1, 148075, Note_off_c, 0, 65, 104
1, 148116, Note_on_c, 0, 64, 118
1, 148208, Note_off_c, 0, 64, 118
1, 148208, Note_on_c, 0, 65, 108
1, 148291, Note_off_c, 0, 65, 108
1, 148323, Note_on_c, 0, 61, 101
1, 148443, Note_off_c, 0, 61, 101
1, 148512, Note_on_c, 0, 58, 92
1, 148664, Note_off_c, 0, 58, 92
1, 148840, Note_on_c, 0, 59, 100
1, 148932, Note_off_c, 0, 59, 100
1, 148941, Note_on_c, 0, 60, 96
1, 149297, Note_off_c, 0, 60, 96
1, 149324, Note_on_c, 0, 59, 98
1, 149435, Note_off_c, 0, 59, 98
1, 149472, Note_on_c, 0, 58, 101
1, 149564, Note_off_c, 0, 58, 101
1, 149564, Note_on_c, 0, 57, 100
1, 149665, Note_off_c, 0, 57, 100
1, 149702, Note_on_c, 0, 56, 101
1, 149803, Note_off_c, 0, 56, 101
1, 149830, Note_on_c, 0, 53, 84
1, 149922, Note_off_c, 0, 53, 84
1, 149949, Note_on_c, 0, 59, 95
1, 150064, Note_off_c, 0, 59, 95
1, 150096, Note_on_c, 0, 60, 98
1, 150336, Note_off_c, 0, 60, 98
1, 150373, Note_on_c, 0, 59, 104
1, 150474, Note_off_c, 0, 59, 104
1, 150483, Note_on_c, 0, 60, 101
1, 150612, Note_off_c, 0, 60, 101
1, 150639, Note_on_c, 0, 59, 105
1, 150713, Note_off_c, 0, 59, 105
1, 150750, Note_on_c, 0, 58, 104
1, 150861, Note_off_c, 0, 58, 104
1, 150888, Note_on_c, 0, 57, 108
1, 150980, Note_off_c, 0, 57, 108
1, 150989, Note_on_c, 0, 56, 98
1, 151100, Note_off_c, 0, 56, 98
1, 151155, Note_on_c, 0, 53, 107
1, 151298, Note_off_c, 0, 53, 107
1, 153716, Note_on_c, 0, 67, 100
1, 154017, Note_off_c, 0, 67, 100
1, 154095, Note_on_c, 0, 61, 108
1, 154252, Note_off_c, 0, 61, 108
1, 154279, Note_on_c, 0, 62, 114
1, 154464, Note_off_c, 0, 62, 114
1, 154514, Note_on_c, 0, 65, 111
1, 154694, Note_off_c, 0, 65, 111
1, 154731, Note_on_c, 0, 62, 112
1, 154856, Note_off_c, 0, 62, 112
1, 154893, Note_on_c, 0, 63, 116
1, 155143, Note_off_c, 0, 63, 116
1, 155356, Note_on_c, 0, 59, 92
1, 155499, Note_off_c, 0, 59, 92
1, 155545, Note_on_c, 0, 62, 110
1, 155725, Note_off_c, 0, 62, 110
1, 155799, Note_on_c, 0, 60, 109
1, 155979, Note_off_c, 0, 60, 109
1, 156029, Note_on_c, 0, 59, 102
1, 156130, Note_off_c, 0, 59, 102
1, 156176, Note_on_c, 0, 58, 98
1, 156352, Note_off_c, 0, 58, 98
1, 156421, Note_on_c, 0, 55, 96
1, 156527, Note_off_c, 0, 55, 96
1, 156573, Note_on_c, 0, 57, 103
1, 156753, Note_off_c, 0, 57, 103
1, 156822, Note_on_c, 0, 53, 105
1, 156974, Note_off_c, 0, 53, 105
1, 157011, Note_on_c, 0, 55, 103
1, 157136, Note_off_c, 0, 55, 103
1, 157219, Note_on_c, 0, 51, 90
1, 157520, Note_off_c, 0, 51, 90
1, 157640, Note_on_c, 0, 50, 95
1, 157765, Note_off_c, 0, 50, 95
1, 157829, Note_on_c, 0, 53, 92
1, 158153, Note_off_c, 0, 53, 92
1, 158282, Note_on_c, 0, 51, 94
1, 158462, Note_off_c, 0, 51, 94
1, 158512, Note_on_c, 0, 53, 94
1, 158613, Note_off_c, 0, 53, 94
1, 158849, Note_on_c, 0, 51, 94
1, 159075, Note_off_c, 0, 51, 94
1, 159088, Note_on_c, 0, 53, 87
1, 159176, Note_off_c, 0, 53, 87
1, 159361, Note_on_c, 0, 58, 89
1, 159453, Note_off_c, 0, 58, 89
1, 159531, Note_on_c, 0, 62, 114
1, 159716, Note_off_c, 0, 62, 114
1, 159734, Note_on_c, 0, 63, 111
1, 159914, Note_off_c, 0, 63, 111
1, 159941, Note_on_c, 0, 62, 112
1, 160112, Note_off_c, 0, 62, 112
1, 160172, Note_on_c, 0, 60, 108
1, 160343, Note_off_c, 0, 60, 108
1, 160375, Note_on_c, 0, 58, 101
1, 160490, Note_off_c, 0, 58, 101
1, 160527, Note_on_c, 0, 53, 102
1, 160716, Note_off_c, 0, 53, 102
1, 160753, Note_on_c, 0, 57, 108
1, 160896, Note_off_c, 0, 57, 108
1, 160956, Note_on_c, 0, 60, 110
1, 161141, Note_off_c, 0, 60, 110
1, 161150, Note_on_c, 0, 58, 104
1, 161307, Note_off_c, 0, 58, 104
1, 161371, Note_on_c, 0, 53, 104
1, 161579, Note_off_c, 0, 53, 104
1, 161676, Note_on_c, 0, 50, 85
1, 161810, Note_off_c, 0, 50, 85
1, 161842, Note_on_c, 0, 51, 91
1, 161980, Note_off_c, 0, 51, 91
1, 162026, Note_on_c, 0, 53, 98
1, 162396, Note_off_c, 0, 53, 98
1, 164517, Note_on_c, 0, 68, 104
1, 164730, Note_off_c, 0, 68, 104
1, 164790, Note_on_c, 0, 70, 105
1, 164933, Note_off_c, 0, 70, 105
1, 164942, Note_on_c, 0, 69, 107
1, 165131, Note_off_c, 0, 69, 107
1, 165177, Note_on_c, 0, 67, 110
1, 165385, Note_off_c, 0, 67, 110
1, 165408, Note_on_c, 0, 65, 110
1, 165565, Note_off_c, 0, 65, 110
1, 165592, Note_on_c, 0, 64, 119
1, 165754, Note_off_c, 0, 64, 119
1, 165781, Note_on_c, 0, 63, 111
1, 165970, Note_off_c, 0, 63, 111
1, 165993, Note_on_c, 0, 62, 116
1, 166169, Note_off_c, 0, 62, 116
1, 166219, Note_on_c, 0, 60, 104
1, 166371, Note_off_c, 0, 60, 104
1, 166417, Note_on_c, 0, 58, 98
1, 166611, Note_off_c, 0, 58, 98
1, 166661, Note_on_c, 0, 55, 98
1, 166846, Note_off_c, 0, 55, 98
1, 166859, Note_on_c, 0, 56, 104
1, 167007, Note_off_c, 0, 56, 104
1, 167030, Note_on_c, 0, 57, 105
1, 167215, Note_off_c, 0, 57, 105
1, 167321, Note_on_c, 0, 54, 102
1, 167483, Note_off_c, 0, 54, 102
1, 167520, Note_on_c, 0, 53, 109
1, 167672, Note_off_c, 0, 53, 109
1, 167750, Note_on_c, 0, 51, 104
1, 167879, Note_off_c, 0, 51, 104
1, 167948, Note_on_c, 0, 46, 97
1, 168086, Note_off_c, 0, 46, 97
1, 168155, Note_on_c, 0, 53, 97
1, 168289, Note_off_c, 0, 53, 97
1, 168326, Note_on_c, 0, 56, 109
1, 168585, Note_off_c, 0, 56, 109
1, 168631, Note_on_c, 0, 53, 97
1, 168746, Note_off_c, 0, 53, 97
1, 168810, Note_on_c, 0, 60, 88
1, 170440, Note_off_c, 0, 60, 88
1, 170991, Note_on_c, 0, 53, 110
1, 171125, Note_off_c, 0, 53, 110
1, 171157, Note_on_c, 0, 55, 102
1, 171388, Note_off_c, 0, 55, 102
1, 171448, Note_on_c, 0, 58, 99
1, 171600, Note_off_c, 0, 58, 99
1, 171641, Note_on_c, 0, 60, 116
1, 171960, Note_off_c, 0, 60, 116
1, 171997, Note_on_c, 0, 58, 100
1, 172126, Note_off_c, 0, 58, 100
1, 172158, Note_on_c, 0, 61, 100
1, 172236, Note_off_c, 0, 61, 100
1, 172273, Note_on_c, 0, 63, 115
1, 172963, Note_off_c, 0, 63, 115
1, 173009, Note_on_c, 0, 65, 111
1, 173963, Note_off_c, 0, 65, 111
1, 174606, Note_on_c, 0, 52, 94
1, 174689, Note_off_c, 0, 52, 94
1, 174689, Note_on_c, 0, 53, 97
1, 175087, Note_off_c, 0, 53, 97
1, 175142, Note_on_c, 0, 56, 109
1, 175419, Note_off_c, 0, 56, 109
1, 175474, Note_on_c, 0, 53, 102
1, 175775, Note_off_c, 0, 53, 102
1, 175839, Note_on_c, 0, 60, 90
1, 177557, Note_off_c, 0, 60, 90
1, 178492, Note_on_c, 0, 61, 106
1, 178899, Note_off_c, 0, 61, 106
1, 178940, Note_on_c, 0, 58, 98
1, 179023, Note_off_c, 0, 58, 98
1, 179097, Note_on_c, 0, 63, 114
1, 179495, Note_off_c, 0, 63, 114
1, 179536, Note_on_c, 0, 58, 90
1, 179628, Note_off_c, 0, 58, 90
1, 179674, Note_on_c, 0, 65, 103
1, 180971, Note_off_c, 0, 65, 103
1, 182133, Note_on_c, 0, 61, 107
1, 182397, Note_off_c, 0, 61, 107
1, 182438, Note_on_c, 0, 58, 98
1, 182526, Note_off_c, 0, 58, 98
1, 182581, Note_on_c, 0, 65, 116
1, 182877, Note_off_c, 0, 65, 116
1, 182960, Note_on_c, 0, 68, 108
1, 183363, Note_off_c, 0, 68, 108
1, 183423, Note_on_c, 0, 65, 107
1, 183603, Note_off_c, 0, 65, 107
1, 183695, Note_on_c, 0, 72, 104
1, 185140, Note_off_c, 0, 72, 104
1, 188600, Note_on_c, 0, 60, 99
1, 188720, Note_off_c, 0, 60, 99
1, 188747, Note_on_c, 0, 62, 108
1, 188825, Note_off_c, 0, 62, 108
1, 188875, Note_on_c, 0, 66, 107
1, 188981, Note_off_c, 0, 66, 107
1, 189018, Note_on_c, 0, 67, 115
1, 189203, Note_off_c, 0, 67, 115
1, 189235, Note_on_c, 0, 68, 119
1, 190263, Note_off_c, 0, 68, 119
1, 190351, Note_on_c, 0, 64, 113
1, 190540, Note_off_c, 0, 64, 113
1, 190586, Note_on_c, 0, 65, 109
1, 190734, Note_off_c, 0, 65, 109
1, 190784, Note_on_c, 0, 67, 111
1, 191052, Note_off_c, 0, 67, 111
1, 191102, Note_on_c, 0, 64, 9
1, 191217, Note_off_c, 0, 64, 9
1, 191235, Note_on_c, 0, 65, 9
1, 191429, Note_off_c, 0, 65, 9
1, 191484, Note_on_c, 0, 62, 118
1, 191650, Note_off_c, 0, 62, 118
1, 191700, Note_on_c, 0, 58, 100
1, 191801, Note_off_c, 0, 58, 100
1, 191893, Note_on_c, 0, 55, 99
1, 192041, Note_off_c, 0, 55, 99
1, 192073, Note_on_c, 0, 60, 115
1, 192272, Note_off_c, 0, 60, 115
1, 192327, Note_on_c, 0, 63, 121
1, 192507, Note_off_c, 0, 63, 121
1, 192557, Note_on_c, 0, 60, 116
1, 192709, Note_off_c, 0, 60, 116
1, 192727, Note_on_c, 0, 61, 105
1, 192842, Note_off_c, 0, 61, 105
1, 192865, Note_on_c, 0, 62, 116
1, 193110, Note_off_c, 0, 62, 116
1, 193170, Note_on_c, 0, 60, 112
1, 193332, Note_off_c, 0, 60, 112
1, 193373, Note_on_c, 0, 59, 99
1, 193474, Note_off_c, 0, 59, 99
1, 193492, Note_on_c, 0, 62, 112
1, 193556, Note_off_c, 0, 62, 112
1, 193597, Note_on_c, 0, 65, 108
1, 193685, Note_off_c, 0, 65, 108
1, 193712, Note_on_c, 0, 68, 116
1, 193957, Note_off_c, 0, 68, 116
1, 193994, Note_on_c, 0, 67, 115
1, 194132, Note_off_c, 0, 67, 115
1, 194178, Note_on_c, 0, 65, 113
1, 194349, Note_off_c, 0, 65, 113
1, 194404, Note_on_c, 0, 62, 109
1, 194566, Note_off_c, 0, 62, 109
1, 194566, Note_on_c, 0, 63, 119
1, 194779, Note_off_c, 0, 63, 119
1, 194806, Note_on_c, 0, 66, 100
1, 194861, Note_off_c, 0, 66, 100
1, 194916, Note_on_c, 0, 63, 119
1, 195004, Note_off_c, 0, 63, 119
1, 195041, Note_on_c, 0, 62, 114
1, 195221, Note_off_c, 0, 62, 114
1, 195276, Note_on_c, 0, 60, 111
1, 195452, Note_off_c, 0, 60, 111
1, 195452, Note_on_c, 0, 55, 97
1, 195623, Note_off_c, 0, 55, 97
1, 195664, Note_on_c, 0, 53, 95
1, 195816, Note_off_c, 0, 53, 95
1, 195876, Note_on_c, 0, 59, 101
1, 196853, Note_off_c, 0, 59, 101
1, 196968, Note_on_c, 0, 62, 117
1, 197185, Note_off_c, 0, 62, 117
1, 197263, Note_on_c, 0, 59, 102
1, 197374, Note_off_c, 0, 59, 102
1, 197489, Note_on_c, 0, 55, 101
1, 197623, Note_off_c, 0, 55, 101
1, 197706, Note_on_c, 0, 51, 98
1, 197849, Note_off_c, 0, 51, 98
1, 197886, Note_on_c, 0, 58, 102
1, 198057, Note_off_c, 0, 58, 102
1, 198140, Note_on_c, 0, 55, 99
1, 198265, Note_off_c, 0, 55, 99
1, 198306, Note_on_c, 0, 57, 107
1, 198514, Note_off_c, 0, 57, 107
1, 198551, Note_on_c, 0, 55, 106
1, 198694, Note_off_c, 0, 55, 106
1, 198744, Note_on_c, 0, 53, 108
1, 198920, Note_off_c, 0, 53, 108
1, 198957, Note_on_c, 0, 52, 96
1, 199035, Note_off_c, 0, 52, 96
1, 199072, Note_on_c, 0, 51, 93
1, 199234, Note_off_c, 0, 51, 93
1, 199257, Note_on_c, 0, 53, 106
1, 199340, Note_off_c, 0, 53, 106
1, 199340, Note_on_c, 0, 54, 100
1, 199414, Note_off_c, 0, 54, 100
1, 199423, Note_on_c, 0, 55, 96
1, 199487, Note_off_c, 0, 55, 96
1, 199510, Note_on_c, 0, 62, 118
1, 199699, Note_off_c, 0, 62, 118
1, 199745, Note_on_c, 0, 63, 118
1, 199925, Note_off_c, 0, 63, 118
1, 199962, Note_on_c, 0, 60, 114
1, 200175, Note_off_c, 0, 60, 114
1, 200221, Note_on_c, 0, 58, 103
1, 200341, Note_off_c, 0, 58, 103
1, 200378, Note_on_c, 0, 57, 108
1, 200558, Note_off_c, 0, 57, 108
1, 200613, Note_on_c, 0, 60, 103
1, 200724, Note_off_c, 0, 60, 103
1, 200774, Note_on_c, 0, 63, 120
1, 200987, Note_off_c, 0, 63, 120
1, 201042, Note_on_c, 0, 67, 113
1, 201148, Note_off_c, 0, 67, 113
1, 201194, Note_on_c, 0, 65, 112
1, 201430, Note_off_c, 0, 65, 112
1, 201467, Note_on_c, 0, 57, 104
1, 201633, Note_off_c, 0, 57, 104
1, 201665, Note_on_c, 0, 58, 97
1, 201827, Note_off_c, 0, 58, 97
1, 201859, Note_on_c, 0, 63, 122
1, 202048, Note_off_c, 0, 63, 122
1, 202098, Note_on_c, 0, 62, 114
1, 202209, Note_off_c, 0, 62, 114
1, 202273, Note_on_c, 0, 58, 103
1, 202365, Note_off_c, 0, 58, 103
1, 202411, Note_on_c, 0, 56, 111
1, 202633, Note_off_c, 0, 56, 111
1, 202660, Note_on_c, 0, 54, 97
1, 202789, Note_off_c, 0, 54, 97
1, 202821, Note_on_c, 0, 55, 100
1, 203149, Note_off_c, 0, 55, 100
1, 203218, Note_on_c, 0, 65, 114
1, 203454, Note_off_c, 0, 65, 114
1, 203504, Note_on_c, 0, 62, 111
1, 203610, Note_off_c, 0, 62, 111
1, 203623, Note_on_c, 0, 63, 121
1, 203849, Note_off_c, 0, 63, 121
1, 203886, Note_on_c, 0, 66, 113
1, 203941, Note_off_c, 0, 66, 113
1, 203973, Note_on_c, 0, 63, 120
1, 204093, Note_off_c, 0, 63, 120
1, 204116, Note_on_c, 0, 62, 114
1, 204264, Note_off_c, 0, 62, 114
1, 204333, Note_on_c, 0, 60, 116
1, 204513, Note_off_c, 0, 60, 116
1, 204531, Note_on_c, 0, 58, 101
1, 204637, Note_off_c, 0, 58, 101
1, 204706, Note_on_c, 0, 53, 105
1, 204932, Note_off_c, 0, 53, 105
1, 204969, Note_on_c, 0, 50, 92
1, 205047, Note_off_c, 0, 50, 92
1, 205093, Note_on_c, 0, 51, 91
1, 205227, Note_off_c, 0, 51, 91
1, 205264, Note_on_c, 0, 53, 105
1, 205509, Note_off_c, 0, 53, 105
1, 206963, Note_on_c, 0, 61, 108
1, 207352, Note_off_c, 0, 61, 108
1, 207486, Note_on_c, 0, 57, 108
1, 207759, Note_off_c, 0, 57, 108
1, 207814, Note_on_c, 0, 59, 98
1, 207906, Note_off_c, 0, 59, 98
1, 207970, Note_on_c, 0, 60, 101
1, 209077, Note_off_c, 0, 60, 101
1, 209382, Note_on_c, 0, 57, 103
1, 209608, Note_off_c, 0, 57, 103
1, 209705, Note_on_c, 0, 53, 107
1, 210140, Note_off_c, 0, 53, 107
1, 210218, Note_on_c, 0, 53, 95
1, 211112, Note_off_c, 0, 53, 95
1, 212107, Note_on_c, 0, 51, 106
1, 212222, Note_off_c, 0, 51, 106
1, 212259, Note_on_c, 0, 53, 100
1, 212397, Note_off_c, 0, 53, 100
1, 212457, Note_on_c, 0, 55, 103
1, 212707, Note_off_c, 0, 55, 103
1, 212771, Note_on_c, 0, 58, 107
1, 212923, Note_off_c, 0, 58, 107
1, 213288, Note_on_c, 0, 53, 103
1, 213408, Note_off_c, 0, 53, 103
1, 213431, Note_on_c, 0, 58, 105
1, 213639, Note_off_c, 0, 58, 105
1, 213708, Note_on_c, 0, 60, 114
1, 213809, Note_off_c, 0, 60, 114
1, 213859, Note_on_c, 0, 62, 107
1, 214400, Note_off_c, 0, 62, 107
1, 214464, Note_on_c, 0, 58, 87
1, 214561, Note_off_c, 0, 58, 87
1, 214593, Note_on_c, 0, 60, 116
1, 214889, Note_off_c, 0, 60, 116
1, 214953, Note_on_c, 0, 56, 94
1, 215221, Note_off_c, 0, 56, 94
1, 215512, Note_on_c, 0, 53, 95
1, 215720, Note_off_c, 0, 53, 95
1, 215761, Note_on_c, 0, 56, 95
1, 216048, Note_off_c, 0, 56, 95
1, 220453, Note_on_c, 0, 66, 115
1, 220707, Note_off_c, 0, 66, 115
1, 220767, Note_on_c, 0, 70, 108
1, 220938, Note_off_c, 0, 70, 108
1, 220984, Note_on_c, 0, 62, 110
1, 221122, Note_off_c, 0, 62, 110
1, 221172, Note_on_c, 0, 66, 101
1, 221366, Note_off_c, 0, 66, 101
1, 221412, Note_on_c, 0, 58, 89
1, 221828, Note_off_c, 0, 58, 89
1, 223773, Note_on_c, 0, 69, 111
1, 223958, Note_off_c, 0, 69, 111
1, 224013, Note_on_c, 0, 73, 123
1, 224267, Note_off_c, 0, 73, 123
1, 224336, Note_on_c, 0, 65, 116
1, 224521, Note_off_c, 0, 65, 116
1, 224571, Note_on_c, 0, 69, 109
1, 224793, Note_off_c, 0, 69, 109
1, 224843, Note_on_c, 0, 61, 96
1, 224991, Note_off_c, 0, 61, 96
1, 225032, Note_on_c, 0, 65, 107
1, 225212, Note_off_c, 0, 65, 107
1, 225253, Note_on_c, 0, 57, 99
1, 225447, Note_off_c, 0, 57, 99
1, 225468, Note_on_c, 0, 61, 104
1, 225662, Note_off_c, 0, 61, 104
1, 225992, Note_on_c, 0, 56, 100
1, 226112, Note_off_c, 0, 56, 100
1, 229563, Note_on_c, 0, 65, 118
1, 229840, Note_off_c, 0, 65, 118
1, 229890, Note_on_c, 0, 68, 121
1, 230214, Note_off_c, 0, 68, 121
1, 230271, Note_on_c, 0, 64, 108
1, 232055, Note_off_c, 0, 64, 108
1, 232278, Note_on_c, 0, 67, 108
1, 232523, Note_off_c, 0, 67, 108
1, 232569, Note_on_c, 0, 65, 109
1, 232717, Note_off_c, 0, 65, 109
1, 232860, Note_on_c, 0, 56, 85
1, 233086, Note_off_c, 0, 56, 85
1, 233104, Note_on_c, 0, 57, 102
1, 233330, Note_off_c, 0, 57, 102
1, 233357, Note_on_c, 0, 58, 92
1, 233454, Note_off_c, 0, 58, 92
1, 233532, Note_on_c, 0, 62, 113
1, 233754, Note_off_c, 0, 62, 113
1, 233795, Note_on_c, 0, 63, 117
1, 233957, Note_off_c, 0, 63, 117
1, 233980, Note_on_c, 0, 62, 112
1, 234146, Note_off_c, 0, 62, 112
1, 234183, Note_on_c, 0, 60, 108
1, 234451, Note_off_c, 0, 60, 108
1, 234506, Note_on_c, 0, 59, 97
1, 234575, Note_off_c, 0, 59, 97
1, 234639, Note_on_c, 0, 55, 94
1, 234731, Note_off_c, 0, 55, 94
1, 234781, Note_on_c, 0, 62, 111
1, 235003, Note_off_c, 0, 62, 111
1, 235021, Note_on_c, 0, 59, 93
1, 235150, Note_off_c, 0, 59, 93
1, 235177, Note_on_c, 0, 60, 100
1, 235385, Note_off_c, 0, 60, 100
1, 235412, Note_on_c, 0, 62, 101
1, 235541, Note_off_c, 0, 62, 101
1, 235587, Note_on_c, 0, 63, 115
1, 235813, Note_off_c, 0, 63, 115
1, 235850, Note_on_c, 0, 58, 92
1, 235993, Note_off_c, 0, 58, 92
1, 236261, Note_on_c, 0, 53, 87
1, 236362, Note_off_c, 0, 53, 87
1, 236426, Note_on_c, 0, 63, 107
1, 236986, Note_off_c, 0, 63, 107
1, 237027, Note_on_c, 0, 62, 114
1, 237249, Note_off_c, 0, 62, 114
1, 237332, Note_on_c, 0, 58, 92
1, 237545, Note_off_c, 0, 58, 92
1, 241371, Note_on_c, 0, 53, 104
1, 241713, Note_off_c, 0, 53, 104
1, 241763, Note_on_c, 0, 55, 100
1, 241878, Note_off_c, 0, 55, 100
1, 241915, Note_on_c, 0, 56, 106
1, 242197, Note_off_c, 0, 56, 106
1, 242247, Note_on_c, 0, 53, 103
1, 244146, Note_off_c, 0, 53, 103
1, 244498, Note_on_c, 0, 58, 99
1, 244813, Note_off_c, 0, 58, 99
1, 244933, Note_on_c, 0, 61, 108
1, 245085, Note_off_c, 0, 61, 108
1, 245126, Note_on_c, 0, 62, 115
1, 245436, Note_off_c, 0, 62, 115
1, 245496, Note_on_c, 0, 58, 97
1, 245653, Note_off_c, 0, 58, 97
1, 245805, Note_on_c, 0, 53, 98
1, 246208, Note_off_c, 0, 53, 98
1, 246245, Note_on_c, 0, 51, 93
1, 247217, Note_off_c, 0, 51, 93
1, 247847, Note_on_c, 0, 60, 110
1, 248143, Note_off_c, 0, 60, 110
1, 248235, Note_on_c, 0, 58, 95
1, 248420, Note_off_c, 0, 58, 95
1, 248457, Note_on_c, 0, 60, 92
1, 248591, Note_off_c, 0, 60, 92
1, 248628, Note_on_c, 0, 62, 113
1, 248980, Note_off_c, 0, 62, 113
1, 249086, Note_on_c, 0, 58, 88
1, 249623, Note_off_c, 0, 58, 88
1, 249623, End_track
0, 0, End_of_file
