0, 0, Header, 1, 1, 192
1, 0, Start_track
1, 0, Title_t, "Melody"
1, 0, Tempo, 384615
1, 0, Key_signature, 1, "major"
1, 0, Time_signature, 4, 2, 24, 8
1, 1294, Note_on_c, 0, 58, 116
1, 1470, Note_off_c, 0, 58, 116
1, 1496, Note_on_c, 0, 60, 112
1, 1652, Note_off_c, 0, 60, 112
1, 1678, Note_on_c, 0, 62, 118
1, 1744, Note_off_c, 0, 62, 118
1, 1767, Note_on_c, 0, 55, 114
1, 1853, Note_off_c, 0, 55, 114
1, 1855, Note_on_c, 0, 58, 119
1, 1924, Note_off_c, 0, 58, 119
1, 1952, Note_on_c, 0, 60, 115
1, 2047, Note_off_c, 0, 60, 115
1, 2067, Note_on_c, 0, 58, 115
1, 2142, Note_off_c, 0, 58, 115
1, 2147, Note_on_c, 0, 55, 118
1, 2245, Note_off_c, 0, 55, 118
1, 2271, Note_on_c, 0, 53, 114
1, 2337, Note_off_c, 0, 53, 114
1, 2351, Note_on_c, 0, 55, 118
1, 2472, Note_off_c, 0, 55, 118
1, 2737, Note_on_c, 0, 71, 116
1, 2769, Note_off_c, 0, 71, 116
1, 2773, Note_on_c, 0, 64, 120
1, 2844, Note_off_c, 0, 64, 120
1, 2850, Note_on_c, 0, 62, 118
1, 2935, Note_off_c, 0, 62, 118
1, 2941, Note_on_c, 0, 64, 123
1, 3061, Note_off_c, 0, 64, 123
1, 3077, Note_on_c, 0, 62, 117
1, 3142, Note_off_c, 0, 62, 117
1, 3152, Note_on_c, 0, 64, 116
1, 3317, Note_off_c, 0, 64, 116
1, 3327, Note_on_c, 0, 62, 120
1, 3398, Note_off_c, 0, 62, 120
1, 3520, Note_on_c, 0, 55, 111
1, 3648, Note_off_c, 0, 55, 111
1, 3896, Note_on_c, 0, 55, 116
1, 3993, Note_off_c, 0, 55, 116
1, 4027, Note_on_c, 0, 58, 116
1, 4096, Note_off_c, 0, 58, 116
1, 4110, Note_on_c, 0, 55, 114
1, 4207, Note_off_c, 0, 55, 114
1, 4215, Note_on_c, 0, 60, 117
1, 4331, Note_off_c, 0, 60, 117
1, 4408, Note_on_c, 0, 55, 119
1, 4501, Note_off_c, 0, 55, 119
1, 4511, Note_on_c, 0, 58, 113
1, 4667, Note_off_c, 0, 58, 113
1, 4703, Note_on_c, 0, 53, 110
1, 4796, Note_off_c, 0, 53, 110
1, 4796, Note_on_c, 0, 55, 119
1, 4848, Note_off_c, 0, 55, 119
1, 4866, Note_on_c, 0, 50, 114
1, 4980, Note_off_c, 0, 50, 114
1, 4980, Note_on_c, 0, 53, 114
1, 5037, Note_off_c, 0, 53, 114
1, 5051, Note_on_c, 0, 48, 105
1, 5152, Note_off_c, 0, 48, 105
1, 5176, Note_on_c, 0, 50, 110
1, 5247, Note_off_c, 0, 50, 110
1, 5261, Note_on_c, 0, 53, 113
1, 5438, Note_off_c, 0, 53, 113
1, 5460, Note_on_c, 0, 55, 115
1, 5541, Note_off_c, 0, 55, 115
1, 5551, Note_on_c, 0, 58, 119
1, 5606, Note_off_c, 0, 58, 119
1, 5626, Note_on_c, 0, 53, 111
1, 5736, Note_off_c, 0, 53, 111
1, 5736, Note_on_c, 0, 55, 116
1, 6092, Note_off_c, 0, 55, 116
1, 6106, Note_on_c, 0, 53, 116
1, 6169, Note_off_c, 0, 53, 116
1, 6181, Note_on_c, 0, 55, 115
1, 6356, Note_off_c, 0, 55, 115
1, 6382, Note_on_c, 0, 58, 116
1, 6477, Note_off_c, 0, 58, 116
1, 6766, Note_on_c, 0, 55, 119
1, 6847, Note_off_c, 0, 55, 119
1, 6865, Note_on_c, 0, 50, 117
1, 6944, Note_off_c, 0, 50, 117
1, 6956, Note_on_c, 0, 53, 115
1, 7057, Note_off_c, 0, 53, 115
1, 7069, Note_on_c, 0, 55, 115
1, 7168, Note_off_c, 0, 55, 115
1, 7231, Note_on_c, 0, 55, 112
1, 7328, Note_off_c, 0, 55, 112
1, 7433, Note_on_c, 0, 62, 121
1, 7522, Note_off_c, 0, 62, 121
1, 7621, Note_on_c, 0, 64, 89
1, 7678, Note_off_c, 0, 64, 89
1, 7714, Note_on_c, 0, 65, 118
1, 7805, Note_off_c, 0, 65, 118
1, 7884, Note_on_c, 0, 67, 110
1, 7983, Note_off_c, 0, 67, 110
1, 8107, Note_on_c, 0, 62, 121
1, 8219, Note_off_c, 0, 62, 121
1, 8475, Note_on_c, 0, 60, 114
1, 8591, Note_off_c, 0, 60, 114
1, 8593, Note_on_c, 0, 62, 122
1, 8670, Note_off_c, 0, 62, 122
1, 8674, Note_on_c, 0, 60, 115
1, 8779, Note_off_c, 0, 60, 115
1, 8789, Note_on_c, 0, 55, 115
1, 8894, Note_off_c, 0, 55, 115
1, 8894, Note_on_c, 0, 58, 115
1, 9032, Note_off_c, 0, 58, 115
1, 9038, Note_on_c, 0, 57, 114
1, 9062, Note_off_c, 0, 57, 114
1, 9062, Note_on_c, 0, 58, 120
1, 9161, Note_off_c, 0, 58, 120
1, 9179, Note_on_c, 0, 60, 114
1, 9270, Note_off_c, 0, 60, 114
1, 9361, Note_on_c, 0, 55, 116
1, 9462, Note_off_c, 0, 55, 116
1, 9464, Note_on_c, 0, 58, 113
1, 9567, Note_off_c, 0, 58, 113
1, 9854, Note_on_c, 0, 70, 115
1, 9957, Note_off_c, 0, 70, 115
1, 9959, Note_on_c, 0, 67, 111
1, 10018, Note_off_c, 0, 67, 111
1, 10152, Note_on_c, 0, 70, 113
1, 10257, Note_off_c, 0, 70, 113
1, 10348, Note_on_c, 0, 67, 119
1, 10429, Note_off_c, 0, 67, 119
1, 10435, Note_on_c, 0, 65, 118
1, 10508, Note_off_c, 0, 65, 118
1, 10508, Note_on_c, 0, 64, 118
1, 10538, Note_off_c, 0, 64, 118
1, 10542, Note_on_c, 0, 65, 117
1, 10613, Note_off_c, 0, 65, 117
1, 10613, Note_on_c, 0, 62, 121
1, 10749, Note_off_c, 0, 62, 121
1, 10928, Note_on_c, 0, 61, 122
1, 10976, Note_off_c, 0, 61, 122
1, 10978, Note_on_c, 0, 60, 117
1, 10996, Note_off_c, 0, 60, 117
1, 11006, Note_on_c, 0, 58, 117
1, 11034, Note_off_c, 0, 58, 117
1, 11046, Note_on_c, 0, 55, 116
1, 11209, Note_off_c, 0, 55, 116
1, 11227, Note_on_c, 0, 58, 113
1, 11332, Note_off_c, 0, 58, 113
1, 11344, Note_on_c, 0, 53, 109
1, 11502, Note_off_c, 0, 53, 109
1, 11528, Note_on_c, 0, 55, 115
1, 11715, Note_off_c, 0, 55, 115
1, 11721, Note_on_c, 0, 58, 115
1, 11788, Note_off_c, 0, 58, 115
1, 11806, Note_on_c, 0, 55, 111
1, 11899, Note_off_c, 0, 55, 111
1, 11899, Note_on_c, 0, 58, 116
1, 11960, Note_off_c, 0, 58, 116
1, 11988, Note_on_c, 0, 60, 116
1, 12091, Note_off_c, 0, 60, 116
1, 12111, Note_on_c, 0, 55, 111
1, 12180, Note_off_c, 0, 55, 111
1, 12182, Note_on_c, 0, 58, 118
1, 12259, Note_off_c, 0, 58, 118
1, 12291, Note_on_c, 0, 53, 109
1, 12386, Note_off_c, 0, 53, 109
1, 12386, Note_on_c, 0, 55, 114
1, 12563, Note_off_c, 0, 55, 114
1, 12579, Note_on_c, 0, 58, 117
1, 12676, Note_off_c, 0, 58, 117
1, 13130, Note_on_c, 0, 64, 122
1, 13172, Note_off_c, 0, 64, 122
1, 13172, Note_on_c, 0, 65, 119
1, 13261, Note_off_c, 0, 65, 119
1, 13261, Note_on_c, 0, 67, 115
1, 13322, Note_off_c, 0, 67, 115
1, 13417, Note_on_c, 0, 67, 115
1, 13781, Note_off_c, 0, 67, 115
1, 13807, Note_on_c, 0, 65, 119
1, 13866, Note_off_c, 0, 65, 119
1, 13870, Note_on_c, 0, 62, 118
1, 14051, Note_off_c, 0, 62, 118
1, 14069, Note_on_c, 0, 65, 118
1, 14156, Note_off_c, 0, 65, 118
1, 14249, Note_on_c, 0, 67, 115
1, 14346, Note_off_c, 0, 67, 115
1, 14439, Note_on_c, 0, 65, 110
1, 14479, Note_off_c, 0, 65, 110
1, 14497, Note_on_c, 0, 67, 114
1, 14655, Note_off_c, 0, 67, 114
1, 14760, Note_on_c, 0, 65, 119
1, 14839, Note_off_c, 0, 65, 119
1, 14914, Note_on_c, 0, 65, 99
1, 14935, Note_off_c, 0, 65, 99
1, 14952, Note_on_c, 0, 67, 110
1, 14982, Note_off_c, 0, 67, 110
1, 15026, Note_on_c, 0, 62, 117
1, 15133, Note_off_c, 0, 62, 117
1, 15141, Note_on_c, 0, 65, 121
1, 15210, Note_off_c, 0, 65, 121
1, 15218, Note_on_c, 0, 62, 122
1, 15342, Note_off_c, 0, 62, 122
1, 15346, Note_on_c, 0, 60, 113
1, 15417, Note_off_c, 0, 60, 113
1, 15427, Note_on_c, 0, 62, 120
1, 15602, Note_off_c, 0, 62, 120
1, 15610, Note_on_c, 0, 60, 116
1, 15713, Note_off_c, 0, 60, 116
1, 15818, Note_on_c, 0, 57, 113
1, 15870, Note_off_c, 0, 57, 113
1, 15870, Note_on_c, 0, 58, 116
1, 15992, Note_off_c, 0, 58, 116
1, 15994, Note_on_c, 0, 62, 123
1, 16075, Note_off_c, 0, 62, 123
1, 16152, Note_on_c, 0, 55, 105
1, 16378, Note_off_c, 0, 55, 105
1, 16561, Note_on_c, 0, 58, 114
1, 16652, Note_off_c, 0, 58, 114
1, 16682, Note_on_c, 0, 55, 110
1, 16749, Note_off_c, 0, 55, 110
1, 16771, Note_on_c, 0, 58, 116
1, 16858, Note_off_c, 0, 58, 116
1, 16886, Note_on_c, 0, 55, 118
1, 16943, Note_off_c, 0, 55, 118
1, 16961, Note_on_c, 0, 50, 107
1, 17073, Note_off_c, 0, 50, 107
1, 17519, Note_on_c, 0, 62, 122
1, 17620, Note_off_c, 0, 62, 122
1, 17642, Note_on_c, 0, 65, 116
1, 17686, Note_off_c, 0, 65, 116
1, 17734, Note_on_c, 0, 67, 116
1, 17837, Note_off_c, 0, 67, 116
1, 17841, Note_on_c, 0, 70, 118
1, 17902, Note_off_c, 0, 70, 118
1, 17914, Note_on_c, 0, 65, 113
1, 18003, Note_off_c, 0, 65, 113
1, 18035, Note_on_c, 0, 67, 116
1, 18305, Note_off_c, 0, 67, 116
1, 18408, Note_on_c, 0, 65, 119
1, 18473, Note_on_c, 0, 62, 121
1, 18473, Note_off_c, 0, 65, 119
1, 18561, Note_off_c, 0, 62, 121
1, 18586, Note_on_c, 0, 60, 116
1, 18654, Note_off_c, 0, 60, 116
1, 18671, Note_on_c, 0, 58, 117
1, 18766, Note_off_c, 0, 58, 117
1, 18789, Note_on_c, 0, 55, 107
1, 18844, Note_off_c, 0, 55, 107
1, 18857, Note_on_c, 0, 61, 118
1, 18903, Note_off_c, 0, 61, 118
1, 18905, Note_on_c, 0, 60, 109
1, 18994, Note_off_c, 0, 60, 109
1, 19003, Note_on_c, 0, 58, 114
1, 19076, Note_off_c, 0, 58, 114
1, 19079, Note_on_c, 0, 55, 113
1, 19147, Note_off_c, 0, 55, 113
1, 19173, Note_on_c, 0, 58, 116
1, 19359, Note_off_c, 0, 58, 116
1, 19375, Note_on_c, 0, 55, 115
1, 19430, Note_off_c, 0, 55, 115
1, 19452, Note_on_c, 0, 53, 109
1, 19521, Note_off_c, 0, 53, 109
1, 19540, Note_on_c, 0, 50, 107
1, 19598, Note_off_c, 0, 50, 107
1, 19626, Note_on_c, 0, 53, 113
1, 19710, Note_off_c, 0, 53, 113
1, 19732, Note_on_c, 0, 50, 112
1, 19817, Note_off_c, 0, 50, 112
1, 19819, Note_on_c, 0, 53, 115
1, 19906, Note_off_c, 0, 53, 115
1, 19927, Note_on_c, 0, 50, 115
1, 20009, Note_off_c, 0, 50, 115
1, 20373, Note_on_c, 0, 65, 120
1, 20416, Note_off_c, 0, 65, 120
1, 20423, Note_on_c, 0, 67, 117
1, 20650, Note_off_c, 0, 67, 117
1, 20732, Note_on_c, 0, 61, 123
1, 20775, Note_off_c, 0, 61, 123
1, 20784, Note_on_c, 0, 60, 113
1, 20865, Note_off_c, 0, 60, 113
1, 20884, Note_on_c, 0, 58, 115
1, 20966, Note_off_c, 0, 58, 115
1, 20979, Note_on_c, 0, 55, 111
1, 21068, Note_off_c, 0, 55, 111
1, 21090, Note_on_c, 0, 52, 111
1, 21149, Note_off_c, 0, 52, 111
1, 21149, Note_on_c, 0, 55, 118
1, 21219, Note_off_c, 0, 55, 118
1, 21245, Note_on_c, 0, 55, 109
1, 21330, Note_off_c, 0, 55, 109
1, 21920, Note_on_c, 0, 67, 113
1, 22019, Note_off_c, 0, 67, 113
1, 22107, Note_on_c, 0, 66, 120
1, 22159, Note_off_c, 0, 66, 120
1, 22163, Note_on_c, 0, 67, 117
1, 22423, Note_off_c, 0, 67, 117
1, 22433, Note_on_c, 0, 66, 118
1, 22453, Note_off_c, 0, 66, 118
1, 22463, Note_on_c, 0, 67, 114
1, 22585, Note_off_c, 0, 67, 114
1, 22601, Note_on_c, 0, 65, 120
1, 22662, Note_off_c, 0, 65, 120
1, 22674, Note_on_c, 0, 64, 119
1, 22698, Note_off_c, 0, 64, 119
1, 22786, Note_on_c, 0, 62, 122
1, 22859, Note_off_c, 0, 62, 122
1, 22992, Note_on_c, 0, 55, 118
1, 23070, Note_off_c, 0, 55, 118
1, 23167, Note_on_c, 0, 60, 118
1, 23245, Note_off_c, 0, 60, 118
1, 23376, Note_on_c, 0, 58, 117
1, 23428, Note_off_c, 0, 58, 117
1, 23454, Note_on_c, 0, 60, 116
1, 23531, Note_off_c, 0, 60, 116
1, 23564, Note_on_c, 0, 55, 115
1, 23637, Note_off_c, 0, 55, 115
1, 23646, Note_on_c, 0, 60, 116
1, 23811, Note_off_c, 0, 60, 116
1, 23862, Note_on_c, 0, 55, 117
1, 23953, Note_off_c, 0, 55, 117
1, 23971, Note_on_c, 0, 58, 117
1, 24041, Note_off_c, 0, 58, 117
1, 24167, Note_on_c, 0, 58, 114
1, 24205, Note_off_c, 0, 58, 114
1, 24229, Note_on_c, 0, 61, 119
1, 24259, Note_off_c, 0, 61, 119
1, 24262, Note_on_c, 0, 62, 123
1, 24332, Note_off_c, 0, 62, 123
1, 24339, Note_on_c, 0, 65, 121
1, 24381, Note_off_c, 0, 65, 121
1, 24431, Note_on_c, 0, 65, 118
1, 24621, Note_off_c, 0, 65, 118
1, 24640, Note_on_c, 0, 62, 121
1, 24712, Note_off_c, 0, 62, 121
1, 24741, Note_on_c, 0, 60, 116
1, 24808, Note_off_c, 0, 60, 116
1, 24829, Note_on_c, 0, 58, 115
1, 24924, Note_off_c, 0, 58, 115
1, 24939, Note_on_c, 0, 55, 114
1, 24965, Note_off_c, 0, 55, 114
1, 24969, Note_on_c, 0, 54, 84
1, 24978, Note_off_c, 0, 54, 84
1, 25379, Note_on_c, 0, 55, 117
1, 25464, Note_off_c, 0, 55, 117
1, 25501, Note_on_c, 0, 58, 114
1, 25552, Note_off_c, 0, 58, 114
1, 25748, Note_on_c, 0, 58, 118
1, 25841, Note_off_c, 0, 58, 118
1, 25861, Note_on_c, 0, 55, 114
1, 25936, Note_off_c, 0, 55, 114
1, 25952, Note_on_c, 0, 58, 116
1, 26044, Note_off_c, 0, 58, 116
1, 26054, Note_on_c, 0, 55, 116
1, 26121, Note_off_c, 0, 55, 116
1, 26135, Note_on_c, 0, 53, 114
1, 26306, Note_off_c, 0, 53, 114
1, 26320, Note_on_c, 0, 55, 119
1, 26416, Note_off_c, 0, 55, 119
1, 26447, Note_on_c, 0, 50, 116
1, 26514, Note_off_c, 0, 50, 116
1, 26526, Note_on_c, 0, 55, 118
1, 26547, Note_off_c, 0, 55, 118
1, 26552, Note_on_c, 0, 58, 115
1, 26630, Note_off_c, 0, 58, 115
1, 26634, Note_on_c, 0, 60, 118
1, 26800, Note_off_c, 0, 60, 118
1, 26817, Note_on_c, 0, 62, 120
1, 26991, Note_off_c, 0, 62, 120
1, 27010, Note_on_c, 0, 65, 116
1, 27171, Note_off_c, 0, 65, 116
1, 27199, Note_on_c, 0, 62, 116
1, 27590, Note_off_c, 0, 62, 116
1, 27608, Note_on_c, 0, 60, 117
1, 27686, Note_off_c, 0, 60, 117
1, 27697, Note_on_c, 0, 58, 116
1, 27777, Note_off_c, 0, 58, 116
1, 27791, Note_on_c, 0, 55, 121
1, 27862, Note_off_c, 0, 55, 121
1, 27875, Note_on_c, 0, 53, 113
1, 27966, Note_off_c, 0, 53, 113
1, 27988, Note_on_c, 0, 50, 114
1, 28061, Note_off_c, 0, 50, 114
1, 28067, Note_on_c, 0, 53, 112
1, 28156, Note_off_c, 0, 53, 112
1, 28163, Note_on_c, 0, 53, 109
1, 28267, Note_off_c, 0, 53, 109
1, 28268, Note_on_c, 0, 50, 113
1, 28357, Note_off_c, 0, 50, 113
1, 28371, Note_on_c, 0, 48, 109
1, 28431, Note_off_c, 0, 48, 109
1, 28453, Note_on_c, 0, 50, 116
1, 28541, Note_off_c, 0, 50, 116
1, 28924, Note_on_c, 0, 69, 120
1, 28962, Note_off_c, 0, 69, 120
1, 28964, Note_on_c, 0, 70, 117
1, 29198, Note_off_c, 0, 70, 117
1, 29200, Note_on_c, 0, 67, 117
1, 29293, Note_off_c, 0, 67, 117
1, 29321, Note_on_c, 0, 70, 117
1, 29397, Note_off_c, 0, 70, 117
1, 29398, Note_on_c, 0, 67, 113
1, 29478, Note_off_c, 0, 67, 113
1, 29486, Note_on_c, 0, 65, 112
1, 29520, Note_off_c, 0, 65, 112
1, 29580, Note_on_c, 0, 67, 120
1, 29604, Note_off_c, 0, 67, 120
1, 29606, Note_on_c, 0, 66, 114
1, 29660, Note_off_c, 0, 66, 114
1, 29663, Note_on_c, 0, 67, 10
1, 29952, Note_off_c, 0, 67, 10
1, 29967, Note_on_c, 0, 65, 121
1, 30108, Note_off_c, 0, 65, 121
1, 30114, Note_on_c, 0, 67, 116
1, 30146, Note_off_c, 0, 67, 116
1, 30248, Note_on_c, 0, 65, 124
1, 30610, Note_off_c, 0, 65, 124
1, 30653, Note_on_c, 0, 62, 123
1, 30717, Note_off_c, 0, 62, 123
1, 30727, Note_on_c, 0, 65, 120
1, 30804, Note_off_c, 0, 65, 120
1, 30819, Note_on_c, 0, 62, 124
1, 30900, Note_off_c, 0, 62, 124
1, 30910, Note_on_c, 0, 60, 120
1, 31001, Note_off_c, 0, 60, 120
1, 31009, Note_on_c, 0, 55, 118
1, 31105, Note_off_c, 0, 55, 118
1, 31184, Note_on_c, 0, 60, 111
1, 31289, Note_off_c, 0, 60, 111
1, 31304, Note_on_c, 0, 58, 122
1, 31389, Note_off_c, 0, 58, 122
1, 31401, Note_on_c, 0, 55, 118
1, 31465, Note_off_c, 0, 55, 118
1, 31489, Note_on_c, 0, 58, 114
1, 31579, Note_off_c, 0, 58, 114
1, 31587, Note_on_c, 0, 57, 114
1, 31598, Note_off_c, 0, 57, 114
1, 31601, Note_on_c, 0, 58, 118
1, 31667, Note_off_c, 0, 58, 118
1, 31674, Note_on_c, 0, 55, 116
1, 31755, Note_off_c, 0, 55, 116
1, 32251, Note_on_c, 0, 65, 122
1, 32419, Note_off_c, 0, 65, 122
1, 32421, Note_on_c, 0, 67, 119
1, 32518, Note_off_c, 0, 67, 119
1, 32616, Note_on_c, 0, 65, 122
1, 32647, Note_off_c, 0, 65, 122
1, 32656, Note_on_c, 0, 67, 119
1, 32999, Note_off_c, 0, 67, 119
1, 33015, Note_on_c, 0, 65, 121
1, 33192, Note_off_c, 0, 65, 121
1, 33204, Note_on_c, 0, 67, 123
1, 33276, Note_off_c, 0, 67, 123
1, 33662, Note_on_c, 0, 55, 124
1, 33718, Note_off_c, 0, 55, 124
1, 33814, Note_on_c, 0, 71, 120
1, 33830, Note_off_c, 0, 71, 120
1, 33833, Note_on_c, 0, 72, 123
1, 33889, Note_off_c, 0, 72, 123
1, 33947, Note_on_c, 0, 70, 121
1, 34006, Note_off_c, 0, 70, 121
1, 34021, Note_on_c, 0, 67, 119
1, 34272, Note_off_c, 0, 67, 119
1, 34364, Note_on_c, 0, 72, 122
1, 34419, Note_off_c, 0, 72, 122
1, 34475, Note_on_c, 0, 73, 123
1, 34548, Note_off_c, 0, 73, 123
1, 34624, Note_on_c, 0, 70, 124
1, 34693, Note_off_c, 0, 70, 124
1, 34759, Note_on_c, 0, 67, 117
1, 34946, Note_off_c, 0, 67, 117
1, 34997, Note_on_c, 0, 70, 122
1, 35042, Note_off_c, 0, 70, 122
1, 35051, Note_on_c, 0, 67, 115
1, 35095, Note_off_c, 0, 67, 115
1, 35153, Note_on_c, 0, 71, 92
1, 35161, Note_off_c, 0, 71, 92
1, 35163, Note_on_c, 0, 72, 125
1, 35224, Note_off_c, 0, 72, 125
1, 35230, Note_on_c, 0, 70, 119
1, 35285, Note_off_c, 0, 70, 119
1, 35337, Note_on_c, 0, 67, 120
1, 35519, Note_off_c, 0, 67, 120
1, 35545, Note_on_c, 0, 65, 126
1, 35608, Note_off_c, 0, 65, 126
1, 35614, Note_on_c, 0, 67, 120
1, 35654, Note_off_c, 0, 67, 120
1, 35726, Note_on_c, 0, 71, 117
1, 35742, Note_off_c, 0, 71, 117
1, 35745, Note_on_c, 0, 72, 120
1, 35793, Note_off_c, 0, 72, 120
1, 35841, Note_on_c, 0, 72, 123
1, 35906, Note_off_c, 0, 72, 123
1, 35906, Note_on_c, 0, 70, 122
1, 35966, Note_off_c, 0, 70, 122
1, 36023, Note_on_c, 0, 67, 120
1, 36115, Note_off_c, 0, 67, 120
1, 36186, Note_on_c, 0, 71, 109
1, 36217, Note_off_c, 0, 71, 109
1, 36222, Note_on_c, 0, 72, 122
1, 36274, Note_off_c, 0, 72, 122
1, 36344, Note_on_c, 0, 70, 125
1, 36559, Note_off_c, 0, 70, 125
1, 36585, Note_on_c, 0, 67, 116
1, 36654, Note_off_c, 0, 67, 116
1, 36660, Note_on_c, 0, 70, 118
1, 36708, Note_off_c, 0, 70, 118
1, 36750, Note_on_c, 0, 71, 121
1, 36773, Note_off_c, 0, 71, 121
1, 36773, Note_on_c, 0, 72, 123
1, 36823, Note_off_c, 0, 72, 123
1, 36832, Note_on_c, 0, 70, 121
1, 36893, Note_off_c, 0, 70, 121
1, 36946, Note_on_c, 0, 67, 119
1, 37190, Note_off_c, 0, 67, 119
1, 37510, Note_on_c, 0, 65, 121
1, 37565, Note_off_c, 0, 65, 121
1, 37565, Note_on_c, 0, 72, 122
1, 37593, Note_off_c, 0, 72, 122
1, 37595, Note_on_c, 0, 74, 121
1, 37625, Note_off_c, 0, 74, 121
1, 37627, Note_on_c, 0, 67, 121
1, 37719, Note_off_c, 0, 67, 121
1, 37723, Note_on_c, 0, 65, 123
1, 37800, Note_off_c, 0, 65, 123
1, 37806, Note_on_c, 0, 62, 125
1, 37879, Note_off_c, 0, 62, 125
1, 37913, Note_on_c, 0, 61, 126
1, 37939, Note_off_c, 0, 61, 126
1, 37941, Note_on_c, 0, 60, 124
1, 38255, Note_off_c, 0, 60, 124
1, 38284, Note_on_c, 0, 58, 118
1, 38347, Note_off_c, 0, 58, 118
1, 38356, Note_on_c, 0, 60, 120
1, 38458, Note_off_c, 0, 60, 120
1, 38468, Note_on_c, 0, 62, 127
1, 38555, Note_off_c, 0, 62, 127
1, 38562, Note_on_c, 0, 61, 117
1, 38605, Note_off_c, 0, 61, 117
1, 38605, End_track
0, 0, End_of_file
