0, 0, Header, 1, 1, 192
1, 0, Start_track
1, 0, Title_t, "Melody"
1, 0, Tempo, 203389
1, 0, Key_signature, 1, "major"
1, 0, Time_signature, 4, 2, 24, 8
1, 3622, Note_on_c, 0, 62, 91
1, 3737, Note_off_c, 0, 62, 91
1, 3745, Note_on_c, 0, 64, 87
1, 3846, Note_off_c, 0, 64, 87
1, 3851, Note_on_c, 0, 65, 80
1, 3933, Note_off_c, 0, 65, 80
1, 3938, Note_on_c, 0, 66, 76
1, 4102, Note_off_c, 0, 66, 76
1, 4104, Note_on_c, 0, 67, 73
1, 4251, Note_off_c, 0, 67, 73
1, 4260, Note_on_c, 0, 69, 66
1, 4440, Note_off_c, 0, 69, 66
1, 4473, Note_on_c, 0, 66, 69
1, 4664, Note_off_c, 0, 66, 69
1, 4673, Note_on_c, 0, 67, 75
1, 4862, Note_off_c, 0, 67, 75
1, 4949, Note_on_c, 0, 62, 79
1, 5474, Note_off_c, 0, 62, 79
1, 5495, Note_on_c, 0, 61, 103
1, 5553, Note_off_c, 0, 61, 103
1, 5563, Note_on_c, 0, 62, 100
1, 5663, Note_off_c, 0, 62, 100
1, 5703, Note_on_c, 0, 55, 86
1, 6428, Note_off_c, 0, 55, 86
1, 6571, Note_on_c, 0, 62, 80
1, 6641, Note_off_c, 0, 62, 80
1, 6653, Note_on_c, 0, 64, 85
1, 6730, Note_off_c, 0, 64, 85
1, 6741, Note_on_c, 0, 66, 83
1, 6814, Note_off_c, 0, 66, 83
1, 6816, Note_on_c, 0, 67, 87
1, 6939, Note_off_c, 0, 67, 87
1, 6943, Note_on_c, 0, 69, 80
1, 7117, Note_off_c, 0, 69, 80
1, 7135, Note_on_c, 0, 66, 80
1, 7361, Note_off_c, 0, 66, 80
1, 7374, Note_on_c, 0, 67, 74
1, 7549, Note_off_c, 0, 67, 74
1, 7590, Note_on_c, 0, 62, 74
1, 7918, Note_off_c, 0, 62, 74
1, 7943, Note_on_c, 0, 61, 74
1, 7989, Note_off_c, 0, 61, 74
1, 8009, Note_on_c, 0, 62, 84
1, 8146, Note_off_c, 0, 62, 84
1, 8201, Note_on_c, 0, 55, 86
1, 9162, Note_off_c, 0, 55, 86
1, 9164, Note_on_c, 0, 61, 87
1, 9219, Note_off_c, 0, 61, 87
1, 9240, Note_on_c, 0, 62, 80
1, 9374, Note_off_c, 0, 62, 80
1, 9424, Note_on_c, 0, 55, 78
1, 9934, Note_off_c, 0, 55, 78
1, 10011, Note_on_c, 0, 61, 69
1, 10084, Note_off_c, 0, 61, 69
1, 10093, Note_on_c, 0, 62, 71
1, 10151, Note_off_c, 0, 62, 71
1, 10237, Note_on_c, 0, 55, 91
1, 11101, Note_off_c, 0, 55, 91
1, 11139, Note_on_c, 0, 61, 91
1, 11191, Note_off_c, 0, 61, 91
1, 11209, Note_on_c, 0, 62, 89
1, 11323, Note_off_c, 0, 62, 89
1, 11406, Note_on_c, 0, 55, 101
1, 11537, Note_off_c, 0, 55, 101
1, 11567, Note_on_c, 0, 61, 90
1, 11640, Note_off_c, 0, 61, 90
1, 11651, Note_on_c, 0, 62, 84
1, 11728, Note_off_c, 0, 62, 84
1, 11811, Note_on_c, 0, 55, 83
1, 12698, Note_off_c, 0, 55, 83
1, 12698, Note_on_c, 0, 58, 85
1, 12761, Note_off_c, 0, 58, 85
1, 12772, Note_on_c, 0, 59, 77
1, 12890, Note_off_c, 0, 59, 77
1, 12929, Note_on_c, 0, 55, 91
1, 13101, Note_off_c, 0, 55, 91
1, 13161, Note_on_c, 0, 61, 88
1, 13210, Note_off_c, 0, 61, 88
1, 13213, Note_on_c, 0, 62, 76
1, 13308, Note_off_c, 0, 62, 76
1, 13332, Note_on_c, 0, 55, 77
1, 13780, Note_off_c, 0, 55, 77
1, 13847, Note_on_c, 0, 55, 95
1, 13907, Note_off_c, 0, 55, 95
1, 15070, Note_on_c, 0, 65, 78
1, 15152, Note_off_c, 0, 65, 78
1, 15155, Note_on_c, 0, 67, 76
1, 15275, Note_off_c, 0, 67, 76
1, 15362, Note_on_c, 0, 62, 84
1, 15435, Note_off_c, 0, 62, 84
1, 15451, Note_on_c, 0, 65, 80
1, 15585, Note_off_c, 0, 65, 80
1, 15587, Note_on_c, 0, 62, 71
1, 15665, Note_off_c, 0, 62, 71
1, 15759, Note_on_c, 0, 63, 73
1, 15868, Note_off_c, 0, 63, 73
1, 15876, Note_on_c, 0, 60, 70
1, 16004, Note_off_c, 0, 60, 70
1, 16004, Note_on_c, 0, 62, 70
1, 16077, Note_off_c, 0, 62, 70
1, 16175, Note_on_c, 0, 58, 81
1, 16246, Note_off_c, 0, 58, 81
1, 16256, Note_on_c, 0, 60, 76
1, 16412, Note_off_c, 0, 60, 76
1, 16444, Note_on_c, 0, 57, 71
1, 16515, Note_off_c, 0, 57, 71
1, 16586, Note_on_c, 0, 58, 97
1, 16720, Note_off_c, 0, 58, 97
1, 16730, Note_on_c, 0, 57, 94
1, 16834, Note_off_c, 0, 57, 94
1, 16866, Note_on_c, 0, 53, 99
1, 17016, Note_off_c, 0, 53, 99
1, 17024, Note_on_c, 0, 55, 98
1, 17350, Note_off_c, 0, 55, 98
1, 17476, Note_on_c, 0, 50, 81
1, 17549, Note_off_c, 0, 50, 81
1, 17558, Note_on_c, 0, 53, 74
1, 17652, Note_off_c, 0, 53, 74
1, 17661, Note_on_c, 0, 52, 81
1, 17738, Note_off_c, 0, 52, 81
1, 17747, Note_on_c, 0, 51, 92
1, 17868, Note_off_c, 0, 51, 92
1, 17886, Note_on_c, 0, 53, 89
1, 17949, Note_off_c, 0, 53, 89
1, 17949, Note_on_c, 0, 55, 81
1, 18017, Note_off_c, 0, 55, 81
1, 18036, Note_on_c, 0, 58, 77
1, 18112, Note_off_c, 0, 58, 77
1, 18117, Note_on_c, 0, 62, 76
1, 18177, Note_off_c, 0, 62, 76
1, 18187, Note_on_c, 0, 63, 70
1, 18267, Note_off_c, 0, 63, 70
1, 18278, Note_on_c, 0, 64, 91
1, 18328, Note_off_c, 0, 64, 91
1, 18345, Note_on_c, 0, 65, 70
1, 18440, Note_off_c, 0, 65, 70
1, 18456, Note_on_c, 0, 64, 93
1, 18532, Note_off_c, 0, 64, 93
1, 18537, Note_on_c, 0, 63, 83
1, 18649, Note_off_c, 0, 63, 83
1, 18657, Note_on_c, 0, 62, 99
1, 18736, Note_off_c, 0, 62, 99
1, 18746, Note_on_c, 0, 60, 105
1, 18830, Note_off_c, 0, 60, 105
1, 18835, Note_on_c, 0, 58, 105
1, 18925, Note_off_c, 0, 58, 105
1, 18937, Note_on_c, 0, 57, 102
1, 19037, Note_off_c, 0, 57, 102
1, 19052, Note_on_c, 0, 54, 94
1, 19125, Note_off_c, 0, 54, 94
1, 19133, Note_on_c, 0, 53, 93
1, 19234, Note_off_c, 0, 53, 93
1, 19260, Note_on_c, 0, 51, 99
1, 19356, Note_off_c, 0, 51, 99
1, 19367, Note_on_c, 0, 50, 89
1, 19438, Note_off_c, 0, 50, 89
1, 19542, Note_on_c, 0, 58, 101
1, 19599, Note_off_c, 0, 58, 101
1, 19609, Note_on_c, 0, 60, 92
1, 19713, Note_off_c, 0, 60, 92
1, 19726, Note_on_c, 0, 57, 102
1, 19789, Note_off_c, 0, 57, 102
1, 19797, Note_on_c, 0, 59, 101
1, 19858, Note_off_c, 0, 59, 101
1, 19873, Note_on_c, 0, 58, 87
1, 19938, Note_off_c, 0, 58, 87
1, 19998, Note_on_c, 0, 65, 75
1, 20040, Note_off_c, 0, 65, 75
1, 20059, Note_on_c, 0, 69, 67
1, 20164, Note_off_c, 0, 69, 67
1, 20182, Note_on_c, 0, 65, 83
1, 20234, Note_off_c, 0, 65, 83
1, 20242, Note_on_c, 0, 67, 73
1, 20535, Note_off_c, 0, 67, 73
1, 20545, Note_on_c, 0, 62, 88
1, 20594, Note_off_c, 0, 62, 88
1, 20602, Note_on_c, 0, 65, 82
1, 20748, Note_off_c, 0, 65, 82
1, 22323, Note_on_c, 0, 63, 75
1, 22457, Note_off_c, 0, 63, 75
1, 22468, Note_on_c, 0, 61, 75
1, 22537, Note_off_c, 0, 61, 75
1, 22540, Note_on_c, 0, 62, 70
1, 22663, Note_off_c, 0, 62, 70
1, 22676, Note_on_c, 0, 60, 105
1, 22756, Note_off_c, 0, 60, 105
1, 22759, Note_on_c, 0, 59, 99
1, 22841, Note_off_c, 0, 59, 99
1, 22852, Note_on_c, 0, 57, 95
1, 22913, Note_off_c, 0, 57, 95
1, 22922, Note_on_c, 0, 55, 116
1, 23018, Note_off_c, 0, 55, 116
1, 23029, Note_on_c, 0, 54, 73
1, 23100, Note_off_c, 0, 54, 73
1, 23132, Note_on_c, 0, 57, 94
1, 23234, Note_off_c, 0, 57, 94
1, 23257, Note_on_c, 0, 54, 92
1, 23314, Note_off_c, 0, 54, 92
1, 23321, Note_on_c, 0, 55, 108
1, 23448, Note_off_c, 0, 55, 108
1, 23463, Note_on_c, 0, 54, 91
1, 23532, Note_off_c, 0, 54, 91
1, 23532, Note_on_c, 0, 55, 98
1, 23616, Note_off_c, 0, 55, 98
1, 23646, Note_on_c, 0, 58, 96
1, 23692, Note_off_c, 0, 58, 96
1, 23732, Note_on_c, 0, 62, 86
1, 23814, Note_off_c, 0, 62, 86
1, 23829, Note_on_c, 0, 66, 77
1, 23983, Note_on_c, 0, 62, 93
1, 23983, Note_off_c, 0, 66, 77
1, 24048, Note_off_c, 0, 62, 93
1, 24052, Note_on_c, 0, 64, 84
1, 24293, Note_off_c, 0, 64, 84
1, 24294, Note_on_c, 0, 63, 86
1, 24386, Note_off_c, 0, 63, 86
1, 24397, Note_on_c, 0, 61, 89
1, 24479, Note_off_c, 0, 61, 89
1, 24527, Note_on_c, 0, 57, 84
1, 24619, Note_off_c, 0, 57, 84
1, 24626, Note_on_c, 0, 54, 90
1, 24699, Note_off_c, 0, 54, 90
1, 24718, Note_on_c, 0, 57, 99
1, 24773, Note_off_c, 0, 57, 99
1, 24794, Note_on_c, 0, 61, 90
1, 24878, Note_off_c, 0, 61, 90
1, 24889, Note_on_c, 0, 64, 83
1, 24969, Note_off_c, 0, 64, 83
1, 24988, Note_on_c, 0, 68, 78
1, 25088, Note_off_c, 0, 68, 78
1, 25103, Note_on_c, 0, 66, 76
1, 25191, Note_off_c, 0, 66, 76
1, 25200, Note_on_c, 0, 64, 81
1, 25290, Note_off_c, 0, 64, 81
1, 25299, Note_on_c, 0, 61, 76
1, 25376, Note_off_c, 0, 61, 76
1, 25412, Note_on_c, 0, 57, 85
1, 25481, Note_off_c, 0, 57, 85
1, 25507, Note_on_c, 0, 54, 83
1, 25564, Note_off_c, 0, 54, 83
1, 25564, Note_on_c, 0, 63, 74
1, 25702, Note_off_c, 0, 63, 74
1, 25709, Note_on_c, 0, 61, 71
1, 25793, Note_off_c, 0, 61, 71
1, 25793, Note_on_c, 0, 59, 72
1, 25877, Note_off_c, 0, 59, 72
1, 25890, Note_on_c, 0, 58, 72
1, 25963, Note_off_c, 0, 58, 72
1, 25982, Note_on_c, 0, 57, 104
1, 26087, Note_off_c, 0, 57, 104
1, 26090, Note_on_c, 0, 56, 104
1, 26159, Note_off_c, 0, 56, 104
1, 26166, Note_on_c, 0, 58, 92
1, 26239, Note_off_c, 0, 58, 92
1, 26258, Note_on_c, 0, 59, 108
1, 26321, Note_off_c, 0, 59, 108
1, 26338, Note_on_c, 0, 61, 80
1, 26438, Note_off_c, 0, 61, 80
1, 26438, Note_on_c, 0, 63, 101
1, 26493, Note_off_c, 0, 63, 101
1, 26493, Note_on_c, 0, 66, 97
1, 26597, Note_off_c, 0, 66, 97
1, 26618, Note_on_c, 0, 63, 93
1, 26687, Note_off_c, 0, 63, 93
1, 26702, Note_on_c, 0, 64, 96
1, 26836, Note_off_c, 0, 64, 96
1, 26843, Note_on_c, 0, 60, 89
1, 26921, Note_off_c, 0, 60, 89
1, 26921, Note_on_c, 0, 57, 92
1, 27019, Note_off_c, 0, 57, 92
1, 27034, Note_on_c, 0, 55, 90
1, 27099, Note_off_c, 0, 55, 90
1, 27114, Note_on_c, 0, 54, 101
1, 27214, Note_on_c, 0, 57, 94
1, 27214, Note_off_c, 0, 54, 101
1, 27283, Note_off_c, 0, 57, 94
1, 27283, Note_on_c, 0, 60, 88
1, 27361, Note_off_c, 0, 60, 88
1, 27370, Note_on_c, 0, 64, 76
1, 27489, Note_off_c, 0, 64, 76
1, 27498, Note_on_c, 0, 62, 82
1, 27567, Note_off_c, 0, 62, 82
1, 27574, Note_on_c, 0, 60, 78
1, 27668, Note_off_c, 0, 60, 78
1, 27683, Note_on_c, 0, 59, 83
1, 27771, Note_off_c, 0, 59, 83
1, 27774, Note_on_c, 0, 57, 86
1, 27870, Note_off_c, 0, 57, 86
1, 27889, Note_on_c, 0, 55, 98
1, 27966, Note_off_c, 0, 55, 98
1, 27969, Note_on_c, 0, 54, 91
1, 28038, Note_off_c, 0, 54, 91
1, 28053, Note_on_c, 0, 57, 87
1, 28151, Note_off_c, 0, 57, 87
1, 28172, Note_on_c, 0, 55, 85
1, 28252, Note_off_c, 0, 55, 85
1, 28255, Note_on_c, 0, 54, 81
1, 28339, Note_off_c, 0, 54, 81
1, 28362, Note_on_c, 0, 55, 80
1, 28439, Note_off_c, 0, 55, 80
1, 28450, Note_on_c, 0, 59, 89
1, 28542, Note_off_c, 0, 59, 89
1, 28580, Note_on_c, 0, 62, 78
1, 28676, Note_off_c, 0, 62, 78
1, 28687, Note_on_c, 0, 65, 74
1, 28752, Note_off_c, 0, 65, 74
1, 28767, Note_on_c, 0, 67, 71
1, 28813, Note_off_c, 0, 67, 71
1, 28814, Note_on_c, 0, 69, 67
1, 28894, Note_off_c, 0, 69, 67
1, 28926, Note_on_c, 0, 66, 82
1, 29001, Note_off_c, 0, 66, 82
1, 29016, Note_on_c, 0, 67, 82
1, 29100, Note_off_c, 0, 67, 82
1, 29113, Note_on_c, 0, 69, 77
1, 29193, Note_off_c, 0, 69, 77
1, 29204, Note_on_c, 0, 66, 79
1, 29304, Note_off_c, 0, 66, 79
1, 29309, Note_on_c, 0, 62, 85
1, 29387, Note_off_c, 0, 62, 85
1, 29396, Note_on_c, 0, 59, 80
1, 29486, Note_off_c, 0, 59, 80
1, 29497, Note_on_c, 0, 60, 85
1, 29575, Note_off_c, 0, 60, 85
1, 29575, Note_on_c, 0, 62, 82
1, 29646, Note_off_c, 0, 62, 82
1, 29672, Note_on_c, 0, 59, 98
1, 29776, Note_off_c, 0, 59, 98
1, 29777, Note_on_c, 0, 57, 95
1, 29896, Note_off_c, 0, 57, 95
1, 29901, Note_on_c, 0, 55, 92
1, 29989, Note_off_c, 0, 55, 92
1, 29989, Note_on_c, 0, 57, 94
1, 30268, Note_off_c, 0, 57, 94
1, 30269, Note_on_c, 0, 58, 90
1, 30342, Note_off_c, 0, 58, 90
1, 30361, Note_on_c, 0, 62, 83
1, 30495, Note_off_c, 0, 62, 83
1, 30512, Note_on_c, 0, 58, 93
1, 30577, Note_off_c, 0, 58, 93
1, 31492, Note_on_c, 0, 55, 86
1, 31591, Note_off_c, 0, 55, 86
1, 31591, Note_on_c, 0, 58, 102
1, 31656, Note_off_c, 0, 58, 102
1, 31666, Note_on_c, 0, 62, 86
1, 31743, Note_off_c, 0, 62, 86
1, 31756, Note_on_c, 0, 66, 66
1, 31844, Note_off_c, 0, 66, 66
1, 31928, Note_on_c, 0, 69, 68
1, 32032, Note_off_c, 0, 69, 68
1, 32043, Note_on_c, 0, 68, 71
1, 32081, Note_off_c, 0, 68, 71
1, 32102, Note_on_c, 0, 67, 64
1, 32132, Note_off_c, 0, 67, 64
1, 32145, Note_on_c, 0, 66, 70
1, 32260, Note_off_c, 0, 66, 70
1, 32300, Note_on_c, 0, 69, 71
1, 32434, Note_off_c, 0, 69, 71
1, 32445, Note_on_c, 0, 68, 67
1, 32479, Note_off_c, 0, 68, 67
1, 32498, Note_on_c, 0, 67, 69
1, 32530, Note_off_c, 0, 67, 69
1, 32545, Note_on_c, 0, 66, 65
1, 32632, Note_off_c, 0, 66, 65
1, 32684, Note_on_c, 0, 69, 71
1, 32813, Note_off_c, 0, 69, 71
1, 32832, Note_on_c, 0, 68, 80
1, 32868, Note_off_c, 0, 68, 80
1, 32868, Note_on_c, 0, 67, 79
1, 32898, Note_off_c, 0, 67, 79
1, 32915, Note_on_c, 0, 66, 78
1, 33022, Note_off_c, 0, 66, 78
1, 33048, Note_on_c, 0, 69, 84
1, 33146, Note_off_c, 0, 69, 84
1, 33163, Note_on_c, 0, 68, 82
1, 33199, Note_off_c, 0, 68, 82
1, 33199, Note_on_c, 0, 67, 114
1, 33251, Note_off_c, 0, 67, 114
1, 33278, Note_on_c, 0, 66, 107
1, 33354, Note_off_c, 0, 66, 107
1, 33791, Note_on_c, 0, 57, 105
1, 33877, Note_off_c, 0, 57, 105
1, 33886, Note_on_c, 0, 64, 97
1, 33936, Note_off_c, 0, 64, 97
1, 33945, Note_on_c, 0, 67, 85
1, 33997, Note_off_c, 0, 67, 85
1, 34023, Note_on_c, 0, 68, 82
1, 34090, Note_off_c, 0, 68, 82
1, 34097, Note_on_c, 0, 71, 78
1, 34241, Note_off_c, 0, 71, 78
1, 34250, Note_on_c, 0, 70, 81
1, 34286, Note_off_c, 0, 70, 81
1, 34303, Note_on_c, 0, 69, 81
1, 34422, Note_off_c, 0, 69, 81
1, 34466, Note_on_c, 0, 71, 74
1, 34564, Note_off_c, 0, 71, 74
1, 34571, Note_on_c, 0, 70, 73
1, 34640, Note_off_c, 0, 70, 73
1, 34653, Note_on_c, 0, 69, 86
1, 34778, Note_off_c, 0, 69, 86
1, 34987, Note_on_c, 0, 60, 81
1, 35035, Note_off_c, 0, 60, 81
1, 35035, Note_on_c, 0, 62, 86
1, 35085, Note_off_c, 0, 62, 86
1, 35085, Note_on_c, 0, 67, 83
1, 35162, Note_off_c, 0, 67, 83
1, 35162, Note_on_c, 0, 70, 89
1, 35212, Note_off_c, 0, 70, 89
1, 35212, Note_on_c, 0, 72, 73
1, 35358, Note_off_c, 0, 72, 73
1, 35367, Note_on_c, 0, 73, 69
1, 35405, Note_off_c, 0, 73, 69
1, 35405, Note_on_c, 0, 60, 80
1, 35405, Note_off_c, 0, 60, 80
1, 35455, Note_on_c, 0, 71, 71
1, 35512, Note_off_c, 0, 71, 71
1, 35519, Note_on_c, 0, 70, 73
1, 35613, Note_off_c, 0, 70, 73
1, 35647, Note_on_c, 0, 72, 75
1, 35716, Note_off_c, 0, 72, 75
1, 35731, Note_on_c, 0, 73, 72
1, 35815, Note_off_c, 0, 73, 72
1, 35826, Note_on_c, 0, 72, 78
1, 35885, Note_off_c, 0, 72, 78
1, 35892, Note_on_c, 0, 70, 74
1, 35982, Note_off_c, 0, 70, 74
1, 36003, Note_on_c, 0, 72, 70
1, 36105, Note_off_c, 0, 72, 70
1, 36116, Note_on_c, 0, 73, 71
1, 36173, Note_off_c, 0, 73, 71
1, 36184, Note_on_c, 0, 72, 85
1, 36234, Note_off_c, 0, 72, 85
1, 36234, Note_on_c, 0, 70, 85
1, 36307, Note_off_c, 0, 70, 85
1, 36418, Note_on_c, 0, 71, 68
1, 36522, Note_off_c, 0, 71, 68
1, 36541, Note_on_c, 0, 70, 65
1, 36602, Note_off_c, 0, 70, 65
1, 36605, Note_on_c, 0, 69, 63
1, 36701, Note_off_c, 0, 69, 63
1, 36712, Note_on_c, 0, 68, 68
1, 36819, Note_off_c, 0, 68, 68
1, 37947, Note_on_c, 0, 67, 78
1, 38056, Note_off_c, 0, 67, 78
1, 38086, Note_on_c, 0, 62, 95
1, 38161, Note_off_c, 0, 62, 95
1, 38654, Note_on_c, 0, 67, 81
1, 38734, Note_off_c, 0, 67, 81
1, 38793, Note_on_c, 0, 62, 82
1, 38856, Note_off_c, 0, 62, 82
1, 39426, Note_on_c, 0, 67, 81
1, 39514, Note_off_c, 0, 67, 81
1, 39530, Note_on_c, 0, 62, 84
1, 39612, Note_off_c, 0, 62, 84
1, 39820, Note_on_c, 0, 69, 71
1, 39924, Note_off_c, 0, 69, 71
1, 39945, Note_on_c, 0, 62, 79
1, 40043, Note_off_c, 0, 62, 79
1, 40223, Note_on_c, 0, 67, 86
1, 40305, Note_off_c, 0, 67, 86
1, 40332, Note_on_c, 0, 62, 81
1, 40403, Note_off_c, 0, 62, 81
1, 40647, Note_on_c, 0, 69, 81
1, 40706, Note_off_c, 0, 69, 81
1, 40707, Note_on_c, 0, 62, 78
1, 40774, Note_off_c, 0, 62, 78
1, 40985, Note_on_c, 0, 67, 95
1, 41056, Note_off_c, 0, 67, 95
1, 41083, Note_on_c, 0, 62, 106
1, 41165, Note_off_c, 0, 62, 106
1, 41355, Note_on_c, 0, 69, 93
1, 41433, Note_off_c, 0, 69, 93
1, 41458, Note_on_c, 0, 62, 107
1, 41550, Note_off_c, 0, 62, 107
1, 41691, Note_on_c, 0, 67, 101
1, 41795, Note_off_c, 0, 67, 101
1, 41805, Note_on_c, 0, 62, 108
1, 41868, Note_off_c, 0, 62, 108
1, 41898, Note_on_c, 0, 67, 88
1, 41985, Note_off_c, 0, 67, 88
1, 42006, Note_on_c, 0, 71, 88
1, 42099, Note_off_c, 0, 71, 88
1, 42123, Note_on_c, 0, 67, 72
1, 42295, Note_off_c, 0, 67, 72
1, 42325, Note_on_c, 0, 62, 92
1, 42579, Note_off_c, 0, 62, 92
1, 43162, Note_on_c, 0, 67, 98
1, 43244, Note_off_c, 0, 67, 98
1, 43271, Note_on_c, 0, 70, 98
1, 43347, Note_off_c, 0, 70, 98
1, 43347, Note_on_c, 0, 66, 88
1, 43462, Note_off_c, 0, 66, 88
1, 43467, Note_on_c, 0, 69, 85
1, 43582, Note_off_c, 0, 69, 85
1, 43585, Note_on_c, 0, 67, 90
1, 43719, Note_off_c, 0, 67, 90
1, 43750, Note_on_c, 0, 62, 102
1, 43925, Note_off_c, 0, 62, 102
1, 43935, Note_on_c, 0, 66, 95
1, 44132, Note_off_c, 0, 66, 95
1, 44137, Note_on_c, 0, 62, 83
1, 44312, Note_off_c, 0, 62, 83
1, 44320, Note_on_c, 0, 64, 72
1, 44508, Note_off_c, 0, 64, 72
1, 44519, Note_on_c, 0, 58, 74
1, 44682, Note_off_c, 0, 58, 74
1, 44703, Note_on_c, 0, 57, 87
1, 44889, Note_off_c, 0, 57, 87
1, 44908, Note_on_c, 0, 55, 82
1, 45089, Note_off_c, 0, 55, 82
1, 45100, Note_on_c, 0, 57, 83
1, 45271, Note_off_c, 0, 57, 83
1, 45303, Note_on_c, 0, 52, 96
1, 45670, Note_off_c, 0, 52, 96
1, 46406, Note_on_c, 0, 70, 99
1, 46483, Note_off_c, 0, 70, 99
1, 46506, Note_on_c, 0, 71, 81
1, 46710, Note_off_c, 0, 71, 81
1, 46713, Note_on_c, 0, 70, 85
1, 46793, Note_off_c, 0, 70, 85
1, 46796, Note_on_c, 0, 69, 84
1, 46869, Note_off_c, 0, 69, 84
1, 46876, Note_on_c, 0, 68, 78
1, 46956, Note_off_c, 0, 68, 78
1, 46959, Note_on_c, 0, 66, 84
1, 47043, Note_off_c, 0, 66, 84
1, 47064, Note_on_c, 0, 65, 75
1, 47152, Note_off_c, 0, 65, 75
1, 47774, Note_on_c, 0, 74, 63
1, 47860, Note_off_c, 0, 74, 63
1, 47873, Note_on_c, 0, 76, 91
1, 48339, Note_off_c, 0, 76, 91
1, 48500, Note_on_c, 0, 70, 90
1, 48604, Note_off_c, 0, 70, 90
1, 48607, Note_on_c, 0, 71, 97
1, 48711, Note_off_c, 0, 71, 97
1, 48711, Note_on_c, 0, 74, 79
1, 48838, Note_off_c, 0, 74, 79
1, 48841, Note_on_c, 0, 73, 92
1, 48960, Note_off_c, 0, 73, 92
1, 48960, Note_on_c, 0, 72, 80
1, 49044, Note_off_c, 0, 72, 80
1, 49044, Note_on_c, 0, 71, 82
1, 49121, Note_off_c, 0, 71, 82
1, 49124, Note_on_c, 0, 69, 81
1, 49197, Note_off_c, 0, 69, 81
1, 49208, Note_on_c, 0, 68, 75
1, 49292, Note_off_c, 0, 68, 75
1, 49299, Note_on_c, 0, 71, 91
1, 49412, Note_off_c, 0, 71, 91
1, 49421, Note_on_c, 0, 68, 77
1, 49494, Note_off_c, 0, 68, 77
1, 49497, Note_on_c, 0, 69, 75
1, 49604, Note_off_c, 0, 69, 75
1, 49607, Note_on_c, 0, 67, 81
1, 49687, Note_off_c, 0, 67, 81
1, 49688, Note_on_c, 0, 66, 95
1, 49801, Note_off_c, 0, 66, 95
1, 49812, Note_on_c, 0, 64, 90
1, 49896, Note_off_c, 0, 64, 90
1, 49899, Note_on_c, 0, 62, 87
1, 49991, Note_off_c, 0, 62, 87
1, 49998, Note_on_c, 0, 60, 85
1, 50094, Note_off_c, 0, 60, 85
1, 50105, Note_on_c, 0, 59, 91
1, 50201, Note_off_c, 0, 59, 91
1, 50210, Note_on_c, 0, 57, 94
1, 50281, Note_off_c, 0, 57, 94
1, 50288, Note_on_c, 0, 55, 87
1, 50368, Note_off_c, 0, 55, 87
1, 50375, Note_on_c, 0, 54, 82
1, 50452, Note_off_c, 0, 54, 82
1, 50452, Note_on_c, 0, 57, 75
1, 50563, Note_off_c, 0, 57, 75
1, 50586, Note_on_c, 0, 54, 77
1, 50655, Note_off_c, 0, 54, 77
1, 50662, Note_on_c, 0, 55, 71
1, 50766, Note_off_c, 0, 55, 71
1, 51644, Note_on_c, 0, 55, 101
1, 51717, Note_off_c, 0, 55, 101
1, 51717, Note_on_c, 0, 58, 108
1, 51790, Note_off_c, 0, 58, 108
1, 51790, Note_on_c, 0, 60, 101
1, 51899, Note_off_c, 0, 60, 101
1, 51918, Note_on_c, 0, 63, 100
1, 51981, Note_off_c, 0, 63, 100
1, 51994, Note_on_c, 0, 67, 78
1, 52082, Note_off_c, 0, 67, 78
1, 52103, Note_on_c, 0, 70, 70
1, 52549, Note_off_c, 0, 70, 70
1, 52552, Note_on_c, 0, 67, 85
1, 52625, Note_off_c, 0, 67, 85
1, 52638, Note_on_c, 0, 69, 85
1, 52765, Note_off_c, 0, 69, 85
1, 52766, Note_on_c, 0, 65, 93
1, 52850, Note_off_c, 0, 65, 93
1, 52855, Note_on_c, 0, 67, 96
1, 52935, Note_off_c, 0, 67, 96
1, 52950, Note_on_c, 0, 63, 96
1, 53042, Note_off_c, 0, 63, 96
1, 53047, Note_on_c, 0, 60, 88
1, 53135, Note_off_c, 0, 60, 88
1, 53150, Note_on_c, 0, 62, 78
1, 53207, Note_off_c, 0, 62, 78
1, 53207, Note_on_c, 0, 65, 73
1, 53287, Note_off_c, 0, 65, 73
1, 53291, Note_on_c, 0, 64, 81
1, 53395, Note_off_c, 0, 64, 81
1, 53401, Note_on_c, 0, 63, 80
1, 53493, Note_off_c, 0, 63, 80
1, 53500, Note_on_c, 0, 61, 67
1, 53580, Note_off_c, 0, 61, 67
1, 53592, Note_on_c, 0, 62, 66
1, 53687, Note_off_c, 0, 62, 66
1, 53706, Note_on_c, 0, 64, 92
1, 53818, Note_off_c, 0, 64, 92
1, 53823, Note_on_c, 0, 60, 90
1, 53934, Note_off_c, 0, 60, 90
1, 53943, Note_on_c, 0, 58, 115
1, 54008, Note_off_c, 0, 58, 115
1, 54015, Note_on_c, 0, 59, 106
1, 54126, Note_off_c, 0, 59, 106
1, 54199, Note_on_c, 0, 53, 104
1, 54283, Note_off_c, 0, 53, 104
1, 54294, Note_on_c, 0, 54, 103
1, 54347, Note_off_c, 0, 54, 103
1, 54360, Note_on_c, 0, 56, 101
1, 54539, Note_off_c, 0, 56, 101
1, 54559, Note_on_c, 0, 53, 95
1, 54608, Note_off_c, 0, 53, 95
1, 54616, Note_on_c, 0, 55, 104
1, 54722, Note_off_c, 0, 55, 104
1, 54735, Note_on_c, 0, 51, 101
1, 54798, Note_off_c, 0, 51, 101
1, 54817, Note_on_c, 0, 48, 107
1, 54885, Note_off_c, 0, 48, 107
1, 54928, Note_on_c, 0, 51, 103
1, 54988, Note_off_c, 0, 51, 103
1, 54996, Note_on_c, 0, 53, 86
1, 55072, Note_off_c, 0, 53, 86
1, 55080, Note_on_c, 0, 52, 77
1, 55153, Note_off_c, 0, 52, 77
1, 55166, Note_on_c, 0, 51, 77
1, 55260, Note_off_c, 0, 51, 77
1, 55275, Note_on_c, 0, 53, 84
1, 55359, Note_off_c, 0, 53, 84
1, 55375, Note_on_c, 0, 55, 91
1, 55451, Note_off_c, 0, 55, 91
1, 55459, Note_on_c, 0, 58, 103
1, 55508, Note_off_c, 0, 58, 103
1, 55513, Note_on_c, 0, 62, 98
1, 55625, Note_off_c, 0, 62, 98
1, 55655, Note_on_c, 0, 58, 93
1, 55715, Note_off_c, 0, 58, 93
1, 55748, Note_on_c, 0, 61, 94
1, 55826, Note_off_c, 0, 61, 94
1, 55854, Note_on_c, 0, 57, 101
1, 55915, Note_off_c, 0, 57, 101
1, 55932, Note_on_c, 0, 54, 102
1, 56026, Note_off_c, 0, 54, 102
1, 56043, Note_on_c, 0, 52, 103
1, 56096, Note_off_c, 0, 52, 103
1, 56109, Note_on_c, 0, 53, 85
1, 56215, Note_off_c, 0, 53, 85
1, 56231, Note_on_c, 0, 52, 9
1, 56326, Note_off_c, 0, 52, 9
1, 56339, Note_on_c, 0, 51, 108
1, 56425, Note_off_c, 0, 51, 108
1, 56428, Note_on_c, 0, 49, 105
1, 56501, Note_off_c, 0, 49, 105
1, 56506, Note_on_c, 0, 50, 88
1, 56607, Note_off_c, 0, 50, 88
1, 56672, Note_on_c, 0, 63, 73
1, 56806, Note_off_c, 0, 63, 73
1, 56813, Note_on_c, 0, 61, 108
1, 56868, Note_off_c, 0, 61, 108
1, 56871, Note_on_c, 0, 62, 80
1, 56996, Note_off_c, 0, 62, 80
1, 57051, Note_on_c, 0, 67, 80
1, 57174, Note_off_c, 0, 67, 80
1, 57182, Note_on_c, 0, 66, 104
1, 57242, Note_off_c, 0, 66, 104
1, 57261, Note_on_c, 0, 65, 88
1, 57387, Note_off_c, 0, 65, 88
1, 57395, Note_on_c, 0, 62, 117
1, 57474, Note_off_c, 0, 62, 117
1, 57476, Note_on_c, 0, 58, 100
1, 57566, Note_off_c, 0, 58, 100
1, 57574, Note_on_c, 0, 55, 101
1, 57618, Note_off_c, 0, 55, 101
1, 57618, Note_on_c, 0, 64, 78
1, 57766, Note_off_c, 0, 64, 78
1, 57787, Note_on_c, 0, 60, 83
1, 57854, Note_off_c, 0, 60, 83
1, 57869, Note_on_c, 0, 57, 81
1, 57940, Note_off_c, 0, 57, 81
1, 57964, Note_on_c, 0, 55, 98
1, 58040, Note_off_c, 0, 55, 98
1, 58053, Note_on_c, 0, 59, 90
1, 58184, Note_off_c, 0, 59, 90
1, 58197, Note_on_c, 0, 57, 77
1, 58323, Note_off_c, 0, 57, 77
1, 58418, Note_on_c, 0, 56, 79
1, 58538, Note_off_c, 0, 56, 79
1, 58647, Note_on_c, 0, 59, 100
1, 58800, Note_off_c, 0, 59, 100
1, 58803, Note_on_c, 0, 57, 86
1, 58997, Note_off_c, 0, 57, 86
1, 59014, Note_on_c, 0, 55, 95
1, 59160, Note_off_c, 0, 55, 95
1, 59192, Note_on_c, 0, 54, 85
1, 59378, Note_off_c, 0, 54, 85
1, 59421, Note_on_c, 0, 57, 80
1, 59599, Note_off_c, 0, 57, 80
1, 59618, Note_on_c, 0, 52, 91
1, 60138, Note_off_c, 0, 52, 91
1, 60563, Note_on_c, 0, 66, 87
1, 60651, Note_off_c, 0, 66, 87
1, 60670, Note_on_c, 0, 68, 89
1, 60749, Note_off_c, 0, 68, 89
1, 60751, Note_on_c, 0, 71, 76
1, 60890, Note_off_c, 0, 71, 76
1, 60898, Note_on_c, 0, 70, 91
1, 60963, Note_off_c, 0, 70, 91
1, 60973, Note_on_c, 0, 69, 90
1, 61046, Note_off_c, 0, 69, 90
1, 61059, Note_on_c, 0, 68, 79
1, 61168, Note_off_c, 0, 68, 79
1, 61173, Note_on_c, 0, 66, 83
1, 61269, Note_off_c, 0, 66, 83
1, 61269, Note_on_c, 0, 64, 79
1, 61376, Note_off_c, 0, 64, 79
1, 61381, Note_on_c, 0, 63, 78
1, 61500, Note_off_c, 0, 63, 78
1, 61512, Note_on_c, 0, 61, 77
1, 61583, Note_off_c, 0, 61, 77
1, 61583, Note_on_c, 0, 59, 91
1, 61675, Note_off_c, 0, 59, 91
1, 61680, Note_on_c, 0, 58, 89
1, 61743, Note_off_c, 0, 58, 89
1, 61752, Note_on_c, 0, 57, 94
1, 61892, Note_off_c, 0, 57, 94
1, 61905, Note_on_c, 0, 55, 108
1, 61959, Note_off_c, 0, 55, 108
1, 61961, Note_on_c, 0, 56, 99
1, 62026, Note_off_c, 0, 56, 99
1, 62028, Note_on_c, 0, 59, 91
1, 62108, Note_off_c, 0, 59, 91
1, 62120, Note_on_c, 0, 61, 80
1, 62224, Note_off_c, 0, 61, 80
1, 62240, Note_on_c, 0, 63, 95
1, 62308, Note_off_c, 0, 63, 95
1, 62313, Note_on_c, 0, 66, 79
1, 62414, Note_off_c, 0, 66, 79
1, 62421, Note_on_c, 0, 63, 78
1, 62507, Note_off_c, 0, 63, 78
1, 62520, Note_on_c, 0, 59, 84
1, 62618, Note_off_c, 0, 59, 84
1, 63051, Note_on_c, 0, 68, 85
1, 63172, Note_off_c, 0, 68, 85
1, 63185, Note_on_c, 0, 71, 93
1, 63277, Note_off_c, 0, 71, 93
1, 63287, Note_on_c, 0, 69, 106
1, 63369, Note_off_c, 0, 69, 106
1, 63382, Note_on_c, 0, 67, 102
1, 63464, Note_off_c, 0, 67, 102
1, 63472, Note_on_c, 0, 66, 105
1, 63564, Note_off_c, 0, 66, 105
1, 63564, Note_on_c, 0, 64, 106
1, 63669, Note_off_c, 0, 64, 106
1, 63670, Note_on_c, 0, 62, 102
1, 63754, Note_off_c, 0, 62, 102
1, 63761, Note_on_c, 0, 60, 99
1, 63832, Note_off_c, 0, 60, 99
1, 63843, Note_on_c, 0, 59, 97
1, 63921, Note_off_c, 0, 59, 97
1, 63956, Note_on_c, 0, 62, 89
1, 64038, Note_off_c, 0, 62, 89
1, 64045, Note_on_c, 0, 57, 90
1, 64127, Note_off_c, 0, 57, 90
1, 64137, Note_on_c, 0, 54, 90
1, 64214, Note_off_c, 0, 54, 90
1, 64223, Note_on_c, 0, 55, 84
1, 64321, Note_off_c, 0, 55, 84
1, 64430, Note_on_c, 0, 59, 87
1, 64509, Note_off_c, 0, 59, 87
1, 64511, Note_on_c, 0, 62, 94
1, 64587, Note_off_c, 0, 62, 94
1, 64597, Note_on_c, 0, 59, 78
1, 64690, Note_off_c, 0, 59, 78
1, 64700, Note_on_c, 0, 60, 95
1, 64773, Note_off_c, 0, 60, 95
1, 64823, Note_on_c, 0, 64, 94
1, 64892, Note_off_c, 0, 64, 94
1, 64899, Note_on_c, 0, 67, 93
1, 64949, Note_off_c, 0, 67, 93
1, 64952, Note_on_c, 0, 71, 86
1, 65052, Note_off_c, 0, 71, 86
1, 65088, Note_on_c, 0, 65, 92
1, 65136, Note_off_c, 0, 65, 92
1, 65147, Note_on_c, 0, 66, 87
1, 65254, Note_off_c, 0, 66, 87
1, 65277, Note_on_c, 0, 69, 73
1, 65367, Note_off_c, 0, 69, 73
1, 65392, Note_on_c, 0, 67, 88
1, 65459, Note_off_c, 0, 67, 88
1, 65474, Note_on_c, 0, 62, 87
1, 65564, Note_off_c, 0, 62, 87
1, 65577, Note_on_c, 0, 59, 95
1, 65661, Note_off_c, 0, 59, 95
1, 65668, Note_on_c, 0, 60, 95
1, 65731, Note_off_c, 0, 60, 95
1, 65734, Note_on_c, 0, 62, 85
1, 65839, Note_off_c, 0, 62, 85
1, 65862, Note_on_c, 0, 59, 95
1, 65941, Note_off_c, 0, 59, 95
1, 66678, Note_on_c, 0, 62, 82
1, 66787, Note_off_c, 0, 62, 82
1, 66897, Note_on_c, 0, 70, 73
1, 66977, Note_off_c, 0, 70, 73
1, 66994, Note_on_c, 0, 74, 92
1, 67144, Note_off_c, 0, 74, 92
1, 67151, Note_on_c, 0, 71, 83
1, 67229, Note_off_c, 0, 71, 83
1, 67814, Note_on_c, 0, 69, 75
1, 67906, Note_off_c, 0, 69, 75
1, 67919, Note_on_c, 0, 70, 76
1, 68161, Note_off_c, 0, 70, 76
1, 68187, Note_on_c, 0, 66, 66
1, 68318, Note_off_c, 0, 66, 66
1, 68330, Note_on_c, 0, 68, 104
1, 68398, Note_off_c, 0, 68, 104
1, 68400, Note_on_c, 0, 70, 84
1, 68528, Note_off_c, 0, 70, 84
1, 68544, Note_on_c, 0, 66, 103
1, 68615, Note_off_c, 0, 66, 103
1, 68655, Note_on_c, 0, 63, 104
1, 68732, Note_off_c, 0, 63, 104
1, 68754, Note_on_c, 0, 64, 81
1, 68819, Note_off_c, 0, 64, 81
1, 68819, Note_on_c, 0, 66, 104
1, 69021, Note_off_c, 0, 66, 104
1, 69135, Note_on_c, 0, 62, 109
1, 69203, Note_off_c, 0, 62, 109
1, 69203, Note_on_c, 0, 58, 103
1, 69291, Note_off_c, 0, 58, 103
1, 69328, Note_on_c, 0, 61, 101
1, 69399, Note_off_c, 0, 61, 101
1, 69401, Note_on_c, 0, 62, 101
1, 69669, Note_off_c, 0, 62, 101
1, 69685, Note_on_c, 0, 58, 109
1, 69761, Note_off_c, 0, 58, 109
1, 69769, Note_on_c, 0, 54, 105
1, 69863, Note_off_c, 0, 54, 105
1, 70689, Note_on_c, 0, 70, 76
1, 70785, Note_off_c, 0, 70, 76
1, 70794, Note_on_c, 0, 71, 80
1, 71067, Note_off_c, 0, 71, 80
1, 71078, Note_on_c, 0, 69, 80
1, 71447, Note_off_c, 0, 69, 80
1, 71454, Note_on_c, 0, 63, 86
1, 71523, Note_off_c, 0, 63, 86
1, 71571, Note_on_c, 0, 65, 82
1, 71825, Note_off_c, 0, 65, 82
1, 71850, Note_on_c, 0, 58, 83
1, 71934, Note_off_c, 0, 58, 83
1, 71939, Note_on_c, 0, 59, 84
1, 72010, Note_off_c, 0, 59, 84
1, 72029, Note_on_c, 0, 65, 76
1, 72129, Note_off_c, 0, 65, 76
1, 72140, Note_on_c, 0, 64, 75
1, 72244, Note_on_c, 0, 62, 70
1, 72244, Note_off_c, 0, 64, 75
1, 72344, Note_off_c, 0, 62, 70
1, 72344, Note_on_c, 0, 60, 70
1, 72417, Note_off_c, 0, 60, 70
1, 72426, Note_on_c, 0, 59, 85
1, 72522, Note_off_c, 0, 59, 85
1, 72541, Note_on_c, 0, 57, 80
1, 72604, Note_off_c, 0, 57, 80
1, 72619, Note_on_c, 0, 56, 82
1, 72773, Note_off_c, 0, 56, 82
1, 72790, Note_on_c, 0, 59, 114
1, 72909, Note_off_c, 0, 59, 114
1, 72918, Note_on_c, 0, 56, 109
1, 72971, Note_off_c, 0, 56, 109
1, 72986, Note_on_c, 0, 57, 101
1, 73091, Note_off_c, 0, 57, 101
1, 73709, Note_on_c, 0, 65, 100
1, 73816, Note_off_c, 0, 65, 100
1, 73827, Note_on_c, 0, 64, 81
1, 73915, Note_off_c, 0, 64, 81
1, 73922, Note_on_c, 0, 63, 88
1, 74006, Note_off_c, 0, 63, 88
1, 74025, Note_on_c, 0, 62, 91
1, 74113, Note_off_c, 0, 62, 91
1, 74120, Note_on_c, 0, 60, 105
1, 74208, Note_off_c, 0, 60, 105
1, 74219, Note_on_c, 0, 58, 86
1, 74290, Note_off_c, 0, 58, 86
1, 74293, Note_on_c, 0, 57, 110
1, 74383, Note_off_c, 0, 57, 110
1, 74394, Note_on_c, 0, 55, 103
1, 74471, Note_off_c, 0, 55, 103
1, 74486, Note_on_c, 0, 53, 98
1, 74576, Note_off_c, 0, 53, 98
1, 74593, Note_on_c, 0, 52, 93
1, 74685, Note_off_c, 0, 52, 93
1, 74700, Note_on_c, 0, 51, 87
1, 74782, Note_off_c, 0, 51, 87
1, 74791, Note_on_c, 0, 49, 87
1, 74871, Note_off_c, 0, 49, 87
1, 74884, Note_on_c, 0, 50, 96
1, 74982, Note_off_c, 0, 50, 96
1, 75981, Note_on_c, 0, 66, 98
1, 76031, Note_off_c, 0, 66, 98
1, 76046, Note_on_c, 0, 67, 86
1, 76096, Note_off_c, 0, 67, 86
1, 76109, Note_on_c, 0, 66, 88
1, 76157, Note_off_c, 0, 66, 88
1, 76158, Note_on_c, 0, 62, 85
1, 76256, Note_off_c, 0, 62, 85
1, 76256, End_track
0, 0, End_of_file
