0, 0, Header, 1, 1, 2520
1, 0, Start_track
1, 0, Title_t, "Melody"
1, 0, Tempo, 882352
1, 0, Key_signature, -5, "major"
1, 0, Time_signature, 4, 2, 24, 8
1, 30933, Note_on_c, 0, 58, 117
1, 31281, Note_off_c, 0, 58, 117
1, 31380, Note_on_c, 0, 60, 111
1, 31711, Note_off_c, 0, 60, 111
1, 31760, Note_on_c, 0, 62, 111
1, 32091, Note_off_c, 0, 62, 111
1, 32455, Note_on_c, 0, 63, 102
1, 35372, Note_off_c, 0, 63, 102
1, 35969, Note_on_c, 0, 70, 114
1, 36353, Note_off_c, 0, 70, 114
1, 36364, Note_on_c, 0, 66, 110
1, 36760, Note_off_c, 0, 66, 110
1, 36783, Note_on_c, 0, 63, 109
1, 37144, Note_off_c, 0, 63, 109
1, 37190, Note_on_c, 0, 58, 106
1, 37644, Note_off_c, 0, 58, 106
1, 37725, Note_on_c, 0, 62, 106
1, 39718, Note_off_c, 0, 62, 106
1, 41221, Note_on_c, 0, 70, 116
1, 41605, Note_off_c, 0, 70, 116
1, 41651, Note_on_c, 0, 66, 117
1, 41942, Note_off_c, 0, 66, 117
1, 42023, Note_on_c, 0, 62, 115
1, 42337, Note_off_c, 0, 62, 115
1, 42418, Note_on_c, 0, 58, 112
1, 42732, Note_off_c, 0, 58, 112
1, 42895, Note_on_c, 0, 61, 108
1, 44725, Note_off_c, 0, 61, 108
1, 45018, Note_on_c, 0, 69, 115
1, 45167, Note_off_c, 0, 69, 115
1, 45299, Note_on_c, 0, 70, 110
1, 45912, Note_off_c, 0, 70, 110
1, 45920, Note_on_c, 0, 72, 97
1, 46036, Note_off_c, 0, 72, 97
1, 46077, Note_on_c, 0, 70, 102
1, 46300, Note_off_c, 0, 70, 102
1, 46349, Note_on_c, 0, 66, 118
1, 46705, Note_off_c, 0, 66, 118
1, 46721, Note_on_c, 0, 63, 113
1, 47060, Note_off_c, 0, 63, 113
1, 47085, Note_on_c, 0, 58, 106
1, 47458, Note_off_c, 0, 58, 106
1, 47492, Note_on_c, 0, 61, 109
1, 47876, Note_off_c, 0, 61, 109
1, 47934, Note_on_c, 0, 60, 107
1, 49857, Note_off_c, 0, 60, 107
1, 55421, Note_on_c, 0, 65, 121
1, 55628, Note_off_c, 0, 65, 121
1, 55810, Note_on_c, 0, 66, 117
1, 56075, Note_off_c, 0, 66, 117
1, 56141, Note_on_c, 0, 68, 116
1, 56397, Note_off_c, 0, 68, 116
1, 56479, Note_on_c, 0, 70, 119
1, 56702, Note_off_c, 0, 70, 119
1, 56710, Note_on_c, 0, 68, 118
1, 57033, Note_off_c, 0, 68, 118
1, 57115, Note_on_c, 0, 66, 88
1, 57380, Note_off_c, 0, 66, 88
1, 57421, Note_on_c, 0, 68, 103
1, 59476, Note_off_c, 0, 68, 103
1, 62468, Note_on_c, 0, 65, 121
1, 62642, Note_off_c, 0, 65, 121
1, 62708, Note_on_c, 0, 66, 119
1, 62923, Note_off_c, 0, 66, 119
1, 63005, Note_on_c, 0, 68, 112
1, 63386, Note_off_c, 0, 68, 112
1, 63601, Note_on_c, 0, 72, 122
1, 64023, Note_off_c, 0, 72, 122
1, 64031, Note_on_c, 0, 71, 122
1, 64312, Note_off_c, 0, 71, 122
1, 64328, Note_on_c, 0, 70, 118
1, 64560, Note_off_c, 0, 70, 118
1, 64601, Note_on_c, 0, 69, 123
1, 64849, Note_off_c, 0, 69, 123
1, 64873, Note_on_c, 0, 68, 113
1, 65113, Note_off_c, 0, 68, 113
1, 65237, Note_on_c, 0, 60, 119
1, 65522, Note_off_c, 0, 60, 119
1, 65592, Note_on_c, 0, 61, 121
1, 65749, Note_off_c, 0, 61, 121
1, 65807, Note_on_c, 0, 66, 122
1, 66072, Note_off_c, 0, 66, 122
1, 66179, Note_on_c, 0, 65, 124
1, 66386, Note_off_c, 0, 65, 124
1, 66435, Note_on_c, 0, 66, 119
1, 66691, Note_off_c, 0, 66, 119
1, 66773, Note_on_c, 0, 68, 107
1, 67063, Note_off_c, 0, 68, 107
1, 67104, Note_on_c, 0, 70, 102
1, 67319, Note_off_c, 0, 70, 102
1, 67343, Note_on_c, 0, 72, 127
1, 67583, Note_off_c, 0, 72, 127
1, 67649, Note_on_c, 0, 68, 120
1, 67897, Note_off_c, 0, 68, 120
1, 67934, Note_on_c, 0, 65, 116
1, 68219, Note_off_c, 0, 65, 116
1, 68343, Note_on_c, 0, 60, 104
1, 68566, Note_off_c, 0, 60, 104
1, 68590, Note_on_c, 0, 63, 121
1, 68846, Note_off_c, 0, 63, 121
1, 68870, Note_on_c, 0, 60, 110
1, 69110, Note_off_c, 0, 60, 110
1, 69226, Note_on_c, 0, 62, 119
1, 69441, Note_off_c, 0, 62, 119
1, 69482, Note_on_c, 0, 65, 118
1, 69772, Note_off_c, 0, 65, 118
1, 69780, Note_on_c, 0, 68, 111
1, 70045, Note_off_c, 0, 68, 111
1, 70119, Note_on_c, 0, 70, 117
1, 70293, Note_off_c, 0, 70, 117
1, 70309, Note_on_c, 0, 71, 118
1, 70922, Note_off_c, 0, 71, 118
1, 70922, Note_on_c, 0, 70, 118
1, 71286, Note_off_c, 0, 70, 118
1, 71335, Note_on_c, 0, 64, 119
1, 72595, Note_off_c, 0, 64, 119
1, 72735, Note_on_c, 0, 70, 118
1, 73033, Note_off_c, 0, 70, 118
1, 73057, Note_on_c, 0, 71, 119
1, 73554, Note_off_c, 0, 71, 119
1, 73578, Note_on_c, 0, 70, 115
1, 73876, Note_off_c, 0, 70, 115
1, 73967, Note_on_c, 0, 63, 100
1, 76851, Note_off_c, 0, 63, 100
1, 79337, Note_on_c, 0, 72, 119
1, 79635, Note_off_c, 0, 72, 119
1, 79643, Note_on_c, 0, 73, 119
1, 79941, Note_off_c, 0, 73, 119
1, 79949, Note_on_c, 0, 72, 125
1, 80164, Note_off_c, 0, 72, 125
1, 80188, Note_on_c, 0, 73, 115
1, 80436, Note_off_c, 0, 73, 115
1, 80444, Note_on_c, 0, 72, 111
1, 80759, Note_off_c, 0, 72, 111
1, 80759, Note_on_c, 0, 70, 118
1, 81156, Note_off_c, 0, 70, 118
1, 81230, Note_on_c, 0, 69, 118
1, 81445, Note_off_c, 0, 69, 118
1, 81453, Note_on_c, 0, 70, 113
1, 81685, Note_off_c, 0, 70, 113
1, 81734, Note_on_c, 0, 69, 113
1, 81941, Note_off_c, 0, 69, 113
1, 81974, Note_on_c, 0, 67, 116
1, 82388, Note_off_c, 0, 67, 116
1, 82528, Note_on_c, 0, 65, 118
1, 85255, Note_off_c, 0, 65, 118
1, 85263, Note_on_c, 0, 64, 119
1, 85586, Note_off_c, 0, 64, 119
1, 85652, Note_on_c, 0, 63, 116
1, 85942, Note_off_c, 0, 63, 116
1, 85991, Note_on_c, 0, 56, 105
1, 86281, Note_off_c, 0, 56, 105
1, 86297, Note_on_c, 0, 58, 114
1, 86504, Note_off_c, 0, 58, 114
1, 86520, Note_on_c, 0, 61, 119
1, 86975, Note_off_c, 0, 61, 119
1, 86999, Note_on_c, 0, 60, 116
1, 87446, Note_off_c, 0, 60, 116
1, 87578, Note_on_c, 0, 54, 123
1, 88373, Note_off_c, 0, 54, 123
1, 88397, Note_on_c, 0, 53, 108
1, 90195, Note_off_c, 0, 53, 108
1, 96470, Note_on_c, 0, 72, 126
1, 96668, Note_off_c, 0, 72, 126
1, 96808, Note_on_c, 0, 74, 117
1, 97106, Note_off_c, 0, 74, 117
1, 97106, Note_on_c, 0, 75, 120
1, 97421, Note_off_c, 0, 75, 120
1, 97429, Note_on_c, 0, 73, 126
1, 97694, Note_off_c, 0, 73, 126
1, 97727, Note_on_c, 0, 72, 122
1, 98058, Note_off_c, 0, 72, 122
1, 98082, Note_on_c, 0, 70, 119
1, 98314, Note_off_c, 0, 70, 119
1, 98421, Note_on_c, 0, 69, 121
1, 98669, Note_off_c, 0, 69, 121
1, 98685, Note_on_c, 0, 67, 103
1, 98917, Note_off_c, 0, 67, 103
1, 98933, Note_on_c, 0, 68, 120
1, 99198, Note_off_c, 0, 68, 120
1, 99231, Note_on_c, 0, 67, 118
1, 99438, Note_off_c, 0, 67, 118
1, 99496, Note_on_c, 0, 66, 115
1, 99819, Note_off_c, 0, 66, 115
1, 99910, Note_on_c, 0, 58, 113
1, 100481, Note_off_c, 0, 58, 113
1, 100563, Note_on_c, 0, 65, 99
1, 101217, Note_off_c, 0, 65, 99
1, 101590, Note_on_c, 0, 58, 114
1, 102153, Note_off_c, 0, 58, 114
1, 102244, Note_on_c, 0, 56, 117
1, 102774, Note_off_c, 0, 56, 117
1, 102803, Note_on_c, 0, 60, 112
1, 102985, Note_off_c, 0, 60, 112
1, 103026, Note_on_c, 0, 61, 105
1, 104824, Note_off_c, 0, 61, 105
1, 107920, Note_on_c, 0, 70, 117
1, 108210, Note_off_c, 0, 70, 117
1, 108243, Note_on_c, 0, 71, 122
1, 108765, Note_off_c, 0, 71, 122
1, 108922, Note_on_c, 0, 67, 120
1, 109087, Note_off_c, 0, 67, 120
1, 109095, Note_on_c, 0, 68, 120
1, 109666, Note_off_c, 0, 68, 120
1, 109690, Note_on_c, 0, 64, 115
1, 109922, Note_off_c, 0, 64, 115
1, 109946, Note_on_c, 0, 65, 113
1, 110343, Note_off_c, 0, 65, 113
1, 110359, Note_on_c, 0, 62, 109
1, 110508, Note_off_c, 0, 62, 109
1, 110557, Note_on_c, 0, 63, 116
1, 111174, Note_off_c, 0, 63, 116
1, 111261, Note_on_c, 0, 62, 118
1, 111924, Note_off_c, 0, 62, 118
1, 111932, Note_on_c, 0, 58, 118
1, 112868, Note_off_c, 0, 58, 118
1, 112959, Note_on_c, 0, 63, 108
1, 115114, Note_off_c, 0, 63, 108
1, 116597, Note_on_c, 0, 65, 120
1, 116945, Note_off_c, 0, 65, 120
1, 116961, Note_on_c, 0, 66, 119
1, 117201, Note_off_c, 0, 66, 119
1, 117317, Note_on_c, 0, 70, 115
1, 117553, Note_off_c, 0, 70, 115
1, 117598, Note_on_c, 0, 74, 117
1, 117871, Note_off_c, 0, 74, 117
1, 117879, Note_on_c, 0, 77, 120
1, 118218, Note_off_c, 0, 77, 120
1, 118218, Note_on_c, 0, 75, 120
1, 118698, Note_off_c, 0, 75, 120
1, 122726, Note_on_c, 0, 58, 113
1, 122891, Note_off_c, 0, 58, 113
1, 123007, Note_on_c, 0, 63, 118
1, 123429, Note_off_c, 0, 63, 118
1, 123429, Note_on_c, 0, 65, 117
1, 123710, Note_off_c, 0, 65, 117
1, 123759, Note_on_c, 0, 66, 118
1, 123991, Note_off_c, 0, 66, 118
1, 124032, Note_on_c, 0, 68, 115
1, 124280, Note_off_c, 0, 68, 115
1, 124319, Note_on_c, 0, 73, 114
1, 124484, Note_off_c, 0, 73, 114
1, 124568, Note_on_c, 0, 77, 123
1, 124891, Note_off_c, 0, 77, 123
1, 124936, Note_on_c, 0, 75, 117
1, 125234, Note_off_c, 0, 75, 117
1, 127683, Note_on_c, 0, 57, 119
1, 128047, Note_off_c, 0, 57, 119
1, 128163, Note_on_c, 0, 62, 120
1, 128743, Note_off_c, 0, 62, 120
1, 128792, Note_on_c, 0, 64, 116
1, 128990, Note_off_c, 0, 64, 116
1, 128998, Note_on_c, 0, 65, 118
1, 129238, Note_off_c, 0, 65, 118
1, 129296, Note_on_c, 0, 66, 120
1, 129436, Note_off_c, 0, 66, 120
1, 129460, Note_on_c, 0, 69, 117
1, 129683, Note_off_c, 0, 69, 117
1, 129716, Note_on_c, 0, 71, 114
1, 129881, Note_off_c, 0, 71, 114
1, 129897, Note_on_c, 0, 76, 116
1, 130245, Note_off_c, 0, 76, 116
1, 130278, Note_on_c, 0, 74, 118
1, 130825, Note_off_c, 0, 74, 118
1, 132201, Note_on_c, 0, 56, 110
1, 132814, Note_off_c, 0, 56, 110
1, 133303, Note_on_c, 0, 61, 113
1, 133974, Note_off_c, 0, 61, 113
1, 134040, Note_on_c, 0, 63, 114
1, 134280, Note_off_c, 0, 63, 114
1, 134288, Note_on_c, 0, 65, 112
1, 134553, Note_off_c, 0, 65, 112
1, 134602, Note_on_c, 0, 68, 119
1, 134800, Note_off_c, 0, 68, 119
1, 134800, Note_on_c, 0, 72, 117
1, 134974, Note_off_c, 0, 72, 117
1, 134974, Note_on_c, 0, 75, 118
1, 135214, Note_off_c, 0, 75, 118
1, 135255, Note_on_c, 0, 70, 117
1, 135768, Note_off_c, 0, 70, 117
1, 138909, Note_on_c, 0, 72, 123
1, 139049, Note_off_c, 0, 72, 123
1, 139049, Note_on_c, 0, 73, 123
1, 139264, Note_off_c, 0, 73, 123
1, 139305, Note_on_c, 0, 72, 120
1, 139620, Note_off_c, 0, 72, 120
1, 139620, Note_on_c, 0, 73, 119
1, 139752, Note_off_c, 0, 73, 119
1, 139752, Note_on_c, 0, 72, 122
1, 139967, Note_off_c, 0, 72, 122
1, 140025, Note_on_c, 0, 68, 119
1, 140414, Note_off_c, 0, 68, 119
1, 140704, Note_on_c, 0, 72, 122
1, 141292, Note_off_c, 0, 72, 122
1, 141316, Note_on_c, 0, 71, 121
1, 141821, Note_off_c, 0, 71, 121
1, 141862, Note_on_c, 0, 70, 117
1, 142152, Note_off_c, 0, 70, 117
1, 142197, Note_on_c, 0, 71, 113
1, 142408, Note_off_c, 0, 71, 113
1, 142441, Note_on_c, 0, 69, 117
1, 143046, Note_off_c, 0, 69, 117
1, 143079, Note_on_c, 0, 68, 116
1, 143543, Note_off_c, 0, 68, 116
1, 143551, Note_on_c, 0, 65, 115
1, 143766, Note_off_c, 0, 65, 115
1, 143824, Note_on_c, 0, 66, 114
1, 144197, Note_off_c, 0, 66, 114
1, 144213, Note_on_c, 0, 65, 107
1, 145149, Note_off_c, 0, 65, 107
1, 145231, Note_on_c, 0, 68, 115
1, 145413, Note_off_c, 0, 68, 115
1, 145454, Note_on_c, 0, 72, 116
1, 145686, Note_off_c, 0, 72, 116
1, 145735, Note_on_c, 0, 75, 122
1, 146199, Note_off_c, 0, 75, 122
1, 146223, Note_on_c, 0, 72, 121
1, 146803, Note_off_c, 0, 72, 121
1, 146836, Note_on_c, 0, 68, 116
1, 147366, Note_off_c, 0, 68, 116
1, 147399, Note_on_c, 0, 65, 108
1, 147888, Note_off_c, 0, 65, 108
1, 148700, Note_on_c, 0, 73, 118
1, 149023, Note_off_c, 0, 73, 118
1, 149047, Note_on_c, 0, 74, 121
1, 149751, Note_off_c, 0, 74, 121
1, 149867, Note_on_c, 0, 72, 117
1, 150099, Note_off_c, 0, 72, 117
1, 150123, Note_on_c, 0, 71, 118
1, 150421, Note_off_c, 0, 71, 118
1, 150483, Note_on_c, 0, 67, 114
1, 150773, Note_off_c, 0, 67, 114
1, 150835, Note_on_c, 0, 64, 108
1, 152020, Note_off_c, 0, 64, 108
1, 153429, Note_on_c, 0, 73, 120
1, 153868, Note_off_c, 0, 73, 120
1, 153901, Note_on_c, 0, 72, 112
1, 154166, Note_off_c, 0, 72, 112
1, 154182, Note_on_c, 0, 71, 116
1, 154422, Note_off_c, 0, 71, 116
1, 154455, Note_on_c, 0, 70, 115
1, 154761, Note_off_c, 0, 70, 115
1, 154819, Note_on_c, 0, 66, 121
1, 155142, Note_off_c, 0, 66, 121
1, 155195, Note_on_c, 0, 65, 110
1, 155420, Note_off_c, 0, 65, 110
1, 155455, Note_on_c, 0, 64, 109
1, 155595, Note_off_c, 0, 64, 109
1, 155611, Note_on_c, 0, 63, 105
1, 155843, Note_off_c, 0, 63, 105
1, 155938, Note_on_c, 0, 62, 105
1, 156402, Note_off_c, 0, 62, 105
1, 156472, Note_on_c, 0, 63, 98
1, 158187, Note_off_c, 0, 63, 98
1, 161543, Note_on_c, 0, 68, 110
1, 162081, Note_off_c, 0, 68, 110
1, 162081, Note_on_c, 0, 72, 124
1, 162702, Note_off_c, 0, 72, 124
1, 162726, Note_on_c, 0, 74, 112
1, 162982, Note_off_c, 0, 74, 112
1, 163114, Note_on_c, 0, 75, 118
1, 163462, Note_off_c, 0, 75, 118
1, 163495, Note_on_c, 0, 74, 117
1, 163992, Note_off_c, 0, 74, 117
1, 163992, Note_on_c, 0, 72, 122
1, 164472, Note_off_c, 0, 72, 122
1, 164571, Note_on_c, 0, 69, 111
1, 164819, Note_off_c, 0, 69, 111
1, 164827, Note_on_c, 0, 70, 109
1, 165266, Note_off_c, 0, 70, 109
1, 165307, Note_on_c, 0, 67, 97
1, 165613, Note_off_c, 0, 67, 97
1, 165762, Note_on_c, 0, 69, 114
1, 166914, Note_off_c, 0, 69, 114
1, 166922, Note_on_c, 0, 72, 117
1, 167643, Note_off_c, 0, 72, 117
1, 167676, Note_on_c, 0, 65, 101
1, 170535, Note_off_c, 0, 65, 101
1, 175699, Note_on_c, 0, 76, 121
1, 176047, Note_off_c, 0, 76, 121
1, 176071, Note_on_c, 0, 77, 125
1, 176518, Note_off_c, 0, 77, 125
1, 176551, Note_on_c, 0, 73, 120
1, 177122, Note_off_c, 0, 73, 120
1, 177155, Note_on_c, 0, 68, 119
1, 177702, Note_off_c, 0, 68, 119
1, 177718, Note_on_c, 0, 65, 113
1, 178231, Note_off_c, 0, 65, 113
1, 178280, Note_on_c, 0, 66, 9
1, 180236, Note_off_c, 0, 66, 9
1, 180269, Note_on_c, 0, 69, 114
1, 180509, Note_off_c, 0, 69, 114
1, 180509, Note_on_c, 0, 72, 120
1, 180790, Note_off_c, 0, 72, 120
1, 181030, Note_on_c, 0, 76, 116
1, 181718, Note_off_c, 0, 76, 116
1, 181776, Note_on_c, 0, 72, 114
1, 182149, Note_off_c, 0, 72, 114
1, 182182, Note_on_c, 0, 69, 114
1, 182753, Note_off_c, 0, 69, 114
1, 182786, Note_on_c, 0, 66, 117
1, 183241, Note_off_c, 0, 66, 117
1, 183572, Note_on_c, 0, 75, 117
1, 184094, Note_off_c, 0, 75, 117
1, 184135, Note_on_c, 0, 73, 113
1, 184599, Note_off_c, 0, 73, 113
1, 184673, Note_on_c, 0, 73, 114
1, 185311, Note_off_c, 0, 73, 114
1, 185941, Note_on_c, 0, 72, 120
1, 186695, Note_off_c, 0, 72, 120
1, 186703, Note_on_c, 0, 70, 107
1, 187788, Note_off_c, 0, 70, 107
1, 188484, Note_on_c, 0, 70, 109
1, 188790, Note_off_c, 0, 70, 109
1, 188806, Note_on_c, 0, 72, 108
1, 188996, Note_off_c, 0, 72, 108
1, 189029, Note_on_c, 0, 71, 108
1, 189186, Note_off_c, 0, 71, 108
1, 189241, Note_on_c, 0, 67, 111
1, 189721, Note_off_c, 0, 67, 111
1, 189756, Note_on_c, 0, 64, 115
1, 190361, Note_off_c, 0, 64, 115
1, 190410, Note_on_c, 0, 59, 95
1, 190783, Note_off_c, 0, 59, 95
1, 190940, Note_on_c, 0, 62, 112
1, 191586, Note_off_c, 0, 62, 112
1, 191627, Note_on_c, 0, 61, 97
1, 192663, Note_off_c, 0, 61, 97
1, 196045, Note_on_c, 0, 65, 117
1, 196418, Note_off_c, 0, 65, 117
1, 196525, Note_on_c, 0, 66, 116
1, 197826, Note_off_c, 0, 66, 116
1, 197871, Note_on_c, 0, 69, 116
1, 198049, Note_off_c, 0, 69, 116
1, 198098, Note_on_c, 0, 73, 109
1, 198263, Note_off_c, 0, 73, 109
1, 198312, Note_on_c, 0, 76, 113
1, 198527, Note_off_c, 0, 76, 113
1, 198580, Note_on_c, 0, 71, 118
1, 201025, Note_off_c, 0, 71, 118
1, 203864, Note_on_c, 0, 73, 114
1, 204477, Note_off_c, 0, 73, 114
1, 205024, Note_on_c, 0, 66, 113
1, 205562, Note_off_c, 0, 66, 113
1, 205620, Note_on_c, 0, 67, 118
1, 206117, Note_off_c, 0, 67, 118
1, 206133, Note_on_c, 0, 69, 117
1, 206829, Note_off_c, 0, 69, 117
1, 206845, Note_on_c, 0, 66, 114
1, 207425, Note_off_c, 0, 66, 114
1, 207441, Note_on_c, 0, 64, 117
1, 208170, Note_off_c, 0, 64, 117
1, 208203, Note_on_c, 0, 62, 106
1, 208501, Note_off_c, 0, 62, 106
1, 208774, Note_on_c, 0, 72, 118
1, 209122, Note_off_c, 0, 72, 118
1, 209146, Note_on_c, 0, 70, 92
1, 209461, Note_off_c, 0, 70, 92
1, 209477, Note_on_c, 0, 72, 120
1, 209966, Note_off_c, 0, 72, 120
1, 209982, Note_on_c, 0, 70, 111
1, 211382, Note_off_c, 0, 70, 111
1, 213578, Note_on_c, 0, 72, 119
1, 213901, Note_off_c, 0, 72, 119
1, 213959, Note_on_c, 0, 73, 114
1, 214365, Note_off_c, 0, 73, 114
1, 214423, Note_on_c, 0, 69, 120
1, 214895, Note_off_c, 0, 69, 120
1, 214895, Note_on_c, 0, 66, 118
1, 215699, Note_off_c, 0, 66, 118
1, 215715, Note_on_c, 0, 64, 116
1, 216253, Note_off_c, 0, 64, 116
1, 216311, Note_on_c, 0, 63, 112
1, 216924, Note_off_c, 0, 63, 112
1, 217164, Note_on_c, 0, 72, 122
1, 217404, Note_off_c, 0, 72, 122
1, 217412, Note_on_c, 0, 73, 117
1, 217768, Note_off_c, 0, 73, 117
1, 217784, Note_on_c, 0, 72, 113
1, 217924, Note_off_c, 0, 72, 113
1, 217940, Note_on_c, 0, 73, 117
1, 218097, Note_off_c, 0, 73, 117
1, 218113, Note_on_c, 0, 71, 116
1, 218328, Note_off_c, 0, 71, 116
1, 218419, Note_on_c, 0, 66, 111
1, 218866, Note_off_c, 0, 66, 111
1, 218957, Note_on_c, 0, 69, 116
1, 219330, Note_off_c, 0, 69, 116
1, 219388, Note_on_c, 0, 70, 111
1, 219578, Note_off_c, 0, 70, 111
1, 219578, Note_on_c, 0, 69, 109
1, 219785, Note_off_c, 0, 69, 109
1, 219801, Note_on_c, 0, 68, 111
1, 220248, Note_off_c, 0, 68, 111
1, 220272, Note_on_c, 0, 62, 109
1, 220603, Note_off_c, 0, 62, 109
1, 220652, Note_on_c, 0, 59, 98
1, 220967, Note_off_c, 0, 59, 98
1, 221057, Note_on_c, 0, 54, 96
1, 221255, Note_off_c, 0, 54, 96
1, 221657, Note_on_c, 0, 66, 119
1, 222179, Note_off_c, 0, 66, 119
1, 222697, Note_on_c, 0, 61, 100
1, 222978, Note_off_c, 0, 61, 100
1, 222994, Note_on_c, 0, 57, 112
1, 223781, Note_off_c, 0, 57, 112
1, 224037, Note_on_c, 0, 64, 111
1, 225280, Note_off_c, 0, 64, 111
1, 227692, Note_on_c, 0, 64, 118
1, 228073, Note_off_c, 0, 64, 118
1, 228106, Note_on_c, 0, 62, 116
1, 228437, Note_off_c, 0, 62, 116
1, 228445, Note_on_c, 0, 61, 107
1, 228768, Note_off_c, 0, 61, 107
1, 228834, Note_on_c, 0, 57, 112
1, 229173, Note_off_c, 0, 57, 112
1, 229206, Note_on_c, 0, 59, 105
1, 231377, Note_off_c, 0, 59, 105
1, 235190, Note_on_c, 0, 53, 115
1, 235621, Note_off_c, 0, 53, 115
1, 235645, Note_on_c, 0, 55, 114
1, 235885, Note_off_c, 0, 55, 114
1, 235967, Note_on_c, 0, 57, 115
1, 236282, Note_off_c, 0, 57, 115
1, 236282, Note_on_c, 0, 59, 97
1, 236497, Note_off_c, 0, 59, 97
1, 236505, Note_on_c, 0, 64, 113
1, 236853, Note_off_c, 0, 64, 113
1, 236877, Note_on_c, 0, 62, 116
1, 237084, Note_off_c, 0, 62, 116
1, 237125, Note_on_c, 0, 60, 109
1, 237464, Note_off_c, 0, 60, 109
1, 237497, Note_on_c, 0, 57, 111
1, 237720, Note_off_c, 0, 57, 111
1, 237836, Note_on_c, 0, 59, 108
1, 238076, Note_off_c, 0, 59, 108
1, 238092, Note_on_c, 0, 60, 109
1, 238299, Note_off_c, 0, 60, 109
1, 238373, Note_on_c, 0, 62, 113
1, 238679, Note_off_c, 0, 62, 113
1, 238770, Note_on_c, 0, 64, 116
1, 238977, Note_off_c, 0, 64, 116
1, 239001, Note_on_c, 0, 65, 115
1, 239274, Note_off_c, 0, 65, 115
1, 239597, Note_on_c, 0, 57, 111
1, 239845, Note_off_c, 0, 57, 111
1, 239869, Note_on_c, 0, 58, 114
1, 240014, Note_off_c, 0, 58, 114
1, 240051, Note_on_c, 0, 59, 103
1, 240274, Note_off_c, 0, 59, 103
1, 240274, Note_on_c, 0, 64, 111
1, 240696, Note_off_c, 0, 64, 111
1, 240704, Note_on_c, 0, 62, 111
1, 240894, Note_off_c, 0, 62, 111
1, 240902, Note_on_c, 0, 60, 113
1, 241150, Note_off_c, 0, 60, 113
1, 241257, Note_on_c, 0, 57, 109
1, 241588, Note_off_c, 0, 57, 109
1, 241654, Note_on_c, 0, 59, 107
1, 241836, Note_off_c, 0, 59, 107
1, 241877, Note_on_c, 0, 62, 106
1, 242142, Note_off_c, 0, 62, 106
1, 242150, Note_on_c, 0, 65, 110
1, 242481, Note_off_c, 0, 65, 110
1, 242514, Note_on_c, 0, 68, 115
1, 243003, Note_off_c, 0, 68, 115
1, 243044, Note_on_c, 0, 65, 113
1, 243292, Note_off_c, 0, 65, 113
1, 243325, Note_on_c, 0, 64, 103
1, 243548, Note_off_c, 0, 64, 103
1, 243606, Note_on_c, 0, 68, 107
1, 243788, Note_off_c, 0, 68, 107
1, 243846, Note_on_c, 0, 71, 105
1, 244127, Note_off_c, 0, 71, 105
1, 244143, Note_on_c, 0, 74, 110
1, 244391, Note_off_c, 0, 74, 110
1, 244391, Note_on_c, 0, 72, 113
1, 244631, Note_off_c, 0, 72, 113
1, 244639, Note_on_c, 0, 71, 116
1, 245003, Note_off_c, 0, 71, 116
1, 245003, Note_on_c, 0, 67, 98
1, 245268, Note_off_c, 0, 67, 98
1, 245276, Note_on_c, 0, 69, 112
1, 246386, Note_off_c, 0, 69, 112
1, 249030, Note_on_c, 0, 70, 113
1, 249253, Note_off_c, 0, 70, 113
1, 249360, Note_on_c, 0, 72, 109
1, 249600, Note_off_c, 0, 72, 109
1, 249624, Note_on_c, 0, 71, 119
1, 249955, Note_off_c, 0, 71, 119
1, 250008, Note_on_c, 0, 67, 114
1, 250364, Note_off_c, 0, 67, 114
1, 250417, Note_on_c, 0, 64, 110
1, 250723, Note_off_c, 0, 64, 110
1, 250764, Note_on_c, 0, 59, 104
1, 251079, Note_off_c, 0, 59, 104
1, 251153, Note_on_c, 0, 62, 113
1, 251517, Note_off_c, 0, 62, 113
1, 251525, Note_on_c, 0, 61, 107
1, 252213, Note_off_c, 0, 61, 107
1, 252469, Note_on_c, 0, 69, 119
1, 252626, Note_off_c, 0, 69, 119
1, 252684, Note_on_c, 0, 70, 116
1, 253413, Note_off_c, 0, 70, 116
1, 253429, Note_on_c, 0, 69, 118
1, 253959, Note_off_c, 0, 69, 118
1, 254365, Note_on_c, 0, 67, 116
1, 254588, Note_off_c, 0, 67, 116
1, 254588, Note_on_c, 0, 68, 116
1, 254828, Note_off_c, 0, 68, 116
1, 254844, Note_on_c, 0, 67, 113
1, 255076, Note_off_c, 0, 67, 113
1, 255092, Note_on_c, 0, 65, 117
1, 255448, Note_off_c, 0, 65, 117
1, 255605, Note_on_c, 0, 72, 116
1, 257569, Note_off_c, 0, 72, 116
1, 257627, Note_on_c, 0, 69, 115
1, 257958, Note_off_c, 0, 69, 115
1, 258016, Note_on_c, 0, 65, 111
1, 258289, Note_off_c, 0, 65, 111
1, 258322, Note_on_c, 0, 60, 108
1, 258562, Note_off_c, 0, 60, 108
1, 258570, Note_on_c, 0, 57, 109
1, 258843, Note_off_c, 0, 57, 109
1, 259365, Note_on_c, 0, 64, 114
1, 259738, Note_off_c, 0, 64, 114
1, 259783, Note_on_c, 0, 67, 114
1, 259990, Note_off_c, 0, 67, 114
1, 260027, Note_on_c, 0, 64, 102
1, 262472, Note_off_c, 0, 64, 102
1, 265033, Note_on_c, 0, 60, 112
1, 265530, Note_off_c, 0, 60, 112
1, 265629, Note_on_c, 0, 64, 117
1, 266250, Note_off_c, 0, 64, 117
1, 266274, Note_on_c, 0, 67, 113
1, 266854, Note_off_c, 0, 67, 113
1, 266945, Note_on_c, 0, 68, 117
1, 267541, Note_off_c, 0, 68, 117
1, 267574, Note_on_c, 0, 71, 118
1, 268320, Note_off_c, 0, 71, 118
1, 268320, Note_on_c, 0, 69, 114
1, 268850, Note_off_c, 0, 69, 114
1, 268891, Note_on_c, 0, 64, 114
1, 269230, Note_off_c, 0, 64, 114
1, 269263, Note_on_c, 0, 68, 114
1, 269768, Note_off_c, 0, 68, 114
1, 270033, Note_on_c, 0, 56, 111
1, 270671, Note_off_c, 0, 56, 111
1, 270712, Note_on_c, 0, 60, 109
1, 271275, Note_off_c, 0, 60, 109
1, 271324, Note_on_c, 0, 63, 112
1, 271962, Note_off_c, 0, 63, 112
1, 272003, Note_on_c, 0, 64, 111
1, 272525, Note_off_c, 0, 64, 111
1, 272558, Note_on_c, 0, 67, 108
1, 273212, Note_off_c, 0, 67, 108
1, 273278, Note_on_c, 0, 65, 106
1, 273941, Note_off_c, 0, 65, 106
1, 274322, Note_on_c, 0, 58, 101
1, 274512, Note_off_c, 0, 58, 101
1, 274835, Note_on_c, 0, 63, 108
1, 276708, Note_off_c, 0, 63, 108
1, 280819, Note_on_c, 0, 63, 118
1, 281374, Note_off_c, 0, 63, 118
1, 281398, Note_on_c, 0, 65, 115
1, 281986, Note_off_c, 0, 65, 115
1, 282035, Note_on_c, 0, 63, 110
1, 283634, Note_off_c, 0, 63, 110
1, 285101, Note_on_c, 0, 63, 106
1, 285747, Note_off_c, 0, 63, 106
1, 285805, Note_on_c, 0, 66, 113
1, 286418, Note_off_c, 0, 66, 113
1, 286546, Note_on_c, 0, 68, 116
1, 286927, Note_off_c, 0, 68, 116
1, 287072, Note_on_c, 0, 69, 115
1, 287287, Note_off_c, 0, 69, 115
1, 287320, Note_on_c, 0, 70, 115
1, 287767, Note_off_c, 0, 70, 115
1, 287825, Note_on_c, 0, 66, 113
1, 288330, Note_off_c, 0, 66, 113
1, 288354, Note_on_c, 0, 63, 113
1, 288884, Note_off_c, 0, 63, 113
1, 288884, Note_on_c, 0, 58, 102
1, 289298, Note_off_c, 0, 58, 102
1, 289505, Note_on_c, 0, 69, 117
1, 290201, Note_off_c, 0, 69, 117
1, 290234, Note_on_c, 0, 66, 110
1, 290797, Note_off_c, 0, 66, 110
1, 290821, Note_on_c, 0, 63, 106
1, 291334, Note_off_c, 0, 63, 106
1, 291441, Note_on_c, 0, 67, 107
1, 291639, Note_off_c, 0, 67, 107
1, 291672, Note_on_c, 0, 68, 117
1, 292318, Note_off_c, 0, 68, 117
1, 292881, Note_on_c, 0, 66, 108
1, 293809, Note_off_c, 0, 66, 108
1, 294024, Note_on_c, 0, 61, 100
1, 294430, Note_off_c, 0, 61, 100
1, 294703, Note_on_c, 0, 64, 117
1, 294984, Note_off_c, 0, 64, 117
1, 295017, Note_on_c, 0, 65, 111
1, 295398, Note_off_c, 0, 65, 111
1, 295646, Note_on_c, 0, 68, 113
1, 295994, Note_off_c, 0, 68, 113
1, 296085, Note_on_c, 0, 68, 117
1, 296644, Note_off_c, 0, 68, 117
1, 296673, Note_on_c, 0, 68, 110
1, 299317, Note_off_c, 0, 68, 110
1, 302757, Note_on_c, 0, 65, 110
1, 303395, Note_off_c, 0, 65, 110
1, 303444, Note_on_c, 0, 68, 101
1, 303783, Note_off_c, 0, 68, 101
1, 303823, Note_on_c, 0, 70, 114
1, 304121, Note_off_c, 0, 70, 114
1, 304146, Note_on_c, 0, 72, 115
1, 304394, Note_off_c, 0, 72, 115
1, 304577, Note_on_c, 0, 75, 121
1, 305256, Note_off_c, 0, 75, 121
1, 305289, Note_on_c, 0, 73, 115
1, 305695, Note_off_c, 0, 73, 115
1, 305719, Note_on_c, 0, 72, 109
1, 305893, Note_off_c, 0, 72, 109
1, 305909, Note_on_c, 0, 73, 112
1, 306066, Note_off_c, 0, 73, 112
1, 306090, Note_on_c, 0, 72, 116
1, 306446, Note_off_c, 0, 72, 116
1, 306462, Note_on_c, 0, 70, 112
1, 306951, Note_off_c, 0, 70, 112
1, 306967, Note_on_c, 0, 68, 114
1, 307837, Note_off_c, 0, 68, 114
1, 307878, Note_on_c, 0, 60, 105
1, 308640, Note_off_c, 0, 60, 105
1, 308714, Note_on_c, 0, 61, 95
1, 309161, Note_off_c, 0, 61, 95
1, 309272, Note_on_c, 0, 66, 117
1, 309703, Note_off_c, 0, 66, 117
1, 309814, Note_on_c, 0, 65, 114
1, 310410, Note_off_c, 0, 65, 114
1, 310434, Note_on_c, 0, 63, 113
1, 311080, Note_off_c, 0, 63, 113
1, 311121, Note_on_c, 0, 62, 103
1, 311436, Note_off_c, 0, 62, 103
1, 311576, Note_on_c, 0, 65, 114
1, 311924, Note_off_c, 0, 65, 114
1, 311932, Note_on_c, 0, 68, 112
1, 312139, Note_off_c, 0, 68, 112
1, 312470, Note_on_c, 0, 71, 117
1, 312959, Note_off_c, 0, 71, 117
1, 312967, Note_on_c, 0, 73, 111
1, 313282, Note_off_c, 0, 73, 111
1, 313298, Note_on_c, 0, 70, 114
1, 314267, Note_off_c, 0, 70, 114
1, 314407, Note_on_c, 0, 68, 102
1, 314846, Note_off_c, 0, 68, 102
1, 314870, Note_on_c, 0, 70, 102
1, 315226, Note_off_c, 0, 70, 102
1, 315366, Note_on_c, 0, 66, 112
1, 315962, Note_off_c, 0, 66, 112
1, 316028, Note_on_c, 0, 58, 98
1, 316616, Note_off_c, 0, 58, 98
1, 316649, Note_on_c, 0, 63, 103
1, 317138, Note_off_c, 0, 63, 103
1, 317212, Note_on_c, 0, 66, 111
1, 317825, Note_off_c, 0, 66, 111
1, 317841, Note_on_c, 0, 65, 104
1, 318396, Note_off_c, 0, 65, 104
1, 318470, Note_on_c, 0, 63, 94
1, 321537, Note_off_c, 0, 63, 94
1, 326054, Note_on_c, 0, 57, 115
1, 326866, Note_off_c, 0, 57, 115
1, 327272, Note_on_c, 0, 63, 110
1, 327553, Note_off_c, 0, 63, 110
1, 327693, Note_on_c, 0, 67, 118
1, 328439, Note_off_c, 0, 67, 118
1, 328602, Note_on_c, 0, 62, 102
1, 328790, Note_off_c, 0, 62, 102
1, 328835, Note_on_c, 0, 60, 99
1, 329000, Note_off_c, 0, 60, 99
1, 329016, Note_on_c, 0, 63, 104
1, 329214, Note_off_c, 0, 63, 104
1, 329214, Note_on_c, 0, 65, 106
1, 329578, Note_off_c, 0, 65, 106
1, 329611, Note_on_c, 0, 67, 109
1, 329841, Note_off_c, 0, 67, 109
1, 329891, Note_on_c, 0, 69, 117
1, 330322, Note_off_c, 0, 69, 117
1, 330406, Note_on_c, 0, 73, 115
1, 331558, Note_off_c, 0, 73, 115
1, 331599, Note_on_c, 0, 69, 118
1, 331938, Note_off_c, 0, 69, 118
1, 331987, Note_on_c, 0, 65, 105
1, 332294, Note_off_c, 0, 65, 105
1, 332294, Note_on_c, 0, 63, 106
1, 332600, Note_off_c, 0, 63, 106
1, 332923, Note_on_c, 0, 72, 117
1, 333553, Note_off_c, 0, 72, 117
1, 337739, Note_on_c, 0, 73, 117
1, 338029, Note_off_c, 0, 73, 117
1, 338037, Note_on_c, 0, 72, 121
1, 338285, Note_off_c, 0, 72, 121
1, 338293, Note_on_c, 0, 70, 114
1, 338558, Note_off_c, 0, 70, 114
1, 338599, Note_on_c, 0, 66, 115
1, 338897, Note_off_c, 0, 66, 115
1, 338963, Note_on_c, 0, 63, 112
1, 339302, Note_off_c, 0, 63, 112
1, 339335, Note_on_c, 0, 58, 108
1, 339600, Note_off_c, 0, 58, 108
1, 339608, Note_on_c, 0, 61, 114
1, 339931, Note_off_c, 0, 61, 114
1, 339964, Note_on_c, 0, 58, 105
1, 340229, Note_off_c, 0, 58, 105
1, 340262, Note_on_c, 0, 60, 112
1, 340610, Note_off_c, 0, 60, 112
1, 340651, Note_on_c, 0, 65, 118
1, 342449, Note_off_c, 0, 65, 118
1, 342490, Note_on_c, 0, 61, 112
1, 342755, Note_off_c, 0, 61, 112
1, 342779, Note_on_c, 0, 58, 113
1, 343085, Note_off_c, 0, 58, 113
1, 343151, Note_on_c, 0, 54, 108
1, 343466, Note_off_c, 0, 54, 108
1, 343557, Note_on_c, 0, 64, 118
1, 344112, Note_off_c, 0, 64, 118
1, 344145, Note_on_c, 0, 60, 110
1, 344418, Note_off_c, 0, 60, 110
1, 344459, Note_on_c, 0, 57, 112
1, 344815, Note_off_c, 0, 57, 112
1, 344873, Note_on_c, 0, 54, 105
1, 345212, Note_off_c, 0, 54, 105
1, 345228, Note_on_c, 0, 63, 114
1, 347209, Note_off_c, 0, 63, 114
1, 348336, Note_on_c, 0, 63, 115
1, 348675, Note_off_c, 0, 63, 115
1, 348683, Note_on_c, 0, 65, 115
1, 348956, Note_off_c, 0, 65, 115
1, 348989, Note_on_c, 0, 66, 111
1, 349279, Note_off_c, 0, 66, 111
1, 349362, Note_on_c, 0, 70, 98
1, 349543, Note_off_c, 0, 70, 98
1, 349543, Note_on_c, 0, 73, 116
1, 349841, Note_off_c, 0, 73, 116
1, 349865, Note_on_c, 0, 70, 119
1, 350088, Note_off_c, 0, 70, 119
1, 350151, Note_on_c, 0, 68, 116
1, 350457, Note_off_c, 0, 68, 116
1, 350500, Note_on_c, 0, 66, 111
1, 350790, Note_off_c, 0, 66, 111
1, 350857, Note_on_c, 0, 70, 60
1, 351047, Note_off_c, 0, 70, 60
1, 351138, Note_on_c, 0, 74, 112
1, 351378, Note_off_c, 0, 74, 112
1, 351427, Note_on_c, 0, 77, 115
1, 351717, Note_off_c, 0, 77, 115
1, 351733, Note_on_c, 0, 72, 96
1, 351989, Note_off_c, 0, 72, 96
1, 351997, Note_on_c, 0, 75, 111
1, 352320, Note_off_c, 0, 75, 111
1, 352344, Note_on_c, 0, 76, 123
1, 352642, Note_off_c, 0, 76, 123
1, 352666, Note_on_c, 0, 70, 119
1, 352914, Note_off_c, 0, 70, 119
1, 353013, Note_on_c, 0, 69, 120
1, 353352, Note_off_c, 0, 69, 120
1, 353376, Note_on_c, 0, 68, 117
1, 353624, Note_off_c, 0, 68, 117
1, 353632, Note_on_c, 0, 67, 115
1, 353822, Note_off_c, 0, 67, 115
1, 353838, Note_on_c, 0, 66, 113
1, 354219, Note_off_c, 0, 66, 113
1, 354683, Note_on_c, 0, 65, 114
1, 355089, Note_off_c, 0, 65, 114
1, 355089, Note_on_c, 0, 63, 111
1, 355445, Note_off_c, 0, 63, 111
1, 355461, Note_on_c, 0, 58, 108
1, 355834, Note_off_c, 0, 58, 108
1, 355834, Note_on_c, 0, 61, 115
1, 356140, Note_off_c, 0, 61, 115
1, 356173, Note_on_c, 0, 60, 115
1, 356438, Note_off_c, 0, 60, 115
1, 356471, Note_on_c, 0, 58, 114
1, 356835, Note_off_c, 0, 58, 114
1, 356843, Note_on_c, 0, 57, 114
1, 357083, Note_off_c, 0, 57, 114
1, 357165, Note_on_c, 0, 55, 100
1, 357480, Note_off_c, 0, 55, 100
1, 357504, Note_on_c, 0, 56, 116
1, 357885, Note_off_c, 0, 56, 116
1, 357984, Note_on_c, 0, 53, 107
1, 358207, Note_off_c, 0, 53, 107
1, 358240, Note_on_c, 0, 54, 107
1, 358521, Note_off_c, 0, 54, 107
1, 358555, Note_on_c, 0, 58, 110
1, 358845, Note_off_c, 0, 58, 110
1, 358859, Note_on_c, 0, 61, 103
1, 359115, Note_off_c, 0, 61, 103
1, 359156, Note_on_c, 0, 65, 112
1, 361427, Note_off_c, 0, 65, 112
1, 361474, Note_on_c, 0, 63, 113
1, 362021, Note_off_c, 0, 63, 113
1, 363713, Note_on_c, 0, 68, 111
1, 364168, Note_off_c, 0, 68, 111
1, 364176, Note_on_c, 0, 70, 109
1, 364350, Note_off_c, 0, 70, 109
1, 364366, Note_on_c, 0, 68, 110
1, 364631, Note_off_c, 0, 68, 110
1, 364647, Note_on_c, 0, 66, 114
1, 364970, Note_off_c, 0, 66, 114
1, 365011, Note_on_c, 0, 61, 105
1, 365334, Note_off_c, 0, 61, 105
1, 365392, Note_on_c, 0, 58, 109
1, 365748, Note_off_c, 0, 58, 109
1, 365797, Note_on_c, 0, 54, 108
1, 366194, Note_on_c, 0, 64, 111
1, 366194, Note_off_c, 0, 54, 108
1, 368299, Note_off_c, 0, 64, 111
1, 368357, Note_on_c, 0, 60, 108
1, 368829, Note_off_c, 0, 60, 108
1, 368862, Note_on_c, 0, 56, 113
1, 369359, Note_off_c, 0, 56, 113
1, 369466, Note_on_c, 0, 54, 114
1, 370394, Note_off_c, 0, 54, 114
1, 370410, Note_on_c, 0, 53, 106
1, 371263, Note_off_c, 0, 53, 106
1, 371304, Note_on_c, 0, 56, 101
1, 371494, Note_off_c, 0, 56, 101
1, 371535, Note_on_c, 0, 60, 105
1, 371800, Note_off_c, 0, 60, 105
1, 371841, Note_on_c, 0, 63, 112
1, 372247, Note_off_c, 0, 63, 112
1, 372263, Note_on_c, 0, 61, 106
1, 372586, Note_off_c, 0, 61, 106
1, 372602, Note_on_c, 0, 60, 105
1, 372999, Note_off_c, 0, 60, 105
1, 373040, Note_on_c, 0, 56, 106
1, 373355, Note_off_c, 0, 56, 106
1, 373478, Note_on_c, 0, 58, 103
1, 383269, Note_off_c, 0, 58, 103
1, 383269, End_track
0, 0, End_of_file
