0, 0, Header, 1, 1, 192
1, 0, Start_track
1, 0, Title_t, "Melody"
1, 0, Tempo, 247933
1, 0, Key_signature, -4, "major"
1, 0, Time_signature, 4, 2, 24, 8
1, 2472, Note_on_c, 0, 65, 120
1, 2559, Note_off_c, 0, 65, 120
1, 2671, Note_on_c, 0, 60, 109
1, 2715, Note_off_c, 0, 60, 109
1, 2719, Note_on_c, 0, 61, 107
1, 2817, Note_off_c, 0, 61, 107
1, 2817, Note_on_c, 0, 60, 100
1, 3477, Note_off_c, 0, 60, 100
1, 3661, Note_on_c, 0, 55, 119
1, 3728, Note_off_c, 0, 55, 119
1, 3734, Note_on_c, 0, 56, 116
1, 3783, Note_off_c, 0, 56, 116
1, 3796, Note_on_c, 0, 55, 113
1, 3849, Note_off_c, 0, 55, 113
1, 3863, Note_on_c, 0, 53, 111
1, 4305, Note_off_c, 0, 53, 111
1, 4443, Note_on_c, 0, 65, 113
1, 4571, Note_off_c, 0, 65, 113
1, 4574, Note_on_c, 0, 58, 107
1, 4738, Note_off_c, 0, 58, 107
1, 5358, Note_on_c, 0, 66, 117
1, 5445, Note_off_c, 0, 66, 117
1, 5464, Note_on_c, 0, 64, 118
1, 5544, Note_off_c, 0, 64, 118
1, 5555, Note_on_c, 0, 63, 119
1, 5640, Note_off_c, 0, 63, 119
1, 5664, Note_on_c, 0, 61, 102
1, 5742, Note_off_c, 0, 61, 102
1, 5757, Note_on_c, 0, 60, 100
1, 5826, Note_off_c, 0, 60, 100
1, 5843, Note_on_c, 0, 59, 117
1, 5941, Note_off_c, 0, 59, 117
1, 5949, Note_on_c, 0, 58, 116
1, 6050, Note_off_c, 0, 58, 116
1, 6065, Note_on_c, 0, 56, 106
1, 6150, Note_off_c, 0, 56, 106
1, 6150, Note_on_c, 0, 57, 119
1, 6230, Note_off_c, 0, 57, 119
1, 6243, Note_on_c, 0, 58, 102
1, 6317, Note_off_c, 0, 58, 102
1, 6317, Note_on_c, 0, 63, 121
1, 6411, Note_off_c, 0, 63, 121
1, 6431, Note_on_c, 0, 66, 119
1, 6543, Note_off_c, 0, 66, 119
1, 6547, Note_on_c, 0, 65, 114
1, 6625, Note_off_c, 0, 65, 114
1, 6640, Note_on_c, 0, 63, 124
1, 6709, Note_off_c, 0, 63, 124
1, 6713, Note_on_c, 0, 61, 102
1, 6814, Note_off_c, 0, 61, 102
1, 6820, Note_on_c, 0, 58, 102
1, 7100, Note_off_c, 0, 58, 102
1, 8534, Note_on_c, 0, 67, 123
1, 8626, Note_off_c, 0, 67, 123
1, 8729, Note_on_c, 0, 67, 117
1, 8850, Note_off_c, 0, 67, 117
1, 8903, Note_on_c, 0, 71, 104
1, 8945, Note_off_c, 0, 71, 104
1, 8997, Note_on_c, 0, 64, 103
1, 9147, Note_off_c, 0, 64, 103
1, 9178, Note_on_c, 0, 67, 119
1, 9297, Note_off_c, 0, 67, 119
1, 9303, Note_on_c, 0, 65, 115
1, 9392, Note_off_c, 0, 65, 115
1, 9394, Note_on_c, 0, 64, 115
1, 9481, Note_off_c, 0, 64, 115
1, 9498, Note_on_c, 0, 60, 106
1, 9587, Note_off_c, 0, 60, 106
1, 9591, Note_on_c, 0, 57, 94
1, 9714, Note_off_c, 0, 57, 94
1, 9747, Note_on_c, 0, 66, 110
1, 9834, Note_off_c, 0, 66, 110
1, 9834, Note_on_c, 0, 67, 113
1, 9919, Note_off_c, 0, 67, 113
1, 9961, Note_on_c, 0, 64, 116
1, 10059, Note_off_c, 0, 64, 116
1, 10067, Note_on_c, 0, 63, 121
1, 10143, Note_off_c, 0, 63, 121
1, 10172, Note_on_c, 0, 61, 93
1, 10268, Note_off_c, 0, 61, 93
1, 10270, Note_on_c, 0, 63, 106
1, 10328, Note_off_c, 0, 63, 106
1, 10328, Note_on_c, 0, 64, 119
1, 10417, Note_off_c, 0, 64, 119
1, 10428, Note_on_c, 0, 66, 122
1, 10522, Note_off_c, 0, 66, 122
1, 10530, Note_on_c, 0, 63, 110
1, 10613, Note_off_c, 0, 63, 110
1, 10662, Note_on_c, 0, 54, 98
1, 10776, Note_off_c, 0, 54, 98
1, 10780, Note_on_c, 0, 55, 94
1, 10847, Note_off_c, 0, 55, 94
1, 10864, Note_on_c, 0, 58, 105
1, 10929, Note_off_c, 0, 58, 105
1, 10944, Note_on_c, 0, 67, 111
1, 11029, Note_off_c, 0, 67, 111
1, 11035, Note_on_c, 0, 58, 106
1, 11127, Note_off_c, 0, 58, 106
1, 11142, Note_on_c, 0, 59, 116
1, 11218, Note_off_c, 0, 59, 116
1, 11305, Note_on_c, 0, 64, 118
1, 11361, Note_off_c, 0, 64, 118
1, 11361, Note_on_c, 0, 65, 116
1, 11581, Note_off_c, 0, 65, 116
1, 11594, Note_on_c, 0, 63, 118
1, 11699, Note_off_c, 0, 63, 118
1, 12342, Note_on_c, 0, 57, 100
1, 12381, Note_off_c, 0, 57, 100
1, 12387, Note_on_c, 0, 58, 113
1, 12450, Note_off_c, 0, 58, 113
1, 12468, Note_on_c, 0, 62, 88
1, 12533, Note_off_c, 0, 62, 88
1, 12533, Note_on_c, 0, 65, 100
1, 12602, Note_off_c, 0, 65, 100
1, 12615, Note_on_c, 0, 69, 125
1, 12727, Note_on_c, 0, 67, 122
1, 12727, Note_off_c, 0, 69, 125
1, 12819, Note_off_c, 0, 67, 122
1, 12832, Note_on_c, 0, 65, 112
1, 12928, Note_off_c, 0, 65, 112
1, 12932, Note_on_c, 0, 62, 97
1, 13015, Note_off_c, 0, 62, 97
1, 13030, Note_on_c, 0, 63, 116
1, 13110, Note_off_c, 0, 63, 116
1, 13114, Note_on_c, 0, 65, 113
1, 13154, Note_off_c, 0, 65, 113
1, 13154, Note_on_c, 0, 63, 120
1, 13201, Note_off_c, 0, 63, 120
1, 13205, Note_on_c, 0, 62, 110
1, 13279, Note_off_c, 0, 62, 110
1, 13290, Note_on_c, 0, 58, 110
1, 13395, Note_off_c, 0, 58, 110
1, 13959, Note_on_c, 0, 67, 122
1, 14042, Note_off_c, 0, 67, 122
1, 14055, Note_on_c, 0, 68, 125
1, 14156, Note_off_c, 0, 68, 125
1, 14156, Note_on_c, 0, 67, 114
1, 14239, Note_off_c, 0, 67, 114
1, 14239, Note_on_c, 0, 65, 118
1, 14340, Note_off_c, 0, 65, 118
1, 14355, Note_on_c, 0, 63, 111
1, 14422, Note_off_c, 0, 63, 111
1, 14437, Note_on_c, 0, 62, 116
1, 14531, Note_off_c, 0, 62, 116
1, 14535, Note_on_c, 0, 61, 107
1, 14633, Note_off_c, 0, 61, 107
1, 14644, Note_on_c, 0, 58, 107
1, 14731, Note_off_c, 0, 58, 107
1, 14737, Note_on_c, 0, 60, 106
1, 14817, Note_off_c, 0, 60, 106
1, 14821, Note_on_c, 0, 61, 123
1, 14901, Note_off_c, 0, 61, 123
1, 14905, Note_on_c, 0, 58, 110
1, 14992, Note_off_c, 0, 58, 110
1, 15038, Note_on_c, 0, 55, 98
1, 15092, Note_off_c, 0, 55, 98
1, 15096, Note_on_c, 0, 56, 105
1, 15197, Note_off_c, 0, 56, 105
1, 15201, Note_on_c, 0, 58, 109
1, 15297, Note_off_c, 0, 58, 109
1, 15308, Note_on_c, 0, 59, 101
1, 15404, Note_off_c, 0, 59, 101
1, 15410, Note_on_c, 0, 58, 90
1, 15454, Note_off_c, 0, 58, 90
1, 15454, Note_on_c, 0, 65, 112
1, 15575, Note_on_c, 0, 64, 116
1, 15575, Note_off_c, 0, 65, 112
1, 15653, Note_off_c, 0, 64, 116
1, 15659, Note_on_c, 0, 63, 114
1, 15739, Note_off_c, 0, 63, 114
1, 15772, Note_on_c, 0, 60, 90
1, 15861, Note_off_c, 0, 60, 90
1, 15883, Note_on_c, 0, 61, 112
1, 15963, Note_off_c, 0, 61, 112
1, 15963, Note_on_c, 0, 60, 107
1, 16037, Note_off_c, 0, 60, 107
1, 16050, Note_on_c, 0, 58, 108
1, 16153, Note_off_c, 0, 58, 108
1, 16157, Note_on_c, 0, 56, 113
1, 16258, Note_off_c, 0, 56, 113
1, 16269, Note_on_c, 0, 55, 108
1, 16349, Note_off_c, 0, 55, 108
1, 16362, Note_on_c, 0, 53, 113
1, 16422, Note_off_c, 0, 53, 113
1, 16437, Note_on_c, 0, 52, 106
1, 16526, Note_off_c, 0, 52, 106
1, 16539, Note_on_c, 0, 55, 100
1, 16608, Note_off_c, 0, 55, 100
1, 16616, Note_on_c, 0, 58, 120
1, 16705, Note_off_c, 0, 58, 120
1, 16729, Note_on_c, 0, 61, 110
1, 16796, Note_off_c, 0, 61, 110
1, 16802, Note_on_c, 0, 60, 101
1, 16882, Note_off_c, 0, 60, 101
1, 16893, Note_on_c, 0, 58, 121
1, 16960, Note_off_c, 0, 58, 121
1, 16977, Note_on_c, 0, 56, 118
1, 17069, Note_off_c, 0, 56, 118
1, 17224, Note_on_c, 0, 52, 103
1, 17278, Note_off_c, 0, 52, 103
1, 17283, Note_on_c, 0, 56, 118
1, 17359, Note_off_c, 0, 56, 118
1, 17374, Note_on_c, 0, 55, 108
1, 17468, Note_off_c, 0, 55, 108
1, 17483, Note_on_c, 0, 53, 113
1, 17557, Note_off_c, 0, 53, 113
1, 17560, Note_on_c, 0, 52, 106
1, 17663, Note_off_c, 0, 52, 106
1, 17669, Note_on_c, 0, 55, 98
1, 17749, Note_off_c, 0, 55, 98
1, 17753, Note_on_c, 0, 58, 119
1, 17833, Note_off_c, 0, 58, 119
1, 17866, Note_on_c, 0, 61, 109
1, 17946, Note_off_c, 0, 61, 109
1, 17952, Note_on_c, 0, 60, 100
1, 18032, Note_off_c, 0, 60, 100
1, 18034, Note_on_c, 0, 58, 112
1, 18123, Note_off_c, 0, 58, 112
1, 18127, Note_on_c, 0, 56, 112
1, 18243, Note_off_c, 0, 56, 112
1, 18249, Note_on_c, 0, 58, 119
1, 18334, Note_off_c, 0, 58, 119
1, 18453, Note_on_c, 0, 64, 111
1, 18502, Note_off_c, 0, 64, 111
1, 18506, Note_on_c, 0, 67, 122
1, 18631, Note_off_c, 0, 67, 122
1, 18642, Note_on_c, 0, 64, 99
1, 18695, Note_off_c, 0, 64, 99
1, 18699, Note_on_c, 0, 65, 98
1, 18824, Note_off_c, 0, 65, 98
1, 18839, Note_on_c, 0, 67, 111
1, 18899, Note_off_c, 0, 67, 111
1, 18899, Note_on_c, 0, 68, 121
1, 19000, Note_off_c, 0, 68, 121
1, 19020, Note_on_c, 0, 65, 96
1, 19184, Note_off_c, 0, 65, 96
1, 20382, Note_on_c, 0, 65, 117
1, 20435, Note_off_c, 0, 65, 117
1, 20441, Note_on_c, 0, 66, 116
1, 20494, Note_off_c, 0, 66, 116
1, 20588, Note_on_c, 0, 64, 119
1, 20653, Note_off_c, 0, 64, 119
1, 20660, Note_on_c, 0, 65, 111
1, 21049, Note_off_c, 0, 65, 111
1, 21109, Note_on_c, 0, 63, 121
1, 21214, Note_off_c, 0, 63, 121
1, 21240, Note_on_c, 0, 61, 103
1, 21334, Note_off_c, 0, 61, 103
1, 21399, Note_on_c, 0, 55, 100
1, 21475, Note_off_c, 0, 55, 100
1, 21603, Note_on_c, 0, 55, 105
1, 21978, Note_off_c, 0, 55, 105
1, 22841, Note_on_c, 0, 67, 120
1, 22903, Note_off_c, 0, 67, 120
1, 22909, Note_on_c, 0, 68, 123
1, 22983, Note_off_c, 0, 68, 123
1, 23039, Note_on_c, 0, 64, 119
1, 23117, Note_off_c, 0, 64, 119
1, 23117, Note_on_c, 0, 65, 113
1, 23195, Note_off_c, 0, 65, 113
1, 23651, Note_on_c, 0, 58, 117
1, 23709, Note_off_c, 0, 58, 117
1, 23715, Note_on_c, 0, 59, 116
1, 23791, Note_off_c, 0, 59, 116
1, 23802, Note_on_c, 0, 61, 110
1, 23873, Note_off_c, 0, 61, 110
1, 23915, Note_on_c, 0, 62, 120
1, 23982, Note_off_c, 0, 62, 120
1, 23995, Note_on_c, 0, 67, 123
1, 24064, Note_off_c, 0, 67, 123
1, 24398, Note_on_c, 0, 59, 105
1, 24476, Note_off_c, 0, 59, 105
1, 24511, Note_on_c, 0, 63, 96
1, 24562, Note_off_c, 0, 63, 96
1, 24575, Note_on_c, 0, 67, 113
1, 24644, Note_off_c, 0, 67, 113
1, 24644, Note_on_c, 0, 70, 126
1, 24742, Note_off_c, 0, 70, 126
1, 24746, Note_on_c, 0, 68, 122
1, 24835, Note_off_c, 0, 68, 122
1, 24839, Note_on_c, 0, 67, 117
1, 24951, Note_off_c, 0, 67, 117
1, 24951, Note_on_c, 0, 65, 118
1, 25027, Note_off_c, 0, 65, 118
1, 25033, Note_on_c, 0, 63, 122
1, 25111, Note_off_c, 0, 63, 122
1, 25135, Note_on_c, 0, 60, 91
1, 25193, Note_off_c, 0, 60, 91
1, 25210, Note_on_c, 0, 61, 105
1, 25297, Note_off_c, 0, 61, 105
1, 25305, Note_on_c, 0, 60, 111
1, 25385, Note_off_c, 0, 60, 111
1, 25409, Note_on_c, 0, 58, 116
1, 25471, Note_off_c, 0, 58, 116
1, 25497, Note_on_c, 0, 55, 102
1, 25589, Note_off_c, 0, 55, 102
1, 25595, Note_on_c, 0, 57, 109
1, 25689, Note_off_c, 0, 57, 109
1, 25689, Note_on_c, 0, 60, 109
1, 25774, Note_off_c, 0, 60, 109
1, 25787, Note_on_c, 0, 58, 110
1, 25885, Note_off_c, 0, 58, 110
1, 25911, Note_on_c, 0, 60, 106
1, 25971, Note_off_c, 0, 60, 106
1, 25977, Note_on_c, 0, 61, 88
1, 26066, Note_off_c, 0, 61, 88
1, 26081, Note_on_c, 0, 63, 95
1, 26146, Note_off_c, 0, 63, 95
1, 26157, Note_on_c, 0, 65, 115
1, 26251, Note_off_c, 0, 65, 115
1, 26257, Note_on_c, 0, 68, 112
1, 26364, Note_off_c, 0, 68, 112
1, 26364, Note_on_c, 0, 67, 110
1, 26451, Note_on_c, 0, 65, 112
1, 26451, Note_off_c, 0, 67, 110
1, 26549, Note_off_c, 0, 65, 112
1, 26553, Note_on_c, 0, 63, 115
1, 26636, Note_off_c, 0, 63, 115
1, 26647, Note_on_c, 0, 62, 115
1, 26736, Note_off_c, 0, 62, 115
1, 26742, Note_on_c, 0, 61, 108
1, 26844, Note_off_c, 0, 61, 108
1, 26856, Note_on_c, 0, 59, 104
1, 26921, Note_off_c, 0, 59, 104
1, 26925, Note_on_c, 0, 60, 107
1, 27005, Note_off_c, 0, 60, 107
1, 27016, Note_on_c, 0, 61, 113
1, 27094, Note_off_c, 0, 61, 113
1, 27111, Note_on_c, 0, 58, 112
1, 27191, Note_off_c, 0, 58, 112
1, 27255, Note_on_c, 0, 55, 100
1, 27314, Note_off_c, 0, 55, 100
1, 27324, Note_on_c, 0, 56, 108
1, 27400, Note_off_c, 0, 56, 108
1, 27407, Note_on_c, 0, 58, 112
1, 27505, Note_off_c, 0, 58, 112
1, 27507, Note_on_c, 0, 59, 104
1, 27617, Note_off_c, 0, 59, 104
1, 27625, Note_on_c, 0, 58, 90
1, 27676, Note_off_c, 0, 58, 90
1, 27691, Note_on_c, 0, 65, 113
1, 27801, Note_off_c, 0, 65, 113
1, 27805, Note_on_c, 0, 64, 110
1, 27885, Note_off_c, 0, 64, 110
1, 27891, Note_on_c, 0, 63, 117
1, 27974, Note_off_c, 0, 63, 117
1, 28005, Note_on_c, 0, 61, 110
1, 28108, Note_off_c, 0, 61, 110
1, 28112, Note_on_c, 0, 60, 100
1, 28183, Note_off_c, 0, 60, 100
1, 28185, Note_on_c, 0, 59, 118
1, 28274, Note_off_c, 0, 59, 118
1, 28282, Note_on_c, 0, 58, 114
1, 28360, Note_off_c, 0, 58, 114
1, 28364, Note_on_c, 0, 56, 118
1, 28462, Note_off_c, 0, 56, 118
1, 28479, Note_on_c, 0, 55, 107
1, 28571, Note_off_c, 0, 55, 107
1, 28577, Note_on_c, 0, 53, 108
1, 28612, Note_off_c, 0, 53, 108
1, 28632, Note_on_c, 0, 52, 110
1, 28708, Note_off_c, 0, 52, 110
1, 28739, Note_on_c, 0, 55, 117
1, 28813, Note_off_c, 0, 55, 117
1, 28824, Note_on_c, 0, 53, 115
1, 28859, Note_off_c, 0, 53, 115
1, 28867, Note_on_c, 0, 54, 112
1, 28934, Note_off_c, 0, 54, 112
1, 28965, Note_on_c, 0, 52, 98
1, 29027, Note_off_c, 0, 52, 98
1, 29056, Note_on_c, 0, 53, 100
1, 29150, Note_off_c, 0, 53, 100
1, 29150, Note_on_c, 0, 55, 112
1, 29228, Note_off_c, 0, 55, 112
1, 29261, Note_on_c, 0, 56, 107
1, 29330, Note_off_c, 0, 56, 107
1, 29330, Note_on_c, 0, 58, 108
1, 29415, Note_off_c, 0, 58, 108
1, 29415, Note_on_c, 0, 60, 107
1, 29511, Note_off_c, 0, 60, 107
1, 29535, Note_on_c, 0, 56, 95
1, 29620, Note_off_c, 0, 56, 95
1, 29627, Note_on_c, 0, 58, 113
1, 29748, Note_off_c, 0, 58, 113
1, 29931, Note_on_c, 0, 58, 105
1, 30002, Note_off_c, 0, 58, 105
1, 30118, Note_on_c, 0, 64, 103
1, 30163, Note_off_c, 0, 64, 103
1, 30169, Note_on_c, 0, 67, 120
1, 30290, Note_off_c, 0, 67, 120
1, 30311, Note_on_c, 0, 64, 106
1, 30356, Note_off_c, 0, 64, 106
1, 30361, Note_on_c, 0, 65, 117
1, 30484, Note_off_c, 0, 65, 117
1, 30502, Note_on_c, 0, 67, 119
1, 30566, Note_off_c, 0, 67, 119
1, 30579, Note_on_c, 0, 68, 116
1, 30679, Note_off_c, 0, 68, 116
1, 30687, Note_on_c, 0, 70, 99
1, 30745, Note_off_c, 0, 70, 99
1, 30753, Note_on_c, 0, 72, 111
1, 30932, Note_off_c, 0, 72, 111
1, 30932, Note_on_c, 0, 72, 116
1, 31078, Note_off_c, 0, 72, 116
1, 31145, Note_on_c, 0, 70, 120
1, 31243, Note_off_c, 0, 70, 120
1, 31319, Note_on_c, 0, 70, 123
1, 31417, Note_off_c, 0, 70, 123
1, 31419, Note_on_c, 0, 68, 113
1, 31574, Note_off_c, 0, 68, 113
1, 31607, Note_on_c, 0, 68, 121
1, 31699, Note_off_c, 0, 68, 121
1, 31707, Note_on_c, 0, 65, 111
1, 31857, Note_off_c, 0, 65, 111
1, 32654, Note_on_c, 0, 65, 121
1, 32728, Note_off_c, 0, 65, 121
1, 32739, Note_on_c, 0, 66, 123
1, 32799, Note_off_c, 0, 66, 123
1, 32817, Note_on_c, 0, 65, 119
1, 32949, Note_off_c, 0, 65, 119
1, 32951, Note_on_c, 0, 64, 120
1, 33115, Note_off_c, 0, 64, 120
1, 33121, Note_on_c, 0, 65, 113
1, 33473, Note_off_c, 0, 65, 113
1, 33508, Note_on_c, 0, 64, 113
1, 33539, Note_off_c, 0, 64, 113
1, 33543, Note_on_c, 0, 65, 112
1, 33592, Note_off_c, 0, 65, 112
1, 33592, Note_on_c, 0, 63, 120
1, 33713, Note_off_c, 0, 63, 120
1, 33724, Note_on_c, 0, 60, 91
1, 33775, Note_off_c, 0, 60, 91
1, 33777, Note_on_c, 0, 61, 112
1, 33907, Note_off_c, 0, 61, 112
1, 33924, Note_on_c, 0, 57, 99
1, 34018, Note_off_c, 0, 57, 99
1, 35355, Note_on_c, 0, 67, 119
1, 35413, Note_off_c, 0, 67, 119
1, 35415, Note_on_c, 0, 68, 123
1, 35597, Note_off_c, 0, 68, 123
1, 35734, Note_on_c, 0, 67, 121
1, 35877, Note_off_c, 0, 67, 121
1, 35888, Note_on_c, 0, 68, 104
1, 35941, Note_off_c, 0, 68, 104
1, 35945, Note_on_c, 0, 67, 112
1, 36001, Note_off_c, 0, 67, 112
1, 36005, Note_on_c, 0, 65, 112
1, 36160, Note_off_c, 0, 65, 112
1, 36492, Note_on_c, 0, 64, 112
1, 36548, Note_off_c, 0, 64, 112
1, 36553, Note_on_c, 0, 65, 106
1, 36597, Note_off_c, 0, 65, 106
1, 36601, Note_on_c, 0, 66, 110
1, 36668, Note_off_c, 0, 66, 110
1, 36686, Note_on_c, 0, 67, 122
1, 36764, Note_off_c, 0, 67, 122
1, 36770, Note_on_c, 0, 66, 121
1, 36805, Note_off_c, 0, 66, 121
1, 36809, Note_on_c, 0, 65, 118
1, 36847, Note_off_c, 0, 65, 118
1, 36852, Note_on_c, 0, 64, 120
1, 36941, Note_off_c, 0, 64, 120
1, 36960, Note_on_c, 0, 60, 108
1, 37022, Note_off_c, 0, 60, 108
1, 37216, Note_on_c, 0, 66, 123
1, 37309, Note_off_c, 0, 66, 123
1, 37404, Note_on_c, 0, 64, 118
1, 37516, Note_off_c, 0, 64, 118
1, 37533, Note_on_c, 0, 63, 120
1, 37607, Note_off_c, 0, 63, 120
1, 37703, Note_on_c, 0, 66, 118
1, 37826, Note_off_c, 0, 66, 118
1, 37915, Note_on_c, 0, 61, 115
1, 38013, Note_off_c, 0, 61, 115
1, 38102, Note_on_c, 0, 58, 113
1, 38192, Note_off_c, 0, 58, 113
1, 38288, Note_on_c, 0, 59, 111
1, 38402, Note_off_c, 0, 59, 111
1, 38461, Note_on_c, 0, 63, 121
1, 38521, Note_off_c, 0, 63, 121
1, 38538, Note_on_c, 0, 66, 106
1, 38690, Note_off_c, 0, 66, 106
1, 38745, Note_on_c, 0, 65, 110
1, 38836, Note_off_c, 0, 65, 110
1, 38921, Note_on_c, 0, 63, 118
1, 39005, Note_off_c, 0, 63, 118
1, 39271, Note_on_c, 0, 58, 109
1, 39342, Note_off_c, 0, 58, 109
1, 39427, Note_on_c, 0, 62, 120
1, 39501, Note_off_c, 0, 62, 120
1, 39830, Note_on_c, 0, 58, 111
1, 39900, Note_off_c, 0, 58, 111
1, 40024, Note_on_c, 0, 62, 110
1, 40092, Note_off_c, 0, 62, 110
1, 40283, Note_on_c, 0, 69, 118
1, 40363, Note_off_c, 0, 69, 118
1, 40465, Note_on_c, 0, 67, 115
1, 40545, Note_off_c, 0, 67, 115
1, 40680, Note_on_c, 0, 64, 116
1, 40713, Note_off_c, 0, 64, 116
1, 40713, Note_on_c, 0, 65, 112
1, 40841, Note_off_c, 0, 65, 112
1, 40866, Note_on_c, 0, 62, 117
1, 40933, Note_off_c, 0, 62, 117
1, 41407, Note_on_c, 0, 68, 123
1, 41494, Note_off_c, 0, 68, 123
1, 41519, Note_on_c, 0, 69, 115
1, 41547, Note_off_c, 0, 69, 115
1, 41549, Note_on_c, 0, 68, 121
1, 41622, Note_off_c, 0, 68, 121
1, 41625, Note_on_c, 0, 67, 114
1, 41686, Note_off_c, 0, 67, 114
1, 41717, Note_on_c, 0, 65, 117
1, 41799, Note_off_c, 0, 65, 117
1, 41804, Note_on_c, 0, 63, 117
1, 41887, Note_off_c, 0, 63, 117
1, 41904, Note_on_c, 0, 62, 117
1, 41974, Note_off_c, 0, 62, 117
1, 41985, Note_on_c, 0, 61, 107
1, 42054, Note_off_c, 0, 61, 107
1, 42113, Note_on_c, 0, 58, 104
1, 42177, Note_off_c, 0, 58, 104
1, 42194, Note_on_c, 0, 60, 109
1, 42258, Note_off_c, 0, 60, 109
1, 42274, Note_on_c, 0, 61, 120
1, 42342, Note_off_c, 0, 61, 120
1, 42348, Note_on_c, 0, 58, 108
1, 42433, Note_off_c, 0, 58, 108
1, 42451, Note_on_c, 0, 55, 101
1, 42520, Note_off_c, 0, 55, 101
1, 42527, Note_on_c, 0, 56, 118
1, 42607, Note_off_c, 0, 56, 118
1, 42708, Note_on_c, 0, 68, 119
1, 42793, Note_off_c, 0, 68, 119
1, 42804, Note_on_c, 0, 69, 117
1, 42839, Note_off_c, 0, 69, 117
1, 42845, Note_on_c, 0, 68, 122
1, 42912, Note_off_c, 0, 68, 122
1, 42929, Note_on_c, 0, 67, 114
1, 43008, Note_off_c, 0, 67, 114
1, 43016, Note_on_c, 0, 65, 116
1, 43108, Note_off_c, 0, 65, 116
1, 43123, Note_on_c, 0, 60, 99
1, 43209, Note_off_c, 0, 60, 99
1, 43214, Note_on_c, 0, 58, 101
1, 43294, Note_off_c, 0, 58, 101
1, 43301, Note_on_c, 0, 65, 118
1, 43395, Note_off_c, 0, 65, 118
1, 43406, Note_on_c, 0, 62, 99
1, 43479, Note_off_c, 0, 62, 99
1, 43483, Note_on_c, 0, 64, 122
1, 43588, Note_off_c, 0, 64, 122
1, 43588, Note_on_c, 0, 67, 118
1, 43683, Note_off_c, 0, 67, 118
1, 43688, Note_on_c, 0, 61, 102
1, 43763, Note_off_c, 0, 61, 102
1, 43811, Note_on_c, 0, 61, 108
1, 43890, Note_off_c, 0, 61, 108
1, 43899, Note_on_c, 0, 60, 100
1, 43963, Note_off_c, 0, 60, 100
1, 43976, Note_on_c, 0, 58, 116
1, 44053, Note_off_c, 0, 58, 116
1, 44069, Note_on_c, 0, 56, 108
1, 44165, Note_off_c, 0, 56, 108
1, 44395, Note_on_c, 0, 52, 98
1, 44448, Note_off_c, 0, 52, 98
1, 44448, Note_on_c, 0, 53, 98
1, 44503, Note_off_c, 0, 53, 98
1, 44551, Note_on_c, 0, 55, 115
1, 44615, Note_off_c, 0, 55, 115
1, 44619, Note_on_c, 0, 56, 112
1, 44706, Note_off_c, 0, 56, 112
1, 44726, Note_on_c, 0, 59, 114
1, 44830, Note_off_c, 0, 59, 114
1, 44834, Note_on_c, 0, 60, 99
1, 44889, Note_off_c, 0, 60, 99
1, 44921, Note_on_c, 0, 64, 118
1, 45010, Note_off_c, 0, 64, 118
1, 45015, Note_on_c, 0, 65, 113
1, 45065, Note_off_c, 0, 65, 113
1, 45073, Note_on_c, 0, 67, 118
1, 45170, Note_off_c, 0, 67, 118
1, 45180, Note_on_c, 0, 68, 123
1, 45286, Note_off_c, 0, 68, 123
1, 45286, Note_on_c, 0, 71, 122
1, 45365, Note_off_c, 0, 71, 122
1, 45367, Note_on_c, 0, 72, 121
1, 45468, Note_off_c, 0, 72, 121
1, 45482, Note_on_c, 0, 67, 120
1, 45548, Note_off_c, 0, 67, 120
1, 45548, Note_on_c, 0, 68, 118
1, 45671, Note_off_c, 0, 68, 118
1, 46063, Note_on_c, 0, 64, 10
1, 46141, Note_off_c, 0, 64, 10
1, 46146, Note_on_c, 0, 65, 10
1, 46243, Note_off_c, 0, 65, 10
1, 46253, Note_on_c, 0, 61, 114
1, 46329, Note_off_c, 0, 61, 114
1, 46332, Note_on_c, 0, 62, 113
1, 46423, Note_off_c, 0, 62, 113
1, 47029, Note_on_c, 0, 60, 110
1, 47115, Note_off_c, 0, 60, 110
1, 47115, Note_on_c, 0, 61, 110
1, 47193, Note_off_c, 0, 61, 110
1, 47193, Note_on_c, 0, 63, 108
1, 47294, Note_off_c, 0, 63, 108
1, 47294, Note_on_c, 0, 65, 112
1, 47382, Note_off_c, 0, 65, 112
1, 47397, Note_on_c, 0, 60, 106
1, 47472, Note_off_c, 0, 60, 106
1, 47472, Note_on_c, 0, 63, 116
1, 47588, Note_off_c, 0, 63, 116
1, 47596, Note_on_c, 0, 60, 97
1, 47682, Note_off_c, 0, 60, 97
1, 47682, Note_on_c, 0, 61, 104
1, 47775, Note_off_c, 0, 61, 104
1, 47786, Note_on_c, 0, 60, 106
1, 47837, Note_off_c, 0, 60, 106
1, 47843, Note_on_c, 0, 58, 110
1, 47958, Note_off_c, 0, 58, 110
1, 47972, Note_on_c, 0, 56, 111
1, 48068, Note_on_c, 0, 57, 112
1, 48068, Note_off_c, 0, 56, 111
1, 48156, Note_off_c, 0, 57, 112
1, 48157, Note_on_c, 0, 60, 111
1, 48233, Note_off_c, 0, 60, 111
1, 48233, Note_on_c, 0, 63, 120
1, 48340, Note_off_c, 0, 63, 120
1, 48341, Note_on_c, 0, 66, 121
1, 48462, Note_off_c, 0, 66, 121
1, 48462, Note_on_c, 0, 65, 113
1, 48536, Note_off_c, 0, 65, 113
1, 48539, Note_on_c, 0, 63, 120
1, 48631, Note_off_c, 0, 63, 120
1, 48639, Note_on_c, 0, 60, 106
1, 48741, Note_off_c, 0, 60, 106
1, 48742, Note_on_c, 0, 61, 109
1, 48843, Note_off_c, 0, 61, 109
1, 49690, Note_on_c, 0, 53, 96
1, 49775, Note_off_c, 0, 53, 96
1, 49776, Note_on_c, 0, 55, 113
1, 49954, Note_off_c, 0, 55, 113
1, 49956, Note_on_c, 0, 57, 114
1, 50078, Note_off_c, 0, 57, 114
1, 50875, Note_on_c, 0, 66, 123
1, 50915, Note_off_c, 0, 66, 123
1, 50915, Note_on_c, 0, 68, 122
1, 51243, Note_off_c, 0, 68, 122
1, 51243, Note_on_c, 0, 67, 117
1, 51509, Note_on_c, 0, 66, 114
1, 51509, Note_off_c, 0, 67, 117
1, 51557, Note_off_c, 0, 66, 114
1, 51561, Note_on_c, 0, 67, 113
1, 51603, Note_off_c, 0, 67, 113
1, 51603, Note_on_c, 0, 65, 113
1, 51707, Note_off_c, 0, 65, 113
1, 51710, Note_on_c, 0, 63, 120
1, 51795, Note_off_c, 0, 63, 120
1, 51874, Note_on_c, 0, 63, 116
1, 51997, Note_off_c, 0, 63, 116
1, 52000, Note_on_c, 0, 65, 118
1, 52089, Note_off_c, 0, 65, 118
1, 52092, Note_on_c, 0, 66, 127
1, 52176, Note_off_c, 0, 66, 127
1, 52185, Note_on_c, 0, 65, 117
1, 52209, Note_off_c, 0, 65, 117
1, 52215, Note_on_c, 0, 64, 119
1, 52276, Note_off_c, 0, 64, 119
1, 52290, Note_on_c, 0, 63, 121
1, 52379, Note_off_c, 0, 63, 121
1, 52385, Note_on_c, 0, 61, 115
1, 52476, Note_off_c, 0, 61, 115
1, 52493, Note_on_c, 0, 60, 100
1, 52554, Note_off_c, 0, 60, 100
1, 52599, Note_on_c, 0, 59, 117
1, 52664, Note_off_c, 0, 59, 117
1, 52675, Note_on_c, 0, 58, 115
1, 52751, Note_off_c, 0, 58, 115
1, 52758, Note_on_c, 0, 56, 102
1, 52852, Note_off_c, 0, 56, 102
1, 52858, Note_on_c, 0, 57, 120
1, 52929, Note_off_c, 0, 57, 120
1, 52946, Note_on_c, 0, 54, 112
1, 53040, Note_off_c, 0, 54, 112
1, 53046, Note_on_c, 0, 53, 104
1, 53121, Note_off_c, 0, 53, 104
1, 53121, Note_on_c, 0, 51, 99
1, 53198, Note_off_c, 0, 51, 99
1, 53453, Note_on_c, 0, 53, 93
1, 53536, Note_off_c, 0, 53, 93
1, 53542, Note_on_c, 0, 55, 99
1, 53636, Note_off_c, 0, 55, 99
1, 53639, Note_on_c, 0, 60, 115
1, 53716, Note_off_c, 0, 60, 115
1, 53724, Note_on_c, 0, 61, 110
1, 53794, Note_off_c, 0, 61, 110
1, 53796, Note_on_c, 0, 60, 110
1, 53866, Note_off_c, 0, 60, 110
1, 53889, Note_on_c, 0, 58, 108
1, 53990, Note_off_c, 0, 58, 108
1, 53996, Note_on_c, 0, 57, 112
1, 54079, Note_off_c, 0, 57, 112
1, 54087, Note_on_c, 0, 56, 115
1, 54197, Note_off_c, 0, 56, 115
1, 54199, Note_on_c, 0, 55, 103
1, 54292, Note_off_c, 0, 55, 103
1, 54465, Note_on_c, 0, 54, 110
1, 54562, Note_off_c, 0, 54, 110
1, 54564, Note_on_c, 0, 52, 100
1, 54657, Note_off_c, 0, 52, 100
1, 54659, Note_on_c, 0, 49, 95
1, 54742, Note_off_c, 0, 49, 95
1, 54746, Note_on_c, 0, 51, 113
1, 54828, Note_off_c, 0, 51, 113
1, 55005, Note_on_c, 0, 51, 98
1, 55064, Note_off_c, 0, 51, 98
1, 55064, Note_on_c, 0, 55, 103
1, 55116, Note_off_c, 0, 55, 103
1, 55128, Note_on_c, 0, 58, 119
1, 55220, Note_off_c, 0, 58, 119
1, 55224, Note_on_c, 0, 56, 112
1, 55321, Note_off_c, 0, 56, 112
1, 55331, Note_on_c, 0, 55, 108
1, 55435, Note_off_c, 0, 55, 108
1, 55439, Note_on_c, 0, 53, 116
1, 55523, Note_off_c, 0, 53, 116
1, 55526, Note_on_c, 0, 52, 108
1, 55596, Note_off_c, 0, 52, 108
1, 55613, Note_on_c, 0, 55, 109
1, 55687, Note_off_c, 0, 55, 109
1, 55703, Note_on_c, 0, 58, 111
1, 55779, Note_off_c, 0, 58, 111
1, 55831, Note_on_c, 0, 60, 111
1, 55868, Note_off_c, 0, 60, 111
1, 55869, Note_on_c, 0, 61, 113
1, 55953, Note_off_c, 0, 61, 113
1, 55959, Note_on_c, 0, 64, 121
1, 56047, Note_off_c, 0, 64, 121
1, 56049, Note_on_c, 0, 67, 121
1, 56155, Note_off_c, 0, 67, 121
1, 56173, Note_on_c, 0, 64, 121
1, 56246, Note_off_c, 0, 64, 121
1, 56259, Note_on_c, 0, 65, 117
1, 56367, Note_off_c, 0, 65, 117
1, 56381, Note_on_c, 0, 62, 112
1, 56483, Note_off_c, 0, 62, 112
1, 57400, Note_on_c, 0, 60, 115
1, 57492, Note_off_c, 0, 60, 115
1, 57500, Note_on_c, 0, 65, 112
1, 57571, Note_off_c, 0, 65, 112
1, 57573, Note_on_c, 0, 68, 123
1, 57671, Note_off_c, 0, 68, 123
1, 57728, Note_on_c, 0, 72, 123
1, 57841, Note_off_c, 0, 72, 123
1, 57905, Note_on_c, 0, 72, 121
1, 57994, Note_off_c, 0, 72, 121
1, 58020, Note_on_c, 0, 66, 116
1, 58104, Note_off_c, 0, 66, 116
1, 58108, Note_on_c, 0, 67, 117
1, 58692, Note_off_c, 0, 67, 117
1, 58699, Note_on_c, 0, 70, 123
1, 58832, Note_off_c, 0, 70, 123
1, 58833, Note_on_c, 0, 67, 109
1, 58872, Note_off_c, 0, 67, 109
1, 58883, Note_on_c, 0, 68, 123
1, 59032, Note_off_c, 0, 68, 123
1, 59061, Note_on_c, 0, 65, 110
1, 59281, Note_off_c, 0, 65, 110
1, 59656, Note_on_c, 0, 65, 120
1, 59734, Note_off_c, 0, 65, 120
1, 59734, Note_on_c, 0, 66, 122
1, 59800, Note_off_c, 0, 66, 122
1, 59800, Note_on_c, 0, 64, 119
1, 59875, Note_off_c, 0, 64, 119
1, 59878, Note_on_c, 0, 63, 119
1, 59961, Note_off_c, 0, 63, 119
1, 59968, Note_on_c, 0, 61, 109
1, 60081, Note_off_c, 0, 61, 109
1, 60081, Note_on_c, 0, 60, 101
1, 60163, Note_off_c, 0, 60, 101
1, 60173, Note_on_c, 0, 59, 114
1, 60286, Note_off_c, 0, 59, 114
1, 60292, Note_on_c, 0, 58, 108
1, 60359, Note_off_c, 0, 58, 108
1, 60379, Note_on_c, 0, 56, 104
1, 60464, Note_off_c, 0, 56, 104
1, 60470, Note_on_c, 0, 57, 116
1, 60563, Note_off_c, 0, 57, 116
1, 60594, Note_on_c, 0, 60, 107
1, 60691, Note_off_c, 0, 60, 107
1, 60733, Note_on_c, 0, 63, 119
1, 60873, Note_off_c, 0, 63, 119
1, 60899, Note_on_c, 0, 65, 111
1, 61047, Note_off_c, 0, 65, 111
1, 61109, Note_on_c, 0, 66, 117
1, 61241, Note_off_c, 0, 66, 117
1, 61242, Note_on_c, 0, 68, 122
1, 61353, Note_off_c, 0, 68, 122
1, 61387, Note_on_c, 0, 65, 117
1, 61538, Note_off_c, 0, 65, 117
1, 61543, Note_on_c, 0, 63, 116
1, 61646, Note_off_c, 0, 63, 116
1, 61651, Note_on_c, 0, 65, 112
1, 61759, Note_off_c, 0, 65, 112
1, 61776, Note_on_c, 0, 61, 111
1, 62200, Note_off_c, 0, 61, 111
1, 62647, Note_on_c, 0, 68, 123
1, 62752, Note_off_c, 0, 68, 123
1, 62817, Note_on_c, 0, 65, 115
1, 62914, Note_off_c, 0, 65, 115
1, 62919, Note_on_c, 0, 61, 113
1, 63023, Note_off_c, 0, 61, 113
1, 63048, Note_on_c, 0, 58, 105
1, 63118, Note_off_c, 0, 58, 105
1, 63123, Note_on_c, 0, 59, 109
1, 63208, Note_off_c, 0, 59, 109
1, 63487, Note_on_c, 0, 67, 123
1, 63565, Note_off_c, 0, 67, 123
1, 63587, Note_on_c, 0, 68, 122
1, 63656, Note_off_c, 0, 68, 122
1, 63663, Note_on_c, 0, 67, 119
1, 63754, Note_off_c, 0, 67, 119
1, 63768, Note_on_c, 0, 65, 115
1, 63854, Note_off_c, 0, 65, 115
1, 63862, Note_on_c, 0, 64, 109
1, 63964, Note_off_c, 0, 64, 109
1, 63988, Note_on_c, 0, 60, 106
1, 64048, Note_off_c, 0, 60, 106
1, 64058, Note_on_c, 0, 57, 109
1, 64155, Note_off_c, 0, 57, 109
1, 64166, Note_on_c, 0, 56, 113
1, 64241, Note_off_c, 0, 56, 113
1, 64251, Note_on_c, 0, 55, 107
1, 64326, Note_off_c, 0, 55, 107
1, 64400, Note_on_c, 0, 52, 102
1, 64465, Note_off_c, 0, 52, 102
1, 64471, Note_on_c, 0, 55, 106
1, 64529, Note_off_c, 0, 55, 106
1, 64544, Note_on_c, 0, 58, 106
1, 64596, Note_off_c, 0, 58, 106
1, 64601, Note_on_c, 0, 66, 120
1, 64688, Note_off_c, 0, 66, 120
1, 64689, Note_on_c, 0, 67, 116
1, 64750, Note_off_c, 0, 67, 116
1, 64752, Note_on_c, 0, 66, 118
1, 64786, Note_off_c, 0, 66, 118
1, 64792, Note_on_c, 0, 64, 121
1, 64862, Note_off_c, 0, 64, 121
1, 64878, Note_on_c, 0, 65, 114
1, 64918, Note_off_c, 0, 65, 114
1, 64919, Note_on_c, 0, 63, 120
1, 64974, Note_off_c, 0, 63, 120
1, 64980, Note_on_c, 0, 61, 107
1, 65094, Note_off_c, 0, 61, 107
1, 65195, Note_on_c, 0, 65, 120
1, 65251, Note_off_c, 0, 65, 120
1, 65261, Note_on_c, 0, 66, 120
1, 65381, Note_off_c, 0, 66, 120
1, 65388, Note_on_c, 0, 61, 112
1, 65537, Note_off_c, 0, 61, 112
1, 65540, Note_on_c, 0, 58, 111
1, 65740, Note_off_c, 0, 58, 111
1, 65760, Note_on_c, 0, 59, 116
1, 66056, Note_off_c, 0, 59, 116
1, 66384, Note_on_c, 0, 64, 112
1, 66503, Note_off_c, 0, 64, 112
1, 66509, Note_on_c, 0, 65, 113
1, 66851, Note_off_c, 0, 65, 113
1, 66879, Note_on_c, 0, 57, 102
1, 66973, Note_off_c, 0, 57, 102
1, 66991, Note_on_c, 0, 58, 112
1, 67056, Note_off_c, 0, 58, 112
1, 67097, Note_on_c, 0, 62, 101
1, 67155, Note_off_c, 0, 62, 101
1, 67163, Note_on_c, 0, 65, 108
1, 67231, Note_off_c, 0, 65, 108
1, 67242, Note_on_c, 0, 69, 119
1, 67352, Note_off_c, 0, 69, 119
1, 67359, Note_on_c, 0, 70, 115
1, 67447, Note_off_c, 0, 70, 115
1, 67663, Note_on_c, 0, 64, 117
1, 67761, Note_off_c, 0, 64, 117
1, 67767, Note_on_c, 0, 65, 112
1, 67840, Note_off_c, 0, 65, 112
1, 68034, Note_on_c, 0, 61, 114
1, 68118, Note_off_c, 0, 61, 114
1, 68126, Note_on_c, 0, 62, 116
1, 68214, Note_off_c, 0, 62, 116
1, 68725, Note_on_c, 0, 57, 116
1, 68791, Note_off_c, 0, 57, 116
1, 68796, Note_on_c, 0, 58, 106
1, 68871, Note_off_c, 0, 58, 106
1, 68887, Note_on_c, 0, 60, 108
1, 68966, Note_off_c, 0, 60, 108
1, 68970, Note_on_c, 0, 61, 96
1, 69062, Note_off_c, 0, 61, 96
1, 69081, Note_on_c, 0, 63, 109
1, 69142, Note_off_c, 0, 63, 109
1, 69143, Note_on_c, 0, 65, 114
1, 69232, Note_off_c, 0, 65, 114
1, 69240, Note_on_c, 0, 68, 116
1, 69335, Note_off_c, 0, 68, 116
1, 69336, Note_on_c, 0, 67, 111
1, 69425, Note_off_c, 0, 67, 111
1, 69445, Note_on_c, 0, 65, 111
1, 69507, Note_off_c, 0, 65, 111
1, 69513, Note_on_c, 0, 63, 118
1, 69602, Note_off_c, 0, 63, 118
1, 69609, Note_on_c, 0, 62, 112
1, 69687, Note_off_c, 0, 62, 112
1, 69687, Note_on_c, 0, 61, 111
1, 69770, Note_off_c, 0, 61, 111
1, 69811, Note_on_c, 0, 58, 101
1, 69876, Note_off_c, 0, 58, 101
1, 69880, Note_on_c, 0, 60, 109
1, 69963, Note_off_c, 0, 60, 109
1, 69999, Note_on_c, 0, 63, 119
1, 70066, Note_off_c, 0, 63, 119
1, 70078, Note_on_c, 0, 58, 111
1, 70171, Note_off_c, 0, 58, 111
1, 70212, Note_on_c, 0, 55, 96
1, 70259, Note_off_c, 0, 55, 96
1, 70269, Note_on_c, 0, 56, 118
1, 70356, Note_off_c, 0, 56, 118
1, 70454, Note_on_c, 0, 67, 119
1, 70517, Note_off_c, 0, 67, 119
1, 70520, Note_on_c, 0, 68, 123
1, 70649, Note_off_c, 0, 68, 123
1, 70657, Note_on_c, 0, 67, 120
1, 70832, Note_off_c, 0, 67, 120
1, 70843, Note_on_c, 0, 65, 113
1, 70998, Note_off_c, 0, 65, 113
1, 71017, Note_on_c, 0, 64, 116
1, 71210, Note_off_c, 0, 64, 116
1, 71210, Note_on_c, 0, 60, 104
1, 71304, Note_off_c, 0, 60, 104
1, 71443, Note_on_c, 0, 72, 126
1, 71581, Note_off_c, 0, 72, 126
1, 72204, Note_on_c, 0, 59, 102
1, 72277, Note_off_c, 0, 59, 102
1, 72306, Note_on_c, 0, 65, 99
1, 72362, Note_off_c, 0, 65, 99
1, 72387, Note_on_c, 0, 68, 121
1, 72492, Note_off_c, 0, 68, 121
1, 72499, Note_on_c, 0, 72, 124
1, 72587, Note_off_c, 0, 72, 124
1, 72596, Note_on_c, 0, 70, 122
1, 72670, Note_off_c, 0, 70, 122
1, 72681, Note_on_c, 0, 68, 123
1, 72774, Note_off_c, 0, 68, 123
1, 72780, Note_on_c, 0, 67, 119
1, 72858, Note_off_c, 0, 67, 119
1, 72864, Note_on_c, 0, 65, 119
1, 72951, Note_off_c, 0, 65, 119
1, 72958, Note_on_c, 0, 64, 118
1, 73044, Note_off_c, 0, 64, 118
1, 73057, Note_on_c, 0, 61, 117
1, 73150, Note_off_c, 0, 61, 117
1, 73154, Note_on_c, 0, 60, 104
1, 73219, Note_off_c, 0, 60, 104
1, 73231, Note_on_c, 0, 58, 119
1, 73309, Note_off_c, 0, 58, 119
1, 73329, Note_on_c, 0, 56, 115
1, 73442, Note_off_c, 0, 56, 115
1, 73448, Note_on_c, 0, 53, 107
1, 73517, Note_off_c, 0, 53, 107
1, 74650, Note_on_c, 0, 53, 103
1, 74729, Note_off_c, 0, 53, 103
1, 74733, Note_on_c, 0, 58, 111
1, 74813, Note_off_c, 0, 58, 111
1, 74826, Note_on_c, 0, 61, 119
1, 74912, Note_off_c, 0, 61, 119
1, 74925, Note_on_c, 0, 65, 116
1, 75020, Note_off_c, 0, 65, 116
1, 75023, Note_on_c, 0, 63, 118
1, 75121, Note_off_c, 0, 63, 118
1, 75155, Note_on_c, 0, 60, 104
1, 75203, Note_off_c, 0, 60, 104
1, 75207, Note_on_c, 0, 61, 104
1, 75304, Note_off_c, 0, 61, 104
1, 75306, Note_on_c, 0, 60, 110
1, 75371, Note_off_c, 0, 60, 110
1, 75383, Note_on_c, 0, 58, 114
1, 75477, Note_off_c, 0, 58, 114
1, 75500, Note_on_c, 0, 56, 106
1, 75589, Note_off_c, 0, 56, 106
1, 75597, Note_on_c, 0, 57, 114
1, 75676, Note_off_c, 0, 57, 114
1, 75683, Note_on_c, 0, 60, 106
1, 75775, Note_off_c, 0, 60, 106
1, 75779, Note_on_c, 0, 63, 104
1, 75879, Note_off_c, 0, 63, 104
1, 75895, Note_on_c, 0, 65, 99
1, 75934, Note_off_c, 0, 65, 99
1, 75941, Note_on_c, 0, 66, 118
1, 76067, Note_off_c, 0, 66, 118
1, 76077, Note_on_c, 0, 67, 114
1, 76114, Note_off_c, 0, 67, 114
1, 76124, Note_on_c, 0, 66, 117
1, 76183, Note_off_c, 0, 66, 117
1, 76183, Note_on_c, 0, 65, 112
1, 76265, Note_off_c, 0, 65, 112
1, 76266, Note_on_c, 0, 63, 122
1, 76343, Note_off_c, 0, 63, 122
1, 76347, Note_on_c, 0, 61, 108
1, 76458, Note_off_c, 0, 61, 108
1, 76458, Note_on_c, 0, 58, 101
1, 76725, Note_off_c, 0, 58, 101
1, 77262, Note_on_c, 0, 57, 117
1, 77315, Note_off_c, 0, 57, 117
1, 77325, Note_on_c, 0, 58, 115
1, 77384, Note_off_c, 0, 58, 115
1, 77419, Note_on_c, 0, 65, 112
1, 77483, Note_off_c, 0, 65, 112
1, 77486, Note_on_c, 0, 68, 121
1, 77598, Note_off_c, 0, 68, 121
1, 77672, Note_on_c, 0, 65, 107
1, 77793, Note_off_c, 0, 65, 107
1, 77797, Note_on_c, 0, 61, 103
1, 77874, Note_off_c, 0, 61, 103
1, 77881, Note_on_c, 0, 58, 98
1, 77960, Note_off_c, 0, 58, 98
1, 78038, Note_on_c, 0, 65, 105
1, 78142, Note_off_c, 0, 65, 105
1, 78245, Note_on_c, 0, 68, 120
1, 78359, Note_off_c, 0, 68, 120
1, 78433, Note_on_c, 0, 65, 108
1, 78566, Note_off_c, 0, 65, 108
1, 78576, Note_on_c, 0, 59, 109
1, 78661, Note_off_c, 0, 59, 109
1, 79159, Note_on_c, 0, 59, 117
1, 79210, Note_off_c, 0, 59, 117
1, 79215, Note_on_c, 0, 60, 102
1, 79281, Note_off_c, 0, 60, 102
1, 79289, Note_on_c, 0, 63, 110
1, 79345, Note_off_c, 0, 63, 110
1, 79347, Note_on_c, 0, 67, 108
1, 79385, Note_off_c, 0, 67, 108
1, 79401, Note_on_c, 0, 70, 120
1, 79511, Note_off_c, 0, 70, 120
1, 79519, Note_on_c, 0, 67, 107
1, 79565, Note_off_c, 0, 67, 107
1, 79576, Note_on_c, 0, 70, 121
1, 79676, Note_off_c, 0, 70, 121
1, 79781, Note_on_c, 0, 69, 119
1, 79878, Note_off_c, 0, 69, 119
1, 79879, Note_on_c, 0, 68, 116
1, 79971, Note_off_c, 0, 68, 116
1, 79974, Note_on_c, 0, 66, 111
1, 80083, Note_off_c, 0, 66, 111
1, 80091, Note_on_c, 0, 61, 104
1, 80177, Note_off_c, 0, 61, 104
1, 80177, Note_on_c, 0, 59, 105
1, 80261, Note_off_c, 0, 59, 105
1, 80269, Note_on_c, 0, 57, 94
1, 80349, Note_off_c, 0, 57, 94
1, 80384, Note_on_c, 0, 66, 117
1, 80449, Note_off_c, 0, 66, 117
1, 80462, Note_on_c, 0, 68, 118
1, 80555, Note_off_c, 0, 68, 118
1, 80555, Note_on_c, 0, 67, 106
1, 80593, Note_off_c, 0, 67, 106
1, 80597, Note_on_c, 0, 65, 108
1, 80675, Note_off_c, 0, 65, 108
1, 80681, Note_on_c, 0, 61, 104
1, 80716, Note_off_c, 0, 61, 104
1, 81349, Note_on_c, 0, 67, 114
1, 81409, Note_off_c, 0, 67, 114
1, 81421, Note_on_c, 0, 69, 110
1, 81449, Note_off_c, 0, 69, 110
1, 81455, Note_on_c, 0, 68, 118
1, 81502, Note_off_c, 0, 68, 118
1, 81508, Note_on_c, 0, 67, 109
1, 81577, Note_off_c, 0, 67, 109
1, 81589, Note_on_c, 0, 65, 111
1, 81693, Note_off_c, 0, 65, 111
1, 81696, Note_on_c, 0, 63, 119
1, 81780, Note_off_c, 0, 63, 119
1, 81796, Note_on_c, 0, 60, 102
1, 81870, Note_off_c, 0, 60, 102
1, 81870, Note_on_c, 0, 61, 106
1, 81965, Note_off_c, 0, 61, 106
1, 81972, Note_on_c, 0, 61, 115
1, 82057, Note_off_c, 0, 61, 115
1, 82057, Note_on_c, 0, 60, 106
1, 82175, Note_off_c, 0, 60, 106
1, 82192, Note_on_c, 0, 56, 106
1, 82325, Note_off_c, 0, 56, 106
1, 82457, Note_on_c, 0, 58, 116
1, 82548, Note_off_c, 0, 58, 116
1, 82550, Note_on_c, 0, 56, 117
1, 82643, Note_off_c, 0, 56, 117
1, 82655, Note_on_c, 0, 55, 103
1, 82735, Note_off_c, 0, 55, 103
1, 82742, Note_on_c, 0, 53, 111
1, 82840, Note_off_c, 0, 53, 111
1, 82844, Note_on_c, 0, 52, 105
1, 82912, Note_off_c, 0, 52, 105
1, 83021, Note_on_c, 0, 60, 110
1, 83069, Note_off_c, 0, 60, 110
1, 83076, Note_on_c, 0, 61, 107
1, 83168, Note_off_c, 0, 61, 107
1, 83174, Note_on_c, 0, 60, 111
1, 83467, Note_off_c, 0, 60, 111
1, 83467, End_track
0, 0, End_of_file
