0, 0, Header, 1, 1, 192
1, 0, Start_track
1, 0, Title_t, "Melody"
1, 0, Tempo, 340909
1, 0, Key_signature, -2, "major"
1, 0, Time_signature, 4, 2, 24, 8
1, 1945, Note_on_c, 0, 62, 91
1, 2033, Note_off_c, 0, 62, 91
1, 2033, Note_on_c, 0, 62, 105
1, 2173, Note_off_c, 0, 62, 105
1, 2173, Note_on_c, 0, 58, 91
1, 2346, Note_off_c, 0, 58, 91
1, 2352, Note_on_c, 0, 62, 104
1, 2535, Note_on_c, 0, 58, 101
1, 2535, Note_off_c, 0, 62, 104
1, 2982, Note_off_c, 0, 58, 101
1, 3106, Note_on_c, 0, 62, 113
1, 3236, Note_off_c, 0, 62, 113
1, 3239, Note_on_c, 0, 58, 103
1, 3373, Note_off_c, 0, 58, 103
1, 3373, Note_on_c, 0, 58, 98
1, 3490, Note_off_c, 0, 58, 98
1, 3490, Note_on_c, 0, 62, 109
1, 3633, Note_on_c, 0, 58, 106
1, 3633, Note_off_c, 0, 62, 109
1, 3685, Note_off_c, 0, 58, 106
1, 3685, Note_on_c, 0, 58, 100
1, 3760, Note_off_c, 0, 58, 100
1, 3760, Note_on_c, 0, 58, 92
1, 3838, Note_off_c, 0, 58, 92
1, 4383, Note_on_c, 0, 53, 88
1, 4429, Note_off_c, 0, 53, 88
1, 4464, Note_on_c, 0, 58, 94
1, 4565, Note_off_c, 0, 58, 94
1, 4584, Note_on_c, 0, 61, 115
1, 4727, Note_off_c, 0, 61, 115
1, 4727, Note_on_c, 0, 61, 114
1, 4841, Note_off_c, 0, 61, 114
1, 4876, Note_on_c, 0, 58, 102
1, 4980, Note_off_c, 0, 58, 102
1, 5437, Note_on_c, 0, 65, 105
1, 5806, Note_off_c, 0, 65, 105
1, 5839, Note_on_c, 0, 64, 94
1, 5906, Note_off_c, 0, 64, 94
1, 5906, Note_on_c, 0, 63, 96
1, 5965, Note_on_c, 0, 61, 99
1, 5965, Note_off_c, 0, 63, 96
1, 6014, Note_off_c, 0, 61, 99
1, 6014, Note_on_c, 0, 58, 100
1, 6193, Note_off_c, 0, 58, 100
1, 6215, Note_on_c, 0, 62, 90
1, 6330, Note_off_c, 0, 62, 90
1, 6379, Note_on_c, 0, 58, 100
1, 6549, Note_off_c, 0, 58, 100
1, 7275, Note_on_c, 0, 57, 92
1, 7317, Note_off_c, 0, 57, 92
1, 7349, Note_on_c, 0, 58, 91
1, 7450, Note_off_c, 0, 58, 91
1, 7450, Note_on_c, 0, 62, 106
1, 7541, Note_off_c, 0, 62, 106
1, 7550, Note_on_c, 0, 65, 105
1, 7631, Note_off_c, 0, 65, 105
1, 7653, Note_on_c, 0, 67, 106
1, 7747, Note_off_c, 0, 67, 106
1, 7747, Note_on_c, 0, 69, 105
1, 7841, Note_off_c, 0, 69, 105
1, 7841, Note_on_c, 0, 70, 100
1, 7945, Note_off_c, 0, 70, 100
1, 7945, Note_on_c, 0, 67, 101
1, 8030, Note_off_c, 0, 67, 101
1, 8049, Note_on_c, 0, 63, 104
1, 8130, Note_off_c, 0, 63, 104
1, 8130, Note_on_c, 0, 62, 102
1, 8221, Note_off_c, 0, 62, 102
1, 8230, Note_on_c, 0, 60, 108
1, 8298, Note_off_c, 0, 60, 108
1, 8320, Note_on_c, 0, 65, 102
1, 8411, Note_off_c, 0, 65, 102
1, 8411, Note_on_c, 0, 62, 105
1, 8496, Note_off_c, 0, 62, 105
1, 8512, Note_on_c, 0, 63, 106
1, 8580, Note_off_c, 0, 63, 106
1, 8607, Note_on_c, 0, 58, 99
1, 8688, Note_off_c, 0, 58, 99
1, 8688, Note_on_c, 0, 55, 103
1, 8807, Note_off_c, 0, 55, 103
1, 8807, Note_on_c, 0, 53, 96
1, 8861, Note_off_c, 0, 53, 96
1, 8872, Note_on_c, 0, 61, 109
1, 9061, Note_off_c, 0, 61, 109
1, 9069, Note_on_c, 0, 57, 103
1, 9167, Note_off_c, 0, 57, 103
1, 9179, Note_on_c, 0, 53, 105
1, 9236, Note_off_c, 0, 53, 105
1, 9252, Note_on_c, 0, 60, 101
1, 9353, Note_off_c, 0, 60, 101
1, 9372, Note_on_c, 0, 57, 101
1, 9456, Note_off_c, 0, 57, 101
1, 9456, Note_on_c, 0, 53, 104
1, 9555, Note_off_c, 0, 53, 104
1, 9555, Note_on_c, 0, 50, 88
1, 9631, Note_off_c, 0, 50, 88
1, 9635, Note_on_c, 0, 55, 107
1, 9736, Note_on_c, 0, 55, 98
1, 9736, Note_off_c, 0, 55, 107
1, 9778, Note_off_c, 0, 55, 98
1, 10340, Note_on_c, 0, 53, 107
1, 10398, Note_off_c, 0, 53, 107
1, 10407, Note_on_c, 0, 46, 84
1, 10463, Note_off_c, 0, 46, 84
1, 10599, Note_on_c, 0, 58, 100
1, 10680, Note_off_c, 0, 58, 100
1, 10735, Note_on_c, 0, 62, 101
1, 10770, Note_off_c, 0, 62, 101
1, 10770, Note_on_c, 0, 65, 110
1, 10917, Note_off_c, 0, 65, 110
1, 10917, Note_on_c, 0, 65, 115
1, 10960, Note_off_c, 0, 65, 115
1, 10960, Note_on_c, 0, 65, 97
1, 11029, Note_off_c, 0, 65, 97
1, 11080, Note_on_c, 0, 62, 115
1, 11181, Note_off_c, 0, 62, 115
1, 11220, Note_on_c, 0, 58, 108
1, 11331, Note_off_c, 0, 58, 108
1, 11448, Note_on_c, 0, 67, 109
1, 11565, Note_off_c, 0, 67, 109
1, 11581, Note_on_c, 0, 63, 114
1, 11708, Note_off_c, 0, 63, 114
1, 11708, Note_on_c, 0, 63, 104
1, 11822, Note_off_c, 0, 63, 104
1, 11835, Note_on_c, 0, 60, 113
1, 11959, Note_off_c, 0, 60, 113
1, 11959, Note_on_c, 0, 57, 102
1, 12070, Note_off_c, 0, 57, 102
1, 12109, Note_on_c, 0, 53, 103
1, 12210, Note_off_c, 0, 53, 103
1, 12844, Note_on_c, 0, 56, 101
1, 12884, Note_off_c, 0, 56, 101
1, 12921, Note_on_c, 0, 59, 97
1, 13002, Note_off_c, 0, 59, 97
1, 13008, Note_on_c, 0, 62, 109
1, 13109, Note_off_c, 0, 62, 109
1, 13109, Note_on_c, 0, 67, 110
1, 13197, Note_off_c, 0, 67, 110
1, 13216, Note_on_c, 0, 62, 108
1, 13271, Note_off_c, 0, 62, 108
1, 13293, Note_on_c, 0, 65, 103
1, 13381, Note_on_c, 0, 66, 107
1, 13381, Note_off_c, 0, 65, 103
1, 13472, Note_off_c, 0, 66, 107
1, 13472, Note_on_c, 0, 62, 108
1, 13570, Note_off_c, 0, 62, 108
1, 13570, Note_on_c, 0, 62, 94
1, 13583, Note_off_c, 0, 62, 94
1, 13600, Note_on_c, 0, 59, 92
1, 13668, Note_off_c, 0, 59, 92
1, 13673, Note_on_c, 0, 58, 101
1, 13760, Note_off_c, 0, 58, 101
1, 13772, Note_on_c, 0, 56, 104
1, 13841, Note_off_c, 0, 56, 104
1, 13842, Note_on_c, 0, 55, 104
1, 13943, Note_off_c, 0, 55, 104
1, 14044, Note_on_c, 0, 58, 102
1, 14138, Note_off_c, 0, 58, 102
1, 14151, Note_on_c, 0, 61, 115
1, 14219, Note_off_c, 0, 61, 115
1, 14241, Note_on_c, 0, 65, 110
1, 14332, Note_off_c, 0, 65, 110
1, 14341, Note_on_c, 0, 61, 115
1, 14403, Note_off_c, 0, 61, 115
1, 14435, Note_on_c, 0, 63, 110
1, 14523, Note_off_c, 0, 63, 110
1, 14627, Note_on_c, 0, 61, 110
1, 14708, Note_off_c, 0, 61, 110
1, 14734, Note_on_c, 0, 58, 99
1, 14805, Note_off_c, 0, 58, 99
1, 14839, Note_on_c, 0, 53, 100
1, 14928, Note_off_c, 0, 53, 100
1, 14941, Note_on_c, 0, 52, 96
1, 14996, Note_off_c, 0, 52, 96
1, 15048, Note_on_c, 0, 52, 94
1, 15120, Note_off_c, 0, 52, 94
1, 15120, Note_on_c, 0, 53, 104
1, 15202, Note_off_c, 0, 53, 104
1, 15232, Note_on_c, 0, 55, 104
1, 15292, Note_off_c, 0, 55, 104
1, 15292, Note_on_c, 0, 52, 99
1, 15353, Note_off_c, 0, 52, 99
1, 15436, Note_on_c, 0, 53, 104
1, 15550, Note_off_c, 0, 53, 104
1, 15550, Note_on_c, 0, 50, 94
1, 15658, Note_off_c, 0, 50, 94
1, 16265, Note_on_c, 0, 56, 104
1, 16346, Note_off_c, 0, 56, 104
1, 16463, Note_on_c, 0, 70, 94
1, 16557, Note_off_c, 0, 70, 94
1, 16622, Note_on_c, 0, 68, 111
1, 16700, Note_off_c, 0, 68, 111
1, 16788, Note_on_c, 0, 70, 102
1, 16915, Note_off_c, 0, 70, 102
1, 16931, Note_on_c, 0, 67, 107
1, 17012, Note_off_c, 0, 67, 107
1, 17100, Note_on_c, 0, 65, 108
1, 17273, Note_off_c, 0, 65, 108
1, 17276, Note_on_c, 0, 67, 102
1, 17566, Note_off_c, 0, 67, 102
1, 17827, Note_on_c, 0, 54, 104
1, 17912, Note_off_c, 0, 54, 104
1, 18035, Note_on_c, 0, 68, 109
1, 18142, Note_off_c, 0, 68, 109
1, 18204, Note_on_c, 0, 66, 108
1, 18285, Note_off_c, 0, 66, 108
1, 18396, Note_on_c, 0, 68, 113
1, 18523, Note_off_c, 0, 68, 113
1, 18523, Note_on_c, 0, 65, 101
1, 18621, Note_off_c, 0, 65, 101
1, 18709, Note_on_c, 0, 63, 95
1, 18836, Note_off_c, 0, 63, 95
1, 18845, Note_on_c, 0, 65, 103
1, 18995, Note_off_c, 0, 65, 103
1, 19969, Note_on_c, 0, 60, 111
1, 20014, Note_off_c, 0, 60, 111
1, 20053, Note_on_c, 0, 65, 108
1, 20141, Note_off_c, 0, 65, 108
1, 20141, Note_on_c, 0, 65, 105
1, 20154, Note_off_c, 0, 65, 105
1, 20154, Note_on_c, 0, 70, 102
1, 20242, Note_off_c, 0, 70, 102
1, 20242, Note_on_c, 0, 72, 104
1, 20336, Note_off_c, 0, 72, 104
1, 20336, Note_on_c, 0, 70, 104
1, 20414, Note_off_c, 0, 70, 104
1, 20427, Note_on_c, 0, 67, 106
1, 20512, Note_off_c, 0, 67, 106
1, 20534, Note_on_c, 0, 65, 107
1, 20596, Note_off_c, 0, 65, 107
1, 20633, Note_on_c, 0, 60, 92
1, 20738, Note_off_c, 0, 60, 92
1, 21121, Note_on_c, 0, 58, 105
1, 21232, Note_off_c, 0, 58, 105
1, 21235, Note_on_c, 0, 55, 105
1, 21496, Note_off_c, 0, 55, 105
1, 21499, Note_on_c, 0, 53, 106
1, 21619, Note_off_c, 0, 53, 106
1, 21648, Note_on_c, 0, 48, 102
1, 21795, Note_off_c, 0, 48, 102
1, 21795, Note_on_c, 0, 48, 95
1, 21817, Note_off_c, 0, 48, 95
1, 22304, Note_on_c, 0, 44, 111
1, 22372, Note_off_c, 0, 44, 111
1, 22385, Note_on_c, 0, 55, 106
1, 22479, Note_off_c, 0, 55, 106
1, 22495, Note_on_c, 0, 53, 107
1, 22563, Note_off_c, 0, 53, 107
1, 22563, Note_on_c, 0, 48, 87
1, 22650, Note_off_c, 0, 48, 87
1, 22703, Note_on_c, 0, 51, 101
1, 22766, Note_off_c, 0, 51, 101
1, 22784, Note_on_c, 0, 50, 97
1, 22866, Note_off_c, 0, 50, 97
1, 22887, Note_on_c, 0, 61, 112
1, 22958, Note_off_c, 0, 61, 112
1, 22961, Note_on_c, 0, 59, 93
1, 23039, Note_off_c, 0, 59, 93
1, 23064, Note_on_c, 0, 54, 101
1, 23132, Note_off_c, 0, 54, 101
1, 23165, Note_on_c, 0, 58, 101
1, 23292, Note_off_c, 0, 58, 101
1, 23295, Note_on_c, 0, 55, 97
1, 23406, Note_off_c, 0, 55, 97
1, 24632, Note_on_c, 0, 70, 84
1, 24739, Note_off_c, 0, 70, 84
1, 24847, Note_on_c, 0, 70, 85
1, 24902, Note_off_c, 0, 70, 85
1, 25007, Note_on_c, 0, 70, 103
1, 25043, Note_off_c, 0, 70, 103
1, 25118, Note_on_c, 0, 70, 100
1, 25162, Note_off_c, 0, 70, 100
1, 25234, Note_on_c, 0, 70, 99
1, 25284, Note_off_c, 0, 70, 99
1, 25393, Note_on_c, 0, 70, 98
1, 25423, Note_off_c, 0, 70, 98
1, 25491, Note_on_c, 0, 69, 103
1, 25592, Note_off_c, 0, 69, 103
1, 25592, Note_on_c, 0, 72, 104
1, 25693, Note_off_c, 0, 72, 104
1, 25693, Note_on_c, 0, 69, 103
1, 25791, Note_off_c, 0, 69, 103
1, 25823, Note_on_c, 0, 67, 102
1, 25917, Note_off_c, 0, 67, 102
1, 25972, Note_on_c, 0, 67, 107
1, 26073, Note_off_c, 0, 67, 107
1, 26086, Note_on_c, 0, 65, 103
1, 26157, Note_off_c, 0, 65, 103
1, 26277, Note_on_c, 0, 70, 96
1, 26796, Note_off_c, 0, 70, 96
1, 26796, Note_on_c, 0, 70, 96
1, 26988, Note_off_c, 0, 70, 96
1, 26988, Note_on_c, 0, 69, 103
1, 27171, Note_off_c, 0, 69, 103
1, 27171, Note_on_c, 0, 69, 103
1, 27370, Note_off_c, 0, 69, 103
1, 27370, Note_on_c, 0, 63, 109
1, 27546, Note_off_c, 0, 63, 109
1, 27572, Note_on_c, 0, 67, 102
1, 27764, Note_off_c, 0, 67, 102
1, 27767, Note_on_c, 0, 65, 106
1, 27907, Note_off_c, 0, 65, 106
1, 27907, Note_on_c, 0, 65, 97
1, 27975, Note_off_c, 0, 65, 97
1, 28442, Note_on_c, 0, 62, 114
1, 28530, Note_off_c, 0, 62, 114
1, 28543, Note_on_c, 0, 65, 112
1, 28631, Note_off_c, 0, 65, 112
1, 28640, Note_on_c, 0, 62, 112
1, 28731, Note_off_c, 0, 62, 112
1, 28734, Note_on_c, 0, 63, 109
1, 28819, Note_off_c, 0, 63, 109
1, 28838, Note_on_c, 0, 65, 112
1, 28896, Note_off_c, 0, 65, 112
1, 28912, Note_on_c, 0, 62, 108
1, 29032, Note_off_c, 0, 62, 108
1, 29084, Note_on_c, 0, 55, 100
1, 29179, Note_on_c, 0, 53, 97
1, 29179, Note_off_c, 0, 55, 100
1, 29290, Note_off_c, 0, 53, 97
1, 29290, Note_on_c, 0, 60, 111
1, 29410, Note_off_c, 0, 60, 111
1, 29410, Note_on_c, 0, 56, 99
1, 29491, Note_off_c, 0, 56, 99
1, 29835, Note_on_c, 0, 54, 98
1, 29907, Note_off_c, 0, 54, 98
1, 29927, Note_on_c, 0, 55, 94
1, 29961, Note_on_c, 0, 62, 104
1, 29961, Note_off_c, 0, 55, 94
1, 30010, Note_off_c, 0, 62, 104
1, 30013, Note_on_c, 0, 65, 107
1, 30026, Note_off_c, 0, 65, 107
1, 30029, Note_on_c, 0, 65, 107
1, 30081, Note_off_c, 0, 65, 107
1, 30100, Note_on_c, 0, 63, 110
1, 30214, Note_off_c, 0, 63, 110
1, 30217, Note_on_c, 0, 58, 99
1, 30272, Note_off_c, 0, 58, 99
1, 30396, Note_on_c, 0, 58, 100
1, 30487, Note_off_c, 0, 58, 100
1, 30490, Note_on_c, 0, 64, 91
1, 30581, Note_off_c, 0, 64, 91
1, 30590, Note_on_c, 0, 65, 106
1, 30655, Note_off_c, 0, 65, 106
1, 30668, Note_on_c, 0, 67, 109
1, 30762, Note_off_c, 0, 67, 109
1, 30768, Note_on_c, 0, 64, 112
1, 30843, Note_off_c, 0, 64, 112
1, 30852, Note_on_c, 0, 65, 106
1, 30937, Note_off_c, 0, 65, 106
1, 30953, Note_on_c, 0, 62, 105
1, 31031, Note_off_c, 0, 62, 105
1, 31050, Note_on_c, 0, 63, 111
1, 31135, Note_off_c, 0, 63, 111
1, 31135, Note_on_c, 0, 63, 110
1, 31226, Note_off_c, 0, 63, 110
1, 31239, Note_on_c, 0, 62, 104
1, 31379, Note_off_c, 0, 62, 104
1, 32284, Note_on_c, 0, 67, 95
1, 32418, Note_off_c, 0, 67, 95
1, 32473, Note_on_c, 0, 70, 105
1, 32548, Note_off_c, 0, 70, 105
1, 32636, Note_on_c, 0, 67, 106
1, 32734, Note_off_c, 0, 67, 106
1, 32779, Note_on_c, 0, 72, 111
1, 32854, Note_off_c, 0, 72, 111
1, 32952, Note_on_c, 0, 70, 105
1, 33053, Note_off_c, 0, 70, 105
1, 33157, Note_on_c, 0, 66, 107
1, 33232, Note_off_c, 0, 66, 107
1, 33339, Note_on_c, 0, 74, 103
1, 33420, Note_off_c, 0, 74, 103
1, 33436, Note_on_c, 0, 72, 109
1, 33517, Note_off_c, 0, 72, 109
1, 33533, Note_on_c, 0, 70, 103
1, 33624, Note_off_c, 0, 70, 103
1, 33624, Note_on_c, 0, 66, 69
1, 33699, Note_off_c, 0, 66, 69
1, 33699, Note_on_c, 0, 65, 104
1, 33797, Note_off_c, 0, 65, 104
1, 33810, Note_on_c, 0, 63, 108
1, 33891, Note_off_c, 0, 63, 108
1, 33900, Note_on_c, 0, 62, 110
1, 33968, Note_off_c, 0, 62, 110
1, 34003, Note_on_c, 0, 67, 106
1, 34081, Note_off_c, 0, 67, 106
1, 34081, Note_on_c, 0, 70, 101
1, 34162, Note_off_c, 0, 70, 101
1, 34171, Note_on_c, 0, 67, 109
1, 34223, Note_off_c, 0, 67, 109
1, 34223, Note_on_c, 0, 72, 93
1, 34324, Note_off_c, 0, 72, 93
1, 34409, Note_on_c, 0, 70, 97
1, 34516, Note_off_c, 0, 70, 97
1, 34542, Note_on_c, 0, 65, 108
1, 34676, Note_off_c, 0, 65, 108
1, 34679, Note_on_c, 0, 64, 114
1, 34832, Note_off_c, 0, 64, 114
1, 34907, Note_on_c, 0, 70, 101
1, 35008, Note_off_c, 0, 70, 101
1, 35030, Note_on_c, 0, 72, 107
1, 35134, Note_off_c, 0, 72, 107
1, 35163, Note_on_c, 0, 70, 99
1, 35248, Note_off_c, 0, 70, 99
1, 35306, Note_on_c, 0, 64, 106
1, 35433, Note_off_c, 0, 64, 106
1, 35444, Note_on_c, 0, 63, 108
1, 35672, Note_off_c, 0, 63, 108
1, 36193, Note_on_c, 0, 74, 110
1, 36294, Note_off_c, 0, 74, 110
1, 36294, Note_on_c, 0, 72, 112
1, 36385, Note_off_c, 0, 72, 112
1, 36385, Note_on_c, 0, 70, 98
1, 36489, Note_off_c, 0, 70, 98
1, 36495, Note_on_c, 0, 67, 99
1, 36570, Note_off_c, 0, 67, 99
1, 36579, Note_on_c, 0, 69, 108
1, 36664, Note_off_c, 0, 69, 108
1, 36673, Note_on_c, 0, 67, 110
1, 36764, Note_off_c, 0, 67, 110
1, 36767, Note_on_c, 0, 65, 107
1, 36868, Note_off_c, 0, 65, 107
1, 36874, Note_on_c, 0, 63, 112
1, 36949, Note_off_c, 0, 63, 112
1, 36965, Note_on_c, 0, 62, 109
1, 37050, Note_off_c, 0, 62, 109
1, 37079, Note_on_c, 0, 60, 110
1, 37164, Note_off_c, 0, 60, 110
1, 37173, Note_on_c, 0, 58, 100
1, 37251, Note_off_c, 0, 58, 100
1, 37260, Note_on_c, 0, 53, 96
1, 37326, Note_off_c, 0, 53, 96
1, 37351, Note_on_c, 0, 57, 98
1, 37485, Note_off_c, 0, 57, 98
1, 37492, Note_on_c, 0, 58, 86
1, 37554, Note_off_c, 0, 58, 86
1, 38203, Note_on_c, 0, 58, 109
1, 38271, Note_off_c, 0, 58, 109
1, 38277, Note_on_c, 0, 63, 109
1, 38361, Note_off_c, 0, 63, 109
1, 38361, Note_on_c, 0, 67, 109
1, 38588, Note_off_c, 0, 67, 109
1, 38590, Note_on_c, 0, 68, 110
1, 38776, Note_off_c, 0, 68, 110
1, 39174, Note_on_c, 0, 67, 97
1, 39285, Note_off_c, 0, 67, 97
1, 39533, Note_on_c, 0, 64, 120
1, 39627, Note_off_c, 0, 64, 120
1, 39627, Note_on_c, 0, 65, 108
1, 39721, Note_off_c, 0, 65, 108
1, 39747, Note_on_c, 0, 62, 107
1, 39818, Note_off_c, 0, 62, 107
1, 39827, Note_on_c, 0, 63, 106
1, 39918, Note_off_c, 0, 63, 106
1, 39937, Note_on_c, 0, 61, 113
1, 40002, Note_off_c, 0, 61, 113
1, 40018, Note_on_c, 0, 62, 105
1, 40102, Note_off_c, 0, 62, 105
1, 40102, Note_on_c, 0, 62, 98
1, 40118, Note_off_c, 0, 62, 98
1, 40130, Note_on_c, 0, 58, 101
1, 40174, Note_off_c, 0, 58, 101
1, 40205, Note_on_c, 0, 60, 112
1, 40293, Note_off_c, 0, 60, 112
1, 40327, Note_on_c, 0, 57, 104
1, 40360, Note_off_c, 0, 57, 104
1, 40393, Note_on_c, 0, 58, 101
1, 40491, Note_off_c, 0, 58, 101
1, 40497, Note_on_c, 0, 55, 106
1, 40568, Note_off_c, 0, 55, 106
1, 40587, Note_on_c, 0, 56, 106
1, 40658, Note_off_c, 0, 56, 106
1, 40680, Note_on_c, 0, 52, 102
1, 40758, Note_off_c, 0, 52, 102
1, 40767, Note_on_c, 0, 55, 109
1, 40852, Note_off_c, 0, 55, 109
1, 40872, Note_on_c, 0, 51, 110
1, 40914, Note_off_c, 0, 51, 110
1, 40965, Note_on_c, 0, 53, 109
1, 41059, Note_off_c, 0, 53, 109
1, 41080, Note_on_c, 0, 50, 102
1, 41124, Note_off_c, 0, 50, 102
1, 41179, Note_on_c, 0, 51, 106
1, 41257, Note_off_c, 0, 51, 106
1, 41273, Note_on_c, 0, 49, 102
1, 41350, Note_off_c, 0, 49, 102
1, 41350, Note_on_c, 0, 50, 80
1, 41351, Note_off_c, 0, 50, 80
1, 41351, Note_on_c, 0, 50, 107
1, 41452, Note_off_c, 0, 50, 107
1, 41470, Note_on_c, 0, 50, 108
1, 41513, Note_off_c, 0, 50, 108
1, 41570, Note_on_c, 0, 49, 102
1, 41628, Note_off_c, 0, 49, 102
1, 42391, Note_on_c, 0, 61, 121
1, 42456, Note_off_c, 0, 61, 121
1, 42469, Note_on_c, 0, 66, 96
1, 42502, Note_off_c, 0, 66, 96
1, 42505, Note_on_c, 0, 67, 107
1, 42546, Note_off_c, 0, 67, 107
1, 42555, Note_on_c, 0, 70, 105
1, 42610, Note_off_c, 0, 70, 105
1, 42618, Note_on_c, 0, 72, 102
1, 42678, Note_off_c, 0, 72, 102
1, 42733, Note_on_c, 0, 73, 96
1, 43092, Note_off_c, 0, 73, 96
1, 43092, Note_on_c, 0, 73, 82
1, 43196, Note_off_c, 0, 73, 82
1, 43714, Note_on_c, 0, 69, 111
1, 43802, Note_off_c, 0, 69, 111
1, 43814, Note_on_c, 0, 70, 100
1, 43875, Note_off_c, 0, 70, 100
1, 43951, Note_on_c, 0, 67, 104
1, 43993, Note_off_c, 0, 67, 104
1, 44009, Note_on_c, 0, 68, 96
1, 44069, Note_off_c, 0, 68, 96
1, 44123, Note_on_c, 0, 65, 105
1, 44175, Note_off_c, 0, 65, 105
1, 44189, Note_on_c, 0, 67, 102
1, 44247, Note_off_c, 0, 67, 102
1, 44320, Note_on_c, 0, 64, 106
1, 44382, Note_off_c, 0, 64, 106
1, 44382, Note_on_c, 0, 65, 102
1, 44434, Note_off_c, 0, 65, 102
1, 44437, Note_on_c, 0, 67, 98
1, 44482, Note_off_c, 0, 67, 98
1, 44504, Note_on_c, 0, 64, 102
1, 44644, Note_off_c, 0, 64, 102
1, 44679, Note_on_c, 0, 64, 103
1, 44721, Note_off_c, 0, 64, 103
1, 44721, Note_on_c, 0, 62, 105
1, 44773, Note_off_c, 0, 62, 105
1, 44773, Note_on_c, 0, 63, 112
1, 44844, Note_off_c, 0, 63, 112
1, 44902, Note_on_c, 0, 60, 106
1, 44967, Note_off_c, 0, 60, 106
1, 44973, Note_on_c, 0, 62, 110
1, 45067, Note_off_c, 0, 62, 110
1, 45094, Note_on_c, 0, 59, 103
1, 45139, Note_off_c, 0, 59, 103
1, 45170, Note_on_c, 0, 60, 111
1, 45258, Note_off_c, 0, 60, 111
1, 45300, Note_on_c, 0, 55, 97
1, 45340, Note_off_c, 0, 55, 97
1, 45350, Note_on_c, 0, 58, 86
1, 45412, Note_off_c, 0, 58, 86
1, 45451, Note_on_c, 0, 55, 110
1, 45480, Note_off_c, 0, 55, 110
1, 45552, Note_on_c, 0, 57, 103
1, 45637, Note_off_c, 0, 57, 103
1, 45658, Note_on_c, 0, 53, 103
1, 45713, Note_off_c, 0, 53, 103
1, 45734, Note_on_c, 0, 55, 105
1, 45838, Note_off_c, 0, 55, 105
1, 45851, Note_on_c, 0, 51, 102
1, 45918, Note_off_c, 0, 51, 102
1, 46601, Note_on_c, 0, 58, 104
1, 46656, Note_off_c, 0, 58, 104
1, 46676, Note_on_c, 0, 61, 111
1, 46718, Note_off_c, 0, 61, 111
1, 46718, Note_on_c, 0, 62, 104
1, 46755, Note_off_c, 0, 62, 104
1, 46755, Note_on_c, 0, 67, 107
1, 46918, Note_off_c, 0, 67, 107
1, 46918, Note_on_c, 0, 68, 109
1, 47163, Note_off_c, 0, 68, 109
1, 47241, Note_on_c, 0, 64, 116
1, 47345, Note_off_c, 0, 64, 116
1, 47345, Note_on_c, 0, 67, 108
1, 47446, Note_off_c, 0, 67, 108
1, 47446, Note_on_c, 0, 65, 102
1, 47534, Note_off_c, 0, 65, 102
1, 47543, Note_on_c, 0, 63, 109
1, 47631, Note_off_c, 0, 63, 109
1, 47644, Note_on_c, 0, 61, 110
1, 47715, Note_off_c, 0, 61, 110
1, 47734, Note_on_c, 0, 62, 105
1, 47835, Note_off_c, 0, 62, 105
1, 47836, Note_on_c, 0, 58, 99
1, 47900, Note_off_c, 0, 58, 99
1, 47900, Note_on_c, 0, 57, 102
1, 47975, Note_off_c, 0, 57, 102
1, 47976, Note_on_c, 0, 56, 96
1, 48038, Note_off_c, 0, 56, 96
1, 48112, Note_on_c, 0, 58, 100
1, 48183, Note_off_c, 0, 58, 100
1, 48205, Note_on_c, 0, 67, 109
1, 48296, Note_off_c, 0, 67, 109
1, 48302, Note_on_c, 0, 65, 106
1, 48373, Note_off_c, 0, 65, 106
1, 48405, Note_on_c, 0, 63, 108
1, 48476, Note_off_c, 0, 63, 108
1, 48486, Note_on_c, 0, 57, 90
1, 48539, Note_off_c, 0, 57, 90
1, 48569, Note_on_c, 0, 58, 95
1, 48628, Note_off_c, 0, 58, 95
1, 48702, Note_on_c, 0, 60, 110
1, 48780, Note_off_c, 0, 60, 110
1, 48780, Note_on_c, 0, 61, 106
1, 48880, Note_off_c, 0, 61, 106
1, 48880, Note_on_c, 0, 58, 100
1, 48942, Note_off_c, 0, 58, 100
1, 48978, Note_on_c, 0, 60, 107
1, 49066, Note_off_c, 0, 60, 107
1, 49066, Note_on_c, 0, 57, 94
1, 49131, Note_off_c, 0, 57, 94
1, 49163, Note_on_c, 0, 58, 96
1, 49261, Note_off_c, 0, 58, 96
1, 49262, Note_on_c, 0, 53, 106
1, 49326, Note_off_c, 0, 53, 106
1, 49330, Note_on_c, 0, 50, 85
1, 49431, Note_off_c, 0, 50, 85
1, 49433, Note_on_c, 0, 51, 87
1, 49497, Note_off_c, 0, 51, 87
1, 49532, Note_on_c, 0, 53, 97
1, 49659, Note_off_c, 0, 53, 97
1, 50237, Note_on_c, 0, 58, 103
1, 50295, Note_off_c, 0, 58, 103
1, 50322, Note_on_c, 0, 55, 91
1, 50411, Note_off_c, 0, 55, 91
1, 50480, Note_on_c, 0, 58, 107
1, 50659, Note_off_c, 0, 58, 107
1, 50688, Note_on_c, 0, 61, 101
1, 50867, Note_off_c, 0, 61, 101
1, 50884, Note_on_c, 0, 55, 104
1, 50973, Note_off_c, 0, 55, 104
1, 51065, Note_on_c, 0, 58, 100
1, 51172, Note_off_c, 0, 58, 100
1, 52129, Note_on_c, 0, 58, 108
1, 52200, Note_off_c, 0, 58, 108
1, 52330, Note_on_c, 0, 65, 114
1, 52401, Note_off_c, 0, 65, 114
1, 52581, Note_on_c, 0, 58, 91
1, 52656, Note_off_c, 0, 58, 91
1, 52791, Note_on_c, 0, 65, 105
1, 52879, Note_off_c, 0, 65, 105
1, 52996, Note_on_c, 0, 63, 98
1, 53094, Note_off_c, 0, 63, 98
1, 53113, Note_on_c, 0, 63, 100
1, 53165, Note_off_c, 0, 63, 100
1, 53178, Note_on_c, 0, 62, 103
1, 53266, Note_off_c, 0, 62, 103
1, 53279, Note_on_c, 0, 60, 106
1, 53360, Note_off_c, 0, 60, 106
1, 53379, Note_on_c, 0, 59, 89
1, 53444, Note_off_c, 0, 59, 89
1, 53499, Note_on_c, 0, 56, 96
1, 53568, Note_off_c, 0, 56, 96
1, 53597, Note_on_c, 0, 55, 103
1, 53650, Note_off_c, 0, 55, 103
1, 53670, Note_on_c, 0, 53, 101
1, 53752, Note_off_c, 0, 53, 101
1, 53754, Note_on_c, 0, 51, 84
1, 53867, Note_off_c, 0, 51, 84
1, 53880, Note_on_c, 0, 53, 88
1, 53935, Note_off_c, 0, 53, 88
1, 53935, Note_on_c, 0, 55, 97
1, 53999, Note_off_c, 0, 55, 97
1, 54040, Note_on_c, 0, 58, 98
1, 54118, Note_off_c, 0, 58, 98
1, 54118, Note_on_c, 0, 62, 105
1, 54203, Note_off_c, 0, 62, 105
1, 54206, Note_on_c, 0, 65, 106
1, 54287, Note_off_c, 0, 65, 106
1, 54306, Note_on_c, 0, 63, 114
1, 54407, Note_off_c, 0, 63, 114
1, 54418, Note_on_c, 0, 58, 98
1, 54468, Note_off_c, 0, 58, 98
1, 54487, Note_on_c, 0, 62, 112
1, 54568, Note_off_c, 0, 62, 112
1, 54685, Note_on_c, 0, 62, 111
1, 54763, Note_off_c, 0, 62, 111
1, 54782, Note_on_c, 0, 63, 118
1, 54863, Note_off_c, 0, 63, 118
1, 54872, Note_on_c, 0, 62, 113
1, 54953, Note_off_c, 0, 62, 113
1, 54972, Note_on_c, 0, 58, 103
1, 55073, Note_off_c, 0, 58, 103
1, 55084, Note_on_c, 0, 53, 102
1, 55169, Note_off_c, 0, 53, 102
1, 55198, Note_on_c, 0, 51, 94
1, 55247, Note_off_c, 0, 51, 94
1, 55262, Note_on_c, 0, 50, 86
1, 55338, Note_off_c, 0, 50, 86
1, 55954, Note_on_c, 0, 57, 100
1, 55970, Note_off_c, 0, 57, 100
1, 55989, Note_on_c, 0, 58, 106
1, 56041, Note_off_c, 0, 58, 106
1, 56044, Note_on_c, 0, 62, 110
1, 56063, Note_off_c, 0, 62, 110
1, 56066, Note_on_c, 0, 65, 105
1, 56118, Note_off_c, 0, 65, 105
1, 56150, Note_on_c, 0, 67, 113
1, 56361, Note_off_c, 0, 67, 113
1, 56361, Note_on_c, 0, 68, 111
1, 56526, Note_off_c, 0, 68, 111
1, 56572, Note_on_c, 0, 67, 96
1, 56635, Note_off_c, 0, 67, 96
1, 56650, Note_on_c, 0, 66, 101
1, 56698, Note_off_c, 0, 66, 101
1, 56714, Note_on_c, 0, 64, 107
1, 56783, Note_on_c, 0, 67, 105
1, 56783, Note_off_c, 0, 64, 107
1, 56888, Note_off_c, 0, 67, 105
1, 56896, Note_on_c, 0, 65, 79
1, 56918, Note_off_c, 0, 65, 79
1, 57529, Note_on_c, 0, 67, 112
1, 57656, Note_off_c, 0, 67, 112
1, 57671, Note_on_c, 0, 70, 88
1, 57710, Note_off_c, 0, 70, 88
1, 57713, Note_on_c, 0, 72, 108
1, 57814, Note_off_c, 0, 72, 108
1, 57839, Note_on_c, 0, 70, 106
1, 57914, Note_off_c, 0, 70, 106
1, 57917, Note_on_c, 0, 66, 106
1, 57998, Note_off_c, 0, 66, 106
1, 58027, Note_on_c, 0, 66, 106
1, 58082, Note_off_c, 0, 66, 106
1, 58082, Note_on_c, 0, 65, 104
1, 58196, Note_off_c, 0, 65, 104
1, 58202, Note_on_c, 0, 63, 112
1, 58273, Note_off_c, 0, 63, 112
1, 58273, Note_on_c, 0, 62, 106
1, 58377, Note_off_c, 0, 62, 106
1, 58406, Note_on_c, 0, 58, 92
1, 58438, Note_off_c, 0, 58, 92
1, 58781, Note_on_c, 0, 65, 117
1, 58816, Note_off_c, 0, 65, 117
1, 58816, Note_on_c, 0, 67, 114
1, 58884, Note_off_c, 0, 67, 114
1, 58887, Note_on_c, 0, 70, 101
1, 58922, Note_off_c, 0, 70, 101
1, 58922, Note_on_c, 0, 72, 111
1, 59036, Note_off_c, 0, 72, 111
1, 59036, Note_on_c, 0, 74, 108
1, 59234, Note_off_c, 0, 74, 108
1, 59234, Note_on_c, 0, 74, 107
1, 59310, Note_off_c, 0, 74, 107
1, 59329, Note_on_c, 0, 72, 106
1, 59426, Note_off_c, 0, 72, 106
1, 59426, Note_on_c, 0, 70, 104
1, 59516, Note_off_c, 0, 70, 104
1, 59518, Note_on_c, 0, 69, 110
1, 59605, Note_off_c, 0, 69, 110
1, 59613, Note_on_c, 0, 68, 106
1, 59680, Note_off_c, 0, 68, 106
1, 59680, Note_on_c, 0, 70, 103
1, 59768, Note_off_c, 0, 70, 103
1, 59777, Note_on_c, 0, 67, 101
1, 59933, Note_off_c, 0, 67, 101
1, 59956, Note_on_c, 0, 61, 110
1, 60029, Note_off_c, 0, 61, 110
1, 60579, Note_on_c, 0, 72, 94
1, 60739, Note_off_c, 0, 72, 94
1, 60739, Note_on_c, 0, 70, 102
1, 60843, Note_off_c, 0, 70, 102
1, 60869, Note_on_c, 0, 66, 109
1, 60963, Note_off_c, 0, 66, 109
1, 60963, Note_on_c, 0, 65, 105
1, 61061, Note_off_c, 0, 65, 105
1, 61089, Note_on_c, 0, 63, 100
1, 61155, Note_off_c, 0, 63, 100
1, 61508, Note_on_c, 0, 72, 103
1, 61671, Note_off_c, 0, 72, 103
1, 61671, Note_on_c, 0, 69, 109
1, 61785, Note_off_c, 0, 69, 109
1, 61785, Note_on_c, 0, 65, 107
1, 61847, Note_off_c, 0, 65, 107
1, 61893, Note_on_c, 0, 62, 97
1, 61956, Note_off_c, 0, 62, 97
1, 62090, Note_on_c, 0, 70, 105
1, 62161, Note_off_c, 0, 70, 105
1, 62177, Note_on_c, 0, 71, 109
1, 62262, Note_off_c, 0, 71, 109
1, 62274, Note_on_c, 0, 68, 112
1, 62362, Note_off_c, 0, 68, 112
1, 62384, Note_on_c, 0, 64, 113
1, 62455, Note_off_c, 0, 64, 113
1, 62455, Note_on_c, 0, 64, 108
1, 62487, Note_off_c, 0, 64, 108
1, 62487, Note_on_c, 0, 62, 110
1, 62552, Note_off_c, 0, 62, 110
1, 62852, Note_on_c, 0, 70, 93
1, 62937, Note_off_c, 0, 70, 93
1, 62937, Note_on_c, 0, 70, 102
1, 63015, Note_on_c, 0, 67, 106
1, 63015, Note_off_c, 0, 70, 102
1, 63129, Note_off_c, 0, 67, 106
1, 63129, Note_on_c, 0, 63, 110
1, 63220, Note_off_c, 0, 63, 110
1, 63220, Note_on_c, 0, 60, 107
1, 63295, Note_off_c, 0, 60, 107
1, 63314, Note_on_c, 0, 63, 111
1, 63385, Note_off_c, 0, 63, 111
1, 63404, Note_on_c, 0, 67, 108
1, 63498, Note_off_c, 0, 67, 108
1, 63507, Note_on_c, 0, 70, 102
1, 63582, Note_off_c, 0, 70, 102
1, 63598, Note_on_c, 0, 67, 105
1, 63686, Note_off_c, 0, 67, 105
1, 63686, Note_on_c, 0, 68, 106
1, 63780, Note_off_c, 0, 68, 106
1, 63786, Note_on_c, 0, 66, 105
1, 63871, Note_off_c, 0, 66, 105
1, 63906, Note_on_c, 0, 61, 101
1, 63974, Note_off_c, 0, 61, 101
1, 63985, Note_on_c, 0, 57, 101
1, 64077, Note_off_c, 0, 57, 101
1, 64094, Note_on_c, 0, 54, 99
1, 64169, Note_off_c, 0, 54, 99
1, 64803, Note_on_c, 0, 58, 99
1, 64884, Note_off_c, 0, 58, 99
1, 64900, Note_on_c, 0, 62, 109
1, 64975, Note_off_c, 0, 62, 109
1, 64994, Note_on_c, 0, 65, 106
1, 65098, Note_on_c, 0, 69, 104
1, 65098, Note_off_c, 0, 65, 106
1, 65186, Note_off_c, 0, 69, 104
1, 65192, Note_on_c, 0, 67, 109
1, 65280, Note_off_c, 0, 67, 109
1, 65282, Note_on_c, 0, 69, 105
1, 65380, Note_off_c, 0, 69, 105
1, 65380, Note_on_c, 0, 67, 106
1, 65474, Note_off_c, 0, 67, 106
1, 65474, Note_on_c, 0, 68, 108
1, 65568, Note_off_c, 0, 68, 108
1, 65587, Note_on_c, 0, 66, 104
1, 65649, Note_off_c, 0, 66, 104
1, 65671, Note_on_c, 0, 61, 106
1, 65745, Note_on_c, 0, 61, 102
1, 65745, Note_off_c, 0, 61, 106
1, 65758, Note_off_c, 0, 61, 102
1, 65764, Note_on_c, 0, 63, 111
1, 65842, Note_off_c, 0, 63, 111
1, 65858, Note_on_c, 0, 65, 102
1, 65948, Note_off_c, 0, 65, 102
1, 65948, Note_on_c, 0, 57, 94
1, 66033, Note_off_c, 0, 57, 94
1, 66035, Note_on_c, 0, 58, 99
1, 66157, Note_on_c, 0, 62, 107
1, 66157, Note_off_c, 0, 58, 99
1, 66241, Note_off_c, 0, 62, 107
1, 66241, Note_on_c, 0, 63, 114
1, 66348, Note_off_c, 0, 63, 114
1, 66348, Note_on_c, 0, 62, 109
1, 66410, Note_off_c, 0, 62, 109
1, 66485, Note_on_c, 0, 58, 101
1, 66545, Note_off_c, 0, 58, 101
1, 66551, Note_on_c, 0, 55, 102
1, 66620, Note_off_c, 0, 55, 102
1, 66620, Note_on_c, 0, 58, 101
1, 66740, Note_off_c, 0, 58, 101
1, 66808, Note_on_c, 0, 63, 109
1, 67072, Note_off_c, 0, 63, 109
1, 67072, Note_on_c, 0, 63, 104
1, 67176, Note_off_c, 0, 63, 104
1, 67185, Note_on_c, 0, 62, 9
1, 67296, Note_off_c, 0, 62, 9
1, 67306, Note_on_c, 0, 58, 100
1, 67372, Note_off_c, 0, 58, 100
1, 67379, Note_on_c, 0, 63, 116
1, 67496, Note_off_c, 0, 63, 116
1, 67506, Note_on_c, 0, 62, 110
1, 67564, Note_off_c, 0, 62, 110
1, 67590, Note_on_c, 0, 58, 104
1, 67697, Note_off_c, 0, 58, 104
1, 67702, Note_on_c, 0, 56, 98
1, 67764, Note_off_c, 0, 56, 98
1, 67772, Note_on_c, 0, 58, 103
1, 67909, Note_off_c, 0, 58, 103
1, 67918, Note_on_c, 0, 58, 102
1, 67976, Note_off_c, 0, 58, 102
1, 69339, Note_on_c, 0, 58, 105
1, 69404, Note_off_c, 0, 58, 105
1, 69410, Note_on_c, 0, 61, 115
1, 69475, Note_off_c, 0, 61, 115
1, 69475, Note_on_c, 0, 63, 110
1, 69520, Note_off_c, 0, 63, 110
1, 69520, Note_on_c, 0, 65, 107
1, 69683, Note_off_c, 0, 65, 107
1, 69683, Note_on_c, 0, 64, 105
1, 69790, Note_off_c, 0, 64, 105
1, 69793, Note_on_c, 0, 61, 105
1, 69871, Note_off_c, 0, 61, 105
1, 69871, Note_on_c, 0, 58, 98
1, 69949, Note_off_c, 0, 58, 98
1, 69949, Note_on_c, 0, 58, 112
1, 69962, Note_off_c, 0, 58, 112
1, 69962, Note_on_c, 0, 64, 114
1, 70056, Note_off_c, 0, 64, 114
1, 70087, Note_on_c, 0, 65, 110
1, 70142, Note_off_c, 0, 65, 110
1, 70154, Note_on_c, 0, 64, 107
1, 70199, Note_off_c, 0, 64, 107
1, 70199, Note_on_c, 0, 61, 109
1, 70276, Note_off_c, 0, 61, 109
1, 70276, Note_on_c, 0, 58, 100
1, 70334, Note_off_c, 0, 58, 100
1, 70743, Note_on_c, 0, 53, 112
1, 70824, Note_off_c, 0, 53, 112
1, 70847, Note_on_c, 0, 56, 109
1, 70945, Note_off_c, 0, 56, 109
1, 70961, Note_on_c, 0, 59, 101
1, 71072, Note_off_c, 0, 59, 101
1, 71127, Note_on_c, 0, 60, 102
1, 71355, Note_off_c, 0, 60, 102
1, 71374, Note_on_c, 0, 60, 104
1, 71521, Note_off_c, 0, 60, 104
1, 71539, Note_on_c, 0, 60, 102
1, 71569, Note_off_c, 0, 60, 102
1, 71594, Note_on_c, 0, 58, 102
1, 71632, Note_off_c, 0, 58, 102
1, 71635, Note_on_c, 0, 57, 106
1, 71674, Note_off_c, 0, 57, 106
1, 71674, Note_on_c, 0, 55, 110
1, 71742, Note_off_c, 0, 55, 110
1, 71742, Note_on_c, 0, 53, 105
1, 71885, Note_off_c, 0, 53, 105
1, 72486, Note_on_c, 0, 55, 114
1, 72535, Note_off_c, 0, 55, 114
1, 72545, Note_on_c, 0, 59, 102
1, 72584, Note_off_c, 0, 59, 102
1, 72587, Note_on_c, 0, 63, 98
1, 72701, Note_off_c, 0, 63, 98
1, 72707, Note_on_c, 0, 65, 107
1, 72720, Note_off_c, 0, 65, 107
1, 72726, Note_on_c, 0, 67, 104
1, 72751, Note_on_c, 0, 70, 102
1, 72751, Note_off_c, 0, 67, 104
1, 72829, Note_off_c, 0, 70, 102
1, 72829, Note_on_c, 0, 69, 101
1, 72890, Note_off_c, 0, 69, 101
1, 72890, Note_on_c, 0, 67, 107
1, 72971, Note_off_c, 0, 67, 107
1, 72971, Note_on_c, 0, 69, 106
1, 73029, Note_off_c, 0, 69, 106
1, 73035, Note_on_c, 0, 66, 101
1, 73103, Note_off_c, 0, 66, 101
1, 73103, Note_on_c, 0, 67, 109
1, 73148, Note_off_c, 0, 67, 109
1, 73164, Note_on_c, 0, 63, 104
1, 73206, Note_off_c, 0, 63, 104
1, 73218, Note_on_c, 0, 61, 109
1, 73244, Note_off_c, 0, 61, 109
1, 73257, Note_on_c, 0, 62, 102
1, 73302, Note_off_c, 0, 62, 102
1, 73314, Note_on_c, 0, 65, 104
1, 73346, Note_off_c, 0, 65, 104
1, 73353, Note_on_c, 0, 64, 111
1, 73405, Note_off_c, 0, 64, 111
1, 73411, Note_on_c, 0, 63, 108
1, 73469, Note_off_c, 0, 63, 108
1, 73469, Note_on_c, 0, 62, 100
1, 73550, Note_off_c, 0, 62, 100
1, 73553, Note_on_c, 0, 65, 104
1, 73598, Note_off_c, 0, 65, 104
1, 73617, Note_on_c, 0, 60, 103
1, 73662, Note_off_c, 0, 60, 103
1, 73667, Note_on_c, 0, 57, 105
1, 73701, Note_off_c, 0, 57, 105
1, 73707, Note_on_c, 0, 58, 93
1, 73738, Note_off_c, 0, 58, 93
1, 73757, Note_on_c, 0, 61, 99
1, 73802, Note_off_c, 0, 61, 99
1, 73802, Note_on_c, 0, 62, 96
1, 73860, Note_off_c, 0, 62, 96
1, 73860, Note_on_c, 0, 67, 111
1, 73905, Note_off_c, 0, 67, 111
1, 73927, Note_on_c, 0, 66, 104
1, 73969, Note_off_c, 0, 66, 104
1, 73986, Note_on_c, 0, 65, 106
1, 74006, Note_off_c, 0, 65, 106
1, 74007, Note_on_c, 0, 63, 111
1, 74052, Note_off_c, 0, 63, 111
1, 74052, Note_on_c, 0, 62, 105
1, 74104, Note_off_c, 0, 62, 105
1, 74120, Note_on_c, 0, 59, 103
1, 74143, Note_off_c, 0, 59, 103
1, 74143, Note_on_c, 0, 55, 102
1, 74172, Note_off_c, 0, 55, 102
1, 74178, Note_on_c, 0, 52, 96
1, 74224, Note_off_c, 0, 52, 96
1, 74224, Note_on_c, 0, 60, 107
1, 74255, Note_off_c, 0, 60, 107
1, 74255, Note_on_c, 0, 59, 106
1, 74286, Note_off_c, 0, 59, 106
1, 74338, Note_on_c, 0, 60, 103
1, 74400, Note_off_c, 0, 60, 103
1, 74442, Note_on_c, 0, 63, 109
1, 74471, Note_off_c, 0, 63, 109
1, 74471, Note_on_c, 0, 62, 105
1, 74552, Note_off_c, 0, 62, 105
1, 74562, Note_on_c, 0, 60, 105
1, 74614, Note_off_c, 0, 60, 105
1, 74616, Note_on_c, 0, 59, 94
1, 74659, Note_off_c, 0, 59, 94
1, 74659, Note_on_c, 0, 58, 98
1, 74711, Note_off_c, 0, 58, 98
1, 74713, Note_on_c, 0, 57, 117
1, 74724, Note_off_c, 0, 57, 117
1, 74745, Note_on_c, 0, 55, 104
1, 74780, Note_off_c, 0, 55, 104
1, 74783, Note_on_c, 0, 56, 102
1, 74816, Note_off_c, 0, 56, 102
1, 74822, Note_on_c, 0, 57, 106
1, 74875, Note_off_c, 0, 57, 106
1, 74875, Note_on_c, 0, 54, 106
1, 74918, Note_off_c, 0, 54, 106
1, 74918, Note_on_c, 0, 55, 106
1, 74980, Note_off_c, 0, 55, 106
1, 74980, Note_on_c, 0, 51, 99
1, 75009, Note_off_c, 0, 51, 99
1, 75025, Note_on_c, 0, 50, 91
1, 75076, Note_off_c, 0, 50, 91
1, 75076, End_track
0, 0, End_of_file
