0, 0, Header, 1, 1, 192
1, 0, Start_track
1, 0, Title_t, "Melody"
1, 0, Tempo, 387096
1, 0, Key_signature, -1, "major"
1, 0, Time_signature, 4, 2, 24, 8
1, 4047, Note_on_c, 0, 72, 122
1, 4090, Note_off_c, 0, 72, 122
1, 4096, Note_on_c, 0, 73, 120
1, 4114, Note_off_c, 0, 73, 120
1, 4116, Note_on_c, 0, 74, 120
1, 4193, Note_off_c, 0, 74, 120
1, 4201, Note_on_c, 0, 73, 122
1, 4214, Note_off_c, 0, 73, 122
1, 4222, Note_on_c, 0, 72, 127
1, 4241, Note_off_c, 0, 72, 127
1, 4256, Note_on_c, 0, 74, 118
1, 4308, Note_off_c, 0, 74, 118
1, 4312, Note_on_c, 0, 73, 123
1, 4327, Note_off_c, 0, 73, 123
1, 4337, Note_on_c, 0, 72, 120
1, 4441, Note_off_c, 0, 72, 120
1, 4452, Note_on_c, 0, 69, 94
1, 4541, Note_off_c, 0, 69, 94
1, 4555, Note_on_c, 0, 72, 119
1, 4608, Note_off_c, 0, 72, 119
1, 4634, Note_on_c, 0, 67, 90
1, 4809, Note_off_c, 0, 67, 90
1, 4938, Note_on_c, 0, 60, 102
1, 4989, Note_off_c, 0, 60, 102
1, 4992, Note_on_c, 0, 62, 114
1, 5024, Note_off_c, 0, 62, 114
1, 5029, Note_on_c, 0, 63, 110
1, 5074, Note_off_c, 0, 63, 110
1, 5080, Note_on_c, 0, 65, 112
1, 5123, Note_off_c, 0, 65, 112
1, 5133, Note_on_c, 0, 62, 110
1, 5166, Note_off_c, 0, 62, 110
1, 5170, Note_on_c, 0, 63, 110
1, 5234, Note_off_c, 0, 63, 110
1, 5246, Note_on_c, 0, 60, 89
1, 5322, Note_off_c, 0, 60, 89
1, 5427, Note_on_c, 0, 56, 99
1, 5442, Note_off_c, 0, 56, 99
1, 5444, Note_on_c, 0, 57, 100
1, 5504, Note_off_c, 0, 57, 100
1, 5789, Note_on_c, 0, 53, 104
1, 5842, Note_off_c, 0, 53, 104
1, 5853, Note_on_c, 0, 55, 104
1, 5892, Note_off_c, 0, 55, 104
1, 5897, Note_on_c, 0, 60, 102
1, 5947, Note_off_c, 0, 60, 102
1, 5952, Note_on_c, 0, 63, 97
1, 5973, Note_off_c, 0, 63, 97
1, 5973, Note_on_c, 0, 67, 117
1, 6021, Note_off_c, 0, 67, 117
1, 6040, Note_on_c, 0, 64, 107
1, 6083, Note_off_c, 0, 64, 107
1, 6087, Note_on_c, 0, 65, 113
1, 6117, Note_off_c, 0, 65, 113
1, 6124, Note_on_c, 0, 67, 115
1, 6166, Note_off_c, 0, 67, 115
1, 6167, Note_on_c, 0, 68, 115
1, 6197, Note_off_c, 0, 68, 115
1, 6220, Note_on_c, 0, 60, 100
1, 6258, Note_off_c, 0, 60, 100
1, 6262, Note_on_c, 0, 61, 98
1, 6293, Note_off_c, 0, 61, 98
1, 6306, Note_on_c, 0, 62, 91
1, 6347, Note_off_c, 0, 62, 91
1, 6352, Note_on_c, 0, 67, 113
1, 6409, Note_off_c, 0, 67, 113
1, 6412, Note_on_c, 0, 66, 111
1, 6449, Note_off_c, 0, 66, 111
1, 6458, Note_on_c, 0, 65, 111
1, 6485, Note_off_c, 0, 65, 111
1, 6491, Note_on_c, 0, 64, 112
1, 6528, Note_off_c, 0, 64, 112
1, 6535, Note_on_c, 0, 63, 113
1, 6594, Note_off_c, 0, 63, 113
1, 6601, Note_on_c, 0, 60, 100
1, 6644, Note_off_c, 0, 60, 100
1, 6645, Note_on_c, 0, 56, 102
1, 6682, Note_off_c, 0, 56, 102
1, 6692, Note_on_c, 0, 53, 99
1, 6733, Note_off_c, 0, 53, 99
1, 6733, Note_on_c, 0, 62, 113
1, 6769, Note_off_c, 0, 62, 113
1, 6788, Note_on_c, 0, 60, 105
1, 6830, Note_off_c, 0, 60, 105
1, 6833, Note_on_c, 0, 58, 106
1, 6898, Note_off_c, 0, 58, 106
1, 6903, Note_on_c, 0, 55, 105
1, 6938, Note_off_c, 0, 55, 105
1, 6958, Note_on_c, 0, 65, 108
1, 6992, Note_off_c, 0, 65, 108
1, 7004, Note_on_c, 0, 67, 103
1, 7380, Note_off_c, 0, 67, 103
1, 7576, Note_on_c, 0, 58, 96
1, 7621, Note_off_c, 0, 58, 96
1, 7636, Note_on_c, 0, 61, 113
1, 7675, Note_off_c, 0, 61, 113
1, 7682, Note_on_c, 0, 65, 110
1, 7725, Note_off_c, 0, 65, 110
1, 7731, Note_on_c, 0, 68, 118
1, 7779, Note_off_c, 0, 68, 118
1, 7781, Note_on_c, 0, 67, 117
1, 7830, Note_off_c, 0, 67, 117
1, 7839, Note_on_c, 0, 65, 111
1, 7879, Note_off_c, 0, 65, 111
1, 7884, Note_on_c, 0, 64, 110
1, 7922, Note_off_c, 0, 64, 110
1, 7923, Note_on_c, 0, 65, 96
1, 7950, Note_off_c, 0, 65, 96
1, 7952, Note_on_c, 0, 68, 118
1, 7993, Note_off_c, 0, 68, 118
1, 7993, Note_on_c, 0, 67, 116
1, 8034, Note_off_c, 0, 67, 116
1, 8040, Note_on_c, 0, 66, 111
1, 8078, Note_off_c, 0, 66, 111
1, 8084, Note_on_c, 0, 65, 101
1, 8109, Note_off_c, 0, 65, 101
1, 8117, Note_on_c, 0, 61, 105
1, 8163, Note_off_c, 0, 61, 105
1, 8169, Note_on_c, 0, 58, 95
1, 8202, Note_off_c, 0, 58, 95
1, 8214, Note_on_c, 0, 53, 96
1, 8245, Note_off_c, 0, 53, 96
1, 8254, Note_on_c, 0, 56, 100
1, 8304, Note_off_c, 0, 56, 100
1, 8313, Note_on_c, 0, 53, 104
1, 8343, Note_off_c, 0, 53, 104
1, 8350, Note_on_c, 0, 55, 100
1, 8377, Note_off_c, 0, 55, 100
1, 8384, Note_on_c, 0, 59, 111
1, 8437, Note_off_c, 0, 59, 111
1, 8442, Note_on_c, 0, 60, 81
1, 8667, Note_off_c, 0, 60, 81
1, 8808, Note_on_c, 0, 63, 112
1, 8862, Note_off_c, 0, 63, 112
1, 8876, Note_on_c, 0, 65, 98
1, 8890, Note_off_c, 0, 65, 98
1, 8902, Note_on_c, 0, 68, 120
1, 8953, Note_off_c, 0, 68, 120
1, 8965, Note_on_c, 0, 70, 118
1, 9078, Note_off_c, 0, 70, 118
1, 9123, Note_on_c, 0, 69, 121
1, 9170, Note_off_c, 0, 69, 121
1, 9185, Note_on_c, 0, 70, 119
1, 9460, Note_off_c, 0, 70, 119
1, 9465, Note_on_c, 0, 69, 99
1, 9478, Note_off_c, 0, 69, 99
1, 9480, Note_on_c, 0, 68, 119
1, 9532, Note_off_c, 0, 68, 119
1, 9547, Note_on_c, 0, 63, 96
1, 9582, Note_off_c, 0, 63, 96
1, 9582, Note_on_c, 0, 67, 117
1, 9643, Note_off_c, 0, 67, 117
1, 9657, Note_on_c, 0, 65, 102
1, 9772, Note_off_c, 0, 65, 102
1, 9885, Note_on_c, 0, 67, 113
1, 9945, Note_off_c, 0, 67, 113
1, 9954, Note_on_c, 0, 65, 111
1, 9989, Note_off_c, 0, 65, 111
1, 9994, Note_on_c, 0, 64, 103
1, 10023, Note_off_c, 0, 64, 103
1, 10035, Note_on_c, 0, 61, 106
1, 10103, Note_off_c, 0, 61, 106
1, 10118, Note_on_c, 0, 58, 102
1, 10156, Note_off_c, 0, 58, 102
1, 10163, Note_on_c, 0, 57, 103
1, 10198, Note_off_c, 0, 57, 103
1, 10214, Note_on_c, 0, 60, 102
1, 10240, Note_off_c, 0, 60, 102
1, 10247, Note_on_c, 0, 63, 112
1, 10283, Note_off_c, 0, 63, 112
1, 10290, Note_on_c, 0, 67, 107
1, 10339, Note_off_c, 0, 67, 107
1, 10343, Note_on_c, 0, 57, 92
1, 10371, Note_off_c, 0, 57, 92
1, 10387, Note_on_c, 0, 61, 111
1, 10427, Note_off_c, 0, 61, 111
1, 10441, Note_on_c, 0, 65, 104
1, 10472, Note_off_c, 0, 65, 104
1, 10487, Note_on_c, 0, 68, 118
1, 10529, Note_off_c, 0, 68, 118
1, 10535, Note_on_c, 0, 67, 117
1, 10577, Note_off_c, 0, 67, 117
1, 10584, Note_on_c, 0, 66, 111
1, 10620, Note_off_c, 0, 66, 111
1, 10626, Note_on_c, 0, 65, 109
1, 10682, Note_off_c, 0, 65, 109
1, 10687, Note_on_c, 0, 64, 103
1, 10712, Note_off_c, 0, 64, 103
1, 10714, Note_on_c, 0, 63, 90
1, 10755, Note_off_c, 0, 63, 90
1, 10774, Note_on_c, 0, 55, 99
1, 10844, Note_off_c, 0, 55, 99
1, 10854, Note_on_c, 0, 57, 99
1, 10899, Note_off_c, 0, 57, 99
1, 10906, Note_on_c, 0, 62, 116
1, 10953, Note_off_c, 0, 62, 116
1, 10960, Note_on_c, 0, 60, 105
1, 11008, Note_off_c, 0, 60, 105
1, 11019, Note_on_c, 0, 58, 103
1, 11072, Note_off_c, 0, 58, 103
1, 11106, Note_on_c, 0, 57, 105
1, 11150, Note_off_c, 0, 57, 105
1, 11158, Note_on_c, 0, 58, 104
1, 11195, Note_off_c, 0, 58, 104
1, 11203, Note_on_c, 0, 60, 110
1, 11242, Note_off_c, 0, 60, 110
1, 11244, Note_on_c, 0, 62, 113
1, 11273, Note_off_c, 0, 62, 113
1, 11280, Note_on_c, 0, 63, 110
1, 11307, Note_off_c, 0, 63, 110
1, 11317, Note_on_c, 0, 65, 111
1, 11346, Note_off_c, 0, 65, 111
1, 11350, Note_on_c, 0, 67, 116
1, 11367, Note_off_c, 0, 67, 116
1, 11372, Note_on_c, 0, 68, 117
1, 11392, Note_off_c, 0, 68, 117
1, 11397, Note_on_c, 0, 71, 118
1, 11414, Note_off_c, 0, 71, 118
1, 11419, Note_on_c, 0, 72, 123
1, 11438, Note_off_c, 0, 72, 123
1, 11443, Note_on_c, 0, 73, 124
1, 11461, Note_off_c, 0, 73, 124
1, 11464, Note_on_c, 0, 74, 92
1, 11650, Note_off_c, 0, 74, 92
1, 11662, Note_on_c, 0, 71, 117
1, 11752, Note_off_c, 0, 71, 117
1, 11764, Note_on_c, 0, 68, 121
1, 11828, Note_off_c, 0, 68, 121
1, 11840, Note_on_c, 0, 65, 93
1, 12040, Note_off_c, 0, 65, 93
1, 12407, Note_on_c, 0, 63, 112
1, 12444, Note_off_c, 0, 63, 112
1, 12449, Note_on_c, 0, 65, 108
1, 12467, Note_off_c, 0, 65, 108
1, 12472, Note_on_c, 0, 63, 111
1, 12507, Note_off_c, 0, 63, 111
1, 12520, Note_on_c, 0, 60, 98
1, 12576, Note_off_c, 0, 60, 98
1, 12584, Note_on_c, 0, 62, 116
1, 12651, Note_off_c, 0, 62, 116
1, 12664, Note_on_c, 0, 63, 109
1, 12693, Note_off_c, 0, 63, 109
1, 12696, Note_on_c, 0, 65, 110
1, 12755, Note_off_c, 0, 65, 110
1, 12771, Note_on_c, 0, 58, 84
1, 12919, Note_off_c, 0, 58, 84
1, 13193, Note_on_c, 0, 53, 100
1, 13230, Note_off_c, 0, 53, 100
1, 13241, Note_on_c, 0, 56, 104
1, 13281, Note_off_c, 0, 56, 104
1, 13283, Note_on_c, 0, 60, 108
1, 13335, Note_off_c, 0, 60, 108
1, 13340, Note_on_c, 0, 56, 106
1, 13369, Note_off_c, 0, 56, 106
1, 13372, Note_on_c, 0, 53, 103
1, 13420, Note_off_c, 0, 53, 103
1, 13429, Note_on_c, 0, 58, 98
1, 13462, Note_off_c, 0, 58, 98
1, 13474, Note_on_c, 0, 61, 112
1, 13519, Note_off_c, 0, 61, 112
1, 13523, Note_on_c, 0, 58, 95
1, 13552, Note_off_c, 0, 58, 95
1, 13563, Note_on_c, 0, 56, 98
1, 13598, Note_off_c, 0, 56, 98
1, 13612, Note_on_c, 0, 60, 104
1, 13650, Note_off_c, 0, 60, 104
1, 13663, Note_on_c, 0, 65, 106
1, 13718, Note_off_c, 0, 65, 106
1, 13741, Note_on_c, 0, 64, 103
1, 13792, Note_off_c, 0, 64, 103
1, 13798, Note_on_c, 0, 65, 111
1, 13834, Note_off_c, 0, 65, 111
1, 13836, Note_on_c, 0, 67, 114
1, 13869, Note_off_c, 0, 67, 114
1, 13876, Note_on_c, 0, 68, 118
1, 13924, Note_off_c, 0, 68, 118
1, 13932, Note_on_c, 0, 65, 99
1, 14014, Note_off_c, 0, 65, 99
1, 14040, Note_on_c, 0, 60, 102
1, 14322, Note_off_c, 0, 60, 102
1, 14425, Note_on_c, 0, 61, 107
1, 14466, Note_off_c, 0, 61, 107
1, 14471, Note_on_c, 0, 60, 105
1, 14506, Note_off_c, 0, 60, 105
1, 14515, Note_on_c, 0, 58, 104
1, 14556, Note_off_c, 0, 58, 104
1, 14570, Note_on_c, 0, 55, 99
1, 14613, Note_off_c, 0, 55, 99
1, 14626, Note_on_c, 0, 51, 77
1, 14687, Note_off_c, 0, 51, 77
1, 14988, Note_on_c, 0, 70, 118
1, 15039, Note_off_c, 0, 70, 118
1, 15044, Note_on_c, 0, 68, 118
1, 15087, Note_off_c, 0, 68, 118
1, 15088, Note_on_c, 0, 67, 114
1, 15138, Note_off_c, 0, 67, 114
1, 15145, Note_on_c, 0, 63, 102
1, 15222, Note_off_c, 0, 63, 102
1, 15472, Note_on_c, 0, 62, 84
1, 15487, Note_off_c, 0, 62, 84
1, 15490, Note_on_c, 0, 63, 108
1, 15592, Note_off_c, 0, 63, 108
1, 15597, Note_on_c, 0, 65, 110
1, 15625, Note_off_c, 0, 65, 110
1, 15631, Note_on_c, 0, 67, 115
1, 15669, Note_off_c, 0, 67, 115
1, 15673, Note_on_c, 0, 68, 118
1, 15704, Note_off_c, 0, 68, 118
1, 15727, Note_on_c, 0, 63, 87
1, 15923, Note_off_c, 0, 63, 87
1, 16250, Note_on_c, 0, 55, 101
1, 16287, Note_off_c, 0, 55, 101
1, 16294, Note_on_c, 0, 57, 103
1, 16324, Note_off_c, 0, 57, 103
1, 16330, Note_on_c, 0, 59, 101
1, 16374, Note_off_c, 0, 59, 101
1, 16384, Note_on_c, 0, 55, 93
1, 16418, Note_off_c, 0, 55, 93
1, 16430, Note_on_c, 0, 60, 108
1, 16473, Note_off_c, 0, 60, 108
1, 16482, Note_on_c, 0, 63, 107
1, 16537, Note_off_c, 0, 63, 107
1, 16539, Note_on_c, 0, 62, 108
1, 16570, Note_off_c, 0, 62, 108
1, 16575, Note_on_c, 0, 60, 103
1, 16617, Note_off_c, 0, 60, 103
1, 16619, Note_on_c, 0, 58, 106
1, 16657, Note_off_c, 0, 58, 106
1, 16666, Note_on_c, 0, 55, 100
1, 16726, Note_off_c, 0, 55, 100
1, 16790, Note_on_c, 0, 58, 104
1, 16852, Note_off_c, 0, 58, 104
1, 16864, Note_on_c, 0, 56, 104
1, 16919, Note_off_c, 0, 56, 104
1, 16928, Note_on_c, 0, 60, 102
1, 16970, Note_off_c, 0, 60, 102
1, 16976, Note_on_c, 0, 65, 107
1, 16991, Note_off_c, 0, 65, 107
1, 16996, Note_on_c, 0, 67, 118
1, 17072, Note_off_c, 0, 67, 118
1, 17074, Note_on_c, 0, 68, 118
1, 17082, Note_off_c, 0, 68, 118
1, 17083, Note_on_c, 0, 69, 116
1, 17089, Note_off_c, 0, 69, 116
1, 17091, Note_on_c, 0, 70, 120
1, 17153, Note_off_c, 0, 70, 120
1, 17158, Note_on_c, 0, 68, 94
1, 17168, Note_off_c, 0, 68, 94
1, 17170, Note_on_c, 0, 67, 95
1, 17203, Note_off_c, 0, 67, 95
1, 17205, Note_on_c, 0, 68, 100
1, 17245, Note_off_c, 0, 68, 100
1, 17255, Note_on_c, 0, 65, 109
1, 17308, Note_off_c, 0, 65, 109
1, 17313, Note_on_c, 0, 66, 106
1, 17327, Note_off_c, 0, 66, 106
1, 17331, Note_on_c, 0, 67, 119
1, 17377, Note_off_c, 0, 67, 119
1, 17387, Note_on_c, 0, 63, 103
1, 17424, Note_off_c, 0, 63, 103
1, 17429, Note_on_c, 0, 60, 96
1, 17461, Note_off_c, 0, 60, 96
1, 17461, Note_on_c, 0, 65, 111
1, 17512, Note_off_c, 0, 65, 111
1, 17512, Note_on_c, 0, 64, 108
1, 17553, Note_off_c, 0, 64, 108
1, 17564, Note_on_c, 0, 63, 112
1, 17611, Note_off_c, 0, 63, 112
1, 17616, Note_on_c, 0, 62, 114
1, 17654, Note_off_c, 0, 62, 114
1, 17659, Note_on_c, 0, 60, 107
1, 17709, Note_off_c, 0, 60, 107
1, 17714, Note_on_c, 0, 59, 110
1, 17737, Note_off_c, 0, 59, 110
1, 17739, Note_on_c, 0, 58, 112
1, 17768, Note_off_c, 0, 58, 112
1, 17783, Note_on_c, 0, 57, 109
1, 17822, Note_off_c, 0, 57, 109
1, 17832, Note_on_c, 0, 55, 101
1, 17922, Note_off_c, 0, 55, 101
1, 17942, Note_on_c, 0, 51, 102
1, 17970, Note_off_c, 0, 51, 102
1, 17980, Note_on_c, 0, 55, 117
1, 18029, Note_off_c, 0, 55, 117
1, 18037, Note_on_c, 0, 53, 109
1, 18083, Note_off_c, 0, 53, 109
1, 18085, Note_on_c, 0, 51, 106
1, 18120, Note_off_c, 0, 51, 106
1, 18125, Note_on_c, 0, 50, 104
1, 18172, Note_off_c, 0, 50, 104
1, 18175, Note_on_c, 0, 53, 102
1, 18208, Note_off_c, 0, 53, 102
1, 18218, Note_on_c, 0, 56, 101
1, 18240, Note_off_c, 0, 56, 101
1, 18250, Note_on_c, 0, 60, 97
1, 18302, Note_off_c, 0, 60, 97
1, 18317, Note_on_c, 0, 55, 102
1, 18358, Note_off_c, 0, 55, 102
1, 18363, Note_on_c, 0, 56, 110
1, 18383, Note_off_c, 0, 56, 110
1, 18390, Note_on_c, 0, 57, 104
1, 18420, Note_off_c, 0, 57, 104
1, 18424, Note_on_c, 0, 58, 105
1, 18478, Note_off_c, 0, 58, 105
1, 18485, Note_on_c, 0, 55, 105
1, 18530, Note_off_c, 0, 55, 105
1, 18533, Note_on_c, 0, 56, 99
1, 18586, Note_off_c, 0, 56, 99
1, 18593, Note_on_c, 0, 60, 105
1, 18631, Note_off_c, 0, 60, 105
1, 18653, Note_on_c, 0, 63, 106
1, 18692, Note_off_c, 0, 63, 106
1, 18694, Note_on_c, 0, 67, 115
1, 18745, Note_off_c, 0, 67, 115
1, 18752, Note_on_c, 0, 64, 103
1, 18774, Note_off_c, 0, 64, 103
1, 18776, Note_on_c, 0, 65, 107
1, 18876, Note_off_c, 0, 65, 107
1, 18877, Note_on_c, 0, 70, 112
1, 18981, Note_off_c, 0, 70, 112
1, 19442, Note_on_c, 0, 75, 123
1, 19519, Note_off_c, 0, 75, 123
1, 19524, Note_on_c, 0, 73, 115
1, 19569, Note_off_c, 0, 73, 115
1, 19600, Note_on_c, 0, 65, 110
1, 19632, Note_off_c, 0, 65, 110
1, 19640, Note_on_c, 0, 68, 119
1, 19686, Note_off_c, 0, 68, 119
1, 19692, Note_on_c, 0, 72, 124
1, 19752, Note_off_c, 0, 72, 124
1, 19758, Note_on_c, 0, 70, 117
1, 19808, Note_off_c, 0, 70, 117
1, 19813, Note_on_c, 0, 68, 120
1, 19840, Note_off_c, 0, 68, 120
1, 19846, Note_on_c, 0, 67, 114
1, 19900, Note_off_c, 0, 67, 114
1, 19910, Note_on_c, 0, 64, 104
1, 19959, Note_off_c, 0, 64, 104
1, 19964, Note_on_c, 0, 65, 96
1, 19993, Note_off_c, 0, 65, 96
1, 20006, Note_on_c, 0, 68, 120
1, 20043, Note_off_c, 0, 68, 120
1, 20047, Note_on_c, 0, 67, 114
1, 20074, Note_off_c, 0, 67, 114
1, 20077, Note_on_c, 0, 66, 110
1, 20098, Note_off_c, 0, 66, 110
1, 20100, Note_on_c, 0, 65, 107
1, 20165, Note_off_c, 0, 65, 107
1, 20181, Note_on_c, 0, 61, 107
1, 20215, Note_off_c, 0, 61, 107
1, 20221, Note_on_c, 0, 58, 99
1, 20258, Note_off_c, 0, 58, 99
1, 20271, Note_on_c, 0, 53, 93
1, 20309, Note_off_c, 0, 53, 93
1, 20316, Note_on_c, 0, 56, 97
1, 20377, Note_off_c, 0, 56, 97
1, 20379, Note_on_c, 0, 53, 91
1, 20404, Note_off_c, 0, 53, 91
1, 20406, Note_on_c, 0, 55, 92
1, 20448, Note_off_c, 0, 55, 92
1, 20452, Note_on_c, 0, 59, 117
1, 20480, Note_off_c, 0, 59, 117
1, 20486, Note_on_c, 0, 60, 110
1, 20605, Note_off_c, 0, 60, 110
1, 21015, Note_on_c, 0, 60, 109
1, 21076, Note_off_c, 0, 60, 109
1, 21096, Note_on_c, 0, 63, 108
1, 21126, Note_off_c, 0, 63, 108
1, 21137, Note_on_c, 0, 67, 114
1, 21159, Note_off_c, 0, 67, 114
1, 21163, Note_on_c, 0, 70, 121
1, 21209, Note_off_c, 0, 70, 121
1, 21220, Note_on_c, 0, 67, 91
1, 21245, Note_off_c, 0, 67, 91
1, 21247, Note_on_c, 0, 68, 119
1, 21285, Note_off_c, 0, 68, 119
1, 21290, Note_on_c, 0, 67, 114
1, 21321, Note_off_c, 0, 67, 114
1, 21325, Note_on_c, 0, 66, 110
1, 21347, Note_off_c, 0, 66, 110
1, 21351, Note_on_c, 0, 65, 110
1, 21392, Note_off_c, 0, 65, 110
1, 21402, Note_on_c, 0, 61, 109
1, 21433, Note_off_c, 0, 61, 109
1, 21443, Note_on_c, 0, 58, 89
1, 21493, Note_off_c, 0, 58, 89
1, 21501, Note_on_c, 0, 54, 88
1, 21530, Note_off_c, 0, 54, 88
1, 21546, Note_on_c, 0, 63, 107
1, 21636, Note_off_c, 0, 63, 107
1, 21829, Note_on_c, 0, 67, 118
1, 21879, Note_off_c, 0, 67, 118
1, 21885, Note_on_c, 0, 65, 110
1, 21932, Note_off_c, 0, 65, 110
1, 21937, Note_on_c, 0, 63, 103
1, 21975, Note_off_c, 0, 63, 103
1, 21998, Note_on_c, 0, 55, 99
1, 22042, Note_off_c, 0, 55, 99
1, 22051, Note_on_c, 0, 57, 101
1, 22075, Note_off_c, 0, 57, 101
1, 22080, Note_on_c, 0, 60, 110
1, 22131, Note_off_c, 0, 60, 110
1, 22138, Note_on_c, 0, 61, 108
1, 22171, Note_off_c, 0, 61, 108
1, 22175, Note_on_c, 0, 60, 105
1, 22232, Note_off_c, 0, 60, 105
1, 22237, Note_on_c, 0, 58, 89
1, 22263, Note_off_c, 0, 58, 89
1, 22269, Note_on_c, 0, 55, 98
1, 22304, Note_off_c, 0, 55, 98
1, 22306, Note_on_c, 0, 57, 109
1, 22345, Note_off_c, 0, 57, 109
1, 22354, Note_on_c, 0, 58, 98
1, 22394, Note_off_c, 0, 58, 98
1, 22412, Note_on_c, 0, 60, 111
1, 22461, Note_off_c, 0, 60, 111
1, 22466, Note_on_c, 0, 62, 115
1, 22500, Note_off_c, 0, 62, 115
1, 22505, Note_on_c, 0, 63, 108
1, 22540, Note_off_c, 0, 63, 108
1, 22546, Note_on_c, 0, 65, 110
1, 22599, Note_off_c, 0, 65, 110
1, 22601, Note_on_c, 0, 67, 108
1, 22615, Note_off_c, 0, 67, 108
1, 22617, Note_on_c, 0, 68, 119
1, 22640, Note_off_c, 0, 68, 119
1, 22651, Note_on_c, 0, 71, 114
1, 22666, Note_off_c, 0, 71, 114
1, 22671, Note_on_c, 0, 72, 116
1, 22686, Note_off_c, 0, 72, 116
1, 22698, Note_on_c, 0, 74, 116
1, 22794, Note_off_c, 0, 74, 116
1, 23171, Note_on_c, 0, 67, 121
1, 23216, Note_off_c, 0, 67, 121
1, 23226, Note_on_c, 0, 66, 115
1, 23262, Note_off_c, 0, 66, 115
1, 23268, Note_on_c, 0, 65, 108
1, 23306, Note_off_c, 0, 65, 108
1, 23317, Note_on_c, 0, 64, 106
1, 23351, Note_off_c, 0, 64, 106
1, 23358, Note_on_c, 0, 63, 104
1, 23392, Note_off_c, 0, 63, 104
1, 23397, Note_on_c, 0, 55, 92
1, 23435, Note_off_c, 0, 55, 92
1, 23459, Note_on_c, 0, 62, 106
1, 23492, Note_off_c, 0, 62, 106
1, 23509, Note_on_c, 0, 60, 107
1, 23551, Note_off_c, 0, 60, 107
1, 23559, Note_on_c, 0, 58, 100
1, 23612, Note_off_c, 0, 58, 100
1, 23618, Note_on_c, 0, 55, 110
1, 23648, Note_off_c, 0, 55, 110
1, 23648, Note_on_c, 0, 57, 107
1, 23681, Note_off_c, 0, 57, 107
1, 23684, Note_on_c, 0, 55, 113
1, 23725, Note_off_c, 0, 55, 113
1, 23737, Note_on_c, 0, 53, 106
1, 23766, Note_off_c, 0, 53, 106
1, 23777, Note_on_c, 0, 51, 106
1, 23823, Note_off_c, 0, 51, 106
1, 23827, Note_on_c, 0, 50, 102
1, 23862, Note_off_c, 0, 50, 102
1, 23876, Note_on_c, 0, 53, 107
1, 23919, Note_off_c, 0, 53, 107
1, 23930, Note_on_c, 0, 56, 103
1, 23957, Note_off_c, 0, 56, 103
1, 23965, Note_on_c, 0, 60, 104
1, 24019, Note_off_c, 0, 60, 104
1, 24024, Note_on_c, 0, 55, 106
1, 24062, Note_off_c, 0, 55, 106
1, 24065, Note_on_c, 0, 56, 111
1, 24080, Note_off_c, 0, 56, 111
1, 24086, Note_on_c, 0, 57, 104
1, 24108, Note_off_c, 0, 57, 104
1, 24113, Note_on_c, 0, 58, 105
1, 24156, Note_off_c, 0, 58, 105
1, 24170, Note_on_c, 0, 55, 102
1, 24211, Note_off_c, 0, 55, 102
1, 24217, Note_on_c, 0, 56, 103
1, 24258, Note_off_c, 0, 56, 103
1, 24263, Note_on_c, 0, 58, 100
1, 24283, Note_off_c, 0, 58, 100
1, 24298, Note_on_c, 0, 60, 103
1, 24344, Note_off_c, 0, 60, 103
1, 24359, Note_on_c, 0, 63, 107
1, 24388, Note_off_c, 0, 63, 107
1, 24392, Note_on_c, 0, 67, 118
1, 24447, Note_off_c, 0, 67, 118
1, 24454, Note_on_c, 0, 64, 106
1, 24485, Note_off_c, 0, 64, 106
1, 24487, Note_on_c, 0, 65, 111
1, 24539, Note_off_c, 0, 65, 111
1, 24544, Note_on_c, 0, 67, 116
1, 24585, Note_off_c, 0, 67, 116
1, 24588, Note_on_c, 0, 68, 108
1, 24624, Note_off_c, 0, 68, 108
1, 24630, Note_on_c, 0, 60, 93
1, 24685, Note_off_c, 0, 60, 93
1, 24690, Note_on_c, 0, 61, 88
1, 24713, Note_off_c, 0, 61, 88
1, 24720, Note_on_c, 0, 62, 96
1, 24755, Note_off_c, 0, 62, 96
1, 24765, Note_on_c, 0, 67, 110
1, 24828, Note_off_c, 0, 67, 110
1, 24829, Note_on_c, 0, 66, 110
1, 24850, Note_off_c, 0, 66, 110
1, 24860, Note_on_c, 0, 65, 106
1, 24898, Note_off_c, 0, 65, 106
1, 24902, Note_on_c, 0, 63, 109
1, 24950, Note_off_c, 0, 63, 109
1, 24958, Note_on_c, 0, 62, 111
1, 25014, Note_off_c, 0, 62, 111
1, 25523, Note_on_c, 0, 60, 103
1, 25606, Note_off_c, 0, 60, 103
1, 25606, Note_on_c, 0, 62, 105
1, 25630, Note_off_c, 0, 62, 105
1, 25637, Note_on_c, 0, 65, 108
1, 25675, Note_off_c, 0, 65, 108
1, 25681, Note_on_c, 0, 68, 119
1, 25724, Note_off_c, 0, 68, 119
1, 25727, Note_on_c, 0, 67, 118
1, 25765, Note_off_c, 0, 67, 118
1, 25772, Note_on_c, 0, 65, 110
1, 25803, Note_off_c, 0, 65, 110
1, 25808, Note_on_c, 0, 64, 110
1, 25843, Note_off_c, 0, 64, 110
1, 25845, Note_on_c, 0, 67, 116
1, 25869, Note_off_c, 0, 67, 116
1, 25872, Note_on_c, 0, 70, 111
1, 25896, Note_off_c, 0, 70, 111
1, 25903, Note_on_c, 0, 73, 122
1, 25973, Note_off_c, 0, 73, 122
1, 25974, Note_on_c, 0, 72, 123
1, 26042, Note_off_c, 0, 72, 123
1, 26059, Note_on_c, 0, 67, 108
1, 26087, Note_off_c, 0, 67, 108
1, 26093, Note_on_c, 0, 70, 119
1, 26164, Note_off_c, 0, 70, 119
1, 26172, Note_on_c, 0, 68, 96
1, 26264, Note_off_c, 0, 68, 96
1, 26454, Note_on_c, 0, 70, 122
1, 26503, Note_off_c, 0, 70, 122
1, 26513, Note_on_c, 0, 68, 117
1, 26543, Note_off_c, 0, 68, 117
1, 26552, Note_on_c, 0, 67, 110
1, 26611, Note_off_c, 0, 67, 110
1, 26617, Note_on_c, 0, 65, 108
1, 26654, Note_off_c, 0, 65, 108
1, 26656, Note_on_c, 0, 64, 109
1, 26714, Note_off_c, 0, 64, 109
1, 26721, Note_on_c, 0, 61, 109
1, 26755, Note_off_c, 0, 61, 109
1, 26760, Note_on_c, 0, 60, 102
1, 26826, Note_off_c, 0, 60, 102
1, 27031, Note_on_c, 0, 63, 111
1, 27077, Note_off_c, 0, 63, 111
1, 27082, Note_on_c, 0, 61, 114
1, 27114, Note_off_c, 0, 61, 114
1, 27124, Note_on_c, 0, 60, 100
1, 27182, Note_off_c, 0, 60, 100
1, 27184, Note_on_c, 0, 58, 97
1, 27222, Note_off_c, 0, 58, 97
1, 27231, Note_on_c, 0, 57, 100
1, 27256, Note_off_c, 0, 57, 100
1, 27270, Note_on_c, 0, 60, 107
1, 27310, Note_off_c, 0, 60, 107
1, 27316, Note_on_c, 0, 63, 111
1, 27339, Note_off_c, 0, 63, 111
1, 27344, Note_on_c, 0, 65, 111
1, 27396, Note_off_c, 0, 65, 111
1, 27396, Note_on_c, 0, 66, 110
1, 27439, Note_off_c, 0, 66, 110
1, 27441, Note_on_c, 0, 65, 111
1, 27479, Note_off_c, 0, 65, 111
1, 27484, Note_on_c, 0, 63, 108
1, 27550, Note_off_c, 0, 63, 108
1, 27561, Note_on_c, 0, 60, 100
1, 27593, Note_off_c, 0, 60, 100
1, 27598, Note_on_c, 0, 61, 109
1, 27633, Note_off_c, 0, 61, 109
1, 27637, Note_on_c, 0, 63, 111
1, 27683, Note_off_c, 0, 63, 111
1, 27685, Note_on_c, 0, 65, 109
1, 27709, Note_off_c, 0, 65, 109
1, 27714, Note_on_c, 0, 68, 114
1, 27749, Note_off_c, 0, 68, 114
1, 27764, Note_on_c, 0, 72, 121
1, 27810, Note_off_c, 0, 72, 121
1, 27812, Note_on_c, 0, 73, 121
1, 27855, Note_off_c, 0, 73, 121
1, 27862, Note_on_c, 0, 70, 114
1, 27919, Note_off_c, 0, 70, 114
1, 27924, Note_on_c, 0, 65, 95
1, 27934, Note_off_c, 0, 65, 95
1, 27941, Note_on_c, 0, 68, 113
1, 28010, Note_off_c, 0, 68, 113
1, 28022, Note_on_c, 0, 63, 88
1, 28147, Note_off_c, 0, 63, 88
1, 28147, End_track
0, 0, End_of_file
