0, 0, Header, 1, 1, 192
1, 0, Start_track
1, 0, Title_t, "Melody"
1, 0, Tempo, 304568
1, 0, Key_signature, 0, "major"
1, 0, Time_signature, 4, 2, 24, 8
1, 1506, Note_on_c, 0, 64, 116
1, 1578, Note_off_c, 0, 64, 116
1, 1587, Note_on_c, 0, 67, 119
1, 1658, Note_off_c, 0, 67, 119
1, 1689, Note_on_c, 0, 72, 120
1, 1767, Note_off_c, 0, 72, 120
1, 1783, Note_on_c, 0, 69, 116
1, 1870, Note_off_c, 0, 69, 116
1, 1879, Note_on_c, 0, 67, 115
1, 1964, Note_off_c, 0, 67, 115
1, 1967, Note_on_c, 0, 65, 115
1, 2036, Note_off_c, 0, 65, 115
1, 2074, Note_on_c, 0, 64, 121
1, 2156, Note_off_c, 0, 64, 121
1, 2157, Note_on_c, 0, 62, 118
1, 2242, Note_off_c, 0, 62, 118
1, 2258, Note_on_c, 0, 60, 111
1, 2342, Note_off_c, 0, 60, 111
1, 2362, Note_on_c, 0, 64, 119
1, 2435, Note_off_c, 0, 64, 119
1, 2454, Note_on_c, 0, 62, 114
1, 2535, Note_off_c, 0, 62, 114
1, 2550, Note_on_c, 0, 60, 109
1, 2754, Note_off_c, 0, 60, 109
1, 2759, Note_on_c, 0, 55, 117
1, 2841, Note_off_c, 0, 55, 117
1, 2880, Note_on_c, 0, 52, 105
1, 2946, Note_off_c, 0, 52, 105
1, 2964, Note_on_c, 0, 53, 113
1, 3087, Note_off_c, 0, 53, 113
1, 3156, Note_on_c, 0, 57, 112
1, 3225, Note_off_c, 0, 57, 112
1, 3239, Note_on_c, 0, 60, 114
1, 3326, Note_off_c, 0, 60, 114
1, 3344, Note_on_c, 0, 65, 117
1, 3417, Note_off_c, 0, 65, 117
1, 3428, Note_on_c, 0, 66, 115
1, 3502, Note_off_c, 0, 66, 115
1, 3522, Note_on_c, 0, 69, 116
1, 3591, Note_off_c, 0, 69, 116
1, 3628, Note_on_c, 0, 67, 112
1, 3709, Note_off_c, 0, 67, 112
1, 3831, Note_on_c, 0, 71, 117
1, 3900, Note_off_c, 0, 71, 117
1, 3915, Note_on_c, 0, 74, 114
1, 3993, Note_off_c, 0, 74, 114
1, 4008, Note_on_c, 0, 72, 114
1, 4100, Note_off_c, 0, 72, 114
1, 4200, Note_on_c, 0, 71, 115
1, 4274, Note_off_c, 0, 71, 115
1, 4283, Note_on_c, 0, 69, 115
1, 4375, Note_off_c, 0, 69, 115
1, 4385, Note_on_c, 0, 67, 118
1, 4458, Note_off_c, 0, 67, 118
1, 4487, Note_on_c, 0, 67, 117
1, 4559, Note_off_c, 0, 67, 117
1, 4571, Note_on_c, 0, 67, 118
1, 4667, Note_off_c, 0, 67, 118
1, 4686, Note_on_c, 0, 66, 112
1, 4765, Note_off_c, 0, 66, 112
1, 4781, Note_on_c, 0, 69, 118
1, 4869, Note_off_c, 0, 69, 118
1, 4881, Note_on_c, 0, 67, 113
1, 4967, Note_off_c, 0, 67, 113
1, 5075, Note_on_c, 0, 72, 110
1, 5140, Note_off_c, 0, 72, 110
1, 5159, Note_on_c, 0, 72, 108
1, 5259, Note_off_c, 0, 72, 108
1, 5278, Note_on_c, 0, 71, 115
1, 5364, Note_off_c, 0, 71, 115
1, 5379, Note_on_c, 0, 69, 111
1, 5755, Note_off_c, 0, 69, 111
1, 5774, Note_on_c, 0, 67, 117
1, 5846, Note_off_c, 0, 67, 117
1, 5875, Note_on_c, 0, 65, 112
1, 5948, Note_off_c, 0, 65, 112
1, 5961, Note_on_c, 0, 64, 117
1, 6037, Note_off_c, 0, 64, 117
1, 6054, Note_on_c, 0, 67, 115
1, 6286, Note_off_c, 0, 67, 115
1, 6296, Note_on_c, 0, 65, 109
1, 6543, Note_off_c, 0, 65, 109
1, 6574, Note_on_c, 0, 69, 114
1, 6649, Note_off_c, 0, 69, 114
1, 6686, Note_on_c, 0, 74, 112
1, 6779, Note_off_c, 0, 74, 112
1, 6797, Note_on_c, 0, 71, 110
1, 7011, Note_off_c, 0, 71, 110
1, 7024, Note_on_c, 0, 69, 114
1, 7121, Note_off_c, 0, 69, 114
1, 7132, Note_on_c, 0, 67, 110
1, 7354, Note_off_c, 0, 67, 110
1, 7711, Note_on_c, 0, 67, 113
1, 7789, Note_off_c, 0, 67, 113
1, 7865, Note_on_c, 0, 62, 102
1, 7933, Note_off_c, 0, 62, 102
1, 7958, Note_on_c, 0, 71, 109
1, 8057, Note_off_c, 0, 71, 109
1, 8068, Note_on_c, 0, 74, 109
1, 8143, Note_off_c, 0, 74, 109
1, 8199, Note_on_c, 0, 72, 112
1, 8262, Note_off_c, 0, 72, 112
1, 8296, Note_on_c, 0, 71, 113
1, 8362, Note_off_c, 0, 71, 113
1, 8372, Note_on_c, 0, 69, 116
1, 8490, Note_off_c, 0, 69, 116
1, 8497, Note_on_c, 0, 67, 112
1, 8944, Note_off_c, 0, 67, 112
1, 9007, Note_on_c, 0, 62, 99
1, 9091, Note_off_c, 0, 62, 99
1, 9105, Note_on_c, 0, 71, 109
1, 9194, Note_off_c, 0, 71, 109
1, 9205, Note_on_c, 0, 74, 108
1, 9300, Note_off_c, 0, 74, 108
1, 9324, Note_on_c, 0, 72, 111
1, 9394, Note_off_c, 0, 72, 111
1, 9433, Note_on_c, 0, 69, 114
1, 9515, Note_off_c, 0, 69, 114
1, 9554, Note_on_c, 0, 65, 115
1, 9672, Note_off_c, 0, 65, 115
1, 9709, Note_on_c, 0, 69, 113
1, 9788, Note_off_c, 0, 69, 113
1, 9817, Note_on_c, 0, 74, 113
1, 9914, Note_off_c, 0, 74, 113
1, 9915, Note_on_c, 0, 71, 109
1, 10023, Note_off_c, 0, 71, 109
1, 10027, Note_on_c, 0, 69, 116
1, 10121, Note_off_c, 0, 69, 116
1, 10133, Note_on_c, 0, 67, 106
1, 10612, Note_off_c, 0, 67, 106
1, 10829, Note_on_c, 0, 64, 125
1, 10915, Note_off_c, 0, 64, 125
1, 10925, Note_on_c, 0, 67, 117
1, 11013, Note_off_c, 0, 67, 117
1, 11094, Note_on_c, 0, 73, 117
1, 11196, Note_off_c, 0, 73, 117
1, 11204, Note_on_c, 0, 69, 115
1, 11318, Note_off_c, 0, 69, 115
1, 11333, Note_on_c, 0, 67, 114
1, 11425, Note_off_c, 0, 67, 114
1, 11455, Note_on_c, 0, 65, 116
1, 11555, Note_off_c, 0, 65, 116
1, 11563, Note_on_c, 0, 64, 121
1, 11655, Note_off_c, 0, 64, 121
1, 11674, Note_on_c, 0, 62, 118
1, 11786, Note_off_c, 0, 62, 118
1, 11792, Note_on_c, 0, 61, 118
1, 11899, Note_off_c, 0, 61, 118
1, 11902, Note_on_c, 0, 62, 113
1, 12001, Note_off_c, 0, 62, 113
1, 12015, Note_on_c, 0, 64, 118
1, 12125, Note_off_c, 0, 64, 118
1, 12137, Note_on_c, 0, 65, 115
1, 12235, Note_off_c, 0, 65, 115
1, 12244, Note_on_c, 0, 62, 115
1, 12378, Note_off_c, 0, 62, 115
1, 12434, Note_on_c, 0, 69, 117
1, 12520, Note_off_c, 0, 69, 117
1, 12590, Note_on_c, 0, 74, 115
1, 12688, Note_off_c, 0, 74, 115
1, 12691, Note_on_c, 0, 71, 113
1, 12769, Note_off_c, 0, 71, 113
1, 12793, Note_on_c, 0, 69, 113
1, 12881, Note_off_c, 0, 69, 113
1, 12920, Note_on_c, 0, 67, 111
1, 13019, Note_off_c, 0, 67, 111
1, 13035, Note_on_c, 0, 64, 118
1, 13137, Note_off_c, 0, 64, 118
1, 13171, Note_on_c, 0, 69, 114
1, 13270, Note_off_c, 0, 69, 114
1, 13279, Note_on_c, 0, 67, 111
1, 13396, Note_off_c, 0, 67, 111
1, 13433, Note_on_c, 0, 65, 110
1, 13505, Note_off_c, 0, 65, 110
1, 13577, Note_on_c, 0, 64, 121
1, 13683, Note_off_c, 0, 64, 121
1, 13725, Note_on_c, 0, 67, 109
1, 13826, Note_off_c, 0, 67, 109
1, 13891, Note_on_c, 0, 72, 107
1, 13993, Note_off_c, 0, 72, 107
1, 14151, Note_on_c, 0, 76, 117
1, 14221, Note_off_c, 0, 76, 117
1, 14262, Note_on_c, 0, 71, 108
1, 14353, Note_off_c, 0, 71, 108
1, 14355, Note_on_c, 0, 74, 114
1, 14451, Note_off_c, 0, 74, 114
1, 14479, Note_on_c, 0, 72, 108
1, 14572, Note_off_c, 0, 72, 108
1, 14583, Note_on_c, 0, 69, 113
1, 14680, Note_off_c, 0, 69, 113
1, 14689, Note_on_c, 0, 67, 108
1, 14974, Note_off_c, 0, 67, 108
1, 15257, Note_on_c, 0, 67, 113
1, 15359, Note_off_c, 0, 67, 113
1, 15370, Note_on_c, 0, 65, 117
1, 15466, Note_off_c, 0, 65, 117
1, 15498, Note_on_c, 0, 69, 116
1, 15576, Note_off_c, 0, 69, 116
1, 15585, Note_on_c, 0, 72, 111
1, 15690, Note_off_c, 0, 72, 111
1, 15755, Note_on_c, 0, 77, 100
1, 15846, Note_off_c, 0, 77, 100
1, 15851, Note_on_c, 0, 76, 114
1, 15934, Note_off_c, 0, 76, 114
1, 15970, Note_on_c, 0, 74, 112
1, 16054, Note_off_c, 0, 74, 112
1, 16061, Note_on_c, 0, 72, 111
1, 16157, Note_off_c, 0, 72, 111
1, 16178, Note_on_c, 0, 71, 110
1, 16292, Note_off_c, 0, 71, 110
1, 16319, Note_on_c, 0, 74, 110
1, 16513, Note_off_c, 0, 74, 110
1, 16549, Note_on_c, 0, 72, 113
1, 16630, Note_off_c, 0, 72, 113
1, 16637, Note_on_c, 0, 71, 111
1, 16729, Note_off_c, 0, 71, 111
1, 16758, Note_on_c, 0, 69, 111
1, 16842, Note_off_c, 0, 69, 111
1, 16849, Note_on_c, 0, 67, 112
1, 16873, Note_off_c, 0, 67, 112
1, 16877, Note_on_c, 0, 69, 116
1, 16928, Note_off_c, 0, 69, 116
1, 16940, Note_on_c, 0, 67, 111
1, 16992, Note_off_c, 0, 67, 111
1, 16997, Note_on_c, 0, 66, 107
1, 17064, Note_off_c, 0, 66, 107
1, 17114, Note_on_c, 0, 69, 110
1, 17200, Note_off_c, 0, 69, 110
1, 17216, Note_on_c, 0, 67, 112
1, 17306, Note_off_c, 0, 67, 112
1, 17317, Note_on_c, 0, 64, 115
1, 17412, Note_off_c, 0, 64, 115
1, 17457, Note_on_c, 0, 73, 115
1, 17545, Note_off_c, 0, 73, 115
1, 17547, Note_on_c, 0, 70, 119
1, 17606, Note_off_c, 0, 70, 119
1, 17613, Note_on_c, 0, 69, 112
1, 17669, Note_off_c, 0, 69, 112
1, 17672, Note_on_c, 0, 70, 104
1, 17767, Note_off_c, 0, 70, 104
1, 17776, Note_on_c, 0, 69, 113
1, 17854, Note_off_c, 0, 69, 113
1, 17868, Note_on_c, 0, 67, 110
1, 17961, Note_off_c, 0, 67, 110
1, 17981, Note_on_c, 0, 65, 114
1, 18063, Note_off_c, 0, 65, 114
1, 18082, Note_on_c, 0, 64, 120
1, 18179, Note_off_c, 0, 64, 120
1, 18182, Note_on_c, 0, 62, 105
1, 18247, Note_off_c, 0, 62, 105
1, 18272, Note_on_c, 0, 67, 113
1, 18360, Note_off_c, 0, 67, 113
1, 18380, Note_on_c, 0, 64, 117
1, 18468, Note_off_c, 0, 64, 117
1, 18477, Note_on_c, 0, 65, 113
1, 18559, Note_off_c, 0, 65, 113
1, 18593, Note_on_c, 0, 69, 110
1, 18675, Note_off_c, 0, 69, 110
1, 18735, Note_on_c, 0, 74, 106
1, 18821, Note_off_c, 0, 74, 106
1, 18837, Note_on_c, 0, 71, 104
1, 18936, Note_off_c, 0, 71, 104
1, 18947, Note_on_c, 0, 72, 103
1, 19069, Note_off_c, 0, 72, 103
1, 19078, Note_on_c, 0, 71, 100
1, 19198, Note_off_c, 0, 71, 100
1, 19219, Note_on_c, 0, 69, 114
1, 19305, Note_off_c, 0, 69, 114
1, 19347, Note_on_c, 0, 67, 108
1, 19475, Note_off_c, 0, 67, 108
1, 19484, Note_on_c, 0, 65, 110
1, 19565, Note_off_c, 0, 65, 110
1, 19604, Note_on_c, 0, 64, 112
1, 19744, Note_off_c, 0, 64, 112
1, 19967, Note_on_c, 0, 67, 117
1, 20048, Note_off_c, 0, 67, 117
1, 20063, Note_on_c, 0, 69, 114
1, 20168, Note_off_c, 0, 69, 114
1, 20249, Note_on_c, 0, 64, 120
1, 20362, Note_off_c, 0, 64, 120
1, 20475, Note_on_c, 0, 67, 112
1, 20586, Note_off_c, 0, 67, 112
1, 20620, Note_on_c, 0, 64, 122
1, 20738, Note_off_c, 0, 64, 122
1, 20777, Note_on_c, 0, 60, 115
1, 20876, Note_off_c, 0, 60, 115
1, 20895, Note_on_c, 0, 55, 109
1, 21142, Note_off_c, 0, 55, 109
1, 21470, Note_on_c, 0, 69, 107
1, 22819, Note_off_c, 0, 69, 107
1, 22819, Note_on_c, 0, 67, 112
1, 22899, Note_off_c, 0, 67, 112
1, 22954, Note_on_c, 0, 72, 110
1, 23013, Note_off_c, 0, 72, 110
1, 23046, Note_on_c, 0, 76, 117
1, 23115, Note_off_c, 0, 76, 117
1, 23129, Note_on_c, 0, 71, 109
1, 23199, Note_off_c, 0, 71, 109
1, 23218, Note_on_c, 0, 74, 114
1, 23293, Note_off_c, 0, 74, 114
1, 23308, Note_on_c, 0, 72, 111
1, 23372, Note_off_c, 0, 72, 111
1, 23406, Note_on_c, 0, 70, 107
1, 23472, Note_off_c, 0, 70, 107
1, 23494, Note_on_c, 0, 73, 117
1, 23560, Note_off_c, 0, 73, 117
1, 23596, Note_on_c, 0, 70, 105
1, 23663, Note_off_c, 0, 70, 105
1, 23678, Note_on_c, 0, 69, 102
1, 23760, Note_off_c, 0, 69, 102
1, 23771, Note_on_c, 0, 67, 112
1, 23854, Note_off_c, 0, 67, 112
1, 23874, Note_on_c, 0, 65, 114
1, 23958, Note_off_c, 0, 65, 114
1, 23979, Note_on_c, 0, 64, 118
1, 24063, Note_off_c, 0, 64, 118
1, 24075, Note_on_c, 0, 62, 113
1, 24155, Note_off_c, 0, 62, 113
1, 24165, Note_on_c, 0, 61, 111
1, 24234, Note_off_c, 0, 61, 111
1, 24247, Note_on_c, 0, 64, 120
1, 24332, Note_off_c, 0, 64, 120
1, 24364, Note_on_c, 0, 61, 113
1, 24440, Note_off_c, 0, 61, 113
1, 24447, Note_on_c, 0, 62, 113
1, 24527, Note_off_c, 0, 62, 113
1, 24551, Note_on_c, 0, 65, 114
1, 24624, Note_off_c, 0, 65, 114
1, 24636, Note_on_c, 0, 69, 113
1, 24728, Note_off_c, 0, 69, 113
1, 24734, Note_on_c, 0, 65, 105
1, 24811, Note_off_c, 0, 65, 105
1, 24841, Note_on_c, 0, 74, 103
1, 24926, Note_off_c, 0, 74, 103
1, 24932, Note_on_c, 0, 67, 116
1, 24985, Note_off_c, 0, 67, 116
1, 24994, Note_on_c, 0, 69, 91
1, 25024, Note_off_c, 0, 69, 91
1, 25034, Note_on_c, 0, 71, 113
1, 25107, Note_off_c, 0, 71, 113
1, 25126, Note_on_c, 0, 71, 107
1, 25199, Note_off_c, 0, 71, 107
1, 25220, Note_on_c, 0, 71, 110
1, 25300, Note_off_c, 0, 71, 110
1, 25319, Note_on_c, 0, 74, 108
1, 25398, Note_off_c, 0, 74, 108
1, 25417, Note_on_c, 0, 71, 112
1, 25492, Note_off_c, 0, 71, 112
1, 25504, Note_on_c, 0, 72, 108
1, 25595, Note_off_c, 0, 72, 108
1, 25606, Note_on_c, 0, 71, 109
1, 25675, Note_off_c, 0, 71, 109
1, 25694, Note_on_c, 0, 69, 111
1, 25770, Note_off_c, 0, 69, 111
1, 25793, Note_on_c, 0, 67, 103
1, 25873, Note_off_c, 0, 67, 103
1, 25878, Note_on_c, 0, 69, 100
1, 25972, Note_off_c, 0, 69, 100
1, 25976, Note_on_c, 0, 67, 109
1, 26057, Note_off_c, 0, 67, 109
1, 26069, Note_on_c, 0, 64, 113
1, 26157, Note_off_c, 0, 64, 113
1, 26166, Note_on_c, 0, 67, 109
1, 26347, Note_off_c, 0, 67, 109
1, 26351, Note_on_c, 0, 69, 113
1, 26468, Note_off_c, 0, 69, 113
1, 26858, Note_on_c, 0, 67, 119
1, 26926, Note_off_c, 0, 67, 119
1, 26936, Note_on_c, 0, 67, 114
1, 27089, Note_off_c, 0, 67, 114
1, 27133, Note_on_c, 0, 67, 113
1, 27178, Note_off_c, 0, 67, 113
1, 27233, Note_on_c, 0, 65, 115
1, 27421, Note_off_c, 0, 65, 115
1, 27432, Note_on_c, 0, 65, 98
1, 27497, Note_off_c, 0, 65, 98
1, 27506, Note_on_c, 0, 67, 97
1, 27557, Note_off_c, 0, 67, 97
1, 27599, Note_on_c, 0, 65, 114
1, 27770, Note_off_c, 0, 65, 114
1, 27790, Note_on_c, 0, 67, 108
1, 27836, Note_off_c, 0, 67, 108
1, 27878, Note_on_c, 0, 69, 114
1, 27945, Note_off_c, 0, 69, 114
1, 27967, Note_on_c, 0, 66, 107
1, 28047, Note_off_c, 0, 66, 107
1, 28075, Note_on_c, 0, 67, 111
1, 28232, Note_off_c, 0, 67, 111
1, 28242, Note_on_c, 0, 64, 108
1, 28317, Note_off_c, 0, 64, 108
1, 28361, Note_on_c, 0, 65, 114
1, 28485, Note_off_c, 0, 65, 114
1, 28573, Note_on_c, 0, 65, 98
1, 28643, Note_off_c, 0, 65, 98
1, 28653, Note_on_c, 0, 64, 107
1, 28720, Note_off_c, 0, 64, 107
1, 28738, Note_on_c, 0, 62, 106
1, 28795, Note_off_c, 0, 62, 106
1, 28845, Note_on_c, 0, 60, 115
1, 29001, Note_off_c, 0, 60, 115
1, 29025, Note_on_c, 0, 59, 108
1, 29082, Note_off_c, 0, 59, 108
1, 29114, Note_on_c, 0, 57, 112
1, 29295, Note_off_c, 0, 57, 112
1, 29317, Note_on_c, 0, 55, 108
1, 29385, Note_off_c, 0, 55, 108
1, 29409, Note_on_c, 0, 53, 114
1, 29585, Note_off_c, 0, 53, 114
1, 29613, Note_on_c, 0, 52, 114
1, 29705, Note_off_c, 0, 52, 114
1, 29749, Note_on_c, 0, 50, 114
1, 29859, Note_off_c, 0, 50, 114
1, 29885, Note_on_c, 0, 49, 112
1, 29978, Note_off_c, 0, 49, 112
1, 29999, Note_on_c, 0, 52, 115
1, 30127, Note_off_c, 0, 52, 115
1, 30169, Note_on_c, 0, 49, 117
1, 30282, Note_off_c, 0, 49, 117
1, 30290, Note_on_c, 0, 50, 115
1, 30426, Note_off_c, 0, 50, 115
1, 30484, Note_on_c, 0, 53, 113
1, 30642, Note_off_c, 0, 53, 113
1, 30662, Note_on_c, 0, 57, 113
1, 30759, Note_off_c, 0, 57, 113
1, 30780, Note_on_c, 0, 57, 114
1, 30940, Note_off_c, 0, 57, 114
1, 30977, Note_on_c, 0, 55, 112
1, 31139, Note_off_c, 0, 55, 112
1, 31654, Note_on_c, 0, 66, 120
1, 31708, Note_off_c, 0, 66, 120
1, 31713, Note_on_c, 0, 67, 112
1, 33228, Note_off_c, 0, 67, 112
1, 33234, Note_on_c, 0, 64, 121
1, 33312, Note_off_c, 0, 64, 121
1, 33333, Note_on_c, 0, 72, 116
1, 33383, Note_off_c, 0, 72, 116
1, 33416, Note_on_c, 0, 69, 118
1, 33451, Note_off_c, 0, 69, 118
1, 33458, Note_on_c, 0, 71, 112
1, 33492, Note_off_c, 0, 71, 112
1, 33492, Note_on_c, 0, 69, 108
1, 33535, Note_off_c, 0, 69, 108
1, 33589, Note_on_c, 0, 65, 112
1, 33673, Note_off_c, 0, 65, 112
1, 33688, Note_on_c, 0, 60, 111
1, 33752, Note_off_c, 0, 60, 111
1, 33798, Note_on_c, 0, 69, 121
1, 33839, Note_off_c, 0, 69, 121
1, 33844, Note_on_c, 0, 70, 110
1, 33867, Note_off_c, 0, 70, 110
1, 33876, Note_on_c, 0, 69, 107
1, 33948, Note_off_c, 0, 69, 107
1, 33975, Note_on_c, 0, 65, 111
1, 34030, Note_off_c, 0, 65, 111
1, 34075, Note_on_c, 0, 60, 106
1, 34116, Note_off_c, 0, 60, 106
1, 34186, Note_on_c, 0, 71, 108
1, 34236, Note_off_c, 0, 71, 108
1, 34240, Note_on_c, 0, 72, 107
1, 34261, Note_off_c, 0, 72, 107
1, 34271, Note_on_c, 0, 71, 105
1, 34344, Note_off_c, 0, 71, 105
1, 34369, Note_on_c, 0, 67, 115
1, 34433, Note_off_c, 0, 67, 115
1, 34481, Note_on_c, 0, 72, 103
1, 34523, Note_off_c, 0, 72, 103
1, 34575, Note_on_c, 0, 69, 107
1, 34614, Note_off_c, 0, 69, 107
1, 34615, Note_on_c, 0, 70, 109
1, 34650, Note_off_c, 0, 70, 109
1, 34656, Note_on_c, 0, 69, 111
1, 34720, Note_off_c, 0, 69, 111
1, 34751, Note_on_c, 0, 65, 114
1, 34808, Note_off_c, 0, 65, 114
1, 34868, Note_on_c, 0, 69, 110
1, 34911, Note_off_c, 0, 69, 110
1, 34950, Note_on_c, 0, 67, 113
1, 34983, Note_off_c, 0, 67, 113
1, 34983, Note_on_c, 0, 69, 115
1, 35015, Note_off_c, 0, 69, 115
1, 35023, Note_on_c, 0, 67, 110
1, 35085, Note_off_c, 0, 67, 110
1, 35125, Note_on_c, 0, 64, 120
1, 35207, Note_off_c, 0, 64, 120
1, 35228, Note_on_c, 0, 60, 110
1, 35284, Note_off_c, 0, 60, 110
1, 35315, Note_on_c, 0, 55, 114
1, 35388, Note_off_c, 0, 55, 114
1, 35405, Note_on_c, 0, 60, 104
1, 35457, Note_off_c, 0, 60, 104
1, 35488, Note_on_c, 0, 64, 116
1, 35542, Note_off_c, 0, 64, 116
1, 35596, Note_on_c, 0, 67, 109
1, 35656, Note_off_c, 0, 67, 109
1, 35677, Note_on_c, 0, 61, 115
1, 35759, Note_off_c, 0, 61, 115
1, 35769, Note_on_c, 0, 64, 113
1, 35847, Note_off_c, 0, 64, 113
1, 35885, Note_on_c, 0, 58, 110
1, 35997, Note_off_c, 0, 58, 110
1, 36561, Note_on_c, 0, 57, 118
1, 36634, Note_off_c, 0, 57, 118
1, 36651, Note_on_c, 0, 61, 118
1, 36728, Note_off_c, 0, 61, 118
1, 36736, Note_on_c, 0, 62, 119
1, 36820, Note_off_c, 0, 62, 119
1, 36832, Note_on_c, 0, 64, 118
1, 36907, Note_off_c, 0, 64, 118
1, 36916, Note_on_c, 0, 65, 116
1, 37018, Note_off_c, 0, 65, 116
1, 37044, Note_on_c, 0, 64, 119
1, 37126, Note_off_c, 0, 64, 119
1, 37135, Note_on_c, 0, 62, 113
1, 37202, Note_off_c, 0, 62, 113
1, 37228, Note_on_c, 0, 60, 109
1, 37303, Note_off_c, 0, 60, 109
1, 37327, Note_on_c, 0, 62, 114
1, 37397, Note_off_c, 0, 62, 114
1, 37414, Note_on_c, 0, 60, 111
1, 37499, Note_off_c, 0, 60, 111
1, 37520, Note_on_c, 0, 57, 108
1, 37616, Note_off_c, 0, 57, 108
1, 37626, Note_on_c, 0, 59, 21
1, 37688, Note_off_c, 0, 59, 21
1, 37711, Note_on_c, 0, 57, 112
1, 37787, Note_off_c, 0, 57, 112
1, 37799, Note_on_c, 0, 55, 112
1, 37864, Note_off_c, 0, 55, 112
1, 37896, Note_on_c, 0, 53, 109
1, 37973, Note_off_c, 0, 53, 109
1, 37991, Note_on_c, 0, 52, 111
1, 38071, Note_off_c, 0, 52, 111
1, 38085, Note_on_c, 0, 55, 110
1, 38158, Note_off_c, 0, 55, 110
1, 38179, Note_on_c, 0, 60, 115
1, 38275, Note_off_c, 0, 60, 115
1, 38292, Note_on_c, 0, 55, 110
1, 38355, Note_off_c, 0, 55, 110
1, 38368, Note_on_c, 0, 62, 118
1, 38464, Note_off_c, 0, 62, 118
1, 38467, Note_on_c, 0, 55, 107
1, 38531, Note_off_c, 0, 55, 107
1, 38559, Note_on_c, 0, 55, 120
1, 38642, Note_off_c, 0, 55, 120
1, 38664, Note_on_c, 0, 64, 117
1, 38819, Note_off_c, 0, 64, 117
1, 38835, Note_on_c, 0, 55, 113
1, 38918, Note_off_c, 0, 55, 113
1, 38939, Note_on_c, 0, 60, 113
1, 39028, Note_off_c, 0, 60, 113
1, 39035, Note_on_c, 0, 55, 115
1, 39118, Note_off_c, 0, 55, 115
1, 39137, Note_on_c, 0, 62, 114
1, 39214, Note_off_c, 0, 62, 114
1, 39240, Note_on_c, 0, 55, 107
1, 39311, Note_off_c, 0, 55, 107
1, 39332, Note_on_c, 0, 64, 119
1, 39432, Note_off_c, 0, 64, 119
1, 39442, Note_on_c, 0, 67, 110
1, 39499, Note_off_c, 0, 67, 110
1, 39522, Note_on_c, 0, 65, 113
1, 39658, Note_off_c, 0, 65, 113
1, 39676, Note_on_c, 0, 55, 106
1, 39759, Note_off_c, 0, 55, 106
1, 39795, Note_on_c, 0, 65, 107
1, 39902, Note_off_c, 0, 65, 107
1, 39937, Note_on_c, 0, 65, 106
1, 40020, Note_off_c, 0, 65, 106
1, 40029, Note_on_c, 0, 67, 108
1, 40147, Note_off_c, 0, 67, 108
1, 40173, Note_on_c, 0, 66, 107
1, 40243, Note_off_c, 0, 66, 107
1, 40255, Note_on_c, 0, 67, 106
1, 40472, Note_off_c, 0, 67, 106
1, 40472, Note_on_c, 0, 55, 108
1, 40529, Note_off_c, 0, 55, 108
1, 40566, Note_on_c, 0, 55, 113
1, 40637, Note_off_c, 0, 55, 113
1, 40650, Note_on_c, 0, 63, 113
1, 40678, Note_off_c, 0, 63, 113
1, 40678, Note_on_c, 0, 65, 110
1, 40841, Note_off_c, 0, 65, 110
1, 40863, Note_on_c, 0, 55, 118
1, 40932, Note_off_c, 0, 55, 118
1, 40958, Note_on_c, 0, 55, 112
1, 41030, Note_off_c, 0, 55, 112
1, 41034, Note_on_c, 0, 64, 121
1, 41117, Note_off_c, 0, 64, 121
1, 41176, Note_on_c, 0, 55, 106
1, 41255, Note_off_c, 0, 55, 106
1, 41302, Note_on_c, 0, 62, 117
1, 41409, Note_off_c, 0, 62, 117
1, 41420, Note_on_c, 0, 55, 118
1, 41489, Note_off_c, 0, 55, 118
1, 41512, Note_on_c, 0, 55, 102
1, 41590, Note_off_c, 0, 55, 102
1, 41594, Note_on_c, 0, 64, 113
1, 41688, Note_off_c, 0, 64, 113
1, 41707, Note_on_c, 0, 55, 104
1, 41778, Note_off_c, 0, 55, 104
1, 41807, Note_on_c, 0, 61, 112
1, 41875, Note_off_c, 0, 61, 112
1, 41917, Note_on_c, 0, 55, 98
1, 41986, Note_off_c, 0, 55, 98
1, 41998, Note_on_c, 0, 62, 109
1, 42088, Note_off_c, 0, 62, 109
1, 42116, Note_on_c, 0, 55, 112
1, 42192, Note_off_c, 0, 55, 112
1, 42223, Note_on_c, 0, 64, 115
1, 42367, Note_off_c, 0, 64, 115
1, 42684, Note_on_c, 0, 65, 115
1, 42768, Note_off_c, 0, 65, 115
1, 42770, Note_on_c, 0, 64, 122
1, 42862, Note_off_c, 0, 64, 122
1, 42872, Note_on_c, 0, 65, 116
1, 42938, Note_off_c, 0, 65, 116
1, 42952, Note_on_c, 0, 62, 112
1, 43042, Note_off_c, 0, 62, 112
1, 43044, Note_on_c, 0, 64, 115
1, 43123, Note_off_c, 0, 64, 115
1, 43139, Note_on_c, 0, 65, 110
1, 43223, Note_off_c, 0, 65, 110
1, 43235, Note_on_c, 0, 69, 115
1, 43326, Note_off_c, 0, 69, 115
1, 43331, Note_on_c, 0, 67, 113
1, 43408, Note_off_c, 0, 67, 113
1, 43429, Note_on_c, 0, 55, 111
1, 43498, Note_off_c, 0, 55, 111
1, 43535, Note_on_c, 0, 60, 101
1, 43602, Note_off_c, 0, 60, 101
1, 43614, Note_on_c, 0, 67, 117
1, 43691, Note_off_c, 0, 67, 117
1, 43710, Note_on_c, 0, 65, 112
1, 43785, Note_off_c, 0, 65, 112
1, 43807, Note_on_c, 0, 62, 113
1, 43891, Note_off_c, 0, 62, 113
1, 43924, Note_on_c, 0, 59, 105
1, 43997, Note_off_c, 0, 59, 105
1, 44008, Note_on_c, 0, 55, 101
1, 44078, Note_off_c, 0, 55, 101
1, 44090, Note_on_c, 0, 60, 111
1, 44185, Note_off_c, 0, 60, 111
1, 44201, Note_on_c, 0, 55, 99
1, 44259, Note_off_c, 0, 55, 99
1, 44263, Note_on_c, 0, 64, 118
1, 44356, Note_off_c, 0, 64, 118
1, 44379, Note_on_c, 0, 60, 102
1, 44457, Note_off_c, 0, 60, 102
1, 44477, Note_on_c, 0, 67, 110
1, 44653, Note_off_c, 0, 67, 110
1, 44655, Note_on_c, 0, 64, 117
1, 44747, Note_off_c, 0, 64, 117
1, 44752, Note_on_c, 0, 60, 105
1, 44801, Note_off_c, 0, 60, 105
1, 44839, Note_on_c, 0, 67, 117
1, 44925, Note_off_c, 0, 67, 117
1, 44933, Note_on_c, 0, 64, 115
1, 44988, Note_off_c, 0, 64, 115
1, 45027, Note_on_c, 0, 72, 113
1, 45125, Note_off_c, 0, 72, 113
1, 45143, Note_on_c, 0, 67, 114
1, 45212, Note_off_c, 0, 67, 114
1, 45227, Note_on_c, 0, 64, 112
1, 45441, Note_off_c, 0, 64, 112
1, 45441, Note_on_c, 0, 60, 104
1, 45526, Note_off_c, 0, 60, 104
1, 45539, Note_on_c, 0, 57, 96
1, 45605, Note_off_c, 0, 57, 96
1, 45615, Note_on_c, 0, 65, 108
1, 45688, Note_off_c, 0, 65, 108
1, 45726, Note_on_c, 0, 60, 104
1, 45799, Note_off_c, 0, 60, 104
1, 45802, Note_on_c, 0, 69, 100
1, 46168, Note_off_c, 0, 69, 100
1, 46177, Note_on_c, 0, 67, 117
1, 46232, Note_off_c, 0, 67, 117
1, 46674, Note_on_c, 0, 67, 110
1, 47378, Note_off_c, 0, 67, 110
1, 47396, Note_on_c, 0, 64, 110
1, 47480, Note_off_c, 0, 64, 110
1, 47501, Note_on_c, 0, 67, 115
1, 47586, Note_off_c, 0, 67, 115
1, 47589, Note_on_c, 0, 64, 117
1, 47678, Note_off_c, 0, 64, 117
1, 47690, Note_on_c, 0, 67, 113
1, 47763, Note_off_c, 0, 67, 113
1, 47779, Note_on_c, 0, 64, 111
1, 47854, Note_off_c, 0, 64, 111
1, 47874, Note_on_c, 0, 67, 114
1, 47956, Note_off_c, 0, 67, 114
1, 47977, Note_on_c, 0, 69, 115
1, 48057, Note_off_c, 0, 69, 115
1, 48066, Note_on_c, 0, 71, 111
1, 48157, Note_off_c, 0, 71, 111
1, 48167, Note_on_c, 0, 74, 112
1, 48252, Note_off_c, 0, 74, 112
1, 48254, Note_on_c, 0, 73, 118
1, 48320, Note_off_c, 0, 73, 118
1, 48335, Note_on_c, 0, 71, 108
1, 48405, Note_off_c, 0, 71, 108
1, 48414, Note_on_c, 0, 69, 108
1, 48502, Note_off_c, 0, 69, 108
1, 48540, Note_on_c, 0, 67, 116
1, 48627, Note_off_c, 0, 67, 116
1, 48642, Note_on_c, 0, 65, 109
1, 48733, Note_off_c, 0, 65, 109
1, 48739, Note_on_c, 0, 64, 117
1, 48829, Note_off_c, 0, 64, 117
1, 48840, Note_on_c, 0, 62, 113
1, 48919, Note_off_c, 0, 62, 113
1, 48929, Note_on_c, 0, 61, 111
1, 49008, Note_off_c, 0, 61, 111
1, 49020, Note_on_c, 0, 62, 113
1, 49098, Note_off_c, 0, 62, 113
1, 49118, Note_on_c, 0, 64, 114
1, 49199, Note_off_c, 0, 64, 114
1, 49219, Note_on_c, 0, 65, 110
1, 49297, Note_off_c, 0, 65, 110
1, 49316, Note_on_c, 0, 69, 103
1, 49379, Note_off_c, 0, 69, 103
1, 49398, Note_on_c, 0, 67, 105
1, 49434, Note_off_c, 0, 67, 105
1, 49437, Note_on_c, 0, 69, 110
1, 49488, Note_off_c, 0, 69, 110
1, 49497, Note_on_c, 0, 67, 105
1, 49608, Note_off_c, 0, 67, 105
1, 49626, Note_on_c, 0, 64, 110
1, 49707, Note_off_c, 0, 64, 110
1, 49708, Note_on_c, 0, 67, 109
1, 49781, Note_off_c, 0, 67, 109
1, 49801, Note_on_c, 0, 65, 109
1, 49844, Note_off_c, 0, 65, 109
1, 49855, Note_on_c, 0, 67, 110
1, 49891, Note_off_c, 0, 67, 110
1, 49903, Note_on_c, 0, 65, 108
1, 49973, Note_off_c, 0, 65, 108
1, 49988, Note_on_c, 0, 62, 111
1, 50047, Note_off_c, 0, 62, 111
1, 50072, Note_on_c, 0, 65, 106
1, 50158, Note_off_c, 0, 65, 106
1, 50173, Note_on_c, 0, 64, 117
1, 50220, Note_off_c, 0, 64, 117
1, 50226, Note_on_c, 0, 65, 100
1, 50254, Note_off_c, 0, 65, 100
1, 50260, Note_on_c, 0, 64, 112
1, 50344, Note_off_c, 0, 64, 112
1, 50346, Note_on_c, 0, 60, 106
1, 50424, Note_off_c, 0, 60, 106
1, 50436, Note_on_c, 0, 64, 112
1, 50528, Note_off_c, 0, 64, 112
1, 50552, Note_on_c, 0, 67, 105
1, 50724, Note_off_c, 0, 67, 105
1, 50747, Note_on_c, 0, 64, 115
1, 50825, Note_off_c, 0, 64, 115
1, 50844, Note_on_c, 0, 69, 113
1, 50910, Note_off_c, 0, 69, 113
1, 50943, Note_on_c, 0, 67, 108
1, 51500, Note_off_c, 0, 67, 108
1, 51525, Note_on_c, 0, 64, 120
1, 51621, Note_off_c, 0, 64, 120
1, 51627, Note_on_c, 0, 63, 120
1, 51651, Note_off_c, 0, 63, 120
1, 52006, Note_on_c, 0, 65, 118
1, 52089, Note_off_c, 0, 65, 118
1, 52185, Note_on_c, 0, 62, 115
1, 52276, Note_off_c, 0, 62, 115
1, 52310, Note_on_c, 0, 65, 108
1, 52728, Note_off_c, 0, 65, 108
1, 52757, Note_on_c, 0, 62, 114
1, 52841, Note_off_c, 0, 62, 114
1, 52856, Note_on_c, 0, 59, 110
1, 52943, Note_off_c, 0, 59, 110
1, 52986, Note_on_c, 0, 59, 109
1, 53054, Note_off_c, 0, 59, 109
1, 53137, Note_on_c, 0, 62, 118
1, 53229, Note_off_c, 0, 62, 118
1, 53333, Note_on_c, 0, 60, 110
1, 53416, Note_off_c, 0, 60, 110
1, 53516, Note_on_c, 0, 64, 122
1, 53618, Note_off_c, 0, 64, 122
1, 53700, Note_on_c, 0, 60, 111
1, 53790, Note_off_c, 0, 60, 111
1, 53816, Note_on_c, 0, 55, 106
1, 54127, Note_off_c, 0, 55, 106
1, 54412, Note_on_c, 0, 49, 114
1, 54483, Note_off_c, 0, 49, 114
1, 54486, Note_on_c, 0, 52, 112
1, 54571, Note_off_c, 0, 52, 112
1, 54609, Note_on_c, 0, 57, 114
1, 54689, Note_off_c, 0, 57, 114
1, 54707, Note_on_c, 0, 55, 115
1, 54803, Note_off_c, 0, 55, 115
1, 54837, Note_on_c, 0, 53, 108
1, 55040, Note_off_c, 0, 53, 108
1, 55056, Note_on_c, 0, 57, 103
1, 55145, Note_off_c, 0, 57, 103
1, 55170, Note_on_c, 0, 62, 113
1, 55255, Note_off_c, 0, 62, 113
1, 55275, Note_on_c, 0, 65, 115
1, 55344, Note_off_c, 0, 65, 115
1, 55397, Note_on_c, 0, 69, 115
1, 55466, Note_off_c, 0, 69, 115
1, 55482, Note_on_c, 0, 66, 113
1, 55564, Note_off_c, 0, 66, 113
1, 55582, Note_on_c, 0, 67, 115
1, 55682, Note_off_c, 0, 67, 115
1, 55691, Note_on_c, 0, 64, 115
1, 55798, Note_off_c, 0, 64, 115
1, 55812, Note_on_c, 0, 60, 108
1, 55855, Note_off_c, 0, 60, 108
1, 55922, Note_on_c, 0, 65, 112
1, 56026, Note_off_c, 0, 65, 112
1, 56064, Note_on_c, 0, 62, 118
1, 56139, Note_off_c, 0, 62, 118
1, 56155, Note_on_c, 0, 59, 108
1, 56246, Note_off_c, 0, 59, 108
1, 56266, Note_on_c, 0, 60, 105
1, 56516, Note_off_c, 0, 60, 105
1, 56544, Note_on_c, 0, 55, 114
1, 56654, Note_off_c, 0, 55, 114
1, 56708, Note_on_c, 0, 52, 108
1, 56835, Note_off_c, 0, 52, 108
1, 56882, Note_on_c, 0, 55, 114
1, 57010, Note_off_c, 0, 55, 114
1, 57096, Note_on_c, 0, 64, 114
1, 57355, Note_off_c, 0, 64, 114
1, 57356, Note_on_c, 0, 63, 111
1, 57425, Note_off_c, 0, 63, 111
1, 57798, Note_on_c, 0, 65, 120
1, 57887, Note_off_c, 0, 65, 120
1, 57901, Note_on_c, 0, 62, 120
1, 57997, Note_off_c, 0, 62, 120
1, 58024, Note_on_c, 0, 62, 116
1, 58131, Note_off_c, 0, 62, 116
1, 58202, Note_on_c, 0, 62, 120
1, 58285, Note_off_c, 0, 62, 120
1, 58288, Note_on_c, 0, 64, 113
1, 58315, Note_off_c, 0, 64, 113
1, 58378, Note_on_c, 0, 64, 121
1, 58442, Note_off_c, 0, 64, 121
1, 58476, Note_on_c, 0, 65, 112
1, 58557, Note_off_c, 0, 65, 112
1, 58653, Note_on_c, 0, 67, 113
1, 58861, Note_off_c, 0, 67, 113
1, 58862, Note_on_c, 0, 66, 106
1, 59022, Note_on_c, 0, 65, 109
1, 59022, Note_off_c, 0, 66, 106
1, 59122, Note_off_c, 0, 65, 109
1, 59344, Note_on_c, 0, 65, 116
1, 59412, Note_off_c, 0, 65, 116
1, 59422, Note_on_c, 0, 64, 120
1, 59568, Note_off_c, 0, 64, 120
1, 59577, Note_on_c, 0, 62, 118
1, 59687, Note_off_c, 0, 62, 118
1, 59716, Note_on_c, 0, 60, 116
1, 59838, Note_off_c, 0, 60, 116
1, 59881, Note_on_c, 0, 62, 115
1, 59983, Note_off_c, 0, 62, 115
1, 60002, Note_on_c, 0, 64, 113
1, 60156, Note_off_c, 0, 64, 113
1, 60184, Note_on_c, 0, 61, 113
1, 60503, Note_off_c, 0, 61, 113
1, 60518, Note_on_c, 0, 60, 96
1, 60566, Note_off_c, 0, 60, 96
1, 60863, Note_on_c, 0, 64, 123
1, 60968, Note_off_c, 0, 64, 123
1, 60977, Note_on_c, 0, 65, 114
1, 61077, Note_off_c, 0, 65, 114
1, 61096, Note_on_c, 0, 64, 121
1, 61218, Note_off_c, 0, 64, 121
1, 61250, Note_on_c, 0, 62, 116
1, 61355, Note_off_c, 0, 62, 116
1, 61370, Note_on_c, 0, 60, 114
1, 61467, Note_off_c, 0, 60, 114
1, 61469, Note_on_c, 0, 62, 115
1, 61578, Note_off_c, 0, 62, 115
1, 61641, Note_on_c, 0, 64, 119
1, 61736, Note_off_c, 0, 64, 119
1, 61754, Note_on_c, 0, 59, 111
1, 61854, Note_off_c, 0, 59, 111
1, 61874, Note_on_c, 0, 57, 110
1, 61967, Note_off_c, 0, 57, 110
1, 62013, Note_on_c, 0, 55, 114
1, 62109, Note_off_c, 0, 55, 114
1, 62124, Note_on_c, 0, 53, 111
1, 62225, Note_off_c, 0, 53, 111
1, 62252, Note_on_c, 0, 53, 115
1, 62334, Note_off_c, 0, 53, 115
1, 62391, Note_on_c, 0, 53, 110
1, 62484, Note_off_c, 0, 53, 110
1, 62494, Note_on_c, 0, 52, 113
1, 62589, Note_off_c, 0, 52, 113
1, 62637, Note_on_c, 0, 55, 118
1, 62754, Note_off_c, 0, 55, 118
1, 62800, Note_on_c, 0, 60, 110
1, 62874, Note_off_c, 0, 60, 110
1, 62897, Note_on_c, 0, 62, 114
1, 63005, Note_off_c, 0, 62, 114
1, 63095, Note_on_c, 0, 60, 106
1, 63205, Note_off_c, 0, 60, 106
1, 63297, Note_on_c, 0, 64, 116
1, 63415, Note_off_c, 0, 64, 116
1, 63422, Note_on_c, 0, 62, 114
1, 63510, Note_off_c, 0, 62, 114
1, 63522, Note_on_c, 0, 60, 109
1, 63654, Note_off_c, 0, 60, 109
1, 63657, Note_on_c, 0, 62, 113
1, 63758, Note_off_c, 0, 62, 113
1, 63813, Note_on_c, 0, 64, 118
1, 63931, Note_off_c, 0, 64, 118
1, 63991, Note_on_c, 0, 60, 109
1, 64301, Note_off_c, 0, 60, 109
1, 64369, Note_on_c, 0, 55, 116
1, 64439, Note_off_c, 0, 55, 116
1, 64449, Note_on_c, 0, 60, 105
1, 64531, Note_off_c, 0, 60, 105
1, 64658, Note_on_c, 0, 64, 118
1, 64772, Note_off_c, 0, 64, 118
1, 65124, Note_on_c, 0, 65, 118
1, 65202, Note_off_c, 0, 65, 118
1, 65245, Note_on_c, 0, 65, 117
1, 65323, Note_off_c, 0, 65, 117
1, 65326, Note_on_c, 0, 62, 114
1, 65385, Note_off_c, 0, 62, 114
1, 65412, Note_on_c, 0, 59, 109
1, 65503, Note_off_c, 0, 59, 109
1, 65508, Note_on_c, 0, 55, 100
1, 65578, Note_off_c, 0, 55, 100
1, 65599, Note_on_c, 0, 60, 114
1, 65703, Note_off_c, 0, 60, 114
1, 65709, Note_on_c, 0, 55, 104
1, 65757, Note_off_c, 0, 55, 104
1, 65775, Note_on_c, 0, 60, 111
1, 65871, Note_off_c, 0, 60, 111
1, 65876, Note_on_c, 0, 64, 120
1, 65950, Note_off_c, 0, 64, 120
1, 65971, Note_on_c, 0, 67, 116
1, 66054, Note_off_c, 0, 67, 116
1, 66100, Note_on_c, 0, 64, 99
1, 66129, Note_off_c, 0, 64, 99
1, 66154, Note_on_c, 0, 61, 106
1, 66233, Note_off_c, 0, 61, 106
1, 66258, Note_on_c, 0, 67, 105
1, 66326, Note_off_c, 0, 67, 105
1, 66333, Note_on_c, 0, 65, 114
1, 66426, Note_off_c, 0, 65, 114
1, 66435, Note_on_c, 0, 64, 118
1, 66539, Note_off_c, 0, 64, 118
1, 66549, Note_on_c, 0, 62, 113
1, 66650, Note_off_c, 0, 62, 113
1, 66673, Note_on_c, 0, 60, 99
1, 66743, Note_off_c, 0, 60, 99
1, 66744, Note_on_c, 0, 61, 115
1, 66840, Note_off_c, 0, 61, 115
1, 66840, Note_on_c, 0, 58, 110
1, 66926, Note_off_c, 0, 58, 110
1, 66933, Note_on_c, 0, 57, 110
1, 67029, Note_off_c, 0, 57, 110
1, 67036, Note_on_c, 0, 55, 103
1, 67129, Note_off_c, 0, 55, 103
1, 67145, Note_on_c, 0, 52, 107
1, 67233, Note_off_c, 0, 52, 107
1, 67248, Note_on_c, 0, 53, 101
1, 67316, Note_off_c, 0, 53, 101
1, 67323, Note_on_c, 0, 55, 109
1, 67407, Note_off_c, 0, 55, 109
1, 67427, Note_on_c, 0, 57, 104
1, 67510, Note_off_c, 0, 57, 104
1, 67535, Note_on_c, 0, 50, 108
1, 67699, Note_off_c, 0, 50, 108
1, 68103, Note_on_c, 0, 49, 116
1, 68157, Note_off_c, 0, 49, 116
1, 68180, Note_on_c, 0, 55, 109
1, 68235, Note_off_c, 0, 55, 109
1, 68240, Note_on_c, 0, 57, 114
1, 68290, Note_off_c, 0, 57, 114
1, 68305, Note_on_c, 0, 48, 114
1, 68368, Note_off_c, 0, 48, 114
1, 68386, Note_on_c, 0, 57, 105
1, 68441, Note_off_c, 0, 57, 105
1, 68448, Note_on_c, 0, 55, 117
1, 68507, Note_off_c, 0, 55, 117
1, 68508, Note_on_c, 0, 59, 107
1, 68594, Note_off_c, 0, 59, 107
1, 68604, Note_on_c, 0, 60, 106
1, 68649, Note_off_c, 0, 60, 106
1, 68650, Note_on_c, 0, 62, 110
1, 68698, Note_off_c, 0, 62, 110
1, 68708, Note_on_c, 0, 64, 118
1, 68764, Note_off_c, 0, 64, 118
1, 68771, Note_on_c, 0, 60, 107
1, 68826, Note_off_c, 0, 60, 107
1, 68854, Note_on_c, 0, 55, 104
1, 68901, Note_off_c, 0, 55, 104
1, 68929, Note_on_c, 0, 53, 108
1, 69016, Note_off_c, 0, 53, 108
1, 69025, Note_on_c, 0, 52, 112
1, 69100, Note_off_c, 0, 52, 112
1, 69103, Note_on_c, 0, 53, 108
1, 69289, Note_off_c, 0, 53, 108
1, 69548, Note_on_c, 0, 52, 109
1, 69589, Note_off_c, 0, 52, 109
1, 69604, Note_on_c, 0, 55, 112
1, 69686, Note_off_c, 0, 55, 112
1, 69686, Note_on_c, 0, 60, 107
1, 69732, Note_off_c, 0, 60, 107
1, 69735, Note_on_c, 0, 62, 120
1, 69781, Note_off_c, 0, 62, 120
1, 69795, Note_on_c, 0, 64, 118
1, 69870, Note_off_c, 0, 64, 118
1, 69872, Note_on_c, 0, 65, 114
1, 69946, Note_off_c, 0, 65, 114
1, 69952, Note_on_c, 0, 66, 112
1, 69984, Note_off_c, 0, 66, 112
1, 69998, Note_on_c, 0, 67, 114
1, 70108, Note_off_c, 0, 67, 114
1, 70128, Note_on_c, 0, 64, 111
1, 70205, Note_off_c, 0, 64, 111
1, 70208, Note_on_c, 0, 65, 116
1, 70319, Note_off_c, 0, 65, 116
1, 70321, Note_on_c, 0, 69, 117
1, 70422, Note_off_c, 0, 69, 117
1, 70533, Note_on_c, 0, 71, 113
1, 70586, Note_off_c, 0, 71, 113
1, 70591, Note_on_c, 0, 72, 116
1, 70696, Note_off_c, 0, 72, 116
1, 70718, Note_on_c, 0, 69, 108
1, 70756, Note_off_c, 0, 69, 108
1, 70795, Note_on_c, 0, 72, 112
1, 70885, Note_off_c, 0, 72, 112
1, 70892, Note_on_c, 0, 69, 113
1, 70983, Note_off_c, 0, 69, 113
1, 70990, Note_on_c, 0, 65, 111
1, 71058, Note_off_c, 0, 65, 111
1, 71083, Note_on_c, 0, 62, 110
1, 71160, Note_off_c, 0, 62, 110
1, 71167, Note_on_c, 0, 57, 104
1, 71244, Note_off_c, 0, 57, 104
1, 71273, Note_on_c, 0, 55, 103
1, 71364, Note_off_c, 0, 55, 103
1, 71374, Note_on_c, 0, 59, 106
1, 71447, Note_off_c, 0, 59, 106
1, 71463, Note_on_c, 0, 60, 101
1, 71545, Note_off_c, 0, 60, 101
1, 71557, Note_on_c, 0, 62, 113
1, 71653, Note_off_c, 0, 62, 113
1, 71660, Note_on_c, 0, 64, 117
1, 71732, Note_off_c, 0, 64, 117
1, 71737, Note_on_c, 0, 60, 108
1, 71819, Note_off_c, 0, 60, 108
1, 71835, Note_on_c, 0, 62, 112
1, 71914, Note_off_c, 0, 62, 112
1, 71932, Note_on_c, 0, 64, 114
1, 72011, Note_off_c, 0, 64, 114
1, 72047, Note_on_c, 0, 65, 109
1, 72081, Note_off_c, 0, 65, 109
1, 72119, Note_on_c, 0, 67, 106
1, 72290, Note_off_c, 0, 67, 106
1, 72314, Note_on_c, 0, 64, 115
1, 72413, Note_on_c, 0, 67, 111
1, 72413, Note_off_c, 0, 64, 115
1, 72496, Note_off_c, 0, 67, 111
1, 72512, Note_on_c, 0, 67, 115
1, 72612, Note_off_c, 0, 67, 115
1, 72632, Note_on_c, 0, 69, 112
1, 72692, Note_off_c, 0, 69, 112
1, 72697, Note_on_c, 0, 70, 116
1, 72777, Note_off_c, 0, 70, 116
1, 72813, Note_on_c, 0, 67, 104
1, 72885, Note_off_c, 0, 67, 104
1, 72891, Note_on_c, 0, 66, 111
1, 72982, Note_off_c, 0, 66, 111
1, 72991, Note_on_c, 0, 61, 108
1, 73072, Note_off_c, 0, 61, 108
1, 73090, Note_on_c, 0, 58, 102
1, 73152, Note_off_c, 0, 58, 102
1, 73165, Note_on_c, 0, 54, 104
1, 73209, Note_off_c, 0, 54, 104
1, 73259, Note_on_c, 0, 64, 116
1, 73355, Note_off_c, 0, 64, 116
1, 73361, Note_on_c, 0, 65, 107
1, 73551, Note_off_c, 0, 65, 107
1, 73578, Note_on_c, 0, 67, 105
1, 73651, Note_off_c, 0, 67, 105
1, 73663, Note_on_c, 0, 64, 119
1, 73745, Note_off_c, 0, 64, 119
1, 73768, Note_on_c, 0, 60, 106
1, 73816, Note_off_c, 0, 60, 106
1, 73853, Note_on_c, 0, 57, 106
1, 73944, Note_off_c, 0, 57, 106
1, 73958, Note_on_c, 0, 53, 103
1, 74012, Note_off_c, 0, 53, 103
1, 74030, Note_on_c, 0, 59, 104
1, 74150, Note_off_c, 0, 59, 104
1, 74151, Note_on_c, 0, 57, 108
1, 74212, Note_off_c, 0, 57, 108
1, 74233, Note_on_c, 0, 55, 114
1, 74314, Note_off_c, 0, 55, 114
1, 74335, Note_on_c, 0, 52, 105
1, 74392, Note_off_c, 0, 52, 105
1, 74408, Note_on_c, 0, 53, 102
1, 74480, Note_off_c, 0, 53, 102
1, 74507, Note_on_c, 0, 62, 113
1, 74577, Note_off_c, 0, 62, 113
1, 74602, Note_on_c, 0, 59, 107
1, 74685, Note_off_c, 0, 59, 107
1, 74696, Note_on_c, 0, 55, 97
1, 74769, Note_off_c, 0, 55, 97
1, 74781, Note_on_c, 0, 60, 104
1, 74858, Note_off_c, 0, 60, 104
1, 74887, Note_on_c, 0, 62, 111
1, 74952, Note_off_c, 0, 62, 111
1, 74958, Note_on_c, 0, 64, 115
1, 75049, Note_off_c, 0, 64, 115
1, 75091, Note_on_c, 0, 67, 109
1, 75164, Note_off_c, 0, 67, 109
1, 75548, Note_on_c, 0, 69, 115
1, 75657, Note_off_c, 0, 69, 115
1, 75668, Note_on_c, 0, 67, 106
1, 75719, Note_off_c, 0, 67, 106
1, 75724, Note_on_c, 0, 69, 113
1, 75829, Note_off_c, 0, 69, 113
1, 75839, Note_on_c, 0, 67, 115
1, 75920, Note_off_c, 0, 67, 115
1, 75920, Note_on_c, 0, 64, 121
1, 76021, Note_off_c, 0, 64, 121
1, 76024, Note_on_c, 0, 60, 106
1, 76107, Note_off_c, 0, 60, 106
1, 76113, Note_on_c, 0, 58, 110
1, 76205, Note_off_c, 0, 58, 110
1, 76235, Note_on_c, 0, 53, 106
1, 76308, Note_off_c, 0, 53, 106
1, 76311, Note_on_c, 0, 57, 113
1, 76397, Note_off_c, 0, 57, 113
1, 76412, Note_on_c, 0, 60, 115
1, 76502, Note_off_c, 0, 60, 115
1, 76512, Note_on_c, 0, 62, 107
1, 76590, Note_off_c, 0, 62, 107
1, 76617, Note_on_c, 0, 64, 110
1, 76681, Note_off_c, 0, 64, 110
1, 76681, Note_on_c, 0, 67, 116
1, 76781, Note_off_c, 0, 67, 116
1, 76806, Note_on_c, 0, 65, 113
1, 76875, Note_off_c, 0, 65, 113
1, 76894, Note_on_c, 0, 60, 104
1, 76972, Note_off_c, 0, 60, 104
1, 76981, Note_on_c, 0, 62, 107
1, 77059, Note_off_c, 0, 62, 107
1, 77073, Note_on_c, 0, 64, 120
1, 77165, Note_off_c, 0, 64, 120
1, 77174, Note_on_c, 0, 60, 109
1, 77251, Note_off_c, 0, 60, 109
1, 77261, Note_on_c, 0, 55, 115
1, 77348, Note_off_c, 0, 55, 115
1, 77354, Note_on_c, 0, 52, 111
1, 77437, Note_off_c, 0, 52, 111
1, 77438, Note_on_c, 0, 53, 110
1, 77529, Note_off_c, 0, 53, 110
1, 77530, Note_on_c, 0, 55, 103
1, 77575, Note_off_c, 0, 55, 103
1, 77586, Note_on_c, 0, 57, 106
1, 77631, Note_off_c, 0, 57, 106
1, 77663, Note_on_c, 0, 59, 108
1, 77745, Note_off_c, 0, 59, 108
1, 77746, Note_on_c, 0, 62, 116
1, 77824, Note_off_c, 0, 62, 116
1, 77830, Note_on_c, 0, 60, 105
1, 77920, Note_off_c, 0, 60, 105
1, 77939, Note_on_c, 0, 55, 117
1, 78008, Note_off_c, 0, 55, 117
1, 78019, Note_on_c, 0, 60, 106
1, 78103, Note_off_c, 0, 60, 106
1, 78121, Note_on_c, 0, 62, 115
1, 78209, Note_off_c, 0, 62, 115
1, 78211, Note_on_c, 0, 64, 115
1, 78301, Note_off_c, 0, 64, 115
1, 78321, Note_on_c, 0, 59, 98
1, 78402, Note_off_c, 0, 59, 98
1, 78411, Note_on_c, 0, 60, 103
1, 78479, Note_off_c, 0, 60, 103
1, 78500, Note_on_c, 0, 64, 117
1, 78574, Note_off_c, 0, 64, 117
1, 78590, Note_on_c, 0, 59, 101
1, 78672, Note_off_c, 0, 59, 101
1, 78688, Note_on_c, 0, 64, 115
1, 78765, Note_off_c, 0, 64, 115
1, 78777, Note_on_c, 0, 58, 109
1, 78846, Note_off_c, 0, 58, 109
1, 78876, Note_on_c, 0, 61, 108
1, 78940, Note_off_c, 0, 61, 108
1, 78969, Note_on_c, 0, 55, 108
1, 79047, Note_off_c, 0, 55, 108
1, 79072, Note_on_c, 0, 58, 106
1, 79138, Note_off_c, 0, 58, 106
1, 79162, Note_on_c, 0, 52, 114
1, 79252, Note_off_c, 0, 52, 114
1, 79264, Note_on_c, 0, 58, 112
1, 79327, Note_off_c, 0, 58, 112
1, 79342, Note_on_c, 0, 58, 109
1, 79423, Note_off_c, 0, 58, 109
1, 79443, Note_on_c, 0, 57, 116
1, 79517, Note_off_c, 0, 57, 116
1, 79538, Note_on_c, 0, 57, 111
1, 79625, Note_off_c, 0, 57, 111
1, 79636, Note_on_c, 0, 55, 104
1, 79709, Note_off_c, 0, 55, 104
1, 79738, Note_on_c, 0, 55, 116
1, 79810, Note_off_c, 0, 55, 116
1, 79833, Note_on_c, 0, 53, 114
1, 79889, Note_off_c, 0, 53, 114
1, 79903, Note_on_c, 0, 53, 113
1, 79977, Note_off_c, 0, 53, 113
1, 80000, Note_on_c, 0, 52, 109
1, 80068, Note_off_c, 0, 52, 109
1, 80087, Note_on_c, 0, 52, 116
1, 80166, Note_off_c, 0, 52, 116
1, 80202, Note_on_c, 0, 50, 103
1, 80267, Note_off_c, 0, 50, 103
1, 80553, Note_on_c, 0, 66, 115
1, 80587, Note_off_c, 0, 66, 115
1, 80588, Note_on_c, 0, 67, 115
1, 81107, Note_off_c, 0, 67, 115
1, 81133, Note_on_c, 0, 64, 85
1, 81169, Note_off_c, 0, 64, 85
1, 81207, Note_on_c, 0, 69, 108
1, 81302, Note_off_c, 0, 69, 108
1, 81308, Note_on_c, 0, 66, 104
1, 81383, Note_off_c, 0, 66, 104
1, 81394, Note_on_c, 0, 67, 109
1, 81494, Note_off_c, 0, 67, 109
1, 81518, Note_on_c, 0, 65, 112
1, 81583, Note_off_c, 0, 65, 112
1, 81583, Note_on_c, 0, 64, 119
1, 81679, Note_off_c, 0, 64, 119
1, 81711, Note_on_c, 0, 67, 101
1, 81744, Note_off_c, 0, 67, 101
1, 81771, Note_on_c, 0, 72, 114
1, 81886, Note_off_c, 0, 72, 114
1, 81927, Note_on_c, 0, 67, 107
1, 81973, Note_off_c, 0, 67, 107
1, 81987, Note_on_c, 0, 70, 110
1, 82070, Note_off_c, 0, 70, 110
1, 82077, Note_on_c, 0, 67, 109
1, 82149, Note_off_c, 0, 67, 109
1, 82179, Note_on_c, 0, 68, 102
1, 82211, Note_off_c, 0, 68, 102
1, 82225, Note_on_c, 0, 67, 104
1, 82263, Note_off_c, 0, 67, 104
1, 82282, Note_on_c, 0, 69, 111
1, 82435, Note_off_c, 0, 69, 111
1, 82472, Note_on_c, 0, 69, 111
1, 82567, Note_off_c, 0, 69, 111
1, 82569, Note_on_c, 0, 65, 106
1, 82646, Note_off_c, 0, 65, 106
1, 82673, Note_on_c, 0, 64, 92
1, 82732, Note_off_c, 0, 64, 92
1, 82748, Note_on_c, 0, 67, 112
1, 82844, Note_off_c, 0, 67, 112
1, 82854, Note_on_c, 0, 65, 111
1, 82917, Note_off_c, 0, 65, 111
1, 82938, Note_on_c, 0, 60, 108
1, 83028, Note_off_c, 0, 60, 108
1, 83031, Note_on_c, 0, 55, 127
1, 83086, Note_off_c, 0, 55, 127
1, 83111, Note_on_c, 0, 64, 113
1, 83198, Note_off_c, 0, 64, 113
1, 83213, Note_on_c, 0, 67, 110
1, 83263, Note_off_c, 0, 67, 110
1, 83290, Note_on_c, 0, 67, 112
1, 83378, Note_off_c, 0, 67, 112
1, 83411, Note_on_c, 0, 64, 111
1, 83485, Note_off_c, 0, 64, 111
1, 83494, Note_on_c, 0, 65, 112
1, 83581, Note_off_c, 0, 65, 112
1, 83605, Note_on_c, 0, 62, 109
1, 83664, Note_off_c, 0, 62, 109
1, 83694, Note_on_c, 0, 59, 108
1, 83768, Note_off_c, 0, 59, 108
1, 83791, Note_on_c, 0, 55, 113
1, 83856, Note_off_c, 0, 55, 113
1, 83865, Note_on_c, 0, 60, 106
1, 83937, Note_off_c, 0, 60, 106
1, 83956, Note_on_c, 0, 55, 120
1, 84020, Note_off_c, 0, 55, 120
1, 84035, Note_on_c, 0, 60, 107
1, 84114, Note_off_c, 0, 60, 107
1, 84134, Note_on_c, 0, 64, 111
1, 84220, Note_off_c, 0, 64, 111
1, 84234, Note_on_c, 0, 67, 113
1, 84416, Note_off_c, 0, 67, 113
1, 84700, Note_on_c, 0, 55, 113
1, 84774, Note_off_c, 0, 55, 113
1, 84792, Note_on_c, 0, 61, 113
1, 84873, Note_off_c, 0, 61, 113
1, 84892, Note_on_c, 0, 67, 120
1, 84964, Note_off_c, 0, 67, 120
1, 84984, Note_on_c, 0, 65, 113
1, 85050, Note_off_c, 0, 65, 113
1, 85066, Note_on_c, 0, 64, 123
1, 85150, Note_off_c, 0, 64, 123
1, 85160, Note_on_c, 0, 61, 114
1, 85243, Note_off_c, 0, 61, 114
1, 85255, Note_on_c, 0, 55, 123
1, 85333, Note_off_c, 0, 55, 123
1, 85344, Note_on_c, 0, 62, 116
1, 85432, Note_off_c, 0, 62, 116
1, 85450, Note_on_c, 0, 58, 105
1, 85532, Note_off_c, 0, 58, 105
1, 85532, Note_on_c, 0, 62, 116
1, 85616, Note_off_c, 0, 62, 116
1, 85623, Note_on_c, 0, 64, 118
1, 85698, Note_off_c, 0, 64, 118
1, 85709, Note_on_c, 0, 65, 114
1, 85791, Note_off_c, 0, 65, 114
1, 85797, Note_on_c, 0, 64, 115
1, 85885, Note_off_c, 0, 64, 115
1, 85897, Note_on_c, 0, 62, 116
1, 85984, Note_off_c, 0, 62, 116
1, 86003, Note_on_c, 0, 60, 106
1, 86076, Note_off_c, 0, 60, 106
1, 86085, Note_on_c, 0, 59, 111
1, 86167, Note_off_c, 0, 59, 111
1, 86186, Note_on_c, 0, 67, 114
1, 86259, Note_off_c, 0, 67, 114
1, 86275, Note_on_c, 0, 55, 107
1, 86334, Note_off_c, 0, 55, 107
1, 86391, Note_on_c, 0, 62, 105
1, 86446, Note_off_c, 0, 62, 105
1, 86471, Note_on_c, 0, 65, 107
1, 86527, Note_off_c, 0, 65, 107
1, 86557, Note_on_c, 0, 66, 104
1, 86630, Note_off_c, 0, 66, 104
1, 86641, Note_on_c, 0, 65, 103
1, 86835, Note_off_c, 0, 65, 103
1, 86846, Note_on_c, 0, 64, 115
1, 86938, Note_off_c, 0, 64, 115
1, 86949, Note_on_c, 0, 60, 109
1, 87010, Note_off_c, 0, 60, 109
1, 87011, Note_on_c, 0, 55, 105
1, 87099, Note_off_c, 0, 55, 105
1, 87133, Note_on_c, 0, 52, 105
1, 87212, Note_off_c, 0, 52, 105
1, 87214, Note_on_c, 0, 53, 108
1, 87408, Note_off_c, 0, 53, 108
1, 87431, Note_on_c, 0, 62, 112
1, 87455, Note_off_c, 0, 62, 112
1, 87892, Note_on_c, 0, 68, 116
1, 87978, Note_off_c, 0, 68, 116
1, 87983, Note_on_c, 0, 69, 115
1, 88178, Note_off_c, 0, 69, 115
1, 88183, Note_on_c, 0, 67, 117
1, 88264, Note_off_c, 0, 67, 117
1, 88372, Note_on_c, 0, 72, 119
1, 88451, Note_off_c, 0, 72, 119
1, 88569, Note_on_c, 0, 60, 116
1, 88652, Note_off_c, 0, 60, 116
1, 88733, Note_on_c, 0, 63, 116
1, 88848, Note_off_c, 0, 63, 116
1, 88859, Note_on_c, 0, 64, 120
1, 88960, Note_off_c, 0, 64, 120
1, 89034, Note_on_c, 0, 65, 114
1, 89116, Note_off_c, 0, 65, 114
1, 89239, Note_on_c, 0, 66, 114
1, 89348, Note_off_c, 0, 66, 114
1, 89425, Note_on_c, 0, 67, 115
1, 89511, Note_off_c, 0, 67, 115
1, 89602, Note_on_c, 0, 55, 112
1, 89677, Note_off_c, 0, 55, 112
1, 89705, Note_on_c, 0, 59, 104
1, 89765, Note_off_c, 0, 59, 104
1, 89803, Note_on_c, 0, 65, 107
1, 89876, Note_off_c, 0, 65, 107
1, 89882, Note_on_c, 0, 64, 121
1, 89978, Note_off_c, 0, 64, 121
1, 89986, Note_on_c, 0, 60, 111
1, 90062, Note_off_c, 0, 60, 111
1, 90074, Note_on_c, 0, 55, 121
1, 90148, Note_off_c, 0, 55, 121
1, 90180, Note_on_c, 0, 53, 107
1, 90248, Note_off_c, 0, 53, 107
1, 90256, Note_on_c, 0, 60, 110
1, 90333, Note_off_c, 0, 60, 110
1, 90354, Note_on_c, 0, 62, 115
1, 90426, Note_off_c, 0, 62, 115
1, 90439, Note_on_c, 0, 64, 110
1, 90531, Note_off_c, 0, 64, 110
1, 90547, Note_on_c, 0, 67, 106
1, 90588, Note_off_c, 0, 67, 106
1, 90631, Note_on_c, 0, 61, 112
1, 90718, Note_off_c, 0, 61, 112
1, 90733, Note_on_c, 0, 64, 120
1, 90798, Note_off_c, 0, 64, 120
1, 90814, Note_on_c, 0, 67, 114
1, 90914, Note_off_c, 0, 67, 114
1, 90951, Note_on_c, 0, 70, 109
1, 90993, Note_off_c, 0, 70, 109
1, 91013, Note_on_c, 0, 69, 112
1, 91097, Note_off_c, 0, 69, 112
1, 91209, Note_on_c, 0, 63, 115
1, 91309, Note_off_c, 0, 63, 115
1, 91319, Note_on_c, 0, 64, 116
1, 91390, Note_off_c, 0, 64, 116
1, 91400, Note_on_c, 0, 67, 114
1, 91488, Note_off_c, 0, 67, 114
1, 91513, Note_on_c, 0, 64, 113
1, 91588, Note_off_c, 0, 64, 113
1, 91598, Note_on_c, 0, 65, 108
1, 91675, Note_off_c, 0, 65, 108
1, 91704, Note_on_c, 0, 72, 111
1, 91738, Note_off_c, 0, 72, 111
1, 91739, Note_on_c, 0, 71, 118
1, 91770, Note_off_c, 0, 71, 118
1, 91780, Note_on_c, 0, 64, 115
1, 91882, Note_off_c, 0, 64, 115
1, 91905, Note_on_c, 0, 62, 115
1, 91964, Note_off_c, 0, 62, 115
1, 92087, Note_on_c, 0, 60, 101
1, 92150, Note_off_c, 0, 60, 101
1, 92158, Note_on_c, 0, 59, 108
1, 92250, Note_off_c, 0, 59, 108
1, 92272, Note_on_c, 0, 62, 112
1, 92342, Note_off_c, 0, 62, 112
1, 92364, Note_on_c, 0, 57, 101
1, 92460, Note_off_c, 0, 57, 101
1, 92489, Note_on_c, 0, 55, 103
1, 92558, Note_off_c, 0, 55, 103
1, 92563, Note_on_c, 0, 53, 110
1, 92639, Note_off_c, 0, 53, 110
1, 92737, Note_on_c, 0, 64, 112
1, 92814, Note_off_c, 0, 64, 112
1, 92826, Note_on_c, 0, 65, 109
1, 92900, Note_off_c, 0, 65, 109
1, 92910, Note_on_c, 0, 64, 113
1, 93000, Note_off_c, 0, 64, 113
1, 93025, Note_on_c, 0, 60, 110
1, 93082, Note_off_c, 0, 60, 110
1, 93109, Note_on_c, 0, 55, 107
1, 93196, Note_off_c, 0, 55, 107
1, 93219, Note_on_c, 0, 52, 104
1, 93284, Note_off_c, 0, 52, 104
1, 93296, Note_on_c, 0, 53, 111
1, 93398, Note_off_c, 0, 53, 111
1, 93489, Note_on_c, 0, 67, 112
1, 93577, Note_off_c, 0, 67, 112
1, 93597, Note_on_c, 0, 64, 109
1, 93649, Note_off_c, 0, 64, 109
1, 93672, Note_on_c, 0, 67, 110
1, 93765, Note_off_c, 0, 67, 110
1, 93856, Note_on_c, 0, 69, 109
1, 93969, Note_off_c, 0, 69, 109
1, 94017, Note_on_c, 0, 66, 105
1, 94058, Note_off_c, 0, 66, 105
1, 94069, Note_on_c, 0, 67, 108
1, 94177, Note_off_c, 0, 67, 108
1, 94252, Note_on_c, 0, 64, 111
1, 94343, Note_off_c, 0, 64, 111
1, 94362, Note_on_c, 0, 60, 101
1, 94423, Note_off_c, 0, 60, 101
1, 94447, Note_on_c, 0, 64, 106
1, 94522, Note_off_c, 0, 64, 106
1, 94556, Note_on_c, 0, 65, 101
1, 94697, Note_off_c, 0, 65, 101
1, 94725, Note_on_c, 0, 64, 120
1, 94811, Note_off_c, 0, 64, 120
1, 94817, Note_on_c, 0, 63, 119
1, 94862, Note_off_c, 0, 63, 119
1, 95295, Note_on_c, 0, 60, 114
1, 95381, Note_off_c, 0, 60, 114
1, 95391, Note_on_c, 0, 57, 105
1, 95463, Note_off_c, 0, 57, 105
1, 95577, Note_on_c, 0, 67, 121
1, 95676, Note_off_c, 0, 67, 121
1, 95764, Note_on_c, 0, 57, 115
1, 95791, Note_off_c, 0, 57, 115
1, 95800, Note_on_c, 0, 60, 114
1, 95887, Note_off_c, 0, 60, 114
1, 95897, Note_on_c, 0, 57, 104
1, 95965, Note_off_c, 0, 57, 104
1, 95971, Note_on_c, 0, 64, 119
1, 96094, Note_off_c, 0, 64, 119
1, 96126, Note_on_c, 0, 62, 102
1, 96158, Note_off_c, 0, 62, 102
1, 96163, Note_on_c, 0, 64, 117
1, 96233, Note_off_c, 0, 64, 117
1, 96253, Note_on_c, 0, 64, 121
1, 96349, Note_off_c, 0, 64, 121
1, 96355, Note_on_c, 0, 60, 111
1, 96410, Note_off_c, 0, 60, 111
1, 96449, Note_on_c, 0, 55, 110
1, 96522, Note_off_c, 0, 55, 110
1, 96550, Note_on_c, 0, 52, 113
1, 96600, Note_off_c, 0, 52, 113
1, 96620, Note_on_c, 0, 54, 99
1, 96653, Note_off_c, 0, 54, 99
1, 96669, Note_on_c, 0, 57, 102
1, 96703, Note_off_c, 0, 57, 102
1, 96705, Note_on_c, 0, 61, 113
1, 96802, Note_off_c, 0, 61, 113
1, 96832, Note_on_c, 0, 57, 98
1, 96897, Note_off_c, 0, 57, 98
1, 96912, Note_on_c, 0, 61, 118
1, 96993, Note_off_c, 0, 61, 118
1, 97032, Note_on_c, 0, 68, 111
1, 97083, Note_off_c, 0, 68, 111
1, 97101, Note_on_c, 0, 64, 121
1, 97184, Note_off_c, 0, 64, 121
1, 97204, Note_on_c, 0, 61, 111
1, 97279, Note_off_c, 0, 61, 111
1, 97300, Note_on_c, 0, 57, 109
1, 97384, Note_off_c, 0, 57, 109
1, 97418, Note_on_c, 0, 52, 101
1, 97457, Note_off_c, 0, 52, 101
1, 97480, Note_on_c, 0, 57, 108
1, 97566, Note_off_c, 0, 57, 108
1, 97774, Note_on_c, 0, 62, 116
1, 97861, Note_off_c, 0, 62, 116
1, 97942, Note_on_c, 0, 57, 102
1, 97998, Note_off_c, 0, 57, 102
1, 98010, Note_on_c, 0, 65, 106
1, 98211, Note_off_c, 0, 65, 106
1, 98347, Note_on_c, 0, 62, 117
1, 98417, Note_off_c, 0, 62, 117
1, 98432, Note_on_c, 0, 60, 103
1, 98509, Note_off_c, 0, 60, 103
1, 98554, Note_on_c, 0, 57, 106
1, 98592, Note_off_c, 0, 57, 106
1, 98617, Note_on_c, 0, 59, 109
1, 98703, Note_off_c, 0, 59, 109
1, 98718, Note_on_c, 0, 57, 109
1, 98788, Note_off_c, 0, 57, 109
1, 98807, Note_on_c, 0, 55, 107
1, 98884, Note_off_c, 0, 55, 107
1, 98902, Note_on_c, 0, 57, 109
1, 98977, Note_off_c, 0, 57, 109
1, 98987, Note_on_c, 0, 52, 104
1, 99060, Note_off_c, 0, 52, 104
1, 99068, Note_on_c, 0, 55, 109
1, 99158, Note_off_c, 0, 55, 109
1, 99174, Note_on_c, 0, 48, 109
1, 99249, Note_off_c, 0, 48, 109
1, 99271, Note_on_c, 0, 53, 96
1, 99327, Note_off_c, 0, 53, 96
1, 99368, Note_on_c, 0, 64, 109
1, 99445, Note_off_c, 0, 64, 109
1, 99551, Note_on_c, 0, 67, 115
1, 99634, Note_off_c, 0, 67, 115
1, 99735, Note_on_c, 0, 60, 95
1, 99943, Note_off_c, 0, 60, 95
1, 100027, Note_on_c, 0, 60, 113
1, 100100, Note_off_c, 0, 60, 113
1, 100127, Note_on_c, 0, 64, 113
1, 100217, Note_off_c, 0, 64, 113
1, 100330, Note_on_c, 0, 67, 117
1, 100422, Note_off_c, 0, 67, 117
1, 100513, Note_on_c, 0, 72, 108
1, 100695, Note_off_c, 0, 72, 108
1, 100711, Note_on_c, 0, 69, 97
1, 100807, Note_off_c, 0, 69, 97
1, 100826, Note_on_c, 0, 65, 114
1, 100887, Note_off_c, 0, 65, 114
1, 100993, Note_on_c, 0, 62, 118
1, 101059, Note_off_c, 0, 62, 118
1, 101082, Note_on_c, 0, 69, 113
1, 101148, Note_off_c, 0, 69, 113
1, 101186, Note_on_c, 0, 72, 111
1, 101267, Note_off_c, 0, 72, 111
1, 101287, Note_on_c, 0, 71, 109
1, 101369, Note_off_c, 0, 71, 109
1, 101388, Note_on_c, 0, 70, 111
1, 101416, Note_off_c, 0, 70, 111
1, 101424, Note_on_c, 0, 71, 114
1, 101466, Note_off_c, 0, 71, 114
1, 101472, Note_on_c, 0, 67, 111
1, 101527, Note_off_c, 0, 67, 111
1, 101546, Note_on_c, 0, 71, 105
1, 101632, Note_off_c, 0, 71, 105
1, 101650, Note_on_c, 0, 69, 112
1, 101842, Note_off_c, 0, 69, 112
1, 101849, Note_on_c, 0, 65, 107
1, 101914, Note_off_c, 0, 65, 107
1, 101930, Note_on_c, 0, 69, 112
1, 102000, Note_off_c, 0, 69, 112
1, 102010, Note_on_c, 0, 67, 113
1, 102058, Note_off_c, 0, 67, 113
1, 102058, Note_on_c, 0, 69, 116
1, 102092, Note_off_c, 0, 69, 116
1, 102119, Note_on_c, 0, 67, 108
1, 102191, Note_off_c, 0, 67, 108
1, 102202, Note_on_c, 0, 64, 110
1, 102298, Note_off_c, 0, 64, 110
1, 102298, Note_on_c, 0, 60, 105
1, 102355, Note_off_c, 0, 60, 105
1, 102382, Note_on_c, 0, 55, 105
1, 102469, Note_off_c, 0, 55, 105
1, 102488, Note_on_c, 0, 60, 105
1, 102553, Note_off_c, 0, 60, 105
1, 102587, Note_on_c, 0, 64, 117
1, 102664, Note_off_c, 0, 64, 117
1, 102685, Note_on_c, 0, 67, 112
1, 102741, Note_off_c, 0, 67, 112
1, 102788, Note_on_c, 0, 70, 109
1, 102847, Note_off_c, 0, 70, 109
1, 102865, Note_on_c, 0, 64, 116
1, 102949, Note_off_c, 0, 64, 116
1, 102977, Note_on_c, 0, 62, 110
1, 103049, Note_off_c, 0, 62, 110
1, 103064, Note_on_c, 0, 59, 108
1, 103146, Note_off_c, 0, 59, 108
1, 103162, Note_on_c, 0, 61, 108
1, 103252, Note_off_c, 0, 61, 108
1, 103264, Note_on_c, 0, 58, 112
1, 103339, Note_off_c, 0, 58, 112
1, 103364, Note_on_c, 0, 57, 107
1, 103437, Note_off_c, 0, 57, 107
1, 103465, Note_on_c, 0, 55, 110
1, 103546, Note_off_c, 0, 55, 110
1, 103558, Note_on_c, 0, 53, 112
1, 103618, Note_off_c, 0, 53, 112
1, 103869, Note_on_c, 0, 69, 104
1, 104486, Note_off_c, 0, 69, 104
1, 104508, Note_on_c, 0, 67, 114
1, 104591, Note_off_c, 0, 67, 114
1, 104605, Note_on_c, 0, 64, 116
1, 104687, Note_off_c, 0, 64, 116
1, 104688, Note_on_c, 0, 65, 116
1, 104760, Note_off_c, 0, 65, 116
1, 104765, Note_on_c, 0, 62, 111
1, 104851, Note_off_c, 0, 62, 111
1, 104879, Note_on_c, 0, 59, 111
1, 104943, Note_off_c, 0, 59, 111
1, 104966, Note_on_c, 0, 55, 103
1, 105039, Note_off_c, 0, 55, 103
1, 105049, Note_on_c, 0, 60, 101
1, 105135, Note_off_c, 0, 60, 101
1, 105318, Note_on_c, 0, 67, 112
1, 105401, Note_off_c, 0, 67, 112
1, 105428, Note_on_c, 0, 60, 105
1, 105523, Note_off_c, 0, 60, 105
1, 105651, Note_on_c, 0, 72, 110
1, 105748, Note_off_c, 0, 72, 110
1, 105828, Note_on_c, 0, 72, 111
1, 105990, Note_off_c, 0, 72, 111
1, 106011, Note_on_c, 0, 72, 104
1, 106570, Note_off_c, 0, 72, 104
1, 106601, Note_on_c, 0, 69, 119
1, 106677, Note_off_c, 0, 69, 119
1, 106689, Note_on_c, 0, 67, 106
1, 106704, Note_off_c, 0, 67, 106
1, 106920, Note_on_c, 0, 69, 106
1, 107069, Note_off_c, 0, 69, 106
1, 107103, Note_on_c, 0, 65, 110
1, 107175, Note_off_c, 0, 65, 110
1, 107178, Note_on_c, 0, 67, 92
1, 107256, Note_off_c, 0, 67, 92
1, 107406, Note_on_c, 0, 67, 106
1, 107604, Note_off_c, 0, 67, 106
1, 107622, Note_on_c, 0, 64, 113
1, 107694, Note_off_c, 0, 64, 113
1, 107708, Note_on_c, 0, 67, 117
1, 107799, Note_off_c, 0, 67, 117
1, 107973, Note_on_c, 0, 64, 119
1, 108060, Note_off_c, 0, 64, 119
1, 108070, Note_on_c, 0, 64, 120
1, 108176, Note_off_c, 0, 64, 120
1, 108176, Note_on_c, 0, 60, 115
1, 108221, Note_off_c, 0, 60, 115
1, 108235, Note_on_c, 0, 64, 117
1, 108354, Note_off_c, 0, 64, 117
1, 108378, Note_on_c, 0, 60, 110
1, 108447, Note_off_c, 0, 60, 110
1, 108449, Note_on_c, 0, 64, 116
1, 108649, Note_off_c, 0, 64, 116
1, 108661, Note_on_c, 0, 60, 113
1, 108725, Note_off_c, 0, 60, 113
1, 108916, Note_on_c, 0, 52, 114
1, 108959, Note_off_c, 0, 52, 114
1, 108970, Note_on_c, 0, 55, 106
1, 109021, Note_off_c, 0, 55, 106
1, 109040, Note_on_c, 0, 58, 111
1, 109073, Note_off_c, 0, 58, 111
1, 109100, Note_on_c, 0, 64, 116
1, 109145, Note_off_c, 0, 64, 116
1, 109151, Note_on_c, 0, 69, 113
1, 109202, Note_off_c, 0, 69, 113
1, 109221, Note_on_c, 0, 67, 111
1, 109270, Note_off_c, 0, 67, 111
1, 109274, Note_on_c, 0, 68, 110
1, 109318, Note_off_c, 0, 68, 110
1, 109321, Note_on_c, 0, 69, 116
1, 109377, Note_off_c, 0, 69, 116
1, 109379, Note_on_c, 0, 67, 110
1, 109429, Note_off_c, 0, 67, 110
1, 109441, Note_on_c, 0, 63, 110
1, 109490, Note_off_c, 0, 63, 110
1, 109495, Note_on_c, 0, 64, 115
1, 109556, Note_off_c, 0, 64, 115
1, 109563, Note_on_c, 0, 67, 113
1, 109610, Note_off_c, 0, 67, 113
1, 109620, Note_on_c, 0, 65, 112
1, 109688, Note_off_c, 0, 65, 112
1, 109895, Note_on_c, 0, 55, 123
1, 109950, Note_off_c, 0, 55, 123
1, 109957, Note_on_c, 0, 58, 112
1, 109981, Note_off_c, 0, 58, 112
1, 109986, Note_on_c, 0, 60, 104
1, 110010, Note_off_c, 0, 60, 104
1, 110015, Note_on_c, 0, 62, 115
1, 110053, Note_off_c, 0, 62, 115
1, 110065, Note_on_c, 0, 64, 110
1, 110091, Note_off_c, 0, 64, 110
1, 110097, Note_on_c, 0, 65, 114
1, 110182, Note_off_c, 0, 65, 114
1, 110192, Note_on_c, 0, 66, 112
1, 110213, Note_off_c, 0, 66, 112
1, 110217, Note_on_c, 0, 67, 112
1, 110280, Note_off_c, 0, 67, 112
1, 110305, Note_on_c, 0, 62, 111
1, 110347, Note_off_c, 0, 62, 111
1, 110353, Note_on_c, 0, 63, 114
1, 110408, Note_off_c, 0, 63, 114
1, 110416, Note_on_c, 0, 64, 115
1, 110473, Note_off_c, 0, 64, 115
1, 110482, Note_on_c, 0, 60, 112
1, 110535, Note_off_c, 0, 60, 112
1, 110540, Note_on_c, 0, 57, 110
1, 110573, Note_off_c, 0, 57, 110
1, 110583, Note_on_c, 0, 55, 108
1, 110608, Note_off_c, 0, 55, 108
1, 110608, Note_on_c, 0, 52, 117
1, 110671, Note_off_c, 0, 52, 117
1, 110697, Note_on_c, 0, 55, 109
1, 110779, Note_off_c, 0, 55, 109
1, 110783, Note_on_c, 0, 48, 114
1, 110834, Note_off_c, 0, 48, 114
1, 110846, Note_on_c, 0, 50, 115
1, 110876, Note_off_c, 0, 50, 115
1, 110878, Note_on_c, 0, 51, 123
1, 110924, Note_off_c, 0, 51, 123
1, 110924, Note_on_c, 0, 52, 112
1, 110993, Note_off_c, 0, 52, 112
1, 111007, Note_on_c, 0, 48, 101
1, 111044, Note_off_c, 0, 48, 101
1, 111081, Note_on_c, 0, 51, 101
1, 111119, Note_off_c, 0, 51, 101
1, 111128, Note_on_c, 0, 52, 107
1, 111169, Note_off_c, 0, 52, 107
1, 111172, Note_on_c, 0, 55, 109
1, 111235, Note_off_c, 0, 55, 109
1, 111242, Note_on_c, 0, 58, 108
1, 111273, Note_off_c, 0, 58, 108
1, 111279, Note_on_c, 0, 60, 109
1, 111335, Note_off_c, 0, 60, 109
1, 111339, Note_on_c, 0, 57, 112
1, 111368, Note_off_c, 0, 57, 112
1, 111372, Note_on_c, 0, 58, 104
1, 111397, Note_off_c, 0, 58, 104
1, 111399, Note_on_c, 0, 60, 113
1, 111431, Note_off_c, 0, 60, 113
1, 111433, Note_on_c, 0, 61, 110
1, 111463, Note_off_c, 0, 61, 110
1, 111491, Note_on_c, 0, 63, 119
1, 111557, Note_off_c, 0, 63, 119
1, 111569, Note_on_c, 0, 64, 111
1, 111614, Note_off_c, 0, 64, 111
1, 111624, Note_on_c, 0, 65, 114
1, 111667, Note_off_c, 0, 65, 114
1, 111674, Note_on_c, 0, 66, 111
1, 111727, Note_off_c, 0, 66, 111
1, 111729, Note_on_c, 0, 67, 112
1, 111791, Note_off_c, 0, 67, 112
1, 111816, Note_on_c, 0, 62, 115
1, 111855, Note_off_c, 0, 62, 115
1, 111858, Note_on_c, 0, 63, 116
1, 111901, Note_off_c, 0, 63, 116
1, 111915, Note_on_c, 0, 64, 117
1, 111975, Note_off_c, 0, 64, 117
1, 111979, Note_on_c, 0, 60, 109
1, 112020, Note_off_c, 0, 60, 109
1, 112021, Note_on_c, 0, 56, 107
1, 112058, Note_off_c, 0, 56, 107
1, 112063, Note_on_c, 0, 55, 113
1, 112116, Note_off_c, 0, 55, 113
1, 112131, Note_on_c, 0, 59, 111
1, 112178, Note_off_c, 0, 59, 111
1, 112178, Note_on_c, 0, 60, 110
1, 112215, Note_off_c, 0, 60, 110
1, 112217, Note_on_c, 0, 62, 116
1, 112256, Note_off_c, 0, 62, 116
1, 112260, Note_on_c, 0, 64, 120
1, 112301, Note_off_c, 0, 64, 120
1, 112304, Note_on_c, 0, 60, 113
1, 112377, Note_off_c, 0, 60, 113
1, 112400, Note_on_c, 0, 58, 109
1, 112465, Note_off_c, 0, 58, 109
1, 112494, Note_on_c, 0, 55, 105
1, 112557, Note_off_c, 0, 55, 105
1, 112578, Note_on_c, 0, 57, 104
1, 112642, Note_off_c, 0, 57, 104
1, 112712, Note_on_c, 0, 53, 95
1, 112749, Note_off_c, 0, 53, 95
1, 112751, Note_on_c, 0, 51, 99
1, 112822, Note_off_c, 0, 51, 99
1, 112822, Note_on_c, 0, 55, 113
1, 112904, Note_off_c, 0, 55, 113
1, 112915, Note_on_c, 0, 48, 113
1, 112975, Note_off_c, 0, 48, 113
1, 112976, Note_on_c, 0, 53, 110
1, 113004, Note_off_c, 0, 53, 110
1, 113014, Note_on_c, 0, 55, 108
1, 113046, Note_off_c, 0, 55, 108
1, 113052, Note_on_c, 0, 57, 107
1, 113082, Note_off_c, 0, 57, 107
1, 113091, Note_on_c, 0, 60, 104
1, 113173, Note_off_c, 0, 60, 104
1, 113201, Note_on_c, 0, 65, 106
1, 113242, Note_off_c, 0, 65, 106
1, 113242, Note_on_c, 0, 67, 103
1, 113265, Note_off_c, 0, 67, 103
1, 113268, Note_on_c, 0, 69, 109
1, 113309, Note_off_c, 0, 69, 109
1, 113311, Note_on_c, 0, 72, 118
1, 113339, Note_off_c, 0, 72, 118
1, 113366, Note_on_c, 0, 67, 119
1, 113540, Note_off_c, 0, 67, 119
1, 113554, Note_on_c, 0, 69, 114
1, 113578, Note_on_c, 0, 62, 113
1, 113578, Note_off_c, 0, 69, 114
1, 113660, Note_off_c, 0, 62, 113
1, 113663, Note_on_c, 0, 63, 118
1, 113764, Note_off_c, 0, 63, 118
1, 113771, Note_on_c, 0, 64, 120
1, 113868, Note_off_c, 0, 64, 120
1, 113887, Note_on_c, 0, 65, 106
1, 113962, Note_off_c, 0, 65, 106
1, 113977, Note_on_c, 0, 66, 112
1, 114054, Note_off_c, 0, 66, 112
1, 114070, Note_on_c, 0, 67, 117
1, 114154, Note_off_c, 0, 67, 117
1, 114183, Note_on_c, 0, 72, 117
1, 114235, Note_off_c, 0, 72, 117
1, 114290, Note_on_c, 0, 67, 115
1, 114353, Note_off_c, 0, 67, 115
1, 114367, Note_on_c, 0, 65, 116
1, 114432, Note_off_c, 0, 65, 116
1, 114465, Note_on_c, 0, 64, 116
1, 114633, Note_off_c, 0, 64, 116
1, 114640, Note_on_c, 0, 60, 110
1, 114713, Note_off_c, 0, 60, 110
1, 114923, Note_on_c, 0, 57, 114
1, 114992, Note_off_c, 0, 57, 114
1, 115016, Note_on_c, 0, 59, 112
1, 115079, Note_off_c, 0, 59, 112
1, 115082, Note_on_c, 0, 61, 121
1, 115127, Note_off_c, 0, 61, 121
1, 115143, Note_on_c, 0, 65, 121
1, 115212, Note_off_c, 0, 65, 121
1, 115228, Note_on_c, 0, 64, 121
1, 115305, Note_off_c, 0, 64, 121
1, 115321, Note_on_c, 0, 61, 122
1, 115408, Note_off_c, 0, 61, 122
1, 115423, Note_on_c, 0, 58, 111
1, 115507, Note_off_c, 0, 58, 111
1, 115531, Note_on_c, 0, 53, 106
1, 115608, Note_off_c, 0, 53, 106
1, 115613, Note_on_c, 0, 57, 116
1, 115691, Note_off_c, 0, 57, 116
1, 115711, Note_on_c, 0, 55, 118
1, 115804, Note_off_c, 0, 55, 118
1, 115809, Note_on_c, 0, 53, 109
1, 115868, Note_off_c, 0, 53, 109
1, 115888, Note_on_c, 0, 50, 112
1, 115916, Note_off_c, 0, 50, 112
1, 115990, Note_on_c, 0, 55, 108
1, 116092, Note_off_c, 0, 55, 108
1, 116107, Note_on_c, 0, 57, 115
1, 116177, Note_off_c, 0, 57, 115
1, 116189, Note_on_c, 0, 60, 112
1, 116232, Note_off_c, 0, 60, 112
1, 116262, Note_on_c, 0, 64, 119
1, 116346, Note_off_c, 0, 64, 119
1, 116369, Note_on_c, 0, 59, 111
1, 116465, Note_off_c, 0, 59, 111
1, 116539, Note_on_c, 0, 59, 109
1, 116638, Note_off_c, 0, 59, 109
1, 116679, Note_on_c, 0, 57, 112
1, 116761, Note_off_c, 0, 57, 112
1, 116849, Note_on_c, 0, 59, 112
1, 116924, Note_off_c, 0, 59, 112
1, 117038, Note_on_c, 0, 60, 115
1, 117108, Note_off_c, 0, 60, 115
1, 117411, Note_on_c, 0, 64, 126
1, 117504, Note_off_c, 0, 64, 126
1, 117582, Note_on_c, 0, 64, 126
1, 117651, Note_off_c, 0, 64, 126
1, 117701, Note_on_c, 0, 64, 124
1, 117789, Note_off_c, 0, 64, 124
1, 117906, Note_on_c, 0, 64, 121
1, 118055, Note_off_c, 0, 64, 121
1, 118055, End_track
0, 0, End_of_file
