0, 0, Header, 1, 1, 192
1, 0, Start_track
1, 0, Title_t, "Melody"
1, 0, Tempo, 447761
1, 0, Key_signature, -2, "major"
1, 0, Time_signature, 4, 2, 24, 8
1, 2541, Note_on_c, 0, 62, 91
1, 2675, Note_off_c, 0, 62, 91
1, 2707, Note_on_c, 0, 62, 84
1, 2868, Note_off_c, 0, 62, 84
1, 2890, Note_on_c, 0, 56, 105
1, 3059, Note_off_c, 0, 56, 105
1, 3081, Note_on_c, 0, 56, 112
1, 3140, Note_off_c, 0, 56, 112
1, 3682, Note_on_c, 0, 56, 101
1, 3724, Note_off_c, 0, 56, 101
1, 3725, Note_on_c, 0, 58, 90
1, 3738, Note_off_c, 0, 58, 90
1, 3738, Note_on_c, 0, 57, 100
1, 3761, Note_off_c, 0, 57, 100
1, 3763, Note_on_c, 0, 56, 101
1, 3792, Note_off_c, 0, 56, 101
1, 3797, Note_on_c, 0, 53, 92
1, 3851, Note_off_c, 0, 53, 92
1, 3872, Note_on_c, 0, 56, 104
1, 3912, Note_off_c, 0, 56, 104
1, 3912, Note_on_c, 0, 57, 100
1, 3945, Note_off_c, 0, 57, 100
1, 3945, Note_on_c, 0, 56, 97
1, 3992, Note_off_c, 0, 56, 97
1, 3999, Note_on_c, 0, 53, 94
1, 4042, Note_off_c, 0, 53, 94
1, 4082, Note_on_c, 0, 60, 98
1, 4195, Note_off_c, 0, 60, 98
1, 4196, Note_on_c, 0, 58, 100
1, 4239, Note_off_c, 0, 58, 100
1, 4254, Note_on_c, 0, 56, 106
1, 4308, Note_off_c, 0, 56, 106
1, 4308, Note_on_c, 0, 58, 86
1, 4334, Note_off_c, 0, 58, 86
1, 4334, Note_on_c, 0, 56, 101
1, 4393, Note_off_c, 0, 56, 101
1, 4400, Note_on_c, 0, 53, 95
1, 4449, Note_off_c, 0, 53, 95
1, 4454, Note_on_c, 0, 56, 103
1, 4636, Note_off_c, 0, 56, 103
1, 4644, Note_on_c, 0, 53, 96
1, 4810, Note_off_c, 0, 53, 96
1, 5310, Note_on_c, 0, 53, 109
1, 5352, Note_off_c, 0, 53, 109
1, 5353, Note_on_c, 0, 54, 109
1, 5400, Note_off_c, 0, 54, 109
1, 5410, Note_on_c, 0, 59, 99
1, 5469, Note_off_c, 0, 59, 99
1, 5474, Note_on_c, 0, 62, 114
1, 5542, Note_off_c, 0, 62, 114
1, 5545, Note_on_c, 0, 65, 117
1, 5595, Note_off_c, 0, 65, 117
1, 5595, Note_on_c, 0, 66, 115
1, 5659, Note_off_c, 0, 66, 115
1, 5662, Note_on_c, 0, 61, 116
1, 5744, Note_off_c, 0, 61, 116
1, 5749, Note_on_c, 0, 59, 92
1, 5798, Note_off_c, 0, 59, 92
1, 5801, Note_on_c, 0, 58, 95
1, 5848, Note_off_c, 0, 58, 95
1, 5851, Note_on_c, 0, 56, 109
1, 5917, Note_off_c, 0, 56, 109
1, 5922, Note_on_c, 0, 55, 101
1, 5979, Note_off_c, 0, 55, 101
1, 5982, Note_on_c, 0, 49, 97
1, 6220, Note_off_c, 0, 49, 97
1, 6227, Note_on_c, 0, 53, 97
1, 6279, Note_off_c, 0, 53, 97
1, 6282, Note_on_c, 0, 57, 103
1, 6331, Note_off_c, 0, 57, 103
1, 6341, Note_on_c, 0, 61, 114
1, 6405, Note_off_c, 0, 61, 114
1, 6408, Note_on_c, 0, 65, 110
1, 6465, Note_off_c, 0, 65, 110
1, 6472, Note_on_c, 0, 69, 108
1, 6542, Note_off_c, 0, 69, 108
1, 6542, Note_on_c, 0, 72, 114
1, 6615, Note_off_c, 0, 72, 114
1, 6616, Note_on_c, 0, 69, 97
1, 6677, Note_off_c, 0, 69, 97
1, 6689, Note_on_c, 0, 70, 107
1, 6750, Note_off_c, 0, 70, 107
1, 6764, Note_on_c, 0, 72, 109
1, 6830, Note_off_c, 0, 72, 109
1, 6835, Note_on_c, 0, 69, 108
1, 6905, Note_off_c, 0, 69, 108
1, 6912, Note_on_c, 0, 65, 110
1, 6975, Note_off_c, 0, 65, 110
1, 6996, Note_on_c, 0, 61, 114
1, 7060, Note_off_c, 0, 61, 114
1, 7067, Note_on_c, 0, 57, 97
1, 7110, Note_off_c, 0, 57, 97
1, 7115, Note_on_c, 0, 66, 116
1, 7136, Note_off_c, 0, 66, 116
1, 7139, Note_on_c, 0, 67, 107
1, 7349, Note_off_c, 0, 67, 107
1, 7368, Note_on_c, 0, 65, 108
1, 7420, Note_off_c, 0, 65, 108
1, 7423, Note_on_c, 0, 60, 112
1, 7479, Note_off_c, 0, 60, 112
1, 7489, Note_on_c, 0, 56, 108
1, 7534, Note_off_c, 0, 56, 108
1, 7539, Note_on_c, 0, 55, 98
1, 7586, Note_off_c, 0, 55, 98
1, 7589, Note_on_c, 0, 53, 90
1, 7639, Note_off_c, 0, 53, 90
1, 7642, Note_on_c, 0, 55, 95
1, 7796, Note_off_c, 0, 55, 95
1, 8401, Note_on_c, 0, 67, 111
1, 8469, Note_off_c, 0, 67, 111
1, 8497, Note_on_c, 0, 70, 112
1, 8621, Note_off_c, 0, 70, 112
1, 8631, Note_on_c, 0, 73, 118
1, 8673, Note_off_c, 0, 73, 118
1, 8681, Note_on_c, 0, 74, 83
1, 8768, Note_off_c, 0, 74, 83
1, 8773, Note_on_c, 0, 70, 108
1, 8855, Note_off_c, 0, 70, 108
1, 8869, Note_on_c, 0, 63, 120
1, 9042, Note_off_c, 0, 63, 120
1, 9439, Note_on_c, 0, 70, 105
1, 9509, Note_off_c, 0, 70, 105
1, 9510, Note_on_c, 0, 75, 110
1, 9550, Note_off_c, 0, 75, 110
1, 9558, Note_on_c, 0, 74, 103
1, 9605, Note_off_c, 0, 74, 103
1, 9608, Note_on_c, 0, 72, 107
1, 9660, Note_off_c, 0, 72, 107
1, 9668, Note_on_c, 0, 70, 103
1, 9715, Note_off_c, 0, 70, 103
1, 9716, Note_on_c, 0, 71, 108
1, 9747, Note_off_c, 0, 71, 108
1, 9747, Note_on_c, 0, 70, 107
1, 9790, Note_off_c, 0, 70, 107
1, 9802, Note_on_c, 0, 67, 100
1, 9845, Note_off_c, 0, 67, 100
1, 9880, Note_on_c, 0, 69, 111
1, 9948, Note_off_c, 0, 69, 111
1, 9951, Note_on_c, 0, 67, 114
1, 10040, Note_off_c, 0, 67, 114
1, 10041, Note_on_c, 0, 65, 107
1, 10130, Note_off_c, 0, 65, 107
1, 10142, Note_on_c, 0, 63, 123
1, 10215, Note_off_c, 0, 63, 123
1, 10225, Note_on_c, 0, 62, 120
1, 10258, Note_off_c, 0, 62, 120
1, 10259, Note_on_c, 0, 63, 121
1, 10294, Note_off_c, 0, 63, 121
1, 10295, Note_on_c, 0, 62, 104
1, 10335, Note_off_c, 0, 62, 104
1, 10340, Note_on_c, 0, 58, 99
1, 10396, Note_off_c, 0, 58, 99
1, 10408, Note_on_c, 0, 61, 116
1, 10457, Note_off_c, 0, 61, 116
1, 10460, Note_on_c, 0, 62, 118
1, 10512, Note_off_c, 0, 62, 118
1, 10529, Note_on_c, 0, 65, 110
1, 10586, Note_off_c, 0, 65, 110
1, 10586, Note_on_c, 0, 63, 123
1, 10643, Note_off_c, 0, 63, 123
1, 10660, Note_on_c, 0, 67, 105
1, 10707, Note_off_c, 0, 67, 105
1, 10707, Note_on_c, 0, 70, 99
1, 10771, Note_off_c, 0, 70, 99
1, 10778, Note_on_c, 0, 73, 111
1, 10846, Note_off_c, 0, 73, 111
1, 10846, Note_on_c, 0, 70, 101
1, 10902, Note_off_c, 0, 70, 101
1, 10905, Note_on_c, 0, 72, 110
1, 10969, Note_off_c, 0, 72, 110
1, 10983, Note_on_c, 0, 70, 100
1, 11082, Note_off_c, 0, 70, 100
1, 11099, Note_on_c, 0, 68, 115
1, 11203, Note_on_c, 0, 70, 100
1, 11203, Note_off_c, 0, 68, 115
1, 11222, Note_off_c, 0, 70, 100
1, 11228, Note_on_c, 0, 68, 113
1, 11269, Note_off_c, 0, 68, 113
1, 11272, Note_on_c, 0, 65, 106
1, 11306, Note_off_c, 0, 65, 106
1, 11345, Note_on_c, 0, 68, 117
1, 11451, Note_off_c, 0, 68, 117
1, 11461, Note_on_c, 0, 65, 110
1, 11511, Note_off_c, 0, 65, 110
1, 11514, Note_on_c, 0, 64, 112
1, 11598, Note_off_c, 0, 64, 112
1, 11603, Note_on_c, 0, 63, 106
1, 11636, Note_off_c, 0, 63, 106
1, 11644, Note_on_c, 0, 60, 98
1, 11698, Note_off_c, 0, 60, 98
1, 11706, Note_on_c, 0, 67, 110
1, 11828, Note_off_c, 0, 67, 110
1, 11835, Note_on_c, 0, 65, 93
1, 11884, Note_off_c, 0, 65, 93
1, 11887, Note_on_c, 0, 67, 97
1, 12118, Note_off_c, 0, 67, 97
1, 12373, Note_on_c, 0, 65, 112
1, 12443, Note_off_c, 0, 65, 112
1, 12443, Note_on_c, 0, 60, 117
1, 12511, Note_off_c, 0, 60, 117
1, 12516, Note_on_c, 0, 56, 105
1, 12621, Note_off_c, 0, 56, 105
1, 12649, Note_on_c, 0, 50, 91
1, 12696, Note_off_c, 0, 50, 91
1, 12878, Note_on_c, 0, 67, 116
1, 12995, Note_off_c, 0, 67, 116
1, 12996, Note_on_c, 0, 65, 111
1, 13069, Note_off_c, 0, 65, 111
1, 13086, Note_on_c, 0, 60, 117
1, 13185, Note_off_c, 0, 60, 117
1, 13195, Note_on_c, 0, 56, 104
1, 13249, Note_off_c, 0, 56, 104
1, 13263, Note_on_c, 0, 67, 113
1, 13289, Note_off_c, 0, 67, 113
1, 13291, Note_on_c, 0, 68, 98
1, 13307, Note_off_c, 0, 68, 98
1, 13307, Note_on_c, 0, 67, 108
1, 13369, Note_off_c, 0, 67, 108
1, 13372, Note_on_c, 0, 65, 111
1, 13415, Note_off_c, 0, 65, 111
1, 13417, Note_on_c, 0, 60, 110
1, 13465, Note_off_c, 0, 60, 110
1, 13477, Note_on_c, 0, 56, 109
1, 13620, Note_off_c, 0, 56, 109
1, 14108, Note_on_c, 0, 53, 100
1, 14126, Note_off_c, 0, 53, 100
1, 14130, Note_on_c, 0, 56, 105
1, 14163, Note_off_c, 0, 56, 105
1, 14190, Note_on_c, 0, 67, 117
1, 14294, Note_off_c, 0, 67, 117
1, 14315, Note_on_c, 0, 53, 104
1, 14331, Note_off_c, 0, 53, 104
1, 14340, Note_on_c, 0, 56, 98
1, 14354, Note_off_c, 0, 56, 98
1, 14400, Note_on_c, 0, 67, 114
1, 14493, Note_off_c, 0, 67, 114
1, 14507, Note_on_c, 0, 53, 103
1, 14538, Note_off_c, 0, 53, 103
1, 14540, Note_on_c, 0, 56, 105
1, 14566, Note_off_c, 0, 56, 105
1, 14595, Note_on_c, 0, 67, 114
1, 14679, Note_off_c, 0, 67, 114
1, 14688, Note_on_c, 0, 60, 114
1, 14715, Note_off_c, 0, 60, 114
1, 14716, Note_on_c, 0, 61, 115
1, 14753, Note_off_c, 0, 61, 115
1, 14796, Note_on_c, 0, 72, 111
1, 14859, Note_off_c, 0, 72, 111
1, 14866, Note_on_c, 0, 60, 110
1, 14897, Note_on_c, 0, 61, 114
1, 14897, Note_off_c, 0, 60, 110
1, 14915, Note_off_c, 0, 61, 114
1, 14983, Note_on_c, 0, 72, 105
1, 15154, Note_off_c, 0, 72, 105
1, 15640, Note_on_c, 0, 60, 117
1, 15678, Note_off_c, 0, 60, 117
1, 15681, Note_on_c, 0, 61, 117
1, 15718, Note_off_c, 0, 61, 117
1, 15764, Note_on_c, 0, 72, 110
1, 15826, Note_off_c, 0, 72, 110
1, 15857, Note_on_c, 0, 60, 114
1, 15895, Note_off_c, 0, 60, 114
1, 15897, Note_on_c, 0, 61, 111
1, 15935, Note_off_c, 0, 61, 111
1, 15982, Note_on_c, 0, 72, 110
1, 16040, Note_off_c, 0, 72, 110
1, 16053, Note_on_c, 0, 60, 114
1, 16081, Note_off_c, 0, 60, 114
1, 16083, Note_on_c, 0, 61, 115
1, 16112, Note_off_c, 0, 61, 115
1, 16189, Note_on_c, 0, 72, 110
1, 16263, Note_off_c, 0, 72, 110
1, 16641, Note_on_c, 0, 70, 110
1, 16713, Note_off_c, 0, 70, 110
1, 16720, Note_on_c, 0, 66, 118
1, 16751, Note_off_c, 0, 66, 118
1, 16755, Note_on_c, 0, 68, 117
1, 16833, Note_off_c, 0, 68, 117
1, 16833, Note_on_c, 0, 65, 109
1, 16881, Note_off_c, 0, 65, 109
1, 17309, Note_on_c, 0, 53, 98
1, 17331, Note_off_c, 0, 53, 98
1, 17334, Note_on_c, 0, 57, 98
1, 17376, Note_off_c, 0, 57, 98
1, 17381, Note_on_c, 0, 60, 116
1, 17437, Note_off_c, 0, 60, 116
1, 17438, Note_on_c, 0, 57, 104
1, 17480, Note_off_c, 0, 57, 104
1, 17483, Note_on_c, 0, 58, 93
1, 17516, Note_off_c, 0, 58, 93
1, 17519, Note_on_c, 0, 59, 101
1, 17569, Note_off_c, 0, 59, 101
1, 17576, Note_on_c, 0, 62, 108
1, 17609, Note_off_c, 0, 62, 108
1, 17614, Note_on_c, 0, 65, 117
1, 17650, Note_off_c, 0, 65, 117
1, 17665, Note_on_c, 0, 68, 119
1, 17714, Note_off_c, 0, 68, 119
1, 17717, Note_on_c, 0, 67, 115
1, 17748, Note_off_c, 0, 67, 115
1, 17757, Note_on_c, 0, 65, 112
1, 17785, Note_off_c, 0, 65, 112
1, 17785, Note_on_c, 0, 62, 119
1, 17831, Note_off_c, 0, 62, 119
1, 17837, Note_on_c, 0, 63, 121
1, 17886, Note_off_c, 0, 63, 121
1, 17890, Note_on_c, 0, 65, 103
1, 17912, Note_off_c, 0, 65, 103
1, 17912, Note_on_c, 0, 66, 104
1, 17921, Note_on_c, 0, 67, 104
1, 17921, Note_off_c, 0, 66, 104
1, 17935, Note_off_c, 0, 67, 104
1, 17935, Note_on_c, 0, 69, 103
1, 17965, Note_off_c, 0, 69, 103
1, 17965, Note_on_c, 0, 71, 97
1, 17980, Note_off_c, 0, 71, 97
1, 17982, Note_on_c, 0, 74, 110
1, 18045, Note_off_c, 0, 74, 110
1, 18046, Note_on_c, 0, 71, 103
1, 18064, Note_off_c, 0, 71, 103
1, 18071, Note_on_c, 0, 72, 97
1, 18156, Note_off_c, 0, 72, 97
1, 18160, Note_on_c, 0, 75, 109
1, 18237, Note_off_c, 0, 75, 109
1, 18239, Note_on_c, 0, 71, 111
1, 18331, Note_off_c, 0, 71, 111
1, 18873, Note_on_c, 0, 67, 120
1, 18905, Note_off_c, 0, 67, 120
1, 18912, Note_on_c, 0, 68, 121
1, 18975, Note_off_c, 0, 68, 121
1, 18978, Note_on_c, 0, 69, 102
1, 19002, Note_off_c, 0, 69, 102
1, 19003, Note_on_c, 0, 68, 118
1, 19050, Note_off_c, 0, 68, 118
1, 19056, Note_on_c, 0, 65, 118
1, 19092, Note_off_c, 0, 65, 118
1, 19245, Note_on_c, 0, 67, 118
1, 19282, Note_off_c, 0, 67, 118
1, 19285, Note_on_c, 0, 68, 120
1, 19355, Note_off_c, 0, 68, 120
1, 19434, Note_on_c, 0, 64, 124
1, 19523, Note_off_c, 0, 64, 124
1, 19643, Note_on_c, 0, 60, 99
1, 19685, Note_off_c, 0, 60, 99
1, 19719, Note_on_c, 0, 64, 117
1, 19802, Note_off_c, 0, 64, 117
1, 20089, Note_on_c, 0, 64, 127
1, 20172, Note_off_c, 0, 64, 127
1, 20404, Note_on_c, 0, 64, 102
1, 20478, Note_off_c, 0, 64, 102
1, 20658, Note_on_c, 0, 61, 121
1, 20712, Note_off_c, 0, 61, 121
1, 20712, Note_on_c, 0, 62, 114
1, 20848, Note_off_c, 0, 62, 114
1, 20864, Note_on_c, 0, 56, 78
1, 22158, Note_off_c, 0, 56, 78
1, 22158, End_track
0, 0, End_of_file
