0, 0, Header, 1, 1, 192
1, 0, Start_track
1, 0, Title_t, "Melody"
1, 0, Tempo, 287081
1, 0, Key_signature, 0, "major"
1, 0, Time_signature, 4, 2, 24, 8
1, 3963, Note_on_c, 0, 55, 104
1, 4080, Note_off_c, 0, 55, 104
1, 4080, Note_on_c, 0, 48, 97
1, 4202, Note_off_c, 0, 48, 97
1, 4698, Note_on_c, 0, 55, 93
1, 4839, Note_off_c, 0, 55, 93
1, 4841, Note_on_c, 0, 49, 97
1, 4925, Note_off_c, 0, 49, 97
1, 5282, Note_on_c, 0, 55, 101
1, 5396, Note_off_c, 0, 55, 101
1, 5396, Note_on_c, 0, 50, 96
1, 5475, Note_off_c, 0, 50, 96
1, 5475, Note_on_c, 0, 55, 97
1, 5611, Note_off_c, 0, 55, 97
1, 6036, Note_on_c, 0, 55, 98
1, 6147, Note_off_c, 0, 55, 98
1, 6149, Note_on_c, 0, 50, 97
1, 6222, Note_off_c, 0, 50, 97
1, 6224, Note_on_c, 0, 55, 102
1, 6338, Note_off_c, 0, 55, 102
1, 6338, Note_on_c, 0, 48, 92
1, 6403, Note_off_c, 0, 48, 92
1, 6403, Note_on_c, 0, 55, 105
1, 6514, Note_off_c, 0, 55, 105
1, 6514, Note_on_c, 0, 50, 96
1, 6590, Note_off_c, 0, 50, 96
1, 6592, Note_on_c, 0, 55, 102
1, 6698, Note_off_c, 0, 55, 102
1, 6698, Note_on_c, 0, 48, 102
1, 6820, Note_off_c, 0, 48, 102
1, 7174, Note_on_c, 0, 55, 107
1, 7266, Note_off_c, 0, 55, 107
1, 7266, Note_on_c, 0, 50, 94
1, 7328, Note_off_c, 0, 50, 94
1, 7579, Note_on_c, 0, 55, 101
1, 7693, Note_off_c, 0, 55, 101
1, 7698, Note_on_c, 0, 52, 94
1, 7796, Note_off_c, 0, 52, 94
1, 7913, Note_on_c, 0, 55, 97
1, 8027, Note_off_c, 0, 55, 97
1, 8321, Note_on_c, 0, 55, 107
1, 8424, Note_off_c, 0, 55, 107
1, 8424, Note_on_c, 0, 50, 98
1, 8519, Note_off_c, 0, 50, 98
1, 8677, Note_on_c, 0, 55, 106
1, 8791, Note_off_c, 0, 55, 106
1, 8793, Note_on_c, 0, 50, 90
1, 8866, Note_off_c, 0, 50, 90
1, 8882, Note_on_c, 0, 55, 105
1, 8972, Note_off_c, 0, 55, 105
1, 8988, Note_on_c, 0, 48, 90
1, 9105, Note_off_c, 0, 48, 90
1, 9255, Note_on_c, 0, 55, 97
1, 9358, Note_off_c, 0, 55, 97
1, 9368, Note_on_c, 0, 50, 97
1, 9447, Note_off_c, 0, 50, 97
1, 9455, Note_on_c, 0, 55, 109
1, 9542, Note_off_c, 0, 55, 109
1, 9542, Note_on_c, 0, 50, 103
1, 9640, Note_off_c, 0, 50, 103
1, 9642, Note_on_c, 0, 55, 102
1, 9718, Note_on_c, 0, 48, 105
1, 9718, Note_off_c, 0, 55, 102
1, 9824, Note_off_c, 0, 48, 105
1, 10200, Note_on_c, 0, 55, 109
1, 10301, Note_off_c, 0, 55, 109
1, 10301, Note_on_c, 0, 52, 99
1, 10404, Note_off_c, 0, 52, 99
1, 10404, Note_on_c, 0, 55, 108
1, 10505, Note_off_c, 0, 55, 108
1, 10505, Note_on_c, 0, 59, 104
1, 10592, Note_off_c, 0, 59, 104
1, 10592, Note_on_c, 0, 62, 115
1, 10682, Note_off_c, 0, 62, 115
1, 10682, Note_on_c, 0, 65, 113
1, 10791, Note_off_c, 0, 65, 113
1, 10793, Note_on_c, 0, 61, 109
1, 10896, Note_off_c, 0, 61, 109
1, 10915, Note_on_c, 0, 64, 111
1, 10996, Note_on_c, 0, 58, 100
1, 10996, Note_off_c, 0, 64, 111
1, 11077, Note_off_c, 0, 58, 100
1, 11098, Note_on_c, 0, 55, 105
1, 11182, Note_off_c, 0, 55, 105
1, 11182, Note_on_c, 0, 56, 103
1, 11296, Note_off_c, 0, 56, 103
1, 11306, Note_on_c, 0, 57, 105
1, 11404, Note_off_c, 0, 57, 105
1, 11404, Note_on_c, 0, 53, 108
1, 11491, Note_off_c, 0, 53, 108
1, 11499, Note_on_c, 0, 50, 93
1, 11569, Note_off_c, 0, 50, 93
1, 11569, Note_on_c, 0, 55, 105
1, 11683, Note_off_c, 0, 55, 105
1, 11685, Note_on_c, 0, 52, 96
1, 11742, Note_off_c, 0, 52, 96
1, 11752, Note_on_c, 0, 53, 108
1, 11853, Note_off_c, 0, 53, 108
1, 11855, Note_on_c, 0, 57, 105
1, 11947, Note_off_c, 0, 57, 105
1, 11947, Note_on_c, 0, 60, 112
1, 12048, Note_off_c, 0, 60, 112
1, 12048, Note_on_c, 0, 64, 111
1, 12162, Note_off_c, 0, 64, 111
1, 12167, Note_on_c, 0, 53, 96
1, 12232, Note_off_c, 0, 53, 96
1, 12245, Note_on_c, 0, 57, 105
1, 12326, Note_off_c, 0, 57, 105
1, 12331, Note_on_c, 0, 60, 111
1, 12426, Note_off_c, 0, 60, 111
1, 12431, Note_on_c, 0, 63, 115
1, 12529, Note_off_c, 0, 63, 115
1, 12537, Note_on_c, 0, 59, 102
1, 12621, Note_off_c, 0, 59, 102
1, 12629, Note_on_c, 0, 56, 104
1, 12713, Note_off_c, 0, 56, 104
1, 12732, Note_on_c, 0, 54, 107
1, 12811, Note_off_c, 0, 54, 107
1, 12830, Note_on_c, 0, 55, 109
1, 12931, Note_off_c, 0, 55, 109
1, 12950, Note_on_c, 0, 48, 87
1, 13059, Note_off_c, 0, 48, 87
1, 13310, Note_on_c, 0, 65, 113
1, 13383, Note_off_c, 0, 65, 113
1, 13383, Note_on_c, 0, 52, 108
1, 13527, Note_off_c, 0, 52, 108
1, 13718, Note_on_c, 0, 55, 109
1, 13813, Note_off_c, 0, 55, 109
1, 13826, Note_on_c, 0, 53, 107
1, 13916, Note_off_c, 0, 53, 107
1, 14087, Note_on_c, 0, 57, 114
1, 14174, Note_off_c, 0, 57, 114
1, 14182, Note_on_c, 0, 54, 111
1, 14274, Note_off_c, 0, 54, 111
1, 14645, Note_on_c, 0, 55, 112
1, 14718, Note_off_c, 0, 55, 112
1, 14739, Note_on_c, 0, 50, 87
1, 14799, Note_off_c, 0, 50, 87
1, 15036, Note_on_c, 0, 55, 105
1, 15115, Note_off_c, 0, 55, 105
1, 15123, Note_on_c, 0, 48, 88
1, 15221, Note_off_c, 0, 48, 88
1, 15373, Note_on_c, 0, 55, 105
1, 15452, Note_off_c, 0, 55, 105
1, 15599, Note_on_c, 0, 55, 112
1, 15689, Note_off_c, 0, 55, 112
1, 15694, Note_on_c, 0, 50, 94
1, 15773, Note_off_c, 0, 50, 94
1, 15773, Note_on_c, 0, 55, 106
1, 15876, Note_off_c, 0, 55, 106
1, 15876, Note_on_c, 0, 48, 97
1, 15977, Note_off_c, 0, 48, 97
1, 16148, Note_on_c, 0, 55, 101
1, 16240, Note_off_c, 0, 55, 101
1, 16242, Note_on_c, 0, 48, 96
1, 16356, Note_off_c, 0, 48, 96
1, 16536, Note_on_c, 0, 55, 103
1, 16634, Note_off_c, 0, 55, 103
1, 16647, Note_on_c, 0, 48, 96
1, 16739, Note_off_c, 0, 48, 96
1, 16908, Note_on_c, 0, 55, 111
1, 17000, Note_off_c, 0, 55, 111
1, 17000, Note_on_c, 0, 49, 96
1, 17131, Note_off_c, 0, 49, 96
1, 17507, Note_on_c, 0, 55, 110
1, 17608, Note_off_c, 0, 55, 110
1, 17608, Note_on_c, 0, 50, 102
1, 17673, Note_off_c, 0, 50, 102
1, 17864, Note_on_c, 0, 55, 105
1, 17975, Note_off_c, 0, 55, 105
1, 17980, Note_on_c, 0, 50, 104
1, 18070, Note_off_c, 0, 50, 104
1, 18072, Note_on_c, 0, 55, 108
1, 18175, Note_off_c, 0, 55, 108
1, 18183, Note_on_c, 0, 48, 86
1, 18286, Note_off_c, 0, 48, 86
1, 18441, Note_on_c, 0, 55, 99
1, 18552, Note_off_c, 0, 55, 99
1, 18552, Note_on_c, 0, 53, 107
1, 18631, Note_off_c, 0, 53, 107
1, 18813, Note_on_c, 0, 57, 114
1, 18919, Note_off_c, 0, 57, 114
1, 18938, Note_on_c, 0, 55, 111
1, 19058, Note_off_c, 0, 55, 111
1, 19071, Note_on_c, 0, 48, 89
1, 19188, Note_off_c, 0, 48, 89
1, 19324, Note_on_c, 0, 57, 84
1, 19384, Note_off_c, 0, 57, 84
1, 19400, Note_on_c, 0, 59, 100
1, 19462, Note_off_c, 0, 59, 100
1, 19478, Note_on_c, 0, 61, 111
1, 19589, Note_off_c, 0, 61, 111
1, 19605, Note_on_c, 0, 65, 119
1, 19681, Note_off_c, 0, 65, 119
1, 19700, Note_on_c, 0, 62, 103
1, 19795, Note_off_c, 0, 62, 103
1, 19811, Note_on_c, 0, 63, 111
1, 19876, Note_off_c, 0, 63, 111
1, 19876, Note_on_c, 0, 64, 115
1, 19916, Note_off_c, 0, 64, 115
1, 19924, Note_on_c, 0, 65, 104
1, 19956, Note_off_c, 0, 65, 104
1, 19961, Note_on_c, 0, 63, 114
1, 19993, Note_off_c, 0, 63, 114
1, 19995, Note_on_c, 0, 62, 114
1, 20063, Note_off_c, 0, 62, 114
1, 20073, Note_on_c, 0, 61, 115
1, 20176, Note_off_c, 0, 61, 115
1, 20176, Note_on_c, 0, 58, 104
1, 20260, Note_off_c, 0, 58, 104
1, 20276, Note_on_c, 0, 57, 105
1, 20366, Note_off_c, 0, 57, 105
1, 20371, Note_on_c, 0, 55, 108
1, 20458, Note_off_c, 0, 55, 108
1, 20504, Note_on_c, 0, 52, 97
1, 20607, Note_off_c, 0, 52, 97
1, 20615, Note_on_c, 0, 53, 104
1, 20694, Note_off_c, 0, 53, 104
1, 20694, Note_on_c, 0, 57, 94
1, 20759, Note_off_c, 0, 57, 94
1, 20759, Note_on_c, 0, 60, 102
1, 20821, Note_off_c, 0, 60, 102
1, 20823, Note_on_c, 0, 64, 118
1, 20929, Note_off_c, 0, 64, 118
1, 20931, Note_on_c, 0, 55, 104
1, 21032, Note_off_c, 0, 55, 104
1, 21032, Note_on_c, 0, 59, 101
1, 21122, Note_off_c, 0, 59, 101
1, 21122, Note_on_c, 0, 62, 116
1, 21203, Note_off_c, 0, 62, 116
1, 21203, Note_on_c, 0, 60, 118
1, 21314, Note_off_c, 0, 60, 118
1, 21322, Note_on_c, 0, 55, 109
1, 21425, Note_off_c, 0, 55, 109
1, 21425, Note_on_c, 0, 52, 95
1, 21509, Note_off_c, 0, 52, 95
1, 21509, Note_on_c, 0, 57, 101
1, 21803, Note_off_c, 0, 57, 101
1, 22250, Note_on_c, 0, 55, 105
1, 22342, Note_off_c, 0, 55, 105
1, 22342, Note_on_c, 0, 58, 109
1, 22437, Note_off_c, 0, 58, 109
1, 22442, Note_on_c, 0, 62, 116
1, 22521, Note_off_c, 0, 62, 116
1, 22523, Note_on_c, 0, 65, 120
1, 22645, Note_off_c, 0, 65, 120
1, 22645, Note_on_c, 0, 62, 107
1, 22715, Note_off_c, 0, 62, 107
1, 22715, Note_on_c, 0, 64, 117
1, 22824, Note_on_c, 0, 62, 119
1, 22824, Note_off_c, 0, 64, 117
1, 22892, Note_off_c, 0, 62, 119
1, 22900, Note_on_c, 0, 61, 113
1, 22943, Note_off_c, 0, 61, 113
1, 22948, Note_on_c, 0, 64, 114
1, 22988, Note_off_c, 0, 64, 114
1, 22993, Note_on_c, 0, 67, 111
1, 23042, Note_off_c, 0, 67, 111
1, 23104, Note_on_c, 0, 72, 115
1, 23235, Note_off_c, 0, 72, 115
1, 23235, Note_on_c, 0, 70, 109
1, 23305, Note_off_c, 0, 70, 109
1, 23307, Note_on_c, 0, 69, 100
1, 23361, Note_off_c, 0, 69, 100
1, 23361, Note_on_c, 0, 67, 99
1, 23423, Note_off_c, 0, 67, 99
1, 23439, Note_on_c, 0, 68, 103
1, 23501, Note_off_c, 0, 68, 103
1, 23506, Note_on_c, 0, 69, 114
1, 23598, Note_off_c, 0, 69, 114
1, 23598, Note_on_c, 0, 65, 105
1, 23699, Note_off_c, 0, 65, 105
1, 23718, Note_on_c, 0, 64, 95
1, 23799, Note_off_c, 0, 64, 95
1, 23807, Note_on_c, 0, 62, 96
1, 23875, Note_off_c, 0, 62, 96
1, 23885, Note_on_c, 0, 67, 107
1, 23904, Note_off_c, 0, 67, 107
1, 23912, Note_on_c, 0, 70, 99
1, 23939, Note_off_c, 0, 70, 99
1, 23943, Note_on_c, 0, 68, 105
1, 23958, Note_off_c, 0, 68, 105
1, 23958, Note_on_c, 0, 67, 107
1, 23973, Note_off_c, 0, 67, 107
1, 23979, Note_on_c, 0, 66, 109
1, 24039, Note_off_c, 0, 66, 109
1, 24055, Note_on_c, 0, 65, 117
1, 24166, Note_off_c, 0, 65, 117
1, 24171, Note_on_c, 0, 64, 119
1, 24269, Note_off_c, 0, 64, 119
1, 24271, Note_on_c, 0, 62, 116
1, 24374, Note_on_c, 0, 60, 110
1, 24374, Note_off_c, 0, 62, 116
1, 24477, Note_off_c, 0, 60, 110
1, 24479, Note_on_c, 0, 59, 102
1, 24536, Note_off_c, 0, 59, 102
1, 24546, Note_on_c, 0, 64, 107
1, 24627, Note_off_c, 0, 64, 107
1, 24643, Note_on_c, 0, 65, 115
1, 24744, Note_off_c, 0, 65, 115
1, 24746, Note_on_c, 0, 69, 113
1, 24833, Note_off_c, 0, 69, 113
1, 24843, Note_on_c, 0, 67, 108
1, 24933, Note_off_c, 0, 67, 108
1, 24946, Note_on_c, 0, 65, 113
1, 25019, Note_off_c, 0, 65, 113
1, 25035, Note_on_c, 0, 64, 106
1, 25130, Note_off_c, 0, 64, 106
1, 25135, Note_on_c, 0, 54, 104
1, 25184, Note_off_c, 0, 54, 104
1, 25184, Note_on_c, 0, 55, 110
1, 25244, Note_off_c, 0, 55, 110
1, 25249, Note_on_c, 0, 58, 100
1, 25322, Note_off_c, 0, 58, 100
1, 25330, Note_on_c, 0, 55, 104
1, 25400, Note_off_c, 0, 55, 104
1, 25400, Note_on_c, 0, 62, 118
1, 25520, Note_off_c, 0, 62, 118
1, 25520, Note_on_c, 0, 60, 114
1, 25621, Note_off_c, 0, 60, 114
1, 25623, Note_on_c, 0, 58, 103
1, 25721, Note_off_c, 0, 58, 103
1, 25723, Note_on_c, 0, 56, 101
1, 25813, Note_off_c, 0, 56, 101
1, 25815, Note_on_c, 0, 57, 109
1, 25921, Note_off_c, 0, 57, 109
1, 25921, Note_on_c, 0, 60, 108
1, 26041, Note_off_c, 0, 60, 108
1, 26049, Note_on_c, 0, 62, 103
1, 26106, Note_off_c, 0, 62, 103
1, 26127, Note_on_c, 0, 64, 104
1, 26181, Note_off_c, 0, 64, 104
1, 26183, Note_on_c, 0, 67, 118
1, 26294, Note_off_c, 0, 67, 118
1, 26296, Note_on_c, 0, 65, 114
1, 26383, Note_off_c, 0, 65, 114
1, 26391, Note_on_c, 0, 64, 112
1, 26475, Note_off_c, 0, 64, 112
1, 26491, Note_on_c, 0, 62, 117
1, 26597, Note_off_c, 0, 62, 117
1, 26597, Note_on_c, 0, 60, 110
1, 26695, Note_off_c, 0, 60, 110
1, 26695, Note_on_c, 0, 57, 107
1, 26787, Note_off_c, 0, 57, 107
1, 26792, Note_on_c, 0, 55, 108
1, 26882, Note_off_c, 0, 55, 108
1, 26884, Note_on_c, 0, 53, 110
1, 26985, Note_off_c, 0, 53, 110
1, 26995, Note_on_c, 0, 52, 104
1, 27068, Note_off_c, 0, 52, 104
1, 27068, Note_on_c, 0, 55, 111
1, 27169, Note_off_c, 0, 55, 111
1, 27169, Note_on_c, 0, 50, 100
1, 27261, Note_on_c, 0, 55, 110
1, 27261, Note_off_c, 0, 50, 100
1, 27381, Note_off_c, 0, 55, 110
1, 27383, Note_on_c, 0, 48, 99
1, 27492, Note_off_c, 0, 48, 99
1, 27830, Note_on_c, 0, 55, 111
1, 27903, Note_off_c, 0, 55, 111
1, 27908, Note_on_c, 0, 59, 110
1, 27995, Note_off_c, 0, 59, 110
1, 27997, Note_on_c, 0, 60, 114
1, 28106, Note_off_c, 0, 60, 114
1, 28111, Note_on_c, 0, 65, 116
1, 28222, Note_off_c, 0, 65, 116
1, 28224, Note_on_c, 0, 64, 120
1, 28305, Note_off_c, 0, 64, 120
1, 28305, Note_on_c, 0, 60, 114
1, 28430, Note_off_c, 0, 60, 114
1, 28438, Note_on_c, 0, 55, 105
1, 28492, Note_off_c, 0, 55, 105
1, 28492, Note_on_c, 0, 59, 104
1, 28642, Note_off_c, 0, 59, 104
1, 28647, Note_on_c, 0, 60, 93
1, 28709, Note_off_c, 0, 60, 93
1, 29148, Note_on_c, 0, 70, 116
1, 29259, Note_off_c, 0, 70, 116
1, 29278, Note_on_c, 0, 71, 120
1, 29531, Note_off_c, 0, 71, 120
1, 29544, Note_on_c, 0, 69, 115
1, 29645, Note_off_c, 0, 69, 115
1, 29650, Note_on_c, 0, 67, 118
1, 29772, Note_off_c, 0, 67, 118
1, 29774, Note_on_c, 0, 60, 91
1, 29894, Note_off_c, 0, 60, 91
1, 30576, Note_on_c, 0, 60, 93
1, 30616, Note_off_c, 0, 60, 93
1, 30616, Note_on_c, 0, 62, 104
1, 30651, Note_off_c, 0, 62, 104
1, 30651, Note_on_c, 0, 65, 104
1, 30697, Note_off_c, 0, 65, 104
1, 30702, Note_on_c, 0, 67, 115
1, 30794, Note_off_c, 0, 67, 115
1, 30813, Note_on_c, 0, 66, 102
1, 30933, Note_off_c, 0, 66, 102
1, 30943, Note_on_c, 0, 67, 115
1, 31175, Note_off_c, 0, 67, 115
1, 31499, Note_on_c, 0, 65, 114
1, 31597, Note_off_c, 0, 65, 114
1, 31607, Note_on_c, 0, 66, 101
1, 31803, Note_off_c, 0, 66, 101
1, 31808, Note_on_c, 0, 67, 106
1, 31933, Note_off_c, 0, 67, 106
1, 32361, Note_on_c, 0, 60, 106
1, 32456, Note_off_c, 0, 60, 106
1, 32456, Note_on_c, 0, 67, 117
1, 32573, Note_off_c, 0, 67, 117
1, 32654, Note_on_c, 0, 68, 108
1, 32790, Note_off_c, 0, 68, 108
1, 32798, Note_on_c, 0, 69, 108
1, 33035, Note_off_c, 0, 69, 108
1, 33040, Note_on_c, 0, 67, 115
1, 33151, Note_off_c, 0, 67, 115
1, 33232, Note_on_c, 0, 65, 108
1, 33393, Note_off_c, 0, 65, 108
1, 33398, Note_on_c, 0, 64, 96
1, 33526, Note_off_c, 0, 64, 96
1, 34374, Note_on_c, 0, 70, 123
1, 34513, Note_off_c, 0, 70, 123
1, 34548, Note_on_c, 0, 64, 122
1, 34684, Note_off_c, 0, 64, 122
1, 34744, Note_on_c, 0, 73, 100
1, 34793, Note_off_c, 0, 73, 100
1, 34814, Note_on_c, 0, 76, 127
1, 34972, Note_off_c, 0, 76, 127
1, 35034, Note_on_c, 0, 74, 100
1, 35124, Note_off_c, 0, 74, 100
1, 35219, Note_on_c, 0, 73, 111
1, 35410, Note_off_c, 0, 73, 111
1, 36553, Note_on_c, 0, 73, 115
1, 36623, Note_off_c, 0, 73, 115
1, 36639, Note_on_c, 0, 74, 104
1, 36731, Note_off_c, 0, 74, 104
1, 36736, Note_on_c, 0, 72, 117
1, 36839, Note_off_c, 0, 72, 117
1, 36839, Note_on_c, 0, 69, 114
1, 36929, Note_off_c, 0, 69, 114
1, 36939, Note_on_c, 0, 71, 117
1, 37031, Note_off_c, 0, 71, 117
1, 37041, Note_on_c, 0, 68, 112
1, 37117, Note_off_c, 0, 68, 112
1, 37127, Note_on_c, 0, 67, 111
1, 37225, Note_off_c, 0, 67, 111
1, 37235, Note_on_c, 0, 65, 115
1, 37327, Note_off_c, 0, 65, 115
1, 37327, Note_on_c, 0, 64, 116
1, 37417, Note_off_c, 0, 64, 116
1, 37425, Note_on_c, 0, 67, 119
1, 37515, Note_off_c, 0, 67, 119
1, 37515, Note_on_c, 0, 62, 118
1, 37605, Note_off_c, 0, 62, 118
1, 37621, Note_on_c, 0, 61, 115
1, 37705, Note_off_c, 0, 61, 115
1, 37721, Note_on_c, 0, 60, 117
1, 37816, Note_off_c, 0, 60, 117
1, 37816, Note_on_c, 0, 59, 110
1, 37903, Note_off_c, 0, 59, 110
1, 37911, Note_on_c, 0, 58, 105
1, 38001, Note_off_c, 0, 58, 105
1, 38006, Note_on_c, 0, 56, 109
1, 38134, Note_on_c, 0, 57, 107
1, 38134, Note_off_c, 0, 56, 109
1, 38224, Note_off_c, 0, 57, 107
1, 38229, Note_on_c, 0, 53, 109
1, 38310, Note_off_c, 0, 53, 109
1, 38315, Note_on_c, 0, 52, 105
1, 38399, Note_off_c, 0, 52, 105
1, 38412, Note_on_c, 0, 50, 106
1, 38474, Note_off_c, 0, 50, 106
1, 38476, Note_on_c, 0, 56, 114
1, 38590, Note_off_c, 0, 56, 114
1, 38598, Note_on_c, 0, 54, 111
1, 38685, Note_off_c, 0, 54, 111
1, 38693, Note_on_c, 0, 55, 115
1, 38791, Note_off_c, 0, 55, 115
1, 38793, Note_on_c, 0, 53, 111
1, 38874, Note_off_c, 0, 53, 111
1, 38887, Note_on_c, 0, 52, 102
1, 38968, Note_off_c, 0, 52, 102
1, 39017, Note_on_c, 0, 55, 100
1, 39074, Note_on_c, 0, 57, 111
1, 39074, Note_off_c, 0, 55, 100
1, 39180, Note_off_c, 0, 57, 111
1, 39185, Note_on_c, 0, 59, 106
1, 39288, Note_off_c, 0, 59, 106
1, 39290, Note_on_c, 0, 62, 115
1, 39401, Note_off_c, 0, 62, 115
1, 39403, Note_on_c, 0, 59, 97
1, 39465, Note_off_c, 0, 59, 97
1, 39475, Note_on_c, 0, 60, 121
1, 39545, Note_off_c, 0, 60, 121
1, 39577, Note_on_c, 0, 60, 122
1, 39672, Note_off_c, 0, 60, 122
1, 39677, Note_on_c, 0, 59, 105
1, 39775, Note_off_c, 0, 59, 105
1, 39775, Note_on_c, 0, 60, 118
1, 39878, Note_off_c, 0, 60, 118
1, 39883, Note_on_c, 0, 64, 62
1, 39959, Note_off_c, 0, 64, 62
1, 39964, Note_on_c, 0, 67, 112
1, 40056, Note_off_c, 0, 67, 112
1, 40058, Note_on_c, 0, 71, 122
1, 40161, Note_off_c, 0, 71, 122
1, 40171, Note_on_c, 0, 69, 115
1, 40241, Note_off_c, 0, 69, 115
1, 40251, Note_on_c, 0, 67, 114
1, 40362, Note_off_c, 0, 67, 114
1, 40362, Note_on_c, 0, 59, 98
1, 40413, Note_off_c, 0, 59, 98
1, 40421, Note_on_c, 0, 60, 110
1, 40546, Note_off_c, 0, 60, 110
1, 40556, Note_on_c, 0, 65, 119
1, 40640, Note_off_c, 0, 65, 119
1, 40656, Note_on_c, 0, 64, 118
1, 40735, Note_off_c, 0, 64, 118
1, 40735, Note_on_c, 0, 60, 114
1, 40830, Note_off_c, 0, 60, 114
1, 40830, Note_on_c, 0, 57, 103
1, 40952, Note_off_c, 0, 57, 103
1, 40960, Note_on_c, 0, 56, 110
1, 41036, Note_off_c, 0, 56, 110
1, 41057, Note_on_c, 0, 55, 111
1, 41149, Note_off_c, 0, 55, 111
1, 41151, Note_on_c, 0, 53, 109
1, 41230, Note_off_c, 0, 53, 109
1, 41232, Note_on_c, 0, 52, 105
1, 41333, Note_off_c, 0, 52, 105
1, 41333, Note_on_c, 0, 62, 109
1, 41458, Note_off_c, 0, 62, 109
1, 41468, Note_on_c, 0, 59, 95
1, 41555, Note_off_c, 0, 59, 95
1, 41555, Note_on_c, 0, 55, 97
1, 41628, Note_off_c, 0, 55, 97
1, 41633, Note_on_c, 0, 61, 114
1, 41739, Note_off_c, 0, 61, 114
1, 41739, Note_on_c, 0, 58, 97
1, 41845, Note_off_c, 0, 58, 97
1, 41855, Note_on_c, 0, 54, 96
1, 41928, Note_off_c, 0, 54, 96
1, 41930, Note_on_c, 0, 50, 99
1, 41976, Note_off_c, 0, 50, 99
1, 41989, Note_on_c, 0, 60, 119
1, 42120, Note_off_c, 0, 60, 119
1, 42133, Note_on_c, 0, 57, 106
1, 42217, Note_off_c, 0, 57, 106
1, 42236, Note_on_c, 0, 53, 98
1, 42328, Note_off_c, 0, 53, 98
1, 42330, Note_on_c, 0, 57, 91
1, 42370, Note_off_c, 0, 57, 91
1, 42370, Note_on_c, 0, 59, 105
1, 42678, Note_off_c, 0, 59, 105
1, 42691, Note_on_c, 0, 57, 110
1, 42775, Note_off_c, 0, 57, 110
1, 42783, Note_on_c, 0, 55, 110
1, 42905, Note_off_c, 0, 55, 110
1, 42910, Note_on_c, 0, 52, 95
1, 43030, Note_off_c, 0, 52, 95
1, 43712, Note_on_c, 0, 66, 115
1, 43785, Note_off_c, 0, 66, 115
1, 43785, Note_on_c, 0, 68, 116
1, 43842, Note_off_c, 0, 68, 116
1, 43847, Note_on_c, 0, 71, 113
1, 43909, Note_off_c, 0, 71, 113
1, 43909, Note_on_c, 0, 70, 115
1, 43939, Note_off_c, 0, 70, 115
1, 43949, Note_on_c, 0, 68, 112
1, 44009, Note_off_c, 0, 68, 112
1, 44011, Note_on_c, 0, 67, 112
1, 44095, Note_off_c, 0, 67, 112
1, 44569, Note_on_c, 0, 69, 114
1, 44694, Note_off_c, 0, 69, 114
1, 44696, Note_on_c, 0, 70, 108
1, 44835, Note_off_c, 0, 70, 108
1, 44854, Note_on_c, 0, 69, 116
1, 44952, Note_off_c, 0, 69, 116
1, 44965, Note_on_c, 0, 64, 108
1, 45052, Note_off_c, 0, 64, 108
1, 45062, Note_on_c, 0, 67, 116
1, 45176, Note_off_c, 0, 67, 116
1, 45178, Note_on_c, 0, 66, 113
1, 45251, Note_off_c, 0, 66, 113
1, 45261, Note_on_c, 0, 65, 117
1, 45375, Note_off_c, 0, 65, 117
1, 45385, Note_on_c, 0, 57, 105
1, 45453, Note_off_c, 0, 57, 105
1, 45455, Note_on_c, 0, 64, 123
1, 45556, Note_off_c, 0, 64, 123
1, 45569, Note_on_c, 0, 65, 117
1, 45667, Note_off_c, 0, 65, 117
1, 45677, Note_on_c, 0, 62, 114
1, 45761, Note_off_c, 0, 62, 114
1, 45777, Note_on_c, 0, 59, 94
1, 45847, Note_off_c, 0, 59, 94
1, 45863, Note_on_c, 0, 60, 123
1, 45961, Note_off_c, 0, 60, 123
1, 45977, Note_on_c, 0, 55, 111
1, 46064, Note_off_c, 0, 55, 111
1, 46064, Note_on_c, 0, 52, 96
1, 46151, Note_off_c, 0, 52, 96
1, 46151, Note_on_c, 0, 55, 113
1, 46249, Note_off_c, 0, 55, 113
1, 46259, Note_on_c, 0, 53, 107
1, 46357, Note_off_c, 0, 53, 107
1, 46359, Note_on_c, 0, 55, 108
1, 46399, Note_off_c, 0, 55, 108
1, 46418, Note_on_c, 0, 56, 111
1, 46538, Note_off_c, 0, 56, 111
1, 46538, Note_on_c, 0, 54, 100
1, 46581, Note_off_c, 0, 54, 100
1, 46589, Note_on_c, 0, 55, 111
1, 46736, Note_off_c, 0, 55, 111
1, 46746, Note_on_c, 0, 52, 100
1, 46988, Note_off_c, 0, 52, 100
1, 47293, Note_on_c, 0, 46, 116
1, 47454, Note_off_c, 0, 46, 116
1, 47470, Note_on_c, 0, 45, 113
1, 47633, Note_off_c, 0, 45, 113
1, 47672, Note_on_c, 0, 56, 111
1, 47726, Note_off_c, 0, 56, 111
1, 47730, Note_on_c, 0, 57, 110
1, 47953, Note_off_c, 0, 57, 110
1, 47963, Note_on_c, 0, 55, 114
1, 48110, Note_off_c, 0, 55, 114
1, 48120, Note_on_c, 0, 52, 104
1, 48242, Note_off_c, 0, 52, 104
1, 48250, Note_on_c, 0, 53, 114
1, 48367, Note_off_c, 0, 53, 114
1, 48386, Note_on_c, 0, 48, 105
1, 48506, Note_off_c, 0, 48, 105
1, 48525, Note_on_c, 0, 44, 111
1, 48858, Note_off_c, 0, 44, 111
1, 49406, Note_on_c, 0, 56, 87
1, 49468, Note_off_c, 0, 56, 87
1, 49470, Note_on_c, 0, 60, 113
1, 49579, Note_off_c, 0, 60, 113
1, 49579, Note_on_c, 0, 65, 119
1, 49669, Note_off_c, 0, 65, 119
1, 49709, Note_on_c, 0, 65, 119
1, 49782, Note_off_c, 0, 65, 119
1, 49795, Note_on_c, 0, 65, 116
1, 49863, Note_off_c, 0, 65, 116
1, 49895, Note_on_c, 0, 65, 118
1, 49963, Note_off_c, 0, 65, 118
1, 50001, Note_on_c, 0, 65, 117
1, 50085, Note_off_c, 0, 65, 117
1, 50106, Note_on_c, 0, 64, 121
1, 50193, Note_off_c, 0, 64, 121
1, 50198, Note_on_c, 0, 60, 111
1, 50290, Note_off_c, 0, 60, 111
1, 50838, Note_on_c, 0, 68, 98
1, 50919, Note_off_c, 0, 68, 98
1, 50921, Note_on_c, 0, 69, 108
1, 50967, Note_off_c, 0, 69, 108
1, 50969, Note_on_c, 0, 68, 118
1, 51050, Note_off_c, 0, 68, 118
1, 51060, Note_on_c, 0, 67, 118
1, 51152, Note_off_c, 0, 67, 118
1, 51152, Note_on_c, 0, 64, 105
1, 51231, Note_off_c, 0, 64, 105
1, 51252, Note_on_c, 0, 65, 117
1, 51317, Note_off_c, 0, 65, 117
1, 51325, Note_on_c, 0, 66, 107
1, 51357, Note_off_c, 0, 66, 107
1, 51367, Note_on_c, 0, 65, 115
1, 51429, Note_off_c, 0, 65, 115
1, 51442, Note_on_c, 0, 64, 113
1, 51526, Note_off_c, 0, 64, 113
1, 51526, Note_on_c, 0, 62, 121
1, 51616, Note_off_c, 0, 62, 121
1, 51626, Note_on_c, 0, 60, 114
1, 51729, Note_off_c, 0, 60, 114
1, 51729, Note_on_c, 0, 55, 108
1, 51840, Note_off_c, 0, 55, 108
1, 52874, Note_on_c, 0, 62, 117
1, 52980, Note_off_c, 0, 62, 117
1, 52982, Note_on_c, 0, 59, 102
1, 53066, Note_off_c, 0, 59, 102
1, 53066, Note_on_c, 0, 60, 106
1, 53199, Note_off_c, 0, 60, 106
1, 53253, Note_on_c, 0, 67, 104
1, 53356, Note_off_c, 0, 67, 104
1, 53358, Note_on_c, 0, 71, 125
1, 53478, Note_off_c, 0, 71, 125
1, 53486, Note_on_c, 0, 69, 117
1, 53562, Note_on_c, 0, 67, 119
1, 53562, Note_off_c, 0, 69, 117
1, 53673, Note_off_c, 0, 67, 119
1, 53673, Note_on_c, 0, 65, 117
1, 53768, Note_off_c, 0, 65, 117
1, 53768, Note_on_c, 0, 64, 116
1, 53849, Note_off_c, 0, 64, 116
1, 53862, Note_on_c, 0, 62, 116
1, 53932, Note_off_c, 0, 62, 116
1, 53948, Note_on_c, 0, 61, 107
1, 53997, Note_off_c, 0, 61, 107
1, 53997, Note_on_c, 0, 64, 115
1, 54054, Note_off_c, 0, 64, 115
1, 54062, Note_on_c, 0, 67, 109
1, 54122, Note_off_c, 0, 67, 109
1, 54124, Note_on_c, 0, 70, 119
1, 54246, Note_off_c, 0, 70, 119
1, 54246, Note_on_c, 0, 68, 108
1, 54325, Note_off_c, 0, 68, 108
1, 54349, Note_on_c, 0, 69, 116
1, 54444, Note_off_c, 0, 69, 116
1, 54444, Note_on_c, 0, 65, 110
1, 54531, Note_off_c, 0, 65, 110
1, 54539, Note_on_c, 0, 64, 102
1, 54626, Note_off_c, 0, 64, 102
1, 54628, Note_on_c, 0, 62, 103
1, 54696, Note_off_c, 0, 62, 103
1, 54696, Note_on_c, 0, 67, 120
1, 54846, Note_off_c, 0, 67, 120
1, 54846, Note_on_c, 0, 65, 116
1, 54936, Note_off_c, 0, 65, 116
1, 54938, Note_on_c, 0, 64, 118
1, 55014, Note_on_c, 0, 62, 120
1, 55014, Note_off_c, 0, 64, 118
1, 55106, Note_off_c, 0, 62, 120
1, 55106, Note_on_c, 0, 60, 116
1, 55231, Note_off_c, 0, 60, 116
1, 55231, Note_on_c, 0, 62, 108
1, 55288, Note_off_c, 0, 62, 108
1, 55288, Note_on_c, 0, 64, 118
1, 55416, Note_off_c, 0, 64, 118
1, 55416, Note_on_c, 0, 65, 107
1, 55473, Note_off_c, 0, 65, 107
1, 55473, Note_on_c, 0, 67, 122
1, 55623, Note_off_c, 0, 67, 122
1, 55631, Note_on_c, 0, 69, 100
1, 55680, Note_off_c, 0, 69, 100
1, 55680, Note_on_c, 0, 71, 119
1, 55821, Note_off_c, 0, 71, 119
1, 55829, Note_on_c, 0, 72, 120
1, 55954, Note_off_c, 0, 72, 120
1, 55992, Note_on_c, 0, 71, 123
1, 56117, Note_off_c, 0, 71, 123
1, 56127, Note_on_c, 0, 69, 119
1, 56247, Note_off_c, 0, 69, 119
1, 56541, Note_on_c, 0, 66, 121
1, 56620, Note_off_c, 0, 66, 121
1, 56630, Note_on_c, 0, 67, 123
1, 56711, Note_off_c, 0, 67, 123
1, 56762, Note_on_c, 0, 65, 119
1, 56882, Note_off_c, 0, 65, 119
1, 56882, Note_on_c, 0, 64, 118
1, 57015, Note_off_c, 0, 64, 118
1, 57017, Note_on_c, 0, 62, 119
1, 57139, Note_off_c, 0, 62, 119
1, 57201, Note_on_c, 0, 60, 118
1, 57351, Note_off_c, 0, 60, 118
1, 57361, Note_on_c, 0, 55, 109
1, 57467, Note_off_c, 0, 55, 109
1, 57467, Note_on_c, 0, 63, 123
1, 57535, Note_off_c, 0, 63, 123
1, 57543, Note_on_c, 0, 64, 116
1, 57731, Note_off_c, 0, 64, 116
1, 57739, Note_on_c, 0, 65, 120
1, 57853, Note_off_c, 0, 65, 120
1, 57866, Note_on_c, 0, 64, 113
1, 58190, Note_off_c, 0, 64, 113
1, 58230, Note_on_c, 0, 64, 116
1, 58352, Note_off_c, 0, 64, 116
1, 58352, Note_on_c, 0, 67, 107
1, 58463, Note_off_c, 0, 67, 107
1, 58479, Note_on_c, 0, 60, 101
1, 58560, Note_off_c, 0, 60, 101
1, 58560, Note_on_c, 0, 62, 102
1, 58636, Note_off_c, 0, 62, 102
1, 58644, Note_on_c, 0, 64, 121
1, 58723, Note_off_c, 0, 64, 121
1, 58777, Note_on_c, 0, 55, 110
1, 58962, Note_on_c, 0, 58, 107
1, 58962, Note_off_c, 0, 55, 110
1, 59172, Note_off_c, 0, 58, 107
1, 59499, Note_on_c, 0, 56, 108
1, 59550, Note_off_c, 0, 56, 108
1, 59552, Note_on_c, 0, 58, 113
1, 59598, Note_on_c, 0, 62, 114
1, 59598, Note_off_c, 0, 58, 113
1, 59668, Note_off_c, 0, 62, 114
1, 59689, Note_on_c, 0, 69, 111
1, 59768, Note_off_c, 0, 69, 111
1, 59778, Note_on_c, 0, 72, 120
1, 59999, Note_off_c, 0, 72, 120
1, 60007, Note_on_c, 0, 70, 117
1, 60075, Note_off_c, 0, 70, 117
1, 60077, Note_on_c, 0, 65, 116
1, 60139, Note_off_c, 0, 65, 116
1, 60155, Note_on_c, 0, 61, 109
1, 60212, Note_off_c, 0, 61, 109
1, 60233, Note_on_c, 0, 63, 124
1, 60358, Note_off_c, 0, 63, 124
1, 60368, Note_on_c, 0, 64, 106
1, 60452, Note_off_c, 0, 64, 106
1, 60730, Note_on_c, 0, 55, 112
1, 60811, Note_off_c, 0, 55, 112
1, 60819, Note_on_c, 0, 56, 110
1, 60903, Note_off_c, 0, 56, 110
1, 60924, Note_on_c, 0, 67, 112
1, 61041, Note_off_c, 0, 67, 112
1, 61094, Note_on_c, 0, 65, 117
1, 61205, Note_off_c, 0, 65, 117
1, 61282, Note_on_c, 0, 70, 115
1, 61402, Note_off_c, 0, 70, 115
1, 61511, Note_on_c, 0, 68, 119
1, 61674, Note_off_c, 0, 68, 119
1, 61723, Note_on_c, 0, 63, 123
1, 61802, Note_off_c, 0, 63, 123
1, 61864, Note_on_c, 0, 59, 107
1, 61954, Note_off_c, 0, 59, 107
1, 61970, Note_on_c, 0, 61, 116
1, 62071, Note_off_c, 0, 61, 116
1, 62071, Note_on_c, 0, 55, 102
1, 62125, Note_on_c, 0, 60, 113
1, 62125, Note_off_c, 0, 55, 102
1, 62226, Note_off_c, 0, 60, 113
1, 62316, Note_on_c, 0, 65, 114
1, 62460, Note_off_c, 0, 65, 114
1, 62460, Note_on_c, 0, 60, 105
1, 62533, Note_off_c, 0, 60, 105
1, 62533, Note_on_c, 0, 64, 117
1, 62658, Note_off_c, 0, 64, 117
1, 62658, Note_on_c, 0, 60, 120
1, 62750, Note_off_c, 0, 60, 120
1, 62760, Note_on_c, 0, 58, 100
1, 62833, Note_off_c, 0, 58, 100
1, 62841, Note_on_c, 0, 56, 97
1, 62936, Note_off_c, 0, 56, 97
1, 62949, Note_on_c, 0, 57, 114
1, 63028, Note_on_c, 0, 60, 112
1, 63028, Note_off_c, 0, 57, 114
1, 63161, Note_off_c, 0, 60, 112
1, 63161, Note_on_c, 0, 62, 107
1, 63221, Note_off_c, 0, 62, 107
1, 63229, Note_on_c, 0, 64, 101
1, 63269, Note_off_c, 0, 64, 101
1, 63279, Note_on_c, 0, 65, 107
1, 63309, Note_off_c, 0, 65, 107
1, 63311, Note_on_c, 0, 67, 115
1, 63439, Note_off_c, 0, 67, 115
1, 63444, Note_on_c, 0, 65, 101
1, 63509, Note_off_c, 0, 65, 101
1, 63509, Note_on_c, 0, 72, 120
1, 63626, Note_off_c, 0, 72, 120
1, 63628, Note_on_c, 0, 68, 123
1, 63718, Note_off_c, 0, 68, 123
1, 63723, Note_on_c, 0, 67, 110
1, 63829, Note_off_c, 0, 67, 110
1, 63831, Note_on_c, 0, 65, 110
1, 63918, Note_off_c, 0, 65, 110
1, 63920, Note_on_c, 0, 64, 105
1, 64015, Note_off_c, 0, 64, 105
1, 64015, Note_on_c, 0, 62, 114
1, 64110, Note_off_c, 0, 62, 114
1, 64110, Note_on_c, 0, 60, 105
1, 64191, Note_off_c, 0, 60, 105
1, 64772, Note_on_c, 0, 68, 117
1, 64856, Note_off_c, 0, 68, 117
1, 64866, Note_on_c, 0, 69, 121
1, 65059, Note_off_c, 0, 69, 121
1, 65064, Note_on_c, 0, 68, 113
1, 65143, Note_off_c, 0, 68, 113
1, 65143, Note_on_c, 0, 67, 114
1, 65260, Note_off_c, 0, 67, 114
1, 65276, Note_on_c, 0, 65, 112
1, 65346, Note_off_c, 0, 65, 112
1, 65346, Note_on_c, 0, 67, 109
1, 65457, Note_off_c, 0, 67, 109
1, 65457, End_track
0, 0, End_of_file
