0, 0, Header, 1, 1, 840
1, 0, Start_track
1, 0, Title_t, "Melody"
1, 0, Tempo, 447761
1, 0, Key_signature, -2, "major"
1, 0, Time_signature, 4, 2, 24, 8
1, 8167, Note_on_c, 0, 55, 107
1, 8423, Note_off_c, 0, 55, 107
1, 8499, Note_on_c, 0, 56, 101
1, 8950, Note_off_c, 0, 56, 101
1, 8969, Note_on_c, 0, 67, 91
1, 10427, Note_off_c, 0, 67, 91
1, 14035, Note_on_c, 0, 65, 110
1, 14387, Note_off_c, 0, 65, 110
1, 14400, Note_on_c, 0, 60, 107
1, 14855, Note_off_c, 0, 60, 107
1, 14885, Note_on_c, 0, 56, 101
1, 15264, Note_off_c, 0, 56, 101
1, 15271, Note_on_c, 0, 55, 92
1, 15424, Note_on_c, 0, 56, 90
1, 15424, Note_off_c, 0, 55, 92
1, 15580, Note_off_c, 0, 56, 90
1, 15622, Note_on_c, 0, 55, 93
1, 15790, Note_off_c, 0, 55, 93
1, 15828, Note_on_c, 0, 53, 88
1, 16034, Note_off_c, 0, 53, 88
1, 16064, Note_on_c, 0, 58, 101
1, 16519, Note_off_c, 0, 58, 101
1, 16633, Note_on_c, 0, 53, 91
1, 17222, Note_off_c, 0, 53, 91
1, 21956, Note_on_c, 0, 61, 95
1, 22367, Note_off_c, 0, 61, 95
1, 22386, Note_on_c, 0, 65, 113
1, 22719, Note_off_c, 0, 65, 113
1, 22765, Note_on_c, 0, 69, 107
1, 23178, Note_off_c, 0, 69, 107
1, 23196, Note_on_c, 0, 72, 107
1, 23705, Note_off_c, 0, 72, 107
1, 23710, Note_on_c, 0, 73, 100
1, 24119, Note_off_c, 0, 73, 100
1, 24119, Note_on_c, 0, 69, 95
1, 25112, Note_off_c, 0, 69, 95
1, 27910, Note_on_c, 0, 61, 90
1, 27984, Note_off_c, 0, 61, 90
1, 27989, Note_on_c, 0, 62, 102
1, 28042, Note_off_c, 0, 62, 102
1, 28051, Note_on_c, 0, 63, 106
1, 28272, Note_off_c, 0, 63, 106
1, 28304, Note_on_c, 0, 65, 110
1, 28636, Note_off_c, 0, 65, 110
1, 28679, Note_on_c, 0, 61, 117
1, 29064, Note_off_c, 0, 61, 117
1, 29171, Note_on_c, 0, 57, 101
1, 29350, Note_off_c, 0, 57, 101
1, 29350, Note_on_c, 0, 60, 104
1, 29864, Note_off_c, 0, 60, 104
1, 29953, Note_on_c, 0, 56, 103
1, 30387, Note_off_c, 0, 56, 103
1, 30437, Note_on_c, 0, 57, 94
1, 30567, Note_off_c, 0, 57, 94
1, 30590, Note_on_c, 0, 56, 104
1, 30747, Note_off_c, 0, 56, 104
1, 30831, Note_on_c, 0, 53, 99
1, 31073, Note_off_c, 0, 53, 99
1, 31081, Note_on_c, 0, 56, 108
1, 31558, Note_off_c, 0, 56, 108
1, 36197, Note_on_c, 0, 55, 104
1, 36352, Note_off_c, 0, 55, 104
1, 36354, Note_on_c, 0, 59, 96
1, 36574, Note_off_c, 0, 59, 96
1, 36623, Note_on_c, 0, 63, 97
1, 36707, Note_off_c, 0, 63, 97
1, 36723, Note_on_c, 0, 67, 114
1, 36935, Note_off_c, 0, 67, 114
1, 36962, Note_on_c, 0, 63, 109
1, 37168, Note_off_c, 0, 63, 109
1, 37178, Note_on_c, 0, 60, 100
1, 37346, Note_off_c, 0, 60, 100
1, 37359, Note_on_c, 0, 62, 107
1, 37538, Note_off_c, 0, 62, 107
1, 37559, Note_on_c, 0, 65, 112
1, 37765, Note_off_c, 0, 65, 112
1, 37786, Note_on_c, 0, 64, 118
1, 37957, Note_off_c, 0, 64, 118
1, 38022, Note_on_c, 0, 63, 117
1, 38139, Note_off_c, 0, 63, 117
1, 38168, Note_on_c, 0, 62, 118
1, 38380, Note_off_c, 0, 62, 118
1, 38426, Note_on_c, 0, 60, 108
1, 38627, Note_off_c, 0, 60, 108
1, 38670, Note_on_c, 0, 55, 102
1, 38827, Note_off_c, 0, 55, 102
1, 38851, Note_on_c, 0, 59, 92
1, 39038, Note_off_c, 0, 59, 92
1, 39067, Note_on_c, 0, 62, 111
1, 39222, Note_off_c, 0, 62, 111
1, 39238, Note_on_c, 0, 60, 106
1, 39553, Note_off_c, 0, 60, 106
1, 39582, Note_on_c, 0, 59, 96
1, 39688, Note_off_c, 0, 59, 96
1, 39747, Note_on_c, 0, 58, 93
1, 39839, Note_off_c, 0, 58, 93
1, 39896, Note_on_c, 0, 55, 101
1, 40015, Note_off_c, 0, 55, 101
1, 40047, Note_on_c, 0, 57, 104
1, 40223, Note_off_c, 0, 57, 104
1, 40272, Note_on_c, 0, 55, 103
1, 40440, Note_off_c, 0, 55, 103
1, 40483, Note_on_c, 0, 53, 99
1, 40651, Note_off_c, 0, 53, 99
1, 40672, Note_on_c, 0, 52, 99
1, 40824, Note_off_c, 0, 52, 99
1, 40890, Note_on_c, 0, 48, 92
1, 41085, Note_off_c, 0, 48, 92
1, 41128, Note_on_c, 0, 54, 94
1, 41220, Note_off_c, 0, 54, 94
1, 41233, Note_on_c, 0, 55, 102
1, 41338, Note_off_c, 0, 55, 102
1, 41380, Note_on_c, 0, 58, 97
1, 41481, Note_off_c, 0, 58, 97
1, 41483, Note_on_c, 0, 62, 106
1, 41578, Note_off_c, 0, 62, 106
1, 41611, Note_on_c, 0, 65, 119
1, 41762, Note_off_c, 0, 65, 119
1, 41846, Note_on_c, 0, 61, 113
1, 42029, Note_off_c, 0, 61, 113
1, 42124, Note_on_c, 0, 57, 98
1, 42243, Note_off_c, 0, 57, 98
1, 42263, Note_on_c, 0, 55, 103
1, 42389, Note_off_c, 0, 55, 103
1, 42438, Note_on_c, 0, 48, 114
1, 42648, Note_off_c, 0, 48, 114
1, 42716, Note_on_c, 0, 56, 106
1, 42912, Note_off_c, 0, 56, 106
1, 42937, Note_on_c, 0, 55, 101
1, 43084, Note_off_c, 0, 55, 101
1, 43124, Note_on_c, 0, 53, 98
1, 43241, Note_off_c, 0, 53, 98
1, 43284, Note_on_c, 0, 55, 99
1, 43613, Note_off_c, 0, 55, 99
1, 47255, Note_on_c, 0, 46, 115
1, 47787, Note_off_c, 0, 46, 115
1, 47806, Note_on_c, 0, 56, 109
1, 48326, Note_off_c, 0, 56, 109
1, 48361, Note_on_c, 0, 60, 107
1, 48897, Note_off_c, 0, 60, 107
1, 49003, Note_on_c, 0, 67, 97
1, 50701, Note_off_c, 0, 67, 97
1, 53848, Note_on_c, 0, 65, 108
1, 54161, Note_off_c, 0, 65, 108
1, 56269, Note_on_c, 0, 62, 105
1, 56372, Note_off_c, 0, 62, 105
1, 56552, Note_on_c, 0, 63, 127
1, 57164, Note_off_c, 0, 63, 127
1, 57192, Note_on_c, 0, 62, 106
1, 57310, Note_off_c, 0, 62, 106
1, 57346, Note_on_c, 0, 63, 122
1, 58002, Note_off_c, 0, 63, 122
1, 58011, Note_on_c, 0, 62, 106
1, 58196, Note_off_c, 0, 62, 106
1, 58250, Note_on_c, 0, 63, 119
1, 58868, Note_off_c, 0, 63, 119
1, 58880, Note_on_c, 0, 62, 100
1, 59050, Note_off_c, 0, 62, 100
1, 59082, Note_on_c, 0, 63, 122
1, 59672, Note_off_c, 0, 63, 122
1, 59707, Note_on_c, 0, 62, 110
1, 59860, Note_off_c, 0, 62, 110
1, 59894, Note_on_c, 0, 63, 122
1, 60531, Note_off_c, 0, 63, 122
1, 60565, Note_on_c, 0, 62, 104
1, 60754, Note_off_c, 0, 62, 104
1, 60785, Note_on_c, 0, 63, 122
1, 61340, Note_off_c, 0, 63, 122
1, 61348, Note_on_c, 0, 61, 108
1, 61658, Note_off_c, 0, 61, 108
1, 61704, Note_on_c, 0, 58, 93
1, 62106, Note_off_c, 0, 58, 93
1, 62125, Note_on_c, 0, 56, 90
1, 62307, Note_off_c, 0, 56, 90
1, 62364, Note_on_c, 0, 61, 107
1, 63071, Note_off_c, 0, 61, 107
1, 63171, Note_on_c, 0, 55, 96
1, 63895, Note_off_c, 0, 55, 96
1, 64033, Note_on_c, 0, 60, 109
1, 64250, Note_off_c, 0, 60, 109
1, 69099, Note_on_c, 0, 68, 108
1, 69242, Note_off_c, 0, 68, 108
1, 69276, Note_on_c, 0, 70, 85
1, 69373, Note_off_c, 0, 70, 85
1, 69399, Note_on_c, 0, 68, 103
1, 69563, Note_off_c, 0, 68, 103
1, 69585, Note_on_c, 0, 65, 105
1, 69711, Note_off_c, 0, 65, 105
1, 69979, Note_on_c, 0, 68, 115
1, 70472, Note_off_c, 0, 68, 115
1, 70514, Note_on_c, 0, 64, 117
1, 70990, Note_off_c, 0, 64, 117
1, 71027, Note_on_c, 0, 64, 118
1, 71436, Note_off_c, 0, 64, 118
1, 74778, Note_on_c, 0, 62, 122
1, 75066, Note_off_c, 0, 62, 122
1, 75117, Note_on_c, 0, 63, 126
1, 75430, Note_off_c, 0, 63, 126
1, 75435, Note_on_c, 0, 55, 95
1, 75715, Note_off_c, 0, 55, 95
1, 75747, Note_on_c, 0, 59, 95
1, 76090, Note_off_c, 0, 59, 95
1, 76149, Note_on_c, 0, 67, 106
1, 76543, Note_off_c, 0, 67, 106
1, 76586, Note_on_c, 0, 71, 107
1, 76939, Note_off_c, 0, 71, 107
1, 76966, Note_on_c, 0, 74, 102
1, 78664, Note_off_c, 0, 74, 102
1, 81487, Note_on_c, 0, 60, 113
1, 81745, Note_off_c, 0, 60, 113
1, 81774, Note_on_c, 0, 65, 112
1, 82059, Note_off_c, 0, 65, 112
1, 82181, Note_on_c, 0, 68, 117
1, 82526, Note_off_c, 0, 68, 117
1, 82585, Note_on_c, 0, 72, 107
1, 82977, Note_off_c, 0, 72, 107
1, 83145, Note_on_c, 0, 76, 125
1, 84351, Note_off_c, 0, 76, 125
1, 86603, Note_on_c, 0, 72, 113
1, 86825, Note_off_c, 0, 72, 113
1, 86851, Note_on_c, 0, 68, 115
1, 87030, Note_off_c, 0, 68, 115
1, 87091, Note_on_c, 0, 67, 102
1, 87225, Note_off_c, 0, 67, 102
1, 87301, Note_on_c, 0, 65, 98
1, 87438, Note_off_c, 0, 65, 98
1, 87485, Note_on_c, 0, 70, 109
1, 87630, Note_off_c, 0, 70, 109
1, 87658, Note_on_c, 0, 69, 106
1, 87816, Note_off_c, 0, 69, 106
1, 87856, Note_on_c, 0, 68, 105
1, 88016, Note_off_c, 0, 68, 105
1, 88052, Note_on_c, 0, 64, 102
1, 88201, Note_off_c, 0, 64, 102
1, 88216, Note_on_c, 0, 67, 111
1, 88401, Note_off_c, 0, 67, 111
1, 88454, Note_on_c, 0, 64, 112
1, 88643, Note_off_c, 0, 64, 112
1, 88679, Note_on_c, 0, 65, 115
1, 88858, Note_off_c, 0, 65, 115
1, 88869, Note_on_c, 0, 63, 124
1, 89077, Note_off_c, 0, 63, 124
1, 89101, Note_on_c, 0, 62, 116
1, 89273, Note_off_c, 0, 62, 116
1, 89332, Note_on_c, 0, 60, 111
1, 89487, Note_off_c, 0, 60, 111
1, 89527, Note_on_c, 0, 58, 93
1, 89683, Note_off_c, 0, 58, 93
1, 89755, Note_on_c, 0, 55, 97
1, 89910, Note_off_c, 0, 55, 97
1, 89946, Note_on_c, 0, 56, 108
1, 90141, Note_off_c, 0, 56, 108
1, 90183, Note_on_c, 0, 55, 101
1, 90355, Note_off_c, 0, 55, 101
1, 90391, Note_on_c, 0, 53, 109
1, 90553, Note_off_c, 0, 53, 109
1, 90575, Note_on_c, 0, 52, 98
1, 90695, Note_off_c, 0, 52, 98
1, 90716, Note_on_c, 0, 55, 105
1, 90890, Note_off_c, 0, 55, 105
1, 90955, Note_on_c, 0, 53, 97
1, 91119, Note_off_c, 0, 53, 97
1, 91166, Note_on_c, 0, 48, 90
1, 91313, Note_off_c, 0, 48, 90
1, 91342, Note_on_c, 0, 51, 105
1, 91484, Note_off_c, 0, 51, 105
1, 91541, Note_on_c, 0, 50, 100
1, 91740, Note_off_c, 0, 50, 100
1, 91807, Note_on_c, 0, 48, 100
1, 92061, Note_off_c, 0, 48, 100
1, 92087, Note_on_c, 0, 46, 98
1, 92360, Note_off_c, 0, 46, 98
1, 92387, Note_on_c, 0, 45, 107
1, 92639, Note_off_c, 0, 45, 107
1, 93975, Note_on_c, 0, 55, 96
1, 95445, Note_off_c, 0, 55, 96
1, 95472, Note_on_c, 0, 53, 102
1, 95902, Note_off_c, 0, 53, 102
1, 95956, Note_on_c, 0, 48, 95
1, 96456, Note_off_c, 0, 48, 95
1, 96502, Note_on_c, 0, 44, 109
1, 98094, Note_off_c, 0, 44, 109
1, 101951, Note_on_c, 0, 49, 88
1, 102217, Note_off_c, 0, 49, 88
1, 102249, Note_on_c, 0, 51, 100
1, 102469, Note_off_c, 0, 51, 100
1, 102526, Note_on_c, 0, 53, 108
1, 102776, Note_off_c, 0, 53, 108
1, 102854, Note_on_c, 0, 55, 102
1, 103096, Note_off_c, 0, 55, 102
1, 103142, Note_on_c, 0, 57, 98
1, 103367, Note_off_c, 0, 57, 98
1, 103391, Note_on_c, 0, 58, 95
1, 103600, Note_off_c, 0, 58, 95
1, 103643, Note_on_c, 0, 60, 109
1, 104032, Note_off_c, 0, 60, 109
1, 104053, Note_on_c, 0, 61, 116
1, 104189, Note_off_c, 0, 61, 116
1, 104218, Note_on_c, 0, 63, 115
1, 104501, Note_off_c, 0, 63, 115
1, 104563, Note_on_c, 0, 65, 108
1, 104764, Note_off_c, 0, 65, 108
1, 104804, Note_on_c, 0, 65, 106
1, 105000, Note_off_c, 0, 65, 106
1, 105054, Note_on_c, 0, 65, 103
1, 105233, Note_off_c, 0, 65, 103
1, 105292, Note_on_c, 0, 67, 107
1, 105526, Note_off_c, 0, 67, 107
1, 105634, Note_on_c, 0, 67, 106
1, 105840, Note_off_c, 0, 67, 106
1, 105913, Note_on_c, 0, 67, 107
1, 106109, Note_off_c, 0, 67, 107
1, 106155, Note_on_c, 0, 69, 102
1, 106378, Note_off_c, 0, 69, 102
1, 108185, Note_on_c, 0, 56, 95
1, 108405, Note_off_c, 0, 56, 95
1, 108448, Note_on_c, 0, 58, 87
1, 108635, Note_off_c, 0, 58, 87
1, 108664, Note_on_c, 0, 60, 108
1, 108922, Note_off_c, 0, 60, 108
1, 108960, Note_on_c, 0, 62, 114
1, 109180, Note_off_c, 0, 62, 114
1, 109239, Note_on_c, 0, 64, 114
1, 109470, Note_off_c, 0, 64, 114
1, 109538, Note_on_c, 0, 65, 104
1, 109734, Note_off_c, 0, 65, 104
1, 109837, Note_on_c, 0, 67, 107
1, 110098, Note_off_c, 0, 67, 107
1, 110174, Note_on_c, 0, 68, 113
1, 110359, Note_off_c, 0, 68, 113
1, 110408, Note_on_c, 0, 68, 109
1, 110655, Note_off_c, 0, 68, 109
1, 110709, Note_on_c, 0, 68, 109
1, 110932, Note_off_c, 0, 68, 109
1, 110975, Note_on_c, 0, 68, 108
1, 111214, Note_off_c, 0, 68, 108
1, 111276, Note_on_c, 0, 68, 106
1, 111529, Note_off_c, 0, 68, 106
1, 111575, Note_on_c, 0, 68, 109
1, 111820, Note_off_c, 0, 68, 109
1, 111881, Note_on_c, 0, 64, 109
1, 112256, Note_off_c, 0, 64, 109
1, 116607, Note_on_c, 0, 61, 123
1, 116811, Note_off_c, 0, 61, 123
1, 116821, Note_on_c, 0, 62, 119
1, 117071, Note_off_c, 0, 62, 119
1, 117849, Note_on_c, 0, 58, 103
1, 118439, Note_off_c, 0, 58, 103
1, 118972, Note_on_c, 0, 55, 102
1, 119426, Note_off_c, 0, 55, 102
1, 119445, Note_on_c, 0, 51, 101
1, 120003, Note_off_c, 0, 51, 101
1, 120062, Note_on_c, 0, 51, 106
1, 120307, Note_off_c, 0, 51, 106
1, 121011, Note_on_c, 0, 60, 94
1, 121341, Note_off_c, 0, 60, 94
1, 121362, Note_on_c, 0, 61, 100
1, 121536, Note_off_c, 0, 61, 100
1, 121569, Note_on_c, 0, 60, 112
1, 121761, Note_off_c, 0, 60, 112
1, 121797, Note_on_c, 0, 57, 103
1, 122268, Note_off_c, 0, 57, 103
1, 122341, Note_on_c, 0, 53, 103
1, 122794, Note_off_c, 0, 53, 103
1, 122849, Note_on_c, 0, 50, 98
1, 123516, Note_off_c, 0, 50, 98
1, 128358, Note_on_c, 0, 46, 115
1, 128572, Note_off_c, 0, 46, 115
1, 128606, Note_on_c, 0, 53, 106
1, 128872, Note_off_c, 0, 53, 106
1, 128901, Note_on_c, 0, 55, 105
1, 129007, Note_off_c, 0, 55, 105
1, 129028, Note_on_c, 0, 56, 105
1, 129194, Note_off_c, 0, 56, 105
1, 129204, Note_on_c, 0, 58, 101
1, 129356, Note_off_c, 0, 58, 101
1, 129366, Note_on_c, 0, 60, 100
1, 129523, Note_off_c, 0, 60, 100
1, 129550, Note_on_c, 0, 62, 97
1, 129675, Note_off_c, 0, 62, 97
1, 129685, Note_on_c, 0, 64, 101
1, 129799, Note_off_c, 0, 64, 101
1, 129815, Note_on_c, 0, 67, 110
1, 130051, Note_off_c, 0, 67, 110
1, 130051, Note_on_c, 0, 64, 94
1, 130282, Note_off_c, 0, 64, 94
1, 130307, Note_on_c, 0, 65, 96
1, 130411, Note_off_c, 0, 65, 96
1, 130465, Note_on_c, 0, 67, 110
1, 130569, Note_off_c, 0, 67, 110
1, 130616, Note_on_c, 0, 68, 116
1, 130790, Note_off_c, 0, 68, 116
1, 130877, Note_on_c, 0, 63, 98
1, 131029, Note_off_c, 0, 63, 98
1, 131058, Note_on_c, 0, 64, 113
1, 131272, Note_off_c, 0, 64, 113
1, 131283, Note_on_c, 0, 67, 108
1, 131503, Note_off_c, 0, 67, 108
1, 131525, Note_on_c, 0, 65, 108
1, 131703, Note_off_c, 0, 65, 108
1, 131714, Note_on_c, 0, 63, 119
1, 131909, Note_off_c, 0, 63, 119
1, 131918, Note_on_c, 0, 62, 119
1, 132125, Note_off_c, 0, 62, 119
1, 132146, Note_on_c, 0, 60, 108
1, 132419, Note_off_c, 0, 60, 108
1, 132438, Note_on_c, 0, 58, 99
1, 132580, Note_off_c, 0, 58, 99
1, 132620, Note_on_c, 0, 56, 104
1, 132801, Note_off_c, 0, 56, 104
1, 132822, Note_on_c, 0, 53, 97
1, 132952, Note_off_c, 0, 53, 97
1, 132962, Note_on_c, 0, 54, 98
1, 133081, Note_off_c, 0, 54, 98
1, 135169, Note_on_c, 0, 64, 125
1, 135430, Note_off_c, 0, 64, 125
1, 135449, Note_on_c, 0, 65, 113
1, 135819, Note_off_c, 0, 65, 113
1, 135878, Note_on_c, 0, 63, 123
1, 136133, Note_off_c, 0, 63, 123
1, 136171, Note_on_c, 0, 61, 113
1, 136492, Note_off_c, 0, 61, 113
1, 136521, Note_on_c, 0, 56, 109
1, 136945, Note_off_c, 0, 56, 109
1, 139980, Note_on_c, 0, 69, 121
1, 140088, Note_off_c, 0, 69, 121
1, 140117, Note_on_c, 0, 70, 103
1, 141636, Note_off_c, 0, 70, 103
1, 141679, Note_on_c, 0, 70, 103
1, 141899, Note_off_c, 0, 70, 103
1, 141920, Note_on_c, 0, 66, 107
1, 142086, Note_off_c, 0, 66, 107
1, 142094, Note_on_c, 0, 67, 108
1, 142211, Note_off_c, 0, 67, 108
1, 142251, Note_on_c, 0, 66, 111
1, 142381, Note_off_c, 0, 66, 111
1, 142408, Note_on_c, 0, 62, 116
1, 142557, Note_off_c, 0, 62, 116
1, 142603, Note_on_c, 0, 59, 99
1, 142763, Note_off_c, 0, 59, 99
1, 142787, Note_on_c, 0, 58, 99
1, 142974, Note_off_c, 0, 58, 99
1, 143028, Note_on_c, 0, 57, 101
1, 143185, Note_off_c, 0, 57, 101
1, 143236, Note_on_c, 0, 56, 107
1, 143402, Note_off_c, 0, 56, 107
1, 143412, Note_on_c, 0, 54, 102
1, 143556, Note_off_c, 0, 54, 102
1, 143588, Note_on_c, 0, 55, 112
1, 143754, Note_off_c, 0, 55, 112
1, 143794, Note_on_c, 0, 58, 94
1, 144020, Note_off_c, 0, 58, 94
1, 144060, Note_on_c, 0, 61, 104
1, 144307, Note_off_c, 0, 61, 104
1, 144367, Note_on_c, 0, 65, 107
1, 144685, Note_off_c, 0, 65, 107
1, 144693, Note_on_c, 0, 60, 110
1, 144980, Note_off_c, 0, 60, 110
1, 144995, Note_on_c, 0, 63, 121
1, 145276, Note_off_c, 0, 63, 121
1, 145285, Note_on_c, 0, 61, 108
1, 145508, Note_off_c, 0, 61, 108
1, 145551, Note_on_c, 0, 57, 93
1, 145793, Note_off_c, 0, 57, 93
1, 149948, Note_on_c, 0, 65, 112
1, 150169, Note_off_c, 0, 65, 112
1, 150198, Note_on_c, 0, 67, 114
1, 150353, Note_off_c, 0, 67, 114
1, 150374, Note_on_c, 0, 68, 124
1, 150534, Note_off_c, 0, 68, 124
1, 150561, Note_on_c, 0, 70, 91
1, 150748, Note_off_c, 0, 70, 91
1, 150767, Note_on_c, 0, 72, 113
1, 151014, Note_off_c, 0, 72, 113
1, 151073, Note_on_c, 0, 74, 105
1, 151405, Note_off_c, 0, 74, 105
1, 151448, Note_on_c, 0, 72, 109
1, 151660, Note_off_c, 0, 72, 109
1, 151688, Note_on_c, 0, 70, 106
1, 151855, Note_off_c, 0, 70, 106
1, 151871, Note_on_c, 0, 69, 109
1, 152011, Note_off_c, 0, 69, 109
1, 152036, Note_on_c, 0, 68, 116
1, 152165, Note_off_c, 0, 68, 116
1, 152200, Note_on_c, 0, 60, 84
1, 152361, Note_off_c, 0, 60, 84
1, 152395, Note_on_c, 0, 64, 110
1, 152600, Note_off_c, 0, 64, 110
1, 152668, Note_on_c, 0, 67, 116
1, 152816, Note_off_c, 0, 67, 116
1, 152869, Note_on_c, 0, 64, 106
1, 153032, Note_off_c, 0, 64, 106
1, 153046, Note_on_c, 0, 65, 104
1, 153184, Note_off_c, 0, 65, 104
1, 153235, Note_on_c, 0, 67, 110
1, 153417, Note_off_c, 0, 67, 110
1, 153460, Note_on_c, 0, 64, 105
1, 153636, Note_off_c, 0, 64, 105
1, 153655, Note_on_c, 0, 65, 109
1, 153837, Note_off_c, 0, 65, 109
1, 153862, Note_on_c, 0, 60, 103
1, 154139, Note_off_c, 0, 60, 103
1, 154153, Note_on_c, 0, 56, 99
1, 154308, Note_off_c, 0, 56, 99
1, 154312, Note_on_c, 0, 53, 96
1, 154454, Note_off_c, 0, 53, 96
1, 154467, Note_on_c, 0, 63, 115
1, 154645, Note_off_c, 0, 63, 115
1, 154661, Note_on_c, 0, 65, 100
1, 154852, Note_off_c, 0, 65, 100
1, 154872, Note_on_c, 0, 60, 97
1, 155082, Note_off_c, 0, 60, 97
1, 155103, Note_on_c, 0, 61, 105
1, 155263, Note_off_c, 0, 61, 105
1, 155282, Note_on_c, 0, 62, 119
1, 155478, Note_off_c, 0, 62, 119
1, 155488, Note_on_c, 0, 60, 105
1, 155734, Note_off_c, 0, 60, 105
1, 155748, Note_on_c, 0, 59, 96
1, 155909, Note_off_c, 0, 59, 96
1, 155919, Note_on_c, 0, 56, 98
1, 156051, Note_off_c, 0, 56, 98
1, 156064, Note_on_c, 0, 62, 116
1, 156270, Note_off_c, 0, 62, 116
1, 156313, Note_on_c, 0, 59, 91
1, 156476, Note_off_c, 0, 59, 91
1, 156507, Note_on_c, 0, 60, 106
1, 156723, Note_off_c, 0, 60, 106
1, 156735, Note_on_c, 0, 62, 106
1, 156839, Note_off_c, 0, 62, 106
1, 156897, Note_on_c, 0, 63, 123
1, 157054, Note_off_c, 0, 63, 123
1, 157103, Note_on_c, 0, 66, 99
1, 157195, Note_off_c, 0, 66, 99
1, 157200, Note_on_c, 0, 67, 98
1, 157281, Note_off_c, 0, 67, 98
1, 157310, Note_on_c, 0, 71, 112
1, 157608, Note_off_c, 0, 71, 112
1, 157629, Note_on_c, 0, 74, 112
1, 157792, Note_off_c, 0, 74, 112
1, 157808, Note_on_c, 0, 71, 113
1, 158157, Note_off_c, 0, 71, 113
1, 158176, Note_on_c, 0, 72, 92
1, 158306, Note_off_c, 0, 72, 92
1, 158333, Note_on_c, 0, 71, 107
1, 158538, Note_off_c, 0, 71, 107
1, 158557, Note_on_c, 0, 67, 112
1, 158814, Note_off_c, 0, 67, 112
1, 158826, Note_on_c, 0, 63, 114
1, 159032, Note_off_c, 0, 63, 114
1, 159042, Note_on_c, 0, 60, 106
1, 159258, Note_off_c, 0, 60, 106
1, 160394, Note_on_c, 0, 55, 87
1, 160469, Note_off_c, 0, 55, 87
1, 160511, Note_on_c, 0, 60, 111
1, 160582, Note_off_c, 0, 60, 111
1, 160619, Note_on_c, 0, 63, 115
1, 160690, Note_off_c, 0, 63, 115
1, 160738, Note_on_c, 0, 67, 110
1, 160851, Note_off_c, 0, 67, 110
1, 160866, Note_on_c, 0, 70, 111
1, 161019, Note_off_c, 0, 70, 111
1, 161025, Note_on_c, 0, 67, 101
1, 161286, Note_off_c, 0, 67, 101
1, 161316, Note_on_c, 0, 68, 108
1, 161444, Note_off_c, 0, 68, 108
1, 161463, Note_on_c, 0, 69, 111
1, 161668, Note_off_c, 0, 69, 111
1, 161694, Note_on_c, 0, 65, 99
1, 161828, Note_off_c, 0, 65, 99
1, 161841, Note_on_c, 0, 67, 111
1, 162059, Note_off_c, 0, 67, 111
1, 162077, Note_on_c, 0, 63, 94
1, 162245, Note_off_c, 0, 63, 94
1, 162616, Note_on_c, 0, 65, 107
1, 162861, Note_off_c, 0, 65, 107
1, 162871, Note_on_c, 0, 60, 98
1, 163068, Note_off_c, 0, 60, 98
1, 163086, Note_on_c, 0, 65, 106
1, 163292, Note_off_c, 0, 65, 106
1, 163327, Note_on_c, 0, 67, 102
1, 163463, Note_off_c, 0, 67, 102
1, 163495, Note_on_c, 0, 68, 117
1, 163769, Note_off_c, 0, 68, 117
1, 163802, Note_on_c, 0, 62, 95
1, 164100, Note_off_c, 0, 62, 95
1, 169018, Note_on_c, 0, 72, 89
1, 169110, Note_off_c, 0, 72, 89
1, 169120, Note_on_c, 0, 73, 105
1, 169176, Note_off_c, 0, 73, 105
1, 169176, Note_on_c, 0, 74, 107
1, 169487, Note_off_c, 0, 74, 107
1, 169837, Note_on_c, 0, 68, 123
1, 170185, Note_off_c, 0, 68, 123
1, 170200, Note_on_c, 0, 62, 125
1, 170572, Note_off_c, 0, 62, 125
1, 173192, Note_on_c, 0, 58, 75
1, 173353, Note_off_c, 0, 58, 75
1, 173528, Note_on_c, 0, 63, 116
1, 173977, Note_off_c, 0, 63, 116
1, 174465, Note_on_c, 0, 60, 105
1, 174599, Note_off_c, 0, 60, 105
1, 174639, Note_on_c, 0, 61, 102
1, 175180, Note_off_c, 0, 61, 102
1, 175208, Note_on_c, 0, 58, 99
1, 175749, Note_off_c, 0, 58, 99
1, 175893, Note_on_c, 0, 53, 98
1, 176064, Note_off_c, 0, 53, 98
1, 176088, Note_on_c, 0, 56, 106
1, 176792, Note_off_c, 0, 56, 106
1, 176836, Note_on_c, 0, 60, 99
1, 177505, Note_off_c, 0, 60, 99
1, 180254, Note_on_c, 0, 56, 114
1, 180384, Note_off_c, 0, 56, 114
1, 180656, Note_on_c, 0, 59, 104
1, 180879, Note_off_c, 0, 59, 104
1, 180928, Note_on_c, 0, 65, 116
1, 181091, Note_off_c, 0, 65, 116
1, 181118, Note_on_c, 0, 66, 115
1, 181832, Note_off_c, 0, 66, 115
1, 181964, Note_on_c, 0, 62, 119
1, 182280, Note_off_c, 0, 62, 119
1, 185427, Note_on_c, 0, 61, 89
1, 185780, Note_off_c, 0, 61, 89
1, 185801, Note_on_c, 0, 63, 113
1, 186726, Note_off_c, 0, 63, 113
1, 186981, Note_on_c, 0, 61, 103
1, 187586, Note_off_c, 0, 61, 103
1, 187640, Note_on_c, 0, 63, 113
1, 188456, Note_off_c, 0, 63, 113
1, 188833, Note_on_c, 0, 56, 102
1, 189343, Note_off_c, 0, 56, 102
1, 189390, Note_on_c, 0, 60, 97
1, 190121, Note_off_c, 0, 60, 97
1, 190257, Note_on_c, 0, 53, 92
1, 190437, Note_off_c, 0, 53, 92
1, 190474, Note_on_c, 0, 56, 101
1, 190902, Note_off_c, 0, 56, 101
1, 190953, Note_on_c, 0, 60, 100
1, 191773, Note_off_c, 0, 60, 100
1, 191790, Note_on_c, 0, 59, 93
1, 191926, Note_off_c, 0, 59, 93
1, 191939, Note_on_c, 0, 60, 88
1, 192047, Note_off_c, 0, 60, 88
1, 194679, Note_on_c, 0, 61, 102
1, 194785, Note_off_c, 0, 61, 102
1, 194817, Note_on_c, 0, 62, 121
1, 195130, Note_off_c, 0, 62, 121
1, 195326, Note_on_c, 0, 59, 96
1, 195628, Note_off_c, 0, 59, 96
1, 195939, Note_on_c, 0, 55, 102
1, 196211, Note_off_c, 0, 55, 102
1, 196272, Note_on_c, 0, 53, 96
1, 196435, Note_off_c, 0, 53, 96
1, 196481, Note_on_c, 0, 61, 102
1, 196878, Note_off_c, 0, 61, 102
1, 196916, Note_on_c, 0, 62, 124
1, 197237, Note_off_c, 0, 62, 124
1, 197266, Note_on_c, 0, 58, 98
1, 197617, Note_off_c, 0, 58, 98
1, 197676, Note_on_c, 0, 55, 107
1, 198021, Note_off_c, 0, 55, 107
1, 198143, Note_on_c, 0, 50, 95
1, 198434, Note_off_c, 0, 50, 95
1, 198472, Note_on_c, 0, 51, 104
1, 198727, Note_off_c, 0, 51, 104
1, 198759, Note_on_c, 0, 53, 95
1, 198835, Note_off_c, 0, 53, 95
1, 198840, Note_on_c, 0, 55, 102
1, 199057, Note_off_c, 0, 55, 102
1, 199122, Note_on_c, 0, 58, 98
1, 199269, Note_off_c, 0, 58, 98
1, 199410, Note_on_c, 0, 62, 124
1, 199665, Note_off_c, 0, 62, 124
1, 199833, Note_on_c, 0, 65, 114
1, 200502, Note_off_c, 0, 65, 114
1, 200518, Note_on_c, 0, 63, 121
1, 200806, Note_off_c, 0, 63, 121
1, 200838, Note_on_c, 0, 58, 95
1, 201061, Note_off_c, 0, 58, 95
1, 201085, Note_on_c, 0, 54, 99
1, 201370, Note_off_c, 0, 54, 99
1, 201541, Note_on_c, 0, 56, 107
1, 202540, Note_off_c, 0, 56, 107
1, 202613, Note_on_c, 0, 54, 105
1, 202994, Note_off_c, 0, 54, 105
1, 203111, Note_on_c, 0, 60, 104
1, 203522, Note_off_c, 0, 60, 104
1, 203649, Note_on_c, 0, 56, 101
1, 204237, Note_off_c, 0, 56, 101
1, 206687, Note_on_c, 0, 53, 111
1, 207865, Note_off_c, 0, 53, 111
1, 207867, Note_on_c, 0, 52, 102
1, 207970, Note_off_c, 0, 52, 102
1, 207986, Note_on_c, 0, 51, 93
1, 208100, Note_off_c, 0, 51, 93
1, 208113, Note_on_c, 0, 53, 114
1, 209539, Note_off_c, 0, 53, 114
1, 209650, Note_on_c, 0, 53, 107
1, 210003, Note_off_c, 0, 53, 107
1, 210034, Note_on_c, 0, 49, 100
1, 210298, Note_off_c, 0, 49, 100
1, 210333, Note_on_c, 0, 47, 100
1, 210466, Note_off_c, 0, 47, 100
1, 210523, Note_on_c, 0, 46, 91
1, 213623, Note_off_c, 0, 46, 91
1, 213623, End_track
0, 0, End_of_file
