0, 0, Header, 1, 1, 192
1, 0, Start_track
1, 0, Title_t, "Melody"
1, 0, Tempo, 310880
1, 0, Key_signature, 0, "major"
1, 0, Time_signature, 4, 2, 24, 8
1, 1792, Note_on_c, 0, 55, 112
1, 1855, Note_off_c, 0, 55, 112
1, 1910, Note_on_c, 0, 57, 110
1, 2010, Note_off_c, 0, 57, 110
1, 2105, Note_on_c, 0, 57, 104
1, 2213, Note_off_c, 0, 57, 104
1, 2301, Note_on_c, 0, 57, 108
1, 2517, Note_off_c, 0, 57, 108
1, 2784, Note_on_c, 0, 55, 116
1, 2862, Note_off_c, 0, 55, 116
1, 2957, Note_on_c, 0, 62, 120
1, 3060, Note_off_c, 0, 62, 120
1, 3068, Note_on_c, 0, 62, 117
1, 3173, Note_off_c, 0, 62, 117
1, 3189, Note_on_c, 0, 60, 116
1, 3262, Note_off_c, 0, 60, 116
1, 3348, Note_on_c, 0, 60, 117
1, 3448, Note_off_c, 0, 60, 117
1, 3465, Note_on_c, 0, 60, 113
1, 3708, Note_off_c, 0, 60, 113
1, 3969, Note_on_c, 0, 59, 116
1, 4064, Note_off_c, 0, 59, 116
1, 4137, Note_on_c, 0, 59, 114
1, 4230, Note_off_c, 0, 59, 114
1, 4251, Note_on_c, 0, 59, 113
1, 4340, Note_off_c, 0, 59, 113
1, 4361, Note_on_c, 0, 57, 117
1, 4439, Note_off_c, 0, 57, 117
1, 4523, Note_on_c, 0, 57, 113
1, 4605, Note_off_c, 0, 57, 113
1, 4621, Note_on_c, 0, 57, 112
1, 4707, Note_off_c, 0, 57, 112
1, 4723, Note_on_c, 0, 55, 115
1, 4805, Note_off_c, 0, 55, 115
1, 4815, Note_on_c, 0, 54, 107
1, 4886, Note_off_c, 0, 54, 107
1, 4921, Note_on_c, 0, 57, 115
1, 5001, Note_off_c, 0, 57, 115
1, 5026, Note_on_c, 0, 55, 111
1, 5092, Note_off_c, 0, 55, 111
1, 5101, Note_on_c, 0, 55, 111
1, 5176, Note_off_c, 0, 55, 111
1, 5208, Note_on_c, 0, 52, 113
1, 5265, Note_off_c, 0, 52, 113
1, 5304, Note_on_c, 0, 55, 113
1, 5388, Note_off_c, 0, 55, 113
1, 5422, Note_on_c, 0, 49, 104
1, 5637, Note_off_c, 0, 49, 104
1, 5653, Note_on_c, 0, 52, 106
1, 5760, Note_off_c, 0, 52, 106
1, 5783, Note_on_c, 0, 55, 109
1, 5894, Note_off_c, 0, 55, 109
1, 5911, Note_on_c, 0, 57, 115
1, 5995, Note_off_c, 0, 57, 115
1, 6090, Note_on_c, 0, 55, 107
1, 6176, Note_off_c, 0, 55, 107
1, 6192, Note_on_c, 0, 53, 106
1, 6258, Note_off_c, 0, 53, 106
1, 6313, Note_on_c, 0, 57, 112
1, 6390, Note_off_c, 0, 57, 112
1, 6468, Note_on_c, 0, 62, 116
1, 6545, Note_off_c, 0, 62, 116
1, 6595, Note_on_c, 0, 65, 118
1, 6704, Note_off_c, 0, 65, 118
1, 6713, Note_on_c, 0, 64, 118
1, 6795, Note_off_c, 0, 64, 118
1, 6882, Note_on_c, 0, 62, 116
1, 6946, Note_off_c, 0, 62, 116
1, 6974, Note_on_c, 0, 60, 113
1, 7070, Note_off_c, 0, 60, 113
1, 7113, Note_on_c, 0, 59, 110
1, 7197, Note_off_c, 0, 59, 110
1, 7248, Note_on_c, 0, 57, 107
1, 7328, Note_off_c, 0, 57, 107
1, 7354, Note_on_c, 0, 55, 108
1, 7463, Note_off_c, 0, 55, 108
1, 7504, Note_on_c, 0, 53, 106
1, 7575, Note_off_c, 0, 53, 106
1, 7641, Note_on_c, 0, 52, 111
1, 7766, Note_off_c, 0, 52, 111
1, 7997, Note_on_c, 0, 55, 115
1, 8061, Note_off_c, 0, 55, 115
1, 8093, Note_on_c, 0, 60, 116
1, 8182, Note_off_c, 0, 60, 116
1, 8198, Note_on_c, 0, 64, 122
1, 8280, Note_off_c, 0, 64, 122
1, 8292, Note_on_c, 0, 67, 121
1, 8376, Note_off_c, 0, 67, 121
1, 8383, Note_on_c, 0, 69, 120
1, 8470, Note_off_c, 0, 69, 120
1, 8477, Note_on_c, 0, 67, 118
1, 8584, Note_off_c, 0, 67, 118
1, 8603, Note_on_c, 0, 64, 117
1, 8681, Note_off_c, 0, 64, 117
1, 8688, Note_on_c, 0, 60, 113
1, 8772, Note_off_c, 0, 60, 113
1, 8815, Note_on_c, 0, 55, 112
1, 8888, Note_off_c, 0, 55, 112
1, 8914, Note_on_c, 0, 52, 112
1, 8994, Note_off_c, 0, 52, 112
1, 8995, Note_on_c, 0, 55, 114
1, 9075, Note_off_c, 0, 55, 114
1, 9094, Note_on_c, 0, 60, 115
1, 9167, Note_off_c, 0, 60, 115
1, 9201, Note_on_c, 0, 64, 121
1, 9278, Note_off_c, 0, 64, 121
1, 9295, Note_on_c, 0, 65, 113
1, 9381, Note_off_c, 0, 65, 113
1, 9397, Note_on_c, 0, 60, 111
1, 9466, Note_off_c, 0, 60, 111
1, 9478, Note_on_c, 0, 53, 106
1, 9567, Note_off_c, 0, 53, 106
1, 9592, Note_on_c, 0, 48, 108
1, 9678, Note_off_c, 0, 48, 108
1, 9685, Note_on_c, 0, 53, 108
1, 9853, Note_off_c, 0, 53, 108
1, 10184, Note_on_c, 0, 57, 115
1, 10246, Note_off_c, 0, 57, 115
1, 10276, Note_on_c, 0, 55, 116
1, 10354, Note_off_c, 0, 55, 116
1, 10379, Note_on_c, 0, 52, 113
1, 10452, Note_off_c, 0, 52, 113
1, 10468, Note_on_c, 0, 53, 107
1, 10727, Note_off_c, 0, 53, 107
1, 10761, Note_on_c, 0, 55, 120
1, 10845, Note_off_c, 0, 55, 120
1, 10852, Note_on_c, 0, 52, 111
1, 10952, Note_off_c, 0, 52, 111
1, 10968, Note_on_c, 0, 48, 107
1, 11027, Note_off_c, 0, 48, 107
1, 11046, Note_on_c, 0, 52, 107
1, 11139, Note_off_c, 0, 52, 107
1, 11151, Note_on_c, 0, 55, 115
1, 11217, Note_off_c, 0, 55, 115
1, 11225, Note_on_c, 0, 60, 115
1, 11285, Note_off_c, 0, 60, 115
1, 11311, Note_on_c, 0, 64, 120
1, 11391, Note_off_c, 0, 64, 120
1, 11403, Note_on_c, 0, 67, 114
1, 11465, Note_off_c, 0, 67, 114
1, 11486, Note_on_c, 0, 54, 103
1, 11534, Note_off_c, 0, 54, 103
1, 11537, Note_on_c, 0, 55, 106
1, 11588, Note_off_c, 0, 55, 106
1, 11602, Note_on_c, 0, 58, 105
1, 11854, Note_off_c, 0, 58, 105
1, 11907, Note_on_c, 0, 54, 113
1, 11980, Note_off_c, 0, 54, 113
1, 11992, Note_on_c, 0, 57, 112
1, 12079, Note_off_c, 0, 57, 112
1, 12087, Note_on_c, 0, 55, 112
1, 12153, Note_off_c, 0, 55, 112
1, 12181, Note_on_c, 0, 52, 111
1, 12270, Note_off_c, 0, 52, 111
1, 12289, Note_on_c, 0, 49, 110
1, 12357, Note_off_c, 0, 49, 110
1, 12369, Note_on_c, 0, 50, 104
1, 12693, Note_off_c, 0, 50, 104
1, 12700, Note_on_c, 0, 53, 112
1, 12753, Note_off_c, 0, 53, 112
1, 12770, Note_on_c, 0, 57, 116
1, 12850, Note_off_c, 0, 57, 116
1, 12869, Note_on_c, 0, 62, 115
1, 12949, Note_off_c, 0, 62, 115
1, 12963, Note_on_c, 0, 65, 116
1, 13239, Note_off_c, 0, 65, 116
1, 13448, Note_on_c, 0, 62, 116
1, 13523, Note_off_c, 0, 62, 116
1, 13548, Note_on_c, 0, 59, 114
1, 13603, Note_off_c, 0, 59, 114
1, 13631, Note_on_c, 0, 57, 111
1, 13700, Note_off_c, 0, 57, 111
1, 13728, Note_on_c, 0, 55, 112
1, 13798, Note_off_c, 0, 55, 112
1, 13813, Note_on_c, 0, 53, 106
1, 13901, Note_off_c, 0, 53, 106
1, 13931, Note_on_c, 0, 52, 108
1, 14000, Note_off_c, 0, 52, 108
1, 14219, Note_on_c, 0, 55, 109
1, 14386, Note_off_c, 0, 55, 109
1, 14407, Note_on_c, 0, 52, 112
1, 14476, Note_off_c, 0, 52, 112
1, 14493, Note_on_c, 0, 57, 109
1, 14576, Note_off_c, 0, 57, 109
1, 14600, Note_on_c, 0, 52, 106
1, 14671, Note_off_c, 0, 52, 106
1, 14696, Note_on_c, 0, 55, 105
1, 15022, Note_off_c, 0, 55, 105
1, 15024, Note_on_c, 0, 52, 114
1, 15073, Note_off_c, 0, 52, 114
1, 15091, Note_on_c, 0, 55, 106
1, 15269, Note_off_c, 0, 55, 106
1, 15279, Note_on_c, 0, 60, 115
1, 15344, Note_off_c, 0, 60, 115
1, 15582, Note_on_c, 0, 55, 116
1, 15655, Note_off_c, 0, 55, 116
1, 15667, Note_on_c, 0, 52, 108
1, 15745, Note_off_c, 0, 52, 108
1, 15756, Note_on_c, 0, 55, 113
1, 15837, Note_off_c, 0, 55, 113
1, 15860, Note_on_c, 0, 60, 114
1, 15936, Note_off_c, 0, 60, 114
1, 15952, Note_on_c, 0, 64, 117
1, 16025, Note_off_c, 0, 64, 117
1, 16042, Note_on_c, 0, 67, 114
1, 16111, Note_off_c, 0, 67, 114
1, 16150, Note_on_c, 0, 62, 112
1, 16224, Note_off_c, 0, 62, 112
1, 16256, Note_on_c, 0, 65, 108
1, 16547, Note_off_c, 0, 65, 108
1, 16558, Note_on_c, 0, 62, 112
1, 16739, Note_off_c, 0, 62, 112
1, 16741, Note_on_c, 0, 59, 111
1, 16811, Note_off_c, 0, 59, 111
1, 16827, Note_on_c, 0, 59, 107
1, 16906, Note_off_c, 0, 59, 107
1, 16917, Note_on_c, 0, 60, 102
1, 17088, Note_off_c, 0, 60, 102
1, 17109, Note_on_c, 0, 55, 113
1, 17180, Note_off_c, 0, 55, 113
1, 17195, Note_on_c, 0, 52, 118
1, 17268, Note_off_c, 0, 52, 118
1, 17298, Note_on_c, 0, 55, 115
1, 17377, Note_off_c, 0, 55, 115
1, 17398, Note_on_c, 0, 60, 116
1, 17459, Note_off_c, 0, 60, 116
1, 17470, Note_on_c, 0, 64, 119
1, 17525, Note_off_c, 0, 64, 119
1, 17577, Note_on_c, 0, 67, 118
1, 17645, Note_off_c, 0, 67, 118
1, 17666, Note_on_c, 0, 69, 116
1, 17745, Note_off_c, 0, 69, 116
1, 17769, Note_on_c, 0, 64, 112
1, 18059, Note_off_c, 0, 64, 112
1, 18070, Note_on_c, 0, 62, 113
1, 18140, Note_off_c, 0, 62, 113
1, 18151, Note_on_c, 0, 61, 110
1, 18231, Note_off_c, 0, 61, 110
1, 18256, Note_on_c, 0, 58, 109
1, 18325, Note_off_c, 0, 58, 109
1, 18345, Note_on_c, 0, 57, 112
1, 18415, Note_off_c, 0, 57, 112
1, 18422, Note_on_c, 0, 55, 105
1, 18506, Note_off_c, 0, 55, 105
1, 18521, Note_on_c, 0, 53, 104
1, 18689, Note_off_c, 0, 53, 104
1, 18707, Note_on_c, 0, 57, 109
1, 18780, Note_off_c, 0, 57, 109
1, 18819, Note_on_c, 0, 50, 110
1, 18979, Note_off_c, 0, 50, 110
1, 18999, Note_on_c, 0, 55, 115
1, 19067, Note_off_c, 0, 55, 115
1, 19102, Note_on_c, 0, 47, 106
1, 19282, Note_off_c, 0, 47, 106
1, 19584, Note_on_c, 0, 55, 117
1, 19650, Note_off_c, 0, 55, 117
1, 19684, Note_on_c, 0, 47, 111
1, 19760, Note_off_c, 0, 47, 111
1, 19767, Note_on_c, 0, 48, 107
1, 19846, Note_off_c, 0, 48, 107
1, 19864, Note_on_c, 0, 50, 114
1, 19961, Note_off_c, 0, 50, 114
1, 19972, Note_on_c, 0, 52, 111
1, 20061, Note_off_c, 0, 52, 111
1, 20068, Note_on_c, 0, 48, 107
1, 20238, Note_off_c, 0, 48, 107
1, 20241, Note_on_c, 0, 52, 113
1, 20325, Note_off_c, 0, 52, 113
1, 20338, Note_on_c, 0, 55, 118
1, 20406, Note_off_c, 0, 55, 118
1, 20413, Note_on_c, 0, 53, 108
1, 20502, Note_off_c, 0, 53, 108
1, 20509, Note_on_c, 0, 55, 111
1, 20599, Note_off_c, 0, 55, 111
1, 20607, Note_on_c, 0, 57, 109
1, 20690, Note_off_c, 0, 57, 109
1, 20756, Note_on_c, 0, 54, 111
1, 20806, Note_off_c, 0, 54, 111
1, 20814, Note_on_c, 0, 60, 108
1, 20961, Note_off_c, 0, 60, 108
1, 21022, Note_on_c, 0, 55, 109
1, 21082, Note_off_c, 0, 55, 109
1, 21092, Note_on_c, 0, 53, 109
1, 21178, Note_off_c, 0, 53, 109
1, 21213, Note_on_c, 0, 64, 122
1, 21291, Note_off_c, 0, 64, 122
1, 21316, Note_on_c, 0, 60, 108
1, 21384, Note_off_c, 0, 60, 108
1, 21405, Note_on_c, 0, 55, 115
1, 21485, Note_off_c, 0, 55, 115
1, 21502, Note_on_c, 0, 48, 105
1, 21580, Note_off_c, 0, 48, 105
1, 21614, Note_on_c, 0, 53, 108
1, 21699, Note_off_c, 0, 53, 108
1, 21716, Note_on_c, 0, 48, 98
1, 21777, Note_off_c, 0, 48, 98
1, 21777, Note_on_c, 0, 57, 106
1, 22150, Note_off_c, 0, 57, 106
1, 22170, Note_on_c, 0, 53, 121
1, 22250, Note_off_c, 0, 53, 121
1, 22448, Note_on_c, 0, 48, 113
1, 22536, Note_off_c, 0, 48, 113
1, 22541, Note_on_c, 0, 55, 113
1, 22625, Note_off_c, 0, 55, 113
1, 22645, Note_on_c, 0, 48, 96
1, 22725, Note_off_c, 0, 48, 96
1, 22732, Note_on_c, 0, 53, 97
1, 22921, Note_off_c, 0, 53, 97
1, 22946, Note_on_c, 0, 48, 103
1, 23015, Note_off_c, 0, 48, 103
1, 23138, Note_on_c, 0, 55, 105
1, 23421, Note_off_c, 0, 55, 105
1, 23485, Note_on_c, 0, 52, 112
1, 23520, Note_off_c, 0, 52, 112
1, 23525, Note_on_c, 0, 55, 116
1, 23598, Note_off_c, 0, 55, 116
1, 23620, Note_on_c, 0, 60, 111
1, 23666, Note_off_c, 0, 60, 111
1, 23694, Note_on_c, 0, 64, 116
1, 23777, Note_off_c, 0, 64, 116
1, 23788, Note_on_c, 0, 62, 115
1, 23829, Note_off_c, 0, 62, 115
1, 23883, Note_on_c, 0, 61, 103
1, 24041, Note_off_c, 0, 61, 103
1, 24056, Note_on_c, 0, 61, 112
1, 24161, Note_off_c, 0, 61, 112
1, 24193, Note_on_c, 0, 57, 111
1, 24261, Note_off_c, 0, 57, 111
1, 24335, Note_on_c, 0, 55, 109
1, 24429, Note_off_c, 0, 55, 109
1, 24454, Note_on_c, 0, 53, 111
1, 24538, Note_off_c, 0, 53, 111
1, 24550, Note_on_c, 0, 52, 106
1, 24610, Note_off_c, 0, 52, 106
1, 24613, Note_on_c, 0, 55, 104
1, 24731, Note_off_c, 0, 55, 104
1, 24748, Note_on_c, 0, 52, 110
1, 24921, Note_off_c, 0, 52, 110
1, 24931, Note_on_c, 0, 53, 108
1, 25070, Note_off_c, 0, 53, 108
1, 25101, Note_on_c, 0, 52, 113
1, 25194, Note_off_c, 0, 52, 113
1, 25224, Note_on_c, 0, 50, 107
1, 25386, Note_off_c, 0, 50, 107
1, 25701, Note_on_c, 0, 53, 115
1, 25840, Note_off_c, 0, 53, 115
1, 25871, Note_on_c, 0, 50, 112
1, 25957, Note_off_c, 0, 50, 112
1, 25972, Note_on_c, 0, 47, 112
1, 26066, Note_off_c, 0, 47, 112
1, 26079, Note_on_c, 0, 48, 108
1, 26365, Note_off_c, 0, 48, 108
1, 26404, Note_on_c, 0, 52, 119
1, 26502, Note_off_c, 0, 52, 119
1, 26520, Note_on_c, 0, 55, 113
1, 26595, Note_off_c, 0, 55, 113
1, 26691, Note_on_c, 0, 60, 110
1, 26767, Note_off_c, 0, 60, 110
1, 27201, Note_on_c, 0, 60, 109
1, 27262, Note_off_c, 0, 60, 109
1, 27296, Note_on_c, 0, 52, 113
1, 27375, Note_off_c, 0, 52, 113
1, 27401, Note_on_c, 0, 55, 116
1, 27471, Note_off_c, 0, 55, 116
1, 27497, Note_on_c, 0, 60, 115
1, 27558, Note_off_c, 0, 60, 115
1, 27589, Note_on_c, 0, 64, 121
1, 27664, Note_off_c, 0, 64, 121
1, 27676, Note_on_c, 0, 67, 120
1, 27751, Note_off_c, 0, 67, 120
1, 27777, Note_on_c, 0, 72, 119
1, 27837, Note_off_c, 0, 72, 119
1, 27839, Note_on_c, 0, 69, 118
1, 27947, Note_off_c, 0, 69, 118
1, 27968, Note_on_c, 0, 65, 113
1, 28032, Note_off_c, 0, 65, 113
1, 28062, Note_on_c, 0, 60, 110
1, 28222, Note_off_c, 0, 60, 110
1, 28249, Note_on_c, 0, 65, 114
1, 28299, Note_off_c, 0, 65, 114
1, 28329, Note_on_c, 0, 69, 112
1, 28402, Note_off_c, 0, 69, 112
1, 28432, Note_on_c, 0, 67, 120
1, 28466, Note_off_c, 0, 67, 120
1, 28466, Note_on_c, 0, 69, 117
1, 28500, Note_off_c, 0, 69, 117
1, 28510, Note_on_c, 0, 67, 113
1, 28591, Note_off_c, 0, 67, 113
1, 28627, Note_on_c, 0, 64, 120
1, 28697, Note_off_c, 0, 64, 120
1, 28717, Note_on_c, 0, 67, 118
1, 28795, Note_off_c, 0, 67, 118
1, 28825, Note_on_c, 0, 65, 114
1, 28900, Note_off_c, 0, 65, 114
1, 28927, Note_on_c, 0, 62, 116
1, 29003, Note_off_c, 0, 62, 116
1, 29023, Note_on_c, 0, 59, 111
1, 29102, Note_off_c, 0, 59, 111
1, 29120, Note_on_c, 0, 57, 110
1, 29180, Note_off_c, 0, 57, 110
1, 29201, Note_on_c, 0, 55, 114
1, 29241, Note_off_c, 0, 55, 114
1, 29258, Note_on_c, 0, 57, 111
1, 29292, Note_off_c, 0, 57, 111
1, 29303, Note_on_c, 0, 55, 110
1, 29366, Note_off_c, 0, 55, 110
1, 29407, Note_on_c, 0, 54, 108
1, 29487, Note_off_c, 0, 54, 108
1, 29507, Note_on_c, 0, 57, 111
1, 29572, Note_off_c, 0, 57, 111
1, 29603, Note_on_c, 0, 55, 112
1, 29645, Note_off_c, 0, 55, 112
1, 29655, Note_on_c, 0, 57, 111
1, 29690, Note_off_c, 0, 57, 111
1, 29703, Note_on_c, 0, 55, 108
1, 29874, Note_off_c, 0, 55, 108
1, 30331, Note_on_c, 0, 57, 110
1, 30445, Note_off_c, 0, 57, 110
1, 30465, Note_on_c, 0, 55, 114
1, 30606, Note_off_c, 0, 55, 114
1, 30621, Note_on_c, 0, 53, 107
1, 31013, Note_off_c, 0, 53, 107
1, 31034, Note_on_c, 0, 57, 112
1, 31122, Note_off_c, 0, 57, 112
1, 31123, Note_on_c, 0, 62, 118
1, 31182, Note_off_c, 0, 62, 118
1, 31215, Note_on_c, 0, 65, 117
1, 31282, Note_off_c, 0, 65, 117
1, 31311, Note_on_c, 0, 69, 119
1, 31381, Note_off_c, 0, 69, 119
1, 31411, Note_on_c, 0, 66, 111
1, 31477, Note_off_c, 0, 66, 111
1, 31489, Note_on_c, 0, 67, 112
1, 31573, Note_off_c, 0, 67, 112
1, 31595, Note_on_c, 0, 64, 115
1, 31668, Note_off_c, 0, 64, 115
1, 31685, Note_on_c, 0, 60, 113
1, 31761, Note_off_c, 0, 60, 113
1, 31786, Note_on_c, 0, 55, 109
1, 31856, Note_off_c, 0, 55, 109
1, 31884, Note_on_c, 0, 60, 100
1, 31948, Note_off_c, 0, 60, 100
1, 31964, Note_on_c, 0, 62, 115
1, 32053, Note_off_c, 0, 62, 115
1, 32063, Note_on_c, 0, 59, 108
1, 32147, Note_off_c, 0, 59, 108
1, 32168, Note_on_c, 0, 55, 113
1, 32243, Note_off_c, 0, 55, 113
1, 32243, Note_on_c, 0, 60, 104
1, 32429, Note_off_c, 0, 60, 104
1, 32450, Note_on_c, 0, 55, 114
1, 32530, Note_off_c, 0, 55, 114
1, 32540, Note_on_c, 0, 52, 111
1, 32642, Note_off_c, 0, 52, 111
1, 32642, Note_on_c, 0, 57, 113
1, 32725, Note_off_c, 0, 57, 113
1, 32747, Note_on_c, 0, 53, 108
1, 32810, Note_off_c, 0, 53, 108
1, 32826, Note_on_c, 0, 50, 109
1, 32919, Note_off_c, 0, 50, 109
1, 32937, Note_on_c, 0, 55, 112
1, 33007, Note_off_c, 0, 55, 112
1, 33018, Note_on_c, 0, 52, 114
1, 33131, Note_off_c, 0, 52, 114
1, 33138, Note_on_c, 0, 48, 103
1, 33202, Note_off_c, 0, 48, 103
1, 33207, Note_on_c, 0, 52, 106
1, 33310, Note_off_c, 0, 52, 106
1, 33330, Note_on_c, 0, 55, 115
1, 33403, Note_off_c, 0, 55, 115
1, 33416, Note_on_c, 0, 60, 115
1, 33489, Note_off_c, 0, 60, 115
1, 33510, Note_on_c, 0, 64, 124
1, 33590, Note_off_c, 0, 64, 124
1, 33618, Note_on_c, 0, 67, 120
1, 33696, Note_off_c, 0, 67, 120
1, 33703, Note_on_c, 0, 64, 119
1, 33798, Note_off_c, 0, 64, 119
1, 33808, Note_on_c, 0, 65, 111
1, 34107, Note_off_c, 0, 65, 111
1, 34107, Note_on_c, 0, 60, 115
1, 34196, Note_off_c, 0, 60, 115
1, 34211, Note_on_c, 0, 55, 114
1, 34276, Note_off_c, 0, 55, 114
1, 34284, Note_on_c, 0, 60, 114
1, 34365, Note_off_c, 0, 60, 114
1, 34387, Note_on_c, 0, 53, 112
1, 34547, Note_off_c, 0, 53, 112
1, 34978, Note_on_c, 0, 55, 111
1, 35770, Note_off_c, 0, 55, 111
1, 35805, Note_on_c, 0, 59, 114
1, 35885, Note_off_c, 0, 59, 114
1, 35895, Note_on_c, 0, 57, 107
1, 35973, Note_off_c, 0, 57, 107
1, 36008, Note_on_c, 0, 55, 108
1, 36083, Note_off_c, 0, 55, 108
1, 36103, Note_on_c, 0, 57, 104
1, 36944, Note_off_c, 0, 57, 104
1, 36959, Note_on_c, 0, 57, 104
1, 37055, Note_off_c, 0, 57, 104
1, 37062, Note_on_c, 0, 61, 51
1, 37151, Note_off_c, 0, 61, 51
1, 37151, Note_on_c, 0, 62, 119
1, 37253, Note_off_c, 0, 62, 119
1, 37265, Note_on_c, 0, 64, 123
1, 37358, Note_off_c, 0, 64, 123
1, 37372, Note_on_c, 0, 65, 119
1, 37456, Note_off_c, 0, 65, 119
1, 37464, Note_on_c, 0, 62, 122
1, 37535, Note_off_c, 0, 62, 122
1, 37556, Note_on_c, 0, 60, 115
1, 37631, Note_off_c, 0, 60, 115
1, 37645, Note_on_c, 0, 59, 111
1, 37729, Note_off_c, 0, 59, 111
1, 37754, Note_on_c, 0, 57, 113
1, 37829, Note_off_c, 0, 57, 113
1, 37843, Note_on_c, 0, 55, 120
1, 37946, Note_off_c, 0, 55, 120
1, 37956, Note_on_c, 0, 52, 116
1, 38013, Note_off_c, 0, 52, 116
1, 38025, Note_on_c, 0, 53, 114
1, 38104, Note_off_c, 0, 53, 114
1, 38119, Note_on_c, 0, 50, 109
1, 38180, Note_off_c, 0, 50, 109
1, 38208, Note_on_c, 0, 47, 114
1, 38276, Note_off_c, 0, 47, 114
1, 38299, Note_on_c, 0, 48, 110
1, 38370, Note_off_c, 0, 48, 110
1, 38411, Note_on_c, 0, 48, 108
1, 38668, Note_off_c, 0, 48, 108
1, 38676, Note_on_c, 0, 52, 116
1, 38764, Note_off_c, 0, 52, 116
1, 38772, Note_on_c, 0, 55, 117
1, 38857, Note_off_c, 0, 55, 117
1, 38882, Note_on_c, 0, 55, 122
1, 38931, Note_off_c, 0, 55, 122
1, 38948, Note_on_c, 0, 55, 126
1, 39024, Note_off_c, 0, 55, 126
1, 39040, Note_on_c, 0, 55, 115
1, 39124, Note_off_c, 0, 55, 115
1, 39151, Note_on_c, 0, 55, 113
1, 39318, Note_off_c, 0, 55, 113
1, 39329, Note_on_c, 0, 55, 114
1, 39414, Note_off_c, 0, 55, 114
1, 39448, Note_on_c, 0, 55, 114
1, 39592, Note_off_c, 0, 55, 114
1, 39609, Note_on_c, 0, 55, 110
1, 39693, Note_off_c, 0, 55, 110
1, 39716, Note_on_c, 0, 57, 108
1, 40096, Note_off_c, 0, 57, 108
1, 40476, Note_on_c, 0, 57, 110
1, 40639, Note_off_c, 0, 57, 110
1, 40659, Note_on_c, 0, 53, 114
1, 40745, Note_off_c, 0, 53, 114
1, 40762, Note_on_c, 0, 53, 113
1, 40828, Note_off_c, 0, 53, 113
1, 40839, Note_on_c, 0, 53, 116
1, 40956, Note_off_c, 0, 53, 116
1, 40982, Note_on_c, 0, 53, 122
1, 41062, Note_off_c, 0, 53, 122
1, 41074, Note_on_c, 0, 53, 108
1, 41154, Note_off_c, 0, 53, 108
1, 41162, Note_on_c, 0, 53, 115
1, 41271, Note_off_c, 0, 53, 115
1, 41278, Note_on_c, 0, 55, 109
1, 41738, Note_off_c, 0, 55, 109
1, 41849, Note_on_c, 0, 55, 113
1, 41949, Note_off_c, 0, 55, 113
1, 41969, Note_on_c, 0, 55, 117
1, 42035, Note_off_c, 0, 55, 117
1, 42060, Note_on_c, 0, 55, 113
1, 42145, Note_off_c, 0, 55, 113
1, 42156, Note_on_c, 0, 52, 118
1, 42235, Note_off_c, 0, 52, 118
1, 42251, Note_on_c, 0, 52, 118
1, 42330, Note_off_c, 0, 52, 118
1, 42367, Note_on_c, 0, 52, 115
1, 42459, Note_off_c, 0, 52, 115
1, 42478, Note_on_c, 0, 57, 114
1, 42647, Note_off_c, 0, 57, 114
1, 42668, Note_on_c, 0, 55, 119
1, 42804, Note_off_c, 0, 55, 119
1, 42809, Note_on_c, 0, 53, 117
1, 43124, Note_off_c, 0, 53, 117
1, 43397, Note_on_c, 0, 53, 122
1, 43479, Note_off_c, 0, 53, 122
1, 43484, Note_on_c, 0, 50, 122
1, 43570, Note_off_c, 0, 50, 122
1, 43587, Note_on_c, 0, 48, 112
1, 43694, Note_off_c, 0, 48, 112
1, 43695, Note_on_c, 0, 47, 121
1, 43774, Note_off_c, 0, 47, 121
1, 43780, Note_on_c, 0, 47, 118
1, 43865, Note_off_c, 0, 47, 118
1, 43888, Note_on_c, 0, 47, 123
1, 43976, Note_off_c, 0, 47, 123
1, 44016, Note_on_c, 0, 50, 117
1, 44179, Note_off_c, 0, 50, 117
1, 44207, Note_on_c, 0, 47, 120
1, 44282, Note_off_c, 0, 47, 120
1, 44326, Note_on_c, 0, 48, 106
1, 44648, Note_off_c, 0, 48, 106
1, 45431, Note_on_c, 0, 64, 121
1, 45516, Note_off_c, 0, 64, 121
1, 45566, Note_on_c, 0, 64, 124
1, 45684, Note_off_c, 0, 64, 124
1, 45711, Note_on_c, 0, 64, 124
1, 45823, Note_off_c, 0, 64, 124
1, 45836, Note_on_c, 0, 64, 122
1, 45922, Note_off_c, 0, 64, 122
1, 45972, Note_on_c, 0, 65, 120
1, 46096, Note_off_c, 0, 65, 120
1, 46099, Note_on_c, 0, 60, 118
1, 46177, Note_off_c, 0, 60, 118
1, 46232, Note_on_c, 0, 55, 108
1, 47043, Note_off_c, 0, 55, 108
1, 47079, Note_on_c, 0, 59, 114
1, 47163, Note_off_c, 0, 59, 114
1, 47184, Note_on_c, 0, 62, 119
1, 47244, Note_off_c, 0, 62, 119
1, 47261, Note_on_c, 0, 65, 120
1, 47329, Note_off_c, 0, 65, 120
1, 47350, Note_on_c, 0, 69, 120
1, 47437, Note_off_c, 0, 69, 120
1, 47449, Note_on_c, 0, 66, 118
1, 47535, Note_off_c, 0, 66, 118
1, 47542, Note_on_c, 0, 67, 119
1, 47635, Note_off_c, 0, 67, 119
1, 47642, Note_on_c, 0, 64, 121
1, 47719, Note_off_c, 0, 64, 121
1, 47733, Note_on_c, 0, 60, 114
1, 47811, Note_off_c, 0, 60, 114
1, 47823, Note_on_c, 0, 64, 122
1, 47923, Note_off_c, 0, 64, 122
1, 47931, Note_on_c, 0, 62, 116
1, 47997, Note_off_c, 0, 62, 116
1, 48020, Note_on_c, 0, 60, 112
1, 48106, Note_off_c, 0, 60, 112
1, 48119, Note_on_c, 0, 55, 116
1, 48194, Note_off_c, 0, 55, 116
1, 48225, Note_on_c, 0, 52, 112
1, 48306, Note_off_c, 0, 52, 112
1, 48321, Note_on_c, 0, 49, 111
1, 48402, Note_off_c, 0, 49, 111
1, 48405, Note_on_c, 0, 52, 113
1, 48475, Note_off_c, 0, 52, 113
1, 48478, Note_on_c, 0, 55, 111
1, 48576, Note_off_c, 0, 55, 111
1, 48611, Note_on_c, 0, 58, 110
1, 48672, Note_off_c, 0, 58, 110
1, 48708, Note_on_c, 0, 52, 115
1, 48793, Note_off_c, 0, 52, 115
1, 48796, Note_on_c, 0, 55, 115
1, 48872, Note_off_c, 0, 55, 115
1, 48889, Note_on_c, 0, 49, 108
1, 48970, Note_off_c, 0, 49, 108
1, 48981, Note_on_c, 0, 52, 117
1, 49066, Note_off_c, 0, 52, 117
1, 49073, Note_on_c, 0, 50, 113
1, 49163, Note_off_c, 0, 50, 113
1, 49163, Note_on_c, 0, 52, 114
1, 49256, Note_off_c, 0, 52, 114
1, 49259, Note_on_c, 0, 53, 111
1, 49338, Note_off_c, 0, 53, 111
1, 49358, Note_on_c, 0, 55, 114
1, 49539, Note_off_c, 0, 55, 114
1, 49557, Note_on_c, 0, 57, 117
1, 49630, Note_off_c, 0, 57, 117
1, 49655, Note_on_c, 0, 53, 116
1, 49724, Note_off_c, 0, 53, 116
1, 49742, Note_on_c, 0, 50, 111
1, 49823, Note_off_c, 0, 50, 111
1, 49853, Note_on_c, 0, 48, 107
1, 49999, Note_off_c, 0, 48, 107
1, 50017, Note_on_c, 0, 50, 107
1, 50098, Note_off_c, 0, 50, 107
1, 50125, Note_on_c, 0, 47, 113
1, 50252, Note_off_c, 0, 47, 113
1, 50283, Note_on_c, 0, 48, 110
1, 50362, Note_off_c, 0, 48, 110
1, 50402, Note_on_c, 0, 50, 118
1, 50492, Note_off_c, 0, 50, 118
1, 50495, Note_on_c, 0, 52, 115
1, 50574, Note_off_c, 0, 52, 115
1, 50592, Note_on_c, 0, 48, 106
1, 50779, Note_off_c, 0, 48, 106
1, 50789, Note_on_c, 0, 52, 118
1, 50865, Note_off_c, 0, 52, 118
1, 50877, Note_on_c, 0, 55, 112
1, 50950, Note_off_c, 0, 55, 112
1, 50970, Note_on_c, 0, 60, 116
1, 51049, Note_off_c, 0, 60, 116
1, 51062, Note_on_c, 0, 64, 119
1, 51142, Note_off_c, 0, 64, 119
1, 51167, Note_on_c, 0, 67, 121
1, 51366, Note_off_c, 0, 67, 121
1, 52003, Note_on_c, 0, 67, 127
1, 52115, Note_off_c, 0, 67, 127
1, 52201, Note_on_c, 0, 71, 119
1, 52279, Note_off_c, 0, 71, 119
1, 52287, Note_on_c, 0, 72, 107
1, 52360, Note_off_c, 0, 72, 107
1, 52369, Note_on_c, 0, 71, 119
1, 52461, Note_off_c, 0, 71, 119
1, 52492, Note_on_c, 0, 68, 120
1, 52563, Note_off_c, 0, 68, 120
1, 52563, Note_on_c, 0, 69, 105
1, 52652, Note_off_c, 0, 69, 105
1, 52696, Note_on_c, 0, 67, 120
1, 52769, Note_off_c, 0, 67, 120
1, 52770, Note_on_c, 0, 68, 94
1, 52839, Note_off_c, 0, 68, 94
1, 52861, Note_on_c, 0, 65, 119
1, 52963, Note_off_c, 0, 65, 119
1, 52981, Note_on_c, 0, 64, 121
1, 53105, Note_off_c, 0, 64, 121
1, 53127, Note_on_c, 0, 62, 119
1, 53240, Note_off_c, 0, 62, 119
1, 53326, Note_on_c, 0, 60, 116
1, 53406, Note_off_c, 0, 60, 116
1, 53416, Note_on_c, 0, 59, 111
1, 53511, Note_off_c, 0, 59, 111
1, 53528, Note_on_c, 0, 57, 110
1, 53641, Note_off_c, 0, 57, 110
1, 53697, Note_on_c, 0, 55, 116
1, 53814, Note_off_c, 0, 55, 116
1, 53863, Note_on_c, 0, 52, 114
1, 53958, Note_off_c, 0, 52, 114
1, 53984, Note_on_c, 0, 55, 117
1, 54088, Note_off_c, 0, 55, 117
1, 54166, Note_on_c, 0, 57, 109
1, 54288, Note_off_c, 0, 57, 109
1, 54347, Note_on_c, 0, 61, 115
1, 54440, Note_off_c, 0, 61, 115
1, 54456, Note_on_c, 0, 64, 120
1, 54558, Note_off_c, 0, 64, 120
1, 54560, Note_on_c, 0, 62, 113
1, 54648, Note_off_c, 0, 62, 113
1, 54654, Note_on_c, 0, 61, 116
1, 54743, Note_off_c, 0, 61, 116
1, 54822, Note_on_c, 0, 62, 113
1, 54897, Note_off_c, 0, 62, 113
1, 54903, Note_on_c, 0, 64, 120
1, 55007, Note_off_c, 0, 64, 120
1, 55048, Note_on_c, 0, 65, 115
1, 55136, Note_off_c, 0, 65, 115
1, 55222, Note_on_c, 0, 62, 112
1, 55341, Note_off_c, 0, 62, 112
1, 55401, Note_on_c, 0, 57, 112
1, 55501, Note_off_c, 0, 57, 112
1, 55586, Note_on_c, 0, 62, 113
1, 55679, Note_off_c, 0, 62, 113
1, 55694, Note_on_c, 0, 59, 116
1, 55768, Note_off_c, 0, 59, 116
1, 55780, Note_on_c, 0, 57, 107
1, 55865, Note_off_c, 0, 57, 107
1, 55893, Note_on_c, 0, 55, 113
1, 56030, Note_off_c, 0, 55, 113
1, 56056, Note_on_c, 0, 55, 119
1, 56169, Note_off_c, 0, 55, 119
1, 56179, Note_on_c, 0, 53, 117
1, 56269, Note_off_c, 0, 53, 117
1, 56319, Note_on_c, 0, 50, 114
1, 56422, Note_off_c, 0, 50, 114
1, 56496, Note_on_c, 0, 48, 113
1, 56595, Note_off_c, 0, 48, 113
1, 56617, Note_on_c, 0, 52, 110
1, 56706, Note_off_c, 0, 52, 110
1, 56737, Note_on_c, 0, 55, 114
1, 56816, Note_off_c, 0, 55, 114
1, 56822, Note_on_c, 0, 60, 113
1, 56903, Note_off_c, 0, 60, 113
1, 56929, Note_on_c, 0, 64, 119
1, 57021, Note_off_c, 0, 64, 119
1, 57076, Note_on_c, 0, 67, 112
1, 57165, Note_off_c, 0, 67, 112
1, 57181, Note_on_c, 0, 69, 110
1, 57729, Note_off_c, 0, 69, 110
1, 58143, Note_on_c, 0, 67, 120
1, 58178, Note_off_c, 0, 67, 120
1, 58182, Note_on_c, 0, 69, 122
1, 58226, Note_off_c, 0, 69, 122
1, 58230, Note_on_c, 0, 67, 118
1, 58308, Note_off_c, 0, 67, 118
1, 58311, Note_on_c, 0, 65, 116
1, 58416, Note_off_c, 0, 65, 116
1, 58428, Note_on_c, 0, 69, 114
1, 58523, Note_off_c, 0, 69, 114
1, 58539, Note_on_c, 0, 67, 117
1, 58573, Note_off_c, 0, 67, 117
1, 58578, Note_on_c, 0, 69, 119
1, 58621, Note_off_c, 0, 69, 119
1, 58624, Note_on_c, 0, 67, 115
1, 58699, Note_off_c, 0, 67, 115
1, 58709, Note_on_c, 0, 64, 116
1, 58791, Note_off_c, 0, 64, 116
1, 58812, Note_on_c, 0, 69, 115
1, 58890, Note_off_c, 0, 69, 115
1, 58919, Note_on_c, 0, 67, 113
1, 58951, Note_off_c, 0, 67, 113
1, 58958, Note_on_c, 0, 69, 120
1, 58997, Note_off_c, 0, 69, 120
1, 59005, Note_on_c, 0, 67, 110
1, 59087, Note_off_c, 0, 67, 110
1, 59101, Note_on_c, 0, 62, 114
1, 59170, Note_off_c, 0, 62, 114
1, 59200, Note_on_c, 0, 69, 114
1, 59277, Note_off_c, 0, 69, 114
1, 59287, Note_on_c, 0, 67, 113
1, 59326, Note_off_c, 0, 67, 113
1, 59327, Note_on_c, 0, 69, 120
1, 59368, Note_off_c, 0, 69, 120
1, 59373, Note_on_c, 0, 67, 112
1, 59464, Note_off_c, 0, 67, 112
1, 59501, Note_on_c, 0, 60, 112
1, 59576, Note_off_c, 0, 60, 112
1, 59593, Note_on_c, 0, 69, 113
1, 59673, Note_off_c, 0, 69, 113
1, 59688, Note_on_c, 0, 67, 110
1, 59725, Note_off_c, 0, 67, 110
1, 59727, Note_on_c, 0, 69, 120
1, 59759, Note_off_c, 0, 69, 120
1, 59784, Note_on_c, 0, 67, 112
1, 59861, Note_off_c, 0, 67, 112
1, 59878, Note_on_c, 0, 60, 112
1, 59942, Note_off_c, 0, 60, 112
1, 59981, Note_on_c, 0, 69, 117
1, 60047, Note_off_c, 0, 69, 117
1, 60074, Note_on_c, 0, 67, 115
1, 60100, Note_off_c, 0, 67, 115
1, 60111, Note_on_c, 0, 69, 120
1, 60148, Note_off_c, 0, 69, 120
1, 60173, Note_on_c, 0, 67, 112
1, 60223, Note_off_c, 0, 67, 112
1, 60256, Note_on_c, 0, 60, 111
1, 60316, Note_off_c, 0, 60, 111
1, 60341, Note_on_c, 0, 69, 116
1, 60403, Note_off_c, 0, 69, 116
1, 60437, Note_on_c, 0, 69, 113
1, 60616, Note_off_c, 0, 69, 113
1, 60623, Note_on_c, 0, 64, 114
1, 60725, Note_off_c, 0, 64, 114
1, 60741, Note_on_c, 0, 69, 113
1, 60812, Note_off_c, 0, 69, 113
1, 60815, Note_on_c, 0, 64, 109
1, 60881, Note_off_c, 0, 64, 109
1, 60884, Note_on_c, 0, 67, 106
1, 60923, Note_off_c, 0, 67, 106
1, 60946, Note_on_c, 0, 64, 119
1, 61026, Note_off_c, 0, 64, 119
1, 61029, Note_on_c, 0, 61, 113
1, 61106, Note_off_c, 0, 61, 113
1, 61136, Note_on_c, 0, 64, 120
1, 61213, Note_off_c, 0, 64, 120
1, 61230, Note_on_c, 0, 64, 118
1, 61273, Note_off_c, 0, 64, 118
1, 61274, Note_on_c, 0, 67, 112
1, 61311, Note_off_c, 0, 67, 112
1, 61328, Note_on_c, 0, 64, 117
1, 61392, Note_off_c, 0, 64, 117
1, 61399, Note_on_c, 0, 62, 110
1, 61477, Note_off_c, 0, 62, 110
1, 61494, Note_on_c, 0, 64, 118
1, 61585, Note_off_c, 0, 64, 118
1, 61604, Note_on_c, 0, 65, 115
1, 61648, Note_off_c, 0, 65, 115
1, 61653, Note_on_c, 0, 67, 113
1, 61685, Note_off_c, 0, 67, 113
1, 61708, Note_on_c, 0, 65, 111
1, 61785, Note_off_c, 0, 65, 111
1, 61797, Note_on_c, 0, 62, 108
1, 61865, Note_off_c, 0, 62, 108
1, 61891, Note_on_c, 0, 65, 108
1, 61977, Note_off_c, 0, 65, 108
1, 61977, Note_on_c, 0, 62, 111
1, 62013, Note_off_c, 0, 62, 111
1, 62025, Note_on_c, 0, 62, 108
1, 62069, Note_off_c, 0, 62, 108
1, 62091, Note_on_c, 0, 62, 105
1, 62143, Note_off_c, 0, 62, 105
1, 62170, Note_on_c, 0, 59, 110
1, 62249, Note_off_c, 0, 59, 110
1, 62266, Note_on_c, 0, 62, 108
1, 62325, Note_off_c, 0, 62, 108
1, 62361, Note_on_c, 0, 57, 108
1, 62413, Note_off_c, 0, 57, 108
1, 62428, Note_on_c, 0, 59, 110
1, 62464, Note_off_c, 0, 59, 110
1, 62476, Note_on_c, 0, 57, 104
1, 62549, Note_off_c, 0, 57, 104
1, 63026, Note_on_c, 0, 64, 123
1, 63099, Note_off_c, 0, 64, 123
1, 63127, Note_on_c, 0, 67, 118
1, 63196, Note_off_c, 0, 67, 118
1, 63206, Note_on_c, 0, 69, 118
1, 63270, Note_off_c, 0, 69, 118
1, 63297, Note_on_c, 0, 67, 119
1, 63375, Note_off_c, 0, 67, 119
1, 63397, Note_on_c, 0, 69, 109
1, 63466, Note_off_c, 0, 69, 109
1, 63488, Note_on_c, 0, 67, 110
1, 63523, Note_off_c, 0, 67, 110
1, 63526, Note_on_c, 0, 69, 121
1, 63572, Note_off_c, 0, 69, 121
1, 63578, Note_on_c, 0, 67, 119
1, 63648, Note_off_c, 0, 67, 119
1, 63675, Note_on_c, 0, 64, 120
1, 63761, Note_off_c, 0, 64, 120
1, 63779, Note_on_c, 0, 60, 110
1, 63850, Note_off_c, 0, 60, 110
1, 63882, Note_on_c, 0, 55, 115
1, 63946, Note_off_c, 0, 55, 115
1, 63973, Note_on_c, 0, 60, 110
1, 64034, Note_off_c, 0, 60, 110
1, 64056, Note_on_c, 0, 64, 120
1, 64144, Note_off_c, 0, 64, 120
1, 64174, Note_on_c, 0, 67, 117
1, 64242, Note_off_c, 0, 67, 117
1, 64258, Note_on_c, 0, 69, 118
1, 64338, Note_off_c, 0, 69, 118
1, 64366, Note_on_c, 0, 72, 116
1, 64442, Note_off_c, 0, 72, 116
1, 64454, Note_on_c, 0, 69, 116
1, 64540, Note_off_c, 0, 69, 116
1, 64568, Note_on_c, 0, 65, 112
1, 64632, Note_off_c, 0, 65, 112
1, 64658, Note_on_c, 0, 60, 102
1, 64747, Note_off_c, 0, 60, 102
1, 64757, Note_on_c, 0, 65, 113
1, 64833, Note_off_c, 0, 65, 113
1, 64845, Note_on_c, 0, 69, 113
1, 64926, Note_off_c, 0, 69, 113
1, 64933, Note_on_c, 0, 72, 115
1, 65001, Note_off_c, 0, 72, 115
1, 65013, Note_on_c, 0, 72, 114
1, 65059, Note_off_c, 0, 72, 114
1, 65085, Note_on_c, 0, 70, 111
1, 65132, Note_off_c, 0, 70, 111
1, 65139, Note_on_c, 0, 71, 112
1, 65188, Note_off_c, 0, 71, 112
1, 65200, Note_on_c, 0, 67, 111
1, 65281, Note_off_c, 0, 67, 111
1, 65325, Note_on_c, 0, 72, 98
1, 65377, Note_off_c, 0, 72, 98
1, 65409, Note_on_c, 0, 69, 120
1, 65450, Note_off_c, 0, 69, 120
1, 65456, Note_on_c, 0, 71, 113
1, 65506, Note_off_c, 0, 71, 113
1, 65514, Note_on_c, 0, 69, 114
1, 65577, Note_off_c, 0, 69, 114
1, 65592, Note_on_c, 0, 65, 113
1, 65663, Note_off_c, 0, 65, 113
1, 65689, Note_on_c, 0, 69, 106
1, 65749, Note_off_c, 0, 69, 106
1, 65789, Note_on_c, 0, 69, 118
1, 65858, Note_off_c, 0, 69, 118
1, 65864, Note_on_c, 0, 67, 111
1, 65943, Note_off_c, 0, 67, 111
1, 65977, Note_on_c, 0, 64, 120
1, 66062, Note_off_c, 0, 64, 120
1, 66064, Note_on_c, 0, 60, 114
1, 66127, Note_off_c, 0, 60, 114
1, 66164, Note_on_c, 0, 55, 114
1, 66264, Note_off_c, 0, 55, 114
1, 66280, Note_on_c, 0, 60, 104
1, 66326, Note_off_c, 0, 60, 104
1, 66361, Note_on_c, 0, 64, 114
1, 66410, Note_off_c, 0, 64, 114
1, 66460, Note_on_c, 0, 67, 107
1, 66515, Note_off_c, 0, 67, 107
1, 66564, Note_on_c, 0, 70, 110
1, 66621, Note_off_c, 0, 70, 110
1, 66646, Note_on_c, 0, 73, 112
1, 66736, Note_off_c, 0, 73, 112
1, 66758, Note_on_c, 0, 70, 109
1, 66817, Note_off_c, 0, 70, 109
1, 66844, Note_on_c, 0, 67, 113
1, 66915, Note_off_c, 0, 67, 113
1, 66954, Note_on_c, 0, 64, 115
1, 66985, Note_off_c, 0, 64, 115
1, 67002, Note_on_c, 0, 64, 119
1, 67070, Note_off_c, 0, 64, 119
1, 67071, Note_on_c, 0, 61, 109
1, 67126, Note_off_c, 0, 61, 109
1, 67161, Note_on_c, 0, 58, 110
1, 67237, Note_off_c, 0, 58, 110
1, 67249, Note_on_c, 0, 55, 108
1, 67315, Note_off_c, 0, 55, 108
1, 67330, Note_on_c, 0, 64, 119
1, 67370, Note_off_c, 0, 64, 119
1, 67375, Note_on_c, 0, 67, 110
1, 67400, Note_off_c, 0, 67, 110
1, 67411, Note_on_c, 0, 64, 113
1, 67447, Note_off_c, 0, 64, 113
1, 67467, Note_on_c, 0, 62, 111
1, 67593, Note_off_c, 0, 62, 111
1, 67644, Note_on_c, 0, 62, 110
1, 67712, Note_off_c, 0, 62, 110
1, 67727, Note_on_c, 0, 62, 108
1, 67786, Note_off_c, 0, 62, 108
1, 67809, Note_on_c, 0, 62, 119
1, 67898, Note_off_c, 0, 62, 119
1, 67928, Note_on_c, 0, 62, 102
1, 67984, Note_off_c, 0, 62, 102
1, 67996, Note_on_c, 0, 62, 107
1, 68065, Note_off_c, 0, 62, 107
1, 68070, Note_on_c, 0, 55, 100
1, 68162, Note_off_c, 0, 55, 100
1, 68536, Note_on_c, 0, 69, 117
1, 68611, Note_off_c, 0, 69, 117
1, 68626, Note_on_c, 0, 67, 117
1, 68692, Note_off_c, 0, 67, 117
1, 68713, Note_on_c, 0, 66, 116
1, 68794, Note_off_c, 0, 66, 116
1, 68809, Note_on_c, 0, 69, 116
1, 68894, Note_off_c, 0, 69, 116
1, 68920, Note_on_c, 0, 66, 116
1, 68985, Note_off_c, 0, 66, 116
1, 68997, Note_on_c, 0, 67, 118
1, 69071, Note_off_c, 0, 67, 118
1, 69095, Note_on_c, 0, 64, 122
1, 69165, Note_off_c, 0, 64, 122
1, 69181, Note_on_c, 0, 65, 116
1, 69270, Note_off_c, 0, 65, 116
1, 69285, Note_on_c, 0, 62, 113
1, 69357, Note_off_c, 0, 62, 113
1, 69383, Note_on_c, 0, 59, 112
1, 69461, Note_off_c, 0, 59, 112
1, 69576, Note_on_c, 0, 67, 121
1, 69655, Note_off_c, 0, 67, 121
1, 69672, Note_on_c, 0, 66, 118
1, 69750, Note_off_c, 0, 66, 118
1, 69760, Note_on_c, 0, 69, 123
1, 69835, Note_off_c, 0, 69, 123
1, 69858, Note_on_c, 0, 66, 118
1, 69940, Note_off_c, 0, 66, 118
1, 70062, Note_on_c, 0, 67, 121
1, 70134, Note_off_c, 0, 67, 121
1, 70152, Note_on_c, 0, 64, 122
1, 70235, Note_off_c, 0, 64, 122
1, 70322, Note_on_c, 0, 69, 120
1, 70409, Note_off_c, 0, 69, 120
1, 70426, Note_on_c, 0, 66, 115
1, 70505, Note_off_c, 0, 66, 115
1, 70513, Note_on_c, 0, 67, 117
1, 70597, Note_off_c, 0, 67, 117
1, 70616, Note_on_c, 0, 64, 121
1, 70702, Note_off_c, 0, 64, 121
1, 70717, Note_on_c, 0, 65, 116
1, 70806, Note_off_c, 0, 65, 116
1, 70909, Note_on_c, 0, 67, 114
1, 70986, Note_off_c, 0, 67, 114
1, 71011, Note_on_c, 0, 66, 114
1, 71104, Note_off_c, 0, 66, 114
1, 71179, Note_on_c, 0, 69, 117
1, 71270, Note_off_c, 0, 69, 117
1, 71278, Note_on_c, 0, 66, 116
1, 71356, Note_off_c, 0, 66, 116
1, 71357, Note_on_c, 0, 67, 119
1, 71452, Note_off_c, 0, 67, 119
1, 71467, Note_on_c, 0, 64, 119
1, 71570, Note_off_c, 0, 64, 119
1, 71674, Note_on_c, 0, 65, 119
1, 71739, Note_off_c, 0, 65, 119
1, 71743, Note_on_c, 0, 66, 118
1, 71812, Note_off_c, 0, 66, 118
1, 71835, Note_on_c, 0, 69, 117
1, 71933, Note_off_c, 0, 69, 117
1, 71938, Note_on_c, 0, 66, 115
1, 72018, Note_off_c, 0, 66, 115
1, 72026, Note_on_c, 0, 67, 118
1, 72112, Note_off_c, 0, 67, 118
1, 72127, Note_on_c, 0, 64, 121
1, 72217, Note_off_c, 0, 64, 121
1, 72229, Note_on_c, 0, 65, 114
1, 72306, Note_off_c, 0, 65, 114
1, 72319, Note_on_c, 0, 62, 111
1, 72396, Note_off_c, 0, 62, 111
1, 72417, Note_on_c, 0, 64, 121
1, 72496, Note_off_c, 0, 64, 121
1, 72503, Note_on_c, 0, 65, 113
1, 72587, Note_off_c, 0, 65, 113
1, 72605, Note_on_c, 0, 63, 117
1, 72682, Note_off_c, 0, 63, 117
1, 72687, Note_on_c, 0, 64, 116
1, 72781, Note_off_c, 0, 64, 116
1, 72787, Note_on_c, 0, 65, 113
1, 72869, Note_off_c, 0, 65, 113
1, 72878, Note_on_c, 0, 63, 116
1, 72981, Note_off_c, 0, 63, 116
1, 72999, Note_on_c, 0, 64, 119
1, 73082, Note_off_c, 0, 64, 119
1, 73083, Note_on_c, 0, 62, 111
1, 73161, Note_off_c, 0, 62, 111
1, 73178, Note_on_c, 0, 61, 115
1, 73262, Note_off_c, 0, 61, 115
1, 73277, Note_on_c, 0, 64, 115
1, 73364, Note_off_c, 0, 64, 115
1, 73378, Note_on_c, 0, 62, 105
1, 73526, Note_off_c, 0, 62, 105
1, 73646, Note_on_c, 0, 65, 117
1, 73809, Note_off_c, 0, 65, 117
1, 73855, Note_on_c, 0, 62, 10
1, 73930, Note_off_c, 0, 62, 10
1, 73949, Note_on_c, 0, 65, 113
1, 74131, Note_off_c, 0, 65, 113
1, 74236, Note_on_c, 0, 62, 117
1, 74318, Note_off_c, 0, 62, 117
1, 74325, Note_on_c, 0, 59, 115
1, 74408, Note_off_c, 0, 59, 115
1, 74414, Note_on_c, 0, 57, 117
1, 74523, Note_off_c, 0, 57, 117
1, 74533, Note_on_c, 0, 55, 114
1, 74684, Note_off_c, 0, 55, 114
1, 74716, Note_on_c, 0, 53, 118
1, 74802, Note_off_c, 0, 53, 118
1, 74999, Note_on_c, 0, 64, 112
1, 75073, Note_off_c, 0, 64, 112
1, 75084, Note_on_c, 0, 66, 111
1, 75167, Note_off_c, 0, 66, 111
1, 75182, Note_on_c, 0, 60, 117
1, 75257, Note_off_c, 0, 60, 117
1, 75282, Note_on_c, 0, 64, 125
1, 75361, Note_off_c, 0, 64, 125
1, 75369, Note_on_c, 0, 67, 120
1, 75442, Note_off_c, 0, 67, 120
1, 75463, Note_on_c, 0, 69, 119
1, 75544, Note_off_c, 0, 69, 119
1, 75566, Note_on_c, 0, 66, 113
1, 75641, Note_off_c, 0, 66, 113
1, 75649, Note_on_c, 0, 67, 122
1, 75728, Note_off_c, 0, 67, 122
1, 75753, Note_on_c, 0, 64, 119
1, 75839, Note_off_c, 0, 64, 119
1, 75849, Note_on_c, 0, 65, 117
1, 75933, Note_off_c, 0, 65, 117
1, 75951, Note_on_c, 0, 60, 110
1, 76015, Note_off_c, 0, 60, 110
1, 76036, Note_on_c, 0, 64, 116
1, 76228, Note_off_c, 0, 64, 116
1, 76236, Note_on_c, 0, 60, 114
1, 76496, Note_off_c, 0, 60, 114
1, 76707, Note_on_c, 0, 60, 115
1, 76817, Note_off_c, 0, 60, 115
1, 76880, Note_on_c, 0, 60, 113
1, 76969, Note_off_c, 0, 60, 113
1, 76991, Note_on_c, 0, 65, 110
1, 77256, Note_off_c, 0, 65, 110
1, 77431, Note_on_c, 0, 59, 107
1, 77554, Note_off_c, 0, 59, 107
1, 77630, Note_on_c, 0, 59, 119
1, 77744, Note_off_c, 0, 59, 119
1, 77844, Note_on_c, 0, 60, 114
1, 77981, Note_off_c, 0, 60, 114
1, 78027, Note_on_c, 0, 55, 120
1, 78126, Note_off_c, 0, 55, 120
1, 78200, Note_on_c, 0, 60, 116
1, 78324, Note_off_c, 0, 60, 116
1, 78368, Note_on_c, 0, 64, 121
1, 78427, Note_off_c, 0, 64, 121
1, 78482, Note_on_c, 0, 67, 115
1, 78604, Note_off_c, 0, 67, 115
1, 78693, Note_on_c, 0, 61, 113
1, 78922, Note_off_c, 0, 61, 113
1, 78983, Note_on_c, 0, 58, 109
1, 79071, Note_off_c, 0, 58, 109
1, 79082, Note_on_c, 0, 57, 110
1, 79168, Note_off_c, 0, 57, 110
1, 79196, Note_on_c, 0, 55, 115
1, 79277, Note_off_c, 0, 55, 115
1, 79337, Note_on_c, 0, 55, 113
1, 79429, Note_off_c, 0, 55, 113
1, 79435, Note_on_c, 0, 53, 110
1, 79542, Note_off_c, 0, 53, 110
1, 79564, Note_on_c, 0, 52, 116
1, 79700, Note_off_c, 0, 52, 116
1, 79730, Note_on_c, 0, 50, 111
1, 79837, Note_off_c, 0, 50, 111
1, 79893, Note_on_c, 0, 53, 114
1, 79986, Note_off_c, 0, 53, 114
1, 80013, Note_on_c, 0, 57, 112
1, 80137, Note_off_c, 0, 57, 112
1, 80198, Note_on_c, 0, 55, 117
1, 80301, Note_off_c, 0, 55, 117
1, 80356, Note_on_c, 0, 55, 115
1, 80464, Note_off_c, 0, 55, 115
1, 80499, Note_on_c, 0, 60, 109
1, 80616, Note_off_c, 0, 60, 109
1, 80662, Note_on_c, 0, 59, 112
1, 80779, Note_off_c, 0, 59, 112
1, 80854, Note_on_c, 0, 60, 107
1, 81189, Note_off_c, 0, 60, 107
1, 81243, Note_on_c, 0, 55, 117
1, 81332, Note_off_c, 0, 55, 117
1, 81342, Note_on_c, 0, 57, 113
1, 81457, Note_off_c, 0, 57, 113
1, 81528, Note_on_c, 0, 59, 110
1, 81631, Note_off_c, 0, 59, 110
1, 81633, Note_on_c, 0, 55, 103
1, 81711, Note_off_c, 0, 55, 103
1, 81733, Note_on_c, 0, 60, 105
1, 82363, Note_off_c, 0, 60, 105
1, 82363, End_track
0, 0, End_of_file
