0, 0, Header, 1, 1, 192
1, 0, Start_track
1, 0, Title_t, "Melody"
1, 0, Tempo, 322580
1, 0, Key_signature, -3, "major"
1, 0, Time_signature, 4, 2, 24, 8
1, 2837, Note_on_c, 0, 58, 95
1, 2871, Note_off_c, 0, 58, 95
1, 2871, Note_on_c, 0, 60, 103
1, 2904, Note_off_c, 0, 60, 103
1, 2911, Note_on_c, 0, 62, 104
1, 2948, Note_off_c, 0, 62, 104
1, 2955, Note_on_c, 0, 63, 112
1, 3029, Note_off_c, 0, 63, 112
1, 3050, Note_on_c, 0, 65, 107
1, 3102, Note_off_c, 0, 65, 107
1, 3118, Note_on_c, 0, 67, 116
1, 3211, Note_off_c, 0, 67, 116
1, 3214, Note_on_c, 0, 68, 117
1, 3287, Note_off_c, 0, 68, 117
1, 3296, Note_on_c, 0, 69, 123
1, 3402, Note_off_c, 0, 69, 123
1, 3405, Note_on_c, 0, 70, 122
1, 3482, Note_off_c, 0, 70, 122
1, 3486, Note_on_c, 0, 71, 118
1, 3605, Note_off_c, 0, 71, 118
1, 3634, Note_on_c, 0, 69, 100
1, 3672, Note_off_c, 0, 69, 100
1, 3675, Note_on_c, 0, 70, 119
1, 3696, Note_off_c, 0, 70, 119
1, 3706, Note_on_c, 0, 72, 115
1, 3727, Note_off_c, 0, 72, 115
1, 3739, Note_on_c, 0, 70, 112
1, 3769, Note_off_c, 0, 70, 112
1, 3778, Note_on_c, 0, 69, 112
1, 3833, Note_off_c, 0, 69, 112
1, 3846, Note_on_c, 0, 67, 114
1, 3914, Note_off_c, 0, 67, 114
1, 3928, Note_on_c, 0, 70, 93
1, 3976, Note_off_c, 0, 70, 93
1, 3981, Note_on_c, 0, 72, 101
1, 4043, Note_off_c, 0, 72, 101
1, 4055, Note_on_c, 0, 77, 123
1, 4153, Note_off_c, 0, 77, 123
1, 4161, Note_on_c, 0, 76, 123
1, 4238, Note_off_c, 0, 76, 123
1, 4247, Note_on_c, 0, 75, 115
1, 4363, Note_off_c, 0, 75, 115
1, 4372, Note_on_c, 0, 72, 89
1, 4426, Note_off_c, 0, 72, 89
1, 4430, Note_on_c, 0, 73, 118
1, 4567, Note_off_c, 0, 73, 118
1, 4576, Note_on_c, 0, 70, 81
1, 4774, Note_off_c, 0, 70, 81
1, 5539, Note_on_c, 0, 75, 121
1, 5664, Note_off_c, 0, 75, 121
1, 5730, Note_on_c, 0, 73, 117
1, 5830, Note_off_c, 0, 73, 117
1, 5875, Note_on_c, 0, 75, 112
1, 5967, Note_off_c, 0, 75, 112
1, 5970, Note_on_c, 0, 71, 119
1, 6031, Note_off_c, 0, 71, 119
1, 6032, Note_on_c, 0, 72, 113
1, 6124, Note_off_c, 0, 72, 113
1, 6137, Note_on_c, 0, 66, 91
1, 6251, Note_off_c, 0, 66, 91
1, 6689, Note_on_c, 0, 69, 114
1, 6726, Note_off_c, 0, 69, 114
1, 6728, Note_on_c, 0, 70, 115
1, 6879, Note_off_c, 0, 70, 115
1, 6897, Note_on_c, 0, 68, 103
1, 6987, Note_off_c, 0, 68, 103
1, 7011, Note_on_c, 0, 63, 87
1, 7068, Note_off_c, 0, 63, 87
1, 7075, Note_on_c, 0, 60, 86
1, 7142, Note_off_c, 0, 60, 86
1, 7145, Note_on_c, 0, 67, 114
1, 7240, Note_off_c, 0, 67, 114
1, 7250, Note_on_c, 0, 66, 103
1, 7321, Note_off_c, 0, 66, 103
1, 7328, Note_on_c, 0, 65, 93
1, 7425, Note_off_c, 0, 65, 93
1, 7434, Note_on_c, 0, 64, 111
1, 7501, Note_off_c, 0, 64, 111
1, 7507, Note_on_c, 0, 63, 99
1, 7601, Note_off_c, 0, 63, 99
1, 7626, Note_on_c, 0, 59, 101
1, 7696, Note_off_c, 0, 59, 101
1, 7699, Note_on_c, 0, 58, 91
1, 7787, Note_off_c, 0, 58, 91
1, 7801, Note_on_c, 0, 56, 102
1, 7860, Note_off_c, 0, 56, 102
1, 7869, Note_on_c, 0, 55, 92
1, 7982, Note_off_c, 0, 55, 92
1, 8015, Note_on_c, 0, 62, 90
1, 8061, Note_off_c, 0, 62, 90
1, 8089, Note_on_c, 0, 65, 107
1, 8184, Note_off_c, 0, 65, 107
1, 8215, Note_on_c, 0, 61, 96
1, 8276, Note_off_c, 0, 61, 96
1, 8292, Note_on_c, 0, 64, 115
1, 8377, Note_off_c, 0, 64, 115
1, 8399, Note_on_c, 0, 61, 106
1, 8478, Note_off_c, 0, 61, 106
1, 8482, Note_on_c, 0, 57, 98
1, 8553, Note_off_c, 0, 57, 98
1, 8584, Note_on_c, 0, 54, 107
1, 8655, Note_off_c, 0, 54, 107
1, 8664, Note_on_c, 0, 53, 96
1, 8798, Note_off_c, 0, 53, 96
1, 8814, Note_on_c, 0, 60, 86
1, 8845, Note_off_c, 0, 60, 86
1, 8850, Note_on_c, 0, 63, 107
1, 8977, Note_off_c, 0, 63, 107
1, 9054, Note_on_c, 0, 62, 107
1, 9149, Note_off_c, 0, 62, 107
1, 9161, Note_on_c, 0, 65, 110
1, 9236, Note_off_c, 0, 65, 110
1, 9248, Note_on_c, 0, 60, 94
1, 9349, Note_off_c, 0, 60, 94
1, 9356, Note_on_c, 0, 59, 107
1, 9425, Note_off_c, 0, 59, 107
1, 9437, Note_on_c, 0, 58, 101
1, 9505, Note_off_c, 0, 58, 101
1, 9510, Note_on_c, 0, 57, 103
1, 9583, Note_off_c, 0, 57, 103
1, 9586, Note_on_c, 0, 56, 90
1, 9652, Note_off_c, 0, 56, 90
1, 9660, Note_on_c, 0, 58, 82
1, 9690, Note_off_c, 0, 58, 82
1, 9702, Note_on_c, 0, 60, 83
1, 9745, Note_off_c, 0, 60, 83
1, 9750, Note_on_c, 0, 63, 80
1, 9791, Note_off_c, 0, 63, 80
1, 9801, Note_on_c, 0, 67, 110
1, 9888, Note_off_c, 0, 67, 110
1, 9896, Note_on_c, 0, 66, 115
1, 9968, Note_off_c, 0, 66, 115
1, 9983, Note_on_c, 0, 65, 105
1, 10074, Note_off_c, 0, 65, 105
1, 10083, Note_on_c, 0, 64, 109
1, 10146, Note_off_c, 0, 64, 109
1, 10155, Note_on_c, 0, 63, 100
1, 10267, Note_off_c, 0, 63, 100
1, 10286, Note_on_c, 0, 65, 77
1, 10341, Note_off_c, 0, 65, 77
1, 10343, Note_on_c, 0, 67, 106
1, 10476, Note_off_c, 0, 67, 106
1, 10531, Note_on_c, 0, 75, 114
1, 10672, Note_off_c, 0, 75, 114
1, 10683, Note_on_c, 0, 72, 96
1, 10818, Note_off_c, 0, 72, 96
1, 11619, Note_on_c, 0, 77, 121
1, 11675, Note_off_c, 0, 77, 121
1, 11676, Note_on_c, 0, 78, 118
1, 11822, Note_off_c, 0, 78, 118
1, 11826, Note_on_c, 0, 75, 97
1, 11900, Note_off_c, 0, 75, 97
1, 11911, Note_on_c, 0, 77, 113
1, 12012, Note_off_c, 0, 77, 113
1, 12016, Note_on_c, 0, 78, 107
1, 12113, Note_off_c, 0, 78, 107
1, 12118, Note_on_c, 0, 77, 101
1, 12229, Note_off_c, 0, 77, 101
1, 12792, Note_on_c, 0, 75, 112
1, 12841, Note_off_c, 0, 75, 112
1, 12848, Note_on_c, 0, 77, 122
1, 12937, Note_off_c, 0, 77, 122
1, 12940, Note_on_c, 0, 79, 105
1, 12985, Note_off_c, 0, 79, 105
1, 12995, Note_on_c, 0, 78, 114
1, 13053, Note_off_c, 0, 78, 114
1, 13064, Note_on_c, 0, 77, 115
1, 13152, Note_off_c, 0, 77, 115
1, 13158, Note_on_c, 0, 75, 106
1, 13252, Note_off_c, 0, 75, 106
1, 13273, Note_on_c, 0, 74, 107
1, 13389, Note_off_c, 0, 74, 107
1, 13396, Note_on_c, 0, 73, 93
1, 13629, Note_off_c, 0, 73, 93
1, 14110, Note_on_c, 0, 65, 96
1, 14165, Note_off_c, 0, 65, 96
1, 14166, Note_on_c, 0, 70, 113
1, 14274, Note_off_c, 0, 70, 113
1, 14288, Note_on_c, 0, 72, 102
1, 14339, Note_off_c, 0, 72, 102
1, 14346, Note_on_c, 0, 73, 109
1, 14400, Note_off_c, 0, 73, 109
1, 14410, Note_on_c, 0, 72, 109
1, 14474, Note_off_c, 0, 72, 109
1, 14477, Note_on_c, 0, 70, 106
1, 14553, Note_off_c, 0, 70, 106
1, 14561, Note_on_c, 0, 69, 106
1, 14662, Note_off_c, 0, 69, 106
1, 14670, Note_on_c, 0, 67, 89
1, 14728, Note_off_c, 0, 67, 89
1, 14737, Note_on_c, 0, 68, 110
1, 14829, Note_off_c, 0, 68, 110
1, 14846, Note_on_c, 0, 66, 98
1, 14935, Note_off_c, 0, 66, 98
1, 14947, Note_on_c, 0, 63, 100
1, 15060, Note_off_c, 0, 63, 100
1, 15082, Note_on_c, 0, 60, 74
1, 15132, Note_off_c, 0, 60, 74
1, 15132, Note_on_c, 0, 65, 103
1, 15430, Note_off_c, 0, 65, 103
1, 15450, Note_on_c, 0, 60, 88
1, 15673, Note_off_c, 0, 60, 88
1, 15699, Note_on_c, 0, 65, 92
1, 15978, Note_off_c, 0, 65, 92
1, 16213, Note_on_c, 0, 60, 92
1, 16256, Note_off_c, 0, 60, 92
1, 16256, Note_on_c, 0, 62, 101
1, 16285, Note_off_c, 0, 62, 101
1, 16291, Note_on_c, 0, 63, 105
1, 16378, Note_off_c, 0, 63, 105
1, 16391, Note_on_c, 0, 65, 104
1, 16450, Note_off_c, 0, 65, 104
1, 16469, Note_on_c, 0, 67, 106
1, 16572, Note_off_c, 0, 67, 106
1, 16581, Note_on_c, 0, 68, 103
1, 16647, Note_off_c, 0, 68, 103
1, 16660, Note_on_c, 0, 70, 109
1, 16749, Note_off_c, 0, 70, 109
1, 16757, Note_on_c, 0, 68, 107
1, 16843, Note_off_c, 0, 68, 107
1, 16853, Note_on_c, 0, 67, 102
1, 16926, Note_off_c, 0, 67, 102
1, 16936, Note_on_c, 0, 65, 97
1, 17011, Note_off_c, 0, 65, 97
1, 17017, Note_on_c, 0, 64, 101
1, 17108, Note_off_c, 0, 64, 101
1, 17142, Note_on_c, 0, 55, 83
1, 17204, Note_off_c, 0, 55, 83
1, 17214, Note_on_c, 0, 58, 90
1, 17303, Note_off_c, 0, 58, 90
1, 17317, Note_on_c, 0, 61, 111
1, 17409, Note_off_c, 0, 61, 111
1, 17417, Note_on_c, 0, 60, 87
1, 17587, Note_off_c, 0, 60, 87
1, 17604, Note_on_c, 0, 58, 96
1, 17709, Note_off_c, 0, 58, 96
1, 17737, Note_on_c, 0, 56, 96
1, 17942, Note_off_c, 0, 56, 96
1, 17961, Note_on_c, 0, 60, 85
1, 18064, Note_off_c, 0, 60, 85
1, 18081, Note_on_c, 0, 63, 78
1, 18131, Note_off_c, 0, 63, 78
1, 18134, Note_on_c, 0, 67, 112
1, 18265, Note_off_c, 0, 67, 112
1, 18282, Note_on_c, 0, 65, 93
1, 18449, Note_off_c, 0, 65, 93
1, 19215, Note_on_c, 0, 75, 127
1, 19584, Note_off_c, 0, 75, 127
1, 19622, Note_on_c, 0, 66, 111
1, 19694, Note_off_c, 0, 66, 111
1, 19707, Note_on_c, 0, 65, 106
1, 19834, Note_off_c, 0, 65, 106
1, 19851, Note_on_c, 0, 63, 100
1, 19961, Note_off_c, 0, 63, 100
1, 19961, End_track
0, 0, End_of_file
