0, 0, Header, 1, 1, 9240
1, 0, Start_track
1, 0, Title_t, "Melody"
1, 0, Tempo, 983606
1, 0, Key_signature, -2, "major"
1, 0, Time_signature, 4, 2, 24, 8
1, 45512, Note_on_c, 0, 58, 110
1, 48426, Note_off_c, 0, 58, 110
1, 50084, Note_on_c, 0, 53, 103
1, 52647, Note_off_c, 0, 53, 103
1, 53058, Note_on_c, 0, 60, 106
1, 55348, Note_off_c, 0, 60, 106
1, 57799, Note_on_c, 0, 53, 87
1, 58671, Note_off_c, 0, 53, 87
1, 58738, Note_on_c, 0, 58, 102
1, 61354, Note_off_c, 0, 58, 102
1, 61467, Note_on_c, 0, 60, 113
1, 62904, Note_off_c, 0, 60, 113
1, 62973, Note_on_c, 0, 62, 108
1, 67813, Note_off_c, 0, 62, 108
1, 67956, Note_on_c, 0, 58, 96
1, 70103, Note_off_c, 0, 58, 96
1, 72657, Note_on_c, 0, 65, 115
1, 75015, Note_off_c, 0, 65, 115
1, 84519, Note_on_c, 0, 51, 92
1, 87174, Note_off_c, 0, 51, 92
1, 87261, Note_on_c, 0, 55, 99
1, 88423, Note_off_c, 0, 55, 99
1, 88469, Note_on_c, 0, 58, 103
1, 89162, Note_off_c, 0, 58, 103
1, 89184, Note_on_c, 0, 60, 109
1, 90847, Note_off_c, 0, 60, 109
1, 90949, Note_on_c, 0, 61, 112
1, 93437, Note_off_c, 0, 61, 112
1, 94110, Note_on_c, 0, 58, 95
1, 94648, Note_off_c, 0, 58, 95
1, 94781, Note_on_c, 0, 60, 113
1, 97196, Note_off_c, 0, 60, 113
1, 97395, Note_on_c, 0, 61, 111
1, 98990, Note_off_c, 0, 61, 111
1, 99064, Note_on_c, 0, 60, 108
1, 100522, Note_off_c, 0, 60, 108
1, 100617, Note_on_c, 0, 61, 106
1, 101687, Note_off_c, 0, 61, 106
1, 101741, Note_on_c, 0, 60, 110
1, 103301, Note_off_c, 0, 60, 110
1, 103444, Note_on_c, 0, 61, 112
1, 106177, Note_off_c, 0, 61, 112
1, 107697, Note_on_c, 0, 60, 109
1, 110444, Note_off_c, 0, 60, 109
1, 110498, Note_on_c, 0, 61, 113
1, 111943, Note_off_c, 0, 61, 113
1, 112004, Note_on_c, 0, 60, 111
1, 113646, Note_off_c, 0, 60, 111
1, 113789, Note_on_c, 0, 61, 108
1, 114934, Note_off_c, 0, 61, 108
1, 115015, Note_on_c, 0, 60, 109
1, 115853, Note_off_c, 0, 60, 109
1, 115948, Note_on_c, 0, 58, 97
1, 116820, Note_off_c, 0, 58, 97
1, 117399, Note_on_c, 0, 61, 107
1, 118619, Note_off_c, 0, 61, 107
1, 118700, Note_on_c, 0, 62, 108
1, 120492, Note_off_c, 0, 62, 108
1, 120583, Note_on_c, 0, 65, 107
1, 126698, Note_off_c, 0, 65, 107
1, 138191, Note_on_c, 0, 67, 120
1, 140175, Note_off_c, 0, 67, 120
1, 140244, Note_on_c, 0, 65, 113
1, 142377, Note_off_c, 0, 65, 113
1, 142472, Note_on_c, 0, 64, 113
1, 144019, Note_off_c, 0, 64, 113
1, 144087, Note_on_c, 0, 63, 111
1, 145024, Note_off_c, 0, 63, 111
1, 145047, Note_on_c, 0, 65, 106
1, 146101, Note_off_c, 0, 65, 106
1, 146166, Note_on_c, 0, 63, 111
1, 147098, Note_off_c, 0, 63, 111
1, 147140, Note_on_c, 0, 60, 111
1, 148414, Note_off_c, 0, 60, 111
1, 148864, Note_on_c, 0, 67, 106
1, 150118, Note_off_c, 0, 67, 106
1, 150586, Note_on_c, 0, 56, 92
1, 151345, Note_off_c, 0, 56, 92
1, 151585, Note_on_c, 0, 53, 92
1, 152390, Note_off_c, 0, 53, 92
1, 153100, Note_on_c, 0, 62, 107
1, 153958, Note_off_c, 0, 62, 107
1, 154119, Note_on_c, 0, 63, 105
1, 154709, Note_off_c, 0, 63, 105
1, 154782, Note_on_c, 0, 62, 105
1, 155981, Note_off_c, 0, 62, 105
1, 156048, Note_on_c, 0, 60, 109
1, 157683, Note_off_c, 0, 60, 109
1, 157734, Note_on_c, 0, 58, 101
1, 160255, Note_off_c, 0, 58, 101
1, 160362, Note_on_c, 0, 55, 105
1, 162631, Note_off_c, 0, 55, 105
1, 162801, Note_on_c, 0, 56, 98
1, 164648, Note_off_c, 0, 56, 98
1, 164709, Note_on_c, 0, 60, 107
1, 165867, Note_off_c, 0, 60, 107
1, 165927, Note_on_c, 0, 63, 106
1, 166665, Note_off_c, 0, 63, 106
1, 166665, Note_on_c, 0, 66, 124
1, 167518, Note_off_c, 0, 66, 124
1, 167594, Note_on_c, 0, 67, 120
1, 169434, Note_off_c, 0, 67, 120
1, 169625, Note_on_c, 0, 65, 115
1, 170363, Note_off_c, 0, 65, 115
1, 170497, Note_on_c, 0, 66, 110
1, 175960, Note_off_c, 0, 66, 110
1, 176219, Note_on_c, 0, 62, 104
1, 178454, Note_off_c, 0, 62, 104
1, 178656, Note_on_c, 0, 60, 106
1, 180291, Note_off_c, 0, 60, 106
1, 180567, Note_on_c, 0, 58, 99
1, 182704, Note_off_c, 0, 58, 99
1, 183889, Note_on_c, 0, 69, 119
1, 184870, Note_on_c, 0, 70, 122
1, 184870, Note_off_c, 0, 69, 119
1, 187160, Note_off_c, 0, 70, 122
1, 187269, Note_on_c, 0, 71, 127
1, 187868, Note_off_c, 0, 71, 127
1, 187977, Note_on_c, 0, 70, 122
1, 188849, Note_off_c, 0, 70, 122
1, 188883, Note_on_c, 0, 67, 121
1, 190600, Note_off_c, 0, 67, 121
1, 190681, Note_on_c, 0, 65, 113
1, 193155, Note_off_c, 0, 65, 113
1, 193918, Note_on_c, 0, 58, 93
1, 195553, Note_off_c, 0, 58, 93
1, 195757, Note_on_c, 0, 60, 107
1, 198299, Note_off_c, 0, 60, 107
1, 198373, Note_on_c, 0, 61, 108
1, 199940, Note_off_c, 0, 61, 108
1, 200613, Note_on_c, 0, 63, 109
1, 201723, Note_off_c, 0, 63, 109
1, 201798, Note_on_c, 0, 65, 114
1, 205651, Note_off_c, 0, 65, 114
1, 208896, Note_on_c, 0, 69, 112
1, 210451, Note_off_c, 0, 69, 112
1, 210488, Note_on_c, 0, 71, 121
1, 211650, Note_off_c, 0, 71, 121
1, 211716, Note_on_c, 0, 72, 122
1, 215969, Note_off_c, 0, 72, 122
1, 216100, Note_on_c, 0, 71, 120
1, 217013, Note_off_c, 0, 71, 120
1, 217033, Note_on_c, 0, 70, 120
1, 218379, Note_off_c, 0, 70, 120
1, 218460, Note_on_c, 0, 69, 116
1, 220641, Note_off_c, 0, 69, 116
1, 220954, Note_on_c, 0, 65, 111
1, 222535, Note_off_c, 0, 65, 111
1, 222766, Note_on_c, 0, 61, 108
1, 224647, Note_off_c, 0, 61, 108
1, 224728, Note_on_c, 0, 60, 97
1, 225511, Note_off_c, 0, 60, 97
1, 226478, Note_on_c, 0, 55, 85
1, 227146, Note_off_c, 0, 55, 85
1, 227284, Note_on_c, 0, 60, 106
1, 228554, Note_off_c, 0, 60, 106
1, 228614, Note_on_c, 0, 61, 105
1, 229523, Note_off_c, 0, 61, 105
1, 229644, Note_on_c, 0, 60, 108
1, 230487, Note_off_c, 0, 60, 108
1, 230538, Note_on_c, 0, 58, 97
1, 231545, Note_off_c, 0, 58, 97
1, 231584, Note_on_c, 0, 60, 105
1, 234363, Note_off_c, 0, 60, 105
1, 234487, Note_on_c, 0, 61, 92
1, 240775, Note_off_c, 0, 61, 92
1, 258648, Note_on_c, 0, 53, 94
1, 259908, Note_off_c, 0, 53, 94
1, 259973, Note_on_c, 0, 55, 102
1, 260872, Note_off_c, 0, 55, 102
1, 260956, Note_on_c, 0, 57, 96
1, 261630, Note_off_c, 0, 57, 96
1, 261655, Note_on_c, 0, 55, 95
1, 262029, Note_off_c, 0, 55, 95
1, 262080, Note_on_c, 0, 58, 94
1, 262843, Note_off_c, 0, 58, 94
1, 262903, Note_on_c, 0, 60, 107
1, 263702, Note_off_c, 0, 60, 107
1, 264444, Note_on_c, 0, 57, 100
1, 265105, Note_off_c, 0, 57, 100
1, 265227, Note_on_c, 0, 58, 95
1, 266576, Note_off_c, 0, 58, 95
1, 266637, Note_on_c, 0, 60, 109
1, 267794, Note_off_c, 0, 60, 109
1, 267878, Note_on_c, 0, 61, 103
1, 268923, Note_off_c, 0, 61, 103
1, 269321, Note_on_c, 0, 62, 106
1, 270674, Note_off_c, 0, 62, 106
1, 270725, Note_on_c, 0, 63, 103
1, 271577, Note_off_c, 0, 63, 103
1, 271635, Note_on_c, 0, 61, 102
1, 272890, Note_off_c, 0, 61, 102
1, 272969, Note_on_c, 0, 62, 101
1, 274346, Note_off_c, 0, 62, 101
1, 274464, Note_on_c, 0, 65, 105
1, 275984, Note_off_c, 0, 65, 105
1, 276161, Note_on_c, 0, 67, 93
1, 276842, Note_off_c, 0, 67, 93
1, 276882, Note_on_c, 0, 69, 94
1, 277393, Note_off_c, 0, 69, 94
1, 277454, Note_on_c, 0, 72, 124
1, 278974, Note_off_c, 0, 72, 124
1, 278994, Note_on_c, 0, 70, 121
1, 280030, Note_off_c, 0, 70, 121
1, 280057, Note_on_c, 0, 69, 117
1, 280994, Note_off_c, 0, 69, 117
1, 281021, Note_on_c, 0, 67, 108
1, 282247, Note_off_c, 0, 67, 108
1, 282293, Note_on_c, 0, 66, 110
1, 283183, Note_off_c, 0, 66, 110
1, 283687, Note_on_c, 0, 67, 89
1, 284029, Note_off_c, 0, 67, 89
1, 284119, Note_on_c, 0, 70, 118
1, 285267, Note_off_c, 0, 70, 118
1, 285369, Note_on_c, 0, 67, 121
1, 286186, Note_off_c, 0, 67, 121
1, 286512, Note_on_c, 0, 63, 110
1, 287470, Note_off_c, 0, 63, 110
1, 287508, Note_on_c, 0, 60, 104
1, 288734, Note_off_c, 0, 60, 104
1, 288734, Note_on_c, 0, 61, 97
1, 289654, Note_off_c, 0, 61, 97
1, 289733, Note_on_c, 0, 64, 94
1, 290323, Note_off_c, 0, 64, 94
1, 290552, Note_on_c, 0, 69, 116
1, 291728, Note_off_c, 0, 69, 116
1, 291770, Note_on_c, 0, 67, 116
1, 292899, Note_off_c, 0, 67, 116
1, 292931, Note_on_c, 0, 65, 106
1, 293882, Note_off_c, 0, 65, 106
1, 293952, Note_on_c, 0, 62, 105
1, 294945, Note_off_c, 0, 62, 105
1, 295034, Note_on_c, 0, 63, 105
1, 295713, Note_off_c, 0, 63, 105
1, 295773, Note_on_c, 0, 65, 104
1, 296344, Note_off_c, 0, 65, 104
1, 296386, Note_on_c, 0, 63, 105
1, 297028, Note_off_c, 0, 63, 105
1, 297085, Note_on_c, 0, 62, 106
1, 298196, Note_off_c, 0, 62, 106
1, 298288, Note_on_c, 0, 63, 87
1, 299051, Note_off_c, 0, 63, 87
1, 299146, Note_on_c, 0, 65, 104
1, 300911, Note_off_c, 0, 65, 104
1, 307884, Note_on_c, 0, 62, 107
1, 309571, Note_off_c, 0, 62, 107
1, 309658, Note_on_c, 0, 63, 109
1, 311958, Note_off_c, 0, 63, 109
1, 312006, Note_on_c, 0, 65, 106
1, 313041, Note_off_c, 0, 65, 106
1, 313171, Note_on_c, 0, 63, 97
1, 314207, Note_off_c, 0, 63, 97
1, 314302, Note_on_c, 0, 62, 102
1, 316319, Note_off_c, 0, 62, 102
1, 316412, Note_on_c, 0, 60, 86
1, 321089, Note_off_c, 0, 60, 86
1, 321223, Note_on_c, 0, 62, 107
1, 322536, Note_off_c, 0, 62, 107
1, 322666, Note_on_c, 0, 65, 110
1, 325164, Note_off_c, 0, 65, 110
1, 325215, Note_on_c, 0, 67, 124
1, 326081, Note_off_c, 0, 67, 124
1, 326118, Note_on_c, 0, 68, 123
1, 327120, Note_off_c, 0, 68, 123
1, 327176, Note_on_c, 0, 67, 116
1, 328225, Note_off_c, 0, 67, 116
1, 328304, Note_on_c, 0, 68, 119
1, 329241, Note_off_c, 0, 68, 119
1, 329315, Note_on_c, 0, 67, 113
1, 330219, Note_off_c, 0, 67, 113
1, 330289, Note_on_c, 0, 62, 109
1, 331400, Note_off_c, 0, 62, 109
1, 331570, Note_on_c, 0, 64, 115
1, 332462, Note_off_c, 0, 64, 115
1, 332543, Note_on_c, 0, 65, 108
1, 334567, Note_off_c, 0, 65, 108
1, 334794, Note_on_c, 0, 63, 101
1, 343344, Note_off_c, 0, 63, 101
1, 343893, Note_on_c, 0, 67, 117
1, 345406, Note_off_c, 0, 67, 117
1, 345897, Note_on_c, 0, 62, 103
1, 347369, Note_off_c, 0, 62, 103
1, 347413, Note_on_c, 0, 63, 98
1, 348006, Note_off_c, 0, 63, 98
1, 348094, Note_on_c, 0, 62, 103
1, 348881, Note_off_c, 0, 62, 103
1, 348958, Note_on_c, 0, 60, 101
1, 350137, Note_off_c, 0, 60, 101
1, 350942, Note_on_c, 0, 55, 99
1, 352437, Note_off_c, 0, 55, 99
1, 353034, Note_on_c, 0, 51, 81
1, 353947, Note_off_c, 0, 51, 81
1, 354515, Note_on_c, 0, 59, 92
1, 362413, Note_off_c, 0, 59, 92
1, 378851, Note_on_c, 0, 60, 112
1, 380294, Note_off_c, 0, 60, 112
1, 380331, Note_on_c, 0, 63, 98
1, 381057, Note_off_c, 0, 63, 98
1, 381136, Note_on_c, 0, 67, 122
1, 382584, Note_off_c, 0, 67, 122
1, 382598, Note_on_c, 0, 70, 119
1, 383343, Note_off_c, 0, 70, 119
1, 383436, Note_on_c, 0, 73, 111
1, 383820, Note_off_c, 0, 73, 111
1, 383932, Note_on_c, 0, 74, 117
1, 386022, Note_off_c, 0, 74, 117
1, 386200, Note_on_c, 0, 72, 125
1, 387887, Note_off_c, 0, 72, 125
1, 388046, Note_on_c, 0, 70, 120
1, 390272, Note_off_c, 0, 70, 120
1, 390378, Note_on_c, 0, 67, 121
1, 391911, Note_off_c, 0, 67, 121
1, 392102, Note_on_c, 0, 63, 115
1, 394134, Note_off_c, 0, 63, 115
1, 394489, Note_on_c, 0, 60, 110
1, 396547, Note_off_c, 0, 60, 110
1, 396615, Note_on_c, 0, 62, 108
1, 398816, Note_off_c, 0, 62, 108
1, 398945, Note_on_c, 0, 60, 108
1, 400942, Note_off_c, 0, 60, 108
1, 402059, Note_on_c, 0, 65, 108
1, 403040, Note_off_c, 0, 65, 108
1, 403097, Note_on_c, 0, 67, 112
1, 403795, Note_off_c, 0, 67, 112
1, 403863, Note_on_c, 0, 65, 106
1, 404565, Note_off_c, 0, 65, 106
1, 404634, Note_on_c, 0, 61, 103
1, 405822, Note_off_c, 0, 61, 103
1, 406090, Note_on_c, 0, 57, 96
1, 408582, Note_off_c, 0, 57, 96
1, 409003, Note_on_c, 0, 53, 85
1, 409923, Note_off_c, 0, 53, 85
1, 410325, Note_on_c, 0, 58, 105
1, 413814, Note_off_c, 0, 58, 105
1, 413948, Note_on_c, 0, 53, 82
1, 414714, Note_off_c, 0, 53, 82
1, 415020, Note_on_c, 0, 58, 101
1, 417665, Note_off_c, 0, 58, 101
1, 417799, Note_on_c, 0, 60, 109
1, 419340, Note_off_c, 0, 60, 109
1, 419447, Note_on_c, 0, 61, 108
1, 420126, Note_off_c, 0, 61, 108
1, 420173, Note_on_c, 0, 62, 104
1, 423104, Note_off_c, 0, 62, 104
1, 423185, Note_on_c, 0, 60, 109
1, 425495, Note_off_c, 0, 60, 109
1, 427574, Note_on_c, 0, 58, 100
1, 428712, Note_off_c, 0, 58, 100
1, 428844, Note_on_c, 0, 62, 106
1, 430193, Note_off_c, 0, 62, 106
1, 430271, Note_on_c, 0, 63, 109
1, 435656, Note_off_c, 0, 63, 109
1, 436062, Note_on_c, 0, 67, 121
1, 437825, Note_off_c, 0, 67, 121
1, 438064, Note_on_c, 0, 65, 98
1, 442387, Note_off_c, 0, 65, 98
1, 442545, Note_on_c, 0, 62, 109
1, 445073, Note_off_c, 0, 62, 109
1, 445155, Note_on_c, 0, 65, 107
1, 445658, Note_off_c, 0, 65, 107
1, 445679, Note_on_c, 0, 67, 115
1, 446316, Note_off_c, 0, 67, 115
1, 446373, Note_on_c, 0, 69, 121
1, 447139, Note_off_c, 0, 69, 121
1, 447292, Note_on_c, 0, 70, 118
1, 450134, Note_off_c, 0, 70, 118
1, 452226, Note_on_c, 0, 62, 104
1, 454708, Note_off_c, 0, 62, 104
1, 454794, Note_on_c, 0, 60, 108
1, 457008, Note_off_c, 0, 60, 108
1, 457151, Note_on_c, 0, 59, 97
1, 459365, Note_off_c, 0, 59, 97
1, 459490, Note_on_c, 0, 68, 119
1, 461057, Note_off_c, 0, 68, 119
1, 461145, Note_on_c, 0, 67, 116
1, 462140, Note_off_c, 0, 67, 116
1, 462249, Note_on_c, 0, 68, 120
1, 463005, Note_off_c, 0, 68, 120
1, 463107, Note_on_c, 0, 67, 118
1, 464163, Note_off_c, 0, 67, 118
1, 464258, Note_on_c, 0, 65, 108
1, 465546, Note_off_c, 0, 65, 108
1, 465955, Note_on_c, 0, 63, 104
1, 468265, Note_off_c, 0, 63, 104
1, 468830, Note_on_c, 0, 58, 70
1, 470287, Note_off_c, 0, 58, 70
1, 470612, Note_on_c, 0, 61, 110
1, 471570, Note_off_c, 0, 61, 110
1, 471761, Note_on_c, 0, 62, 107
1, 473524, Note_off_c, 0, 62, 107
1, 473754, Note_on_c, 0, 60, 110
1, 474750, Note_off_c, 0, 60, 110
1, 474845, Note_on_c, 0, 61, 102
1, 477500, Note_off_c, 0, 61, 102
1, 485177, Note_on_c, 0, 70, 119
1, 488091, Note_off_c, 0, 70, 119
1, 489596, Note_on_c, 0, 65, 107
1, 492931, Note_off_c, 0, 65, 107
1, 493004, Note_on_c, 0, 67, 119
1, 493481, Note_off_c, 0, 67, 119
1, 493508, Note_on_c, 0, 69, 123
1, 494223, Note_off_c, 0, 69, 123
1, 494282, Note_on_c, 0, 70, 119
1, 497229, Note_off_c, 0, 70, 119
1, 497261, Note_on_c, 0, 71, 124
1, 497696, Note_off_c, 0, 71, 124
1, 497775, Note_on_c, 0, 72, 124
1, 498543, Note_off_c, 0, 72, 124
1, 498650, Note_on_c, 0, 73, 126
1, 499732, Note_off_c, 0, 73, 126
1, 499835, Note_on_c, 0, 74, 121
1, 501522, Note_off_c, 0, 74, 121
1, 501694, Note_on_c, 0, 70, 111
1, 506017, Note_off_c, 0, 70, 111
1, 527364, Note_on_c, 0, 72, 124
1, 529702, Note_off_c, 0, 72, 124
1, 529759, Note_on_c, 0, 70, 126
1, 531647, Note_off_c, 0, 70, 126
1, 531712, Note_on_c, 0, 69, 110
1, 532424, Note_off_c, 0, 69, 110
1, 532498, Note_on_c, 0, 70, 119
1, 533603, Note_off_c, 0, 70, 119
1, 533663, Note_on_c, 0, 69, 119
1, 534211, Note_off_c, 0, 69, 119
1, 534243, Note_on_c, 0, 67, 122
1, 535661, Note_off_c, 0, 67, 122
1, 535935, Note_on_c, 0, 66, 117
1, 537593, Note_off_c, 0, 66, 117
1, 538053, Note_on_c, 0, 57, 88
1, 538666, Note_off_c, 0, 57, 88
1, 538742, Note_on_c, 0, 60, 104
1, 540505, Note_off_c, 0, 60, 104
1, 540543, Note_on_c, 0, 63, 110
1, 545450, Note_off_c, 0, 63, 110
1, 545565, Note_on_c, 0, 62, 108
1, 548670, Note_off_c, 0, 62, 108
1, 548823, Note_on_c, 0, 56, 91
1, 557296, Note_off_c, 0, 56, 91
1, 558312, Note_on_c, 0, 50, 87
1, 559002, Note_off_c, 0, 50, 87
1, 559136, Note_on_c, 0, 55, 100
1, 562050, Note_off_c, 0, 55, 100
1, 562510, Note_on_c, 0, 57, 10
1, 563995, Note_off_c, 0, 57, 10
1, 564311, Note_on_c, 0, 58, 106
1, 566189, Note_off_c, 0, 58, 106
1, 566371, Note_on_c, 0, 60, 109
1, 568326, Note_off_c, 0, 60, 109
1, 568693, Note_on_c, 0, 62, 102
1, 573025, Note_off_c, 0, 62, 102
1, 585118, Note_on_c, 0, 66, 111
1, 586651, Note_off_c, 0, 66, 111
1, 586756, Note_on_c, 0, 67, 117
1, 591692, Note_off_c, 0, 67, 117
1, 591810, Note_on_c, 0, 65, 112
1, 593089, Note_off_c, 0, 65, 112
1, 593138, Note_on_c, 0, 67, 118
1, 593784, Note_off_c, 0, 67, 118
1, 593841, Note_on_c, 0, 65, 109
1, 594276, Note_off_c, 0, 65, 109
1, 594336, Note_on_c, 0, 63, 110
1, 596053, Note_off_c, 0, 63, 110
1, 596317, Note_on_c, 0, 62, 105
1, 598473, Note_off_c, 0, 62, 105
1, 598693, Note_on_c, 0, 60, 105
1, 600418, Note_off_c, 0, 60, 105
1, 600686, Note_on_c, 0, 58, 104
1, 603331, Note_off_c, 0, 58, 104
1, 603548, Note_on_c, 0, 55, 103
1, 605311, Note_off_c, 0, 55, 103
1, 605394, Note_on_c, 0, 56, 94
1, 606697, Note_off_c, 0, 56, 94
1, 606970, Note_on_c, 0, 60, 103
1, 608099, Note_off_c, 0, 60, 103
1, 608214, Note_on_c, 0, 63, 102
1, 609233, Note_off_c, 0, 63, 102
1, 609386, Note_on_c, 0, 67, 120
1, 612201, Note_off_c, 0, 67, 120
1, 612916, Note_on_c, 0, 69, 121
1, 613904, Note_off_c, 0, 69, 121
1, 613985, Note_on_c, 0, 70, 120
1, 617590, Note_off_c, 0, 70, 120
1, 617958, Note_on_c, 0, 66, 113
1, 620350, Note_off_c, 0, 66, 113
1, 620423, Note_on_c, 0, 67, 113
1, 620971, Note_off_c, 0, 67, 113
1, 621022, Note_on_c, 0, 66, 111
1, 622184, Note_off_c, 0, 66, 111
1, 622240, Note_on_c, 0, 62, 100
1, 624095, Note_off_c, 0, 62, 100
1, 624408, Note_on_c, 0, 60, 96
1, 628577, Note_off_c, 0, 60, 96
1, 628816, Note_on_c, 0, 58, 94
1, 631154, Note_off_c, 0, 58, 94
1, 631422, Note_on_c, 0, 60, 111
1, 633339, Note_off_c, 0, 60, 111
1, 633415, Note_on_c, 0, 61, 111
1, 636482, Note_off_c, 0, 61, 111
1, 641734, Note_on_c, 0, 58, 101
1, 642985, Note_off_c, 0, 58, 101
1, 643368, Note_on_c, 0, 64, 108
1, 644935, Note_off_c, 0, 64, 108
1, 645037, Note_on_c, 0, 65, 110
1, 646236, Note_off_c, 0, 65, 110
1, 646317, Note_on_c, 0, 64, 109
1, 647680, Note_off_c, 0, 64, 109
1, 647816, Note_on_c, 0, 61, 112
1, 649733, Note_off_c, 0, 61, 112
1, 649974, Note_on_c, 0, 58, 91
1, 650894, Note_off_c, 0, 58, 91
1, 650970, Note_on_c, 0, 61, 113
1, 652273, Note_off_c, 0, 61, 113
1, 652721, Note_on_c, 0, 63, 108
1, 654849, Note_off_c, 0, 63, 108
1, 655014, Note_on_c, 0, 65, 108
1, 657285, Note_off_c, 0, 65, 108
1, 657927, Note_on_c, 0, 70, 124
1, 660367, Note_off_c, 0, 70, 124
1, 662814, Note_on_c, 0, 58, 96
1, 667606, Note_off_c, 0, 58, 96
1, 672362, Note_on_c, 0, 61, 114
1, 674965, Note_off_c, 0, 61, 114
1, 676669, Note_on_c, 0, 58, 99
1, 679218, Note_off_c, 0, 58, 99
1, 679347, Note_on_c, 0, 61, 113
1, 681023, Note_off_c, 0, 61, 113
1, 681316, Note_on_c, 0, 64, 107
1, 682836, Note_off_c, 0, 64, 107
1, 682965, Note_on_c, 0, 65, 109
1, 683987, Note_off_c, 0, 65, 109
1, 684082, Note_on_c, 0, 64, 107
1, 685390, Note_off_c, 0, 64, 107
1, 685621, Note_on_c, 0, 61, 110
1, 687538, Note_off_c, 0, 61, 110
1, 687700, Note_on_c, 0, 58, 94
1, 688658, Note_off_c, 0, 58, 94
1, 688734, Note_on_c, 0, 61, 113
1, 689874, Note_off_c, 0, 61, 113
1, 690046, Note_on_c, 0, 64, 85
1, 690745, Note_off_c, 0, 64, 85
1, 695350, Note_on_c, 0, 61, 112
1, 697367, Note_off_c, 0, 61, 112
1, 697469, Note_on_c, 0, 64, 89
1, 698137, Note_off_c, 0, 64, 89
1, 698177, Note_on_c, 0, 67, 120
1, 699601, Note_off_c, 0, 67, 120
1, 699716, Note_on_c, 0, 68, 119
1, 700513, Note_off_c, 0, 68, 119
1, 700594, Note_on_c, 0, 69, 116
1, 704752, Note_off_c, 0, 69, 116
1, 704800, Note_on_c, 0, 67, 111
1, 707157, Note_off_c, 0, 67, 111
1, 707542, Note_on_c, 0, 65, 101
1, 714002, Note_off_c, 0, 65, 101
1, 724040, Note_on_c, 0, 62, 106
1, 725277, Note_off_c, 0, 62, 106
1, 725370, Note_on_c, 0, 65, 98
1, 726129, Note_off_c, 0, 65, 98
1, 726255, Note_on_c, 0, 67, 89
1, 727435, Note_off_c, 0, 67, 89
1, 727519, Note_on_c, 0, 69, 94
1, 728207, Note_off_c, 0, 69, 94
1, 728319, Note_on_c, 0, 72, 107
1, 732575, Note_off_c, 0, 72, 107
1, 732700, Note_on_c, 0, 69, 114
1, 734329, Note_off_c, 0, 69, 114
1, 734410, Note_on_c, 0, 65, 109
1, 735875, Note_off_c, 0, 65, 109
1, 735970, Note_on_c, 0, 62, 106
1, 737496, Note_off_c, 0, 62, 106
1, 737556, Note_on_c, 0, 67, 103
1, 741658, Note_off_c, 0, 67, 103
1, 752585, Note_on_c, 0, 62, 107
1, 755230, Note_off_c, 0, 62, 107
1, 755298, Note_on_c, 0, 63, 109
1, 757254, Note_off_c, 0, 63, 109
1, 757338, Note_on_c, 0, 65, 108
1, 759753, Note_off_c, 0, 65, 108
1, 759788, Note_on_c, 0, 67, 121
1, 761805, Note_off_c, 0, 67, 121
1, 761873, Note_on_c, 0, 68, 123
1, 764040, Note_off_c, 0, 68, 123
1, 764108, Note_on_c, 0, 70, 121
1, 767079, Note_off_c, 0, 70, 121
1, 767188, Note_on_c, 0, 71, 124
1, 771059, Note_off_c, 0, 71, 124
1, 771098, Note_on_c, 0, 74, 111
1, 773398, Note_off_c, 0, 74, 111
1, 773637, Note_on_c, 0, 67, 109
1, 778506, Note_off_c, 0, 67, 109
1, 778582, Note_on_c, 0, 65, 108
1, 781213, Note_off_c, 0, 65, 108
1, 781317, Note_on_c, 0, 67, 108
1, 781954, Note_off_c, 0, 67, 108
1, 782033, Note_on_c, 0, 65, 107
1, 783040, Note_off_c, 0, 65, 107
1, 783153, Note_on_c, 0, 62, 105
1, 784904, Note_off_c, 0, 62, 105
1, 785312, Note_on_c, 0, 63, 109
1, 787179, Note_off_c, 0, 63, 109
1, 787807, Note_on_c, 0, 55, 101
1, 789455, Note_off_c, 0, 55, 101
1, 789531, Note_on_c, 0, 60, 106
1, 791984, Note_off_c, 0, 60, 106
1, 792158, Note_on_c, 0, 63, 112
1, 793650, Note_off_c, 0, 63, 112
1, 793752, Note_on_c, 0, 62, 104
1, 794740, Note_off_c, 0, 62, 104
1, 794808, Note_on_c, 0, 63, 103
1, 795510, Note_off_c, 0, 63, 103
1, 795547, Note_on_c, 0, 62, 104
1, 797004, Note_off_c, 0, 62, 104
1, 797070, Note_on_c, 0, 60, 107
1, 799285, Note_off_c, 0, 60, 107
1, 799441, Note_on_c, 0, 59, 93
1, 800954, Note_off_c, 0, 59, 93
1, 801423, Note_on_c, 0, 62, 110
1, 802827, Note_off_c, 0, 62, 110
1, 802895, Note_on_c, 0, 60, 105
1, 805914, Note_off_c, 0, 60, 105
1, 806043, Note_on_c, 0, 58, 105
1, 807869, Note_off_c, 0, 58, 105
1, 807930, Note_on_c, 0, 57, 97
1, 809852, Note_off_c, 0, 57, 97
1, 809988, Note_on_c, 0, 60, 108
1, 811483, Note_off_c, 0, 60, 108
1, 811569, Note_on_c, 0, 63, 105
1, 812604, Note_off_c, 0, 63, 105
1, 812985, Note_on_c, 0, 66, 99
1, 814250, Note_off_c, 0, 66, 99
1, 814441, Note_on_c, 0, 67, 111
1, 818121, Note_off_c, 0, 67, 111
1, 818312, Note_on_c, 0, 62, 103
1, 821724, Note_off_c, 0, 62, 103
1, 833193, Note_on_c, 0, 57, 103
1, 833963, Note_off_c, 0, 57, 103
1, 834003, Note_on_c, 0, 58, 105
1, 834882, Note_off_c, 0, 58, 105
1, 834936, Note_on_c, 0, 59, 101
1, 835733, Note_off_c, 0, 59, 101
1, 835876, Note_on_c, 0, 60, 108
1, 836373, Note_off_c, 0, 60, 108
1, 836454, Note_on_c, 0, 61, 115
1, 837074, Note_off_c, 0, 61, 115
1, 837203, Note_on_c, 0, 62, 106
1, 837864, Note_off_c, 0, 62, 106
1, 837956, Note_on_c, 0, 63, 107
1, 838377, Note_off_c, 0, 63, 107
1, 838428, Note_on_c, 0, 65, 104
1, 838699, Note_off_c, 0, 65, 104
1, 838722, Note_on_c, 0, 67, 114
1, 839335, Note_off_c, 0, 67, 114
1, 839395, Note_on_c, 0, 69, 120
1, 839896, Note_off_c, 0, 69, 120
1, 839947, Note_on_c, 0, 71, 119
1, 840246, Note_off_c, 0, 71, 119
1, 840269, Note_on_c, 0, 72, 122
1, 840836, Note_off_c, 0, 72, 122
1, 840878, Note_on_c, 0, 73, 120
1, 841749, Note_off_c, 0, 73, 120
1, 841811, Note_on_c, 0, 74, 118
1, 843996, Note_off_c, 0, 74, 118
1, 844487, Note_on_c, 0, 69, 123
1, 846177, Note_off_c, 0, 69, 123
1, 846272, Note_on_c, 0, 67, 120
1, 848705, Note_off_c, 0, 67, 120
1, 848779, Note_on_c, 0, 65, 97
1, 857231, Note_off_c, 0, 65, 97
1, 857298, Note_on_c, 0, 67, 115
1, 858258, Note_off_c, 0, 67, 115
1, 858292, Note_on_c, 0, 69, 122
1, 859300, Note_off_c, 0, 69, 122
1, 859627, Note_on_c, 0, 70, 120
1, 862353, Note_off_c, 0, 70, 120
1, 869497, Note_on_c, 0, 68, 122
1, 871310, Note_off_c, 0, 68, 122
1, 871389, Note_on_c, 0, 70, 120
1, 872471, Note_off_c, 0, 70, 120
1, 872522, Note_on_c, 0, 68, 122
1, 873585, Note_off_c, 0, 68, 122
1, 873702, Note_on_c, 0, 67, 120
1, 875450, Note_off_c, 0, 67, 120
1, 875562, Note_on_c, 0, 65, 112
1, 877319, Note_off_c, 0, 65, 112
1, 877548, Note_on_c, 0, 63, 109
1, 879113, Note_off_c, 0, 63, 109
1, 879464, Note_on_c, 0, 61, 108
1, 880312, Note_off_c, 0, 61, 108
1, 880415, Note_on_c, 0, 62, 110
1, 882408, Note_off_c, 0, 62, 110
1, 882856, Note_on_c, 0, 58, 101
1, 884466, Note_off_c, 0, 58, 101
1, 884777, Note_on_c, 0, 53, 101
1, 886732, Note_off_c, 0, 53, 101
1, 887066, Note_on_c, 0, 51, 90
1, 893776, Note_off_c, 0, 51, 90
1, 894006, Note_on_c, 0, 53, 106
1, 896574, Note_off_c, 0, 53, 106
1, 896842, Note_on_c, 0, 49, 92
1, 898490, Note_off_c, 0, 49, 92
1, 898566, Note_on_c, 0, 50, 93
1, 907499, Note_off_c, 0, 50, 93
1, 907736, Note_on_c, 0, 53, 95
1, 913598, Note_off_c, 0, 53, 95
1, 913824, Note_on_c, 0, 58, 92
1, 928854, Note_off_c, 0, 58, 92
1, 928854, End_track
0, 0, End_of_file
