0, 0, Header, 1, 1, 192
1, 0, Start_track
1, 0, Title_t, "Melody"
1, 0, Tempo, 342857
1, 0, Key_signature, -1, "major"
1, 0, Time_signature, 4, 2, 24, 8
1, 3831, Note_on_c, 0, 72, 126
1, 3896, Note_off_c, 0, 72, 126
1, 3957, Note_on_c, 0, 76, 120
1, 3981, Note_off_c, 0, 76, 120
1, 3984, Note_on_c, 0, 77, 125
1, 4115, Note_off_c, 0, 77, 125
1, 4120, Note_on_c, 0, 76, 117
1, 4154, Note_off_c, 0, 76, 117
1, 4158, Note_on_c, 0, 77, 117
1, 4255, Note_off_c, 0, 77, 117
1, 4262, Note_on_c, 0, 73, 107
1, 4298, Note_off_c, 0, 73, 107
1, 4301, Note_on_c, 0, 70, 107
1, 4335, Note_off_c, 0, 70, 107
1, 4336, Note_on_c, 0, 67, 109
1, 4379, Note_off_c, 0, 67, 109
1, 4382, Note_on_c, 0, 68, 109
1, 4449, Note_off_c, 0, 68, 109
1, 4454, Note_on_c, 0, 65, 106
1, 4538, Note_off_c, 0, 65, 106
1, 4783, Note_on_c, 0, 76, 125
1, 4826, Note_off_c, 0, 76, 125
1, 4829, Note_on_c, 0, 77, 122
1, 4911, Note_off_c, 0, 77, 122
1, 4912, Note_on_c, 0, 73, 109
1, 4939, Note_off_c, 0, 73, 109
1, 4940, Note_on_c, 0, 71, 118
1, 4974, Note_off_c, 0, 71, 118
1, 4977, Note_on_c, 0, 68, 114
1, 5023, Note_off_c, 0, 68, 114
1, 5028, Note_on_c, 0, 65, 98
1, 5089, Note_off_c, 0, 65, 98
1, 5096, Note_on_c, 0, 67, 96
1, 5332, Note_off_c, 0, 67, 96
1, 5584, Note_on_c, 0, 64, 108
1, 5639, Note_off_c, 0, 64, 108
1, 5643, Note_on_c, 0, 65, 111
1, 5722, Note_off_c, 0, 65, 111
1, 5726, Note_on_c, 0, 69, 116
1, 5778, Note_off_c, 0, 69, 116
1, 5779, Note_on_c, 0, 72, 118
1, 5839, Note_off_c, 0, 72, 118
1, 5844, Note_on_c, 0, 76, 122
1, 5928, Note_off_c, 0, 76, 122
1, 5934, Note_on_c, 0, 75, 119
1, 6020, Note_off_c, 0, 75, 119
1, 6029, Note_on_c, 0, 74, 117
1, 6113, Note_off_c, 0, 74, 117
1, 6124, Note_on_c, 0, 73, 114
1, 6180, Note_off_c, 0, 73, 114
1, 6185, Note_on_c, 0, 72, 116
1, 6228, Note_off_c, 0, 72, 116
1, 6230, Note_on_c, 0, 73, 111
1, 6255, Note_off_c, 0, 73, 111
1, 6259, Note_on_c, 0, 72, 114
1, 6309, Note_off_c, 0, 72, 114
1, 6315, Note_on_c, 0, 71, 110
1, 6383, Note_off_c, 0, 71, 110
1, 6390, Note_on_c, 0, 70, 108
1, 6479, Note_off_c, 0, 70, 108
1, 6484, Note_on_c, 0, 69, 119
1, 6558, Note_off_c, 0, 69, 119
1, 6564, Note_on_c, 0, 67, 107
1, 6664, Note_off_c, 0, 67, 107
1, 6681, Note_on_c, 0, 65, 109
1, 6752, Note_off_c, 0, 65, 109
1, 6759, Note_on_c, 0, 63, 106
1, 6782, Note_off_c, 0, 63, 106
1, 6790, Note_on_c, 0, 64, 112
1, 6871, Note_off_c, 0, 64, 112
1, 6888, Note_on_c, 0, 62, 92
1, 6936, Note_off_c, 0, 62, 92
1, 6940, Note_on_c, 0, 63, 109
1, 7016, Note_off_c, 0, 63, 109
1, 7018, Note_on_c, 0, 67, 107
1, 7067, Note_off_c, 0, 67, 107
1, 7071, Note_on_c, 0, 70, 108
1, 7133, Note_off_c, 0, 70, 108
1, 7140, Note_on_c, 0, 73, 121
1, 7171, Note_off_c, 0, 73, 121
1, 7172, Note_on_c, 0, 74, 120
1, 7253, Note_off_c, 0, 74, 120
1, 7262, Note_on_c, 0, 70, 91
1, 7305, Note_off_c, 0, 70, 91
1, 7323, Note_on_c, 0, 72, 117
1, 7380, Note_off_c, 0, 72, 117
1, 7383, Note_on_c, 0, 73, 106
1, 7421, Note_off_c, 0, 73, 106
1, 7427, Note_on_c, 0, 71, 113
1, 7461, Note_off_c, 0, 71, 113
1, 7464, Note_on_c, 0, 69, 115
1, 7483, Note_off_c, 0, 69, 115
1, 7487, Note_on_c, 0, 67, 108
1, 7505, Note_off_c, 0, 67, 108
1, 7507, Note_on_c, 0, 65, 110
1, 7563, Note_off_c, 0, 65, 110
1, 7565, Note_on_c, 0, 63, 108
1, 7665, Note_off_c, 0, 63, 108
1, 7687, Note_on_c, 0, 58, 95
1, 7740, Note_off_c, 0, 58, 95
1, 7768, Note_on_c, 0, 61, 102
1, 7800, Note_off_c, 0, 61, 102
1, 7802, Note_on_c, 0, 62, 107
1, 7891, Note_off_c, 0, 62, 107
1, 7901, Note_on_c, 0, 65, 105
1, 7971, Note_off_c, 0, 65, 105
1, 8511, Note_on_c, 0, 60, 108
1, 8608, Note_off_c, 0, 60, 108
1, 8620, Note_on_c, 0, 61, 101
1, 8655, Note_off_c, 0, 61, 101
1, 8657, Note_on_c, 0, 60, 103
1, 8696, Note_off_c, 0, 60, 103
1, 8716, Note_on_c, 0, 57, 96
1, 8807, Note_off_c, 0, 57, 96
1, 8813, Note_on_c, 0, 60, 100
1, 8876, Note_off_c, 0, 60, 100
1, 8884, Note_on_c, 0, 62, 114
1, 8919, Note_off_c, 0, 62, 114
1, 8923, Note_on_c, 0, 64, 113
1, 9036, Note_off_c, 0, 64, 113
1, 9047, Note_on_c, 0, 62, 92
1, 9420, Note_off_c, 0, 62, 92
1, 9866, Note_on_c, 0, 60, 107
1, 9970, Note_off_c, 0, 60, 107
1, 9978, Note_on_c, 0, 58, 101
1, 10039, Note_off_c, 0, 58, 101
1, 10047, Note_on_c, 0, 57, 100
1, 10167, Note_off_c, 0, 57, 100
1, 10191, Note_on_c, 0, 60, 77
1, 10239, Note_off_c, 0, 60, 77
1, 10247, Note_on_c, 0, 65, 110
1, 10355, Note_off_c, 0, 65, 110
1, 10356, Note_on_c, 0, 69, 119
1, 10445, Note_off_c, 0, 69, 119
1, 10449, Note_on_c, 0, 67, 109
1, 10548, Note_off_c, 0, 67, 109
1, 10557, Note_on_c, 0, 65, 107
1, 10631, Note_off_c, 0, 65, 107
1, 10634, Note_on_c, 0, 64, 106
1, 10695, Note_off_c, 0, 64, 106
1, 10703, Note_on_c, 0, 74, 104
1, 10765, Note_off_c, 0, 74, 104
1, 10772, Note_on_c, 0, 70, 98
1, 10819, Note_off_c, 0, 70, 98
1, 10834, Note_on_c, 0, 74, 121
1, 10940, Note_off_c, 0, 74, 121
1, 10949, Note_on_c, 0, 73, 116
1, 11020, Note_off_c, 0, 73, 116
1, 11024, Note_on_c, 0, 72, 114
1, 11128, Note_off_c, 0, 72, 114
1, 11195, Note_on_c, 0, 70, 114
1, 11297, Note_off_c, 0, 70, 114
1, 11301, Note_on_c, 0, 72, 107
1, 11335, Note_on_c, 0, 70, 107
1, 11335, Note_off_c, 0, 72, 107
1, 11391, Note_off_c, 0, 70, 107
1, 11395, Note_on_c, 0, 69, 113
1, 11490, Note_off_c, 0, 69, 113
1, 11511, Note_on_c, 0, 70, 83
1, 11564, Note_off_c, 0, 70, 83
1, 11572, Note_on_c, 0, 72, 117
1, 11682, Note_off_c, 0, 72, 117
1, 11693, Note_on_c, 0, 75, 125
1, 11733, Note_off_c, 0, 75, 125
1, 11733, Note_on_c, 0, 77, 118
1, 11770, Note_off_c, 0, 77, 118
1, 11770, Note_on_c, 0, 79, 125
1, 11891, Note_off_c, 0, 79, 125
1, 11896, Note_on_c, 0, 77, 85
1, 11931, Note_off_c, 0, 77, 85
1, 12029, Note_on_c, 0, 78, 119
1, 12111, Note_off_c, 0, 78, 119
1, 12115, Note_on_c, 0, 77, 113
1, 12141, Note_off_c, 0, 77, 113
1, 12144, Note_on_c, 0, 75, 119
1, 12225, Note_off_c, 0, 75, 119
1, 12314, Note_on_c, 0, 77, 121
1, 12438, Note_off_c, 0, 77, 121
1, 12444, Note_on_c, 0, 78, 111
1, 12493, Note_off_c, 0, 78, 111
1, 12504, Note_on_c, 0, 77, 116
1, 12547, Note_off_c, 0, 77, 116
1, 12557, Note_on_c, 0, 74, 113
1, 12602, Note_off_c, 0, 74, 113
1, 12603, Note_on_c, 0, 70, 101
1, 12655, Note_off_c, 0, 70, 101
1, 12656, Note_on_c, 0, 67, 103
1, 12727, Note_off_c, 0, 67, 103
1, 12734, Note_on_c, 0, 75, 122
1, 12782, Note_off_c, 0, 75, 122
1, 12787, Note_on_c, 0, 76, 121
1, 12835, Note_off_c, 0, 76, 121
1, 12843, Note_on_c, 0, 75, 115
1, 12916, Note_off_c, 0, 75, 115
1, 12924, Note_on_c, 0, 74, 113
1, 13028, Note_off_c, 0, 74, 113
1, 13032, Note_on_c, 0, 73, 113
1, 13087, Note_off_c, 0, 73, 113
1, 13091, Note_on_c, 0, 72, 109
1, 13125, Note_off_c, 0, 72, 109
1, 13128, Note_on_c, 0, 73, 110
1, 13162, Note_off_c, 0, 73, 110
1, 13166, Note_on_c, 0, 72, 111
1, 13211, Note_off_c, 0, 72, 111
1, 13221, Note_on_c, 0, 70, 110
1, 13290, Note_off_c, 0, 70, 110
1, 13294, Note_on_c, 0, 69, 110
1, 13409, Note_off_c, 0, 69, 110
1, 13412, Note_on_c, 0, 67, 112
1, 13480, Note_off_c, 0, 67, 112
1, 13497, Note_on_c, 0, 65, 100
1, 13579, Note_off_c, 0, 65, 100
1, 13800, Note_on_c, 0, 63, 112
1, 13874, Note_off_c, 0, 63, 112
1, 13878, Note_on_c, 0, 62, 109
1, 13988, Note_off_c, 0, 62, 109
1, 14015, Note_on_c, 0, 65, 97
1, 14056, Note_off_c, 0, 65, 97
1, 14067, Note_on_c, 0, 67, 115
1, 14192, Note_off_c, 0, 67, 115
1, 14201, Note_on_c, 0, 68, 116
1, 14443, Note_off_c, 0, 68, 116
1, 14452, Note_on_c, 0, 65, 104
1, 14541, Note_off_c, 0, 65, 104
1, 14554, Note_on_c, 0, 62, 100
1, 14628, Note_off_c, 0, 62, 100
1, 14657, Note_on_c, 0, 67, 117
1, 14698, Note_off_c, 0, 67, 117
1, 14703, Note_on_c, 0, 68, 119
1, 14740, Note_off_c, 0, 68, 119
1, 14744, Note_on_c, 0, 69, 118
1, 14804, Note_off_c, 0, 69, 118
1, 14808, Note_on_c, 0, 72, 117
1, 14858, Note_off_c, 0, 72, 117
1, 14866, Note_on_c, 0, 67, 95
1, 15161, Note_off_c, 0, 67, 95
1, 16178, Note_on_c, 0, 65, 116
1, 16301, Note_off_c, 0, 65, 116
1, 16305, Note_on_c, 0, 64, 114
1, 16355, Note_off_c, 0, 64, 114
1, 16356, Note_on_c, 0, 63, 104
1, 16409, Note_off_c, 0, 63, 104
1, 16417, Note_on_c, 0, 67, 109
1, 16467, Note_off_c, 0, 67, 109
1, 16474, Note_on_c, 0, 70, 111
1, 16529, Note_off_c, 0, 70, 111
1, 16529, Note_on_c, 0, 74, 119
1, 16649, Note_off_c, 0, 74, 119
1, 16649, Note_on_c, 0, 78, 117
1, 16675, Note_off_c, 0, 78, 117
1, 16678, Note_on_c, 0, 77, 121
1, 16738, Note_off_c, 0, 77, 121
1, 16739, Note_on_c, 0, 73, 124
1, 16797, Note_off_c, 0, 73, 124
1, 16801, Note_on_c, 0, 74, 110
1, 16857, Note_off_c, 0, 74, 110
1, 16858, Note_on_c, 0, 69, 84
1, 16918, Note_off_c, 0, 69, 84
1, 16919, Note_on_c, 0, 72, 120
1, 17008, Note_off_c, 0, 72, 120
1, 17011, Note_on_c, 0, 74, 104
1, 17040, Note_off_c, 0, 74, 104
1, 17040, Note_on_c, 0, 72, 117
1, 17072, Note_off_c, 0, 72, 117
1, 17072, Note_on_c, 0, 70, 110
1, 17114, Note_off_c, 0, 70, 110
1, 17122, Note_on_c, 0, 69, 120
1, 17239, Note_off_c, 0, 69, 120
1, 17621, Note_on_c, 0, 67, 115
1, 17682, Note_off_c, 0, 67, 115
1, 17685, Note_on_c, 0, 65, 107
1, 17802, Note_off_c, 0, 65, 107
1, 17814, Note_on_c, 0, 63, 111
1, 17912, Note_off_c, 0, 63, 111
1, 17918, Note_on_c, 0, 62, 107
1, 17998, Note_off_c, 0, 62, 107
1, 18039, Note_on_c, 0, 53, 87
1, 18079, Note_off_c, 0, 53, 87
1, 18088, Note_on_c, 0, 55, 89
1, 18193, Note_off_c, 0, 55, 89
1, 18204, Note_on_c, 0, 57, 91
1, 18246, Note_off_c, 0, 57, 91
1, 18255, Note_on_c, 0, 60, 101
1, 18389, Note_off_c, 0, 60, 101
1, 18402, Note_on_c, 0, 58, 82
1, 18643, Note_off_c, 0, 58, 82
1, 19364, Note_on_c, 0, 58, 104
1, 19411, Note_off_c, 0, 58, 104
1, 19421, Note_on_c, 0, 59, 100
1, 19482, Note_off_c, 0, 59, 100
1, 19492, Note_on_c, 0, 62, 100
1, 19552, Note_off_c, 0, 62, 100
1, 19554, Note_on_c, 0, 71, 103
1, 19615, Note_off_c, 0, 71, 103
1, 19626, Note_on_c, 0, 69, 119
1, 19735, Note_off_c, 0, 69, 119
1, 19773, Note_on_c, 0, 64, 101
1, 19803, Note_off_c, 0, 64, 101
1, 19813, Note_on_c, 0, 65, 104
1, 19892, Note_off_c, 0, 65, 104
1, 19897, Note_on_c, 0, 69, 117
1, 19958, Note_off_c, 0, 69, 117
1, 19959, Note_on_c, 0, 72, 121
1, 20009, Note_off_c, 0, 72, 121
1, 20011, Note_on_c, 0, 76, 126
1, 20089, Note_off_c, 0, 76, 126
1, 20092, Note_on_c, 0, 75, 122
1, 20145, Note_off_c, 0, 75, 122
1, 20165, Note_on_c, 0, 74, 123
1, 20232, Note_off_c, 0, 74, 123
1, 20235, Note_on_c, 0, 73, 116
1, 20315, Note_off_c, 0, 73, 116
1, 20319, Note_on_c, 0, 69, 116
1, 20396, Note_off_c, 0, 69, 116
1, 20403, Note_on_c, 0, 65, 104
1, 20495, Note_off_c, 0, 65, 104
1, 20500, Note_on_c, 0, 61, 87
1, 20740, Note_off_c, 0, 61, 87
1, 20960, Note_on_c, 0, 67, 110
1, 21011, Note_off_c, 0, 67, 110
1, 21013, Note_on_c, 0, 70, 93
1, 21041, Note_off_c, 0, 70, 93
1, 21044, Note_on_c, 0, 74, 113
1, 21087, Note_off_c, 0, 74, 113
1, 21090, Note_on_c, 0, 78, 119
1, 21110, Note_off_c, 0, 78, 119
1, 21112, Note_on_c, 0, 77, 124
1, 21150, Note_off_c, 0, 77, 124
1, 21154, Note_on_c, 0, 76, 116
1, 21195, Note_off_c, 0, 76, 116
1, 21198, Note_on_c, 0, 72, 112
1, 21247, Note_off_c, 0, 72, 112
1, 21251, Note_on_c, 0, 73, 110
1, 21285, Note_off_c, 0, 73, 110
1, 21293, Note_on_c, 0, 74, 120
1, 21347, Note_off_c, 0, 74, 120
1, 21348, Note_on_c, 0, 70, 104
1, 21383, Note_off_c, 0, 70, 104
1, 21385, Note_on_c, 0, 69, 87
1, 21416, Note_off_c, 0, 69, 87
1, 21422, Note_on_c, 0, 72, 116
1, 21474, Note_off_c, 0, 72, 116
1, 21483, Note_on_c, 0, 69, 89
1, 21522, Note_off_c, 0, 69, 89
1, 21525, Note_on_c, 0, 70, 115
1, 21575, Note_off_c, 0, 70, 115
1, 21580, Note_on_c, 0, 69, 113
1, 21631, Note_off_c, 0, 69, 113
1, 21632, Note_on_c, 0, 67, 108
1, 21667, Note_off_c, 0, 67, 108
1, 21730, Note_on_c, 0, 66, 110
1, 21775, Note_off_c, 0, 66, 110
1, 21779, Note_on_c, 0, 69, 112
1, 21843, Note_off_c, 0, 69, 112
1, 21845, Note_on_c, 0, 67, 107
1, 21881, Note_off_c, 0, 67, 107
1, 21884, Note_on_c, 0, 65, 102
1, 21926, Note_off_c, 0, 65, 102
1, 21928, Note_on_c, 0, 64, 106
1, 21960, Note_off_c, 0, 64, 106
1, 21983, Note_on_c, 0, 60, 87
1, 22048, Note_off_c, 0, 60, 87
1, 22053, Note_on_c, 0, 62, 104
1, 22102, Note_off_c, 0, 62, 104
1, 22132, Note_on_c, 0, 58, 94
1, 22194, Note_off_c, 0, 58, 94
1, 22202, Note_on_c, 0, 60, 98
1, 22237, Note_off_c, 0, 60, 98
1, 22239, Note_on_c, 0, 58, 96
1, 22267, Note_off_c, 0, 58, 96
1, 22277, Note_on_c, 0, 57, 99
1, 22327, Note_off_c, 0, 57, 99
1, 22334, Note_on_c, 0, 60, 92
1, 22388, Note_off_c, 0, 60, 92
1, 22395, Note_on_c, 0, 62, 100
1, 22455, Note_off_c, 0, 62, 100
1, 22461, Note_on_c, 0, 64, 108
1, 22485, Note_off_c, 0, 64, 108
1, 22488, Note_on_c, 0, 67, 101
1, 22708, Note_off_c, 0, 67, 101
1, 22852, Note_on_c, 0, 64, 108
1, 22912, Note_off_c, 0, 64, 108
1, 22917, Note_on_c, 0, 65, 111
1, 22995, Note_off_c, 0, 65, 111
1, 22997, Note_on_c, 0, 69, 116
1, 23040, Note_off_c, 0, 69, 116
1, 23042, Note_on_c, 0, 72, 120
1, 23096, Note_off_c, 0, 72, 120
1, 23106, Note_on_c, 0, 75, 118
1, 23135, Note_off_c, 0, 75, 118
1, 23139, Note_on_c, 0, 76, 122
1, 23240, Note_off_c, 0, 76, 122
1, 23244, Note_on_c, 0, 74, 109
1, 23473, Note_off_c, 0, 74, 109
1, 23824, Note_on_c, 0, 72, 127
1, 23922, Note_off_c, 0, 72, 127
1, 23927, Note_on_c, 0, 73, 118
1, 23966, Note_off_c, 0, 73, 118
1, 23973, Note_on_c, 0, 72, 117
1, 24014, Note_off_c, 0, 72, 117
1, 24020, Note_on_c, 0, 70, 106
1, 24080, Note_off_c, 0, 70, 106
1, 24088, Note_on_c, 0, 69, 121
1, 24188, Note_off_c, 0, 69, 121
1, 24194, Note_on_c, 0, 67, 110
1, 24261, Note_off_c, 0, 67, 110
1, 24271, Note_on_c, 0, 66, 109
1, 24376, Note_off_c, 0, 66, 109
1, 24380, Note_on_c, 0, 63, 106
1, 24433, Note_off_c, 0, 63, 106
1, 24469, Note_on_c, 0, 60, 89
1, 24562, Note_off_c, 0, 60, 89
1, 24570, Note_on_c, 0, 61, 104
1, 24625, Note_off_c, 0, 61, 104
1, 24626, Note_on_c, 0, 62, 104
1, 24751, Note_off_c, 0, 62, 104
1, 24757, Note_on_c, 0, 67, 108
1, 24825, Note_off_c, 0, 67, 108
1, 24834, Note_on_c, 0, 70, 108
1, 24923, Note_off_c, 0, 70, 108
1, 24936, Note_on_c, 0, 74, 115
1, 25001, Note_off_c, 0, 74, 115
1, 25004, Note_on_c, 0, 69, 115
1, 25124, Note_off_c, 0, 69, 115
1, 25135, Note_on_c, 0, 67, 93
1, 25373, Note_off_c, 0, 67, 93
1, 25540, Note_on_c, 0, 62, 108
1, 25606, Note_off_c, 0, 62, 108
1, 25614, Note_on_c, 0, 63, 95
1, 25667, Note_off_c, 0, 63, 95
1, 25670, Note_on_c, 0, 67, 102
1, 25723, Note_off_c, 0, 67, 102
1, 25731, Note_on_c, 0, 69, 111
1, 25783, Note_off_c, 0, 69, 111
1, 25808, Note_on_c, 0, 74, 118
1, 25916, Note_off_c, 0, 74, 118
1, 25921, Note_on_c, 0, 73, 109
1, 26008, Note_off_c, 0, 73, 109
1, 26014, Note_on_c, 0, 72, 110
1, 26106, Note_off_c, 0, 72, 110
1, 26110, Note_on_c, 0, 71, 109
1, 26166, Note_off_c, 0, 71, 109
1, 26173, Note_on_c, 0, 70, 106
1, 26278, Note_off_c, 0, 70, 106
1, 26332, Note_on_c, 0, 62, 94
1, 26366, Note_off_c, 0, 62, 94
1, 26374, Note_on_c, 0, 65, 105
1, 26450, Note_off_c, 0, 65, 105
1, 26480, Note_on_c, 0, 69, 117
1, 26549, Note_off_c, 0, 69, 117
1, 26557, Note_on_c, 0, 67, 108
1, 26595, Note_off_c, 0, 67, 108
1, 26598, Note_on_c, 0, 68, 107
1, 26660, Note_off_c, 0, 68, 107
1, 26668, Note_on_c, 0, 64, 107
1, 26704, Note_off_c, 0, 64, 107
1, 26706, Note_on_c, 0, 62, 107
1, 26749, Note_off_c, 0, 62, 107
1, 26758, Note_on_c, 0, 60, 93
1, 26845, Note_off_c, 0, 60, 93
1, 26858, Note_on_c, 0, 58, 98
1, 26927, Note_off_c, 0, 58, 98
1, 26935, Note_on_c, 0, 57, 90
1, 27061, Note_off_c, 0, 57, 90
1, 27064, Note_on_c, 0, 60, 95
1, 27129, Note_off_c, 0, 60, 95
1, 27148, Note_on_c, 0, 62, 104
1, 27252, Note_off_c, 0, 62, 104
1, 27260, Note_on_c, 0, 65, 98
1, 27533, Note_off_c, 0, 65, 98
1, 27533, End_track
0, 0, End_of_file
