0, 0, Header, 1, 1, 192
1, 0, Start_track
1, 0, Title_t, "Melody"
1, 0, Tempo, 312500
1, 0, Key_signature, -2, "major"
1, 0, Time_signature, 4, 2, 24, 8
1, 4441, Note_on_c, 0, 65, 116
1, 4506, Note_off_c, 0, 65, 116
1, 4512, Note_on_c, 0, 64, 108
1, 4545, Note_off_c, 0, 64, 108
1, 4557, Note_on_c, 0, 63, 109
1, 4650, Note_off_c, 0, 63, 109
1, 4653, Note_on_c, 0, 62, 113
1, 4718, Note_off_c, 0, 62, 113
1, 4728, Note_on_c, 0, 60, 109
1, 4841, Note_off_c, 0, 60, 109
1, 4844, Note_on_c, 0, 55, 97
1, 4925, Note_off_c, 0, 55, 97
1, 4956, Note_on_c, 0, 51, 98
1, 5053, Note_off_c, 0, 51, 98
1, 5091, Note_on_c, 0, 58, 105
1, 5233, Note_off_c, 0, 58, 105
1, 5240, Note_on_c, 0, 55, 101
1, 5272, Note_off_c, 0, 55, 101
1, 5274, Note_on_c, 0, 57, 106
1, 5306, Note_off_c, 0, 57, 106
1, 5343, Note_on_c, 0, 60, 104
1, 5392, Note_off_c, 0, 60, 104
1, 5410, Note_on_c, 0, 63, 106
1, 5465, Note_off_c, 0, 63, 106
1, 5483, Note_on_c, 0, 67, 120
1, 5573, Note_off_c, 0, 67, 120
1, 5583, Note_on_c, 0, 66, 117
1, 5657, Note_off_c, 0, 66, 117
1, 5663, Note_on_c, 0, 65, 110
1, 5758, Note_off_c, 0, 65, 110
1, 5776, Note_on_c, 0, 63, 108
1, 5859, Note_off_c, 0, 63, 108
1, 5879, Note_on_c, 0, 62, 99
1, 5986, Note_off_c, 0, 62, 99
1, 5998, Note_on_c, 0, 65, 91
1, 6063, Note_off_c, 0, 65, 91
1, 6087, Note_on_c, 0, 67, 109
1, 6173, Note_off_c, 0, 67, 109
1, 6181, Note_on_c, 0, 69, 120
1, 6242, Note_off_c, 0, 69, 120
1, 6249, Note_on_c, 0, 72, 123
1, 6360, Note_off_c, 0, 72, 123
1, 6362, Note_on_c, 0, 71, 122
1, 6452, Note_off_c, 0, 71, 122
1, 6457, Note_on_c, 0, 70, 114
1, 6536, Note_off_c, 0, 70, 114
1, 6618, Note_on_c, 0, 69, 115
1, 6676, Note_off_c, 0, 69, 115
1, 6681, Note_on_c, 0, 70, 116
1, 6722, Note_off_c, 0, 70, 116
1, 6728, Note_on_c, 0, 69, 112
1, 6770, Note_off_c, 0, 69, 112
1, 6778, Note_on_c, 0, 67, 117
1, 6844, Note_off_c, 0, 67, 117
1, 6859, Note_on_c, 0, 65, 111
1, 6934, Note_off_c, 0, 65, 111
1, 6962, Note_on_c, 0, 63, 109
1, 7037, Note_off_c, 0, 63, 109
1, 7043, Note_on_c, 0, 62, 105
1, 7079, Note_off_c, 0, 62, 105
1, 7086, Note_on_c, 0, 63, 109
1, 7114, Note_off_c, 0, 63, 109
1, 7125, Note_on_c, 0, 62, 110
1, 7155, Note_off_c, 0, 62, 110
1, 7168, Note_on_c, 0, 60, 101
1, 7249, Note_off_c, 0, 60, 101
1, 7257, Note_on_c, 0, 59, 99
1, 7401, Note_off_c, 0, 59, 99
1, 7431, Note_on_c, 0, 60, 108
1, 7543, Note_off_c, 0, 60, 108
1, 7543, Note_on_c, 0, 67, 125
1, 7605, Note_off_c, 0, 67, 125
1, 7625, Note_on_c, 0, 63, 102
1, 7655, Note_off_c, 0, 63, 102
1, 7663, Note_on_c, 0, 64, 106
1, 7695, Note_off_c, 0, 64, 106
1, 7705, Note_on_c, 0, 63, 106
1, 7731, Note_off_c, 0, 63, 106
1, 7742, Note_on_c, 0, 60, 106
1, 7800, Note_off_c, 0, 60, 106
1, 7816, Note_on_c, 0, 59, 105
1, 7912, Note_off_c, 0, 59, 105
1, 7925, Note_on_c, 0, 55, 112
1, 7990, Note_off_c, 0, 55, 112
1, 8001, Note_on_c, 0, 51, 100
1, 8118, Note_off_c, 0, 51, 100
1, 8194, Note_on_c, 0, 58, 103
1, 8336, Note_off_c, 0, 58, 103
1, 8384, Note_on_c, 0, 57, 101
1, 8468, Note_off_c, 0, 57, 101
1, 8485, Note_on_c, 0, 63, 111
1, 8528, Note_off_c, 0, 63, 111
1, 8536, Note_on_c, 0, 65, 109
1, 8884, Note_off_c, 0, 65, 109
1, 8890, Note_on_c, 0, 62, 107
1, 8953, Note_off_c, 0, 62, 107
1, 8962, Note_on_c, 0, 60, 103
1, 9031, Note_off_c, 0, 60, 103
1, 9056, Note_on_c, 0, 60, 108
1, 9115, Note_off_c, 0, 60, 108
1, 9135, Note_on_c, 0, 58, 95
1, 9206, Note_off_c, 0, 58, 95
1, 9247, Note_on_c, 0, 60, 103
1, 9341, Note_off_c, 0, 60, 103
1, 9354, Note_on_c, 0, 62, 100
1, 9453, Note_off_c, 0, 62, 100
1, 9465, Note_on_c, 0, 65, 107
1, 9587, Note_off_c, 0, 65, 107
1, 10495, Note_on_c, 0, 73, 121
1, 10581, Note_off_c, 0, 73, 121
1, 10592, Note_on_c, 0, 74, 110
1, 10825, Note_off_c, 0, 74, 110
1, 10839, Note_on_c, 0, 67, 104
1, 11173, Note_off_c, 0, 67, 104
1, 11204, Note_on_c, 0, 70, 127
1, 11367, Note_off_c, 0, 70, 127
1, 11380, Note_on_c, 0, 72, 121
1, 11515, Note_off_c, 0, 72, 121
1, 11530, Note_on_c, 0, 69, 122
1, 11585, Note_off_c, 0, 69, 122
1, 11593, Note_on_c, 0, 71, 123
1, 11629, Note_off_c, 0, 71, 123
1, 11637, Note_on_c, 0, 72, 125
1, 11667, Note_off_c, 0, 72, 125
1, 11682, Note_on_c, 0, 74, 115
1, 11814, Note_off_c, 0, 74, 115
1, 11831, Note_on_c, 0, 69, 103
1, 11961, Note_off_c, 0, 69, 103
1, 12032, Note_on_c, 0, 71, 121
1, 12100, Note_off_c, 0, 71, 121
1, 12110, Note_on_c, 0, 72, 117
1, 12306, Note_off_c, 0, 72, 117
1, 12321, Note_on_c, 0, 69, 117
1, 12356, Note_off_c, 0, 69, 117
1, 12366, Note_on_c, 0, 65, 111
1, 12426, Note_off_c, 0, 65, 111
1, 12441, Note_on_c, 0, 62, 116
1, 12514, Note_off_c, 0, 62, 116
1, 12520, Note_on_c, 0, 63, 102
1, 12614, Note_off_c, 0, 63, 102
1, 12619, Note_on_c, 0, 65, 109
1, 12705, Note_off_c, 0, 65, 109
1, 12718, Note_on_c, 0, 67, 117
1, 12789, Note_off_c, 0, 67, 117
1, 12796, Note_on_c, 0, 68, 120
1, 12862, Note_off_c, 0, 68, 120
1, 12873, Note_on_c, 0, 67, 118
1, 12936, Note_off_c, 0, 67, 118
1, 12944, Note_on_c, 0, 66, 111
1, 12980, Note_off_c, 0, 66, 111
1, 12990, Note_on_c, 0, 65, 109
1, 13067, Note_off_c, 0, 65, 109
1, 13079, Note_on_c, 0, 63, 113
1, 13129, Note_off_c, 0, 63, 113
1, 13136, Note_on_c, 0, 62, 110
1, 13218, Note_off_c, 0, 62, 110
1, 13250, Note_on_c, 0, 60, 105
1, 13328, Note_off_c, 0, 60, 105
1, 13336, Note_on_c, 0, 59, 106
1, 13422, Note_off_c, 0, 59, 106
1, 13432, Note_on_c, 0, 55, 88
1, 13483, Note_off_c, 0, 55, 88
1, 13506, Note_on_c, 0, 60, 107
1, 13598, Note_off_c, 0, 60, 107
1, 13617, Note_on_c, 0, 63, 112
1, 13701, Note_off_c, 0, 63, 112
1, 14019, Note_on_c, 0, 55, 92
1, 14060, Note_off_c, 0, 55, 92
1, 14091, Note_on_c, 0, 60, 107
1, 14183, Note_off_c, 0, 60, 107
1, 14194, Note_on_c, 0, 63, 115
1, 14249, Note_off_c, 0, 63, 115
1, 14259, Note_on_c, 0, 62, 109
1, 14286, Note_off_c, 0, 62, 109
1, 14294, Note_on_c, 0, 63, 103
1, 14317, Note_off_c, 0, 63, 103
1, 14325, Note_on_c, 0, 62, 108
1, 14353, Note_off_c, 0, 62, 108
1, 14391, Note_on_c, 0, 60, 102
1, 14453, Note_off_c, 0, 60, 102
1, 14463, Note_on_c, 0, 58, 104
1, 14557, Note_off_c, 0, 58, 104
1, 14579, Note_on_c, 0, 55, 93
1, 14624, Note_off_c, 0, 55, 93
1, 14642, Note_on_c, 0, 57, 98
1, 14736, Note_off_c, 0, 57, 98
1, 14736, Note_on_c, 0, 68, 122
1, 14807, Note_off_c, 0, 68, 122
1, 14807, Note_on_c, 0, 66, 107
1, 14834, Note_off_c, 0, 66, 107
1, 14837, Note_on_c, 0, 67, 114
1, 14895, Note_off_c, 0, 67, 114
1, 14905, Note_on_c, 0, 66, 111
1, 14943, Note_off_c, 0, 66, 111
1, 14955, Note_on_c, 0, 64, 104
1, 15005, Note_off_c, 0, 64, 104
1, 15030, Note_on_c, 0, 65, 115
1, 15120, Note_off_c, 0, 65, 115
1, 15136, Note_on_c, 0, 62, 112
1, 15209, Note_off_c, 0, 62, 112
1, 15231, Note_on_c, 0, 58, 96
1, 15303, Note_off_c, 0, 58, 96
1, 15321, Note_on_c, 0, 55, 98
1, 15377, Note_off_c, 0, 55, 98
1, 15405, Note_on_c, 0, 63, 109
1, 15495, Note_off_c, 0, 63, 109
1, 15507, Note_on_c, 0, 60, 105
1, 15588, Note_off_c, 0, 60, 105
1, 15610, Note_on_c, 0, 57, 96
1, 15671, Note_off_c, 0, 57, 96
1, 15688, Note_on_c, 0, 53, 97
1, 15748, Note_off_c, 0, 53, 97
1, 15773, Note_on_c, 0, 58, 101
1, 15954, Note_off_c, 0, 58, 101
1, 16446, Note_on_c, 0, 58, 92
1, 16489, Note_off_c, 0, 58, 92
1, 16504, Note_on_c, 0, 63, 105
1, 16608, Note_off_c, 0, 63, 105
1, 16610, Note_on_c, 0, 65, 111
1, 16710, Note_off_c, 0, 65, 111
1, 16717, Note_on_c, 0, 67, 118
1, 16793, Note_off_c, 0, 67, 118
1, 16796, Note_on_c, 0, 68, 124
1, 16874, Note_off_c, 0, 68, 124
1, 16885, Note_on_c, 0, 70, 120
1, 16999, Note_off_c, 0, 70, 120
1, 17002, Note_on_c, 0, 72, 121
1, 17078, Note_off_c, 0, 72, 121
1, 17099, Note_on_c, 0, 67, 111
1, 17183, Note_off_c, 0, 67, 111
1, 17194, Note_on_c, 0, 65, 110
1, 17269, Note_off_c, 0, 65, 110
1, 17285, Note_on_c, 0, 66, 109
1, 17348, Note_off_c, 0, 66, 109
1, 17358, Note_on_c, 0, 67, 103
1, 17379, Note_off_c, 0, 67, 103
1, 17389, Note_on_c, 0, 66, 112
1, 17437, Note_off_c, 0, 66, 112
1, 17457, Note_on_c, 0, 65, 106
1, 17558, Note_off_c, 0, 65, 106
1, 17565, Note_on_c, 0, 63, 106
1, 17623, Note_off_c, 0, 63, 106
1, 17641, Note_on_c, 0, 69, 114
1, 17689, Note_off_c, 0, 69, 114
1, 17695, Note_on_c, 0, 70, 114
1, 18004, Note_off_c, 0, 70, 114
1, 18009, Note_on_c, 0, 66, 108
1, 18066, Note_off_c, 0, 66, 108
1, 18077, Note_on_c, 0, 65, 109
1, 18194, Note_off_c, 0, 65, 109
1, 18259, Note_on_c, 0, 58, 95
1, 18394, Note_off_c, 0, 58, 95
1, 18429, Note_on_c, 0, 60, 98
1, 18576, Note_off_c, 0, 60, 98
1, 18885, Note_on_c, 0, 69, 122
1, 18930, Note_off_c, 0, 69, 122
1, 18937, Note_on_c, 0, 67, 117
1, 18975, Note_off_c, 0, 67, 117
1, 18985, Note_on_c, 0, 66, 108
1, 19047, Note_off_c, 0, 66, 108
1, 19053, Note_on_c, 0, 65, 89
1, 19083, Note_off_c, 0, 65, 89
1, 19094, Note_on_c, 0, 57, 95
1, 19151, Note_off_c, 0, 57, 95
1, 19181, Note_on_c, 0, 60, 104
1, 19254, Note_off_c, 0, 60, 104
1, 19282, Note_on_c, 0, 63, 108
1, 19350, Note_off_c, 0, 63, 108
1, 19373, Note_on_c, 0, 62, 104
1, 19449, Note_off_c, 0, 62, 104
1, 19466, Note_on_c, 0, 60, 106
1, 19524, Note_off_c, 0, 60, 106
1, 19537, Note_on_c, 0, 58, 98
1, 19631, Note_off_c, 0, 58, 98
1, 19647, Note_on_c, 0, 60, 107
1, 19712, Note_off_c, 0, 60, 107
1, 19724, Note_on_c, 0, 62, 103
1, 19780, Note_off_c, 0, 62, 103
1, 19802, Note_on_c, 0, 64, 110
1, 19883, Note_off_c, 0, 64, 110
1, 19904, Note_on_c, 0, 66, 110
1, 19984, Note_off_c, 0, 66, 110
1, 20002, Note_on_c, 0, 67, 121
1, 20087, Note_off_c, 0, 67, 121
1, 20103, Note_on_c, 0, 69, 117
1, 20189, Note_off_c, 0, 69, 117
1, 20202, Note_on_c, 0, 70, 113
1, 20273, Note_off_c, 0, 70, 113
1, 20283, Note_on_c, 0, 67, 116
1, 20383, Note_off_c, 0, 67, 116
1, 20405, Note_on_c, 0, 62, 97
1, 20450, Note_off_c, 0, 62, 97
1, 20458, Note_on_c, 0, 65, 109
1, 20550, Note_off_c, 0, 65, 109
1, 20561, Note_on_c, 0, 67, 108
1, 20584, Note_off_c, 0, 67, 108
1, 20597, Note_on_c, 0, 65, 114
1, 20647, Note_off_c, 0, 65, 114
1, 20660, Note_on_c, 0, 64, 104
1, 20746, Note_off_c, 0, 64, 104
1, 20774, Note_on_c, 0, 59, 96
1, 20826, Note_off_c, 0, 59, 96
1, 20839, Note_on_c, 0, 60, 98
1, 20915, Note_off_c, 0, 60, 98
1, 20935, Note_on_c, 0, 62, 107
1, 21008, Note_off_c, 0, 62, 107
1, 21016, Note_on_c, 0, 63, 106
1, 21153, Note_off_c, 0, 63, 106
1, 21219, Note_on_c, 0, 62, 106
1, 21292, Note_off_c, 0, 62, 106
1, 21318, Note_on_c, 0, 60, 105
1, 21403, Note_off_c, 0, 60, 105
1, 21418, Note_on_c, 0, 59, 104
1, 21495, Note_off_c, 0, 59, 104
1, 21505, Note_on_c, 0, 55, 99
1, 21585, Note_off_c, 0, 55, 99
1, 21607, Note_on_c, 0, 51, 90
1, 21716, Note_off_c, 0, 51, 90
1, 21786, Note_on_c, 0, 58, 101
1, 21891, Note_off_c, 0, 58, 101
1, 21913, Note_on_c, 0, 55, 99
1, 21980, Note_off_c, 0, 55, 99
1, 21990, Note_on_c, 0, 57, 99
1, 22056, Note_off_c, 0, 57, 99
1, 22058, Note_on_c, 0, 63, 108
1, 22140, Note_off_c, 0, 63, 108
1, 22150, Note_on_c, 0, 65, 110
1, 22264, Note_off_c, 0, 65, 110
1, 22272, Note_on_c, 0, 67, 105
1, 22297, Note_off_c, 0, 67, 105
1, 22308, Note_on_c, 0, 65, 101
1, 22330, Note_off_c, 0, 65, 101
1, 22362, Note_on_c, 0, 62, 102
1, 22430, Note_off_c, 0, 62, 102
1, 22870, Note_on_c, 0, 55, 94
1, 22918, Note_off_c, 0, 55, 94
1, 22949, Note_on_c, 0, 60, 106
1, 23027, Note_off_c, 0, 60, 106
1, 23045, Note_on_c, 0, 63, 114
1, 23106, Note_off_c, 0, 63, 114
1, 23116, Note_on_c, 0, 62, 103
1, 23134, Note_off_c, 0, 62, 103
1, 23145, Note_on_c, 0, 63, 105
1, 23167, Note_off_c, 0, 63, 105
1, 23174, Note_on_c, 0, 62, 102
1, 23209, Note_off_c, 0, 62, 102
1, 23226, Note_on_c, 0, 60, 99
1, 23278, Note_off_c, 0, 60, 99
1, 23313, Note_on_c, 0, 65, 113
1, 23419, Note_off_c, 0, 65, 113
1, 23425, Note_on_c, 0, 62, 113
1, 23476, Note_off_c, 0, 62, 113
1, 23491, Note_on_c, 0, 63, 107
1, 23513, Note_off_c, 0, 63, 107
1, 23521, Note_on_c, 0, 65, 113
1, 23553, Note_off_c, 0, 65, 113
1, 23561, Note_on_c, 0, 67, 115
1, 23584, Note_off_c, 0, 67, 115
1, 23586, Note_on_c, 0, 68, 120
1, 23612, Note_off_c, 0, 68, 120
1, 23618, Note_on_c, 0, 71, 122
1, 23659, Note_off_c, 0, 71, 122
1, 23666, Note_on_c, 0, 73, 119
1, 23713, Note_off_c, 0, 73, 119
1, 23723, Note_on_c, 0, 74, 113
1, 23825, Note_off_c, 0, 74, 113
1, 24176, Note_on_c, 0, 60, 109
1, 24258, Note_off_c, 0, 60, 109
1, 24260, Note_on_c, 0, 62, 111
1, 24310, Note_off_c, 0, 62, 111
1, 24320, Note_on_c, 0, 65, 112
1, 24351, Note_off_c, 0, 65, 112
1, 24361, Note_on_c, 0, 67, 112
1, 24394, Note_off_c, 0, 67, 112
1, 24402, Note_on_c, 0, 69, 121
1, 24444, Note_off_c, 0, 69, 121
1, 24460, Note_on_c, 0, 72, 118
1, 24554, Note_off_c, 0, 72, 118
1, 24562, Note_on_c, 0, 70, 119
1, 24628, Note_off_c, 0, 70, 119
1, 24643, Note_on_c, 0, 69, 115
1, 24723, Note_off_c, 0, 69, 115
1, 24729, Note_on_c, 0, 67, 118
1, 24807, Note_off_c, 0, 67, 118
1, 24827, Note_on_c, 0, 65, 109
1, 24916, Note_off_c, 0, 65, 109
1, 24929, Note_on_c, 0, 67, 115
1, 24982, Note_off_c, 0, 67, 115
1, 24992, Note_on_c, 0, 68, 115
1, 25086, Note_off_c, 0, 68, 115
1, 25093, Note_on_c, 0, 67, 111
1, 25124, Note_off_c, 0, 67, 111
1, 25132, Note_on_c, 0, 65, 88
1, 25190, Note_off_c, 0, 65, 88
1, 25213, Note_on_c, 0, 67, 105
1, 25426, Note_off_c, 0, 67, 105
1, 25439, Note_on_c, 0, 65, 104
1, 25530, Note_off_c, 0, 65, 104
1, 25550, Note_on_c, 0, 62, 100
1, 25617, Note_off_c, 0, 62, 100
1, 25625, Note_on_c, 0, 63, 109
1, 25721, Note_off_c, 0, 63, 109
1, 25826, Note_on_c, 0, 55, 92
1, 25896, Note_off_c, 0, 55, 92
1, 25909, Note_on_c, 0, 58, 103
1, 25947, Note_off_c, 0, 58, 103
1, 25962, Note_on_c, 0, 62, 102
1, 26052, Note_off_c, 0, 62, 102
1, 26074, Note_on_c, 0, 60, 106
1, 26142, Note_off_c, 0, 60, 106
1, 26154, Note_on_c, 0, 58, 104
1, 26260, Note_off_c, 0, 58, 104
1, 26280, Note_on_c, 0, 55, 92
1, 26321, Note_off_c, 0, 55, 92
1, 26339, Note_on_c, 0, 57, 94
1, 26376, Note_off_c, 0, 57, 94
1, 26397, Note_on_c, 0, 60, 108
1, 26473, Note_off_c, 0, 60, 108
1, 26493, Note_on_c, 0, 63, 106
1, 26577, Note_off_c, 0, 63, 106
1, 26600, Note_on_c, 0, 66, 106
1, 26682, Note_off_c, 0, 66, 106
1, 26697, Note_on_c, 0, 65, 106
1, 26781, Note_off_c, 0, 65, 106
1, 26803, Note_on_c, 0, 62, 98
1, 26873, Note_off_c, 0, 62, 98
1, 26888, Note_on_c, 0, 63, 99
1, 26966, Note_off_c, 0, 63, 99
1, 26973, Note_on_c, 0, 65, 102
1, 26995, Note_off_c, 0, 65, 102
1, 27012, Note_on_c, 0, 63, 111
1, 27072, Note_off_c, 0, 63, 111
1, 27087, Note_on_c, 0, 62, 101
1, 27157, Note_off_c, 0, 62, 101
1, 27178, Note_on_c, 0, 58, 99
1, 27255, Note_off_c, 0, 58, 99
1, 27280, Note_on_c, 0, 55, 97
1, 27375, Note_off_c, 0, 55, 97
1, 27388, Note_on_c, 0, 53, 93
1, 27440, Note_off_c, 0, 53, 93
1, 27456, Note_on_c, 0, 57, 103
1, 27521, Note_off_c, 0, 57, 103
1, 27546, Note_on_c, 0, 58, 97
1, 27621, Note_off_c, 0, 58, 97
1, 27641, Note_on_c, 0, 60, 107
1, 27732, Note_off_c, 0, 60, 107
1, 27747, Note_on_c, 0, 62, 110
1, 27798, Note_off_c, 0, 62, 110
1, 27818, Note_on_c, 0, 58, 101
1, 27910, Note_off_c, 0, 58, 101
1, 27946, Note_on_c, 0, 53, 107
1, 28009, Note_off_c, 0, 53, 107
1, 28009, End_track
0, 0, End_of_file
