0, 0, Header, 1, 1, 192
1, 0, Start_track
1, 0, Title_t, "Melody"
1, 0, Tempo, 437956
1, 0, Key_signature, -2, "major"
1, 0, Time_signature, 4, 2, 24, 8
1, 1551, Note_on_c, 0, 65, 116
1, 1635, Note_off_c, 0, 65, 116
1, 1635, Note_on_c, 0, 68, 120
1, 1691, Note_off_c, 0, 68, 120
1, 1695, Note_on_c, 0, 69, 116
1, 1725, Note_off_c, 0, 69, 116
1, 1728, Note_on_c, 0, 68, 111
1, 1768, Note_off_c, 0, 68, 111
1, 1770, Note_on_c, 0, 65, 111
1, 1815, Note_off_c, 0, 65, 111
1, 1856, Note_on_c, 0, 71, 103
1, 1886, Note_off_c, 0, 71, 103
1, 1889, Note_on_c, 0, 72, 100
1, 1962, Note_off_c, 0, 72, 100
1, 1989, Note_on_c, 0, 68, 111
1, 2073, Note_off_c, 0, 68, 111
1, 2342, Note_on_c, 0, 58, 104
1, 2399, Note_off_c, 0, 58, 104
1, 2426, Note_on_c, 0, 64, 127
1, 2466, Note_off_c, 0, 64, 127
1, 2466, Note_on_c, 0, 65, 112
1, 2593, Note_off_c, 0, 65, 112
1, 2595, Note_on_c, 0, 64, 116
1, 2627, Note_off_c, 0, 64, 116
1, 2630, Note_on_c, 0, 62, 118
1, 2651, Note_off_c, 0, 62, 118
1, 2656, Note_on_c, 0, 61, 119
1, 2695, Note_off_c, 0, 61, 119
1, 2698, Note_on_c, 0, 58, 98
1, 2735, Note_off_c, 0, 58, 98
1, 2770, Note_on_c, 0, 64, 119
1, 2816, Note_off_c, 0, 64, 119
1, 2822, Note_on_c, 0, 65, 103
1, 2929, Note_off_c, 0, 65, 103
1, 2959, Note_on_c, 0, 64, 110
1, 2990, Note_off_c, 0, 64, 110
1, 2994, Note_on_c, 0, 62, 114
1, 3018, Note_off_c, 0, 62, 114
1, 3022, Note_on_c, 0, 61, 112
1, 3053, Note_off_c, 0, 61, 112
1, 3055, Note_on_c, 0, 58, 93
1, 3102, Note_off_c, 0, 58, 93
1, 3580, Note_on_c, 0, 65, 122
1, 3630, Note_off_c, 0, 65, 122
1, 3685, Note_on_c, 0, 68, 118
1, 3730, Note_off_c, 0, 68, 118
1, 3736, Note_on_c, 0, 70, 93
1, 3755, Note_off_c, 0, 70, 93
1, 3759, Note_on_c, 0, 72, 103
1, 3804, Note_off_c, 0, 72, 103
1, 3829, Note_on_c, 0, 74, 104
1, 3902, Note_off_c, 0, 74, 104
1, 3908, Note_on_c, 0, 72, 102
1, 3952, Note_off_c, 0, 72, 102
1, 3957, Note_on_c, 0, 70, 108
1, 3989, Note_off_c, 0, 70, 108
1, 3993, Note_on_c, 0, 71, 105
1, 4018, Note_off_c, 0, 71, 105
1, 4018, Note_on_c, 0, 69, 112
1, 4036, Note_off_c, 0, 69, 112
1, 4039, Note_on_c, 0, 68, 114
1, 4077, Note_off_c, 0, 68, 114
1, 4110, Note_on_c, 0, 57, 105
1, 4147, Note_off_c, 0, 57, 105
1, 4149, Note_on_c, 0, 60, 105
1, 4175, Note_off_c, 0, 60, 105
1, 4180, Note_on_c, 0, 63, 108
1, 4204, Note_off_c, 0, 63, 108
1, 4234, Note_on_c, 0, 67, 111
1, 4280, Note_off_c, 0, 67, 111
1, 4289, Note_on_c, 0, 63, 107
1, 4319, Note_off_c, 0, 63, 107
1, 4325, Note_on_c, 0, 65, 105
1, 4357, Note_off_c, 0, 65, 105
1, 4382, Note_on_c, 0, 66, 108
1, 4414, Note_off_c, 0, 66, 108
1, 4427, Note_on_c, 0, 62, 109
1, 4469, Note_off_c, 0, 62, 109
1, 4479, Note_on_c, 0, 59, 98
1, 4505, Note_off_c, 0, 59, 98
1, 4508, Note_on_c, 0, 58, 100
1, 4552, Note_off_c, 0, 58, 100
1, 4557, Note_on_c, 0, 57, 105
1, 4594, Note_off_c, 0, 57, 105
1, 4596, Note_on_c, 0, 56, 97
1, 4623, Note_off_c, 0, 56, 97
1, 4940, Note_on_c, 0, 67, 121
1, 4989, Note_off_c, 0, 67, 121
1, 4995, Note_on_c, 0, 70, 106
1, 5044, Note_off_c, 0, 70, 106
1, 5074, Note_on_c, 0, 72, 102
1, 5094, Note_off_c, 0, 72, 102
1, 5096, Note_on_c, 0, 73, 107
1, 5173, Note_off_c, 0, 73, 107
1, 5183, Note_on_c, 0, 72, 102
1, 5201, Note_off_c, 0, 72, 102
1, 5204, Note_on_c, 0, 73, 105
1, 5297, Note_off_c, 0, 73, 105
1, 5306, Note_on_c, 0, 70, 104
1, 5362, Note_off_c, 0, 70, 104
1, 5368, Note_on_c, 0, 68, 112
1, 5422, Note_off_c, 0, 68, 112
1, 5424, Note_on_c, 0, 65, 107
1, 5466, Note_off_c, 0, 65, 107
1, 5512, Note_on_c, 0, 58, 114
1, 5570, Note_off_c, 0, 58, 114
1, 5571, Note_on_c, 0, 64, 118
1, 5604, Note_off_c, 0, 64, 118
1, 5612, Note_on_c, 0, 65, 107
1, 5694, Note_off_c, 0, 65, 107
1, 5701, Note_on_c, 0, 64, 117
1, 5721, Note_off_c, 0, 64, 117
1, 5722, Note_on_c, 0, 65, 109
1, 5747, Note_off_c, 0, 65, 109
1, 5747, Note_on_c, 0, 63, 118
1, 5766, Note_off_c, 0, 63, 118
1, 5770, Note_on_c, 0, 61, 112
1, 5808, Note_off_c, 0, 61, 112
1, 5812, Note_on_c, 0, 58, 94
1, 5847, Note_off_c, 0, 58, 94
1, 5870, Note_on_c, 0, 55, 104
1, 5917, Note_off_c, 0, 55, 104
1, 5919, Note_on_c, 0, 60, 87
1, 6059, Note_off_c, 0, 60, 87
1, 6070, Note_on_c, 0, 56, 111
1, 6140, Note_off_c, 0, 56, 111
1, 6146, Note_on_c, 0, 55, 110
1, 6209, Note_off_c, 0, 55, 110
1, 6217, Note_on_c, 0, 53, 106
1, 6265, Note_off_c, 0, 53, 106
1, 6273, Note_on_c, 0, 56, 100
1, 6381, Note_off_c, 0, 56, 100
1, 6389, Note_on_c, 0, 53, 104
1, 6444, Note_off_c, 0, 53, 104
1, 6448, Note_on_c, 0, 48, 118
1, 6562, Note_off_c, 0, 48, 118
1, 6566, Note_on_c, 0, 44, 116
1, 6672, Note_off_c, 0, 44, 116
1, 7044, Note_on_c, 0, 66, 116
1, 7073, Note_off_c, 0, 66, 116
1, 7074, Note_on_c, 0, 68, 106
1, 7095, Note_off_c, 0, 68, 106
1, 7097, Note_on_c, 0, 67, 114
1, 7162, Note_off_c, 0, 67, 114
1, 7509, Note_on_c, 0, 55, 105
1, 7558, Note_off_c, 0, 55, 105
1, 7562, Note_on_c, 0, 59, 100
1, 7614, Note_off_c, 0, 59, 100
1, 7619, Note_on_c, 0, 63, 117
1, 7678, Note_off_c, 0, 63, 117
1, 7681, Note_on_c, 0, 67, 113
1, 7730, Note_off_c, 0, 67, 113
1, 7736, Note_on_c, 0, 71, 107
1, 7792, Note_off_c, 0, 71, 107
1, 7804, Note_on_c, 0, 74, 109
1, 7858, Note_off_c, 0, 74, 109
1, 7860, Note_on_c, 0, 71, 108
1, 7904, Note_off_c, 0, 71, 108
1, 7904, Note_on_c, 0, 74, 107
1, 7972, Note_off_c, 0, 74, 107
1, 7972, Note_on_c, 0, 71, 108
1, 8035, Note_off_c, 0, 71, 108
1, 8037, Note_on_c, 0, 67, 108
1, 8086, Note_off_c, 0, 67, 108
1, 8088, Note_on_c, 0, 63, 111
1, 8134, Note_off_c, 0, 63, 111
1, 8469, Note_on_c, 0, 69, 114
1, 8522, Note_off_c, 0, 69, 114
1, 8524, Note_on_c, 0, 70, 101
1, 8626, Note_off_c, 0, 70, 101
1, 8631, Note_on_c, 0, 69, 105
1, 8656, Note_off_c, 0, 69, 105
1, 8657, Note_on_c, 0, 65, 109
1, 8695, Note_off_c, 0, 65, 109
1, 8722, Note_on_c, 0, 68, 114
1, 8756, Note_off_c, 0, 68, 114
1, 8760, Note_on_c, 0, 69, 99
1, 8784, Note_off_c, 0, 69, 99
1, 8788, Note_on_c, 0, 68, 113
1, 8809, Note_off_c, 0, 68, 113
1, 8811, Note_on_c, 0, 67, 110
1, 8839, Note_off_c, 0, 67, 110
1, 8843, Note_on_c, 0, 65, 107
1, 8876, Note_off_c, 0, 65, 107
1, 8910, Note_on_c, 0, 73, 101
1, 8928, Note_off_c, 0, 73, 101
1, 8931, Note_on_c, 0, 72, 108
1, 9014, Note_off_c, 0, 72, 108
1, 9025, Note_on_c, 0, 68, 114
1, 9139, Note_off_c, 0, 68, 114
1, 9144, Note_on_c, 0, 70, 99
1, 9174, Note_off_c, 0, 70, 99
1, 9177, Note_on_c, 0, 68, 109
1, 9203, Note_off_c, 0, 68, 109
1, 9215, Note_on_c, 0, 65, 102
1, 9244, Note_off_c, 0, 65, 102
1, 9286, Note_on_c, 0, 68, 118
1, 9426, Note_off_c, 0, 68, 118
1, 9434, Note_on_c, 0, 65, 105
1, 9501, Note_off_c, 0, 65, 105
1, 10141, Note_on_c, 0, 65, 116
1, 10186, Note_off_c, 0, 65, 116
1, 10213, Note_on_c, 0, 68, 114
1, 10293, Note_off_c, 0, 68, 114
1, 10413, Note_on_c, 0, 72, 108
1, 10493, Note_off_c, 0, 72, 108
1, 10867, Note_on_c, 0, 65, 112
1, 10930, Note_off_c, 0, 65, 112
1, 10960, Note_on_c, 0, 68, 115
1, 11034, Note_off_c, 0, 68, 115
1, 11163, Note_on_c, 0, 70, 100
1, 11247, Note_off_c, 0, 70, 100
1, 11638, Note_on_c, 0, 65, 112
1, 11688, Note_off_c, 0, 65, 112
1, 11732, Note_on_c, 0, 68, 115
1, 11817, Note_off_c, 0, 68, 115
1, 11926, Note_on_c, 0, 72, 107
1, 12017, Note_off_c, 0, 72, 107
1, 12119, Note_on_c, 0, 72, 103
1, 12205, Note_off_c, 0, 72, 103
1, 12306, Note_on_c, 0, 72, 111
1, 12407, Note_off_c, 0, 72, 111
1, 12443, Note_on_c, 0, 65, 99
1, 12489, Note_off_c, 0, 65, 99
1, 12495, Note_on_c, 0, 68, 110
1, 12609, Note_off_c, 0, 68, 110
1, 12646, Note_on_c, 0, 70, 104
1, 12716, Note_off_c, 0, 70, 104
1, 13184, Note_on_c, 0, 60, 112
1, 13282, Note_off_c, 0, 60, 112
1, 13286, Note_on_c, 0, 61, 112
1, 13371, Note_off_c, 0, 61, 112
1, 13493, Note_on_c, 0, 65, 109
1, 13559, Note_off_c, 0, 65, 109
1, 13980, Note_on_c, 0, 58, 93
1, 14026, Note_off_c, 0, 58, 93
1, 14037, Note_on_c, 0, 61, 119
1, 14151, Note_off_c, 0, 61, 119
1, 14191, Note_on_c, 0, 63, 113
1, 14290, Note_off_c, 0, 63, 113
1, 14746, Note_on_c, 0, 53, 101
1, 14807, Note_off_c, 0, 53, 101
1, 14842, Note_on_c, 0, 56, 103
1, 14916, Note_off_c, 0, 56, 103
1, 15027, Note_on_c, 0, 60, 101
1, 15114, Note_off_c, 0, 60, 101
1, 15221, Note_on_c, 0, 60, 99
1, 15313, Note_off_c, 0, 60, 99
1, 15405, Note_on_c, 0, 60, 101
1, 15508, Note_off_c, 0, 60, 101
1, 15528, Note_on_c, 0, 53, 95
1, 15595, Note_off_c, 0, 53, 95
1, 15600, Note_on_c, 0, 56, 106
1, 15711, Note_off_c, 0, 56, 106
1, 15742, Note_on_c, 0, 58, 105
1, 15811, Note_off_c, 0, 58, 105
1, 16386, Note_on_c, 0, 63, 118
1, 16467, Note_off_c, 0, 63, 118
1, 16568, Note_on_c, 0, 67, 113
1, 16667, Note_off_c, 0, 67, 113
1, 17391, Note_on_c, 0, 60, 118
1, 17431, Note_off_c, 0, 60, 118
1, 17431, Note_on_c, 0, 61, 118
1, 17498, Note_off_c, 0, 61, 118
1, 17500, Note_on_c, 0, 59, 96
1, 17528, Note_off_c, 0, 59, 96
1, 17949, Note_on_c, 0, 56, 93
1, 18011, Note_off_c, 0, 56, 93
1, 18140, Note_on_c, 0, 60, 99
1, 18261, Note_off_c, 0, 60, 99
1, 18261, End_track
0, 0, End_of_file
