0, 0, Header, 1, 1, 192
1, 0, Start_track
1, 0, Title_t, "Melody"
1, 0, Tempo, 267857
1, 0, Key_signature, 0, "major"
1, 0, Time_signature, 4, 2, 24, 8
1, 2184, Note_on_c, 0, 67, 111
1, 2275, Note_off_c, 0, 67, 111
1, 2283, Note_on_c, 0, 71, 123
1, 2393, Note_off_c, 0, 71, 123
1, 2405, Note_on_c, 0, 72, 127
1, 2500, Note_off_c, 0, 72, 127
1, 2500, Note_on_c, 0, 71, 119
1, 2614, Note_off_c, 0, 71, 119
1, 2618, Note_on_c, 0, 69, 109
1, 2709, Note_off_c, 0, 69, 109
1, 2715, Note_on_c, 0, 67, 117
1, 2808, Note_off_c, 0, 67, 117
1, 2808, Note_on_c, 0, 65, 114
1, 2895, Note_off_c, 0, 65, 114
1, 2905, Note_on_c, 0, 64, 111
1, 3006, Note_off_c, 0, 64, 111
1, 3006, Note_on_c, 0, 62, 119
1, 3085, Note_off_c, 0, 62, 119
1, 3085, Note_on_c, 0, 61, 113
1, 3184, Note_off_c, 0, 61, 113
1, 3184, Note_on_c, 0, 64, 99
1, 3257, Note_off_c, 0, 64, 99
1, 3262, Note_on_c, 0, 67, 118
1, 3381, Note_on_c, 0, 70, 110
1, 3381, Note_off_c, 0, 67, 118
1, 3465, Note_off_c, 0, 70, 110
1, 3476, Note_on_c, 0, 67, 102
1, 3567, Note_off_c, 0, 67, 102
1, 3581, Note_on_c, 0, 68, 109
1, 3670, Note_off_c, 0, 68, 109
1, 3682, Note_on_c, 0, 69, 116
1, 3773, Note_off_c, 0, 69, 116
1, 3773, Note_on_c, 0, 65, 108
1, 3847, Note_off_c, 0, 65, 108
1, 3851, Note_on_c, 0, 64, 99
1, 3940, Note_off_c, 0, 64, 99
1, 3944, Note_on_c, 0, 62, 99
1, 4025, Note_off_c, 0, 62, 99
1, 4029, Note_on_c, 0, 67, 117
1, 4118, Note_off_c, 0, 67, 117
1, 4128, Note_on_c, 0, 59, 99
1, 4223, Note_off_c, 0, 59, 99
1, 4231, Note_on_c, 0, 60, 112
1, 4353, Note_off_c, 0, 60, 112
1, 4355, Note_on_c, 0, 65, 117
1, 4427, Note_off_c, 0, 65, 117
1, 4435, Note_on_c, 0, 64, 111
1, 4524, Note_off_c, 0, 64, 111
1, 4524, Note_on_c, 0, 60, 109
1, 4621, Note_off_c, 0, 60, 109
1, 4625, Note_on_c, 0, 57, 109
1, 4716, Note_off_c, 0, 57, 109
1, 4720, Note_on_c, 0, 54, 104
1, 4776, Note_off_c, 0, 54, 104
1, 4800, Note_on_c, 0, 56, 110
1, 4881, Note_off_c, 0, 56, 110
1, 4889, Note_on_c, 0, 58, 99
1, 4918, Note_off_c, 0, 58, 99
1, 4924, Note_on_c, 0, 56, 112
1, 4976, Note_off_c, 0, 56, 112
1, 4990, Note_on_c, 0, 55, 117
1, 5069, Note_off_c, 0, 55, 117
1, 5079, Note_on_c, 0, 53, 108
1, 5185, Note_off_c, 0, 53, 108
1, 5194, Note_on_c, 0, 52, 109
1, 5261, Note_off_c, 0, 52, 109
1, 5261, Note_on_c, 0, 62, 112
1, 5383, Note_off_c, 0, 62, 112
1, 5383, Note_on_c, 0, 59, 100
1, 5502, Note_off_c, 0, 59, 100
1, 6198, Note_on_c, 0, 68, 122
1, 6268, Note_off_c, 0, 68, 122
1, 6285, Note_on_c, 0, 69, 121
1, 6378, Note_off_c, 0, 69, 121
1, 6378, Note_on_c, 0, 71, 116
1, 6430, Note_off_c, 0, 71, 116
1, 6438, Note_on_c, 0, 70, 114
1, 6487, Note_off_c, 0, 70, 114
1, 6501, Note_on_c, 0, 69, 118
1, 6612, Note_off_c, 0, 69, 118
1, 6612, Note_on_c, 0, 67, 119
1, 6696, Note_off_c, 0, 67, 119
1, 6725, Note_on_c, 0, 64, 114
1, 6786, Note_off_c, 0, 64, 114
1, 6797, Note_on_c, 0, 65, 115
1, 6957, Note_off_c, 0, 65, 115
1, 7931, Note_on_c, 0, 60, 104
1, 8042, Note_off_c, 0, 60, 104
1, 8126, Note_on_c, 0, 67, 121
1, 8193, Note_off_c, 0, 67, 121
1, 8289, Note_on_c, 0, 60, 108
1, 8391, Note_off_c, 0, 60, 108
1, 8475, Note_on_c, 0, 60, 113
1, 8565, Note_off_c, 0, 60, 113
1, 8565, Note_on_c, 0, 67, 111
1, 8673, Note_off_c, 0, 67, 111
1, 8684, Note_on_c, 0, 60, 106
1, 8801, Note_off_c, 0, 60, 106
1, 8950, Note_on_c, 0, 62, 117
1, 9052, Note_off_c, 0, 62, 117
1, 9060, Note_on_c, 0, 65, 115
1, 9147, Note_off_c, 0, 65, 115
1, 9147, Note_on_c, 0, 62, 114
1, 9237, Note_off_c, 0, 62, 114
1, 9237, Note_on_c, 0, 63, 113
1, 9339, Note_off_c, 0, 63, 113
1, 9347, Note_on_c, 0, 64, 119
1, 9440, Note_off_c, 0, 64, 119
1, 9445, Note_on_c, 0, 62, 121
1, 9526, Note_off_c, 0, 62, 121
1, 9527, Note_on_c, 0, 61, 114
1, 9648, Note_off_c, 0, 61, 114
1, 9661, Note_on_c, 0, 57, 104
1, 9690, Note_off_c, 0, 57, 104
1, 9703, Note_on_c, 0, 64, 108
1, 9738, Note_off_c, 0, 64, 108
1, 9743, Note_on_c, 0, 67, 111
1, 9775, Note_off_c, 0, 67, 111
1, 9783, Note_on_c, 0, 64, 107
1, 9835, Note_off_c, 0, 64, 107
1, 9840, Note_on_c, 0, 61, 112
1, 9895, Note_off_c, 0, 61, 112
1, 9906, Note_on_c, 0, 62, 120
1, 10014, Note_off_c, 0, 62, 120
1, 10014, Note_on_c, 0, 64, 101
1, 10069, Note_off_c, 0, 64, 101
1, 10089, Note_on_c, 0, 65, 121
1, 10211, Note_off_c, 0, 65, 121
1, 10228, Note_on_c, 0, 67, 106
1, 10266, Note_off_c, 0, 67, 106
1, 10280, Note_on_c, 0, 69, 115
1, 10391, Note_off_c, 0, 69, 115
1, 10391, Note_on_c, 0, 68, 121
1, 10519, Note_off_c, 0, 68, 121
1, 10583, Note_on_c, 0, 55, 108
1, 10667, Note_off_c, 0, 55, 108
1, 10684, Note_on_c, 0, 56, 108
1, 10751, Note_off_c, 0, 56, 108
1, 10765, Note_on_c, 0, 65, 111
1, 11022, Note_off_c, 0, 65, 111
1, 12206, Note_on_c, 0, 59, 115
1, 12279, Note_off_c, 0, 59, 115
1, 12302, Note_on_c, 0, 60, 122
1, 13153, Note_off_c, 0, 60, 122
1, 13170, Note_on_c, 0, 59, 116
1, 13269, Note_off_c, 0, 59, 116
1, 13289, Note_on_c, 0, 60, 120
1, 14037, Note_off_c, 0, 60, 120
1, 14060, Note_on_c, 0, 59, 108
1, 14349, Note_off_c, 0, 59, 108
1, 14387, Note_on_c, 0, 60, 119
1, 14934, Note_off_c, 0, 60, 119
1, 14998, Note_on_c, 0, 65, 109
1, 15062, Note_off_c, 0, 65, 109
1, 15082, Note_on_c, 0, 67, 118
1, 15471, Note_off_c, 0, 67, 118
1, 15473, Note_on_c, 0, 66, 108
1, 15534, Note_off_c, 0, 66, 108
1, 15539, Note_on_c, 0, 63, 114
1, 15600, Note_off_c, 0, 63, 114
1, 15608, Note_on_c, 0, 60, 114
1, 15921, Note_off_c, 0, 60, 114
1, 16819, Note_on_c, 0, 66, 83
1, 16874, Note_off_c, 0, 66, 83
1, 16874, Note_on_c, 0, 68, 117
1, 16920, Note_on_c, 0, 72, 120
1, 16920, Note_off_c, 0, 68, 117
1, 16990, Note_off_c, 0, 72, 120
1, 16990, Note_on_c, 0, 71, 122
1, 17028, Note_off_c, 0, 71, 122
1, 17030, Note_on_c, 0, 69, 124
1, 17088, Note_off_c, 0, 69, 124
1, 17096, Note_on_c, 0, 67, 123
1, 17160, Note_off_c, 0, 67, 123
1, 17160, Note_on_c, 0, 64, 118
1, 17195, Note_off_c, 0, 64, 118
1, 17203, Note_on_c, 0, 62, 120
1, 17246, Note_off_c, 0, 62, 120
1, 17246, Note_on_c, 0, 60, 115
1, 17310, Note_off_c, 0, 60, 115
1, 17310, Note_on_c, 0, 59, 112
1, 17377, Note_off_c, 0, 59, 112
1, 17377, Note_on_c, 0, 56, 111
1, 17444, Note_off_c, 0, 56, 111
1, 17449, Note_on_c, 0, 57, 108
1, 17533, Note_on_c, 0, 53, 100
1, 17533, Note_off_c, 0, 57, 108
1, 17597, Note_off_c, 0, 53, 100
1, 17602, Note_on_c, 0, 55, 114
1, 17704, Note_off_c, 0, 55, 114
1, 17718, Note_on_c, 0, 53, 108
1, 17799, Note_off_c, 0, 53, 108
1, 17813, Note_on_c, 0, 55, 111
1, 17859, Note_off_c, 0, 55, 111
1, 17864, Note_on_c, 0, 57, 114
1, 17907, Note_off_c, 0, 57, 114
1, 17915, Note_on_c, 0, 62, 109
1, 17970, Note_off_c, 0, 62, 109
1, 17970, Note_on_c, 0, 59, 92
1, 18034, Note_off_c, 0, 59, 92
1, 18818, Note_on_c, 0, 61, 112
1, 18885, Note_off_c, 0, 61, 112
1, 18887, Note_on_c, 0, 62, 110
1, 18948, Note_off_c, 0, 62, 110
1, 18953, Note_on_c, 0, 69, 115
1, 19011, Note_off_c, 0, 69, 115
1, 19011, Note_on_c, 0, 72, 116
1, 19066, Note_off_c, 0, 72, 116
1, 19071, Note_on_c, 0, 71, 117
1, 19193, Note_off_c, 0, 71, 117
1, 19198, Note_on_c, 0, 67, 105
1, 19256, Note_off_c, 0, 67, 105
1, 19258, Note_on_c, 0, 69, 113
1, 19375, Note_off_c, 0, 69, 113
1, 19377, Note_on_c, 0, 71, 115
1, 19529, Note_off_c, 0, 71, 115
1, 19531, Note_on_c, 0, 69, 99
1, 19609, Note_off_c, 0, 69, 99
1, 19609, Note_on_c, 0, 67, 118
1, 19728, Note_off_c, 0, 67, 118
1, 19736, Note_on_c, 0, 64, 117
1, 19844, Note_off_c, 0, 64, 117
1, 19844, Note_on_c, 0, 59, 99
1, 19931, Note_off_c, 0, 59, 99
1, 19931, Note_on_c, 0, 60, 116
1, 20039, Note_off_c, 0, 60, 116
1, 20039, Note_on_c, 0, 64, 115
1, 20141, Note_off_c, 0, 64, 115
1, 20149, Note_on_c, 0, 67, 112
1, 20192, Note_off_c, 0, 67, 112
1, 20206, Note_on_c, 0, 70, 117
1, 20349, Note_off_c, 0, 70, 117
1, 20378, Note_on_c, 0, 64, 116
1, 20489, Note_off_c, 0, 64, 116
1, 20980, Note_on_c, 0, 63, 121
1, 21082, Note_off_c, 0, 63, 121
1, 21093, Note_on_c, 0, 68, 112
1, 21177, Note_off_c, 0, 68, 112
1, 21177, Note_on_c, 0, 62, 114
1, 21279, Note_off_c, 0, 62, 114
1, 21287, Note_on_c, 0, 60, 103
1, 21389, Note_off_c, 0, 60, 103
1, 21389, Note_on_c, 0, 61, 115
1, 21465, Note_off_c, 0, 61, 115
1, 21479, Note_on_c, 0, 64, 96
1, 21540, Note_off_c, 0, 64, 96
1, 21551, Note_on_c, 0, 67, 119
1, 21668, Note_off_c, 0, 67, 119
1, 21670, Note_on_c, 0, 70, 118
1, 21743, Note_off_c, 0, 70, 118
1, 21745, Note_on_c, 0, 69, 113
1, 21844, Note_off_c, 0, 69, 113
1, 21844, Note_on_c, 0, 62, 112
1, 21890, Note_off_c, 0, 62, 112
1, 21898, Note_on_c, 0, 63, 113
1, 21933, Note_on_c, 0, 64, 111
1, 21933, Note_off_c, 0, 63, 113
1, 22032, Note_off_c, 0, 64, 111
1, 22034, Note_on_c, 0, 67, 117
1, 22124, Note_off_c, 0, 67, 117
1, 22124, Note_on_c, 0, 65, 112
1, 22220, Note_off_c, 0, 65, 112
1, 22255, Note_on_c, 0, 55, 112
1, 22351, Note_off_c, 0, 55, 112
1, 22351, Note_on_c, 0, 57, 104
1, 22421, Note_off_c, 0, 57, 104
1, 22421, Note_on_c, 0, 60, 107
1, 22511, Note_off_c, 0, 60, 107
1, 22516, Note_on_c, 0, 64, 123
1, 22615, Note_off_c, 0, 64, 123
1, 22617, Note_on_c, 0, 62, 120
1, 22704, Note_off_c, 0, 62, 120
1, 22704, Note_on_c, 0, 57, 104
1, 22791, Note_off_c, 0, 57, 104
1, 22791, Note_on_c, 0, 60, 107
1, 22902, Note_off_c, 0, 60, 107
1, 22913, Note_on_c, 0, 59, 106
1, 22980, Note_off_c, 0, 59, 106
1, 22982, Note_on_c, 0, 62, 108
1, 23046, Note_off_c, 0, 62, 108
1, 23060, Note_on_c, 0, 65, 113
1, 23162, Note_off_c, 0, 65, 113
1, 23167, Note_on_c, 0, 69, 116
1, 23269, Note_off_c, 0, 69, 116
1, 23269, Note_on_c, 0, 67, 120
1, 23371, Note_off_c, 0, 67, 120
1, 23373, Note_on_c, 0, 59, 104
1, 23457, Note_off_c, 0, 59, 104
1, 23465, Note_on_c, 0, 60, 113
1, 23558, Note_off_c, 0, 60, 113
1, 23558, Note_on_c, 0, 65, 118
1, 23639, Note_off_c, 0, 65, 118
1, 23641, Note_on_c, 0, 64, 120
1, 23734, Note_off_c, 0, 64, 120
1, 23745, Note_on_c, 0, 60, 119
1, 23841, Note_off_c, 0, 60, 119
1, 23852, Note_on_c, 0, 58, 111
1, 23948, Note_off_c, 0, 58, 111
1, 23948, Note_on_c, 0, 56, 109
1, 24035, Note_off_c, 0, 56, 109
1, 24043, Note_on_c, 0, 57, 119
1, 24142, Note_on_c, 0, 60, 120
1, 24142, Note_off_c, 0, 57, 119
1, 24238, Note_off_c, 0, 60, 120
1, 24238, Note_on_c, 0, 62, 112
1, 24325, Note_off_c, 0, 62, 112
1, 24327, Note_on_c, 0, 64, 107
1, 24376, Note_off_c, 0, 64, 107
1, 24384, Note_on_c, 0, 67, 121
1, 24503, Note_off_c, 0, 67, 121
1, 24523, Note_on_c, 0, 65, 118
1, 24622, Note_off_c, 0, 65, 118
1, 24624, Note_on_c, 0, 64, 118
1, 24694, Note_off_c, 0, 64, 118
1, 24702, Note_on_c, 0, 62, 122
1, 24783, Note_off_c, 0, 62, 122
1, 24783, Note_on_c, 0, 60, 116
1, 24879, Note_off_c, 0, 60, 116
1, 24884, Note_on_c, 0, 57, 113
1, 24980, Note_off_c, 0, 57, 113
1, 24988, Note_on_c, 0, 55, 113
1, 25075, Note_off_c, 0, 55, 113
1, 25083, Note_on_c, 0, 53, 114
1, 25176, Note_off_c, 0, 53, 114
1, 25181, Note_on_c, 0, 52, 113
1, 25259, Note_off_c, 0, 52, 113
1, 25264, Note_on_c, 0, 55, 112
1, 25375, Note_off_c, 0, 55, 112
1, 25375, Note_on_c, 0, 57, 105
1, 25468, Note_off_c, 0, 57, 105
1, 25468, Note_on_c, 0, 59, 102
1, 25538, Note_off_c, 0, 59, 102
1, 25538, Note_on_c, 0, 62, 123
1, 25652, Note_off_c, 0, 62, 123
1, 25663, Note_on_c, 0, 59, 101
1, 25721, Note_off_c, 0, 59, 101
1, 25721, Note_on_c, 0, 62, 117
1, 25832, Note_off_c, 0, 62, 117
1, 25832, Note_on_c, 0, 63, 122
1, 25940, Note_off_c, 0, 63, 122
1, 25942, Note_on_c, 0, 59, 111
1, 26044, Note_off_c, 0, 59, 111
1, 26044, Note_on_c, 0, 56, 118
1, 26117, Note_off_c, 0, 56, 118
1, 26134, Note_on_c, 0, 55, 117
1, 26212, Note_off_c, 0, 55, 117
1, 26229, Note_on_c, 0, 53, 115
1, 26307, Note_off_c, 0, 53, 115
1, 26312, Note_on_c, 0, 52, 108
1, 26411, Note_off_c, 0, 52, 108
1, 26437, Note_on_c, 0, 58, 98
1, 26483, Note_off_c, 0, 58, 98
1, 26497, Note_on_c, 0, 62, 122
1, 26590, Note_off_c, 0, 62, 122
1, 26590, Note_on_c, 0, 59, 104
1, 26642, Note_off_c, 0, 59, 104
1, 26668, Note_on_c, 0, 60, 122
1, 26785, Note_off_c, 0, 60, 122
1, 26785, Note_on_c, 0, 55, 104
1, 26849, Note_off_c, 0, 55, 104
1, 26849, Note_on_c, 0, 65, 117
1, 26971, Note_off_c, 0, 65, 117
1, 26971, Note_on_c, 0, 63, 113
1, 27026, Note_off_c, 0, 63, 113
1, 27031, Note_on_c, 0, 64, 120
1, 27165, Note_off_c, 0, 64, 120
1, 27167, Note_on_c, 0, 55, 109
1, 27228, Note_off_c, 0, 55, 109
1, 27236, Note_on_c, 0, 61, 115
1, 27320, Note_off_c, 0, 61, 115
1, 27331, Note_on_c, 0, 64, 120
1, 27506, Note_off_c, 0, 64, 120
1, 27539, Note_on_c, 0, 62, 121
1, 27568, Note_off_c, 0, 62, 121
1, 27575, Note_on_c, 0, 63, 121
1, 27594, Note_off_c, 0, 63, 121
1, 27595, Note_on_c, 0, 61, 117
1, 27700, Note_off_c, 0, 61, 117
1, 28475, Note_on_c, 0, 60, 117
1, 28577, Note_off_c, 0, 60, 117
1, 28577, Note_on_c, 0, 65, 118
1, 28629, Note_off_c, 0, 65, 118
1, 28631, Note_on_c, 0, 67, 125
1, 28721, Note_off_c, 0, 67, 125
1, 28723, Note_on_c, 0, 66, 119
1, 28866, Note_off_c, 0, 66, 119
1, 28871, Note_on_c, 0, 63, 122
1, 28932, Note_off_c, 0, 63, 122
1, 28940, Note_on_c, 0, 60, 114
1, 29021, Note_on_c, 0, 63, 123
1, 29021, Note_off_c, 0, 60, 114
1, 29111, Note_off_c, 0, 63, 123
1, 29113, Note_on_c, 0, 66, 120
1, 29209, Note_off_c, 0, 66, 120
1, 29223, Note_on_c, 0, 67, 121
1, 29296, Note_off_c, 0, 67, 121
1, 29301, Note_on_c, 0, 66, 116
1, 29385, Note_off_c, 0, 66, 116
1, 29405, Note_on_c, 0, 63, 118
1, 29483, Note_off_c, 0, 63, 118
1, 29485, Note_on_c, 0, 60, 117
1, 29584, Note_off_c, 0, 60, 117
1, 29584, Note_on_c, 0, 63, 120
1, 29677, Note_off_c, 0, 63, 120
1, 29685, Note_on_c, 0, 66, 118
1, 29784, Note_off_c, 0, 66, 118
1, 29784, Note_on_c, 0, 67, 119
1, 29877, Note_off_c, 0, 67, 119
1, 29885, Note_on_c, 0, 65, 111
1, 29955, Note_off_c, 0, 65, 111
1, 29969, Note_on_c, 0, 63, 117
1, 30050, Note_off_c, 0, 63, 117
1, 30055, Note_on_c, 0, 60, 114
1, 30145, Note_off_c, 0, 60, 114
1, 30145, Note_on_c, 0, 63, 117
1, 30253, Note_off_c, 0, 63, 117
1, 30253, Note_on_c, 0, 65, 118
1, 30352, Note_off_c, 0, 65, 118
1, 30352, Note_on_c, 0, 66, 114
1, 30463, Note_off_c, 0, 66, 114
1, 30463, Note_on_c, 0, 65, 109
1, 30565, Note_off_c, 0, 65, 109
1, 30565, Note_on_c, 0, 63, 115
1, 30649, Note_off_c, 0, 63, 115
1, 31833, Note_on_c, 0, 71, 84
1, 31894, Note_off_c, 0, 71, 84
1, 31894, Note_on_c, 0, 72, 121
1, 32057, Note_off_c, 0, 72, 121
1, 32059, Note_on_c, 0, 71, 117
1, 32211, Note_off_c, 0, 71, 117
1, 32219, Note_on_c, 0, 70, 116
1, 32297, Note_off_c, 0, 70, 116
1, 32403, Note_on_c, 0, 74, 122
1, 32438, Note_off_c, 0, 74, 122
1, 32448, Note_on_c, 0, 76, 126
1, 32916, Note_off_c, 0, 76, 126
1, 33056, Note_on_c, 0, 75, 107
1, 33152, Note_off_c, 0, 75, 107
1, 33225, Note_on_c, 0, 74, 106
1, 33321, Note_off_c, 0, 74, 106
1, 33429, Note_on_c, 0, 73, 115
1, 33543, Note_off_c, 0, 73, 115
1, 33604, Note_on_c, 0, 69, 113
1, 33735, Note_off_c, 0, 69, 113
1, 34138, Note_on_c, 0, 74, 112
1, 34269, Note_off_c, 0, 74, 112
1, 34347, Note_on_c, 0, 73, 117
1, 34484, Note_off_c, 0, 73, 117
1, 34524, Note_on_c, 0, 61, 116
1, 34588, Note_off_c, 0, 61, 116
1, 34596, Note_on_c, 0, 62, 113
1, 34628, Note_off_c, 0, 62, 113
1, 34633, Note_on_c, 0, 63, 115
1, 34673, Note_off_c, 0, 63, 115
1, 34684, Note_on_c, 0, 65, 110
1, 34716, Note_off_c, 0, 65, 110
1, 34716, Note_on_c, 0, 68, 113
1, 34759, Note_off_c, 0, 68, 113
1, 34782, Note_on_c, 0, 72, 119
1, 34934, Note_off_c, 0, 72, 119
1, 34951, Note_on_c, 0, 69, 93
1, 34997, Note_off_c, 0, 69, 93
1, 35005, Note_on_c, 0, 71, 119
1, 35098, Note_off_c, 0, 71, 119
1, 35098, Note_on_c, 0, 69, 115
1, 35185, Note_off_c, 0, 69, 115
1, 35190, Note_on_c, 0, 67, 117
1, 35292, Note_off_c, 0, 67, 117
1, 35292, Note_on_c, 0, 65, 117
1, 35365, Note_off_c, 0, 65, 117
1, 35379, Note_on_c, 0, 64, 118
1, 35460, Note_off_c, 0, 64, 118
1, 35471, Note_on_c, 0, 67, 118
1, 35552, Note_off_c, 0, 67, 118
1, 35563, Note_on_c, 0, 62, 120
1, 35665, Note_off_c, 0, 62, 120
1, 35670, Note_on_c, 0, 61, 116
1, 35734, Note_off_c, 0, 61, 116
1, 35751, Note_on_c, 0, 60, 115
1, 35868, Note_off_c, 0, 60, 115
1, 35873, Note_on_c, 0, 72, 114
1, 35954, Note_off_c, 0, 72, 114
1, 36059, Note_on_c, 0, 70, 113
1, 36164, Note_off_c, 0, 70, 113
1, 36181, Note_on_c, 0, 67, 119
1, 36259, Note_off_c, 0, 67, 119
1, 36267, Note_on_c, 0, 69, 112
1, 36366, Note_off_c, 0, 69, 112
1, 36366, Note_on_c, 0, 65, 112
1, 36430, Note_off_c, 0, 65, 112
1, 36444, Note_on_c, 0, 63, 114
1, 36499, Note_off_c, 0, 63, 114
1, 37183, Note_on_c, 0, 67, 98
1, 37273, Note_off_c, 0, 67, 98
1, 37278, Note_on_c, 0, 71, 116
1, 37365, Note_off_c, 0, 71, 116
1, 37379, Note_on_c, 0, 72, 119
1, 37469, Note_off_c, 0, 72, 119
1, 37474, Note_on_c, 0, 71, 116
1, 37555, Note_off_c, 0, 71, 116
1, 37555, Note_on_c, 0, 69, 112
1, 37645, Note_off_c, 0, 69, 112
1, 37659, Note_on_c, 0, 67, 118
1, 37752, Note_off_c, 0, 67, 118
1, 37760, Note_on_c, 0, 69, 97
1, 37827, Note_off_c, 0, 69, 97
1, 37853, Note_on_c, 0, 71, 115
1, 37964, Note_off_c, 0, 71, 115
1, 37964, Note_on_c, 0, 72, 119
1, 38051, Note_off_c, 0, 72, 119
1, 38062, Note_on_c, 0, 71, 119
1, 38132, Note_off_c, 0, 71, 119
1, 38140, Note_on_c, 0, 69, 113
1, 38245, Note_off_c, 0, 69, 113
1, 38256, Note_on_c, 0, 67, 102
1, 38355, Note_off_c, 0, 67, 102
1, 38355, Note_on_c, 0, 69, 100
1, 38413, Note_off_c, 0, 69, 100
1, 38433, Note_on_c, 0, 71, 117
1, 38514, Note_off_c, 0, 71, 117
1, 38531, Note_on_c, 0, 72, 120
1, 38598, Note_off_c, 0, 72, 120
1, 38606, Note_on_c, 0, 71, 119
1, 38717, Note_off_c, 0, 71, 119
1, 38734, Note_on_c, 0, 69, 113
1, 38818, Note_off_c, 0, 69, 113
1, 38818, Note_on_c, 0, 67, 103
1, 38923, Note_off_c, 0, 67, 103
1, 38934, Note_on_c, 0, 69, 101
1, 38992, Note_off_c, 0, 69, 101
1, 38992, Note_on_c, 0, 71, 118
1, 39097, Note_off_c, 0, 71, 118
1, 39105, Note_on_c, 0, 72, 119
1, 39189, Note_off_c, 0, 72, 119
1, 39206, Note_on_c, 0, 71, 118
1, 39282, Note_off_c, 0, 71, 118
1, 39293, Note_on_c, 0, 69, 111
1, 39380, Note_off_c, 0, 69, 111
1, 39397, Note_on_c, 0, 67, 104
1, 39516, Note_off_c, 0, 67, 104
1, 39524, Note_on_c, 0, 69, 103
1, 39570, Note_off_c, 0, 69, 103
1, 39578, Note_on_c, 0, 71, 117
1, 39677, Note_off_c, 0, 71, 117
1, 39688, Note_on_c, 0, 72, 116
1, 39787, Note_off_c, 0, 72, 116
1, 39792, Note_on_c, 0, 71, 112
1, 39885, Note_off_c, 0, 71, 112
1, 39890, Note_on_c, 0, 69, 115
1, 39971, Note_off_c, 0, 69, 115
1, 39988, Note_on_c, 0, 67, 107
1, 40058, Note_off_c, 0, 67, 107
1, 40060, Note_on_c, 0, 69, 95
1, 40133, Note_off_c, 0, 69, 95
1, 40150, Note_on_c, 0, 71, 113
1, 40243, Note_off_c, 0, 71, 113
1, 40275, Note_on_c, 0, 72, 117
1, 40359, Note_off_c, 0, 72, 117
1, 40370, Note_on_c, 0, 71, 116
1, 40451, Note_off_c, 0, 71, 116
1, 40468, Note_on_c, 0, 69, 114
1, 40558, Note_off_c, 0, 69, 114
1, 40569, Note_on_c, 0, 67, 106
1, 40677, Note_off_c, 0, 67, 106
1, 40677, Note_on_c, 0, 69, 105
1, 40729, Note_off_c, 0, 69, 105
1, 40740, Note_on_c, 0, 71, 118
1, 40848, Note_off_c, 0, 71, 118
1, 40853, Note_on_c, 0, 72, 118
1, 40952, Note_off_c, 0, 72, 118
1, 40957, Note_on_c, 0, 71, 119
1, 41047, Note_off_c, 0, 71, 119
1, 41052, Note_on_c, 0, 69, 112
1, 41128, Note_off_c, 0, 69, 112
1, 41145, Note_on_c, 0, 67, 118
1, 41244, Note_off_c, 0, 67, 118
1, 41258, Note_on_c, 0, 69, 102
1, 41313, Note_off_c, 0, 69, 102
1, 41315, Note_on_c, 0, 71, 120
1, 41423, Note_off_c, 0, 71, 120
1, 41425, Note_on_c, 0, 72, 121
1, 41542, Note_off_c, 0, 72, 121
1, 41556, Note_on_c, 0, 71, 110
1, 41626, Note_off_c, 0, 71, 110
1, 41640, Note_on_c, 0, 69, 112
1, 41695, Note_off_c, 0, 69, 112
1, 41718, Note_on_c, 0, 67, 110
1, 41820, Note_off_c, 0, 67, 110
1, 41837, Note_on_c, 0, 69, 97
1, 41886, Note_off_c, 0, 69, 97
1, 41886, Note_on_c, 0, 71, 118
1, 41997, Note_off_c, 0, 71, 118
1, 42008, Note_on_c, 0, 72, 120
1, 42125, Note_off_c, 0, 72, 120
1, 42133, Note_on_c, 0, 71, 119
1, 42185, Note_off_c, 0, 71, 119
1, 42185, Note_on_c, 0, 69, 115
1, 42284, Note_off_c, 0, 69, 115
1, 42284, Note_on_c, 0, 67, 120
1, 42395, Note_off_c, 0, 67, 120
1, 42397, Note_on_c, 0, 65, 120
1, 42484, Note_off_c, 0, 65, 120
1, 42486, Note_on_c, 0, 64, 118
1, 42579, Note_off_c, 0, 64, 118
1, 42584, Note_on_c, 0, 62, 119
1, 42662, Note_off_c, 0, 62, 119
1, 42667, Note_on_c, 0, 61, 74
1, 42745, Note_off_c, 0, 61, 74
1, 42745, Note_on_c, 0, 64, 104
1, 42832, Note_off_c, 0, 64, 104
1, 42834, Note_on_c, 0, 67, 120
1, 42965, Note_off_c, 0, 67, 120
1, 42965, Note_on_c, 0, 70, 121
1, 43038, Note_off_c, 0, 70, 121
1, 43046, Note_on_c, 0, 69, 113
1, 43147, Note_off_c, 0, 69, 113
1, 43147, Note_on_c, 0, 65, 114
1, 43246, Note_off_c, 0, 65, 114
1, 43254, Note_on_c, 0, 64, 112
1, 43347, Note_off_c, 0, 64, 112
1, 43347, Note_on_c, 0, 62, 106
1, 43417, Note_off_c, 0, 62, 106
1, 43439, Note_on_c, 0, 67, 120
1, 43551, Note_on_c, 0, 65, 115
1, 43551, Note_off_c, 0, 67, 120
1, 43613, Note_off_c, 0, 65, 115
1, 43619, Note_on_c, 0, 64, 119
1, 43702, Note_off_c, 0, 64, 119
1, 43712, Note_on_c, 0, 62, 122
1, 43801, Note_off_c, 0, 62, 122
1, 43801, Note_on_c, 0, 60, 115
1, 43923, Note_off_c, 0, 60, 115
1, 43925, Note_on_c, 0, 55, 107
1, 43991, Note_off_c, 0, 55, 107
1, 43995, Note_on_c, 0, 57, 112
1, 44090, Note_off_c, 0, 57, 112
1, 44092, Note_on_c, 0, 59, 114
1, 44185, Note_off_c, 0, 59, 114
1, 44193, Note_on_c, 0, 60, 120
1, 44284, Note_off_c, 0, 60, 120
1, 44286, Note_on_c, 0, 62, 119
1, 44392, Note_off_c, 0, 62, 119
1, 44404, Note_on_c, 0, 64, 119
1, 44499, Note_off_c, 0, 64, 119
1, 44521, Note_on_c, 0, 65, 117
1, 44585, Note_off_c, 0, 65, 117
1, 44595, Note_on_c, 0, 67, 124
1, 44721, Note_off_c, 0, 67, 124
1, 44727, Note_on_c, 0, 58, 102
1, 44968, Note_off_c, 0, 58, 102
1, 45660, Note_on_c, 0, 68, 125
1, 45757, Note_off_c, 0, 68, 125
1, 45777, Note_on_c, 0, 69, 122
1, 45926, Note_off_c, 0, 69, 122
1, 45936, Note_on_c, 0, 67, 118
1, 46056, Note_off_c, 0, 67, 118
1, 46068, Note_on_c, 0, 64, 111
1, 46132, Note_off_c, 0, 64, 111
1, 46144, Note_on_c, 0, 65, 119
1, 46279, Note_off_c, 0, 65, 119
1, 46346, Note_on_c, 0, 55, 119
1, 46420, Note_off_c, 0, 55, 119
1, 46423, Note_on_c, 0, 56, 113
1, 46743, Note_off_c, 0, 56, 113
1, 47217, Note_on_c, 0, 58, 109
1, 47273, Note_off_c, 0, 58, 109
1, 47283, Note_on_c, 0, 60, 124
1, 47407, Note_off_c, 0, 60, 124
1, 47407, Note_on_c, 0, 65, 124
1, 47521, Note_off_c, 0, 65, 124
1, 47523, Note_on_c, 0, 62, 113
1, 47587, Note_off_c, 0, 62, 113
1, 47599, Note_on_c, 0, 64, 108
1, 47667, Note_off_c, 0, 64, 108
1, 47673, Note_on_c, 0, 65, 119
1, 47812, Note_off_c, 0, 65, 119
1, 47812, Note_on_c, 0, 60, 107
1, 47882, Note_off_c, 0, 60, 107
1, 47898, Note_on_c, 0, 64, 121
1, 47964, Note_off_c, 0, 64, 121
1, 47972, Note_on_c, 0, 65, 117
1, 48065, Note_off_c, 0, 65, 117
1, 48069, Note_on_c, 0, 63, 112
1, 48181, Note_off_c, 0, 63, 112
1, 48189, Note_on_c, 0, 60, 112
1, 48272, Note_off_c, 0, 60, 112
1, 48272, Note_on_c, 0, 65, 115
1, 48652, Note_off_c, 0, 65, 115
1, 48656, Note_on_c, 0, 64, 120
1, 48757, Note_off_c, 0, 64, 120
1, 48781, Note_on_c, 0, 60, 104
1, 48855, Note_off_c, 0, 60, 104
1, 48855, Note_on_c, 0, 65, 117
1, 48994, Note_off_c, 0, 65, 117
1, 48994, Note_on_c, 0, 60, 105
1, 49058, Note_off_c, 0, 60, 105
1, 49058, Note_on_c, 0, 64, 120
1, 49153, Note_off_c, 0, 64, 120
1, 49163, Note_on_c, 0, 65, 114
1, 49458, Note_off_c, 0, 65, 114
1, 49472, Note_on_c, 0, 64, 119
1, 49561, Note_off_c, 0, 64, 119
1, 49567, Note_on_c, 0, 60, 105
1, 49641, Note_off_c, 0, 60, 105
1, 49643, Note_on_c, 0, 65, 119
1, 49753, Note_off_c, 0, 65, 119
1, 49753, Note_on_c, 0, 60, 120
1, 49848, Note_off_c, 0, 60, 120
1, 49850, Note_on_c, 0, 55, 109
1, 49945, Note_off_c, 0, 55, 109
1, 49957, Note_on_c, 0, 53, 112
1, 50015, Note_off_c, 0, 53, 112
1, 50035, Note_on_c, 0, 54, 124
1, 50130, Note_off_c, 0, 54, 124
1, 50144, Note_on_c, 0, 57, 122
1, 50223, Note_off_c, 0, 57, 122
1, 50229, Note_on_c, 0, 60, 124
1, 50330, Note_off_c, 0, 60, 124
1, 50336, Note_on_c, 0, 64, 124
1, 50412, Note_off_c, 0, 64, 124
1, 50420, Note_on_c, 0, 63, 126
1, 50524, Note_off_c, 0, 63, 126
1, 50524, Note_on_c, 0, 59, 116
1, 50613, Note_off_c, 0, 59, 116
1, 50621, Note_on_c, 0, 56, 119
1, 50729, Note_off_c, 0, 56, 119
1, 50739, Note_on_c, 0, 54, 107
1, 50820, Note_off_c, 0, 54, 107
1, 50826, Note_on_c, 0, 55, 117
1, 50952, Note_off_c, 0, 55, 117
1, 50991, Note_on_c, 0, 48, 111
1, 51265, Note_off_c, 0, 48, 111
1, 51265, End_track
0, 0, End_of_file
