0, 0, Header, 1, 1, 192
1, 0, Start_track
1, 0, Title_t, "Melody"
1, 0, Tempo, 465116
1, 0, Key_signature, 0, "major"
1, 0, Time_signature, 4, 2, 24, 8
1, 3718, Note_on_c, 0, 52, 82
1, 3800, Note_off_c, 0, 52, 82
1, 3805, Note_on_c, 0, 57, 103
1, 4086, Note_off_c, 0, 57, 103
1, 4097, Note_on_c, 0, 64, 120
1, 4164, Note_off_c, 0, 64, 120
1, 4915, Note_on_c, 0, 52, 105
1, 4964, Note_off_c, 0, 52, 105
1, 4976, Note_on_c, 0, 57, 115
1, 5028, Note_off_c, 0, 57, 115
1, 5035, Note_on_c, 0, 60, 115
1, 5072, Note_off_c, 0, 60, 115
1, 5103, Note_on_c, 0, 52, 104
1, 5162, Note_off_c, 0, 52, 104
1, 5175, Note_on_c, 0, 57, 114
1, 5257, Note_off_c, 0, 57, 114
1, 5269, Note_on_c, 0, 60, 118
1, 5332, Note_off_c, 0, 60, 118
1, 5396, Note_on_c, 0, 56, 109
1, 5607, Note_off_c, 0, 56, 109
1, 5622, Note_on_c, 0, 64, 110
1, 6491, Note_off_c, 0, 64, 110
1, 6602, Note_on_c, 0, 52, 104
1, 6731, Note_off_c, 0, 52, 104
1, 6742, Note_on_c, 0, 56, 103
1, 6780, Note_off_c, 0, 56, 103
1, 6782, Note_on_c, 0, 59, 109
1, 6819, Note_off_c, 0, 59, 109
1, 6828, Note_on_c, 0, 64, 115
1, 6913, Note_off_c, 0, 64, 115
1, 6979, Note_on_c, 0, 55, 108
1, 7042, Note_off_c, 0, 55, 108
1, 7047, Note_on_c, 0, 58, 106
1, 7076, Note_off_c, 0, 58, 106
1, 7084, Note_on_c, 0, 64, 117
1, 7170, Note_off_c, 0, 64, 117
1, 7205, Note_on_c, 0, 64, 91
1, 7562, Note_off_c, 0, 64, 91
1, 7807, Note_on_c, 0, 52, 99
1, 7903, Note_off_c, 0, 52, 99
1, 7913, Note_on_c, 0, 55, 104
1, 7959, Note_off_c, 0, 55, 104
1, 7964, Note_on_c, 0, 58, 113
1, 8025, Note_off_c, 0, 58, 113
1, 8054, Note_on_c, 0, 64, 120
1, 8152, Note_off_c, 0, 64, 120
1, 8190, Note_on_c, 0, 64, 120
1, 8275, Note_off_c, 0, 64, 120
1, 8324, Note_on_c, 0, 64, 119
1, 8406, Note_off_c, 0, 64, 119
1, 8483, Note_on_c, 0, 54, 93
1, 8853, Note_off_c, 0, 54, 93
1, 9164, Note_on_c, 0, 59, 93
1, 9197, Note_off_c, 0, 59, 93
1, 9204, Note_on_c, 0, 60, 89
1, 9254, Note_off_c, 0, 60, 89
1, 9295, Note_on_c, 0, 64, 116
1, 9365, Note_off_c, 0, 64, 116
1, 9417, Note_on_c, 0, 64, 115
1, 9488, Note_off_c, 0, 64, 115
1, 9558, Note_on_c, 0, 64, 95
1, 9824, Note_off_c, 0, 64, 95
1, 10214, Note_on_c, 0, 61, 116
1, 10261, Note_off_c, 0, 61, 116
1, 10270, Note_on_c, 0, 62, 120
1, 10355, Note_off_c, 0, 62, 120
1, 10367, Note_on_c, 0, 64, 122
1, 10507, Note_off_c, 0, 64, 122
1, 10513, Note_on_c, 0, 62, 116
1, 10582, Note_off_c, 0, 62, 116
1, 10592, Note_on_c, 0, 61, 117
1, 10657, Note_off_c, 0, 61, 117
1, 10665, Note_on_c, 0, 62, 116
1, 10745, Note_off_c, 0, 62, 116
1, 10785, Note_on_c, 0, 64, 111
1, 10886, Note_off_c, 0, 64, 111
1, 10900, Note_on_c, 0, 65, 112
1, 11343, Note_off_c, 0, 65, 112
1, 11370, Note_on_c, 0, 64, 112
1, 11425, Note_off_c, 0, 64, 112
1, 11449, Note_on_c, 0, 62, 112
1, 11516, Note_off_c, 0, 62, 112
1, 11559, Note_on_c, 0, 62, 101
1, 11873, Note_off_c, 0, 62, 101
1, 11941, Note_on_c, 0, 58, 107
1, 11991, Note_off_c, 0, 58, 107
1, 12011, Note_on_c, 0, 60, 107
1, 12081, Note_off_c, 0, 60, 107
1, 12087, Note_on_c, 0, 62, 99
1, 12344, Note_off_c, 0, 62, 99
1, 12355, Note_on_c, 0, 58, 106
1, 12437, Note_off_c, 0, 58, 106
1, 12485, Note_on_c, 0, 60, 115
1, 12547, Note_off_c, 0, 60, 115
1, 12553, Note_on_c, 0, 62, 118
1, 12630, Note_off_c, 0, 62, 118
1, 12657, Note_on_c, 0, 67, 93
1, 12928, Note_off_c, 0, 67, 93
1, 12934, Note_on_c, 0, 65, 110
1, 13031, Note_off_c, 0, 65, 110
1, 13037, Note_on_c, 0, 64, 94
1, 13358, Note_off_c, 0, 64, 94
1, 14252, Note_on_c, 0, 61, 118
1, 14292, Note_off_c, 0, 61, 118
1, 14297, Note_on_c, 0, 62, 124
1, 14455, Note_off_c, 0, 62, 124
1, 14459, Note_on_c, 0, 59, 122
1, 14548, Note_off_c, 0, 59, 122
1, 14581, Note_on_c, 0, 61, 120
1, 14612, Note_off_c, 0, 61, 120
1, 14614, Note_on_c, 0, 62, 124
1, 14726, Note_off_c, 0, 62, 124
1, 14737, Note_on_c, 0, 60, 120
1, 14854, Note_off_c, 0, 60, 120
1, 14859, Note_on_c, 0, 57, 109
1, 15871, Note_off_c, 0, 57, 109
1, 16020, Note_on_c, 0, 48, 87
1, 16050, Note_off_c, 0, 48, 87
1, 16107, Note_on_c, 0, 57, 110
1, 16293, Note_off_c, 0, 57, 110
1, 16302, Note_on_c, 0, 60, 114
1, 16485, Note_off_c, 0, 60, 114
1, 16486, Note_on_c, 0, 64, 119
1, 16667, Note_off_c, 0, 64, 119
1, 16679, Note_on_c, 0, 67, 106
1, 16859, Note_off_c, 0, 67, 106
1, 16861, Note_on_c, 0, 69, 108
1, 17036, Note_off_c, 0, 69, 108
1, 17041, Note_on_c, 0, 72, 108
1, 17231, Note_off_c, 0, 72, 108
1, 17741, Note_on_c, 0, 70, 127
1, 17774, Note_off_c, 0, 70, 127
1, 17774, Note_on_c, 0, 72, 121
1, 17934, Note_off_c, 0, 72, 121
1, 17939, Note_on_c, 0, 71, 110
1, 17960, Note_off_c, 0, 71, 110
1, 17965, Note_on_c, 0, 69, 117
1, 18037, Note_off_c, 0, 69, 117
1, 18056, Note_on_c, 0, 74, 119
1, 18144, Note_off_c, 0, 74, 119
1, 18164, Note_on_c, 0, 72, 115
1, 18242, Note_off_c, 0, 72, 115
1, 18278, Note_on_c, 0, 71, 117
1, 18334, Note_off_c, 0, 71, 117
1, 18350, Note_on_c, 0, 69, 104
1, 18403, Note_off_c, 0, 69, 104
1, 18473, Note_on_c, 0, 70, 120
1, 18508, Note_off_c, 0, 70, 120
1, 18511, Note_on_c, 0, 72, 117
1, 18615, Note_off_c, 0, 72, 117
1, 18651, Note_on_c, 0, 63, 101
1, 19045, Note_off_c, 0, 63, 101
1, 19684, Note_on_c, 0, 52, 101
1, 19722, Note_off_c, 0, 52, 101
1, 19727, Note_on_c, 0, 54, 101
1, 19751, Note_off_c, 0, 54, 101
1, 19756, Note_on_c, 0, 55, 107
1, 19799, Note_off_c, 0, 55, 107
1, 19807, Note_on_c, 0, 57, 107
1, 19842, Note_off_c, 0, 57, 107
1, 19848, Note_on_c, 0, 60, 104
1, 19877, Note_off_c, 0, 60, 104
1, 19883, Note_on_c, 0, 61, 112
1, 19918, Note_off_c, 0, 61, 112
1, 19926, Note_on_c, 0, 62, 115
1, 19966, Note_off_c, 0, 62, 115
1, 19971, Note_on_c, 0, 64, 121
1, 20132, Note_off_c, 0, 64, 121
1, 20139, Note_on_c, 0, 62, 110
1, 20236, Note_off_c, 0, 62, 110
1, 20248, Note_on_c, 0, 60, 100
1, 20645, Note_off_c, 0, 60, 100
1, 20650, Note_on_c, 0, 62, 108
1, 20722, Note_off_c, 0, 62, 108
1, 20754, Note_on_c, 0, 64, 118
1, 20809, Note_off_c, 0, 64, 118
1, 20823, Note_on_c, 0, 60, 109
1, 20871, Note_off_c, 0, 60, 109
1, 20886, Note_on_c, 0, 57, 102
1, 21108, Note_off_c, 0, 57, 102
1, 21965, Note_on_c, 0, 74, 124
1, 22016, Note_off_c, 0, 74, 124
1, 22030, Note_on_c, 0, 72, 112
1, 22076, Note_off_c, 0, 72, 112
1, 22082, Note_on_c, 0, 74, 115
1, 22140, Note_off_c, 0, 74, 115
1, 22145, Note_on_c, 0, 72, 112
1, 22187, Note_off_c, 0, 72, 112
1, 22196, Note_on_c, 0, 74, 116
1, 22252, Note_off_c, 0, 74, 116
1, 22259, Note_on_c, 0, 72, 114
1, 22305, Note_off_c, 0, 72, 114
1, 22312, Note_on_c, 0, 74, 117
1, 22367, Note_off_c, 0, 74, 117
1, 22380, Note_on_c, 0, 72, 113
1, 22422, Note_off_c, 0, 72, 113
1, 22431, Note_on_c, 0, 74, 120
1, 22492, Note_off_c, 0, 74, 120
1, 22498, Note_on_c, 0, 72, 111
1, 22546, Note_off_c, 0, 72, 111
1, 22557, Note_on_c, 0, 74, 118
1, 22621, Note_off_c, 0, 74, 118
1, 22628, Note_on_c, 0, 72, 110
1, 22669, Note_off_c, 0, 72, 110
1, 22682, Note_on_c, 0, 74, 119
1, 22738, Note_off_c, 0, 74, 119
1, 22755, Note_on_c, 0, 72, 113
1, 22793, Note_off_c, 0, 72, 113
1, 22804, Note_on_c, 0, 74, 115
1, 22864, Note_off_c, 0, 74, 115
1, 22873, Note_on_c, 0, 72, 112
1, 22917, Note_off_c, 0, 72, 112
1, 22928, Note_on_c, 0, 74, 113
1, 22993, Note_off_c, 0, 74, 113
1, 23000, Note_on_c, 0, 75, 116
1, 23019, Note_off_c, 0, 75, 116
1, 23024, Note_on_c, 0, 74, 119
1, 23087, Note_off_c, 0, 74, 119
1, 23095, Note_on_c, 0, 75, 117
1, 23119, Note_off_c, 0, 75, 117
1, 23126, Note_on_c, 0, 74, 122
1, 23188, Note_off_c, 0, 74, 122
1, 23197, Note_on_c, 0, 73, 116
1, 23219, Note_off_c, 0, 73, 116
1, 23221, Note_on_c, 0, 72, 117
1, 23268, Note_off_c, 0, 72, 117
1, 23271, Note_on_c, 0, 69, 109
1, 23300, Note_off_c, 0, 69, 109
1, 23322, Note_on_c, 0, 72, 114
1, 23506, Note_off_c, 0, 72, 114
1, 23872, Note_on_c, 0, 75, 120
1, 23973, Note_off_c, 0, 75, 120
1, 24004, Note_on_c, 0, 73, 126
1, 24072, Note_off_c, 0, 73, 126
1, 24099, Note_on_c, 0, 71, 119
1, 24158, Note_off_c, 0, 71, 119
1, 24168, Note_on_c, 0, 68, 106
1, 24224, Note_off_c, 0, 68, 106
1, 24232, Note_on_c, 0, 71, 115
1, 24281, Note_off_c, 0, 71, 115
1, 24356, Note_on_c, 0, 75, 115
1, 24407, Note_off_c, 0, 75, 115
1, 24433, Note_on_c, 0, 73, 125
1, 24487, Note_off_c, 0, 73, 125
1, 24543, Note_on_c, 0, 71, 115
1, 24588, Note_off_c, 0, 71, 115
1, 24589, Note_on_c, 0, 68, 110
1, 24630, Note_off_c, 0, 68, 110
1, 24633, Note_on_c, 0, 71, 120
1, 24706, Note_off_c, 0, 71, 120
1, 24711, Note_on_c, 0, 68, 103
1, 24758, Note_off_c, 0, 68, 103
1, 24760, Note_on_c, 0, 71, 119
1, 24810, Note_off_c, 0, 71, 119
1, 24813, Note_on_c, 0, 68, 105
1, 24854, Note_off_c, 0, 68, 105
1, 24855, Note_on_c, 0, 71, 119
1, 24908, Note_off_c, 0, 71, 119
1, 24912, Note_on_c, 0, 73, 123
1, 24983, Note_off_c, 0, 73, 123
1, 24986, Note_on_c, 0, 75, 116
1, 25051, Note_off_c, 0, 75, 116
1, 25055, Note_on_c, 0, 73, 122
1, 25114, Note_off_c, 0, 73, 122
1, 25115, Note_on_c, 0, 71, 112
1, 25292, Note_off_c, 0, 71, 112
1, 25755, Note_on_c, 0, 70, 125
1, 25777, Note_off_c, 0, 70, 125
1, 25780, Note_on_c, 0, 71, 121
1, 25849, Note_off_c, 0, 71, 121
1, 25852, Note_on_c, 0, 72, 122
1, 25882, Note_off_c, 0, 72, 122
1, 25891, Note_on_c, 0, 71, 126
1, 25924, Note_off_c, 0, 71, 126
1, 25928, Note_on_c, 0, 70, 119
1, 26039, Note_off_c, 0, 70, 119
1, 26043, Note_on_c, 0, 71, 121
1, 26124, Note_off_c, 0, 71, 121
1, 26125, Note_on_c, 0, 73, 124
1, 26168, Note_off_c, 0, 73, 124
1, 26168, Note_on_c, 0, 74, 113
1, 26759, Note_off_c, 0, 74, 113
1, 26767, Note_on_c, 0, 71, 117
1, 26843, Note_off_c, 0, 71, 117
1, 26849, Note_on_c, 0, 72, 108
1, 26960, Note_off_c, 0, 72, 108
1, 26970, Note_on_c, 0, 71, 110
1, 27029, Note_off_c, 0, 71, 110
1, 27139, Note_on_c, 0, 69, 112
1, 27219, Note_off_c, 0, 69, 112
1, 27224, Note_on_c, 0, 64, 109
1, 27419, Note_off_c, 0, 64, 109
1, 27424, Note_on_c, 0, 62, 105
1, 27521, Note_off_c, 0, 62, 105
1, 27524, Note_on_c, 0, 60, 108
1, 27583, Note_off_c, 0, 60, 108
1, 27743, Note_on_c, 0, 59, 110
1, 27815, Note_off_c, 0, 59, 110
1, 27829, Note_on_c, 0, 57, 99
1, 28009, Note_off_c, 0, 57, 99
1, 28038, Note_on_c, 0, 52, 105
1, 28082, Note_off_c, 0, 52, 105
1, 28087, Note_on_c, 0, 53, 107
1, 28183, Note_off_c, 0, 53, 107
1, 28221, Note_on_c, 0, 57, 107
1, 28267, Note_off_c, 0, 57, 107
1, 28294, Note_on_c, 0, 60, 118
1, 28365, Note_off_c, 0, 60, 118
1, 28373, Note_on_c, 0, 64, 101
1, 28816, Note_off_c, 0, 64, 101
1, 28816, End_track
0, 0, End_of_file
