0, 0, Header, 1, 1, 192
1, 0, Start_track
1, 0, Title_t, "Melody"
1, 0, Tempo, 247933
1, 0, Key_signature, -2, "major"
1, 0, Time_signature, 4, 2, 24, 8
1, 3032, Note_on_c, 0, 65, 99
1, 3115, Note_off_c, 0, 65, 99
1, 3220, Note_on_c, 0, 69, 96
1, 3319, Note_off_c, 0, 69, 96
1, 3324, Note_on_c, 0, 67, 94
1, 3399, Note_off_c, 0, 67, 94
1, 3432, Note_on_c, 0, 65, 100
1, 3508, Note_off_c, 0, 65, 100
1, 3513, Note_on_c, 0, 62, 103
1, 3592, Note_off_c, 0, 62, 103
1, 3603, Note_on_c, 0, 60, 104
1, 3708, Note_off_c, 0, 60, 104
1, 3721, Note_on_c, 0, 58, 97
1, 3773, Note_off_c, 0, 58, 97
1, 3781, Note_on_c, 0, 60, 101
1, 3883, Note_off_c, 0, 60, 101
1, 3903, Note_on_c, 0, 58, 93
1, 4174, Note_off_c, 0, 58, 93
1, 4588, Note_on_c, 0, 65, 106
1, 4685, Note_off_c, 0, 65, 106
1, 4784, Note_on_c, 0, 68, 98
1, 4879, Note_off_c, 0, 68, 98
1, 4894, Note_on_c, 0, 67, 86
1, 4962, Note_off_c, 0, 67, 86
1, 4973, Note_on_c, 0, 65, 104
1, 5069, Note_off_c, 0, 65, 104
1, 5077, Note_on_c, 0, 62, 107
1, 5152, Note_off_c, 0, 62, 107
1, 5158, Note_on_c, 0, 58, 100
1, 5246, Note_off_c, 0, 58, 100
1, 5291, Note_on_c, 0, 55, 101
1, 5327, Note_off_c, 0, 55, 101
1, 5341, Note_on_c, 0, 64, 107
1, 5439, Note_off_c, 0, 64, 107
1, 5446, Note_on_c, 0, 65, 93
1, 5732, Note_off_c, 0, 65, 93
1, 5747, Note_on_c, 0, 63, 114
1, 5873, Note_off_c, 0, 63, 114
1, 5881, Note_on_c, 0, 65, 100
1, 5931, Note_off_c, 0, 65, 100
1, 5938, Note_on_c, 0, 63, 114
1, 6045, Note_off_c, 0, 63, 114
1, 6056, Note_on_c, 0, 61, 107
1, 6131, Note_off_c, 0, 61, 107
1, 6142, Note_on_c, 0, 58, 91
1, 6243, Note_off_c, 0, 58, 91
1, 6252, Note_on_c, 0, 58, 93
1, 6511, Note_off_c, 0, 58, 93
1, 6824, Note_on_c, 0, 70, 104
1, 6918, Note_off_c, 0, 70, 104
1, 7115, Note_on_c, 0, 69, 105
1, 7224, Note_off_c, 0, 69, 105
1, 7231, Note_on_c, 0, 67, 99
1, 7306, Note_off_c, 0, 67, 99
1, 7310, Note_on_c, 0, 65, 99
1, 7392, Note_off_c, 0, 65, 99
1, 7405, Note_on_c, 0, 63, 111
1, 7506, Note_off_c, 0, 63, 111
1, 7514, Note_on_c, 0, 62, 94
1, 7589, Note_off_c, 0, 62, 94
1, 7601, Note_on_c, 0, 60, 104
1, 7687, Note_off_c, 0, 60, 104
1, 7692, Note_on_c, 0, 59, 94
1, 7779, Note_off_c, 0, 59, 94
1, 7820, Note_on_c, 0, 55, 97
1, 7867, Note_off_c, 0, 55, 97
1, 7874, Note_on_c, 0, 60, 107
1, 7990, Note_off_c, 0, 60, 107
1, 7999, Note_on_c, 0, 61, 108
1, 8065, Note_off_c, 0, 61, 108
1, 8084, Note_on_c, 0, 62, 106
1, 8214, Note_off_c, 0, 62, 106
1, 8220, Note_on_c, 0, 65, 100
1, 8278, Note_off_c, 0, 65, 100
1, 8388, Note_on_c, 0, 65, 81
1, 8663, Note_off_c, 0, 65, 81
1, 9259, Note_on_c, 0, 67, 106
1, 9371, Note_off_c, 0, 67, 106
1, 9373, Note_on_c, 0, 65, 91
1, 9418, Note_off_c, 0, 65, 91
1, 9456, Note_on_c, 0, 62, 110
1, 9548, Note_off_c, 0, 62, 110
1, 9558, Note_on_c, 0, 60, 102
1, 9623, Note_off_c, 0, 60, 102
1, 9636, Note_on_c, 0, 58, 99
1, 9729, Note_off_c, 0, 58, 99
1, 9761, Note_on_c, 0, 53, 100
1, 9798, Note_off_c, 0, 53, 100
1, 9936, Note_on_c, 0, 50, 100
1, 9997, Note_off_c, 0, 50, 100
1, 10015, Note_on_c, 0, 53, 101
1, 10105, Note_off_c, 0, 53, 101
1, 10106, Note_on_c, 0, 58, 93
1, 10404, Note_off_c, 0, 58, 93
1, 11604, Note_on_c, 0, 69, 102
1, 11701, Note_off_c, 0, 69, 102
1, 11704, Note_on_c, 0, 67, 91
1, 11776, Note_off_c, 0, 67, 91
1, 11787, Note_on_c, 0, 65, 103
1, 11877, Note_off_c, 0, 65, 103
1, 11880, Note_on_c, 0, 62, 110
1, 11959, Note_off_c, 0, 62, 110
1, 11964, Note_on_c, 0, 60, 107
1, 12088, Note_off_c, 0, 60, 107
1, 12094, Note_on_c, 0, 58, 99
1, 12160, Note_off_c, 0, 58, 99
1, 12279, Note_on_c, 0, 60, 105
1, 12550, Note_off_c, 0, 60, 105
1, 12562, Note_on_c, 0, 58, 105
1, 12656, Note_off_c, 0, 58, 105
1, 12757, Note_on_c, 0, 60, 110
1, 12864, Note_off_c, 0, 60, 110
1, 12879, Note_on_c, 0, 61, 105
1, 12928, Note_off_c, 0, 61, 105
1, 12953, Note_on_c, 0, 62, 112
1, 13046, Note_off_c, 0, 62, 112
1, 13064, Note_on_c, 0, 60, 105
1, 13297, Note_off_c, 0, 60, 105
1, 13731, Note_on_c, 0, 58, 98
1, 13817, Note_off_c, 0, 58, 98
1, 13820, Note_on_c, 0, 60, 113
1, 13910, Note_off_c, 0, 60, 113
1, 13913, Note_on_c, 0, 63, 113
1, 14011, Note_off_c, 0, 63, 113
1, 14014, Note_on_c, 0, 67, 109
1, 14097, Note_off_c, 0, 67, 109
1, 14100, Note_on_c, 0, 66, 92
1, 14171, Note_off_c, 0, 66, 92
1, 14182, Note_on_c, 0, 64, 116
1, 14269, Note_off_c, 0, 64, 116
1, 14275, Note_on_c, 0, 65, 108
1, 14384, Note_off_c, 0, 65, 108
1, 14390, Note_on_c, 0, 62, 114
1, 14466, Note_off_c, 0, 62, 114
1, 14481, Note_on_c, 0, 58, 108
1, 14561, Note_off_c, 0, 58, 108
1, 14590, Note_on_c, 0, 56, 107
1, 14656, Note_off_c, 0, 56, 107
1, 14667, Note_on_c, 0, 55, 99
1, 14788, Note_off_c, 0, 55, 99
1, 14799, Note_on_c, 0, 56, 96
1, 14858, Note_off_c, 0, 56, 96
1, 14871, Note_on_c, 0, 58, 103
1, 14973, Note_off_c, 0, 58, 103
1, 14980, Note_on_c, 0, 60, 107
1, 15059, Note_off_c, 0, 60, 107
1, 15068, Note_on_c, 0, 61, 101
1, 15154, Note_off_c, 0, 61, 101
1, 15165, Note_on_c, 0, 63, 111
1, 15290, Note_off_c, 0, 63, 111
1, 15365, Note_on_c, 0, 67, 100
1, 15406, Note_off_c, 0, 67, 100
1, 15434, Note_on_c, 0, 72, 113
1, 15566, Note_off_c, 0, 72, 113
1, 15583, Note_on_c, 0, 74, 105
1, 15636, Note_off_c, 0, 74, 105
1, 15643, Note_on_c, 0, 75, 105
1, 15766, Note_off_c, 0, 75, 105
1, 15781, Note_on_c, 0, 72, 94
1, 15815, Note_off_c, 0, 72, 94
1, 15822, Note_on_c, 0, 73, 104
1, 15940, Note_off_c, 0, 73, 104
1, 15957, Note_on_c, 0, 70, 97
1, 16037, Note_off_c, 0, 70, 97
1, 16591, Note_on_c, 0, 74, 113
1, 16693, Note_off_c, 0, 74, 113
1, 16783, Note_on_c, 0, 69, 102
1, 16874, Note_off_c, 0, 69, 102
1, 16888, Note_on_c, 0, 72, 111
1, 16968, Note_off_c, 0, 72, 111
1, 16976, Note_on_c, 0, 70, 104
1, 17075, Note_off_c, 0, 70, 104
1, 17106, Note_on_c, 0, 65, 106
1, 17165, Note_off_c, 0, 65, 106
1, 17168, Note_on_c, 0, 64, 106
1, 17253, Note_off_c, 0, 64, 106
1, 17284, Note_on_c, 0, 63, 116
1, 17371, Note_off_c, 0, 63, 116
1, 17378, Note_on_c, 0, 62, 109
1, 17468, Note_off_c, 0, 62, 109
1, 17480, Note_on_c, 0, 60, 106
1, 17551, Note_off_c, 0, 60, 106
1, 17566, Note_on_c, 0, 59, 93
1, 17665, Note_off_c, 0, 59, 93
1, 17686, Note_on_c, 0, 56, 108
1, 17747, Note_off_c, 0, 56, 108
1, 17774, Note_on_c, 0, 55, 90
1, 17854, Note_off_c, 0, 55, 90
1, 17890, Note_on_c, 0, 58, 104
1, 17945, Note_off_c, 0, 58, 104
1, 17957, Note_on_c, 0, 60, 101
1, 18054, Note_off_c, 0, 60, 101
1, 18064, Note_on_c, 0, 63, 117
1, 18144, Note_off_c, 0, 63, 117
1, 18160, Note_on_c, 0, 67, 104
1, 18240, Note_off_c, 0, 67, 104
1, 18262, Note_on_c, 0, 70, 106
1, 18334, Note_off_c, 0, 70, 106
1, 18480, Note_on_c, 0, 70, 88
1, 18699, Note_off_c, 0, 70, 88
1, 19321, Note_on_c, 0, 69, 109
1, 19428, Note_off_c, 0, 69, 109
1, 19434, Note_on_c, 0, 67, 92
1, 19501, Note_off_c, 0, 67, 92
1, 19517, Note_on_c, 0, 65, 104
1, 19583, Note_off_c, 0, 65, 104
1, 19607, Note_on_c, 0, 62, 113
1, 19674, Note_off_c, 0, 62, 113
1, 19692, Note_on_c, 0, 60, 107
1, 19783, Note_off_c, 0, 60, 107
1, 19814, Note_on_c, 0, 58, 102
1, 19889, Note_off_c, 0, 58, 102
1, 20004, Note_on_c, 0, 55, 96
1, 20166, Note_off_c, 0, 55, 96
1, 20476, Note_on_c, 0, 66, 102
1, 20572, Note_off_c, 0, 66, 102
1, 20578, Note_on_c, 0, 67, 104
1, 21143, Note_off_c, 0, 67, 104
1, 21176, Note_on_c, 0, 65, 99
1, 21213, Note_off_c, 0, 65, 99
1, 21223, Note_on_c, 0, 67, 96
1, 21539, Note_off_c, 0, 67, 96
1, 21554, Note_on_c, 0, 65, 100
1, 21613, Note_off_c, 0, 65, 100
1, 21621, Note_on_c, 0, 68, 104
1, 21731, Note_off_c, 0, 68, 104
1, 21761, Note_on_c, 0, 65, 91
1, 21804, Note_off_c, 0, 65, 91
1, 21814, Note_on_c, 0, 67, 100
1, 22094, Note_off_c, 0, 67, 100
1, 22491, Note_on_c, 0, 64, 113
1, 22567, Note_off_c, 0, 64, 113
1, 22572, Note_on_c, 0, 67, 113
1, 22654, Note_off_c, 0, 67, 113
1, 22674, Note_on_c, 0, 64, 117
1, 22759, Note_off_c, 0, 64, 117
1, 22779, Note_on_c, 0, 65, 95
1, 22845, Note_off_c, 0, 65, 95
1, 22861, Note_on_c, 0, 67, 107
1, 22935, Note_off_c, 0, 67, 107
1, 22946, Note_on_c, 0, 68, 97
1, 23020, Note_off_c, 0, 68, 97
1, 23041, Note_on_c, 0, 70, 104
1, 23126, Note_off_c, 0, 70, 104
1, 23130, Note_on_c, 0, 72, 108
1, 23232, Note_off_c, 0, 72, 108
1, 23258, Note_on_c, 0, 68, 100
1, 23315, Note_off_c, 0, 68, 100
1, 23318, Note_on_c, 0, 71, 99
1, 23558, Note_off_c, 0, 71, 99
1, 24028, Note_on_c, 0, 67, 105
1, 24092, Note_off_c, 0, 67, 105
1, 24099, Note_on_c, 0, 70, 108
1, 24201, Note_off_c, 0, 70, 108
1, 24204, Note_on_c, 0, 68, 111
1, 24289, Note_off_c, 0, 68, 111
1, 24298, Note_on_c, 0, 67, 96
1, 24381, Note_off_c, 0, 67, 96
1, 24394, Note_on_c, 0, 65, 109
1, 24460, Note_off_c, 0, 65, 109
1, 24464, Note_on_c, 0, 63, 116
1, 24577, Note_off_c, 0, 63, 116
1, 24583, Note_on_c, 0, 62, 116
1, 24646, Note_off_c, 0, 62, 116
1, 24660, Note_on_c, 0, 61, 111
1, 24756, Note_off_c, 0, 61, 111
1, 24776, Note_on_c, 0, 63, 121
1, 24857, Note_off_c, 0, 63, 121
1, 24870, Note_on_c, 0, 64, 112
1, 24966, Note_off_c, 0, 64, 112
1, 24980, Note_on_c, 0, 66, 98
1, 25036, Note_off_c, 0, 66, 98
1, 25056, Note_on_c, 0, 67, 93
1, 25142, Note_off_c, 0, 67, 93
1, 25152, Note_on_c, 0, 69, 111
1, 25229, Note_off_c, 0, 69, 111
1, 25255, Note_on_c, 0, 70, 98
1, 25317, Note_off_c, 0, 70, 98
1, 25346, Note_on_c, 0, 72, 106
1, 25425, Note_off_c, 0, 72, 106
1, 25433, Note_on_c, 0, 73, 110
1, 25529, Note_off_c, 0, 73, 110
1, 25540, Note_on_c, 0, 69, 99
1, 25606, Note_off_c, 0, 69, 99
1, 25612, Note_on_c, 0, 70, 100
1, 25715, Note_off_c, 0, 70, 100
1, 25743, Note_on_c, 0, 64, 96
1, 25793, Note_off_c, 0, 64, 96
1, 25803, Note_on_c, 0, 67, 102
1, 25894, Note_off_c, 0, 67, 102
1, 25902, Note_on_c, 0, 63, 114
1, 25983, Note_off_c, 0, 63, 114
1, 25990, Note_on_c, 0, 64, 110
1, 26094, Note_off_c, 0, 64, 110
1, 26100, Note_on_c, 0, 60, 108
1, 26158, Note_off_c, 0, 60, 108
1, 26167, Note_on_c, 0, 61, 108
1, 26281, Note_off_c, 0, 61, 108
1, 26296, Note_on_c, 0, 57, 103
1, 26365, Note_off_c, 0, 57, 103
1, 26387, Note_on_c, 0, 58, 99
1, 26458, Note_off_c, 0, 58, 99
1, 26510, Note_on_c, 0, 54, 103
1, 26557, Note_off_c, 0, 54, 103
1, 26566, Note_on_c, 0, 55, 103
1, 26661, Note_off_c, 0, 55, 103
1, 26692, Note_on_c, 0, 51, 97
1, 26734, Note_off_c, 0, 51, 97
1, 26740, Note_on_c, 0, 52, 100
1, 26826, Note_off_c, 0, 52, 100
1, 26836, Note_on_c, 0, 54, 102
1, 26919, Note_off_c, 0, 54, 102
1, 26931, Note_on_c, 0, 55, 103
1, 27037, Note_off_c, 0, 55, 103
1, 27044, Note_on_c, 0, 57, 107
1, 27128, Note_off_c, 0, 57, 107
1, 27143, Note_on_c, 0, 58, 106
1, 27228, Note_off_c, 0, 58, 106
1, 27248, Note_on_c, 0, 60, 110
1, 27302, Note_off_c, 0, 60, 110
1, 27322, Note_on_c, 0, 61, 106
1, 27415, Note_off_c, 0, 61, 106
1, 27428, Note_on_c, 0, 63, 115
1, 27516, Note_off_c, 0, 63, 115
1, 27531, Note_on_c, 0, 64, 104
1, 27617, Note_off_c, 0, 64, 104
1, 27635, Note_on_c, 0, 66, 96
1, 27679, Note_off_c, 0, 66, 96
1, 27707, Note_on_c, 0, 67, 100
1, 27805, Note_off_c, 0, 67, 100
1, 28391, Note_on_c, 0, 79, 106
1, 28435, Note_off_c, 0, 79, 106
1, 28438, Note_on_c, 0, 83, 105
1, 28484, Note_off_c, 0, 83, 105
1, 28593, Note_on_c, 0, 73, 103
1, 28835, Note_off_c, 0, 73, 103
1, 28848, Note_on_c, 0, 70, 97
1, 29121, Note_off_c, 0, 70, 97
1, 30015, Note_on_c, 0, 79, 107
1, 30071, Note_off_c, 0, 79, 107
1, 30180, Note_on_c, 0, 73, 107
1, 30357, Note_off_c, 0, 73, 107
1, 30374, Note_on_c, 0, 70, 106
1, 30547, Note_off_c, 0, 70, 106
1, 30553, Note_on_c, 0, 67, 96
1, 30743, Note_off_c, 0, 67, 96
1, 30756, Note_on_c, 0, 70, 98
1, 31061, Note_off_c, 0, 70, 98
1, 31064, Note_on_c, 0, 72, 112
1, 31173, Note_off_c, 0, 72, 112
1, 31641, Note_on_c, 0, 79, 108
1, 31735, Note_off_c, 0, 79, 108
1, 31934, Note_on_c, 0, 73, 97
1, 32282, Note_off_c, 0, 73, 97
1, 32319, Note_on_c, 0, 70, 107
1, 32398, Note_off_c, 0, 70, 107
1, 32503, Note_on_c, 0, 68, 111
1, 32599, Note_off_c, 0, 68, 111
1, 32605, Note_on_c, 0, 67, 106
1, 32684, Note_off_c, 0, 67, 106
1, 32691, Note_on_c, 0, 66, 95
1, 32771, Note_off_c, 0, 66, 95
1, 32781, Note_on_c, 0, 62, 107
1, 32860, Note_off_c, 0, 62, 107
1, 32871, Note_on_c, 0, 57, 105
1, 32996, Note_off_c, 0, 57, 105
1, 33006, Note_on_c, 0, 56, 104
1, 33066, Note_off_c, 0, 56, 104
1, 33074, Note_on_c, 0, 55, 98
1, 33168, Note_off_c, 0, 55, 98
1, 33179, Note_on_c, 0, 56, 99
1, 33246, Note_off_c, 0, 56, 99
1, 33275, Note_on_c, 0, 58, 105
1, 33371, Note_off_c, 0, 58, 105
1, 33377, Note_on_c, 0, 60, 111
1, 33453, Note_off_c, 0, 60, 111
1, 33465, Note_on_c, 0, 61, 112
1, 33559, Note_off_c, 0, 61, 112
1, 33568, Note_on_c, 0, 63, 120
1, 33673, Note_off_c, 0, 63, 120
1, 33820, Note_on_c, 0, 72, 103
1, 34071, Note_off_c, 0, 72, 103
1, 34237, Note_on_c, 0, 70, 113
1, 34336, Note_off_c, 0, 70, 113
1, 34352, Note_on_c, 0, 65, 105
1, 34402, Note_off_c, 0, 65, 105
1, 34436, Note_on_c, 0, 61, 105
1, 34524, Note_off_c, 0, 61, 105
1, 34542, Note_on_c, 0, 62, 118
1, 34606, Note_off_c, 0, 62, 118
1, 34620, Note_on_c, 0, 65, 104
1, 34695, Note_off_c, 0, 65, 104
1, 34735, Note_on_c, 0, 70, 111
1, 34812, Note_off_c, 0, 70, 111
1, 34936, Note_on_c, 0, 69, 98
1, 35220, Note_off_c, 0, 69, 98
1, 36553, Note_on_c, 0, 65, 110
1, 36646, Note_off_c, 0, 65, 110
1, 36745, Note_on_c, 0, 70, 116
1, 36833, Note_off_c, 0, 70, 116
1, 36845, Note_on_c, 0, 72, 124
1, 36918, Note_off_c, 0, 72, 124
1, 36936, Note_on_c, 0, 70, 98
1, 37016, Note_off_c, 0, 70, 98
1, 37025, Note_on_c, 0, 67, 110
1, 37100, Note_off_c, 0, 67, 110
1, 37111, Note_on_c, 0, 65, 110
1, 37205, Note_off_c, 0, 65, 110
1, 37216, Note_on_c, 0, 61, 115
1, 37294, Note_off_c, 0, 61, 115
1, 37309, Note_on_c, 0, 62, 113
1, 37407, Note_off_c, 0, 62, 113
1, 37422, Note_on_c, 0, 63, 124
1, 37512, Note_off_c, 0, 63, 124
1, 37518, Note_on_c, 0, 61, 113
1, 37589, Note_off_c, 0, 61, 113
1, 37598, Note_on_c, 0, 62, 117
1, 37668, Note_off_c, 0, 62, 117
1, 37677, Note_on_c, 0, 58, 110
1, 37776, Note_off_c, 0, 58, 110
1, 37788, Note_on_c, 0, 53, 105
1, 37860, Note_off_c, 0, 53, 105
1, 37882, Note_on_c, 0, 50, 98
1, 37974, Note_off_c, 0, 50, 98
1, 37987, Note_on_c, 0, 51, 97
1, 38049, Note_off_c, 0, 51, 97
1, 38066, Note_on_c, 0, 53, 111
1, 38163, Note_off_c, 0, 53, 111
1, 38190, Note_on_c, 0, 49, 98
1, 38275, Note_off_c, 0, 49, 98
1, 38289, Note_on_c, 0, 50, 98
1, 38347, Note_off_c, 0, 50, 98
1, 38365, Note_on_c, 0, 53, 107
1, 38434, Note_off_c, 0, 53, 107
1, 38448, Note_on_c, 0, 58, 101
1, 38689, Note_off_c, 0, 58, 101
1, 39180, Note_on_c, 0, 58, 107
1, 39227, Note_off_c, 0, 58, 107
1, 39230, Note_on_c, 0, 64, 118
1, 39298, Note_off_c, 0, 64, 118
1, 39304, Note_on_c, 0, 67, 120
1, 39333, Note_off_c, 0, 67, 120
1, 39336, Note_on_c, 0, 65, 119
1, 39413, Note_off_c, 0, 65, 119
1, 39417, Note_on_c, 0, 64, 123
1, 39794, Note_off_c, 0, 64, 123
1, 39821, Note_on_c, 0, 63, 122
1, 39919, Note_off_c, 0, 63, 122
1, 39930, Note_on_c, 0, 61, 121
1, 40021, Note_off_c, 0, 61, 121
1, 40104, Note_on_c, 0, 58, 109
1, 40177, Note_off_c, 0, 58, 109
1, 40187, Note_on_c, 0, 55, 110
1, 40296, Note_off_c, 0, 55, 110
1, 40308, Note_on_c, 0, 53, 106
1, 40591, Note_off_c, 0, 53, 106
1, 40882, Note_on_c, 0, 53, 106
1, 40961, Note_off_c, 0, 53, 106
1, 40991, Note_on_c, 0, 58, 112
1, 41066, Note_off_c, 0, 58, 112
1, 41089, Note_on_c, 0, 62, 123
1, 41149, Note_off_c, 0, 62, 123
1, 41169, Note_on_c, 0, 57, 102
1, 41240, Note_off_c, 0, 57, 102
1, 41243, Note_on_c, 0, 60, 118
1, 41344, Note_off_c, 0, 60, 118
1, 41355, Note_on_c, 0, 63, 123
1, 41456, Note_off_c, 0, 63, 123
1, 41461, Note_on_c, 0, 67, 117
1, 41525, Note_off_c, 0, 67, 117
1, 41537, Note_on_c, 0, 65, 116
1, 41630, Note_off_c, 0, 65, 116
1, 41636, Note_on_c, 0, 62, 123
1, 41710, Note_off_c, 0, 62, 123
1, 41715, Note_on_c, 0, 58, 113
1, 41811, Note_off_c, 0, 58, 113
1, 41821, Note_on_c, 0, 57, 115
1, 41907, Note_off_c, 0, 57, 115
1, 41921, Note_on_c, 0, 56, 107
1, 42026, Note_off_c, 0, 56, 107
1, 42206, Note_on_c, 0, 60, 116
1, 42280, Note_off_c, 0, 60, 116
1, 42285, Note_on_c, 0, 63, 116
1, 42313, Note_off_c, 0, 63, 116
1, 42316, Note_on_c, 0, 65, 121
1, 42370, Note_off_c, 0, 65, 121
1, 42374, Note_on_c, 0, 67, 109
1, 42398, Note_off_c, 0, 67, 109
1, 42399, Note_on_c, 0, 65, 120
1, 42465, Note_off_c, 0, 65, 120
1, 42468, Note_on_c, 0, 64, 122
1, 42848, Note_off_c, 0, 64, 122
1, 42857, Note_on_c, 0, 63, 125
1, 42947, Note_off_c, 0, 63, 125
1, 42966, Note_on_c, 0, 61, 118
1, 43081, Note_off_c, 0, 61, 118
1, 43162, Note_on_c, 0, 58, 116
1, 43231, Note_off_c, 0, 58, 116
1, 43240, Note_on_c, 0, 55, 106
1, 43330, Note_off_c, 0, 55, 106
1, 43378, Note_on_c, 0, 50, 100
1, 43424, Note_off_c, 0, 50, 100
1, 43437, Note_on_c, 0, 53, 110
1, 43520, Note_off_c, 0, 53, 110
1, 43545, Note_on_c, 0, 55, 101
1, 43774, Note_off_c, 0, 55, 101
1, 44124, Note_on_c, 0, 53, 108
1, 44202, Note_off_c, 0, 53, 108
1, 44207, Note_on_c, 0, 58, 112
1, 44297, Note_off_c, 0, 58, 112
1, 44305, Note_on_c, 0, 62, 123
1, 44387, Note_off_c, 0, 62, 123
1, 44397, Note_on_c, 0, 57, 103
1, 44479, Note_off_c, 0, 57, 103
1, 44506, Note_on_c, 0, 60, 118
1, 44577, Note_off_c, 0, 60, 118
1, 44584, Note_on_c, 0, 63, 121
1, 44679, Note_off_c, 0, 63, 121
1, 44684, Note_on_c, 0, 67, 117
1, 44756, Note_off_c, 0, 67, 117
1, 44761, Note_on_c, 0, 65, 108
1, 44876, Note_off_c, 0, 65, 108
1, 44883, Note_on_c, 0, 67, 107
1, 44926, Note_off_c, 0, 67, 107
1, 44933, Note_on_c, 0, 70, 114
1, 45023, Note_off_c, 0, 70, 114
1, 45060, Note_on_c, 0, 74, 121
1, 45143, Note_off_c, 0, 74, 121
1, 45155, Note_on_c, 0, 72, 117
1, 45241, Note_off_c, 0, 72, 117
1, 45346, Note_on_c, 0, 73, 121
1, 45440, Note_off_c, 0, 73, 121
1, 45454, Note_on_c, 0, 73, 119
1, 45510, Note_off_c, 0, 73, 119
1, 45520, Note_on_c, 0, 70, 112
1, 45624, Note_off_c, 0, 70, 112
1, 45633, Note_on_c, 0, 73, 108
1, 45716, Note_off_c, 0, 73, 108
1, 45726, Note_on_c, 0, 68, 117
1, 45817, Note_off_c, 0, 68, 117
1, 45821, Note_on_c, 0, 67, 112
1, 45903, Note_off_c, 0, 67, 112
1, 45914, Note_on_c, 0, 65, 111
1, 46006, Note_off_c, 0, 65, 111
1, 46034, Note_on_c, 0, 58, 107
1, 46111, Note_off_c, 0, 58, 107
1, 46135, Note_on_c, 0, 61, 114
1, 46201, Note_off_c, 0, 61, 114
1, 46207, Note_on_c, 0, 60, 115
1, 46273, Note_off_c, 0, 60, 115
1, 46303, Note_on_c, 0, 58, 109
1, 46367, Note_off_c, 0, 58, 109
1, 46397, Note_on_c, 0, 53, 106
1, 46464, Note_off_c, 0, 53, 106
1, 46486, Note_on_c, 0, 56, 111
1, 46591, Note_off_c, 0, 56, 111
1, 46598, Note_on_c, 0, 55, 105
1, 46653, Note_off_c, 0, 55, 105
1, 46673, Note_on_c, 0, 53, 101
1, 46872, Note_off_c, 0, 53, 101
1, 48020, Note_on_c, 0, 70, 127
1, 48141, Note_off_c, 0, 70, 127
1, 48329, Note_on_c, 0, 58, 108
1, 48408, Note_off_c, 0, 58, 108
1, 48419, Note_on_c, 0, 60, 107
1, 48534, Note_off_c, 0, 60, 107
1, 48541, Note_on_c, 0, 62, 121
1, 48608, Note_off_c, 0, 62, 121
1, 48776, Note_on_c, 0, 65, 96
1, 49137, Note_off_c, 0, 65, 96
1, 49169, Note_on_c, 0, 63, 122
1, 49312, Note_off_c, 0, 63, 122
1, 49320, Note_on_c, 0, 65, 100
1, 49343, Note_off_c, 0, 65, 100
1, 49354, Note_on_c, 0, 67, 102
1, 49451, Note_off_c, 0, 67, 102
1, 49466, Note_on_c, 0, 70, 113
1, 49559, Note_off_c, 0, 70, 113
1, 49564, Note_on_c, 0, 69, 115
1, 49652, Note_off_c, 0, 69, 115
1, 49683, Note_on_c, 0, 74, 114
1, 49737, Note_off_c, 0, 74, 114
1, 49853, Note_on_c, 0, 70, 94
1, 50176, Note_off_c, 0, 70, 94
1, 50727, Note_on_c, 0, 70, 114
1, 50810, Note_off_c, 0, 70, 114
1, 50916, Note_on_c, 0, 68, 117
1, 50970, Note_off_c, 0, 68, 117
1, 50979, Note_on_c, 0, 70, 110
1, 51021, Note_off_c, 0, 70, 110
1, 51024, Note_on_c, 0, 68, 115
1, 51074, Note_off_c, 0, 68, 115
1, 51085, Note_on_c, 0, 67, 112
1, 51152, Note_off_c, 0, 67, 112
1, 51158, Note_on_c, 0, 66, 101
1, 51225, Note_off_c, 0, 66, 101
1, 51230, Note_on_c, 0, 62, 113
1, 51298, Note_off_c, 0, 62, 113
1, 51321, Note_on_c, 0, 57, 108
1, 51400, Note_off_c, 0, 57, 108
1, 51409, Note_on_c, 0, 56, 109
1, 51476, Note_off_c, 0, 56, 109
1, 51488, Note_on_c, 0, 55, 104
1, 51557, Note_off_c, 0, 55, 104
1, 51565, Note_on_c, 0, 56, 101
1, 51621, Note_off_c, 0, 56, 101
1, 51629, Note_on_c, 0, 57, 110
1, 51681, Note_off_c, 0, 57, 110
1, 51688, Note_on_c, 0, 58, 109
1, 51781, Note_off_c, 0, 58, 109
1, 51789, Note_on_c, 0, 60, 118
1, 51845, Note_off_c, 0, 60, 118
1, 51852, Note_on_c, 0, 61, 114
1, 51946, Note_off_c, 0, 61, 114
1, 51957, Note_on_c, 0, 63, 121
1, 52065, Note_off_c, 0, 63, 121
1, 52070, Note_on_c, 0, 65, 100
1, 52147, Note_off_c, 0, 65, 100
1, 52159, Note_on_c, 0, 67, 106
1, 52226, Note_off_c, 0, 67, 106
1, 52235, Note_on_c, 0, 72, 117
1, 52332, Note_off_c, 0, 72, 117
1, 52336, Note_on_c, 0, 73, 115
1, 52379, Note_off_c, 0, 73, 115
1, 52382, Note_on_c, 0, 74, 112
1, 52418, Note_off_c, 0, 74, 112
1, 52423, Note_on_c, 0, 75, 114
1, 52516, Note_off_c, 0, 75, 114
1, 52549, Note_on_c, 0, 72, 98
1, 52600, Note_off_c, 0, 72, 98
1, 52605, Note_on_c, 0, 73, 117
1, 52728, Note_off_c, 0, 73, 117
1, 52744, Note_on_c, 0, 70, 112
1, 52815, Note_off_c, 0, 70, 112
1, 52937, Note_on_c, 0, 74, 100
1, 53211, Note_off_c, 0, 74, 100
1, 53226, Note_on_c, 0, 69, 95
1, 53305, Note_off_c, 0, 69, 95
1, 53308, Note_on_c, 0, 72, 113
1, 53387, Note_off_c, 0, 72, 113
1, 53394, Note_on_c, 0, 70, 108
1, 53482, Note_off_c, 0, 70, 108
1, 53520, Note_on_c, 0, 65, 112
1, 53563, Note_off_c, 0, 65, 112
1, 53569, Note_on_c, 0, 64, 114
1, 53665, Note_off_c, 0, 64, 114
1, 53701, Note_on_c, 0, 63, 122
1, 53771, Note_off_c, 0, 63, 122
1, 53778, Note_on_c, 0, 62, 114
1, 53874, Note_off_c, 0, 62, 114
1, 53889, Note_on_c, 0, 60, 108
1, 53950, Note_off_c, 0, 60, 108
1, 53963, Note_on_c, 0, 57, 99
1, 54044, Note_off_c, 0, 57, 99
1, 54082, Note_on_c, 0, 58, 107
1, 54160, Note_off_c, 0, 58, 107
1, 54171, Note_on_c, 0, 59, 109
1, 54242, Note_off_c, 0, 59, 109
1, 54281, Note_on_c, 0, 55, 105
1, 54344, Note_off_c, 0, 55, 105
1, 54353, Note_on_c, 0, 56, 105
1, 54426, Note_off_c, 0, 56, 105
1, 54445, Note_on_c, 0, 54, 104
1, 54511, Note_off_c, 0, 54, 104
1, 54528, Note_on_c, 0, 55, 103
1, 54608, Note_off_c, 0, 55, 103
1, 54624, Note_on_c, 0, 62, 118
1, 54709, Note_off_c, 0, 62, 118
1, 54715, Note_on_c, 0, 58, 104
1, 54789, Note_off_c, 0, 58, 104
1, 54901, Note_on_c, 0, 62, 104
1, 55159, Note_off_c, 0, 62, 104
1, 55674, Note_on_c, 0, 60, 112
1, 55793, Note_off_c, 0, 60, 112
1, 55804, Note_on_c, 0, 62, 119
1, 55893, Note_off_c, 0, 62, 119
1, 55975, Note_on_c, 0, 58, 106
1, 56046, Note_off_c, 0, 58, 106
1, 56059, Note_on_c, 0, 55, 105
1, 56141, Note_off_c, 0, 55, 105
1, 56167, Note_on_c, 0, 58, 99
1, 56374, Note_off_c, 0, 58, 99
1, 57526, Note_on_c, 0, 53, 110
1, 57604, Note_off_c, 0, 53, 110
1, 57728, Note_on_c, 0, 50, 105
1, 57783, Note_off_c, 0, 50, 105
1, 57802, Note_on_c, 0, 53, 114
1, 57906, Note_off_c, 0, 53, 114
1, 57923, Note_on_c, 0, 50, 106
1, 57983, Note_off_c, 0, 50, 106
1, 57991, Note_on_c, 0, 51, 102
1, 58082, Note_off_c, 0, 51, 102
1, 58097, Note_on_c, 0, 55, 109
1, 58183, Note_off_c, 0, 55, 109
1, 58195, Note_on_c, 0, 58, 115
1, 58292, Note_off_c, 0, 58, 115
1, 58323, Note_on_c, 0, 55, 116
1, 58373, Note_off_c, 0, 55, 116
1, 58384, Note_on_c, 0, 56, 113
1, 58450, Note_off_c, 0, 56, 113
1, 58486, Note_on_c, 0, 60, 119
1, 58538, Note_off_c, 0, 60, 119
1, 58558, Note_on_c, 0, 63, 125
1, 58656, Note_off_c, 0, 63, 125
1, 58666, Note_on_c, 0, 60, 116
1, 58737, Note_off_c, 0, 60, 116
1, 58744, Note_on_c, 0, 61, 111
1, 58854, Note_off_c, 0, 61, 111
1, 58873, Note_on_c, 0, 65, 101
1, 58936, Note_off_c, 0, 65, 101
1, 58951, Note_on_c, 0, 68, 120
1, 59033, Note_off_c, 0, 68, 120
1, 59054, Note_on_c, 0, 65, 112
1, 59127, Note_off_c, 0, 65, 112
1, 59130, Note_on_c, 0, 66, 94
1, 59212, Note_off_c, 0, 66, 94
1, 59237, Note_on_c, 0, 70, 111
1, 59305, Note_off_c, 0, 70, 111
1, 59310, Note_on_c, 0, 73, 120
1, 59411, Note_off_c, 0, 73, 120
1, 59431, Note_on_c, 0, 70, 98
1, 59498, Note_off_c, 0, 70, 98
1, 59521, Note_on_c, 0, 74, 118
1, 59622, Note_off_c, 0, 74, 118
1, 59635, Note_on_c, 0, 75, 115
1, 59717, Note_off_c, 0, 75, 115
1, 59738, Note_on_c, 0, 74, 104
1, 59803, Note_off_c, 0, 74, 104
1, 59811, Note_on_c, 0, 72, 118
1, 59882, Note_off_c, 0, 72, 118
1, 59890, Note_on_c, 0, 70, 111
1, 59995, Note_off_c, 0, 70, 111
1, 60009, Note_on_c, 0, 69, 115
1, 60089, Note_off_c, 0, 69, 115
1, 60099, Note_on_c, 0, 68, 106
1, 60199, Note_off_c, 0, 68, 106
1, 60208, Note_on_c, 0, 67, 108
1, 60278, Note_off_c, 0, 67, 108
1, 60289, Note_on_c, 0, 66, 97
1, 60396, Note_off_c, 0, 66, 97
1, 60411, Note_on_c, 0, 62, 117
1, 60468, Note_off_c, 0, 62, 117
1, 60476, Note_on_c, 0, 57, 111
1, 60568, Note_off_c, 0, 57, 111
1, 60578, Note_on_c, 0, 56, 111
1, 60636, Note_off_c, 0, 56, 111
1, 60650, Note_on_c, 0, 55, 110
1, 60721, Note_off_c, 0, 55, 110
1, 60739, Note_on_c, 0, 56, 106
1, 60786, Note_off_c, 0, 56, 106
1, 60797, Note_on_c, 0, 57, 112
1, 60858, Note_off_c, 0, 57, 112
1, 60868, Note_on_c, 0, 58, 112
1, 60951, Note_off_c, 0, 58, 112
1, 60961, Note_on_c, 0, 60, 120
1, 61038, Note_off_c, 0, 60, 120
1, 61041, Note_on_c, 0, 61, 112
1, 61139, Note_off_c, 0, 61, 112
1, 61147, Note_on_c, 0, 63, 123
1, 61243, Note_off_c, 0, 63, 123
1, 61253, Note_on_c, 0, 65, 109
1, 61328, Note_off_c, 0, 65, 109
1, 61343, Note_on_c, 0, 67, 102
1, 61410, Note_off_c, 0, 67, 102
1, 61417, Note_on_c, 0, 72, 108
1, 61700, Note_off_c, 0, 72, 108
1, 61707, Note_on_c, 0, 70, 118
1, 61819, Note_off_c, 0, 70, 118
1, 62132, Note_on_c, 0, 69, 113
1, 62212, Note_off_c, 0, 69, 113
1, 62305, Note_on_c, 0, 67, 103
1, 62574, Note_off_c, 0, 67, 103
1, 62588, Note_on_c, 0, 65, 110
1, 62686, Note_off_c, 0, 65, 110
1, 62692, Note_on_c, 0, 63, 122
1, 62790, Note_off_c, 0, 63, 122
1, 62796, Note_on_c, 0, 62, 110
1, 62879, Note_off_c, 0, 62, 110
1, 62890, Note_on_c, 0, 60, 110
1, 62949, Note_off_c, 0, 60, 110
1, 62959, Note_on_c, 0, 59, 99
1, 63224, Note_off_c, 0, 59, 99
1, 63266, Note_on_c, 0, 67, 118
1, 63343, Note_off_c, 0, 67, 118
1, 63733, Note_on_c, 0, 70, 122
1, 63816, Note_off_c, 0, 70, 122
1, 63842, Note_on_c, 0, 65, 107
1, 63882, Note_off_c, 0, 65, 107
1, 63893, Note_on_c, 0, 67, 97
1, 64006, Note_off_c, 0, 67, 97
1, 64023, Note_on_c, 0, 70, 119
1, 64098, Note_off_c, 0, 70, 119
1, 64106, Note_on_c, 0, 67, 107
1, 64215, Note_off_c, 0, 67, 107
1, 64220, Note_on_c, 0, 65, 114
1, 64296, Note_off_c, 0, 65, 114
1, 64306, Note_on_c, 0, 62, 116
1, 64384, Note_off_c, 0, 62, 116
1, 64427, Note_on_c, 0, 60, 107
1, 64483, Note_off_c, 0, 60, 107
1, 64497, Note_on_c, 0, 58, 107
1, 64574, Note_off_c, 0, 58, 107
1, 64592, Note_on_c, 0, 53, 107
1, 64661, Note_off_c, 0, 53, 107
1, 64790, Note_on_c, 0, 50, 99
1, 64846, Note_off_c, 0, 50, 99
1, 64857, Note_on_c, 0, 53, 102
1, 64985, Note_off_c, 0, 53, 102
1, 65233, Note_on_c, 0, 58, 110
1, 65340, Note_off_c, 0, 58, 110
1, 65361, Note_on_c, 0, 58, 100
1, 65520, Note_off_c, 0, 58, 100
1, 66515, Note_on_c, 0, 70, 110
1, 66563, Note_off_c, 0, 70, 110
1, 66598, Note_on_c, 0, 70, 109
1, 66660, Note_off_c, 0, 70, 109
1, 66693, Note_on_c, 0, 70, 114
1, 66745, Note_off_c, 0, 70, 114
1, 66782, Note_on_c, 0, 70, 100
1, 67140, Note_off_c, 0, 70, 100
1, 67157, Note_on_c, 0, 67, 118
1, 67245, Note_off_c, 0, 67, 118
1, 67260, Note_on_c, 0, 70, 117
1, 67384, Note_off_c, 0, 70, 117
1, 68028, Note_on_c, 0, 70, 111
1, 68080, Note_off_c, 0, 70, 111
1, 68108, Note_on_c, 0, 70, 107
1, 68169, Note_off_c, 0, 70, 107
1, 68214, Note_on_c, 0, 70, 107
1, 68294, Note_off_c, 0, 70, 107
1, 68312, Note_on_c, 0, 70, 102
1, 68637, Note_off_c, 0, 70, 102
1, 68660, Note_on_c, 0, 74, 118
1, 68783, Note_off_c, 0, 74, 118
1, 68813, Note_on_c, 0, 70, 118
1, 68893, Note_off_c, 0, 70, 118
1, 69708, Note_on_c, 0, 75, 108
1, 69799, Note_off_c, 0, 75, 108
1, 69895, Note_on_c, 0, 70, 103
1, 69985, Note_off_c, 0, 70, 103
1, 70083, Note_on_c, 0, 76, 115
1, 70192, Note_off_c, 0, 76, 115
1, 70282, Note_on_c, 0, 70, 99
1, 70370, Note_off_c, 0, 70, 99
1, 70496, Note_on_c, 0, 77, 111
1, 70601, Note_off_c, 0, 77, 111
1, 70671, Note_on_c, 0, 76, 115
1, 70762, Note_off_c, 0, 76, 115
1, 70858, Note_on_c, 0, 75, 109
1, 70941, Note_off_c, 0, 75, 109
1, 71034, Note_on_c, 0, 73, 113
1, 71106, Note_off_c, 0, 73, 113
1, 71134, Note_on_c, 0, 70, 95
1, 71209, Note_off_c, 0, 70, 95
1, 71229, Note_on_c, 0, 70, 109
1, 71297, Note_off_c, 0, 70, 109
1, 71417, Note_on_c, 0, 65, 107
1, 71500, Note_off_c, 0, 65, 107
1, 71617, Note_on_c, 0, 68, 115
1, 71707, Note_off_c, 0, 68, 115
1, 71802, Note_on_c, 0, 67, 115
1, 71886, Note_off_c, 0, 67, 115
1, 71997, Note_on_c, 0, 65, 111
1, 72078, Note_off_c, 0, 65, 111
1, 72189, Note_on_c, 0, 58, 102
1, 72239, Note_off_c, 0, 58, 102
1, 72255, Note_on_c, 0, 64, 112
1, 72329, Note_off_c, 0, 64, 112
1, 72340, Note_on_c, 0, 66, 99
1, 72375, Note_off_c, 0, 66, 99
1, 72378, Note_on_c, 0, 65, 106
1, 72443, Note_off_c, 0, 65, 106
1, 72450, Note_on_c, 0, 64, 116
1, 72534, Note_off_c, 0, 64, 116
1, 72582, Note_on_c, 0, 61, 113
1, 72630, Note_off_c, 0, 61, 113
1, 72648, Note_on_c, 0, 58, 110
1, 72730, Note_off_c, 0, 58, 110
1, 72835, Note_on_c, 0, 63, 125
1, 72955, Note_off_c, 0, 63, 125
1, 72964, Note_on_c, 0, 65, 115
1, 73022, Note_off_c, 0, 65, 115
1, 73032, Note_on_c, 0, 63, 120
1, 73133, Note_off_c, 0, 63, 120
1, 73138, Note_on_c, 0, 61, 119
1, 73204, Note_off_c, 0, 61, 119
1, 73218, Note_on_c, 0, 58, 114
1, 73302, Note_off_c, 0, 58, 114
1, 73327, Note_on_c, 0, 53, 113
1, 73398, Note_off_c, 0, 53, 113
1, 73423, Note_on_c, 0, 49, 109
1, 73510, Note_off_c, 0, 49, 109
1, 73521, Note_on_c, 0, 50, 111
1, 73598, Note_off_c, 0, 50, 111
1, 73612, Note_on_c, 0, 53, 117
1, 73679, Note_off_c, 0, 53, 117
1, 73718, Note_on_c, 0, 49, 113
1, 73785, Note_off_c, 0, 49, 113
1, 73797, Note_on_c, 0, 50, 99
1, 73874, Note_off_c, 0, 50, 99
1, 73900, Note_on_c, 0, 53, 104
1, 73966, Note_off_c, 0, 53, 104
1, 73976, Note_on_c, 0, 58, 107
1, 74069, Note_off_c, 0, 58, 107
1, 74089, Note_on_c, 0, 60, 107
1, 74219, Note_off_c, 0, 60, 107
1, 74226, Note_on_c, 0, 62, 114
1, 74349, Note_off_c, 0, 62, 114
1, 74369, Note_on_c, 0, 58, 102
1, 74647, Note_off_c, 0, 58, 102
1, 75864, Note_on_c, 0, 71, 111
1, 76117, Note_off_c, 0, 71, 111
1, 76125, Note_on_c, 0, 72, 118
1, 76574, Note_off_c, 0, 72, 118
1, 76608, Note_on_c, 0, 60, 108
1, 76698, Note_off_c, 0, 60, 108
1, 76718, Note_on_c, 0, 72, 111
1, 76895, Note_off_c, 0, 72, 111
1, 76908, Note_on_c, 0, 71, 110
1, 76992, Note_off_c, 0, 71, 110
1, 77006, Note_on_c, 0, 72, 113
1, 77421, Note_off_c, 0, 72, 113
1, 77443, Note_on_c, 0, 70, 112
1, 77596, Note_off_c, 0, 70, 112
1, 77608, Note_on_c, 0, 72, 116
1, 77821, Note_off_c, 0, 72, 116
1, 77832, Note_on_c, 0, 70, 111
1, 77931, Note_off_c, 0, 70, 111
1, 77944, Note_on_c, 0, 65, 109
1, 77999, Note_off_c, 0, 65, 109
1, 78004, Note_on_c, 0, 61, 105
1, 78093, Note_off_c, 0, 61, 105
1, 78099, Note_on_c, 0, 62, 114
1, 78169, Note_off_c, 0, 62, 114
1, 78178, Note_on_c, 0, 65, 107
1, 78281, Note_off_c, 0, 65, 107
1, 78297, Note_on_c, 0, 70, 104
1, 78554, Note_off_c, 0, 70, 104
1, 78956, Note_on_c, 0, 72, 113
1, 79052, Note_off_c, 0, 72, 113
1, 79132, Note_on_c, 0, 75, 115
1, 79236, Note_off_c, 0, 75, 115
1, 79326, Note_on_c, 0, 72, 118
1, 79420, Note_off_c, 0, 72, 118
1, 79449, Note_on_c, 0, 70, 112
1, 79523, Note_off_c, 0, 70, 112
1, 79625, Note_on_c, 0, 67, 111
1, 79716, Note_off_c, 0, 67, 111
1, 79804, Note_on_c, 0, 60, 112
1, 79879, Note_off_c, 0, 60, 112
1, 79892, Note_on_c, 0, 65, 104
1, 79950, Note_off_c, 0, 65, 104
1, 80007, Note_on_c, 0, 65, 113
1, 80072, Note_off_c, 0, 65, 113
1, 80077, Note_on_c, 0, 64, 119
1, 80170, Note_off_c, 0, 64, 119
1, 80180, Note_on_c, 0, 61, 113
1, 80240, Note_off_c, 0, 61, 113
1, 80251, Note_on_c, 0, 58, 106
1, 80320, Note_off_c, 0, 58, 106
1, 80363, Note_on_c, 0, 55, 105
1, 80424, Note_off_c, 0, 55, 105
1, 80439, Note_on_c, 0, 61, 114
1, 80546, Note_off_c, 0, 61, 114
1, 80555, Note_on_c, 0, 62, 120
1, 80646, Note_off_c, 0, 62, 120
1, 80650, Note_on_c, 0, 63, 115
1, 80743, Note_off_c, 0, 63, 115
1, 80747, Note_on_c, 0, 64, 114
1, 80835, Note_off_c, 0, 64, 114
1, 80840, Note_on_c, 0, 65, 113
1, 80918, Note_off_c, 0, 65, 113
1, 80919, Note_on_c, 0, 64, 118
1, 81016, Note_off_c, 0, 64, 118
1, 81025, Note_on_c, 0, 65, 104
1, 81103, Note_off_c, 0, 65, 104
1, 81115, Note_on_c, 0, 67, 112
1, 81198, Note_off_c, 0, 67, 112
1, 81199, Note_on_c, 0, 68, 119
1, 81281, Note_off_c, 0, 68, 119
1, 81299, Note_on_c, 0, 62, 113
1, 81393, Note_off_c, 0, 62, 113
1, 81402, Note_on_c, 0, 63, 116
1, 81487, Note_off_c, 0, 63, 116
1, 81495, Note_on_c, 0, 64, 117
1, 81574, Note_off_c, 0, 64, 117
1, 81577, Note_on_c, 0, 67, 109
1, 81671, Note_off_c, 0, 67, 109
1, 81697, Note_on_c, 0, 62, 115
1, 81766, Note_off_c, 0, 62, 115
1, 81781, Note_on_c, 0, 63, 99
1, 81842, Note_off_c, 0, 63, 99
1, 81877, Note_on_c, 0, 65, 112
1, 81952, Note_off_c, 0, 65, 112
1, 81960, Note_on_c, 0, 64, 119
1, 82051, Note_off_c, 0, 64, 119
1, 82060, Note_on_c, 0, 65, 110
1, 82126, Note_off_c, 0, 65, 110
1, 82136, Note_on_c, 0, 61, 110
1, 82244, Note_off_c, 0, 61, 110
1, 82251, Note_on_c, 0, 62, 115
1, 82311, Note_off_c, 0, 62, 115
1, 82329, Note_on_c, 0, 58, 107
1, 82428, Note_off_c, 0, 58, 107
1, 82433, Note_on_c, 0, 53, 108
1, 82509, Note_off_c, 0, 53, 108
1, 83347, Note_on_c, 0, 57, 103
1, 83657, Note_off_c, 0, 57, 103
1, 83667, Note_on_c, 0, 58, 108
1, 83847, Note_off_c, 0, 58, 108
1, 83860, Note_on_c, 0, 63, 123
1, 83942, Note_off_c, 0, 63, 123
1, 83946, Note_on_c, 0, 64, 120
1, 84034, Note_off_c, 0, 64, 120
1, 84039, Note_on_c, 0, 63, 123
1, 84139, Note_off_c, 0, 63, 123
1, 84240, Note_on_c, 0, 61, 115
1, 84402, Note_off_c, 0, 61, 115
1, 84418, Note_on_c, 0, 58, 111
1, 84509, Note_off_c, 0, 58, 111
1, 84525, Note_on_c, 0, 56, 105
1, 85154, Note_off_c, 0, 56, 105
1, 85192, Note_on_c, 0, 58, 112
1, 85291, Note_off_c, 0, 58, 112
1, 85371, Note_on_c, 0, 56, 109
1, 85579, Note_off_c, 0, 56, 109
1, 85582, Note_on_c, 0, 58, 112
1, 85661, Note_off_c, 0, 58, 112
1, 85868, Note_on_c, 0, 65, 113
1, 85927, Note_off_c, 0, 65, 113
1, 85934, Note_on_c, 0, 63, 118
1, 86027, Note_off_c, 0, 63, 118
1, 86081, Note_on_c, 0, 58, 104
1, 86132, Note_off_c, 0, 58, 104
1, 86136, Note_on_c, 0, 61, 105
1, 86323, Note_off_c, 0, 61, 105
1, 86334, Note_on_c, 0, 63, 117
1, 86415, Note_off_c, 0, 63, 117
1, 86644, Note_on_c, 0, 58, 110
1, 86729, Note_off_c, 0, 58, 110
1, 86737, Note_on_c, 0, 56, 111
1, 86821, Note_off_c, 0, 56, 111
1, 86828, Note_on_c, 0, 53, 102
1, 86881, Note_off_c, 0, 53, 102
1, 86889, Note_on_c, 0, 56, 107
1, 87054, Note_off_c, 0, 56, 107
1, 87069, Note_on_c, 0, 58, 109
1, 87122, Note_off_c, 0, 58, 109
1, 87630, Note_on_c, 0, 67, 114
1, 87744, Note_off_c, 0, 67, 114
1, 87747, Note_on_c, 0, 68, 109
1, 87811, Note_off_c, 0, 68, 109
1, 87819, Note_on_c, 0, 67, 99
1, 87919, Note_off_c, 0, 67, 99
1, 87920, Note_on_c, 0, 66, 109
1, 87991, Note_off_c, 0, 66, 109
1, 87996, Note_on_c, 0, 65, 111
1, 88101, Note_off_c, 0, 65, 111
1, 88110, Note_on_c, 0, 64, 112
1, 88178, Note_off_c, 0, 64, 112
1, 88185, Note_on_c, 0, 62, 113
1, 88217, Note_off_c, 0, 62, 113
1, 88222, Note_on_c, 0, 63, 115
1, 88298, Note_off_c, 0, 63, 115
1, 88303, Note_on_c, 0, 62, 115
1, 88379, Note_off_c, 0, 62, 115
1, 88383, Note_on_c, 0, 61, 109
1, 88476, Note_off_c, 0, 61, 109
1, 88488, Note_on_c, 0, 63, 116
1, 88573, Note_off_c, 0, 63, 116
1, 88576, Note_on_c, 0, 60, 111
1, 88670, Note_off_c, 0, 60, 111
1, 88680, Note_on_c, 0, 61, 115
1, 88762, Note_off_c, 0, 61, 115
1, 88765, Note_on_c, 0, 58, 110
1, 88867, Note_off_c, 0, 58, 110
1, 88872, Note_on_c, 0, 54, 105
1, 88964, Note_off_c, 0, 54, 105
1, 88970, Note_on_c, 0, 53, 107
1, 89048, Note_off_c, 0, 53, 107
1, 89053, Note_on_c, 0, 51, 107
1, 89141, Note_off_c, 0, 51, 107
1, 89150, Note_on_c, 0, 49, 103
1, 89255, Note_off_c, 0, 49, 103
1, 89267, Note_on_c, 0, 53, 103
1, 89335, Note_off_c, 0, 53, 103
1, 89342, Note_on_c, 0, 55, 105
1, 89450, Note_off_c, 0, 55, 105
1, 89462, Note_on_c, 0, 58, 101
1, 89706, Note_off_c, 0, 58, 101
1, 89713, Note_on_c, 0, 61, 115
1, 89818, Note_off_c, 0, 61, 115
1, 89915, Note_on_c, 0, 64, 105
1, 90073, Note_off_c, 0, 64, 105
1, 90080, Note_on_c, 0, 65, 108
1, 90174, Note_off_c, 0, 65, 108
1, 90749, Note_on_c, 0, 64, 110
1, 90843, Note_off_c, 0, 64, 110
1, 90854, Note_on_c, 0, 65, 99
1, 90931, Note_off_c, 0, 65, 99
1, 90940, Note_on_c, 0, 67, 102
1, 91013, Note_off_c, 0, 67, 102
1, 91018, Note_on_c, 0, 68, 105
1, 91117, Note_off_c, 0, 68, 105
1, 91145, Note_on_c, 0, 63, 104
1, 91201, Note_off_c, 0, 63, 104
1, 91208, Note_on_c, 0, 64, 101
1, 91296, Note_off_c, 0, 64, 101
1, 91301, Note_on_c, 0, 67, 107
1, 91386, Note_off_c, 0, 67, 107
1, 91403, Note_on_c, 0, 65, 107
1, 91489, Note_off_c, 0, 65, 107
1, 91493, Note_on_c, 0, 61, 109
1, 91585, Note_off_c, 0, 61, 109
1, 91590, Note_on_c, 0, 62, 108
1, 91684, Note_off_c, 0, 62, 108
1, 91692, Note_on_c, 0, 63, 114
1, 91752, Note_off_c, 0, 63, 114
1, 91759, Note_on_c, 0, 61, 111
1, 91859, Note_off_c, 0, 61, 111
1, 91867, Note_on_c, 0, 62, 113
1, 91928, Note_off_c, 0, 62, 113
1, 91960, Note_on_c, 0, 58, 109
1, 92034, Note_off_c, 0, 58, 109
1, 92073, Note_on_c, 0, 53, 108
1, 92138, Note_off_c, 0, 53, 108
1, 92141, Note_on_c, 0, 49, 99
1, 92226, Note_off_c, 0, 49, 99
1, 92287, Note_on_c, 0, 50, 105
1, 92357, Note_off_c, 0, 50, 105
1, 92362, Note_on_c, 0, 51, 104
1, 92430, Note_off_c, 0, 51, 104
1, 92439, Note_on_c, 0, 52, 107
1, 92510, Note_off_c, 0, 52, 107
1, 92525, Note_on_c, 0, 53, 104
1, 92599, Note_off_c, 0, 53, 104
1, 92621, Note_on_c, 0, 49, 100
1, 92685, Note_off_c, 0, 49, 100
1, 92696, Note_on_c, 0, 50, 101
1, 92812, Note_off_c, 0, 50, 101
1, 92819, Note_on_c, 0, 53, 105
1, 92862, Note_off_c, 0, 53, 105
1, 92879, Note_on_c, 0, 46, 114
1, 93003, Note_off_c, 0, 46, 114
1, 93014, Note_on_c, 0, 46, 108
1, 93110, Note_off_c, 0, 46, 108
1, 94829, Note_on_c, 0, 58, 87
1, 95485, Note_off_c, 0, 58, 87
1, 95550, Note_on_c, 0, 62, 108
1, 95728, Note_off_c, 0, 62, 108
1, 95737, Note_on_c, 0, 63, 94
1, 95815, Note_off_c, 0, 63, 94
1, 95911, Note_on_c, 0, 62, 107
1, 95978, Note_off_c, 0, 62, 107
1, 96039, Note_on_c, 0, 58, 102
1, 96081, Note_off_c, 0, 58, 102
1, 96205, Note_on_c, 0, 56, 92
1, 96461, Note_off_c, 0, 56, 92
1, 97086, Note_on_c, 0, 55, 101
1, 97179, Note_off_c, 0, 55, 101
1, 97270, Note_on_c, 0, 56, 98
1, 97328, Note_off_c, 0, 56, 98
1, 97432, Note_on_c, 0, 57, 104
1, 97547, Note_off_c, 0, 57, 104
1, 97588, Note_on_c, 0, 58, 92
1, 97643, Note_off_c, 0, 58, 92
1, 97725, Note_on_c, 0, 65, 106
1, 97835, Note_off_c, 0, 65, 106
1, 97908, Note_on_c, 0, 65, 106
1, 98025, Note_off_c, 0, 65, 106
1, 98093, Note_on_c, 0, 63, 107
1, 98187, Note_off_c, 0, 63, 107
1, 98195, Note_on_c, 0, 65, 99
1, 98289, Note_off_c, 0, 65, 99
1, 98295, Note_on_c, 0, 63, 111
1, 98395, Note_off_c, 0, 63, 111
1, 98471, Note_on_c, 0, 52, 103
1, 98561, Note_off_c, 0, 52, 103
1, 98651, Note_on_c, 0, 53, 104
1, 98745, Note_off_c, 0, 53, 104
1, 98843, Note_on_c, 0, 55, 107
1, 98936, Note_off_c, 0, 55, 107
1, 99022, Note_on_c, 0, 53, 100
1, 99106, Note_off_c, 0, 53, 100
1, 99214, Note_on_c, 0, 62, 108
1, 99292, Note_off_c, 0, 62, 108
1, 99295, Note_on_c, 0, 63, 108
1, 99603, Note_off_c, 0, 63, 108
1, 99614, Note_on_c, 0, 62, 106
1, 99666, Note_off_c, 0, 62, 106
1, 99684, Note_on_c, 0, 63, 104
1, 99817, Note_off_c, 0, 63, 104
1, 99823, Note_on_c, 0, 62, 94
1, 100075, Note_off_c, 0, 62, 94
1, 100806, Note_on_c, 0, 58, 103
1, 100850, Note_off_c, 0, 58, 103
1, 100856, Note_on_c, 0, 62, 104
1, 100937, Note_off_c, 0, 62, 104
1, 100943, Note_on_c, 0, 63, 112
1, 101028, Note_off_c, 0, 63, 112
1, 101034, Note_on_c, 0, 62, 102
1, 101118, Note_off_c, 0, 62, 102
1, 101132, Note_on_c, 0, 58, 103
1, 101203, Note_off_c, 0, 58, 103
1, 101212, Note_on_c, 0, 53, 105
1, 101310, Note_off_c, 0, 53, 105
1, 101322, Note_on_c, 0, 51, 102
1, 101401, Note_off_c, 0, 51, 102
1, 101534, Note_on_c, 0, 49, 104
1, 101614, Note_off_c, 0, 49, 104
1, 101629, Note_on_c, 0, 50, 99
1, 101706, Note_off_c, 0, 50, 99
1, 101719, Note_on_c, 0, 53, 104
1, 101767, Note_off_c, 0, 53, 104
1, 101779, Note_on_c, 0, 55, 104
1, 101873, Note_off_c, 0, 55, 104
1, 101884, Note_on_c, 0, 58, 96
1, 102176, Note_off_c, 0, 58, 96
1, 102888, Note_on_c, 0, 58, 100
1, 102923, Note_off_c, 0, 58, 100
1, 102944, Note_on_c, 0, 58, 105
1, 102981, Note_off_c, 0, 58, 105
1, 102993, Note_on_c, 0, 61, 95
1, 103029, Note_off_c, 0, 61, 95
1, 103039, Note_on_c, 0, 58, 104
1, 103277, Note_off_c, 0, 58, 104
1, 103322, Note_on_c, 0, 58, 124
1, 103380, Note_off_c, 0, 58, 124
1, 103428, Note_on_c, 0, 58, 121
1, 103491, Note_off_c, 0, 58, 121
1, 103520, Note_on_c, 0, 58, 110
1, 103655, Note_off_c, 0, 58, 110
1, 103678, Note_on_c, 0, 58, 116
1, 103736, Note_off_c, 0, 58, 116
1, 103769, Note_on_c, 0, 58, 116
1, 103856, Note_off_c, 0, 58, 116
1, 103876, Note_on_c, 0, 58, 106
1, 104043, Note_off_c, 0, 58, 106
1, 104058, Note_on_c, 0, 58, 118
1, 104117, Note_off_c, 0, 58, 118
1, 104145, Note_on_c, 0, 58, 111
1, 104239, Note_off_c, 0, 58, 111
1, 104263, Note_on_c, 0, 58, 106
1, 104398, Note_off_c, 0, 58, 106
1, 104413, Note_on_c, 0, 59, 117
1, 104622, Note_off_c, 0, 59, 117
1, 104630, Note_on_c, 0, 58, 97
1, 104960, Note_off_c, 0, 58, 97
1, 105121, Note_on_c, 0, 58, 109
1, 105166, Note_off_c, 0, 58, 109
1, 105177, Note_on_c, 0, 58, 110
1, 105247, Note_off_c, 0, 58, 110
1, 105299, Note_on_c, 0, 58, 117
1, 105374, Note_off_c, 0, 58, 117
1, 105389, Note_on_c, 0, 58, 111
1, 105641, Note_off_c, 0, 58, 111
1, 105651, Note_on_c, 0, 59, 110
1, 105947, Note_off_c, 0, 59, 110
1, 106346, Note_on_c, 0, 58, 108
1, 106421, Note_off_c, 0, 58, 108
1, 106455, Note_on_c, 0, 58, 101
1, 106815, Note_off_c, 0, 58, 101
1, 106826, Note_on_c, 0, 60, 117
1, 106909, Note_off_c, 0, 60, 117
1, 106926, Note_on_c, 0, 61, 108
1, 107010, Note_off_c, 0, 61, 108
1, 107021, Note_on_c, 0, 63, 113
1, 107115, Note_off_c, 0, 63, 113
1, 107134, Note_on_c, 0, 65, 90
1, 107178, Note_off_c, 0, 65, 90
1, 107218, Note_on_c, 0, 67, 109
1, 107251, Note_off_c, 0, 67, 109
1, 107262, Note_on_c, 0, 72, 106
1, 107642, Note_off_c, 0, 72, 106
1, 107654, Note_on_c, 0, 70, 115
1, 107769, Note_off_c, 0, 70, 115
1, 107775, Note_on_c, 0, 69, 115
1, 107859, Note_off_c, 0, 69, 115
1, 107863, Note_on_c, 0, 67, 96
1, 107947, Note_off_c, 0, 67, 96
1, 107957, Note_on_c, 0, 66, 98
1, 108028, Note_off_c, 0, 66, 98
1, 108034, Note_on_c, 0, 65, 98
1, 108113, Note_off_c, 0, 65, 98
1, 108117, Note_on_c, 0, 63, 111
1, 108222, Note_off_c, 0, 63, 111
1, 108229, Note_on_c, 0, 62, 100
1, 108307, Note_off_c, 0, 62, 100
1, 108342, Note_on_c, 0, 60, 111
1, 108402, Note_off_c, 0, 60, 111
1, 108411, Note_on_c, 0, 59, 97
1, 108490, Note_off_c, 0, 59, 97
1, 108501, Note_on_c, 0, 62, 114
1, 108575, Note_off_c, 0, 62, 114
1, 108588, Note_on_c, 0, 56, 104
1, 108678, Note_off_c, 0, 56, 104
1, 108688, Note_on_c, 0, 54, 98
1, 108773, Note_off_c, 0, 54, 98
1, 108781, Note_on_c, 0, 55, 100
1, 108857, Note_off_c, 0, 55, 100
1, 108881, Note_on_c, 0, 63, 115
1, 108956, Note_off_c, 0, 63, 115
1, 108969, Note_on_c, 0, 59, 97
1, 109055, Note_off_c, 0, 59, 97
1, 109159, Note_on_c, 0, 62, 104
1, 109439, Note_off_c, 0, 62, 104
1, 109928, Note_on_c, 0, 62, 120
1, 110024, Note_off_c, 0, 62, 120
1, 110031, Note_on_c, 0, 63, 116
1, 110107, Note_off_c, 0, 63, 116
1, 110114, Note_on_c, 0, 61, 109
1, 110204, Note_off_c, 0, 61, 109
1, 110212, Note_on_c, 0, 62, 113
1, 110268, Note_off_c, 0, 62, 113
1, 110280, Note_on_c, 0, 58, 104
1, 110377, Note_off_c, 0, 58, 104
1, 110406, Note_on_c, 0, 53, 107
1, 110455, Note_off_c, 0, 53, 107
1, 110579, Note_on_c, 0, 51, 105
1, 110647, Note_off_c, 0, 51, 105
1, 110671, Note_on_c, 0, 53, 97
1, 110753, Note_off_c, 0, 53, 97
1, 110762, Note_on_c, 0, 58, 95
1, 111051, Note_off_c, 0, 58, 95
1, 112288, Note_on_c, 0, 67, 112
1, 112379, Note_off_c, 0, 67, 112
1, 112385, Note_on_c, 0, 65, 95
1, 112426, Note_off_c, 0, 65, 95
1, 112436, Note_on_c, 0, 67, 96
1, 112473, Note_off_c, 0, 67, 96
1, 112479, Note_on_c, 0, 65, 105
1, 112535, Note_off_c, 0, 65, 105
1, 112545, Note_on_c, 0, 67, 117
1, 112657, Note_off_c, 0, 67, 117
1, 112665, Note_on_c, 0, 68, 110
1, 112738, Note_off_c, 0, 68, 110
1, 112745, Note_on_c, 0, 65, 102
1, 112786, Note_off_c, 0, 65, 102
1, 112791, Note_on_c, 0, 67, 95
1, 112840, Note_off_c, 0, 67, 95
1, 112851, Note_on_c, 0, 65, 100
1, 112914, Note_off_c, 0, 65, 100
1, 112938, Note_on_c, 0, 67, 115
1, 113039, Note_off_c, 0, 67, 115
1, 113135, Note_on_c, 0, 67, 119
1, 113293, Note_off_c, 0, 67, 119
1, 113301, Note_on_c, 0, 68, 111
1, 113388, Note_off_c, 0, 68, 111
1, 113815, Note_on_c, 0, 67, 111
1, 113888, Note_off_c, 0, 67, 111
1, 113905, Note_on_c, 0, 65, 97
1, 113967, Note_off_c, 0, 65, 97
1, 113984, Note_on_c, 0, 68, 96
1, 114029, Note_off_c, 0, 68, 96
1, 114039, Note_on_c, 0, 65, 95
1, 114078, Note_off_c, 0, 65, 95
1, 114083, Note_on_c, 0, 68, 108
1, 114201, Note_off_c, 0, 68, 108
1, 114202, Note_on_c, 0, 65, 101
1, 114247, Note_off_c, 0, 65, 101
1, 114254, Note_on_c, 0, 67, 111
1, 114363, Note_off_c, 0, 67, 111
1, 114367, Note_on_c, 0, 65, 103
1, 114402, Note_off_c, 0, 65, 103
1, 114410, Note_on_c, 0, 64, 112
1, 114485, Note_off_c, 0, 64, 112
1, 114498, Note_on_c, 0, 65, 107
1, 114576, Note_off_c, 0, 65, 107
1, 114582, Note_on_c, 0, 67, 108
1, 114644, Note_off_c, 0, 67, 108
1, 114654, Note_on_c, 0, 67, 117
1, 114761, Note_off_c, 0, 67, 117
1, 114773, Note_on_c, 0, 68, 114
1, 114850, Note_off_c, 0, 68, 114
1, 115512, Note_on_c, 0, 65, 110
1, 115586, Note_off_c, 0, 65, 110
1, 115591, Note_on_c, 0, 68, 111
1, 115681, Note_off_c, 0, 68, 111
1, 115687, Note_on_c, 0, 65, 106
1, 115766, Note_off_c, 0, 65, 106
1, 115774, Note_on_c, 0, 67, 110
1, 115853, Note_off_c, 0, 67, 110
1, 115870, Note_on_c, 0, 64, 111
1, 115964, Note_off_c, 0, 64, 111
1, 115980, Note_on_c, 0, 65, 94
1, 116041, Note_off_c, 0, 65, 94
1, 116065, Note_on_c, 0, 67, 110
1, 116152, Note_off_c, 0, 67, 110
1, 116160, Note_on_c, 0, 68, 97
1, 116236, Note_off_c, 0, 68, 97
1, 116246, Note_on_c, 0, 70, 111
1, 116342, Note_off_c, 0, 70, 111
1, 116346, Note_on_c, 0, 72, 118
1, 116453, Note_off_c, 0, 72, 118
1, 116459, Note_on_c, 0, 70, 96
1, 116528, Note_off_c, 0, 70, 96
1, 116537, Note_on_c, 0, 72, 116
1, 116630, Note_off_c, 0, 72, 116
1, 116634, Note_on_c, 0, 70, 105
1, 116714, Note_off_c, 0, 70, 105
1, 116723, Note_on_c, 0, 68, 106
1, 116839, Note_off_c, 0, 68, 106
1, 116844, Note_on_c, 0, 67, 96
1, 116911, Note_off_c, 0, 67, 96
1, 116917, Note_on_c, 0, 68, 105
1, 117014, Note_off_c, 0, 68, 105
1, 117020, Note_on_c, 0, 67, 110
1, 117104, Note_off_c, 0, 67, 110
1, 117108, Note_on_c, 0, 65, 112
1, 117204, Note_off_c, 0, 65, 112
1, 117206, Note_on_c, 0, 63, 116
1, 117305, Note_off_c, 0, 63, 116
1, 117308, Note_on_c, 0, 62, 109
1, 117394, Note_off_c, 0, 62, 109
1, 117409, Note_on_c, 0, 60, 112
1, 117474, Note_off_c, 0, 60, 112
1, 117482, Note_on_c, 0, 59, 104
1, 117575, Note_off_c, 0, 59, 104
1, 117580, Note_on_c, 0, 62, 110
1, 117652, Note_off_c, 0, 62, 110
1, 117680, Note_on_c, 0, 56, 108
1, 117755, Note_off_c, 0, 56, 108
1, 117767, Note_on_c, 0, 54, 103
1, 117850, Note_off_c, 0, 54, 103
1, 117859, Note_on_c, 0, 55, 105
1, 117934, Note_off_c, 0, 55, 105
1, 117950, Note_on_c, 0, 63, 111
1, 118021, Note_off_c, 0, 63, 111
1, 118029, Note_on_c, 0, 59, 106
1, 118120, Note_off_c, 0, 59, 106
1, 118241, Note_on_c, 0, 62, 116
1, 118332, Note_off_c, 0, 62, 116
1, 118342, Note_on_c, 0, 59, 101
1, 118408, Note_off_c, 0, 59, 101
1, 118421, Note_on_c, 0, 60, 104
1, 118515, Note_off_c, 0, 60, 104
1, 118523, Note_on_c, 0, 63, 113
1, 118594, Note_off_c, 0, 63, 113
1, 118603, Note_on_c, 0, 67, 105
1, 118700, Note_off_c, 0, 67, 105
1, 118706, Note_on_c, 0, 70, 110
1, 118804, Note_off_c, 0, 70, 110
1, 118898, Note_on_c, 0, 70, 99
1, 119144, Note_off_c, 0, 70, 99
1, 119475, Note_on_c, 0, 60, 108
1, 119553, Note_off_c, 0, 60, 108
1, 119556, Note_on_c, 0, 62, 103
1, 119602, Note_off_c, 0, 62, 103
1, 119610, Note_on_c, 0, 63, 106
1, 119657, Note_off_c, 0, 63, 106
1, 119668, Note_on_c, 0, 67, 104
1, 119727, Note_off_c, 0, 67, 104
1, 119732, Note_on_c, 0, 70, 119
1, 119833, Note_off_c, 0, 70, 119
1, 119846, Note_on_c, 0, 70, 109
1, 120122, Note_off_c, 0, 70, 109
1, 120879, Note_on_c, 0, 70, 114
1, 120971, Note_off_c, 0, 70, 114
1, 120990, Note_on_c, 0, 70, 112
1, 121045, Note_off_c, 0, 70, 112
1, 121087, Note_on_c, 0, 70, 114
1, 121152, Note_off_c, 0, 70, 114
1, 121178, Note_on_c, 0, 70, 114
1, 121235, Note_off_c, 0, 70, 114
1, 121263, Note_on_c, 0, 70, 119
1, 121347, Note_off_c, 0, 70, 119
1, 121384, Note_on_c, 0, 70, 111
1, 121633, Note_off_c, 0, 70, 111
1, 121648, Note_on_c, 0, 70, 107
1, 121970, Note_off_c, 0, 70, 107
1, 122009, Note_on_c, 0, 70, 101
1, 122389, Note_off_c, 0, 70, 101
1, 122412, Note_on_c, 0, 70, 102
1, 122699, Note_off_c, 0, 70, 102
1, 122715, Note_on_c, 0, 70, 118
1, 122770, Note_off_c, 0, 70, 118
1, 122793, Note_on_c, 0, 70, 100
1, 122969, Note_off_c, 0, 70, 100
1, 123533, Note_on_c, 0, 70, 116
1, 123633, Note_off_c, 0, 70, 116
1, 123658, Note_on_c, 0, 70, 115
1, 123707, Note_off_c, 0, 70, 115
1, 123725, Note_on_c, 0, 70, 114
1, 123805, Note_off_c, 0, 70, 114
1, 123819, Note_on_c, 0, 70, 111
1, 123876, Note_off_c, 0, 70, 111
1, 123889, Note_on_c, 0, 74, 115
1, 124000, Note_off_c, 0, 74, 115
1, 124012, Note_on_c, 0, 72, 120
1, 124098, Note_off_c, 0, 72, 120
1, 124105, Note_on_c, 0, 70, 104
1, 124384, Note_off_c, 0, 70, 104
1, 124400, Note_on_c, 0, 70, 112
1, 124471, Note_off_c, 0, 70, 112
1, 124600, Note_on_c, 0, 70, 112
1, 124668, Note_off_c, 0, 70, 112
1, 124683, Note_on_c, 0, 70, 112
1, 124756, Note_off_c, 0, 70, 112
1, 124780, Note_on_c, 0, 70, 113
1, 124848, Note_off_c, 0, 70, 113
1, 124865, Note_on_c, 0, 70, 111
1, 124966, Note_off_c, 0, 70, 111
1, 124990, Note_on_c, 0, 70, 113
1, 125041, Note_off_c, 0, 70, 113
1, 125068, Note_on_c, 0, 70, 111
1, 125241, Note_off_c, 0, 70, 111
1, 125267, Note_on_c, 0, 70, 109
1, 125322, Note_off_c, 0, 70, 109
1, 125347, Note_on_c, 0, 70, 108
1, 125392, Note_off_c, 0, 70, 108
1, 125414, Note_on_c, 0, 75, 114
1, 125517, Note_off_c, 0, 75, 114
1, 125522, Note_on_c, 0, 73, 111
1, 125596, Note_off_c, 0, 73, 111
1, 125615, Note_on_c, 0, 70, 99
1, 125905, Note_off_c, 0, 70, 99
1, 125912, Note_on_c, 0, 70, 108
1, 126019, Note_off_c, 0, 70, 108
1, 126090, Note_on_c, 0, 70, 109
1, 126155, Note_off_c, 0, 70, 109
1, 126169, Note_on_c, 0, 70, 109
1, 126244, Note_off_c, 0, 70, 109
1, 126256, Note_on_c, 0, 70, 109
1, 126478, Note_off_c, 0, 70, 109
1, 126517, Note_on_c, 0, 70, 109
1, 126711, Note_off_c, 0, 70, 109
1, 126728, Note_on_c, 0, 70, 106
1, 126818, Note_off_c, 0, 70, 106
1, 126835, Note_on_c, 0, 70, 107
1, 126898, Note_off_c, 0, 70, 107
1, 126913, Note_on_c, 0, 68, 108
1, 127016, Note_off_c, 0, 68, 108
1, 127033, Note_on_c, 0, 67, 113
1, 127086, Note_off_c, 0, 67, 113
1, 127097, Note_on_c, 0, 65, 113
1, 127175, Note_off_c, 0, 65, 113
1, 127416, Note_on_c, 0, 70, 109
1, 127666, Note_off_c, 0, 70, 109
1, 127673, Note_on_c, 0, 67, 108
1, 127778, Note_off_c, 0, 67, 108
1, 127782, Note_on_c, 0, 65, 117
1, 127853, Note_off_c, 0, 65, 117
1, 127857, Note_on_c, 0, 62, 114
1, 127958, Note_off_c, 0, 62, 114
1, 127970, Note_on_c, 0, 60, 114
1, 128047, Note_off_c, 0, 60, 114
1, 128051, Note_on_c, 0, 58, 110
1, 128136, Note_off_c, 0, 58, 110
1, 128141, Note_on_c, 0, 53, 107
1, 128222, Note_off_c, 0, 53, 107
1, 128269, Note_on_c, 0, 48, 110
1, 128319, Note_off_c, 0, 48, 110
1, 128322, Note_on_c, 0, 50, 109
1, 128391, Note_off_c, 0, 50, 109
1, 128407, Note_on_c, 0, 53, 112
1, 128495, Note_off_c, 0, 53, 112
1, 128529, Note_on_c, 0, 50, 104
1, 128577, Note_off_c, 0, 50, 104
1, 128692, Note_on_c, 0, 53, 112
1, 128785, Note_off_c, 0, 53, 112
1, 128793, Note_on_c, 0, 58, 109
1, 128877, Note_off_c, 0, 58, 109
1, 128887, Note_on_c, 0, 61, 118
1, 128959, Note_off_c, 0, 61, 118
1, 128966, Note_on_c, 0, 64, 114
1, 129005, Note_off_c, 0, 64, 114
1, 129011, Note_on_c, 0, 65, 116
1, 129086, Note_off_c, 0, 65, 116
1, 130027, Note_on_c, 0, 60, 119
1, 130108, Note_off_c, 0, 60, 119
1, 130134, Note_on_c, 0, 64, 115
1, 130181, Note_off_c, 0, 64, 115
1, 130187, Note_on_c, 0, 67, 105
1, 130218, Note_off_c, 0, 67, 105
1, 130219, Note_on_c, 0, 65, 114
1, 130263, Note_off_c, 0, 65, 114
1, 130284, Note_on_c, 0, 64, 119
1, 130359, Note_off_c, 0, 64, 119
1, 130375, Note_on_c, 0, 61, 118
1, 130441, Note_off_c, 0, 61, 118
1, 130454, Note_on_c, 0, 58, 107
1, 130547, Note_off_c, 0, 58, 107
1, 130553, Note_on_c, 0, 55, 101
1, 130635, Note_off_c, 0, 55, 101
1, 130641, Note_on_c, 0, 63, 123
1, 130728, Note_off_c, 0, 63, 123
1, 130737, Note_on_c, 0, 61, 120
1, 130819, Note_off_c, 0, 61, 120
1, 130826, Note_on_c, 0, 58, 110
1, 130915, Note_off_c, 0, 58, 110
1, 130923, Note_on_c, 0, 55, 109
1, 130991, Note_off_c, 0, 55, 109
1, 131009, Note_on_c, 0, 64, 122
1, 131122, Note_off_c, 0, 64, 122
1, 131127, Note_on_c, 0, 61, 113
1, 131203, Note_off_c, 0, 61, 113
1, 131206, Note_on_c, 0, 65, 116
1, 131297, Note_off_c, 0, 65, 116
1, 131308, Note_on_c, 0, 61, 113
1, 131372, Note_off_c, 0, 61, 113
1, 131403, Note_on_c, 0, 64, 113
1, 131496, Note_off_c, 0, 64, 113
1, 131505, Note_on_c, 0, 61, 118
1, 131572, Note_off_c, 0, 61, 118
1, 131602, Note_on_c, 0, 58, 106
1, 131676, Note_off_c, 0, 58, 106
1, 131706, Note_on_c, 0, 55, 105
1, 131762, Note_off_c, 0, 55, 105
1, 131784, Note_on_c, 0, 63, 123
1, 131869, Note_off_c, 0, 63, 123
1, 131882, Note_on_c, 0, 60, 112
1, 131948, Note_off_c, 0, 60, 112
1, 131963, Note_on_c, 0, 64, 116
1, 132070, Note_off_c, 0, 64, 116
1, 132103, Note_on_c, 0, 60, 108
1, 132147, Note_off_c, 0, 60, 108
1, 132169, Note_on_c, 0, 65, 113
1, 132260, Note_off_c, 0, 65, 113
1, 132273, Note_on_c, 0, 60, 108
1, 132338, Note_off_c, 0, 60, 108
1, 132372, Note_on_c, 0, 65, 115
1, 132441, Note_off_c, 0, 65, 115
1, 132485, Note_on_c, 0, 65, 111
1, 132545, Note_off_c, 0, 65, 111
1, 132552, Note_on_c, 0, 67, 111
1, 132604, Note_off_c, 0, 67, 111
1, 132615, Note_on_c, 0, 68, 110
1, 132710, Note_off_c, 0, 68, 110
1, 133425, Note_on_c, 0, 61, 119
1, 133532, Note_off_c, 0, 61, 119
1, 133540, Note_on_c, 0, 65, 104
1, 133582, Note_off_c, 0, 65, 104
1, 133594, Note_on_c, 0, 66, 104
1, 133632, Note_off_c, 0, 66, 104
1, 133641, Note_on_c, 0, 65, 112
1, 133685, Note_off_c, 0, 65, 112
1, 133693, Note_on_c, 0, 64, 109
1, 133803, Note_off_c, 0, 64, 109
1, 133804, Note_on_c, 0, 65, 111
1, 133875, Note_off_c, 0, 65, 111
1, 133879, Note_on_c, 0, 63, 115
1, 133986, Note_off_c, 0, 63, 115
1, 133991, Note_on_c, 0, 61, 115
1, 134063, Note_off_c, 0, 61, 115
1, 134078, Note_on_c, 0, 58, 109
1, 134158, Note_off_c, 0, 58, 109
1, 134180, Note_on_c, 0, 53, 107
1, 134251, Note_off_c, 0, 53, 107
1, 134293, Note_on_c, 0, 49, 102
1, 134365, Note_off_c, 0, 49, 102
1, 134373, Note_on_c, 0, 50, 102
1, 134432, Note_off_c, 0, 50, 102
1, 134447, Note_on_c, 0, 53, 105
1, 134549, Note_off_c, 0, 53, 105
1, 134573, Note_on_c, 0, 49, 101
1, 134619, Note_off_c, 0, 49, 101
1, 134647, Note_on_c, 0, 50, 106
1, 134735, Note_off_c, 0, 50, 106
1, 134747, Note_on_c, 0, 53, 116
1, 134839, Note_off_c, 0, 53, 116
1, 134845, Note_on_c, 0, 58, 109
1, 134936, Note_off_c, 0, 58, 109
1, 134967, Note_on_c, 0, 55, 105
1, 135012, Note_off_c, 0, 55, 105
1, 135024, Note_on_c, 0, 58, 114
1, 135098, Note_off_c, 0, 58, 114
1, 135128, Note_on_c, 0, 61, 119
1, 135181, Note_off_c, 0, 61, 119
1, 135195, Note_on_c, 0, 62, 114
1, 135307, Note_off_c, 0, 62, 114
1, 135325, Note_on_c, 0, 65, 110
1, 135376, Note_off_c, 0, 65, 110
1, 135383, Note_on_c, 0, 67, 112
1, 135505, Note_off_c, 0, 67, 112
1, 135515, Note_on_c, 0, 65, 103
1, 135606, Note_off_c, 0, 65, 103
1, 135610, Note_on_c, 0, 68, 109
1, 135712, Note_off_c, 0, 68, 109
1, 135721, Note_on_c, 0, 65, 101
1, 135785, Note_off_c, 0, 65, 101
1, 135790, Note_on_c, 0, 67, 118
1, 135896, Note_off_c, 0, 67, 118
1, 135904, Note_on_c, 0, 64, 118
1, 135977, Note_off_c, 0, 64, 118
1, 135985, Note_on_c, 0, 65, 108
1, 136060, Note_off_c, 0, 65, 108
1, 136076, Note_on_c, 0, 62, 117
1, 136152, Note_off_c, 0, 62, 117
1, 136158, Note_on_c, 0, 59, 106
1, 136250, Note_off_c, 0, 59, 106
1, 136295, Note_on_c, 0, 56, 111
1, 136366, Note_off_c, 0, 56, 111
1, 136373, Note_on_c, 0, 55, 101
1, 136465, Note_off_c, 0, 55, 101
1, 136468, Note_on_c, 0, 60, 113
1, 136553, Note_off_c, 0, 60, 113
1, 136560, Note_on_c, 0, 63, 112
1, 136661, Note_off_c, 0, 63, 112
1, 136666, Note_on_c, 0, 67, 111
1, 136759, Note_off_c, 0, 67, 111
1, 136765, Note_on_c, 0, 70, 112
1, 136848, Note_off_c, 0, 70, 112
1, 136856, Note_on_c, 0, 74, 113
1, 137170, Note_off_c, 0, 74, 113
1, 138012, Note_on_c, 0, 69, 112
1, 138182, Note_off_c, 0, 69, 112
1, 138191, Note_on_c, 0, 70, 118
1, 139204, Note_off_c, 0, 70, 118
1, 139221, Note_on_c, 0, 67, 116
1, 139311, Note_off_c, 0, 67, 116
1, 139425, Note_on_c, 0, 69, 117
1, 139529, Note_off_c, 0, 69, 117
1, 139534, Note_on_c, 0, 70, 112
1, 139593, Note_off_c, 0, 70, 112
1, 139597, Note_on_c, 0, 67, 113
1, 139688, Note_off_c, 0, 67, 113
1, 139792, Note_on_c, 0, 70, 110
1, 139999, Note_off_c, 0, 70, 110
1, 140011, Note_on_c, 0, 67, 116
1, 140080, Note_off_c, 0, 67, 116
1, 140087, Note_on_c, 0, 61, 104
1, 140205, Note_off_c, 0, 61, 104
1, 140211, Note_on_c, 0, 60, 109
1, 140255, Note_off_c, 0, 60, 109
1, 140682, Note_on_c, 0, 70, 116
1, 140885, Note_off_c, 0, 70, 116
1, 140890, Note_on_c, 0, 67, 108
1, 140942, Note_off_c, 0, 67, 108
1, 140961, Note_on_c, 0, 70, 115
1, 141148, Note_off_c, 0, 70, 115
1, 141153, Note_on_c, 0, 67, 115
1, 141225, Note_off_c, 0, 67, 115
1, 141322, Note_on_c, 0, 70, 110
1, 141535, Note_off_c, 0, 70, 110
1, 141544, Note_on_c, 0, 67, 112
1, 141613, Note_off_c, 0, 67, 112
1, 141712, Note_on_c, 0, 62, 116
1, 141831, Note_off_c, 0, 62, 116
1, 141838, Note_on_c, 0, 60, 107
1, 141895, Note_off_c, 0, 60, 107
1, 142406, Note_on_c, 0, 70, 112
1, 142673, Note_off_c, 0, 70, 112
1, 142678, Note_on_c, 0, 67, 118
1, 142757, Note_off_c, 0, 67, 118
1, 142861, Note_on_c, 0, 70, 116
1, 143029, Note_off_c, 0, 70, 116
1, 143037, Note_on_c, 0, 67, 118
1, 143141, Note_off_c, 0, 67, 118
1, 143192, Note_on_c, 0, 60, 111
1, 143347, Note_off_c, 0, 60, 111
1, 143354, Note_on_c, 0, 59, 99
1, 143397, Note_off_c, 0, 59, 99
1, 143881, Note_on_c, 0, 70, 113
1, 144156, Note_off_c, 0, 70, 113
1, 144167, Note_on_c, 0, 69, 121
1, 144275, Note_off_c, 0, 69, 121
1, 144280, Note_on_c, 0, 67, 121
1, 144373, Note_off_c, 0, 67, 121
1, 144376, Note_on_c, 0, 65, 104
1, 144443, Note_off_c, 0, 65, 104
1, 144445, Note_on_c, 0, 63, 121
1, 144550, Note_off_c, 0, 63, 121
1, 144552, Note_on_c, 0, 62, 116
1, 144624, Note_off_c, 0, 62, 116
1, 144642, Note_on_c, 0, 60, 116
1, 144713, Note_off_c, 0, 60, 116
1, 144718, Note_on_c, 0, 59, 108
1, 144806, Note_off_c, 0, 59, 108
1, 144816, Note_on_c, 0, 61, 120
1, 144884, Note_off_c, 0, 61, 120
1, 144890, Note_on_c, 0, 56, 115
1, 144983, Note_off_c, 0, 56, 115
1, 145004, Note_on_c, 0, 54, 110
1, 145078, Note_off_c, 0, 54, 110
1, 145089, Note_on_c, 0, 55, 106
1, 145173, Note_off_c, 0, 55, 106
1, 145192, Note_on_c, 0, 63, 121
1, 145278, Note_off_c, 0, 63, 121
1, 145289, Note_on_c, 0, 59, 103
1, 145365, Note_off_c, 0, 59, 103
1, 145410, Note_on_c, 0, 55, 105
1, 145460, Note_off_c, 0, 55, 105
1, 145467, Note_on_c, 0, 62, 117
1, 145568, Note_off_c, 0, 62, 117
1, 145577, Note_on_c, 0, 59, 105
1, 145641, Note_off_c, 0, 59, 105
1, 145648, Note_on_c, 0, 60, 109
1, 145728, Note_off_c, 0, 60, 109
1, 145752, Note_on_c, 0, 63, 115
1, 145839, Note_off_c, 0, 63, 115
1, 145844, Note_on_c, 0, 67, 114
1, 145945, Note_off_c, 0, 67, 114
1, 145952, Note_on_c, 0, 70, 111
1, 146054, Note_off_c, 0, 70, 111
1, 146129, Note_on_c, 0, 74, 109
1, 146407, Note_off_c, 0, 74, 109
1, 146420, Note_on_c, 0, 69, 116
1, 146502, Note_off_c, 0, 69, 116
1, 146506, Note_on_c, 0, 66, 103
1, 146584, Note_off_c, 0, 66, 103
1, 146588, Note_on_c, 0, 63, 110
1, 146710, Note_off_c, 0, 63, 110
1, 146712, Note_on_c, 0, 66, 104
1, 146767, Note_off_c, 0, 66, 104
1, 146770, Note_on_c, 0, 69, 117
1, 146896, Note_off_c, 0, 69, 117
1, 147074, Note_on_c, 0, 72, 116
1, 147353, Note_off_c, 0, 72, 116
1, 147360, Note_on_c, 0, 70, 117
1, 147445, Note_off_c, 0, 70, 117
1, 147445, End_track
0, 0, End_of_file
