0, 0, Header, 1, 1, 20160
1, 0, Start_track
1, 0, Title_t, "Melody"
1, 0, Tempo, 895522
1, 0, Key_signature, -5, "major"
1, 0, Time_signature, 4, 2, 24, 8
1, 206321, Note_on_c, 0, 57, 85
1, 211548, Note_off_c, 0, 57, 85
1, 211809, Note_on_c, 0, 58, 107
1, 216774, Note_off_c, 0, 58, 107
1, 218603, Note_on_c, 0, 70, 105
1, 224091, Note_off_c, 0, 70, 105
1, 224091, Note_on_c, 0, 68, 113
1, 228534, Note_off_c, 0, 68, 113
1, 228795, Note_on_c, 0, 66, 101
1, 253624, Note_off_c, 0, 66, 101
1, 253885, Note_on_c, 0, 63, 113
1, 258850, Note_off_c, 0, 63, 113
1, 259111, Note_on_c, 0, 65, 104
1, 263292, Note_off_c, 0, 65, 104
1, 263553, Note_on_c, 0, 63, 109
1, 268257, Note_off_c, 0, 63, 109
1, 269041, Note_on_c, 0, 65, 97
1, 295177, Note_off_c, 0, 65, 97
1, 295699, Note_on_c, 0, 63, 109
1, 299880, Note_off_c, 0, 63, 109
1, 300141, Note_on_c, 0, 62, 112
1, 304584, Note_off_c, 0, 62, 112
1, 304584, Note_on_c, 0, 63, 111
1, 308765, Note_off_c, 0, 63, 111
1, 309810, Note_on_c, 0, 70, 103
1, 313730, Note_off_c, 0, 70, 103
1, 314514, Note_on_c, 0, 70, 95
1, 348229, Note_off_c, 0, 70, 95
1, 350058, Note_on_c, 0, 69, 84
1, 352933, Note_off_c, 0, 69, 84
1, 354239, Note_on_c, 0, 71, 93
1, 357375, Note_off_c, 0, 71, 93
1, 357375, Note_on_c, 0, 68, 90
1, 368613, Note_off_c, 0, 68, 90
1, 369919, Note_on_c, 0, 66, 102
1, 372794, Note_off_c, 0, 66, 102
1, 372794, Note_on_c, 0, 68, 89
1, 375407, Note_on_c, 0, 65, 88
1, 375407, Note_off_c, 0, 68, 89
1, 393179, Note_off_c, 0, 65, 88
1, 413826, Note_on_c, 0, 68, 116
1, 418530, Note_off_c, 0, 68, 116
1, 420359, Note_on_c, 0, 70, 117
1, 424279, Note_off_c, 0, 70, 117
1, 424279, Note_on_c, 0, 68, 114
1, 428722, Note_off_c, 0, 68, 114
1, 429244, Note_on_c, 0, 70, 101
1, 470539, Note_off_c, 0, 70, 101
1, 470539, Note_on_c, 0, 68, 93
1, 472629, Note_off_c, 0, 68, 93
1, 474197, Note_on_c, 0, 70, 108
1, 477072, Note_off_c, 0, 70, 108
1, 477333, Note_on_c, 0, 72, 114
1, 481514, Note_off_c, 0, 72, 114
1, 481775, Note_on_c, 0, 75, 118
1, 487525, Note_off_c, 0, 75, 118
1, 487786, Note_on_c, 0, 73, 106
1, 491967, Note_off_c, 0, 73, 106
1, 492228, Note_on_c, 0, 72, 110
1, 495887, Note_off_c, 0, 72, 110
1, 496409, Note_on_c, 0, 70, 106
1, 500329, Note_off_c, 0, 70, 106
1, 500851, Note_on_c, 0, 73, 102
1, 503203, Note_off_c, 0, 73, 102
1, 503203, Note_on_c, 0, 72, 106
1, 504509, Note_off_c, 0, 72, 106
1, 504509, Note_on_c, 0, 71, 91
1, 506599, Note_off_c, 0, 71, 91
1, 506599, Note_on_c, 0, 64, 112
1, 530121, Note_off_c, 0, 64, 112
1, 530382, Note_on_c, 0, 62, 122
1, 533518, Note_off_c, 0, 62, 122
1, 534563, Note_on_c, 0, 63, 118
1, 539528, Note_off_c, 0, 63, 118
1, 539789, Note_on_c, 0, 73, 99
1, 571936, Note_off_c, 0, 73, 99
1, 572720, Note_on_c, 0, 70, 106
1, 575595, Note_off_c, 0, 70, 106
1, 576640, Note_on_c, 0, 66, 104
1, 579253, Note_off_c, 0, 66, 104
1, 579775, Note_on_c, 0, 70, 96
1, 609047, Note_off_c, 0, 70, 96
1, 609831, Note_on_c, 0, 66, 109
1, 614012, Note_off_c, 0, 66, 109
1, 614012, Note_on_c, 0, 61, 105
1, 617148, Note_off_c, 0, 61, 105
1, 618193, Note_on_c, 0, 65, 99
1, 646420, Note_off_c, 0, 65, 99
1, 647465, Note_on_c, 0, 63, 110
1, 650601, Note_off_c, 0, 63, 110
1, 651123, Note_on_c, 0, 68, 109
1, 655566, Note_off_c, 0, 68, 109
1, 655827, Note_on_c, 0, 66, 116
1, 658179, Note_off_c, 0, 66, 116
1, 658179, Note_on_c, 0, 65, 110
1, 659747, Note_off_c, 0, 65, 110
1, 661053, Note_on_c, 0, 63, 107
1, 664712, Note_off_c, 0, 63, 107
1, 665496, Note_on_c, 0, 65, 98
1, 681177, Note_off_c, 0, 65, 98
1, 681438, Note_on_c, 0, 63, 105
1, 684835, Note_off_c, 0, 63, 105
1, 685619, Note_on_c, 0, 68, 101
1, 689016, Note_off_c, 0, 68, 101
1, 689277, Note_on_c, 0, 66, 111
1, 692413, Note_off_c, 0, 66, 111
1, 692413, Note_on_c, 0, 65, 108
1, 695026, Note_off_c, 0, 65, 108
1, 695026, Note_on_c, 0, 63, 98
1, 697639, Note_off_c, 0, 63, 98
1, 698945, Note_on_c, 0, 65, 99
1, 727433, Note_off_c, 0, 65, 99
1, 728217, Note_on_c, 0, 61, 115
1, 731092, Note_off_c, 0, 61, 115
1, 732398, Note_on_c, 0, 63, 119
1, 735273, Note_off_c, 0, 63, 119
1, 735795, Note_on_c, 0, 65, 112
1, 739454, Note_off_c, 0, 65, 112
1, 739454, Note_on_c, 0, 68, 110
1, 743897, Note_off_c, 0, 68, 110
1, 744942, Note_on_c, 0, 66, 117
1, 747817, Note_off_c, 0, 66, 117
1, 747817, Note_on_c, 0, 68, 106
1, 751998, Note_off_c, 0, 68, 106
1, 752259, Note_on_c, 0, 66, 110
1, 756702, Note_off_c, 0, 66, 110
1, 756702, Note_on_c, 0, 71, 117
1, 760883, Note_off_c, 0, 71, 117
1, 761144, Note_on_c, 0, 67, 113
1, 764803, Note_off_c, 0, 67, 113
1, 765325, Note_on_c, 0, 71, 112
1, 770290, Note_off_c, 0, 71, 112
1, 770551, Note_on_c, 0, 67, 107
1, 775516, Note_off_c, 0, 67, 107
1, 776038, Note_on_c, 0, 72, 115
1, 779958, Note_off_c, 0, 72, 115
1, 781003, Note_on_c, 0, 67, 111
1, 785446, Note_off_c, 0, 67, 111
1, 785446, Note_on_c, 0, 72, 110
1, 789105, Note_off_c, 0, 72, 110
1, 790673, Note_on_c, 0, 67, 112
1, 794332, Note_off_c, 0, 67, 112
1, 796161, Note_on_c, 0, 68, 89
1, 813411, Note_off_c, 0, 68, 89
1, 817331, Note_on_c, 0, 73, 117
1, 821774, Note_off_c, 0, 73, 117
1, 822558, Note_on_c, 0, 68, 111
1, 826217, Note_off_c, 0, 68, 111
1, 827001, Note_on_c, 0, 73, 115
1, 831444, Note_off_c, 0, 73, 115
1, 831966, Note_on_c, 0, 68, 110
1, 836670, Note_off_c, 0, 68, 110
1, 836670, Note_on_c, 0, 71, 113
1, 840590, Note_off_c, 0, 71, 113
1, 841635, Note_on_c, 0, 65, 111
1, 846078, Note_off_c, 0, 65, 111
1, 846339, Note_on_c, 0, 70, 108
1, 850782, Note_off_c, 0, 70, 108
1, 850782, Note_on_c, 0, 65, 115
1, 854963, Note_off_c, 0, 65, 115
1, 854963, Note_on_c, 0, 66, 93
1, 878485, Note_off_c, 0, 66, 93
1, 908803, Note_on_c, 0, 58, 120
1, 912723, Note_off_c, 0, 58, 120
1, 912723, Note_on_c, 0, 59, 117
1, 915859, Note_off_c, 0, 59, 117
1, 916381, Note_on_c, 0, 70, 106
1, 951403, Note_off_c, 0, 70, 106
1, 951664, Note_on_c, 0, 68, 112
1, 955845, Note_off_c, 0, 68, 112
1, 956629, Note_on_c, 0, 66, 116
1, 960549, Note_off_c, 0, 66, 116
1, 960810, Note_on_c, 0, 65, 114
1, 963946, Note_off_c, 0, 65, 114
1, 963946, Note_on_c, 0, 63, 116
1, 971264, Note_off_c, 0, 63, 116
1, 974139, Note_on_c, 0, 59, 118
1, 978320, Note_off_c, 0, 59, 118
1, 978320, Note_on_c, 0, 60, 114
1, 982763, Note_off_c, 0, 60, 114
1, 984592, Note_on_c, 0, 71, 110
1, 1007592, Note_off_c, 0, 71, 110
1, 1008114, Note_on_c, 0, 69, 105
1, 1010989, Note_off_c, 0, 69, 105
1, 1011773, Note_on_c, 0, 68, 113
1, 1015170, Note_off_c, 0, 68, 113
1, 1015170, Note_on_c, 0, 66, 113
1, 1018567, Note_off_c, 0, 66, 113
1, 1019351, Note_on_c, 0, 67, 115
1, 1024839, Note_off_c, 0, 67, 115
1, 1025623, Note_on_c, 0, 68, 105
1, 1071884, Note_off_c, 0, 68, 105
1, 1071884, Note_on_c, 0, 67, 115
1, 1075020, Note_off_c, 0, 67, 115
1, 1075020, Note_on_c, 0, 68, 109
1, 1080247, Note_off_c, 0, 68, 109
1, 1080769, Note_on_c, 0, 75, 123
1, 1085734, Note_off_c, 0, 75, 123
1, 1086518, Note_on_c, 0, 68, 96
1, 1090177, Note_off_c, 0, 68, 96
1, 1090177, Note_on_c, 0, 75, 122
1, 1094097, Note_off_c, 0, 75, 122
1, 1094619, Note_on_c, 0, 68, 96
1, 1097232, Note_off_c, 0, 68, 96
1, 1098800, Note_on_c, 0, 75, 115
1, 1104027, Note_off_c, 0, 75, 115
1, 1105333, Note_on_c, 0, 68, 99
1, 1131730, Note_off_c, 0, 68, 99
1, 1131991, Note_on_c, 0, 70, 105
1, 1134866, Note_on_c, 0, 72, 107
1, 1134866, Note_off_c, 0, 70, 105
1, 1138525, Note_off_c, 0, 72, 107
1, 1138786, Note_on_c, 0, 75, 113
1, 1143490, Note_off_c, 0, 75, 113
1, 1144012, Note_on_c, 0, 73, 111
1, 1147409, Note_off_c, 0, 73, 111
1, 1148193, Note_on_c, 0, 68, 106
1, 1151590, Note_off_c, 0, 68, 106
1, 1152635, Note_on_c, 0, 65, 111
1, 1155771, Note_off_c, 0, 65, 111
1, 1156555, Note_on_c, 0, 64, 99
1, 1169884, Note_off_c, 0, 64, 99
1, 1170406, Note_on_c, 0, 62, 114
1, 1174326, Note_off_c, 0, 62, 114
1, 1174326, Note_on_c, 0, 63, 109
1, 1177985, Note_off_c, 0, 63, 109
1, 1180075, Note_on_c, 0, 73, 103
1, 1194972, Note_off_c, 0, 73, 103
1, 1221108, Note_on_c, 0, 73, 117
1, 1223721, Note_off_c, 0, 73, 117
1, 1223721, Note_on_c, 0, 72, 118
1, 1225811, Note_off_c, 0, 72, 118
1, 1225811, Note_on_c, 0, 73, 116
1, 1230254, Note_off_c, 0, 73, 116
1, 1231038, Note_on_c, 0, 70, 118
1, 1233651, Note_off_c, 0, 70, 118
1, 1233912, Note_on_c, 0, 69, 105
1, 1236264, Note_off_c, 0, 69, 105
1, 1236264, Note_on_c, 0, 70, 116
1, 1239661, Note_off_c, 0, 70, 116
1, 1240751, Note_on_c, 0, 66, 120
1, 1243058, Note_off_c, 0, 66, 120
1, 1243058, Note_on_c, 0, 65, 115
1, 1244887, Note_off_c, 0, 65, 115
1, 1245409, Note_on_c, 0, 66, 117
1, 1249068, Note_off_c, 0, 66, 117
1, 1250636, Note_on_c, 0, 58, 99
1, 1253772, Note_on_c, 0, 61, 114
1, 1253772, Note_off_c, 0, 58, 99
1, 1255340, Note_off_c, 0, 61, 114
1, 1255340, Note_on_c, 0, 64, 109
1, 1258737, Note_off_c, 0, 64, 109
1, 1258737, Note_on_c, 0, 65, 115
1, 1261089, Note_off_c, 0, 65, 115
1, 1261611, Note_on_c, 0, 64, 117
1, 1264486, Note_off_c, 0, 64, 117
1, 1264486, Note_on_c, 0, 65, 114
1, 1267099, Note_off_c, 0, 65, 114
1, 1267099, Note_on_c, 0, 68, 116
1, 1269451, Note_off_c, 0, 68, 116
1, 1269712, Note_on_c, 0, 64, 117
1, 1271541, Note_off_c, 0, 64, 117
1, 1271541, Note_on_c, 0, 65, 113
1, 1273109, Note_off_c, 0, 65, 113
1, 1274154, Note_on_c, 0, 68, 103
1, 1277029, Note_off_c, 0, 68, 103
1, 1278074, Note_on_c, 0, 65, 113
1, 1279903, Note_off_c, 0, 65, 113
1, 1279903, Note_on_c, 0, 63, 125
1, 1281471, Note_off_c, 0, 63, 125
1, 1281471, Note_on_c, 0, 62, 122
1, 1284346, Note_off_c, 0, 62, 122
1, 1284738, Note_on_c, 0, 63, 116
1, 1286959, Note_off_c, 0, 63, 116
1, 1287089, Note_on_c, 0, 66, 121
1, 1289441, Note_off_c, 0, 66, 121
1, 1289441, Note_on_c, 0, 62, 122
1, 1291923, Note_off_c, 0, 62, 122
1, 1291923, Note_on_c, 0, 63, 118
1, 1293621, Note_off_c, 0, 63, 118
1, 1294143, Note_on_c, 0, 66, 121
1, 1297802, Note_on_c, 0, 63, 122
1, 1297802, Note_off_c, 0, 66, 121
1, 1300807, Note_off_c, 0, 63, 122
1, 1300937, Note_on_c, 0, 62, 118
1, 1303289, Note_off_c, 0, 62, 118
1, 1303419, Note_on_c, 0, 65, 122
1, 1305509, Note_off_c, 0, 65, 122
1, 1305509, Note_on_c, 0, 63, 122
1, 1308384, Note_off_c, 0, 63, 122
1, 1308514, Note_on_c, 0, 61, 114
1, 1312042, Note_off_c, 0, 61, 114
1, 1312042, Note_on_c, 0, 58, 121
1, 1314394, Note_off_c, 0, 58, 121
1, 1314916, Note_on_c, 0, 57, 117
1, 1317137, Note_off_c, 0, 57, 117
1, 1317659, Note_on_c, 0, 53, 111
1, 1320664, Note_off_c, 0, 53, 111
1, 1320794, Note_on_c, 0, 58, 116
1, 1323015, Note_off_c, 0, 58, 116
1, 1323145, Note_on_c, 0, 59, 117
1, 1324974, Note_off_c, 0, 59, 117
1, 1325235, Note_on_c, 0, 60, 124
1, 1327195, Note_off_c, 0, 60, 124
1, 1327195, Note_on_c, 0, 63, 127
1, 1329547, Note_off_c, 0, 63, 127
1, 1329677, Note_on_c, 0, 64, 121
1, 1331767, Note_off_c, 0, 64, 121
1, 1332028, Note_on_c, 0, 63, 121
1, 1335425, Note_off_c, 0, 63, 121
1, 1335817, Note_on_c, 0, 61, 114
1, 1336993, Note_off_c, 0, 61, 114
1, 1336993, Note_on_c, 0, 62, 112
1, 1338038, Note_on_c, 0, 63, 123
1, 1338038, Note_off_c, 0, 62, 112
1, 1339998, Note_off_c, 0, 63, 123
1, 1339998, Note_on_c, 0, 60, 119
1, 1342873, Note_off_c, 0, 60, 119
1, 1342873, Note_on_c, 0, 61, 117
1, 1344702, Note_off_c, 0, 61, 117
1, 1345094, Note_on_c, 0, 58, 116
1, 1347838, Note_off_c, 0, 58, 116
1, 1347838, Note_on_c, 0, 60, 120
1, 1349536, Note_on_c, 0, 61, 120
1, 1349536, Note_off_c, 0, 60, 120
1, 1350450, Note_off_c, 0, 61, 120
1, 1350450, Note_on_c, 0, 62, 115
1, 1351887, Note_off_c, 0, 62, 115
1, 1351887, Note_on_c, 0, 63, 117
1, 1353324, Note_off_c, 0, 63, 117
1, 1353454, Note_on_c, 0, 67, 117
1, 1355283, Note_off_c, 0, 67, 117
1, 1355283, Note_on_c, 0, 72, 114
1, 1358288, Note_off_c, 0, 72, 114
1, 1358418, Note_on_c, 0, 70, 113
1, 1360900, Note_off_c, 0, 70, 113
1, 1361292, Note_on_c, 0, 69, 110
1, 1362337, Note_off_c, 0, 69, 110
1, 1362337, Note_on_c, 0, 65, 111
1, 1365081, Note_off_c, 0, 65, 111
1, 1365342, Note_on_c, 0, 63, 116
1, 1367955, Note_off_c, 0, 63, 116
1, 1368216, Note_on_c, 0, 61, 113
1, 1369784, Note_off_c, 0, 61, 113
1, 1369914, Note_on_c, 0, 59, 105
1, 1370698, Note_off_c, 0, 59, 105
1, 1370698, Note_on_c, 0, 71, 117
1, 1372788, Note_off_c, 0, 71, 117
1, 1373049, Note_on_c, 0, 70, 108
1, 1374878, Note_off_c, 0, 70, 108
1, 1374878, Note_on_c, 0, 68, 114
1, 1378537, Note_off_c, 0, 68, 114
1, 1378537, Note_on_c, 0, 64, 119
1, 1380627, Note_off_c, 0, 64, 119
1, 1380627, Note_on_c, 0, 60, 114
1, 1383240, Note_off_c, 0, 60, 114
1, 1383240, Note_on_c, 0, 62, 119
1, 1385722, Note_off_c, 0, 62, 119
1, 1386114, Note_on_c, 0, 64, 110
1, 1409114, Note_off_c, 0, 64, 110
1, 1409114, Note_on_c, 0, 60, 51
1, 1413426, Note_on_c, 0, 61, 114
1, 1413426, Note_off_c, 0, 60, 51
1, 1416039, Note_off_c, 0, 61, 114
1, 1416169, Note_on_c, 0, 63, 118
1, 1420089, Note_on_c, 0, 61, 106
1, 1420089, Note_off_c, 0, 63, 118
1, 1422964, Note_off_c, 0, 61, 106
1, 1423356, Note_on_c, 0, 56, 100
1, 1443873, Note_off_c, 0, 56, 100
1, 1450799, Note_on_c, 0, 61, 113
1, 1454196, Note_off_c, 0, 61, 113
1, 1454326, Note_on_c, 0, 62, 116
1, 1457985, Note_off_c, 0, 62, 116
1, 1459553, Note_on_c, 0, 71, 114
1, 1463734, Note_off_c, 0, 71, 114
1, 1464910, Note_on_c, 0, 69, 104
1, 1468177, Note_off_c, 0, 69, 104
1, 1468307, Note_on_c, 0, 67, 116
1, 1472619, Note_on_c, 0, 66, 112
1, 1472619, Note_off_c, 0, 67, 116
1, 1476539, Note_off_c, 0, 66, 112
1, 1477768, Note_on_c, 0, 69, 80
1, 1500188, Note_off_c, 0, 69, 80
1, 1508457, Note_on_c, 0, 57, 109
1, 1510662, Note_off_c, 0, 57, 109
1, 1510845, Note_on_c, 0, 58, 112
1, 1512682, Note_off_c, 0, 58, 112
1, 1513233, Note_on_c, 0, 61, 114
1, 1517827, Note_off_c, 0, 61, 114
1, 1518010, Note_on_c, 0, 62, 118
1, 1521869, Note_off_c, 0, 62, 118
1, 1522236, Note_on_c, 0, 64, 118
1, 1527014, Note_off_c, 0, 64, 118
1, 1527014, Note_on_c, 0, 66, 117
1, 1531240, Note_off_c, 0, 66, 117
1, 1531240, Note_on_c, 0, 67, 117
1, 1535282, Note_off_c, 0, 67, 117
1, 1536017, Note_on_c, 0, 69, 99
1, 1540978, Note_off_c, 0, 69, 99
1, 1542917, Note_on_c, 0, 69, 84
1, 1574803, Note_off_c, 0, 69, 84
1, 1589962, Note_on_c, 0, 69, 101
1, 1593490, Note_off_c, 0, 69, 101
1, 1594086, Note_on_c, 0, 73, 118
1, 1598312, Note_off_c, 0, 73, 118
1, 1599598, Note_on_c, 0, 74, 124
1, 1603824, Note_off_c, 0, 74, 124
1, 1604375, Note_on_c, 0, 73, 117
1, 1607866, Note_off_c, 0, 73, 117
1, 1608417, Note_on_c, 0, 71, 123
1, 1612459, Note_off_c, 0, 71, 123
1, 1612459, Note_on_c, 0, 74, 115
1, 1617053, Note_off_c, 0, 74, 115
1, 1617788, Note_on_c, 0, 72, 116
1, 1621279, Note_off_c, 0, 72, 116
1, 1621830, Note_on_c, 0, 70, 113
1, 1626240, Note_off_c, 0, 70, 113
1, 1626607, Note_on_c, 0, 69, 113
1, 1629179, Note_off_c, 0, 69, 113
1, 1629546, Note_on_c, 0, 67, 114
1, 1631751, Note_off_c, 0, 67, 114
1, 1632486, Note_on_c, 0, 69, 104
1, 1645901, Note_off_c, 0, 69, 104
1, 1648657, Note_on_c, 0, 62, 116
1, 1651964, Note_off_c, 0, 62, 116
1, 1652286, Note_on_c, 0, 67, 93
1, 1653331, Note_off_c, 0, 67, 93
1, 1653723, Note_on_c, 0, 68, 97
1, 1654637, Note_off_c, 0, 68, 97
1, 1654898, Note_on_c, 0, 67, 92
1, 1655637, Note_off_c, 0, 67, 92
1, 1655637, Note_on_c, 0, 64, 98
1, 1657474, Note_off_c, 0, 64, 98
1, 1657841, Note_on_c, 0, 62, 119
1, 1660597, Note_off_c, 0, 62, 119
1, 1661430, Note_on_c, 0, 66, 114
1, 1663083, Note_off_c, 0, 66, 114
1, 1663352, Note_on_c, 0, 67, 109
1, 1664822, Note_off_c, 0, 67, 109
1, 1665005, Note_on_c, 0, 65, 107
1, 1665556, Note_off_c, 0, 65, 107
1, 1665556, Note_on_c, 0, 62, 120
1, 1668863, Note_off_c, 0, 62, 120
1, 1669790, Note_on_c, 0, 66, 93
1, 1670574, Note_off_c, 0, 66, 93
1, 1670574, Note_on_c, 0, 67, 104
1, 1671880, Note_off_c, 0, 67, 104
1, 1671880, Note_on_c, 0, 66, 80
1, 1672533, Note_off_c, 0, 66, 80
1, 1672533, Note_on_c, 0, 67, 111
1, 1673709, Note_off_c, 0, 67, 111
1, 1674007, Note_on_c, 0, 66, 103
1, 1674925, Note_off_c, 0, 66, 103
1, 1675108, Note_on_c, 0, 62, 119
1, 1679702, Note_off_c, 0, 62, 119
1, 1679702, Note_on_c, 0, 67, 97
1, 1680620, Note_on_c, 0, 68, 103
1, 1680620, Note_off_c, 0, 67, 97
1, 1681171, Note_off_c, 0, 68, 103
1, 1681171, Note_on_c, 0, 69, 93
1, 1682457, Note_off_c, 0, 69, 93
1, 1682457, Note_on_c, 0, 68, 107
1, 1683008, Note_off_c, 0, 68, 107
1, 1683008, Note_on_c, 0, 67, 105
1, 1683743, Note_off_c, 0, 67, 105
1, 1684110, Note_on_c, 0, 62, 119
1, 1687601, Note_off_c, 0, 62, 119
1, 1687817, Note_on_c, 0, 66, 98
1, 1689123, Note_off_c, 0, 66, 98
1, 1689123, Note_on_c, 0, 67, 114
1, 1690037, Note_off_c, 0, 67, 114
1, 1690037, Note_on_c, 0, 68, 100
1, 1691866, Note_off_c, 0, 68, 100
1, 1692127, Note_on_c, 0, 67, 115
1, 1693041, Note_off_c, 0, 67, 115
1, 1693477, Note_on_c, 0, 66, 98
1, 1694395, Note_off_c, 0, 66, 98
1, 1694395, Note_on_c, 0, 62, 118
1, 1698070, Note_off_c, 0, 62, 118
1, 1698988, Note_on_c, 0, 65, 96
1, 1699171, Note_off_c, 0, 65, 96
1, 1699171, Note_on_c, 0, 66, 106
1, 1700457, Note_off_c, 0, 66, 106
1, 1700457, Note_on_c, 0, 67, 115
1, 1701375, Note_off_c, 0, 67, 115
1, 1701375, Note_on_c, 0, 66, 118
1, 1701926, Note_off_c, 0, 66, 118
1, 1701926, Note_on_c, 0, 65, 108
1, 1703028, Note_off_c, 0, 65, 108
1, 1703028, Note_on_c, 0, 62, 118
1, 1707622, Note_off_c, 0, 62, 118
1, 1707805, Note_on_c, 0, 60, 110
1, 1708723, Note_off_c, 0, 60, 110
1, 1708723, Note_on_c, 0, 61, 107
1, 1710009, Note_off_c, 0, 61, 107
1, 1710192, Note_on_c, 0, 60, 117
1, 1712029, Note_off_c, 0, 60, 117
1, 1712764, Note_on_c, 0, 57, 115
1, 1716623, Note_off_c, 0, 57, 115
1, 1716806, Note_on_c, 0, 60, 97
1, 1717724, Note_off_c, 0, 60, 97
1, 1717724, Note_on_c, 0, 61, 105
1, 1719010, Note_off_c, 0, 61, 105
1, 1719010, Note_on_c, 0, 60, 109
1, 1721766, Note_off_c, 0, 60, 109
1, 1722133, Note_on_c, 0, 57, 109
1, 1725992, Note_off_c, 0, 57, 109
1, 1726359, Note_on_c, 0, 56, 108
1, 1727277, Note_off_c, 0, 56, 108
1, 1727277, Note_on_c, 0, 57, 97
1, 1727644, Note_off_c, 0, 57, 97
1, 1727644, Note_on_c, 0, 61, 107
1, 1728287, Note_off_c, 0, 61, 107
1, 1728287, Note_on_c, 0, 62, 109
1, 1729205, Note_off_c, 0, 62, 109
1, 1729296, Note_on_c, 0, 61, 113
1, 1729847, Note_off_c, 0, 61, 113
1, 1729938, Note_on_c, 0, 60, 117
1, 1732602, Note_off_c, 0, 60, 117
1, 1732785, Note_on_c, 0, 57, 110
1, 1738665, Note_off_c, 0, 57, 110
1, 1739020, Note_on_c, 0, 60, 119
1, 1743463, Note_off_c, 0, 60, 119
1, 1743463, Note_on_c, 0, 62, 112
1, 1772735, Note_off_c, 0, 62, 112
1, 1772865, Note_on_c, 0, 60, 108
1, 1775478, Note_off_c, 0, 60, 108
1, 1775608, Note_on_c, 0, 57, 109
1, 1779267, Note_off_c, 0, 57, 109
1, 1779267, Note_on_c, 0, 56, 109
1, 1794426, Note_off_c, 0, 56, 109
1, 1795446, Note_on_c, 0, 57, 104
1, 1816028, Note_off_c, 0, 57, 104
1, 1816211, Note_on_c, 0, 69, 81
1, 1846533, Note_off_c, 0, 69, 81
1, 1846716, Note_on_c, 0, 67, 112
1, 1850391, Note_off_c, 0, 67, 112
1, 1851126, Note_on_c, 0, 65, 108
1, 1854433, Note_off_c, 0, 65, 108
1, 1854984, Note_on_c, 0, 64, 100
1, 1871339, Note_off_c, 0, 64, 100
1, 1904601, Note_on_c, 0, 62, 116
1, 1907357, Note_off_c, 0, 62, 116
1, 1907908, Note_on_c, 0, 60, 122
1, 1909378, Note_off_c, 0, 60, 122
1, 1910480, Note_on_c, 0, 58, 117
1, 1912317, Note_off_c, 0, 58, 117
1, 1912317, Note_on_c, 0, 60, 123
1, 1914338, Note_off_c, 0, 60, 123
1, 1914338, Note_on_c, 0, 63, 119
1, 1915256, Note_on_c, 0, 66, 116
1, 1915256, Note_off_c, 0, 63, 119
1, 1915991, Note_off_c, 0, 66, 116
1, 1915991, Note_on_c, 0, 67, 121
1, 1916726, Note_off_c, 0, 67, 121
1, 1916726, Note_on_c, 0, 68, 114
1, 1917828, Note_off_c, 0, 68, 114
1, 1917828, Note_on_c, 0, 71, 122
1, 1921870, Note_off_c, 0, 71, 122
1, 1921870, Note_on_c, 0, 74, 122
1, 1925729, Note_off_c, 0, 74, 122
1, 1926647, Note_on_c, 0, 72, 119
1, 1930138, Note_off_c, 0, 72, 119
1, 1930321, Note_on_c, 0, 71, 121
1, 1934731, Note_off_c, 0, 71, 121
1, 1934914, Note_on_c, 0, 69, 112
1, 1938589, Note_off_c, 0, 69, 112
1, 1938956, Note_on_c, 0, 74, 110
1, 1941896, Note_off_c, 0, 74, 110
1, 1943366, Note_on_c, 0, 72, 112
1, 1946122, Note_off_c, 0, 72, 112
1, 1946652, Note_on_c, 0, 63, 112
1, 1973049, Note_off_c, 0, 63, 112
1, 1973441, Note_on_c, 0, 61, 111
1, 1976708, Note_off_c, 0, 61, 111
1, 1977728, Note_on_c, 0, 62, 110
1, 1982689, Note_off_c, 0, 62, 110
1, 1982689, Note_on_c, 0, 72, 96
1, 1997390, Note_off_c, 0, 72, 96
1, 1999043, Note_on_c, 0, 69, 92
1, 2013560, Note_off_c, 0, 69, 92
1, 2013927, Note_on_c, 0, 65, 105
1, 2018888, Note_off_c, 0, 65, 105
1, 2019439, Note_on_c, 0, 64, 101
1, 2043880, Note_off_c, 0, 64, 101
1, 2044798, Note_on_c, 0, 62, 111
1, 2048289, Note_off_c, 0, 62, 111
1, 2050861, Note_on_c, 0, 69, 94
1, 2054352, Note_off_c, 0, 69, 94
1, 2055087, Note_on_c, 0, 67, 113
1, 2060048, Note_off_c, 0, 67, 113
1, 2060231, Note_on_c, 0, 64, 109
1, 2074381, Note_off_c, 0, 64, 109
1, 2074932, Note_on_c, 0, 60, 109
1, 2078607, Note_off_c, 0, 60, 109
1, 2079158, Note_on_c, 0, 63, 109
1, 2095329, Note_off_c, 0, 63, 109
1, 2095696, Note_on_c, 0, 59, 107
1, 2098085, Note_off_c, 0, 59, 107
1, 2099187, Note_on_c, 0, 62, 104
1, 2115542, Note_off_c, 0, 62, 104
1, 2116277, Note_on_c, 0, 58, 99
1, 2119217, Note_off_c, 0, 58, 99
1, 2119217, Note_on_c, 0, 70, 98
1, 2136307, Note_off_c, 0, 70, 98
1, 2137042, Note_on_c, 0, 68, 104
1, 2140717, Note_off_c, 0, 68, 104
1, 2141819, Note_on_c, 0, 66, 97
1, 2157623, Note_off_c, 0, 66, 97
1, 2157990, Note_on_c, 0, 65, 108
1, 2161297, Note_off_c, 0, 65, 108
1, 2162215, Note_on_c, 0, 63, 101
1, 2177835, Note_off_c, 0, 63, 101
1, 2177835, Note_on_c, 0, 62, 107
1, 2182245, Note_off_c, 0, 62, 107
1, 2182428, Note_on_c, 0, 63, 103
1, 2197864, Note_off_c, 0, 63, 103
1, 2209625, Note_on_c, 0, 58, 84
1, 2214403, Note_off_c, 0, 58, 84
1, 2214586, Note_on_c, 0, 70, 112
1, 2218261, Note_off_c, 0, 70, 112
1, 2218812, Note_on_c, 0, 68, 108
1, 2223038, Note_off_c, 0, 68, 108
1, 2223589, Note_on_c, 0, 66, 117
1, 2228183, Note_off_c, 0, 66, 117
1, 2228366, Note_on_c, 0, 65, 110
1, 2232041, Note_off_c, 0, 65, 110
1, 2232224, Note_on_c, 0, 63, 120
1, 2238288, Note_off_c, 0, 63, 120
1, 2238471, Note_on_c, 0, 62, 117
1, 2241778, Note_off_c, 0, 62, 117
1, 2244718, Note_on_c, 0, 63, 101
1, 2263095, Note_off_c, 0, 63, 101
1, 2271180, Note_on_c, 0, 69, 111
1, 2273201, Note_off_c, 0, 69, 111
1, 2273201, Note_on_c, 0, 70, 113
1, 2275038, Note_on_c, 0, 71, 114
1, 2275038, Note_off_c, 0, 70, 113
1, 2278162, Note_off_c, 0, 71, 114
1, 2278162, Note_on_c, 0, 67, 123
1, 2280367, Note_off_c, 0, 67, 123
1, 2280367, Note_on_c, 0, 63, 115
1, 2281837, Note_off_c, 0, 63, 115
1, 2282020, Note_on_c, 0, 60, 123
1, 2286430, Note_off_c, 0, 60, 123
1, 2286430, Note_on_c, 0, 59, 116
1, 2291116, Note_off_c, 0, 59, 116
1, 2291116, Note_on_c, 0, 56, 123
1, 2294883, Note_off_c, 0, 56, 123
1, 2295158, Note_on_c, 0, 55, 110
1, 2296168, Note_off_c, 0, 55, 110
1, 2296168, Note_on_c, 0, 52, 110
1, 2297270, Note_off_c, 0, 52, 110
1, 2297270, Note_on_c, 0, 51, 114
1, 2297821, Note_off_c, 0, 51, 114
1, 2298464, Note_on_c, 0, 47, 112
1, 2300117, Note_off_c, 0, 47, 112
1, 2300484, Note_on_c, 0, 45, 121
1, 2301770, Note_off_c, 0, 45, 121
1, 2301953, Note_on_c, 0, 45, 118
1, 2304893, Note_off_c, 0, 45, 118
1, 2305076, Note_on_c, 0, 44, 115
1, 2338522, Note_off_c, 0, 44, 115
1, 2338797, Note_on_c, 0, 46, 112
1, 2343391, Note_off_c, 0, 46, 112
1, 2345412, Note_on_c, 0, 44, 120
1, 2347617, Note_off_c, 0, 44, 120
1, 2347800, Note_on_c, 0, 46, 108
1, 2361766, Note_off_c, 0, 46, 108
1, 2373711, Note_on_c, 0, 68, 105
1, 2377570, Note_off_c, 0, 68, 105
1, 2379040, Note_on_c, 0, 70, 104
1, 2382899, Note_off_c, 0, 70, 104
1, 2383082, Note_on_c, 0, 68, 106
1, 2386206, Note_off_c, 0, 68, 106
1, 2388962, Note_on_c, 0, 70, 102
1, 2392821, Note_off_c, 0, 70, 102
1, 2393188, Note_on_c, 0, 68, 102
1, 2396312, Note_off_c, 0, 68, 102
1, 2398517, Note_on_c, 0, 70, 95
1, 2401089, Note_off_c, 0, 70, 95
1, 2401640, Note_on_c, 0, 68, 113
1, 2405131, Note_off_c, 0, 68, 113
1, 2406049, Note_on_c, 0, 75, 109
1, 2410459, Note_off_c, 0, 75, 109
1, 2411377, Note_on_c, 0, 68, 112
1, 2415787, Note_off_c, 0, 68, 112
1, 2415787, Note_on_c, 0, 70, 100
1, 2419094, Note_off_c, 0, 70, 100
1, 2419461, Note_on_c, 0, 68, 113
1, 2422768, Note_off_c, 0, 68, 113
1, 2423319, Note_on_c, 0, 67, 104
1, 2435080, Note_off_c, 0, 67, 104
1, 2435263, Note_on_c, 0, 69, 102
1, 2439122, Note_off_c, 0, 69, 102
1, 2439122, Note_on_c, 0, 67, 110
1, 2442797, Note_off_c, 0, 67, 110
1, 2443532, Note_on_c, 0, 74, 100
1, 2452536, Note_off_c, 0, 74, 100
1, 2457130, Note_on_c, 0, 66, 102
1, 2460070, Note_off_c, 0, 66, 102
1, 2460437, Note_on_c, 0, 68, 111
1, 2463744, Note_off_c, 0, 68, 111
1, 2463927, Note_on_c, 0, 66, 109
1, 2468153, Note_off_c, 0, 66, 109
1, 2468336, Note_on_c, 0, 68, 107
1, 2485610, Note_off_c, 0, 68, 107
1, 2504906, Note_on_c, 0, 65, 114
1, 2507662, Note_off_c, 0, 65, 114
1, 2507845, Note_on_c, 0, 64, 111
1, 2510050, Note_off_c, 0, 64, 111
1, 2510601, Note_on_c, 0, 65, 108
1, 2512254, Note_off_c, 0, 65, 108
1, 2512621, Note_on_c, 0, 68, 113
1, 2514458, Note_off_c, 0, 68, 113
1, 2514825, Note_on_c, 0, 63, 120
1, 2517214, Note_off_c, 0, 63, 120
1, 2517214, Note_on_c, 0, 62, 119
1, 2519051, Note_off_c, 0, 62, 119
1, 2519234, Note_on_c, 0, 63, 120
1, 2521071, Note_off_c, 0, 63, 120
1, 2521806, Note_on_c, 0, 65, 122
1, 2525297, Note_off_c, 0, 65, 122
1, 2525664, Note_on_c, 0, 63, 120
1, 2528420, Note_off_c, 0, 63, 120
1, 2528787, Note_on_c, 0, 62, 114
1, 2530808, Note_off_c, 0, 62, 114
1, 2530991, Note_on_c, 0, 65, 113
1, 2533563, Note_off_c, 0, 65, 113
1, 2534665, Note_on_c, 0, 63, 123
1, 2536502, Note_off_c, 0, 63, 123
1, 2537237, Note_on_c, 0, 61, 115
1, 2539074, Note_off_c, 0, 61, 115
1, 2539625, Note_on_c, 0, 60, 121
1, 2543300, Note_off_c, 0, 60, 121
1, 2543667, Note_on_c, 0, 58, 118
1, 2546607, Note_off_c, 0, 58, 118
1, 2546607, Note_on_c, 0, 57, 116
1, 2554876, Note_off_c, 0, 57, 116
1, 2554876, Note_on_c, 0, 58, 120
1, 2566821, Note_off_c, 0, 58, 120
1, 2567004, Note_on_c, 0, 59, 118
1, 2576743, Note_off_c, 0, 59, 118
1, 2576926, Note_on_c, 0, 60, 115
1, 2585747, Note_off_c, 0, 60, 115
1, 2585930, Note_on_c, 0, 68, 111
1, 2596404, Note_off_c, 0, 68, 111
1, 2597139, Note_on_c, 0, 66, 113
1, 2605592, Note_off_c, 0, 66, 113
1, 2606878, Note_on_c, 0, 73, 105
1, 2615331, Note_off_c, 0, 73, 105
1, 2615882, Note_on_c, 0, 69, 97
1, 2626173, Note_off_c, 0, 69, 97
1, 2626908, Note_on_c, 0, 72, 100
1, 2635912, Note_off_c, 0, 72, 100
1, 2637014, Note_on_c, 0, 70, 95
1, 2646753, Note_off_c, 0, 70, 95
1, 2647855, Note_on_c, 0, 65, 109
1, 2657778, Note_off_c, 0, 65, 109
1, 2659064, Note_on_c, 0, 61, 111
1, 2667149, Note_off_c, 0, 61, 111
1, 2667516, Note_on_c, 0, 59, 110
1, 2677990, Note_off_c, 0, 59, 110
1, 2679092, Note_on_c, 0, 57, 111
1, 2686442, Note_off_c, 0, 57, 111
1, 2688831, Note_on_c, 0, 67, 106
1, 2698938, Note_off_c, 0, 67, 106
1, 2699305, Note_on_c, 0, 68, 115
1, 2708126, Note_off_c, 0, 68, 115
1, 2709044, Note_on_c, 0, 60, 107
1, 2737896, Note_off_c, 0, 60, 107
1, 2742857, Note_on_c, 0, 68, 122
1, 2746899, Note_off_c, 0, 68, 122
1, 2747082, Note_on_c, 0, 69, 107
1, 2751308, Note_off_c, 0, 69, 107
1, 2751859, Note_on_c, 0, 61, 9
1, 2782181, Note_off_c, 0, 61, 9
1, 2784018, Note_on_c, 0, 68, 121
1, 2788612, Note_off_c, 0, 68, 121
1, 2789163, Note_on_c, 0, 69, 106
1, 2792470, Note_off_c, 0, 69, 106
1, 2793205, Note_on_c, 0, 71, 112
1, 2797615, Note_off_c, 0, 71, 112
1, 2798166, Note_on_c, 0, 69, 91
1, 2817278, Note_off_c, 0, 69, 91
1, 2818196, Note_on_c, 0, 67, 113
1, 2822974, Note_off_c, 0, 67, 113
1, 2823157, Note_on_c, 0, 66, 111
1, 2827016, Note_off_c, 0, 66, 111
1, 2827016, Note_on_c, 0, 64, 112
1, 2830323, Note_off_c, 0, 64, 112
1, 2830874, Note_on_c, 0, 67, 101
1, 2837306, Note_off_c, 0, 67, 101
1, 2838041, Note_on_c, 0, 66, 101
1, 2849434, Note_off_c, 0, 66, 101
1, 2882145, Note_on_c, 0, 56, 121
1, 2886739, Note_off_c, 0, 56, 121
1, 2886922, Note_on_c, 0, 57, 117
1, 2891883, Note_off_c, 0, 57, 117
1, 2892618, Note_on_c, 0, 71, 121
1, 2897763, Note_off_c, 0, 71, 121
1, 2897946, Note_on_c, 0, 69, 114
1, 2902356, Note_off_c, 0, 69, 114
1, 2902539, Note_on_c, 0, 66, 124
1, 2906581, Note_off_c, 0, 66, 124
1, 2907316, Note_on_c, 0, 62, 122
1, 2910623, Note_off_c, 0, 62, 122
1, 2912093, Note_on_c, 0, 74, 109
1, 2940210, Note_off_c, 0, 74, 109
1, 2940393, Note_on_c, 0, 72, 108
1, 2944252, Note_off_c, 0, 72, 108
1, 2945538, Note_on_c, 0, 70, 96
1, 2950316, Note_off_c, 0, 70, 96
1, 2950867, Note_on_c, 0, 62, 113
1, 2954358, Note_off_c, 0, 62, 113
1, 2958033, Note_on_c, 0, 69, 95
1, 2980085, Note_off_c, 0, 69, 95
1, 2981738, Note_on_c, 0, 62, 111
1, 2986883, Note_off_c, 0, 62, 111
1, 2988353, Note_on_c, 0, 69, 102
1, 2991293, Note_off_c, 0, 69, 102
1, 2991293, Note_on_c, 0, 62, 111
1, 2995519, Note_off_c, 0, 62, 111
1, 2996070, Note_on_c, 0, 69, 96
1, 3024003, Note_off_c, 0, 69, 96
1, 3024186, Note_on_c, 0, 62, 107
1, 3027310, Note_off_c, 0, 62, 107
1, 3028228, Note_on_c, 0, 69, 96
1, 3033741, Note_off_c, 0, 69, 96
1, 3034108, Note_on_c, 0, 62, 97
1, 3037783, Note_off_c, 0, 62, 97
1, 3040355, Note_on_c, 0, 69, 96
1, 3065899, Note_off_c, 0, 69, 96
1, 3067001, Note_on_c, 0, 61, 103
1, 3071962, Note_off_c, 0, 61, 103
1, 3072697, Note_on_c, 0, 68, 107
1, 3076923, Note_off_c, 0, 68, 107
1, 3077658, Note_on_c, 0, 61, 96
1, 3081149, Note_off_c, 0, 61, 96
1, 3081516, Note_on_c, 0, 68, 103
1, 3103201, Note_off_c, 0, 68, 103
1, 3103201, Note_on_c, 0, 61, 101
1, 3107427, Note_off_c, 0, 61, 101
1, 3107978, Note_on_c, 0, 68, 111
1, 3111837, Note_off_c, 0, 68, 111
1, 3112388, Note_on_c, 0, 61, 100
1, 3114960, Note_off_c, 0, 61, 100
1, 3115695, Note_on_c, 0, 69, 88
1, 3139217, Note_off_c, 0, 69, 88
1, 3185711, Note_on_c, 0, 70, 118
1, 3189937, Note_off_c, 0, 70, 118
1, 3190304, Note_on_c, 0, 71, 122
1, 3194530, Note_off_c, 0, 71, 122
1, 3194530, Note_on_c, 0, 74, 118
1, 3199675, Note_off_c, 0, 74, 118
1, 3199858, Note_on_c, 0, 72, 114
1, 3204268, Note_off_c, 0, 72, 114
1, 3204635, Note_on_c, 0, 67, 118
1, 3207759, Note_off_c, 0, 67, 118
1, 3210331, Note_on_c, 0, 64, 117
1, 3212903, Note_off_c, 0, 64, 117
1, 3214005, Note_on_c, 0, 62, 120
1, 3216577, Note_off_c, 0, 62, 120
1, 3219884, Note_on_c, 0, 60, 117
1, 3223375, Note_off_c, 0, 60, 117
1, 3223742, Note_on_c, 0, 59, 107
1, 3232563, Note_off_c, 0, 59, 107
1, 3232563, Note_on_c, 0, 60, 115
1, 3235319, Note_off_c, 0, 60, 115
1, 3235686, Note_on_c, 0, 62, 115
1, 3237707, Note_off_c, 0, 62, 115
1, 3239177, Note_on_c, 0, 64, 123
1, 3241198, Note_off_c, 0, 64, 123
1, 3242116, Note_on_c, 0, 67, 119
1, 3247445, Note_off_c, 0, 67, 119
1, 3247445, Note_on_c, 0, 69, 108
1, 3251855, Note_off_c, 0, 69, 108
1, 3251855, Note_on_c, 0, 71, 118
1, 3256081, Note_off_c, 0, 71, 118
1, 3256816, Note_on_c, 0, 72, 112
1, 3260858, Note_off_c, 0, 72, 112
1, 3261041, Note_on_c, 0, 73, 103
1, 3271148, Note_off_c, 0, 73, 103
1, 3273353, Note_on_c, 0, 70, 102
1, 3276293, Note_off_c, 0, 70, 102
1, 3276293, Note_on_c, 0, 66, 108
1, 3278865, Note_off_c, 0, 66, 108
1, 3278865, Note_on_c, 0, 63, 117
1, 3282356, Note_off_c, 0, 63, 117
1, 3282539, Note_on_c, 0, 62, 107
1, 3304040, Note_off_c, 0, 62, 107
1, 3304407, Note_on_c, 0, 64, 118
1, 3307531, Note_off_c, 0, 64, 118
1, 3307714, Note_on_c, 0, 65, 105
1, 3309000, Note_off_c, 0, 65, 105
1, 3309367, Note_on_c, 0, 67, 112
1, 3311756, Note_off_c, 0, 67, 112
1, 3311756, Note_on_c, 0, 64, 111
1, 3314328, Note_off_c, 0, 64, 111
1, 3314511, Note_on_c, 0, 65, 109
1, 3316532, Note_off_c, 0, 65, 109
1, 3316532, Note_on_c, 0, 62, 115
1, 3318737, Note_off_c, 0, 62, 115
1, 3319472, Note_on_c, 0, 64, 117
1, 3321493, Note_off_c, 0, 64, 117
1, 3322044, Note_on_c, 0, 65, 108
1, 3323881, Note_off_c, 0, 65, 108
1, 3323881, Note_on_c, 0, 67, 115
1, 3327005, Note_off_c, 0, 67, 115
1, 3327740, Note_on_c, 0, 69, 92
1, 3341522, Note_off_c, 0, 69, 92
1, 3341522, Note_on_c, 0, 72, 102
1, 3345748, Note_off_c, 0, 72, 102
1, 3345931, Note_on_c, 0, 71, 104
1, 3350341, Note_off_c, 0, 71, 104
1, 3350341, Note_on_c, 0, 69, 105
1, 3353097, Note_off_c, 0, 69, 105
1, 3353280, Note_on_c, 0, 67, 108
1, 3355485, Note_off_c, 0, 67, 108
1, 3355485, Note_on_c, 0, 65, 103
1, 3358241, Note_off_c, 0, 65, 103
1, 3359159, Note_on_c, 0, 64, 108
1, 3368898, Note_off_c, 0, 64, 108
1, 3371287, Note_on_c, 0, 60, 103
1, 3376248, Note_off_c, 0, 60, 103
1, 3377166, Note_on_c, 0, 63, 103
1, 3390581, Note_off_c, 0, 63, 103
1, 3391867, Note_on_c, 0, 60, 108
1, 3396093, Note_off_c, 0, 60, 108
1, 3396828, Note_on_c, 0, 62, 105
1, 3407302, Note_off_c, 0, 62, 105
1, 3407485, Note_on_c, 0, 63, 117
1, 3410425, Note_off_c, 0, 63, 117
1, 3410792, Note_on_c, 0, 64, 112
1, 3414467, Note_off_c, 0, 64, 112
1, 3415385, Note_on_c, 0, 65, 104
1, 3417038, Note_off_c, 0, 65, 104
1, 3420345, Note_on_c, 0, 73, 102
1, 3429717, Note_off_c, 0, 73, 102
1, 3430268, Note_on_c, 0, 72, 94
1, 3432840, Note_off_c, 0, 72, 94
1, 3433207, Note_on_c, 0, 71, 105
1, 3435779, Note_off_c, 0, 71, 105
1, 3435962, Note_on_c, 0, 70, 96
1, 3437983, Note_off_c, 0, 70, 96
1, 3437983, Note_on_c, 0, 68, 110
1, 3442209, Note_off_c, 0, 68, 110
1, 3443495, Note_on_c, 0, 66, 89
1, 3478411, Note_off_c, 0, 66, 89
1, 3486864, Note_on_c, 0, 71, 112
1, 3493663, Note_off_c, 0, 71, 112
1, 3494030, Note_on_c, 0, 70, 101
1, 3495867, Note_off_c, 0, 70, 101
1, 3495867, Note_on_c, 0, 68, 110
1, 3498256, Note_off_c, 0, 68, 110
1, 3498256, Note_on_c, 0, 66, 113
1, 3500277, Note_off_c, 0, 66, 113
1, 3500644, Note_on_c, 0, 65, 105
1, 3502297, Note_off_c, 0, 65, 105
1, 3502480, Note_on_c, 0, 63, 114
1, 3506339, Note_off_c, 0, 63, 114
1, 3506339, Note_on_c, 0, 62, 94
1, 3523429, Note_off_c, 0, 62, 94
1, 3531882, Note_on_c, 0, 69, 99
1, 3533719, Note_off_c, 0, 69, 99
1, 3533719, Note_on_c, 0, 70, 100
1, 3538864, Note_off_c, 0, 70, 100
1, 3538864, Note_on_c, 0, 68, 109
1, 3541988, Note_off_c, 0, 68, 109
1, 3541988, Note_on_c, 0, 66, 110
1, 3544377, Note_on_c, 0, 65, 112
1, 3544377, Note_off_c, 0, 66, 110
1, 3545847, Note_off_c, 0, 65, 112
1, 3546214, Note_on_c, 0, 63, 113
1, 3550440, Note_off_c, 0, 63, 113
1, 3550623, Note_on_c, 0, 61, 105
1, 3553563, Note_off_c, 0, 61, 105
1, 3553746, Note_on_c, 0, 60, 89
1, 3578738, Note_off_c, 0, 60, 89
1, 3579289, Note_on_c, 0, 70, 112
1, 3581126, Note_off_c, 0, 70, 112
1, 3581126, Note_on_c, 0, 71, 112
1, 3585352, Note_off_c, 0, 71, 112
1, 3585352, Note_on_c, 0, 69, 104
1, 3588659, Note_off_c, 0, 69, 104
1, 3589026, Note_on_c, 0, 68, 111
1, 3591782, Note_off_c, 0, 68, 111
1, 3591782, Note_on_c, 0, 66, 113
1, 3593987, Note_off_c, 0, 66, 113
1, 3594170, Note_on_c, 0, 64, 114
1, 3595180, Note_off_c, 0, 64, 114
1, 3595363, Note_on_c, 0, 63, 111
1, 3598027, Note_off_c, 0, 63, 111
1, 3598027, Note_on_c, 0, 61, 107
1, 3599313, Note_off_c, 0, 61, 107
1, 3599496, Note_on_c, 0, 60, 113
1, 3602620, Note_off_c, 0, 60, 113
1, 3602620, Note_on_c, 0, 58, 114
1, 3604549, Note_off_c, 0, 58, 114
1, 3604640, Note_on_c, 0, 57, 112
1, 3607396, Note_off_c, 0, 57, 112
1, 3608069, Note_on_c, 0, 56, 107
1, 3625841, Note_off_c, 0, 56, 107
1, 3626231, Note_on_c, 0, 56, 116
1, 3627333, Note_off_c, 0, 56, 116
1, 3627333, Note_on_c, 0, 57, 116
1, 3628159, Note_off_c, 0, 57, 116
1, 3628159, Note_on_c, 0, 58, 120
1, 3631283, Note_off_c, 0, 58, 120
1, 3632109, Note_on_c, 0, 53, 110
1, 3636151, Note_off_c, 0, 53, 110
1, 3636151, Note_on_c, 0, 54, 117
1, 3642766, Note_off_c, 0, 54, 117
1, 3642766, Note_on_c, 0, 56, 111
1, 3671342, Note_off_c, 0, 56, 111
1, 3671893, Note_on_c, 0, 58, 113
1, 3675886, Note_off_c, 0, 58, 113
1, 3675886, Note_on_c, 0, 60, 117
1, 3680067, Note_on_c, 0, 61, 113
1, 3680067, Note_off_c, 0, 60, 117
1, 3683595, Note_off_c, 0, 61, 113
1, 3683856, Note_on_c, 0, 62, 108
1, 3685293, Note_off_c, 0, 62, 108
1, 3685685, Note_on_c, 0, 63, 110
1, 3693003, Note_off_c, 0, 63, 110
1, 3693525, Note_on_c, 0, 63, 117
1, 3699928, Note_off_c, 0, 63, 117
1, 3700450, Note_on_c, 0, 63, 107
1, 3704631, Note_off_c, 0, 63, 107
1, 3705153, Note_on_c, 0, 63, 112
1, 3717698, Note_off_c, 0, 63, 112
1, 3719135, Note_on_c, 0, 61, 110
1, 3722924, Note_off_c, 0, 61, 110
1, 3724361, Note_on_c, 0, 68, 101
1, 3737951, Note_off_c, 0, 68, 101
1, 3738343, Note_on_c, 0, 66, 109
1, 3745661, Note_off_c, 0, 66, 109
1, 3746053, Note_on_c, 0, 65, 104
1, 3758990, Note_off_c, 0, 65, 104
1, 3758990, Note_on_c, 0, 63, 110
1, 3764135, Note_off_c, 0, 63, 110
1, 3764318, Note_on_c, 0, 61, 92
1, 3796661, Note_off_c, 0, 61, 92
1, 3812649, Note_on_c, 0, 73, 113
1, 3816691, Note_off_c, 0, 73, 113
1, 3816691, Note_on_c, 0, 72, 112
1, 3821101, Note_off_c, 0, 72, 112
1, 3821101, Note_on_c, 0, 73, 110
1, 3825511, Note_off_c, 0, 73, 110
1, 3825694, Note_on_c, 0, 70, 111
1, 3829553, Note_off_c, 0, 70, 111
1, 3829920, Note_on_c, 0, 69, 99
1, 3833044, Note_off_c, 0, 69, 99
1, 3833044, Note_on_c, 0, 70, 105
1, 3837270, Note_off_c, 0, 70, 105
1, 3838372, Note_on_c, 0, 66, 104
1, 3842782, Note_off_c, 0, 66, 104
1, 3842782, Note_on_c, 0, 58, 103
1, 3845354, Note_off_c, 0, 58, 103
1, 3845354, Note_on_c, 0, 61, 110
1, 3848110, Note_off_c, 0, 61, 110
1, 3849028, Note_on_c, 0, 64, 113
1, 3850681, Note_off_c, 0, 64, 113
1, 3850681, Note_on_c, 0, 65, 107
1, 3880268, Note_off_c, 0, 65, 107
1, 3880819, Note_on_c, 0, 63, 117
1, 3884310, Note_off_c, 0, 63, 117
1, 3885045, Note_on_c, 0, 65, 113
1, 3889087, Note_off_c, 0, 65, 113
1, 3889454, Note_on_c, 0, 68, 106
1, 3894415, Note_off_c, 0, 68, 106
1, 3895333, Note_on_c, 0, 68, 104
1, 3899743, Note_off_c, 0, 68, 104
1, 3900371, Note_on_c, 0, 68, 105
1, 3904814, Note_off_c, 0, 68, 105
1, 3905728, Note_on_c, 0, 68, 107
1, 3910040, Note_off_c, 0, 68, 107
1, 3911869, Note_on_c, 0, 68, 102
1, 3925067, Note_off_c, 0, 68, 102
1, 3925099, Note_on_c, 0, 65, 115
1, 3930428, Note_off_c, 0, 65, 115
1, 3930815, Note_on_c, 0, 61, 96
1, 3985440, Note_off_c, 0, 61, 96
1, 3985440, Note_on_c, 0, 63, 119
1, 3988837, Note_off_c, 0, 63, 119
1, 3989882, Note_on_c, 0, 65, 114
1, 3994325, Note_on_c, 0, 66, 121
1, 3994325, Note_off_c, 0, 65, 114
1, 3998506, Note_off_c, 0, 66, 121
1, 3999812, Note_on_c, 0, 68, 96
1, 4050516, Note_off_c, 0, 68, 96
1, 4058356, Note_on_c, 0, 64, 89
1, 4061753, Note_off_c, 0, 64, 89
1, 4063059, Note_on_c, 0, 66, 122
1, 4066718, Note_off_c, 0, 66, 122
1, 4066718, Note_on_c, 0, 71, 120
1, 4070899, Note_off_c, 0, 71, 120
1, 4071005, Note_on_c, 0, 69, 110
1, 4073945, Note_off_c, 0, 69, 110
1, 4074680, Note_on_c, 0, 68, 117
1, 4078539, Note_off_c, 0, 68, 117
1, 4078906, Note_on_c, 0, 66, 122
1, 4082213, Note_on_c, 0, 64, 116
1, 4082213, Note_off_c, 0, 66, 122
1, 4084050, Note_off_c, 0, 64, 116
1, 4084233, Note_on_c, 0, 65, 112
1, 4085519, Note_off_c, 0, 65, 112
1, 4085519, Note_on_c, 0, 64, 112
1, 4087356, Note_off_c, 0, 64, 112
1, 4087723, Note_on_c, 0, 63, 114
1, 4091949, Note_off_c, 0, 63, 114
1, 4092500, Note_on_c, 0, 61, 114
1, 4095624, Note_off_c, 0, 61, 114
1, 4095624, Note_on_c, 0, 59, 113
1, 4099483, Note_off_c, 0, 59, 113
1, 4099850, Note_on_c, 0, 57, 115
1, 4102606, Note_off_c, 0, 57, 115
1, 4102973, Note_on_c, 0, 56, 115
1, 4106648, Note_off_c, 0, 56, 115
1, 4107199, Note_on_c, 0, 54, 115
1, 4109955, Note_off_c, 0, 54, 115
1, 4110690, Note_on_c, 0, 56, 9
1, 4119143, Note_off_c, 0, 56, 9
1, 4120245, Note_on_c, 0, 56, 111
1, 4121898, Note_off_c, 0, 56, 111
1, 4123551, Note_on_c, 0, 55, 106
1, 4125388, Note_off_c, 0, 55, 106
1, 4125755, Note_on_c, 0, 54, 113
1, 4128144, Note_off_c, 0, 54, 113
1, 4128327, Note_on_c, 0, 52, 109
1, 4131451, Note_off_c, 0, 52, 109
1, 4132553, Note_on_c, 0, 51, 113
1, 4135677, Note_off_c, 0, 51, 113
1, 4136595, Note_on_c, 0, 49, 111
1, 4138432, Note_off_c, 0, 49, 111
1, 4140085, Note_on_c, 0, 47, 117
1, 4144495, Note_off_c, 0, 47, 117
1, 4145781, Note_on_c, 0, 45, 117
1, 4148537, Note_off_c, 0, 45, 117
1, 4149027, Note_on_c, 0, 44, 106
1, 4259583, Note_off_c, 0, 44, 106
1, 4259583, End_track
0, 0, End_of_file
