0, 0, Header, 1, 1, 192
1, 0, Start_track
1, 0, Title_t, "Melody"
1, 0, Tempo, 458015
1, 0, Key_signature, -4, "major"
1, 0, Time_signature, 4, 2, 24, 8
1, 2094, Note_on_c, 0, 65, 102
1, 2179, Note_off_c, 0, 65, 102
1, 2245, Note_on_c, 0, 67, 101
1, 2318, Note_off_c, 0, 67, 101
1, 2374, Note_on_c, 0, 68, 100
1, 2469, Note_off_c, 0, 68, 100
1, 2530, Note_on_c, 0, 65, 98
1, 2606, Note_off_c, 0, 65, 98
1, 2635, Note_on_c, 0, 67, 96
1, 2888, Note_off_c, 0, 67, 96
1, 2911, Note_on_c, 0, 60, 89
1, 3051, Note_off_c, 0, 60, 89
1, 3092, Note_on_c, 0, 65, 90
1, 3256, Note_off_c, 0, 65, 90
1, 3584, Note_on_c, 0, 65, 108
1, 3655, Note_off_c, 0, 65, 108
1, 3658, Note_on_c, 0, 67, 110
1, 3764, Note_off_c, 0, 67, 110
1, 3775, Note_on_c, 0, 67, 108
1, 3834, Note_off_c, 0, 67, 108
1, 3837, Note_on_c, 0, 68, 101
1, 4026, Note_off_c, 0, 68, 101
1, 4034, Note_on_c, 0, 65, 112
1, 4158, Note_off_c, 0, 65, 112
1, 4162, Note_on_c, 0, 67, 96
1, 4423, Note_off_c, 0, 67, 96
1, 4441, Note_on_c, 0, 65, 108
1, 4552, Note_off_c, 0, 65, 108
1, 4572, Note_on_c, 0, 61, 85
1, 4797, Note_off_c, 0, 61, 85
1, 5578, Note_on_c, 0, 65, 101
1, 5619, Note_off_c, 0, 65, 101
1, 5718, Note_on_c, 0, 70, 100
1, 5778, Note_off_c, 0, 70, 100
1, 5779, Note_on_c, 0, 71, 112
1, 5844, Note_off_c, 0, 71, 112
1, 5851, Note_on_c, 0, 72, 102
1, 5886, Note_off_c, 0, 72, 102
1, 5891, Note_on_c, 0, 71, 110
1, 5943, Note_off_c, 0, 71, 110
1, 5962, Note_on_c, 0, 70, 92
1, 6019, Note_off_c, 0, 70, 92
1, 6022, Note_on_c, 0, 68, 108
1, 6076, Note_off_c, 0, 68, 108
1, 6076, Note_on_c, 0, 65, 111
1, 6130, Note_off_c, 0, 65, 111
1, 6171, Note_on_c, 0, 70, 87
1, 6378, Note_off_c, 0, 70, 87
1, 6461, Note_on_c, 0, 67, 105
1, 6526, Note_off_c, 0, 67, 105
1, 6532, Note_on_c, 0, 66, 105
1, 6563, Note_off_c, 0, 66, 105
1, 6570, Note_on_c, 0, 67, 101
1, 6596, Note_off_c, 0, 67, 101
1, 6598, Note_on_c, 0, 65, 104
1, 6629, Note_off_c, 0, 65, 104
1, 6637, Note_on_c, 0, 62, 101
1, 6691, Note_off_c, 0, 62, 101
1, 6711, Note_on_c, 0, 65, 107
1, 6749, Note_off_c, 0, 65, 107
1, 6754, Note_on_c, 0, 67, 93
1, 6769, Note_off_c, 0, 67, 93
1, 6770, Note_on_c, 0, 65, 104
1, 6818, Note_off_c, 0, 65, 104
1, 6821, Note_on_c, 0, 62, 101
1, 6895, Note_off_c, 0, 62, 101
1, 6920, Note_on_c, 0, 64, 114
1, 7023, Note_off_c, 0, 64, 114
1, 7026, Note_on_c, 0, 60, 95
1, 7195, Note_off_c, 0, 60, 95
1, 7195, Note_on_c, 0, 62, 102
1, 7225, Note_off_c, 0, 62, 102
1, 7227, Note_on_c, 0, 67, 105
1, 7262, Note_off_c, 0, 67, 105
1, 7265, Note_on_c, 0, 70, 92
1, 7280, Note_off_c, 0, 70, 92
1, 7293, Note_on_c, 0, 72, 114
1, 7534, Note_off_c, 0, 72, 114
1, 7593, Note_on_c, 0, 60, 100
1, 7658, Note_off_c, 0, 60, 100
1, 7658, Note_on_c, 0, 68, 104
1, 7783, Note_off_c, 0, 68, 104
1, 7783, Note_on_c, 0, 65, 92
1, 8013, Note_off_c, 0, 65, 92
1, 8033, Note_on_c, 0, 68, 112
1, 8106, Note_off_c, 0, 68, 112
1, 8430, Note_on_c, 0, 68, 112
1, 8501, Note_off_c, 0, 68, 112
1, 8611, Note_on_c, 0, 68, 113
1, 8693, Note_off_c, 0, 68, 113
1, 8808, Note_on_c, 0, 68, 112
1, 8882, Note_off_c, 0, 68, 112
1, 8919, Note_on_c, 0, 64, 118
1, 8986, Note_off_c, 0, 64, 118
1, 8993, Note_on_c, 0, 60, 110
1, 9042, Note_off_c, 0, 60, 110
1, 9054, Note_on_c, 0, 56, 99
1, 9089, Note_off_c, 0, 56, 99
1, 9106, Note_on_c, 0, 52, 90
1, 9154, Note_off_c, 0, 52, 90
1, 9201, Note_on_c, 0, 68, 109
1, 9308, Note_off_c, 0, 68, 109
1, 9323, Note_on_c, 0, 65, 94
1, 9569, Note_off_c, 0, 65, 94
1, 9581, Note_on_c, 0, 68, 107
1, 9656, Note_off_c, 0, 68, 107
1, 10073, Note_on_c, 0, 68, 110
1, 10211, Note_off_c, 0, 68, 110
1, 10213, Note_on_c, 0, 67, 111
1, 10268, Note_off_c, 0, 67, 111
1, 10269, Note_on_c, 0, 65, 112
1, 10335, Note_off_c, 0, 65, 112
1, 10336, Note_on_c, 0, 64, 117
1, 10440, Note_off_c, 0, 64, 117
1, 10461, Note_on_c, 0, 65, 109
1, 10523, Note_off_c, 0, 65, 109
1, 10549, Note_on_c, 0, 67, 113
1, 10604, Note_off_c, 0, 67, 113
1, 10606, Note_on_c, 0, 68, 109
1, 10651, Note_off_c, 0, 68, 109
1, 10651, Note_on_c, 0, 65, 102
1, 10850, Note_off_c, 0, 65, 102
1, 11053, Note_on_c, 0, 58, 101
1, 11102, Note_off_c, 0, 58, 101
1, 11109, Note_on_c, 0, 61, 108
1, 11174, Note_off_c, 0, 61, 108
1, 11234, Note_on_c, 0, 61, 112
1, 11286, Note_off_c, 0, 61, 112
1, 11305, Note_on_c, 0, 65, 114
1, 11366, Note_off_c, 0, 65, 114
1, 11370, Note_on_c, 0, 61, 98
1, 11421, Note_off_c, 0, 61, 98
1, 11422, Note_on_c, 0, 65, 115
1, 11481, Note_off_c, 0, 65, 115
1, 11485, Note_on_c, 0, 68, 112
1, 11555, Note_off_c, 0, 68, 112
1, 11769, Note_on_c, 0, 58, 99
1, 11806, Note_off_c, 0, 58, 99
1, 11812, Note_on_c, 0, 61, 114
1, 11863, Note_off_c, 0, 61, 114
1, 11872, Note_on_c, 0, 65, 117
1, 11921, Note_off_c, 0, 65, 117
1, 11941, Note_on_c, 0, 58, 104
1, 11976, Note_off_c, 0, 58, 104
1, 11988, Note_on_c, 0, 61, 112
1, 12061, Note_off_c, 0, 61, 112
1, 12063, Note_on_c, 0, 65, 115
1, 12128, Note_off_c, 0, 65, 115
1, 12131, Note_on_c, 0, 61, 114
1, 12183, Note_off_c, 0, 61, 114
1, 12185, Note_on_c, 0, 65, 111
1, 12254, Note_off_c, 0, 65, 111
1, 12257, Note_on_c, 0, 68, 113
1, 12342, Note_off_c, 0, 68, 113
1, 12436, Note_on_c, 0, 65, 111
1, 12512, Note_off_c, 0, 65, 111
1, 12560, Note_on_c, 0, 68, 113
1, 12608, Note_off_c, 0, 68, 113
1, 12648, Note_on_c, 0, 64, 117
1, 12723, Note_off_c, 0, 64, 117
1, 12754, Note_on_c, 0, 67, 110
1, 12829, Note_off_c, 0, 67, 110
1, 12849, Note_on_c, 0, 71, 108
1, 12922, Note_off_c, 0, 71, 108
1, 13131, Note_on_c, 0, 72, 107
1, 13382, Note_off_c, 0, 72, 107
1, 13424, Note_on_c, 0, 70, 99
1, 13489, Note_off_c, 0, 70, 99
1, 13520, Note_on_c, 0, 67, 112
1, 13588, Note_off_c, 0, 67, 112
1, 13607, Note_on_c, 0, 63, 116
1, 13697, Note_off_c, 0, 63, 116
1, 13709, Note_on_c, 0, 64, 119
1, 13792, Note_off_c, 0, 64, 119
1, 13802, Note_on_c, 0, 65, 109
1, 13962, Note_off_c, 0, 65, 109
1, 13975, Note_on_c, 0, 63, 116
1, 14089, Note_off_c, 0, 63, 116
1, 14162, Note_on_c, 0, 59, 103
1, 14214, Note_off_c, 0, 59, 103
1, 14218, Note_on_c, 0, 60, 106
1, 14364, Note_off_c, 0, 60, 106
1, 14368, Note_on_c, 0, 58, 101
1, 14451, Note_off_c, 0, 58, 101
1, 14569, Note_on_c, 0, 56, 100
1, 14716, Note_off_c, 0, 56, 100
1, 14719, Note_on_c, 0, 55, 93
1, 14858, Note_off_c, 0, 55, 93
1, 14865, Note_on_c, 0, 56, 104
1, 14969, Note_off_c, 0, 56, 104
1, 15424, Note_on_c, 0, 66, 119
1, 15456, Note_off_c, 0, 66, 119
1, 15458, Note_on_c, 0, 67, 118
1, 15585, Note_off_c, 0, 67, 118
1, 15716, Note_on_c, 0, 65, 111
1, 15814, Note_off_c, 0, 65, 111
1, 15820, Note_on_c, 0, 63, 120
1, 15882, Note_off_c, 0, 63, 120
1, 15892, Note_on_c, 0, 59, 103
1, 15942, Note_off_c, 0, 59, 103
1, 15945, Note_on_c, 0, 60, 102
1, 15981, Note_off_c, 0, 60, 102
1, 16021, Note_on_c, 0, 59, 103
1, 16078, Note_off_c, 0, 59, 103
1, 16082, Note_on_c, 0, 58, 103
1, 16168, Note_off_c, 0, 58, 103
1, 16197, Note_on_c, 0, 56, 107
1, 16252, Note_off_c, 0, 56, 107
1, 16270, Note_on_c, 0, 53, 88
1, 16368, Note_off_c, 0, 53, 88
1, 16389, Note_on_c, 0, 56, 106
1, 16448, Note_off_c, 0, 56, 106
1, 16463, Note_on_c, 0, 58, 102
1, 16583, Note_off_c, 0, 58, 102
1, 16597, Note_on_c, 0, 60, 104
1, 16663, Note_off_c, 0, 60, 104
1, 16781, Note_on_c, 0, 56, 94
1, 17020, Note_off_c, 0, 56, 94
1, 17051, Note_on_c, 0, 58, 103
1, 17131, Note_off_c, 0, 58, 103
1, 17166, Note_on_c, 0, 59, 103
1, 17239, Note_off_c, 0, 59, 103
1, 17249, Note_on_c, 0, 60, 103
1, 17332, Note_off_c, 0, 60, 103
1, 17352, Note_on_c, 0, 63, 106
1, 17399, Note_off_c, 0, 63, 106
1, 17419, Note_on_c, 0, 65, 106
1, 17540, Note_off_c, 0, 65, 106
1, 17552, Note_on_c, 0, 68, 111
1, 17633, Note_off_c, 0, 68, 111
1, 17873, Note_on_c, 0, 70, 118
1, 17909, Note_off_c, 0, 70, 118
1, 17913, Note_on_c, 0, 71, 110
1, 17953, Note_off_c, 0, 71, 110
1, 17993, Note_on_c, 0, 71, 121
1, 18025, Note_off_c, 0, 71, 121
1, 18028, Note_on_c, 0, 72, 113
1, 18076, Note_off_c, 0, 72, 113
1, 18107, Note_on_c, 0, 72, 127
1, 18149, Note_off_c, 0, 72, 127
1, 18153, Note_on_c, 0, 73, 108
1, 18193, Note_off_c, 0, 73, 108
1, 18216, Note_on_c, 0, 73, 125
1, 18261, Note_off_c, 0, 73, 125
1, 18265, Note_on_c, 0, 74, 123
1, 18297, Note_off_c, 0, 74, 123
1, 18322, Note_on_c, 0, 74, 123
1, 18359, Note_off_c, 0, 74, 123
1, 18363, Note_on_c, 0, 75, 122
1, 18397, Note_off_c, 0, 75, 122
1, 18422, Note_on_c, 0, 70, 116
1, 18475, Note_off_c, 0, 70, 116
1, 18483, Note_on_c, 0, 72, 99
1, 18549, Note_off_c, 0, 72, 99
1, 18568, Note_on_c, 0, 67, 112
1, 18613, Note_off_c, 0, 67, 112
1, 18617, Note_on_c, 0, 68, 97
1, 18868, Note_off_c, 0, 68, 97
1, 19035, Note_on_c, 0, 65, 96
1, 19081, Note_off_c, 0, 65, 96
1, 19083, Note_on_c, 0, 61, 94
1, 19151, Note_off_c, 0, 61, 94
1, 19159, Note_on_c, 0, 58, 86
1, 19315, Note_off_c, 0, 58, 86
1, 19813, Note_on_c, 0, 60, 107
1, 19907, Note_off_c, 0, 60, 107
1, 19914, Note_on_c, 0, 59, 96
1, 20069, Note_off_c, 0, 59, 96
1, 20070, Note_on_c, 0, 56, 106
1, 20203, Note_off_c, 0, 56, 106
1, 20222, Note_on_c, 0, 53, 92
1, 20251, Note_off_c, 0, 53, 92
1, 20255, Note_on_c, 0, 56, 101
1, 20461, Note_off_c, 0, 56, 101
1, 20465, Note_on_c, 0, 58, 104
1, 20551, Note_off_c, 0, 58, 104
1, 20761, Note_on_c, 0, 52, 99
1, 20825, Note_off_c, 0, 52, 99
1, 20834, Note_on_c, 0, 55, 88
1, 20908, Note_off_c, 0, 55, 88
1, 20916, Note_on_c, 0, 56, 110
1, 20985, Note_off_c, 0, 56, 110
1, 20994, Note_on_c, 0, 58, 110
1, 21062, Note_off_c, 0, 58, 110
1, 21093, Note_on_c, 0, 60, 110
1, 21181, Note_off_c, 0, 60, 110
1, 21194, Note_on_c, 0, 64, 116
1, 21285, Note_off_c, 0, 64, 116
1, 21315, Note_on_c, 0, 60, 111
1, 21372, Note_off_c, 0, 60, 111
1, 21375, Note_on_c, 0, 56, 106
1, 21452, Note_off_c, 0, 56, 106
1, 21736, Note_on_c, 0, 59, 114
1, 21774, Note_off_c, 0, 59, 114
1, 21780, Note_on_c, 0, 60, 106
1, 21904, Note_off_c, 0, 60, 106
1, 21908, Note_on_c, 0, 59, 101
1, 21982, Note_off_c, 0, 59, 101
1, 21996, Note_on_c, 0, 56, 105
1, 22103, Note_off_c, 0, 56, 105
1, 22126, Note_on_c, 0, 52, 100
1, 22201, Note_off_c, 0, 52, 100
1, 22204, Note_on_c, 0, 55, 108
1, 22291, Note_off_c, 0, 55, 108
1, 22320, Note_on_c, 0, 53, 86
1, 22524, Note_off_c, 0, 53, 86
1, 22936, Note_on_c, 0, 68, 111
1, 23242, Note_off_c, 0, 68, 111
1, 23252, Note_on_c, 0, 65, 114
1, 23333, Note_off_c, 0, 65, 114
1, 23343, Note_on_c, 0, 67, 114
1, 23487, Note_off_c, 0, 67, 114
1, 23500, Note_on_c, 0, 68, 111
1, 23588, Note_off_c, 0, 68, 111
1, 23635, Note_on_c, 0, 70, 111
1, 23676, Note_off_c, 0, 70, 111
1, 23687, Note_on_c, 0, 71, 109
1, 23819, Note_off_c, 0, 71, 109
1, 23822, Note_on_c, 0, 70, 98
1, 23870, Note_off_c, 0, 70, 98
1, 23879, Note_on_c, 0, 70, 93
1, 23952, Note_off_c, 0, 70, 93
1, 23958, Note_on_c, 0, 68, 96
1, 24004, Note_off_c, 0, 68, 96
1, 24005, Note_on_c, 0, 70, 92
1, 24096, Note_off_c, 0, 70, 92
1, 24391, Note_on_c, 0, 68, 113
1, 24455, Note_off_c, 0, 68, 113
1, 24458, Note_on_c, 0, 65, 111
1, 24546, Note_off_c, 0, 65, 111
1, 24672, Note_on_c, 0, 56, 98
1, 24708, Note_off_c, 0, 56, 98
1, 24715, Note_on_c, 0, 60, 96
1, 24757, Note_off_c, 0, 60, 96
1, 24760, Note_on_c, 0, 65, 111
1, 24834, Note_off_c, 0, 65, 111
1, 24838, Note_on_c, 0, 64, 118
1, 24921, Note_off_c, 0, 64, 118
1, 25155, Note_on_c, 0, 63, 103
1, 25393, Note_off_c, 0, 63, 103
1, 25490, Note_on_c, 0, 58, 93
1, 25528, Note_off_c, 0, 58, 93
1, 25537, Note_on_c, 0, 61, 101
1, 25588, Note_off_c, 0, 61, 101
1, 25612, Note_on_c, 0, 64, 114
1, 25650, Note_off_c, 0, 64, 114
1, 25657, Note_on_c, 0, 65, 105
1, 25716, Note_off_c, 0, 65, 105
1, 25729, Note_on_c, 0, 64, 111
1, 25794, Note_off_c, 0, 64, 111
1, 25807, Note_on_c, 0, 65, 102
1, 25861, Note_off_c, 0, 65, 102
1, 25864, Note_on_c, 0, 61, 99
1, 25910, Note_off_c, 0, 61, 99
1, 25919, Note_on_c, 0, 56, 97
1, 25974, Note_off_c, 0, 56, 97
1, 25984, Note_on_c, 0, 55, 93
1, 26036, Note_off_c, 0, 55, 93
1, 26043, Note_on_c, 0, 54, 93
1, 26089, Note_off_c, 0, 54, 93
1, 26099, Note_on_c, 0, 53, 89
1, 26192, Note_off_c, 0, 53, 89
1, 26665, Note_on_c, 0, 67, 111
1, 26694, Note_off_c, 0, 67, 111
1, 26702, Note_on_c, 0, 68, 115
1, 26752, Note_off_c, 0, 68, 115
1, 26803, Note_on_c, 0, 70, 112
1, 26838, Note_off_c, 0, 70, 112
1, 26839, Note_on_c, 0, 71, 118
1, 26879, Note_off_c, 0, 71, 118
1, 26922, Note_on_c, 0, 71, 118
1, 26960, Note_off_c, 0, 71, 118
1, 26963, Note_on_c, 0, 72, 117
1, 27004, Note_off_c, 0, 72, 117
1, 27030, Note_on_c, 0, 72, 122
1, 27065, Note_off_c, 0, 72, 122
1, 27069, Note_on_c, 0, 73, 119
1, 27112, Note_off_c, 0, 73, 119
1, 27129, Note_on_c, 0, 73, 122
1, 27158, Note_off_c, 0, 73, 122
1, 27161, Note_on_c, 0, 74, 118
1, 27204, Note_off_c, 0, 74, 118
1, 27219, Note_on_c, 0, 74, 107
1, 27245, Note_off_c, 0, 74, 107
1, 27245, Note_on_c, 0, 75, 116
1, 27297, Note_off_c, 0, 75, 116
1, 27318, Note_on_c, 0, 63, 100
1, 27383, Note_off_c, 0, 63, 100
1, 27457, Note_on_c, 0, 70, 108
1, 27499, Note_off_c, 0, 70, 108
1, 27501, Note_on_c, 0, 72, 112
1, 27555, Note_off_c, 0, 72, 112
1, 27570, Note_on_c, 0, 68, 93
1, 27770, Note_off_c, 0, 68, 93
1, 28767, Note_on_c, 0, 71, 100
1, 28819, Note_off_c, 0, 71, 100
1, 28827, Note_on_c, 0, 72, 104
1, 28889, Note_off_c, 0, 72, 104
1, 28959, Note_on_c, 0, 68, 113
1, 29035, Note_off_c, 0, 68, 113
1, 29048, Note_on_c, 0, 65, 101
1, 29159, Note_off_c, 0, 65, 101
1, 29159, Note_on_c, 0, 60, 100
1, 29213, Note_off_c, 0, 60, 100
1, 29228, Note_on_c, 0, 65, 106
1, 29332, Note_off_c, 0, 65, 106
1, 29367, Note_on_c, 0, 67, 109
1, 29424, Note_off_c, 0, 67, 109
1, 29433, Note_on_c, 0, 68, 105
1, 29536, Note_off_c, 0, 68, 105
1, 29555, Note_on_c, 0, 67, 103
1, 29612, Note_off_c, 0, 67, 103
1, 29625, Note_on_c, 0, 65, 103
1, 29723, Note_off_c, 0, 65, 103
1, 29755, Note_on_c, 0, 67, 96
1, 29857, Note_off_c, 0, 67, 96
1, 29908, Note_on_c, 0, 60, 91
1, 29982, Note_off_c, 0, 60, 91
1, 30125, Note_on_c, 0, 60, 93
1, 30176, Note_off_c, 0, 60, 93
1, 30206, Note_on_c, 0, 72, 111
1, 30298, Note_off_c, 0, 72, 111
1, 30525, Note_on_c, 0, 60, 101
1, 30573, Note_off_c, 0, 60, 101
1, 30592, Note_on_c, 0, 63, 105
1, 30706, Note_off_c, 0, 63, 105
1, 30712, Note_on_c, 0, 60, 90
1, 30760, Note_off_c, 0, 60, 90
1, 30904, Note_on_c, 0, 60, 102
1, 30970, Note_off_c, 0, 60, 102
1, 31034, Note_on_c, 0, 72, 101
1, 31122, Note_off_c, 0, 72, 101
1, 31147, Note_on_c, 0, 70, 102
1, 31182, Note_off_c, 0, 70, 102
1, 31214, Note_on_c, 0, 68, 100
1, 31251, Note_off_c, 0, 68, 100
1, 31264, Note_on_c, 0, 67, 102
1, 31290, Note_off_c, 0, 67, 102
1, 31303, Note_on_c, 0, 65, 98
1, 31337, Note_off_c, 0, 65, 98
1, 31350, Note_on_c, 0, 63, 109
1, 31397, Note_off_c, 0, 63, 109
1, 31410, Note_on_c, 0, 64, 106
1, 31435, Note_off_c, 0, 64, 106
1, 31443, Note_on_c, 0, 67, 98
1, 31484, Note_off_c, 0, 67, 98
1, 31485, Note_on_c, 0, 65, 89
1, 31645, Note_off_c, 0, 65, 89
1, 32226, Note_on_c, 0, 68, 111
1, 32297, Note_off_c, 0, 68, 111
1, 32301, Note_on_c, 0, 64, 105
1, 32352, Note_off_c, 0, 64, 105
1, 32356, Note_on_c, 0, 65, 102
1, 32411, Note_off_c, 0, 65, 102
1, 32423, Note_on_c, 0, 68, 112
1, 32480, Note_off_c, 0, 68, 112
1, 32500, Note_on_c, 0, 65, 106
1, 32587, Note_off_c, 0, 65, 106
1, 32607, Note_on_c, 0, 61, 107
1, 32682, Note_off_c, 0, 61, 107
1, 32692, Note_on_c, 0, 58, 99
1, 32791, Note_off_c, 0, 58, 99
1, 32818, Note_on_c, 0, 53, 93
1, 32858, Note_off_c, 0, 53, 93
1, 32894, Note_on_c, 0, 57, 99
1, 32985, Note_off_c, 0, 57, 99
1, 32991, Note_on_c, 0, 53, 74
1, 33028, Note_off_c, 0, 53, 74
1, 33074, Note_on_c, 0, 57, 100
1, 33187, Note_off_c, 0, 57, 100
1, 33201, Note_on_c, 0, 53, 87
1, 33241, Note_off_c, 0, 53, 87
1, 33284, Note_on_c, 0, 56, 105
1, 33360, Note_off_c, 0, 56, 105
1, 33391, Note_on_c, 0, 53, 82
1, 33432, Note_off_c, 0, 53, 82
1, 33468, Note_on_c, 0, 56, 101
1, 33571, Note_off_c, 0, 56, 101
1, 33603, Note_on_c, 0, 53, 89
1, 33794, Note_off_c, 0, 53, 89
1, 33971, Note_on_c, 0, 56, 106
1, 34023, Note_off_c, 0, 56, 106
1, 34033, Note_on_c, 0, 52, 90
1, 34092, Note_off_c, 0, 52, 90
1, 34097, Note_on_c, 0, 53, 101
1, 34143, Note_off_c, 0, 53, 101
1, 34157, Note_on_c, 0, 56, 107
1, 34214, Note_off_c, 0, 56, 107
1, 34224, Note_on_c, 0, 52, 90
1, 34271, Note_off_c, 0, 52, 90
1, 34272, Note_on_c, 0, 53, 93
1, 34308, Note_off_c, 0, 53, 93
1, 34311, Note_on_c, 0, 56, 107
1, 34373, Note_off_c, 0, 56, 107
1, 34401, Note_on_c, 0, 58, 103
1, 34425, Note_off_c, 0, 58, 103
1, 34430, Note_on_c, 0, 59, 114
1, 34562, Note_off_c, 0, 59, 114
1, 34572, Note_on_c, 0, 58, 94
1, 34914, Note_off_c, 0, 58, 94
1, 35115, Note_on_c, 0, 67, 117
1, 35151, Note_off_c, 0, 67, 117
1, 35153, Note_on_c, 0, 68, 116
1, 35209, Note_off_c, 0, 68, 116
1, 35313, Note_on_c, 0, 65, 90
1, 35542, Note_off_c, 0, 65, 90
1, 35557, Note_on_c, 0, 60, 101
1, 35648, Note_off_c, 0, 60, 101
1, 35744, Note_on_c, 0, 56, 96
1, 35838, Note_off_c, 0, 56, 96
1, 35937, Note_on_c, 0, 59, 101
1, 36084, Note_off_c, 0, 59, 101
1, 36088, Note_on_c, 0, 58, 98
1, 36162, Note_off_c, 0, 58, 98
1, 36164, Note_on_c, 0, 59, 101
1, 36257, Note_off_c, 0, 59, 101
1, 36269, Note_on_c, 0, 58, 97
1, 36396, Note_off_c, 0, 58, 97
1, 36799, Note_on_c, 0, 70, 94
1, 36822, Note_off_c, 0, 70, 94
1, 36835, Note_on_c, 0, 72, 114
1, 36882, Note_off_c, 0, 72, 114
1, 36905, Note_on_c, 0, 68, 106
1, 36990, Note_off_c, 0, 68, 106
1, 37082, Note_on_c, 0, 65, 97
1, 37184, Note_off_c, 0, 65, 97
1, 37191, Note_on_c, 0, 60, 94
1, 37262, Note_off_c, 0, 60, 94
1, 37366, Note_on_c, 0, 59, 97
1, 37588, Note_off_c, 0, 59, 97
1, 37598, Note_on_c, 0, 56, 100
1, 37633, Note_off_c, 0, 56, 100
1, 37657, Note_on_c, 0, 59, 101
1, 37742, Note_off_c, 0, 59, 101
1, 37749, Note_on_c, 0, 58, 99
1, 37876, Note_off_c, 0, 58, 99
1, 38670, Note_on_c, 0, 58, 100
1, 38711, Note_off_c, 0, 58, 100
1, 38714, Note_on_c, 0, 61, 110
1, 38755, Note_off_c, 0, 61, 110
1, 38764, Note_on_c, 0, 65, 109
1, 38821, Note_off_c, 0, 65, 109
1, 38835, Note_on_c, 0, 58, 104
1, 38886, Note_off_c, 0, 58, 104
1, 38890, Note_on_c, 0, 61, 109
1, 38939, Note_off_c, 0, 61, 109
1, 38951, Note_on_c, 0, 65, 104
1, 39021, Note_off_c, 0, 65, 104
1, 39022, Note_on_c, 0, 61, 108
1, 39077, Note_off_c, 0, 61, 108
1, 39078, Note_on_c, 0, 65, 105
1, 39142, Note_off_c, 0, 65, 105
1, 39146, Note_on_c, 0, 68, 106
1, 39198, Note_off_c, 0, 68, 106
1, 39219, Note_on_c, 0, 61, 104
1, 39256, Note_off_c, 0, 61, 104
1, 39260, Note_on_c, 0, 65, 102
1, 39308, Note_off_c, 0, 65, 102
1, 39309, Note_on_c, 0, 68, 102
1, 39373, Note_off_c, 0, 68, 102
1, 39377, Note_on_c, 0, 71, 109
1, 39448, Note_off_c, 0, 71, 109
1, 39479, Note_on_c, 0, 72, 119
1, 39528, Note_off_c, 0, 72, 119
1, 39530, Note_on_c, 0, 72, 116
1, 39595, Note_off_c, 0, 72, 116
1, 39613, Note_on_c, 0, 73, 115
1, 39649, Note_off_c, 0, 73, 115
1, 39658, Note_on_c, 0, 74, 122
1, 39700, Note_off_c, 0, 74, 122
1, 39706, Note_on_c, 0, 73, 120
1, 39740, Note_off_c, 0, 73, 120
1, 39752, Note_on_c, 0, 75, 114
1, 39852, Note_off_c, 0, 75, 114
1, 40221, Note_on_c, 0, 63, 112
1, 40296, Note_off_c, 0, 63, 112
1, 40359, Note_on_c, 0, 70, 111
1, 40408, Note_off_c, 0, 70, 111
1, 40415, Note_on_c, 0, 72, 115
1, 40457, Note_off_c, 0, 72, 115
1, 40470, Note_on_c, 0, 70, 108
1, 40538, Note_off_c, 0, 70, 108
1, 40630, Note_on_c, 0, 67, 101
1, 40712, Note_off_c, 0, 67, 101
1, 40730, Note_on_c, 0, 63, 110
1, 40789, Note_off_c, 0, 63, 110
1, 40799, Note_on_c, 0, 62, 104
1, 40859, Note_off_c, 0, 62, 104
1, 40866, Note_on_c, 0, 61, 95
1, 40965, Note_off_c, 0, 61, 95
1, 41014, Note_on_c, 0, 60, 97
1, 41078, Note_off_c, 0, 60, 97
1, 41180, Note_on_c, 0, 63, 100
1, 41420, Note_off_c, 0, 63, 100
1, 41432, Note_on_c, 0, 65, 97
1, 41503, Note_off_c, 0, 65, 97
1, 41622, Note_on_c, 0, 56, 91
1, 41796, Note_off_c, 0, 56, 91
1, 41807, Note_on_c, 0, 58, 88
1, 41893, Note_off_c, 0, 58, 88
1, 41998, Note_on_c, 0, 56, 91
1, 42195, Note_off_c, 0, 56, 91
1, 42321, Note_on_c, 0, 56, 101
1, 42404, Note_off_c, 0, 56, 101
1, 42715, Note_on_c, 0, 65, 105
1, 42797, Note_off_c, 0, 65, 105
1, 42908, Note_on_c, 0, 65, 105
1, 42979, Note_off_c, 0, 65, 105
1, 43089, Note_on_c, 0, 67, 105
1, 43164, Note_off_c, 0, 67, 105
1, 43175, Note_on_c, 0, 65, 100
1, 43251, Note_off_c, 0, 65, 100
1, 43290, Note_on_c, 0, 63, 110
1, 43341, Note_off_c, 0, 63, 110
1, 43368, Note_on_c, 0, 59, 99
1, 43395, Note_off_c, 0, 59, 99
1, 43396, Note_on_c, 0, 60, 98
1, 43443, Note_off_c, 0, 60, 98
1, 43574, Note_on_c, 0, 56, 86
1, 43763, Note_off_c, 0, 56, 86
1, 43878, Note_on_c, 0, 56, 88
1, 44065, Note_off_c, 0, 56, 88
1, 44435, Note_on_c, 0, 68, 107
1, 44699, Note_off_c, 0, 68, 107
1, 44710, Note_on_c, 0, 65, 102
1, 44802, Note_off_c, 0, 65, 102
1, 44831, Note_on_c, 0, 63, 111
1, 44877, Note_off_c, 0, 63, 111
1, 44915, Note_on_c, 0, 58, 99
1, 44964, Note_off_c, 0, 58, 99
1, 44967, Note_on_c, 0, 60, 99
1, 45020, Note_off_c, 0, 60, 99
1, 45020, Note_on_c, 0, 63, 110
1, 45089, Note_off_c, 0, 63, 110
1, 45113, Note_on_c, 0, 58, 99
1, 45145, Note_off_c, 0, 58, 99
1, 45157, Note_on_c, 0, 60, 102
1, 45210, Note_off_c, 0, 60, 102
1, 45216, Note_on_c, 0, 63, 111
1, 45271, Note_off_c, 0, 63, 111
1, 45301, Note_on_c, 0, 58, 96
1, 45344, Note_off_c, 0, 58, 96
1, 45353, Note_on_c, 0, 60, 98
1, 45408, Note_off_c, 0, 60, 98
1, 45410, Note_on_c, 0, 63, 110
1, 45478, Note_off_c, 0, 63, 110
1, 45479, Note_on_c, 0, 59, 97
1, 45520, Note_off_c, 0, 59, 97
1, 45523, Note_on_c, 0, 60, 100
1, 45568, Note_off_c, 0, 60, 100
1, 45579, Note_on_c, 0, 56, 98
1, 45646, Note_off_c, 0, 56, 98
1, 45658, Note_on_c, 0, 58, 99
1, 45763, Note_off_c, 0, 58, 99
1, 45782, Note_on_c, 0, 53, 93
1, 45842, Note_off_c, 0, 53, 93
1, 45845, Note_on_c, 0, 56, 96
1, 45963, Note_off_c, 0, 56, 96
1, 45969, Note_on_c, 0, 58, 91
1, 46194, Note_off_c, 0, 58, 91
1, 46348, Note_on_c, 0, 65, 105
1, 46427, Note_off_c, 0, 65, 105
1, 46515, Note_on_c, 0, 68, 112
1, 46575, Note_off_c, 0, 68, 112
1, 46629, Note_on_c, 0, 70, 107
1, 46692, Note_off_c, 0, 70, 107
1, 46758, Note_on_c, 0, 70, 112
1, 46831, Note_off_c, 0, 70, 112
1, 46836, Note_on_c, 0, 71, 106
1, 46876, Note_off_c, 0, 71, 106
1, 46876, Note_on_c, 0, 70, 104
1, 46935, Note_off_c, 0, 70, 104
1, 46948, Note_on_c, 0, 70, 108
1, 46999, Note_off_c, 0, 70, 108
1, 47008, Note_on_c, 0, 68, 101
1, 47067, Note_off_c, 0, 68, 101
1, 47078, Note_on_c, 0, 70, 99
1, 47314, Note_off_c, 0, 70, 99
1, 47958, Note_on_c, 0, 65, 97
1, 48013, Note_off_c, 0, 65, 97
1, 48023, Note_on_c, 0, 68, 99
1, 48070, Note_off_c, 0, 68, 99
1, 48070, Note_on_c, 0, 70, 113
1, 48132, Note_off_c, 0, 70, 113
1, 48139, Note_on_c, 0, 71, 114
1, 48215, Note_off_c, 0, 71, 114
1, 48218, Note_on_c, 0, 72, 104
1, 48259, Note_off_c, 0, 72, 104
1, 48260, Note_on_c, 0, 71, 114
1, 48313, Note_off_c, 0, 71, 114
1, 48330, Note_on_c, 0, 70, 107
1, 48384, Note_off_c, 0, 70, 107
1, 48394, Note_on_c, 0, 68, 98
1, 48446, Note_off_c, 0, 68, 98
1, 48450, Note_on_c, 0, 65, 100
1, 48514, Note_off_c, 0, 65, 100
1, 48526, Note_on_c, 0, 68, 96
1, 48693, Note_off_c, 0, 68, 96
1, 48701, Note_on_c, 0, 65, 101
1, 48819, Note_off_c, 0, 65, 101
1, 48836, Note_on_c, 0, 60, 94
1, 48879, Note_off_c, 0, 60, 94
1, 48897, Note_on_c, 0, 68, 95
1, 49076, Note_off_c, 0, 68, 95
1, 49094, Note_on_c, 0, 65, 101
1, 49212, Note_off_c, 0, 65, 101
1, 49238, Note_on_c, 0, 60, 95
1, 49261, Note_off_c, 0, 60, 95
1, 49287, Note_on_c, 0, 68, 96
1, 49464, Note_off_c, 0, 68, 96
1, 49469, Note_on_c, 0, 65, 106
1, 49549, Note_off_c, 0, 65, 106
1, 49551, Note_on_c, 0, 64, 89
1, 49592, Note_off_c, 0, 64, 89
1, 49855, Note_on_c, 0, 65, 9
1, 49924, Note_off_c, 0, 65, 9
1, 49927, Note_on_c, 0, 68, 32
1, 49969, Note_off_c, 0, 68, 32
1, 49973, Note_on_c, 0, 70, 109
1, 50031, Note_off_c, 0, 70, 109
1, 50043, Note_on_c, 0, 71, 116
1, 50115, Note_off_c, 0, 71, 116
1, 50118, Note_on_c, 0, 72, 101
1, 50156, Note_off_c, 0, 72, 101
1, 50157, Note_on_c, 0, 71, 116
1, 50220, Note_off_c, 0, 71, 116
1, 50223, Note_on_c, 0, 70, 108
1, 50284, Note_off_c, 0, 70, 108
1, 50285, Note_on_c, 0, 68, 101
1, 50349, Note_off_c, 0, 68, 101
1, 50356, Note_on_c, 0, 65, 98
1, 50420, Note_off_c, 0, 65, 98
1, 50438, Note_on_c, 0, 68, 91
1, 50612, Note_off_c, 0, 68, 91
1, 50615, Note_on_c, 0, 65, 105
1, 50731, Note_off_c, 0, 65, 105
1, 50758, Note_on_c, 0, 61, 88
1, 50789, Note_off_c, 0, 61, 88
1, 50817, Note_on_c, 0, 68, 96
1, 50967, Note_off_c, 0, 68, 96
1, 51302, Note_on_c, 0, 68, 113
1, 51390, Note_off_c, 0, 68, 113
1, 51449, Note_on_c, 0, 68, 114
1, 51525, Note_off_c, 0, 68, 114
1, 51529, Note_on_c, 0, 65, 107
1, 51588, Note_off_c, 0, 65, 107
1, 51648, Note_on_c, 0, 67, 114
1, 51678, Note_off_c, 0, 67, 114
1, 51682, Note_on_c, 0, 68, 112
1, 51729, Note_off_c, 0, 68, 112
1, 51774, Note_on_c, 0, 69, 112
1, 51800, Note_off_c, 0, 69, 112
1, 51805, Note_on_c, 0, 70, 109
1, 51849, Note_off_c, 0, 70, 109
1, 51867, Note_on_c, 0, 70, 116
1, 51904, Note_off_c, 0, 70, 116
1, 51904, Note_on_c, 0, 71, 121
1, 51953, Note_off_c, 0, 71, 121
1, 51984, Note_on_c, 0, 71, 123
1, 52021, Note_off_c, 0, 71, 123
1, 52025, Note_on_c, 0, 72, 116
1, 52079, Note_off_c, 0, 72, 116
1, 52111, Note_on_c, 0, 72, 114
1, 52146, Note_off_c, 0, 72, 114
1, 52149, Note_on_c, 0, 73, 121
1, 52208, Note_off_c, 0, 73, 121
1, 52229, Note_on_c, 0, 73, 118
1, 52268, Note_off_c, 0, 73, 118
1, 52270, Note_on_c, 0, 74, 121
1, 52325, Note_off_c, 0, 74, 121
1, 52360, Note_on_c, 0, 74, 119
1, 52391, Note_off_c, 0, 74, 119
1, 52393, Note_on_c, 0, 75, 122
1, 52448, Note_off_c, 0, 75, 122
1, 52476, Note_on_c, 0, 68, 100
1, 52545, Note_off_c, 0, 68, 100
1, 52609, Note_on_c, 0, 70, 112
1, 52673, Note_off_c, 0, 70, 112
1, 52681, Note_on_c, 0, 72, 111
1, 52749, Note_off_c, 0, 72, 111
1, 52758, Note_on_c, 0, 70, 111
1, 52805, Note_off_c, 0, 70, 111
1, 52847, Note_on_c, 0, 66, 106
1, 52899, Note_off_c, 0, 66, 106
1, 52919, Note_on_c, 0, 63, 112
1, 52968, Note_off_c, 0, 63, 112
1, 52970, Note_on_c, 0, 62, 103
1, 53008, Note_off_c, 0, 62, 103
1, 53016, Note_on_c, 0, 61, 96
1, 53071, Note_off_c, 0, 61, 96
1, 53080, Note_on_c, 0, 60, 98
1, 53137, Note_off_c, 0, 60, 98
1, 53166, Note_on_c, 0, 63, 102
1, 53214, Note_off_c, 0, 63, 102
1, 53214, Note_on_c, 0, 66, 104
1, 53279, Note_off_c, 0, 66, 104
1, 53288, Note_on_c, 0, 71, 111
1, 53351, Note_off_c, 0, 71, 111
1, 53355, Note_on_c, 0, 70, 91
1, 53391, Note_off_c, 0, 70, 91
1, 53400, Note_on_c, 0, 69, 102
1, 53457, Note_off_c, 0, 69, 102
1, 53465, Note_on_c, 0, 68, 104
1, 53539, Note_off_c, 0, 68, 104
1, 53547, Note_on_c, 0, 65, 100
1, 53592, Note_off_c, 0, 65, 100
1, 53594, Note_on_c, 0, 61, 97
1, 53659, Note_off_c, 0, 61, 97
1, 53667, Note_on_c, 0, 58, 94
1, 53720, Note_off_c, 0, 58, 94
1, 53738, Note_on_c, 0, 53, 85
1, 53772, Note_off_c, 0, 53, 85
1, 53781, Note_on_c, 0, 56, 85
1, 53967, Note_off_c, 0, 56, 85
1, 54625, Note_on_c, 0, 68, 116
1, 54704, Note_off_c, 0, 68, 116
1, 54769, Note_on_c, 0, 56, 91
1, 54958, Note_off_c, 0, 56, 91
1, 55016, Note_on_c, 0, 58, 99
1, 55054, Note_off_c, 0, 58, 99
1, 55056, Note_on_c, 0, 60, 101
1, 55131, Note_off_c, 0, 60, 101
1, 55137, Note_on_c, 0, 63, 109
1, 55388, Note_off_c, 0, 63, 109
1, 55689, Note_on_c, 0, 60, 111
1, 55770, Note_off_c, 0, 60, 111
1, 55780, Note_on_c, 0, 61, 111
1, 55887, Note_off_c, 0, 61, 111
1, 55888, Note_on_c, 0, 60, 108
1, 55948, Note_off_c, 0, 60, 108
1, 55968, Note_on_c, 0, 59, 100
1, 56066, Note_off_c, 0, 59, 100
1, 56076, Note_on_c, 0, 60, 112
1, 56134, Note_off_c, 0, 60, 112
1, 56159, Note_on_c, 0, 64, 115
1, 56247, Note_off_c, 0, 64, 115
1, 56274, Note_on_c, 0, 60, 98
1, 56321, Note_off_c, 0, 60, 98
1, 56337, Note_on_c, 0, 72, 116
1, 56438, Note_off_c, 0, 72, 116
1, 56463, Note_on_c, 0, 70, 100
1, 56515, Note_off_c, 0, 70, 100
1, 56521, Note_on_c, 0, 68, 112
1, 56611, Note_off_c, 0, 68, 112
1, 56645, Note_on_c, 0, 60, 106
1, 56711, Note_off_c, 0, 60, 106
1, 56723, Note_on_c, 0, 65, 103
1, 56774, Note_off_c, 0, 65, 103
1, 56788, Note_on_c, 0, 67, 102
1, 56830, Note_off_c, 0, 67, 102
1, 56834, Note_on_c, 0, 68, 113
1, 56916, Note_off_c, 0, 68, 113
1, 57236, Note_on_c, 0, 68, 106
1, 57379, Note_off_c, 0, 68, 106
1, 57383, Note_on_c, 0, 67, 111
1, 57421, Note_off_c, 0, 67, 111
1, 57426, Note_on_c, 0, 66, 105
1, 57449, Note_off_c, 0, 66, 105
1, 57453, Note_on_c, 0, 65, 106
1, 57480, Note_off_c, 0, 65, 106
1, 57490, Note_on_c, 0, 64, 117
1, 57601, Note_off_c, 0, 64, 117
1, 57631, Note_on_c, 0, 60, 109
1, 57674, Note_off_c, 0, 60, 109
1, 57701, Note_on_c, 0, 56, 105
1, 57775, Note_off_c, 0, 56, 105
1, 57799, Note_on_c, 0, 52, 112
1, 57850, Note_off_c, 0, 52, 112
1, 57859, Note_on_c, 0, 48, 110
1, 57918, Note_off_c, 0, 48, 110
1, 57925, Note_on_c, 0, 46, 109
1, 57991, Note_off_c, 0, 46, 109
1, 57999, Note_on_c, 0, 44, 93
1, 58177, Note_off_c, 0, 44, 93
1, 58976, Note_on_c, 0, 68, 109
1, 59053, Note_off_c, 0, 68, 109
1, 59122, Note_on_c, 0, 65, 105
1, 59199, Note_off_c, 0, 65, 105
1, 59262, Note_on_c, 0, 64, 112
1, 59403, Note_off_c, 0, 64, 112
1, 59406, Note_on_c, 0, 65, 107
1, 59494, Note_off_c, 0, 65, 107
1, 59609, Note_on_c, 0, 75, 108
1, 59694, Note_off_c, 0, 75, 108
1, 59731, Note_on_c, 0, 73, 104
1, 60001, Note_off_c, 0, 73, 104
1, 60478, Note_on_c, 0, 61, 103
1, 60726, Note_off_c, 0, 61, 103
1, 60764, Note_on_c, 0, 60, 105
1, 60867, Note_off_c, 0, 60, 105
1, 60886, Note_on_c, 0, 61, 110
1, 60948, Note_off_c, 0, 61, 110
1, 60969, Note_on_c, 0, 65, 105
1, 61042, Note_off_c, 0, 65, 105
1, 61090, Note_on_c, 0, 67, 110
1, 61139, Note_off_c, 0, 67, 110
1, 61167, Note_on_c, 0, 70, 97
1, 61196, Note_off_c, 0, 70, 97
1, 61204, Note_on_c, 0, 72, 113
1, 61301, Note_off_c, 0, 72, 113
1, 61342, Note_on_c, 0, 70, 96
1, 61591, Note_off_c, 0, 70, 96
1, 62025, Note_on_c, 0, 70, 106
1, 62070, Note_off_c, 0, 70, 106
1, 62074, Note_on_c, 0, 71, 108
1, 62177, Note_off_c, 0, 71, 108
1, 62182, Note_on_c, 0, 70, 109
1, 62240, Note_off_c, 0, 70, 109
1, 62246, Note_on_c, 0, 68, 98
1, 62301, Note_off_c, 0, 68, 98
1, 62347, Note_on_c, 0, 70, 110
1, 62452, Note_off_c, 0, 70, 110
1, 62472, Note_on_c, 0, 68, 98
1, 62590, Note_off_c, 0, 68, 98
1, 62642, Note_on_c, 0, 60, 112
1, 62678, Note_off_c, 0, 60, 112
1, 62680, Note_on_c, 0, 72, 108
1, 62736, Note_off_c, 0, 72, 108
1, 62806, Note_on_c, 0, 77, 112
1, 62897, Note_off_c, 0, 77, 112
1, 62991, Note_on_c, 0, 72, 116
1, 63095, Note_off_c, 0, 72, 116
1, 63100, Note_on_c, 0, 70, 100
1, 63183, Note_off_c, 0, 70, 100
1, 63198, Note_on_c, 0, 70, 103
1, 63251, Note_off_c, 0, 70, 103
1, 63253, Note_on_c, 0, 67, 106
1, 63277, Note_off_c, 0, 67, 106
1, 63279, Note_on_c, 0, 68, 110
1, 63361, Note_off_c, 0, 68, 110
1, 63375, Note_on_c, 0, 65, 93
1, 63449, Note_off_c, 0, 65, 93
1, 63463, Note_on_c, 0, 68, 97
1, 63647, Note_off_c, 0, 68, 97
1, 63659, Note_on_c, 0, 65, 104
1, 63759, Note_off_c, 0, 65, 104
1, 63786, Note_on_c, 0, 60, 96
1, 63835, Note_off_c, 0, 60, 96
1, 63838, Note_on_c, 0, 64, 108
1, 64025, Note_off_c, 0, 64, 108
1, 64026, Note_on_c, 0, 68, 113
1, 64112, Note_off_c, 0, 68, 113
1, 64480, Note_on_c, 0, 64, 118
1, 64537, Note_off_c, 0, 64, 118
1, 64547, Note_on_c, 0, 65, 110
1, 64596, Note_off_c, 0, 65, 110
1, 64654, Note_on_c, 0, 67, 112
1, 64730, Note_off_c, 0, 67, 112
1, 64767, Note_on_c, 0, 68, 111
1, 64832, Note_off_c, 0, 68, 111
1, 64846, Note_on_c, 0, 64, 113
1, 64898, Note_off_c, 0, 64, 113
1, 64907, Note_on_c, 0, 67, 109
1, 64962, Note_off_c, 0, 67, 109
1, 64964, Note_on_c, 0, 65, 105
1, 65007, Note_off_c, 0, 65, 105
1, 65010, Note_on_c, 0, 60, 98
1, 65048, Note_off_c, 0, 60, 98
1, 65058, Note_on_c, 0, 63, 113
1, 65118, Note_off_c, 0, 63, 113
1, 65121, Note_on_c, 0, 60, 102
1, 65162, Note_off_c, 0, 60, 102
1, 65174, Note_on_c, 0, 62, 87
1, 65330, Note_off_c, 0, 62, 87
1, 66024, Note_on_c, 0, 65, 112
1, 66101, Note_off_c, 0, 65, 112
1, 66119, Note_on_c, 0, 67, 111
1, 66189, Note_off_c, 0, 67, 111
1, 66218, Note_on_c, 0, 67, 111
1, 66285, Note_off_c, 0, 67, 111
1, 66289, Note_on_c, 0, 68, 112
1, 66364, Note_off_c, 0, 68, 112
1, 66367, Note_on_c, 0, 65, 109
1, 66421, Note_off_c, 0, 65, 109
1, 66440, Note_on_c, 0, 61, 107
1, 66491, Note_off_c, 0, 61, 107
1, 66498, Note_on_c, 0, 58, 88
1, 66749, Note_off_c, 0, 58, 88
1, 66968, Note_on_c, 0, 71, 100
1, 67028, Note_off_c, 0, 71, 100
1, 67038, Note_on_c, 0, 72, 114
1, 67147, Note_off_c, 0, 72, 114
1, 67148, Note_on_c, 0, 68, 110
1, 67196, Note_off_c, 0, 68, 110
1, 67204, Note_on_c, 0, 65, 110
1, 67266, Note_off_c, 0, 65, 110
1, 67273, Note_on_c, 0, 61, 97
1, 67458, Note_off_c, 0, 61, 97
1, 67654, Note_on_c, 0, 75, 110
1, 67717, Note_off_c, 0, 75, 110
1, 67757, Note_on_c, 0, 74, 113
1, 67827, Note_off_c, 0, 74, 113
1, 67839, Note_on_c, 0, 73, 119
1, 67913, Note_off_c, 0, 73, 119
1, 67943, Note_on_c, 0, 72, 115
1, 68014, Note_off_c, 0, 72, 115
1, 68026, Note_on_c, 0, 75, 108
1, 68226, Note_off_c, 0, 75, 108
1, 68405, Note_on_c, 0, 70, 101
1, 68473, Note_off_c, 0, 70, 101
1, 68477, Note_on_c, 0, 71, 109
1, 68575, Note_off_c, 0, 71, 109
1, 68582, Note_on_c, 0, 75, 112
1, 68682, Note_off_c, 0, 75, 112
1, 68791, Note_on_c, 0, 70, 111
1, 69033, Note_off_c, 0, 70, 111
1, 69115, Note_on_c, 0, 70, 110
1, 69186, Note_off_c, 0, 70, 110
1, 69197, Note_on_c, 0, 70, 111
1, 69284, Note_off_c, 0, 70, 111
1, 69293, Note_on_c, 0, 68, 110
1, 69358, Note_off_c, 0, 68, 110
1, 69368, Note_on_c, 0, 63, 118
1, 69466, Note_off_c, 0, 63, 118
1, 69484, Note_on_c, 0, 60, 102
1, 69541, Note_off_c, 0, 60, 102
1, 69562, Note_on_c, 0, 58, 85
1, 69740, Note_off_c, 0, 58, 85
1, 70056, Note_on_c, 0, 56, 104
1, 70116, Note_off_c, 0, 56, 104
1, 70128, Note_on_c, 0, 55, 100
1, 70174, Note_off_c, 0, 55, 100
1, 70178, Note_on_c, 0, 56, 104
1, 70213, Note_off_c, 0, 56, 104
1, 70216, Note_on_c, 0, 60, 103
1, 70243, Note_off_c, 0, 60, 103
1, 70255, Note_on_c, 0, 63, 111
1, 70287, Note_off_c, 0, 63, 111
1, 70289, Note_on_c, 0, 67, 96
1, 70311, Note_off_c, 0, 67, 96
1, 70318, Note_on_c, 0, 70, 99
1, 70342, Note_off_c, 0, 70, 99
1, 70353, Note_on_c, 0, 72, 112
1, 70593, Note_off_c, 0, 72, 112
1, 70622, Note_on_c, 0, 70, 102
1, 70676, Note_off_c, 0, 70, 102
1, 70700, Note_on_c, 0, 68, 108
1, 70765, Note_off_c, 0, 68, 108
1, 70817, Note_on_c, 0, 63, 115
1, 70881, Note_off_c, 0, 63, 115
1, 70889, Note_on_c, 0, 62, 110
1, 70944, Note_off_c, 0, 62, 110
1, 70948, Note_on_c, 0, 61, 107
1, 71002, Note_off_c, 0, 61, 107
1, 71010, Note_on_c, 0, 60, 89
1, 71193, Note_off_c, 0, 60, 89
1, 71961, Note_on_c, 0, 63, 111
1, 72061, Note_off_c, 0, 63, 111
1, 72090, Note_on_c, 0, 65, 103
1, 72130, Note_off_c, 0, 65, 103
1, 72140, Note_on_c, 0, 68, 107
1, 72219, Note_off_c, 0, 68, 107
1, 72240, Note_on_c, 0, 70, 115
1, 72271, Note_off_c, 0, 70, 115
1, 72288, Note_on_c, 0, 72, 113
1, 72343, Note_off_c, 0, 72, 113
1, 72346, Note_on_c, 0, 75, 99
1, 72425, Note_off_c, 0, 75, 99
1, 72622, Note_on_c, 0, 63, 106
1, 72670, Note_off_c, 0, 63, 106
1, 72682, Note_on_c, 0, 65, 101
1, 72719, Note_off_c, 0, 65, 101
1, 72736, Note_on_c, 0, 68, 116
1, 72794, Note_off_c, 0, 68, 116
1, 72810, Note_on_c, 0, 70, 111
1, 72856, Note_off_c, 0, 70, 111
1, 72872, Note_on_c, 0, 72, 118
1, 72913, Note_off_c, 0, 72, 118
1, 72927, Note_on_c, 0, 75, 118
1, 72995, Note_off_c, 0, 75, 118
1, 73179, Note_on_c, 0, 70, 106
1, 73250, Note_off_c, 0, 70, 106
1, 73250, Note_on_c, 0, 72, 118
1, 73303, Note_off_c, 0, 72, 118
1, 73303, Note_on_c, 0, 75, 113
1, 73346, Note_off_c, 0, 75, 113
1, 73388, Note_on_c, 0, 69, 110
1, 73453, Note_off_c, 0, 69, 110
1, 73455, Note_on_c, 0, 70, 93
1, 73481, Note_off_c, 0, 70, 93
1, 73491, Note_on_c, 0, 73, 122
1, 73555, Note_off_c, 0, 73, 122
1, 73765, Note_on_c, 0, 67, 116
1, 73823, Note_off_c, 0, 67, 116
1, 73825, Note_on_c, 0, 68, 100
1, 73871, Note_off_c, 0, 68, 100
1, 73876, Note_on_c, 0, 72, 116
1, 73935, Note_off_c, 0, 72, 116
1, 73935, Note_on_c, 0, 65, 102
1, 73998, Note_off_c, 0, 65, 102
1, 74002, Note_on_c, 0, 66, 104
1, 74057, Note_off_c, 0, 66, 104
1, 74066, Note_on_c, 0, 70, 106
1, 74142, Note_off_c, 0, 70, 106
1, 74327, Note_on_c, 0, 75, 113
1, 74369, Note_off_c, 0, 75, 113
1, 74381, Note_on_c, 0, 73, 111
1, 74440, Note_off_c, 0, 73, 111
1, 74447, Note_on_c, 0, 68, 118
1, 74511, Note_off_c, 0, 68, 118
1, 74519, Note_on_c, 0, 64, 119
1, 74574, Note_off_c, 0, 64, 119
1, 74588, Note_on_c, 0, 63, 115
1, 74633, Note_off_c, 0, 63, 115
1, 74641, Note_on_c, 0, 61, 108
1, 74698, Note_off_c, 0, 61, 108
1, 74713, Note_on_c, 0, 56, 107
1, 74754, Note_off_c, 0, 56, 107
1, 74764, Note_on_c, 0, 52, 105
1, 74828, Note_off_c, 0, 52, 105
1, 74838, Note_on_c, 0, 51, 9
1, 74883, Note_off_c, 0, 51, 9
1, 74896, Note_on_c, 0, 49, 110
1, 74970, Note_off_c, 0, 49, 110
1, 74977, Note_on_c, 0, 48, 111
1, 75539, Note_off_c, 0, 48, 111
1, 75545, Note_on_c, 0, 50, 110
1, 75606, Note_off_c, 0, 50, 110
1, 75609, Note_on_c, 0, 52, 106
1, 75679, Note_off_c, 0, 52, 106
1, 75692, Note_on_c, 0, 55, 98
1, 75905, Note_off_c, 0, 55, 98
1, 76396, Note_on_c, 0, 53, 103
1, 76437, Note_off_c, 0, 53, 103
1, 76451, Note_on_c, 0, 56, 118
1, 76543, Note_off_c, 0, 56, 118
1, 76627, Note_on_c, 0, 58, 111
1, 76743, Note_off_c, 0, 58, 111
1, 76818, Note_on_c, 0, 59, 110
1, 76982, Note_off_c, 0, 59, 110
1, 76991, Note_on_c, 0, 60, 87
1, 77095, Note_off_c, 0, 60, 87
1, 77136, Note_on_c, 0, 67, 107
1, 77224, Note_off_c, 0, 67, 107
1, 77345, Note_on_c, 0, 65, 90
1, 77556, Note_off_c, 0, 65, 90
1, 77906, Note_on_c, 0, 68, 120
1, 78017, Note_off_c, 0, 68, 120
1, 78081, Note_on_c, 0, 65, 100
1, 78352, Note_off_c, 0, 65, 100
1, 78388, Note_on_c, 0, 61, 104
1, 78476, Note_off_c, 0, 61, 104
1, 78493, Note_on_c, 0, 56, 99
1, 78551, Note_off_c, 0, 56, 99
1, 78656, Note_on_c, 0, 59, 111
1, 78702, Note_off_c, 0, 59, 111
1, 78709, Note_on_c, 0, 60, 106
1, 78794, Note_off_c, 0, 60, 106
1, 78802, Note_on_c, 0, 59, 101
1, 78933, Note_off_c, 0, 59, 101
1, 78934, Note_on_c, 0, 56, 101
1, 79052, Note_off_c, 0, 56, 101
1, 79053, Note_on_c, 0, 58, 97
1, 79242, Note_off_c, 0, 58, 97
1, 79590, Note_on_c, 0, 56, 107
1, 79632, Note_off_c, 0, 56, 107
1, 79636, Note_on_c, 0, 58, 104
1, 79662, Note_off_c, 0, 58, 104
1, 79665, Note_on_c, 0, 59, 104
1, 79704, Note_off_c, 0, 59, 104
1, 79707, Note_on_c, 0, 60, 107
1, 79747, Note_off_c, 0, 60, 107
1, 79749, Note_on_c, 0, 63, 116
1, 79786, Note_off_c, 0, 63, 116
1, 79804, Note_on_c, 0, 65, 115
1, 79858, Note_off_c, 0, 65, 115
1, 79873, Note_on_c, 0, 68, 121
1, 79935, Note_off_c, 0, 68, 121
1, 79938, Note_on_c, 0, 65, 111
1, 79983, Note_off_c, 0, 65, 111
1, 80038, Note_on_c, 0, 68, 113
1, 80070, Note_off_c, 0, 68, 113
1, 80071, Note_on_c, 0, 65, 109
1, 80124, Note_off_c, 0, 65, 109
1, 80127, Note_on_c, 0, 68, 117
1, 80190, Note_off_c, 0, 68, 117
1, 80197, Note_on_c, 0, 65, 114
1, 80240, Note_off_c, 0, 65, 114
1, 80248, Note_on_c, 0, 68, 120
1, 80309, Note_off_c, 0, 68, 120
1, 80313, Note_on_c, 0, 65, 110
1, 80354, Note_off_c, 0, 65, 110
1, 80365, Note_on_c, 0, 68, 118
1, 80420, Note_off_c, 0, 68, 118
1, 80438, Note_on_c, 0, 65, 110
1, 80494, Note_off_c, 0, 65, 110
1, 80494, Note_on_c, 0, 68, 116
1, 80570, Note_off_c, 0, 68, 116
1, 80576, Note_on_c, 0, 65, 107
1, 80614, Note_off_c, 0, 65, 107
1, 80628, Note_on_c, 0, 68, 118
1, 80679, Note_off_c, 0, 68, 118
1, 80690, Note_on_c, 0, 63, 125
1, 80720, Note_off_c, 0, 63, 125
1, 80722, Note_on_c, 0, 64, 114
1, 80761, Note_off_c, 0, 64, 114
1, 80762, Note_on_c, 0, 65, 109
1, 80806, Note_off_c, 0, 65, 109
1, 80829, Note_on_c, 0, 68, 121
1, 80890, Note_off_c, 0, 68, 121
1, 80891, Note_on_c, 0, 70, 113
1, 80930, Note_off_c, 0, 70, 113
1, 80934, Note_on_c, 0, 71, 121
1, 81006, Note_off_c, 0, 71, 121
1, 81010, Note_on_c, 0, 72, 113
1, 81192, Note_off_c, 0, 72, 113
1, 81274, Note_on_c, 0, 68, 116
1, 81323, Note_off_c, 0, 68, 116
1, 81341, Note_on_c, 0, 65, 107
1, 81368, Note_off_c, 0, 65, 107
1, 81384, Note_on_c, 0, 68, 102
1, 81536, Note_off_c, 0, 68, 102
1, 81663, Note_on_c, 0, 65, 109
1, 81710, Note_off_c, 0, 65, 109
1, 81716, Note_on_c, 0, 61, 112
1, 81765, Note_off_c, 0, 61, 112
1, 81783, Note_on_c, 0, 58, 102
1, 81871, Note_off_c, 0, 58, 102
1, 81899, Note_on_c, 0, 60, 113
1, 81945, Note_off_c, 0, 60, 113
1, 81954, Note_on_c, 0, 61, 109
1, 82031, Note_off_c, 0, 61, 109
1, 82076, Note_on_c, 0, 62, 115
1, 82150, Note_off_c, 0, 62, 115
1, 82160, Note_on_c, 0, 63, 117
1, 82219, Note_off_c, 0, 63, 117
1, 82431, Note_on_c, 0, 58, 103
1, 82484, Note_off_c, 0, 58, 103
1, 82495, Note_on_c, 0, 60, 105
1, 82562, Note_off_c, 0, 60, 105
1, 82573, Note_on_c, 0, 56, 96
1, 82770, Note_off_c, 0, 56, 96
1, 83110, Note_on_c, 0, 55, 102
1, 83153, Note_off_c, 0, 55, 102
1, 83159, Note_on_c, 0, 56, 105
1, 83199, Note_off_c, 0, 56, 105
1, 83202, Note_on_c, 0, 58, 108
1, 83245, Note_off_c, 0, 58, 108
1, 83247, Note_on_c, 0, 60, 118
1, 83284, Note_off_c, 0, 60, 118
1, 83290, Note_on_c, 0, 61, 115
1, 83335, Note_off_c, 0, 61, 115
1, 83339, Note_on_c, 0, 60, 116
1, 83375, Note_off_c, 0, 60, 116
1, 83379, Note_on_c, 0, 58, 111
1, 83425, Note_off_c, 0, 58, 111
1, 83428, Note_on_c, 0, 56, 107
1, 83464, Note_off_c, 0, 56, 107
1, 83470, Note_on_c, 0, 55, 101
1, 83513, Note_off_c, 0, 55, 101
1, 83517, Note_on_c, 0, 56, 102
1, 83566, Note_off_c, 0, 56, 102
1, 83569, Note_on_c, 0, 58, 108
1, 83610, Note_off_c, 0, 58, 108
1, 83617, Note_on_c, 0, 60, 113
1, 83659, Note_off_c, 0, 60, 113
1, 83662, Note_on_c, 0, 61, 114
1, 83708, Note_off_c, 0, 61, 114
1, 83709, Note_on_c, 0, 60, 109
1, 83737, Note_off_c, 0, 60, 109
1, 83741, Note_on_c, 0, 58, 102
1, 83779, Note_off_c, 0, 58, 102
1, 83782, Note_on_c, 0, 56, 98
1, 83828, Note_off_c, 0, 56, 98
1, 83829, Note_on_c, 0, 55, 98
1, 83877, Note_off_c, 0, 55, 98
1, 83881, Note_on_c, 0, 56, 97
1, 83920, Note_off_c, 0, 56, 97
1, 83923, Note_on_c, 0, 58, 97
1, 83971, Note_off_c, 0, 58, 97
1, 83973, Note_on_c, 0, 60, 104
1, 84020, Note_off_c, 0, 60, 104
1, 84024, Note_on_c, 0, 61, 97
1, 84069, Note_off_c, 0, 61, 97
1, 84072, Note_on_c, 0, 60, 103
1, 84130, Note_off_c, 0, 60, 103
1, 84133, Note_on_c, 0, 58, 93
1, 84163, Note_off_c, 0, 58, 93
1, 84173, Note_on_c, 0, 55, 97
1, 84209, Note_off_c, 0, 55, 97
1, 84216, Note_on_c, 0, 56, 107
1, 84255, Note_off_c, 0, 56, 107
1, 84263, Note_on_c, 0, 55, 100
1, 84307, Note_off_c, 0, 55, 100
1, 84309, Note_on_c, 0, 53, 98
1, 84379, Note_off_c, 0, 53, 98
1, 84382, Note_on_c, 0, 55, 95
1, 84428, Note_off_c, 0, 55, 95
1, 84430, Note_on_c, 0, 56, 95
1, 84465, Note_off_c, 0, 56, 95
1, 84472, Note_on_c, 0, 58, 90
1, 84512, Note_off_c, 0, 58, 90
1, 84514, Note_on_c, 0, 59, 91
1, 84556, Note_off_c, 0, 59, 91
1, 84562, Note_on_c, 0, 60, 90
1, 84597, Note_off_c, 0, 60, 90
1, 84601, Note_on_c, 0, 61, 85
1, 84642, Note_off_c, 0, 61, 85
1, 84653, Note_on_c, 0, 60, 89
1, 84694, Note_off_c, 0, 60, 89
1, 84696, Note_on_c, 0, 59, 85
1, 84752, Note_off_c, 0, 59, 85
1, 84755, Note_on_c, 0, 58, 91
1, 84793, Note_off_c, 0, 58, 91
1, 84799, Note_on_c, 0, 59, 95
1, 84845, Note_off_c, 0, 59, 95
1, 84853, Note_on_c, 0, 58, 90
1, 84895, Note_off_c, 0, 58, 90
1, 84895, End_track
0, 0, End_of_file
