0, 0, Header, 1, 1, 192
1, 0, Start_track
1, 0, Title_t, "Melody"
1, 0, Tempo, 208333
1, 0, Key_signature, -1, "major"
1, 0, Time_signature, 4, 2, 24, 8
1, 6234, Note_on_c, 0, 74, 103
1, 6312, Note_off_c, 0, 74, 103
1, 6423, Note_on_c, 0, 74, 99
1, 6603, Note_off_c, 0, 74, 99
1, 6613, Note_on_c, 0, 71, 103
1, 6697, Note_off_c, 0, 71, 103
1, 6836, Note_on_c, 0, 71, 110
1, 7003, Note_off_c, 0, 71, 110
1, 7006, Note_on_c, 0, 68, 107
1, 7103, Note_off_c, 0, 68, 107
1, 7214, Note_on_c, 0, 68, 100
1, 7368, Note_off_c, 0, 68, 100
1, 7416, Note_on_c, 0, 65, 98
1, 7540, Note_off_c, 0, 65, 98
1, 7621, Note_on_c, 0, 65, 103
1, 7786, Note_off_c, 0, 65, 103
1, 7792, Note_on_c, 0, 62, 98
1, 7902, Note_off_c, 0, 62, 98
1, 8003, Note_on_c, 0, 62, 102
1, 8170, Note_off_c, 0, 62, 102
1, 8220, Note_on_c, 0, 65, 95
1, 8319, Note_off_c, 0, 65, 95
1, 8390, Note_on_c, 0, 65, 98
1, 8555, Note_off_c, 0, 65, 98
1, 8575, Note_on_c, 0, 67, 106
1, 8653, Note_off_c, 0, 67, 106
1, 8766, Note_on_c, 0, 67, 100
1, 8923, Note_off_c, 0, 67, 100
1, 8944, Note_on_c, 0, 68, 104
1, 9152, Note_off_c, 0, 68, 104
1, 9206, Note_on_c, 0, 65, 112
1, 9275, Note_off_c, 0, 65, 112
1, 9317, Note_on_c, 0, 61, 109
1, 9370, Note_off_c, 0, 61, 109
1, 9384, Note_on_c, 0, 58, 103
1, 9453, Note_off_c, 0, 58, 103
1, 9476, Note_on_c, 0, 55, 102
1, 9577, Note_off_c, 0, 55, 102
1, 9705, Note_on_c, 0, 72, 103
1, 9967, Note_off_c, 0, 72, 103
1, 9978, Note_on_c, 0, 70, 111
1, 10047, Note_off_c, 0, 70, 111
1, 10060, Note_on_c, 0, 69, 115
1, 10134, Note_off_c, 0, 69, 115
1, 10158, Note_on_c, 0, 67, 112
1, 10211, Note_off_c, 0, 67, 112
1, 10245, Note_on_c, 0, 66, 113
1, 10319, Note_off_c, 0, 66, 113
1, 10329, Note_on_c, 0, 65, 109
1, 10427, Note_off_c, 0, 65, 109
1, 10463, Note_on_c, 0, 60, 104
1, 10517, Note_off_c, 0, 60, 104
1, 10545, Note_on_c, 0, 57, 104
1, 10603, Note_off_c, 0, 57, 104
1, 10627, Note_on_c, 0, 55, 104
1, 10705, Note_off_c, 0, 55, 104
1, 10806, Note_on_c, 0, 63, 116
1, 10908, Note_off_c, 0, 63, 116
1, 10916, Note_on_c, 0, 62, 106
1, 10983, Note_off_c, 0, 62, 106
1, 10999, Note_on_c, 0, 60, 110
1, 11069, Note_off_c, 0, 60, 110
1, 11082, Note_on_c, 0, 59, 115
1, 11174, Note_off_c, 0, 59, 115
1, 11224, Note_on_c, 0, 62, 108
1, 11289, Note_off_c, 0, 62, 108
1, 11294, Note_on_c, 0, 65, 107
1, 11344, Note_off_c, 0, 65, 107
1, 11366, Note_on_c, 0, 69, 107
1, 11437, Note_off_c, 0, 69, 107
1, 11451, Note_on_c, 0, 68, 108
1, 11509, Note_off_c, 0, 68, 108
1, 11535, Note_on_c, 0, 63, 99
1, 11621, Note_off_c, 0, 63, 99
1, 11626, Note_on_c, 0, 64, 100
1, 11725, Note_off_c, 0, 64, 100
1, 11771, Note_on_c, 0, 67, 102
1, 11826, Note_off_c, 0, 67, 102
1, 11837, Note_on_c, 0, 65, 104
1, 11912, Note_off_c, 0, 65, 104
1, 11946, Note_on_c, 0, 62, 101
1, 12158, Note_off_c, 0, 62, 101
1, 12719, Note_on_c, 0, 62, 116
1, 12788, Note_off_c, 0, 62, 116
1, 12788, Note_on_c, 0, 65, 113
1, 12836, Note_off_c, 0, 65, 113
1, 12855, Note_on_c, 0, 66, 104
1, 12891, Note_off_c, 0, 66, 104
1, 12903, Note_on_c, 0, 65, 115
1, 12955, Note_off_c, 0, 65, 115
1, 12969, Note_on_c, 0, 62, 118
1, 13057, Note_off_c, 0, 62, 118
1, 13079, Note_on_c, 0, 60, 114
1, 13144, Note_off_c, 0, 60, 114
1, 13177, Note_on_c, 0, 57, 101
1, 13240, Note_off_c, 0, 57, 101
1, 13287, Note_on_c, 0, 53, 106
1, 13360, Note_off_c, 0, 53, 106
1, 13366, Note_on_c, 0, 65, 102
1, 13631, Note_off_c, 0, 65, 102
1, 13670, Note_on_c, 0, 62, 118
1, 13739, Note_off_c, 0, 62, 118
1, 14269, Note_on_c, 0, 62, 112
1, 14334, Note_off_c, 0, 62, 112
1, 14360, Note_on_c, 0, 67, 111
1, 14440, Note_off_c, 0, 67, 111
1, 14470, Note_on_c, 0, 67, 114
1, 14528, Note_off_c, 0, 67, 114
1, 14543, Note_on_c, 0, 65, 109
1, 14625, Note_off_c, 0, 65, 109
1, 14656, Note_on_c, 0, 62, 108
1, 14725, Note_off_c, 0, 62, 108
1, 14764, Note_on_c, 0, 58, 105
1, 14833, Note_off_c, 0, 58, 105
1, 14917, Note_on_c, 0, 64, 114
1, 15014, Note_off_c, 0, 64, 114
1, 15038, Note_on_c, 0, 65, 107
1, 15288, Note_off_c, 0, 65, 107
1, 15316, Note_on_c, 0, 62, 113
1, 15396, Note_off_c, 0, 62, 113
1, 15422, Note_on_c, 0, 64, 114
1, 15544, Note_off_c, 0, 64, 114
1, 15613, Note_on_c, 0, 67, 113
1, 15675, Note_off_c, 0, 67, 113
1, 15729, Note_on_c, 0, 69, 113
1, 15839, Note_off_c, 0, 69, 113
1, 15855, Note_on_c, 0, 69, 96
1, 15922, Note_off_c, 0, 69, 96
1, 16000, Note_on_c, 0, 69, 94
1, 16336, Note_off_c, 0, 69, 94
1, 16393, Note_on_c, 0, 60, 102
1, 16469, Note_off_c, 0, 60, 102
1, 16613, Note_on_c, 0, 60, 98
1, 16678, Note_off_c, 0, 60, 98
1, 16762, Note_on_c, 0, 64, 114
1, 16837, Note_off_c, 0, 64, 114
1, 16846, Note_on_c, 0, 67, 117
1, 16913, Note_off_c, 0, 67, 117
1, 16948, Note_on_c, 0, 65, 112
1, 17019, Note_off_c, 0, 65, 112
1, 17043, Note_on_c, 0, 64, 111
1, 17123, Note_off_c, 0, 64, 111
1, 17138, Note_on_c, 0, 67, 113
1, 17211, Note_off_c, 0, 67, 113
1, 17237, Note_on_c, 0, 65, 106
1, 17302, Note_off_c, 0, 65, 106
1, 17357, Note_on_c, 0, 61, 109
1, 17422, Note_off_c, 0, 61, 109
1, 17441, Note_on_c, 0, 58, 107
1, 17550, Note_off_c, 0, 58, 107
1, 17565, Note_on_c, 0, 53, 106
1, 17615, Note_off_c, 0, 53, 106
1, 17637, Note_on_c, 0, 57, 105
1, 17708, Note_off_c, 0, 57, 105
1, 17734, Note_on_c, 0, 53, 108
1, 17796, Note_off_c, 0, 53, 108
1, 17846, Note_on_c, 0, 58, 104
1, 17921, Note_off_c, 0, 58, 104
1, 17939, Note_on_c, 0, 59, 110
1, 18006, Note_off_c, 0, 59, 110
1, 18022, Note_on_c, 0, 60, 104
1, 18091, Note_off_c, 0, 60, 104
1, 18111, Note_on_c, 0, 65, 108
1, 18176, Note_off_c, 0, 65, 108
1, 18202, Note_on_c, 0, 64, 107
1, 18290, Note_off_c, 0, 64, 107
1, 18303, Note_on_c, 0, 62, 116
1, 18378, Note_off_c, 0, 62, 116
1, 18383, Note_on_c, 0, 63, 119
1, 18501, Note_off_c, 0, 63, 119
1, 18519, Note_on_c, 0, 55, 105
1, 18572, Note_off_c, 0, 55, 105
1, 18576, Note_on_c, 0, 58, 104
1, 18702, Note_off_c, 0, 58, 104
1, 18728, Note_on_c, 0, 60, 101
1, 18792, Note_off_c, 0, 60, 101
1, 18806, Note_on_c, 0, 62, 119
1, 18884, Note_off_c, 0, 62, 119
1, 18899, Note_on_c, 0, 63, 118
1, 18970, Note_off_c, 0, 63, 118
1, 18985, Note_on_c, 0, 62, 111
1, 19079, Note_off_c, 0, 62, 111
1, 19097, Note_on_c, 0, 60, 116
1, 19172, Note_off_c, 0, 60, 116
1, 19190, Note_on_c, 0, 59, 111
1, 19252, Note_off_c, 0, 59, 111
1, 19297, Note_on_c, 0, 57, 108
1, 19345, Note_off_c, 0, 57, 108
1, 19358, Note_on_c, 0, 56, 107
1, 19435, Note_off_c, 0, 56, 107
1, 19489, Note_on_c, 0, 54, 113
1, 19578, Note_off_c, 0, 54, 113
1, 19597, Note_on_c, 0, 53, 97
1, 19668, Note_off_c, 0, 53, 97
1, 19690, Note_on_c, 0, 55, 103
1, 19747, Note_off_c, 0, 55, 103
1, 19752, Note_on_c, 0, 58, 114
1, 19823, Note_off_c, 0, 58, 114
1, 19853, Note_on_c, 0, 62, 108
1, 19930, Note_off_c, 0, 62, 108
1, 19961, Note_on_c, 0, 57, 104
1, 20045, Note_off_c, 0, 57, 104
1, 20058, Note_on_c, 0, 60, 111
1, 20125, Note_off_c, 0, 60, 111
1, 20151, Note_on_c, 0, 63, 109
1, 20226, Note_off_c, 0, 63, 109
1, 20246, Note_on_c, 0, 67, 104
1, 20343, Note_off_c, 0, 67, 104
1, 20356, Note_on_c, 0, 65, 91
1, 20450, Note_off_c, 0, 65, 91
1, 21324, Note_on_c, 0, 71, 109
1, 21402, Note_off_c, 0, 71, 109
1, 21413, Note_on_c, 0, 72, 107
1, 21444, Note_off_c, 0, 72, 107
1, 21460, Note_on_c, 0, 71, 110
1, 21525, Note_off_c, 0, 71, 110
1, 21540, Note_on_c, 0, 70, 107
1, 21579, Note_off_c, 0, 70, 107
1, 21615, Note_on_c, 0, 68, 113
1, 21712, Note_off_c, 0, 68, 113
1, 21714, Note_on_c, 0, 67, 105
1, 21795, Note_off_c, 0, 67, 105
1, 21799, Note_on_c, 0, 66, 106
1, 21898, Note_off_c, 0, 66, 106
1, 21906, Note_on_c, 0, 65, 107
1, 21978, Note_off_c, 0, 65, 107
1, 21985, Note_on_c, 0, 63, 114
1, 22063, Note_off_c, 0, 63, 114
1, 22073, Note_on_c, 0, 61, 94
1, 22171, Note_off_c, 0, 61, 94
1, 22180, Note_on_c, 0, 60, 107
1, 22269, Note_off_c, 0, 60, 107
1, 22284, Note_on_c, 0, 58, 104
1, 22361, Note_off_c, 0, 58, 104
1, 22371, Note_on_c, 0, 60, 108
1, 22438, Note_off_c, 0, 60, 108
1, 22456, Note_on_c, 0, 61, 99
1, 22540, Note_off_c, 0, 61, 99
1, 22570, Note_on_c, 0, 62, 110
1, 22635, Note_off_c, 0, 62, 110
1, 22665, Note_on_c, 0, 63, 116
1, 22743, Note_off_c, 0, 63, 116
1, 22774, Note_on_c, 0, 60, 103
1, 22845, Note_off_c, 0, 60, 103
1, 22853, Note_on_c, 0, 55, 95
1, 22939, Note_off_c, 0, 55, 95
1, 22944, Note_on_c, 0, 51, 98
1, 23013, Note_off_c, 0, 51, 98
1, 23024, Note_on_c, 0, 54, 98
1, 23118, Note_off_c, 0, 54, 98
1, 23151, Note_on_c, 0, 63, 115
1, 23233, Note_off_c, 0, 63, 115
1, 23249, Note_on_c, 0, 62, 100
1, 23322, Note_off_c, 0, 62, 100
1, 23352, Note_on_c, 0, 60, 107
1, 23395, Note_off_c, 0, 60, 107
1, 23408, Note_on_c, 0, 61, 99
1, 23500, Note_off_c, 0, 61, 99
1, 23558, Note_on_c, 0, 53, 92
1, 23727, Note_off_c, 0, 53, 92
1, 23744, Note_on_c, 0, 51, 100
1, 23822, Note_off_c, 0, 51, 100
1, 23828, Note_on_c, 0, 52, 103
1, 23935, Note_off_c, 0, 52, 103
1, 23949, Note_on_c, 0, 59, 100
1, 24035, Note_off_c, 0, 59, 100
1, 24046, Note_on_c, 0, 60, 100
1, 24593, Note_off_c, 0, 60, 100
1, 24884, Note_on_c, 0, 55, 94
1, 24966, Note_off_c, 0, 55, 94
1, 24976, Note_on_c, 0, 57, 96
1, 25087, Note_off_c, 0, 57, 96
1, 25095, Note_on_c, 0, 60, 106
1, 25142, Note_off_c, 0, 60, 106
1, 25164, Note_on_c, 0, 62, 111
1, 25241, Note_off_c, 0, 62, 111
1, 25261, Note_on_c, 0, 65, 98
1, 25458, Note_off_c, 0, 65, 98
1, 26338, Note_on_c, 0, 67, 117
1, 26445, Note_off_c, 0, 67, 117
1, 26460, Note_on_c, 0, 66, 113
1, 26525, Note_off_c, 0, 66, 113
1, 26543, Note_on_c, 0, 65, 113
1, 26610, Note_off_c, 0, 65, 113
1, 26634, Note_on_c, 0, 62, 110
1, 26742, Note_off_c, 0, 62, 110
1, 26747, Note_on_c, 0, 59, 96
1, 27139, Note_off_c, 0, 59, 96
1, 28087, Note_on_c, 0, 67, 108
1, 28196, Note_off_c, 0, 67, 108
1, 28211, Note_on_c, 0, 69, 103
1, 28340, Note_off_c, 0, 69, 103
1, 28411, Note_on_c, 0, 65, 111
1, 28459, Note_off_c, 0, 65, 111
1, 28468, Note_on_c, 0, 62, 118
1, 28556, Note_off_c, 0, 62, 118
1, 28591, Note_on_c, 0, 60, 108
1, 28669, Note_off_c, 0, 60, 108
1, 29332, Note_on_c, 0, 60, 115
1, 29418, Note_off_c, 0, 60, 115
1, 29464, Note_on_c, 0, 62, 99
1, 29531, Note_off_c, 0, 62, 99
1, 29556, Note_on_c, 0, 65, 109
1, 29636, Note_off_c, 0, 65, 109
1, 29645, Note_on_c, 0, 69, 108
1, 29748, Note_off_c, 0, 69, 108
1, 30148, Note_on_c, 0, 60, 99
1, 30221, Note_off_c, 0, 60, 99
1, 30247, Note_on_c, 0, 62, 108
1, 30333, Note_off_c, 0, 62, 108
1, 30348, Note_on_c, 0, 65, 114
1, 30413, Note_off_c, 0, 65, 114
1, 30441, Note_on_c, 0, 70, 112
1, 30525, Note_off_c, 0, 70, 112
1, 30556, Note_on_c, 0, 60, 104
1, 30599, Note_off_c, 0, 60, 104
1, 30634, Note_on_c, 0, 62, 109
1, 30724, Note_off_c, 0, 62, 109
1, 30739, Note_on_c, 0, 65, 105
1, 30798, Note_off_c, 0, 65, 105
1, 30816, Note_on_c, 0, 71, 116
1, 30934, Note_off_c, 0, 71, 116
1, 30952, Note_on_c, 0, 60, 111
1, 30991, Note_off_c, 0, 60, 111
1, 31011, Note_on_c, 0, 62, 99
1, 31088, Note_off_c, 0, 62, 99
1, 31121, Note_on_c, 0, 65, 99
1, 31168, Note_off_c, 0, 65, 99
1, 31205, Note_on_c, 0, 72, 109
1, 31346, Note_off_c, 0, 72, 109
1, 31398, Note_on_c, 0, 71, 116
1, 31492, Note_off_c, 0, 71, 116
1, 31512, Note_on_c, 0, 72, 112
1, 31596, Note_off_c, 0, 72, 112
1, 31627, Note_on_c, 0, 69, 105
1, 31707, Note_off_c, 0, 69, 105
1, 31735, Note_on_c, 0, 69, 110
1, 31815, Note_off_c, 0, 69, 110
1, 31929, Note_on_c, 0, 65, 95
1, 32207, Note_off_c, 0, 65, 95
1, 32284, Note_on_c, 0, 62, 119
1, 32381, Note_off_c, 0, 62, 119
1, 33169, Note_on_c, 0, 65, 111
1, 33255, Note_off_c, 0, 65, 111
1, 33365, Note_on_c, 0, 68, 117
1, 33472, Note_off_c, 0, 68, 117
1, 33582, Note_on_c, 0, 70, 116
1, 33653, Note_off_c, 0, 70, 116
1, 33669, Note_on_c, 0, 71, 116
1, 33742, Note_off_c, 0, 71, 116
1, 33766, Note_on_c, 0, 70, 108
1, 33922, Note_off_c, 0, 70, 108
1, 33974, Note_on_c, 0, 68, 118
1, 34131, Note_off_c, 0, 68, 118
1, 34155, Note_on_c, 0, 65, 105
1, 34254, Note_off_c, 0, 65, 105
1, 34331, Note_on_c, 0, 63, 119
1, 34513, Note_off_c, 0, 63, 119
1, 34544, Note_on_c, 0, 60, 106
1, 34630, Note_off_c, 0, 60, 106
1, 34711, Note_on_c, 0, 64, 116
1, 34891, Note_off_c, 0, 64, 116
1, 34911, Note_on_c, 0, 60, 100
1, 34974, Note_off_c, 0, 60, 100
1, 35000, Note_on_c, 0, 65, 101
1, 35329, Note_off_c, 0, 65, 101
1, 35380, Note_on_c, 0, 64, 112
1, 35425, Note_off_c, 0, 64, 112
1, 35437, Note_on_c, 0, 62, 109
1, 35467, Note_off_c, 0, 62, 109
1, 35483, Note_on_c, 0, 60, 105
1, 35592, Note_off_c, 0, 60, 105
1, 36398, Note_on_c, 0, 60, 105
1, 36469, Note_off_c, 0, 60, 105
1, 36498, Note_on_c, 0, 62, 109
1, 36541, Note_off_c, 0, 62, 109
1, 36562, Note_on_c, 0, 64, 119
1, 36657, Note_off_c, 0, 64, 119
1, 36672, Note_on_c, 0, 65, 115
1, 36745, Note_off_c, 0, 65, 115
1, 36763, Note_on_c, 0, 64, 118
1, 36868, Note_off_c, 0, 64, 118
1, 36872, Note_on_c, 0, 62, 112
1, 36961, Note_off_c, 0, 62, 112
1, 36967, Note_on_c, 0, 61, 106
1, 37060, Note_off_c, 0, 61, 106
1, 37074, Note_on_c, 0, 60, 106
1, 37181, Note_off_c, 0, 60, 106
1, 37194, Note_on_c, 0, 58, 107
1, 37263, Note_off_c, 0, 58, 107
1, 37296, Note_on_c, 0, 53, 99
1, 37400, Note_off_c, 0, 53, 99
1, 37418, Note_on_c, 0, 55, 100
1, 37457, Note_off_c, 0, 55, 100
1, 37467, Note_on_c, 0, 57, 107
1, 37549, Note_off_c, 0, 57, 107
1, 37583, Note_on_c, 0, 53, 99
1, 37626, Note_off_c, 0, 53, 99
1, 37636, Note_on_c, 0, 58, 101
1, 37752, Note_off_c, 0, 58, 101
1, 37773, Note_on_c, 0, 59, 110
1, 37842, Note_off_c, 0, 59, 110
1, 37852, Note_on_c, 0, 60, 103
1, 37921, Note_off_c, 0, 60, 103
1, 37926, Note_on_c, 0, 65, 112
1, 37999, Note_off_c, 0, 65, 112
1, 38011, Note_on_c, 0, 64, 115
1, 38106, Note_off_c, 0, 64, 115
1, 38112, Note_on_c, 0, 63, 116
1, 38219, Note_off_c, 0, 63, 116
1, 38223, Note_on_c, 0, 62, 115
1, 38318, Note_off_c, 0, 62, 115
1, 38321, Note_on_c, 0, 63, 114
1, 38407, Note_off_c, 0, 63, 114
1, 38415, Note_on_c, 0, 64, 109
1, 38505, Note_off_c, 0, 64, 109
1, 38512, Note_on_c, 0, 67, 114
1, 38590, Note_off_c, 0, 67, 114
1, 38594, Note_on_c, 0, 65, 113
1, 38697, Note_off_c, 0, 65, 113
1, 38702, Note_on_c, 0, 62, 108
1, 38772, Note_off_c, 0, 62, 108
1, 38787, Note_on_c, 0, 58, 106
1, 38876, Note_off_c, 0, 58, 106
1, 38884, Note_on_c, 0, 57, 99
1, 38960, Note_off_c, 0, 57, 99
1, 38981, Note_on_c, 0, 56, 103
1, 39067, Note_off_c, 0, 56, 103
1, 39103, Note_on_c, 0, 58, 105
1, 39165, Note_off_c, 0, 58, 105
1, 39174, Note_on_c, 0, 59, 106
1, 39266, Note_off_c, 0, 59, 106
1, 39289, Note_on_c, 0, 60, 106
1, 39337, Note_off_c, 0, 60, 106
1, 39367, Note_on_c, 0, 61, 97
1, 39455, Note_off_c, 0, 61, 97
1, 39467, Note_on_c, 0, 62, 111
1, 39560, Note_off_c, 0, 62, 111
1, 39565, Note_on_c, 0, 63, 117
1, 39642, Note_off_c, 0, 63, 117
1, 39656, Note_on_c, 0, 64, 116
1, 39744, Note_off_c, 0, 64, 116
1, 39756, Note_on_c, 0, 65, 112
1, 39837, Note_off_c, 0, 65, 112
1, 39849, Note_on_c, 0, 61, 101
1, 39912, Note_off_c, 0, 61, 101
1, 39932, Note_on_c, 0, 62, 106
1, 40022, Note_off_c, 0, 62, 106
1, 40043, Note_on_c, 0, 65, 105
1, 40120, Note_off_c, 0, 65, 105
1, 40124, Note_on_c, 0, 68, 106
1, 40214, Note_off_c, 0, 68, 106
1, 40233, Note_on_c, 0, 65, 101
1, 40306, Note_off_c, 0, 65, 101
1, 41244, Note_on_c, 0, 68, 114
1, 41279, Note_off_c, 0, 68, 114
1, 41284, Note_on_c, 0, 67, 119
1, 41333, Note_off_c, 0, 67, 119
1, 41339, Note_on_c, 0, 65, 115
1, 41389, Note_off_c, 0, 65, 115
1, 41408, Note_on_c, 0, 61, 108
1, 41502, Note_off_c, 0, 61, 108
1, 41507, Note_on_c, 0, 60, 112
1, 41585, Note_off_c, 0, 60, 112
1, 41597, Note_on_c, 0, 58, 108
1, 41634, Note_off_c, 0, 58, 108
1, 41641, Note_on_c, 0, 57, 108
1, 41731, Note_off_c, 0, 57, 108
1, 41767, Note_on_c, 0, 53, 102
1, 41818, Note_off_c, 0, 53, 102
1, 41838, Note_on_c, 0, 58, 106
1, 41903, Note_off_c, 0, 58, 106
1, 41914, Note_on_c, 0, 59, 111
1, 42008, Note_off_c, 0, 59, 111
1, 42019, Note_on_c, 0, 60, 101
1, 42114, Note_off_c, 0, 60, 101
1, 42125, Note_on_c, 0, 65, 110
1, 42190, Note_off_c, 0, 65, 110
1, 42197, Note_on_c, 0, 64, 111
1, 42277, Note_off_c, 0, 64, 111
1, 42307, Note_on_c, 0, 67, 112
1, 42389, Note_off_c, 0, 67, 112
1, 42404, Note_on_c, 0, 65, 112
1, 42462, Note_off_c, 0, 65, 112
1, 42501, Note_on_c, 0, 61, 100
1, 42557, Note_off_c, 0, 61, 100
1, 42559, Note_on_c, 0, 58, 108
1, 42651, Note_off_c, 0, 58, 108
1, 42677, Note_on_c, 0, 53, 96
1, 42771, Note_off_c, 0, 53, 96
1, 42792, Note_on_c, 0, 57, 104
1, 42887, Note_off_c, 0, 57, 104
1, 42900, Note_on_c, 0, 53, 106
1, 42979, Note_off_c, 0, 53, 106
1, 42979, Note_on_c, 0, 58, 99
1, 43103, Note_off_c, 0, 58, 99
1, 43114, Note_on_c, 0, 59, 106
1, 43168, Note_off_c, 0, 59, 106
1, 43177, Note_on_c, 0, 60, 107
1, 43246, Note_off_c, 0, 60, 107
1, 43277, Note_on_c, 0, 57, 104
1, 43340, Note_off_c, 0, 57, 104
1, 43379, Note_on_c, 0, 53, 102
1, 43444, Note_off_c, 0, 53, 102
1, 43475, Note_on_c, 0, 51, 97
1, 43773, Note_off_c, 0, 51, 97
1, 43947, Note_on_c, 0, 60, 119
1, 44012, Note_off_c, 0, 60, 119
1, 44028, Note_on_c, 0, 62, 114
1, 44216, Note_off_c, 0, 62, 114
1, 44244, Note_on_c, 0, 60, 120
1, 44338, Note_off_c, 0, 60, 120
1, 44349, Note_on_c, 0, 58, 111
1, 44439, Note_off_c, 0, 58, 111
1, 44442, Note_on_c, 0, 54, 107
1, 44530, Note_off_c, 0, 54, 107
1, 44539, Note_on_c, 0, 53, 99
1, 44609, Note_off_c, 0, 53, 99
1, 44616, Note_on_c, 0, 51, 105
1, 44700, Note_off_c, 0, 51, 105
1, 44705, Note_on_c, 0, 50, 99
1, 44840, Note_off_c, 0, 50, 99
1, 44856, Note_on_c, 0, 55, 99
1, 44992, Note_off_c, 0, 55, 99
1, 45007, Note_on_c, 0, 58, 101
1, 45267, Note_off_c, 0, 58, 101
1, 45900, Note_on_c, 0, 72, 114
1, 46014, Note_off_c, 0, 72, 114
1, 46070, Note_on_c, 0, 68, 117
1, 46152, Note_off_c, 0, 68, 117
1, 46187, Note_on_c, 0, 65, 108
1, 46241, Note_off_c, 0, 65, 108
1, 46269, Note_on_c, 0, 70, 111
1, 46342, Note_off_c, 0, 70, 111
1, 46360, Note_on_c, 0, 67, 118
1, 46405, Note_off_c, 0, 67, 118
1, 46421, Note_on_c, 0, 63, 114
1, 46516, Note_off_c, 0, 63, 114
1, 46542, Note_on_c, 0, 68, 116
1, 46662, Note_off_c, 0, 68, 116
1, 46750, Note_on_c, 0, 65, 116
1, 46860, Note_off_c, 0, 65, 116
1, 46944, Note_on_c, 0, 61, 107
1, 47004, Note_off_c, 0, 61, 107
1, 47037, Note_on_c, 0, 58, 108
1, 47108, Note_off_c, 0, 58, 108
1, 47121, Note_on_c, 0, 61, 108
1, 47175, Note_off_c, 0, 61, 108
1, 47199, Note_on_c, 0, 65, 113
1, 47287, Note_off_c, 0, 65, 113
1, 47381, Note_on_c, 0, 67, 118
1, 47475, Note_off_c, 0, 67, 118
1, 47595, Note_on_c, 0, 64, 116
1, 47694, Note_off_c, 0, 64, 116
1, 47722, Note_on_c, 0, 60, 104
1, 47782, Note_off_c, 0, 60, 104
1, 47797, Note_on_c, 0, 66, 118
1, 47900, Note_off_c, 0, 66, 118
1, 48276, Note_on_c, 0, 65, 125
1, 48341, Note_off_c, 0, 65, 125
1, 48357, Note_on_c, 0, 62, 115
1, 48420, Note_off_c, 0, 62, 115
1, 48458, Note_on_c, 0, 58, 99
1, 48513, Note_off_c, 0, 58, 99
1, 48536, Note_on_c, 0, 63, 125
1, 48620, Note_off_c, 0, 63, 125
1, 48625, Note_on_c, 0, 64, 121
1, 48731, Note_off_c, 0, 64, 121
1, 48742, Note_on_c, 0, 64, 119
1, 49294, Note_off_c, 0, 64, 119
1, 49303, Note_on_c, 0, 62, 120
1, 49376, Note_off_c, 0, 62, 120
1, 49404, Note_on_c, 0, 60, 108
1, 49456, Note_off_c, 0, 60, 108
1, 49472, Note_on_c, 0, 57, 111
1, 49545, Note_off_c, 0, 57, 111
1, 49575, Note_on_c, 0, 53, 106
1, 49652, Note_off_c, 0, 53, 106
1, 49663, Note_on_c, 0, 52, 104
1, 50297, Note_off_c, 0, 52, 104
1, 50613, Note_on_c, 0, 64, 122
1, 50695, Note_off_c, 0, 64, 122
1, 50838, Note_on_c, 0, 62, 124
1, 50922, Note_off_c, 0, 62, 124
1, 50943, Note_on_c, 0, 62, 115
1, 51020, Note_off_c, 0, 62, 115
1, 51647, Note_on_c, 0, 64, 123
1, 51861, Note_off_c, 0, 64, 123
1, 51870, Note_on_c, 0, 65, 115
1, 52402, Note_off_c, 0, 65, 115
1, 52411, Note_on_c, 0, 62, 123
1, 52473, Note_off_c, 0, 62, 123
1, 52512, Note_on_c, 0, 65, 107
1, 52890, Note_off_c, 0, 65, 107
1, 53540, Note_on_c, 0, 64, 120
1, 53647, Note_off_c, 0, 64, 120
1, 53673, Note_on_c, 0, 65, 119
1, 53830, Note_off_c, 0, 65, 119
1, 53850, Note_on_c, 0, 62, 117
1, 53913, Note_off_c, 0, 62, 117
1, 53931, Note_on_c, 0, 64, 121
1, 54041, Note_off_c, 0, 64, 121
1, 54054, Note_on_c, 0, 65, 122
1, 54189, Note_off_c, 0, 65, 122
1, 54211, Note_on_c, 0, 62, 118
1, 54273, Note_off_c, 0, 62, 118
1, 54297, Note_on_c, 0, 64, 121
1, 54426, Note_off_c, 0, 64, 121
1, 54442, Note_on_c, 0, 65, 117
1, 54601, Note_off_c, 0, 65, 117
1, 54610, Note_on_c, 0, 62, 113
1, 54660, Note_off_c, 0, 62, 113
1, 54698, Note_on_c, 0, 64, 103
1, 54806, Note_off_c, 0, 64, 103
1, 54824, Note_on_c, 0, 65, 9
1, 54961, Note_off_c, 0, 65, 9
1, 54968, Note_on_c, 0, 61, 9
1, 55015, Note_off_c, 0, 61, 9
1, 55071, Note_on_c, 0, 64, 108
1, 55165, Note_off_c, 0, 64, 108
1, 55174, Note_on_c, 0, 65, 113
1, 55307, Note_off_c, 0, 65, 113
1, 55338, Note_on_c, 0, 61, 96
1, 55394, Note_off_c, 0, 61, 96
1, 55424, Note_on_c, 0, 65, 111
1, 55685, Note_off_c, 0, 65, 111
1, 55720, Note_on_c, 0, 60, 103
1, 55782, Note_off_c, 0, 60, 103
1, 55802, Note_on_c, 0, 65, 95
1, 56101, Note_off_c, 0, 65, 95
1, 56130, Note_on_c, 0, 60, 104
1, 56177, Note_off_c, 0, 60, 104
1, 56225, Note_on_c, 0, 65, 103
1, 56285, Note_off_c, 0, 65, 103
1, 56313, Note_on_c, 0, 67, 108
1, 56371, Note_off_c, 0, 67, 108
1, 56401, Note_on_c, 0, 69, 98
1, 56513, Note_off_c, 0, 69, 98
1, 56712, Note_on_c, 0, 64, 113
1, 56751, Note_off_c, 0, 64, 113
1, 56766, Note_on_c, 0, 65, 112
1, 56878, Note_off_c, 0, 65, 112
1, 56908, Note_on_c, 0, 62, 110
1, 56974, Note_off_c, 0, 62, 110
1, 56984, Note_on_c, 0, 65, 99
1, 57719, Note_off_c, 0, 65, 99
1, 57751, Note_on_c, 0, 65, 109
1, 57865, Note_off_c, 0, 65, 109
1, 57878, Note_on_c, 0, 67, 105
1, 57943, Note_off_c, 0, 67, 105
1, 57954, Note_on_c, 0, 68, 102
1, 58025, Note_off_c, 0, 68, 102
1, 58912, Note_on_c, 0, 65, 112
1, 59030, Note_off_c, 0, 65, 112
1, 59054, Note_on_c, 0, 68, 100
1, 59108, Note_off_c, 0, 68, 100
1, 59136, Note_on_c, 0, 70, 102
1, 59207, Note_off_c, 0, 70, 102
1, 59240, Note_on_c, 0, 71, 107
1, 59302, Note_off_c, 0, 71, 107
1, 59309, Note_on_c, 0, 70, 100
1, 59367, Note_off_c, 0, 70, 100
1, 59400, Note_on_c, 0, 68, 110
1, 59495, Note_off_c, 0, 68, 110
1, 59504, Note_on_c, 0, 65, 110
1, 59611, Note_off_c, 0, 65, 110
1, 59624, Note_on_c, 0, 60, 98
1, 59695, Note_off_c, 0, 60, 98
1, 59708, Note_on_c, 0, 63, 106
1, 59751, Note_off_c, 0, 63, 106
1, 59794, Note_on_c, 0, 65, 92
1, 60159, Note_off_c, 0, 65, 92
1, 60470, Note_on_c, 0, 68, 112
1, 60556, Note_off_c, 0, 68, 112
1, 60565, Note_on_c, 0, 69, 106
1, 60604, Note_off_c, 0, 69, 106
1, 60626, Note_on_c, 0, 65, 107
1, 60723, Note_off_c, 0, 65, 107
1, 60755, Note_on_c, 0, 60, 97
1, 60825, Note_off_c, 0, 60, 97
1, 60845, Note_on_c, 0, 65, 111
1, 60897, Note_off_c, 0, 65, 111
1, 60902, Note_on_c, 0, 66, 115
1, 60950, Note_off_c, 0, 66, 115
1, 60958, Note_on_c, 0, 67, 111
1, 61003, Note_off_c, 0, 67, 111
1, 61034, Note_on_c, 0, 64, 106
1, 61137, Note_off_c, 0, 64, 106
1, 61149, Note_on_c, 0, 60, 95
1, 61212, Note_off_c, 0, 60, 95
1, 61222, Note_on_c, 0, 64, 108
1, 61314, Note_off_c, 0, 64, 108
1, 61329, Note_on_c, 0, 65, 109
1, 61402, Note_off_c, 0, 65, 109
1, 62080, Note_on_c, 0, 69, 99
1, 62352, Note_off_c, 0, 69, 99
1, 62374, Note_on_c, 0, 67, 110
1, 62473, Note_off_c, 0, 67, 110
1, 62493, Note_on_c, 0, 65, 113
1, 62540, Note_off_c, 0, 65, 113
1, 62560, Note_on_c, 0, 64, 104
1, 62654, Note_off_c, 0, 64, 104
1, 62684, Note_on_c, 0, 62, 115
1, 62740, Note_off_c, 0, 62, 115
1, 62756, Note_on_c, 0, 65, 109
1, 62865, Note_off_c, 0, 65, 109
1, 63350, Note_on_c, 0, 65, 116
1, 63445, Note_off_c, 0, 65, 116
1, 63465, Note_on_c, 0, 67, 104
1, 63506, Note_off_c, 0, 67, 104
1, 63522, Note_on_c, 0, 68, 110
1, 63627, Note_off_c, 0, 68, 110
1, 63636, Note_on_c, 0, 70, 110
1, 63701, Note_off_c, 0, 70, 110
1, 63717, Note_on_c, 0, 71, 117
1, 63792, Note_off_c, 0, 71, 117
1, 63834, Note_on_c, 0, 73, 115
1, 63943, Note_off_c, 0, 73, 115
1, 64471, Note_on_c, 0, 73, 113
1, 64570, Note_off_c, 0, 73, 113
1, 64572, Note_on_c, 0, 71, 96
1, 64635, Note_off_c, 0, 71, 96
1, 64666, Note_on_c, 0, 70, 108
1, 64735, Note_off_c, 0, 70, 108
1, 64770, Note_on_c, 0, 68, 115
1, 64835, Note_off_c, 0, 68, 115
1, 64861, Note_on_c, 0, 65, 95
1, 64938, Note_off_c, 0, 65, 95
1, 64947, Note_on_c, 0, 66, 113
1, 65018, Note_off_c, 0, 66, 113
1, 65046, Note_on_c, 0, 67, 115
1, 65145, Note_off_c, 0, 67, 115
1, 65161, Note_on_c, 0, 62, 109
1, 65239, Note_off_c, 0, 62, 109
1, 65263, Note_on_c, 0, 65, 95
1, 65297, Note_off_c, 0, 65, 95
1, 65302, Note_on_c, 0, 67, 97
1, 65348, Note_off_c, 0, 67, 97
1, 65351, Note_on_c, 0, 65, 114
1, 65407, Note_off_c, 0, 65, 114
1, 65421, Note_on_c, 0, 64, 116
1, 65507, Note_off_c, 0, 64, 116
1, 65534, Note_on_c, 0, 63, 116
1, 65616, Note_off_c, 0, 63, 116
1, 65643, Note_on_c, 0, 62, 113
1, 65723, Note_off_c, 0, 62, 113
1, 65738, Note_on_c, 0, 61, 111
1, 65785, Note_off_c, 0, 61, 111
1, 65792, Note_on_c, 0, 60, 108
1, 65872, Note_off_c, 0, 60, 108
1, 65907, Note_on_c, 0, 58, 108
1, 65961, Note_off_c, 0, 58, 108
1, 66011, Note_on_c, 0, 53, 103
1, 66105, Note_off_c, 0, 53, 103
1, 66125, Note_on_c, 0, 55, 99
1, 66156, Note_off_c, 0, 55, 99
1, 66165, Note_on_c, 0, 57, 106
1, 66251, Note_off_c, 0, 57, 106
1, 66369, Note_on_c, 0, 58, 111
1, 66445, Note_off_c, 0, 58, 111
1, 66458, Note_on_c, 0, 59, 106
1, 66544, Note_off_c, 0, 59, 106
1, 66570, Note_on_c, 0, 60, 113
1, 66635, Note_off_c, 0, 60, 113
1, 66666, Note_on_c, 0, 65, 113
1, 66726, Note_off_c, 0, 65, 113
1, 66748, Note_on_c, 0, 64, 113
1, 66798, Note_off_c, 0, 64, 113
1, 66846, Note_on_c, 0, 67, 115
1, 66898, Note_off_c, 0, 67, 115
1, 66914, Note_on_c, 0, 65, 113
1, 66987, Note_off_c, 0, 65, 113
1, 67647, Note_on_c, 0, 57, 96
1, 67731, Note_off_c, 0, 57, 96
1, 67753, Note_on_c, 0, 58, 101
1, 67837, Note_off_c, 0, 58, 101
1, 67853, Note_on_c, 0, 60, 109
1, 67952, Note_off_c, 0, 60, 109
1, 67968, Note_on_c, 0, 62, 114
1, 68050, Note_off_c, 0, 62, 114
1, 68063, Note_on_c, 0, 63, 111
1, 68145, Note_off_c, 0, 63, 111
1, 68175, Note_on_c, 0, 65, 111
1, 68269, Note_off_c, 0, 65, 111
1, 68289, Note_on_c, 0, 67, 104
1, 68339, Note_off_c, 0, 67, 104
1, 68359, Note_on_c, 0, 69, 108
1, 68402, Note_off_c, 0, 69, 108
1, 68417, Note_on_c, 0, 74, 112
1, 68514, Note_off_c, 0, 74, 112
1, 68537, Note_on_c, 0, 72, 114
1, 68615, Note_off_c, 0, 72, 114
1, 68647, Note_on_c, 0, 69, 101
1, 68723, Note_off_c, 0, 69, 101
1, 68728, Note_on_c, 0, 67, 112
1, 68815, Note_off_c, 0, 67, 112
1, 68822, Note_on_c, 0, 65, 111
1, 68897, Note_off_c, 0, 65, 111
1, 68910, Note_on_c, 0, 61, 94
1, 68951, Note_off_c, 0, 61, 94
1, 68971, Note_on_c, 0, 62, 96
1, 69076, Note_off_c, 0, 62, 96
1, 69109, Note_on_c, 0, 65, 106
1, 69152, Note_off_c, 0, 65, 106
1, 69178, Note_on_c, 0, 70, 112
1, 69241, Note_off_c, 0, 70, 112
1, 69290, Note_on_c, 0, 65, 103
1, 69355, Note_off_c, 0, 65, 103
1, 69361, Note_on_c, 0, 68, 110
1, 69473, Note_off_c, 0, 68, 110
1, 69488, Note_on_c, 0, 65, 106
1, 69551, Note_off_c, 0, 65, 106
1, 69567, Note_on_c, 0, 67, 115
1, 69657, Note_off_c, 0, 67, 115
1, 69677, Note_on_c, 0, 65, 112
1, 69744, Note_off_c, 0, 65, 112
1, 69759, Note_on_c, 0, 64, 109
1, 69851, Note_off_c, 0, 64, 109
1, 69873, Note_on_c, 0, 67, 110
1, 69951, Note_off_c, 0, 67, 110
1, 69964, Note_on_c, 0, 65, 109
1, 70052, Note_off_c, 0, 65, 109
1, 70072, Note_on_c, 0, 61, 97
1, 70115, Note_off_c, 0, 61, 97
1, 70135, Note_on_c, 0, 58, 102
1, 70230, Note_off_c, 0, 58, 102
1, 70263, Note_on_c, 0, 60, 107
1, 70323, Note_off_c, 0, 60, 107
1, 70339, Note_on_c, 0, 61, 100
1, 70416, Note_off_c, 0, 61, 100
1, 70453, Note_on_c, 0, 63, 116
1, 70515, Note_off_c, 0, 63, 116
1, 70531, Note_on_c, 0, 60, 109
1, 70602, Note_off_c, 0, 60, 109
1, 70607, Note_on_c, 0, 61, 106
1, 70674, Note_off_c, 0, 61, 106
1, 70705, Note_on_c, 0, 58, 106
1, 70797, Note_off_c, 0, 58, 106
1, 70808, Note_on_c, 0, 53, 107
1, 70879, Note_off_c, 0, 53, 107
1, 70892, Note_on_c, 0, 58, 106
1, 70990, Note_off_c, 0, 58, 106
1, 71005, Note_on_c, 0, 60, 112
1, 71044, Note_off_c, 0, 60, 112
1, 71066, Note_on_c, 0, 58, 111
1, 71139, Note_off_c, 0, 58, 111
1, 71187, Note_on_c, 0, 65, 105
1, 71275, Note_off_c, 0, 65, 105
1, 71305, Note_on_c, 0, 56, 102
1, 71382, Note_off_c, 0, 56, 102
1, 71393, Note_on_c, 0, 54, 105
1, 71462, Note_off_c, 0, 54, 105
1, 71473, Note_on_c, 0, 55, 97
1, 71544, Note_off_c, 0, 55, 97
1, 71966, Note_on_c, 0, 57, 104
1, 72023, Note_off_c, 0, 57, 104
1, 72040, Note_on_c, 0, 59, 105
1, 72085, Note_off_c, 0, 59, 105
1, 72099, Note_on_c, 0, 64, 110
1, 72150, Note_off_c, 0, 64, 110
1, 72158, Note_on_c, 0, 67, 109
1, 72205, Note_off_c, 0, 67, 109
1, 72215, Note_on_c, 0, 66, 110
1, 72321, Note_off_c, 0, 66, 110
1, 72354, Note_on_c, 0, 63, 110
1, 72406, Note_off_c, 0, 63, 110
1, 72434, Note_on_c, 0, 62, 109
1, 72482, Note_off_c, 0, 62, 109
1, 73185, Note_on_c, 0, 74, 110
1, 73295, Note_off_c, 0, 74, 110
1, 73315, Note_on_c, 0, 73, 102
1, 73356, Note_off_c, 0, 73, 102
1, 73382, Note_on_c, 0, 72, 117
1, 73466, Note_off_c, 0, 72, 117
1, 73478, Note_on_c, 0, 69, 115
1, 73567, Note_off_c, 0, 69, 115
1, 73580, Note_on_c, 0, 68, 96
1, 73658, Note_off_c, 0, 68, 96
1, 73673, Note_on_c, 0, 67, 107
1, 73755, Note_off_c, 0, 67, 107
1, 73759, Note_on_c, 0, 65, 114
1, 73834, Note_off_c, 0, 65, 114
1, 73874, Note_on_c, 0, 62, 118
1, 73971, Note_off_c, 0, 62, 118
1, 74148, Note_on_c, 0, 64, 108
1, 74275, Note_off_c, 0, 64, 108
1, 74282, Note_on_c, 0, 65, 113
1, 74441, Note_off_c, 0, 65, 113
1, 74465, Note_on_c, 0, 69, 106
1, 74747, Note_off_c, 0, 69, 106
1, 74836, Note_on_c, 0, 67, 116
1, 74892, Note_off_c, 0, 67, 116
1, 74905, Note_on_c, 0, 65, 113
1, 74970, Note_off_c, 0, 65, 113
1, 75031, Note_on_c, 0, 64, 119
1, 75084, Note_off_c, 0, 64, 119
1, 75087, Note_on_c, 0, 62, 111
1, 75207, Note_off_c, 0, 62, 111
1, 75215, Note_on_c, 0, 61, 107
1, 75309, Note_off_c, 0, 61, 107
1, 75316, Note_on_c, 0, 64, 117
1, 75398, Note_off_c, 0, 64, 117
1, 75420, Note_on_c, 0, 62, 116
1, 75500, Note_off_c, 0, 62, 116
1, 75511, Note_on_c, 0, 61, 104
1, 75603, Note_off_c, 0, 61, 104
1, 75618, Note_on_c, 0, 64, 117
1, 75685, Note_off_c, 0, 64, 117
1, 75707, Note_on_c, 0, 62, 115
1, 75797, Note_off_c, 0, 62, 115
1, 75813, Note_on_c, 0, 60, 112
1, 75873, Note_off_c, 0, 60, 112
1, 75885, Note_on_c, 0, 57, 102
1, 75991, Note_off_c, 0, 57, 102
1, 75999, Note_on_c, 0, 58, 109
1, 76091, Note_off_c, 0, 58, 109
1, 76099, Note_on_c, 0, 59, 110
1, 76168, Note_off_c, 0, 59, 110
1, 76187, Note_on_c, 0, 62, 118
1, 76243, Note_off_c, 0, 62, 118
1, 76261, Note_on_c, 0, 65, 107
1, 76370, Note_off_c, 0, 65, 107
1, 76383, Note_on_c, 0, 67, 117
1, 76431, Note_off_c, 0, 67, 117
1, 76451, Note_on_c, 0, 68, 111
1, 76531, Note_off_c, 0, 68, 111
1, 77028, Note_on_c, 0, 73, 108
1, 77125, Note_off_c, 0, 73, 108
1, 77141, Note_on_c, 0, 74, 112
1, 77218, Note_off_c, 0, 74, 112
1, 77238, Note_on_c, 0, 70, 114
1, 77316, Note_off_c, 0, 70, 114
1, 77339, Note_on_c, 0, 71, 119
1, 77404, Note_off_c, 0, 71, 119
1, 77433, Note_on_c, 0, 67, 112
1, 77521, Note_off_c, 0, 67, 112
1, 77537, Note_on_c, 0, 68, 114
1, 77617, Note_off_c, 0, 68, 114
1, 77632, Note_on_c, 0, 64, 120
1, 77703, Note_off_c, 0, 64, 120
1, 77712, Note_on_c, 0, 65, 114
1, 77781, Note_off_c, 0, 65, 114
1, 77797, Note_on_c, 0, 61, 113
1, 77872, Note_off_c, 0, 61, 113
1, 77883, Note_on_c, 0, 62, 111
1, 77971, Note_off_c, 0, 62, 111
1, 78001, Note_on_c, 0, 58, 109
1, 78087, Note_off_c, 0, 58, 109
1, 78100, Note_on_c, 0, 59, 113
1, 78190, Note_off_c, 0, 59, 113
1, 78204, Note_on_c, 0, 55, 108
1, 78273, Note_off_c, 0, 55, 108
1, 78295, Note_on_c, 0, 56, 105
1, 78575, Note_off_c, 0, 56, 105
1, 79268, Note_on_c, 0, 67, 117
1, 79324, Note_off_c, 0, 67, 117
1, 79331, Note_on_c, 0, 68, 111
1, 79451, Note_off_c, 0, 68, 111
1, 79473, Note_on_c, 0, 65, 112
1, 79542, Note_off_c, 0, 65, 112
1, 79573, Note_on_c, 0, 67, 119
1, 79644, Note_off_c, 0, 67, 119
1, 79660, Note_on_c, 0, 68, 106
1, 79797, Note_off_c, 0, 68, 106
1, 79844, Note_on_c, 0, 65, 104
1, 79913, Note_off_c, 0, 65, 104
1, 79941, Note_on_c, 0, 67, 116
1, 80033, Note_off_c, 0, 67, 116
1, 80049, Note_on_c, 0, 68, 102
1, 80199, Note_off_c, 0, 68, 102
1, 80255, Note_on_c, 0, 65, 108
1, 80324, Note_off_c, 0, 65, 108
1, 80348, Note_on_c, 0, 67, 110
1, 80447, Note_off_c, 0, 67, 110
1, 80456, Note_on_c, 0, 68, 101
1, 80600, Note_off_c, 0, 68, 101
1, 80641, Note_on_c, 0, 65, 111
1, 80695, Note_off_c, 0, 65, 111
1, 80701, Note_on_c, 0, 68, 105
1, 81007, Note_off_c, 0, 68, 105
1, 81021, Note_on_c, 0, 65, 114
1, 81086, Note_off_c, 0, 65, 114
1, 81108, Note_on_c, 0, 68, 106
1, 81382, Note_off_c, 0, 68, 106
1, 81420, Note_on_c, 0, 65, 111
1, 81483, Note_off_c, 0, 65, 111
1, 81495, Note_on_c, 0, 68, 109
1, 81613, Note_off_c, 0, 68, 109
1, 81625, Note_on_c, 0, 70, 111
1, 81692, Note_off_c, 0, 70, 111
1, 82267, Note_on_c, 0, 65, 118
1, 82340, Note_off_c, 0, 65, 118
1, 82479, Note_on_c, 0, 68, 104
1, 82576, Note_off_c, 0, 68, 104
1, 82630, Note_on_c, 0, 70, 114
1, 82866, Note_off_c, 0, 70, 114
1, 82872, Note_on_c, 0, 69, 109
1, 82928, Note_off_c, 0, 69, 109
1, 83045, Note_on_c, 0, 68, 111
1, 83210, Note_off_c, 0, 68, 111
1, 83226, Note_on_c, 0, 65, 116
1, 83342, Note_off_c, 0, 65, 116
1, 83449, Note_on_c, 0, 63, 118
1, 83582, Note_off_c, 0, 63, 118
1, 83612, Note_on_c, 0, 60, 111
1, 83711, Note_off_c, 0, 60, 111
1, 83805, Note_on_c, 0, 64, 110
1, 83955, Note_off_c, 0, 64, 110
1, 83971, Note_on_c, 0, 67, 110
1, 84074, Note_off_c, 0, 67, 110
1, 84111, Note_on_c, 0, 64, 106
1, 84393, Note_off_c, 0, 64, 106
1, 86327, Note_on_c, 0, 65, 119
1, 86426, Note_off_c, 0, 65, 119
1, 86453, Note_on_c, 0, 68, 103
1, 86505, Note_off_c, 0, 68, 103
1, 86517, Note_on_c, 0, 70, 116
1, 86597, Note_off_c, 0, 70, 116
1, 86610, Note_on_c, 0, 71, 122
1, 86675, Note_off_c, 0, 71, 122
1, 86695, Note_on_c, 0, 70, 108
1, 86775, Note_off_c, 0, 70, 108
1, 86805, Note_on_c, 0, 68, 116
1, 86870, Note_off_c, 0, 68, 116
1, 86887, Note_on_c, 0, 65, 116
1, 86996, Note_off_c, 0, 65, 116
1, 87021, Note_on_c, 0, 68, 101
1, 87060, Note_off_c, 0, 68, 101
1, 87078, Note_on_c, 0, 70, 110
1, 87153, Note_off_c, 0, 70, 110
1, 87162, Note_on_c, 0, 71, 119
1, 87239, Note_off_c, 0, 71, 119
1, 87250, Note_on_c, 0, 70, 106
1, 87332, Note_off_c, 0, 70, 106
1, 87358, Note_on_c, 0, 68, 115
1, 87410, Note_off_c, 0, 68, 115
1, 87437, Note_on_c, 0, 65, 114
1, 87517, Note_off_c, 0, 65, 114
1, 87551, Note_on_c, 0, 68, 101
1, 87614, Note_off_c, 0, 68, 101
1, 87629, Note_on_c, 0, 70, 110
1, 87709, Note_off_c, 0, 70, 110
1, 87712, Note_on_c, 0, 71, 121
1, 87809, Note_off_c, 0, 71, 121
1, 87829, Note_on_c, 0, 70, 103
1, 87885, Note_off_c, 0, 70, 103
1, 87940, Note_on_c, 0, 68, 119
1, 88011, Note_off_c, 0, 68, 119
1, 88019, Note_on_c, 0, 65, 116
1, 88111, Note_off_c, 0, 65, 116
1, 88139, Note_on_c, 0, 68, 99
1, 88172, Note_off_c, 0, 68, 99
1, 88196, Note_on_c, 0, 70, 112
1, 88295, Note_off_c, 0, 70, 112
1, 88296, Note_on_c, 0, 71, 123
1, 88376, Note_off_c, 0, 71, 123
1, 88389, Note_on_c, 0, 70, 107
1, 88456, Note_off_c, 0, 70, 107
1, 88499, Note_on_c, 0, 68, 116
1, 88553, Note_off_c, 0, 68, 116
1, 88583, Note_on_c, 0, 65, 116
1, 88656, Note_off_c, 0, 65, 116
1, 88682, Note_on_c, 0, 68, 108
1, 88738, Note_off_c, 0, 68, 108
1, 88756, Note_on_c, 0, 70, 110
1, 88833, Note_off_c, 0, 70, 110
1, 88842, Note_on_c, 0, 71, 120
1, 88936, Note_off_c, 0, 71, 120
1, 88951, Note_on_c, 0, 70, 104
1, 89026, Note_off_c, 0, 70, 104
1, 89063, Note_on_c, 0, 68, 118
1, 89128, Note_off_c, 0, 68, 118
1, 89143, Note_on_c, 0, 65, 116
1, 89227, Note_off_c, 0, 65, 116
1, 89240, Note_on_c, 0, 64, 125
1, 89317, Note_off_c, 0, 64, 125
1, 89320, Note_on_c, 0, 63, 121
1, 89410, Note_off_c, 0, 63, 121
1, 89441, Note_on_c, 0, 60, 122
1, 89512, Note_off_c, 0, 60, 122
1, 89525, Note_on_c, 0, 59, 114
1, 89596, Note_off_c, 0, 59, 114
1, 89620, Note_on_c, 0, 58, 110
1, 89689, Note_off_c, 0, 58, 110
1, 89707, Note_on_c, 0, 56, 107
1, 89784, Note_off_c, 0, 56, 107
1, 89821, Note_on_c, 0, 52, 117
1, 89875, Note_off_c, 0, 52, 117
1, 89884, Note_on_c, 0, 51, 115
1, 89987, Note_off_c, 0, 51, 115
1, 89998, Note_on_c, 0, 48, 114
1, 90087, Note_off_c, 0, 48, 114
1, 90091, Note_on_c, 0, 47, 118
1, 90166, Note_off_c, 0, 47, 118
1, 90186, Note_on_c, 0, 47, 113
1, 90422, Note_off_c, 0, 47, 113
1, 91795, Note_on_c, 0, 65, 108
1, 91905, Note_off_c, 0, 65, 108
1, 91975, Note_on_c, 0, 64, 112
1, 92102, Note_off_c, 0, 64, 112
1, 92174, Note_on_c, 0, 63, 117
1, 92284, Note_off_c, 0, 63, 117
1, 92368, Note_on_c, 0, 62, 123
1, 92494, Note_off_c, 0, 62, 123
1, 92542, Note_on_c, 0, 61, 125
1, 92713, Note_off_c, 0, 61, 125
1, 92722, Note_on_c, 0, 62, 122
1, 92900, Note_off_c, 0, 62, 122
1, 92944, Note_on_c, 0, 63, 119
1, 93090, Note_off_c, 0, 63, 119
1, 93139, Note_on_c, 0, 64, 116
1, 93221, Note_off_c, 0, 64, 116
1, 93252, Note_on_c, 0, 65, 104
1, 93652, Note_off_c, 0, 65, 104
1, 93697, Note_on_c, 0, 62, 111
1, 93804, Note_off_c, 0, 62, 111
1, 93824, Note_on_c, 0, 60, 108
1, 93897, Note_off_c, 0, 60, 108
1, 93913, Note_on_c, 0, 58, 101
1, 93969, Note_off_c, 0, 58, 101
1, 94032, Note_on_c, 0, 57, 103
1, 94133, Note_off_c, 0, 57, 103
1, 94227, Note_on_c, 0, 55, 93
1, 94537, Note_off_c, 0, 55, 93
1, 94988, Note_on_c, 0, 72, 112
1, 95243, Note_off_c, 0, 72, 112
1, 95271, Note_on_c, 0, 70, 110
1, 95333, Note_off_c, 0, 70, 110
1, 95376, Note_on_c, 0, 68, 111
1, 95428, Note_off_c, 0, 68, 111
1, 95465, Note_on_c, 0, 65, 113
1, 95534, Note_off_c, 0, 65, 113
1, 95554, Note_on_c, 0, 61, 124
1, 95632, Note_off_c, 0, 61, 124
1, 95654, Note_on_c, 0, 60, 120
1, 95815, Note_off_c, 0, 60, 120
1, 95829, Note_on_c, 0, 58, 106
1, 95881, Note_off_c, 0, 58, 106
1, 95904, Note_on_c, 0, 63, 116
1, 96261, Note_off_c, 0, 63, 116
1, 96415, Note_on_c, 0, 62, 121
1, 96518, Note_off_c, 0, 62, 121
1, 96522, Note_on_c, 0, 63, 120
1, 96569, Note_off_c, 0, 63, 120
1, 96585, Note_on_c, 0, 62, 117
1, 96665, Note_off_c, 0, 62, 117
1, 96670, Note_on_c, 0, 60, 116
1, 96750, Note_off_c, 0, 60, 116
1, 96761, Note_on_c, 0, 59, 113
1, 96830, Note_off_c, 0, 59, 113
1, 96881, Note_on_c, 0, 62, 118
1, 96963, Note_off_c, 0, 62, 118
1, 96980, Note_on_c, 0, 65, 106
1, 97036, Note_off_c, 0, 65, 106
1, 97062, Note_on_c, 0, 69, 105
1, 97127, Note_off_c, 0, 69, 105
1, 97147, Note_on_c, 0, 68, 109
1, 97224, Note_off_c, 0, 68, 109
1, 97334, Note_on_c, 0, 64, 116
1, 97424, Note_off_c, 0, 64, 116
1, 97450, Note_on_c, 0, 61, 106
1, 97523, Note_off_c, 0, 61, 106
1, 97536, Note_on_c, 0, 58, 111
1, 97628, Note_off_c, 0, 58, 111
1, 97644, Note_on_c, 0, 61, 108
1, 97719, Note_off_c, 0, 61, 108
1, 97732, Note_on_c, 0, 64, 104
1, 97822, Note_off_c, 0, 64, 104
1, 97833, Note_on_c, 0, 68, 112
1, 97880, Note_off_c, 0, 68, 112
1, 97904, Note_on_c, 0, 67, 118
1, 97984, Note_off_c, 0, 67, 118
1, 98382, Note_on_c, 0, 68, 113
1, 98440, Note_off_c, 0, 68, 113
1, 98453, Note_on_c, 0, 67, 117
1, 98505, Note_off_c, 0, 67, 117
1, 98805, Note_on_c, 0, 68, 113
1, 98857, Note_off_c, 0, 68, 113
1, 98872, Note_on_c, 0, 67, 116
1, 98945, Note_off_c, 0, 67, 116
1, 99474, Note_on_c, 0, 68, 119
1, 99534, Note_off_c, 0, 68, 119
1, 99807, Note_on_c, 0, 67, 118
1, 99878, Note_off_c, 0, 67, 118
1, 100257, Note_on_c, 0, 68, 117
1, 100339, Note_off_c, 0, 68, 117
1, 100604, Note_on_c, 0, 67, 116
1, 100660, Note_off_c, 0, 67, 116
1, 101081, Note_on_c, 0, 68, 114
1, 101154, Note_off_c, 0, 68, 114
1, 101357, Note_on_c, 0, 67, 104
1, 101735, Note_off_c, 0, 67, 104
1, 101759, Note_on_c, 0, 68, 114
1, 101828, Note_off_c, 0, 68, 114
1, 101850, Note_on_c, 0, 67, 108
1, 101912, Note_off_c, 0, 67, 108
1, 101923, Note_on_c, 0, 68, 110
1, 102011, Note_off_c, 0, 68, 110
1, 102045, Note_on_c, 0, 67, 110
1, 102117, Note_off_c, 0, 67, 110
1, 102136, Note_on_c, 0, 68, 109
1, 102226, Note_off_c, 0, 68, 109
1, 102248, Note_on_c, 0, 67, 103
1, 102321, Note_off_c, 0, 67, 103
1, 102438, Note_on_c, 0, 68, 94
1, 102763, Note_off_c, 0, 68, 94
1, 102791, Note_on_c, 0, 67, 115
1, 102885, Note_off_c, 0, 67, 115
1, 103665, Note_on_c, 0, 72, 124
1, 103747, Note_off_c, 0, 72, 124
1, 103820, Note_on_c, 0, 70, 110
1, 103902, Note_off_c, 0, 70, 110
1, 104033, Note_on_c, 0, 69, 111
1, 104121, Note_off_c, 0, 69, 111
1, 104218, Note_on_c, 0, 65, 121
1, 104332, Note_off_c, 0, 65, 121
1, 104433, Note_on_c, 0, 60, 121
1, 104511, Note_off_c, 0, 60, 121
1, 104544, Note_on_c, 0, 65, 115
1, 104634, Note_off_c, 0, 65, 115
1, 104724, Note_on_c, 0, 65, 113
1, 104972, Note_off_c, 0, 65, 113
1, 105283, Note_on_c, 0, 72, 118
1, 105450, Note_off_c, 0, 72, 118
1, 105474, Note_on_c, 0, 70, 106
1, 105537, Note_off_c, 0, 70, 106
1, 105572, Note_on_c, 0, 68, 112
1, 105649, Note_off_c, 0, 68, 112
1, 105673, Note_on_c, 0, 65, 112
1, 105748, Note_off_c, 0, 65, 112
1, 105753, Note_on_c, 0, 67, 114
1, 105856, Note_off_c, 0, 67, 114
1, 105872, Note_on_c, 0, 64, 115
1, 105954, Note_off_c, 0, 64, 115
1, 105969, Note_on_c, 0, 65, 121
1, 106066, Note_off_c, 0, 65, 121
1, 106111, Note_on_c, 0, 67, 106
1, 106182, Note_off_c, 0, 67, 106
1, 106189, Note_on_c, 0, 68, 103
1, 106243, Note_off_c, 0, 68, 103
1, 106259, Note_on_c, 0, 70, 118
1, 106304, Note_off_c, 0, 70, 118
1, 106331, Note_on_c, 0, 71, 119
1, 106441, Note_off_c, 0, 71, 119
1, 106450, Note_on_c, 0, 73, 120
1, 106534, Note_off_c, 0, 73, 120
1, 106534, Note_on_c, 0, 71, 118
1, 106573, Note_off_c, 0, 71, 118
1, 106938, Note_on_c, 0, 73, 117
1, 107030, Note_off_c, 0, 73, 117
1, 107040, Note_on_c, 0, 72, 119
1, 107087, Note_off_c, 0, 72, 119
1, 107100, Note_on_c, 0, 71, 120
1, 107186, Note_off_c, 0, 71, 120
1, 107210, Note_on_c, 0, 63, 105
1, 107292, Note_off_c, 0, 63, 105
1, 107299, Note_on_c, 0, 64, 106
1, 107374, Note_off_c, 0, 64, 106
1, 107387, Note_on_c, 0, 65, 109
1, 107452, Note_off_c, 0, 65, 109
1, 107472, Note_on_c, 0, 70, 114
1, 107567, Note_off_c, 0, 70, 114
1, 107594, Note_on_c, 0, 68, 109
1, 107652, Note_off_c, 0, 68, 109
1, 107662, Note_on_c, 0, 65, 114
1, 107742, Note_off_c, 0, 65, 114
1, 107765, Note_on_c, 0, 66, 119
1, 107838, Note_off_c, 0, 66, 119
1, 107850, Note_on_c, 0, 67, 113
1, 107934, Note_off_c, 0, 67, 113
1, 107959, Note_on_c, 0, 61, 115
1, 108019, Note_off_c, 0, 61, 115
1, 108028, Note_on_c, 0, 62, 115
1, 108065, Note_off_c, 0, 62, 115
1, 108072, Note_on_c, 0, 67, 102
1, 108106, Note_off_c, 0, 67, 102
1, 108114, Note_on_c, 0, 65, 116
1, 108192, Note_off_c, 0, 65, 116
1, 108210, Note_on_c, 0, 64, 114
1, 108313, Note_off_c, 0, 64, 114
1, 108340, Note_on_c, 0, 63, 119
1, 108381, Note_off_c, 0, 63, 119
1, 108411, Note_on_c, 0, 62, 114
1, 108486, Note_off_c, 0, 62, 114
1, 108495, Note_on_c, 0, 61, 115
1, 108571, Note_off_c, 0, 61, 115
1, 108591, Note_on_c, 0, 60, 118
1, 108690, Note_off_c, 0, 60, 118
1, 108705, Note_on_c, 0, 57, 106
1, 108772, Note_off_c, 0, 57, 106
1, 108792, Note_on_c, 0, 56, 103
1, 108846, Note_off_c, 0, 56, 103
1, 108859, Note_on_c, 0, 55, 102
1, 108962, Note_off_c, 0, 55, 102
1, 108969, Note_on_c, 0, 54, 107
1, 109031, Note_off_c, 0, 54, 107
1, 109096, Note_on_c, 0, 65, 118
1, 109144, Note_off_c, 0, 65, 118
1, 109170, Note_on_c, 0, 64, 111
1, 109224, Note_off_c, 0, 64, 111
1, 109265, Note_on_c, 0, 63, 116
1, 109325, Note_off_c, 0, 63, 116
1, 109349, Note_on_c, 0, 62, 119
1, 109461, Note_off_c, 0, 62, 119
1, 109479, Note_on_c, 0, 60, 117
1, 109512, Note_off_c, 0, 60, 117
1, 109532, Note_on_c, 0, 58, 112
1, 109626, Note_off_c, 0, 58, 112
1, 109640, Note_on_c, 0, 57, 110
1, 109694, Note_off_c, 0, 57, 110
1, 109717, Note_on_c, 0, 56, 104
1, 109790, Note_off_c, 0, 56, 104
1, 110228, Note_on_c, 0, 68, 112
1, 110322, Note_off_c, 0, 68, 112
1, 110343, Note_on_c, 0, 67, 111
1, 110405, Note_off_c, 0, 67, 111
1, 110425, Note_on_c, 0, 66, 112
1, 110507, Note_off_c, 0, 66, 112
1, 110517, Note_on_c, 0, 65, 118
1, 110595, Note_off_c, 0, 65, 118
1, 111005, Note_on_c, 0, 75, 118
1, 111063, Note_off_c, 0, 75, 118
1, 111082, Note_on_c, 0, 74, 106
1, 111185, Note_off_c, 0, 74, 106
1, 111218, Note_on_c, 0, 73, 121
1, 111293, Note_off_c, 0, 73, 121
1, 111305, Note_on_c, 0, 72, 125
1, 111415, Note_off_c, 0, 72, 125
1, 111762, Note_on_c, 0, 68, 114
1, 111846, Note_off_c, 0, 68, 114
1, 111872, Note_on_c, 0, 67, 107
1, 111928, Note_off_c, 0, 67, 107
1, 111944, Note_on_c, 0, 66, 114
1, 112017, Note_off_c, 0, 66, 114
1, 112028, Note_on_c, 0, 65, 123
1, 112140, Note_off_c, 0, 65, 123
1, 112491, Note_on_c, 0, 75, 116
1, 112562, Note_off_c, 0, 75, 116
1, 112586, Note_on_c, 0, 74, 112
1, 112678, Note_off_c, 0, 74, 112
1, 112698, Note_on_c, 0, 73, 116
1, 112754, Note_off_c, 0, 73, 116
1, 112782, Note_on_c, 0, 72, 123
1, 112879, Note_off_c, 0, 72, 123
1, 113277, Note_on_c, 0, 73, 113
1, 113355, Note_off_c, 0, 73, 113
1, 113373, Note_on_c, 0, 72, 121
1, 113446, Note_off_c, 0, 72, 121
1, 113468, Note_on_c, 0, 70, 118
1, 113541, Note_off_c, 0, 70, 118
1, 113550, Note_on_c, 0, 71, 125
1, 113687, Note_off_c, 0, 71, 125
1, 114054, Note_on_c, 0, 63, 112
1, 114142, Note_off_c, 0, 63, 112
1, 114277, Note_on_c, 0, 65, 111
1, 114318, Note_off_c, 0, 65, 111
1, 114332, Note_on_c, 0, 69, 117
1, 114401, Note_off_c, 0, 69, 117
1, 114423, Note_on_c, 0, 63, 110
1, 114492, Note_off_c, 0, 63, 110
1, 114505, Note_on_c, 0, 64, 113
1, 114595, Note_off_c, 0, 64, 113
1, 114608, Note_on_c, 0, 67, 112
1, 114671, Note_off_c, 0, 67, 112
1, 114699, Note_on_c, 0, 65, 121
1, 114764, Note_off_c, 0, 65, 121
1, 114797, Note_on_c, 0, 61, 119
1, 114866, Note_off_c, 0, 61, 119
1, 114877, Note_on_c, 0, 60, 119
1, 114974, Note_off_c, 0, 60, 119
1, 114992, Note_on_c, 0, 58, 117
1, 115042, Note_off_c, 0, 58, 117
1, 115051, Note_on_c, 0, 57, 111
1, 115154, Note_off_c, 0, 57, 111
1, 115180, Note_on_c, 0, 53, 103
1, 115247, Note_off_c, 0, 53, 103
1, 115299, Note_on_c, 0, 58, 108
1, 115391, Note_off_c, 0, 58, 108
1, 115400, Note_on_c, 0, 59, 114
1, 115445, Note_off_c, 0, 59, 114
1, 115463, Note_on_c, 0, 60, 114
1, 115534, Note_off_c, 0, 60, 114
1, 115554, Note_on_c, 0, 65, 119
1, 115617, Note_off_c, 0, 65, 119
1, 115637, Note_on_c, 0, 64, 116
1, 115751, Note_off_c, 0, 64, 116
1, 115758, Note_on_c, 0, 67, 113
1, 115831, Note_off_c, 0, 67, 113
1, 115836, Note_on_c, 0, 65, 114
1, 115911, Note_off_c, 0, 65, 114
1, 115927, Note_on_c, 0, 61, 119
1, 115987, Note_off_c, 0, 61, 119
1, 116015, Note_on_c, 0, 58, 108
1, 116112, Note_off_c, 0, 58, 108
1, 116117, Note_on_c, 0, 53, 99
1, 116186, Note_off_c, 0, 53, 99
1, 116210, Note_on_c, 0, 57, 108
1, 116290, Note_off_c, 0, 57, 108
1, 116314, Note_on_c, 0, 58, 110
1, 116374, Note_off_c, 0, 58, 110
1, 116389, Note_on_c, 0, 60, 122
1, 116449, Note_off_c, 0, 60, 122
1, 116469, Note_on_c, 0, 62, 119
1, 116561, Note_off_c, 0, 62, 119
1, 116576, Note_on_c, 0, 63, 114
1, 116670, Note_off_c, 0, 63, 114
1, 116683, Note_on_c, 0, 65, 120
1, 116775, Note_off_c, 0, 65, 120
1, 116795, Note_on_c, 0, 67, 100
1, 116853, Note_off_c, 0, 67, 100
1, 116903, Note_on_c, 0, 71, 117
1, 116925, Note_off_c, 0, 71, 117
1, 116939, Note_on_c, 0, 72, 111
1, 116963, Note_off_c, 0, 72, 111
1, 116973, Note_on_c, 0, 74, 106
1, 117055, Note_off_c, 0, 74, 106
1, 117078, Note_on_c, 0, 75, 113
1, 117192, Note_off_c, 0, 75, 113
1, 117221, Note_on_c, 0, 74, 107
1, 117265, Note_off_c, 0, 74, 107
1, 117281, Note_on_c, 0, 72, 124
1, 117363, Note_off_c, 0, 72, 124
1, 117381, Note_on_c, 0, 71, 119
1, 117444, Note_off_c, 0, 71, 119
1, 117472, Note_on_c, 0, 69, 114
1, 117537, Note_off_c, 0, 69, 114
1, 117568, Note_on_c, 0, 68, 98
1, 117632, Note_off_c, 0, 68, 98
1, 117660, Note_on_c, 0, 66, 116
1, 117752, Note_off_c, 0, 66, 116
1, 117761, Note_on_c, 0, 65, 116
1, 117806, Note_off_c, 0, 65, 116
1, 117824, Note_on_c, 0, 63, 118
1, 117902, Note_off_c, 0, 63, 118
1, 117926, Note_on_c, 0, 62, 113
1, 118008, Note_off_c, 0, 62, 113
1, 118045, Note_on_c, 0, 60, 123
1, 118123, Note_off_c, 0, 60, 123
1, 118128, Note_on_c, 0, 58, 112
1, 118199, Note_off_c, 0, 58, 112
1, 118661, Note_on_c, 0, 45, 119
1, 118749, Note_off_c, 0, 45, 119
1, 119452, Note_on_c, 0, 70, 117
1, 119506, Note_off_c, 0, 70, 117
1, 119531, Note_on_c, 0, 72, 119
1, 119571, Note_off_c, 0, 72, 119
1, 119580, Note_on_c, 0, 71, 122
1, 119638, Note_off_c, 0, 71, 122
1, 119649, Note_on_c, 0, 70, 118
1, 119733, Note_off_c, 0, 70, 118
1, 119765, Note_on_c, 0, 68, 112
1, 119836, Note_off_c, 0, 68, 112
1, 119861, Note_on_c, 0, 67, 113
1, 119939, Note_off_c, 0, 67, 113
1, 119954, Note_on_c, 0, 66, 127
1, 120031, Note_off_c, 0, 66, 127
1, 120049, Note_on_c, 0, 65, 121
1, 120099, Note_off_c, 0, 65, 121
1, 120119, Note_on_c, 0, 63, 121
1, 120207, Note_off_c, 0, 63, 121
1, 120215, Note_on_c, 0, 61, 111
1, 120400, Note_off_c, 0, 61, 111
1, 120441, Note_on_c, 0, 58, 115
1, 120516, Note_off_c, 0, 58, 115
1, 120527, Note_on_c, 0, 60, 121
1, 120581, Note_off_c, 0, 60, 121
1, 120592, Note_on_c, 0, 61, 110
1, 120676, Note_off_c, 0, 61, 110
1, 120689, Note_on_c, 0, 62, 121
1, 120769, Note_off_c, 0, 62, 121
1, 120784, Note_on_c, 0, 63, 119
1, 120855, Note_off_c, 0, 63, 119
1, 120903, Note_on_c, 0, 60, 120
1, 120959, Note_off_c, 0, 60, 120
1, 120962, Note_on_c, 0, 55, 110
1, 121046, Note_off_c, 0, 55, 110
1, 121061, Note_on_c, 0, 51, 104
1, 121132, Note_off_c, 0, 51, 104
1, 121184, Note_on_c, 0, 54, 109
1, 121274, Note_off_c, 0, 54, 109
1, 121309, Note_on_c, 0, 63, 118
1, 122459, Note_off_c, 0, 63, 118
1, 122484, Note_on_c, 0, 64, 119
1, 122580, Note_off_c, 0, 64, 119
1, 122677, Note_on_c, 0, 65, 120
1, 122780, Note_off_c, 0, 65, 120
1, 122810, Note_on_c, 0, 60, 116
1, 122868, Note_off_c, 0, 60, 116
1, 122889, Note_on_c, 0, 57, 102
1, 122952, Note_off_c, 0, 57, 102
1, 122991, Note_on_c, 0, 53, 84
1, 123030, Note_off_c, 0, 53, 84
1, 123069, Note_on_c, 0, 58, 110
1, 123153, Note_off_c, 0, 58, 110
1, 123192, Note_on_c, 0, 59, 101
1, 123297, Note_off_c, 0, 59, 101
1, 123361, Note_on_c, 0, 60, 107
1, 123590, Note_off_c, 0, 60, 107
1, 124404, Note_on_c, 0, 65, 123
1, 124486, Note_off_c, 0, 65, 123
1, 124516, Note_on_c, 0, 66, 110
1, 124591, Note_off_c, 0, 66, 110
1, 124601, Note_on_c, 0, 67, 116
1, 124691, Note_off_c, 0, 67, 116
1, 124702, Note_on_c, 0, 63, 109
1, 124758, Note_off_c, 0, 63, 109
1, 124775, Note_on_c, 0, 64, 108
1, 124846, Note_off_c, 0, 64, 108
1, 124883, Note_on_c, 0, 67, 118
1, 124946, Note_off_c, 0, 67, 118
1, 124977, Note_on_c, 0, 65, 123
1, 125029, Note_off_c, 0, 65, 123
1, 125061, Note_on_c, 0, 62, 116
1, 125128, Note_off_c, 0, 62, 116
1, 125136, Note_on_c, 0, 58, 100
1, 125222, Note_off_c, 0, 58, 100
1, 125317, Note_on_c, 0, 64, 122
1, 125397, Note_off_c, 0, 64, 122
1, 125429, Note_on_c, 0, 65, 122
1, 125515, Note_off_c, 0, 65, 122
1, 125523, Note_on_c, 0, 62, 110
1, 125577, Note_off_c, 0, 62, 110
1, 125613, Note_on_c, 0, 58, 115
1, 125671, Note_off_c, 0, 58, 115
1, 125691, Note_on_c, 0, 57, 106
1, 125754, Note_off_c, 0, 57, 106
1, 125794, Note_on_c, 0, 55, 99
1, 125874, Note_off_c, 0, 55, 99
1, 125899, Note_on_c, 0, 64, 124
1, 125981, Note_off_c, 0, 64, 124
1, 126000, Note_on_c, 0, 65, 122
1, 126073, Note_off_c, 0, 65, 122
1, 126094, Note_on_c, 0, 62, 111
1, 126161, Note_off_c, 0, 62, 111
1, 126189, Note_on_c, 0, 58, 112
1, 126262, Note_off_c, 0, 58, 112
1, 126275, Note_on_c, 0, 57, 101
1, 126331, Note_off_c, 0, 57, 101
1, 126349, Note_on_c, 0, 55, 115
1, 126405, Note_off_c, 0, 55, 115
1, 126457, Note_on_c, 0, 64, 111
1, 126551, Note_off_c, 0, 64, 111
1, 126567, Note_on_c, 0, 65, 121
1, 126629, Note_off_c, 0, 65, 121
1, 126655, Note_on_c, 0, 60, 107
1, 126728, Note_off_c, 0, 60, 107
1, 126757, Note_on_c, 0, 57, 111
1, 126822, Note_off_c, 0, 57, 111
1, 126843, Note_on_c, 0, 55, 104
1, 126937, Note_off_c, 0, 55, 104
1, 126942, Note_on_c, 0, 53, 97
1, 127009, Note_off_c, 0, 53, 97
1, 127044, Note_on_c, 0, 64, 121
1, 127126, Note_off_c, 0, 64, 121
1, 127144, Note_on_c, 0, 65, 121
1, 127217, Note_off_c, 0, 65, 121
1, 128091, Note_on_c, 0, 65, 87
1, 128154, Note_off_c, 0, 65, 87
1, 128172, Note_on_c, 0, 71, 110
1, 128264, Note_off_c, 0, 71, 110
1, 128376, Note_on_c, 0, 72, 114
1, 128485, Note_off_c, 0, 72, 114
1, 128552, Note_on_c, 0, 68, 119
1, 128670, Note_off_c, 0, 68, 119
1, 128735, Note_on_c, 0, 69, 111
1, 128861, Note_off_c, 0, 69, 111
1, 128960, Note_on_c, 0, 64, 122
1, 129023, Note_off_c, 0, 64, 122
1, 129107, Note_on_c, 0, 65, 115
1, 129210, Note_off_c, 0, 65, 115
1, 129334, Note_on_c, 0, 59, 111
1, 129418, Note_off_c, 0, 59, 111
1, 129512, Note_on_c, 0, 60, 115
1, 129632, Note_off_c, 0, 60, 115
1, 129700, Note_on_c, 0, 55, 104
1, 129800, Note_off_c, 0, 55, 104
1, 129808, Note_on_c, 0, 56, 104
1, 130163, Note_off_c, 0, 56, 104
1, 131248, Note_on_c, 0, 59, 119
1, 131387, Note_off_c, 0, 59, 119
1, 131407, Note_on_c, 0, 70, 116
1, 131548, Note_off_c, 0, 70, 116
1, 132591, Note_on_c, 0, 71, 106
1, 132651, Note_off_c, 0, 71, 106
1, 132664, Note_on_c, 0, 72, 114
1, 132793, Note_off_c, 0, 72, 114
1, 133133, Note_on_c, 0, 72, 113
1, 133213, Note_off_c, 0, 72, 113
1, 133239, Note_on_c, 0, 70, 109
1, 133308, Note_off_c, 0, 70, 109
1, 133317, Note_on_c, 0, 69, 115
1, 133414, Note_off_c, 0, 69, 115
1, 133423, Note_on_c, 0, 67, 116
1, 133471, Note_off_c, 0, 67, 116
1, 133487, Note_on_c, 0, 66, 106
1, 133560, Note_off_c, 0, 66, 106
1, 133578, Note_on_c, 0, 69, 114
1, 133664, Note_off_c, 0, 69, 114
1, 133682, Note_on_c, 0, 67, 117
1, 133764, Note_off_c, 0, 67, 117
1, 133804, Note_on_c, 0, 62, 117
1, 133875, Note_off_c, 0, 62, 117
1, 133903, Note_on_c, 0, 65, 112
1, 133933, Note_off_c, 0, 65, 112
1, 133936, Note_on_c, 0, 66, 101
1, 133975, Note_off_c, 0, 66, 101
1, 133984, Note_on_c, 0, 65, 117
1, 134038, Note_off_c, 0, 65, 117
1, 134062, Note_on_c, 0, 64, 122
1, 134153, Note_off_c, 0, 64, 122
1, 134164, Note_on_c, 0, 63, 117
1, 134246, Note_off_c, 0, 63, 117
1, 134258, Note_on_c, 0, 62, 111
1, 134327, Note_off_c, 0, 62, 111
1, 134346, Note_on_c, 0, 61, 110
1, 134408, Note_off_c, 0, 61, 110
1, 134423, Note_on_c, 0, 60, 109
1, 134501, Note_off_c, 0, 60, 109
1, 134531, Note_on_c, 0, 58, 106
1, 134583, Note_off_c, 0, 58, 106
1, 134596, Note_on_c, 0, 53, 96
1, 134686, Note_off_c, 0, 53, 96
1, 134715, Note_on_c, 0, 55, 104
1, 134786, Note_off_c, 0, 55, 104
1, 134791, Note_on_c, 0, 57, 105
1, 134875, Note_off_c, 0, 57, 105
1, 134910, Note_on_c, 0, 53, 95
1, 134977, Note_off_c, 0, 53, 95
1, 135003, Note_on_c, 0, 58, 103
1, 135087, Note_off_c, 0, 58, 103
1, 135118, Note_on_c, 0, 59, 111
1, 135163, Note_off_c, 0, 59, 111
1, 135183, Note_on_c, 0, 60, 110
1, 135256, Note_off_c, 0, 60, 110
1, 135269, Note_on_c, 0, 65, 118
1, 135349, Note_off_c, 0, 65, 118
1, 135363, Note_on_c, 0, 64, 115
1, 135426, Note_off_c, 0, 64, 115
1, 135458, Note_on_c, 0, 67, 116
1, 135532, Note_off_c, 0, 67, 116
1, 135541, Note_on_c, 0, 65, 117
1, 135614, Note_off_c, 0, 65, 117
1, 135632, Note_on_c, 0, 60, 116
1, 135718, Note_off_c, 0, 60, 116
1, 135727, Note_on_c, 0, 57, 105
1, 135803, Note_off_c, 0, 57, 105
1, 135836, Note_on_c, 0, 53, 105
1, 135886, Note_off_c, 0, 53, 105
1, 135917, Note_on_c, 0, 58, 109
1, 136005, Note_off_c, 0, 58, 109
1, 136025, Note_on_c, 0, 57, 101
1, 136094, Note_off_c, 0, 57, 101
1, 136103, Note_on_c, 0, 58, 109
1, 136191, Note_off_c, 0, 58, 109
1, 136220, Note_on_c, 0, 65, 115
1, 136310, Note_off_c, 0, 65, 115
1, 136337, Note_on_c, 0, 64, 114
1, 136417, Note_off_c, 0, 64, 114
1, 136425, Note_on_c, 0, 65, 108
1, 136502, Note_off_c, 0, 65, 108
1, 136505, Note_on_c, 0, 70, 111
1, 136582, Note_off_c, 0, 70, 111
1, 136631, Note_on_c, 0, 67, 109
1, 136687, Note_off_c, 0, 67, 109
1, 136694, Note_on_c, 0, 68, 112
1, 136754, Note_off_c, 0, 68, 112
1, 136797, Note_on_c, 0, 60, 112
1, 136860, Note_off_c, 0, 60, 112
1, 136864, Note_on_c, 0, 61, 103
1, 136932, Note_off_c, 0, 61, 103
1, 136939, Note_on_c, 0, 62, 104
1, 137041, Note_off_c, 0, 62, 104
1, 137046, Note_on_c, 0, 67, 114
1, 137158, Note_off_c, 0, 67, 114
1, 137165, Note_on_c, 0, 62, 109
1, 137242, Note_off_c, 0, 62, 109
1, 137253, Note_on_c, 0, 64, 110
1, 137326, Note_off_c, 0, 64, 110
1, 137361, Note_on_c, 0, 67, 116
1, 137419, Note_off_c, 0, 67, 116
1, 137445, Note_on_c, 0, 65, 113
1, 137492, Note_off_c, 0, 65, 113
1, 137512, Note_on_c, 0, 60, 109
1, 137608, Note_off_c, 0, 60, 109
1, 137614, Note_on_c, 0, 62, 114
1, 137723, Note_off_c, 0, 62, 114
1, 137732, Note_on_c, 0, 63, 117
1, 137833, Note_off_c, 0, 63, 117
1, 138395, Note_on_c, 0, 60, 114
1, 138445, Note_off_c, 0, 60, 114
1, 138451, Note_on_c, 0, 61, 106
1, 138497, Note_off_c, 0, 61, 106
1, 138510, Note_on_c, 0, 62, 117
1, 138555, Note_off_c, 0, 62, 117
1, 138577, Note_on_c, 0, 63, 118
1, 138663, Note_off_c, 0, 63, 118
1, 138689, Note_on_c, 0, 60, 107
1, 138736, Note_off_c, 0, 60, 107
1, 138754, Note_on_c, 0, 64, 112
1, 138848, Note_off_c, 0, 64, 112
1, 138858, Note_on_c, 0, 65, 101
1, 139307, Note_off_c, 0, 65, 101
1, 139330, Note_on_c, 0, 62, 116
1, 139414, Note_off_c, 0, 62, 116
1, 139432, Note_on_c, 0, 60, 114
1, 139473, Note_off_c, 0, 60, 114
1, 139493, Note_on_c, 0, 56, 106
1, 139588, Note_off_c, 0, 56, 106
1, 139617, Note_on_c, 0, 55, 99
1, 139905, Note_off_c, 0, 55, 99
1, 140481, Note_on_c, 0, 53, 103
1, 140550, Note_off_c, 0, 53, 103
1, 140652, Note_on_c, 0, 55, 109
1, 140738, Note_off_c, 0, 55, 109
1, 140752, Note_on_c, 0, 56, 106
1, 140814, Note_off_c, 0, 56, 106
1, 140823, Note_on_c, 0, 57, 104
1, 140909, Note_off_c, 0, 57, 104
1, 140921, Note_on_c, 0, 60, 117
1, 141001, Note_off_c, 0, 60, 117
1, 141011, Note_on_c, 0, 62, 109
1, 141107, Note_off_c, 0, 62, 109
1, 141193, Note_on_c, 0, 65, 118
1, 141271, Note_off_c, 0, 65, 118
1, 141408, Note_on_c, 0, 68, 108
1, 141498, Note_off_c, 0, 68, 108
1, 141517, Note_on_c, 0, 69, 109
1, 141565, Note_off_c, 0, 69, 109
1, 141578, Note_on_c, 0, 65, 110
1, 141690, Note_off_c, 0, 65, 110
1, 141724, Note_on_c, 0, 67, 99
1, 141761, Note_off_c, 0, 67, 99
1, 141877, Note_on_c, 0, 65, 96
1, 142196, Note_off_c, 0, 65, 96
1, 142251, Note_on_c, 0, 62, 115
1, 142320, Note_off_c, 0, 62, 115
1, 142337, Note_on_c, 0, 60, 113
1, 142440, Note_off_c, 0, 60, 113
1, 142475, Note_on_c, 0, 58, 98
1, 142585, Note_off_c, 0, 58, 98
1, 142654, Note_on_c, 0, 57, 97
1, 142787, Note_off_c, 0, 57, 97
1, 142827, Note_on_c, 0, 55, 97
1, 143120, Note_off_c, 0, 55, 97
1, 143601, Note_on_c, 0, 72, 115
1, 143723, Note_off_c, 0, 72, 115
1, 143896, Note_on_c, 0, 70, 111
1, 143984, Note_off_c, 0, 70, 111
1, 143989, Note_on_c, 0, 68, 106
1, 144045, Note_off_c, 0, 68, 106
1, 144075, Note_on_c, 0, 65, 111
1, 144144, Note_off_c, 0, 65, 111
1, 144174, Note_on_c, 0, 61, 119
1, 144279, Note_off_c, 0, 61, 119
1, 144290, Note_on_c, 0, 60, 117
1, 144388, Note_off_c, 0, 60, 117
1, 144395, Note_on_c, 0, 59, 104
1, 144429, Note_off_c, 0, 59, 104
1, 144584, Note_on_c, 0, 63, 102
1, 144905, Note_off_c, 0, 63, 102
1, 144916, Note_on_c, 0, 62, 118
1, 145066, Note_off_c, 0, 62, 118
1, 146161, Note_on_c, 0, 60, 121
1, 146374, Note_off_c, 0, 60, 121
1, 146378, Note_on_c, 0, 62, 120
1, 146844, Note_off_c, 0, 62, 120
1, 146860, Note_on_c, 0, 60, 117
1, 146944, Note_off_c, 0, 60, 117
1, 146953, Note_on_c, 0, 61, 123
1, 147057, Note_off_c, 0, 61, 123
1, 147067, Note_on_c, 0, 62, 126
1, 147228, Note_off_c, 0, 62, 126
1, 147243, Note_on_c, 0, 60, 120
1, 147293, Note_off_c, 0, 60, 120
1, 147317, Note_on_c, 0, 61, 124
1, 147414, Note_off_c, 0, 61, 124
1, 147429, Note_on_c, 0, 62, 124
1, 147577, Note_off_c, 0, 62, 124
1, 147634, Note_on_c, 0, 60, 118
1, 147701, Note_off_c, 0, 60, 118
1, 147714, Note_on_c, 0, 61, 120
1, 147811, Note_off_c, 0, 61, 120
1, 147824, Note_on_c, 0, 62, 123
1, 147989, Note_off_c, 0, 62, 123
1, 148007, Note_on_c, 0, 60, 117
1, 148084, Note_off_c, 0, 60, 117
1, 148100, Note_on_c, 0, 61, 121
1, 148209, Note_off_c, 0, 61, 121
1, 148229, Note_on_c, 0, 62, 120
1, 148392, Note_off_c, 0, 62, 120
1, 148405, Note_on_c, 0, 59, 114
1, 148459, Note_off_c, 0, 59, 114
1, 148470, Note_on_c, 0, 61, 120
1, 148618, Note_off_c, 0, 61, 120
1, 148640, Note_on_c, 0, 62, 120
1, 148767, Note_off_c, 0, 62, 120
1, 148782, Note_on_c, 0, 59, 115
1, 148829, Note_off_c, 0, 59, 115
1, 148864, Note_on_c, 0, 61, 116
1, 148973, Note_off_c, 0, 61, 116
1, 148996, Note_on_c, 0, 62, 120
1, 149118, Note_off_c, 0, 62, 120
1, 149153, Note_on_c, 0, 59, 117
1, 149223, Note_off_c, 0, 59, 117
1, 149240, Note_on_c, 0, 62, 117
1, 149357, Note_off_c, 0, 62, 117
1, 149361, Note_on_c, 0, 65, 119
1, 149429, Note_off_c, 0, 65, 119
1, 149433, Note_on_c, 0, 68, 111
1, 149505, Note_off_c, 0, 68, 111
1, 149515, Note_on_c, 0, 71, 116
1, 149612, Note_off_c, 0, 71, 116
1, 149616, Note_on_c, 0, 74, 115
1, 149718, Note_off_c, 0, 74, 115
1, 150567, Note_on_c, 0, 73, 114
1, 150677, Note_off_c, 0, 73, 114
1, 150687, Note_on_c, 0, 74, 112
1, 150775, Note_off_c, 0, 74, 112
1, 150793, Note_on_c, 0, 70, 118
1, 150883, Note_off_c, 0, 70, 118
1, 150897, Note_on_c, 0, 71, 119
1, 150975, Note_off_c, 0, 71, 119
1, 150986, Note_on_c, 0, 67, 115
1, 151078, Note_off_c, 0, 67, 115
1, 151082, Note_on_c, 0, 68, 110
1, 151144, Note_off_c, 0, 68, 110
1, 151152, Note_on_c, 0, 64, 120
1, 151267, Note_off_c, 0, 64, 120
1, 151277, Note_on_c, 0, 65, 119
1, 151339, Note_off_c, 0, 65, 119
1, 151343, Note_on_c, 0, 61, 125
1, 151435, Note_off_c, 0, 61, 125
1, 151438, Note_on_c, 0, 62, 119
1, 151539, Note_off_c, 0, 62, 119
1, 151547, Note_on_c, 0, 58, 114
1, 151645, Note_off_c, 0, 58, 114
1, 151649, Note_on_c, 0, 59, 112
1, 151722, Note_off_c, 0, 59, 112
1, 151751, Note_on_c, 0, 55, 111
1, 151820, Note_off_c, 0, 55, 111
1, 151838, Note_on_c, 0, 56, 112
1, 151922, Note_off_c, 0, 56, 112
1, 152728, Note_on_c, 0, 53, 103
1, 152783, Note_off_c, 0, 53, 103
1, 152786, Note_on_c, 0, 55, 106
1, 152864, Note_off_c, 0, 55, 106
1, 152882, Note_on_c, 0, 57, 111
1, 152942, Note_off_c, 0, 57, 111
1, 152966, Note_on_c, 0, 60, 120
1, 153029, Note_off_c, 0, 60, 120
1, 153057, Note_on_c, 0, 62, 116
1, 153139, Note_off_c, 0, 62, 116
1, 153151, Note_on_c, 0, 65, 117
1, 153224, Note_off_c, 0, 65, 117
1, 153234, Note_on_c, 0, 64, 116
1, 153333, Note_off_c, 0, 64, 116
1, 153339, Note_on_c, 0, 67, 112
1, 153419, Note_off_c, 0, 67, 112
1, 153424, Note_on_c, 0, 65, 115
1, 153508, Note_off_c, 0, 65, 115
1, 153520, Note_on_c, 0, 60, 115
1, 153591, Note_off_c, 0, 60, 115
1, 153601, Note_on_c, 0, 57, 105
1, 153663, Note_off_c, 0, 57, 105
1, 153703, Note_on_c, 0, 55, 107
1, 153780, Note_off_c, 0, 55, 107
1, 153813, Note_on_c, 0, 53, 102
1, 153890, Note_off_c, 0, 53, 102
1, 153910, Note_on_c, 0, 55, 104
1, 153970, Note_off_c, 0, 55, 104
1, 154018, Note_on_c, 0, 58, 109
1, 154093, Note_off_c, 0, 58, 109
1, 154110, Note_on_c, 0, 60, 119
1, 154192, Note_off_c, 0, 60, 119
1, 154210, Note_on_c, 0, 61, 114
1, 154277, Note_off_c, 0, 61, 114
1, 154297, Note_on_c, 0, 62, 119
1, 154388, Note_off_c, 0, 62, 119
1, 154400, Note_on_c, 0, 63, 115
1, 154471, Note_off_c, 0, 63, 115
1, 154496, Note_on_c, 0, 64, 119
1, 154580, Note_off_c, 0, 64, 119
1, 154593, Note_on_c, 0, 65, 115
1, 154666, Note_off_c, 0, 65, 115
1, 154671, Note_on_c, 0, 61, 118
1, 154734, Note_off_c, 0, 61, 118
1, 154749, Note_on_c, 0, 62, 112
1, 154866, Note_off_c, 0, 62, 112
1, 154886, Note_on_c, 0, 65, 111
1, 154936, Note_off_c, 0, 65, 111
1, 154939, Note_on_c, 0, 68, 106
1, 155035, Note_off_c, 0, 68, 106
1, 155040, Note_on_c, 0, 63, 112
1, 155126, Note_off_c, 0, 63, 112
1, 155131, Note_on_c, 0, 64, 113
1, 155225, Note_off_c, 0, 64, 113
1, 155231, Note_on_c, 0, 67, 112
1, 155311, Note_off_c, 0, 67, 112
1, 155313, Note_on_c, 0, 65, 114
1, 155404, Note_off_c, 0, 65, 114
1, 155411, Note_on_c, 0, 60, 110
1, 155489, Note_off_c, 0, 60, 110
1, 155505, Note_on_c, 0, 63, 117
1, 155574, Note_off_c, 0, 63, 117
1, 155589, Note_on_c, 0, 62, 120
1, 155671, Note_off_c, 0, 62, 120
1, 155689, Note_on_c, 0, 61, 118
1, 155777, Note_off_c, 0, 61, 118
1, 155790, Note_on_c, 0, 60, 115
1, 155870, Note_off_c, 0, 60, 115
1, 155878, Note_on_c, 0, 59, 112
1, 155965, Note_off_c, 0, 59, 112
1, 156837, Note_on_c, 0, 67, 116
1, 157016, Note_off_c, 0, 67, 116
1, 157028, Note_on_c, 0, 69, 97
1, 157108, Note_off_c, 0, 69, 97
1, 157130, Note_on_c, 0, 72, 116
1, 157551, Note_off_c, 0, 72, 116
1, 158374, Note_on_c, 0, 67, 115
1, 158507, Note_off_c, 0, 67, 115
1, 158514, Note_on_c, 0, 68, 111
1, 158617, Note_off_c, 0, 68, 111
1, 158644, Note_on_c, 0, 60, 108
1, 159181, Note_off_c, 0, 60, 108
1, 159916, Note_on_c, 0, 67, 105
1, 160043, Note_off_c, 0, 67, 105
1, 160048, Note_on_c, 0, 69, 108
1, 160204, Note_off_c, 0, 69, 108
1, 160226, Note_on_c, 0, 72, 109
1, 160568, Note_off_c, 0, 72, 109
1, 160626, Note_on_c, 0, 66, 114
1, 160738, Note_off_c, 0, 66, 114
1, 160752, Note_on_c, 0, 68, 110
1, 160915, Note_off_c, 0, 68, 110
1, 160940, Note_on_c, 0, 74, 109
1, 161336, Note_off_c, 0, 74, 109
1, 161939, Note_on_c, 0, 74, 113
1, 162042, Note_off_c, 0, 74, 113
1, 162059, Note_on_c, 0, 73, 107
1, 162121, Note_off_c, 0, 73, 107
1, 162130, Note_on_c, 0, 72, 112
1, 162205, Note_off_c, 0, 72, 112
1, 162231, Note_on_c, 0, 69, 110
1, 162308, Note_off_c, 0, 69, 110
1, 162337, Note_on_c, 0, 68, 111
1, 162427, Note_off_c, 0, 68, 111
1, 162431, Note_on_c, 0, 67, 111
1, 162503, Note_off_c, 0, 67, 111
1, 162517, Note_on_c, 0, 62, 109
1, 162616, Note_off_c, 0, 62, 109
1, 162627, Note_on_c, 0, 61, 103
1, 162694, Note_off_c, 0, 61, 103
1, 162699, Note_on_c, 0, 60, 102
1, 162785, Note_off_c, 0, 60, 102
1, 162816, Note_on_c, 0, 57, 114
1, 162879, Note_off_c, 0, 57, 114
1, 162899, Note_on_c, 0, 56, 111
1, 162987, Note_off_c, 0, 56, 111
1, 163005, Note_on_c, 0, 55, 107
1, 163048, Note_off_c, 0, 55, 107
1, 163066, Note_on_c, 0, 50, 109
1, 163161, Note_off_c, 0, 50, 109
1, 163176, Note_on_c, 0, 49, 109
1, 163262, Note_off_c, 0, 49, 109
1, 163272, Note_on_c, 0, 48, 96
1, 163373, Note_off_c, 0, 48, 96
1, 163451, Note_on_c, 0, 47, 108
1, 163546, Note_off_c, 0, 47, 108
1, 163549, Note_on_c, 0, 49, 101
1, 163629, Note_off_c, 0, 49, 101
1, 163642, Note_on_c, 0, 50, 104
1, 163720, Note_off_c, 0, 50, 104
1, 163753, Note_on_c, 0, 55, 103
1, 163814, Note_off_c, 0, 55, 103
1, 163819, Note_on_c, 0, 56, 102
1, 163922, Note_off_c, 0, 56, 102
1, 163928, Note_on_c, 0, 57, 106
1, 163988, Note_off_c, 0, 57, 106
1, 163992, Note_on_c, 0, 60, 103
1, 164076, Note_off_c, 0, 60, 103
1, 164098, Note_on_c, 0, 61, 97
1, 164143, Note_off_c, 0, 61, 97
1, 164159, Note_on_c, 0, 62, 107
1, 164239, Note_off_c, 0, 62, 107
1, 164286, Note_on_c, 0, 67, 115
1, 164348, Note_off_c, 0, 67, 115
1, 164353, Note_on_c, 0, 68, 117
1, 164452, Note_off_c, 0, 68, 117
1, 164467, Note_on_c, 0, 69, 104
1, 164517, Note_off_c, 0, 69, 104
1, 164531, Note_on_c, 0, 72, 114
1, 164615, Note_off_c, 0, 72, 114
1, 164647, Note_on_c, 0, 73, 118
1, 164718, Note_off_c, 0, 73, 118
1, 164727, Note_on_c, 0, 74, 118
1, 164804, Note_off_c, 0, 74, 118
1, 164826, Note_on_c, 0, 74, 9
1, 164963, Note_off_c, 0, 74, 9
1, 165593, Note_on_c, 0, 74, 106
1, 165813, Note_off_c, 0, 74, 106
1, 165850, Note_on_c, 0, 72, 109
1, 165936, Note_off_c, 0, 72, 109
1, 165973, Note_on_c, 0, 69, 100
1, 166044, Note_off_c, 0, 69, 100
1, 166057, Note_on_c, 0, 67, 104
1, 166145, Note_off_c, 0, 67, 104
1, 166175, Note_on_c, 0, 66, 115
1, 166229, Note_off_c, 0, 66, 115
1, 166255, Note_on_c, 0, 65, 113
1, 166315, Note_off_c, 0, 65, 113
1, 166345, Note_on_c, 0, 65, 103
1, 166572, Note_off_c, 0, 65, 103
1, 167178, Note_on_c, 0, 67, 121
1, 167272, Note_off_c, 0, 67, 121
1, 167289, Note_on_c, 0, 68, 114
1, 167366, Note_off_c, 0, 68, 114
1, 167368, Note_on_c, 0, 65, 119
1, 167446, Note_off_c, 0, 65, 119
1, 167471, Note_on_c, 0, 61, 108
1, 167543, Note_off_c, 0, 61, 108
1, 167553, Note_on_c, 0, 58, 106
1, 167659, Note_off_c, 0, 58, 106
1, 167659, Note_on_c, 0, 55, 103
1, 167751, Note_off_c, 0, 55, 103
1, 167769, Note_on_c, 0, 67, 117
1, 167849, Note_off_c, 0, 67, 117
1, 167864, Note_on_c, 0, 68, 111
1, 167943, Note_off_c, 0, 68, 111
1, 167948, Note_on_c, 0, 65, 106
1, 168046, Note_off_c, 0, 65, 106
1, 168062, Note_on_c, 0, 61, 107
1, 168109, Note_off_c, 0, 61, 107
1, 168131, Note_on_c, 0, 58, 109
1, 168217, Note_off_c, 0, 58, 109
1, 168226, Note_on_c, 0, 53, 101
1, 168301, Note_off_c, 0, 53, 101
1, 168333, Note_on_c, 0, 57, 103
1, 168406, Note_off_c, 0, 57, 103
1, 168417, Note_on_c, 0, 60, 107
1, 168467, Note_off_c, 0, 60, 107
1, 168483, Note_on_c, 0, 58, 106
1, 168565, Note_off_c, 0, 58, 106
1, 168623, Note_on_c, 0, 53, 99
1, 168690, Note_off_c, 0, 53, 99
1, 168706, Note_on_c, 0, 56, 102
1, 168777, Note_off_c, 0, 56, 102
1, 168808, Note_on_c, 0, 54, 96
1, 168856, Note_off_c, 0, 54, 96
1, 168871, Note_on_c, 0, 55, 98
1, 168997, Note_off_c, 0, 55, 98
1, 169008, Note_on_c, 0, 58, 104
1, 169064, Note_off_c, 0, 58, 104
1, 169080, Note_on_c, 0, 61, 96
1, 169125, Note_off_c, 0, 61, 96
1, 169165, Note_on_c, 0, 65, 113
1, 169255, Note_off_c, 0, 65, 113
1, 169269, Note_on_c, 0, 64, 113
1, 169363, Note_off_c, 0, 64, 113
1, 169385, Note_on_c, 0, 60, 111
1, 169447, Note_off_c, 0, 60, 111
1, 169458, Note_on_c, 0, 57, 107
1, 169523, Note_off_c, 0, 57, 107
1, 169537, Note_on_c, 0, 55, 100
1, 169604, Note_off_c, 0, 55, 100
1, 169626, Note_on_c, 0, 54, 98
1, 169673, Note_off_c, 0, 54, 98
1, 169725, Note_on_c, 0, 63, 117
1, 169811, Note_off_c, 0, 63, 117
1, 169817, Note_on_c, 0, 62, 109
1, 169912, Note_off_c, 0, 62, 109
1, 169930, Note_on_c, 0, 60, 110
1, 170001, Note_off_c, 0, 60, 110
1, 170006, Note_on_c, 0, 58, 109
1, 170081, Note_off_c, 0, 58, 109
1, 170103, Note_on_c, 0, 55, 101
1, 170174, Note_off_c, 0, 55, 101
1, 170179, Note_on_c, 0, 54, 101
1, 170239, Note_off_c, 0, 54, 101
1, 170284, Note_on_c, 0, 53, 109
1, 170349, Note_off_c, 0, 53, 109
1, 170361, Note_on_c, 0, 52, 99
1, 170426, Note_off_c, 0, 52, 99
1, 170471, Note_on_c, 0, 47, 104
1, 170535, Note_off_c, 0, 47, 104
1, 170551, Note_on_c, 0, 52, 100
1, 170633, Note_off_c, 0, 52, 100
1, 170669, Note_on_c, 0, 54, 109
1, 170719, Note_off_c, 0, 54, 109
1, 170734, Note_on_c, 0, 55, 101
1, 170811, Note_off_c, 0, 55, 101
1, 170831, Note_on_c, 0, 52, 106
1, 171014, Note_off_c, 0, 52, 106
1, 171043, Note_on_c, 0, 58, 107
1, 171121, Note_off_c, 0, 58, 107
1, 171145, Note_on_c, 0, 56, 103
1, 171225, Note_off_c, 0, 56, 103
1, 171243, Note_on_c, 0, 57, 106
1, 171291, Note_off_c, 0, 57, 106
1, 171307, Note_on_c, 0, 62, 113
1, 171406, Note_off_c, 0, 62, 113
1, 171432, Note_on_c, 0, 59, 107
1, 171497, Note_off_c, 0, 59, 107
1, 171512, Note_on_c, 0, 60, 102
1, 171568, Note_off_c, 0, 60, 102
1, 171603, Note_on_c, 0, 67, 115
1, 171674, Note_off_c, 0, 67, 115
1, 171692, Note_on_c, 0, 64, 108
1, 171789, Note_off_c, 0, 64, 108
1, 171804, Note_on_c, 0, 65, 102
1, 171847, Note_off_c, 0, 65, 102
1, 171869, Note_on_c, 0, 70, 106
1, 171959, Note_off_c, 0, 70, 106
1, 172000, Note_on_c, 0, 68, 110
1, 172062, Note_off_c, 0, 68, 110
1, 172075, Note_on_c, 0, 69, 100
1, 172148, Note_off_c, 0, 69, 100
1, 172159, Note_on_c, 0, 74, 110
1, 172230, Note_off_c, 0, 74, 110
1, 172820, Note_on_c, 0, 74, 110
1, 172897, Note_off_c, 0, 74, 110
1, 172930, Note_on_c, 0, 73, 117
1, 172978, Note_off_c, 0, 73, 117
1, 172983, Note_on_c, 0, 72, 111
1, 173035, Note_off_c, 0, 72, 111
1, 173046, Note_on_c, 0, 71, 111
1, 173107, Note_off_c, 0, 71, 111
1, 173129, Note_on_c, 0, 68, 115
1, 173226, Note_off_c, 0, 68, 115
1, 173234, Note_on_c, 0, 67, 104
1, 173305, Note_off_c, 0, 67, 104
1, 173315, Note_on_c, 0, 66, 110
1, 173374, Note_off_c, 0, 66, 110
1, 173384, Note_on_c, 0, 65, 111
1, 173462, Note_off_c, 0, 65, 111
1, 173497, Note_on_c, 0, 62, 112
1, 173555, Note_off_c, 0, 62, 112
1, 173581, Note_on_c, 0, 58, 100
1, 173672, Note_off_c, 0, 58, 100
1, 173750, Note_on_c, 0, 64, 119
1, 173823, Note_off_c, 0, 64, 119
1, 173829, Note_on_c, 0, 65, 121
1, 173874, Note_off_c, 0, 65, 121
1, 173885, Note_on_c, 0, 65, 111
1, 174280, Note_off_c, 0, 65, 111
1, 174885, Note_on_c, 0, 64, 118
1, 175099, Note_off_c, 0, 64, 118
1, 175114, Note_on_c, 0, 65, 118
1, 175668, Note_off_c, 0, 65, 118
1, 175696, Note_on_c, 0, 64, 125
1, 175799, Note_off_c, 0, 64, 125
1, 175823, Note_on_c, 0, 65, 120
1, 176417, Note_off_c, 0, 65, 120
1, 176435, Note_on_c, 0, 64, 117
1, 176566, Note_off_c, 0, 64, 117
1, 176575, Note_on_c, 0, 65, 120
1, 177184, Note_off_c, 0, 65, 120
1, 177217, Note_on_c, 0, 62, 114
1, 177361, Note_off_c, 0, 62, 114
1, 177408, Note_on_c, 0, 65, 114
1, 177498, Note_off_c, 0, 65, 114
1, 177608, Note_on_c, 0, 67, 107
1, 177709, Note_off_c, 0, 67, 107
1, 177720, Note_on_c, 0, 69, 110
1, 177812, Note_off_c, 0, 69, 110
1, 177889, Note_on_c, 0, 69, 92
1, 178191, Note_off_c, 0, 69, 92
1, 178478, Note_on_c, 0, 65, 114
1, 178677, Note_off_c, 0, 65, 114
1, 178710, Note_on_c, 0, 62, 114
1, 178787, Note_off_c, 0, 62, 114
1, 178828, Note_on_c, 0, 64, 110
1, 178944, Note_off_c, 0, 64, 110
1, 178957, Note_on_c, 0, 67, 114
1, 179060, Note_off_c, 0, 67, 114
1, 179065, Note_on_c, 0, 68, 110
1, 179213, Note_off_c, 0, 68, 110
1, 179229, Note_on_c, 0, 68, 108
1, 179287, Note_off_c, 0, 68, 108
1, 179386, Note_on_c, 0, 68, 94
1, 179613, Note_off_c, 0, 68, 94
1, 180604, Note_on_c, 0, 67, 112
1, 180697, Note_off_c, 0, 67, 112
1, 180702, Note_on_c, 0, 68, 111
1, 180782, Note_off_c, 0, 68, 111
1, 180786, Note_on_c, 0, 67, 106
1, 180861, Note_off_c, 0, 67, 106
1, 180864, Note_on_c, 0, 66, 126
1, 180946, Note_off_c, 0, 66, 126
1, 180951, Note_on_c, 0, 65, 123
1, 181007, Note_off_c, 0, 65, 123
1, 181032, Note_on_c, 0, 61, 114
1, 181085, Note_off_c, 0, 61, 114
1, 181095, Note_on_c, 0, 60, 113
1, 181195, Note_off_c, 0, 60, 113
1, 181210, Note_on_c, 0, 58, 111
1, 181269, Note_off_c, 0, 58, 111
1, 181317, Note_on_c, 0, 57, 114
1, 181389, Note_off_c, 0, 57, 114
1, 181400, Note_on_c, 0, 58, 110
1, 181469, Note_off_c, 0, 58, 110
1, 181491, Note_on_c, 0, 57, 108
1, 181544, Note_off_c, 0, 57, 108
1, 181590, Note_on_c, 0, 55, 105
1, 181652, Note_off_c, 0, 55, 105
1, 181679, Note_on_c, 0, 54, 103
1, 181741, Note_off_c, 0, 54, 103
1, 181777, Note_on_c, 0, 63, 119
1, 181866, Note_off_c, 0, 63, 119
1, 181879, Note_on_c, 0, 62, 108
1, 181976, Note_off_c, 0, 62, 108
1, 181985, Note_on_c, 0, 60, 107
1, 182045, Note_off_c, 0, 60, 107
1, 182066, Note_on_c, 0, 58, 106
1, 182147, Note_off_c, 0, 58, 106
1, 182165, Note_on_c, 0, 55, 104
1, 182230, Note_off_c, 0, 55, 104
1, 182248, Note_on_c, 0, 54, 104
1, 182306, Note_off_c, 0, 54, 104
1, 182330, Note_on_c, 0, 53, 107
1, 182403, Note_off_c, 0, 53, 107
1, 182424, Note_on_c, 0, 52, 104
1, 182529, Note_off_c, 0, 52, 104
1, 182541, Note_on_c, 0, 48, 104
1, 182665, Note_off_c, 0, 48, 104
1, 182878, Note_on_c, 0, 66, 117
1, 183001, Note_off_c, 0, 66, 117
1, 183003, Note_on_c, 0, 67, 115
1, 183162, Note_off_c, 0, 67, 115
1, 183176, Note_on_c, 0, 65, 116
1, 183236, Note_off_c, 0, 65, 116
1, 183261, Note_on_c, 0, 62, 111
1, 183334, Note_off_c, 0, 62, 111
1, 183375, Note_on_c, 0, 57, 103
1, 183467, Note_off_c, 0, 57, 103
1, 183479, Note_on_c, 0, 53, 100
1, 183539, Note_off_c, 0, 53, 100
1, 183545, Note_on_c, 0, 67, 102
1, 183878, Note_off_c, 0, 67, 102
1, 183923, Note_on_c, 0, 65, 118
1, 184015, Note_off_c, 0, 65, 118
1, 184041, Note_on_c, 0, 60, 109
1, 184123, Note_off_c, 0, 60, 109
1, 184403, Note_on_c, 0, 67, 103
1, 184663, Note_off_c, 0, 67, 103
1, 184694, Note_on_c, 0, 65, 111
1, 184771, Note_off_c, 0, 65, 111
1, 184782, Note_on_c, 0, 62, 106
1, 184859, Note_off_c, 0, 62, 106
1, 184869, Note_on_c, 0, 58, 110
1, 184919, Note_off_c, 0, 58, 110
1, 184960, Note_on_c, 0, 55, 96
1, 185027, Note_off_c, 0, 55, 96
1, 185077, Note_on_c, 0, 65, 109
1, 185150, Note_off_c, 0, 65, 109
1, 185168, Note_on_c, 0, 67, 113
1, 185392, Note_off_c, 0, 67, 113
1, 185405, Note_on_c, 0, 65, 114
1, 185496, Note_off_c, 0, 65, 114
1, 185507, Note_on_c, 0, 61, 107
1, 185575, Note_off_c, 0, 61, 107
1, 185589, Note_on_c, 0, 58, 103
1, 185675, Note_off_c, 0, 58, 103
1, 185696, Note_on_c, 0, 55, 106
1, 185767, Note_off_c, 0, 55, 106
1, 185920, Note_on_c, 0, 67, 102
1, 186174, Note_off_c, 0, 67, 102
1, 186204, Note_on_c, 0, 65, 111
1, 186265, Note_off_c, 0, 65, 111
1, 186285, Note_on_c, 0, 61, 105
1, 186333, Note_off_c, 0, 61, 105
1, 186365, Note_on_c, 0, 58, 104
1, 186442, Note_off_c, 0, 58, 104
1, 186460, Note_on_c, 0, 55, 96
1, 186542, Note_off_c, 0, 55, 96
1, 186552, Note_on_c, 0, 68, 115
1, 186630, Note_off_c, 0, 68, 115
1, 186671, Note_on_c, 0, 63, 115
1, 186725, Note_off_c, 0, 63, 115
1, 186749, Note_on_c, 0, 64, 102
1, 186802, Note_off_c, 0, 64, 102
1, 186849, Note_on_c, 0, 67, 113
1, 186897, Note_off_c, 0, 67, 113
1, 186911, Note_on_c, 0, 65, 116
1, 186971, Note_off_c, 0, 65, 116
1, 187005, Note_on_c, 0, 61, 105
1, 187078, Note_off_c, 0, 61, 105
1, 187115, Note_on_c, 0, 58, 102
1, 187188, Note_off_c, 0, 58, 102
1, 187208, Note_on_c, 0, 53, 100
1, 187288, Note_off_c, 0, 53, 100
1, 187306, Note_on_c, 0, 57, 108
1, 187368, Note_off_c, 0, 57, 108
1, 187404, Note_on_c, 0, 53, 101
1, 187458, Note_off_c, 0, 53, 101
1, 187478, Note_on_c, 0, 58, 105
1, 187595, Note_off_c, 0, 58, 105
1, 187604, Note_on_c, 0, 59, 107
1, 187646, Note_off_c, 0, 59, 107
1, 187670, Note_on_c, 0, 60, 110
1, 187747, Note_off_c, 0, 60, 110
1, 187765, Note_on_c, 0, 61, 103
1, 187827, Note_off_c, 0, 61, 103
1, 187843, Note_on_c, 0, 62, 108
1, 187932, Note_off_c, 0, 62, 108
1, 187942, Note_on_c, 0, 64, 114
1, 188030, Note_off_c, 0, 64, 114
1, 188044, Note_on_c, 0, 65, 115
1, 188106, Note_off_c, 0, 65, 115
1, 188118, Note_on_c, 0, 64, 113
1, 188203, Note_off_c, 0, 64, 113
1, 188217, Note_on_c, 0, 62, 111
1, 188291, Note_off_c, 0, 62, 111
1, 188306, Note_on_c, 0, 61, 104
1, 188354, Note_off_c, 0, 61, 104
1, 188369, Note_on_c, 0, 60, 106
1, 188463, Note_off_c, 0, 60, 106
1, 188514, Note_on_c, 0, 58, 109
1, 188574, Note_off_c, 0, 58, 109
1, 188612, Note_on_c, 0, 53, 103
1, 188702, Note_off_c, 0, 53, 103
1, 188708, Note_on_c, 0, 55, 104
1, 188766, Note_off_c, 0, 55, 104
1, 188774, Note_on_c, 0, 57, 113
1, 188842, Note_off_c, 0, 57, 113
1, 188868, Note_on_c, 0, 51, 113
1, 188961, Note_off_c, 0, 51, 113
1, 189516, Note_on_c, 0, 69, 111
1, 189620, Note_off_c, 0, 69, 111
1, 189647, Note_on_c, 0, 63, 117
1, 189724, Note_off_c, 0, 63, 117
1, 189812, Note_on_c, 0, 69, 103
1, 189870, Note_off_c, 0, 69, 103
1, 189904, Note_on_c, 0, 63, 111
1, 189993, Note_off_c, 0, 63, 111
1, 190094, Note_on_c, 0, 69, 110
1, 190217, Note_off_c, 0, 69, 110
1, 190232, Note_on_c, 0, 62, 112
1, 190340, Note_off_c, 0, 62, 112
1, 191236, Note_on_c, 0, 69, 112
1, 191333, Note_off_c, 0, 69, 112
1, 191361, Note_on_c, 0, 62, 115
1, 191455, Note_off_c, 0, 62, 115
1, 191806, Note_on_c, 0, 68, 108
1, 191896, Note_off_c, 0, 68, 108
1, 191925, Note_on_c, 0, 68, 110
1, 192007, Note_off_c, 0, 68, 110
1, 192547, Note_on_c, 0, 68, 112
1, 192635, Note_off_c, 0, 68, 112
1, 192647, Note_on_c, 0, 67, 108
1, 192717, Note_off_c, 0, 67, 108
1, 192738, Note_on_c, 0, 61, 95
1, 192792, Note_off_c, 0, 61, 95
1, 192833, Note_on_c, 0, 68, 110
1, 192919, Note_off_c, 0, 68, 110
1, 192927, Note_on_c, 0, 67, 110
1, 192995, Note_off_c, 0, 67, 110
1, 193122, Note_on_c, 0, 67, 109
1, 193200, Note_off_c, 0, 67, 109
1, 193204, Note_on_c, 0, 66, 116
1, 193271, Note_off_c, 0, 66, 116
1, 193289, Note_on_c, 0, 60, 109
1, 193353, Note_off_c, 0, 60, 109
1, 194530, Note_on_c, 0, 60, 109
1, 194610, Note_off_c, 0, 60, 109
1, 194616, Note_on_c, 0, 62, 102
1, 194704, Note_off_c, 0, 62, 102
1, 194742, Note_on_c, 0, 65, 114
1, 194806, Note_off_c, 0, 65, 114
1, 194822, Note_on_c, 0, 68, 112
1, 194910, Note_off_c, 0, 68, 112
1, 194936, Note_on_c, 0, 65, 113
1, 194993, Note_off_c, 0, 65, 113
1, 195011, Note_on_c, 0, 67, 106
1, 195088, Note_off_c, 0, 67, 106
1, 195120, Note_on_c, 0, 65, 112
1, 195189, Note_off_c, 0, 65, 112
1, 195193, Note_on_c, 0, 68, 114
1, 195267, Note_off_c, 0, 68, 114
1, 195301, Note_on_c, 0, 65, 109
1, 195362, Note_off_c, 0, 65, 109
1, 195378, Note_on_c, 0, 67, 115
1, 195463, Note_off_c, 0, 67, 115
1, 195475, Note_on_c, 0, 65, 114
1, 195533, Note_off_c, 0, 65, 114
1, 195553, Note_on_c, 0, 68, 118
1, 195649, Note_off_c, 0, 68, 118
1, 195666, Note_on_c, 0, 65, 116
1, 195735, Note_off_c, 0, 65, 116
1, 195747, Note_on_c, 0, 67, 115
1, 195858, Note_off_c, 0, 67, 115
1, 195868, Note_on_c, 0, 65, 114
1, 195936, Note_off_c, 0, 65, 114
1, 195944, Note_on_c, 0, 68, 116
1, 196052, Note_off_c, 0, 68, 116
1, 196061, Note_on_c, 0, 65, 113
1, 196119, Note_off_c, 0, 65, 113
1, 196131, Note_on_c, 0, 67, 114
1, 196216, Note_off_c, 0, 67, 114
1, 196242, Note_on_c, 0, 65, 111
1, 196308, Note_off_c, 0, 65, 111
1, 196330, Note_on_c, 0, 68, 110
1, 196419, Note_off_c, 0, 68, 110
1, 196435, Note_on_c, 0, 65, 109
1, 196491, Note_off_c, 0, 65, 109
1, 196521, Note_on_c, 0, 67, 117
1, 196599, Note_off_c, 0, 67, 117
1, 196642, Note_on_c, 0, 67, 113
1, 196688, Note_off_c, 0, 67, 113
1, 196712, Note_on_c, 0, 65, 120
1, 196786, Note_off_c, 0, 65, 120
1, 196816, Note_on_c, 0, 62, 118
1, 196893, Note_off_c, 0, 62, 118
1, 196907, Note_on_c, 0, 61, 111
1, 196963, Note_off_c, 0, 61, 111
1, 196991, Note_on_c, 0, 60, 115
1, 197059, Note_off_c, 0, 60, 115
1, 197073, Note_on_c, 0, 59, 112
1, 197135, Note_off_c, 0, 59, 112
1, 197175, Note_on_c, 0, 62, 116
1, 197247, Note_off_c, 0, 62, 116
1, 197283, Note_on_c, 0, 65, 100
1, 197354, Note_off_c, 0, 65, 100
1, 197366, Note_on_c, 0, 67, 112
1, 197430, Note_off_c, 0, 67, 112
1, 197447, Note_on_c, 0, 69, 118
1, 197523, Note_off_c, 0, 69, 118
1, 197541, Note_on_c, 0, 63, 111
1, 197617, Note_off_c, 0, 63, 111
1, 197621, Note_on_c, 0, 64, 107
1, 197707, Note_off_c, 0, 64, 107
1, 197713, Note_on_c, 0, 67, 113
1, 197790, Note_off_c, 0, 67, 113
1, 197804, Note_on_c, 0, 65, 121
1, 197878, Note_off_c, 0, 65, 121
1, 197892, Note_on_c, 0, 62, 114
1, 197972, Note_off_c, 0, 62, 114
1, 197985, Note_on_c, 0, 58, 110
1, 198057, Note_off_c, 0, 58, 110
1, 198080, Note_on_c, 0, 55, 103
1, 198152, Note_off_c, 0, 55, 103
1, 198166, Note_on_c, 0, 63, 118
1, 198259, Note_off_c, 0, 63, 118
1, 198275, Note_on_c, 0, 65, 122
1, 198377, Note_off_c, 0, 65, 122
1, 199109, Note_on_c, 0, 71, 110
1, 199236, Note_off_c, 0, 71, 110
1, 199300, Note_on_c, 0, 72, 119
1, 199401, Note_off_c, 0, 72, 119
1, 199512, Note_on_c, 0, 68, 102
1, 199606, Note_off_c, 0, 68, 102
1, 199700, Note_on_c, 0, 69, 110
1, 199810, Note_off_c, 0, 69, 110
1, 199882, Note_on_c, 0, 64, 115
1, 199974, Note_off_c, 0, 64, 115
1, 200099, Note_on_c, 0, 65, 116
1, 200208, Note_off_c, 0, 65, 116
1, 200271, Note_on_c, 0, 59, 113
1, 200355, Note_off_c, 0, 59, 113
1, 200379, Note_on_c, 0, 60, 112
1, 200531, Note_off_c, 0, 60, 112
1, 200555, Note_on_c, 0, 56, 104
1, 200641, Note_off_c, 0, 56, 104
1, 200654, Note_on_c, 0, 57, 107
1, 200763, Note_off_c, 0, 57, 107
1, 200796, Note_on_c, 0, 53, 108
1, 201004, Note_off_c, 0, 53, 108
1, 201004, End_track
0, 0, End_of_file
