0, 0, Header, 1, 1, 840
1, 0, Start_track
1, 0, Title_t, "Melody"
1, 0, Tempo, 895522
1, 0, Key_signature, -5, "major"
1, 0, Time_signature, 4, 2, 24, 8
1, 36, Note_on_c, 0, 72, 98
1, 270, Note_off_c, 0, 72, 98
1, 304, Note_on_c, 0, 70, 96
1, 467, Note_off_c, 0, 70, 96
1, 483, Note_on_c, 0, 72, 105
1, 668, Note_off_c, 0, 72, 105
1, 689, Note_on_c, 0, 70, 106
1, 857, Note_off_c, 0, 70, 106
1, 878, Note_on_c, 0, 68, 106
1, 1063, Note_off_c, 0, 68, 106
1, 1084, Note_on_c, 0, 65, 113
1, 1280, Note_off_c, 0, 65, 113
1, 1285, Note_on_c, 0, 63, 114
1, 1491, Note_off_c, 0, 63, 114
1, 1518, Note_on_c, 0, 61, 115
1, 1665, Note_off_c, 0, 61, 115
1, 1703, Note_on_c, 0, 58, 100
1, 1855, Note_off_c, 0, 58, 100
1, 1914, Note_on_c, 0, 61, 122
1, 2104, Note_off_c, 0, 61, 122
1, 2131, Note_on_c, 0, 64, 116
1, 2278, Note_off_c, 0, 64, 116
1, 2288, Note_on_c, 0, 65, 122
1, 2429, Note_off_c, 0, 65, 122
1, 2439, Note_on_c, 0, 64, 121
1, 2591, Note_off_c, 0, 64, 121
1, 2618, Note_on_c, 0, 65, 118
1, 2890, Note_off_c, 0, 65, 118
1, 2922, Note_on_c, 0, 64, 121
1, 3036, Note_off_c, 0, 64, 121
1, 3068, Note_on_c, 0, 65, 122
1, 3209, Note_off_c, 0, 65, 122
1, 3241, Note_on_c, 0, 61, 119
1, 3409, Note_off_c, 0, 61, 119
1, 3452, Note_on_c, 0, 58, 104
1, 3620, Note_off_c, 0, 58, 104
1, 3636, Note_on_c, 0, 66, 122
1, 3842, Note_off_c, 0, 66, 122
1, 3880, Note_on_c, 0, 65, 120
1, 4092, Note_off_c, 0, 65, 120
1, 4102, Note_on_c, 0, 64, 117
1, 4259, Note_off_c, 0, 64, 117
1, 4280, Note_on_c, 0, 65, 122
1, 4492, Note_off_c, 0, 65, 122
1, 4508, Note_on_c, 0, 64, 115
1, 4676, Note_off_c, 0, 64, 115
1, 4686, Note_on_c, 0, 65, 119
1, 4860, Note_off_c, 0, 65, 119
1, 4898, Note_on_c, 0, 61, 114
1, 5083, Note_off_c, 0, 61, 114
1, 5110, Note_on_c, 0, 57, 106
1, 5278, Note_off_c, 0, 57, 106
1, 5348, Note_on_c, 0, 66, 118
1, 5527, Note_off_c, 0, 66, 118
1, 5548, Note_on_c, 0, 65, 118
1, 5842, Note_off_c, 0, 65, 118
1, 5886, Note_on_c, 0, 60, 94
1, 7426, Note_off_c, 0, 60, 94
1, 7566, Note_on_c, 0, 49, 88
1, 7658, Note_off_c, 0, 49, 88
1, 7671, Note_on_c, 0, 53, 88
1, 7738, Note_off_c, 0, 53, 88
1, 7750, Note_on_c, 0, 56, 108
1, 7859, Note_off_c, 0, 56, 108
1, 7889, Note_on_c, 0, 60, 104
1, 8003, Note_off_c, 0, 60, 104
1, 8095, Note_on_c, 0, 63, 116
1, 8291, Note_off_c, 0, 63, 116
1, 8307, Note_on_c, 0, 61, 113
1, 8437, Note_off_c, 0, 61, 113
1, 8464, Note_on_c, 0, 56, 106
1, 8643, Note_off_c, 0, 56, 106
1, 8675, Note_on_c, 0, 53, 103
1, 8903, Note_off_c, 0, 53, 103
1, 8908, Note_on_c, 0, 59, 91
1, 8995, Note_off_c, 0, 59, 91
1, 9000, Note_on_c, 0, 60, 83
1, 9745, Note_off_c, 0, 60, 83
1, 10797, Note_on_c, 0, 60, 113
1, 10987, Note_off_c, 0, 60, 113
1, 10996, Note_on_c, 0, 61, 104
1, 11092, Note_off_c, 0, 61, 104
1, 11103, Note_on_c, 0, 65, 99
1, 11152, Note_off_c, 0, 65, 99
1, 11173, Note_on_c, 0, 68, 112
1, 11260, Note_off_c, 0, 68, 112
1, 11298, Note_on_c, 0, 72, 116
1, 11428, Note_off_c, 0, 72, 116
1, 11466, Note_on_c, 0, 75, 110
1, 11607, Note_off_c, 0, 75, 110
1, 11639, Note_on_c, 0, 73, 113
1, 11835, Note_off_c, 0, 73, 113
1, 11840, Note_on_c, 0, 68, 115
1, 12025, Note_off_c, 0, 68, 115
1, 12057, Note_on_c, 0, 65, 119
1, 12258, Note_off_c, 0, 65, 119
1, 12317, Note_on_c, 0, 64, 120
1, 12578, Note_off_c, 0, 64, 120
1, 12618, Note_on_c, 0, 64, 93
1, 14651, Note_off_c, 0, 64, 93
1, 14683, Note_on_c, 0, 67, 102
1, 14721, Note_off_c, 0, 67, 102
1, 14737, Note_on_c, 0, 70, 111
1, 14807, Note_off_c, 0, 70, 111
1, 14817, Note_on_c, 0, 71, 112
1, 14870, Note_off_c, 0, 71, 112
1, 14875, Note_on_c, 0, 73, 110
1, 16147, Note_off_c, 0, 73, 110
1, 16166, Note_on_c, 0, 68, 111
1, 16367, Note_off_c, 0, 68, 111
1, 16405, Note_on_c, 0, 64, 109
1, 17042, Note_off_c, 0, 64, 109
1, 17052, Note_on_c, 0, 56, 109
1, 17351, Note_off_c, 0, 56, 109
1, 17503, Note_on_c, 0, 63, 115
1, 17769, Note_off_c, 0, 63, 115
1, 17774, Note_on_c, 0, 61, 92
1, 18274, Note_off_c, 0, 61, 92
1, 18731, Note_on_c, 0, 56, 106
1, 18943, Note_off_c, 0, 56, 106
1, 18953, Note_on_c, 0, 59, 107
1, 19089, Note_off_c, 0, 59, 107
1, 19099, Note_on_c, 0, 64, 118
1, 19289, Note_off_c, 0, 64, 118
1, 19397, Note_on_c, 0, 58, 104
1, 19598, Note_off_c, 0, 58, 104
1, 19647, Note_on_c, 0, 58, 101
1, 19930, Note_off_c, 0, 58, 101
1, 21656, Note_on_c, 0, 51, 102
1, 21781, Note_off_c, 0, 51, 102
1, 21808, Note_on_c, 0, 54, 117
1, 21906, Note_off_c, 0, 54, 117
1, 21927, Note_on_c, 0, 51, 88
1, 21997, Note_off_c, 0, 51, 88
1, 22051, Note_on_c, 0, 54, 118
1, 22170, Note_off_c, 0, 54, 118
1, 22186, Note_on_c, 0, 58, 112
1, 22284, Note_off_c, 0, 58, 112
1, 22300, Note_on_c, 0, 54, 107
1, 22430, Note_off_c, 0, 54, 107
1, 22446, Note_on_c, 0, 58, 107
1, 22544, Note_off_c, 0, 58, 107
1, 22576, Note_on_c, 0, 61, 118
1, 22728, Note_off_c, 0, 61, 118
1, 22733, Note_on_c, 0, 58, 99
1, 22782, Note_off_c, 0, 58, 99
1, 22809, Note_on_c, 0, 61, 118
1, 22934, Note_off_c, 0, 61, 118
1, 22961, Note_on_c, 0, 65, 112
1, 23118, Note_off_c, 0, 65, 112
1, 23149, Note_on_c, 0, 61, 107
1, 23213, Note_off_c, 0, 61, 107
1, 23225, Note_on_c, 0, 65, 117
1, 23344, Note_off_c, 0, 65, 117
1, 23393, Note_on_c, 0, 68, 109
1, 24100, Note_off_c, 0, 68, 109
1, 24421, Note_on_c, 0, 68, 111
1, 24682, Note_off_c, 0, 68, 111
1, 24687, Note_on_c, 0, 67, 110
1, 24757, Note_off_c, 0, 67, 110
1, 24795, Note_on_c, 0, 66, 107
1, 24963, Note_off_c, 0, 66, 107
1, 24963, Note_on_c, 0, 65, 115
1, 25126, Note_off_c, 0, 65, 115
1, 25191, Note_on_c, 0, 63, 122
1, 25408, Note_off_c, 0, 63, 122
1, 25429, Note_on_c, 0, 62, 114
1, 25608, Note_off_c, 0, 62, 114
1, 25618, Note_on_c, 0, 63, 119
1, 25814, Note_off_c, 0, 63, 119
1, 25852, Note_on_c, 0, 70, 114
1, 26042, Note_off_c, 0, 70, 114
1, 26056, Note_on_c, 0, 68, 114
1, 26228, Note_off_c, 0, 68, 114
1, 26248, Note_on_c, 0, 65, 116
1, 26435, Note_off_c, 0, 65, 116
1, 26477, Note_on_c, 0, 61, 116
1, 26651, Note_off_c, 0, 61, 116
1, 26667, Note_on_c, 0, 60, 108
1, 26846, Note_off_c, 0, 60, 108
1, 26865, Note_on_c, 0, 61, 114
1, 27025, Note_off_c, 0, 61, 114
1, 27048, Note_on_c, 0, 65, 113
1, 27244, Note_off_c, 0, 65, 113
1, 27271, Note_on_c, 0, 68, 113
1, 27461, Note_off_c, 0, 68, 113
1, 27477, Note_on_c, 0, 64, 106
1, 27912, Note_off_c, 0, 64, 106
1, 27922, Note_on_c, 0, 66, 103
1, 28286, Note_off_c, 0, 66, 103
1, 28313, Note_on_c, 0, 68, 104
1, 28694, Note_off_c, 0, 68, 104
1, 28715, Note_on_c, 0, 64, 102
1, 29074, Note_off_c, 0, 64, 102
1, 29393, Note_on_c, 0, 69, 115
1, 29570, Note_off_c, 0, 69, 115
1, 29580, Note_on_c, 0, 71, 110
1, 29829, Note_off_c, 0, 71, 110
1, 29882, Note_on_c, 0, 74, 108
1, 30088, Note_off_c, 0, 74, 108
1, 30180, Note_on_c, 0, 73, 108
1, 30388, Note_off_c, 0, 73, 108
1, 30409, Note_on_c, 0, 71, 115
1, 30561, Note_off_c, 0, 71, 115
1, 30575, Note_on_c, 0, 69, 103
1, 30693, Note_off_c, 0, 69, 103
1, 30701, Note_on_c, 0, 71, 103
1, 30755, Note_off_c, 0, 71, 103
1, 30765, Note_on_c, 0, 68, 87
1, 31483, Note_off_c, 0, 68, 87
1, 31885, Note_on_c, 0, 65, 117
1, 32064, Note_off_c, 0, 65, 117
1, 32074, Note_on_c, 0, 66, 122
1, 32335, Note_on_c, 0, 67, 115
1, 32335, Note_off_c, 0, 66, 122
1, 32623, Note_off_c, 0, 67, 115
1, 32633, Note_on_c, 0, 68, 105
1, 33150, Note_off_c, 0, 68, 105
1, 33158, Note_on_c, 0, 65, 115
1, 33249, Note_off_c, 0, 65, 115
1, 33265, Note_on_c, 0, 61, 113
1, 33361, Note_off_c, 0, 61, 113
1, 33365, Note_on_c, 0, 60, 112
1, 33451, Note_off_c, 0, 60, 112
1, 33455, Note_on_c, 0, 61, 113
1, 33576, Note_off_c, 0, 61, 113
1, 33597, Note_on_c, 0, 68, 111
1, 33678, Note_off_c, 0, 68, 111
1, 33703, Note_on_c, 0, 72, 103
1, 33768, Note_off_c, 0, 72, 103
1, 33780, Note_on_c, 0, 75, 98
1, 33905, Note_off_c, 0, 75, 98
1, 33915, Note_on_c, 0, 72, 80
1, 34693, Note_off_c, 0, 72, 80
1, 35117, Note_on_c, 0, 70, 117
1, 35209, Note_off_c, 0, 70, 117
1, 35225, Note_on_c, 0, 73, 101
1, 35301, Note_off_c, 0, 73, 101
1, 35306, Note_on_c, 0, 70, 103
1, 35583, Note_off_c, 0, 70, 103
1, 35898, Note_on_c, 0, 66, 114
1, 35976, Note_off_c, 0, 66, 114
1, 35987, Note_on_c, 0, 68, 112
1, 36057, Note_off_c, 0, 68, 112
1, 36076, Note_on_c, 0, 72, 100
1, 36146, Note_off_c, 0, 72, 100
1, 36162, Note_on_c, 0, 68, 97
1, 36521, Note_off_c, 0, 68, 97
1, 37015, Note_on_c, 0, 68, 116
1, 37253, Note_off_c, 0, 68, 116
1, 37313, Note_on_c, 0, 68, 119
1, 37521, Note_off_c, 0, 68, 119
1, 37612, Note_on_c, 0, 71, 106
1, 37677, Note_off_c, 0, 71, 106
1, 37704, Note_on_c, 0, 72, 114
1, 37916, Note_off_c, 0, 72, 114
1, 37964, Note_on_c, 0, 72, 108
1, 38972, Note_off_c, 0, 72, 108
1, 38992, Note_on_c, 0, 70, 114
1, 39188, Note_off_c, 0, 70, 114
1, 39193, Note_on_c, 0, 69, 115
1, 39372, Note_off_c, 0, 69, 115
1, 39377, Note_on_c, 0, 70, 115
1, 39567, Note_off_c, 0, 70, 115
1, 39572, Note_on_c, 0, 71, 100
1, 39633, Note_off_c, 0, 71, 100
1, 39642, Note_on_c, 0, 73, 101
1, 39859, Note_off_c, 0, 73, 101
1, 39875, Note_on_c, 0, 66, 117
1, 40130, Note_off_c, 0, 66, 117
1, 40162, Note_on_c, 0, 66, 99
1, 43227, Note_off_c, 0, 66, 99
1, 43489, Note_on_c, 0, 63, 121
1, 43658, Note_off_c, 0, 63, 121
1, 43677, Note_on_c, 0, 65, 125
1, 43824, Note_off_c, 0, 65, 125
1, 43836, Note_on_c, 0, 66, 121
1, 43976, Note_off_c, 0, 66, 121
1, 43983, Note_on_c, 0, 68, 105
1, 44071, Note_off_c, 0, 68, 105
1, 44095, Note_on_c, 0, 70, 113
1, 44271, Note_off_c, 0, 70, 113
1, 44308, Note_on_c, 0, 73, 109
1, 44494, Note_off_c, 0, 73, 109
1, 44663, Note_on_c, 0, 70, 109
1, 44875, Note_off_c, 0, 70, 109
1, 44891, Note_on_c, 0, 66, 118
1, 45081, Note_off_c, 0, 66, 118
1, 45108, Note_on_c, 0, 72, 97
1, 45679, Note_off_c, 0, 72, 97
1, 45738, Note_on_c, 0, 70, 114
1, 45923, Note_off_c, 0, 70, 114
1, 45923, Note_on_c, 0, 68, 115
1, 46129, Note_off_c, 0, 68, 115
1, 46150, Note_on_c, 0, 65, 99
1, 46759, Note_off_c, 0, 65, 99
1, 47047, Note_on_c, 0, 56, 120
1, 47379, Note_off_c, 0, 56, 120
1, 47422, Note_on_c, 0, 58, 113
1, 47650, Note_off_c, 0, 58, 113
1, 47684, Note_on_c, 0, 59, 95
1, 48658, Note_off_c, 0, 59, 95
1, 48716, Note_on_c, 0, 61, 119
1, 48895, Note_off_c, 0, 61, 119
1, 48922, Note_on_c, 0, 63, 120
1, 49107, Note_off_c, 0, 63, 120
1, 49117, Note_on_c, 0, 66, 117
1, 49318, Note_off_c, 0, 66, 117
1, 49350, Note_on_c, 0, 65, 98
1, 49799, Note_off_c, 0, 65, 98
1, 50411, Note_on_c, 0, 65, 125
1, 50688, Note_off_c, 0, 65, 125
1, 50688, Note_on_c, 0, 66, 127
1, 50916, Note_off_c, 0, 66, 127
1, 50937, Note_on_c, 0, 68, 117
1, 51176, Note_off_c, 0, 68, 117
1, 51208, Note_on_c, 0, 70, 107
1, 51518, Note_off_c, 0, 70, 107
1, 51790, Note_on_c, 0, 65, 121
1, 52067, Note_off_c, 0, 65, 121
1, 52121, Note_on_c, 0, 66, 107
1, 52627, Note_off_c, 0, 66, 107
1, 52654, Note_on_c, 0, 63, 99
1, 53372, Note_off_c, 0, 63, 99
1, 53904, Note_on_c, 0, 64, 9
1, 54038, Note_off_c, 0, 64, 9
1, 54054, Note_on_c, 0, 65, 122
1, 54159, Note_off_c, 0, 65, 122
1, 54170, Note_on_c, 0, 68, 122
1, 54322, Note_off_c, 0, 68, 122
1, 54344, Note_on_c, 0, 65, 125
1, 54569, Note_off_c, 0, 65, 125
1, 54582, Note_on_c, 0, 61, 125
1, 54756, Note_off_c, 0, 61, 125
1, 54761, Note_on_c, 0, 58, 109
1, 54880, Note_off_c, 0, 58, 109
1, 54890, Note_on_c, 0, 57, 109
1, 55000, Note_off_c, 0, 57, 109
1, 55007, Note_on_c, 0, 56, 116
1, 55131, Note_off_c, 0, 56, 116
1, 55138, Note_on_c, 0, 55, 116
1, 55279, Note_off_c, 0, 55, 116
1, 55328, Note_on_c, 0, 58, 99
1, 55415, Note_off_c, 0, 58, 99
1, 55425, Note_on_c, 0, 61, 126
1, 55561, Note_off_c, 0, 61, 126
1, 55561, Note_on_c, 0, 64, 116
1, 55642, Note_off_c, 0, 64, 116
1, 55652, Note_on_c, 0, 65, 120
1, 55793, Note_off_c, 0, 65, 120
1, 55798, Note_on_c, 0, 64, 117
1, 55868, Note_off_c, 0, 64, 117
1, 55884, Note_on_c, 0, 65, 117
1, 56009, Note_off_c, 0, 65, 117
1, 56047, Note_on_c, 0, 64, 114
1, 56183, Note_off_c, 0, 64, 114
1, 56204, Note_on_c, 0, 65, 118
1, 56361, Note_off_c, 0, 65, 118
1, 56400, Note_on_c, 0, 60, 110
1, 56606, Note_off_c, 0, 60, 110
1, 56627, Note_on_c, 0, 60, 115
1, 56888, Note_off_c, 0, 60, 115
1, 56909, Note_on_c, 0, 60, 109
1, 57068, Note_off_c, 0, 60, 109
1, 57091, Note_on_c, 0, 57, 116
1, 57342, Note_off_c, 0, 57, 116
1, 57370, Note_on_c, 0, 57, 113
1, 57595, Note_off_c, 0, 57, 113
1, 57630, Note_on_c, 0, 57, 109
1, 57853, Note_off_c, 0, 57, 109
1, 57905, Note_on_c, 0, 53, 113
1, 58169, Note_off_c, 0, 53, 113
1, 58212, Note_on_c, 0, 53, 106
1, 58865, Note_off_c, 0, 53, 106
1, 58865, End_track
0, 0, End_of_file
