0, 0, Header, 1, 1, 192
1, 0, Start_track
1, 0, Title_t, "Melody"
1, 0, Tempo, 248962
1, 0, Key_signature, -5, "major"
1, 0, Time_signature, 4, 2, 24, 8
1, 3199, Note_on_c, 0, 58, 96
1, 3302, Note_off_c, 0, 58, 96
1, 3312, Note_on_c, 0, 65, 91
1, 3390, Note_off_c, 0, 65, 91
1, 3412, Note_on_c, 0, 68, 112
1, 3487, Note_off_c, 0, 68, 112
1, 3496, Note_on_c, 0, 70, 105
1, 3562, Note_off_c, 0, 70, 105
1, 3579, Note_on_c, 0, 72, 103
1, 4463, Note_off_c, 0, 72, 103
1, 4486, Note_on_c, 0, 70, 109
1, 4567, Note_off_c, 0, 70, 109
1, 4570, Note_on_c, 0, 68, 110
1, 4664, Note_off_c, 0, 68, 110
1, 4664, Note_on_c, 0, 65, 103
1, 4755, Note_off_c, 0, 65, 103
1, 4761, Note_on_c, 0, 63, 105
1, 4849, Note_off_c, 0, 63, 105
1, 4860, Note_on_c, 0, 65, 104
1, 4918, Note_off_c, 0, 65, 104
1, 4920, Note_on_c, 0, 68, 97
1, 5020, Note_off_c, 0, 68, 97
1, 5020, Note_on_c, 0, 70, 99
1, 5104, Note_off_c, 0, 70, 99
1, 5113, Note_on_c, 0, 72, 110
1, 5242, Note_off_c, 0, 72, 110
1, 5295, Note_on_c, 0, 72, 111
1, 5464, Note_off_c, 0, 72, 111
1, 5473, Note_on_c, 0, 70, 109
1, 5595, Note_off_c, 0, 70, 109
1, 5595, Note_on_c, 0, 68, 110
1, 5708, Note_off_c, 0, 68, 110
1, 5761, Note_on_c, 0, 63, 97
1, 5839, Note_off_c, 0, 63, 97
1, 5842, Note_on_c, 0, 67, 102
1, 5933, Note_off_c, 0, 67, 102
1, 5945, Note_on_c, 0, 68, 112
1, 6029, Note_off_c, 0, 68, 112
1, 6038, Note_on_c, 0, 70, 109
1, 6113, Note_off_c, 0, 70, 109
1, 6119, Note_on_c, 0, 72, 112
1, 6207, Note_off_c, 0, 72, 112
1, 6213, Note_on_c, 0, 68, 111
1, 6288, Note_off_c, 0, 68, 111
1, 6313, Note_on_c, 0, 72, 109
1, 6416, Note_off_c, 0, 72, 109
1, 6416, Note_on_c, 0, 70, 109
1, 6680, Note_off_c, 0, 70, 109
1, 6692, Note_on_c, 0, 68, 112
1, 6780, Note_off_c, 0, 68, 112
1, 6783, Note_on_c, 0, 66, 109
1, 6874, Note_off_c, 0, 66, 109
1, 6880, Note_on_c, 0, 63, 106
1, 6977, Note_off_c, 0, 63, 106
1, 7748, Note_on_c, 0, 61, 97
1, 7842, Note_off_c, 0, 61, 97
1, 7842, Note_on_c, 0, 63, 90
1, 7930, Note_off_c, 0, 63, 90
1, 7952, Note_on_c, 0, 64, 108
1, 8043, Note_off_c, 0, 64, 108
1, 8046, Note_on_c, 0, 61, 99
1, 8118, Note_off_c, 0, 61, 99
1, 8127, Note_on_c, 0, 63, 105
1, 8202, Note_off_c, 0, 63, 105
1, 8211, Note_on_c, 0, 64, 108
1, 8305, Note_off_c, 0, 64, 108
1, 8320, Note_on_c, 0, 65, 109
1, 8398, Note_off_c, 0, 65, 109
1, 8410, Note_on_c, 0, 66, 112
1, 8510, Note_off_c, 0, 66, 112
1, 8516, Note_on_c, 0, 62, 106
1, 8607, Note_off_c, 0, 62, 106
1, 8610, Note_on_c, 0, 61, 98
1, 8666, Note_off_c, 0, 61, 98
1, 8675, Note_on_c, 0, 64, 110
1, 8769, Note_off_c, 0, 64, 110
1, 8769, Note_on_c, 0, 66, 108
1, 8857, Note_off_c, 0, 66, 108
1, 8857, Note_on_c, 0, 69, 116
1, 8916, Note_off_c, 0, 69, 116
1, 8927, Note_on_c, 0, 70, 104
1, 9464, Note_off_c, 0, 70, 104
1, 9466, Note_on_c, 0, 67, 109
1, 9554, Note_off_c, 0, 67, 109
1, 9557, Note_on_c, 0, 65, 110
1, 9623, Note_off_c, 0, 65, 110
1, 9635, Note_on_c, 0, 61, 105
1, 9726, Note_off_c, 0, 61, 105
1, 9745, Note_on_c, 0, 58, 96
1, 9821, Note_off_c, 0, 58, 96
1, 9829, Note_on_c, 0, 60, 110
1, 9904, Note_off_c, 0, 60, 110
1, 9908, Note_on_c, 0, 63, 102
1, 9994, Note_off_c, 0, 63, 102
1, 9994, Note_on_c, 0, 67, 107
1, 10066, Note_off_c, 0, 67, 107
1, 10078, Note_on_c, 0, 70, 107
1, 10191, Note_off_c, 0, 70, 107
1, 10191, Note_on_c, 0, 69, 114
1, 10279, Note_off_c, 0, 69, 114
1, 10285, Note_on_c, 0, 67, 102
1, 10385, Note_off_c, 0, 67, 102
1, 10397, Note_on_c, 0, 64, 106
1, 10538, Note_off_c, 0, 64, 106
1, 10569, Note_on_c, 0, 60, 91
1, 10650, Note_off_c, 0, 60, 91
1, 10668, Note_on_c, 0, 62, 108
1, 10721, Note_off_c, 0, 62, 108
1, 10721, Note_on_c, 0, 68, 105
1, 10818, Note_off_c, 0, 68, 105
1, 10830, Note_on_c, 0, 66, 109
1, 10902, Note_off_c, 0, 66, 109
1, 10924, Note_on_c, 0, 63, 106
1, 11002, Note_off_c, 0, 63, 106
1, 11011, Note_on_c, 0, 62, 104
1, 11086, Note_off_c, 0, 62, 104
1, 11095, Note_on_c, 0, 64, 107
1, 11179, Note_off_c, 0, 64, 107
1, 11179, Note_on_c, 0, 66, 108
1, 11260, Note_off_c, 0, 66, 108
1, 11263, Note_on_c, 0, 69, 111
1, 11354, Note_off_c, 0, 69, 111
1, 11369, Note_on_c, 0, 65, 103
1, 11460, Note_on_c, 0, 66, 108
1, 11460, Note_off_c, 0, 65, 103
1, 11551, Note_off_c, 0, 66, 108
1, 11559, Note_on_c, 0, 62, 103
1, 11659, Note_off_c, 0, 62, 103
1, 12967, Note_on_c, 0, 63, 107
1, 13072, Note_off_c, 0, 63, 107
1, 13072, Note_on_c, 0, 61, 109
1, 13185, Note_off_c, 0, 61, 109
1, 13197, Note_on_c, 0, 56, 106
1, 13252, Note_off_c, 0, 56, 106
1, 13265, Note_on_c, 0, 53, 104
1, 13343, Note_off_c, 0, 53, 104
1, 13348, Note_on_c, 0, 61, 108
1, 13467, Note_off_c, 0, 61, 108
1, 13482, Note_on_c, 0, 60, 108
1, 13579, Note_off_c, 0, 60, 108
1, 13589, Note_on_c, 0, 56, 107
1, 13642, Note_off_c, 0, 56, 107
1, 13642, Note_on_c, 0, 53, 103
1, 13769, Note_off_c, 0, 53, 103
1, 13786, Note_on_c, 0, 56, 106
1, 13839, Note_off_c, 0, 56, 106
1, 13847, Note_on_c, 0, 55, 101
1, 13928, Note_off_c, 0, 55, 101
1, 13942, Note_on_c, 0, 60, 101
1, 14061, Note_off_c, 0, 60, 101
1, 14589, Note_on_c, 0, 58, 99
1, 14667, Note_off_c, 0, 58, 99
1, 14667, Note_on_c, 0, 63, 107
1, 14745, Note_off_c, 0, 63, 107
1, 14760, Note_on_c, 0, 61, 108
1, 14867, Note_off_c, 0, 61, 108
1, 14904, Note_on_c, 0, 56, 98
1, 14973, Note_off_c, 0, 56, 98
1, 14979, Note_on_c, 0, 58, 108
1, 15063, Note_off_c, 0, 58, 108
1, 15075, Note_on_c, 0, 61, 111
1, 15159, Note_off_c, 0, 61, 111
1, 15159, Note_on_c, 0, 58, 106
1, 15240, Note_off_c, 0, 58, 106
1, 15252, Note_on_c, 0, 56, 107
1, 15343, Note_off_c, 0, 56, 107
1, 15358, Note_on_c, 0, 53, 102
1, 15433, Note_off_c, 0, 53, 102
1, 15439, Note_on_c, 0, 56, 104
1, 15533, Note_off_c, 0, 56, 104
1, 15553, Note_on_c, 0, 56, 97
1, 15640, Note_off_c, 0, 56, 97
1, 15648, Note_on_c, 0, 58, 104
1, 15721, Note_off_c, 0, 58, 104
1, 15734, Note_on_c, 0, 59, 104
1, 15822, Note_off_c, 0, 59, 104
1, 15822, Note_on_c, 0, 63, 109
1, 15906, Note_off_c, 0, 63, 109
1, 15915, Note_on_c, 0, 65, 114
1, 15996, Note_off_c, 0, 65, 114
1, 16021, Note_on_c, 0, 66, 114
1, 16093, Note_off_c, 0, 66, 114
1, 16108, Note_on_c, 0, 62, 105
1, 16199, Note_off_c, 0, 62, 105
1, 16199, Note_on_c, 0, 59, 98
1, 16279, Note_off_c, 0, 59, 98
1, 16294, Note_on_c, 0, 64, 102
1, 16446, Note_off_c, 0, 64, 102
1, 16482, Note_on_c, 0, 62, 102
1, 16711, Note_off_c, 0, 62, 102
1, 16711, Note_on_c, 0, 64, 105
1, 16814, Note_off_c, 0, 64, 105
1, 16829, Note_on_c, 0, 66, 109
1, 16948, Note_off_c, 0, 66, 109
1, 16998, Note_on_c, 0, 69, 114
1, 17086, Note_on_c, 0, 71, 112
1, 17086, Note_off_c, 0, 69, 114
1, 17183, Note_off_c, 0, 71, 112
1, 17189, Note_on_c, 0, 74, 116
1, 17267, Note_off_c, 0, 74, 116
1, 17285, Note_on_c, 0, 75, 113
1, 17436, Note_on_c, 0, 76, 116
1, 17436, Note_off_c, 0, 75, 113
1, 17552, Note_off_c, 0, 76, 116
1, 17577, Note_on_c, 0, 77, 112
1, 17677, Note_off_c, 0, 77, 112
1, 17746, Note_on_c, 0, 78, 112
1, 17805, Note_off_c, 0, 78, 112
1, 17820, Note_on_c, 0, 76, 116
1, 17911, Note_off_c, 0, 76, 116
1, 17920, Note_on_c, 0, 75, 106
1, 18014, Note_off_c, 0, 75, 106
1, 18014, Note_on_c, 0, 74, 110
1, 18199, Note_off_c, 0, 74, 110
1, 18224, Note_on_c, 0, 71, 109
1, 18334, Note_off_c, 0, 71, 109
1, 18337, Note_on_c, 0, 70, 109
1, 18447, Note_off_c, 0, 70, 109
1, 18531, Note_on_c, 0, 69, 115
1, 18597, Note_off_c, 0, 69, 115
1, 18606, Note_on_c, 0, 68, 112
1, 18706, Note_off_c, 0, 68, 112
1, 18724, Note_on_c, 0, 66, 112
1, 18821, Note_off_c, 0, 66, 112
1, 18824, Note_on_c, 0, 65, 110
1, 19003, Note_off_c, 0, 65, 110
1, 19003, Note_on_c, 0, 62, 103
1, 19113, Note_off_c, 0, 62, 103
1, 19125, Note_on_c, 0, 58, 102
1, 19238, Note_off_c, 0, 58, 102
1, 19285, Note_on_c, 0, 60, 102
1, 19369, Note_off_c, 0, 60, 102
1, 19397, Note_on_c, 0, 64, 99
1, 19472, Note_off_c, 0, 64, 99
1, 19492, Note_on_c, 0, 66, 88
1, 19545, Note_off_c, 0, 66, 88
1, 19565, Note_on_c, 0, 71, 107
1, 19621, Note_off_c, 0, 71, 107
1, 19624, Note_on_c, 0, 72, 90
1, 19671, Note_off_c, 0, 72, 90
1, 19671, Note_on_c, 0, 71, 100
1, 19740, Note_off_c, 0, 71, 100
1, 19740, Note_on_c, 0, 69, 101
1, 19790, Note_off_c, 0, 69, 101
1, 19802, Note_on_c, 0, 64, 102
1, 19868, Note_off_c, 0, 64, 102
1, 22161, Note_on_c, 0, 73, 111
1, 22233, Note_off_c, 0, 73, 111
1, 22245, Note_on_c, 0, 72, 102
1, 22317, Note_off_c, 0, 72, 102
1, 22400, Note_on_c, 0, 72, 101
1, 23300, Note_off_c, 0, 72, 101
1, 23347, Note_on_c, 0, 69, 109
1, 23435, Note_off_c, 0, 69, 109
1, 23438, Note_on_c, 0, 72, 104
1, 23532, Note_off_c, 0, 72, 104
1, 23620, Note_on_c, 0, 68, 105
1, 23689, Note_off_c, 0, 68, 105
1, 23698, Note_on_c, 0, 69, 102
1, 23767, Note_off_c, 0, 69, 102
1, 23779, Note_on_c, 0, 69, 108
1, 23974, Note_off_c, 0, 69, 108
1, 24159, Note_on_c, 0, 72, 107
1, 24228, Note_off_c, 0, 72, 107
1, 24234, Note_on_c, 0, 73, 107
1, 24330, Note_off_c, 0, 73, 107
1, 24330, Note_on_c, 0, 72, 106
1, 24412, Note_off_c, 0, 72, 106
1, 24412, Note_on_c, 0, 69, 108
1, 24496, Note_off_c, 0, 69, 108
1, 24608, Note_on_c, 0, 63, 100
1, 24683, Note_off_c, 0, 63, 100
1, 24684, Note_on_c, 0, 67, 104
1, 24765, Note_off_c, 0, 67, 104
1, 25189, Note_on_c, 0, 69, 116
1, 25270, Note_off_c, 0, 69, 116
1, 25458, Note_on_c, 0, 67, 107
1, 25517, Note_off_c, 0, 67, 107
1, 25624, Note_on_c, 0, 67, 110
1, 25705, Note_off_c, 0, 67, 110
1, 25717, Note_on_c, 0, 68, 110
1, 25789, Note_off_c, 0, 68, 110
1, 25804, Note_on_c, 0, 69, 113
1, 25895, Note_off_c, 0, 69, 113
1, 25913, Note_on_c, 0, 67, 111
1, 25985, Note_off_c, 0, 67, 111
1, 25991, Note_on_c, 0, 63, 101
1, 26050, Note_off_c, 0, 63, 101
1, 26119, Note_on_c, 0, 67, 109
1, 26181, Note_off_c, 0, 67, 109
1, 26187, Note_on_c, 0, 64, 92
1, 26316, Note_off_c, 0, 64, 92
1, 26471, Note_on_c, 0, 67, 112
1, 26552, Note_off_c, 0, 67, 112
1, 26721, Note_on_c, 0, 65, 110
1, 26790, Note_off_c, 0, 65, 110
1, 26805, Note_on_c, 0, 66, 109
1, 26867, Note_off_c, 0, 66, 109
1, 26876, Note_on_c, 0, 63, 103
1, 26964, Note_off_c, 0, 63, 103
1, 26979, Note_on_c, 0, 62, 104
1, 27067, Note_off_c, 0, 62, 104
1, 27067, Note_on_c, 0, 66, 105
1, 27139, Note_off_c, 0, 66, 105
1, 27368, Time_signature, 3, 2, 24, 8
1, 27368, Note_on_c, 0, 67, 110
1, 27459, Note_off_c, 0, 67, 110
1, 27484, Note_on_c, 0, 64, 98
1, 27550, Note_off_c, 0, 64, 98
1, 27565, Note_on_c, 0, 65, 110
1, 27653, Note_off_c, 0, 65, 110
1, 27656, Note_on_c, 0, 66, 104
1, 27722, Note_off_c, 0, 66, 104
1, 27756, Note_on_c, 0, 63, 105
1, 27870, Note_off_c, 0, 63, 105
1, 27870, Note_on_c, 0, 62, 102
1, 27941, Note_off_c, 0, 62, 102
1, 27958, Time_signature, 4, 2, 24, 8
1, 27958, Note_on_c, 0, 66, 110
1, 28020, Note_off_c, 0, 66, 110
1, 28035, Note_on_c, 0, 65, 106
1, 28126, Note_off_c, 0, 65, 106
1, 28138, Note_on_c, 0, 64, 109
1, 28235, Note_off_c, 0, 64, 109
1, 28332, Note_on_c, 0, 67, 111
1, 28432, Note_off_c, 0, 67, 111
1, 28435, Note_on_c, 0, 64, 97
1, 28529, Note_off_c, 0, 64, 97
1, 28541, Note_on_c, 0, 65, 110
1, 28616, Note_off_c, 0, 65, 110
1, 28625, Note_on_c, 0, 66, 108
1, 28722, Note_off_c, 0, 66, 108
1, 28810, Note_on_c, 0, 72, 110
1, 28901, Note_off_c, 0, 72, 110
1, 28907, Note_on_c, 0, 71, 110
1, 28998, Note_off_c, 0, 71, 110
1, 28998, Note_on_c, 0, 66, 102
1, 29086, Note_off_c, 0, 66, 102
1, 29098, Note_on_c, 0, 69, 109
1, 29195, Note_off_c, 0, 69, 109
1, 29204, Note_on_c, 0, 67, 105
1, 29288, Note_on_c, 0, 64, 110
1, 29288, Note_off_c, 0, 67, 105
1, 29395, Note_off_c, 0, 64, 110
1, 29489, Note_on_c, 0, 69, 112
1, 29611, Note_off_c, 0, 69, 112
1, 29686, Note_on_c, 0, 73, 113
1, 29793, Note_off_c, 0, 73, 113
1, 29793, Note_on_c, 0, 68, 91
1, 29865, Note_off_c, 0, 68, 91
1, 29874, Note_on_c, 0, 70, 107
1, 29952, Note_off_c, 0, 70, 107
1, 29970, Note_on_c, 0, 73, 105
1, 30045, Note_off_c, 0, 73, 105
1, 30057, Note_on_c, 0, 75, 112
1, 30195, Note_off_c, 0, 75, 112
1, 30279, Note_on_c, 0, 69, 112
1, 30363, Note_off_c, 0, 69, 112
1, 30363, Note_on_c, 0, 64, 101
1, 30457, Note_off_c, 0, 64, 101
1, 30466, Note_on_c, 0, 67, 104
1, 30560, Note_off_c, 0, 67, 104
1, 30578, Note_on_c, 0, 73, 106
1, 30650, Note_off_c, 0, 73, 106
1, 30738, Note_on_c, 0, 79, 104
1, 30826, Note_on_c, 0, 75, 109
1, 30826, Note_off_c, 0, 79, 104
1, 30961, Note_off_c, 0, 75, 109
1, 31448, Note_on_c, 0, 77, 116
1, 31532, Note_off_c, 0, 77, 116
1, 31535, Note_on_c, 0, 73, 106
1, 31623, Note_off_c, 0, 73, 106
1, 31632, Note_on_c, 0, 64, 109
1, 31713, Note_off_c, 0, 64, 109
1, 31741, Note_on_c, 0, 67, 85
1, 31813, Note_on_c, 0, 70, 109
1, 31813, Note_off_c, 0, 67, 85
1, 31897, Note_off_c, 0, 70, 109
1, 31897, Note_on_c, 0, 73, 101
1, 31997, Note_off_c, 0, 73, 101
1, 31997, Note_on_c, 0, 75, 109
1, 32081, Note_off_c, 0, 75, 109
1, 32093, Note_on_c, 0, 76, 112
1, 32200, Note_off_c, 0, 76, 112
1, 32206, Note_on_c, 0, 72, 105
1, 32338, Note_off_c, 0, 72, 105
1, 32372, Note_on_c, 0, 75, 105
1, 32501, Note_off_c, 0, 75, 105
1, 32501, Note_on_c, 0, 74, 105
1, 32589, Note_off_c, 0, 74, 105
1, 32708, Note_on_c, 0, 68, 107
1, 32767, Note_off_c, 0, 68, 107
1, 32773, Note_on_c, 0, 70, 96
1, 32804, Note_off_c, 0, 70, 96
1, 32813, Note_on_c, 0, 74, 108
1, 32866, Note_off_c, 0, 74, 108
1, 32869, Note_on_c, 0, 73, 101
1, 33230, Note_off_c, 0, 73, 101
1, 33270, Note_on_c, 0, 75, 109
1, 33361, Note_off_c, 0, 75, 109
1, 33361, Note_on_c, 0, 72, 107
1, 33597, Note_off_c, 0, 72, 107
1, 33647, Note_on_c, 0, 75, 105
1, 33747, Note_off_c, 0, 75, 105
1, 33750, Note_on_c, 0, 73, 109
1, 33838, Note_off_c, 0, 73, 109
1, 33847, Note_on_c, 0, 71, 105
1, 33925, Note_off_c, 0, 71, 105
1, 33928, Note_on_c, 0, 68, 107
1, 34019, Note_on_c, 0, 64, 97
1, 34019, Note_off_c, 0, 68, 107
1, 34110, Note_off_c, 0, 64, 97
1, 34132, Note_on_c, 0, 74, 111
1, 34223, Note_off_c, 0, 74, 111
1, 34223, Note_on_c, 0, 72, 109
1, 34314, Note_off_c, 0, 72, 109
1, 34320, Note_on_c, 0, 69, 112
1, 34408, Note_off_c, 0, 69, 112
1, 34442, Note_on_c, 0, 62, 104
1, 34589, Note_off_c, 0, 62, 104
1, 34614, Note_on_c, 0, 67, 99
1, 34705, Note_off_c, 0, 67, 99
1, 34705, Note_on_c, 0, 70, 108
1, 34783, Note_off_c, 0, 70, 108
1, 34820, Note_on_c, 0, 74, 111
1, 34904, Note_off_c, 0, 74, 111
1, 34904, Note_on_c, 0, 73, 113
1, 34982, Note_off_c, 0, 73, 113
1, 35010, Note_on_c, 0, 75, 112
1, 35082, Note_off_c, 0, 75, 112
1, 35082, Note_on_c, 0, 71, 106
1, 35198, Note_off_c, 0, 71, 106
1, 35198, Note_on_c, 0, 69, 106
1, 35282, Note_off_c, 0, 69, 106
1, 35300, Note_on_c, 0, 68, 107
1, 35407, Note_off_c, 0, 68, 107
1, 35482, Note_on_c, 0, 64, 109
1, 35595, Note_off_c, 0, 64, 109
1, 35676, Note_on_c, 0, 64, 104
1, 35776, Note_off_c, 0, 64, 104
1, 35782, Note_on_c, 0, 69, 107
1, 35866, Note_off_c, 0, 69, 107
1, 35866, Note_on_c, 0, 68, 109
1, 35950, Note_off_c, 0, 68, 109
1, 35950, Note_on_c, 0, 70, 102
1, 36047, Note_off_c, 0, 70, 102
1, 36053, Note_on_c, 0, 71, 106
1, 36134, Note_off_c, 0, 71, 106
1, 36159, Note_on_c, 0, 73, 113
1, 36262, Note_off_c, 0, 73, 113
1, 36262, Note_on_c, 0, 72, 110
1, 36350, Note_off_c, 0, 72, 110
1, 36350, Note_on_c, 0, 68, 108
1, 36422, Note_off_c, 0, 68, 108
1, 36431, Note_on_c, 0, 69, 108
1, 36519, Note_off_c, 0, 69, 108
1, 36547, Note_on_c, 0, 63, 103
1, 36616, Note_off_c, 0, 63, 103
1, 36619, Note_on_c, 0, 62, 104
1, 36719, Note_off_c, 0, 62, 104
1, 36744, Note_on_c, 0, 69, 107
1, 36816, Note_on_c, 0, 67, 105
1, 36816, Note_off_c, 0, 69, 107
1, 36910, Note_off_c, 0, 67, 105
1, 36941, Note_on_c, 0, 62, 105
1, 37003, Note_off_c, 0, 62, 105
1, 37003, Note_on_c, 0, 59, 99
1, 37103, Note_off_c, 0, 59, 99
1, 37121, Note_on_c, 0, 64, 110
1, 37209, Note_off_c, 0, 64, 110
1, 37215, Note_on_c, 0, 68, 111
1, 37284, Note_off_c, 0, 68, 111
1, 37302, Note_on_c, 0, 66, 110
1, 37383, Note_off_c, 0, 66, 110
1, 37505, Note_on_c, 0, 62, 108
1, 37574, Note_off_c, 0, 62, 108
1, 37580, Note_on_c, 0, 59, 100
1, 37661, Note_off_c, 0, 59, 100
1, 37661, Note_on_c, 0, 60, 96
1, 37745, Note_off_c, 0, 60, 96
1, 37757, Note_on_c, 0, 63, 108
1, 37854, Note_off_c, 0, 63, 108
1, 37876, Note_on_c, 0, 65, 109
1, 37942, Note_off_c, 0, 65, 109
1, 37960, Note_on_c, 0, 66, 111
1, 38054, Note_off_c, 0, 66, 111
1, 38359, Note_on_c, 0, 64, 110
1, 38456, Note_off_c, 0, 64, 110
1, 38481, Note_on_c, 0, 69, 112
1, 38562, Note_off_c, 0, 69, 112
1, 38562, Note_on_c, 0, 66, 114
1, 38665, Note_off_c, 0, 66, 114
1, 38668, Note_on_c, 0, 63, 107
1, 38752, Note_off_c, 0, 63, 107
1, 38865, Note_on_c, 0, 59, 98
1, 38934, Note_off_c, 0, 59, 98
1, 38942, Note_on_c, 0, 63, 106
1, 39036, Note_off_c, 0, 63, 106
1, 39044, Note_on_c, 0, 61, 109
1, 39141, Note_on_c, 0, 57, 102
1, 39141, Note_off_c, 0, 61, 109
1, 39235, Note_off_c, 0, 57, 102
1, 39249, Note_on_c, 0, 54, 102
1, 39327, Note_off_c, 0, 54, 102
1, 39337, Note_on_c, 0, 61, 108
1, 39431, Note_off_c, 0, 61, 108
1, 39431, Note_on_c, 0, 59, 101
1, 39519, Note_off_c, 0, 59, 101
1, 39531, Note_on_c, 0, 54, 109
1, 39615, Note_off_c, 0, 54, 109
1, 39618, Note_on_c, 0, 57, 106
1, 39706, Note_off_c, 0, 57, 106
1, 39706, Note_on_c, 0, 55, 102
1, 39794, Note_off_c, 0, 55, 102
1, 39809, Note_on_c, 0, 58, 103
1, 39906, Note_off_c, 0, 58, 103
1, 39924, Note_on_c, 0, 60, 101
1, 39996, Note_off_c, 0, 60, 101
1, 40018, Note_on_c, 0, 53, 104
1, 40128, Note_off_c, 0, 53, 104
1, 40153, Note_on_c, 0, 62, 102
1, 40389, Note_off_c, 0, 62, 102
1, 40401, Note_on_c, 0, 61, 106
1, 40498, Note_off_c, 0, 61, 106
1, 40579, Note_on_c, 0, 63, 110
1, 40682, Note_off_c, 0, 63, 110
1, 40688, Note_on_c, 0, 58, 102
1, 40766, Note_off_c, 0, 58, 102
1, 40766, Note_on_c, 0, 53, 104
1, 40866, Note_off_c, 0, 53, 104
1, 40866, Note_on_c, 0, 56, 108
1, 40960, Note_off_c, 0, 56, 108
1, 40960, Note_on_c, 0, 58, 102
1, 41051, Note_off_c, 0, 58, 102
1, 41151, Note_on_c, 0, 62, 103
1, 41213, Note_off_c, 0, 62, 103
1, 41231, Note_on_c, 0, 63, 107
1, 41325, Note_off_c, 0, 63, 107
1, 41331, Note_on_c, 0, 65, 108
1, 41406, Note_off_c, 0, 65, 108
1, 41415, Note_on_c, 0, 66, 107
1, 41496, Note_off_c, 0, 66, 107
1, 41514, Note_on_c, 0, 70, 106
1, 41598, Note_off_c, 0, 70, 106
1, 41623, Note_on_c, 0, 72, 109
1, 41704, Note_off_c, 0, 72, 109
1, 42412, Note_on_c, 0, 72, 120
1, 42493, Note_off_c, 0, 72, 120
1, 42511, Note_on_c, 0, 72, 117
1, 42583, Note_off_c, 0, 72, 117
1, 42601, Note_on_c, 0, 70, 114
1, 42679, Note_off_c, 0, 70, 114
1, 42679, Note_on_c, 0, 69, 113
1, 42773, Note_off_c, 0, 69, 113
1, 42791, Note_on_c, 0, 66, 112
1, 42882, Note_off_c, 0, 66, 112
1, 42888, Note_on_c, 0, 63, 108
1, 42966, Note_off_c, 0, 63, 108
1, 42978, Note_on_c, 0, 60, 107
1, 43062, Note_off_c, 0, 60, 107
1, 43068, Note_on_c, 0, 58, 103
1, 43149, Note_off_c, 0, 58, 103
1, 43171, Note_on_c, 0, 57, 103
1, 43240, Note_off_c, 0, 57, 103
1, 43240, Note_on_c, 0, 54, 104
1, 43337, Note_off_c, 0, 54, 104
1, 43447, Note_on_c, 0, 62, 107
1, 43541, Note_off_c, 0, 62, 107
1, 43556, Note_on_c, 0, 59, 101
1, 43650, Note_off_c, 0, 59, 101
1, 43653, Note_on_c, 0, 63, 109
1, 43741, Note_off_c, 0, 63, 109
1, 43744, Note_on_c, 0, 58, 103
1, 43838, Note_off_c, 0, 58, 103
1, 43844, Note_on_c, 0, 57, 105
1, 43922, Note_off_c, 0, 57, 105
1, 43947, Note_on_c, 0, 56, 101
1, 44038, Note_off_c, 0, 56, 101
1, 44044, Note_on_c, 0, 58, 105
1, 44132, Note_off_c, 0, 58, 105
1, 44223, Note_on_c, 0, 66, 109
1, 44304, Note_off_c, 0, 66, 109
1, 44304, Note_on_c, 0, 62, 98
1, 44414, Note_off_c, 0, 62, 98
1, 44450, Note_on_c, 0, 60, 101
1, 44481, Note_off_c, 0, 60, 101
1, 44485, Note_on_c, 0, 64, 110
1, 44579, Note_off_c, 0, 64, 110
1, 44650, Note_on_c, 0, 66, 96
1, 44684, Note_off_c, 0, 66, 96
1, 44703, Note_on_c, 0, 69, 113
1, 44778, Note_off_c, 0, 69, 113
1, 44790, Note_on_c, 0, 70, 105
1, 44871, Note_off_c, 0, 70, 105
1, 44874, Note_on_c, 0, 71, 109
1, 44971, Note_off_c, 0, 71, 109
1, 44999, Note_on_c, 0, 73, 113
1, 45083, Note_off_c, 0, 73, 113
1, 45105, Note_on_c, 0, 72, 110
1, 45193, Note_off_c, 0, 72, 110
1, 45265, Note_on_c, 0, 73, 118
1, 45387, Note_off_c, 0, 73, 118
1, 45393, Note_on_c, 0, 68, 111
1, 45449, Note_off_c, 0, 68, 111
1, 45464, Note_on_c, 0, 65, 97
1, 45517, Note_off_c, 0, 65, 97
1, 45526, Note_on_c, 0, 61, 103
1, 45585, Note_off_c, 0, 61, 103
1, 46268, Note_on_c, 0, 72, 9
1, 46371, Note_off_c, 0, 72, 9
1, 46380, Note_on_c, 0, 75, 59
1, 46449, Note_off_c, 0, 75, 59
1, 46452, Note_on_c, 0, 69, 109
1, 46533, Note_off_c, 0, 69, 109
1, 46555, Note_on_c, 0, 63, 100
1, 46639, Note_off_c, 0, 63, 100
1, 47246, Note_on_c, 0, 70, 108
1, 47343, Note_off_c, 0, 70, 108
1, 47355, Note_on_c, 0, 66, 103
1, 47430, Note_off_c, 0, 66, 103
1, 47430, Note_on_c, 0, 63, 92
1, 47505, Note_off_c, 0, 63, 92
1, 47505, Note_on_c, 0, 58, 96
1, 47590, Note_off_c, 0, 58, 96
1, 47602, Note_on_c, 0, 69, 106
1, 47712, Note_off_c, 0, 69, 106
1, 47727, Note_on_c, 0, 66, 104
1, 47796, Note_off_c, 0, 66, 104
1, 47818, Note_on_c, 0, 61, 103
1, 47906, Note_off_c, 0, 61, 103
1, 47915, Note_on_c, 0, 58, 93
1, 47971, Note_off_c, 0, 58, 93
1, 47990, Note_on_c, 0, 60, 99
1, 48087, Note_off_c, 0, 60, 99
1, 48096, Note_on_c, 0, 61, 102
1, 48177, Note_off_c, 0, 61, 102
1, 48199, Note_on_c, 0, 65, 104
1, 48283, Note_off_c, 0, 65, 104
1, 48301, Note_on_c, 0, 57, 96
1, 48398, Note_off_c, 0, 57, 96
1, 48747, Note_on_c, 0, 63, 99
1, 49036, Note_off_c, 0, 63, 99
1, 49067, Note_on_c, 0, 61, 101
1, 49142, Note_off_c, 0, 61, 101
1, 49157, Note_on_c, 0, 57, 97
1, 49267, Note_off_c, 0, 57, 97
1, 49276, Note_on_c, 0, 61, 102
1, 49354, Note_off_c, 0, 61, 102
1, 49725, Note_on_c, 0, 59, 97
1, 49813, Note_off_c, 0, 59, 97
1, 49831, Note_on_c, 0, 57, 92
1, 49893, Note_off_c, 0, 57, 92
1, 49918, Note_on_c, 0, 58, 102
1, 49990, Note_off_c, 0, 58, 102
1, 50012, Note_on_c, 0, 60, 102
1, 50078, Note_off_c, 0, 60, 102
1, 50087, Note_on_c, 0, 56, 97
1, 50156, Note_off_c, 0, 56, 97
1, 50167, Note_on_c, 0, 57, 95
1, 50581, Note_off_c, 0, 57, 95
1, 50586, Note_on_c, 0, 58, 97
1, 50667, Note_off_c, 0, 58, 97
1, 50673, Note_on_c, 0, 59, 89
1, 50757, Note_on_c, 0, 61, 99
1, 50757, Note_off_c, 0, 59, 89
1, 50832, Note_off_c, 0, 61, 99
1, 50857, Note_on_c, 0, 63, 100
1, 50964, Note_off_c, 0, 63, 100
1, 50989, Note_on_c, 0, 65, 109
1, 51055, Note_off_c, 0, 65, 109
1, 51061, Note_on_c, 0, 66, 109
1, 51139, Note_off_c, 0, 66, 109
1, 51157, Note_on_c, 0, 63, 106
1, 51223, Note_off_c, 0, 63, 106
1, 51229, Note_on_c, 0, 62, 96
1, 51320, Note_off_c, 0, 62, 96
1, 51342, Note_on_c, 0, 61, 100
1, 51423, Note_off_c, 0, 61, 100
1, 51438, Note_on_c, 0, 64, 107
1, 51522, Note_off_c, 0, 64, 107
1, 51534, Note_on_c, 0, 66, 103
1, 51612, Note_off_c, 0, 66, 103
1, 51612, Note_on_c, 0, 69, 113
1, 51681, Note_off_c, 0, 69, 113
1, 51712, Note_on_c, 0, 69, 110
1, 51803, Note_off_c, 0, 69, 110
1, 51812, Note_on_c, 0, 67, 106
1, 51909, Note_off_c, 0, 67, 106
1, 51915, Note_on_c, 0, 71, 106
1, 51987, Note_off_c, 0, 71, 106
1, 52005, Note_on_c, 0, 73, 109
1, 52086, Note_off_c, 0, 73, 109
1, 52101, Note_on_c, 0, 75, 110
1, 52160, Note_off_c, 0, 75, 110
1, 52185, Note_on_c, 0, 76, 111
1, 52282, Note_off_c, 0, 76, 111
1, 52291, Note_on_c, 0, 77, 109
1, 52379, Note_off_c, 0, 77, 109
1, 52476, Note_on_c, 0, 77, 110
1, 52554, Note_off_c, 0, 77, 110
1, 52563, Note_on_c, 0, 79, 91
1, 52887, Note_off_c, 0, 79, 91
1, 53000, Note_on_c, 0, 67, 92
1, 53302, Note_off_c, 0, 67, 92
1, 53758, Note_on_c, 0, 65, 107
1, 53880, Note_off_c, 0, 65, 107
1, 53880, Note_on_c, 0, 62, 95
1, 53939, Note_off_c, 0, 62, 95
1, 53964, Note_on_c, 0, 66, 112
1, 54067, Note_off_c, 0, 66, 112
1, 54082, Note_on_c, 0, 64, 90
1, 54138, Note_off_c, 0, 64, 90
1, 54150, Note_on_c, 0, 67, 108
1, 54260, Note_off_c, 0, 67, 108
1, 54282, Note_on_c, 0, 64, 94
1, 54341, Note_off_c, 0, 64, 94
1, 54353, Note_on_c, 0, 70, 109
1, 54453, Note_off_c, 0, 70, 109
1, 54465, Note_on_c, 0, 64, 101
1, 54518, Note_off_c, 0, 64, 101
1, 54549, Note_on_c, 0, 69, 116
1, 54633, Note_off_c, 0, 69, 116
1, 54658, Note_on_c, 0, 64, 100
1, 54705, Note_off_c, 0, 64, 100
1, 54717, Note_on_c, 0, 68, 113
1, 54824, Note_off_c, 0, 68, 113
1, 54852, Note_on_c, 0, 67, 106
1, 54959, Note_off_c, 0, 67, 106
1, 55037, Note_on_c, 0, 73, 102
1, 55096, Note_off_c, 0, 73, 102
1, 55108, Note_on_c, 0, 76, 104
1, 55145, Note_off_c, 0, 76, 104
1, 55154, Note_on_c, 0, 77, 111
1, 55229, Note_off_c, 0, 77, 111
1, 55247, Note_on_c, 0, 79, 95
1, 55483, Note_off_c, 0, 79, 95
1, 55489, Note_on_c, 0, 73, 107
1, 55608, Note_off_c, 0, 73, 107
1, 56105, Note_on_c, 0, 72, 108
1, 56199, Note_off_c, 0, 72, 108
1, 56202, Note_on_c, 0, 73, 105
1, 56283, Note_off_c, 0, 73, 105
1, 56289, Note_on_c, 0, 75, 109
1, 56373, Note_off_c, 0, 75, 109
1, 56391, Note_on_c, 0, 71, 106
1, 56472, Note_off_c, 0, 71, 106
1, 56472, Note_on_c, 0, 70, 108
1, 56563, Note_off_c, 0, 70, 108
1, 56569, Note_on_c, 0, 69, 104
1, 56631, Note_on_c, 0, 68, 104
1, 56631, Note_off_c, 0, 69, 104
1, 56684, Note_off_c, 0, 68, 104
1, 56693, Note_on_c, 0, 70, 100
1, 56730, Note_off_c, 0, 70, 100
1, 56734, Note_on_c, 0, 73, 105
1, 56768, Note_off_c, 0, 73, 105
1, 56777, Note_on_c, 0, 75, 102
1, 56813, Note_off_c, 0, 75, 102
1, 56815, Note_on_c, 0, 76, 96
1, 56844, Note_off_c, 0, 76, 96
1, 56858, Note_on_c, 0, 68, 113
1, 56892, Note_off_c, 0, 68, 113
1, 56895, Note_on_c, 0, 65, 105
1, 56932, Note_off_c, 0, 65, 105
1, 56936, Note_on_c, 0, 64, 103
1, 56975, Note_off_c, 0, 64, 103
1, 56984, Note_on_c, 0, 62, 104
1, 57024, Note_off_c, 0, 62, 104
1, 57034, Note_on_c, 0, 61, 104
1, 57118, Note_off_c, 0, 61, 104
1, 57126, Note_on_c, 0, 63, 101
1, 57157, Note_off_c, 0, 63, 101
1, 57162, Note_on_c, 0, 66, 106
1, 57194, Note_off_c, 0, 66, 106
1, 57197, Note_on_c, 0, 68, 98
1, 57228, Note_off_c, 0, 68, 98
1, 57234, Note_on_c, 0, 71, 94
1, 57269, Note_off_c, 0, 71, 94
1, 57274, Note_on_c, 0, 73, 93
1, 57311, Note_off_c, 0, 73, 93
1, 57329, Note_on_c, 0, 75, 108
1, 57420, Note_off_c, 0, 75, 108
1, 57808, Note_on_c, 0, 78, 94
1, 57837, Note_off_c, 0, 78, 94
1, 57843, Note_on_c, 0, 75, 108
1, 58019, Note_off_c, 0, 75, 108
1, 58032, Note_on_c, 0, 76, 104
1, 58092, Note_off_c, 0, 76, 104
1, 58103, Note_on_c, 0, 75, 103
1, 58143, Note_off_c, 0, 75, 103
1, 58149, Note_on_c, 0, 71, 102
1, 58189, Note_off_c, 0, 71, 102
1, 58192, Note_on_c, 0, 68, 102
1, 58242, Note_off_c, 0, 68, 102
1, 58248, Note_on_c, 0, 64, 101
1, 58307, Note_off_c, 0, 64, 101
1, 58315, Note_on_c, 0, 68, 95
1, 58371, Note_off_c, 0, 68, 95
1, 58383, Note_on_c, 0, 69, 101
1, 58414, Note_off_c, 0, 69, 101
1, 58414, Note_on_c, 0, 63, 100
1, 58461, Note_off_c, 0, 63, 100
1, 58467, Note_on_c, 0, 62, 97
1, 58536, Note_off_c, 0, 62, 97
1, 58561, Note_on_c, 0, 63, 104
1, 58601, Note_off_c, 0, 63, 104
1, 58613, Note_on_c, 0, 69, 105
1, 58675, Note_off_c, 0, 69, 105
1, 58684, Note_on_c, 0, 68, 106
1, 58734, Note_off_c, 0, 68, 106
1, 58756, Note_on_c, 0, 60, 103
1, 58787, Note_on_c, 0, 58, 96
1, 58787, Note_off_c, 0, 60, 103
1, 58837, Note_off_c, 0, 58, 96
1, 58849, Note_on_c, 0, 60, 99
1, 58915, Note_off_c, 0, 60, 99
1, 59308, Note_on_c, 0, 68, 94
1, 59364, Note_off_c, 0, 68, 94
1, 59389, Note_on_c, 0, 64, 103
1, 59445, Note_off_c, 0, 64, 103
1, 59448, Note_on_c, 0, 68, 111
1, 59507, Note_off_c, 0, 68, 111
1, 59519, Note_on_c, 0, 69, 112
1, 59550, Note_off_c, 0, 69, 112
1, 59553, Note_on_c, 0, 63, 101
1, 59600, Note_off_c, 0, 63, 101
1, 59615, Note_on_c, 0, 62, 99
1, 59662, Note_off_c, 0, 62, 99
1, 59665, Note_on_c, 0, 61, 104
1, 59712, Note_off_c, 0, 61, 104
1, 59721, Note_on_c, 0, 64, 108
1, 59761, Note_off_c, 0, 64, 108
1, 59761, Note_on_c, 0, 69, 105
1, 59798, Note_off_c, 0, 69, 105
1, 59810, Note_on_c, 0, 68, 104
1, 59882, Note_off_c, 0, 68, 104
1, 59904, Note_on_c, 0, 71, 100
1, 59954, Note_off_c, 0, 71, 100
1, 59969, Note_on_c, 0, 58, 96
1, 60031, Note_off_c, 0, 58, 96
1, 60037, Note_on_c, 0, 60, 94
1, 60074, Note_off_c, 0, 60, 94
1, 60086, Note_on_c, 0, 63, 103
1, 60123, Note_off_c, 0, 63, 103
1, 60138, Note_on_c, 0, 68, 107
1, 60182, Note_off_c, 0, 68, 107
1, 60191, Note_on_c, 0, 67, 78
1, 60238, Note_off_c, 0, 67, 78
1, 60681, Note_on_c, 0, 67, 108
1, 60750, Note_off_c, 0, 67, 108
1, 60750, Note_on_c, 0, 63, 98
1, 60828, Note_off_c, 0, 63, 98
1, 60828, Note_on_c, 0, 60, 97
1, 60887, Note_off_c, 0, 60, 97
1, 60887, Note_on_c, 0, 68, 108
1, 60927, Note_off_c, 0, 68, 108
1, 60933, Note_on_c, 0, 66, 109
1, 60989, Note_off_c, 0, 66, 109
1, 61004, Note_on_c, 0, 62, 99
1, 61054, Note_off_c, 0, 62, 99
1, 61063, Note_on_c, 0, 61, 100
1, 61110, Note_off_c, 0, 61, 100
1, 61113, Note_on_c, 0, 64, 105
1, 61179, Note_off_c, 0, 64, 105
1, 61194, Note_on_c, 0, 65, 107
1, 61266, Note_off_c, 0, 65, 107
1, 61266, Note_on_c, 0, 66, 109
1, 61313, Note_off_c, 0, 66, 109
1, 61322, Note_on_c, 0, 61, 102
1, 61393, Note_off_c, 0, 61, 102
1, 61398, Note_on_c, 0, 60, 101
1, 61458, Note_off_c, 0, 60, 101
1, 61477, Note_on_c, 0, 59, 101
1, 61561, Note_off_c, 0, 59, 101
1, 61561, Note_on_c, 0, 62, 95
1, 61611, Note_off_c, 0, 62, 95
1, 61611, Note_on_c, 0, 66, 106
1, 61680, Note_off_c, 0, 66, 106
1, 61695, Note_on_c, 0, 64, 103
1, 61751, Note_off_c, 0, 64, 103
1, 61751, Note_on_c, 0, 67, 101
1, 61817, Note_off_c, 0, 67, 101
1, 61817, Note_on_c, 0, 64, 105
1, 61901, Note_off_c, 0, 64, 105
1, 61935, Note_on_c, 0, 69, 101
1, 62007, Note_off_c, 0, 69, 101
1, 62022, Note_on_c, 0, 66, 95
1, 62056, Note_off_c, 0, 66, 95
1, 62056, Note_on_c, 0, 63, 97
1, 62109, Note_off_c, 0, 63, 97
1, 62115, Note_on_c, 0, 62, 100
1, 62171, Note_off_c, 0, 62, 100
1, 62177, Note_on_c, 0, 61, 97
1, 62249, Note_off_c, 0, 61, 97
1, 62249, Note_on_c, 0, 64, 101
1, 62305, Note_off_c, 0, 64, 101
1, 62317, Note_on_c, 0, 69, 108
1, 62373, Note_off_c, 0, 69, 108
1, 62379, Note_on_c, 0, 66, 103
1, 62429, Note_off_c, 0, 66, 103
1, 62457, Note_on_c, 0, 61, 100
1, 62523, Note_off_c, 0, 61, 100
1, 62532, Note_on_c, 0, 58, 103
1, 62594, Note_off_c, 0, 58, 103
1, 62594, Note_on_c, 0, 59, 99
1, 62672, Note_off_c, 0, 59, 99
1, 62672, Note_on_c, 0, 62, 100
1, 62728, Note_off_c, 0, 62, 100
1, 62735, Note_on_c, 0, 59, 100
1, 62774, Note_off_c, 0, 59, 100
1, 62777, Note_on_c, 0, 55, 97
1, 62825, Note_off_c, 0, 55, 97
1, 62826, Note_on_c, 0, 57, 96
1, 63024, Note_off_c, 0, 57, 96
1, 63464, Note_on_c, 0, 54, 106
1, 63517, Note_off_c, 0, 54, 106
1, 63517, Note_on_c, 0, 56, 107
1, 63580, Note_off_c, 0, 56, 107
1, 63580, Note_on_c, 0, 58, 102
1, 63622, Note_off_c, 0, 58, 102
1, 63622, Note_on_c, 0, 61, 99
1, 63935, Note_off_c, 0, 61, 99
1, 63953, Note_on_c, 0, 59, 103
1, 64000, Note_off_c, 0, 59, 103
1, 64015, Note_on_c, 0, 58, 105
1, 64071, Note_off_c, 0, 58, 105
1, 64074, Note_on_c, 0, 57, 104
1, 64114, Note_off_c, 0, 57, 104
1, 64135, Note_on_c, 0, 56, 98
1, 64185, Note_off_c, 0, 56, 98
1, 64185, Note_on_c, 0, 58, 105
1, 64213, Note_off_c, 0, 58, 105
1, 64218, Note_on_c, 0, 61, 107
1, 64251, Note_off_c, 0, 61, 107
1, 64251, Note_on_c, 0, 63, 108
1, 64278, Note_off_c, 0, 63, 108
1, 64284, Note_on_c, 0, 65, 91
1, 64322, Note_off_c, 0, 65, 91
1, 64330, Note_on_c, 0, 68, 84
1, 64364, Note_off_c, 0, 68, 84
1, 64371, Note_on_c, 0, 68, 100
1, 64448, Note_off_c, 0, 68, 100
1, 64454, Note_on_c, 0, 62, 102
1, 64497, Note_off_c, 0, 62, 102
1, 64500, Note_on_c, 0, 61, 100
1, 64574, Note_off_c, 0, 61, 100
1, 64582, Note_on_c, 0, 63, 102
1, 64623, Note_off_c, 0, 63, 102
1, 64631, Note_on_c, 0, 65, 90
1, 64771, Note_off_c, 0, 65, 90
1, 64781, Note_on_c, 0, 76, 107
1, 64848, Note_off_c, 0, 76, 107
1, 64854, Note_on_c, 0, 75, 107
1, 64934, Note_off_c, 0, 75, 107
1, 65634, Note_on_c, 0, 74, 117
1, 65707, Note_off_c, 0, 74, 117
1, 65733, Note_on_c, 0, 75, 102
1, 65784, Note_off_c, 0, 75, 102
1, 65804, Note_on_c, 0, 76, 117
1, 65889, Note_off_c, 0, 76, 117
1, 65913, Note_on_c, 0, 78, 112
1, 65973, Note_off_c, 0, 78, 112
1, 66064, Note_on_c, 0, 82, 99
1, 66386, Note_off_c, 0, 82, 99
1, 66712, Note_on_c, 0, 80, 113
1, 66770, Note_off_c, 0, 80, 113
1, 66781, Note_on_c, 0, 75, 113
1, 66857, Note_off_c, 0, 75, 113
1, 66883, Note_on_c, 0, 70, 107
1, 66961, Note_off_c, 0, 70, 107
1, 67003, Note_on_c, 0, 66, 110
1, 67076, Note_off_c, 0, 66, 110
1, 67076, Note_on_c, 0, 68, 97
1, 67149, Note_off_c, 0, 68, 97
1, 67173, Note_on_c, 0, 71, 106
1, 67251, Note_off_c, 0, 71, 106
1, 67259, Note_on_c, 0, 73, 109
1, 67332, Note_off_c, 0, 73, 109
1, 67343, Note_on_c, 0, 76, 113
1, 67367, Note_off_c, 0, 76, 113
1, 67369, Note_on_c, 0, 75, 113
1, 67449, Note_off_c, 0, 75, 113
1, 67457, Note_on_c, 0, 76, 114
1, 67539, Note_off_c, 0, 76, 114
1, 67568, Note_on_c, 0, 80, 111
1, 67628, Note_off_c, 0, 80, 111
1, 67652, Note_on_c, 0, 81, 98
1, 67712, Note_off_c, 0, 81, 98
1, 67732, Note_on_c, 0, 79, 107
1, 67823, Note_off_c, 0, 79, 107
1, 67845, Note_on_c, 0, 75, 101
1, 68256, Note_off_c, 0, 75, 101
1, 68264, Note_on_c, 0, 71, 100
1, 68337, Note_off_c, 0, 71, 100
1, 68339, Note_on_c, 0, 70, 106
1, 68430, Note_off_c, 0, 70, 106
1, 68445, Note_on_c, 0, 69, 113
1, 68496, Note_off_c, 0, 69, 113
1, 68520, Note_on_c, 0, 68, 112
1, 68605, Note_off_c, 0, 68, 112
1, 68609, Note_on_c, 0, 70, 108
1, 68696, Note_off_c, 0, 70, 108
1, 68711, Note_on_c, 0, 71, 107
1, 68784, Note_off_c, 0, 71, 107
1, 68795, Note_on_c, 0, 73, 115
1, 68868, Note_off_c, 0, 73, 115
1, 68885, Note_on_c, 0, 74, 111
1, 68976, Note_off_c, 0, 74, 111
1, 68982, Note_on_c, 0, 75, 110
1, 69058, Note_off_c, 0, 75, 110
1, 69058, Note_on_c, 0, 70, 107
1, 69143, Note_off_c, 0, 70, 107
1, 69158, Note_on_c, 0, 69, 110
1, 69229, Note_off_c, 0, 69, 110
1, 69244, Note_on_c, 0, 67, 108
1, 69311, Note_off_c, 0, 67, 108
1, 69369, Note_on_c, 0, 71, 107
1, 69422, Note_off_c, 0, 71, 107
1, 69430, Note_on_c, 0, 72, 110
1, 69665, Note_off_c, 0, 72, 110
1, 69678, Note_on_c, 0, 71, 105
1, 69774, Note_off_c, 0, 71, 105
1, 69803, Note_on_c, 0, 70, 107
1, 69879, Note_off_c, 0, 70, 107
1, 69977, Note_on_c, 0, 69, 112
1, 70044, Note_off_c, 0, 69, 112
1, 70066, Note_on_c, 0, 68, 111
1, 70144, Note_off_c, 0, 68, 111
1, 70166, Note_on_c, 0, 66, 109
1, 70248, Note_off_c, 0, 66, 109
1, 70259, Note_on_c, 0, 65, 108
1, 70328, Note_off_c, 0, 65, 108
1, 70328, Note_on_c, 0, 61, 105
1, 70435, Note_off_c, 0, 61, 105
1, 70448, Note_on_c, 0, 58, 101
1, 70535, Note_off_c, 0, 58, 101
1, 70543, Note_on_c, 0, 54, 96
1, 70607, Note_off_c, 0, 54, 96
1, 70642, Note_on_c, 0, 60, 105
1, 70713, Note_off_c, 0, 60, 105
1, 70724, Note_on_c, 0, 62, 100
1, 70806, Note_off_c, 0, 62, 100
1, 70821, Note_on_c, 0, 58, 100
1, 70948, Note_off_c, 0, 58, 100
1, 70950, Note_on_c, 0, 54, 99
1, 71000, Note_off_c, 0, 54, 99
1, 71006, Note_on_c, 0, 56, 109
1, 71077, Note_off_c, 0, 56, 109
1, 71096, Note_on_c, 0, 54, 105
1, 71176, Note_off_c, 0, 54, 105
1, 71178, Note_on_c, 0, 53, 104
1, 71267, Note_off_c, 0, 53, 104
1, 71291, Note_on_c, 0, 58, 101
1, 71355, Note_off_c, 0, 58, 101
1, 71363, Note_on_c, 0, 53, 96
1, 71577, Note_off_c, 0, 53, 96
1, 71597, Note_on_c, 0, 51, 102
1, 71675, Note_off_c, 0, 51, 102
1, 71686, Note_on_c, 0, 49, 102
1, 71827, Note_off_c, 0, 49, 102
1, 72558, Note_on_c, 0, 60, 108
1, 72625, Note_off_c, 0, 60, 108
1, 72625, Note_on_c, 0, 58, 104
1, 72714, Note_off_c, 0, 58, 104
1, 72722, Note_on_c, 0, 53, 104
1, 72926, Note_off_c, 0, 53, 104
1, 72934, Note_on_c, 0, 55, 101
1, 73728, Note_off_c, 0, 55, 101
1, 73787, Note_on_c, 0, 55, 92
1, 73889, Note_off_c, 0, 55, 92
1, 74504, Note_on_c, 0, 58, 105
1, 74584, Note_off_c, 0, 58, 105
1, 74599, Note_on_c, 0, 53, 97
1, 74686, Note_off_c, 0, 53, 97
1, 74686, Note_on_c, 0, 58, 105
1, 74766, Note_off_c, 0, 58, 105
1, 74783, Note_on_c, 0, 62, 108
1, 74879, Note_off_c, 0, 62, 108
1, 74881, Note_on_c, 0, 58, 104
1, 74981, Note_off_c, 0, 58, 104
1, 74981, Note_on_c, 0, 53, 102
1, 75068, Note_off_c, 0, 53, 102
1, 75068, Note_on_c, 0, 57, 109
1, 75150, Note_off_c, 0, 57, 109
1, 75172, Note_on_c, 0, 53, 100
1, 75248, Note_off_c, 0, 53, 100
1, 75248, Note_on_c, 0, 56, 105
1, 75348, Note_off_c, 0, 56, 105
1, 75365, Note_on_c, 0, 53, 92
1, 75441, Note_off_c, 0, 53, 92
1, 75447, Note_on_c, 0, 55, 103
1, 75518, Note_off_c, 0, 55, 103
1, 75518, Note_on_c, 0, 49, 113
1, 75607, Note_off_c, 0, 49, 113
1, 75607, Note_on_c, 0, 55, 102
1, 75676, Note_off_c, 0, 55, 102
1, 75711, Note_on_c, 0, 55, 101
1, 75787, Note_off_c, 0, 55, 101
1, 75789, Note_on_c, 0, 49, 110
1, 75876, Note_off_c, 0, 49, 110
1, 75891, Note_on_c, 0, 53, 106
1, 75951, Note_off_c, 0, 53, 106
1, 75973, Note_on_c, 0, 64, 108
1, 76281, Note_off_c, 0, 64, 108
1, 76289, Note_on_c, 0, 59, 101
1, 76369, Note_off_c, 0, 59, 101
1, 76382, Note_on_c, 0, 53, 102
1, 76460, Note_off_c, 0, 53, 102
1, 76460, Note_on_c, 0, 51, 105
1, 76560, Note_off_c, 0, 51, 105
1, 76658, Note_on_c, 0, 63, 106
1, 76745, Note_off_c, 0, 63, 106
1, 76751, Note_on_c, 0, 62, 109
1, 76842, Note_off_c, 0, 62, 109
1, 76842, Note_on_c, 0, 50, 107
1, 76922, Note_off_c, 0, 50, 107
1, 76932, Note_on_c, 0, 57, 102
1, 77017, Note_off_c, 0, 57, 102
1, 77052, Note_on_c, 0, 62, 105
1, 77139, Note_off_c, 0, 62, 105
1, 77143, Note_on_c, 0, 61, 105
1, 77219, Note_off_c, 0, 61, 105
1, 77243, Note_on_c, 0, 62, 104
1, 77328, Note_off_c, 0, 62, 104
1, 77343, Note_on_c, 0, 58, 104
1, 77421, Note_off_c, 0, 58, 104
1, 77432, Note_on_c, 0, 50, 110
1, 77523, Note_off_c, 0, 50, 110
1, 77527, Note_on_c, 0, 55, 101
1, 77726, Note_off_c, 0, 55, 101
1, 77726, Note_on_c, 0, 50, 104
1, 77808, Note_off_c, 0, 50, 104
1, 77828, Note_on_c, 0, 58, 101
1, 77906, Note_off_c, 0, 58, 101
1, 77912, Note_on_c, 0, 55, 94
1, 78095, Note_off_c, 0, 55, 94
1, 78251, Note_on_c, 0, 58, 103
1, 78315, Note_off_c, 0, 58, 103
1, 78332, Note_on_c, 0, 55, 103
1, 78410, Note_off_c, 0, 55, 103
1, 78423, Note_on_c, 0, 52, 104
1, 78512, Note_off_c, 0, 52, 104
1, 78594, Note_on_c, 0, 63, 107
1, 78683, Note_off_c, 0, 63, 107
1, 78685, Note_on_c, 0, 58, 102
1, 78783, Note_off_c, 0, 58, 102
1, 78789, Note_on_c, 0, 56, 98
1, 78858, Note_off_c, 0, 56, 98
1, 79084, Note_on_c, 0, 57, 104
1, 79175, Note_off_c, 0, 57, 104
1, 79394, Note_on_c, 0, 59, 110
1, 79456, Note_off_c, 0, 59, 110
1, 79456, Note_on_c, 0, 54, 104
1, 79561, Note_off_c, 0, 54, 104
1, 79567, Note_on_c, 0, 57, 103
1, 79643, Note_off_c, 0, 57, 103
1, 79860, Note_on_c, 0, 62, 106
1, 79915, Note_off_c, 0, 62, 106
1, 79921, Note_on_c, 0, 61, 102
1, 79963, Note_off_c, 0, 61, 102
1, 79983, Note_on_c, 0, 63, 110
1, 80056, Note_on_c, 0, 59, 103
1, 80056, Note_off_c, 0, 63, 110
1, 80109, Note_off_c, 0, 59, 103
1, 80126, Note_on_c, 0, 57, 103
1, 80190, Note_off_c, 0, 57, 103
1, 80196, Note_on_c, 0, 54, 100
1, 80276, Note_off_c, 0, 54, 100
1, 80472, Note_on_c, 0, 56, 104
1, 80548, Note_off_c, 0, 56, 104
1, 80765, Note_on_c, 0, 58, 98
1, 80798, Note_off_c, 0, 58, 98
1, 80806, Note_on_c, 0, 60, 104
1, 80870, Note_off_c, 0, 60, 104
1, 80872, Note_on_c, 0, 56, 92
1, 80948, Note_off_c, 0, 56, 92
1, 81111, Note_on_c, 0, 61, 109
1, 81160, Note_off_c, 0, 61, 109
1, 81164, Note_on_c, 0, 59, 101
1, 81202, Note_off_c, 0, 59, 101
1, 81206, Note_on_c, 0, 57, 99
1, 81259, Note_off_c, 0, 57, 99
1, 81267, Note_on_c, 0, 56, 100
1, 81320, Note_off_c, 0, 56, 100
1, 81537, Note_on_c, 0, 58, 100
1, 81586, Note_off_c, 0, 58, 100
1, 81591, Note_on_c, 0, 59, 102
1, 81626, Note_on_c, 0, 61, 107
1, 81626, Note_off_c, 0, 59, 102
1, 81655, Note_off_c, 0, 61, 107
1, 81657, Note_on_c, 0, 62, 106
1, 81716, Note_off_c, 0, 62, 106
1, 81716, Note_on_c, 0, 63, 94
1, 81776, Note_off_c, 0, 63, 94
1, 82021, Note_on_c, 0, 58, 103
1, 82112, Note_off_c, 0, 58, 103
1, 82214, Note_on_c, 0, 56, 96
1, 82252, Note_off_c, 0, 56, 96
1, 82268, Note_on_c, 0, 58, 99
1, 82312, Note_off_c, 0, 58, 99
1, 82322, Note_on_c, 0, 59, 96
1, 82353, Note_off_c, 0, 59, 96
1, 82357, Note_on_c, 0, 61, 107
1, 82397, Note_off_c, 0, 61, 107
1, 82405, Note_on_c, 0, 62, 102
1, 82438, Note_off_c, 0, 62, 102
1, 82455, Note_on_c, 0, 65, 108
1, 82493, Note_off_c, 0, 65, 108
1, 82597, Note_on_c, 0, 63, 94
1, 82617, Note_off_c, 0, 63, 94
1, 82619, Note_on_c, 0, 62, 103
1, 82672, Note_off_c, 0, 62, 103
1, 82685, Note_on_c, 0, 61, 103
1, 82738, Note_off_c, 0, 61, 103
1, 82745, Note_on_c, 0, 63, 105
1, 82795, Note_off_c, 0, 63, 105
1, 82796, Note_on_c, 0, 65, 109
1, 82836, Note_off_c, 0, 65, 109
1, 82840, Note_on_c, 0, 66, 110
1, 82875, Note_off_c, 0, 66, 110
1, 82893, Note_on_c, 0, 61, 105
1, 82953, Note_off_c, 0, 61, 105
1, 82955, Note_on_c, 0, 59, 101
1, 82990, Note_off_c, 0, 59, 101
1, 82994, Note_on_c, 0, 54, 101
1, 83041, Note_off_c, 0, 54, 101
1, 83046, Note_on_c, 0, 59, 105
1, 83082, Note_off_c, 0, 59, 105
1, 83088, Note_on_c, 0, 62, 103
1, 83129, Note_off_c, 0, 62, 103
1, 83134, Note_on_c, 0, 66, 100
1, 83168, Note_off_c, 0, 66, 100
1, 83176, Note_on_c, 0, 69, 108
1, 83222, Note_off_c, 0, 69, 108
1, 83232, Note_on_c, 0, 72, 87
1, 83254, Note_off_c, 0, 72, 87
1, 83254, Note_on_c, 0, 73, 102
1, 83279, Note_off_c, 0, 73, 102
1, 83280, Note_on_c, 0, 72, 92
1, 83327, Note_off_c, 0, 72, 92
1, 83333, Note_on_c, 0, 72, 102
1, 83388, Note_off_c, 0, 72, 102
1, 83710, Note_on_c, 0, 72, 109
1, 83757, Note_off_c, 0, 72, 109
1, 83759, Note_on_c, 0, 69, 109
1, 83785, Note_off_c, 0, 69, 109
1, 83791, Note_on_c, 0, 67, 111
1, 83806, Note_off_c, 0, 67, 111
1, 83826, Note_on_c, 0, 63, 105
1, 83875, Note_off_c, 0, 63, 105
1, 83886, Note_on_c, 0, 62, 102
1, 83939, Note_off_c, 0, 62, 102
1, 84200, Note_on_c, 0, 68, 115
1, 84247, Note_off_c, 0, 68, 115
1, 84267, Note_on_c, 0, 66, 112
1, 84307, Note_off_c, 0, 66, 112
1, 84329, Note_on_c, 0, 61, 110
1, 84387, Note_off_c, 0, 61, 110
1, 84407, Note_on_c, 0, 59, 101
1, 84456, Note_off_c, 0, 59, 101
1, 84462, Note_on_c, 0, 60, 101
1, 84506, Note_off_c, 0, 60, 101
1, 84506, Note_on_c, 0, 62, 106
1, 84546, Note_off_c, 0, 62, 106
1, 84546, Note_on_c, 0, 54, 92
1, 84606, Note_off_c, 0, 54, 92
1, 84623, Note_on_c, 0, 57, 94
1, 84685, Note_off_c, 0, 57, 94
1, 85011, Note_on_c, 0, 54, 104
1, 85053, Note_off_c, 0, 54, 104
1, 85064, Note_on_c, 0, 57, 94
1, 85093, Note_off_c, 0, 57, 94
1, 85106, Note_on_c, 0, 63, 102
1, 85546, Note_on_c, 0, 59, 95
1, 85546, Note_off_c, 0, 63, 102
1, 85588, Note_off_c, 0, 59, 95
1, 85590, Note_on_c, 0, 58, 103
1, 85650, Note_off_c, 0, 58, 103
1, 85650, Note_on_c, 0, 62, 103
1, 85705, Note_off_c, 0, 62, 103
1, 85707, Note_on_c, 0, 61, 100
1, 85765, Note_on_c, 0, 60, 105
1, 85765, Note_off_c, 0, 61, 100
1, 85836, Note_off_c, 0, 60, 105
1, 85840, Note_on_c, 0, 63, 105
1, 85884, Note_off_c, 0, 63, 105
1, 85884, Note_on_c, 0, 57, 104
1, 85946, Note_off_c, 0, 57, 104
1, 85950, Note_on_c, 0, 56, 100
1, 86021, Note_off_c, 0, 56, 100
1, 86065, Note_on_c, 0, 61, 102
1, 86103, Note_off_c, 0, 61, 102
1, 86103, Note_on_c, 0, 58, 103
1, 86145, Note_off_c, 0, 58, 103
1, 86156, Note_on_c, 0, 56, 100
1, 86196, Note_off_c, 0, 56, 100
1, 86204, Note_on_c, 0, 57, 106
1, 86266, Note_off_c, 0, 57, 106
1, 86266, Note_on_c, 0, 58, 101
1, 86308, Note_off_c, 0, 58, 101
1, 86323, Note_on_c, 0, 59, 96
1, 86354, Note_off_c, 0, 59, 96
1, 86360, Note_on_c, 0, 62, 102
1, 86471, Note_off_c, 0, 62, 102
1, 86488, Note_on_c, 0, 68, 86
1, 86517, Note_off_c, 0, 68, 86
1, 86528, Note_on_c, 0, 67, 98
1, 86592, Note_off_c, 0, 67, 98
1, 86741, Note_on_c, 0, 62, 97
1, 86801, Note_off_c, 0, 62, 97
1, 86807, Note_on_c, 0, 61, 103
1, 86867, Note_off_c, 0, 61, 103
1, 86869, Note_on_c, 0, 63, 110
1, 86884, Note_off_c, 0, 63, 110
1, 86892, Note_on_c, 0, 66, 97
1, 86916, Note_off_c, 0, 66, 97
1, 86918, Note_on_c, 0, 69, 105
1, 86956, Note_off_c, 0, 69, 105
1, 86967, Note_on_c, 0, 73, 88
1, 87002, Note_off_c, 0, 73, 88
1, 87010, Note_on_c, 0, 76, 113
1, 87041, Note_off_c, 0, 76, 113
1, 87049, Note_on_c, 0, 77, 106
1, 87087, Note_off_c, 0, 77, 106
1, 87095, Note_on_c, 0, 75, 109
1, 87146, Note_off_c, 0, 75, 109
1, 87470, Note_on_c, 0, 72, 109
1, 87530, Note_off_c, 0, 72, 109
1, 87556, Note_on_c, 0, 75, 108
1, 87641, Note_off_c, 0, 75, 108
1, 87645, Note_on_c, 0, 73, 115
1, 87743, Note_off_c, 0, 73, 115
1, 87758, Note_on_c, 0, 69, 97
1, 87813, Note_off_c, 0, 69, 97
1, 87842, Note_on_c, 0, 66, 108
1, 87909, Note_off_c, 0, 66, 108
1, 87933, Note_on_c, 0, 73, 112
1, 88020, Note_off_c, 0, 73, 112
1, 88020, Note_on_c, 0, 71, 106
1, 88118, Note_off_c, 0, 71, 106
1, 88131, Note_on_c, 0, 66, 95
1, 88193, Note_off_c, 0, 66, 95
1, 88219, Note_on_c, 0, 69, 109
1, 88310, Note_off_c, 0, 69, 109
1, 88310, Note_on_c, 0, 66, 96
1, 88395, Note_off_c, 0, 66, 96
1, 88412, Note_on_c, 0, 67, 106
1, 88499, Note_off_c, 0, 67, 106
1, 88523, Note_on_c, 0, 67, 88
1, 88574, Note_off_c, 0, 67, 88
1, 88967, Note_on_c, 0, 72, 111
1, 89054, Note_off_c, 0, 72, 111
1, 89071, Note_on_c, 0, 75, 112
1, 89147, Note_off_c, 0, 75, 112
1, 89147, Note_on_c, 0, 73, 112
1, 89274, Note_off_c, 0, 73, 112
1, 89321, Note_on_c, 0, 67, 87
1, 89347, Note_off_c, 0, 67, 87
1, 89367, Note_on_c, 0, 70, 112
1, 89429, Note_off_c, 0, 70, 112
1, 89467, Note_on_c, 0, 73, 115
1, 89547, Note_off_c, 0, 73, 115
1, 89560, Note_on_c, 0, 72, 111
1, 89642, Note_off_c, 0, 72, 111
1, 89657, Note_on_c, 0, 71, 106
1, 89730, Note_off_c, 0, 71, 106
1, 89748, Note_on_c, 0, 70, 108
1, 89824, Note_off_c, 0, 70, 108
1, 89836, Note_on_c, 0, 69, 111
1, 89918, Note_off_c, 0, 69, 111
1, 89938, Note_on_c, 0, 68, 114
1, 90016, Note_off_c, 0, 68, 114
1, 90027, Note_on_c, 0, 66, 110
1, 90109, Note_off_c, 0, 66, 110
1, 90115, Note_on_c, 0, 65, 108
1, 90186, Note_off_c, 0, 65, 108
1, 90201, Note_on_c, 0, 64, 108
1, 90290, Note_off_c, 0, 64, 108
1, 90314, Note_on_c, 0, 63, 100
1, 90381, Note_off_c, 0, 63, 100
1, 90405, Note_on_c, 0, 62, 95
1, 90458, Note_off_c, 0, 62, 95
1, 90471, Note_on_c, 0, 66, 106
1, 90580, Note_off_c, 0, 66, 106
1, 90597, Note_on_c, 0, 70, 93
1, 90623, Note_off_c, 0, 70, 93
1, 90649, Note_on_c, 0, 74, 113
1, 90749, Note_off_c, 0, 74, 113
1, 90751, Note_on_c, 0, 77, 97
1, 90775, Note_off_c, 0, 77, 97
1, 90779, Note_on_c, 0, 78, 94
1, 91457, Note_off_c, 0, 78, 94
1, 91512, Note_on_c, 0, 74, 112
1, 91581, Note_off_c, 0, 74, 112
1, 91601, Note_on_c, 0, 70, 108
1, 91692, Note_off_c, 0, 70, 108
1, 91705, Note_on_c, 0, 66, 110
1, 91794, Note_off_c, 0, 66, 110
1, 91820, Note_on_c, 0, 62, 103
1, 91880, Note_off_c, 0, 62, 103
1, 91909, Note_on_c, 0, 58, 94
1, 91969, Note_off_c, 0, 58, 94
1, 91984, Note_on_c, 0, 63, 96
1, 92207, Note_off_c, 0, 63, 96
1, 92794, Note_on_c, 0, 58, 100
1, 92876, Note_off_c, 0, 58, 100
1, 92884, Note_on_c, 0, 62, 99
1, 92939, Note_off_c, 0, 62, 99
1, 92954, Note_on_c, 0, 63, 106
1, 93036, Note_off_c, 0, 63, 106
1, 93051, Note_on_c, 0, 64, 112
1, 93115, Note_off_c, 0, 64, 112
1, 93121, Note_on_c, 0, 65, 114
1, 93188, Note_off_c, 0, 65, 114
1, 93212, Note_on_c, 0, 66, 110
1, 93281, Note_off_c, 0, 66, 110
1, 93336, Note_on_c, 0, 71, 112
1, 93400, Note_off_c, 0, 71, 112
1, 93404, Note_on_c, 0, 74, 117
1, 93466, Note_off_c, 0, 74, 117
1, 93483, Note_on_c, 0, 75, 115
1, 93568, Note_off_c, 0, 75, 115
1, 93592, Note_on_c, 0, 76, 117
1, 93677, Note_off_c, 0, 76, 117
1, 93694, Note_on_c, 0, 77, 118
1, 93785, Note_off_c, 0, 77, 118
1, 93791, Note_on_c, 0, 76, 115
1, 93876, Note_off_c, 0, 76, 115
1, 93884, Note_on_c, 0, 72, 115
1, 93980, Note_off_c, 0, 72, 115
1, 93980, Note_on_c, 0, 75, 110
1, 94060, Note_off_c, 0, 75, 110
1, 94060, Note_on_c, 0, 73, 115
1, 94178, Note_off_c, 0, 73, 115
1, 94191, Note_on_c, 0, 68, 95
1, 94246, Note_off_c, 0, 68, 95
1, 94261, Note_on_c, 0, 70, 112
1, 94341, Note_off_c, 0, 70, 112
1, 94367, Note_on_c, 0, 73, 117
1, 94438, Note_off_c, 0, 73, 117
1, 94451, Note_on_c, 0, 73, 110
1, 94527, Note_off_c, 0, 73, 110
1, 94560, Note_on_c, 0, 73, 116
1, 94631, Note_off_c, 0, 73, 116
1, 94642, Note_on_c, 0, 72, 111
1, 94706, Note_off_c, 0, 72, 111
1, 94735, Note_on_c, 0, 75, 119
1, 94815, Note_off_c, 0, 75, 119
1, 94844, Note_on_c, 0, 73, 114
1, 94940, Note_off_c, 0, 73, 114
1, 94946, Note_on_c, 0, 66, 94
1, 95019, Note_off_c, 0, 66, 94
1, 95034, Note_on_c, 0, 70, 111
1, 95105, Note_off_c, 0, 70, 111
1, 95113, Note_on_c, 0, 72, 112
1, 95182, Note_off_c, 0, 72, 112
1, 95190, Note_on_c, 0, 71, 108
1, 95290, Note_off_c, 0, 71, 108
1, 95307, Note_on_c, 0, 69, 114
1, 95369, Note_off_c, 0, 69, 114
1, 95373, Note_on_c, 0, 70, 108
1, 95478, Note_off_c, 0, 70, 108
1, 95495, Note_on_c, 0, 68, 111
1, 95602, Note_off_c, 0, 68, 111
1, 95624, Note_on_c, 0, 70, 112
1, 95749, Note_off_c, 0, 70, 112
1, 96174, Note_on_c, 0, 67, 114
1, 96265, Note_off_c, 0, 67, 114
1, 96267, Note_on_c, 0, 68, 114
1, 96361, Note_off_c, 0, 68, 114
1, 96369, Note_on_c, 0, 67, 113
1, 96458, Note_off_c, 0, 67, 113
1, 96478, Note_on_c, 0, 64, 109
1, 96549, Note_off_c, 0, 64, 109
1, 96589, Note_on_c, 0, 70, 111
1, 96658, Note_off_c, 0, 70, 111
1, 96693, Note_on_c, 0, 70, 123
1, 96764, Note_off_c, 0, 70, 123
1, 96851, Note_on_c, 0, 67, 110
1, 96918, Note_off_c, 0, 67, 110
1, 96940, Note_on_c, 0, 66, 111
1, 97076, Note_off_c, 0, 66, 111
1, 97239, Note_on_c, 0, 66, 108
1, 97310, Note_off_c, 0, 66, 108
1, 97316, Note_on_c, 0, 64, 113
1, 97439, Note_off_c, 0, 64, 113
1, 97439, Note_on_c, 0, 66, 108
1, 97512, Note_off_c, 0, 66, 108
1, 97512, Note_on_c, 0, 69, 115
1, 97592, Note_off_c, 0, 69, 115
1, 97598, Note_on_c, 0, 70, 101
1, 97717, Note_off_c, 0, 70, 101
1, 97727, Note_on_c, 0, 66, 99
1, 97785, Note_off_c, 0, 66, 99
1, 97807, Note_on_c, 0, 64, 110
1, 97936, Note_off_c, 0, 64, 110
1, 98097, Note_on_c, 0, 66, 111
1, 98199, Note_off_c, 0, 66, 111
1, 98259, Note_on_c, 0, 64, 109
1, 98377, Note_off_c, 0, 64, 109
1, 98388, Note_on_c, 0, 67, 108
1, 98461, Note_off_c, 0, 67, 108
1, 98485, Note_on_c, 0, 66, 109
1, 98561, Note_off_c, 0, 66, 109
1, 98569, Note_on_c, 0, 65, 113
1, 98600, Note_off_c, 0, 65, 113
1, 98613, Note_on_c, 0, 64, 114
1, 98655, Note_off_c, 0, 64, 114
1, 98672, Note_on_c, 0, 62, 112
1, 98819, Note_off_c, 0, 62, 112
1, 98841, Note_on_c, 0, 61, 118
1, 99024, Note_off_c, 0, 61, 118
1, 99046, Note_on_c, 0, 70, 111
1, 99126, Note_off_c, 0, 70, 111
1, 99173, Note_on_c, 0, 64, 96
1, 99217, Note_off_c, 0, 64, 96
1, 99261, Note_on_c, 0, 69, 112
1, 99343, Note_off_c, 0, 69, 112
1, 99367, Note_on_c, 0, 75, 115
1, 99449, Note_off_c, 0, 75, 115
1, 99455, Note_on_c, 0, 69, 108
1, 99519, Note_off_c, 0, 69, 108
1, 99546, Note_on_c, 0, 65, 110
1, 99597, Note_off_c, 0, 65, 110
1, 99600, Note_on_c, 0, 63, 110
1, 99718, Note_off_c, 0, 63, 110
1, 99816, Note_on_c, 0, 68, 127
1, 99941, Note_off_c, 0, 68, 127
1, 99949, Note_on_c, 0, 66, 104
1, 100036, Note_off_c, 0, 66, 104
1, 100694, Note_on_c, 0, 72, 111
1, 100761, Note_off_c, 0, 72, 111
1, 100763, Note_on_c, 0, 71, 114
1, 100845, Note_off_c, 0, 71, 114
1, 100867, Note_on_c, 0, 66, 101
1, 100934, Note_off_c, 0, 66, 101
1, 100945, Note_on_c, 0, 69, 118
1, 101023, Note_off_c, 0, 69, 118
1, 101038, Note_on_c, 0, 70, 109
1, 101107, Note_off_c, 0, 70, 109
1, 101124, Note_on_c, 0, 71, 113
1, 101222, Note_off_c, 0, 71, 113
1, 101228, Note_on_c, 0, 73, 119
1, 101319, Note_off_c, 0, 73, 119
1, 101325, Note_on_c, 0, 70, 114
1, 101412, Note_off_c, 0, 70, 114
1, 101423, Note_on_c, 0, 69, 117
1, 101490, Note_off_c, 0, 69, 117
1, 101508, Note_on_c, 0, 68, 112
1, 101599, Note_off_c, 0, 68, 112
1, 101606, Note_on_c, 0, 69, 105
1, 101683, Note_off_c, 0, 69, 105
1, 101690, Note_on_c, 0, 71, 103
1, 101770, Note_off_c, 0, 71, 103
1, 101785, Note_on_c, 0, 67, 104
1, 101827, Note_off_c, 0, 67, 104
1, 101831, Note_on_c, 0, 66, 104
1, 101862, Note_off_c, 0, 66, 104
1, 101879, Note_on_c, 0, 64, 112
1, 102053, Note_off_c, 0, 64, 112
1, 102084, Note_on_c, 0, 64, 116
1, 102157, Note_off_c, 0, 64, 116
1, 102174, Note_on_c, 0, 64, 116
1, 102281, Note_off_c, 0, 64, 116
1, 102359, Note_on_c, 0, 64, 114
1, 102453, Note_off_c, 0, 64, 114
1, 102453, Note_on_c, 0, 67, 115
1, 102553, Note_off_c, 0, 67, 115
1, 102553, Note_on_c, 0, 66, 111
1, 102626, Note_off_c, 0, 66, 111
1, 102650, Note_on_c, 0, 63, 108
1, 102748, Note_off_c, 0, 63, 108
1, 102748, Note_on_c, 0, 62, 101
1, 102815, Note_off_c, 0, 62, 101
1, 102841, Note_on_c, 0, 66, 112
1, 102919, Note_off_c, 0, 66, 112
1, 102926, Note_on_c, 0, 69, 114
1, 103003, Note_off_c, 0, 69, 114
1, 103014, Note_on_c, 0, 67, 110
1, 103090, Note_off_c, 0, 67, 110
1, 103107, Note_on_c, 0, 62, 109
1, 103205, Note_off_c, 0, 62, 109
1, 103211, Note_on_c, 0, 61, 107
1, 103291, Note_off_c, 0, 61, 107
1, 103291, Note_on_c, 0, 64, 102
1, 103378, Note_off_c, 0, 64, 102
1, 103378, Note_on_c, 0, 67, 113
1, 103456, Note_off_c, 0, 67, 113
1, 103476, Note_on_c, 0, 67, 105
1, 103570, Note_off_c, 0, 67, 105
1, 103581, Note_on_c, 0, 64, 108
1, 103748, Note_off_c, 0, 64, 108
1, 103777, Note_on_c, 0, 69, 110
1, 103958, Note_off_c, 0, 69, 110
1, 104002, Note_on_c, 0, 66, 95
1, 104045, Note_off_c, 0, 66, 95
1, 104052, Note_on_c, 0, 67, 109
1, 104159, Note_off_c, 0, 67, 109
1, 104241, Note_on_c, 0, 65, 112
1, 104321, Note_off_c, 0, 65, 112
1, 104325, Note_on_c, 0, 66, 109
1, 104423, Note_off_c, 0, 66, 109
1, 104436, Note_on_c, 0, 70, 106
1, 104500, Note_off_c, 0, 70, 106
1, 104513, Note_on_c, 0, 71, 109
1, 104624, Note_off_c, 0, 71, 109
1, 104624, Note_on_c, 0, 74, 117
1, 104693, Note_off_c, 0, 74, 117
1, 104715, Note_on_c, 0, 75, 113
1, 104806, Note_off_c, 0, 75, 113
1, 104823, Note_on_c, 0, 76, 114
1, 104905, Note_off_c, 0, 76, 114
1, 104907, Note_on_c, 0, 71, 107
1, 104989, Note_off_c, 0, 71, 107
1, 105013, Note_on_c, 0, 69, 114
1, 105102, Note_off_c, 0, 69, 114
1, 105191, Note_on_c, 0, 75, 112
1, 105285, Note_off_c, 0, 75, 112
1, 105291, Note_on_c, 0, 73, 118
1, 105362, Note_off_c, 0, 73, 118
1, 105434, Note_on_c, 0, 68, 96
1, 105459, Note_off_c, 0, 68, 96
1, 105467, Note_on_c, 0, 70, 113
1, 105556, Note_off_c, 0, 70, 113
1, 105573, Note_on_c, 0, 73, 117
1, 105655, Note_off_c, 0, 73, 117
1, 105663, Note_on_c, 0, 72, 112
1, 105748, Note_off_c, 0, 72, 112
1, 106056, Note_on_c, 0, 64, 112
1, 106138, Note_off_c, 0, 64, 112
1, 106167, Note_on_c, 0, 60, 94
1, 106252, Note_off_c, 0, 60, 94
1, 106260, Note_on_c, 0, 61, 108
1, 106324, Note_off_c, 0, 61, 108
1, 106348, Note_on_c, 0, 68, 118
1, 106417, Note_off_c, 0, 68, 118
1, 106417, Note_on_c, 0, 64, 111
1, 106519, Note_off_c, 0, 64, 111
1, 106521, Note_on_c, 0, 62, 107
1, 106615, Note_off_c, 0, 62, 107
1, 106720, Note_on_c, 0, 62, 108
1, 106800, Note_off_c, 0, 62, 108
1, 106804, Note_on_c, 0, 61, 108
1, 106902, Note_off_c, 0, 61, 108
1, 106908, Note_on_c, 0, 64, 113
1, 106981, Note_off_c, 0, 64, 113
1, 106981, Note_on_c, 0, 69, 117
1, 107068, Note_off_c, 0, 69, 117
1, 107074, Note_on_c, 0, 68, 109
1, 107183, Note_off_c, 0, 68, 109
1, 107184, Note_on_c, 0, 61, 106
1, 107264, Note_off_c, 0, 61, 106
1, 107459, Note_on_c, 0, 62, 112
1, 107526, Note_off_c, 0, 62, 112
1, 107552, Note_on_c, 0, 62, 99
1, 107632, Note_off_c, 0, 62, 99
1, 107661, Note_on_c, 0, 62, 108
1, 107734, Note_off_c, 0, 62, 108
1, 107767, Note_on_c, 0, 61, 106
1, 107836, Note_off_c, 0, 61, 106
1, 107844, Note_on_c, 0, 63, 109
1, 107935, Note_off_c, 0, 63, 109
1, 107941, Note_on_c, 0, 58, 103
1, 108048, Note_off_c, 0, 58, 103
1, 108222, Note_on_c, 0, 57, 91
1, 108320, Note_off_c, 0, 57, 91
1, 108324, Note_on_c, 0, 53, 105
1, 108420, Note_off_c, 0, 53, 105
1, 108424, Note_on_c, 0, 56, 105
1, 108502, Note_off_c, 0, 56, 105
1, 108517, Note_on_c, 0, 55, 96
1, 108624, Note_off_c, 0, 55, 96
1, 108632, Note_on_c, 0, 58, 104
1, 108714, Note_off_c, 0, 58, 104
1, 108792, Note_on_c, 0, 65, 112
1, 108865, Note_off_c, 0, 65, 112
1, 108869, Note_on_c, 0, 61, 101
1, 108967, Note_off_c, 0, 61, 101
1, 108987, Note_on_c, 0, 63, 104
1, 109051, Note_off_c, 0, 63, 104
1, 109066, Note_on_c, 0, 65, 109
1, 109157, Note_off_c, 0, 65, 109
1, 109461, Note_on_c, 0, 73, 118
1, 109588, Note_off_c, 0, 73, 118
1, 109641, Note_on_c, 0, 65, 108
1, 109735, Note_off_c, 0, 65, 108
1, 109752, Note_on_c, 0, 70, 114
1, 109834, Note_off_c, 0, 70, 114
1, 109847, Note_on_c, 0, 63, 109
1, 109943, Note_off_c, 0, 63, 109
1, 109965, Note_on_c, 0, 63, 118
1, 110056, Note_off_c, 0, 63, 118
1, 110120, Note_on_c, 0, 63, 111
1, 110180, Note_off_c, 0, 63, 111
1, 110213, Note_on_c, 0, 65, 114
1, 110313, Note_off_c, 0, 65, 114
1, 110330, Note_on_c, 0, 63, 112
1, 110408, Note_off_c, 0, 63, 112
1, 110423, Note_on_c, 0, 64, 107
1, 110926, Note_off_c, 0, 64, 107
1, 110939, Note_on_c, 0, 66, 110
1, 111021, Note_off_c, 0, 66, 110
1, 111050, Note_on_c, 0, 69, 114
1, 111123, Note_off_c, 0, 69, 114
1, 111798, Note_on_c, 0, 67, 115
1, 111921, Note_off_c, 0, 67, 115
1, 111927, Note_on_c, 0, 64, 90
1, 111969, Note_off_c, 0, 64, 90
1, 111980, Note_on_c, 0, 65, 114
1, 112058, Note_off_c, 0, 65, 114
1, 112075, Note_on_c, 0, 64, 114
1, 112144, Note_off_c, 0, 64, 114
1, 112150, Note_on_c, 0, 65, 115
1, 112232, Note_off_c, 0, 65, 115
1, 112234, Note_on_c, 0, 66, 115
1, 112316, Note_off_c, 0, 66, 115
1, 112336, Note_on_c, 0, 66, 113
1, 112441, Note_off_c, 0, 66, 113
1, 112452, Note_on_c, 0, 64, 102
1, 112528, Note_off_c, 0, 64, 102
1, 112528, Note_on_c, 0, 67, 113
1, 112619, Note_off_c, 0, 67, 113
1, 112634, Note_on_c, 0, 66, 113
1, 112716, Note_off_c, 0, 66, 113
1, 112731, Note_on_c, 0, 63, 111
1, 112807, Note_off_c, 0, 63, 111
1, 112812, Note_on_c, 0, 62, 107
1, 112894, Note_off_c, 0, 62, 107
1, 112894, Note_on_c, 0, 65, 115
1, 112965, Note_off_c, 0, 65, 115
1, 112965, Note_on_c, 0, 69, 112
1, 113050, Note_off_c, 0, 69, 112
1, 113054, Note_on_c, 0, 65, 111
1, 113145, Note_off_c, 0, 65, 111
1, 113156, Note_on_c, 0, 66, 108
1, 113247, Note_off_c, 0, 66, 108
1, 113249, Note_on_c, 0, 61, 105
1, 113282, Note_off_c, 0, 61, 105
1, 113288, Note_on_c, 0, 62, 113
1, 113335, Note_off_c, 0, 62, 113
1, 113341, Note_on_c, 0, 61, 106
1, 113392, Note_off_c, 0, 61, 106
1, 113412, Note_on_c, 0, 64, 114
1, 113499, Note_off_c, 0, 64, 114
1, 113512, Note_on_c, 0, 58, 109
1, 113594, Note_off_c, 0, 58, 109
1, 113600, Note_on_c, 0, 54, 110
1, 113714, Note_off_c, 0, 54, 110
1, 113738, Note_on_c, 0, 58, 104
1, 114405, Note_off_c, 0, 58, 104
1, 114432, Note_on_c, 0, 56, 105
1, 114519, Note_off_c, 0, 56, 105
1, 114532, Note_on_c, 0, 58, 104
1, 114605, Note_off_c, 0, 58, 104
1, 114723, Note_on_c, 0, 66, 113
1, 114772, Note_off_c, 0, 66, 113
1, 114780, Note_on_c, 0, 68, 115
1, 114889, Note_off_c, 0, 68, 115
1, 114889, Note_on_c, 0, 66, 112
1, 114960, Note_off_c, 0, 66, 112
1, 114989, Note_on_c, 0, 62, 109
1, 115069, Note_off_c, 0, 62, 109
1, 115077, Note_on_c, 0, 58, 99
1, 115139, Note_off_c, 0, 58, 99
1, 115154, Note_on_c, 0, 63, 107
1, 115321, Note_off_c, 0, 63, 107
1, 115376, Note_on_c, 0, 68, 111
1, 115454, Note_off_c, 0, 68, 111
1, 115456, Note_on_c, 0, 70, 105
1, 115527, Note_off_c, 0, 70, 105
1, 115527, Note_on_c, 0, 66, 110
1, 115721, Note_off_c, 0, 66, 110
1, 115736, Note_on_c, 0, 68, 113
1, 115845, Note_off_c, 0, 68, 113
1, 115853, Note_on_c, 0, 66, 105
1, 115938, Note_off_c, 0, 66, 105
1, 116343, Note_on_c, 0, 68, 118
1, 116448, Note_off_c, 0, 68, 118
1, 116452, Note_on_c, 0, 66, 111
1, 116521, Note_off_c, 0, 66, 111
1, 116525, Note_on_c, 0, 63, 106
1, 116636, Note_off_c, 0, 63, 106
1, 116646, Note_on_c, 0, 58, 91
1, 116679, Note_off_c, 0, 58, 91
1, 116695, Note_on_c, 0, 62, 109
1, 116797, Note_off_c, 0, 62, 109
1, 116835, Note_on_c, 0, 68, 115
1, 116917, Note_off_c, 0, 68, 115
1, 117024, Note_on_c, 0, 62, 107
1, 117093, Note_off_c, 0, 62, 107
1, 117110, Note_on_c, 0, 66, 112
1, 117253, Note_off_c, 0, 66, 112
1, 117277, Note_on_c, 0, 69, 114
1, 117404, Note_off_c, 0, 69, 114
1, 117404, Note_on_c, 0, 67, 108
1, 117493, Note_off_c, 0, 67, 108
1, 117571, Note_on_c, 0, 72, 115
1, 117653, Note_off_c, 0, 72, 115
1, 117658, Note_on_c, 0, 71, 113
1, 117760, Note_off_c, 0, 71, 113
1, 117768, Note_on_c, 0, 67, 90
1, 117841, Note_off_c, 0, 67, 90
1, 117861, Note_on_c, 0, 69, 118
1, 117957, Note_off_c, 0, 69, 118
1, 117970, Note_on_c, 0, 66, 113
1, 118046, Note_off_c, 0, 66, 113
1, 118052, Note_on_c, 0, 64, 108
1, 118143, Note_off_c, 0, 64, 108
1, 118245, Note_on_c, 0, 66, 111
1, 118330, Note_off_c, 0, 66, 111
1, 118336, Note_on_c, 0, 70, 107
1, 118416, Note_off_c, 0, 70, 107
1, 118433, Note_on_c, 0, 68, 114
1, 118596, Note_off_c, 0, 68, 114
1, 118613, Note_on_c, 0, 65, 110
1, 118718, Note_off_c, 0, 65, 110
1, 118720, Note_on_c, 0, 63, 105
1, 118825, Note_off_c, 0, 63, 105
1, 118916, Note_on_c, 0, 61, 104
1, 118987, Note_off_c, 0, 61, 104
1, 118997, Note_on_c, 0, 56, 102
1, 119075, Note_off_c, 0, 56, 102
1, 119091, Note_on_c, 0, 58, 100
1, 119138, Note_off_c, 0, 58, 100
1, 119143, Note_on_c, 0, 60, 107
1, 119373, Note_off_c, 0, 60, 107
1, 119388, Note_on_c, 0, 58, 102
1, 119475, Note_off_c, 0, 58, 102
1, 119480, Note_on_c, 0, 55, 103
1, 119582, Note_off_c, 0, 55, 103
1, 120006, Note_on_c, 0, 57, 110
1, 120110, Note_off_c, 0, 57, 110
1, 120123, Note_on_c, 0, 54, 95
1, 120166, Note_off_c, 0, 54, 95
1, 120181, Note_on_c, 0, 58, 99
1, 120489, Note_off_c, 0, 58, 99
1, 120491, Note_on_c, 0, 61, 108
1, 120560, Note_off_c, 0, 61, 108
1, 120575, Note_on_c, 0, 63, 102
1, 120973, Note_off_c, 0, 63, 102
1, 120990, Note_on_c, 0, 59, 112
1, 121037, Note_off_c, 0, 59, 112
1, 121066, Note_on_c, 0, 63, 105
1, 121146, Note_off_c, 0, 63, 105
1, 121159, Note_on_c, 0, 61, 106
1, 121270, Note_off_c, 0, 61, 106
1, 121290, Note_on_c, 0, 53, 104
1, 121345, Note_off_c, 0, 53, 104
1, 121351, Note_on_c, 0, 58, 103
1, 121449, Note_off_c, 0, 58, 103
1, 121451, Note_on_c, 0, 61, 106
1, 121545, Note_off_c, 0, 61, 106
1, 121545, Note_on_c, 0, 58, 104
1, 121632, Note_off_c, 0, 58, 104
1, 121634, Note_on_c, 0, 56, 105
1, 121714, Note_off_c, 0, 56, 105
1, 121720, Note_on_c, 0, 53, 110
1, 121807, Note_off_c, 0, 53, 110
1, 121833, Note_on_c, 0, 56, 106
1, 121914, Note_off_c, 0, 56, 106
1, 121915, Note_on_c, 0, 55, 96
1, 122192, Note_off_c, 0, 55, 96
1, 122199, Note_on_c, 0, 58, 99
1, 122284, Note_off_c, 0, 58, 99
1, 122408, Note_on_c, 0, 65, 113
1, 122479, Note_off_c, 0, 65, 113
1, 122492, Note_on_c, 0, 61, 105
1, 122568, Note_off_c, 0, 61, 105
1, 122585, Note_on_c, 0, 63, 104
1, 122663, Note_off_c, 0, 63, 104
1, 122669, Note_on_c, 0, 65, 108
1, 122776, Note_off_c, 0, 65, 108
1, 122781, Note_on_c, 0, 70, 93
1, 122832, Note_off_c, 0, 70, 93
1, 122844, Note_on_c, 0, 73, 113
1, 122922, Note_off_c, 0, 73, 113
1, 122953, Note_on_c, 0, 77, 116
1, 123055, Note_off_c, 0, 77, 116
1, 123140, Note_on_c, 0, 73, 111
1, 123213, Note_off_c, 0, 73, 111
1, 123237, Note_on_c, 0, 70, 104
1, 123319, Note_off_c, 0, 70, 104
1, 123341, Note_on_c, 0, 65, 104
1, 123432, Note_off_c, 0, 65, 104
1, 123624, Note_on_c, 0, 66, 107
1, 123720, Note_off_c, 0, 66, 107
1, 123800, Note_on_c, 0, 72, 112
1, 123909, Note_off_c, 0, 72, 112
1, 124345, Note_on_c, 0, 73, 120
1, 124412, Note_off_c, 0, 73, 120
1, 124418, Note_on_c, 0, 72, 115
1, 124503, Note_off_c, 0, 72, 115
1, 124505, Note_on_c, 0, 70, 110
1, 124603, Note_off_c, 0, 70, 110
1, 124703, Note_on_c, 0, 75, 113
1, 124763, Note_off_c, 0, 75, 113
1, 124776, Note_on_c, 0, 73, 120
1, 124887, Note_off_c, 0, 73, 120
1, 124918, Note_on_c, 0, 67, 100
1, 124960, Note_off_c, 0, 67, 100
1, 124973, Note_on_c, 0, 70, 114
1, 125060, Note_off_c, 0, 70, 114
1, 125060, Note_on_c, 0, 72, 115
1, 125145, Note_off_c, 0, 72, 115
1, 125152, Note_on_c, 0, 71, 112
1, 125240, Note_off_c, 0, 71, 112
1, 125248, Note_on_c, 0, 72, 113
1, 125333, Note_off_c, 0, 72, 113
1, 125335, Note_on_c, 0, 70, 111
1, 125435, Note_off_c, 0, 70, 111
1, 125446, Note_on_c, 0, 69, 112
1, 125528, Note_off_c, 0, 69, 112
1, 125528, Note_on_c, 0, 68, 111
1, 125601, Note_off_c, 0, 68, 111
1, 125612, Note_on_c, 0, 70, 108
1, 125724, Note_off_c, 0, 70, 108
1, 125729, Note_on_c, 0, 71, 113
1, 125807, Note_off_c, 0, 71, 113
1, 125815, Note_on_c, 0, 70, 113
1, 125895, Note_off_c, 0, 70, 113
1, 125903, Note_on_c, 0, 69, 117
1, 125997, Note_off_c, 0, 69, 117
1, 126012, Note_on_c, 0, 66, 114
1, 126076, Note_off_c, 0, 66, 114
1, 126076, Note_on_c, 0, 63, 100
1, 126165, Note_off_c, 0, 63, 100
1, 126267, Note_on_c, 0, 66, 113
1, 126369, Note_off_c, 0, 66, 113
1, 126371, Note_on_c, 0, 69, 106
1, 126444, Note_off_c, 0, 69, 106
1, 126451, Note_on_c, 0, 67, 106
1, 126538, Note_off_c, 0, 67, 106
1, 126548, Note_on_c, 0, 63, 102
1, 126639, Note_off_c, 0, 63, 102
1, 126643, Note_on_c, 0, 62, 100
1, 126750, Note_off_c, 0, 62, 100
1, 126758, Note_on_c, 0, 57, 93
1, 126846, Note_off_c, 0, 57, 93
1, 126846, Note_on_c, 0, 59, 98
1, 126930, Note_off_c, 0, 59, 98
1, 126933, Note_on_c, 0, 62, 97
1, 127086, Note_off_c, 0, 62, 97
1, 127093, Note_on_c, 0, 63, 96
1, 127135, Note_off_c, 0, 63, 96
1, 127142, Note_on_c, 0, 63, 99
1, 127194, Note_off_c, 0, 63, 99
1, 127197, Note_on_c, 0, 59, 96
1, 127324, Note_off_c, 0, 59, 96
1, 127329, Note_on_c, 0, 54, 100
1, 127422, Note_off_c, 0, 54, 100
1, 127429, Note_on_c, 0, 57, 92
1, 127518, Note_off_c, 0, 57, 92
1, 127525, Note_on_c, 0, 57, 97
1, 127602, Note_off_c, 0, 57, 97
1, 127604, Note_on_c, 0, 55, 94
1, 127682, Note_off_c, 0, 55, 94
1, 127713, Note_on_c, 0, 58, 94
1, 127782, Note_off_c, 0, 58, 94
1, 127800, Note_on_c, 0, 59, 90
1, 127966, Note_off_c, 0, 59, 90
1, 127968, Note_on_c, 0, 55, 99
1, 128075, Note_off_c, 0, 55, 99
1, 128090, Note_on_c, 0, 50, 87
1, 128111, Note_off_c, 0, 50, 87
1, 128114, Note_on_c, 0, 48, 90
1, 128143, Note_off_c, 0, 48, 90
1, 128185, Note_on_c, 0, 55, 89
1, 128339, Note_off_c, 0, 55, 89
1, 128339, End_track
0, 0, End_of_file
