0, 0, Header, 1, 1, 192
1, 0, Start_track
1, 0, Title_t, "Melody"
1, 0, Tempo, 458015
1, 0, Key_signature, -1, "major"
1, 0, Time_signature, 4, 2, 24, 8
1, 1240, Note_on_c, 0, 55, 108
1, 1289, Note_off_c, 0, 55, 108
1, 1306, Note_on_c, 0, 58, 103
1, 1350, Note_off_c, 0, 58, 103
1, 1351, Note_on_c, 0, 60, 111
1, 1429, Note_off_c, 0, 60, 111
1, 1429, Note_on_c, 0, 63, 108
1, 1475, Note_on_c, 0, 65, 121
1, 1475, Note_off_c, 0, 63, 108
1, 1533, Note_off_c, 0, 65, 121
1, 1533, Note_on_c, 0, 67, 116
1, 1592, Note_off_c, 0, 67, 116
1, 1593, Note_on_c, 0, 70, 120
1, 1647, Note_off_c, 0, 70, 120
1, 1648, Note_on_c, 0, 72, 116
1, 2243, Note_off_c, 0, 72, 116
1, 2260, Note_on_c, 0, 70, 115
1, 2348, Note_off_c, 0, 70, 115
1, 2378, Note_on_c, 0, 69, 116
1, 2444, Note_off_c, 0, 69, 116
1, 2517, Note_on_c, 0, 69, 119
1, 2614, Note_off_c, 0, 69, 119
1, 2627, Note_on_c, 0, 67, 101
1, 2979, Note_off_c, 0, 67, 101
1, 3328, Note_on_c, 0, 55, 105
1, 3387, Note_off_c, 0, 55, 105
1, 3393, Note_on_c, 0, 58, 109
1, 3456, Note_off_c, 0, 58, 109
1, 3457, Note_on_c, 0, 56, 110
1, 3516, Note_off_c, 0, 56, 110
1, 3524, Note_on_c, 0, 58, 107
1, 3580, Note_off_c, 0, 58, 107
1, 3580, Note_on_c, 0, 60, 110
1, 3636, Note_off_c, 0, 60, 110
1, 3636, Note_on_c, 0, 63, 109
1, 3699, Note_off_c, 0, 63, 109
1, 3699, Note_on_c, 0, 65, 119
1, 3758, Note_off_c, 0, 65, 119
1, 3758, Note_on_c, 0, 68, 115
1, 3811, Note_off_c, 0, 68, 115
1, 3814, Note_on_c, 0, 70, 119
1, 3863, Note_off_c, 0, 70, 119
1, 3863, Note_on_c, 0, 72, 118
1, 3928, Note_off_c, 0, 72, 118
1, 3953, Note_on_c, 0, 72, 116
1, 4594, Note_off_c, 0, 72, 116
1, 4629, Note_on_c, 0, 77, 114
1, 4676, Note_off_c, 0, 77, 114
1, 4676, Note_on_c, 0, 75, 116
1, 4828, Note_off_c, 0, 75, 116
1, 4829, Note_on_c, 0, 72, 111
1, 4953, Note_off_c, 0, 72, 111
1, 4958, Note_on_c, 0, 70, 112
1, 5016, Note_off_c, 0, 70, 112
1, 5320, Note_on_c, 0, 69, 123
1, 5371, Note_off_c, 0, 69, 123
1, 5384, Note_on_c, 0, 70, 116
1, 5914, Note_off_c, 0, 70, 116
1, 5919, Note_on_c, 0, 69, 118
1, 5970, Note_off_c, 0, 69, 118
1, 5971, Note_on_c, 0, 70, 103
1, 6013, Note_off_c, 0, 70, 103
1, 6019, Note_on_c, 0, 72, 116
1, 6073, Note_off_c, 0, 72, 116
1, 6083, Note_on_c, 0, 70, 111
1, 6134, Note_off_c, 0, 70, 111
1, 6135, Note_on_c, 0, 69, 108
1, 6177, Note_off_c, 0, 69, 108
1, 6177, Note_on_c, 0, 70, 93
1, 6219, Note_off_c, 0, 70, 93
1, 6232, Note_on_c, 0, 72, 110
1, 6331, Note_off_c, 0, 72, 110
1, 6361, Note_on_c, 0, 72, 110
1, 6523, Note_off_c, 0, 72, 110
1, 6533, Note_on_c, 0, 68, 113
1, 6628, Note_off_c, 0, 68, 113
1, 6633, Note_on_c, 0, 67, 105
1, 6954, Note_off_c, 0, 67, 105
1, 7402, Note_on_c, 0, 55, 108
1, 7449, Note_off_c, 0, 55, 108
1, 7450, Note_on_c, 0, 57, 110
1, 7494, Note_off_c, 0, 57, 110
1, 7500, Note_on_c, 0, 60, 111
1, 7559, Note_off_c, 0, 60, 111
1, 7565, Note_on_c, 0, 61, 109
1, 7618, Note_off_c, 0, 61, 109
1, 7645, Note_on_c, 0, 63, 110
1, 7696, Note_off_c, 0, 63, 110
1, 7702, Note_on_c, 0, 65, 116
1, 7755, Note_off_c, 0, 65, 116
1, 7761, Note_on_c, 0, 67, 120
1, 7812, Note_off_c, 0, 67, 120
1, 7813, Note_on_c, 0, 70, 118
1, 7859, Note_off_c, 0, 70, 118
1, 7860, Note_on_c, 0, 72, 113
1, 7914, Note_off_c, 0, 72, 113
1, 7922, Note_on_c, 0, 73, 125
1, 7980, Note_off_c, 0, 73, 125
1, 7986, Note_on_c, 0, 75, 118
1, 8028, Note_off_c, 0, 75, 118
1, 8028, Note_on_c, 0, 72, 115
1, 8359, Note_off_c, 0, 72, 115
1, 8374, Note_on_c, 0, 72, 116
1, 8450, Note_off_c, 0, 72, 116
1, 8465, Note_on_c, 0, 72, 110
1, 8779, Note_off_c, 0, 72, 110
1, 8825, Note_on_c, 0, 70, 117
1, 8881, Note_off_c, 0, 70, 117
1, 8881, Note_on_c, 0, 67, 102
1, 8920, Note_off_c, 0, 67, 102
1, 8920, Note_on_c, 0, 70, 118
1, 8961, Note_off_c, 0, 70, 118
1, 8961, Note_on_c, 0, 72, 114
1, 8996, Note_off_c, 0, 72, 114
1, 9018, Note_on_c, 0, 65, 91
1, 9062, Note_off_c, 0, 65, 91
1, 9070, Note_on_c, 0, 67, 115
1, 9152, Note_off_c, 0, 67, 115
1, 9359, Note_on_c, 0, 72, 121
1, 9398, Note_off_c, 0, 72, 121
1, 9398, Note_on_c, 0, 70, 119
1, 9440, Note_off_c, 0, 70, 119
1, 9440, Note_on_c, 0, 67, 104
1, 9482, Note_off_c, 0, 67, 104
1, 9497, Note_on_c, 0, 63, 106
1, 9534, Note_off_c, 0, 63, 106
1, 9534, Note_on_c, 0, 60, 103
1, 9571, Note_off_c, 0, 60, 103
1, 9571, Note_on_c, 0, 66, 120
1, 9589, Note_off_c, 0, 66, 120
1, 9595, Note_on_c, 0, 67, 116
1, 9661, Note_off_c, 0, 67, 116
1, 9890, Note_on_c, 0, 58, 107
1, 9934, Note_off_c, 0, 58, 107
1, 9934, Note_on_c, 0, 60, 99
1, 10231, Note_off_c, 0, 60, 99
1, 10420, Note_on_c, 0, 61, 112
1, 10473, Note_off_c, 0, 61, 112
1, 10474, Note_on_c, 0, 62, 110
1, 10773, Note_off_c, 0, 62, 110
1, 10786, Note_on_c, 0, 65, 113
1, 10820, Note_off_c, 0, 65, 113
1, 10826, Note_on_c, 0, 68, 117
1, 10858, Note_off_c, 0, 68, 117
1, 10864, Note_on_c, 0, 72, 118
1, 10901, Note_off_c, 0, 72, 118
1, 10907, Note_on_c, 0, 70, 119
1, 10949, Note_off_c, 0, 70, 119
1, 10955, Note_on_c, 0, 68, 107
1, 11004, Note_off_c, 0, 68, 107
1, 11015, Note_on_c, 0, 70, 121
1, 11042, Note_off_c, 0, 70, 121
1, 11042, Note_on_c, 0, 71, 118
1, 11096, Note_off_c, 0, 71, 118
1, 11383, Note_on_c, 0, 73, 123
1, 11420, Note_off_c, 0, 73, 123
1, 11425, Note_on_c, 0, 74, 115
1, 11755, Note_off_c, 0, 74, 115
1, 11760, Note_on_c, 0, 72, 114
1, 11814, Note_off_c, 0, 72, 114
1, 11817, Note_on_c, 0, 74, 106
1, 11854, Note_off_c, 0, 74, 106
1, 11857, Note_on_c, 0, 75, 118
1, 11904, Note_off_c, 0, 75, 118
1, 11912, Note_on_c, 0, 76, 122
1, 11947, Note_off_c, 0, 76, 122
1, 11947, Note_on_c, 0, 77, 117
1, 12003, Note_off_c, 0, 77, 117
1, 12006, Note_on_c, 0, 76, 119
1, 12057, Note_off_c, 0, 76, 119
1, 12058, Note_on_c, 0, 75, 118
1, 12107, Note_off_c, 0, 75, 118
1, 12108, Note_on_c, 0, 72, 116
1, 12147, Note_off_c, 0, 72, 116
1, 12150, Note_on_c, 0, 71, 117
1, 12206, Note_off_c, 0, 71, 117
1, 12211, Note_on_c, 0, 75, 116
1, 12250, Note_off_c, 0, 75, 116
1, 12253, Note_on_c, 0, 74, 119
1, 12299, Note_off_c, 0, 74, 119
1, 12302, Note_on_c, 0, 69, 121
1, 12349, Note_off_c, 0, 69, 121
1, 12349, Note_on_c, 0, 66, 113
1, 12384, Note_off_c, 0, 66, 113
1, 12409, Note_on_c, 0, 74, 120
1, 12436, Note_off_c, 0, 74, 120
1, 12436, Note_on_c, 0, 71, 115
1, 12482, Note_off_c, 0, 71, 115
1, 12482, Note_on_c, 0, 69, 120
1, 12521, Note_off_c, 0, 69, 120
1, 12522, Note_on_c, 0, 70, 119
1, 12571, Note_off_c, 0, 70, 119
1, 12572, Note_on_c, 0, 69, 117
1, 12618, Note_off_c, 0, 69, 117
1, 12619, Note_on_c, 0, 68, 123
1, 12670, Note_off_c, 0, 68, 123
1, 12671, Note_on_c, 0, 70, 122
1, 12718, Note_off_c, 0, 70, 122
1, 12719, Note_on_c, 0, 71, 103
1, 12756, Note_off_c, 0, 71, 103
1, 12761, Note_on_c, 0, 74, 120
1, 12824, Note_off_c, 0, 74, 120
1, 12825, Note_on_c, 0, 72, 113
1, 12867, Note_off_c, 0, 72, 113
1, 12867, Note_on_c, 0, 70, 109
1, 12901, Note_off_c, 0, 70, 109
1, 12904, Note_on_c, 0, 65, 115
1, 12948, Note_off_c, 0, 65, 115
1, 12948, Note_on_c, 0, 63, 104
1, 12985, Note_off_c, 0, 63, 104
1, 13010, Note_on_c, 0, 68, 117
1, 13057, Note_off_c, 0, 68, 117
1, 13058, Note_on_c, 0, 70, 108
1, 13312, Note_off_c, 0, 70, 108
1, 13320, Note_on_c, 0, 67, 115
1, 13369, Note_off_c, 0, 67, 115
1, 13369, Note_on_c, 0, 62, 109
1, 13420, Note_off_c, 0, 62, 109
1, 13433, Note_on_c, 0, 58, 85
1, 13463, Note_off_c, 0, 58, 85
1, 13736, Note_on_c, 0, 60, 106
1, 13789, Note_off_c, 0, 60, 106
1, 13789, Note_on_c, 0, 58, 101
1, 13819, Note_off_c, 0, 58, 101
1, 13819, Note_on_c, 0, 53, 100
1, 13851, Note_off_c, 0, 53, 100
1, 13871, Note_on_c, 0, 58, 109
1, 13917, Note_off_c, 0, 58, 109
1, 13928, Note_on_c, 0, 56, 117
1, 13972, Note_off_c, 0, 56, 117
1, 13975, Note_on_c, 0, 58, 110
1, 14017, Note_off_c, 0, 58, 110
1, 14073, Note_on_c, 0, 62, 110
1, 14105, Note_on_c, 0, 65, 118
1, 14105, Note_off_c, 0, 62, 110
1, 14154, Note_off_c, 0, 65, 118
1, 14157, Note_on_c, 0, 68, 126
1, 14199, Note_off_c, 0, 68, 126
1, 14200, Note_on_c, 0, 67, 122
1, 14239, Note_off_c, 0, 67, 122
1, 14333, Note_on_c, 0, 64, 100
1, 14439, Note_off_c, 0, 64, 100
1, 14445, Note_on_c, 0, 60, 102
1, 14484, Note_off_c, 0, 60, 102
1, 14487, Note_on_c, 0, 62, 110
1, 14524, Note_off_c, 0, 62, 110
1, 14525, Note_on_c, 0, 64, 103
1, 14569, Note_off_c, 0, 64, 103
1, 14574, Note_on_c, 0, 67, 118
1, 14620, Note_off_c, 0, 67, 118
1, 14626, Note_on_c, 0, 70, 110
1, 14661, Note_off_c, 0, 70, 110
1, 14661, Note_on_c, 0, 65, 113
1, 14717, Note_off_c, 0, 65, 113
1, 14725, Note_on_c, 0, 66, 112
1, 14783, Note_off_c, 0, 66, 112
1, 14825, Note_on_c, 0, 70, 117
1, 14859, Note_off_c, 0, 70, 117
1, 14862, Note_on_c, 0, 71, 114
1, 14916, Note_off_c, 0, 71, 114
1, 14926, Note_on_c, 0, 75, 114
1, 14972, Note_off_c, 0, 75, 114
1, 14972, Note_on_c, 0, 73, 116
1, 15026, Note_off_c, 0, 73, 116
1, 15068, Note_on_c, 0, 70, 117
1, 15110, Note_off_c, 0, 70, 117
1, 15111, Note_on_c, 0, 73, 119
1, 15173, Note_off_c, 0, 73, 119
1, 15174, Note_on_c, 0, 72, 115
1, 15206, Note_off_c, 0, 72, 115
1, 15206, Note_on_c, 0, 71, 112
1, 15247, Note_off_c, 0, 71, 112
1, 15248, Note_on_c, 0, 70, 114
1, 15299, Note_off_c, 0, 70, 114
1, 15303, Note_on_c, 0, 69, 118
1, 15349, Note_off_c, 0, 69, 118
1, 15355, Note_on_c, 0, 68, 117
1, 15397, Note_off_c, 0, 68, 117
1, 15401, Note_on_c, 0, 67, 117
1, 15437, Note_off_c, 0, 67, 117
1, 15441, Note_on_c, 0, 66, 111
1, 15482, Note_on_c, 0, 64, 105
1, 15482, Note_off_c, 0, 66, 111
1, 15529, Note_off_c, 0, 64, 105
1, 15532, Note_on_c, 0, 63, 103
1, 15569, Note_off_c, 0, 63, 103
1, 15569, Note_on_c, 0, 62, 109
1, 15595, Note_off_c, 0, 62, 109
1, 15601, Note_on_c, 0, 61, 104
1, 15723, Note_off_c, 0, 61, 104
1, 15726, Note_on_c, 0, 61, 101
1, 15918, Note_off_c, 0, 61, 101
1, 16019, Note_on_c, 0, 69, 90
1, 16275, Note_off_c, 0, 69, 90
1, 16804, Note_on_c, 0, 72, 120
1, 16894, Note_off_c, 0, 72, 120
1, 16906, Note_on_c, 0, 69, 122
1, 16996, Note_off_c, 0, 69, 122
1, 17013, Note_on_c, 0, 64, 106
1, 17086, Note_off_c, 0, 64, 106
1, 17126, Note_on_c, 0, 61, 108
1, 17214, Note_off_c, 0, 61, 108
1, 17215, Note_on_c, 0, 60, 107
1, 17337, Note_off_c, 0, 60, 107
1, 17366, Note_on_c, 0, 60, 104
1, 17522, Note_off_c, 0, 60, 104
1, 17529, Note_on_c, 0, 67, 107
1, 17827, Note_off_c, 0, 67, 107
1, 18675, Note_on_c, 0, 73, 119
1, 18710, Note_off_c, 0, 73, 119
1, 18710, Note_on_c, 0, 74, 120
1, 18764, Note_off_c, 0, 74, 120
1, 18764, Note_on_c, 0, 77, 107
1, 20153, Note_off_c, 0, 77, 107
1, 20163, Note_on_c, 0, 76, 116
1, 20217, Note_off_c, 0, 76, 116
1, 20230, Note_on_c, 0, 75, 114
1, 20308, Note_off_c, 0, 75, 114
1, 20352, Note_on_c, 0, 75, 114
1, 20415, Note_on_c, 0, 74, 117
1, 20415, Note_off_c, 0, 75, 114
1, 20471, Note_off_c, 0, 74, 117
1, 20472, Note_on_c, 0, 73, 115
1, 20545, Note_off_c, 0, 73, 115
1, 20553, Note_on_c, 0, 67, 90
1, 20587, Note_off_c, 0, 67, 90
1, 20595, Note_on_c, 0, 73, 122
1, 20660, Note_off_c, 0, 73, 122
1, 20660, Note_on_c, 0, 72, 114
1, 20706, Note_off_c, 0, 72, 114
1, 20706, Note_on_c, 0, 71, 115
1, 20789, Note_off_c, 0, 71, 115
1, 20797, Note_on_c, 0, 65, 100
1, 20838, Note_off_c, 0, 65, 100
1, 20838, Note_on_c, 0, 70, 117
1, 20880, Note_off_c, 0, 70, 117
1, 20886, Note_on_c, 0, 69, 118
1, 20937, Note_off_c, 0, 69, 118
1, 20943, Note_on_c, 0, 68, 118
1, 21049, Note_off_c, 0, 68, 118
1, 21133, Note_on_c, 0, 58, 118
1, 21146, Note_off_c, 0, 58, 118
1, 21146, Note_on_c, 0, 59, 110
1, 21166, Note_off_c, 0, 59, 110
1, 21169, Note_on_c, 0, 62, 96
1, 21179, Note_off_c, 0, 62, 96
1, 21183, Note_on_c, 0, 68, 113
1, 21249, Note_off_c, 0, 68, 113
1, 21251, Note_on_c, 0, 63, 103
1, 21298, Note_off_c, 0, 63, 103
1, 21301, Note_on_c, 0, 70, 112
1, 21328, Note_off_c, 0, 70, 112
1, 21346, Note_on_c, 0, 65, 113
1, 21423, Note_off_c, 0, 65, 113
1, 22010, Note_on_c, 0, 66, 114
1, 22056, Note_off_c, 0, 66, 114
1, 22061, Note_on_c, 0, 70, 107
1, 22103, Note_off_c, 0, 70, 107
1, 22103, Note_on_c, 0, 74, 126
1, 22157, Note_off_c, 0, 74, 126
1, 22163, Note_on_c, 0, 72, 123
1, 22198, Note_off_c, 0, 72, 123
1, 22198, Note_on_c, 0, 70, 121
1, 22247, Note_off_c, 0, 70, 121
1, 22253, Note_on_c, 0, 74, 122
1, 22306, Note_off_c, 0, 74, 122
1, 22306, Note_on_c, 0, 70, 121
1, 22353, Note_off_c, 0, 70, 121
1, 22363, Note_on_c, 0, 67, 114
1, 22407, Note_off_c, 0, 67, 114
1, 22412, Note_on_c, 0, 62, 109
1, 22463, Note_off_c, 0, 62, 109
1, 22493, Note_on_c, 0, 67, 126
1, 22547, Note_off_c, 0, 67, 126
1, 22550, Note_on_c, 0, 65, 118
1, 22594, Note_off_c, 0, 65, 118
1, 22594, Note_on_c, 0, 62, 110
1, 22633, Note_off_c, 0, 62, 110
1, 22633, Note_on_c, 0, 58, 103
1, 22667, Note_off_c, 0, 58, 103
1, 22667, Note_on_c, 0, 60, 113
1, 22716, Note_off_c, 0, 60, 113
1, 22716, Note_on_c, 0, 63, 107
1, 22765, Note_off_c, 0, 63, 107
1, 22766, Note_on_c, 0, 58, 106
1, 22812, Note_off_c, 0, 58, 106
1, 22817, Note_on_c, 0, 53, 109
1, 22847, Note_off_c, 0, 53, 109
1, 22847, Note_on_c, 0, 61, 115
1, 22889, Note_off_c, 0, 61, 115
1, 22895, Note_on_c, 0, 63, 106
1, 22939, Note_off_c, 0, 63, 106
1, 22947, Note_on_c, 0, 60, 110
1, 22998, Note_off_c, 0, 60, 110
1, 23004, Note_on_c, 0, 58, 104
1, 23077, Note_off_c, 0, 58, 104
1, 23126, Note_on_c, 0, 56, 108
1, 23167, Note_off_c, 0, 56, 108
1, 23175, Note_on_c, 0, 57, 106
1, 23287, Note_off_c, 0, 57, 106
1, 23288, Note_on_c, 0, 58, 99
1, 23335, Note_off_c, 0, 58, 99
1, 23368, Note_on_c, 0, 64, 103
1, 23400, Note_off_c, 0, 64, 103
1, 23406, Note_on_c, 0, 67, 115
1, 23442, Note_off_c, 0, 67, 115
1, 23450, Note_on_c, 0, 69, 106
1, 23482, Note_off_c, 0, 69, 106
1, 23488, Note_on_c, 0, 71, 115
1, 23531, Note_off_c, 0, 71, 115
1, 23538, Note_on_c, 0, 76, 117
1, 23581, Note_off_c, 0, 76, 117
1, 23599, Note_on_c, 0, 79, 107
1, 23713, Note_off_c, 0, 79, 107
1, 23726, Note_on_c, 0, 76, 117
1, 23768, Note_off_c, 0, 76, 117
1, 23778, Note_on_c, 0, 71, 116
1, 23821, Note_off_c, 0, 71, 116
1, 23829, Note_on_c, 0, 69, 116
1, 23866, Note_off_c, 0, 69, 116
1, 23876, Note_on_c, 0, 64, 103
1, 23917, Note_off_c, 0, 64, 103
1, 23930, Note_on_c, 0, 59, 105
1, 23971, Note_off_c, 0, 59, 105
1, 23981, Note_on_c, 0, 56, 107
1, 24032, Note_off_c, 0, 56, 107
1, 24321, Note_on_c, 0, 63, 110
1, 24378, Note_off_c, 0, 63, 110
1, 24388, Note_on_c, 0, 61, 112
1, 24454, Note_off_c, 0, 61, 112
1, 24454, Note_on_c, 0, 56, 110
1, 24494, Note_off_c, 0, 56, 110
1, 24504, Note_on_c, 0, 58, 106
1, 24550, Note_off_c, 0, 58, 106
1, 24563, Note_on_c, 0, 61, 111
1, 24611, Note_off_c, 0, 61, 111
1, 24617, Note_on_c, 0, 58, 106
1, 24658, Note_off_c, 0, 58, 106
1, 24664, Note_on_c, 0, 53, 102
1, 24695, Note_off_c, 0, 53, 102
1, 24701, Note_on_c, 0, 55, 111
1, 24788, Note_off_c, 0, 55, 111
1, 24841, Note_on_c, 0, 65, 107
1, 24882, Note_off_c, 0, 65, 107
1, 24884, Note_on_c, 0, 69, 10
1, 24938, Note_off_c, 0, 69, 10
1, 24938, Note_on_c, 0, 65, 22
1, 24973, Note_off_c, 0, 65, 22
1, 24981, Note_on_c, 0, 61, 110
1, 25013, Note_off_c, 0, 61, 110
1, 25023, Note_on_c, 0, 58, 106
1, 25063, Note_off_c, 0, 58, 106
1, 25064, Note_on_c, 0, 64, 113
1, 25118, Note_off_c, 0, 64, 113
1, 25127, Note_on_c, 0, 68, 100
1, 25167, Note_off_c, 0, 68, 100
1, 25173, Note_on_c, 0, 70, 123
1, 25204, Note_off_c, 0, 70, 123
1, 25212, Note_on_c, 0, 73, 119
1, 25252, Note_off_c, 0, 73, 119
1, 25276, Note_on_c, 0, 66, 117
1, 25308, Note_off_c, 0, 66, 117
1, 25322, Note_on_c, 0, 72, 121
1, 25363, Note_off_c, 0, 72, 121
1, 25363, Note_on_c, 0, 71, 121
1, 25410, Note_off_c, 0, 71, 121
1, 25423, Note_on_c, 0, 66, 110
1, 25455, Note_off_c, 0, 66, 110
1, 25462, Note_on_c, 0, 68, 126
1, 25516, Note_off_c, 0, 68, 126
1, 25516, Note_on_c, 0, 66, 119
1, 25556, Note_off_c, 0, 66, 119
1, 25565, Note_on_c, 0, 63, 110
1, 25613, Note_off_c, 0, 63, 110
1, 25615, Note_on_c, 0, 61, 97
1, 25655, Note_off_c, 0, 61, 97
1, 25660, Note_on_c, 0, 67, 113
1, 25748, Note_off_c, 0, 67, 113
1, 26038, Note_on_c, 0, 61, 118
1, 26149, Note_off_c, 0, 61, 118
1, 26163, Note_on_c, 0, 60, 107
1, 26317, Note_off_c, 0, 60, 107
1, 26346, Note_on_c, 0, 69, 113
1, 26596, Note_off_c, 0, 69, 113
1, 27025, Note_on_c, 0, 69, 125
1, 27073, Note_off_c, 0, 69, 125
1, 27081, Note_on_c, 0, 67, 120
1, 27115, Note_off_c, 0, 67, 120
1, 27121, Note_on_c, 0, 66, 112
1, 27158, Note_off_c, 0, 66, 112
1, 27165, Note_on_c, 0, 69, 127
1, 27211, Note_off_c, 0, 69, 127
1, 27211, Note_on_c, 0, 67, 115
1, 27254, Note_off_c, 0, 67, 115
1, 27266, Note_on_c, 0, 62, 111
1, 27304, Note_on_c, 0, 65, 115
1, 27304, Note_off_c, 0, 62, 111
1, 27355, Note_off_c, 0, 65, 115
1, 27361, Note_on_c, 0, 64, 107
1, 27387, Note_off_c, 0, 64, 107
1, 27387, Note_on_c, 0, 58, 114
1, 27430, Note_off_c, 0, 58, 114
1, 27432, Note_on_c, 0, 53, 118
1, 27473, Note_off_c, 0, 53, 118
1, 27545, Note_on_c, 0, 63, 115
1, 27574, Note_off_c, 0, 63, 115
1, 27592, Note_on_c, 0, 61, 108
1, 27633, Note_off_c, 0, 61, 108
1, 27701, Note_on_c, 0, 58, 112
1, 27726, Note_off_c, 0, 58, 112
1, 27730, Note_on_c, 0, 61, 115
1, 27782, Note_off_c, 0, 61, 115
1, 27785, Note_on_c, 0, 60, 113
1, 27826, Note_off_c, 0, 60, 113
1, 27826, Note_on_c, 0, 58, 109
1, 27881, Note_off_c, 0, 58, 109
1, 27884, Note_on_c, 0, 57, 110
1, 27922, Note_off_c, 0, 57, 110
1, 27925, Note_on_c, 0, 58, 102
1, 27961, Note_off_c, 0, 58, 102
1, 27965, Note_on_c, 0, 55, 111
1, 28014, Note_off_c, 0, 55, 111
1, 28017, Note_on_c, 0, 65, 91
1, 28352, Note_off_c, 0, 65, 91
1, 28352, End_track
0, 0, End_of_file
