0, 0, Header, 1, 1, 840
1, 0, Start_track
1, 0, Title_t, "Melody"
1, 0, Tempo, 451127
1, 0, Key_signature, -3, "major"
1, 0, Time_signature, 4, 2, 24, 8
1, 13338, Note_on_c, 0, 70, 106
1, 13640, Note_off_c, 0, 70, 106
1, 13818, Note_on_c, 0, 67, 107
1, 14234, Note_off_c, 0, 67, 107
1, 14358, Note_on_c, 0, 62, 111
1, 14784, Note_off_c, 0, 62, 111
1, 14886, Note_on_c, 0, 68, 108
1, 15356, Note_off_c, 0, 68, 108
1, 15420, Note_on_c, 0, 72, 111
1, 16322, Note_off_c, 0, 72, 111
1, 16938, Note_on_c, 0, 77, 109
1, 17316, Note_off_c, 0, 77, 109
1, 17386, Note_on_c, 0, 74, 99
1, 17785, Note_off_c, 0, 74, 99
1, 17903, Note_on_c, 0, 70, 99
1, 18351, Note_off_c, 0, 70, 99
1, 18442, Note_on_c, 0, 72, 118
1, 18966, Note_off_c, 0, 72, 118
1, 19036, Note_on_c, 0, 79, 105
1, 23573, Note_off_c, 0, 79, 105
1, 23744, Note_on_c, 0, 78, 108
1, 24101, Note_off_c, 0, 78, 108
1, 24146, Note_on_c, 0, 76, 121
1, 24545, Note_off_c, 0, 76, 121
1, 24598, Note_on_c, 0, 72, 114
1, 24898, Note_off_c, 0, 72, 114
1, 25125, Note_on_c, 0, 68, 110
1, 25584, Note_off_c, 0, 68, 110
1, 25675, Note_on_c, 0, 62, 106
1, 26324, Note_off_c, 0, 62, 106
1, 27528, Note_on_c, 0, 62, 119
1, 27683, Note_off_c, 0, 62, 119
1, 27724, Note_on_c, 0, 63, 116
1, 27876, Note_off_c, 0, 63, 116
1, 27917, Note_on_c, 0, 65, 118
1, 28148, Note_off_c, 0, 65, 118
1, 28216, Note_on_c, 0, 67, 109
1, 28447, Note_off_c, 0, 67, 109
1, 28500, Note_on_c, 0, 64, 117
1, 28978, Note_off_c, 0, 64, 117
1, 29103, Note_on_c, 0, 60, 107
1, 29718, Note_off_c, 0, 60, 107
1, 30812, Note_on_c, 0, 60, 114
1, 30933, Note_off_c, 0, 60, 114
1, 30978, Note_on_c, 0, 62, 118
1, 31118, Note_off_c, 0, 62, 118
1, 31171, Note_on_c, 0, 64, 119
1, 31311, Note_off_c, 0, 64, 119
1, 31341, Note_on_c, 0, 65, 118
1, 31557, Note_off_c, 0, 65, 118
1, 31591, Note_on_c, 0, 62, 114
1, 32077, Note_off_c, 0, 62, 114
1, 32137, Note_on_c, 0, 58, 104
1, 33026, Note_off_c, 0, 58, 104
1, 33082, Note_on_c, 0, 60, 112
1, 33169, Note_off_c, 0, 60, 112
1, 33195, Note_on_c, 0, 62, 118
1, 33362, Note_off_c, 0, 62, 118
1, 33388, Note_on_c, 0, 63, 116
1, 33581, Note_off_c, 0, 63, 116
1, 33641, Note_on_c, 0, 60, 110
1, 34682, Note_off_c, 0, 60, 110
1, 34815, Note_on_c, 0, 56, 110
1, 35723, Note_off_c, 0, 56, 110
1, 37516, Note_on_c, 0, 62, 112
1, 37740, Note_off_c, 0, 62, 112
1, 37922, Note_on_c, 0, 67, 114
1, 38222, Note_off_c, 0, 67, 114
1, 38351, Note_on_c, 0, 70, 113
1, 38620, Note_off_c, 0, 70, 113
1, 38620, Note_on_c, 0, 74, 121
1, 38810, Note_off_c, 0, 74, 121
1, 38840, Note_on_c, 0, 74, 120
1, 39007, Note_off_c, 0, 74, 120
1, 39117, Note_on_c, 0, 74, 99
1, 39299, Note_off_c, 0, 74, 99
1, 39431, Note_on_c, 0, 74, 78
1, 39712, Note_off_c, 0, 74, 78
1, 40133, Note_on_c, 0, 79, 119
1, 40608, Note_off_c, 0, 79, 119
1, 40710, Note_on_c, 0, 74, 116
1, 41120, Note_off_c, 0, 74, 116
1, 41150, Note_on_c, 0, 72, 112
1, 42100, Note_off_c, 0, 72, 112
1, 43232, Note_on_c, 0, 67, 117
1, 43315, Note_off_c, 0, 67, 117
1, 43326, Note_on_c, 0, 68, 114
1, 44526, Note_off_c, 0, 68, 114
1, 44583, Note_on_c, 0, 72, 118
1, 44932, Note_off_c, 0, 72, 118
1, 44989, Note_on_c, 0, 73, 123
1, 45106, Note_off_c, 0, 73, 123
1, 45113, Note_on_c, 0, 74, 119
1, 45626, Note_off_c, 0, 74, 119
1, 45690, Note_on_c, 0, 74, 117
1, 46081, Note_off_c, 0, 74, 117
1, 46164, Note_on_c, 0, 74, 106
1, 46487, Note_off_c, 0, 74, 106
1, 46897, Note_on_c, 0, 77, 122
1, 47341, Note_off_c, 0, 77, 122
1, 47390, Note_on_c, 0, 74, 114
1, 47796, Note_off_c, 0, 74, 114
1, 47883, Note_on_c, 0, 70, 107
1, 48901, Note_off_c, 0, 70, 107
1, 49626, Note_on_c, 0, 67, 110
1, 49861, Note_off_c, 0, 67, 110
1, 49902, Note_on_c, 0, 70, 106
1, 50095, Note_off_c, 0, 70, 106
1, 50171, Note_on_c, 0, 73, 114
1, 51026, Note_off_c, 0, 73, 114
1, 51079, Note_on_c, 0, 76, 125
1, 51284, Note_off_c, 0, 76, 125
1, 51337, Note_on_c, 0, 76, 122
1, 51553, Note_off_c, 0, 76, 122
1, 51667, Note_on_c, 0, 76, 122
1, 51925, Note_off_c, 0, 76, 122
1, 52137, Note_on_c, 0, 72, 120
1, 52342, Note_off_c, 0, 72, 120
1, 52703, Note_on_c, 0, 75, 120
1, 52953, Note_off_c, 0, 75, 120
1, 53275, Note_on_c, 0, 75, 117
1, 53841, Note_off_c, 0, 75, 117
1, 53879, Note_on_c, 0, 72, 123
1, 54251, Note_off_c, 0, 72, 123
1, 54463, Note_on_c, 0, 75, 117
1, 54713, Note_off_c, 0, 75, 117
1, 54963, Note_on_c, 0, 75, 118
1, 55240, Note_off_c, 0, 75, 118
1, 55270, Note_on_c, 0, 71, 109
1, 55421, Note_off_c, 0, 71, 109
1, 55481, Note_on_c, 0, 68, 112
1, 55667, Note_off_c, 0, 68, 112
1, 55716, Note_on_c, 0, 64, 113
1, 56077, Note_off_c, 0, 64, 113
1, 56099, Note_on_c, 0, 68, 107
1, 56269, Note_off_c, 0, 68, 107
1, 56314, Note_on_c, 0, 71, 101
1, 56637, Note_off_c, 0, 71, 101
1, 56656, Note_on_c, 0, 74, 120
1, 56766, Note_off_c, 0, 74, 120
1, 56781, Note_on_c, 0, 75, 117
1, 57248, Note_off_c, 0, 75, 117
1, 57267, Note_on_c, 0, 71, 105
1, 58122, Note_off_c, 0, 71, 105
1, 58270, Note_on_c, 0, 75, 115
1, 58547, Note_off_c, 0, 75, 115
1, 58695, Note_on_c, 0, 75, 117
1, 58979, Note_off_c, 0, 75, 117
1, 59085, Note_on_c, 0, 70, 108
1, 59339, Note_off_c, 0, 70, 108
1, 59392, Note_on_c, 0, 67, 110
1, 59570, Note_off_c, 0, 67, 110
1, 59592, Note_on_c, 0, 65, 113
1, 59823, Note_off_c, 0, 65, 113
1, 59902, Note_on_c, 0, 63, 111
1, 60187, Note_off_c, 0, 63, 111
1, 60202, Note_on_c, 0, 65, 112
1, 60380, Note_off_c, 0, 65, 112
1, 60437, Note_on_c, 0, 63, 109
1, 61713, Note_off_c, 0, 63, 109
1, 61773, Note_on_c, 0, 65, 116
1, 61925, Note_off_c, 0, 65, 116
1, 61982, Note_on_c, 0, 63, 119
1, 63072, Note_off_c, 0, 63, 119
1, 63091, Note_on_c, 0, 65, 113
1, 63227, Note_off_c, 0, 65, 113
1, 63257, Note_on_c, 0, 63, 111
1, 63583, Note_off_c, 0, 63, 111
1, 64650, Note_on_c, 0, 82, 123
1, 64946, Note_off_c, 0, 82, 123
1, 64980, Note_on_c, 0, 83, 121
1, 65067, Note_off_c, 0, 83, 121
1, 65082, Note_on_c, 0, 84, 114
1, 65165, Note_off_c, 0, 84, 114
1, 65180, Note_on_c, 0, 85, 114
1, 65233, Note_off_c, 0, 85, 114
1, 65259, Note_on_c, 0, 86, 114
1, 65312, Note_off_c, 0, 86, 114
1, 65338, Note_on_c, 0, 87, 109
1, 66519, Note_off_c, 0, 87, 109
1, 66579, Note_on_c, 0, 85, 113
1, 67065, Note_off_c, 0, 85, 113
1, 67106, Note_on_c, 0, 82, 120
1, 68352, Note_off_c, 0, 82, 120
1, 68526, Note_on_c, 0, 80, 119
1, 68913, Note_off_c, 0, 80, 119
1, 68951, Note_on_c, 0, 77, 120
1, 69315, Note_off_c, 0, 77, 120
1, 69356, Note_on_c, 0, 75, 121
1, 69667, Note_off_c, 0, 75, 121
1, 69720, Note_on_c, 0, 73, 119
1, 69993, Note_off_c, 0, 73, 119
1, 71224, Note_on_c, 0, 70, 112
1, 71448, Note_off_c, 0, 70, 112
1, 71539, Note_on_c, 0, 73, 121
1, 71706, Note_off_c, 0, 73, 121
1, 71728, Note_on_c, 0, 75, 122
1, 72032, Note_off_c, 0, 75, 122
1, 72058, Note_on_c, 0, 77, 121
1, 72160, Note_off_c, 0, 77, 121
1, 72198, Note_on_c, 0, 76, 119
1, 72293, Note_off_c, 0, 76, 119
1, 72331, Note_on_c, 0, 77, 118
1, 72445, Note_off_c, 0, 77, 118
1, 73801, Note_on_c, 0, 70, 114
1, 74181, Note_off_c, 0, 70, 114
1, 74310, Note_on_c, 0, 77, 123
1, 74469, Note_off_c, 0, 77, 123
1, 74503, Note_on_c, 0, 75, 122
1, 74598, Note_off_c, 0, 75, 122
1, 74643, Note_on_c, 0, 77, 118
1, 74806, Note_off_c, 0, 77, 118
1, 75474, Note_on_c, 0, 77, 126
1, 75637, Note_off_c, 0, 77, 126
1, 75667, Note_on_c, 0, 75, 125
1, 75769, Note_off_c, 0, 75, 125
1, 75803, Note_on_c, 0, 77, 120
1, 76019, Note_off_c, 0, 77, 120
1, 76759, Note_on_c, 0, 77, 126
1, 76876, Note_off_c, 0, 77, 126
1, 76910, Note_on_c, 0, 75, 121
1, 77031, Note_off_c, 0, 75, 121
1, 77065, Note_on_c, 0, 77, 121
1, 77262, Note_off_c, 0, 77, 121
1, 78386, Note_on_c, 0, 77, 127
1, 78519, Note_off_c, 0, 77, 127
1, 78530, Note_on_c, 0, 75, 124
1, 78628, Note_off_c, 0, 75, 124
1, 78654, Note_on_c, 0, 77, 121
1, 78923, Note_off_c, 0, 77, 121
1, 79367, Note_on_c, 0, 77, 123
1, 79530, Note_off_c, 0, 77, 123
1, 79545, Note_on_c, 0, 75, 124
1, 79640, Note_off_c, 0, 75, 124
1, 79685, Note_on_c, 0, 77, 121
1, 79909, Note_off_c, 0, 77, 121
1, 80418, Note_on_c, 0, 77, 123
1, 80539, Note_off_c, 0, 77, 123
1, 80576, Note_on_c, 0, 75, 122
1, 80690, Note_off_c, 0, 75, 122
1, 80705, Note_on_c, 0, 77, 121
1, 80914, Note_off_c, 0, 77, 121
1, 81674, Note_on_c, 0, 77, 124
1, 81845, Note_off_c, 0, 77, 124
1, 81860, Note_on_c, 0, 75, 122
1, 81958, Note_off_c, 0, 75, 122
1, 81984, Note_on_c, 0, 77, 120
1, 82268, Note_off_c, 0, 77, 120
1, 82712, Note_on_c, 0, 77, 119
1, 82871, Note_off_c, 0, 77, 119
1, 82928, Note_on_c, 0, 75, 119
1, 83064, Note_off_c, 0, 75, 119
1, 83132, Note_on_c, 0, 77, 121
1, 83398, Note_off_c, 0, 77, 121
1, 83907, Note_on_c, 0, 77, 122
1, 84093, Note_off_c, 0, 77, 122
1, 84108, Note_on_c, 0, 75, 121
1, 84225, Note_off_c, 0, 75, 121
1, 84255, Note_on_c, 0, 77, 119
1, 84551, Note_off_c, 0, 77, 119
1, 84961, Note_on_c, 0, 77, 122
1, 85116, Note_off_c, 0, 77, 122
1, 85138, Note_on_c, 0, 75, 123
1, 85244, Note_off_c, 0, 75, 123
1, 85274, Note_on_c, 0, 77, 121
1, 85502, Note_off_c, 0, 77, 121
1, 85676, Note_on_c, 0, 70, 110
1, 86576, Note_off_c, 0, 70, 110
1, 87575, Note_on_c, 0, 65, 122
1, 87734, Note_off_c, 0, 65, 122
1, 87760, Note_on_c, 0, 63, 123
1, 87866, Note_off_c, 0, 63, 123
1, 87903, Note_on_c, 0, 65, 121
1, 88381, Note_off_c, 0, 65, 121
1, 88438, Note_on_c, 0, 58, 113
1, 89300, Note_off_c, 0, 58, 113
1, 90470, Note_on_c, 0, 58, 121
1, 90648, Note_off_c, 0, 58, 121
1, 90693, Note_on_c, 0, 62, 120
1, 90837, Note_off_c, 0, 62, 120
1, 90859, Note_on_c, 0, 66, 116
1, 91056, Note_off_c, 0, 66, 116
1, 91105, Note_on_c, 0, 70, 111
1, 91256, Note_off_c, 0, 70, 111
1, 91301, Note_on_c, 0, 74, 118
1, 91464, Note_off_c, 0, 74, 118
1, 91490, Note_on_c, 0, 78, 120
1, 91615, Note_off_c, 0, 78, 120
1, 91660, Note_on_c, 0, 82, 118
1, 91948, Note_off_c, 0, 82, 118
1, 91997, Note_on_c, 0, 88, 105
1, 92289, Note_off_c, 0, 88, 105
1, 92323, Note_on_c, 0, 87, 107
1, 92684, Note_off_c, 0, 87, 107
1, 92946, Note_on_c, 0, 85, 118
1, 93269, Note_off_c, 0, 85, 118
1, 93576, Note_on_c, 0, 88, 95
1, 93640, Note_off_c, 0, 88, 95
1, 93685, Note_on_c, 0, 89, 117
1, 95938, Note_off_c, 0, 89, 117
1, 96074, Note_on_c, 0, 87, 110
1, 96328, Note_off_c, 0, 87, 110
1, 96388, Note_on_c, 0, 84, 114
1, 96612, Note_off_c, 0, 84, 114
1, 96657, Note_on_c, 0, 80, 117
1, 96945, Note_off_c, 0, 80, 117
1, 96983, Note_on_c, 0, 77, 118
1, 97271, Note_off_c, 0, 77, 118
1, 97582, Note_on_c, 0, 79, 114
1, 97916, Note_off_c, 0, 79, 114
1, 99078, Note_on_c, 0, 80, 120
1, 99393, Note_off_c, 0, 80, 120
1, 99465, Note_on_c, 0, 82, 121
1, 99940, Note_off_c, 0, 82, 121
1, 99970, Note_on_c, 0, 84, 119
1, 101045, Note_off_c, 0, 84, 119
1, 101170, Note_on_c, 0, 79, 109
1, 102710, Note_off_c, 0, 79, 109
1, 102839, Note_on_c, 0, 72, 116
1, 103028, Note_off_c, 0, 72, 116
1, 103038, Note_on_c, 0, 73, 117
1, 104443, Note_off_c, 0, 73, 117
1, 104513, Note_on_c, 0, 72, 118
1, 106015, Note_off_c, 0, 72, 118
1, 106042, Note_on_c, 0, 75, 98
1, 106150, Note_off_c, 0, 75, 98
1, 106166, Note_on_c, 0, 77, 117
1, 106344, Note_off_c, 0, 77, 117
1, 106360, Note_on_c, 0, 75, 113
1, 106662, Note_off_c, 0, 75, 113
1, 107272, Note_on_c, 0, 77, 117
1, 108482, Note_off_c, 0, 77, 117
1, 108617, Note_on_c, 0, 75, 121
1, 108995, Note_off_c, 0, 75, 121
1, 109103, Note_on_c, 0, 77, 117
1, 109297, Note_off_c, 0, 77, 117
1, 109361, Note_on_c, 0, 75, 111
1, 109447, Note_off_c, 0, 75, 111
1, 109474, Note_on_c, 0, 77, 120
1, 109652, Note_off_c, 0, 77, 120
1, 109695, Note_on_c, 0, 75, 122
1, 110165, Note_off_c, 0, 75, 122
1, 110192, Note_on_c, 0, 77, 119
1, 110575, Note_off_c, 0, 77, 119
1, 110661, Note_on_c, 0, 70, 107
1, 111412, Note_off_c, 0, 70, 107
1, 111514, Note_on_c, 0, 72, 9
1, 111951, Note_off_c, 0, 72, 9
1, 112005, Note_on_c, 0, 74, 113
1, 112069, Note_off_c, 0, 74, 113
1, 112101, Note_on_c, 0, 75, 115
1, 112236, Note_off_c, 0, 75, 115
1, 113960, Note_on_c, 0, 79, 115
1, 114370, Note_off_c, 0, 79, 115
1, 114407, Note_on_c, 0, 82, 121
1, 114671, Note_off_c, 0, 82, 121
1, 114714, Note_on_c, 0, 79, 118
1, 114849, Note_off_c, 0, 79, 118
1, 114881, Note_on_c, 0, 78, 119
1, 115302, Note_off_c, 0, 78, 119
1, 115361, Note_on_c, 0, 76, 119
1, 115652, Note_off_c, 0, 76, 119
1, 115835, Note_on_c, 0, 77, 117
1, 118645, Note_off_c, 0, 77, 117
1, 118709, Note_on_c, 0, 78, 116
1, 118984, Note_off_c, 0, 78, 116
1, 119016, Note_on_c, 0, 74, 116
1, 119253, Note_off_c, 0, 74, 116
1, 119296, Note_on_c, 0, 79, 116
1, 119577, Note_off_c, 0, 79, 116
1, 119604, Note_on_c, 0, 77, 119
1, 119852, Note_off_c, 0, 77, 119
1, 119911, Note_on_c, 0, 75, 119
1, 120197, Note_off_c, 0, 75, 119
1, 120256, Note_on_c, 0, 70, 110
1, 120472, Note_off_c, 0, 70, 110
1, 120520, Note_on_c, 0, 67, 110
1, 120811, Note_off_c, 0, 67, 110
1, 120886, Note_on_c, 0, 65, 112
1, 121383, Note_off_c, 0, 65, 112
1, 121420, Note_on_c, 0, 63, 111
1, 122073, Note_off_c, 0, 63, 111
1, 122148, Note_on_c, 0, 65, 113
1, 122515, Note_off_c, 0, 65, 113
1, 122579, Note_on_c, 0, 68, 105
1, 122778, Note_off_c, 0, 68, 105
1, 123107, Note_on_c, 0, 68, 111
1, 123587, Note_off_c, 0, 68, 111
1, 124959, Note_on_c, 0, 67, 117
1, 125094, Note_off_c, 0, 67, 117
1, 125131, Note_on_c, 0, 68, 116
1, 125514, Note_off_c, 0, 68, 116
1, 125546, Note_on_c, 0, 70, 111
1, 125816, Note_off_c, 0, 70, 111
1, 126075, Note_on_c, 0, 71, 115
1, 126669, Note_off_c, 0, 71, 115
1, 126706, Note_on_c, 0, 72, 117
1, 127441, Note_off_c, 0, 72, 117
1, 127716, Note_on_c, 0, 71, 109
1, 127980, Note_off_c, 0, 71, 109
1, 128358, Note_on_c, 0, 72, 124
1, 128903, Note_off_c, 0, 72, 124
1, 128930, Note_on_c, 0, 73, 118
1, 129773, Note_off_c, 0, 73, 118
1, 131070, Note_on_c, 0, 63, 121
1, 131453, Note_off_c, 0, 63, 121
1, 131474, Note_on_c, 0, 64, 119
1, 132127, Note_off_c, 0, 64, 119
1, 132213, Note_on_c, 0, 75, 122
1, 132504, Note_off_c, 0, 75, 122
1, 132574, Note_on_c, 0, 73, 119
1, 132855, Note_off_c, 0, 73, 119
1, 132898, Note_on_c, 0, 76, 120
1, 133216, Note_off_c, 0, 76, 120
1, 133491, Note_on_c, 0, 72, 118
1, 133728, Note_off_c, 0, 72, 118
1, 134063, Note_on_c, 0, 68, 115
1, 134392, Note_off_c, 0, 68, 115
1, 134446, Note_on_c, 0, 63, 117
1, 134564, Note_off_c, 0, 63, 117
1, 134574, Note_on_c, 0, 64, 115
1, 134984, Note_off_c, 0, 64, 115
1, 135000, Note_on_c, 0, 60, 112
1, 135648, Note_off_c, 0, 60, 112
1, 135691, Note_on_c, 0, 62, 120
1, 135761, Note_off_c, 0, 62, 120
1, 135782, Note_on_c, 0, 63, 118
1, 136036, Note_off_c, 0, 63, 118
1, 136079, Note_on_c, 0, 62, 108
1, 136565, Note_off_c, 0, 62, 108
1, 136629, Note_on_c, 0, 65, 113
1, 136850, Note_off_c, 0, 65, 113
1, 136887, Note_on_c, 0, 66, 105
1, 137524, Note_off_c, 0, 66, 105
1, 137653, Note_on_c, 0, 73, 114
1, 138490, Note_off_c, 0, 73, 114
1, 138603, Note_on_c, 0, 70, 107
1, 138862, Note_off_c, 0, 70, 107
1, 138921, Note_on_c, 0, 73, 119
1, 139153, Note_off_c, 0, 73, 119
1, 139244, Note_on_c, 0, 67, 113
1, 139514, Note_off_c, 0, 67, 113
1, 140692, Note_on_c, 0, 67, 116
1, 140946, Note_off_c, 0, 67, 116
1, 140967, Note_on_c, 0, 70, 112
1, 141145, Note_off_c, 0, 70, 112
1, 141226, Note_on_c, 0, 64, 116
1, 142582, Note_off_c, 0, 64, 116
1, 142619, Note_on_c, 0, 67, 112
1, 142808, Note_off_c, 0, 67, 112
1, 142910, Note_on_c, 0, 63, 116
1, 143639, Note_off_c, 0, 63, 116
1, 143687, Note_on_c, 0, 63, 120
1, 143881, Note_off_c, 0, 63, 120
1, 143940, Note_on_c, 0, 70, 103
1, 144102, Note_off_c, 0, 70, 103
1, 144166, Note_on_c, 0, 62, 112
1, 145057, Note_off_c, 0, 62, 112
1, 146629, Note_on_c, 0, 82, 125
1, 146920, Note_off_c, 0, 82, 125
1, 146957, Note_on_c, 0, 83, 112
1, 147027, Note_off_c, 0, 83, 112
1, 147048, Note_on_c, 0, 86, 111
1, 147123, Note_off_c, 0, 86, 111
1, 147144, Note_on_c, 0, 87, 113
1, 147430, Note_off_c, 0, 87, 113
1, 147451, Note_on_c, 0, 86, 117
1, 147753, Note_off_c, 0, 86, 117
1, 147985, Note_on_c, 0, 86, 119
1, 148530, Note_off_c, 0, 86, 119
1, 148589, Note_on_c, 0, 82, 120
1, 149394, Note_off_c, 0, 82, 120
1, 149464, Note_on_c, 0, 84, 117
1, 150253, Note_off_c, 0, 84, 117
1, 150409, Note_on_c, 0, 80, 117
1, 150819, Note_off_c, 0, 80, 117
1, 151191, Note_on_c, 0, 80, 116
1, 151882, Note_off_c, 0, 80, 116
1, 151968, Note_on_c, 0, 79, 112
1, 152421, Note_off_c, 0, 79, 112
1, 152507, Note_on_c, 0, 77, 117
1, 152761, Note_off_c, 0, 77, 117
1, 152874, Note_on_c, 0, 82, 119
1, 153203, Note_off_c, 0, 82, 119
1, 153683, Note_on_c, 0, 79, 114
1, 154163, Note_off_c, 0, 79, 114
1, 154465, Note_on_c, 0, 79, 114
1, 155210, Note_off_c, 0, 79, 114
1, 155388, Note_on_c, 0, 77, 119
1, 155798, Note_off_c, 0, 77, 119
1, 155841, Note_on_c, 0, 75, 118
1, 156143, Note_off_c, 0, 75, 118
1, 156180, Note_on_c, 0, 79, 105
1, 156255, Note_off_c, 0, 79, 105
1, 156271, Note_on_c, 0, 80, 119
1, 156622, Note_off_c, 0, 80, 119
1, 156670, Note_on_c, 0, 76, 122
1, 157026, Note_off_c, 0, 76, 122
1, 157150, Note_on_c, 0, 76, 118
1, 157901, Note_off_c, 0, 76, 118
1, 157987, Note_on_c, 0, 70, 104
1, 158619, Note_off_c, 0, 70, 104
1, 158689, Note_on_c, 0, 74, 102
1, 158791, Note_off_c, 0, 74, 102
1, 158839, Note_on_c, 0, 76, 116
1, 159152, Note_off_c, 0, 76, 116
1, 159206, Note_on_c, 0, 80, 119
1, 159535, Note_off_c, 0, 80, 119
1, 159659, Note_on_c, 0, 79, 112
1, 160010, Note_off_c, 0, 79, 112
1, 160058, Note_on_c, 0, 75, 114
1, 160355, Note_off_c, 0, 75, 114
1, 160527, Note_on_c, 0, 75, 112
1, 161105, Note_off_c, 0, 75, 112
1, 161223, Note_on_c, 0, 67, 108
1, 161368, Note_off_c, 0, 67, 108
1, 161395, Note_on_c, 0, 68, 106
1, 162005, Note_off_c, 0, 68, 106
1, 162064, Note_on_c, 0, 75, 112
1, 162447, Note_off_c, 0, 75, 112
1, 162522, Note_on_c, 0, 79, 114
1, 162862, Note_off_c, 0, 79, 114
1, 162943, Note_on_c, 0, 78, 111
1, 163315, Note_off_c, 0, 78, 111
1, 163374, Note_on_c, 0, 74, 108
1, 163671, Note_off_c, 0, 74, 108
1, 163849, Note_on_c, 0, 74, 105
1, 164389, Note_off_c, 0, 74, 105
1, 164632, Note_on_c, 0, 67, 106
1, 165437, Note_off_c, 0, 67, 106
1, 165539, Note_on_c, 0, 68, 95
1, 165922, Note_off_c, 0, 68, 95
1, 166030, Note_on_c, 0, 74, 113
1, 166359, Note_off_c, 0, 74, 113
1, 166423, Note_on_c, 0, 77, 118
1, 166731, Note_off_c, 0, 77, 118
1, 166801, Note_on_c, 0, 75, 109
1, 167109, Note_off_c, 0, 75, 109
1, 167325, Note_on_c, 0, 75, 111
1, 167606, Note_off_c, 0, 75, 111
1, 168049, Note_on_c, 0, 63, 109
1, 168773, Note_off_c, 0, 63, 109
1, 170124, Note_on_c, 0, 63, 90
1, 170318, Note_off_c, 0, 63, 90
1, 170334, Note_on_c, 0, 65, 123
1, 170452, Note_off_c, 0, 65, 123
1, 170511, Note_on_c, 0, 63, 123
1, 170829, Note_off_c, 0, 63, 123
1, 171234, Note_on_c, 0, 65, 120
1, 172709, Note_off_c, 0, 65, 120
1, 172838, Note_on_c, 0, 63, 119
1, 173200, Note_off_c, 0, 63, 119
1, 173308, Note_on_c, 0, 73, 120
1, 174626, Note_off_c, 0, 73, 120
1, 174766, Note_on_c, 0, 70, 112
1, 175090, Note_off_c, 0, 70, 112
1, 175122, Note_on_c, 0, 68, 109
1, 175311, Note_off_c, 0, 68, 109
1, 176943, Note_on_c, 0, 70, 116
1, 177505, Note_off_c, 0, 70, 116
1, 177575, Note_on_c, 0, 73, 120
1, 177980, Note_off_c, 0, 73, 120
1, 178217, Note_on_c, 0, 70, 110
1, 178508, Note_off_c, 0, 70, 110
1, 178589, Note_on_c, 0, 68, 102
1, 179334, Note_off_c, 0, 68, 102
1, 180441, Note_on_c, 0, 69, 104
1, 180532, Note_off_c, 0, 69, 104
1, 180548, Note_on_c, 0, 70, 108
1, 180920, Note_off_c, 0, 70, 108
1, 180947, Note_on_c, 0, 73, 119
1, 181249, Note_off_c, 0, 73, 119
1, 181270, Note_on_c, 0, 76, 113
1, 181378, Note_off_c, 0, 76, 113
1, 181383, Note_on_c, 0, 77, 119
1, 181555, Note_off_c, 0, 77, 119
1, 181576, Note_on_c, 0, 76, 116
1, 181700, Note_off_c, 0, 76, 116
1, 181743, Note_on_c, 0, 73, 119
1, 182002, Note_off_c, 0, 73, 119
1, 182126, Note_on_c, 0, 69, 106
1, 182552, Note_off_c, 0, 69, 106
1, 182638, Note_on_c, 0, 67, 102
1, 182983, Note_off_c, 0, 67, 102
1, 183091, Note_on_c, 0, 65, 113
1, 184285, Note_off_c, 0, 65, 113
1, 184366, Note_on_c, 0, 60, 109
1, 184798, Note_off_c, 0, 60, 109
1, 184857, Note_on_c, 0, 63, 111
1, 185024, Note_off_c, 0, 63, 111
1, 185045, Note_on_c, 0, 65, 110
1, 185217, Note_off_c, 0, 65, 110
1, 185271, Note_on_c, 0, 60, 107
1, 186330, Note_off_c, 0, 60, 107
1, 186394, Note_on_c, 0, 58, 102
1, 187918, Note_off_c, 0, 58, 102
1, 188031, Note_on_c, 0, 65, 106
1, 188901, Note_off_c, 0, 65, 106
1, 190549, Note_on_c, 0, 65, 110
1, 191105, Note_off_c, 0, 65, 110
1, 191126, Note_on_c, 0, 70, 107
1, 191428, Note_off_c, 0, 70, 107
1, 191492, Note_on_c, 0, 77, 115
1, 192081, Note_off_c, 0, 77, 115
1, 192199, Note_on_c, 0, 82, 113
1, 192777, Note_off_c, 0, 82, 113
1, 192847, Note_on_c, 0, 89, 99
1, 193419, Note_off_c, 0, 89, 99
1, 193543, Note_on_c, 0, 95, 103
1, 194110, Note_off_c, 0, 95, 103
1, 194137, Note_on_c, 0, 94, 97
1, 194612, Note_off_c, 0, 94, 97
1, 194893, Note_on_c, 0, 89, 114
1, 195147, Note_off_c, 0, 89, 114
1, 195163, Note_on_c, 0, 88, 104
1, 195260, Note_off_c, 0, 88, 104
1, 195686, Note_on_c, 0, 82, 110
1, 196712, Note_off_c, 0, 82, 110
1, 196901, Note_on_c, 0, 80, 117
1, 197182, Note_off_c, 0, 80, 117
1, 197322, Note_on_c, 0, 77, 116
1, 197738, Note_off_c, 0, 77, 116
1, 197759, Note_on_c, 0, 75, 122
1, 197953, Note_off_c, 0, 75, 122
1, 197980, Note_on_c, 0, 76, 116
1, 198261, Note_off_c, 0, 76, 116
1, 198315, Note_on_c, 0, 75, 104
1, 198514, Note_off_c, 0, 75, 104
1, 199508, Note_on_c, 0, 69, 106
1, 199605, Note_off_c, 0, 69, 106
1, 199621, Note_on_c, 0, 70, 110
1, 199891, Note_off_c, 0, 70, 110
1, 199950, Note_on_c, 0, 74, 112
1, 200225, Note_off_c, 0, 74, 112
1, 200435, Note_on_c, 0, 82, 113
1, 201553, Note_off_c, 0, 82, 113
1, 201682, Note_on_c, 0, 79, 106
1, 201876, Note_off_c, 0, 79, 106
1, 201908, Note_on_c, 0, 82, 102
1, 202032, Note_off_c, 0, 82, 102
1, 202048, Note_on_c, 0, 79, 107
1, 202220, Note_off_c, 0, 79, 107
1, 202355, Note_on_c, 0, 74, 108
1, 202922, Note_off_c, 0, 74, 108
1, 203786, Note_on_c, 0, 71, 121
1, 203942, Note_off_c, 0, 71, 121
1, 203947, Note_on_c, 0, 72, 119
1, 204563, Note_off_c, 0, 72, 119
1, 204627, Note_on_c, 0, 80, 116
1, 205032, Note_off_c, 0, 80, 116
1, 205053, Note_on_c, 0, 77, 116
1, 206231, Note_off_c, 0, 77, 116
1, 206339, Note_on_c, 0, 72, 120
1, 206663, Note_off_c, 0, 72, 120
1, 206808, Note_on_c, 0, 70, 108
1, 206980, Note_off_c, 0, 70, 108
1, 207271, Note_on_c, 0, 79, 112
1, 207681, Note_off_c, 0, 79, 112
1, 207697, Note_on_c, 0, 75, 117
1, 208167, Note_off_c, 0, 75, 117
1, 208237, Note_on_c, 0, 70, 104
1, 209020, Note_off_c, 0, 70, 104
1, 209765, Note_on_c, 0, 68, 107
1, 209840, Note_off_c, 0, 68, 107
1, 209883, Note_on_c, 0, 69, 106
1, 210147, Note_off_c, 0, 69, 106
1, 210211, Note_on_c, 0, 68, 107
1, 210762, Note_off_c, 0, 68, 107
1, 210875, Note_on_c, 0, 76, 119
1, 213025, Note_off_c, 0, 76, 119
1, 213122, Note_on_c, 0, 68, 110
1, 213570, Note_off_c, 0, 68, 110
1, 213597, Note_on_c, 0, 67, 100
1, 214283, Note_off_c, 0, 67, 100
1, 215596, Note_on_c, 0, 75, 117
1, 216444, Note_off_c, 0, 75, 117
1, 216535, Note_on_c, 0, 67, 105
1, 216843, Note_off_c, 0, 67, 105
1, 216951, Note_on_c, 0, 66, 100
1, 218161, Note_off_c, 0, 66, 100
1, 218252, Note_on_c, 0, 74, 111
1, 219965, Note_off_c, 0, 74, 111
1, 220040, Note_on_c, 0, 72, 118
1, 220326, Note_off_c, 0, 72, 118
1, 220493, Note_on_c, 0, 63, 110
1, 221887, Note_off_c, 0, 63, 110
1, 221973, Note_on_c, 0, 69, 107
1, 222081, Note_off_c, 0, 69, 107
1, 222097, Note_on_c, 0, 70, 9
1, 223285, Note_off_c, 0, 70, 9
1, 223355, Note_on_c, 0, 67, 117
1, 223636, Note_off_c, 0, 67, 117
1, 223663, Note_on_c, 0, 68, 112
1, 224387, Note_off_c, 0, 68, 112
1, 224549, Note_on_c, 0, 64, 108
1, 226148, Note_off_c, 0, 64, 108
1, 226153, Note_on_c, 0, 65, 114
1, 226234, Note_off_c, 0, 65, 114
1, 226255, Note_on_c, 0, 66, 114
1, 226325, Note_off_c, 0, 66, 114
1, 226346, Note_on_c, 0, 67, 106
1, 226848, Note_off_c, 0, 67, 106
1, 226875, Note_on_c, 0, 62, 98
1, 227480, Note_off_c, 0, 62, 98
1, 227480, End_track
0, 0, End_of_file
