0, 0, Header, 1, 1, 840
1, 0, Start_track
1, 0, Title_t, "Melody"
1, 0, Tempo, 444444
1, 0, Key_signature, 2, "major"
1, 0, Time_signature, 4, 2, 24, 8
1, 19251, Note_on_c, 0, 69, 112
1, 19547, Note_off_c, 0, 69, 112
1, 19720, Note_on_c, 0, 74, 123
1, 20055, Note_off_c, 0, 74, 123
1, 20471, Note_on_c, 0, 74, 122
1, 20933, Note_off_c, 0, 74, 122
1, 21978, Note_on_c, 0, 74, 124
1, 22429, Note_off_c, 0, 74, 124
1, 23701, Note_on_c, 0, 74, 117
1, 24136, Note_off_c, 0, 74, 117
1, 24209, Note_on_c, 0, 73, 124
1, 24552, Note_off_c, 0, 73, 124
1, 24613, Note_on_c, 0, 70, 103
1, 24980, Note_off_c, 0, 70, 103
1, 25139, Note_on_c, 0, 67, 108
1, 25388, Note_off_c, 0, 67, 108
1, 25462, Note_on_c, 0, 74, 118
1, 25961, Note_off_c, 0, 74, 118
1, 26024, Note_on_c, 0, 69, 101
1, 26931, Note_off_c, 0, 69, 101
1, 27054, Note_on_c, 0, 69, 103
1, 28329, Note_off_c, 0, 69, 103
1, 28444, Note_on_c, 0, 69, 109
1, 28710, Note_off_c, 0, 69, 109
1, 28901, Note_on_c, 0, 74, 119
1, 29180, Note_off_c, 0, 74, 119
1, 29561, Note_on_c, 0, 74, 120
1, 29914, Note_off_c, 0, 74, 120
1, 30383, Note_on_c, 0, 74, 117
1, 30775, Note_off_c, 0, 74, 117
1, 30794, Note_on_c, 0, 74, 100
1, 30899, Note_off_c, 0, 74, 100
1, 30927, Note_on_c, 0, 73, 119
1, 31183, Note_off_c, 0, 73, 119
1, 31269, Note_on_c, 0, 70, 105
1, 31639, Note_off_c, 0, 70, 105
1, 31740, Note_on_c, 0, 67, 104
1, 32110, Note_off_c, 0, 67, 104
1, 32153, Note_on_c, 0, 74, 118
1, 32660, Note_off_c, 0, 74, 118
1, 32706, Note_on_c, 0, 69, 99
1, 33693, Note_off_c, 0, 69, 99
1, 33753, Note_on_c, 0, 67, 106
1, 34263, Note_off_c, 0, 67, 106
1, 34306, Note_on_c, 0, 65, 102
1, 34626, Note_on_c, 0, 75, 116
1, 34626, Note_off_c, 0, 65, 102
1, 35119, Note_off_c, 0, 75, 116
1, 35179, Note_on_c, 0, 75, 109
1, 36144, Note_off_c, 0, 75, 109
1, 36314, Note_on_c, 0, 74, 111
1, 36637, Note_off_c, 0, 74, 111
1, 36719, Note_on_c, 0, 74, 116
1, 36805, Note_off_c, 0, 74, 116
1, 36825, Note_on_c, 0, 72, 120
1, 37118, Note_off_c, 0, 72, 120
1, 37200, Note_on_c, 0, 70, 97
1, 37567, Note_off_c, 0, 70, 97
1, 37624, Note_on_c, 0, 69, 99
1, 37763, Note_off_c, 0, 69, 99
1, 37831, Note_on_c, 0, 67, 97
1, 38442, Note_off_c, 0, 67, 97
1, 38521, Note_on_c, 0, 66, 106
1, 38693, Note_off_c, 0, 66, 106
1, 38767, Note_on_c, 0, 70, 105
1, 39192, Note_off_c, 0, 70, 105
1, 39244, Note_on_c, 0, 67, 103
1, 39715, Note_off_c, 0, 67, 103
1, 39758, Note_on_c, 0, 62, 102
1, 40180, Note_off_c, 0, 62, 102
1, 40251, Note_on_c, 0, 58, 111
1, 40456, Note_off_c, 0, 58, 111
1, 40508, Note_on_c, 0, 60, 98
1, 40902, Note_off_c, 0, 60, 98
1, 40967, Note_on_c, 0, 63, 113
1, 41274, Note_off_c, 0, 63, 113
1, 41413, Note_on_c, 0, 58, 111
1, 41818, Note_off_c, 0, 58, 111
1, 44308, Note_on_c, 0, 62, 111
1, 44519, Note_off_c, 0, 62, 111
1, 44636, Note_on_c, 0, 67, 112
1, 45028, Note_off_c, 0, 67, 112
1, 45129, Note_on_c, 0, 70, 114
1, 45905, Note_off_c, 0, 70, 114
1, 45970, Note_on_c, 0, 67, 116
1, 46762, Note_off_c, 0, 67, 116
1, 46789, Note_on_c, 0, 70, 110
1, 47581, Note_off_c, 0, 70, 110
1, 47619, Note_on_c, 0, 67, 114
1, 48354, Note_off_c, 0, 67, 114
1, 48414, Note_on_c, 0, 70, 112
1, 49530, Note_off_c, 0, 70, 112
1, 49612, Note_on_c, 0, 67, 113
1, 50039, Note_off_c, 0, 67, 113
1, 50099, Note_on_c, 0, 70, 111
1, 51141, Note_off_c, 0, 70, 111
1, 51212, Note_on_c, 0, 67, 113
1, 51735, Note_off_c, 0, 67, 113
1, 51800, Note_on_c, 0, 65, 117
1, 52203, Note_off_c, 0, 65, 117
1, 54229, Note_on_c, 0, 60, 113
1, 54544, Note_off_c, 0, 60, 113
1, 54618, Note_on_c, 0, 65, 113
1, 55059, Note_off_c, 0, 65, 113
1, 55119, Note_on_c, 0, 67, 115
1, 55472, Note_off_c, 0, 67, 115
1, 55507, Note_on_c, 0, 69, 113
1, 55751, Note_off_c, 0, 69, 113
1, 55789, Note_on_c, 0, 70, 112
1, 55956, Note_off_c, 0, 70, 112
1, 55961, Note_on_c, 0, 67, 115
1, 56221, Note_off_c, 0, 67, 115
1, 56374, Note_on_c, 0, 69, 111
1, 56683, Note_off_c, 0, 69, 111
1, 56795, Note_on_c, 0, 65, 110
1, 57137, Note_off_c, 0, 65, 110
1, 57230, Note_on_c, 0, 63, 113
1, 57644, Note_off_c, 0, 63, 113
1, 57685, Note_on_c, 0, 61, 114
1, 57898, Note_off_c, 0, 61, 114
1, 57969, Note_on_c, 0, 63, 117
1, 58388, Note_off_c, 0, 63, 117
1, 59265, Note_on_c, 0, 62, 109
1, 59542, Note_off_c, 0, 62, 109
1, 59701, Note_on_c, 0, 57, 112
1, 60189, Note_off_c, 0, 57, 112
1, 60902, Note_on_c, 0, 64, 114
1, 61181, Note_off_c, 0, 64, 114
1, 61389, Note_on_c, 0, 67, 108
1, 61759, Note_off_c, 0, 67, 108
1, 62573, Note_on_c, 0, 66, 115
1, 62915, Note_off_c, 0, 66, 115
1, 62969, Note_on_c, 0, 62, 106
1, 64362, Note_off_c, 0, 62, 106
1, 64422, Note_on_c, 0, 69, 113
1, 66097, Note_off_c, 0, 69, 113
1, 66195, Note_on_c, 0, 67, 110
1, 66858, Note_off_c, 0, 67, 110
1, 67228, Note_on_c, 0, 65, 106
1, 67864, Note_off_c, 0, 65, 106
1, 67984, Note_on_c, 0, 67, 107
1, 68694, Note_off_c, 0, 67, 107
1, 68869, Note_on_c, 0, 62, 108
1, 69521, Note_off_c, 0, 62, 108
1, 69595, Note_on_c, 0, 65, 110
1, 70420, Note_off_c, 0, 65, 110
1, 70518, Note_on_c, 0, 64, 113
1, 70987, Note_off_c, 0, 64, 113
1, 71030, Note_on_c, 0, 67, 118
1, 71383, Note_off_c, 0, 67, 118
1, 71470, Note_on_c, 0, 70, 109
1, 71801, Note_off_c, 0, 70, 109
1, 72226, Note_on_c, 0, 69, 112
1, 72889, Note_off_c, 0, 69, 112
1, 73028, Note_on_c, 0, 65, 112
1, 73497, Note_off_c, 0, 65, 112
1, 73524, Note_on_c, 0, 62, 117
1, 73844, Note_off_c, 0, 62, 117
1, 73918, Note_on_c, 0, 57, 103
1, 74461, Note_off_c, 0, 57, 103
1, 74521, Note_on_c, 0, 62, 103
1, 74647, Note_off_c, 0, 62, 103
1, 74770, Note_on_c, 0, 65, 106
1, 75175, Note_off_c, 0, 65, 106
1, 75257, Note_on_c, 0, 69, 108
1, 75536, Note_off_c, 0, 69, 108
1, 75651, Note_on_c, 0, 67, 111
1, 75977, Note_off_c, 0, 67, 111
1, 76440, Note_on_c, 0, 64, 110
1, 77136, Note_off_c, 0, 64, 110
1, 77221, Note_on_c, 0, 61, 112
1, 77703, Note_off_c, 0, 61, 112
1, 77724, Note_on_c, 0, 64, 118
1, 78001, Note_off_c, 0, 64, 118
1, 78072, Note_on_c, 0, 62, 102
1, 78401, Note_off_c, 0, 62, 102
1, 81042, Note_on_c, 0, 64, 116
1, 81351, Note_off_c, 0, 64, 116
1, 81447, Note_on_c, 0, 65, 116
1, 81814, Note_off_c, 0, 65, 116
1, 81888, Note_on_c, 0, 69, 116
1, 82088, Note_off_c, 0, 69, 116
1, 82296, Note_on_c, 0, 72, 123
1, 82658, Note_off_c, 0, 72, 123
1, 82723, Note_on_c, 0, 74, 120
1, 83016, Note_off_c, 0, 74, 120
1, 83150, Note_on_c, 0, 75, 120
1, 83465, Note_off_c, 0, 75, 120
1, 83550, Note_on_c, 0, 77, 122
1, 83884, Note_off_c, 0, 77, 122
1, 83960, Note_on_c, 0, 78, 110
1, 84206, Note_off_c, 0, 78, 110
1, 84238, Note_on_c, 0, 79, 111
1, 84369, Note_off_c, 0, 79, 111
1, 84388, Note_on_c, 0, 78, 114
1, 84448, Note_off_c, 0, 78, 114
1, 84475, Note_on_c, 0, 75, 119
1, 84721, Note_off_c, 0, 75, 119
1, 84806, Note_on_c, 0, 74, 121
1, 85132, Note_off_c, 0, 74, 121
1, 85206, Note_on_c, 0, 72, 124
1, 85518, Note_off_c, 0, 72, 124
1, 85624, Note_on_c, 0, 70, 101
1, 86040, Note_off_c, 0, 70, 101
1, 86114, Note_on_c, 0, 67, 104
1, 86445, Note_off_c, 0, 67, 104
1, 86480, Note_on_c, 0, 69, 108
1, 86861, Note_off_c, 0, 69, 108
1, 86926, Note_on_c, 0, 66, 112
1, 87219, Note_off_c, 0, 66, 112
1, 87249, Note_on_c, 0, 67, 107
1, 87750, Note_off_c, 0, 67, 107
1, 87780, Note_on_c, 0, 65, 106
1, 87969, Note_off_c, 0, 65, 106
1, 88078, Note_on_c, 0, 66, 116
1, 88511, Note_off_c, 0, 66, 116
1, 88543, Note_on_c, 0, 63, 111
1, 89607, Note_off_c, 0, 63, 111
1, 89724, Note_on_c, 0, 62, 101
1, 90206, Note_off_c, 0, 62, 101
1, 91846, Note_on_c, 0, 70, 115
1, 92912, Note_off_c, 0, 70, 115
1, 93219, Note_on_c, 0, 79, 119
1, 94039, Note_off_c, 0, 79, 119
1, 94376, Note_on_c, 0, 77, 124
1, 94792, Note_off_c, 0, 77, 124
1, 94838, Note_on_c, 0, 76, 127
1, 95263, Note_off_c, 0, 76, 127
1, 95304, Note_on_c, 0, 74, 122
1, 95674, Note_off_c, 0, 74, 122
1, 95742, Note_on_c, 0, 77, 124
1, 96194, Note_off_c, 0, 77, 124
1, 96276, Note_on_c, 0, 74, 122
1, 96627, Note_off_c, 0, 74, 122
1, 96871, Note_on_c, 0, 70, 108
1, 98036, Note_off_c, 0, 70, 108
1, 98077, Note_on_c, 0, 67, 115
1, 98565, Note_off_c, 0, 67, 115
1, 98606, Note_on_c, 0, 72, 124
1, 99960, Note_off_c, 0, 72, 124
1, 100248, Note_on_c, 0, 67, 108
1, 100607, Note_off_c, 0, 67, 108
1, 100664, Note_on_c, 0, 69, 102
1, 101072, Note_off_c, 0, 69, 102
1, 101102, Note_on_c, 0, 70, 106
1, 101400, Note_off_c, 0, 70, 106
1, 101460, Note_on_c, 0, 67, 109
1, 101874, Note_off_c, 0, 67, 109
1, 101934, Note_on_c, 0, 69, 114
1, 102186, Note_off_c, 0, 69, 114
1, 102251, Note_on_c, 0, 65, 111
1, 102703, Note_off_c, 0, 65, 111
1, 102744, Note_on_c, 0, 63, 116
1, 103007, Note_off_c, 0, 63, 116
1, 103078, Note_on_c, 0, 58, 113
1, 103568, Note_off_c, 0, 58, 113
1, 103631, Note_on_c, 0, 57, 111
1, 104599, Note_off_c, 0, 57, 111
1, 104741, Note_on_c, 0, 58, 116
1, 105135, Note_off_c, 0, 58, 116
1, 105217, Note_on_c, 0, 62, 108
1, 106251, Note_off_c, 0, 62, 108
1, 106388, Note_on_c, 0, 66, 114
1, 106807, Note_off_c, 0, 66, 114
1, 108030, Note_on_c, 0, 69, 114
1, 108570, Note_off_c, 0, 69, 114
1, 109634, Note_on_c, 0, 66, 115
1, 111219, Note_off_c, 0, 66, 115
1, 111254, Note_on_c, 0, 62, 99
1, 111794, Note_off_c, 0, 62, 99
1, 111917, Note_on_c, 0, 67, 9
1, 116119, Note_off_c, 0, 67, 9
1, 116179, Note_on_c, 0, 69, 107
1, 116295, Note_off_c, 0, 69, 107
1, 116348, Note_on_c, 0, 67, 116
1, 116885, Note_off_c, 0, 67, 116
1, 116945, Note_on_c, 0, 67, 109
1, 117795, Note_off_c, 0, 67, 109
1, 117943, Note_on_c, 0, 63, 112
1, 118591, Note_off_c, 0, 63, 112
1, 118688, Note_on_c, 0, 62, 104
1, 121134, Note_off_c, 0, 62, 104
1, 121175, Note_on_c, 0, 61, 109
1, 121360, Note_off_c, 0, 61, 109
1, 121427, Note_on_c, 0, 62, 105
1, 124609, Note_off_c, 0, 62, 105
1, 124698, Note_on_c, 0, 72, 121
1, 125822, Note_off_c, 0, 72, 121
1, 127725, Note_on_c, 0, 70, 116
1, 128056, Note_off_c, 0, 70, 116
1, 128132, Note_on_c, 0, 69, 108
1, 128491, Note_off_c, 0, 69, 108
1, 128548, Note_on_c, 0, 70, 119
1, 128855, Note_off_c, 0, 70, 119
1, 128945, Note_on_c, 0, 72, 124
1, 129408, Note_off_c, 0, 72, 124
1, 129462, Note_on_c, 0, 74, 115
1, 129788, Note_off_c, 0, 74, 115
1, 129870, Note_on_c, 0, 84, 112
1, 130308, Note_off_c, 0, 84, 112
1, 130368, Note_on_c, 0, 82, 113
1, 131352, Note_off_c, 0, 82, 113
1, 131489, Note_on_c, 0, 78, 113
1, 131831, Note_off_c, 0, 78, 113
1, 131932, Note_on_c, 0, 73, 122
1, 132313, Note_off_c, 0, 73, 122
1, 132444, Note_on_c, 0, 77, 122
1, 133011, Note_off_c, 0, 77, 122
1, 133085, Note_on_c, 0, 76, 120
1, 133485, Note_off_c, 0, 76, 120
1, 133583, Note_on_c, 0, 72, 125
1, 133964, Note_off_c, 0, 72, 125
1, 134062, Note_on_c, 0, 69, 103
1, 134813, Note_off_c, 0, 69, 103
1, 135303, Note_on_c, 0, 69, 106
1, 135558, Note_off_c, 0, 69, 106
1, 135733, Note_on_c, 0, 74, 120
1, 135916, Note_off_c, 0, 74, 120
1, 135970, Note_on_c, 0, 77, 124
1, 136211, Note_off_c, 0, 77, 124
1, 136232, Note_on_c, 0, 75, 119
1, 136904, Note_off_c, 0, 75, 119
1, 136942, Note_on_c, 0, 73, 124
1, 137238, Note_off_c, 0, 73, 124
1, 137556, Note_on_c, 0, 70, 107
1, 137789, Note_off_c, 0, 70, 107
1, 137956, Note_on_c, 0, 67, 105
1, 138276, Note_off_c, 0, 67, 105
1, 138363, Note_on_c, 0, 65, 112
1, 138651, Note_off_c, 0, 65, 112
1, 138694, Note_on_c, 0, 63, 114
1, 138828, Note_off_c, 0, 63, 114
1, 138899, Note_on_c, 0, 62, 108
1, 141378, Note_off_c, 0, 62, 108
1, 141449, Note_on_c, 0, 65, 113
1, 142077, Note_off_c, 0, 65, 113
1, 142115, Note_on_c, 0, 64, 110
1, 142959, Note_off_c, 0, 64, 110
1, 144599, Note_on_c, 0, 70, 123
1, 144840, Note_off_c, 0, 70, 123
1, 145111, Note_on_c, 0, 76, 123
1, 145313, Note_off_c, 0, 76, 123
1, 145362, Note_on_c, 0, 76, 121
1, 145622, Note_off_c, 0, 76, 121
1, 145910, Note_on_c, 0, 77, 125
1, 146137, Note_off_c, 0, 77, 125
1, 146191, Note_on_c, 0, 77, 123
1, 146410, Note_off_c, 0, 77, 123
1, 146722, Note_on_c, 0, 76, 126
1, 147174, Note_off_c, 0, 76, 126
1, 147256, Note_on_c, 0, 69, 106
1, 148229, Note_off_c, 0, 69, 106
1, 148377, Note_on_c, 0, 74, 123
1, 148692, Note_off_c, 0, 74, 123
1, 149136, Note_on_c, 0, 74, 119
1, 149574, Note_off_c, 0, 74, 119
1, 150007, Note_on_c, 0, 73, 121
1, 150500, Note_off_c, 0, 73, 121
1, 150524, Note_on_c, 0, 73, 114
1, 151253, Note_off_c, 0, 73, 114
1, 151335, Note_on_c, 0, 70, 106
1, 151620, Note_off_c, 0, 70, 106
1, 151740, Note_on_c, 0, 67, 105
1, 152137, Note_off_c, 0, 67, 105
1, 152235, Note_on_c, 0, 64, 109
1, 152506, Note_off_c, 0, 64, 109
1, 152566, Note_on_c, 0, 65, 105
1, 153276, Note_off_c, 0, 65, 105
1, 153399, Note_on_c, 0, 62, 101
1, 153925, Note_off_c, 0, 62, 101
1, 153982, Note_on_c, 0, 64, 107
1, 154165, Note_off_c, 0, 64, 107
1, 154211, Note_on_c, 0, 65, 114
1, 154616, Note_off_c, 0, 65, 114
1, 154703, Note_on_c, 0, 67, 111
1, 154974, Note_off_c, 0, 67, 111
1, 155146, Note_on_c, 0, 69, 105
1, 155491, Note_off_c, 0, 69, 105
1, 155554, Note_on_c, 0, 76, 115
1, 155927, Note_off_c, 0, 76, 115
1, 156749, Note_on_c, 0, 74, 116
1, 157168, Note_off_c, 0, 74, 116
1, 158213, Note_on_c, 0, 73, 125
1, 158514, Note_off_c, 0, 73, 125
1, 158601, Note_on_c, 0, 70, 111
1, 158998, Note_off_c, 0, 70, 111
1, 159083, Note_on_c, 0, 67, 110
1, 159357, Note_off_c, 0, 67, 110
1, 159455, Note_on_c, 0, 69, 102
1, 159833, Note_off_c, 0, 69, 102
1, 159907, Note_on_c, 0, 62, 101
1, 160998, Note_off_c, 0, 62, 101
1, 161154, Note_on_c, 0, 67, 111
1, 161683, Note_off_c, 0, 67, 111
1, 161762, Note_on_c, 0, 61, 109
1, 162790, Note_off_c, 0, 61, 109
1, 162877, Note_on_c, 0, 65, 117
1, 164732, Note_off_c, 0, 65, 117
1, 164770, Note_on_c, 0, 64, 114
1, 164976, Note_off_c, 0, 64, 114
1, 165003, Note_on_c, 0, 65, 112
1, 165205, Note_off_c, 0, 65, 112
1, 165222, Note_on_c, 0, 64, 114
1, 165567, Note_off_c, 0, 64, 114
1, 165640, Note_on_c, 0, 58, 112
1, 166249, Note_off_c, 0, 58, 112
1, 166318, Note_on_c, 0, 57, 104
1, 167729, Note_off_c, 0, 57, 104
1, 167729, End_track
0, 0, End_of_file
