0, 0, Header, 1, 1, 192
1, 0, Start_track
1, 0, Title_t, "Melody"
1, 0, Tempo, 294117
1, 0, Key_signature, -1, "major"
1, 0, Time_signature, 4, 2, 24, 8
1, 3375, Note_on_c, 0, 63, 125
1, 3407, Note_off_c, 0, 63, 125
1, 3408, Note_on_c, 0, 62, 119
1, 3429, Note_off_c, 0, 62, 119
1, 3431, Note_on_c, 0, 63, 120
1, 3460, Note_off_c, 0, 63, 120
1, 3469, Note_on_c, 0, 62, 112
1, 3577, Note_off_c, 0, 62, 112
1, 3604, Note_on_c, 0, 62, 120
1, 3642, Note_off_c, 0, 62, 120
1, 3668, Note_on_c, 0, 62, 115
1, 3777, Note_off_c, 0, 62, 115
1, 3810, Note_on_c, 0, 62, 115
1, 3830, Note_off_c, 0, 62, 115
1, 3839, Note_on_c, 0, 62, 124
1, 3862, Note_off_c, 0, 62, 124
1, 3867, Note_on_c, 0, 62, 115
1, 3971, Note_off_c, 0, 62, 115
1, 3971, Note_on_c, 0, 65, 125
1, 4042, Note_off_c, 0, 65, 125
1, 4046, Note_on_c, 0, 65, 122
1, 4207, Note_off_c, 0, 65, 122
1, 4226, Note_on_c, 0, 65, 124
1, 4363, Note_off_c, 0, 65, 124
1, 4370, Note_on_c, 0, 65, 118
1, 4550, Note_off_c, 0, 65, 118
1, 4561, Note_on_c, 0, 65, 115
1, 4753, Note_off_c, 0, 65, 115
1, 4761, Note_on_c, 0, 65, 117
1, 5025, Note_off_c, 0, 65, 117
1, 5031, Note_on_c, 0, 65, 123
1, 5122, Note_off_c, 0, 65, 123
1, 5212, Note_on_c, 0, 56, 117
1, 5331, Note_off_c, 0, 56, 117
1, 5516, Note_on_c, 0, 65, 125
1, 5625, Note_off_c, 0, 65, 125
1, 5716, Note_on_c, 0, 57, 117
1, 5830, Note_off_c, 0, 57, 117
1, 5902, Note_on_c, 0, 65, 118
1, 6036, Note_off_c, 0, 65, 118
1, 6098, Note_on_c, 0, 59, 119
1, 6182, Note_off_c, 0, 59, 119
1, 6260, Note_on_c, 0, 65, 125
1, 6350, Note_off_c, 0, 65, 125
1, 6353, Note_on_c, 0, 60, 112
1, 6484, Note_off_c, 0, 60, 112
1, 6544, Note_on_c, 0, 65, 120
1, 6665, Note_off_c, 0, 65, 120
1, 6674, Note_on_c, 0, 62, 113
1, 6789, Note_off_c, 0, 62, 113
1, 6853, Note_on_c, 0, 65, 118
1, 7019, Note_off_c, 0, 65, 118
1, 7040, Note_on_c, 0, 65, 126
1, 7099, Note_off_c, 0, 65, 126
1, 7112, Note_on_c, 0, 65, 113
1, 7229, Note_off_c, 0, 65, 113
1, 7238, Note_on_c, 0, 65, 123
1, 7300, Note_off_c, 0, 65, 123
1, 7312, Note_on_c, 0, 65, 119
1, 7512, Note_off_c, 0, 65, 119
1, 7516, Note_on_c, 0, 65, 121
1, 7629, Note_off_c, 0, 65, 121
1, 7638, Note_on_c, 0, 65, 116
1, 7698, Note_off_c, 0, 65, 116
1, 7702, Note_on_c, 0, 65, 121
1, 7849, Note_off_c, 0, 65, 121
1, 7859, Note_on_c, 0, 65, 121
1, 7990, Note_off_c, 0, 65, 121
1, 8009, Note_on_c, 0, 65, 121
1, 8073, Note_off_c, 0, 65, 121
1, 8088, Note_on_c, 0, 65, 121
1, 8181, Note_off_c, 0, 65, 121
1, 8409, Note_on_c, 0, 64, 121
1, 8499, Note_off_c, 0, 64, 121
1, 8506, Note_on_c, 0, 67, 119
1, 8632, Note_off_c, 0, 67, 119
1, 9134, Note_on_c, 0, 64, 120
1, 9219, Note_off_c, 0, 64, 120
1, 9224, Note_on_c, 0, 67, 118
1, 9342, Note_off_c, 0, 67, 118
1, 9347, Note_on_c, 0, 64, 122
1, 9438, Note_off_c, 0, 64, 122
1, 9482, Note_on_c, 0, 67, 123
1, 9599, Note_off_c, 0, 67, 123
1, 9600, Note_on_c, 0, 66, 119
1, 9696, Note_off_c, 0, 66, 119
1, 9705, Note_on_c, 0, 62, 118
1, 9791, Note_off_c, 0, 62, 118
1, 9804, Note_on_c, 0, 58, 117
1, 9879, Note_off_c, 0, 58, 117
1, 9925, Note_on_c, 0, 54, 110
1, 9966, Note_off_c, 0, 54, 110
1, 9970, Note_on_c, 0, 55, 99
1, 10031, Note_off_c, 0, 55, 99
1, 10036, Note_on_c, 0, 55, 105
1, 10095, Note_off_c, 0, 55, 105
1, 10189, Note_on_c, 0, 55, 107
1, 10322, Note_off_c, 0, 55, 107
1, 10353, Note_on_c, 0, 55, 101
1, 10458, Note_off_c, 0, 55, 101
1, 10687, Note_on_c, 0, 65, 100
1, 10749, Note_off_c, 0, 65, 100
1, 10770, Note_on_c, 0, 55, 106
1, 10840, Note_off_c, 0, 55, 106
1, 10862, Note_on_c, 0, 57, 113
1, 10940, Note_off_c, 0, 57, 113
1, 10952, Note_on_c, 0, 58, 113
1, 11037, Note_off_c, 0, 58, 113
1, 11038, Note_on_c, 0, 62, 118
1, 11113, Note_off_c, 0, 62, 118
1, 11169, Note_on_c, 0, 56, 104
1, 11230, Note_off_c, 0, 56, 104
1, 11246, Note_on_c, 0, 59, 113
1, 11316, Note_off_c, 0, 59, 113
1, 11319, Note_on_c, 0, 64, 122
1, 11425, Note_off_c, 0, 64, 122
1, 11432, Note_on_c, 0, 62, 116
1, 11498, Note_off_c, 0, 62, 116
1, 11508, Note_on_c, 0, 60, 113
1, 11597, Note_off_c, 0, 60, 113
1, 11652, Note_on_c, 0, 57, 104
1, 11684, Note_off_c, 0, 57, 104
1, 11690, Note_on_c, 0, 58, 112
1, 11806, Note_off_c, 0, 58, 112
1, 11816, Note_on_c, 0, 60, 99
1, 12056, Note_off_c, 0, 60, 99
1, 12448, Note_on_c, 0, 60, 114
1, 12488, Note_off_c, 0, 60, 114
1, 12497, Note_on_c, 0, 62, 119
1, 12538, Note_off_c, 0, 62, 119
1, 12545, Note_on_c, 0, 63, 121
1, 12584, Note_off_c, 0, 63, 121
1, 12586, Note_on_c, 0, 64, 120
1, 12623, Note_off_c, 0, 64, 120
1, 12624, Note_on_c, 0, 65, 125
1, 12685, Note_off_c, 0, 65, 125
1, 12708, Note_on_c, 0, 64, 117
1, 12758, Note_off_c, 0, 64, 117
1, 12765, Note_on_c, 0, 62, 116
1, 12816, Note_off_c, 0, 62, 116
1, 12847, Note_on_c, 0, 60, 111
1, 12889, Note_off_c, 0, 60, 111
1, 12894, Note_on_c, 0, 58, 107
1, 12941, Note_off_c, 0, 58, 107
1, 12947, Note_on_c, 0, 57, 104
1, 12993, Note_off_c, 0, 57, 104
1, 13026, Note_on_c, 0, 55, 101
1, 13075, Note_off_c, 0, 55, 101
1, 13187, Note_on_c, 0, 62, 115
1, 13559, Note_off_c, 0, 62, 115
1, 13601, Note_on_c, 0, 60, 116
1, 13638, Note_off_c, 0, 60, 116
1, 13703, Note_on_c, 0, 63, 118
1, 13773, Note_off_c, 0, 63, 118
1, 13793, Note_on_c, 0, 61, 113
1, 13825, Note_off_c, 0, 61, 113
1, 13857, Note_on_c, 0, 58, 113
1, 13901, Note_off_c, 0, 58, 113
1, 13906, Note_on_c, 0, 57, 117
1, 13938, Note_off_c, 0, 57, 117
1, 13961, Note_on_c, 0, 55, 114
1, 14007, Note_off_c, 0, 55, 114
1, 14019, Note_on_c, 0, 55, 110
1, 14058, Note_off_c, 0, 55, 110
1, 14075, Note_on_c, 0, 52, 109
1, 14138, Note_off_c, 0, 52, 109
1, 14155, Note_on_c, 0, 50, 114
1, 14252, Note_off_c, 0, 50, 114
1, 14277, Note_on_c, 0, 55, 117
1, 14351, Note_off_c, 0, 55, 117
1, 14360, Note_on_c, 0, 60, 113
1, 14478, Note_off_c, 0, 60, 113
1, 14481, Note_on_c, 0, 65, 121
1, 14627, Note_off_c, 0, 65, 121
1, 14645, Note_on_c, 0, 67, 119
1, 14762, Note_off_c, 0, 67, 119
1, 14832, Note_on_c, 0, 65, 122
1, 14922, Note_off_c, 0, 65, 122
1, 15012, Note_on_c, 0, 67, 122
1, 15101, Note_off_c, 0, 67, 122
1, 15110, Note_on_c, 0, 65, 123
1, 15218, Note_off_c, 0, 65, 123
1, 15239, Note_on_c, 0, 64, 102
1, 15276, Note_off_c, 0, 64, 102
1, 15299, Note_on_c, 0, 66, 123
1, 15409, Note_off_c, 0, 66, 123
1, 15411, Note_on_c, 0, 64, 122
1, 15508, Note_off_c, 0, 64, 122
1, 15510, Note_on_c, 0, 60, 118
1, 15601, Note_off_c, 0, 60, 118
1, 15601, Note_on_c, 0, 56, 118
1, 15694, Note_off_c, 0, 56, 118
1, 15713, Note_on_c, 0, 51, 114
1, 15786, Note_off_c, 0, 51, 114
1, 15813, Note_on_c, 0, 48, 105
1, 15907, Note_off_c, 0, 48, 105
1, 15913, Note_on_c, 0, 50, 110
1, 15986, Note_off_c, 0, 50, 110
1, 16004, Note_on_c, 0, 55, 122
1, 16080, Note_off_c, 0, 55, 122
1, 16090, Note_on_c, 0, 60, 108
1, 16177, Note_off_c, 0, 60, 108
1, 16258, Note_on_c, 0, 62, 115
1, 16436, Note_off_c, 0, 62, 115
1, 16448, Note_on_c, 0, 60, 115
1, 16567, Note_off_c, 0, 60, 115
1, 16572, Note_on_c, 0, 56, 117
1, 16655, Note_off_c, 0, 56, 117
1, 17305, Note_on_c, 0, 65, 124
1, 17379, Note_off_c, 0, 65, 124
1, 17386, Note_on_c, 0, 62, 111
1, 17472, Note_off_c, 0, 62, 111
1, 17575, Note_on_c, 0, 58, 112
1, 17743, Note_off_c, 0, 58, 112
1, 17755, Note_on_c, 0, 58, 118
1, 17885, Note_off_c, 0, 58, 118
1, 17945, Note_on_c, 0, 60, 117
1, 18067, Note_off_c, 0, 60, 117
1, 18070, Note_on_c, 0, 57, 110
1, 18133, Note_off_c, 0, 57, 110
1, 18682, Note_on_c, 0, 57, 108
1, 18807, Note_off_c, 0, 57, 108
1, 18813, Note_on_c, 0, 58, 109
1, 18880, Note_off_c, 0, 58, 109
1, 18895, Note_on_c, 0, 61, 114
1, 18990, Note_off_c, 0, 61, 114
1, 19003, Note_on_c, 0, 63, 124
1, 19083, Note_off_c, 0, 63, 124
1, 19084, Note_on_c, 0, 64, 121
1, 19271, Note_off_c, 0, 64, 121
1, 19280, Note_on_c, 0, 65, 123
1, 19415, Note_off_c, 0, 65, 123
1, 19480, Note_on_c, 0, 62, 116
1, 19596, Note_off_c, 0, 62, 116
1, 19602, Note_on_c, 0, 59, 118
1, 19631, Note_off_c, 0, 59, 118
1, 20041, Note_on_c, 0, 60, 98
1, 20143, Note_off_c, 0, 60, 98
1, 20156, Note_on_c, 0, 62, 115
1, 20231, Note_off_c, 0, 62, 115
1, 20260, Note_on_c, 0, 64, 120
1, 20339, Note_off_c, 0, 64, 120
1, 20344, Note_on_c, 0, 65, 123
1, 20420, Note_off_c, 0, 65, 123
1, 20425, Note_on_c, 0, 67, 122
1, 20534, Note_off_c, 0, 67, 122
1, 20544, Note_on_c, 0, 69, 120
1, 20779, Note_off_c, 0, 69, 120
1, 20826, Note_on_c, 0, 63, 106
1, 20899, Note_off_c, 0, 63, 106
1, 20997, Note_on_c, 0, 62, 116
1, 21107, Note_off_c, 0, 62, 116
1, 21131, Note_on_c, 0, 65, 119
1, 21197, Note_off_c, 0, 65, 119
1, 21583, Note_on_c, 0, 62, 117
1, 21678, Note_off_c, 0, 62, 117
1, 21688, Note_on_c, 0, 64, 124
1, 21757, Note_off_c, 0, 64, 124
1, 21780, Note_on_c, 0, 65, 121
1, 21873, Note_off_c, 0, 65, 121
1, 21883, Note_on_c, 0, 67, 124
1, 21965, Note_off_c, 0, 67, 124
1, 21974, Note_on_c, 0, 67, 123
1, 22076, Note_off_c, 0, 67, 123
1, 22139, Note_on_c, 0, 69, 121
1, 22257, Note_off_c, 0, 69, 121
1, 22287, Note_on_c, 0, 69, 121
1, 22400, Note_off_c, 0, 69, 121
1, 22408, Note_on_c, 0, 70, 117
1, 24488, Note_off_c, 0, 70, 117
1, 24527, Note_on_c, 0, 70, 120
1, 24596, Note_off_c, 0, 70, 120
1, 24612, Note_on_c, 0, 69, 119
1, 24680, Note_off_c, 0, 69, 119
1, 24687, Note_on_c, 0, 66, 122
1, 24725, Note_off_c, 0, 66, 122
1, 24748, Note_on_c, 0, 61, 118
1, 24782, Note_off_c, 0, 61, 118
1, 24850, Note_on_c, 0, 58, 112
1, 24902, Note_off_c, 0, 58, 112
1, 24958, Note_on_c, 0, 57, 117
1, 25011, Note_off_c, 0, 57, 117
1, 25033, Note_on_c, 0, 53, 116
1, 25103, Note_off_c, 0, 53, 116
1, 25143, Note_on_c, 0, 51, 105
1, 25206, Note_off_c, 0, 51, 105
1, 25314, Note_on_c, 0, 52, 122
1, 25346, Note_off_c, 0, 52, 122
1, 25350, Note_on_c, 0, 53, 111
1, 25511, Note_off_c, 0, 53, 111
1, 25536, Note_on_c, 0, 53, 113
1, 25567, Note_off_c, 0, 53, 113
1, 25594, Note_on_c, 0, 58, 117
1, 25693, Note_off_c, 0, 58, 117
1, 25729, Note_on_c, 0, 56, 104
1, 25831, Note_off_c, 0, 56, 104
1, 26546, Note_on_c, 0, 64, 113
1, 26595, Note_off_c, 0, 64, 113
1, 26597, Note_on_c, 0, 65, 113
1, 26644, Note_off_c, 0, 65, 113
1, 26686, Note_on_c, 0, 66, 121
1, 26718, Note_off_c, 0, 66, 121
1, 26720, Note_on_c, 0, 67, 125
1, 26758, Note_off_c, 0, 67, 125
1, 26760, Note_on_c, 0, 68, 127
1, 26783, Note_off_c, 0, 68, 127
1, 26785, Note_on_c, 0, 67, 118
1, 26807, Note_off_c, 0, 67, 118
1, 26809, Note_on_c, 0, 66, 122
1, 26851, Note_off_c, 0, 66, 122
1, 26854, Note_on_c, 0, 65, 124
1, 26915, Note_off_c, 0, 65, 124
1, 26924, Note_on_c, 0, 64, 120
1, 26999, Note_off_c, 0, 64, 120
1, 27243, Note_on_c, 0, 64, 121
1, 27330, Note_off_c, 0, 64, 121
1, 27333, Note_on_c, 0, 62, 118
1, 27432, Note_off_c, 0, 62, 118
1, 27437, Note_on_c, 0, 57, 118
1, 27522, Note_off_c, 0, 57, 118
1, 27590, Note_on_c, 0, 52, 119
1, 27669, Note_off_c, 0, 52, 119
1, 27683, Note_on_c, 0, 49, 103
1, 27770, Note_off_c, 0, 49, 103
1, 27797, Note_on_c, 0, 51, 117
1, 27861, Note_off_c, 0, 51, 117
1, 27876, Note_on_c, 0, 56, 118
1, 27949, Note_off_c, 0, 56, 118
1, 27977, Note_on_c, 0, 63, 126
1, 28058, Note_off_c, 0, 63, 126
1, 28068, Note_on_c, 0, 61, 116
1, 28161, Note_off_c, 0, 61, 116
1, 28237, Note_on_c, 0, 61, 104
1, 28250, Note_off_c, 0, 61, 104
1, 28253, Note_on_c, 0, 62, 120
1, 28340, Note_off_c, 0, 62, 120
1, 28344, Note_on_c, 0, 60, 119
1, 28399, Note_off_c, 0, 60, 119
1, 28441, Note_on_c, 0, 55, 114
1, 28526, Note_off_c, 0, 55, 114
1, 28548, Note_on_c, 0, 50, 116
1, 28601, Note_off_c, 0, 50, 116
1, 28660, Note_on_c, 0, 48, 106
1, 28731, Note_off_c, 0, 48, 106
1, 28752, Note_on_c, 0, 50, 110
1, 28811, Note_off_c, 0, 50, 110
1, 28836, Note_on_c, 0, 55, 106
1, 28914, Note_off_c, 0, 55, 106
1, 28950, Note_on_c, 0, 60, 117
1, 29021, Note_off_c, 0, 60, 117
1, 29056, Note_on_c, 0, 61, 114
1, 29155, Note_off_c, 0, 61, 114
1, 29217, Note_on_c, 0, 59, 116
1, 29306, Note_off_c, 0, 59, 116
1, 29314, Note_on_c, 0, 54, 117
1, 29397, Note_off_c, 0, 54, 117
1, 29424, Note_on_c, 0, 49, 112
1, 29505, Note_off_c, 0, 49, 112
1, 29516, Note_on_c, 0, 47, 114
1, 29589, Note_off_c, 0, 47, 114
1, 29602, Note_on_c, 0, 48, 106
1, 29865, Note_off_c, 0, 48, 106
1, 29874, Note_on_c, 0, 50, 109
1, 29944, Note_off_c, 0, 50, 109
1, 29966, Note_on_c, 0, 52, 111
1, 30056, Note_off_c, 0, 52, 111
1, 30079, Note_on_c, 0, 53, 113
1, 30179, Note_off_c, 0, 53, 113
1, 30180, Note_on_c, 0, 55, 111
1, 30223, Note_off_c, 0, 55, 111
1, 30258, Note_on_c, 0, 57, 114
1, 30338, Note_off_c, 0, 57, 114
1, 30377, Note_on_c, 0, 58, 111
1, 30444, Note_off_c, 0, 58, 111
1, 30475, Note_on_c, 0, 60, 117
1, 30555, Note_off_c, 0, 60, 117
1, 30642, Note_on_c, 0, 59, 118
1, 30700, Note_off_c, 0, 59, 118
1, 30739, Note_on_c, 0, 58, 111
1, 30803, Note_off_c, 0, 58, 111
1, 30823, Note_on_c, 0, 57, 116
1, 30897, Note_off_c, 0, 57, 116
1, 30933, Note_on_c, 0, 55, 112
1, 31000, Note_off_c, 0, 55, 112
1, 31017, Note_on_c, 0, 53, 116
1, 31082, Note_off_c, 0, 53, 116
1, 31108, Note_on_c, 0, 52, 107
1, 31189, Note_off_c, 0, 52, 107
1, 31209, Note_on_c, 0, 56, 110
1, 31253, Note_off_c, 0, 56, 110
1, 31382, Note_on_c, 0, 62, 120
1, 31483, Note_off_c, 0, 62, 120
1, 31491, Note_on_c, 0, 60, 109
1, 31567, Note_off_c, 0, 60, 109
1, 31579, Note_on_c, 0, 58, 118
1, 31645, Note_off_c, 0, 58, 118
1, 31654, Note_on_c, 0, 57, 103
1, 31724, Note_off_c, 0, 57, 103
1, 32351, Note_on_c, 0, 59, 114
1, 32394, Note_off_c, 0, 59, 114
1, 32401, Note_on_c, 0, 54, 104
1, 32426, Note_off_c, 0, 54, 104
1, 32441, Note_on_c, 0, 56, 101
1, 32482, Note_off_c, 0, 56, 101
1, 32491, Note_on_c, 0, 58, 95
1, 32522, Note_off_c, 0, 58, 95
1, 32534, Note_on_c, 0, 57, 119
1, 32599, Note_off_c, 0, 57, 119
1, 32618, Note_on_c, 0, 58, 119
1, 32685, Note_off_c, 0, 58, 119
1, 32721, Note_on_c, 0, 61, 119
1, 32800, Note_off_c, 0, 61, 119
1, 32805, Note_on_c, 0, 62, 118
1, 32876, Note_off_c, 0, 62, 118
1, 32907, Note_on_c, 0, 64, 123
1, 32978, Note_off_c, 0, 64, 123
1, 33001, Note_on_c, 0, 65, 122
1, 33077, Note_off_c, 0, 65, 122
1, 33095, Note_on_c, 0, 67, 120
1, 33173, Note_off_c, 0, 67, 120
1, 33196, Note_on_c, 0, 69, 123
1, 33299, Note_off_c, 0, 69, 123
1, 33312, Note_on_c, 0, 72, 121
1, 33564, Note_off_c, 0, 72, 121
1, 33572, Note_on_c, 0, 70, 119
1, 33692, Note_off_c, 0, 70, 119
1, 34419, Note_on_c, 0, 72, 125
1, 34455, Note_off_c, 0, 72, 125
1, 34466, Note_on_c, 0, 74, 121
1, 34535, Note_off_c, 0, 74, 121
1, 34685, Note_on_c, 0, 72, 121
1, 34807, Note_off_c, 0, 72, 121
1, 34876, Note_on_c, 0, 70, 122
1, 34997, Note_off_c, 0, 70, 122
1, 35008, Note_on_c, 0, 68, 119
1, 35103, Note_off_c, 0, 68, 119
1, 35161, Note_on_c, 0, 69, 112
1, 35178, Note_off_c, 0, 69, 112
1, 35179, Note_on_c, 0, 70, 122
1, 35276, Note_off_c, 0, 70, 122
1, 35306, Note_on_c, 0, 69, 98
1, 35315, Note_off_c, 0, 69, 98
1, 35315, Note_on_c, 0, 70, 121
1, 35426, Note_off_c, 0, 70, 121
1, 35431, Note_on_c, 0, 68, 124
1, 35567, Note_off_c, 0, 68, 124
1, 35595, Note_on_c, 0, 65, 117
1, 36000, Note_off_c, 0, 65, 117
1, 36166, Note_on_c, 0, 65, 125
1, 36245, Note_off_c, 0, 65, 125
1, 36261, Note_on_c, 0, 64, 124
1, 36368, Note_off_c, 0, 64, 124
1, 36412, Note_on_c, 0, 69, 124
1, 36527, Note_off_c, 0, 69, 124
1, 36540, Note_on_c, 0, 65, 123
1, 36645, Note_off_c, 0, 65, 123
1, 36667, Note_on_c, 0, 62, 116
1, 36762, Note_off_c, 0, 62, 116
1, 36814, Note_on_c, 0, 65, 118
1, 36920, Note_off_c, 0, 65, 118
1, 36928, Note_on_c, 0, 62, 115
1, 36982, Note_off_c, 0, 62, 115
1, 37026, Note_on_c, 0, 63, 125
1, 37115, Note_off_c, 0, 63, 125
1, 37134, Note_on_c, 0, 61, 117
1, 37193, Note_off_c, 0, 61, 117
1, 37231, Note_on_c, 0, 56, 116
1, 37328, Note_off_c, 0, 56, 116
1, 37347, Note_on_c, 0, 53, 109
1, 37413, Note_off_c, 0, 53, 109
1, 37417, Note_on_c, 0, 53, 110
1, 37473, Note_off_c, 0, 53, 110
1, 37474, Note_on_c, 0, 55, 105
1, 37524, Note_off_c, 0, 55, 105
1, 37529, Note_on_c, 0, 55, 111
1, 37751, Note_off_c, 0, 55, 111
1, 37795, Note_on_c, 0, 55, 110
1, 37848, Note_off_c, 0, 55, 110
1, 37855, Note_on_c, 0, 56, 113
1, 37896, Note_off_c, 0, 56, 113
1, 37913, Note_on_c, 0, 58, 113
1, 37966, Note_off_c, 0, 58, 113
1, 37991, Note_on_c, 0, 60, 119
1, 38032, Note_off_c, 0, 60, 119
1, 38041, Note_on_c, 0, 62, 122
1, 38089, Note_off_c, 0, 62, 122
1, 38108, Note_on_c, 0, 64, 118
1, 38162, Note_off_c, 0, 64, 118
1, 38165, Note_on_c, 0, 65, 124
1, 38223, Note_off_c, 0, 65, 124
1, 38522, Note_on_c, 0, 64, 126
1, 38581, Note_off_c, 0, 64, 126
1, 38582, Note_on_c, 0, 65, 122
1, 38639, Note_off_c, 0, 65, 122
1, 38646, Note_on_c, 0, 64, 123
1, 38703, Note_off_c, 0, 64, 123
1, 38717, Note_on_c, 0, 62, 112
1, 38776, Note_off_c, 0, 62, 112
1, 38782, Note_on_c, 0, 64, 115
1, 38822, Note_off_c, 0, 64, 115
1, 38853, Note_on_c, 0, 62, 113
1, 38896, Note_off_c, 0, 62, 113
1, 38921, Note_on_c, 0, 60, 110
1, 38956, Note_off_c, 0, 60, 110
1, 39006, Note_on_c, 0, 61, 115
1, 39044, Note_off_c, 0, 61, 115
1, 39077, Note_on_c, 0, 58, 117
1, 39114, Note_off_c, 0, 58, 117
1, 39358, Note_on_c, 0, 62, 120
1, 39397, Note_off_c, 0, 62, 120
1, 39407, Note_on_c, 0, 55, 110
1, 39435, Note_off_c, 0, 55, 110
1, 39483, Note_on_c, 0, 56, 95
1, 39529, Note_off_c, 0, 56, 95
1, 39557, Note_on_c, 0, 57, 116
1, 39620, Note_off_c, 0, 57, 116
1, 39626, Note_on_c, 0, 58, 119
1, 39703, Note_off_c, 0, 58, 119
1, 39733, Note_on_c, 0, 57, 117
1, 39802, Note_off_c, 0, 57, 117
1, 39855, Note_on_c, 0, 58, 109
1, 39903, Note_off_c, 0, 58, 109
1, 39953, Note_on_c, 0, 53, 116
1, 40018, Note_off_c, 0, 53, 116
1, 40108, Note_on_c, 0, 58, 121
1, 40189, Note_off_c, 0, 58, 121
1, 40198, Note_on_c, 0, 57, 116
1, 40293, Note_off_c, 0, 57, 116
1, 40298, Note_on_c, 0, 53, 118
1, 40363, Note_off_c, 0, 53, 118
1, 40392, Note_on_c, 0, 49, 114
1, 40468, Note_off_c, 0, 49, 114
1, 40474, Note_on_c, 0, 46, 112
1, 40555, Note_off_c, 0, 46, 112
1, 40571, Note_on_c, 0, 45, 108
1, 40667, Note_off_c, 0, 45, 108
1, 40685, Note_on_c, 0, 53, 115
1, 40722, Note_off_c, 0, 53, 115
1, 40722, End_track
0, 0, End_of_file
