0, 0, Header, 1, 1, 840
1, 0, Start_track
1, 0, Title_t, "Melody"
1, 0, Tempo, 517241
1, 0, Key_signature, -3, "major"
1, 0, Time_signature, 4, 2, 24, 8
1, 5590, Note_on_c, 0, 48, 107
1, 5853, Note_off_c, 0, 48, 107
1, 6126, Note_on_c, 0, 53, 117
1, 6371, Note_off_c, 0, 53, 117
1, 6422, Note_on_c, 0, 55, 121
1, 6709, Note_off_c, 0, 55, 121
1, 6792, Note_on_c, 0, 60, 117
1, 7051, Note_off_c, 0, 60, 117
1, 7169, Note_on_c, 0, 65, 122
1, 7437, Note_off_c, 0, 65, 122
1, 7587, Note_on_c, 0, 67, 123
1, 7888, Note_off_c, 0, 67, 123
1, 7902, Note_on_c, 0, 65, 121
1, 8175, Note_off_c, 0, 65, 121
1, 8317, Note_on_c, 0, 67, 123
1, 8598, Note_off_c, 0, 67, 123
1, 8598, Note_on_c, 0, 65, 120
1, 8861, Note_off_c, 0, 65, 120
1, 8988, Note_on_c, 0, 63, 122
1, 9308, Note_off_c, 0, 63, 122
1, 9336, Note_on_c, 0, 65, 122
1, 9637, Note_off_c, 0, 65, 122
1, 9698, Note_on_c, 0, 63, 115
1, 10037, Note_off_c, 0, 63, 115
1, 10140, Note_on_c, 0, 65, 125
1, 10399, Note_off_c, 0, 65, 125
1, 10461, Note_on_c, 0, 63, 124
1, 10644, Note_off_c, 0, 63, 124
1, 10657, Note_on_c, 0, 60, 117
1, 10996, Note_off_c, 0, 60, 117
1, 11033, Note_on_c, 0, 58, 118
1, 11263, Note_off_c, 0, 58, 118
1, 11465, Note_on_c, 0, 60, 121
1, 11724, Note_off_c, 0, 60, 121
1, 11775, Note_on_c, 0, 58, 116
1, 11991, Note_off_c, 0, 58, 116
1, 12094, Note_on_c, 0, 60, 122
1, 12339, Note_off_c, 0, 60, 122
1, 12633, Note_on_c, 0, 53, 114
1, 12739, Note_off_c, 0, 53, 114
1, 12753, Note_on_c, 0, 54, 118
1, 13007, Note_off_c, 0, 54, 118
1, 13228, Note_on_c, 0, 53, 119
1, 13760, Note_off_c, 0, 53, 119
1, 13804, Note_on_c, 0, 51, 115
1, 14034, Note_off_c, 0, 51, 115
1, 14248, Note_on_c, 0, 54, 120
1, 14478, Note_off_c, 0, 54, 120
1, 14478, Note_on_c, 0, 55, 120
1, 14793, Note_off_c, 0, 55, 120
1, 14793, Note_on_c, 0, 58, 118
1, 16518, Note_off_c, 0, 58, 118
1, 16659, Note_on_c, 0, 61, 117
1, 16797, Note_off_c, 0, 61, 117
1, 16822, Note_on_c, 0, 63, 114
1, 16893, Note_off_c, 0, 63, 114
1, 16899, Note_on_c, 0, 66, 122
1, 16998, Note_off_c, 0, 66, 122
1, 17023, Note_on_c, 0, 67, 109
1, 17301, Note_off_c, 0, 67, 109
1, 18654, Note_on_c, 0, 67, 127
1, 18842, Note_off_c, 0, 67, 127
1, 18861, Note_on_c, 0, 65, 118
1, 19026, Note_off_c, 0, 65, 118
1, 19181, Note_on_c, 0, 63, 119
1, 19359, Note_off_c, 0, 63, 119
1, 19372, Note_on_c, 0, 60, 106
1, 19560, Note_off_c, 0, 60, 106
1, 19770, Note_on_c, 0, 60, 90
1, 20637, Note_off_c, 0, 60, 90
1, 21242, Note_on_c, 0, 64, 123
1, 21434, Note_off_c, 0, 64, 123
1, 21467, Note_on_c, 0, 65, 121
1, 22361, Note_off_c, 0, 65, 121
1, 22477, Note_on_c, 0, 63, 124
1, 22662, Note_off_c, 0, 63, 124
1, 22688, Note_on_c, 0, 60, 113
1, 22923, Note_off_c, 0, 60, 113
1, 23295, Note_on_c, 0, 55, 119
1, 23460, Note_off_c, 0, 55, 119
1, 23471, Note_on_c, 0, 56, 122
1, 23728, Note_off_c, 0, 56, 122
1, 23912, Note_on_c, 0, 55, 118
1, 24428, Note_off_c, 0, 55, 118
1, 24523, Note_on_c, 0, 55, 116
1, 24620, Note_off_c, 0, 55, 116
1, 24693, Note_on_c, 0, 55, 119
1, 24768, Note_off_c, 0, 55, 119
1, 24783, Note_on_c, 0, 55, 114
1, 24893, Note_off_c, 0, 55, 114
1, 24991, Note_on_c, 0, 53, 111
1, 25349, Note_off_c, 0, 53, 111
1, 25476, Note_on_c, 0, 56, 121
1, 25664, Note_off_c, 0, 56, 121
1, 25824, Note_on_c, 0, 59, 122
1, 26054, Note_off_c, 0, 59, 122
1, 26091, Note_on_c, 0, 56, 118
1, 26293, Note_off_c, 0, 56, 118
1, 26354, Note_on_c, 0, 55, 109
1, 26547, Note_off_c, 0, 55, 109
1, 26564, Note_on_c, 0, 53, 109
1, 26794, Note_off_c, 0, 53, 109
1, 26907, Note_on_c, 0, 51, 106
1, 27046, Note_off_c, 0, 51, 106
1, 27194, Note_on_c, 0, 61, 121
1, 27406, Note_off_c, 0, 61, 121
1, 27419, Note_on_c, 0, 62, 117
1, 28512, Note_off_c, 0, 62, 117
1, 28578, Note_on_c, 0, 60, 110
1, 28775, Note_off_c, 0, 60, 110
1, 28822, Note_on_c, 0, 58, 109
1, 29038, Note_off_c, 0, 58, 109
1, 29099, Note_on_c, 0, 57, 100
1, 29584, Note_off_c, 0, 57, 100
1, 29711, Note_on_c, 0, 60, 116
1, 29871, Note_off_c, 0, 60, 116
1, 29927, Note_on_c, 0, 63, 115
1, 30459, Note_off_c, 0, 63, 115
1, 30557, Note_on_c, 0, 60, 108
1, 30688, Note_off_c, 0, 60, 108
1, 30768, Note_on_c, 0, 66, 117
1, 30838, Note_off_c, 0, 66, 117
1, 30857, Note_on_c, 0, 67, 122
1, 31316, Note_off_c, 0, 67, 122
1, 31610, Note_on_c, 0, 69, 123
1, 32241, Note_off_c, 0, 69, 123
1, 33344, Note_on_c, 0, 60, 101
1, 33781, Note_off_c, 0, 60, 101
1, 33807, Note_on_c, 0, 63, 122
1, 34105, Note_off_c, 0, 63, 122
1, 34121, Note_on_c, 0, 67, 121
1, 34667, Note_off_c, 0, 67, 121
1, 34696, Note_on_c, 0, 65, 116
1, 35279, Note_off_c, 0, 65, 116
1, 36368, Note_on_c, 0, 64, 123
1, 36440, Note_off_c, 0, 64, 123
1, 36477, Note_on_c, 0, 65, 112
1, 36941, Note_off_c, 0, 65, 112
1, 38018, Note_on_c, 0, 64, 122
1, 38110, Note_off_c, 0, 64, 122
1, 38153, Note_on_c, 0, 65, 114
1, 38517, Note_off_c, 0, 65, 114
1, 39239, Note_on_c, 0, 66, 124
1, 39467, Note_off_c, 0, 66, 124
1, 39476, Note_on_c, 0, 65, 115
1, 39671, Note_off_c, 0, 65, 115
1, 39707, Note_on_c, 0, 63, 118
1, 39968, Note_off_c, 0, 63, 118
1, 40001, Note_on_c, 0, 60, 102
1, 40537, Note_off_c, 0, 60, 102
1, 40629, Note_on_c, 0, 57, 104
1, 40807, Note_off_c, 0, 57, 104
1, 40916, Note_on_c, 0, 61, 121
1, 41055, Note_off_c, 0, 61, 121
1, 41064, Note_on_c, 0, 62, 116
1, 42233, Note_off_c, 0, 62, 116
1, 42309, Note_on_c, 0, 60, 118
1, 42507, Note_off_c, 0, 60, 118
1, 42692, Note_on_c, 0, 59, 114
1, 42863, Note_off_c, 0, 59, 114
1, 42863, Note_on_c, 0, 62, 116
1, 42969, Note_off_c, 0, 62, 116
1, 42999, Note_on_c, 0, 59, 116
1, 43118, Note_off_c, 0, 59, 116
1, 43134, Note_on_c, 0, 56, 114
1, 43432, Note_off_c, 0, 56, 114
1, 43634, Note_on_c, 0, 55, 104
1, 43922, Note_off_c, 0, 55, 104
1, 44067, Note_on_c, 0, 53, 108
1, 44212, Note_off_c, 0, 53, 108
1, 44457, Note_on_c, 0, 50, 100
1, 44808, Note_off_c, 0, 50, 100
1, 44824, Note_on_c, 0, 51, 103
1, 44959, Note_off_c, 0, 51, 103
1, 45217, Note_on_c, 0, 50, 96
1, 45386, Note_off_c, 0, 50, 96
1, 46731, Note_on_c, 0, 50, 97
1, 46886, Note_off_c, 0, 50, 97
1, 46886, Note_on_c, 0, 51, 104
1, 47011, Note_off_c, 0, 51, 104
1, 47040, Note_on_c, 0, 55, 106
1, 47146, Note_off_c, 0, 55, 106
1, 47146, Note_on_c, 0, 56, 105
1, 47202, Note_off_c, 0, 56, 105
1, 47251, Note_on_c, 0, 58, 111
1, 47420, Note_off_c, 0, 58, 111
1, 47420, Note_on_c, 0, 62, 120
1, 47618, Note_off_c, 0, 62, 120
1, 47637, Note_on_c, 0, 60, 112
1, 47769, Note_off_c, 0, 60, 112
1, 47825, Note_on_c, 0, 58, 114
1, 48017, Note_off_c, 0, 58, 114
1, 48050, Note_on_c, 0, 55, 104
1, 48222, Note_off_c, 0, 55, 104
1, 48265, Note_on_c, 0, 56, 98
1, 48457, Note_off_c, 0, 56, 98
1, 48526, Note_on_c, 0, 57, 107
1, 48801, Note_off_c, 0, 57, 107
1, 48996, Note_on_c, 0, 70, 122
1, 49148, Note_off_c, 0, 70, 122
1, 49148, Note_on_c, 0, 68, 115
1, 49187, Note_on_c, 0, 67, 116
1, 49187, Note_off_c, 0, 68, 115
1, 49259, Note_off_c, 0, 67, 116
1, 49272, Note_on_c, 0, 65, 119
1, 49361, Note_off_c, 0, 65, 119
1, 49374, Note_on_c, 0, 63, 105
1, 49443, Note_off_c, 0, 63, 105
1, 49462, Note_on_c, 0, 60, 101
1, 49538, Note_off_c, 0, 60, 101
1, 49571, Note_on_c, 0, 56, 106
1, 49716, Note_off_c, 0, 56, 106
1, 49762, Note_on_c, 0, 54, 105
1, 49864, Note_off_c, 0, 54, 105
1, 49877, Note_on_c, 0, 51, 97
1, 50042, Note_off_c, 0, 51, 97
1, 50230, Note_on_c, 0, 60, 115
1, 50392, Note_off_c, 0, 60, 115
1, 50438, Note_on_c, 0, 57, 109
1, 50563, Note_off_c, 0, 57, 109
1, 50572, Note_on_c, 0, 58, 108
1, 50787, Note_off_c, 0, 58, 108
1, 50813, Note_on_c, 0, 61, 115
1, 50952, Note_off_c, 0, 61, 115
1, 51097, Note_on_c, 0, 61, 115
1, 51236, Note_off_c, 0, 61, 115
1, 51236, Note_on_c, 0, 62, 111
1, 51451, Note_off_c, 0, 62, 111
1, 51484, Note_on_c, 0, 65, 116
1, 51845, Note_off_c, 0, 65, 116
1, 52557, Note_on_c, 0, 68, 121
1, 52762, Note_off_c, 0, 68, 121
1, 52791, Note_on_c, 0, 67, 113
1, 53006, Note_off_c, 0, 67, 113
1, 53062, Note_on_c, 0, 65, 114
1, 53300, Note_off_c, 0, 65, 114
1, 53362, Note_on_c, 0, 67, 116
1, 53633, Note_off_c, 0, 67, 116
1, 53921, Note_on_c, 0, 63, 114
1, 54176, Note_off_c, 0, 63, 114
1, 54215, Note_on_c, 0, 60, 98
1, 54987, Note_off_c, 0, 60, 98
1, 55033, Note_on_c, 0, 60, 101
1, 55470, Note_off_c, 0, 60, 101
1, 56325, Note_on_c, 0, 69, 120
1, 56387, Note_off_c, 0, 69, 120
1, 56406, Note_on_c, 0, 68, 117
1, 56870, Note_off_c, 0, 68, 117
1, 56923, Note_on_c, 0, 67, 112
1, 57161, Note_off_c, 0, 67, 112
1, 57184, Note_on_c, 0, 65, 112
1, 57439, Note_off_c, 0, 65, 112
1, 57614, Note_on_c, 0, 63, 115
1, 57865, Note_off_c, 0, 63, 115
1, 57911, Note_on_c, 0, 59, 108
1, 58106, Note_off_c, 0, 59, 108
1, 58122, Note_on_c, 0, 57, 97
1, 58281, Note_off_c, 0, 57, 97
1, 58340, Note_on_c, 0, 55, 105
1, 58790, Note_off_c, 0, 55, 105
1, 59018, Note_on_c, 0, 63, 121
1, 59283, Note_off_c, 0, 63, 121
1, 59554, Note_on_c, 0, 60, 110
1, 59895, Note_off_c, 0, 60, 110
1, 60107, Note_on_c, 0, 58, 110
1, 60464, Note_off_c, 0, 58, 110
1, 60616, Note_on_c, 0, 57, 111
1, 60947, Note_off_c, 0, 57, 111
1, 61198, Note_on_c, 0, 63, 114
1, 61549, Note_off_c, 0, 63, 114
1, 61764, Note_on_c, 0, 62, 114
1, 62115, Note_off_c, 0, 62, 114
1, 62300, Note_on_c, 0, 60, 111
1, 62594, Note_off_c, 0, 60, 111
1, 62855, Note_on_c, 0, 55, 107
1, 63161, Note_off_c, 0, 55, 107
1, 63444, Note_on_c, 0, 58, 110
1, 63709, Note_off_c, 0, 58, 110
1, 63964, Note_on_c, 0, 57, 108
1, 64298, Note_off_c, 0, 57, 108
1, 64533, Note_on_c, 0, 55, 100
1, 64844, Note_off_c, 0, 55, 100
1, 65103, Note_on_c, 0, 62, 113
1, 65165, Note_off_c, 0, 62, 113
1, 65174, Note_on_c, 0, 62, 109
1, 65251, Note_off_c, 0, 62, 109
1, 65267, Note_on_c, 0, 60, 102
1, 65518, Note_off_c, 0, 60, 102
1, 65659, Note_on_c, 0, 63, 117
1, 65974, Note_off_c, 0, 63, 117
1, 66148, Note_on_c, 0, 62, 112
1, 66485, Note_off_c, 0, 62, 112
1, 66741, Note_on_c, 0, 60, 107
1, 67082, Note_off_c, 0, 60, 107
1, 67284, Note_on_c, 0, 56, 113
1, 67562, Note_off_c, 0, 56, 113
1, 67665, Note_on_c, 0, 55, 101
1, 67966, Note_off_c, 0, 55, 101
1, 68171, Note_on_c, 0, 53, 97
1, 68475, Note_off_c, 0, 53, 97
1, 71021, Note_on_c, 0, 62, 114
1, 71131, Note_off_c, 0, 62, 114
1, 71152, Note_on_c, 0, 65, 109
1, 71243, Note_off_c, 0, 65, 109
1, 71243, Note_on_c, 0, 67, 114
1, 71346, Note_off_c, 0, 67, 114
1, 71346, Note_on_c, 0, 68, 120
1, 71449, Note_off_c, 0, 68, 120
1, 71465, Note_on_c, 0, 67, 112
1, 71594, Note_off_c, 0, 67, 112
1, 71605, Note_on_c, 0, 66, 106
1, 71668, Note_off_c, 0, 66, 106
1, 71675, Note_on_c, 0, 65, 105
1, 71823, Note_off_c, 0, 65, 105
1, 71858, Note_on_c, 0, 62, 107
1, 71994, Note_off_c, 0, 62, 107
1, 72491, Note_on_c, 0, 65, 116
1, 72644, Note_off_c, 0, 65, 116
1, 72695, Note_on_c, 0, 63, 110
1, 72892, Note_off_c, 0, 63, 110
1, 72941, Note_on_c, 0, 60, 102
1, 73138, Note_off_c, 0, 60, 102
1, 73361, Note_on_c, 0, 60, 97
1, 73533, Note_off_c, 0, 60, 97
1, 73602, Note_on_c, 0, 60, 96
1, 73771, Note_off_c, 0, 60, 96
1, 74282, Note_on_c, 0, 57, 115
1, 74404, Note_off_c, 0, 57, 115
1, 74425, Note_on_c, 0, 60, 108
1, 74521, Note_off_c, 0, 60, 108
1, 74546, Note_on_c, 0, 62, 111
1, 74670, Note_off_c, 0, 62, 111
1, 74677, Note_on_c, 0, 63, 114
1, 74825, Note_off_c, 0, 63, 114
1, 74825, Note_on_c, 0, 62, 108
1, 74942, Note_off_c, 0, 62, 108
1, 74944, Note_on_c, 0, 60, 105
1, 75071, Note_off_c, 0, 60, 105
1, 75118, Note_on_c, 0, 57, 107
1, 75282, Note_off_c, 0, 57, 107
1, 75758, Note_on_c, 0, 62, 120
1, 75878, Note_off_c, 0, 62, 120
1, 76021, Note_on_c, 0, 60, 109
1, 76183, Note_off_c, 0, 60, 109
1, 76239, Note_on_c, 0, 58, 107
1, 76432, Note_off_c, 0, 58, 107
1, 76761, Note_on_c, 0, 58, 92
1, 77234, Note_off_c, 0, 58, 92
1, 77929, Note_on_c, 0, 50, 103
1, 78082, Note_off_c, 0, 50, 103
1, 78122, Note_on_c, 0, 55, 111
1, 78331, Note_off_c, 0, 55, 111
1, 78487, Note_on_c, 0, 59, 107
1, 78679, Note_off_c, 0, 59, 107
1, 78725, Note_on_c, 0, 60, 104
1, 78947, Note_off_c, 0, 60, 104
1, 79033, Note_on_c, 0, 62, 117
1, 79218, Note_off_c, 0, 62, 117
1, 79353, Note_on_c, 0, 65, 118
1, 79581, Note_off_c, 0, 65, 118
1, 79637, Note_on_c, 0, 67, 114
1, 79862, Note_off_c, 0, 67, 114
1, 79908, Note_on_c, 0, 68, 116
1, 80116, Note_off_c, 0, 68, 116
1, 80182, Note_on_c, 0, 67, 108
1, 80407, Note_off_c, 0, 67, 108
1, 80453, Note_on_c, 0, 65, 112
1, 80648, Note_off_c, 0, 65, 112
1, 80677, Note_on_c, 0, 63, 110
1, 80912, Note_off_c, 0, 63, 110
1, 80981, Note_on_c, 0, 67, 113
1, 81216, Note_off_c, 0, 67, 113
1, 81242, Note_on_c, 0, 65, 112
1, 81467, Note_off_c, 0, 65, 112
1, 81510, Note_on_c, 0, 63, 112
1, 81712, Note_off_c, 0, 63, 112
1, 81791, Note_on_c, 0, 60, 102
1, 82009, Note_off_c, 0, 60, 102
1, 82042, Note_on_c, 0, 65, 114
1, 82250, Note_off_c, 0, 65, 114
1, 82352, Note_on_c, 0, 63, 113
1, 82544, Note_off_c, 0, 63, 113
1, 82610, Note_on_c, 0, 60, 108
1, 82808, Note_off_c, 0, 60, 108
1, 82861, Note_on_c, 0, 58, 104
1, 83053, Note_off_c, 0, 58, 104
1, 83165, Note_on_c, 0, 63, 118
1, 83377, Note_off_c, 0, 63, 118
1, 83430, Note_on_c, 0, 60, 106
1, 83612, Note_off_c, 0, 60, 106
1, 83691, Note_on_c, 0, 58, 105
1, 83889, Note_off_c, 0, 58, 105
1, 83948, Note_on_c, 0, 55, 110
1, 84180, Note_off_c, 0, 55, 110
1, 84259, Note_on_c, 0, 60, 113
1, 84461, Note_off_c, 0, 60, 113
1, 84514, Note_on_c, 0, 58, 102
1, 84772, Note_off_c, 0, 58, 102
1, 84805, Note_on_c, 0, 55, 103
1, 85070, Note_off_c, 0, 55, 103
1, 85106, Note_on_c, 0, 53, 102
1, 85308, Note_off_c, 0, 53, 102
1, 85357, Note_on_c, 0, 58, 114
1, 85585, Note_off_c, 0, 58, 114
1, 85664, Note_on_c, 0, 55, 107
1, 85896, Note_off_c, 0, 55, 107
1, 85942, Note_on_c, 0, 50, 111
1, 86157, Note_off_c, 0, 50, 111
1, 86243, Note_on_c, 0, 46, 102
1, 86428, Note_off_c, 0, 46, 102
1, 86504, Note_on_c, 0, 50, 106
1, 86689, Note_off_c, 0, 50, 106
1, 86781, Note_on_c, 0, 55, 109
1, 87042, Note_off_c, 0, 55, 109
1, 87095, Note_on_c, 0, 60, 112
1, 87264, Note_off_c, 0, 60, 112
1, 87356, Note_on_c, 0, 62, 116
1, 87581, Note_off_c, 0, 62, 116
1, 87862, Note_on_c, 0, 60, 110
1, 88005, Note_on_c, 0, 62, 110
1, 88005, Note_off_c, 0, 60, 110
1, 88144, Note_off_c, 0, 62, 110
1, 88352, Note_on_c, 0, 61, 111
1, 88511, Note_off_c, 0, 61, 111
1, 88527, Note_on_c, 0, 62, 104
1, 88672, Note_off_c, 0, 62, 104
1, 88804, Note_on_c, 0, 60, 107
1, 88982, Note_off_c, 0, 60, 107
1, 89048, Note_on_c, 0, 62, 113
1, 89183, Note_off_c, 0, 62, 113
1, 89358, Note_on_c, 0, 62, 108
1, 89460, Note_off_c, 0, 62, 108
1, 89590, Note_on_c, 0, 62, 112
1, 89777, Note_off_c, 0, 62, 112
1, 89923, Note_on_c, 0, 60, 104
1, 90139, Note_off_c, 0, 60, 104
1, 90173, Note_on_c, 0, 62, 90
1, 90401, Note_off_c, 0, 62, 90
1, 90510, Note_on_c, 0, 60, 106
1, 90689, Note_off_c, 0, 60, 106
1, 90689, Note_on_c, 0, 62, 109
1, 90927, Note_off_c, 0, 62, 109
1, 91074, Note_on_c, 0, 60, 110
1, 91295, Note_off_c, 0, 60, 110
1, 91310, Note_on_c, 0, 62, 95
1, 91555, Note_off_c, 0, 62, 95
1, 91624, Note_on_c, 0, 60, 108
1, 91849, Note_off_c, 0, 60, 108
1, 92024, Note_on_c, 0, 58, 100
1, 92198, Note_off_c, 0, 58, 100
1, 92219, Note_on_c, 0, 60, 106
1, 92444, Note_off_c, 0, 60, 106
1, 92659, Note_on_c, 0, 58, 108
1, 92852, Note_off_c, 0, 58, 108
1, 92877, Note_on_c, 0, 60, 104
1, 93065, Note_off_c, 0, 60, 104
1, 93190, Note_on_c, 0, 58, 98
1, 93832, Note_off_c, 0, 58, 98
1, 95121, Note_on_c, 0, 59, 113
1, 95482, Note_off_c, 0, 59, 113
1, 95714, Note_on_c, 0, 56, 109
1, 96038, Note_off_c, 0, 56, 109
1, 96087, Note_on_c, 0, 55, 99
1, 96544, Note_off_c, 0, 55, 99
1, 96792, Note_on_c, 0, 53, 109
1, 96974, Note_off_c, 0, 53, 109
1, 97228, Note_on_c, 0, 60, 109
1, 97430, Note_off_c, 0, 60, 109
1, 97472, Note_on_c, 0, 62, 95
1, 97608, Note_off_c, 0, 62, 95
1, 97772, Note_on_c, 0, 60, 112
1, 98031, Note_off_c, 0, 60, 112
1, 98045, Note_on_c, 0, 62, 106
1, 98191, Note_off_c, 0, 62, 106
1, 98332, Note_on_c, 0, 60, 108
1, 98567, Note_off_c, 0, 60, 108
1, 98576, Note_on_c, 0, 62, 121
1, 98726, Note_off_c, 0, 62, 121
1, 98881, Note_on_c, 0, 60, 112
1, 99173, Note_off_c, 0, 60, 112
1, 99173, Note_on_c, 0, 62, 118
1, 99309, Note_off_c, 0, 62, 118
1, 99451, Note_on_c, 0, 60, 112
1, 99643, Note_off_c, 0, 60, 112
1, 99729, Note_on_c, 0, 62, 117
1, 99944, Note_off_c, 0, 62, 117
1, 100016, Note_on_c, 0, 60, 100
1, 100589, Note_off_c, 0, 60, 100
1, 102541, Note_on_c, 0, 60, 114
1, 102647, Note_off_c, 0, 60, 114
1, 102647, Note_on_c, 0, 61, 114
1, 102763, Note_off_c, 0, 61, 114
1, 102782, Note_on_c, 0, 65, 118
1, 102934, Note_off_c, 0, 65, 118
1, 102943, Note_on_c, 0, 70, 114
1, 103241, Note_off_c, 0, 70, 114
1, 104699, Note_on_c, 0, 72, 111
1, 104950, Note_off_c, 0, 72, 111
1, 105079, Note_on_c, 0, 66, 110
1, 105397, Note_off_c, 0, 66, 110
1, 105499, Note_on_c, 0, 65, 115
1, 105744, Note_off_c, 0, 65, 115
1, 105820, Note_on_c, 0, 63, 109
1, 106370, Note_off_c, 0, 63, 109
1, 106621, Note_on_c, 0, 65, 112
1, 107128, Note_off_c, 0, 65, 112
1, 107174, Note_on_c, 0, 67, 122
1, 107362, Note_off_c, 0, 67, 122
1, 107448, Note_on_c, 0, 63, 107
1, 107921, Note_off_c, 0, 63, 107
1, 108054, Note_on_c, 0, 60, 108
1, 108170, Note_off_c, 0, 60, 108
1, 108893, Note_on_c, 0, 67, 109
1, 109032, Note_off_c, 0, 67, 109
1, 109230, Note_on_c, 0, 72, 116
1, 109495, Note_off_c, 0, 72, 116
1, 109614, Note_on_c, 0, 72, 117
1, 109892, Note_off_c, 0, 72, 117
1, 109938, Note_on_c, 0, 72, 117
1, 110355, Note_off_c, 0, 72, 117
1, 110467, Note_on_c, 0, 72, 115
1, 110844, Note_off_c, 0, 72, 115
1, 111017, Note_on_c, 0, 72, 115
1, 112082, Note_off_c, 0, 72, 115
1, 112160, Note_on_c, 0, 72, 97
1, 112921, Note_off_c, 0, 72, 97
1, 114633, Note_on_c, 0, 77, 123
1, 114755, Note_off_c, 0, 77, 123
1, 114758, Note_on_c, 0, 78, 120
1, 114830, Note_off_c, 0, 78, 120
1, 114836, Note_on_c, 0, 77, 119
1, 114908, Note_off_c, 0, 77, 119
1, 115381, Note_on_c, 0, 73, 116
1, 115523, Note_off_c, 0, 73, 116
1, 115917, Note_on_c, 0, 72, 113
1, 116649, Note_off_c, 0, 72, 113
1, 116677, Note_on_c, 0, 72, 111
1, 116834, Note_off_c, 0, 72, 111
1, 116986, Note_on_c, 0, 69, 115
1, 117164, Note_off_c, 0, 69, 115
1, 117409, Note_on_c, 0, 65, 117
1, 117558, Note_off_c, 0, 65, 117
1, 117567, Note_on_c, 0, 66, 114
1, 117785, Note_off_c, 0, 66, 114
1, 117887, Note_on_c, 0, 65, 113
1, 118191, Note_off_c, 0, 65, 113
1, 118281, Note_on_c, 0, 63, 112
1, 119200, Note_off_c, 0, 63, 112
1, 119234, Note_on_c, 0, 60, 114
1, 119340, Note_off_c, 0, 60, 114
1, 119406, Note_on_c, 0, 63, 107
1, 119498, Note_off_c, 0, 63, 107
1, 119524, Note_on_c, 0, 65, 116
1, 119610, Note_off_c, 0, 65, 116
1, 119623, Note_on_c, 0, 67, 118
1, 119818, Note_off_c, 0, 67, 118
1, 119828, Note_on_c, 0, 65, 109
1, 119896, Note_off_c, 0, 65, 109
1, 119924, Note_on_c, 0, 62, 117
1, 120001, Note_off_c, 0, 62, 117
1, 120125, Note_on_c, 0, 58, 102
1, 120302, Note_off_c, 0, 58, 102
1, 120430, Note_on_c, 0, 60, 104
1, 120472, Note_off_c, 0, 60, 104
1, 120472, Note_on_c, 0, 62, 111
1, 121417, Note_off_c, 0, 62, 111
1, 121442, Note_on_c, 0, 61, 115
1, 121571, Note_off_c, 0, 61, 115
1, 121724, Note_on_c, 0, 59, 114
1, 121804, Note_off_c, 0, 59, 114
1, 121853, Note_on_c, 0, 62, 118
1, 121926, Note_off_c, 0, 62, 118
1, 121949, Note_on_c, 0, 58, 104
1, 122006, Note_off_c, 0, 58, 104
1, 122046, Note_on_c, 0, 56, 114
1, 122168, Note_off_c, 0, 56, 114
1, 122320, Note_on_c, 0, 56, 104
1, 122429, Note_off_c, 0, 56, 104
1, 122442, Note_on_c, 0, 59, 107
1, 122544, Note_off_c, 0, 59, 107
1, 123226, Note_on_c, 0, 53, 117
1, 123335, Note_off_c, 0, 53, 117
1, 123370, Note_on_c, 0, 57, 110
1, 123454, Note_off_c, 0, 57, 110
1, 123468, Note_on_c, 0, 60, 108
1, 123543, Note_off_c, 0, 60, 108
1, 123543, Note_on_c, 0, 62, 101
1, 123608, Note_off_c, 0, 62, 101
1, 123640, Note_on_c, 0, 65, 111
1, 123741, Note_off_c, 0, 65, 111
1, 123755, Note_on_c, 0, 68, 111
1, 123915, Note_off_c, 0, 68, 111
1, 124977, Note_on_c, 0, 65, 113
1, 125080, Note_off_c, 0, 65, 113
1, 125775, Note_on_c, 0, 66, 119
1, 125867, Note_off_c, 0, 66, 119
1, 125890, Note_on_c, 0, 67, 117
1, 126115, Note_off_c, 0, 67, 117
1, 126138, Note_on_c, 0, 67, 115
1, 126310, Note_off_c, 0, 67, 115
1, 126595, Note_on_c, 0, 70, 118
1, 126770, Note_off_c, 0, 70, 118
1, 127084, Note_on_c, 0, 67, 108
1, 127319, Note_off_c, 0, 67, 108
1, 127779, Note_on_c, 0, 67, 109
1, 127954, Note_off_c, 0, 67, 109
1, 128336, Note_on_c, 0, 67, 115
1, 128816, Note_off_c, 0, 67, 115
1, 128867, Note_on_c, 0, 65, 115
1, 129102, Note_off_c, 0, 65, 115
1, 129186, Note_on_c, 0, 67, 117
1, 129308, Note_off_c, 0, 67, 117
1, 129345, Note_on_c, 0, 67, 111
1, 129462, Note_off_c, 0, 67, 111
1, 129523, Note_on_c, 0, 67, 112
1, 129636, Note_off_c, 0, 67, 112
1, 129661, Note_on_c, 0, 67, 118
1, 129795, Note_off_c, 0, 67, 118
1, 130007, Note_on_c, 0, 71, 114
1, 130115, Note_off_c, 0, 71, 114
1, 130507, Note_on_c, 0, 67, 114
1, 130705, Note_off_c, 0, 67, 114
1, 131165, Note_on_c, 0, 67, 113
1, 131360, Note_off_c, 0, 67, 113
1, 131693, Note_on_c, 0, 65, 118
1, 131860, Note_off_c, 0, 65, 118
1, 131883, Note_on_c, 0, 66, 96
1, 132073, Note_off_c, 0, 66, 96
1, 132200, Note_on_c, 0, 65, 115
1, 132367, Note_off_c, 0, 65, 115
1, 132510, Note_on_c, 0, 63, 115
1, 132675, Note_off_c, 0, 63, 115
1, 132751, Note_on_c, 0, 60, 113
1, 132923, Note_off_c, 0, 60, 113
1, 133012, Note_on_c, 0, 58, 113
1, 133190, Note_off_c, 0, 58, 113
1, 133315, Note_on_c, 0, 54, 119
1, 133384, Note_off_c, 0, 54, 119
1, 133384, Note_on_c, 0, 55, 119
1, 133533, Note_off_c, 0, 55, 119
1, 133612, Note_on_c, 0, 53, 115
1, 133781, Note_off_c, 0, 53, 115
1, 133943, Note_on_c, 0, 50, 110
1, 134092, Note_off_c, 0, 50, 110
1, 134181, Note_on_c, 0, 44, 104
1, 134422, Note_off_c, 0, 44, 104
1, 134746, Note_on_c, 0, 53, 113
1, 134908, Note_off_c, 0, 53, 113
1, 135063, Note_on_c, 0, 58, 113
1, 135260, Note_off_c, 0, 58, 113
1, 135318, Note_on_c, 0, 55, 116
1, 135480, Note_off_c, 0, 55, 116
1, 135603, Note_on_c, 0, 51, 109
1, 135738, Note_off_c, 0, 51, 109
1, 135820, Note_on_c, 0, 55, 115
1, 136025, Note_off_c, 0, 55, 115
1, 136111, Note_on_c, 0, 63, 115
1, 136323, Note_off_c, 0, 63, 115
1, 136369, Note_on_c, 0, 60, 112
1, 136587, Note_off_c, 0, 60, 112
1, 136915, Note_on_c, 0, 60, 112
1, 137080, Note_off_c, 0, 60, 112
1, 137235, Note_on_c, 0, 65, 120
1, 137463, Note_off_c, 0, 65, 120
1, 137489, Note_on_c, 0, 62, 117
1, 137777, Note_off_c, 0, 62, 117
1, 137816, Note_on_c, 0, 58, 110
1, 137998, Note_off_c, 0, 58, 110
1, 138064, Note_on_c, 0, 62, 121
1, 138296, Note_off_c, 0, 62, 121
1, 138378, Note_on_c, 0, 68, 119
1, 138656, Note_off_c, 0, 68, 119
1, 138679, Note_on_c, 0, 67, 111
1, 138940, Note_off_c, 0, 67, 111
1, 139026, Note_on_c, 0, 62, 108
1, 139185, Note_off_c, 0, 62, 108
1, 139287, Note_on_c, 0, 67, 114
1, 139688, Note_off_c, 0, 67, 114
1, 139906, Note_on_c, 0, 60, 102
1, 140220, Note_off_c, 0, 60, 102
1, 140461, Note_on_c, 0, 63, 117
1, 140852, Note_off_c, 0, 63, 117
1, 141011, Note_on_c, 0, 63, 114
1, 141461, Note_off_c, 0, 63, 114
1, 141545, Note_on_c, 0, 63, 119
1, 141776, Note_off_c, 0, 63, 119
1, 141873, Note_on_c, 0, 60, 105
1, 141992, Note_off_c, 0, 60, 105
1, 141992, Note_on_c, 0, 63, 117
1, 142253, Note_off_c, 0, 63, 117
1, 142299, Note_on_c, 0, 60, 116
1, 142537, Note_off_c, 0, 60, 116
1, 142543, Note_on_c, 0, 63, 116
1, 143119, Note_off_c, 0, 63, 116
1, 143128, Note_on_c, 0, 65, 114
1, 143366, Note_off_c, 0, 65, 114
1, 143433, Note_on_c, 0, 62, 104
1, 143578, Note_off_c, 0, 62, 104
1, 143599, Note_on_c, 0, 60, 105
1, 143669, Note_off_c, 0, 60, 105
1, 143669, Note_on_c, 0, 56, 101
1, 143833, Note_off_c, 0, 56, 101
1, 143875, Note_on_c, 0, 54, 118
1, 144006, Note_off_c, 0, 54, 118
1, 144008, Note_on_c, 0, 55, 109
1, 144172, Note_off_c, 0, 55, 109
1, 144827, Note_on_c, 0, 64, 124
1, 144921, Note_off_c, 0, 64, 124
1, 144921, Note_on_c, 0, 65, 117
1, 145071, Note_off_c, 0, 65, 117
1, 145165, Note_on_c, 0, 63, 112
1, 145282, Note_off_c, 0, 63, 112
1, 145692, Note_on_c, 0, 60, 114
1, 145894, Note_off_c, 0, 60, 114
1, 145974, Note_on_c, 0, 58, 104
1, 146398, Note_off_c, 0, 58, 104
1, 146544, Note_on_c, 0, 55, 121
1, 146605, Note_off_c, 0, 55, 121
1, 146623, Note_on_c, 0, 56, 114
1, 146743, Note_off_c, 0, 56, 114
1, 146743, Note_on_c, 0, 54, 116
1, 147213, Note_off_c, 0, 54, 116
1, 147336, Note_on_c, 0, 51, 112
1, 147510, Note_off_c, 0, 51, 112
1, 147656, Note_on_c, 0, 54, 117
1, 147771, Note_off_c, 0, 54, 117
1, 147787, Note_on_c, 0, 55, 103
1, 148091, Note_off_c, 0, 55, 103
1, 148131, Note_on_c, 0, 58, 114
1, 148378, Note_off_c, 0, 58, 114
1, 148446, Note_on_c, 0, 55, 114
1, 149055, Note_off_c, 0, 55, 114
1, 149094, Note_on_c, 0, 55, 111
1, 149226, Note_off_c, 0, 55, 111
1, 149680, Note_on_c, 0, 55, 116
1, 149832, Note_off_c, 0, 55, 116
1, 149914, Note_on_c, 0, 60, 117
1, 150109, Note_off_c, 0, 60, 117
1, 150208, Note_on_c, 0, 63, 118
1, 150469, Note_off_c, 0, 63, 118
1, 150500, Note_on_c, 0, 55, 102
1, 150641, Note_off_c, 0, 55, 102
1, 150737, Note_on_c, 0, 58, 112
1, 150899, Note_off_c, 0, 58, 112
1, 150996, Note_on_c, 0, 60, 110
1, 152287, Note_off_c, 0, 60, 110
1, 152296, Note_on_c, 0, 56, 126
1, 152418, Note_off_c, 0, 56, 126
1, 152433, Note_on_c, 0, 57, 112
1, 152684, Note_off_c, 0, 57, 112
1, 152715, Note_on_c, 0, 54, 96
1, 152782, Note_off_c, 0, 54, 96
1, 154075, Note_on_c, 0, 60, 115
1, 154320, Note_off_c, 0, 60, 115
1, 154400, Note_on_c, 0, 63, 119
1, 155653, Note_off_c, 0, 63, 119
1, 155718, Note_on_c, 0, 60, 116
1, 155953, Note_off_c, 0, 60, 116
1, 156658, Note_on_c, 0, 63, 94
1, 156783, Note_off_c, 0, 63, 94
1, 156879, Note_on_c, 0, 65, 115
1, 157197, Note_off_c, 0, 65, 115
1, 157223, Note_on_c, 0, 63, 117
1, 157388, Note_off_c, 0, 63, 117
1, 157450, Note_on_c, 0, 65, 117
1, 157735, Note_off_c, 0, 65, 117
1, 157784, Note_on_c, 0, 63, 117
1, 158012, Note_off_c, 0, 63, 117
1, 158055, Note_on_c, 0, 65, 117
1, 158310, Note_off_c, 0, 65, 117
1, 158333, Note_on_c, 0, 63, 119
1, 158468, Note_off_c, 0, 63, 119
1, 158577, Note_on_c, 0, 66, 122
1, 158712, Note_off_c, 0, 66, 122
1, 158712, Note_on_c, 0, 67, 117
1, 159341, Note_off_c, 0, 67, 117
1, 159457, Note_on_c, 0, 66, 119
1, 159566, Note_off_c, 0, 66, 119
1, 159575, Note_on_c, 0, 65, 109
1, 159661, Note_off_c, 0, 65, 109
1, 159690, Note_on_c, 0, 64, 106
1, 159786, Note_off_c, 0, 64, 106
1, 159839, Note_on_c, 0, 63, 110
1, 160039, Note_off_c, 0, 63, 110
1, 160331, Note_on_c, 0, 60, 108
1, 160404, Note_off_c, 0, 60, 108
1, 160434, Note_on_c, 0, 58, 108
1, 160636, Note_off_c, 0, 58, 108
1, 160701, Note_on_c, 0, 54, 114
1, 160835, Note_off_c, 0, 54, 114
1, 160853, Note_on_c, 0, 60, 111
1, 161974, Note_off_c, 0, 60, 111
1, 163039, Note_on_c, 0, 60, 91
1, 163130, Note_off_c, 0, 60, 91
1, 163205, Note_on_c, 0, 60, 98
1, 163414, Note_off_c, 0, 60, 98
1, 163472, Note_on_c, 0, 60, 112
1, 163740, Note_off_c, 0, 60, 112
1, 163749, Note_on_c, 0, 64, 116
1, 164015, Note_off_c, 0, 64, 116
1, 164019, Note_on_c, 0, 67, 119
1, 164226, Note_off_c, 0, 67, 119
1, 165176, Note_on_c, 0, 70, 117
1, 165673, Note_off_c, 0, 70, 117
1, 165971, Note_on_c, 0, 67, 118
1, 166497, Note_off_c, 0, 67, 118
1, 166516, Note_on_c, 0, 65, 119
1, 166724, Note_off_c, 0, 65, 119
1, 166876, Note_on_c, 0, 63, 112
1, 167343, Note_off_c, 0, 63, 112
1, 167389, Note_on_c, 0, 60, 112
1, 167554, Note_off_c, 0, 60, 112
1, 167756, Note_on_c, 0, 61, 112
1, 167929, Note_off_c, 0, 61, 112
1, 167964, Note_on_c, 0, 62, 115
1, 168510, Note_off_c, 0, 62, 115
1, 168980, Note_on_c, 0, 63, 119
1, 169168, Note_off_c, 0, 63, 119
1, 169204, Note_on_c, 0, 62, 117
1, 169459, Note_off_c, 0, 62, 117
1, 169518, Note_on_c, 0, 60, 110
1, 169746, Note_off_c, 0, 60, 110
1, 169825, Note_on_c, 0, 57, 113
1, 169987, Note_off_c, 0, 57, 113
1, 170245, Note_on_c, 0, 58, 108
1, 170732, Note_off_c, 0, 58, 108
1, 170804, Note_on_c, 0, 55, 107
1, 170986, Note_off_c, 0, 55, 107
1, 172344, Note_on_c, 0, 55, 121
1, 172493, Note_off_c, 0, 55, 121
1, 172519, Note_on_c, 0, 56, 122
1, 172688, Note_off_c, 0, 56, 122
1, 172791, Note_on_c, 0, 56, 115
1, 173026, Note_off_c, 0, 56, 115
1, 173047, Note_on_c, 0, 56, 116
1, 173303, Note_off_c, 0, 56, 116
1, 173331, Note_on_c, 0, 55, 119
1, 173425, Note_off_c, 0, 55, 119
1, 173453, Note_on_c, 0, 56, 121
1, 173584, Note_off_c, 0, 56, 121
1, 173634, Note_on_c, 0, 57, 116
1, 174111, Note_off_c, 0, 57, 116
1, 174684, Note_on_c, 0, 58, 117
1, 174988, Note_off_c, 0, 58, 117
1, 175292, Note_on_c, 0, 59, 116
1, 175567, Note_off_c, 0, 59, 116
1, 175586, Note_on_c, 0, 56, 111
1, 175705, Note_off_c, 0, 56, 111
1, 175705, Note_on_c, 0, 60, 116
1, 175890, Note_off_c, 0, 60, 116
1, 175929, Note_on_c, 0, 56, 108
1, 176061, Note_off_c, 0, 56, 108
1, 176061, Note_on_c, 0, 61, 116
1, 176326, Note_off_c, 0, 61, 116
1, 176388, Note_on_c, 0, 58, 112
1, 176507, Note_off_c, 0, 58, 112
1, 176516, Note_on_c, 0, 62, 119
1, 176764, Note_off_c, 0, 62, 119
1, 176790, Note_on_c, 0, 60, 110
1, 176909, Note_off_c, 0, 60, 110
1, 176932, Note_on_c, 0, 63, 117
1, 177197, Note_off_c, 0, 63, 117
1, 177230, Note_on_c, 0, 61, 109
1, 177362, Note_off_c, 0, 61, 109
1, 177371, Note_on_c, 0, 64, 122
1, 177606, Note_off_c, 0, 64, 122
1, 177639, Note_on_c, 0, 61, 108
1, 177791, Note_off_c, 0, 61, 108
1, 177820, Note_on_c, 0, 66, 115
1, 177985, Note_off_c, 0, 66, 115
1, 177998, Note_on_c, 0, 67, 119
1, 178114, Note_off_c, 0, 67, 119
1, 178143, Note_on_c, 0, 67, 120
1, 178272, Note_off_c, 0, 67, 120
1, 178288, Note_on_c, 0, 67, 108
1, 178466, Note_off_c, 0, 67, 108
1, 179251, Note_on_c, 0, 67, 104
1, 179376, Note_off_c, 0, 67, 104
1, 179458, Note_on_c, 0, 72, 115
1, 179832, Note_off_c, 0, 72, 115
1, 179924, Note_on_c, 0, 68, 111
1, 179983, Note_off_c, 0, 68, 111
1, 179989, Note_on_c, 0, 67, 112
1, 180171, Note_off_c, 0, 67, 112
1, 181204, Note_on_c, 0, 65, 119
1, 181376, Note_off_c, 0, 65, 119
1, 181411, Note_on_c, 0, 65, 112
1, 181528, Note_off_c, 0, 65, 112
1, 181575, Note_on_c, 0, 65, 108
1, 181824, Note_off_c, 0, 65, 108
1, 182514, Note_on_c, 0, 66, 117
1, 182645, Note_off_c, 0, 66, 117
1, 182659, Note_on_c, 0, 67, 111
1, 182769, Note_off_c, 0, 67, 111
1, 182890, Note_on_c, 0, 63, 118
1, 183377, Note_off_c, 0, 63, 118
1, 183461, Note_on_c, 0, 61, 113
1, 183602, Note_off_c, 0, 61, 113
1, 184319, Note_on_c, 0, 61, 93
1, 184432, Note_off_c, 0, 61, 93
1, 184585, Note_on_c, 0, 65, 118
1, 184853, Note_off_c, 0, 65, 118
1, 184882, Note_on_c, 0, 63, 111
1, 185074, Note_off_c, 0, 63, 111
1, 185100, Note_on_c, 0, 65, 119
1, 185404, Note_off_c, 0, 65, 119
1, 185453, Note_on_c, 0, 63, 118
1, 185675, Note_off_c, 0, 63, 118
1, 185765, Note_on_c, 0, 67, 119
1, 189860, Note_off_c, 0, 67, 119
1, 189949, Note_on_c, 0, 67, 113
1, 190094, Note_off_c, 0, 67, 113
1, 190229, Note_on_c, 0, 70, 112
1, 190394, Note_off_c, 0, 70, 112
1, 190516, Note_on_c, 0, 72, 118
1, 190751, Note_off_c, 0, 72, 118
1, 190825, Note_on_c, 0, 72, 115
1, 191018, Note_off_c, 0, 72, 115
1, 191059, Note_on_c, 0, 72, 112
1, 191135, Note_off_c, 0, 72, 112
1, 191146, Note_on_c, 0, 70, 115
1, 191278, Note_off_c, 0, 70, 115
1, 191387, Note_on_c, 0, 72, 116
1, 191960, Note_off_c, 0, 72, 116
1, 191973, Note_on_c, 0, 70, 115
1, 192064, Note_off_c, 0, 70, 115
1, 192075, Note_on_c, 0, 68, 115
1, 192173, Note_off_c, 0, 68, 115
1, 192173, Note_on_c, 0, 66, 109
1, 192241, Note_off_c, 0, 66, 109
1, 193941, Note_on_c, 0, 63, 121
1, 194312, Note_off_c, 0, 63, 121
1, 194779, Note_on_c, 0, 60, 111
1, 195150, Note_off_c, 0, 60, 111
1, 195228, Note_on_c, 0, 60, 110
1, 195338, Note_off_c, 0, 60, 110
1, 195403, Note_on_c, 0, 60, 102
1, 195624, Note_off_c, 0, 60, 102
1, 196776, Note_on_c, 0, 67, 98
1, 196922, Note_off_c, 0, 67, 98
1, 197053, Note_on_c, 0, 70, 119
1, 197194, Note_off_c, 0, 70, 119
1, 197356, Note_on_c, 0, 72, 115
1, 197652, Note_off_c, 0, 72, 115
1, 197666, Note_on_c, 0, 72, 116
1, 197901, Note_off_c, 0, 72, 116
1, 197915, Note_on_c, 0, 70, 115
1, 198108, Note_off_c, 0, 70, 115
1, 198227, Note_on_c, 0, 72, 115
1, 198697, Note_off_c, 0, 72, 115
1, 198703, Note_on_c, 0, 71, 117
1, 198782, Note_off_c, 0, 71, 117
1, 198801, Note_on_c, 0, 69, 118
1, 198847, Note_off_c, 0, 69, 118
1, 198850, Note_on_c, 0, 66, 116
1, 198903, Note_off_c, 0, 66, 116
1, 198936, Note_on_c, 0, 63, 109
1, 199005, Note_off_c, 0, 63, 109
1, 200310, Note_on_c, 0, 64, 121
1, 200472, Note_off_c, 0, 64, 121
1, 200511, Note_on_c, 0, 65, 114
1, 201432, Note_off_c, 0, 65, 114
1, 201524, Note_on_c, 0, 62, 116
1, 201951, Note_off_c, 0, 62, 116
1, 202086, Note_on_c, 0, 59, 114
1, 202378, Note_off_c, 0, 59, 114
1, 203945, Note_on_c, 0, 72, 116
1, 204296, Note_off_c, 0, 72, 116
1, 204299, Note_on_c, 0, 71, 115
1, 204395, Note_off_c, 0, 71, 115
1, 204398, Note_on_c, 0, 70, 115
1, 204507, Note_off_c, 0, 70, 115
1, 204540, Note_on_c, 0, 69, 112
1, 204586, Note_off_c, 0, 69, 112
1, 204625, Note_on_c, 0, 67, 106
1, 204744, Note_off_c, 0, 67, 106
1, 205393, Note_on_c, 0, 60, 115
1, 205634, Note_off_c, 0, 60, 115
1, 205643, Note_on_c, 0, 59, 116
1, 205729, Note_off_c, 0, 59, 116
1, 205752, Note_on_c, 0, 58, 108
1, 205887, Note_on_c, 0, 57, 97
1, 205887, Note_off_c, 0, 58, 108
1, 205993, Note_off_c, 0, 57, 97
1, 206556, Note_on_c, 0, 48, 110
1, 206966, Note_off_c, 0, 48, 110
1, 207098, Note_on_c, 0, 51, 111
1, 207273, Note_off_c, 0, 51, 111
1, 207382, Note_on_c, 0, 55, 111
1, 207879, Note_off_c, 0, 55, 111
1, 208011, Note_on_c, 0, 51, 118
1, 208189, Note_off_c, 0, 51, 118
1, 208245, Note_on_c, 0, 53, 111
1, 208695, Note_off_c, 0, 53, 111
1, 208827, Note_on_c, 0, 51, 115
1, 209002, Note_off_c, 0, 51, 115
1, 209661, Note_on_c, 0, 51, 117
1, 209823, Note_off_c, 0, 51, 117
1, 209902, Note_on_c, 0, 55, 117
1, 210369, Note_off_c, 0, 55, 117
1, 210528, Note_on_c, 0, 51, 114
1, 210687, Note_off_c, 0, 51, 114
1, 210746, Note_on_c, 0, 53, 108
1, 211200, Note_off_c, 0, 53, 108
1, 211325, Note_on_c, 0, 53, 112
1, 211550, Note_off_c, 0, 53, 112
1, 211719, Note_on_c, 0, 51, 114
1, 212000, Note_off_c, 0, 51, 114
1, 212238, Note_on_c, 0, 48, 109
1, 212397, Note_off_c, 0, 48, 109
1, 212612, Note_on_c, 0, 53, 111
1, 212913, Note_off_c, 0, 53, 111
1, 213158, Note_on_c, 0, 55, 117
1, 213459, Note_off_c, 0, 55, 117
1, 213690, Note_on_c, 0, 58, 113
1, 214008, Note_off_c, 0, 58, 113
1, 214236, Note_on_c, 0, 60, 113
1, 214557, Note_off_c, 0, 60, 113
1, 214762, Note_on_c, 0, 63, 118
1, 215172, Note_off_c, 0, 63, 118
1, 215238, Note_on_c, 0, 67, 119
1, 215479, Note_off_c, 0, 67, 119
1, 215508, Note_on_c, 0, 65, 116
1, 215753, Note_off_c, 0, 65, 116
1, 215865, Note_on_c, 0, 63, 119
1, 216163, Note_off_c, 0, 63, 119
1, 216209, Note_on_c, 0, 62, 117
1, 216527, Note_off_c, 0, 62, 117
1, 216772, Note_on_c, 0, 60, 116
1, 217010, Note_off_c, 0, 60, 116
1, 217192, Note_on_c, 0, 55, 117
1, 217407, Note_off_c, 0, 55, 117
1, 217463, Note_on_c, 0, 50, 112
1, 217648, Note_off_c, 0, 50, 112
1, 217724, Note_on_c, 0, 48, 113
1, 217922, Note_off_c, 0, 48, 113
1, 217945, Note_on_c, 0, 44, 119
1, 218160, Note_off_c, 0, 44, 119
1, 218246, Note_on_c, 0, 43, 111
1, 218912, Note_off_c, 0, 43, 111
1, 218912, End_track
0, 0, End_of_file
