0, 0, Header, 1, 1, 192
1, 0, Start_track
1, 0, Title_t, "Melody"
1, 0, Tempo, 247933
1, 0, Time_signature, 4, 2, 24, 8
1, 3553, Note_on_c, 0, 67, 112
1, 3656, Note_off_c, 0, 67, 112
1, 3678, Note_on_c, 0, 70, 106
1, 3949, Note_off_c, 0, 70, 106
1, 3953, Note_on_c, 0, 68, 115
1, 4040, Note_off_c, 0, 68, 115
1, 4084, Note_on_c, 0, 63, 101
1, 4144, Note_off_c, 0, 63, 101
1, 4172, Note_on_c, 0, 65, 109
1, 4243, Note_off_c, 0, 65, 109
1, 4256, Note_on_c, 0, 68, 114
1, 4341, Note_off_c, 0, 68, 114
1, 4349, Note_on_c, 0, 67, 115
1, 4427, Note_off_c, 0, 67, 115
1, 4431, Note_on_c, 0, 66, 108
1, 4509, Note_off_c, 0, 66, 108
1, 4514, Note_on_c, 0, 65, 110
1, 4621, Note_off_c, 0, 65, 110
1, 4627, Note_on_c, 0, 62, 97
1, 4718, Note_off_c, 0, 62, 97
1, 4730, Note_on_c, 0, 63, 114
1, 4903, Note_off_c, 0, 63, 114
1, 4920, Note_on_c, 0, 58, 96
1, 5021, Note_off_c, 0, 58, 96
1, 5044, Note_on_c, 0, 56, 94
1, 5306, Note_off_c, 0, 56, 94
1, 5310, Note_on_c, 0, 58, 93
1, 5627, Note_off_c, 0, 58, 93
1, 6406, Note_on_c, 0, 72, 102
1, 6482, Note_off_c, 0, 72, 102
1, 6488, Note_on_c, 0, 73, 103
1, 6573, Note_off_c, 0, 73, 103
1, 6598, Note_on_c, 0, 69, 117
1, 6678, Note_off_c, 0, 69, 117
1, 6690, Note_on_c, 0, 65, 113
1, 6786, Note_off_c, 0, 65, 113
1, 6797, Note_on_c, 0, 61, 100
1, 6866, Note_off_c, 0, 61, 100
1, 6879, Note_on_c, 0, 71, 118
1, 6986, Note_off_c, 0, 71, 118
1, 7044, Note_on_c, 0, 62, 96
1, 7772, Note_off_c, 0, 62, 96
1, 7783, Note_on_c, 0, 61, 93
1, 7834, Note_off_c, 0, 61, 93
1, 7890, Note_on_c, 0, 66, 112
1, 7964, Note_off_c, 0, 66, 112
1, 7972, Note_on_c, 0, 68, 115
1, 8034, Note_off_c, 0, 68, 115
1, 8045, Note_on_c, 0, 67, 117
1, 8148, Note_off_c, 0, 67, 117
1, 8163, Note_on_c, 0, 62, 101
1, 8250, Note_off_c, 0, 62, 101
1, 10088, Note_on_c, 0, 73, 104
1, 10173, Note_off_c, 0, 73, 104
1, 10181, Note_on_c, 0, 72, 103
1, 10275, Note_off_c, 0, 72, 103
1, 10288, Note_on_c, 0, 71, 117
1, 10393, Note_off_c, 0, 71, 117
1, 10572, Note_on_c, 0, 73, 105
1, 10652, Note_off_c, 0, 73, 105
1, 10656, Note_on_c, 0, 72, 105
1, 10732, Note_off_c, 0, 72, 105
1, 10736, Note_on_c, 0, 71, 118
1, 10861, Note_off_c, 0, 71, 118
1, 10878, Note_on_c, 0, 67, 104
1, 10940, Note_off_c, 0, 67, 104
1, 10951, Note_on_c, 0, 70, 112
1, 11126, Note_off_c, 0, 70, 112
1, 11137, Note_on_c, 0, 67, 119
1, 11226, Note_off_c, 0, 67, 119
1, 11243, Note_on_c, 0, 69, 115
1, 11706, Note_off_c, 0, 69, 115
1, 11728, Note_on_c, 0, 67, 118
1, 11822, Note_off_c, 0, 67, 118
1, 11830, Note_on_c, 0, 69, 113
1, 11919, Note_off_c, 0, 69, 113
1, 11925, Note_on_c, 0, 70, 111
1, 12041, Note_off_c, 0, 70, 111
1, 12056, Note_on_c, 0, 62, 96
1, 12107, Note_off_c, 0, 62, 96
1, 12111, Note_on_c, 0, 65, 112
1, 12203, Note_off_c, 0, 65, 112
1, 12220, Note_on_c, 0, 69, 113
1, 12294, Note_off_c, 0, 69, 113
1, 12305, Note_on_c, 0, 68, 115
1, 12394, Note_off_c, 0, 68, 115
1, 12409, Note_on_c, 0, 71, 116
1, 12497, Note_off_c, 0, 71, 116
1, 12510, Note_on_c, 0, 66, 109
1, 12606, Note_off_c, 0, 66, 109
1, 12640, Note_on_c, 0, 64, 98
1, 12666, Note_off_c, 0, 64, 98
1, 12671, Note_on_c, 0, 65, 101
1, 12697, Note_off_c, 0, 65, 101
1, 12710, Note_on_c, 0, 63, 109
1, 12780, Note_off_c, 0, 63, 109
1, 12783, Note_on_c, 0, 65, 110
1, 12872, Note_off_c, 0, 65, 110
1, 12878, Note_on_c, 0, 66, 107
1, 12964, Note_off_c, 0, 66, 107
1, 12974, Note_on_c, 0, 68, 115
1, 13070, Note_off_c, 0, 68, 115
1, 13104, Note_on_c, 0, 69, 103
1, 13172, Note_off_c, 0, 69, 103
1, 13177, Note_on_c, 0, 71, 112
1, 13261, Note_off_c, 0, 71, 112
1, 13266, Note_on_c, 0, 72, 99
1, 13350, Note_off_c, 0, 72, 99
1, 13357, Note_on_c, 0, 74, 106
1, 13449, Note_off_c, 0, 74, 106
1, 13463, Note_on_c, 0, 75, 114
1, 13543, Note_off_c, 0, 75, 114
1, 13558, Note_on_c, 0, 75, 112
1, 13641, Note_off_c, 0, 75, 112
1, 13660, Note_on_c, 0, 74, 108
1, 13833, Note_off_c, 0, 74, 108
1, 13857, Note_on_c, 0, 73, 100
1, 13944, Note_off_c, 0, 73, 100
1, 13956, Note_on_c, 0, 72, 96
1, 14322, Note_off_c, 0, 72, 96
1, 14338, Note_on_c, 0, 71, 111
1, 14420, Note_off_c, 0, 71, 111
1, 14425, Note_on_c, 0, 70, 110
1, 14528, Note_off_c, 0, 70, 110
1, 14548, Note_on_c, 0, 65, 105
1, 14661, Note_off_c, 0, 65, 105
1, 15575, Note_on_c, 0, 83, 118
1, 15673, Note_off_c, 0, 83, 118
1, 15679, Note_on_c, 0, 80, 126
1, 15962, Note_off_c, 0, 80, 126
1, 15966, Note_on_c, 0, 79, 122
1, 16266, Note_off_c, 0, 79, 122
1, 16277, Note_on_c, 0, 78, 112
1, 16548, Note_off_c, 0, 78, 112
1, 16555, Note_on_c, 0, 77, 118
1, 16865, Note_off_c, 0, 77, 118
1, 16882, Note_on_c, 0, 74, 99
1, 16942, Note_off_c, 0, 74, 99
1, 16950, Note_on_c, 0, 77, 123
1, 17045, Note_off_c, 0, 77, 123
1, 17053, Note_on_c, 0, 76, 117
1, 17118, Note_off_c, 0, 76, 117
1, 17139, Note_on_c, 0, 75, 112
1, 17214, Note_off_c, 0, 75, 112
1, 17264, Note_on_c, 0, 77, 121
1, 17347, Note_off_c, 0, 77, 121
1, 17566, Note_on_c, 0, 78, 113
1, 17635, Note_off_c, 0, 78, 113
1, 17655, Note_on_c, 0, 80, 121
1, 17720, Note_off_c, 0, 80, 121
1, 17721, Note_on_c, 0, 79, 122
1, 18012, Note_off_c, 0, 79, 122
1, 18031, Note_on_c, 0, 78, 112
1, 18091, Note_off_c, 0, 78, 112
1, 18095, Note_on_c, 0, 77, 115
1, 18227, Note_off_c, 0, 77, 115
1, 18235, Note_on_c, 0, 73, 90
1, 18284, Note_off_c, 0, 73, 90
1, 18291, Note_on_c, 0, 75, 112
1, 18398, Note_off_c, 0, 75, 112
1, 18406, Note_on_c, 0, 77, 120
1, 18508, Note_off_c, 0, 77, 120
1, 18516, Note_on_c, 0, 74, 105
1, 18610, Note_off_c, 0, 74, 105
1, 18617, Note_on_c, 0, 73, 104
1, 18693, Note_off_c, 0, 73, 104
1, 18699, Note_on_c, 0, 72, 102
1, 18781, Note_off_c, 0, 72, 102
1, 18789, Note_on_c, 0, 70, 112
1, 18898, Note_off_c, 0, 70, 112
1, 18910, Note_on_c, 0, 69, 108
1, 18977, Note_off_c, 0, 69, 108
1, 19003, Note_on_c, 0, 66, 97
1, 19054, Note_off_c, 0, 66, 97
1, 19075, Note_on_c, 0, 68, 112
1, 19103, Note_off_c, 0, 68, 112
1, 19134, Note_on_c, 0, 69, 109
1, 19392, Note_off_c, 0, 69, 109
1, 19467, Note_on_c, 0, 75, 112
1, 19563, Note_off_c, 0, 75, 112
1, 19575, Note_on_c, 0, 69, 108
1, 19689, Note_off_c, 0, 69, 108
1, 19691, Note_on_c, 0, 68, 108
1, 19771, Note_off_c, 0, 68, 108
1, 19799, Note_on_c, 0, 71, 109
1, 19865, Note_off_c, 0, 71, 109
1, 19958, Note_on_c, 0, 75, 114
1, 20029, Note_off_c, 0, 75, 114
1, 20067, Note_on_c, 0, 73, 102
1, 20138, Note_off_c, 0, 73, 102
1, 20151, Note_on_c, 0, 68, 118
1, 20248, Note_off_c, 0, 68, 118
1, 20256, Note_on_c, 0, 66, 104
1, 20329, Note_off_c, 0, 66, 104
1, 20337, Note_on_c, 0, 61, 99
1, 20381, Note_off_c, 0, 61, 99
1, 20414, Note_on_c, 0, 67, 110
1, 20515, Note_off_c, 0, 67, 110
1, 20527, Note_on_c, 0, 70, 108
1, 20595, Note_off_c, 0, 70, 108
1, 20611, Note_on_c, 0, 73, 102
1, 20709, Note_off_c, 0, 73, 102
1, 20716, Note_on_c, 0, 72, 98
1, 20781, Note_off_c, 0, 72, 98
1, 20795, Note_on_c, 0, 70, 105
1, 20932, Note_off_c, 0, 70, 105
1, 22539, Note_on_c, 0, 65, 108
1, 22605, Note_off_c, 0, 65, 108
1, 22619, Note_on_c, 0, 71, 117
1, 22699, Note_off_c, 0, 71, 117
1, 22711, Note_on_c, 0, 68, 117
1, 22811, Note_off_c, 0, 68, 117
1, 22830, Note_on_c, 0, 66, 96
1, 22891, Note_off_c, 0, 66, 96
1, 22895, Note_on_c, 0, 67, 117
1, 22999, Note_off_c, 0, 67, 117
1, 23037, Note_on_c, 0, 70, 112
1, 23097, Note_off_c, 0, 70, 112
1, 23109, Note_on_c, 0, 69, 112
1, 23192, Note_off_c, 0, 69, 112
1, 23226, Note_on_c, 0, 62, 99
1, 23308, Note_off_c, 0, 62, 99
1, 23393, Note_on_c, 0, 69, 110
1, 23480, Note_off_c, 0, 69, 110
1, 23484, Note_on_c, 0, 68, 114
1, 23579, Note_off_c, 0, 68, 114
1, 23585, Note_on_c, 0, 71, 116
1, 23671, Note_off_c, 0, 71, 116
1, 23681, Note_on_c, 0, 66, 110
1, 23777, Note_off_c, 0, 66, 110
1, 23796, Note_on_c, 0, 63, 92
1, 23867, Note_off_c, 0, 63, 92
1, 23881, Note_on_c, 0, 65, 110
1, 23951, Note_off_c, 0, 65, 110
1, 23966, Note_on_c, 0, 68, 115
1, 24059, Note_off_c, 0, 68, 115
1, 24071, Note_on_c, 0, 70, 109
1, 24160, Note_off_c, 0, 70, 109
1, 24176, Note_on_c, 0, 72, 102
1, 24243, Note_off_c, 0, 72, 102
1, 24253, Note_on_c, 0, 73, 103
1, 24373, Note_off_c, 0, 73, 103
1, 24434, Note_on_c, 0, 69, 110
1, 24544, Note_off_c, 0, 69, 110
1, 24545, Note_on_c, 0, 68, 98
1, 24625, Note_off_c, 0, 68, 98
1, 24638, Note_on_c, 0, 71, 116
1, 24739, Note_off_c, 0, 71, 116
1, 24752, Note_on_c, 0, 73, 102
1, 24831, Note_off_c, 0, 73, 102
1, 24842, Note_on_c, 0, 70, 109
1, 24936, Note_off_c, 0, 70, 109
1, 24938, Note_on_c, 0, 68, 115
1, 25025, Note_off_c, 0, 68, 115
1, 25036, Note_on_c, 0, 65, 108
1, 25173, Note_off_c, 0, 65, 108
1, 25249, Note_on_c, 0, 71, 117
1, 25432, Note_off_c, 0, 71, 117
1, 25460, Note_on_c, 0, 67, 115
1, 25575, Note_off_c, 0, 67, 115
1, 25587, Note_on_c, 0, 62, 102
1, 25651, Note_off_c, 0, 62, 102
1, 25661, Note_on_c, 0, 65, 109
1, 25736, Note_off_c, 0, 65, 109
1, 25739, Note_on_c, 0, 67, 117
1, 25823, Note_off_c, 0, 67, 117
1, 25828, Note_on_c, 0, 64, 108
1, 25935, Note_off_c, 0, 64, 108
1, 25948, Note_on_c, 0, 62, 99
1, 26013, Note_off_c, 0, 62, 99
1, 26019, Note_on_c, 0, 65, 111
1, 26212, Note_off_c, 0, 65, 111
1, 26229, Note_on_c, 0, 64, 110
1, 26329, Note_off_c, 0, 64, 110
1, 26335, Note_on_c, 0, 62, 103
1, 26402, Note_off_c, 0, 62, 103
1, 26419, Note_on_c, 0, 59, 96
1, 26585, Note_off_c, 0, 59, 96
1, 26588, Note_on_c, 0, 62, 102
1, 26808, Note_off_c, 0, 62, 102
1, 26816, Note_on_c, 0, 57, 95
1, 26928, Note_off_c, 0, 57, 95
1, 27584, Note_on_c, 0, 65, 118
1, 27668, Note_off_c, 0, 65, 118
1, 27702, Note_on_c, 0, 58, 100
1, 27764, Note_off_c, 0, 58, 100
1, 27773, Note_on_c, 0, 63, 114
1, 27861, Note_off_c, 0, 63, 114
1, 27868, Note_on_c, 0, 65, 116
1, 27948, Note_off_c, 0, 65, 116
1, 27952, Note_on_c, 0, 64, 112
1, 28064, Note_off_c, 0, 64, 112
1, 28068, Note_on_c, 0, 61, 98
1, 28272, Note_off_c, 0, 61, 98
1, 28396, Note_on_c, 0, 66, 108
1, 28499, Note_off_c, 0, 66, 108
1, 28505, Note_on_c, 0, 71, 115
1, 28572, Note_off_c, 0, 71, 115
1, 28584, Note_on_c, 0, 73, 105
1, 28651, Note_off_c, 0, 73, 105
1, 28688, Note_on_c, 0, 75, 111
1, 28765, Note_off_c, 0, 75, 111
1, 28776, Note_on_c, 0, 69, 114
1, 28874, Note_off_c, 0, 69, 114
1, 28881, Note_on_c, 0, 68, 100
1, 28929, Note_off_c, 0, 68, 100
1, 28940, Note_on_c, 0, 71, 116
1, 29046, Note_off_c, 0, 71, 116
1, 29050, Note_on_c, 0, 72, 99
1, 29115, Note_off_c, 0, 72, 99
1, 29125, Note_on_c, 0, 75, 115
1, 29219, Note_off_c, 0, 75, 115
1, 29229, Note_on_c, 0, 77, 118
1, 29321, Note_off_c, 0, 77, 118
1, 29326, Note_on_c, 0, 78, 114
1, 29427, Note_off_c, 0, 78, 114
1, 29437, Note_on_c, 0, 80, 127
1, 29534, Note_off_c, 0, 80, 127
1, 29537, Note_on_c, 0, 79, 121
1, 29628, Note_off_c, 0, 79, 121
1, 29645, Note_on_c, 0, 74, 103
1, 29728, Note_off_c, 0, 74, 103
1, 30256, Note_on_c, 0, 77, 121
1, 30326, Note_off_c, 0, 77, 121
1, 30331, Note_on_c, 0, 78, 116
1, 30498, Note_off_c, 0, 78, 116
1, 30506, Note_on_c, 0, 77, 118
1, 30579, Note_off_c, 0, 77, 118
1, 30588, Note_on_c, 0, 73, 102
1, 30633, Note_off_c, 0, 73, 102
1, 30636, Note_on_c, 0, 72, 102
1, 30703, Note_off_c, 0, 72, 102
1, 30711, Note_on_c, 0, 70, 105
1, 30776, Note_off_c, 0, 70, 105
1, 30782, Note_on_c, 0, 69, 107
1, 31298, Note_off_c, 0, 69, 107
1, 31410, Note_on_c, 0, 68, 105
1, 31450, Note_off_c, 0, 68, 105
1, 31457, Note_on_c, 0, 71, 113
1, 31591, Note_off_c, 0, 71, 113
1, 31606, Note_on_c, 0, 68, 105
1, 31671, Note_off_c, 0, 68, 105
1, 31671, Note_on_c, 0, 70, 112
1, 31739, Note_off_c, 0, 70, 112
1, 31924, Note_on_c, 0, 70, 109
1, 31999, Note_off_c, 0, 70, 109
1, 32014, Note_on_c, 0, 69, 106
1, 32105, Note_off_c, 0, 69, 106
1, 34318, Note_on_c, 0, 65, 96
1, 34366, Note_off_c, 0, 65, 96
1, 34368, Note_on_c, 0, 66, 99
1, 34423, Note_off_c, 0, 66, 99
1, 34429, Note_on_c, 0, 70, 94
1, 34485, Note_off_c, 0, 70, 94
1, 34490, Note_on_c, 0, 72, 99
1, 34540, Note_off_c, 0, 72, 99
1, 34551, Note_on_c, 0, 77, 119
1, 34673, Note_off_c, 0, 77, 119
1, 34700, Note_on_c, 0, 72, 98
1, 34813, Note_off_c, 0, 72, 98
1, 35462, Note_on_c, 0, 65, 100
1, 35527, Note_off_c, 0, 65, 100
1, 35531, Note_on_c, 0, 66, 98
1, 35578, Note_off_c, 0, 66, 98
1, 35584, Note_on_c, 0, 70, 104
1, 35625, Note_off_c, 0, 70, 104
1, 35648, Note_on_c, 0, 72, 99
1, 35678, Note_off_c, 0, 72, 99
1, 35684, Note_on_c, 0, 77, 116
1, 35785, Note_off_c, 0, 77, 116
1, 36490, Note_on_c, 0, 78, 119
1, 36578, Note_off_c, 0, 78, 119
1, 36591, Note_on_c, 0, 77, 122
1, 36665, Note_off_c, 0, 77, 122
1, 36669, Note_on_c, 0, 76, 119
1, 36765, Note_off_c, 0, 76, 119
1, 36771, Note_on_c, 0, 78, 118
1, 36865, Note_off_c, 0, 78, 118
1, 36865, Note_on_c, 0, 77, 122
1, 36940, Note_off_c, 0, 77, 122
1, 36947, Note_on_c, 0, 76, 117
1, 37018, Note_off_c, 0, 76, 117
1, 37033, Note_on_c, 0, 75, 116
1, 37126, Note_off_c, 0, 75, 116
1, 37165, Note_on_c, 0, 77, 125
1, 37269, Note_off_c, 0, 77, 125
1, 37271, Note_on_c, 0, 76, 117
1, 37340, Note_off_c, 0, 76, 117
1, 37360, Note_on_c, 0, 73, 101
1, 37421, Note_off_c, 0, 73, 101
1, 37441, Note_on_c, 0, 70, 110
1, 37545, Note_off_c, 0, 70, 110
1, 37565, Note_on_c, 0, 66, 99
1, 37612, Note_off_c, 0, 66, 99
1, 37629, Note_on_c, 0, 73, 104
1, 37671, Note_off_c, 0, 73, 104
1, 37699, Note_on_c, 0, 74, 107
1, 38029, Note_off_c, 0, 74, 107
1, 38044, Note_on_c, 0, 73, 102
1, 38104, Note_off_c, 0, 73, 102
1, 38104, Note_on_c, 0, 69, 114
1, 38184, Note_off_c, 0, 69, 114
1, 38188, Note_on_c, 0, 68, 108
1, 38244, Note_off_c, 0, 68, 108
1, 38247, Note_on_c, 0, 70, 107
1, 38310, Note_off_c, 0, 70, 107
1, 38324, Note_on_c, 0, 75, 114
1, 38376, Note_off_c, 0, 75, 114
1, 38385, Note_on_c, 0, 78, 113
1, 38438, Note_off_c, 0, 78, 113
1, 38441, Note_on_c, 0, 80, 122
1, 38499, Note_off_c, 0, 80, 122
1, 38502, Note_on_c, 0, 79, 124
1, 38562, Note_off_c, 0, 79, 124
1, 39412, Note_on_c, 0, 83, 117
1, 39448, Note_off_c, 0, 83, 117
1, 39454, Note_on_c, 0, 80, 124
1, 39471, Note_off_c, 0, 80, 124
1, 39475, Note_on_c, 0, 79, 122
1, 39500, Note_off_c, 0, 79, 122
1, 39504, Note_on_c, 0, 78, 120
1, 39568, Note_off_c, 0, 78, 120
1, 39579, Note_on_c, 0, 77, 120
1, 39655, Note_off_c, 0, 77, 120
1, 39668, Note_on_c, 0, 76, 118
1, 39743, Note_off_c, 0, 76, 118
1, 39754, Note_on_c, 0, 75, 119
1, 39851, Note_off_c, 0, 75, 119
1, 39852, Note_on_c, 0, 77, 122
1, 39935, Note_off_c, 0, 77, 122
1, 39938, Note_on_c, 0, 76, 117
1, 40015, Note_off_c, 0, 76, 117
1, 40047, Note_on_c, 0, 73, 103
1, 40112, Note_off_c, 0, 73, 103
1, 40115, Note_on_c, 0, 72, 101
1, 40206, Note_off_c, 0, 72, 101
1, 40218, Note_on_c, 0, 71, 115
1, 40304, Note_off_c, 0, 71, 115
1, 40308, Note_on_c, 0, 70, 110
1, 40364, Note_off_c, 0, 70, 110
1, 40400, Note_on_c, 0, 69, 112
1, 40470, Note_off_c, 0, 69, 112
1, 40488, Note_on_c, 0, 68, 115
1, 40563, Note_off_c, 0, 68, 115
1, 40575, Note_on_c, 0, 71, 113
1, 40653, Note_off_c, 0, 71, 113
1, 40672, Note_on_c, 0, 72, 98
1, 40769, Note_off_c, 0, 72, 98
1, 40776, Note_on_c, 0, 73, 102
1, 40839, Note_off_c, 0, 73, 102
1, 40844, Note_on_c, 0, 68, 115
1, 40963, Note_off_c, 0, 68, 115
1, 40967, Note_on_c, 0, 66, 93
1, 41034, Note_off_c, 0, 66, 93
1, 41039, Note_on_c, 0, 67, 118
1, 41137, Note_off_c, 0, 67, 118
1, 41142, Note_on_c, 0, 70, 108
1, 41225, Note_off_c, 0, 70, 108
1, 41234, Note_on_c, 0, 73, 102
1, 41308, Note_off_c, 0, 73, 102
1, 41314, Note_on_c, 0, 75, 115
1, 41400, Note_off_c, 0, 75, 115
1, 41426, Note_on_c, 0, 77, 122
1, 41511, Note_off_c, 0, 77, 122
1, 41514, Note_on_c, 0, 78, 113
1, 41581, Note_off_c, 0, 78, 113
1, 41588, Note_on_c, 0, 79, 121
1, 41700, Note_off_c, 0, 79, 121
1, 41712, Note_on_c, 0, 78, 116
1, 41781, Note_off_c, 0, 78, 116
1, 41790, Note_on_c, 0, 77, 123
1, 41886, Note_off_c, 0, 77, 123
1, 41900, Note_on_c, 0, 76, 115
1, 41972, Note_off_c, 0, 76, 115
1, 41984, Note_on_c, 0, 75, 114
1, 42070, Note_off_c, 0, 75, 114
1, 42074, Note_on_c, 0, 77, 123
1, 42179, Note_off_c, 0, 77, 123
1, 42182, Note_on_c, 0, 76, 118
1, 42273, Note_off_c, 0, 76, 118
1, 42282, Note_on_c, 0, 73, 107
1, 42361, Note_off_c, 0, 73, 107
1, 42367, Note_on_c, 0, 70, 113
1, 42477, Note_off_c, 0, 70, 113
1, 42573, Note_on_c, 0, 75, 116
1, 42674, Note_off_c, 0, 75, 116
1, 42681, Note_on_c, 0, 73, 108
1, 42753, Note_off_c, 0, 73, 108
1, 42760, Note_on_c, 0, 69, 114
1, 42861, Note_off_c, 0, 69, 114
1, 42949, Note_on_c, 0, 71, 118
1, 43055, Note_off_c, 0, 71, 118
1, 43059, Note_on_c, 0, 73, 104
1, 43116, Note_off_c, 0, 73, 104
1, 43121, Note_on_c, 0, 74, 107
1, 43230, Note_off_c, 0, 74, 107
1, 43252, Note_on_c, 0, 72, 104
1, 43336, Note_off_c, 0, 72, 104
1, 43347, Note_on_c, 0, 68, 118
1, 43445, Note_off_c, 0, 68, 118
1, 43459, Note_on_c, 0, 66, 96
1, 43511, Note_off_c, 0, 66, 96
1, 43515, Note_on_c, 0, 67, 116
1, 43616, Note_off_c, 0, 67, 116
1, 43624, Note_on_c, 0, 69, 111
1, 43684, Note_off_c, 0, 69, 111
1, 43691, Note_on_c, 0, 72, 104
1, 43804, Note_off_c, 0, 72, 104
1, 43810, Note_on_c, 0, 69, 111
1, 43868, Note_off_c, 0, 69, 111
1, 43872, Note_on_c, 0, 65, 114
1, 43973, Note_off_c, 0, 65, 114
1, 43996, Note_on_c, 0, 60, 100
1, 44070, Note_off_c, 0, 60, 100
1, 44070, Note_on_c, 0, 63, 114
1, 44141, Note_off_c, 0, 63, 114
1, 44156, Note_on_c, 0, 68, 115
1, 44229, Note_off_c, 0, 68, 115
1, 44234, Note_on_c, 0, 67, 119
1, 44314, Note_off_c, 0, 67, 119
1, 44322, Note_on_c, 0, 70, 112
1, 44411, Note_off_c, 0, 70, 112
1, 44424, Note_on_c, 0, 65, 110
1, 44536, Note_off_c, 0, 65, 110
1, 44549, Note_on_c, 0, 62, 111
1, 44631, Note_off_c, 0, 62, 111
1, 44642, Note_on_c, 0, 59, 100
1, 44719, Note_off_c, 0, 59, 100
1, 44731, Note_on_c, 0, 63, 112
1, 44832, Note_off_c, 0, 63, 112
1, 44846, Note_on_c, 0, 56, 97
1, 44922, Note_off_c, 0, 56, 97
1, 44925, Note_on_c, 0, 63, 112
1, 45018, Note_off_c, 0, 63, 112
1, 45026, Note_on_c, 0, 58, 95
1, 45201, Note_off_c, 0, 58, 95
1, 45207, Note_on_c, 0, 56, 97
1, 45379, Note_off_c, 0, 56, 97
1, 46101, Note_on_c, 0, 71, 9
1, 46178, Note_off_c, 0, 71, 9
1, 46184, Note_on_c, 0, 70, 9
1, 46285, Note_off_c, 0, 70, 9
1, 46300, Note_on_c, 0, 65, 116
1, 46372, Note_off_c, 0, 65, 116
1, 46381, Note_on_c, 0, 58, 97
1, 46644, Note_off_c, 0, 58, 97
1, 46655, Note_on_c, 0, 65, 116
1, 46748, Note_off_c, 0, 65, 116
1, 46760, Note_on_c, 0, 61, 98
1, 47046, Note_off_c, 0, 61, 98
1, 47069, Note_on_c, 0, 64, 111
1, 47140, Note_off_c, 0, 64, 111
1, 47152, Note_on_c, 0, 66, 109
1, 47229, Note_off_c, 0, 66, 109
1, 47235, Note_on_c, 0, 71, 117
1, 47320, Note_off_c, 0, 71, 117
1, 47345, Note_on_c, 0, 65, 112
1, 47435, Note_off_c, 0, 65, 112
1, 47452, Note_on_c, 0, 62, 99
1, 47519, Note_off_c, 0, 62, 99
1, 47525, Note_on_c, 0, 64, 110
1, 47607, Note_off_c, 0, 64, 110
1, 47621, Note_on_c, 0, 70, 113
1, 47695, Note_off_c, 0, 70, 113
1, 47713, Note_on_c, 0, 63, 105
1, 47809, Note_off_c, 0, 63, 105
1, 47818, Note_on_c, 0, 70, 112
1, 47898, Note_off_c, 0, 70, 112
1, 47916, Note_on_c, 0, 64, 104
1, 48044, Note_off_c, 0, 64, 104
1, 48051, Note_on_c, 0, 61, 98
1, 48160, Note_off_c, 0, 61, 98
1, 48171, Note_on_c, 0, 62, 100
1, 48287, Note_off_c, 0, 62, 100
1, 48296, Note_on_c, 0, 70, 109
1, 48386, Note_off_c, 0, 70, 109
1, 48397, Note_on_c, 0, 65, 111
1, 48482, Note_off_c, 0, 65, 111
1, 48488, Note_on_c, 0, 63, 105
1, 48581, Note_off_c, 0, 63, 105
1, 48585, Note_on_c, 0, 64, 105
1, 48810, Note_off_c, 0, 64, 105
1, 48819, Note_on_c, 0, 66, 107
1, 48931, Note_off_c, 0, 66, 107
1, 48937, Note_on_c, 0, 61, 99
1, 49003, Note_off_c, 0, 61, 99
1, 49025, Note_on_c, 0, 63, 107
1, 49134, Note_off_c, 0, 63, 107
1, 49143, Note_on_c, 0, 60, 101
1, 49229, Note_off_c, 0, 60, 101
1, 49704, Note_on_c, 0, 70, 112
1, 49770, Note_off_c, 0, 70, 112
1, 49773, Note_on_c, 0, 68, 112
1, 49814, Note_off_c, 0, 68, 112
1, 49815, Note_on_c, 0, 67, 109
1, 49845, Note_off_c, 0, 67, 109
1, 49850, Note_on_c, 0, 63, 105
1, 49878, Note_off_c, 0, 63, 105
1, 49881, Note_on_c, 0, 59, 100
1, 49907, Note_off_c, 0, 59, 100
1, 49913, Note_on_c, 0, 63, 106
1, 49934, Note_off_c, 0, 63, 106
1, 49936, Note_on_c, 0, 67, 97
1, 49967, Note_off_c, 0, 67, 97
1, 49971, Note_on_c, 0, 68, 108
1, 50057, Note_off_c, 0, 68, 108
1, 50068, Note_on_c, 0, 71, 115
1, 50116, Note_off_c, 0, 71, 115
1, 50121, Note_on_c, 0, 67, 111
1, 50168, Note_off_c, 0, 67, 111
1, 50169, Note_on_c, 0, 66, 106
1, 50220, Note_off_c, 0, 66, 106
1, 50229, Note_on_c, 0, 64, 105
1, 50267, Note_off_c, 0, 64, 105
1, 50268, Note_on_c, 0, 62, 101
1, 50300, Note_off_c, 0, 62, 101
1, 50303, Note_on_c, 0, 63, 104
1, 50335, Note_off_c, 0, 63, 104
1, 50336, Note_on_c, 0, 65, 104
1, 50377, Note_off_c, 0, 65, 104
1, 50392, Note_on_c, 0, 68, 108
1, 50432, Note_off_c, 0, 68, 108
1, 50434, Note_on_c, 0, 69, 106
1, 50458, Note_off_c, 0, 69, 106
1, 50460, Note_on_c, 0, 70, 102
1, 50488, Note_off_c, 0, 70, 102
1, 50490, Note_on_c, 0, 72, 99
1, 50552, Note_off_c, 0, 72, 99
1, 50566, Note_on_c, 0, 69, 104
1, 50627, Note_off_c, 0, 69, 104
1, 50628, Note_on_c, 0, 68, 108
1, 50663, Note_off_c, 0, 68, 108
1, 50672, Note_on_c, 0, 71, 99
1, 50716, Note_off_c, 0, 71, 99
1, 50719, Note_on_c, 0, 72, 94
1, 50799, Note_off_c, 0, 72, 94
1, 50809, Note_on_c, 0, 76, 103
1, 50835, Note_off_c, 0, 76, 103
1, 50837, Note_on_c, 0, 78, 103
1, 50853, Note_off_c, 0, 78, 103
1, 50857, Note_on_c, 0, 80, 117
1, 50891, Note_off_c, 0, 80, 117
1, 50897, Note_on_c, 0, 83, 110
1, 50941, Note_off_c, 0, 83, 110
1, 50943, Note_on_c, 0, 79, 117
1, 51030, Note_off_c, 0, 79, 117
1, 51607, Note_on_c, 0, 83, 100
1, 51652, Note_off_c, 0, 83, 100
1, 51652, Note_on_c, 0, 81, 116
1, 51692, Note_off_c, 0, 81, 116
1, 51695, Note_on_c, 0, 79, 115
1, 51737, Note_off_c, 0, 79, 115
1, 51740, Note_on_c, 0, 78, 114
1, 51781, Note_off_c, 0, 78, 114
1, 51787, Note_on_c, 0, 77, 117
1, 51804, Note_off_c, 0, 77, 117
1, 51805, Note_on_c, 0, 76, 117
1, 51835, Note_off_c, 0, 76, 117
1, 51836, Note_on_c, 0, 74, 106
1, 51878, Note_off_c, 0, 74, 106
1, 51883, Note_on_c, 0, 73, 103
1, 51907, Note_off_c, 0, 73, 103
1, 51913, Note_on_c, 0, 72, 95
1, 51956, Note_off_c, 0, 72, 95
1, 51959, Note_on_c, 0, 71, 105
1, 51996, Note_off_c, 0, 71, 105
1, 52000, Note_on_c, 0, 68, 111
1, 52088, Note_off_c, 0, 68, 111
1, 52091, Note_on_c, 0, 71, 103
1, 52135, Note_off_c, 0, 71, 103
1, 52137, Note_on_c, 0, 72, 97
1, 52162, Note_off_c, 0, 72, 97
1, 52169, Note_on_c, 0, 73, 102
1, 52219, Note_off_c, 0, 73, 102
1, 52224, Note_on_c, 0, 68, 113
1, 52281, Note_off_c, 0, 68, 113
1, 52284, Note_on_c, 0, 66, 105
1, 52324, Note_off_c, 0, 66, 105
1, 52327, Note_on_c, 0, 67, 107
1, 52372, Note_off_c, 0, 67, 107
1, 52374, Note_on_c, 0, 70, 107
1, 52401, Note_off_c, 0, 70, 107
1, 52409, Note_on_c, 0, 69, 106
1, 52432, Note_off_c, 0, 69, 106
1, 52441, Note_on_c, 0, 60, 98
1, 52472, Note_off_c, 0, 60, 98
1, 52481, Note_on_c, 0, 63, 105
1, 52509, Note_off_c, 0, 63, 105
1, 52514, Note_on_c, 0, 62, 104
1, 52536, Note_off_c, 0, 62, 104
1, 52542, Note_on_c, 0, 63, 104
1, 52894, Note_off_c, 0, 63, 104
1, 52901, Note_on_c, 0, 65, 103
1, 52947, Note_off_c, 0, 65, 103
1, 52954, Note_on_c, 0, 67, 115
1, 53018, Note_off_c, 0, 67, 115
1, 53024, Note_on_c, 0, 69, 112
1, 53096, Note_off_c, 0, 69, 112
1, 53100, Note_on_c, 0, 67, 115
1, 53373, Note_off_c, 0, 67, 115
1, 53375, Note_on_c, 0, 66, 109
1, 53425, Note_off_c, 0, 66, 109
1, 53427, Note_on_c, 0, 65, 110
1, 53463, Note_off_c, 0, 65, 110
1, 53464, Note_on_c, 0, 64, 108
1, 53512, Note_off_c, 0, 64, 108
1, 53513, Note_on_c, 0, 63, 108
1, 53562, Note_off_c, 0, 63, 108
1, 53580, Note_on_c, 0, 67, 109
1, 53606, Note_off_c, 0, 67, 109
1, 53613, Note_on_c, 0, 68, 113
1, 53649, Note_off_c, 0, 68, 113
1, 53663, Note_on_c, 0, 71, 108
1, 53699, Note_off_c, 0, 71, 108
1, 53703, Note_on_c, 0, 72, 100
1, 53759, Note_off_c, 0, 72, 100
1, 53766, Note_on_c, 0, 73, 97
1, 53801, Note_off_c, 0, 73, 97
1, 53808, Note_on_c, 0, 70, 99
1, 53840, Note_off_c, 0, 70, 99
1, 53843, Note_on_c, 0, 69, 106
1, 53904, Note_off_c, 0, 69, 106
1, 53912, Note_on_c, 0, 68, 105
1, 53939, Note_off_c, 0, 68, 105
1, 53941, Note_on_c, 0, 71, 106
1, 53978, Note_off_c, 0, 71, 106
1, 53987, Note_on_c, 0, 72, 96
1, 54015, Note_off_c, 0, 72, 96
1, 54019, Note_on_c, 0, 73, 101
1, 54060, Note_off_c, 0, 73, 101
1, 54075, Note_on_c, 0, 76, 112
1, 54147, Note_off_c, 0, 76, 112
1, 54154, Note_on_c, 0, 77, 95
1, 54184, Note_off_c, 0, 77, 95
1, 54712, Note_on_c, 0, 77, 119
1, 54830, Note_off_c, 0, 77, 119
1, 54837, Note_on_c, 0, 76, 117
1, 54919, Note_off_c, 0, 76, 117
1, 54933, Note_on_c, 0, 75, 113
1, 55008, Note_off_c, 0, 75, 113
1, 55024, Note_on_c, 0, 77, 122
1, 55122, Note_off_c, 0, 77, 122
1, 55128, Note_on_c, 0, 76, 116
1, 55201, Note_off_c, 0, 76, 116
1, 55217, Note_on_c, 0, 73, 101
1, 55283, Note_off_c, 0, 73, 101
1, 55286, Note_on_c, 0, 72, 94
1, 55387, Note_off_c, 0, 72, 94
1, 55420, Note_on_c, 0, 71, 113
1, 55491, Note_off_c, 0, 71, 113
1, 55498, Note_on_c, 0, 70, 108
1, 55592, Note_off_c, 0, 70, 108
1, 55599, Note_on_c, 0, 69, 110
1, 55674, Note_off_c, 0, 69, 110
1, 55682, Note_on_c, 0, 68, 113
1, 55768, Note_off_c, 0, 68, 113
1, 55774, Note_on_c, 0, 71, 111
1, 55860, Note_off_c, 0, 71, 111
1, 55864, Note_on_c, 0, 72, 101
1, 55951, Note_off_c, 0, 72, 101
1, 55958, Note_on_c, 0, 73, 100
1, 56037, Note_off_c, 0, 73, 100
1, 56063, Note_on_c, 0, 68, 116
1, 56187, Note_off_c, 0, 68, 116
1, 56191, Note_on_c, 0, 66, 101
1, 56233, Note_off_c, 0, 66, 101
1, 56235, Note_on_c, 0, 68, 117
1, 56543, Note_off_c, 0, 68, 117
1, 56550, Note_on_c, 0, 76, 113
1, 56628, Note_off_c, 0, 76, 113
1, 56643, Note_on_c, 0, 66, 104
1, 56940, Note_off_c, 0, 66, 104
1, 56951, Note_on_c, 0, 76, 110
1, 57020, Note_off_c, 0, 76, 110
1, 57033, Note_on_c, 0, 66, 114
1, 57070, Note_off_c, 0, 66, 114
1, 57080, Note_on_c, 0, 67, 111
1, 57132, Note_off_c, 0, 67, 111
1, 57139, Note_on_c, 0, 76, 111
1, 57207, Note_off_c, 0, 76, 111
1, 57244, Note_on_c, 0, 66, 104
1, 57317, Note_off_c, 0, 66, 104
1, 57321, Note_on_c, 0, 65, 103
1, 57707, Note_off_c, 0, 65, 103
1, 57736, Note_on_c, 0, 76, 107
1, 57815, Note_off_c, 0, 76, 107
1, 57832, Note_on_c, 0, 76, 107
1, 57891, Note_off_c, 0, 76, 107
1, 57900, Note_on_c, 0, 66, 102
1, 58064, Note_off_c, 0, 66, 102
1, 58097, Note_on_c, 0, 76, 108
1, 58168, Note_off_c, 0, 76, 108
1, 58235, Note_on_c, 0, 64, 92
1, 58390, Note_off_c, 0, 64, 92
1, 58992, Note_on_c, 0, 65, 116
1, 59077, Note_off_c, 0, 65, 116
1, 59082, Note_on_c, 0, 64, 112
1, 59143, Note_off_c, 0, 64, 112
1, 59150, Note_on_c, 0, 62, 106
1, 59178, Note_off_c, 0, 62, 106
1, 59187, Note_on_c, 0, 63, 113
1, 59251, Note_off_c, 0, 63, 113
1, 59257, Note_on_c, 0, 65, 113
1, 59315, Note_off_c, 0, 65, 113
1, 59326, Note_on_c, 0, 58, 100
1, 59402, Note_off_c, 0, 58, 100
1, 59415, Note_on_c, 0, 63, 111
1, 59716, Note_off_c, 0, 63, 111
1, 59722, Note_on_c, 0, 59, 98
1, 59822, Note_off_c, 0, 59, 98
1, 59942, Note_on_c, 0, 71, 117
1, 60045, Note_off_c, 0, 71, 117
1, 60055, Note_on_c, 0, 65, 114
1, 60126, Note_off_c, 0, 65, 114
1, 60133, Note_on_c, 0, 60, 100
1, 60234, Note_off_c, 0, 60, 100
1, 60238, Note_on_c, 0, 58, 97
1, 60320, Note_off_c, 0, 58, 97
1, 60711, Note_on_c, 0, 64, 113
1, 60823, Note_off_c, 0, 64, 113
1, 60834, Note_on_c, 0, 61, 91
1, 60890, Note_off_c, 0, 61, 91
1, 60900, Note_on_c, 0, 66, 110
1, 61000, Note_off_c, 0, 66, 110
1, 61011, Note_on_c, 0, 71, 119
1, 61076, Note_off_c, 0, 71, 119
1, 61083, Note_on_c, 0, 65, 115
1, 61194, Note_off_c, 0, 65, 115
1, 61216, Note_on_c, 0, 61, 96
1, 61264, Note_off_c, 0, 61, 96
1, 61278, Note_on_c, 0, 64, 112
1, 61360, Note_off_c, 0, 64, 112
1, 61382, Note_on_c, 0, 62, 104
1, 61452, Note_off_c, 0, 62, 104
1, 61575, Note_on_c, 0, 66, 109
1, 61633, Note_off_c, 0, 66, 109
1, 61646, Note_on_c, 0, 71, 115
1, 61735, Note_off_c, 0, 71, 115
1, 61745, Note_on_c, 0, 72, 102
1, 61805, Note_off_c, 0, 72, 102
1, 61818, Note_on_c, 0, 73, 103
1, 61934, Note_off_c, 0, 73, 103
1, 61948, Note_on_c, 0, 69, 106
1, 62192, Note_off_c, 0, 69, 106
1, 62207, Note_on_c, 0, 71, 117
1, 62307, Note_off_c, 0, 71, 117
1, 62312, Note_on_c, 0, 73, 96
1, 62383, Note_off_c, 0, 73, 96
1, 62390, Note_on_c, 0, 75, 112
1, 62486, Note_off_c, 0, 75, 112
1, 62501, Note_on_c, 0, 77, 115
1, 62604, Note_off_c, 0, 77, 115
1, 62611, Note_on_c, 0, 78, 111
1, 62688, Note_off_c, 0, 78, 111
1, 62693, Note_on_c, 0, 80, 115
1, 62768, Note_off_c, 0, 80, 115
1, 62769, Note_on_c, 0, 82, 112
1, 62853, Note_off_c, 0, 82, 112
1, 62863, Note_on_c, 0, 83, 113
1, 62978, Note_off_c, 0, 83, 113
1, 62986, Note_on_c, 0, 84, 96
1, 63365, Note_off_c, 0, 84, 96
1, 64445, Note_on_c, 0, 83, 120
1, 64527, Note_off_c, 0, 83, 120
1, 64539, Note_on_c, 0, 79, 120
1, 64605, Note_off_c, 0, 79, 120
1, 64613, Note_on_c, 0, 80, 97
1, 64652, Note_off_c, 0, 80, 97
1, 64660, Note_on_c, 0, 79, 124
1, 64793, Note_off_c, 0, 79, 124
1, 64808, Note_on_c, 0, 80, 103
1, 64873, Note_off_c, 0, 80, 103
1, 64893, Note_on_c, 0, 81, 117
1, 64996, Note_off_c, 0, 81, 117
1, 65098, Note_on_c, 0, 77, 111
1, 65176, Note_off_c, 0, 77, 111
1, 65195, Note_on_c, 0, 81, 117
1, 65275, Note_off_c, 0, 81, 117
1, 65283, Note_on_c, 0, 79, 121
1, 65381, Note_off_c, 0, 79, 121
1, 65384, Note_on_c, 0, 80, 103
1, 65424, Note_off_c, 0, 80, 103
1, 65429, Note_on_c, 0, 79, 123
1, 65552, Note_off_c, 0, 79, 123
1, 65560, Note_on_c, 0, 77, 113
1, 65646, Note_off_c, 0, 77, 113
1, 65702, Note_on_c, 0, 75, 109
1, 65736, Note_off_c, 0, 75, 109
1, 65747, Note_on_c, 0, 75, 109
1, 65791, Note_off_c, 0, 75, 109
1, 65797, Note_on_c, 0, 77, 117
1, 65945, Note_off_c, 0, 77, 117
1, 66028, Note_on_c, 0, 77, 114
1, 66125, Note_off_c, 0, 77, 114
1, 66129, Note_on_c, 0, 78, 112
1, 66233, Note_off_c, 0, 78, 112
1, 66243, Note_on_c, 0, 71, 91
1, 66473, Note_off_c, 0, 71, 91
1, 66528, Note_on_c, 0, 77, 94
1, 66595, Note_off_c, 0, 77, 94
1, 66602, Note_on_c, 0, 75, 90
1, 66870, Note_off_c, 0, 75, 90
1, 66877, Note_on_c, 0, 76, 98
1, 66951, Note_off_c, 0, 76, 98
1, 66959, Note_on_c, 0, 73, 98
1, 67251, Note_off_c, 0, 73, 98
1, 67264, Note_on_c, 0, 76, 112
1, 67356, Note_off_c, 0, 76, 112
1, 67364, Note_on_c, 0, 71, 99
1, 67629, Note_off_c, 0, 71, 99
1, 67661, Note_on_c, 0, 71, 103
1, 67711, Note_off_c, 0, 71, 103
1, 67725, Note_on_c, 0, 77, 111
1, 67795, Note_off_c, 0, 77, 111
1, 67805, Note_on_c, 0, 71, 99
1, 67866, Note_off_c, 0, 71, 99
1, 67896, Note_on_c, 0, 75, 109
1, 67993, Note_off_c, 0, 75, 109
1, 68005, Note_on_c, 0, 77, 110
1, 68074, Note_off_c, 0, 77, 110
1, 68090, Note_on_c, 0, 71, 108
1, 68161, Note_off_c, 0, 71, 108
1, 68169, Note_on_c, 0, 77, 116
1, 68258, Note_off_c, 0, 77, 116
1, 68264, Note_on_c, 0, 72, 99
1, 68351, Note_off_c, 0, 72, 99
1, 68355, Note_on_c, 0, 70, 91
1, 68539, Note_off_c, 0, 70, 91
1, 68561, Note_on_c, 0, 73, 100
1, 68662, Note_off_c, 0, 73, 100
1, 68672, Note_on_c, 0, 76, 117
1, 68905, Note_off_c, 0, 76, 117
1, 68912, Note_on_c, 0, 77, 107
1, 68995, Note_off_c, 0, 77, 107
1, 68999, Note_on_c, 0, 79, 118
1, 69120, Note_off_c, 0, 79, 118
1, 69130, Note_on_c, 0, 78, 109
1, 69189, Note_off_c, 0, 78, 109
1, 69195, Note_on_c, 0, 77, 116
1, 69246, Note_off_c, 0, 77, 116
1, 69254, Note_on_c, 0, 76, 112
1, 69302, Note_off_c, 0, 76, 112
1, 69316, Note_on_c, 0, 76, 112
1, 69369, Note_off_c, 0, 76, 112
1, 69380, Note_on_c, 0, 75, 110
1, 69476, Note_off_c, 0, 75, 110
1, 69481, Note_on_c, 0, 77, 115
1, 69557, Note_off_c, 0, 77, 115
1, 69573, Note_on_c, 0, 75, 113
1, 69638, Note_off_c, 0, 75, 113
1, 69644, Note_on_c, 0, 74, 112
1, 69742, Note_off_c, 0, 74, 112
1, 69756, Note_on_c, 0, 73, 107
1, 69816, Note_off_c, 0, 73, 107
1, 69838, Note_on_c, 0, 72, 96
1, 69881, Note_off_c, 0, 72, 96
1, 69891, Note_on_c, 0, 71, 97
1, 69962, Note_off_c, 0, 71, 97
1, 69967, Note_on_c, 0, 70, 92
1, 70033, Note_off_c, 0, 70, 92
1, 70043, Note_on_c, 0, 69, 90
1, 70134, Note_off_c, 0, 69, 90
1, 71517, Note_on_c, 0, 70, 101
1, 71594, Note_off_c, 0, 70, 101
1, 71601, Note_on_c, 0, 75, 106
1, 71698, Note_off_c, 0, 75, 106
1, 71701, Note_on_c, 0, 77, 106
1, 71778, Note_off_c, 0, 77, 106
1, 71797, Note_on_c, 0, 77, 116
1, 71879, Note_off_c, 0, 77, 116
1, 71892, Note_on_c, 0, 79, 123
1, 71982, Note_off_c, 0, 79, 123
1, 71985, Note_on_c, 0, 78, 115
1, 72049, Note_off_c, 0, 78, 115
1, 72056, Note_on_c, 0, 77, 121
1, 72153, Note_off_c, 0, 77, 121
1, 72155, Note_on_c, 0, 76, 115
1, 72242, Note_off_c, 0, 76, 115
1, 72247, Note_on_c, 0, 75, 114
1, 72344, Note_off_c, 0, 75, 114
1, 72345, Note_on_c, 0, 76, 125
1, 72449, Note_off_c, 0, 76, 125
1, 72452, Note_on_c, 0, 75, 118
1, 72513, Note_off_c, 0, 75, 118
1, 72523, Note_on_c, 0, 73, 104
1, 72609, Note_off_c, 0, 73, 104
1, 72619, Note_on_c, 0, 72, 100
1, 72704, Note_off_c, 0, 72, 100
1, 72709, Note_on_c, 0, 70, 106
1, 72742, Note_off_c, 0, 70, 106
1, 72746, Note_on_c, 0, 71, 114
1, 72783, Note_off_c, 0, 71, 114
1, 72795, Note_on_c, 0, 70, 109
1, 72892, Note_off_c, 0, 70, 109
1, 72900, Note_on_c, 0, 69, 111
1, 72983, Note_off_c, 0, 69, 111
1, 73001, Note_on_c, 0, 68, 113
1, 73083, Note_off_c, 0, 68, 113
1, 73086, Note_on_c, 0, 70, 106
1, 73172, Note_off_c, 0, 70, 106
1, 73175, Note_on_c, 0, 72, 102
1, 73276, Note_off_c, 0, 72, 102
1, 73281, Note_on_c, 0, 73, 103
1, 73362, Note_off_c, 0, 73, 103
1, 73369, Note_on_c, 0, 68, 113
1, 73495, Note_off_c, 0, 68, 113
1, 73496, Note_on_c, 0, 65, 93
1, 73528, Note_off_c, 0, 65, 93
1, 73529, Note_on_c, 0, 67, 115
1, 73647, Note_off_c, 0, 67, 115
1, 73652, Note_on_c, 0, 70, 106
1, 73751, Note_off_c, 0, 70, 106
1, 73754, Note_on_c, 0, 71, 97
1, 73841, Note_off_c, 0, 71, 97
1, 73843, Note_on_c, 0, 70, 106
1, 73928, Note_off_c, 0, 70, 106
1, 73931, Note_on_c, 0, 72, 100
1, 74039, Note_off_c, 0, 72, 100
1, 74117, Note_on_c, 0, 73, 99
1, 74217, Note_off_c, 0, 73, 99
1, 74223, Note_on_c, 0, 69, 113
1, 74311, Note_off_c, 0, 69, 113
1, 74313, Note_on_c, 0, 68, 115
1, 74414, Note_off_c, 0, 68, 115
1, 74417, Note_on_c, 0, 71, 116
1, 74496, Note_off_c, 0, 71, 116
1, 74501, Note_on_c, 0, 66, 110
1, 74588, Note_off_c, 0, 66, 110
1, 74600, Note_on_c, 0, 61, 94
1, 74687, Note_off_c, 0, 61, 94
1, 74694, Note_on_c, 0, 64, 107
1, 74782, Note_off_c, 0, 64, 107
1, 74783, Note_on_c, 0, 65, 112
1, 74872, Note_off_c, 0, 65, 112
1, 74875, Note_on_c, 0, 66, 108
1, 74966, Note_off_c, 0, 66, 108
1, 74966, Note_on_c, 0, 67, 117
1, 75060, Note_off_c, 0, 67, 117
1, 75064, Note_on_c, 0, 69, 100
1, 75159, Note_off_c, 0, 69, 100
1, 75162, Note_on_c, 0, 68, 115
1, 75254, Note_off_c, 0, 68, 115
1, 75257, Note_on_c, 0, 69, 111
1, 75452, Note_off_c, 0, 69, 111
1, 75461, Note_on_c, 0, 67, 112
1, 75504, Note_off_c, 0, 67, 112
1, 75507, Note_on_c, 0, 70, 102
1, 75548, Note_off_c, 0, 70, 102
1, 75559, Note_on_c, 0, 70, 104
1, 75597, Note_off_c, 0, 70, 104
1, 75610, Note_on_c, 0, 72, 105
1, 75652, Note_off_c, 0, 72, 105
1, 76456, Note_on_c, 0, 72, 112
1, 76539, Note_off_c, 0, 72, 112
1, 76544, Note_on_c, 0, 71, 118
1, 76641, Note_off_c, 0, 71, 118
1, 76645, Note_on_c, 0, 72, 114
1, 76743, Note_off_c, 0, 72, 114
1, 76832, Note_on_c, 0, 71, 117
1, 76907, Note_off_c, 0, 71, 117
1, 76911, Note_on_c, 0, 72, 102
1, 77017, Note_off_c, 0, 72, 102
1, 77022, Note_on_c, 0, 73, 103
1, 77099, Note_off_c, 0, 73, 103
1, 77106, Note_on_c, 0, 72, 114
1, 77207, Note_off_c, 0, 72, 114
1, 77213, Note_on_c, 0, 71, 111
1, 77293, Note_off_c, 0, 71, 111
1, 77299, Note_on_c, 0, 72, 100
1, 77406, Note_off_c, 0, 72, 100
1, 77473, Note_on_c, 0, 73, 102
1, 77561, Note_off_c, 0, 73, 102
1, 77565, Note_on_c, 0, 72, 112
1, 77683, Note_off_c, 0, 72, 112
1, 77687, Note_on_c, 0, 70, 112
1, 77753, Note_off_c, 0, 70, 112
1, 77761, Note_on_c, 0, 71, 111
1, 77950, Note_off_c, 0, 71, 111
1, 77960, Note_on_c, 0, 70, 115
1, 78052, Note_off_c, 0, 70, 115
1, 78055, Note_on_c, 0, 71, 107
1, 78219, Note_off_c, 0, 71, 107
1, 78256, Note_on_c, 0, 71, 116
1, 78358, Note_off_c, 0, 71, 116
1, 78364, Note_on_c, 0, 72, 100
1, 78449, Note_off_c, 0, 72, 100
1, 78454, Note_on_c, 0, 73, 101
1, 78541, Note_off_c, 0, 73, 101
1, 78551, Note_on_c, 0, 70, 109
1, 78631, Note_off_c, 0, 70, 109
1, 78635, Note_on_c, 0, 69, 111
1, 78719, Note_off_c, 0, 69, 111
1, 78749, Note_on_c, 0, 72, 99
1, 78831, Note_off_c, 0, 72, 99
1, 78832, Note_on_c, 0, 73, 101
1, 78915, Note_off_c, 0, 73, 101
1, 78932, Note_on_c, 0, 69, 114
1, 79012, Note_off_c, 0, 69, 114
1, 79022, Note_on_c, 0, 68, 114
1, 79099, Note_off_c, 0, 68, 114
1, 79122, Note_on_c, 0, 72, 105
1, 79387, Note_off_c, 0, 72, 105
1, 79397, Note_on_c, 0, 71, 114
1, 79563, Note_off_c, 0, 71, 114
1, 79573, Note_on_c, 0, 72, 110
1, 79765, Note_off_c, 0, 72, 110
1, 79780, Note_on_c, 0, 71, 104
1, 79957, Note_off_c, 0, 71, 104
1, 79963, Note_on_c, 0, 72, 111
1, 80040, Note_off_c, 0, 72, 111
1, 80047, Note_on_c, 0, 71, 108
1, 80215, Note_off_c, 0, 71, 108
1, 80226, Note_on_c, 0, 72, 107
1, 80360, Note_off_c, 0, 72, 107
1, 80375, Note_on_c, 0, 70, 109
1, 80528, Note_off_c, 0, 70, 109
1, 80532, Note_on_c, 0, 71, 107
1, 80652, Note_off_c, 0, 71, 107
1, 80666, Note_on_c, 0, 69, 106
1, 80975, Note_off_c, 0, 69, 106
1, 80979, Note_on_c, 0, 63, 100
1, 81072, Note_off_c, 0, 63, 100
1, 81076, Note_on_c, 0, 65, 103
1, 81170, Note_off_c, 0, 65, 103
1, 81176, Note_on_c, 0, 68, 109
1, 81266, Note_off_c, 0, 68, 109
1, 81273, Note_on_c, 0, 69, 111
1, 81364, Note_off_c, 0, 69, 111
1, 81379, Note_on_c, 0, 63, 104
1, 81480, Note_off_c, 0, 63, 104
1, 82304, Note_on_c, 0, 68, 119
1, 82386, Note_off_c, 0, 68, 119
1, 82393, Note_on_c, 0, 67, 119
1, 82472, Note_off_c, 0, 67, 119
1, 82476, Note_on_c, 0, 68, 119
1, 82570, Note_off_c, 0, 68, 119
1, 82582, Note_on_c, 0, 67, 117
1, 82670, Note_off_c, 0, 67, 117
1, 82676, Note_on_c, 0, 68, 118
1, 82751, Note_off_c, 0, 68, 118
1, 82758, Note_on_c, 0, 63, 107
1, 83134, Note_off_c, 0, 63, 107
1, 83143, Note_on_c, 0, 62, 106
1, 83231, Note_off_c, 0, 62, 106
1, 83240, Note_on_c, 0, 63, 108
1, 83331, Note_off_c, 0, 63, 108
1, 83335, Note_on_c, 0, 62, 104
1, 83415, Note_off_c, 0, 62, 104
1, 83422, Note_on_c, 0, 63, 112
1, 83504, Note_off_c, 0, 63, 112
1, 83522, Note_on_c, 0, 68, 119
1, 83637, Note_off_c, 0, 68, 119
1, 83643, Note_on_c, 0, 69, 115
1, 83726, Note_off_c, 0, 69, 115
1, 83732, Note_on_c, 0, 68, 119
1, 83804, Note_off_c, 0, 68, 119
1, 83807, Note_on_c, 0, 69, 116
1, 83868, Note_off_c, 0, 69, 116
1, 83868, Note_on_c, 0, 61, 98
1, 84049, Note_off_c, 0, 61, 98
1, 84079, Note_on_c, 0, 62, 105
1, 84388, Note_off_c, 0, 62, 105
1, 84410, Note_on_c, 0, 61, 98
1, 84481, Note_off_c, 0, 61, 98
1, 84667, Note_on_c, 0, 62, 106
1, 84733, Note_off_c, 0, 62, 106
1, 84744, Note_on_c, 0, 63, 110
1, 84819, Note_off_c, 0, 63, 110
1, 84827, Note_on_c, 0, 64, 110
1, 85015, Note_off_c, 0, 64, 110
1, 85024, Note_on_c, 0, 60, 100
1, 85175, Note_off_c, 0, 60, 100
1, 85188, Note_on_c, 0, 65, 110
1, 85372, Note_off_c, 0, 65, 110
1, 85377, Note_on_c, 0, 64, 105
1, 85486, Note_off_c, 0, 64, 105
1, 85580, Note_on_c, 0, 66, 111
1, 85670, Note_off_c, 0, 66, 111
1, 85672, Note_on_c, 0, 68, 116
1, 85744, Note_off_c, 0, 68, 116
1, 85747, Note_on_c, 0, 61, 97
1, 85854, Note_off_c, 0, 61, 97
1, 86254, Note_on_c, 0, 68, 122
1, 86337, Note_off_c, 0, 68, 122
1, 86343, Note_on_c, 0, 66, 115
1, 86448, Note_off_c, 0, 66, 115
1, 86459, Note_on_c, 0, 61, 100
1, 86522, Note_off_c, 0, 61, 100
1, 86626, Note_on_c, 0, 64, 111
1, 86828, Note_off_c, 0, 64, 111
1, 86837, Note_on_c, 0, 66, 111
1, 86895, Note_off_c, 0, 66, 111
1, 86906, Note_on_c, 0, 71, 118
1, 87011, Note_off_c, 0, 71, 118
1, 87018, Note_on_c, 0, 72, 99
1, 87103, Note_off_c, 0, 72, 99
1, 87109, Note_on_c, 0, 73, 104
1, 87199, Note_off_c, 0, 73, 104
1, 87208, Note_on_c, 0, 69, 116
1, 87263, Note_off_c, 0, 69, 116
1, 87269, Note_on_c, 0, 68, 118
1, 87348, Note_off_c, 0, 68, 118
1, 88172, Note_on_c, 0, 83, 120
1, 88254, Note_off_c, 0, 83, 120
1, 88263, Note_on_c, 0, 79, 120
1, 88353, Note_off_c, 0, 79, 120
1, 88370, Note_on_c, 0, 83, 121
1, 88452, Note_off_c, 0, 83, 121
1, 88540, Note_on_c, 0, 82, 119
1, 88680, Note_off_c, 0, 82, 119
1, 88743, Note_on_c, 0, 73, 101
1, 88867, Note_off_c, 0, 73, 101
1, 88977, Note_on_c, 0, 77, 113
1, 89056, Note_off_c, 0, 77, 113
1, 89060, Note_on_c, 0, 80, 125
1, 89143, Note_off_c, 0, 80, 125
1, 89146, Note_on_c, 0, 78, 114
1, 89259, Note_off_c, 0, 78, 114
1, 89263, Note_on_c, 0, 73, 102
1, 89334, Note_off_c, 0, 73, 102
1, 89378, Note_on_c, 0, 75, 113
1, 89517, Note_off_c, 0, 75, 113
1, 89731, Note_on_c, 0, 71, 117
1, 89860, Note_off_c, 0, 71, 117
1, 89961, Note_on_c, 0, 77, 116
1, 90041, Note_off_c, 0, 77, 116
1, 90044, Note_on_c, 0, 78, 112
1, 90175, Note_off_c, 0, 78, 112
1, 90179, Note_on_c, 0, 75, 114
1, 90264, Note_off_c, 0, 75, 114
1, 90268, Note_on_c, 0, 73, 101
1, 90364, Note_off_c, 0, 73, 101
1, 90382, Note_on_c, 0, 70, 107
1, 90435, Note_off_c, 0, 70, 107
1, 90441, Note_on_c, 0, 69, 114
1, 90501, Note_off_c, 0, 69, 114
1, 90513, Note_on_c, 0, 73, 101
1, 90565, Note_off_c, 0, 73, 101
1, 90569, Note_on_c, 0, 74, 106
1, 90630, Note_off_c, 0, 74, 106
1, 90636, Note_on_c, 0, 68, 110
1, 90662, Note_off_c, 0, 68, 110
1, 90669, Note_on_c, 0, 69, 114
1, 90699, Note_off_c, 0, 69, 114
1, 90703, Note_on_c, 0, 68, 117
1, 90753, Note_off_c, 0, 68, 117
1, 90757, Note_on_c, 0, 71, 114
1, 90791, Note_off_c, 0, 71, 114
1, 90800, Note_on_c, 0, 72, 102
1, 90845, Note_off_c, 0, 72, 102
1, 90852, Note_on_c, 0, 73, 102
1, 90897, Note_off_c, 0, 73, 102
1, 90902, Note_on_c, 0, 68, 117
1, 90975, Note_off_c, 0, 68, 117
1, 90979, Note_on_c, 0, 66, 109
1, 91086, Note_off_c, 0, 66, 109
1, 91093, Note_on_c, 0, 67, 111
1, 91782, Note_off_c, 0, 67, 111
1, 91812, Note_on_c, 0, 60, 93
1, 91881, Note_off_c, 0, 60, 93
1, 91895, Note_on_c, 0, 66, 108
1, 91983, Note_off_c, 0, 66, 108
1, 91986, Note_on_c, 0, 68, 118
1, 92060, Note_off_c, 0, 68, 118
1, 92066, Note_on_c, 0, 65, 110
1, 92177, Note_off_c, 0, 65, 110
1, 92189, Note_on_c, 0, 61, 9
1, 92256, Note_off_c, 0, 61, 9
1, 92268, Note_on_c, 0, 64, 50
1, 92350, Note_off_c, 0, 64, 50
1, 92354, Note_on_c, 0, 62, 103
1, 92438, Note_off_c, 0, 62, 103
1, 92452, Note_on_c, 0, 66, 111
1, 92537, Note_off_c, 0, 66, 111
1, 92544, Note_on_c, 0, 71, 109
1, 92635, Note_off_c, 0, 71, 109
1, 92639, Note_on_c, 0, 72, 101
1, 92736, Note_off_c, 0, 72, 101
1, 92740, Note_on_c, 0, 73, 102
1, 92805, Note_off_c, 0, 73, 102
1, 92811, Note_on_c, 0, 69, 114
1, 92923, Note_off_c, 0, 69, 114
1, 92926, Note_on_c, 0, 68, 100
1, 93006, Note_off_c, 0, 68, 100
1, 93013, Note_on_c, 0, 71, 118
1, 93115, Note_off_c, 0, 71, 118
1, 93121, Note_on_c, 0, 73, 100
1, 93185, Note_off_c, 0, 73, 100
1, 93193, Note_on_c, 0, 75, 109
1, 93303, Note_off_c, 0, 75, 109
1, 93309, Note_on_c, 0, 77, 114
1, 93405, Note_off_c, 0, 77, 114
1, 93411, Note_on_c, 0, 78, 112
1, 93491, Note_off_c, 0, 78, 112
1, 93496, Note_on_c, 0, 80, 119
1, 93610, Note_off_c, 0, 80, 119
1, 93614, Note_on_c, 0, 79, 118
1, 93689, Note_off_c, 0, 79, 118
1, 93693, Note_on_c, 0, 78, 111
1, 93754, Note_off_c, 0, 78, 111
1, 93761, Note_on_c, 0, 77, 117
1, 93843, Note_off_c, 0, 77, 117
1, 93847, Note_on_c, 0, 76, 111
1, 93941, Note_off_c, 0, 76, 111
1, 93951, Note_on_c, 0, 75, 108
1, 94049, Note_off_c, 0, 75, 108
1, 94055, Note_on_c, 0, 77, 116
1, 94157, Note_off_c, 0, 77, 116
1, 94159, Note_on_c, 0, 76, 115
1, 94230, Note_off_c, 0, 76, 115
1, 94241, Note_on_c, 0, 73, 102
1, 94326, Note_off_c, 0, 73, 102
1, 94331, Note_on_c, 0, 70, 106
1, 94428, Note_off_c, 0, 70, 106
1, 94921, Note_on_c, 0, 67, 116
1, 95012, Note_off_c, 0, 67, 116
1, 95017, Note_on_c, 0, 70, 112
1, 95099, Note_off_c, 0, 70, 112
1, 95101, Note_on_c, 0, 69, 113
1, 95197, Note_off_c, 0, 69, 113
1, 96951, Note_on_c, 0, 79, 125
1, 97020, Note_off_c, 0, 79, 125
1, 97023, Note_on_c, 0, 81, 121
1, 97121, Note_off_c, 0, 81, 121
1, 97135, Note_on_c, 0, 75, 115
1, 97220, Note_off_c, 0, 75, 115
1, 97227, Note_on_c, 0, 73, 98
1, 97305, Note_off_c, 0, 73, 98
1, 97315, Note_on_c, 0, 81, 120
1, 97375, Note_off_c, 0, 81, 120
1, 97379, Note_on_c, 0, 80, 126
1, 97468, Note_off_c, 0, 80, 126
1, 97497, Note_on_c, 0, 82, 119
1, 97571, Note_off_c, 0, 82, 119
1, 97586, Note_on_c, 0, 77, 116
1, 97668, Note_off_c, 0, 77, 116
1, 97687, Note_on_c, 0, 73, 96
1, 97742, Note_off_c, 0, 73, 96
1, 97745, Note_on_c, 0, 76, 116
1, 97934, Note_off_c, 0, 76, 116
1, 97942, Note_on_c, 0, 74, 108
1, 98044, Note_off_c, 0, 74, 108
1, 98145, Note_on_c, 0, 70, 113
1, 98244, Note_off_c, 0, 70, 113
1, 98330, Note_on_c, 0, 75, 112
1, 98657, Note_off_c, 0, 75, 112
1, 98709, Note_on_c, 0, 73, 103
1, 98788, Note_off_c, 0, 73, 103
1, 98803, Note_on_c, 0, 69, 116
1, 98904, Note_off_c, 0, 69, 116
1, 98907, Note_on_c, 0, 66, 114
1, 98995, Note_off_c, 0, 66, 114
1, 99012, Note_on_c, 0, 61, 96
1, 99085, Note_off_c, 0, 61, 96
1, 99091, Note_on_c, 0, 71, 119
1, 99180, Note_off_c, 0, 71, 119
1, 99185, Note_on_c, 0, 73, 101
1, 99265, Note_off_c, 0, 73, 101
1, 99268, Note_on_c, 0, 72, 101
1, 99351, Note_off_c, 0, 72, 101
1, 99390, Note_on_c, 0, 68, 116
1, 99448, Note_off_c, 0, 68, 116
1, 99556, Note_on_c, 0, 67, 115
1, 99637, Note_off_c, 0, 67, 115
1, 99772, Note_on_c, 0, 70, 114
1, 99869, Note_off_c, 0, 70, 114
1, 99997, Note_on_c, 0, 72, 98
1, 100335, Note_off_c, 0, 72, 98
1, 100341, Note_on_c, 0, 73, 105
1, 100421, Note_off_c, 0, 73, 105
1, 100428, Note_on_c, 0, 69, 117
1, 100548, Note_off_c, 0, 69, 117
1, 100555, Note_on_c, 0, 66, 100
1, 100623, Note_off_c, 0, 66, 100
1, 100627, Note_on_c, 0, 70, 119
1, 100714, Note_off_c, 0, 70, 119
1, 100729, Note_on_c, 0, 60, 104
1, 100807, Note_off_c, 0, 60, 104
1, 100811, Note_on_c, 0, 63, 110
1, 100903, Note_off_c, 0, 63, 110
1, 100911, Note_on_c, 0, 67, 120
1, 101002, Note_off_c, 0, 67, 120
1, 101007, Note_on_c, 0, 66, 112
1, 101095, Note_off_c, 0, 66, 112
1, 101098, Note_on_c, 0, 60, 98
1, 101165, Note_off_c, 0, 60, 98
1, 101169, Note_on_c, 0, 63, 113
1, 101375, Note_off_c, 0, 63, 113
1, 101378, Note_on_c, 0, 59, 100
1, 101459, Note_off_c, 0, 59, 100
1, 101466, Note_on_c, 0, 63, 113
1, 101573, Note_off_c, 0, 63, 113
1, 101577, Note_on_c, 0, 57, 96
1, 101703, Note_off_c, 0, 57, 96
1, 102813, Note_on_c, 0, 83, 122
1, 102900, Note_off_c, 0, 83, 122
1, 102903, Note_on_c, 0, 82, 119
1, 102997, Note_off_c, 0, 82, 119
1, 103009, Note_on_c, 0, 79, 109
1, 103095, Note_off_c, 0, 79, 109
1, 103175, Note_on_c, 0, 79, 92
1, 103274, Note_off_c, 0, 79, 92
1, 103376, Note_on_c, 0, 79, 118
1, 104441, Note_off_c, 0, 79, 118
1, 104450, Note_on_c, 0, 76, 115
1, 104560, Note_off_c, 0, 76, 115
1, 104567, Note_on_c, 0, 74, 101
1, 104633, Note_off_c, 0, 74, 101
1, 104643, Note_on_c, 0, 71, 115
1, 104737, Note_off_c, 0, 71, 115
1, 104741, Note_on_c, 0, 73, 99
1, 104834, Note_off_c, 0, 73, 99
1, 104839, Note_on_c, 0, 70, 112
1, 104921, Note_off_c, 0, 70, 112
1, 104932, Note_on_c, 0, 68, 120
1, 105408, Note_off_c, 0, 68, 120
1, 105422, Note_on_c, 0, 65, 111
1, 105514, Note_off_c, 0, 65, 111
1, 105521, Note_on_c, 0, 68, 120
1, 105603, Note_off_c, 0, 68, 120
1, 105613, Note_on_c, 0, 70, 111
1, 105698, Note_off_c, 0, 70, 111
1, 105705, Note_on_c, 0, 72, 103
1, 105783, Note_off_c, 0, 72, 103
1, 105785, Note_on_c, 0, 73, 102
1, 105888, Note_off_c, 0, 73, 102
1, 105894, Note_on_c, 0, 70, 110
1, 105980, Note_off_c, 0, 70, 110
1, 105987, Note_on_c, 0, 72, 104
1, 106074, Note_off_c, 0, 72, 104
1, 106085, Note_on_c, 0, 69, 115
1, 106167, Note_off_c, 0, 69, 115
1, 106174, Note_on_c, 0, 67, 119
1, 106363, Note_off_c, 0, 67, 119
1, 106369, Note_on_c, 0, 64, 109
1, 106455, Note_off_c, 0, 64, 109
1, 106457, Note_on_c, 0, 65, 110
1, 106559, Note_off_c, 0, 65, 110
1, 106561, Note_on_c, 0, 69, 115
1, 106638, Note_off_c, 0, 69, 115
1, 106644, Note_on_c, 0, 68, 112
1, 106723, Note_off_c, 0, 68, 112
1, 106727, Note_on_c, 0, 70, 111
1, 106939, Note_off_c, 0, 70, 111
1, 106950, Note_on_c, 0, 66, 110
1, 107043, Note_off_c, 0, 66, 110
1, 107049, Note_on_c, 0, 64, 105
1, 107486, Note_off_c, 0, 64, 105
1, 108388, Note_on_c, 0, 66, 118
1, 108457, Note_off_c, 0, 66, 118
1, 108459, Note_on_c, 0, 59, 102
1, 108497, Note_off_c, 0, 59, 102
1, 108504, Note_on_c, 0, 58, 97
1, 108556, Note_off_c, 0, 58, 97
1, 108571, Note_on_c, 0, 62, 98
1, 108640, Note_on_c, 0, 63, 113
1, 108640, Note_off_c, 0, 62, 98
1, 109363, Note_off_c, 0, 63, 113
1, 109368, Note_on_c, 0, 66, 109
1, 109425, Note_off_c, 0, 66, 109
1, 109428, Note_on_c, 0, 67, 120
1, 109506, Note_off_c, 0, 67, 120
1, 109517, Note_on_c, 0, 60, 100
1, 109602, Note_off_c, 0, 60, 100
1, 109608, Note_on_c, 0, 65, 113
1, 109688, Note_off_c, 0, 65, 113
1, 109693, Note_on_c, 0, 69, 114
1, 109788, Note_off_c, 0, 69, 114
1, 109795, Note_on_c, 0, 67, 116
1, 109868, Note_off_c, 0, 67, 116
1, 109879, Note_on_c, 0, 66, 111
1, 109925, Note_off_c, 0, 66, 111
1, 109931, Note_on_c, 0, 64, 102
1, 109971, Note_off_c, 0, 64, 102
1, 109974, Note_on_c, 0, 60, 96
1, 110086, Note_off_c, 0, 60, 96
1, 110091, Note_on_c, 0, 65, 113
1, 110175, Note_off_c, 0, 65, 113
1, 110269, Note_on_c, 0, 70, 111
1, 110347, Note_off_c, 0, 70, 111
1, 110358, Note_on_c, 0, 68, 120
1, 110463, Note_off_c, 0, 68, 120
1, 110491, Note_on_c, 0, 63, 100
1, 110577, Note_off_c, 0, 63, 100
1, 110585, Note_on_c, 0, 60, 102
1, 110662, Note_off_c, 0, 60, 102
1, 110679, Note_on_c, 0, 67, 118
1, 110761, Note_off_c, 0, 67, 118
1, 110769, Note_on_c, 0, 65, 112
1, 110942, Note_off_c, 0, 65, 112
1, 110947, Note_on_c, 0, 62, 106
1, 111049, Note_off_c, 0, 62, 106
1, 111051, Note_on_c, 0, 60, 96
1, 111135, Note_off_c, 0, 60, 96
1, 111227, Note_on_c, 0, 65, 113
1, 111311, Note_off_c, 0, 65, 113
1, 111316, Note_on_c, 0, 62, 106
1, 111408, Note_off_c, 0, 62, 106
1, 111412, Note_on_c, 0, 60, 101
1, 111496, Note_off_c, 0, 60, 101
1, 111501, Note_on_c, 0, 62, 104
1, 111566, Note_off_c, 0, 62, 104
1, 111570, Note_on_c, 0, 65, 108
1, 111667, Note_off_c, 0, 65, 108
1, 111672, Note_on_c, 0, 69, 111
1, 111784, Note_off_c, 0, 69, 111
1, 111796, Note_on_c, 0, 75, 112
1, 111884, Note_off_c, 0, 75, 112
1, 111888, Note_on_c, 0, 73, 101
1, 111977, Note_off_c, 0, 73, 101
1, 111987, Note_on_c, 0, 69, 113
1, 112061, Note_off_c, 0, 69, 113
1, 112071, Note_on_c, 0, 68, 114
1, 112237, Note_off_c, 0, 68, 114
1, 112250, Note_on_c, 0, 71, 116
1, 112364, Note_off_c, 0, 71, 116
1, 112372, Note_on_c, 0, 68, 116
1, 112456, Note_off_c, 0, 68, 116
1, 112459, Note_on_c, 0, 69, 111
1, 112547, Note_off_c, 0, 69, 111
1, 112562, Note_on_c, 0, 70, 111
1, 112627, Note_off_c, 0, 70, 111
1, 112635, Note_on_c, 0, 61, 96
1, 112719, Note_off_c, 0, 61, 96
1, 112731, Note_on_c, 0, 64, 102
1, 112816, Note_off_c, 0, 64, 102
1, 112839, Note_on_c, 0, 69, 116
1, 112924, Note_off_c, 0, 69, 116
1, 112928, Note_on_c, 0, 77, 106
1, 113038, Note_off_c, 0, 77, 106
1, 113043, Note_on_c, 0, 64, 100
1, 113092, Note_off_c, 0, 64, 100
1, 114348, Note_on_c, 0, 71, 107
1, 114435, Note_off_c, 0, 71, 107
1, 115593, Note_on_c, 0, 79, 123
1, 115659, Note_off_c, 0, 79, 123
1, 115662, Note_on_c, 0, 81, 117
1, 116147, Note_off_c, 0, 81, 117
1, 116151, Note_on_c, 0, 80, 123
1, 116217, Note_off_c, 0, 80, 123
1, 116226, Note_on_c, 0, 81, 118
1, 116586, Note_off_c, 0, 81, 118
1, 116592, Note_on_c, 0, 80, 124
1, 116701, Note_off_c, 0, 80, 124
1, 116718, Note_on_c, 0, 75, 113
1, 116787, Note_off_c, 0, 75, 113
1, 117294, Note_on_c, 0, 73, 97
1, 117374, Note_off_c, 0, 73, 97
1, 117388, Note_on_c, 0, 78, 115
1, 117459, Note_off_c, 0, 78, 115
1, 117460, Note_on_c, 0, 79, 124
1, 117554, Note_off_c, 0, 79, 124
1, 117563, Note_on_c, 0, 77, 118
1, 117659, Note_off_c, 0, 77, 118
1, 117763, Note_on_c, 0, 73, 100
1, 117857, Note_off_c, 0, 73, 100
1, 117937, Note_on_c, 0, 76, 112
1, 118815, Note_off_c, 0, 76, 112
1, 118821, Note_on_c, 0, 78, 111
1, 118907, Note_off_c, 0, 78, 111
1, 118913, Note_on_c, 0, 75, 112
1, 118995, Note_off_c, 0, 75, 112
1, 119007, Note_on_c, 0, 79, 119
1, 119074, Note_off_c, 0, 79, 119
1, 119083, Note_on_c, 0, 76, 115
1, 119206, Note_off_c, 0, 76, 115
1, 119218, Note_on_c, 0, 78, 112
1, 119456, Note_off_c, 0, 78, 112
1, 119463, Note_on_c, 0, 77, 117
1, 119562, Note_off_c, 0, 77, 117
1, 119568, Note_on_c, 0, 75, 112
1, 119645, Note_off_c, 0, 75, 112
1, 119654, Note_on_c, 0, 76, 115
1, 119734, Note_off_c, 0, 76, 115
1, 119746, Note_on_c, 0, 74, 108
1, 119832, Note_off_c, 0, 74, 108
1, 119840, Note_on_c, 0, 78, 112
1, 119939, Note_off_c, 0, 78, 112
1, 119962, Note_on_c, 0, 79, 123
1, 120029, Note_off_c, 0, 79, 123
1, 120040, Note_on_c, 0, 75, 113
1, 120134, Note_off_c, 0, 75, 113
1, 120143, Note_on_c, 0, 73, 99
1, 120233, Note_off_c, 0, 73, 99
1, 120351, Note_on_c, 0, 75, 115
1, 120466, Note_off_c, 0, 75, 115
1, 120478, Note_on_c, 0, 76, 116
1, 120702, Note_off_c, 0, 76, 116
1, 120711, Note_on_c, 0, 73, 102
1, 120778, Note_off_c, 0, 73, 102
1, 120787, Note_on_c, 0, 71, 116
1, 120886, Note_off_c, 0, 71, 116
1, 120893, Note_on_c, 0, 73, 102
1, 120965, Note_off_c, 0, 73, 102
1, 120974, Note_on_c, 0, 72, 98
1, 121051, Note_off_c, 0, 72, 98
1, 121057, Note_on_c, 0, 71, 111
1, 121145, Note_off_c, 0, 71, 111
1, 121149, Note_on_c, 0, 70, 111
1, 121248, Note_off_c, 0, 70, 111
1, 121256, Note_on_c, 0, 69, 111
1, 121325, Note_off_c, 0, 69, 111
1, 121333, Note_on_c, 0, 68, 115
1, 121421, Note_off_c, 0, 68, 115
1, 121428, Note_on_c, 0, 71, 105
1, 121516, Note_off_c, 0, 71, 105
1, 121526, Note_on_c, 0, 75, 111
1, 121610, Note_off_c, 0, 75, 111
1, 121620, Note_on_c, 0, 79, 119
1, 121694, Note_off_c, 0, 79, 119
1, 121702, Note_on_c, 0, 75, 111
1, 121802, Note_off_c, 0, 75, 111
1, 121810, Note_on_c, 0, 80, 124
1, 121895, Note_off_c, 0, 80, 124
1, 121898, Note_on_c, 0, 78, 114
1, 122096, Note_off_c, 0, 78, 114
1, 122103, Note_on_c, 0, 74, 102
1, 122189, Note_off_c, 0, 74, 102
1, 122193, Note_on_c, 0, 76, 111
1, 122266, Note_off_c, 0, 76, 111
1, 122271, Note_on_c, 0, 73, 99
1, 122367, Note_off_c, 0, 73, 99
1, 122378, Note_on_c, 0, 71, 116
1, 122472, Note_off_c, 0, 71, 116
1, 122574, Note_on_c, 0, 73, 104
1, 122651, Note_off_c, 0, 73, 104
1, 122655, Note_on_c, 0, 72, 98
1, 122735, Note_off_c, 0, 72, 98
1, 122742, Note_on_c, 0, 71, 115
1, 122837, Note_off_c, 0, 71, 115
1, 122940, Note_on_c, 0, 72, 102
1, 123023, Note_off_c, 0, 72, 102
1, 123025, Note_on_c, 0, 73, 104
1, 123117, Note_off_c, 0, 73, 104
1, 123131, Note_on_c, 0, 70, 112
1, 123206, Note_off_c, 0, 70, 112
1, 123209, Note_on_c, 0, 69, 115
1, 123276, Note_off_c, 0, 69, 115
1, 123316, Note_on_c, 0, 73, 101
1, 123382, Note_off_c, 0, 73, 101
1, 123387, Note_on_c, 0, 72, 98
1, 123507, Note_off_c, 0, 72, 98
1, 123515, Note_on_c, 0, 69, 115
1, 123604, Note_off_c, 0, 69, 115
1, 123609, Note_on_c, 0, 68, 118
1, 123711, Note_off_c, 0, 68, 118
1, 123716, Note_on_c, 0, 71, 118
1, 123780, Note_off_c, 0, 71, 118
1, 123787, Note_on_c, 0, 65, 111
1, 123958, Note_off_c, 0, 65, 111
1, 123966, Note_on_c, 0, 60, 101
1, 124075, Note_off_c, 0, 60, 101
1, 124080, Note_on_c, 0, 63, 110
1, 124260, Note_off_c, 0, 63, 110
1, 124953, Note_on_c, 0, 67, 117
1, 125032, Note_off_c, 0, 67, 117
1, 125039, Note_on_c, 0, 69, 119
1, 125115, Note_off_c, 0, 69, 119
1, 125119, Note_on_c, 0, 70, 117
1, 125203, Note_off_c, 0, 70, 117
1, 125219, Note_on_c, 0, 61, 102
1, 125281, Note_off_c, 0, 61, 102
1, 125288, Note_on_c, 0, 64, 110
1, 125385, Note_off_c, 0, 64, 110
1, 125396, Note_on_c, 0, 68, 118
1, 125483, Note_off_c, 0, 68, 118
1, 125485, Note_on_c, 0, 67, 116
1, 125578, Note_off_c, 0, 67, 116
1, 125585, Note_on_c, 0, 66, 111
1, 125775, Note_off_c, 0, 66, 111
1, 125779, Note_on_c, 0, 64, 107
1, 125842, Note_off_c, 0, 64, 107
1, 125849, Note_on_c, 0, 63, 111
1, 125952, Note_off_c, 0, 63, 111
1, 125955, Note_on_c, 0, 65, 112
1, 126056, Note_off_c, 0, 65, 112
1, 126060, Note_on_c, 0, 66, 112
1, 126133, Note_off_c, 0, 66, 112
1, 126134, Note_on_c, 0, 69, 111
1, 126230, Note_off_c, 0, 69, 111
1, 126232, Note_on_c, 0, 70, 112
1, 126331, Note_off_c, 0, 70, 112
1, 126341, Note_on_c, 0, 66, 95
1, 126420, Note_off_c, 0, 66, 95
1, 126427, Note_on_c, 0, 71, 118
1, 126513, Note_off_c, 0, 71, 118
1, 126520, Note_on_c, 0, 65, 111
1, 126603, Note_off_c, 0, 65, 111
1, 126605, Note_on_c, 0, 63, 110
1, 126699, Note_off_c, 0, 63, 110
1, 126701, Note_on_c, 0, 65, 112
1, 126789, Note_off_c, 0, 65, 112
1, 126795, Note_on_c, 0, 70, 110
1, 126892, Note_off_c, 0, 70, 110
1, 126898, Note_on_c, 0, 65, 108
1, 126931, Note_off_c, 0, 65, 108
1, 126938, Note_on_c, 0, 64, 111
1, 127010, Note_off_c, 0, 64, 111
1, 127106, Note_on_c, 0, 69, 112
1, 127215, Note_off_c, 0, 69, 112
1, 127218, Note_on_c, 0, 68, 114
1, 127309, Note_off_c, 0, 68, 114
1, 127312, Note_on_c, 0, 71, 114
1, 127383, Note_off_c, 0, 71, 114
1, 127386, Note_on_c, 0, 67, 113
1, 127487, Note_off_c, 0, 67, 113
1, 127553, Note_on_c, 0, 63, 109
1, 127625, Note_off_c, 0, 63, 109
1, 127640, Note_on_c, 0, 68, 112
1, 127732, Note_off_c, 0, 68, 112
1, 127740, Note_on_c, 0, 61, 98
1, 127860, Note_off_c, 0, 61, 98
1, 127965, Note_on_c, 0, 64, 107
1, 128023, Note_off_c, 0, 64, 107
1, 128129, Note_on_c, 0, 66, 109
1, 128217, Note_off_c, 0, 66, 109
1, 128218, Note_on_c, 0, 68, 112
1, 128294, Note_off_c, 0, 68, 112
1, 128297, Note_on_c, 0, 65, 110
1, 128396, Note_off_c, 0, 65, 110
1, 128401, Note_on_c, 0, 62, 102
1, 128472, Note_off_c, 0, 62, 102
1, 128479, Note_on_c, 0, 64, 105
1, 128578, Note_off_c, 0, 64, 105
1, 128584, Note_on_c, 0, 61, 97
1, 128681, Note_off_c, 0, 61, 97
1, 129070, Note_on_c, 0, 66, 117
1, 129171, Note_off_c, 0, 66, 117
1, 129179, Note_on_c, 0, 62, 100
1, 129261, Note_off_c, 0, 62, 100
1, 129265, Note_on_c, 0, 65, 114
1, 129355, Note_off_c, 0, 65, 114
1, 129363, Note_on_c, 0, 67, 119
1, 129456, Note_off_c, 0, 67, 119
1, 129459, Note_on_c, 0, 65, 113
1, 129541, Note_off_c, 0, 65, 113
1, 129544, Note_on_c, 0, 61, 105
1, 129604, Note_off_c, 0, 61, 105
1, 129607, Note_on_c, 0, 62, 103
1, 129698, Note_off_c, 0, 62, 103
1, 129728, Note_on_c, 0, 66, 111
1, 129818, Note_off_c, 0, 66, 111
1, 129827, Note_on_c, 0, 71, 116
1, 129906, Note_off_c, 0, 71, 116
1, 129909, Note_on_c, 0, 73, 101
1, 129984, Note_off_c, 0, 73, 101
1, 129988, Note_on_c, 0, 72, 97
1, 130092, Note_off_c, 0, 72, 97
1, 130099, Note_on_c, 0, 69, 112
1, 130183, Note_off_c, 0, 69, 112
1, 130197, Note_on_c, 0, 66, 108
1, 130293, Note_off_c, 0, 66, 108
1, 130613, Note_on_c, 0, 71, 114
1, 130722, Note_off_c, 0, 71, 114
1, 130725, Note_on_c, 0, 73, 93
1, 130792, Note_off_c, 0, 73, 93
1, 130799, Note_on_c, 0, 74, 106
1, 130885, Note_off_c, 0, 74, 106
1, 130890, Note_on_c, 0, 77, 111
1, 130980, Note_off_c, 0, 77, 111
1, 130988, Note_on_c, 0, 78, 114
1, 131074, Note_off_c, 0, 78, 114
1, 131078, Note_on_c, 0, 80, 124
1, 131188, Note_off_c, 0, 80, 124
1, 131191, Note_on_c, 0, 79, 121
1, 131296, Note_off_c, 0, 79, 121
1, 131299, Note_on_c, 0, 73, 95
1, 131348, Note_off_c, 0, 73, 95
1, 131353, Note_on_c, 0, 77, 115
1, 131473, Note_off_c, 0, 77, 115
1, 131481, Note_on_c, 0, 78, 104
1, 131545, Note_off_c, 0, 78, 104
1, 131546, Note_on_c, 0, 80, 124
1, 131636, Note_off_c, 0, 80, 124
1, 131660, Note_on_c, 0, 77, 117
1, 131730, Note_off_c, 0, 77, 117
1, 131789, Note_on_c, 0, 72, 98
1, 131871, Note_off_c, 0, 72, 98
1, 131919, Note_on_c, 0, 73, 101
1, 131980, Note_off_c, 0, 73, 101
1, 132036, Note_on_c, 0, 73, 96
1, 132092, Note_off_c, 0, 73, 96
1, 132143, Note_on_c, 0, 73, 97
1, 132200, Note_off_c, 0, 73, 97
1, 132269, Note_on_c, 0, 73, 95
1, 132333, Note_off_c, 0, 73, 95
1, 132386, Note_on_c, 0, 73, 95
1, 132468, Note_off_c, 0, 73, 95
1, 132514, Note_on_c, 0, 81, 108
1, 132555, Note_off_c, 0, 81, 108
1, 132614, Note_on_c, 0, 85, 107
1, 132897, Note_off_c, 0, 85, 107
1, 132909, Note_on_c, 0, 83, 107
1, 133327, Note_off_c, 0, 83, 107
1, 133800, Note_on_c, 0, 80, 120
1, 133858, Note_off_c, 0, 80, 120
1, 133860, Note_on_c, 0, 81, 114
1, 134833, Note_off_c, 0, 81, 114
1, 134838, Note_on_c, 0, 79, 107
1, 134910, Note_off_c, 0, 79, 107
1, 134917, Note_on_c, 0, 81, 116
1, 135022, Note_off_c, 0, 81, 116
1, 135032, Note_on_c, 0, 78, 112
1, 135114, Note_off_c, 0, 78, 112
1, 135123, Note_on_c, 0, 73, 99
1, 135189, Note_off_c, 0, 73, 99
1, 135201, Note_on_c, 0, 76, 113
1, 135272, Note_off_c, 0, 76, 113
1, 135291, Note_on_c, 0, 71, 113
1, 135384, Note_off_c, 0, 71, 113
1, 135399, Note_on_c, 0, 76, 112
1, 135460, Note_off_c, 0, 76, 112
1, 135466, Note_on_c, 0, 74, 104
1, 135568, Note_off_c, 0, 74, 104
1, 135672, Note_on_c, 0, 74, 106
1, 135763, Note_off_c, 0, 74, 106
1, 135870, Note_on_c, 0, 74, 107
1, 135961, Note_off_c, 0, 74, 107
1, 136046, Note_on_c, 0, 74, 106
1, 136139, Note_off_c, 0, 74, 106
1, 136233, Note_on_c, 0, 73, 100
1, 136332, Note_off_c, 0, 73, 100
1, 136393, Note_on_c, 0, 77, 110
1, 136451, Note_off_c, 0, 77, 110
1, 136457, Note_on_c, 0, 78, 112
1, 136509, Note_off_c, 0, 78, 112
1, 136513, Note_on_c, 0, 80, 124
1, 136590, Note_off_c, 0, 80, 124
1, 136602, Note_on_c, 0, 77, 114
1, 136693, Note_off_c, 0, 77, 114
1, 136697, Note_on_c, 0, 76, 112
1, 136780, Note_off_c, 0, 76, 112
1, 136798, Note_on_c, 0, 75, 110
1, 136875, Note_off_c, 0, 75, 110
1, 136895, Note_on_c, 0, 77, 117
1, 136980, Note_off_c, 0, 77, 117
1, 136984, Note_on_c, 0, 76, 113
1, 137045, Note_off_c, 0, 76, 113
1, 137078, Note_on_c, 0, 73, 101
1, 137158, Note_off_c, 0, 73, 101
1, 137165, Note_on_c, 0, 72, 101
1, 137240, Note_off_c, 0, 72, 101
1, 137252, Note_on_c, 0, 71, 113
1, 137329, Note_off_c, 0, 71, 113
1, 137338, Note_on_c, 0, 70, 107
1, 137435, Note_off_c, 0, 70, 107
1, 137447, Note_on_c, 0, 69, 110
1, 137526, Note_off_c, 0, 69, 110
1, 137535, Note_on_c, 0, 68, 113
1, 137620, Note_off_c, 0, 68, 113
1, 137637, Note_on_c, 0, 71, 114
1, 137719, Note_off_c, 0, 71, 114
1, 137725, Note_on_c, 0, 72, 101
1, 137815, Note_off_c, 0, 72, 101
1, 137822, Note_on_c, 0, 73, 99
1, 137893, Note_off_c, 0, 73, 99
1, 137908, Note_on_c, 0, 68, 113
1, 138010, Note_off_c, 0, 68, 113
1, 138019, Note_on_c, 0, 66, 92
1, 138096, Note_off_c, 0, 66, 92
1, 138102, Note_on_c, 0, 67, 116
1, 138190, Note_off_c, 0, 67, 116
1, 138194, Note_on_c, 0, 69, 108
1, 138284, Note_off_c, 0, 69, 108
1, 138295, Note_on_c, 0, 65, 110
1, 138389, Note_off_c, 0, 65, 110
1, 138414, Note_on_c, 0, 61, 34
1, 138463, Note_off_c, 0, 61, 34
1, 138475, Note_on_c, 0, 65, 116
1, 138523, Note_off_c, 0, 65, 116
1, 138537, Note_on_c, 0, 67, 122
1, 138665, Note_off_c, 0, 67, 122
1, 138687, Note_on_c, 0, 67, 120
1, 138848, Note_off_c, 0, 67, 120
1, 138863, Note_on_c, 0, 64, 107
1, 138957, Note_off_c, 0, 64, 107
1, 139037, Note_on_c, 0, 73, 97
1, 139416, Note_off_c, 0, 73, 97
1, 139664, Note_on_c, 0, 75, 118
1, 139750, Note_off_c, 0, 75, 118
1, 139756, Note_on_c, 0, 72, 98
1, 139820, Note_off_c, 0, 72, 98
1, 139832, Note_on_c, 0, 78, 116
1, 139931, Note_off_c, 0, 78, 116
1, 139951, Note_on_c, 0, 80, 126
1, 140031, Note_off_c, 0, 80, 126
1, 140040, Note_on_c, 0, 77, 120
1, 140156, Note_off_c, 0, 77, 120
1, 140167, Note_on_c, 0, 73, 96
1, 140249, Note_off_c, 0, 73, 96
1, 140255, Note_on_c, 0, 75, 117
1, 140337, Note_off_c, 0, 75, 117
1, 140343, Note_on_c, 0, 77, 117
1, 140425, Note_off_c, 0, 77, 117
1, 140431, Note_on_c, 0, 76, 118
1, 140514, Note_off_c, 0, 76, 118
1, 140521, Note_on_c, 0, 73, 103
1, 140595, Note_off_c, 0, 73, 103
1, 140601, Note_on_c, 0, 72, 102
1, 140691, Note_off_c, 0, 72, 102
1, 140702, Note_on_c, 0, 70, 113
1, 140784, Note_off_c, 0, 70, 113
1, 140795, Note_on_c, 0, 67, 118
1, 141043, Note_off_c, 0, 67, 118
1, 141049, Note_on_c, 0, 64, 106
1, 141126, Note_off_c, 0, 64, 106
1, 141788, Note_on_c, 0, 71, 116
1, 141878, Note_off_c, 0, 71, 116
1, 141884, Note_on_c, 0, 72, 110
1, 142342, Note_off_c, 0, 72, 110
1, 142345, Note_on_c, 0, 71, 117
1, 142409, Note_off_c, 0, 71, 117
1, 142416, Note_on_c, 0, 70, 107
1, 143185, Note_off_c, 0, 70, 107
1, 143191, Note_on_c, 0, 67, 119
1, 143277, Note_off_c, 0, 67, 119
1, 143286, Note_on_c, 0, 70, 113
1, 143377, Note_off_c, 0, 70, 113
1, 143389, Note_on_c, 0, 69, 116
1, 143485, Note_off_c, 0, 69, 116
1, 143491, Note_on_c, 0, 64, 102
1, 143563, Note_off_c, 0, 64, 102
1, 143572, Note_on_c, 0, 65, 116
1, 143679, Note_off_c, 0, 65, 116
1, 143686, Note_on_c, 0, 69, 114
1, 143779, Note_off_c, 0, 69, 114
1, 143783, Note_on_c, 0, 67, 120
1, 143877, Note_off_c, 0, 67, 120
1, 143883, Note_on_c, 0, 66, 113
1, 143962, Note_off_c, 0, 66, 113
1, 143971, Note_on_c, 0, 65, 113
1, 144048, Note_off_c, 0, 65, 113
1, 144057, Note_on_c, 0, 64, 111
1, 144131, Note_off_c, 0, 64, 111
1, 144134, Note_on_c, 0, 63, 112
1, 144238, Note_off_c, 0, 63, 112
1, 144244, Note_on_c, 0, 65, 116
1, 144326, Note_off_c, 0, 65, 116
1, 144332, Note_on_c, 0, 66, 112
1, 144651, Note_off_c, 0, 66, 112
1, 144656, Note_on_c, 0, 65, 112
1, 144731, Note_off_c, 0, 65, 112
1, 144739, Note_on_c, 0, 63, 114
1, 144810, Note_off_c, 0, 63, 114
1, 144814, Note_on_c, 0, 62, 108
1, 144891, Note_off_c, 0, 62, 108
1, 144895, Note_on_c, 0, 63, 110
1, 145000, Note_off_c, 0, 63, 110
1, 145003, Note_on_c, 0, 65, 112
1, 145064, Note_off_c, 0, 65, 112
1, 145076, Note_on_c, 0, 66, 117
1, 145200, Note_off_c, 0, 66, 117
1, 145205, Note_on_c, 0, 69, 111
1, 145283, Note_off_c, 0, 69, 111
1, 145288, Note_on_c, 0, 67, 112
1, 145348, Note_off_c, 0, 67, 112
1, 145356, Note_on_c, 0, 64, 102
1, 145427, Note_off_c, 0, 64, 102
1, 145427, End_track
0, 0, End_of_file
