0, 0, Header, 1, 1, 192
1, 0, Start_track
1, 0, Title_t, "Melody"
1, 0, Tempo, 248962
1, 0, Key_signature, -1, "major"
1, 0, Time_signature, 4, 2, 24, 8
1, 3959, Note_on_c, 0, 60, 104
1, 4081, Note_off_c, 0, 60, 104
1, 4106, Note_on_c, 0, 55, 110
1, 4187, Note_off_c, 0, 55, 110
1, 4256, Note_on_c, 0, 58, 100
1, 4334, Note_off_c, 0, 58, 100
1, 4334, Note_on_c, 0, 55, 99
1, 4441, Note_off_c, 0, 55, 99
1, 4541, Note_on_c, 0, 58, 99
1, 4622, Note_off_c, 0, 58, 99
1, 4741, Note_on_c, 0, 55, 100
1, 4819, Note_off_c, 0, 55, 100
1, 4837, Note_on_c, 0, 58, 103
1, 4912, Note_off_c, 0, 58, 103
1, 4924, Note_on_c, 0, 60, 98
1, 5037, Note_off_c, 0, 60, 98
1, 5043, Note_on_c, 0, 65, 105
1, 5140, Note_off_c, 0, 65, 105
1, 5146, Note_on_c, 0, 67, 106
1, 5234, Note_off_c, 0, 67, 106
1, 5350, Note_on_c, 0, 70, 107
1, 5501, Note_off_c, 0, 70, 107
1, 5501, Note_on_c, 0, 72, 113
1, 5645, Note_off_c, 0, 72, 113
1, 5657, Note_on_c, 0, 67, 106
1, 5760, Note_off_c, 0, 67, 106
1, 5819, Note_on_c, 0, 67, 102
1, 5891, Note_off_c, 0, 67, 102
1, 5913, Note_on_c, 0, 65, 109
1, 6042, Note_off_c, 0, 65, 109
1, 6108, Note_on_c, 0, 63, 102
1, 6271, Note_off_c, 0, 63, 102
1, 6286, Note_on_c, 0, 62, 99
1, 6471, Note_off_c, 0, 62, 99
1, 6486, Note_on_c, 0, 65, 108
1, 6674, Note_off_c, 0, 65, 108
1, 6803, Note_on_c, 0, 72, 112
1, 6884, Note_off_c, 0, 72, 112
1, 6887, Note_on_c, 0, 70, 109
1, 6978, Note_off_c, 0, 70, 109
1, 6987, Note_on_c, 0, 67, 104
1, 7065, Note_off_c, 0, 67, 104
1, 7087, Note_on_c, 0, 68, 113
1, 7244, Note_off_c, 0, 68, 113
1, 7266, Note_on_c, 0, 65, 108
1, 7388, Note_off_c, 0, 65, 108
1, 7394, Note_on_c, 0, 62, 105
1, 7504, Note_off_c, 0, 62, 105
1, 7683, Note_on_c, 0, 61, 105
1, 7783, Note_off_c, 0, 61, 105
1, 8078, Note_on_c, 0, 60, 99
1, 8351, Note_off_c, 0, 60, 99
1, 8376, Note_on_c, 0, 58, 95
1, 8467, Note_off_c, 0, 58, 95
1, 8482, Note_on_c, 0, 57, 97
1, 8582, Note_off_c, 0, 57, 97
1, 8657, Note_on_c, 0, 65, 108
1, 8855, Note_off_c, 0, 65, 108
1, 8855, Note_on_c, 0, 63, 103
1, 9040, Note_off_c, 0, 63, 103
1, 9055, Note_on_c, 0, 65, 100
1, 9451, Note_off_c, 0, 65, 100
1, 9460, Note_on_c, 0, 62, 105
1, 9617, Note_off_c, 0, 62, 105
1, 9661, Note_on_c, 0, 65, 104
1, 9796, Note_off_c, 0, 65, 104
1, 9849, Note_on_c, 0, 74, 108
1, 10034, Note_off_c, 0, 74, 108
1, 10043, Note_on_c, 0, 72, 105
1, 10212, Note_off_c, 0, 72, 105
1, 10256, Note_on_c, 0, 70, 103
1, 10413, Note_off_c, 0, 70, 103
1, 10441, Note_on_c, 0, 69, 109
1, 10592, Note_off_c, 0, 69, 109
1, 10604, Note_on_c, 0, 67, 100
1, 10729, Note_off_c, 0, 67, 100
1, 10732, Note_on_c, 0, 65, 108
1, 10823, Note_off_c, 0, 65, 108
1, 10917, Note_on_c, 0, 65, 95
1, 11014, Note_off_c, 0, 65, 95
1, 11023, Note_on_c, 0, 60, 92
1, 11183, Note_off_c, 0, 60, 92
1, 11195, Note_on_c, 0, 67, 103
1, 11286, Note_off_c, 0, 67, 103
1, 11518, Note_on_c, 0, 69, 118
1, 11599, Note_off_c, 0, 69, 118
1, 11621, Note_on_c, 0, 66, 109
1, 11715, Note_off_c, 0, 66, 109
1, 11718, Note_on_c, 0, 63, 105
1, 11787, Note_off_c, 0, 63, 105
1, 11941, Note_on_c, 0, 66, 110
1, 12000, Note_off_c, 0, 66, 110
1, 12012, Note_on_c, 0, 70, 114
1, 12109, Note_off_c, 0, 70, 114
1, 12121, Note_on_c, 0, 67, 105
1, 12212, Note_off_c, 0, 67, 105
1, 12614, Note_on_c, 0, 63, 84
1, 12695, Note_off_c, 0, 63, 84
1, 12701, Note_on_c, 0, 65, 104
1, 12789, Note_off_c, 0, 65, 104
1, 12789, Note_on_c, 0, 63, 106
1, 12873, Note_off_c, 0, 63, 106
1, 12885, Note_on_c, 0, 69, 112
1, 12963, Note_off_c, 0, 69, 112
1, 13066, Note_on_c, 0, 74, 117
1, 13160, Note_off_c, 0, 74, 117
1, 13163, Note_on_c, 0, 72, 117
1, 13342, Note_off_c, 0, 72, 117
1, 13357, Note_on_c, 0, 67, 101
1, 13454, Note_off_c, 0, 67, 101
1, 13463, Note_on_c, 0, 62, 101
1, 13579, Note_off_c, 0, 62, 101
1, 13840, Note_on_c, 0, 68, 107
1, 13915, Note_off_c, 0, 68, 107
1, 13918, Note_on_c, 0, 62, 107
1, 14021, Note_off_c, 0, 62, 107
1, 14030, Note_on_c, 0, 63, 108
1, 14124, Note_off_c, 0, 63, 108
1, 14243, Note_on_c, 0, 67, 110
1, 14315, Note_off_c, 0, 67, 110
1, 14315, Note_on_c, 0, 70, 116
1, 14384, Note_off_c, 0, 70, 116
1, 14402, Note_on_c, 0, 67, 110
1, 14483, Note_off_c, 0, 67, 110
1, 14489, Note_on_c, 0, 68, 116
1, 14592, Note_off_c, 0, 68, 116
1, 15001, Note_on_c, 0, 58, 97
1, 15076, Note_off_c, 0, 58, 97
1, 15076, Note_on_c, 0, 61, 96
1, 15154, Note_off_c, 0, 61, 96
1, 15172, Note_on_c, 0, 63, 106
1, 15253, Note_off_c, 0, 63, 106
1, 15275, Note_on_c, 0, 66, 111
1, 15353, Note_off_c, 0, 66, 111
1, 15362, Note_on_c, 0, 68, 111
1, 15443, Note_off_c, 0, 68, 111
1, 15449, Note_on_c, 0, 71, 119
1, 15562, Note_off_c, 0, 71, 119
1, 15562, Note_on_c, 0, 73, 119
1, 15672, Note_off_c, 0, 73, 119
1, 15678, Note_on_c, 0, 72, 119
1, 15766, Note_off_c, 0, 72, 119
1, 15766, Note_on_c, 0, 71, 118
1, 15860, Note_off_c, 0, 71, 118
1, 15863, Note_on_c, 0, 70, 118
1, 15963, Note_off_c, 0, 70, 118
1, 15963, Note_on_c, 0, 69, 115
1, 16051, Note_off_c, 0, 69, 115
1, 16054, Note_on_c, 0, 68, 115
1, 16145, Note_off_c, 0, 68, 115
1, 16648, Note_on_c, 0, 58, 103
1, 16761, Note_off_c, 0, 58, 103
1, 16761, Note_on_c, 0, 59, 103
1, 16839, Note_off_c, 0, 59, 103
1, 16930, Note_on_c, 0, 63, 105
1, 17011, Note_off_c, 0, 63, 105
1, 17017, Note_on_c, 0, 65, 114
1, 17105, Note_off_c, 0, 65, 114
1, 17111, Note_on_c, 0, 66, 111
1, 17214, Note_off_c, 0, 66, 111
1, 17217, Note_on_c, 0, 62, 108
1, 17330, Note_off_c, 0, 62, 108
1, 17333, Note_on_c, 0, 61, 104
1, 17399, Note_off_c, 0, 61, 104
1, 17399, Note_on_c, 0, 66, 115
1, 17515, Note_off_c, 0, 66, 115
1, 17518, Note_on_c, 0, 65, 112
1, 17602, Note_off_c, 0, 65, 112
1, 17605, Note_on_c, 0, 64, 113
1, 17784, Note_off_c, 0, 64, 113
1, 17784, Note_on_c, 0, 68, 108
1, 17906, Note_off_c, 0, 68, 108
1, 18120, Note_on_c, 0, 65, 114
1, 18201, Note_off_c, 0, 65, 114
1, 18210, Note_on_c, 0, 66, 117
1, 18304, Note_off_c, 0, 66, 117
1, 18304, Note_on_c, 0, 63, 110
1, 18401, Note_off_c, 0, 63, 110
1, 18404, Note_on_c, 0, 62, 109
1, 18485, Note_off_c, 0, 62, 109
1, 18485, Note_on_c, 0, 66, 100
1, 18573, Note_off_c, 0, 66, 100
1, 18585, Note_on_c, 0, 69, 115
1, 18682, Note_off_c, 0, 69, 115
1, 18682, Note_on_c, 0, 67, 105
1, 18776, Note_off_c, 0, 67, 105
1, 18779, Note_on_c, 0, 62, 103
1, 18945, Note_off_c, 0, 62, 103
1, 18967, Note_on_c, 0, 64, 113
1, 19086, Note_off_c, 0, 64, 113
1, 19158, Note_on_c, 0, 68, 117
1, 19271, Note_off_c, 0, 68, 117
1, 19271, Note_on_c, 0, 63, 93
1, 19327, Note_off_c, 0, 63, 93
1, 19336, Note_on_c, 0, 67, 109
1, 19471, Note_off_c, 0, 67, 109
1, 19486, Note_on_c, 0, 68, 112
1, 19599, Note_off_c, 0, 68, 112
1, 19674, Note_on_c, 0, 64, 106
1, 19837, Note_off_c, 0, 64, 106
1, 19887, Note_on_c, 0, 68, 111
1, 19959, Note_off_c, 0, 68, 111
1, 19999, Note_on_c, 0, 64, 105
1, 20156, Note_off_c, 0, 64, 105
1, 20162, Note_on_c, 0, 68, 114
1, 20250, Note_off_c, 0, 68, 114
1, 20256, Note_on_c, 0, 66, 107
1, 20328, Note_off_c, 0, 66, 107
1, 20346, Note_on_c, 0, 64, 110
1, 20503, Note_off_c, 0, 64, 110
1, 20525, Note_on_c, 0, 66, 109
1, 20616, Note_off_c, 0, 66, 109
1, 20616, Note_on_c, 0, 67, 107
1, 20697, Note_off_c, 0, 67, 107
1, 20712, Note_on_c, 0, 64, 112
1, 20812, Note_off_c, 0, 64, 112
1, 20818, Note_on_c, 0, 69, 114
1, 20909, Note_off_c, 0, 69, 114
1, 20924, Note_on_c, 0, 64, 107
1, 20999, Note_off_c, 0, 64, 107
1, 21017, Note_on_c, 0, 68, 114
1, 21092, Note_off_c, 0, 68, 114
1, 21095, Note_on_c, 0, 64, 114
1, 21208, Note_off_c, 0, 64, 114
1, 21211, Note_on_c, 0, 67, 108
1, 21283, Note_off_c, 0, 67, 108
1, 21286, Note_on_c, 0, 68, 112
1, 21452, Note_off_c, 0, 68, 112
1, 21499, Note_on_c, 0, 66, 113
1, 21593, Note_off_c, 0, 66, 113
1, 21621, Note_on_c, 0, 64, 113
1, 21721, Note_off_c, 0, 64, 113
1, 21793, Note_on_c, 0, 65, 112
1, 21852, Note_off_c, 0, 65, 112
1, 21864, Note_on_c, 0, 64, 101
1, 22059, Note_off_c, 0, 64, 101
1, 22059, Note_on_c, 0, 65, 114
1, 22175, Note_off_c, 0, 65, 114
1, 22190, Note_on_c, 0, 66, 106
1, 22265, Note_off_c, 0, 66, 106
1, 22271, Note_on_c, 0, 63, 108
1, 22374, Note_off_c, 0, 63, 108
1, 22380, Note_on_c, 0, 62, 99
1, 22471, Note_off_c, 0, 62, 99
1, 22486, Note_on_c, 0, 69, 117
1, 22577, Note_off_c, 0, 69, 117
1, 22668, Note_on_c, 0, 70, 110
1, 22756, Note_off_c, 0, 70, 110
1, 22796, Note_on_c, 0, 67, 98
1, 22846, Note_off_c, 0, 67, 98
1, 22849, Note_on_c, 0, 68, 113
1, 22962, Note_off_c, 0, 68, 113
1, 22962, Note_on_c, 0, 65, 103
1, 23050, Note_off_c, 0, 65, 103
1, 23053, Note_on_c, 0, 64, 109
1, 23197, Note_off_c, 0, 64, 109
1, 23278, Note_on_c, 0, 68, 111
1, 23356, Note_off_c, 0, 68, 111
1, 23642, Note_on_c, 0, 70, 112
1, 23749, Note_off_c, 0, 70, 112
1, 23852, Note_on_c, 0, 68, 115
1, 23927, Note_off_c, 0, 68, 115
1, 23933, Note_on_c, 0, 65, 108
1, 24011, Note_off_c, 0, 65, 108
1, 24026, Note_on_c, 0, 63, 109
1, 24133, Note_off_c, 0, 63, 109
1, 24145, Note_on_c, 0, 60, 99
1, 24258, Note_off_c, 0, 60, 99
1, 24342, Note_on_c, 0, 65, 101
1, 24411, Note_off_c, 0, 65, 101
1, 24423, Note_on_c, 0, 70, 114
1, 24501, Note_off_c, 0, 70, 114
1, 24507, Note_on_c, 0, 72, 114
1, 24585, Note_off_c, 0, 72, 114
1, 24603, Note_on_c, 0, 71, 110
1, 24902, Note_off_c, 0, 71, 110
1, 24908, Note_on_c, 0, 67, 111
1, 24999, Note_off_c, 0, 67, 111
1, 25024, Note_on_c, 0, 70, 111
1, 25099, Note_off_c, 0, 70, 111
1, 25102, Note_on_c, 0, 69, 111
1, 25174, Note_off_c, 0, 69, 111
1, 25180, Note_on_c, 0, 68, 112
1, 25268, Note_off_c, 0, 68, 112
1, 25337, Note_on_c, 0, 58, 98
1, 25403, Note_off_c, 0, 58, 98
1, 25985, Note_on_c, 0, 63, 112
1, 26095, Note_off_c, 0, 63, 112
1, 26095, Note_on_c, 0, 66, 110
1, 26211, Note_off_c, 0, 66, 110
1, 26399, Note_on_c, 0, 69, 122
1, 26493, Note_off_c, 0, 69, 122
1, 26493, Note_on_c, 0, 66, 113
1, 26587, Note_off_c, 0, 66, 113
1, 26587, Note_on_c, 0, 62, 111
1, 26697, Note_off_c, 0, 62, 111
1, 26703, Note_on_c, 0, 61, 105
1, 26775, Note_off_c, 0, 61, 105
1, 26787, Note_on_c, 0, 64, 107
1, 26972, Note_off_c, 0, 64, 107
1, 26972, Note_on_c, 0, 58, 99
1, 27079, Note_off_c, 0, 58, 99
1, 27082, Note_on_c, 0, 61, 100
1, 27170, Note_off_c, 0, 61, 100
1, 27506, Note_on_c, 0, 58, 108
1, 27594, Note_off_c, 0, 58, 108
1, 27600, Note_on_c, 0, 54, 110
1, 27697, Note_off_c, 0, 54, 110
1, 27700, Note_on_c, 0, 56, 110
1, 27775, Note_off_c, 0, 56, 110
1, 27834, Note_on_c, 0, 58, 103
1, 27931, Note_off_c, 0, 58, 103
1, 27946, Note_on_c, 0, 59, 108
1, 28034, Note_off_c, 0, 59, 108
1, 28034, Note_on_c, 0, 61, 106
1, 28128, Note_off_c, 0, 61, 106
1, 28131, Note_on_c, 0, 63, 108
1, 28244, Note_off_c, 0, 63, 108
1, 28256, Note_on_c, 0, 66, 108
1, 28318, Note_off_c, 0, 66, 108
1, 28327, Note_on_c, 0, 68, 115
1, 28459, Note_off_c, 0, 68, 115
1, 28481, Note_on_c, 0, 70, 111
1, 28616, Note_off_c, 0, 70, 111
1, 28634, Note_on_c, 0, 71, 114
1, 28731, Note_off_c, 0, 71, 114
1, 28828, Note_on_c, 0, 73, 114
1, 28935, Note_off_c, 0, 73, 114
1, 28941, Note_on_c, 0, 72, 114
1, 29032, Note_off_c, 0, 72, 114
1, 29032, Note_on_c, 0, 70, 110
1, 29110, Note_off_c, 0, 70, 110
1, 29119, Note_on_c, 0, 68, 111
1, 29222, Note_off_c, 0, 68, 111
1, 29259, Note_on_c, 0, 70, 96
1, 29315, Note_off_c, 0, 70, 96
1, 29318, Note_on_c, 0, 72, 111
1, 29434, Note_off_c, 0, 72, 111
1, 29522, Note_on_c, 0, 70, 108
1, 29616, Note_off_c, 0, 70, 108
1, 29622, Note_on_c, 0, 72, 109
1, 29688, Note_off_c, 0, 72, 109
1, 29697, Note_on_c, 0, 70, 107
1, 29822, Note_off_c, 0, 70, 107
1, 29825, Note_on_c, 0, 68, 107
1, 29900, Note_off_c, 0, 68, 107
1, 29903, Note_on_c, 0, 67, 107
1, 29987, Note_off_c, 0, 67, 107
1, 29996, Note_on_c, 0, 65, 99
1, 30074, Note_off_c, 0, 65, 99
1, 30092, Note_on_c, 0, 63, 106
1, 30192, Note_off_c, 0, 63, 106
1, 30207, Note_on_c, 0, 62, 106
1, 30282, Note_off_c, 0, 62, 106
1, 30282, Note_on_c, 0, 67, 108
1, 30392, Note_off_c, 0, 67, 108
1, 30398, Note_on_c, 0, 65, 108
1, 30464, Note_off_c, 0, 65, 108
1, 30486, Note_on_c, 0, 62, 107
1, 30577, Note_off_c, 0, 62, 107
1, 30655, Note_on_c, 0, 60, 106
1, 30765, Note_off_c, 0, 60, 106
1, 30780, Note_on_c, 0, 63, 100
1, 30861, Note_off_c, 0, 63, 100
1, 30879, Note_on_c, 0, 58, 96
1, 30998, Note_off_c, 0, 58, 96
1, 31051, Note_on_c, 0, 57, 96
1, 31224, Note_off_c, 0, 57, 96
1, 31239, Note_on_c, 0, 60, 99
1, 31336, Note_off_c, 0, 60, 99
1, 31361, Note_on_c, 0, 65, 99
1, 32207, Note_off_c, 0, 65, 99
1, 32225, Note_on_c, 0, 63, 106
1, 32316, Note_off_c, 0, 63, 106
1, 32328, Note_on_c, 0, 65, 107
1, 32409, Note_off_c, 0, 65, 107
1, 33035, Note_on_c, 0, 60, 97
1, 33135, Note_off_c, 0, 60, 97
1, 33135, Note_on_c, 0, 62, 101
1, 33223, Note_off_c, 0, 62, 101
1, 33223, Note_on_c, 0, 63, 101
1, 33323, Note_off_c, 0, 63, 101
1, 33326, Note_on_c, 0, 64, 109
1, 33395, Note_off_c, 0, 64, 109
1, 33410, Note_on_c, 0, 65, 100
1, 33507, Note_off_c, 0, 65, 100
1, 33513, Note_on_c, 0, 64, 108
1, 33604, Note_off_c, 0, 64, 108
1, 33629, Note_on_c, 0, 66, 96
1, 33764, Note_off_c, 0, 66, 96
1, 34103, Note_on_c, 0, 56, 95
1, 34165, Note_off_c, 0, 56, 95
1, 34165, Note_on_c, 0, 62, 109
1, 34278, Note_off_c, 0, 62, 109
1, 34293, Note_on_c, 0, 59, 105
1, 34374, Note_off_c, 0, 59, 105
1, 34377, Note_on_c, 0, 54, 103
1, 34465, Note_off_c, 0, 54, 103
1, 34483, Note_on_c, 0, 57, 103
1, 34561, Note_off_c, 0, 57, 103
1, 34573, Note_on_c, 0, 56, 100
1, 34648, Note_off_c, 0, 56, 100
1, 34666, Note_on_c, 0, 58, 101
1, 34750, Note_off_c, 0, 58, 101
1, 34750, Note_on_c, 0, 59, 94
1, 34838, Note_off_c, 0, 59, 94
1, 34853, Note_on_c, 0, 62, 102
1, 34941, Note_off_c, 0, 62, 102
1, 34944, Note_on_c, 0, 61, 96
1, 35069, Note_off_c, 0, 61, 96
1, 35072, Note_on_c, 0, 63, 98
1, 35153, Note_off_c, 0, 63, 98
1, 35171, Note_on_c, 0, 63, 100
1, 35249, Note_off_c, 0, 63, 100
1, 35557, Note_on_c, 0, 62, 109
1, 35641, Note_off_c, 0, 62, 109
1, 35653, Note_on_c, 0, 61, 94
1, 35734, Note_off_c, 0, 61, 94
1, 35822, Note_on_c, 0, 64, 108
1, 35922, Note_off_c, 0, 64, 108
1, 35922, Note_on_c, 0, 60, 106
1, 35988, Note_off_c, 0, 60, 106
1, 36000, Note_on_c, 0, 58, 100
1, 36075, Note_off_c, 0, 58, 100
1, 36087, Note_on_c, 0, 57, 101
1, 36175, Note_off_c, 0, 57, 101
1, 36187, Note_on_c, 0, 56, 99
1, 36281, Note_off_c, 0, 56, 99
1, 36381, Note_on_c, 0, 60, 98
1, 36453, Note_off_c, 0, 60, 98
1, 36465, Note_on_c, 0, 65, 102
1, 36572, Note_off_c, 0, 65, 102
1, 36572, Note_on_c, 0, 64, 101
1, 36638, Note_off_c, 0, 64, 101
1, 36641, Note_on_c, 0, 66, 105
1, 36748, Note_off_c, 0, 66, 105
1, 37062, Note_on_c, 0, 67, 112
1, 37156, Note_off_c, 0, 67, 112
1, 37162, Note_on_c, 0, 66, 112
1, 37243, Note_off_c, 0, 66, 112
1, 37243, Note_on_c, 0, 63, 104
1, 37353, Note_off_c, 0, 63, 104
1, 37368, Note_on_c, 0, 62, 99
1, 37434, Note_off_c, 0, 62, 99
1, 37434, Note_on_c, 0, 66, 109
1, 37515, Note_off_c, 0, 66, 109
1, 37524, Note_on_c, 0, 69, 114
1, 37605, Note_off_c, 0, 69, 114
1, 37605, Note_on_c, 0, 68, 107
1, 37721, Note_off_c, 0, 68, 107
1, 37739, Note_on_c, 0, 62, 105
1, 37839, Note_off_c, 0, 62, 105
1, 37848, Note_on_c, 0, 61, 103
1, 37926, Note_off_c, 0, 61, 103
1, 37932, Note_on_c, 0, 64, 108
1, 37994, Note_off_c, 0, 64, 108
1, 37997, Note_on_c, 0, 68, 101
1, 38104, Note_off_c, 0, 68, 101
1, 38104, Note_on_c, 0, 64, 86
1, 38173, Note_off_c, 0, 64, 86
1, 38182, Note_on_c, 0, 67, 108
1, 38282, Note_off_c, 0, 67, 108
1, 38710, Note_on_c, 0, 70, 113
1, 38801, Note_off_c, 0, 70, 113
1, 38804, Note_on_c, 0, 68, 107
1, 38895, Note_off_c, 0, 68, 107
1, 38901, Note_on_c, 0, 67, 111
1, 38970, Note_off_c, 0, 67, 111
1, 39058, Note_on_c, 0, 63, 105
1, 39136, Note_off_c, 0, 63, 105
1, 39142, Note_on_c, 0, 62, 102
1, 39223, Note_off_c, 0, 62, 102
1, 39223, Note_on_c, 0, 61, 100
1, 39304, Note_off_c, 0, 61, 100
1, 39304, Note_on_c, 0, 64, 114
1, 39392, Note_off_c, 0, 64, 114
1, 39426, Note_on_c, 0, 68, 104
1, 39485, Note_off_c, 0, 68, 104
1, 39488, Note_on_c, 0, 64, 103
1, 39613, Note_off_c, 0, 64, 103
1, 39613, Note_on_c, 0, 63, 99
1, 39738, Note_off_c, 0, 63, 99
1, 40093, Note_on_c, 0, 62, 112
1, 40193, Note_off_c, 0, 62, 112
1, 40215, Note_on_c, 0, 61, 110
1, 40299, Note_off_c, 0, 61, 110
1, 40374, Note_on_c, 0, 63, 107
1, 40474, Note_off_c, 0, 63, 107
1, 40474, Note_on_c, 0, 60, 107
1, 40555, Note_off_c, 0, 60, 107
1, 40561, Note_on_c, 0, 58, 98
1, 40661, Note_off_c, 0, 58, 98
1, 40689, Note_on_c, 0, 58, 94
1, 40773, Note_off_c, 0, 58, 94
1, 40773, Note_on_c, 0, 57, 97
1, 40857, Note_off_c, 0, 57, 97
1, 40882, Note_on_c, 0, 56, 101
1, 40954, Note_off_c, 0, 56, 101
1, 40954, Note_on_c, 0, 57, 96
1, 41013, Note_off_c, 0, 57, 96
1, 41025, Note_on_c, 0, 58, 102
1, 41100, Note_off_c, 0, 58, 102
1, 41336, Note_on_c, 0, 58, 103
1, 41433, Note_off_c, 0, 58, 103
1, 41436, Note_on_c, 0, 57, 101
1, 41505, Note_off_c, 0, 57, 101
1, 41737, Note_on_c, 0, 58, 104
1, 41828, Note_off_c, 0, 58, 104
1, 41843, Note_on_c, 0, 56, 99
1, 41937, Note_off_c, 0, 56, 99
1, 42125, Note_on_c, 0, 60, 112
1, 42222, Note_off_c, 0, 60, 112
1, 42222, Note_on_c, 0, 59, 98
1, 42310, Note_off_c, 0, 59, 98
1, 42322, Note_on_c, 0, 55, 104
1, 42400, Note_off_c, 0, 55, 104
1, 42406, Note_on_c, 0, 62, 96
1, 42490, Note_off_c, 0, 62, 96
1, 42704, Note_on_c, 0, 62, 108
1, 42782, Note_off_c, 0, 62, 108
1, 42819, Note_on_c, 0, 62, 115
1, 42881, Note_off_c, 0, 62, 115
1, 42899, Note_on_c, 0, 57, 103
1, 42958, Note_off_c, 0, 57, 103
1, 42967, Note_on_c, 0, 58, 98
1, 43039, Note_off_c, 0, 58, 98
1, 43054, Note_on_c, 0, 62, 107
1, 43145, Note_off_c, 0, 62, 107
1, 43151, Note_on_c, 0, 61, 104
1, 43235, Note_off_c, 0, 61, 104
1, 43244, Note_on_c, 0, 63, 106
1, 43332, Note_off_c, 0, 63, 106
1, 43341, Note_on_c, 0, 59, 102
1, 43429, Note_off_c, 0, 59, 102
1, 43459, Note_on_c, 0, 56, 105
1, 43533, Note_off_c, 0, 56, 105
1, 43534, Note_on_c, 0, 58, 106
1, 43609, Note_off_c, 0, 58, 106
1, 43618, Note_on_c, 0, 57, 98
1, 43680, Note_off_c, 0, 57, 98
1, 43698, Note_on_c, 0, 56, 104
1, 43786, Note_off_c, 0, 56, 104
1, 43804, Note_on_c, 0, 57, 103
1, 43888, Note_off_c, 0, 57, 103
1, 43903, Note_on_c, 0, 59, 96
1, 43969, Note_off_c, 0, 59, 96
1, 44000, Note_on_c, 0, 67, 112
1, 44062, Note_off_c, 0, 67, 112
1, 44093, Note_on_c, 0, 62, 106
1, 44181, Note_off_c, 0, 62, 106
1, 44190, Note_on_c, 0, 59, 95
1, 44246, Note_off_c, 0, 59, 95
1, 44249, Note_on_c, 0, 64, 115
1, 44371, Note_off_c, 0, 64, 115
1, 44459, Note_on_c, 0, 68, 115
1, 44553, Note_off_c, 0, 68, 115
1, 44592, Note_on_c, 0, 70, 101
1, 44664, Note_off_c, 0, 70, 101
1, 44671, Note_on_c, 0, 71, 114
1, 44740, Note_off_c, 0, 71, 114
1, 44774, Note_on_c, 0, 74, 118
1, 44852, Note_off_c, 0, 74, 118
1, 44852, Note_on_c, 0, 72, 94
1, 44918, Note_off_c, 0, 72, 94
1, 44946, Note_on_c, 0, 67, 102
1, 45056, Note_off_c, 0, 67, 102
1, 45065, Note_on_c, 0, 64, 108
1, 45178, Note_off_c, 0, 64, 108
1, 45244, Note_on_c, 0, 54, 102
1, 45316, Note_off_c, 0, 54, 102
1, 45611, Note_on_c, 0, 63, 109
1, 45730, Note_off_c, 0, 63, 109
1, 45742, Note_on_c, 0, 64, 116
1, 45823, Note_off_c, 0, 64, 116
1, 45838, Note_on_c, 0, 66, 100
1, 45919, Note_off_c, 0, 66, 100
1, 45925, Note_on_c, 0, 63, 10
1, 46016, Note_off_c, 0, 63, 10
1, 46022, Note_on_c, 0, 62, 102
1, 46103, Note_off_c, 0, 62, 102
1, 46109, Note_on_c, 0, 66, 110
1, 46209, Note_off_c, 0, 66, 110
1, 46209, Note_on_c, 0, 69, 108
1, 46287, Note_off_c, 0, 69, 108
1, 46305, Note_on_c, 0, 72, 103
1, 46377, Note_off_c, 0, 72, 103
1, 46377, Note_on_c, 0, 61, 106
1, 46474, Note_off_c, 0, 61, 106
1, 46499, Note_on_c, 0, 64, 116
1, 46577, Note_off_c, 0, 64, 116
1, 46577, Note_on_c, 0, 69, 104
1, 46658, Note_off_c, 0, 69, 104
1, 46670, Note_on_c, 0, 61, 80
1, 46742, Note_off_c, 0, 61, 80
1, 46776, Note_on_c, 0, 58, 94
1, 46883, Note_off_c, 0, 58, 94
1, 46892, Note_on_c, 0, 57, 92
1, 46961, Note_off_c, 0, 57, 92
1, 47118, Note_on_c, 0, 67, 103
1, 47193, Note_off_c, 0, 67, 103
1, 47208, Note_on_c, 0, 64, 111
1, 47274, Note_off_c, 0, 64, 111
1, 47469, Note_on_c, 0, 75, 116
1, 47525, Note_off_c, 0, 75, 116
1, 47553, Note_on_c, 0, 70, 111
1, 47634, Note_off_c, 0, 70, 111
1, 47652, Note_on_c, 0, 65, 111
1, 47730, Note_off_c, 0, 65, 111
1, 47742, Note_on_c, 0, 66, 112
1, 47814, Note_off_c, 0, 66, 112
1, 47836, Note_on_c, 0, 69, 111
1, 47920, Note_off_c, 0, 69, 111
1, 47929, Note_on_c, 0, 71, 86
1, 48023, Note_off_c, 0, 71, 86
1, 48023, Note_on_c, 0, 74, 117
1, 48120, Note_off_c, 0, 74, 117
1, 48123, Note_on_c, 0, 75, 121
1, 48220, Note_off_c, 0, 75, 121
1, 48220, Note_on_c, 0, 72, 116
1, 48304, Note_off_c, 0, 72, 116
1, 48304, Note_on_c, 0, 70, 105
1, 48379, Note_off_c, 0, 70, 105
1, 48379, Note_on_c, 0, 66, 105
1, 48451, Note_off_c, 0, 66, 105
1, 48466, Note_on_c, 0, 70, 111
1, 48576, Note_off_c, 0, 70, 111
1, 48887, Note_on_c, 0, 69, 117
1, 48984, Note_off_c, 0, 69, 117
1, 48984, Note_on_c, 0, 65, 112
1, 49068, Note_off_c, 0, 65, 112
1, 49071, Note_on_c, 0, 63, 109
1, 49133, Note_on_c, 0, 60, 106
1, 49133, Note_off_c, 0, 63, 109
1, 49211, Note_off_c, 0, 60, 106
1, 49226, Note_on_c, 0, 67, 111
1, 49320, Note_off_c, 0, 67, 111
1, 49817, Note_on_c, 0, 62, 102
1, 49955, Note_off_c, 0, 62, 102
1, 50143, Note_on_c, 0, 65, 116
1, 50215, Note_off_c, 0, 65, 116
1, 50224, Note_on_c, 0, 66, 116
1, 50302, Note_off_c, 0, 66, 116
1, 50314, Note_on_c, 0, 63, 113
1, 50383, Note_off_c, 0, 63, 113
1, 50398, Note_on_c, 0, 58, 98
1, 50508, Note_off_c, 0, 58, 98
1, 50577, Note_on_c, 0, 66, 114
1, 50674, Note_off_c, 0, 66, 114
1, 50705, Note_on_c, 0, 69, 106
1, 50758, Note_off_c, 0, 69, 106
1, 50773, Note_on_c, 0, 65, 114
1, 50876, Note_off_c, 0, 65, 114
1, 50888, Note_on_c, 0, 64, 108
1, 50963, Note_off_c, 0, 64, 108
1, 50963, Note_on_c, 0, 66, 111
1, 51151, Note_off_c, 0, 66, 111
1, 51166, Note_on_c, 0, 68, 112
1, 51266, Note_off_c, 0, 68, 112
1, 51278, Note_on_c, 0, 64, 116
1, 51325, Note_off_c, 0, 64, 116
1, 51334, Note_on_c, 0, 65, 98
1, 51425, Note_off_c, 0, 65, 98
1, 51469, Note_on_c, 0, 64, 106
1, 51553, Note_on_c, 0, 66, 110
1, 51553, Note_off_c, 0, 64, 106
1, 51619, Note_off_c, 0, 66, 110
1, 51637, Note_on_c, 0, 67, 84
1, 51699, Note_off_c, 0, 67, 84
1, 51916, Note_on_c, 0, 64, 108
1, 52148, Note_off_c, 0, 64, 108
1, 52210, Note_on_c, 0, 65, 110
1, 52323, Note_off_c, 0, 65, 110
1, 52379, Note_on_c, 0, 64, 104
1, 52489, Note_off_c, 0, 64, 104
1, 52489, Note_on_c, 0, 68, 118
1, 52599, Note_on_c, 0, 67, 111
1, 52599, Note_off_c, 0, 68, 118
1, 52687, Note_off_c, 0, 67, 111
1, 52696, Note_on_c, 0, 63, 113
1, 52762, Note_off_c, 0, 63, 113
1, 52771, Note_on_c, 0, 62, 103
1, 52862, Note_off_c, 0, 62, 103
1, 52871, Note_on_c, 0, 65, 112
1, 52987, Note_on_c, 0, 67, 106
1, 52987, Note_off_c, 0, 65, 112
1, 53087, Note_off_c, 0, 67, 106
1, 53162, Note_on_c, 0, 72, 118
1, 53265, Note_off_c, 0, 72, 118
1, 53268, Note_on_c, 0, 70, 117
1, 53359, Note_off_c, 0, 70, 117
1, 53362, Note_on_c, 0, 67, 108
1, 53456, Note_off_c, 0, 67, 108
1, 53459, Note_on_c, 0, 62, 107
1, 53550, Note_off_c, 0, 62, 107
1, 53568, Note_on_c, 0, 60, 96
1, 53649, Note_off_c, 0, 60, 96
1, 53652, Note_on_c, 0, 67, 107
1, 53762, Note_off_c, 0, 67, 107
1, 54237, Note_on_c, 0, 72, 98
1, 54340, Note_off_c, 0, 72, 98
1, 54346, Note_on_c, 0, 74, 104
1, 54412, Note_off_c, 0, 74, 104
1, 54424, Note_on_c, 0, 75, 117
1, 54499, Note_off_c, 0, 75, 117
1, 54505, Note_on_c, 0, 76, 119
1, 54593, Note_off_c, 0, 76, 119
1, 54611, Note_on_c, 0, 77, 124
1, 54695, Note_off_c, 0, 77, 124
1, 54707, Note_on_c, 0, 76, 120
1, 54763, Note_off_c, 0, 76, 120
1, 54766, Note_on_c, 0, 73, 117
1, 54876, Note_on_c, 0, 71, 92
1, 54876, Note_off_c, 0, 73, 117
1, 54970, Note_off_c, 0, 71, 92
1, 54970, Note_on_c, 0, 75, 120
1, 55102, Note_off_c, 0, 75, 120
1, 55347, Note_on_c, 0, 74, 120
1, 55472, Note_off_c, 0, 74, 120
1, 55481, Note_on_c, 0, 69, 99
1, 55559, Note_off_c, 0, 69, 99
1, 55562, Note_on_c, 0, 70, 115
1, 55634, Note_off_c, 0, 70, 115
1, 55646, Note_on_c, 0, 74, 114
1, 55775, Note_off_c, 0, 74, 114
1, 55837, Note_on_c, 0, 71, 107
1, 55928, Note_off_c, 0, 71, 107
1, 55937, Note_on_c, 0, 70, 112
1, 56034, Note_off_c, 0, 70, 112
1, 56046, Note_on_c, 0, 69, 111
1, 56115, Note_off_c, 0, 69, 111
1, 56121, Note_on_c, 0, 68, 114
1, 56199, Note_off_c, 0, 68, 114
1, 56208, Note_on_c, 0, 70, 107
1, 56308, Note_off_c, 0, 70, 107
1, 56308, Note_on_c, 0, 71, 101
1, 56399, Note_off_c, 0, 71, 101
1, 56405, Note_on_c, 0, 70, 114
1, 56496, Note_off_c, 0, 70, 114
1, 56518, Note_on_c, 0, 67, 110
1, 56602, Note_off_c, 0, 67, 110
1, 56613, Note_on_c, 0, 63, 112
1, 56689, Note_off_c, 0, 63, 112
1, 56693, Note_on_c, 0, 60, 108
1, 56802, Note_off_c, 0, 60, 108
1, 56887, Note_on_c, 0, 69, 121
1, 56974, Note_off_c, 0, 69, 121
1, 56991, Note_on_c, 0, 65, 114
1, 57062, Note_off_c, 0, 65, 114
1, 57064, Note_on_c, 0, 62, 104
1, 57193, Note_off_c, 0, 62, 104
1, 57242, Note_on_c, 0, 60, 108
1, 57347, Note_off_c, 0, 60, 108
1, 57436, Note_on_c, 0, 67, 113
1, 57525, Note_off_c, 0, 67, 113
1, 57545, Note_on_c, 0, 72, 107
1, 57630, Note_off_c, 0, 72, 107
1, 57636, Note_on_c, 0, 70, 111
1, 57738, Note_off_c, 0, 70, 111
1, 58673, Note_on_c, 0, 72, 118
1, 58769, Note_off_c, 0, 72, 118
1, 58780, Note_on_c, 0, 70, 112
1, 58885, Note_off_c, 0, 70, 112
1, 58970, Note_on_c, 0, 71, 118
1, 59075, Note_off_c, 0, 71, 118
1, 59090, Note_on_c, 0, 75, 112
1, 59157, Note_off_c, 0, 75, 112
1, 59192, Note_on_c, 0, 70, 105
1, 59268, Note_off_c, 0, 70, 105
1, 59270, Note_on_c, 0, 69, 109
1, 59352, Note_off_c, 0, 69, 109
1, 59360, Note_on_c, 0, 68, 110
1, 59440, Note_off_c, 0, 68, 110
1, 59455, Note_on_c, 0, 70, 116
1, 59537, Note_off_c, 0, 70, 116
1, 59543, Note_on_c, 0, 71, 92
1, 59643, Note_off_c, 0, 71, 92
1, 59649, Note_on_c, 0, 70, 114
1, 59736, Note_off_c, 0, 70, 114
1, 59740, Note_on_c, 0, 69, 118
1, 59840, Note_off_c, 0, 69, 118
1, 59844, Note_on_c, 0, 66, 110
1, 59917, Note_off_c, 0, 66, 110
1, 59937, Note_on_c, 0, 63, 103
1, 60004, Note_off_c, 0, 63, 103
1, 60098, Note_on_c, 0, 66, 105
1, 60243, Note_off_c, 0, 66, 105
1, 60247, Note_on_c, 0, 68, 112
1, 60401, Note_off_c, 0, 68, 112
1, 60416, Note_on_c, 0, 65, 112
1, 60485, Note_off_c, 0, 65, 112
1, 60885, Note_on_c, 0, 63, 106
1, 61220, Note_off_c, 0, 63, 106
1, 61224, Note_on_c, 0, 65, 115
1, 61517, Note_off_c, 0, 65, 115
1, 61528, Note_on_c, 0, 63, 113
1, 61615, Note_off_c, 0, 63, 113
1, 61619, Note_on_c, 0, 62, 110
1, 61737, Note_off_c, 0, 62, 110
1, 61743, Note_on_c, 0, 63, 108
1, 61821, Note_off_c, 0, 63, 108
1, 61906, Note_on_c, 0, 63, 115
1, 61991, Note_off_c, 0, 63, 115
1, 61999, Note_on_c, 0, 61, 116
1, 62164, Note_off_c, 0, 61, 116
1, 62177, Note_on_c, 0, 62, 114
1, 62335, Note_off_c, 0, 62, 114
1, 62368, Note_on_c, 0, 63, 114
1, 62661, Note_off_c, 0, 63, 114
1, 62716, Note_on_c, 0, 64, 117
1, 62807, Note_off_c, 0, 64, 117
1, 62847, Note_on_c, 0, 64, 107
1, 62911, Note_off_c, 0, 64, 107
1, 63000, Note_on_c, 0, 65, 88
1, 63044, Note_off_c, 0, 65, 88
1, 63070, Note_on_c, 0, 67, 100
1, 63128, Note_off_c, 0, 67, 100
1, 63181, Note_on_c, 0, 76, 116
1, 63239, Note_off_c, 0, 76, 116
1, 63261, Note_on_c, 0, 70, 115
1, 63346, Note_off_c, 0, 70, 115
1, 63348, Note_on_c, 0, 65, 110
1, 63437, Note_off_c, 0, 65, 110
1, 63450, Note_on_c, 0, 69, 117
1, 63528, Note_off_c, 0, 69, 117
1, 63545, Note_on_c, 0, 66, 112
1, 63634, Note_off_c, 0, 66, 112
1, 63806, Note_on_c, 0, 74, 116
1, 63920, Note_off_c, 0, 74, 116
1, 63924, Note_on_c, 0, 71, 115
1, 64013, Note_off_c, 0, 71, 115
1, 64019, Note_on_c, 0, 66, 93
1, 64059, Note_off_c, 0, 66, 93
1, 64067, Note_on_c, 0, 69, 112
1, 64196, Note_off_c, 0, 69, 112
1, 64222, Note_on_c, 0, 68, 115
1, 64329, Note_off_c, 0, 68, 115
1, 64389, Note_on_c, 0, 63, 114
1, 64476, Note_off_c, 0, 63, 114
1, 64487, Note_on_c, 0, 62, 107
1, 64572, Note_off_c, 0, 62, 107
1, 64572, Note_on_c, 0, 68, 115
1, 64659, Note_off_c, 0, 68, 115
1, 64672, Note_on_c, 0, 67, 109
1, 64745, Note_off_c, 0, 67, 109
1, 64769, Note_on_c, 0, 62, 110
1, 64858, Note_off_c, 0, 62, 110
1, 64871, Note_on_c, 0, 59, 103
1, 64949, Note_off_c, 0, 59, 103
1, 64973, Note_on_c, 0, 54, 101
1, 65046, Note_off_c, 0, 54, 101
1, 65050, Note_on_c, 0, 60, 110
1, 65128, Note_off_c, 0, 60, 110
1, 65141, Note_on_c, 0, 63, 110
1, 65205, Note_off_c, 0, 63, 110
1, 65216, Note_on_c, 0, 58, 103
1, 65301, Note_off_c, 0, 58, 103
1, 65301, Note_on_c, 0, 53, 103
1, 65379, Note_off_c, 0, 53, 103
1, 65383, Note_on_c, 0, 55, 105
1, 65490, Note_off_c, 0, 55, 105
1, 65503, Note_on_c, 0, 53, 108
1, 65565, Note_off_c, 0, 53, 108
1, 65573, Note_on_c, 0, 51, 111
1, 65642, Note_off_c, 0, 51, 111
1, 65659, Note_on_c, 0, 51, 107
1, 65748, Note_off_c, 0, 51, 107
1, 67330, Note_on_c, 0, 53, 104
1, 67363, Note_off_c, 0, 53, 104
1, 67378, Note_on_c, 0, 55, 110
1, 67440, Note_off_c, 0, 55, 110
1, 67657, Note_on_c, 0, 60, 117
1, 67704, Note_off_c, 0, 60, 117
1, 67721, Note_on_c, 0, 58, 109
1, 67761, Note_off_c, 0, 58, 109
1, 67777, Note_on_c, 0, 55, 106
1, 67843, Note_off_c, 0, 55, 106
1, 67850, Note_on_c, 0, 53, 114
1, 67935, Note_off_c, 0, 53, 114
1, 67935, Note_on_c, 0, 50, 108
1, 68013, Note_off_c, 0, 50, 108
1, 68058, Note_on_c, 0, 58, 104
1, 68425, Note_off_c, 0, 58, 104
1, 68451, Note_on_c, 0, 55, 106
1, 68502, Note_off_c, 0, 55, 106
1, 68513, Note_on_c, 0, 53, 105
1, 68553, Note_off_c, 0, 53, 105
1, 68559, Note_on_c, 0, 60, 113
1, 68617, Note_off_c, 0, 60, 113
1, 68623, Note_on_c, 0, 59, 112
1, 68674, Note_off_c, 0, 59, 112
1, 68680, Note_on_c, 0, 55, 107
1, 68740, Note_off_c, 0, 55, 107
1, 68740, Note_on_c, 0, 53, 107
1, 68807, Note_off_c, 0, 53, 107
1, 68807, Note_on_c, 0, 55, 101
1, 68840, Note_off_c, 0, 55, 101
1, 68869, Note_on_c, 0, 62, 110
1, 68918, Note_off_c, 0, 62, 110
1, 68918, Note_on_c, 0, 65, 110
1, 69007, Note_off_c, 0, 65, 110
1, 69459, Note_on_c, 0, 63, 118
1, 69539, Note_off_c, 0, 63, 118
1, 69547, Note_on_c, 0, 62, 116
1, 69611, Note_off_c, 0, 62, 116
1, 69631, Note_on_c, 0, 61, 109
1, 69870, Note_off_c, 0, 61, 109
1, 69896, Note_on_c, 0, 63, 110
1, 70084, Note_off_c, 0, 63, 110
1, 70084, Note_on_c, 0, 69, 105
1, 70139, Note_off_c, 0, 69, 105
1, 70147, Note_on_c, 0, 66, 109
1, 70189, Note_off_c, 0, 66, 109
1, 70211, Note_on_c, 0, 63, 103
1, 70251, Note_off_c, 0, 63, 103
1, 70275, Note_on_c, 0, 59, 103
1, 70326, Note_off_c, 0, 59, 103
1, 70334, Note_on_c, 0, 63, 106
1, 70381, Note_off_c, 0, 63, 106
1, 70385, Note_on_c, 0, 66, 105
1, 70436, Note_off_c, 0, 66, 105
1, 70449, Note_on_c, 0, 69, 102
1, 70500, Note_off_c, 0, 69, 102
1, 70504, Note_on_c, 0, 71, 96
1, 70548, Note_off_c, 0, 71, 96
1, 70550, Note_on_c, 0, 73, 103
1, 70585, Note_off_c, 0, 73, 103
1, 70596, Note_on_c, 0, 76, 113
1, 70638, Note_off_c, 0, 76, 113
1, 70651, Note_on_c, 0, 80, 94
1, 70704, Note_off_c, 0, 80, 94
1, 71149, Note_on_c, 0, 72, 114
1, 71209, Note_off_c, 0, 72, 114
1, 71215, Note_on_c, 0, 71, 115
1, 71259, Note_off_c, 0, 71, 115
1, 71259, Note_on_c, 0, 68, 109
1, 71308, Note_off_c, 0, 68, 109
1, 71308, Note_on_c, 0, 64, 113
1, 71386, Note_off_c, 0, 64, 113
1, 71386, Note_on_c, 0, 66, 105
1, 71448, Note_off_c, 0, 66, 105
1, 71450, Note_on_c, 0, 68, 105
1, 71499, Note_off_c, 0, 68, 105
1, 71501, Note_on_c, 0, 73, 115
1, 71568, Note_off_c, 0, 73, 115
1, 71579, Note_on_c, 0, 68, 110
1, 71632, Note_off_c, 0, 68, 110
1, 71784, Note_on_c, 0, 72, 107
1, 71839, Note_off_c, 0, 72, 107
1, 71841, Note_on_c, 0, 71, 117
1, 71896, Note_off_c, 0, 71, 117
1, 71898, Note_on_c, 0, 68, 115
1, 71933, Note_off_c, 0, 68, 115
1, 71950, Note_on_c, 0, 66, 113
1, 71997, Note_off_c, 0, 66, 113
1, 72001, Note_on_c, 0, 64, 118
1, 72039, Note_off_c, 0, 64, 118
1, 72054, Note_on_c, 0, 59, 105
1, 72096, Note_off_c, 0, 59, 105
1, 72107, Note_on_c, 0, 64, 118
1, 72156, Note_off_c, 0, 64, 118
1, 72169, Note_on_c, 0, 66, 100
1, 72209, Note_off_c, 0, 66, 100
1, 72220, Note_on_c, 0, 68, 109
1, 72278, Note_off_c, 0, 68, 109
1, 72286, Note_on_c, 0, 69, 118
1, 72348, Note_off_c, 0, 69, 118
1, 72348, Note_on_c, 0, 65, 108
1, 72397, Note_off_c, 0, 65, 108
1, 72408, Note_on_c, 0, 63, 111
1, 72466, Note_off_c, 0, 63, 111
1, 72472, Note_on_c, 0, 62, 105
1, 72539, Note_off_c, 0, 62, 105
1, 72545, Note_on_c, 0, 64, 109
1, 72585, Note_off_c, 0, 64, 109
1, 72598, Note_on_c, 0, 65, 106
1, 72671, Note_off_c, 0, 65, 106
1, 72679, Note_on_c, 0, 66, 114
1, 72752, Note_off_c, 0, 66, 114
1, 72752, Note_on_c, 0, 62, 105
1, 72812, Note_off_c, 0, 62, 105
1, 72812, Note_on_c, 0, 59, 100
1, 72867, Note_off_c, 0, 59, 100
1, 72873, Note_on_c, 0, 60, 108
1, 72922, Note_off_c, 0, 60, 108
1, 72922, Note_on_c, 0, 62, 106
1, 72982, Note_off_c, 0, 62, 106
1, 72993, Note_on_c, 0, 58, 101
1, 73078, Note_off_c, 0, 58, 101
1, 73084, Note_on_c, 0, 56, 106
1, 73146, Note_off_c, 0, 56, 106
1, 73161, Note_on_c, 0, 54, 112
1, 73208, Note_off_c, 0, 54, 112
1, 73214, Note_on_c, 0, 53, 104
1, 73272, Note_off_c, 0, 53, 104
1, 73274, Note_on_c, 0, 55, 120
1, 73298, Note_off_c, 0, 55, 120
1, 73298, Note_on_c, 0, 60, 116
1, 73320, Note_off_c, 0, 60, 116
1, 73320, Note_on_c, 0, 64, 111
1, 73362, Note_off_c, 0, 64, 111
1, 73364, Note_on_c, 0, 66, 118
1, 73402, Note_off_c, 0, 66, 118
1, 73531, Note_on_c, 0, 62, 109
1, 73600, Note_off_c, 0, 62, 109
1, 73600, Note_on_c, 0, 61, 112
1, 73658, Note_off_c, 0, 61, 112
1, 73669, Note_on_c, 0, 64, 117
1, 73733, Note_off_c, 0, 64, 117
1, 73739, Note_on_c, 0, 69, 111
1, 73788, Note_off_c, 0, 69, 111
1, 73788, Note_on_c, 0, 66, 106
1, 73846, Note_off_c, 0, 66, 106
1, 73899, Note_on_c, 0, 61, 111
1, 73957, Note_off_c, 0, 61, 111
1, 73964, Note_on_c, 0, 58, 105
1, 73995, Note_off_c, 0, 58, 105
1, 74002, Note_on_c, 0, 53, 99
1, 74057, Note_off_c, 0, 53, 99
1, 74057, Note_on_c, 0, 60, 112
1, 74108, Note_off_c, 0, 60, 112
1, 74116, Note_on_c, 0, 62, 106
1, 74169, Note_off_c, 0, 62, 106
1, 74195, Note_on_c, 0, 58, 100
1, 74233, Note_off_c, 0, 58, 100
1, 74237, Note_on_c, 0, 55, 100
1, 74297, Note_off_c, 0, 55, 100
1, 74305, Note_on_c, 0, 57, 108
1, 74383, Note_off_c, 0, 57, 108
1, 74391, Note_on_c, 0, 55, 100
1, 74462, Note_off_c, 0, 55, 100
1, 74497, Note_on_c, 0, 62, 109
1, 74539, Note_off_c, 0, 62, 109
1, 74556, Note_on_c, 0, 67, 99
1, 74616, Note_off_c, 0, 67, 99
1, 74859, Note_on_c, 0, 62, 108
1, 74921, Note_off_c, 0, 62, 108
1, 74925, Note_on_c, 0, 61, 102
1, 74983, Note_off_c, 0, 61, 102
1, 74983, Note_on_c, 0, 63, 107
1, 75009, Note_off_c, 0, 63, 107
1, 75031, Note_on_c, 0, 66, 99
1, 75048, Note_off_c, 0, 66, 99
1, 75056, Note_on_c, 0, 69, 99
1, 75080, Note_off_c, 0, 69, 99
1, 75100, Note_on_c, 0, 71, 105
1, 75131, Note_off_c, 0, 71, 105
1, 75131, Note_on_c, 0, 73, 99
1, 75171, Note_off_c, 0, 73, 99
1, 75171, Note_on_c, 0, 76, 118
1, 75188, Note_off_c, 0, 76, 118
1, 75208, Note_on_c, 0, 79, 118
1, 75272, Note_off_c, 0, 79, 118
1, 76024, Note_on_c, 0, 75, 119
1, 76144, Note_off_c, 0, 75, 119
1, 76777, Note_on_c, 0, 73, 118
1, 76848, Note_off_c, 0, 73, 118
1, 76868, Note_on_c, 0, 75, 116
1, 76939, Note_off_c, 0, 75, 116
1, 77599, Note_on_c, 0, 73, 118
1, 77706, Note_off_c, 0, 73, 118
1, 77712, Note_on_c, 0, 71, 101
1, 77770, Note_off_c, 0, 71, 101
1, 77781, Note_on_c, 0, 72, 117
1, 77863, Note_off_c, 0, 72, 117
1, 77916, Note_on_c, 0, 75, 117
1, 77965, Note_off_c, 0, 75, 117
1, 77982, Note_on_c, 0, 70, 113
1, 78082, Note_off_c, 0, 70, 113
1, 78088, Note_on_c, 0, 69, 100
1, 78157, Note_off_c, 0, 69, 100
1, 78157, Note_on_c, 0, 71, 117
1, 78246, Note_off_c, 0, 71, 117
1, 78263, Note_on_c, 0, 74, 121
1, 78348, Note_off_c, 0, 74, 121
1, 78352, Note_on_c, 0, 69, 119
1, 78443, Note_off_c, 0, 69, 119
1, 78445, Note_on_c, 0, 72, 119
1, 78532, Note_off_c, 0, 72, 119
1, 78641, Note_on_c, 0, 72, 120
1, 78710, Note_off_c, 0, 72, 120
1, 78721, Note_on_c, 0, 71, 116
1, 78781, Note_off_c, 0, 71, 116
1, 78781, Note_on_c, 0, 67, 113
1, 78828, Note_off_c, 0, 67, 113
1, 78841, Note_on_c, 0, 63, 113
1, 78896, Note_off_c, 0, 63, 113
1, 78913, Note_on_c, 0, 59, 101
1, 78962, Note_off_c, 0, 59, 101
1, 78979, Note_on_c, 0, 69, 117
1, 79086, Note_off_c, 0, 69, 117
1, 79177, Note_on_c, 0, 66, 113
1, 79257, Note_off_c, 0, 66, 113
1, 79265, Note_on_c, 0, 62, 111
1, 79350, Note_off_c, 0, 62, 111
1, 79352, Note_on_c, 0, 64, 99
1, 79399, Note_off_c, 0, 64, 99
1, 79425, Note_on_c, 0, 66, 108
1, 79474, Note_off_c, 0, 66, 108
1, 79489, Note_on_c, 0, 68, 114
1, 79536, Note_off_c, 0, 68, 114
1, 79578, Note_on_c, 0, 71, 108
1, 79636, Note_off_c, 0, 71, 108
1, 79644, Note_on_c, 0, 74, 121
1, 79713, Note_off_c, 0, 74, 121
1, 79721, Note_on_c, 0, 72, 118
1, 79776, Note_off_c, 0, 72, 118
1, 79787, Note_on_c, 0, 70, 111
1, 79854, Note_off_c, 0, 70, 111
1, 79909, Note_on_c, 0, 68, 114
1, 79960, Note_off_c, 0, 68, 114
1, 79968, Note_on_c, 0, 66, 106
1, 80010, Note_off_c, 0, 66, 106
1, 80012, Note_on_c, 0, 63, 110
1, 80059, Note_off_c, 0, 63, 110
1, 80074, Note_on_c, 0, 62, 111
1, 80109, Note_off_c, 0, 62, 111
1, 80115, Note_on_c, 0, 60, 110
1, 80170, Note_off_c, 0, 60, 110
1, 80170, Note_on_c, 0, 53, 101
1, 80322, Note_off_c, 0, 53, 101
1, 80966, Note_on_c, 0, 72, 121
1, 81077, Note_off_c, 0, 72, 121
1, 81085, Note_on_c, 0, 70, 115
1, 81174, Note_off_c, 0, 70, 115
1, 81189, Note_on_c, 0, 68, 121
1, 81280, Note_off_c, 0, 68, 121
1, 81293, Note_on_c, 0, 63, 103
1, 81362, Note_off_c, 0, 63, 103
1, 81379, Note_on_c, 0, 69, 120
1, 81540, Note_off_c, 0, 69, 120
1, 81551, Note_on_c, 0, 70, 113
1, 81662, Note_off_c, 0, 70, 113
1, 81704, Note_on_c, 0, 67, 115
1, 81793, Note_off_c, 0, 67, 115
1, 81857, Note_on_c, 0, 68, 120
1, 81933, Note_off_c, 0, 68, 120
1, 81939, Note_on_c, 0, 71, 117
1, 82041, Note_off_c, 0, 71, 117
1, 82041, Note_on_c, 0, 73, 116
1, 82137, Note_off_c, 0, 73, 116
1, 82141, Note_on_c, 0, 70, 114
1, 82226, Note_off_c, 0, 70, 114
1, 82230, Note_on_c, 0, 69, 114
1, 82310, Note_off_c, 0, 69, 114
1, 82323, Note_on_c, 0, 68, 115
1, 82410, Note_off_c, 0, 68, 115
1, 82412, Note_on_c, 0, 70, 116
1, 82510, Note_off_c, 0, 70, 116
1, 82518, Note_on_c, 0, 69, 113
1, 82612, Note_off_c, 0, 69, 113
1, 82629, Note_on_c, 0, 66, 116
1, 82702, Note_off_c, 0, 66, 116
1, 82719, Note_on_c, 0, 63, 117
1, 82790, Note_off_c, 0, 63, 117
1, 82792, Note_on_c, 0, 59, 100
1, 82872, Note_off_c, 0, 59, 100
1, 82898, Note_on_c, 0, 66, 117
1, 82971, Note_off_c, 0, 66, 117
1, 82977, Note_on_c, 0, 69, 112
1, 83075, Note_off_c, 0, 69, 112
1, 83077, Note_on_c, 0, 67, 112
1, 83153, Note_off_c, 0, 67, 112
1, 83184, Note_on_c, 0, 62, 114
1, 83280, Note_off_c, 0, 62, 114
1, 83297, Note_on_c, 0, 61, 110
1, 83377, Note_off_c, 0, 61, 110
1, 83381, Note_on_c, 0, 64, 115
1, 83457, Note_off_c, 0, 64, 115
1, 83481, Note_on_c, 0, 65, 113
1, 83545, Note_off_c, 0, 65, 113
1, 83562, Note_on_c, 0, 66, 113
1, 83638, Note_off_c, 0, 66, 113
1, 83651, Note_on_c, 0, 61, 115
1, 83769, Note_off_c, 0, 61, 115
1, 83780, Note_on_c, 0, 56, 110
1, 83835, Note_off_c, 0, 56, 110
1, 83837, Note_on_c, 0, 60, 114
1, 83933, Note_off_c, 0, 60, 114
1, 83946, Note_on_c, 0, 63, 113
1, 84048, Note_off_c, 0, 63, 113
1, 84052, Note_on_c, 0, 58, 107
1, 84114, Note_off_c, 0, 58, 107
1, 84138, Note_on_c, 0, 54, 99
1, 84200, Note_off_c, 0, 54, 99
1, 84222, Note_on_c, 0, 55, 110
1, 84504, Note_off_c, 0, 55, 110
1, 84526, Note_on_c, 0, 54, 107
1, 84620, Note_off_c, 0, 54, 107
1, 84646, Note_on_c, 0, 55, 100
1, 84719, Note_off_c, 0, 55, 100
1, 84730, Note_on_c, 0, 58, 108
1, 84799, Note_off_c, 0, 58, 108
1, 84843, Note_on_c, 0, 62, 96
1, 84887, Note_off_c, 0, 62, 96
1, 84911, Note_on_c, 0, 65, 123
1, 84984, Note_off_c, 0, 65, 123
1, 85006, Note_on_c, 0, 62, 110
1, 85149, Note_off_c, 0, 62, 110
1, 85182, Note_on_c, 0, 63, 118
1, 85307, Note_off_c, 0, 63, 118
1, 85380, Note_on_c, 0, 67, 114
1, 85476, Note_off_c, 0, 67, 114
1, 85487, Note_on_c, 0, 70, 115
1, 85560, Note_off_c, 0, 70, 115
1, 85582, Note_on_c, 0, 71, 116
1, 85662, Note_off_c, 0, 71, 116
1, 85673, Note_on_c, 0, 73, 113
1, 85751, Note_off_c, 0, 73, 113
1, 85768, Note_on_c, 0, 75, 119
1, 85850, Note_off_c, 0, 75, 119
1, 85870, Note_on_c, 0, 76, 115
1, 85948, Note_off_c, 0, 76, 115
1, 85963, Note_on_c, 0, 72, 115
1, 86068, Note_off_c, 0, 72, 115
1, 86068, Note_on_c, 0, 70, 111
1, 86150, Note_off_c, 0, 70, 111
1, 86156, Note_on_c, 0, 67, 111
1, 86238, Note_off_c, 0, 67, 111
1, 86282, Note_on_c, 0, 62, 118
1, 86346, Note_off_c, 0, 62, 118
1, 86359, Note_on_c, 0, 67, 108
1, 86486, Note_off_c, 0, 67, 108
1, 86521, Note_on_c, 0, 64, 104
1, 86599, Note_off_c, 0, 64, 104
1, 86634, Note_on_c, 0, 67, 104
1, 86732, Note_off_c, 0, 67, 104
1, 87911, Note_on_c, 0, 72, 120
1, 88016, Note_off_c, 0, 72, 120
1, 88127, Note_on_c, 0, 70, 95
1, 88189, Note_off_c, 0, 70, 95
1, 88213, Note_on_c, 0, 67, 90
1, 88257, Note_off_c, 0, 67, 90
1, 88265, Note_on_c, 0, 70, 119
1, 88352, Note_off_c, 0, 70, 119
1, 88392, Note_on_c, 0, 65, 104
1, 88432, Note_off_c, 0, 65, 104
1, 88454, Note_on_c, 0, 70, 120
1, 88521, Note_off_c, 0, 70, 120
1, 88547, Note_on_c, 0, 75, 119
1, 88614, Note_off_c, 0, 75, 119
1, 88636, Note_on_c, 0, 74, 122
1, 88707, Note_off_c, 0, 74, 122
1, 88722, Note_on_c, 0, 70, 116
1, 88807, Note_off_c, 0, 70, 116
1, 88822, Note_on_c, 0, 69, 120
1, 88909, Note_off_c, 0, 69, 120
1, 88913, Note_on_c, 0, 66, 114
1, 88998, Note_off_c, 0, 66, 114
1, 89004, Note_on_c, 0, 65, 117
1, 89089, Note_off_c, 0, 65, 117
1, 89102, Note_on_c, 0, 63, 115
1, 89375, Note_off_c, 0, 63, 115
1, 89381, Note_on_c, 0, 62, 111
1, 89616, Note_off_c, 0, 62, 111
1, 89678, Note_on_c, 0, 74, 120
1, 89749, Note_off_c, 0, 74, 120
1, 89755, Note_on_c, 0, 70, 116
1, 89842, Note_off_c, 0, 70, 116
1, 89855, Note_on_c, 0, 70, 110
1, 89937, Note_off_c, 0, 70, 110
1, 89945, Note_on_c, 0, 68, 120
1, 90030, Note_off_c, 0, 68, 120
1, 90041, Note_on_c, 0, 70, 95
1, 90112, Note_off_c, 0, 70, 95
1, 90123, Note_on_c, 0, 71, 114
1, 90201, Note_off_c, 0, 71, 114
1, 90218, Note_on_c, 0, 68, 127
1, 90312, Note_off_c, 0, 68, 127
1, 90327, Note_on_c, 0, 67, 113
1, 90380, Note_off_c, 0, 67, 113
1, 90397, Note_on_c, 0, 65, 116
1, 90441, Note_off_c, 0, 65, 116
1, 90452, Note_on_c, 0, 66, 117
1, 90570, Note_off_c, 0, 66, 117
1, 90612, Note_on_c, 0, 72, 108
1, 90634, Note_off_c, 0, 72, 108
1, 90647, Note_on_c, 0, 73, 108
1, 90705, Note_off_c, 0, 73, 108
1, 90709, Note_on_c, 0, 71, 97
1, 90803, Note_off_c, 0, 71, 97
1, 90820, Note_on_c, 0, 66, 102
1, 90862, Note_off_c, 0, 66, 102
1, 90875, Note_on_c, 0, 69, 121
1, 90962, Note_off_c, 0, 69, 121
1, 90986, Note_on_c, 0, 66, 95
1, 91035, Note_off_c, 0, 66, 95
1, 91057, Note_on_c, 0, 62, 108
1, 91148, Note_off_c, 0, 62, 108
1, 91233, Note_on_c, 0, 64, 118
1, 91335, Note_off_c, 0, 64, 118
1, 91352, Note_on_c, 0, 67, 111
1, 91423, Note_off_c, 0, 67, 111
1, 91425, Note_on_c, 0, 65, 113
1, 91521, Note_off_c, 0, 65, 113
1, 91563, Note_on_c, 0, 61, 114
1, 91632, Note_off_c, 0, 61, 114
1, 91636, Note_on_c, 0, 58, 107
1, 91725, Note_off_c, 0, 58, 107
1, 91731, Note_on_c, 0, 54, 106
1, 91811, Note_off_c, 0, 54, 106
1, 91826, Note_on_c, 0, 60, 112
1, 91913, Note_off_c, 0, 60, 112
1, 91921, Note_on_c, 0, 62, 71
1, 92010, Note_off_c, 0, 62, 71
1, 92014, Note_on_c, 0, 58, 103
1, 92087, Note_off_c, 0, 58, 103
1, 92142, Note_on_c, 0, 53, 100
1, 92211, Note_off_c, 0, 53, 100
1, 92217, Note_on_c, 0, 55, 109
1, 92290, Note_off_c, 0, 55, 109
1, 92303, Note_on_c, 0, 57, 103
1, 92372, Note_off_c, 0, 57, 103
1, 92385, Note_on_c, 0, 59, 104
1, 92465, Note_off_c, 0, 59, 104
1, 92480, Note_on_c, 0, 61, 109
1, 92567, Note_off_c, 0, 61, 109
1, 92567, Note_on_c, 0, 63, 109
1, 92652, Note_off_c, 0, 63, 109
1, 92687, Note_on_c, 0, 70, 118
1, 92758, Note_off_c, 0, 70, 118
1, 92758, Note_on_c, 0, 68, 113
1, 92829, Note_off_c, 0, 68, 113
1, 92846, Note_on_c, 0, 70, 108
1, 92931, Note_off_c, 0, 70, 108
1, 92931, Note_on_c, 0, 71, 109
1, 93016, Note_off_c, 0, 71, 109
1, 93020, Note_on_c, 0, 73, 109
1, 93118, Note_off_c, 0, 73, 109
1, 93122, Note_on_c, 0, 75, 116
1, 93207, Note_off_c, 0, 75, 116
1, 93222, Note_on_c, 0, 75, 118
1, 93320, Note_off_c, 0, 75, 118
1, 93331, Note_on_c, 0, 78, 117
1, 93404, Note_off_c, 0, 78, 117
1, 93412, Note_on_c, 0, 78, 117
1, 93485, Note_off_c, 0, 78, 117
1, 93500, Note_on_c, 0, 75, 117
1, 93551, Note_off_c, 0, 75, 117
1, 93568, Note_on_c, 0, 76, 102
1, 93702, Note_off_c, 0, 76, 102
1, 93769, Note_on_c, 0, 76, 100
1, 93827, Note_off_c, 0, 76, 100
1, 94997, Note_on_c, 0, 72, 125
1, 95082, Note_off_c, 0, 72, 125
1, 95082, Note_on_c, 0, 75, 115
1, 95155, Note_off_c, 0, 75, 115
1, 95172, Note_on_c, 0, 79, 115
1, 95277, Note_off_c, 0, 79, 115
1, 95285, Note_on_c, 0, 77, 121
1, 95419, Note_off_c, 0, 77, 121
1, 95454, Note_on_c, 0, 77, 116
1, 95565, Note_off_c, 0, 77, 116
1, 95582, Note_on_c, 0, 75, 118
1, 95689, Note_off_c, 0, 75, 118
1, 95711, Note_on_c, 0, 74, 120
1, 95829, Note_off_c, 0, 74, 120
1, 95878, Note_on_c, 0, 69, 108
1, 95942, Note_off_c, 0, 69, 108
1, 95948, Note_on_c, 0, 70, 102
1, 96019, Note_off_c, 0, 70, 102
1, 96041, Note_on_c, 0, 74, 107
1, 96117, Note_off_c, 0, 74, 107
1, 96130, Note_on_c, 0, 75, 116
1, 96288, Note_off_c, 0, 75, 116
1, 96299, Note_on_c, 0, 78, 119
1, 96426, Note_off_c, 0, 78, 119
1, 96441, Note_on_c, 0, 80, 105
1, 96519, Note_off_c, 0, 80, 105
1, 96617, Note_on_c, 0, 78, 118
1, 96713, Note_off_c, 0, 78, 118
1, 96724, Note_on_c, 0, 76, 119
1, 96831, Note_off_c, 0, 76, 119
1, 96956, Note_on_c, 0, 80, 113
1, 97090, Note_off_c, 0, 80, 113
1, 97302, Note_on_c, 0, 80, 105
1, 97382, Note_off_c, 0, 80, 105
1, 97382, Note_on_c, 0, 81, 100
1, 97453, Note_off_c, 0, 81, 100
1, 97482, Note_on_c, 0, 80, 92
1, 97596, Note_off_c, 0, 80, 92
1, 97604, Note_on_c, 0, 79, 118
1, 97720, Note_off_c, 0, 79, 118
1, 97767, Note_on_c, 0, 78, 118
1, 97834, Note_off_c, 0, 78, 118
1, 97854, Note_on_c, 0, 75, 114
1, 98144, Note_off_c, 0, 75, 114
1, 98157, Note_on_c, 0, 74, 116
1, 98244, Note_off_c, 0, 74, 116
1, 98351, Note_on_c, 0, 69, 112
1, 98427, Note_off_c, 0, 69, 112
1, 98433, Note_on_c, 0, 66, 111
1, 98522, Note_off_c, 0, 66, 111
1, 98526, Note_on_c, 0, 74, 113
1, 98611, Note_off_c, 0, 74, 113
1, 98617, Note_on_c, 0, 73, 115
1, 98708, Note_off_c, 0, 73, 115
1, 98730, Note_on_c, 0, 75, 113
1, 98808, Note_off_c, 0, 75, 113
1, 98819, Note_on_c, 0, 71, 110
1, 98948, Note_off_c, 0, 71, 110
1, 98956, Note_on_c, 0, 66, 96
1, 99025, Note_off_c, 0, 66, 96
1, 99029, Note_on_c, 0, 68, 117
1, 99123, Note_off_c, 0, 68, 117
1, 99129, Note_on_c, 0, 70, 117
1, 99198, Note_off_c, 0, 70, 117
1, 99209, Note_on_c, 0, 71, 116
1, 99289, Note_off_c, 0, 71, 116
1, 99302, Note_on_c, 0, 73, 122
1, 99407, Note_off_c, 0, 73, 122
1, 99407, Note_on_c, 0, 72, 117
1, 99474, Note_off_c, 0, 72, 117
1, 99478, Note_on_c, 0, 70, 114
1, 99589, Note_off_c, 0, 70, 114
1, 99604, Note_on_c, 0, 67, 115
1, 99686, Note_off_c, 0, 67, 115
1, 99699, Note_on_c, 0, 70, 116
1, 99784, Note_off_c, 0, 70, 116
1, 99784, Note_on_c, 0, 69, 120
1, 99884, Note_off_c, 0, 69, 120
1, 99897, Note_on_c, 0, 65, 114
1, 99959, Note_off_c, 0, 65, 114
1, 99959, Note_on_c, 0, 61, 106
1, 100023, Note_off_c, 0, 61, 106
1, 100023, Note_on_c, 0, 62, 110
1, 100072, Note_off_c, 0, 62, 110
1, 100101, Note_on_c, 0, 60, 102
1, 100177, Note_off_c, 0, 60, 102
1, 100177, Note_on_c, 0, 67, 114
1, 100255, Note_off_c, 0, 67, 114
1, 100270, Note_on_c, 0, 70, 113
1, 100357, Note_off_c, 0, 70, 113
1, 100363, Note_on_c, 0, 69, 110
1, 100470, Note_off_c, 0, 69, 110
1, 100474, Note_on_c, 0, 66, 105
1, 100554, Note_off_c, 0, 66, 105
1, 100554, Note_on_c, 0, 63, 105
1, 100648, Note_off_c, 0, 63, 105
1, 100686, Note_on_c, 0, 59, 100
1, 100737, Note_off_c, 0, 59, 100
1, 100737, Note_on_c, 0, 68, 118
1, 100904, Note_off_c, 0, 68, 118
1, 100921, Note_on_c, 0, 62, 110
1, 101026, Note_off_c, 0, 62, 110
1, 101055, Note_on_c, 0, 58, 105
1, 101182, Note_off_c, 0, 58, 105
1, 101199, Note_on_c, 0, 60, 101
1, 101246, Note_off_c, 0, 60, 101
1, 101250, Note_on_c, 0, 61, 101
1, 101299, Note_off_c, 0, 61, 101
1, 101310, Note_on_c, 0, 63, 108
1, 101377, Note_off_c, 0, 63, 108
1, 101403, Note_on_c, 0, 58, 95
1, 101454, Note_off_c, 0, 58, 95
1, 101904, Note_on_c, 0, 58, 108
1, 101982, Note_off_c, 0, 58, 108
1, 102010, Note_on_c, 0, 55, 107
1, 102065, Note_off_c, 0, 55, 107
1, 102081, Note_on_c, 0, 53, 112
1, 102145, Note_off_c, 0, 53, 112
1, 102196, Note_on_c, 0, 58, 109
1, 102287, Note_off_c, 0, 58, 109
1, 102292, Note_on_c, 0, 57, 112
1, 102350, Note_off_c, 0, 57, 112
1, 102386, Note_on_c, 0, 54, 103
1, 102444, Note_off_c, 0, 54, 103
1, 102458, Note_on_c, 0, 58, 111
1, 102530, Note_off_c, 0, 58, 111
1, 102530, Note_on_c, 0, 63, 112
1, 102630, Note_off_c, 0, 63, 112
1, 102638, Note_on_c, 0, 56, 105
1, 102758, Note_off_c, 0, 56, 105
1, 102852, Note_on_c, 0, 61, 111
1, 102948, Note_off_c, 0, 61, 111
1, 102950, Note_on_c, 0, 58, 109
1, 103012, Note_off_c, 0, 58, 109
1, 103025, Note_on_c, 0, 55, 103
1, 103094, Note_off_c, 0, 55, 103
1, 103109, Note_on_c, 0, 56, 109
1, 103196, Note_off_c, 0, 56, 109
1, 103294, Note_on_c, 0, 58, 110
1, 103372, Note_off_c, 0, 58, 110
1, 103378, Note_on_c, 0, 59, 106
1, 103472, Note_off_c, 0, 59, 106
1, 103483, Note_on_c, 0, 61, 112
1, 103568, Note_off_c, 0, 61, 112
1, 103588, Note_on_c, 0, 63, 109
1, 103677, Note_off_c, 0, 63, 109
1, 103683, Note_on_c, 0, 66, 110
1, 103752, Note_off_c, 0, 66, 110
1, 103760, Note_on_c, 0, 68, 119
1, 103842, Note_off_c, 0, 68, 119
1, 103855, Note_on_c, 0, 70, 118
1, 103922, Note_off_c, 0, 70, 118
1, 103955, Note_on_c, 0, 71, 116
1, 104033, Note_off_c, 0, 71, 116
1, 104048, Note_on_c, 0, 73, 122
1, 104148, Note_off_c, 0, 73, 122
1, 104159, Note_on_c, 0, 72, 117
1, 104239, Note_off_c, 0, 72, 117
1, 104250, Note_on_c, 0, 67, 109
1, 104314, Note_off_c, 0, 67, 109
1, 104325, Note_on_c, 0, 64, 109
1, 104403, Note_off_c, 0, 64, 109
1, 104405, Note_on_c, 0, 62, 107
1, 104469, Note_off_c, 0, 62, 107
1, 104498, Note_on_c, 0, 65, 113
1, 104630, Note_off_c, 0, 65, 113
1, 105301, Note_on_c, 0, 75, 117
1, 105395, Note_off_c, 0, 75, 117
1, 105401, Note_on_c, 0, 78, 104
1, 105495, Note_off_c, 0, 78, 104
1, 105508, Note_on_c, 0, 73, 120
1, 105588, Note_off_c, 0, 73, 120
1, 105610, Note_on_c, 0, 71, 116
1, 105710, Note_off_c, 0, 71, 116
1, 105777, Note_on_c, 0, 66, 114
1, 105873, Note_on_c, 0, 64, 112
1, 105873, Note_off_c, 0, 66, 114
1, 105982, Note_off_c, 0, 64, 112
1, 105993, Note_on_c, 0, 62, 106
1, 106062, Note_off_c, 0, 62, 106
1, 106077, Note_on_c, 0, 70, 115
1, 106150, Note_off_c, 0, 70, 115
1, 106150, Note_on_c, 0, 74, 112
1, 106246, Note_on_c, 0, 75, 114
1, 106246, Note_off_c, 0, 74, 112
1, 106328, Note_off_c, 0, 75, 114
1, 106334, Note_on_c, 0, 76, 119
1, 106412, Note_off_c, 0, 76, 119
1, 106414, Note_on_c, 0, 77, 117
1, 106626, Note_off_c, 0, 77, 117
1, 106639, Note_on_c, 0, 74, 113
1, 106748, Note_off_c, 0, 74, 113
1, 106759, Note_on_c, 0, 72, 111
1, 106870, Note_off_c, 0, 72, 111
1, 106934, Note_on_c, 0, 69, 111
1, 107030, Note_off_c, 0, 69, 111
1, 107034, Note_on_c, 0, 64, 110
1, 107141, Note_off_c, 0, 64, 110
1, 107190, Note_on_c, 0, 68, 112
1, 107310, Note_off_c, 0, 68, 112
1, 107451, Note_on_c, 0, 76, 118
1, 107632, Note_off_c, 0, 76, 118
1, 107661, Note_on_c, 0, 74, 116
1, 107797, Note_off_c, 0, 74, 116
1, 107801, Note_on_c, 0, 76, 119
1, 107942, Note_off_c, 0, 76, 119
1, 107944, Note_on_c, 0, 71, 112
1, 108055, Note_off_c, 0, 71, 112
1, 108104, Note_on_c, 0, 68, 116
1, 108171, Note_off_c, 0, 68, 116
1, 108175, Note_on_c, 0, 64, 112
1, 108298, Note_off_c, 0, 64, 112
1, 108298, Note_on_c, 0, 69, 99
1, 108374, Note_off_c, 0, 69, 99
1, 108382, Note_on_c, 0, 70, 112
1, 108464, Note_off_c, 0, 70, 112
1, 108470, Note_on_c, 0, 73, 112
1, 108537, Note_off_c, 0, 73, 112
1, 108539, Note_on_c, 0, 75, 115
1, 108659, Note_off_c, 0, 75, 115
1, 108665, Note_on_c, 0, 72, 113
1, 108747, Note_off_c, 0, 72, 113
1, 108747, Note_on_c, 0, 71, 110
1, 108836, Note_off_c, 0, 71, 110
1, 108858, Note_on_c, 0, 68, 110
1, 108969, Note_off_c, 0, 68, 110
1, 109051, Note_on_c, 0, 62, 106
1, 109120, Note_off_c, 0, 62, 106
1, 109124, Note_on_c, 0, 66, 108
1, 109251, Note_off_c, 0, 66, 108
1, 109322, Note_on_c, 0, 68, 115
1, 109424, Note_off_c, 0, 68, 115
1, 109428, Note_on_c, 0, 67, 110
1, 109504, Note_off_c, 0, 67, 110
1, 109591, Note_on_c, 0, 64, 112
1, 109662, Note_off_c, 0, 64, 112
1, 109662, Note_on_c, 0, 70, 105
1, 109704, Note_off_c, 0, 70, 105
1, 109710, Note_on_c, 0, 69, 114
1, 109774, Note_off_c, 0, 69, 114
1, 109977, Note_on_c, 0, 70, 114
1, 110055, Note_off_c, 0, 70, 114
1, 110066, Note_on_c, 0, 64, 104
1, 110249, Note_off_c, 0, 64, 104
1, 110264, Note_on_c, 0, 72, 111
1, 110407, Note_off_c, 0, 72, 111
1, 110456, Note_on_c, 0, 75, 117
1, 110581, Note_off_c, 0, 75, 117
1, 110668, Note_on_c, 0, 71, 113
1, 110755, Note_off_c, 0, 71, 113
1, 110763, Note_on_c, 0, 68, 112
1, 110848, Note_off_c, 0, 68, 112
1, 110863, Note_on_c, 0, 64, 111
1, 110952, Note_off_c, 0, 64, 111
1, 110965, Note_on_c, 0, 66, 107
1, 111038, Note_off_c, 0, 66, 107
1, 111042, Note_on_c, 0, 68, 109
1, 111131, Note_off_c, 0, 68, 109
1, 111146, Note_on_c, 0, 61, 106
1, 111255, Note_off_c, 0, 61, 106
1, 111512, Note_on_c, 0, 62, 101
1, 111579, Note_off_c, 0, 62, 101
1, 111587, Note_on_c, 0, 64, 112
1, 111710, Note_off_c, 0, 64, 112
1, 111712, Note_on_c, 0, 69, 111
1, 111776, Note_off_c, 0, 69, 111
1, 111802, Note_on_c, 0, 62, 106
1, 111887, Note_off_c, 0, 62, 106
1, 111900, Note_on_c, 0, 61, 106
1, 111962, Note_off_c, 0, 61, 106
1, 111962, Note_on_c, 0, 63, 111
1, 112056, Note_off_c, 0, 63, 111
1, 112058, Note_on_c, 0, 66, 107
1, 112147, Note_off_c, 0, 66, 107
1, 112155, Note_on_c, 0, 68, 111
1, 112246, Note_off_c, 0, 68, 111
1, 112257, Note_on_c, 0, 70, 112
1, 112337, Note_off_c, 0, 70, 112
1, 112348, Note_on_c, 0, 71, 107
1, 112439, Note_off_c, 0, 71, 107
1, 112441, Note_on_c, 0, 73, 112
1, 112505, Note_off_c, 0, 73, 112
1, 112518, Note_on_c, 0, 75, 112
1, 112625, Note_off_c, 0, 75, 112
1, 112656, Note_on_c, 0, 77, 118
1, 112709, Note_off_c, 0, 77, 118
1, 112726, Note_on_c, 0, 73, 106
1, 112855, Note_off_c, 0, 73, 106
1, 112855, Note_on_c, 0, 72, 110
1, 112922, Note_off_c, 0, 72, 110
1, 113492, Note_on_c, 0, 70, 117
1, 113586, Note_off_c, 0, 70, 117
1, 113601, Note_on_c, 0, 66, 117
1, 113674, Note_off_c, 0, 66, 117
1, 113691, Note_on_c, 0, 63, 114
1, 113780, Note_off_c, 0, 63, 114
1, 113793, Note_on_c, 0, 58, 112
1, 113878, Note_off_c, 0, 58, 112
1, 113891, Note_on_c, 0, 57, 108
1, 113989, Note_off_c, 0, 57, 108
1, 113989, Note_on_c, 0, 53, 104
1, 114047, Note_off_c, 0, 53, 104
1, 114047, Note_on_c, 0, 55, 106
1, 114134, Note_off_c, 0, 55, 106
1, 114160, Note_on_c, 0, 55, 100
1, 114309, Note_off_c, 0, 55, 100
1, 114371, Note_on_c, 0, 62, 111
1, 114467, Note_off_c, 0, 62, 111
1, 114475, Note_on_c, 0, 56, 106
1, 114562, Note_off_c, 0, 56, 106
1, 114593, Note_on_c, 0, 62, 111
1, 114662, Note_off_c, 0, 62, 111
1, 114673, Note_on_c, 0, 58, 103
1, 114749, Note_off_c, 0, 58, 103
1, 114753, Note_on_c, 0, 57, 106
1, 114838, Note_off_c, 0, 57, 106
1, 114846, Note_on_c, 0, 56, 106
1, 114922, Note_off_c, 0, 56, 106
1, 114930, Note_on_c, 0, 57, 102
1, 115052, Note_off_c, 0, 57, 102
1, 115052, Note_on_c, 0, 62, 103
1, 115119, Note_off_c, 0, 62, 103
1, 115127, Note_on_c, 0, 67, 115
1, 115187, Note_off_c, 0, 67, 115
1, 115211, Note_on_c, 0, 62, 105
1, 115365, Note_off_c, 0, 62, 105
1, 115414, Note_on_c, 0, 59, 103
1, 115510, Note_off_c, 0, 59, 103
1, 115527, Note_on_c, 0, 63, 109
1, 115612, Note_off_c, 0, 63, 109
1, 115719, Note_on_c, 0, 65, 111
1, 115801, Note_off_c, 0, 65, 111
1, 115809, Note_on_c, 0, 70, 114
1, 116019, Note_off_c, 0, 70, 114
1, 116023, Note_on_c, 0, 67, 113
1, 116117, Note_off_c, 0, 67, 113
1, 116119, Note_on_c, 0, 70, 114
1, 116199, Note_off_c, 0, 70, 114
1, 116313, Note_on_c, 0, 71, 114
1, 116384, Note_off_c, 0, 71, 114
1, 116384, Note_on_c, 0, 74, 112
1, 116437, Note_off_c, 0, 74, 112
1, 116437, Note_on_c, 0, 76, 113
1, 116479, Note_off_c, 0, 76, 113
1, 116487, Note_on_c, 0, 75, 114
1, 116560, Note_off_c, 0, 75, 114
1, 116586, Note_on_c, 0, 76, 118
1, 116666, Note_off_c, 0, 76, 118
1, 116677, Note_on_c, 0, 77, 112
1, 116771, Note_off_c, 0, 77, 112
1, 116784, Note_on_c, 0, 72, 115
1, 116873, Note_off_c, 0, 72, 115
1, 116879, Note_on_c, 0, 71, 112
1, 116941, Note_off_c, 0, 71, 112
1, 116945, Note_on_c, 0, 70, 112
1, 117043, Note_off_c, 0, 70, 112
1, 117072, Note_on_c, 0, 65, 108
1, 117148, Note_off_c, 0, 65, 108
1, 117159, Note_on_c, 0, 63, 109
1, 117250, Note_off_c, 0, 63, 109
1, 117250, Note_on_c, 0, 60, 96
1, 117319, Note_off_c, 0, 60, 96
1, 117325, Note_on_c, 0, 67, 109
1, 117436, Note_off_c, 0, 67, 109
1, 117442, Note_on_c, 0, 65, 111
1, 117531, Note_off_c, 0, 65, 111
1, 117539, Note_on_c, 0, 62, 113
1, 117639, Note_off_c, 0, 62, 113
1, 117665, Note_on_c, 0, 57, 108
1, 117723, Note_off_c, 0, 57, 108
1, 117729, Note_on_c, 0, 60, 106
1, 117796, Note_off_c, 0, 60, 106
1, 117818, Note_on_c, 0, 63, 111
1, 117887, Note_off_c, 0, 63, 111
1, 117904, Note_on_c, 0, 58, 102
1, 117982, Note_off_c, 0, 58, 102
1, 118008, Note_on_c, 0, 53, 97
1, 118088, Note_off_c, 0, 53, 97
1, 118090, Note_on_c, 0, 57, 104
1, 118175, Note_off_c, 0, 57, 104
1, 118195, Note_on_c, 0, 55, 97
1, 118275, Note_off_c, 0, 55, 97
1, 118299, Note_on_c, 0, 65, 104
1, 118466, Note_off_c, 0, 65, 104
1, 118472, Note_on_c, 0, 62, 97
1, 118579, Note_off_c, 0, 62, 97
1, 118601, Note_on_c, 0, 64, 101
1, 118639, Note_off_c, 0, 64, 101
1, 118659, Note_on_c, 0, 66, 98
1, 118714, Note_off_c, 0, 66, 98
1, 119074, Note_on_c, 0, 65, 117
1, 119163, Note_off_c, 0, 65, 117
1, 119163, Note_on_c, 0, 64, 117
1, 119236, Note_off_c, 0, 64, 117
1, 119242, Note_on_c, 0, 63, 110
1, 119304, Note_off_c, 0, 63, 110
1, 119308, Note_on_c, 0, 61, 108
1, 119346, Note_off_c, 0, 61, 108
1, 119357, Note_on_c, 0, 60, 107
1, 119397, Note_off_c, 0, 60, 107
1, 119401, Note_on_c, 0, 58, 101
1, 119454, Note_off_c, 0, 58, 101
1, 119469, Note_on_c, 0, 55, 100
1, 119518, Note_off_c, 0, 55, 100
1, 119525, Note_on_c, 0, 56, 102
1, 119558, Note_off_c, 0, 56, 102
1, 119573, Note_on_c, 0, 58, 103
1, 119606, Note_off_c, 0, 58, 103
1, 119623, Note_on_c, 0, 62, 103
1, 119672, Note_off_c, 0, 62, 103
1, 119701, Note_on_c, 0, 65, 110
1, 119743, Note_off_c, 0, 65, 110
1, 119794, Note_on_c, 0, 61, 103
1, 119888, Note_off_c, 0, 61, 103
1, 119905, Note_on_c, 0, 63, 88
1, 119927, Note_off_c, 0, 63, 88
1, 119949, Note_on_c, 0, 65, 110
1, 119987, Note_off_c, 0, 65, 110
1, 119987, Note_on_c, 0, 68, 97
1, 120018, Note_off_c, 0, 68, 97
1, 120018, Note_on_c, 0, 71, 97
1, 120047, Note_off_c, 0, 71, 97
1, 120064, Note_on_c, 0, 73, 99
1, 120093, Note_off_c, 0, 73, 99
1, 120115, Note_on_c, 0, 77, 116
1, 120188, Note_off_c, 0, 77, 116
1, 120192, Note_on_c, 0, 75, 109
1, 120590, Note_off_c, 0, 75, 109
1, 120601, Note_on_c, 0, 73, 112
1, 120668, Note_off_c, 0, 73, 112
1, 120679, Note_on_c, 0, 71, 112
1, 120719, Note_off_c, 0, 71, 112
1, 120736, Note_on_c, 0, 68, 116
1, 120776, Note_off_c, 0, 68, 116
1, 120782, Note_on_c, 0, 64, 109
1, 120981, Note_off_c, 0, 64, 109
1, 121025, Note_on_c, 0, 68, 112
1, 121076, Note_off_c, 0, 68, 112
1, 121084, Note_on_c, 0, 66, 110
1, 121133, Note_off_c, 0, 66, 110
1, 121144, Note_on_c, 0, 63, 103
1, 121191, Note_off_c, 0, 63, 103
1, 121200, Note_on_c, 0, 62, 108
1, 121237, Note_off_c, 0, 62, 108
1, 121240, Note_on_c, 0, 61, 106
1, 121339, Note_off_c, 0, 61, 106
1, 121359, Note_on_c, 0, 64, 109
1, 121388, Note_off_c, 0, 64, 109
1, 121396, Note_on_c, 0, 66, 96
1, 121427, Note_off_c, 0, 66, 96
1, 121435, Note_on_c, 0, 69, 97
1, 121466, Note_off_c, 0, 69, 97
1, 121474, Note_on_c, 0, 71, 92
1, 121496, Note_off_c, 0, 71, 92
1, 121502, Note_on_c, 0, 73, 98
1, 121540, Note_on_c, 0, 75, 109
1, 121540, Note_off_c, 0, 73, 98
1, 121654, Note_off_c, 0, 75, 109
1, 121752, Note_on_c, 0, 72, 115
1, 121787, Note_off_c, 0, 72, 115
1, 121809, Note_on_c, 0, 72, 93
1, 121871, Note_off_c, 0, 72, 93
1, 122067, Note_on_c, 0, 70, 111
1, 122147, Note_off_c, 0, 70, 111
1, 122160, Note_on_c, 0, 67, 107
1, 122222, Note_off_c, 0, 67, 107
1, 122228, Note_on_c, 0, 61, 107
1, 122299, Note_off_c, 0, 61, 107
1, 122551, Note_on_c, 0, 69, 115
1, 122622, Note_on_c, 0, 66, 106
1, 122622, Note_off_c, 0, 69, 115
1, 122673, Note_off_c, 0, 66, 106
1, 122675, Note_on_c, 0, 61, 108
1, 122728, Note_off_c, 0, 61, 108
1, 122739, Note_on_c, 0, 59, 101
1, 122781, Note_off_c, 0, 59, 101
1, 122785, Note_on_c, 0, 64, 113
1, 122892, Note_off_c, 0, 64, 113
1, 122932, Note_on_c, 0, 66, 111
1, 123008, Note_off_c, 0, 66, 111
1, 123043, Note_on_c, 0, 63, 89
1, 123087, Note_off_c, 0, 63, 89
1, 123100, Note_on_c, 0, 65, 111
1, 123160, Note_off_c, 0, 65, 111
1, 123180, Note_on_c, 0, 66, 110
1, 123222, Note_off_c, 0, 66, 110
1, 123230, Note_on_c, 0, 62, 103
1, 123281, Note_off_c, 0, 62, 103
1, 123285, Note_on_c, 0, 59, 96
1, 123347, Note_off_c, 0, 59, 96
1, 123418, Note_on_c, 0, 60, 104
1, 123453, Note_off_c, 0, 60, 104
1, 123470, Note_on_c, 0, 62, 107
1, 123534, Note_off_c, 0, 62, 107
1, 123534, Note_on_c, 0, 58, 104
1, 123585, Note_off_c, 0, 58, 104
1, 123587, Note_on_c, 0, 54, 104
1, 123647, Note_off_c, 0, 54, 104
1, 123662, Note_on_c, 0, 55, 105
1, 123733, Note_off_c, 0, 55, 105
1, 124095, Note_on_c, 0, 55, 105
1, 124390, Note_off_c, 0, 55, 105
1, 124416, Note_on_c, 0, 58, 98
1, 124496, Note_off_c, 0, 58, 98
1, 124498, Note_on_c, 0, 61, 99
1, 124571, Note_off_c, 0, 61, 99
1, 124595, Note_on_c, 0, 63, 110
1, 124673, Note_off_c, 0, 63, 110
1, 124697, Note_on_c, 0, 66, 112
1, 124788, Note_off_c, 0, 66, 112
1, 124805, Note_on_c, 0, 62, 107
1, 124881, Note_off_c, 0, 62, 107
1, 124894, Note_on_c, 0, 61, 106
1, 124979, Note_off_c, 0, 61, 106
1, 124979, Note_on_c, 0, 63, 114
1, 125039, Note_off_c, 0, 63, 114
1, 125056, Note_on_c, 0, 66, 113
1, 125127, Note_off_c, 0, 66, 113
1, 125138, Note_on_c, 0, 68, 104
1, 125216, Note_off_c, 0, 68, 104
1, 125216, Note_on_c, 0, 71, 109
1, 125303, Note_off_c, 0, 71, 109
1, 125318, Note_on_c, 0, 73, 103
1, 125407, Note_off_c, 0, 73, 103
1, 125424, Note_on_c, 0, 75, 110
1, 125504, Note_off_c, 0, 75, 110
1, 125517, Note_on_c, 0, 76, 107
1, 125611, Note_off_c, 0, 76, 107
1, 125682, Note_on_c, 0, 80, 116
1, 125726, Note_off_c, 0, 80, 116
1, 125730, Note_on_c, 0, 81, 107
1, 125783, Note_off_c, 0, 81, 107
1, 125796, Note_on_c, 0, 79, 104
1, 125890, Note_off_c, 0, 79, 104
1, 125893, Note_on_c, 0, 78, 110
1, 125914, Note_off_c, 0, 78, 110
1, 125915, Note_on_c, 0, 77, 116
1, 125930, Note_off_c, 0, 77, 116
1, 125931, Note_on_c, 0, 77, 113
1, 126011, Note_off_c, 0, 77, 113
1, 126011, Note_on_c, 0, 75, 114
1, 126105, Note_off_c, 0, 75, 114
1, 126152, Note_on_c, 0, 74, 105
1, 126322, Note_off_c, 0, 74, 105
1, 126364, Note_on_c, 0, 68, 105
1, 126428, Note_off_c, 0, 68, 105
1, 126434, Note_on_c, 0, 70, 108
1, 126489, Note_off_c, 0, 70, 108
1, 126509, Note_on_c, 0, 74, 118
1, 126594, Note_off_c, 0, 74, 118
1, 126609, Note_on_c, 0, 72, 111
1, 126685, Note_off_c, 0, 72, 111
1, 126696, Note_on_c, 0, 71, 112
1, 126772, Note_off_c, 0, 71, 112
1, 126780, Note_on_c, 0, 70, 111
1, 126876, Note_off_c, 0, 70, 111
1, 126891, Note_on_c, 0, 69, 110
1, 126985, Note_off_c, 0, 69, 110
1, 126987, Note_on_c, 0, 68, 112
1, 127056, Note_off_c, 0, 68, 112
1, 127056, Note_on_c, 0, 70, 109
1, 127165, Note_off_c, 0, 70, 109
1, 127176, Note_on_c, 0, 69, 115
1, 127292, Note_off_c, 0, 69, 115
1, 127547, Note_on_c, 0, 64, 113
1, 127665, Note_off_c, 0, 64, 113
1, 127671, Note_on_c, 0, 60, 107
1, 127729, Note_off_c, 0, 60, 107
1, 127744, Note_on_c, 0, 62, 111
1, 127799, Note_off_c, 0, 62, 111
1, 127805, Note_on_c, 0, 64, 106
1, 127881, Note_off_c, 0, 64, 106
1, 127898, Note_on_c, 0, 67, 109
1, 127978, Note_off_c, 0, 67, 109
1, 128004, Note_on_c, 0, 69, 94
1, 128062, Note_off_c, 0, 69, 94
1, 128106, Note_on_c, 0, 71, 116
1, 128211, Note_off_c, 0, 71, 116
1, 128211, Note_on_c, 0, 75, 112
1, 128309, Note_off_c, 0, 75, 112
1, 129087, Note_on_c, 0, 70, 121
1, 129172, Note_off_c, 0, 70, 121
1, 129174, Note_on_c, 0, 69, 122
1, 129245, Note_off_c, 0, 69, 122
1, 129262, Note_on_c, 0, 68, 109
1, 129344, Note_off_c, 0, 68, 109
1, 129668, Note_on_c, 0, 65, 118
1, 129755, Note_off_c, 0, 65, 118
1, 129759, Note_on_c, 0, 66, 116
1, 129823, Note_off_c, 0, 66, 116
1, 129829, Note_on_c, 0, 61, 110
1, 129882, Note_off_c, 0, 61, 110
1, 129884, Note_on_c, 0, 62, 105
1, 129942, Note_off_c, 0, 62, 105
1, 129954, Note_on_c, 0, 59, 101
1, 129985, Note_off_c, 0, 59, 101
1, 129992, Note_on_c, 0, 67, 115
1, 130094, Note_off_c, 0, 67, 115
1, 130100, Note_on_c, 0, 66, 114
1, 130182, Note_off_c, 0, 66, 114
1, 130184, Note_on_c, 0, 64, 116
1, 130273, Note_off_c, 0, 64, 116
1, 130293, Note_on_c, 0, 65, 111
1, 130378, Note_off_c, 0, 65, 111
1, 130389, Note_on_c, 0, 66, 117
1, 130469, Note_off_c, 0, 66, 117
1, 130473, Note_on_c, 0, 63, 112
1, 130560, Note_off_c, 0, 63, 112
1, 130566, Note_on_c, 0, 62, 108
1, 130626, Note_off_c, 0, 62, 108
1, 130677, Note_on_c, 0, 66, 109
1, 130753, Note_off_c, 0, 66, 109
1, 130761, Note_on_c, 0, 69, 116
1, 130837, Note_off_c, 0, 69, 116
1, 130890, Note_on_c, 0, 61, 104
1, 130966, Note_off_c, 0, 61, 104
1, 130977, Note_on_c, 0, 59, 100
1, 131067, Note_off_c, 0, 59, 100
1, 131077, Note_on_c, 0, 60, 107
1, 131139, Note_off_c, 0, 60, 107
1, 131156, Note_on_c, 0, 63, 114
1, 131241, Note_off_c, 0, 63, 114
1, 131241, Note_on_c, 0, 58, 108
1, 131303, Note_off_c, 0, 58, 108
1, 131314, Note_on_c, 0, 53, 101
1, 131383, Note_off_c, 0, 53, 101
1, 131403, Note_on_c, 0, 58, 99
1, 131485, Note_off_c, 0, 58, 99
1, 131487, Note_on_c, 0, 57, 103
1, 131569, Note_off_c, 0, 57, 103
1, 131589, Note_on_c, 0, 58, 97
1, 131662, Note_off_c, 0, 58, 97
1, 131717, Note_on_c, 0, 60, 96
1, 131788, Note_off_c, 0, 60, 96
1, 131794, Note_on_c, 0, 65, 110
1, 131876, Note_off_c, 0, 65, 110
1, 131896, Note_on_c, 0, 63, 107
1, 131974, Note_off_c, 0, 63, 107
1, 131974, Note_on_c, 0, 67, 104
1, 132050, Note_off_c, 0, 67, 104
1, 132276, Note_on_c, 0, 70, 102
1, 132486, Note_off_c, 0, 70, 102
1, 132486, Note_on_c, 0, 65, 105
1, 132582, Note_off_c, 0, 65, 105
1, 132586, Note_on_c, 0, 63, 101
1, 132671, Note_off_c, 0, 63, 101
1, 132671, Note_on_c, 0, 60, 98
1, 132782, Note_off_c, 0, 60, 98
1, 132824, Note_on_c, 0, 67, 103
1, 132924, Note_off_c, 0, 67, 103
1, 132930, Note_on_c, 0, 65, 101
1, 133006, Note_off_c, 0, 65, 101
1, 133200, Note_on_c, 0, 60, 98
1, 133298, Note_off_c, 0, 60, 98
1, 133298, Note_on_c, 0, 63, 94
1, 133400, Note_off_c, 0, 63, 94
1, 133408, Note_on_c, 0, 58, 96
1, 133486, Note_off_c, 0, 58, 96
1, 133494, Note_on_c, 0, 55, 90
1, 133585, Note_off_c, 0, 55, 90
1, 133591, Note_on_c, 0, 57, 96
1, 133678, Note_off_c, 0, 57, 96
1, 133709, Note_on_c, 0, 65, 95
1, 133776, Note_off_c, 0, 65, 95
1, 133892, Note_on_c, 0, 63, 89
1, 134028, Note_off_c, 0, 63, 89
1, 134028, End_track
0, 0, End_of_file
