0, 0, Header, 1, 1, 192
1, 0, Start_track
1, 0, Title_t, "Melody"
1, 0, Tempo, 361445
1, 0, Key_signature, 1, "major"
1, 0, Time_signature, 4, 2, 24, 8
1, 668, Note_on_c, 0, 63, 118
1, 747, Note_off_c, 0, 63, 118
1, 758, Note_on_c, 0, 64, 116
1, 904, Note_off_c, 0, 64, 116
1, 929, Note_on_c, 0, 74, 116
1, 1017, Note_off_c, 0, 74, 116
1, 1310, Note_on_c, 0, 65, 115
1, 1573, Note_off_c, 0, 65, 115
1, 1611, Note_on_c, 0, 63, 118
1, 1664, Note_off_c, 0, 63, 118
1, 1677, Note_on_c, 0, 62, 103
1, 1835, Note_off_c, 0, 62, 103
1, 1854, Note_on_c, 0, 64, 107
1, 1874, Note_off_c, 0, 64, 107
1, 1883, Note_on_c, 0, 66, 118
1, 1992, Note_off_c, 0, 66, 118
1, 2007, Note_on_c, 0, 69, 116
1, 2182, Note_off_c, 0, 69, 116
1, 2194, Note_on_c, 0, 66, 117
1, 2342, Note_off_c, 0, 66, 117
1, 2362, Note_on_c, 0, 65, 112
1, 2520, Note_off_c, 0, 65, 112
1, 2526, Note_on_c, 0, 64, 117
1, 2683, Note_off_c, 0, 64, 117
1, 2696, Note_on_c, 0, 65, 116
1, 2865, Note_off_c, 0, 65, 116
1, 2885, Note_on_c, 0, 64, 117
1, 3116, Note_off_c, 0, 64, 117
1, 3134, Note_on_c, 0, 60, 108
1, 3508, Note_off_c, 0, 60, 108
1, 3562, Note_on_c, 0, 69, 108
1, 3677, Note_off_c, 0, 69, 108
1, 3685, Note_on_c, 0, 72, 119
1, 3765, Note_off_c, 0, 72, 119
1, 3946, Note_on_c, 0, 65, 110
1, 4263, Note_off_c, 0, 65, 110
1, 4328, Note_on_c, 0, 62, 114
1, 4435, Note_off_c, 0, 62, 114
1, 4457, Note_on_c, 0, 57, 101
1, 4642, Note_off_c, 0, 57, 101
1, 4686, Note_on_c, 0, 60, 110
1, 4813, Note_off_c, 0, 60, 110
1, 4833, Note_on_c, 0, 60, 97
1, 4912, Note_off_c, 0, 60, 97
1, 5562, Note_on_c, 0, 60, 114
1, 5620, Note_off_c, 0, 60, 114
1, 5657, Note_on_c, 0, 69, 109
1, 5749, Note_off_c, 0, 69, 109
1, 5759, Note_on_c, 0, 72, 119
1, 5842, Note_off_c, 0, 72, 119
1, 5871, Note_on_c, 0, 74, 117
1, 5975, Note_off_c, 0, 74, 117
1, 5984, Note_on_c, 0, 70, 108
1, 6048, Note_off_c, 0, 70, 108
1, 6071, Note_on_c, 0, 66, 112
1, 6186, Note_off_c, 0, 66, 112
1, 6392, Note_on_c, 0, 71, 113
1, 6510, Note_off_c, 0, 71, 113
1, 6525, Note_on_c, 0, 66, 114
1, 6595, Note_off_c, 0, 66, 114
1, 6628, Note_on_c, 0, 62, 112
1, 6734, Note_off_c, 0, 62, 112
1, 6811, Note_on_c, 0, 70, 112
1, 6897, Note_off_c, 0, 70, 112
1, 6920, Note_on_c, 0, 66, 116
1, 6989, Note_off_c, 0, 66, 116
1, 7018, Note_on_c, 0, 62, 107
1, 7133, Note_off_c, 0, 62, 107
1, 7183, Note_on_c, 0, 69, 113
1, 7264, Note_off_c, 0, 69, 113
1, 7291, Note_on_c, 0, 66, 114
1, 7365, Note_off_c, 0, 66, 114
1, 7395, Note_on_c, 0, 62, 110
1, 7510, Note_off_c, 0, 62, 110
1, 7560, Note_on_c, 0, 71, 113
1, 7657, Note_off_c, 0, 71, 113
1, 7677, Note_on_c, 0, 66, 117
1, 7755, Note_off_c, 0, 66, 117
1, 7773, Note_on_c, 0, 73, 109
1, 7882, Note_off_c, 0, 73, 109
1, 7932, Note_on_c, 0, 67, 109
1, 7958, Note_off_c, 0, 67, 109
1, 7961, Note_on_c, 0, 69, 112
1, 8039, Note_off_c, 0, 69, 112
1, 8052, Note_on_c, 0, 66, 113
1, 8105, Note_off_c, 0, 66, 113
1, 8149, Note_on_c, 0, 62, 110
1, 8235, Note_off_c, 0, 62, 110
1, 8301, Note_on_c, 0, 70, 111
1, 8393, Note_off_c, 0, 70, 111
1, 8409, Note_on_c, 0, 66, 118
1, 8496, Note_off_c, 0, 66, 118
1, 8520, Note_on_c, 0, 62, 110
1, 8620, Note_off_c, 0, 62, 110
1, 8681, Note_on_c, 0, 70, 111
1, 8765, Note_off_c, 0, 70, 111
1, 8793, Note_on_c, 0, 65, 110
1, 8869, Note_off_c, 0, 65, 110
1, 8903, Note_on_c, 0, 62, 112
1, 8986, Note_off_c, 0, 62, 112
1, 9061, Note_on_c, 0, 68, 116
1, 9165, Note_off_c, 0, 68, 116
1, 9174, Note_on_c, 0, 65, 110
1, 9271, Note_off_c, 0, 65, 110
1, 9281, Note_on_c, 0, 64, 114
1, 9398, Note_off_c, 0, 64, 114
1, 9817, Note_on_c, 0, 64, 113
1, 9924, Note_off_c, 0, 64, 113
1, 9942, Note_on_c, 0, 67, 117
1, 10010, Note_off_c, 0, 67, 117
1, 10046, Note_on_c, 0, 71, 111
1, 10128, Note_off_c, 0, 71, 111
1, 10145, Note_on_c, 0, 74, 113
1, 10240, Note_off_c, 0, 74, 113
1, 10250, Note_on_c, 0, 70, 110
1, 10350, Note_off_c, 0, 70, 110
1, 10416, Note_on_c, 0, 66, 111
1, 10509, Note_off_c, 0, 66, 111
1, 10533, Note_on_c, 0, 62, 110
1, 10768, Note_off_c, 0, 62, 110
1, 10781, Note_on_c, 0, 66, 116
1, 10896, Note_off_c, 0, 66, 116
1, 11338, Note_on_c, 0, 64, 113
1, 11449, Note_off_c, 0, 64, 113
1, 11459, Note_on_c, 0, 65, 112
1, 11543, Note_off_c, 0, 65, 112
1, 11560, Note_on_c, 0, 67, 116
1, 11647, Note_off_c, 0, 67, 116
1, 11661, Note_on_c, 0, 71, 115
1, 11750, Note_off_c, 0, 71, 115
1, 11753, Note_on_c, 0, 70, 111
1, 11827, Note_off_c, 0, 70, 111
1, 11846, Note_on_c, 0, 67, 115
1, 11929, Note_off_c, 0, 67, 115
1, 11934, Note_on_c, 0, 68, 113
1, 12012, Note_off_c, 0, 68, 113
1, 12032, Note_on_c, 0, 70, 109
1, 12112, Note_off_c, 0, 70, 109
1, 12118, Note_on_c, 0, 71, 106
1, 12213, Note_off_c, 0, 71, 106
1, 12223, Note_on_c, 0, 72, 118
1, 12297, Note_off_c, 0, 72, 118
1, 12306, Note_on_c, 0, 74, 114
1, 12388, Note_off_c, 0, 74, 114
1, 12403, Note_on_c, 0, 83, 116
1, 12503, Note_off_c, 0, 83, 116
1, 12522, Note_on_c, 0, 76, 115
1, 12587, Note_off_c, 0, 76, 115
1, 12606, Note_on_c, 0, 81, 118
1, 12686, Note_off_c, 0, 81, 118
1, 12703, Note_on_c, 0, 79, 111
1, 12774, Note_off_c, 0, 79, 111
1, 12795, Note_on_c, 0, 76, 111
1, 12867, Note_off_c, 0, 76, 111
1, 12890, Note_on_c, 0, 72, 115
1, 12971, Note_off_c, 0, 72, 115
1, 12978, Note_on_c, 0, 69, 111
1, 13057, Note_off_c, 0, 69, 111
1, 13063, Note_on_c, 0, 67, 111
1, 13175, Note_off_c, 0, 67, 111
1, 13186, Note_on_c, 0, 64, 110
1, 13241, Note_off_c, 0, 64, 110
1, 13247, Note_on_c, 0, 66, 111
1, 13344, Note_off_c, 0, 66, 111
1, 13360, Note_on_c, 0, 69, 114
1, 13448, Note_off_c, 0, 69, 114
1, 13467, Note_on_c, 0, 77, 115
1, 13560, Note_off_c, 0, 77, 115
1, 13567, Note_on_c, 0, 75, 120
1, 13636, Note_off_c, 0, 75, 120
1, 13654, Note_on_c, 0, 74, 113
1, 13739, Note_off_c, 0, 74, 113
1, 13754, Note_on_c, 0, 72, 118
1, 13833, Note_off_c, 0, 72, 118
1, 13856, Note_on_c, 0, 71, 108
1, 13954, Note_off_c, 0, 71, 108
1, 13972, Note_on_c, 0, 62, 109
1, 14127, Note_off_c, 0, 62, 109
1, 14133, Note_on_c, 0, 62, 106
1, 14212, Note_off_c, 0, 62, 106
1, 14225, Note_on_c, 0, 64, 116
1, 14350, Note_off_c, 0, 64, 116
1, 15084, Note_on_c, 0, 70, 109
1, 15108, Note_off_c, 0, 70, 109
1, 15110, Note_on_c, 0, 71, 115
1, 15859, Note_off_c, 0, 71, 115
1, 15865, Note_on_c, 0, 72, 118
1, 15943, Note_off_c, 0, 72, 118
1, 15963, Note_on_c, 0, 71, 110
1, 16049, Note_off_c, 0, 71, 110
1, 16055, Note_on_c, 0, 69, 112
1, 16136, Note_off_c, 0, 69, 112
1, 16164, Note_on_c, 0, 71, 112
1, 16256, Note_off_c, 0, 71, 112
1, 16304, Note_on_c, 0, 71, 110
1, 16421, Note_off_c, 0, 71, 110
1, 16434, Note_on_c, 0, 69, 113
1, 16515, Note_off_c, 0, 69, 113
1, 16562, Note_on_c, 0, 69, 109
1, 16660, Note_off_c, 0, 69, 109
1, 16688, Note_on_c, 0, 65, 112
1, 16797, Note_off_c, 0, 65, 112
1, 16802, Note_on_c, 0, 64, 111
1, 17048, Note_off_c, 0, 64, 111
1, 17101, Note_on_c, 0, 57, 97
1, 17445, Note_off_c, 0, 57, 97
1, 17490, Note_on_c, 0, 60, 97
1, 17516, Note_off_c, 0, 60, 97
1, 17516, Note_on_c, 0, 64, 115
1, 17556, Note_off_c, 0, 64, 115
1, 17575, Note_on_c, 0, 67, 109
1, 17637, Note_off_c, 0, 67, 109
1, 17650, Note_on_c, 0, 66, 107
1, 17734, Note_off_c, 0, 66, 107
1, 17756, Note_on_c, 0, 69, 109
1, 17848, Note_off_c, 0, 69, 109
1, 17855, Note_on_c, 0, 72, 113
1, 17917, Note_off_c, 0, 72, 113
1, 17936, Note_on_c, 0, 77, 117
1, 18012, Note_off_c, 0, 77, 117
1, 18026, Note_on_c, 0, 75, 118
1, 18089, Note_off_c, 0, 75, 118
1, 18106, Note_on_c, 0, 77, 118
1, 18152, Note_off_c, 0, 77, 118
1, 18161, Note_on_c, 0, 75, 114
1, 18195, Note_off_c, 0, 75, 114
1, 18211, Note_on_c, 0, 72, 110
1, 18290, Note_off_c, 0, 72, 110
1, 18297, Note_on_c, 0, 75, 121
1, 18390, Note_off_c, 0, 75, 121
1, 18406, Note_on_c, 0, 74, 113
1, 18482, Note_off_c, 0, 74, 113
1, 18502, Note_on_c, 0, 71, 109
1, 18570, Note_off_c, 0, 71, 109
1, 18594, Note_on_c, 0, 66, 109
1, 18640, Note_off_c, 0, 66, 109
1, 18653, Note_on_c, 0, 69, 97
1, 18673, Note_off_c, 0, 69, 97
1, 18678, Note_on_c, 0, 66, 105
1, 18707, Note_off_c, 0, 66, 105
1, 18710, Note_on_c, 0, 62, 110
1, 18770, Note_off_c, 0, 62, 110
1, 18774, Note_on_c, 0, 66, 112
1, 18867, Note_off_c, 0, 66, 112
1, 18872, Note_on_c, 0, 71, 111
1, 18955, Note_off_c, 0, 71, 111
1, 18968, Note_on_c, 0, 66, 109
1, 19005, Note_off_c, 0, 66, 109
1, 19017, Note_on_c, 0, 69, 90
1, 19038, Note_off_c, 0, 69, 90
1, 19044, Note_on_c, 0, 66, 107
1, 19091, Note_off_c, 0, 66, 107
1, 19097, Note_on_c, 0, 62, 115
1, 19151, Note_off_c, 0, 62, 115
1, 19156, Note_on_c, 0, 66, 112
1, 19253, Note_off_c, 0, 66, 112
1, 19269, Note_on_c, 0, 70, 106
1, 19344, Note_off_c, 0, 70, 106
1, 19351, Note_on_c, 0, 66, 90
1, 19377, Note_off_c, 0, 66, 90
1, 19386, Note_on_c, 0, 70, 102
1, 19409, Note_off_c, 0, 70, 102
1, 19422, Note_on_c, 0, 66, 107
1, 19453, Note_off_c, 0, 66, 107
1, 19455, Note_on_c, 0, 62, 109
1, 19510, Note_off_c, 0, 62, 109
1, 19531, Note_on_c, 0, 66, 112
1, 19626, Note_off_c, 0, 66, 112
1, 19629, Note_on_c, 0, 69, 111
1, 19702, Note_off_c, 0, 69, 111
1, 19717, Note_on_c, 0, 66, 108
1, 19740, Note_off_c, 0, 66, 108
1, 19745, Note_on_c, 0, 69, 101
1, 19765, Note_off_c, 0, 69, 101
1, 19780, Note_on_c, 0, 66, 109
1, 19806, Note_off_c, 0, 66, 109
1, 19829, Note_on_c, 0, 62, 111
1, 19871, Note_off_c, 0, 62, 111
1, 19904, Note_on_c, 0, 66, 112
1, 19987, Note_off_c, 0, 66, 112
1, 20018, Note_on_c, 0, 71, 109
1, 20093, Note_off_c, 0, 71, 109
1, 20106, Note_on_c, 0, 66, 108
1, 20131, Note_off_c, 0, 66, 108
1, 20139, Note_on_c, 0, 70, 94
1, 20161, Note_off_c, 0, 70, 94
1, 20164, Note_on_c, 0, 66, 111
1, 20207, Note_off_c, 0, 66, 111
1, 20212, Note_on_c, 0, 62, 106
1, 20258, Note_off_c, 0, 62, 106
1, 20282, Note_on_c, 0, 66, 111
1, 20388, Note_off_c, 0, 66, 111
1, 20399, Note_on_c, 0, 70, 108
1, 20467, Note_off_c, 0, 70, 108
1, 20480, Note_on_c, 0, 66, 108
1, 20506, Note_off_c, 0, 66, 108
1, 20521, Note_on_c, 0, 68, 97
1, 20537, Note_off_c, 0, 68, 97
1, 20547, Note_on_c, 0, 66, 110
1, 20590, Note_off_c, 0, 66, 110
1, 20590, Note_on_c, 0, 62, 109
1, 20645, Note_off_c, 0, 62, 109
1, 20648, Note_on_c, 0, 65, 114
1, 20760, Note_off_c, 0, 65, 114
1, 20767, Note_on_c, 0, 70, 109
1, 20832, Note_off_c, 0, 70, 109
1, 20854, Note_on_c, 0, 65, 108
1, 20892, Note_off_c, 0, 65, 108
1, 20892, Note_on_c, 0, 66, 101
1, 20908, Note_off_c, 0, 66, 101
1, 20912, Note_on_c, 0, 65, 109
1, 20943, Note_off_c, 0, 65, 109
1, 20959, Note_on_c, 0, 62, 104
1, 21012, Note_off_c, 0, 62, 104
1, 21032, Note_on_c, 0, 65, 112
1, 21116, Note_off_c, 0, 65, 112
1, 21126, Note_on_c, 0, 68, 110
1, 21197, Note_off_c, 0, 68, 110
1, 21219, Note_on_c, 0, 65, 108
1, 21248, Note_off_c, 0, 65, 108
1, 21257, Note_on_c, 0, 68, 107
1, 21273, Note_off_c, 0, 68, 107
1, 21282, Note_on_c, 0, 65, 109
1, 21307, Note_off_c, 0, 65, 109
1, 21324, Note_on_c, 0, 62, 109
1, 21379, Note_off_c, 0, 62, 109
1, 21386, Note_on_c, 0, 64, 109
1, 21479, Note_off_c, 0, 64, 109
1, 21491, Note_on_c, 0, 67, 105
1, 21571, Note_off_c, 0, 67, 105
1, 21579, Note_on_c, 0, 64, 104
1, 21608, Note_off_c, 0, 64, 104
1, 21616, Note_on_c, 0, 65, 107
1, 21639, Note_off_c, 0, 65, 107
1, 21643, Note_on_c, 0, 64, 106
1, 21680, Note_off_c, 0, 64, 106
1, 21690, Note_on_c, 0, 60, 102
1, 21745, Note_off_c, 0, 60, 102
1, 21753, Note_on_c, 0, 63, 110
1, 21852, Note_off_c, 0, 63, 110
1, 21863, Note_on_c, 0, 65, 110
1, 21944, Note_off_c, 0, 65, 110
1, 21954, Note_on_c, 0, 63, 105
1, 21980, Note_off_c, 0, 63, 105
1, 21986, Note_on_c, 0, 65, 108
1, 22010, Note_off_c, 0, 65, 108
1, 22014, Note_on_c, 0, 63, 110
1, 22041, Note_off_c, 0, 63, 110
1, 22049, Note_on_c, 0, 60, 108
1, 22107, Note_off_c, 0, 60, 108
1, 22116, Note_on_c, 0, 62, 108
1, 22200, Note_off_c, 0, 62, 108
1, 22613, Note_on_c, 0, 67, 111
1, 22684, Note_off_c, 0, 67, 111
1, 22703, Note_on_c, 0, 69, 111
1, 22783, Note_off_c, 0, 69, 111
1, 22800, Note_on_c, 0, 72, 112
1, 22861, Note_off_c, 0, 72, 112
1, 22884, Note_on_c, 0, 75, 119
1, 22978, Note_off_c, 0, 75, 119
1, 23001, Note_on_c, 0, 81, 120
1, 23071, Note_off_c, 0, 81, 120
1, 23081, Note_on_c, 0, 79, 114
1, 23178, Note_off_c, 0, 79, 114
1, 23193, Note_on_c, 0, 75, 116
1, 23284, Note_off_c, 0, 75, 116
1, 23290, Note_on_c, 0, 74, 115
1, 23360, Note_off_c, 0, 74, 115
1, 23446, Note_on_c, 0, 71, 112
1, 23608, Note_off_c, 0, 71, 112
1, 23948, Note_on_c, 0, 77, 120
1, 23977, Note_off_c, 0, 77, 120
1, 23993, Note_on_c, 0, 76, 121
1, 24033, Note_off_c, 0, 76, 121
1, 24042, Note_on_c, 0, 74, 114
1, 24117, Note_off_c, 0, 74, 114
1, 24139, Note_on_c, 0, 73, 118
1, 24226, Note_off_c, 0, 73, 118
1, 24234, Note_on_c, 0, 72, 115
1, 24318, Note_off_c, 0, 72, 115
1, 24328, Note_on_c, 0, 70, 111
1, 24407, Note_off_c, 0, 70, 111
1, 24423, Note_on_c, 0, 69, 112
1, 24573, Note_off_c, 0, 69, 112
1, 24773, Note_on_c, 0, 60, 108
1, 25398, Note_off_c, 0, 60, 108
1, 25412, Note_on_c, 0, 64, 113
1, 25449, Note_off_c, 0, 64, 113
1, 25452, Note_on_c, 0, 67, 115
1, 25486, Note_off_c, 0, 67, 115
1, 25499, Note_on_c, 0, 71, 113
1, 25531, Note_off_c, 0, 71, 113
1, 25541, Note_on_c, 0, 74, 114
1, 25584, Note_off_c, 0, 74, 114
1, 25591, Note_on_c, 0, 71, 112
1, 25631, Note_off_c, 0, 71, 112
1, 25641, Note_on_c, 0, 74, 115
1, 25678, Note_off_c, 0, 74, 115
1, 25691, Note_on_c, 0, 71, 110
1, 25730, Note_off_c, 0, 71, 110
1, 25733, Note_on_c, 0, 74, 111
1, 25777, Note_off_c, 0, 74, 111
1, 25786, Note_on_c, 0, 71, 110
1, 25821, Note_off_c, 0, 71, 110
1, 25830, Note_on_c, 0, 74, 115
1, 25890, Note_off_c, 0, 74, 115
1, 25897, Note_on_c, 0, 71, 109
1, 26044, Note_off_c, 0, 71, 109
1, 26052, Note_on_c, 0, 67, 112
1, 26291, Note_off_c, 0, 67, 112
1, 26321, Note_on_c, 0, 67, 105
1, 26553, Note_off_c, 0, 67, 105
1, 27235, Note_on_c, 0, 76, 124
1, 28169, Note_off_c, 0, 76, 124
1, 28191, Note_on_c, 0, 74, 112
1, 28313, Note_off_c, 0, 74, 112
1, 28329, Note_on_c, 0, 69, 108
1, 28550, Note_off_c, 0, 69, 108
1, 29097, Note_on_c, 0, 74, 120
1, 29162, Note_off_c, 0, 74, 120
1, 29168, Note_on_c, 0, 77, 117
1, 29253, Note_off_c, 0, 77, 117
1, 29268, Note_on_c, 0, 81, 117
1, 29354, Note_off_c, 0, 81, 117
1, 29364, Note_on_c, 0, 76, 116
1, 29431, Note_off_c, 0, 76, 116
1, 29440, Note_on_c, 0, 77, 108
1, 29471, Note_off_c, 0, 77, 108
1, 29484, Note_on_c, 0, 76, 118
1, 29556, Note_off_c, 0, 76, 118
1, 29575, Note_on_c, 0, 72, 105
1, 29645, Note_off_c, 0, 72, 105
1, 29660, Note_on_c, 0, 69, 110
1, 29757, Note_off_c, 0, 69, 110
1, 29762, Note_on_c, 0, 64, 112
1, 29838, Note_off_c, 0, 64, 112
1, 29852, Note_on_c, 0, 60, 19
1, 29906, Note_off_c, 0, 60, 19
1, 29919, Note_on_c, 0, 64, 113
1, 30013, Note_off_c, 0, 64, 113
1, 30031, Note_on_c, 0, 69, 115
1, 30109, Note_off_c, 0, 69, 115
1, 30125, Note_on_c, 0, 66, 112
1, 30226, Note_off_c, 0, 66, 112
1, 30248, Note_on_c, 0, 60, 94
1, 30291, Note_off_c, 0, 60, 94
1, 30312, Note_on_c, 0, 64, 110
1, 30397, Note_off_c, 0, 64, 110
1, 30412, Note_on_c, 0, 69, 111
1, 30491, Note_off_c, 0, 69, 111
1, 30509, Note_on_c, 0, 66, 114
1, 30613, Note_off_c, 0, 66, 114
1, 30626, Note_on_c, 0, 62, 104
1, 30857, Note_off_c, 0, 62, 104
1, 30868, Note_on_c, 0, 69, 116
1, 30969, Note_off_c, 0, 69, 116
1, 30984, Note_on_c, 0, 66, 106
1, 31072, Note_off_c, 0, 66, 106
1, 31089, Note_on_c, 0, 60, 96
1, 31161, Note_off_c, 0, 60, 96
1, 31177, Note_on_c, 0, 64, 110
1, 31249, Note_off_c, 0, 64, 110
1, 31259, Note_on_c, 0, 69, 115
1, 31361, Note_off_c, 0, 69, 115
1, 31376, Note_on_c, 0, 59, 95
1, 31407, Note_off_c, 0, 59, 95
1, 31433, Note_on_c, 0, 64, 114
1, 31540, Note_off_c, 0, 64, 114
1, 31555, Note_on_c, 0, 69, 115
1, 31639, Note_off_c, 0, 69, 115
1, 31648, Note_on_c, 0, 66, 113
1, 31730, Note_off_c, 0, 66, 113
1, 31747, Note_on_c, 0, 62, 114
1, 31800, Note_off_c, 0, 62, 114
1, 31814, Note_on_c, 0, 60, 103
1, 31945, Note_off_c, 0, 60, 103
1, 31962, Note_on_c, 0, 64, 115
1, 31995, Note_off_c, 0, 64, 115
1, 32008, Note_on_c, 0, 69, 115
1, 32109, Note_off_c, 0, 69, 115
1, 32122, Note_on_c, 0, 60, 103
1, 32168, Note_off_c, 0, 60, 103
1, 32191, Note_on_c, 0, 64, 113
1, 32246, Note_off_c, 0, 64, 113
1, 32256, Note_on_c, 0, 66, 115
1, 32289, Note_off_c, 0, 66, 115
1, 32300, Note_on_c, 0, 69, 117
1, 32340, Note_off_c, 0, 69, 117
1, 32360, Note_on_c, 0, 66, 116
1, 32453, Note_off_c, 0, 66, 116
1, 32902, Note_on_c, 0, 62, 115
1, 32952, Note_off_c, 0, 62, 115
1, 32961, Note_on_c, 0, 64, 111
1, 32988, Note_off_c, 0, 64, 111
1, 33002, Note_on_c, 0, 65, 114
1, 33039, Note_off_c, 0, 65, 114
1, 33058, Note_on_c, 0, 68, 118
1, 33136, Note_off_c, 0, 68, 118
1, 33144, Note_on_c, 0, 67, 112
1, 33225, Note_off_c, 0, 67, 112
1, 33243, Note_on_c, 0, 65, 115
1, 33306, Note_off_c, 0, 65, 115
1, 33313, Note_on_c, 0, 64, 112
1, 33339, Note_off_c, 0, 64, 112
1, 33347, Note_on_c, 0, 65, 112
1, 33380, Note_off_c, 0, 65, 112
1, 33395, Note_on_c, 0, 64, 116
1, 33432, Note_off_c, 0, 64, 116
1, 33445, Note_on_c, 0, 62, 116
1, 33503, Note_off_c, 0, 62, 116
1, 33529, Note_on_c, 0, 60, 105
1, 33697, Note_off_c, 0, 60, 105
1, 33724, Note_on_c, 0, 64, 118
1, 33823, Note_off_c, 0, 64, 118
1, 33828, Note_on_c, 0, 67, 117
1, 33888, Note_off_c, 0, 67, 117
1, 33914, Note_on_c, 0, 71, 109
1, 33984, Note_off_c, 0, 71, 109
1, 34005, Note_on_c, 0, 74, 117
1, 34078, Note_off_c, 0, 74, 117
1, 34104, Note_on_c, 0, 71, 112
1, 34174, Note_off_c, 0, 71, 112
1, 34195, Note_on_c, 0, 74, 116
1, 34263, Note_off_c, 0, 74, 116
1, 34328, Note_on_c, 0, 71, 103
1, 34411, Note_off_c, 0, 71, 103
1, 34476, Note_on_c, 0, 71, 109
1, 34591, Note_off_c, 0, 71, 109
1, 34624, Note_on_c, 0, 71, 110
1, 34695, Note_off_c, 0, 71, 110
1, 34771, Note_on_c, 0, 71, 112
1, 34862, Note_off_c, 0, 71, 112
1, 34891, Note_on_c, 0, 69, 110
1, 34970, Note_off_c, 0, 69, 110
1, 34980, Note_on_c, 0, 71, 111
1, 35064, Note_off_c, 0, 71, 111
1, 35074, Note_on_c, 0, 69, 111
1, 35149, Note_off_c, 0, 69, 111
1, 35170, Note_on_c, 0, 69, 111
1, 35187, Note_off_c, 0, 69, 111
1, 35195, Note_on_c, 0, 66, 116
1, 35269, Note_off_c, 0, 66, 116
1, 35279, Note_on_c, 0, 62, 103
1, 35406, Note_off_c, 0, 62, 103
1, 35422, Note_on_c, 0, 66, 105
1, 35625, Note_off_c, 0, 66, 105
1, 36101, Note_on_c, 0, 63, 115
1, 36140, Note_off_c, 0, 63, 115
1, 36148, Note_on_c, 0, 64, 112
1, 36191, Note_off_c, 0, 64, 112
1, 36212, Note_on_c, 0, 67, 111
1, 36259, Note_off_c, 0, 67, 111
1, 36266, Note_on_c, 0, 65, 113
1, 36298, Note_off_c, 0, 65, 113
1, 36308, Note_on_c, 0, 64, 117
1, 36374, Note_off_c, 0, 64, 117
1, 36380, Note_on_c, 0, 65, 115
1, 36459, Note_off_c, 0, 65, 115
1, 36478, Note_on_c, 0, 67, 113
1, 36578, Note_off_c, 0, 67, 113
1, 36596, Note_on_c, 0, 68, 118
1, 36697, Note_off_c, 0, 68, 118
1, 36706, Note_on_c, 0, 69, 109
1, 36891, Note_off_c, 0, 69, 109
1, 36927, Note_on_c, 0, 72, 118
1, 37016, Note_off_c, 0, 72, 118
1, 37038, Note_on_c, 0, 69, 113
1, 37095, Note_off_c, 0, 69, 113
1, 37119, Note_on_c, 0, 67, 114
1, 37203, Note_off_c, 0, 67, 114
1, 37221, Note_on_c, 0, 64, 117
1, 37290, Note_off_c, 0, 64, 117
1, 37309, Note_on_c, 0, 60, 105
1, 37446, Note_off_c, 0, 60, 105
1, 37485, Note_on_c, 0, 60, 103
1, 37602, Note_off_c, 0, 60, 103
1, 37611, Note_on_c, 0, 62, 111
1, 37670, Note_off_c, 0, 62, 111
1, 37679, Note_on_c, 0, 64, 115
1, 37765, Note_off_c, 0, 64, 115
1, 37787, Note_on_c, 0, 67, 114
1, 37852, Note_off_c, 0, 67, 114
1, 37873, Note_on_c, 0, 71, 112
1, 37958, Note_off_c, 0, 71, 112
1, 37985, Note_on_c, 0, 67, 117
1, 38074, Note_off_c, 0, 67, 117
1, 38081, Note_on_c, 0, 66, 110
1, 38215, Note_off_c, 0, 66, 110
1, 38236, Note_on_c, 0, 62, 106
1, 38345, Note_off_c, 0, 62, 106
1, 38362, Note_on_c, 0, 62, 109
1, 38582, Note_off_c, 0, 62, 109
1, 39336, Note_on_c, 0, 75, 121
1, 39368, Note_off_c, 0, 75, 121
1, 39371, Note_on_c, 0, 76, 123
1, 39404, Note_off_c, 0, 76, 123
1, 39412, Note_on_c, 0, 77, 118
1, 39444, Note_off_c, 0, 77, 118
1, 39454, Note_on_c, 0, 79, 111
1, 39485, Note_off_c, 0, 79, 111
1, 39492, Note_on_c, 0, 83, 119
1, 39566, Note_off_c, 0, 83, 119
1, 39575, Note_on_c, 0, 79, 111
1, 39805, Note_off_c, 0, 79, 111
1, 39975, Note_on_c, 0, 79, 118
1, 40094, Note_off_c, 0, 79, 118
1, 40100, Note_on_c, 0, 72, 116
1, 40331, Note_off_c, 0, 72, 116
1, 40354, Note_on_c, 0, 72, 119
1, 40472, Note_off_c, 0, 72, 119
1, 40757, Note_on_c, 0, 67, 110
1, 40852, Note_off_c, 0, 67, 110
1, 40891, Note_on_c, 0, 60, 105
1, 41043, Note_off_c, 0, 60, 105
1, 41083, Note_on_c, 0, 60, 109
1, 41365, Note_off_c, 0, 60, 109
1, 42011, Note_on_c, 0, 72, 120
1, 42089, Note_off_c, 0, 72, 120
1, 42103, Note_on_c, 0, 75, 122
1, 42184, Note_off_c, 0, 75, 122
1, 42199, Note_on_c, 0, 77, 120
1, 42282, Note_off_c, 0, 77, 120
1, 42293, Note_on_c, 0, 78, 123
1, 42415, Note_off_c, 0, 78, 123
1, 42433, Note_on_c, 0, 87, 110
1, 42470, Note_off_c, 0, 87, 110
1, 42505, Note_on_c, 0, 85, 87
1, 42601, Note_off_c, 0, 85, 87
1, 42641, Note_on_c, 0, 85, 96
1, 42758, Note_off_c, 0, 85, 96
1, 43053, Note_on_c, 0, 83, 117
1, 43167, Note_off_c, 0, 83, 117
1, 43189, Note_on_c, 0, 78, 113
1, 43269, Note_off_c, 0, 78, 113
1, 43344, Note_on_c, 0, 74, 110
1, 43431, Note_off_c, 0, 74, 110
1, 43454, Note_on_c, 0, 82, 115
1, 43543, Note_off_c, 0, 82, 115
1, 43643, Note_on_c, 0, 82, 113
1, 43812, Note_off_c, 0, 82, 113
1, 43835, Note_on_c, 0, 81, 111
1, 43910, Note_off_c, 0, 81, 111
1, 43940, Note_on_c, 0, 78, 113
1, 44028, Note_off_c, 0, 78, 113
1, 44028, Note_on_c, 0, 74, 107
1, 44096, Note_off_c, 0, 74, 107
1, 44122, Note_on_c, 0, 70, 111
1, 44200, Note_off_c, 0, 70, 111
1, 44213, Note_on_c, 0, 69, 106
1, 44263, Note_off_c, 0, 69, 106
1, 44276, Note_on_c, 0, 70, 106
1, 44297, Note_off_c, 0, 70, 106
1, 44299, Note_on_c, 0, 69, 105
1, 44317, Note_off_c, 0, 69, 105
1, 44334, Note_on_c, 0, 66, 112
1, 44388, Note_off_c, 0, 66, 112
1, 44399, Note_on_c, 0, 62, 100
1, 44516, Note_off_c, 0, 62, 100
1, 44529, Note_on_c, 0, 66, 97
1, 44572, Note_off_c, 0, 66, 97
1, 44602, Note_on_c, 0, 69, 110
1, 44673, Note_off_c, 0, 69, 110
1, 44699, Note_on_c, 0, 70, 111
1, 44770, Note_off_c, 0, 70, 111
1, 44786, Note_on_c, 0, 71, 109
1, 44872, Note_off_c, 0, 71, 109
1, 44882, Note_on_c, 0, 74, 111
1, 44952, Note_off_c, 0, 74, 111
1, 44967, Note_on_c, 0, 76, 121
1, 45066, Note_off_c, 0, 76, 121
1, 45071, Note_on_c, 0, 77, 116
1, 45141, Note_off_c, 0, 77, 116
1, 45155, Note_on_c, 0, 77, 116
1, 45204, Note_off_c, 0, 77, 116
1, 45215, Note_on_c, 0, 76, 121
1, 45238, Note_off_c, 0, 76, 121
1, 45249, Note_on_c, 0, 74, 112
1, 45305, Note_off_c, 0, 74, 112
1, 45316, Note_on_c, 0, 72, 117
1, 45420, Note_off_c, 0, 72, 117
1, 45433, Note_on_c, 0, 71, 112
1, 45502, Note_off_c, 0, 71, 112
1, 45523, Note_on_c, 0, 70, 109
1, 45643, Note_off_c, 0, 70, 109
1, 45653, Note_on_c, 0, 67, 109
1, 45697, Note_off_c, 0, 67, 109
1, 45705, Note_on_c, 0, 69, 109
1, 45809, Note_off_c, 0, 69, 109
1, 45830, Note_on_c, 0, 67, 113
1, 45908, Note_off_c, 0, 67, 113
1, 45924, Note_on_c, 0, 60, 99
1, 46092, Note_off_c, 0, 60, 99
1, 46095, Note_on_c, 0, 64, 112
1, 46248, Note_off_c, 0, 64, 112
1, 46285, Note_on_c, 0, 60, 101
1, 46444, Note_off_c, 0, 60, 101
1, 46460, Note_on_c, 0, 63, 114
1, 46581, Note_off_c, 0, 63, 114
1, 46595, Note_on_c, 0, 65, 113
1, 46624, Note_off_c, 0, 65, 113
1, 46635, Note_on_c, 0, 63, 107
1, 46667, Note_off_c, 0, 63, 107
1, 46694, Note_on_c, 0, 60, 105
1, 46789, Note_off_c, 0, 60, 105
1, 46796, Note_on_c, 0, 62, 113
1, 46874, Note_off_c, 0, 62, 113
1, 46892, Note_on_c, 0, 63, 117
1, 46972, Note_off_c, 0, 63, 117
1, 46979, Note_on_c, 0, 65, 111
1, 47074, Note_off_c, 0, 65, 111
1, 47081, Note_on_c, 0, 66, 105
1, 47105, Note_off_c, 0, 66, 105
1, 47108, Note_on_c, 0, 67, 108
1, 47181, Note_off_c, 0, 67, 108
1, 47189, Note_on_c, 0, 75, 114
1, 47246, Note_off_c, 0, 75, 114
1, 47269, Note_on_c, 0, 74, 117
1, 47344, Note_off_c, 0, 74, 117
1, 47354, Note_on_c, 0, 72, 117
1, 47435, Note_off_c, 0, 72, 117
1, 47452, Note_on_c, 0, 71, 107
1, 47531, Note_off_c, 0, 71, 107
1, 47546, Note_on_c, 0, 70, 110
1, 47617, Note_off_c, 0, 70, 110
1, 47644, Note_on_c, 0, 69, 108
1, 47731, Note_off_c, 0, 69, 108
1, 47744, Note_on_c, 0, 67, 113
1, 47823, Note_off_c, 0, 67, 113
1, 47845, Note_on_c, 0, 65, 112
1, 47926, Note_off_c, 0, 65, 112
1, 47935, Note_on_c, 0, 64, 113
1, 48020, Note_off_c, 0, 64, 113
1, 48039, Note_on_c, 0, 63, 116
1, 48121, Note_off_c, 0, 63, 116
1, 48135, Note_on_c, 0, 62, 114
1, 48196, Note_off_c, 0, 62, 114
1, 48213, Note_on_c, 0, 61, 112
1, 48298, Note_off_c, 0, 61, 112
1, 48314, Note_on_c, 0, 65, 113
1, 48382, Note_off_c, 0, 65, 113
1, 48405, Note_on_c, 0, 63, 107
1, 48432, Note_off_c, 0, 63, 107
1, 48440, Note_on_c, 0, 65, 110
1, 48469, Note_off_c, 0, 65, 110
1, 48482, Note_on_c, 0, 63, 113
1, 48504, Note_off_c, 0, 63, 113
1, 48523, Note_on_c, 0, 61, 113
1, 48582, Note_off_c, 0, 61, 113
1, 48592, Note_on_c, 0, 63, 113
1, 48692, Note_off_c, 0, 63, 113
1, 48713, Note_on_c, 0, 65, 106
1, 48804, Note_off_c, 0, 65, 106
1, 48815, Note_on_c, 0, 64, 110
1, 48901, Note_off_c, 0, 64, 110
1, 49322, Note_on_c, 0, 57, 101
1, 49366, Note_off_c, 0, 57, 101
1, 49381, Note_on_c, 0, 60, 101
1, 49414, Note_off_c, 0, 60, 101
1, 49421, Note_on_c, 0, 64, 117
1, 49455, Note_off_c, 0, 64, 117
1, 49462, Note_on_c, 0, 67, 115
1, 49561, Note_off_c, 0, 67, 115
1, 49565, Note_on_c, 0, 66, 109
1, 49691, Note_off_c, 0, 66, 109
1, 49697, Note_on_c, 0, 69, 102
1, 49737, Note_off_c, 0, 69, 102
1, 49764, Note_on_c, 0, 72, 117
1, 49840, Note_off_c, 0, 72, 117
1, 49851, Note_on_c, 0, 74, 116
1, 49931, Note_off_c, 0, 74, 116
1, 49939, Note_on_c, 0, 75, 122
1, 50007, Note_off_c, 0, 75, 122
1, 50012, Note_on_c, 0, 78, 118
1, 50042, Note_off_c, 0, 78, 118
1, 50048, Note_on_c, 0, 75, 111
1, 50066, Note_off_c, 0, 75, 111
1, 50076, Note_on_c, 0, 72, 113
1, 50126, Note_off_c, 0, 72, 113
1, 50140, Note_on_c, 0, 74, 115
1, 50223, Note_off_c, 0, 74, 115
1, 50258, Note_on_c, 0, 71, 112
1, 50355, Note_off_c, 0, 71, 112
1, 50439, Note_on_c, 0, 65, 111
1, 50476, Note_off_c, 0, 65, 111
1, 50481, Note_on_c, 0, 66, 106
1, 50681, Note_off_c, 0, 66, 106
1, 50708, Note_on_c, 0, 62, 106
1, 50830, Note_off_c, 0, 62, 106
1, 50882, Note_on_c, 0, 62, 103
1, 50981, Note_off_c, 0, 62, 103
1, 51017, Note_on_c, 0, 66, 116
1, 51085, Note_off_c, 0, 66, 116
1, 51623, Note_on_c, 0, 76, 125
1, 51769, Note_off_c, 0, 76, 125
1, 51787, Note_on_c, 0, 72, 94
1, 51869, Note_off_c, 0, 72, 94
1, 52198, Note_on_c, 0, 68, 112
1, 52224, Note_off_c, 0, 68, 112
1, 52230, Note_on_c, 0, 69, 112
1, 52337, Note_off_c, 0, 69, 112
1, 52344, Note_on_c, 0, 64, 116
1, 52410, Note_off_c, 0, 64, 116
1, 52511, Note_on_c, 0, 69, 113
1, 52594, Note_off_c, 0, 69, 113
1, 52637, Note_on_c, 0, 74, 110
1, 52731, Note_off_c, 0, 74, 110
1, 52805, Note_on_c, 0, 74, 114
1, 52919, Note_off_c, 0, 74, 114
1, 53166, Note_on_c, 0, 76, 127
1, 53381, Note_off_c, 0, 76, 127
1, 53750, Note_on_c, 0, 68, 113
1, 53776, Note_off_c, 0, 68, 113
1, 53777, Note_on_c, 0, 69, 112
1, 53802, Note_off_c, 0, 69, 112
1, 53805, Note_on_c, 0, 71, 114
1, 53841, Note_off_c, 0, 71, 114
1, 53844, Note_on_c, 0, 69, 110
1, 53873, Note_off_c, 0, 69, 110
1, 53878, Note_on_c, 0, 64, 114
1, 53936, Note_off_c, 0, 64, 114
1, 53955, Note_on_c, 0, 69, 108
1, 54067, Note_off_c, 0, 69, 108
1, 54082, Note_on_c, 0, 74, 118
1, 54194, Note_off_c, 0, 74, 118
1, 54340, Note_on_c, 0, 70, 109
1, 54376, Note_off_c, 0, 70, 109
1, 54388, Note_on_c, 0, 71, 112
1, 54410, Note_off_c, 0, 71, 112
1, 54419, Note_on_c, 0, 70, 112
1, 54451, Note_off_c, 0, 70, 112
1, 54458, Note_on_c, 0, 66, 116
1, 54523, Note_off_c, 0, 66, 116
1, 54534, Note_on_c, 0, 70, 111
1, 54642, Note_off_c, 0, 70, 111
1, 54660, Note_on_c, 0, 72, 115
1, 54758, Note_off_c, 0, 72, 115
1, 54909, Note_on_c, 0, 70, 106
1, 54929, Note_off_c, 0, 70, 106
1, 54934, Note_on_c, 0, 71, 114
1, 55253, Note_off_c, 0, 71, 114
1, 55267, Note_on_c, 0, 69, 111
1, 55286, Note_off_c, 0, 69, 111
1, 55291, Note_on_c, 0, 67, 114
1, 55317, Note_off_c, 0, 67, 114
1, 55322, Note_on_c, 0, 66, 116
1, 55688, Note_off_c, 0, 66, 116
1, 55699, Note_on_c, 0, 70, 114
1, 55812, Note_off_c, 0, 70, 114
1, 55818, Note_on_c, 0, 69, 112
1, 55856, Note_off_c, 0, 69, 112
1, 55860, Note_on_c, 0, 67, 116
1, 55898, Note_off_c, 0, 67, 116
1, 55900, Note_on_c, 0, 66, 116
1, 56099, Note_off_c, 0, 66, 116
1, 56099, Note_on_c, 0, 70, 113
1, 56180, Note_off_c, 0, 70, 113
1, 56184, Note_on_c, 0, 69, 112
1, 56207, Note_off_c, 0, 69, 112
1, 56221, Note_on_c, 0, 67, 113
1, 56267, Note_off_c, 0, 67, 113
1, 56271, Note_on_c, 0, 66, 116
1, 56419, Note_off_c, 0, 66, 116
1, 56477, Note_on_c, 0, 71, 113
1, 56548, Note_off_c, 0, 71, 113
1, 56561, Note_on_c, 0, 69, 111
1, 56593, Note_off_c, 0, 69, 111
1, 56597, Note_on_c, 0, 67, 110
1, 56639, Note_off_c, 0, 67, 110
1, 56645, Note_on_c, 0, 66, 115
1, 56807, Note_off_c, 0, 66, 115
1, 56840, Note_on_c, 0, 71, 114
1, 56899, Note_off_c, 0, 71, 114
1, 56914, Note_on_c, 0, 69, 109
1, 56951, Note_off_c, 0, 69, 109
1, 56956, Note_on_c, 0, 67, 113
1, 56994, Note_off_c, 0, 67, 113
1, 56999, Note_on_c, 0, 66, 114
1, 57131, Note_off_c, 0, 66, 114
1, 57143, Note_on_c, 0, 70, 109
1, 57227, Note_off_c, 0, 70, 109
1, 57689, Note_on_c, 0, 72, 117
1, 57755, Note_off_c, 0, 72, 117
1, 57791, Note_on_c, 0, 74, 115
1, 57876, Note_off_c, 0, 74, 115
1, 57889, Note_on_c, 0, 77, 118
1, 57983, Note_off_c, 0, 77, 118
1, 57993, Note_on_c, 0, 76, 122
1, 58117, Note_off_c, 0, 76, 122
1, 58122, Note_on_c, 0, 75, 120
1, 58182, Note_off_c, 0, 75, 120
1, 58187, Note_on_c, 0, 76, 116
1, 58331, Note_off_c, 0, 76, 116
1, 58338, Note_on_c, 0, 72, 117
1, 58476, Note_off_c, 0, 72, 117
1, 58484, Note_on_c, 0, 67, 106
1, 58692, Note_off_c, 0, 67, 106
1, 59037, Note_on_c, 0, 74, 111
1, 59070, Note_off_c, 0, 74, 111
1, 59076, Note_on_c, 0, 75, 123
1, 59454, Note_off_c, 0, 75, 123
1, 59467, Note_on_c, 0, 72, 110
1, 59514, Note_off_c, 0, 72, 110
1, 59530, Note_on_c, 0, 75, 122
1, 59717, Note_off_c, 0, 75, 122
1, 59727, Note_on_c, 0, 75, 120
1, 59890, Note_off_c, 0, 75, 120
1, 59895, Note_on_c, 0, 74, 115
1, 60005, Note_off_c, 0, 74, 115
1, 60019, Note_on_c, 0, 66, 108
1, 60273, Note_off_c, 0, 66, 108
1, 60588, Note_on_c, 0, 74, 120
1, 60645, Note_off_c, 0, 74, 120
1, 60771, Note_on_c, 0, 74, 118
1, 60841, Note_off_c, 0, 74, 118
1, 60952, Note_on_c, 0, 64, 107
1, 60972, Note_off_c, 0, 64, 107
1, 60979, Note_on_c, 0, 65, 110
1, 61064, Note_off_c, 0, 65, 110
1, 61079, Note_on_c, 0, 74, 116
1, 61239, Note_off_c, 0, 74, 116
1, 61247, Note_on_c, 0, 74, 119
1, 61385, Note_off_c, 0, 74, 119
1, 61439, Note_on_c, 0, 72, 9
1, 61535, Note_off_c, 0, 72, 9
1, 61585, Note_on_c, 0, 63, 116
1, 62196, Note_off_c, 0, 63, 116
1, 62214, Note_on_c, 0, 60, 106
1, 62298, Note_off_c, 0, 60, 106
1, 62312, Note_on_c, 0, 62, 115
1, 62358, Note_off_c, 0, 62, 115
1, 62389, Note_on_c, 0, 63, 117
1, 62484, Note_off_c, 0, 63, 117
1, 62499, Note_on_c, 0, 65, 115
1, 62566, Note_off_c, 0, 65, 115
1, 62602, Note_on_c, 0, 62, 113
1, 63786, Note_off_c, 0, 62, 113
1, 63801, Note_on_c, 0, 60, 107
1, 63867, Note_off_c, 0, 60, 107
1, 63878, Note_on_c, 0, 62, 113
1, 63958, Note_off_c, 0, 62, 113
1, 63987, Note_on_c, 0, 69, 109
1, 64072, Note_off_c, 0, 69, 109
1, 64095, Note_on_c, 0, 72, 119
1, 64180, Note_off_c, 0, 72, 119
1, 64191, Note_on_c, 0, 74, 112
1, 64252, Note_off_c, 0, 74, 112
1, 64271, Note_on_c, 0, 81, 120
1, 64349, Note_off_c, 0, 81, 120
1, 64371, Note_on_c, 0, 74, 109
1, 64431, Note_off_c, 0, 74, 109
1, 64447, Note_on_c, 0, 72, 120
1, 64526, Note_off_c, 0, 72, 120
1, 64540, Note_on_c, 0, 69, 108
1, 64607, Note_off_c, 0, 69, 108
1, 64640, Note_on_c, 0, 62, 112
1, 64718, Note_off_c, 0, 62, 112
1, 64731, Note_on_c, 0, 60, 102
1, 64771, Note_off_c, 0, 60, 102
1, 64785, Note_on_c, 0, 62, 110
1, 64897, Note_off_c, 0, 62, 110
1, 64917, Note_on_c, 0, 66, 105
1, 65143, Note_off_c, 0, 66, 105
1, 65703, Note_on_c, 0, 72, 114
1, 65748, Note_off_c, 0, 72, 114
1, 65762, Note_on_c, 0, 74, 113
1, 65801, Note_off_c, 0, 74, 113
1, 65805, Note_on_c, 0, 77, 120
1, 65849, Note_off_c, 0, 77, 120
1, 65852, Note_on_c, 0, 81, 122
1, 65935, Note_off_c, 0, 81, 122
1, 65945, Note_on_c, 0, 78, 116
1, 66051, Note_off_c, 0, 78, 116
1, 66059, Note_on_c, 0, 82, 110
1, 66691, Note_off_c, 0, 82, 110
1, 66712, Note_on_c, 0, 78, 113
1, 66757, Note_off_c, 0, 78, 113
1, 66766, Note_on_c, 0, 79, 109
1, 66797, Note_off_c, 0, 79, 109
1, 66800, Note_on_c, 0, 78, 113
1, 66837, Note_off_c, 0, 78, 113
1, 66847, Note_on_c, 0, 74, 108
1, 66908, Note_off_c, 0, 74, 108
1, 66934, Note_on_c, 0, 78, 119
1, 67027, Note_off_c, 0, 78, 119
1, 67053, Note_on_c, 0, 78, 113
1, 67144, Note_off_c, 0, 78, 113
1, 67204, Note_on_c, 0, 78, 113
1, 67323, Note_off_c, 0, 78, 113
1, 67332, Note_on_c, 0, 74, 112
1, 67437, Note_off_c, 0, 74, 112
1, 67453, Note_on_c, 0, 70, 109
1, 67539, Note_off_c, 0, 70, 109
1, 67593, Note_on_c, 0, 70, 100
1, 67684, Note_off_c, 0, 70, 100
1, 67706, Note_on_c, 0, 66, 111
1, 67814, Note_off_c, 0, 66, 111
1, 67831, Note_on_c, 0, 62, 113
1, 67909, Note_off_c, 0, 62, 113
1, 67957, Note_on_c, 0, 62, 112
1, 68040, Note_off_c, 0, 62, 112
1, 68070, Note_on_c, 0, 58, 105
1, 68477, Note_off_c, 0, 58, 105
1, 68496, Note_on_c, 0, 72, 108
1, 68533, Note_off_c, 0, 72, 108
1, 68555, Note_on_c, 0, 66, 111
1, 68591, Note_off_c, 0, 66, 111
1, 68604, Note_on_c, 0, 70, 110
1, 68639, Note_off_c, 0, 70, 110
1, 68650, Note_on_c, 0, 74, 116
1, 68698, Note_off_c, 0, 74, 116
1, 68708, Note_on_c, 0, 70, 112
1, 68743, Note_off_c, 0, 70, 112
1, 68748, Note_on_c, 0, 74, 113
1, 68798, Note_off_c, 0, 74, 113
1, 68807, Note_on_c, 0, 70, 110
1, 68837, Note_off_c, 0, 70, 110
1, 68857, Note_on_c, 0, 74, 117
1, 68937, Note_off_c, 0, 74, 117
1, 69043, Note_on_c, 0, 70, 109
1, 69143, Note_off_c, 0, 70, 109
1, 69145, Note_on_c, 0, 66, 111
1, 69384, Note_off_c, 0, 66, 111
1, 69401, Note_on_c, 0, 65, 107
1, 69495, Note_off_c, 0, 65, 107
1, 70271, Note_on_c, 0, 67, 111
1, 70298, Note_off_c, 0, 67, 111
1, 70302, Note_on_c, 0, 68, 109
1, 70348, Note_off_c, 0, 68, 109
1, 70350, Note_on_c, 0, 69, 110
1, 70428, Note_off_c, 0, 69, 110
1, 70445, Note_on_c, 0, 71, 111
1, 70520, Note_off_c, 0, 71, 111
1, 70539, Note_on_c, 0, 72, 118
1, 70617, Note_off_c, 0, 72, 118
1, 70630, Note_on_c, 0, 74, 111
1, 70698, Note_off_c, 0, 74, 111
1, 70716, Note_on_c, 0, 76, 120
1, 70809, Note_off_c, 0, 76, 120
1, 70814, Note_on_c, 0, 79, 115
1, 70895, Note_off_c, 0, 79, 115
1, 70913, Note_on_c, 0, 75, 110
1, 71000, Note_off_c, 0, 75, 110
1, 71013, Note_on_c, 0, 79, 115
1, 71097, Note_off_c, 0, 79, 115
1, 71103, Note_on_c, 0, 81, 120
1, 71212, Note_off_c, 0, 81, 120
1, 71228, Note_on_c, 0, 79, 116
1, 71253, Note_off_c, 0, 79, 116
1, 71256, Note_on_c, 0, 81, 115
1, 71275, Note_off_c, 0, 81, 115
1, 71278, Note_on_c, 0, 79, 110
1, 71303, Note_off_c, 0, 79, 110
1, 71483, Note_on_c, 0, 75, 116
1, 71579, Note_off_c, 0, 75, 116
1, 71976, Note_on_c, 0, 73, 117
1, 72011, Note_off_c, 0, 73, 117
1, 72014, Note_on_c, 0, 74, 114
1, 72041, Note_off_c, 0, 74, 114
1, 72057, Note_on_c, 0, 76, 120
1, 72093, Note_off_c, 0, 76, 120
1, 72093, Note_on_c, 0, 77, 119
1, 72137, Note_off_c, 0, 77, 119
1, 72147, Note_on_c, 0, 79, 116
1, 72234, Note_off_c, 0, 79, 116
1, 72253, Note_on_c, 0, 78, 113
1, 72327, Note_off_c, 0, 78, 113
1, 72358, Note_on_c, 0, 77, 118
1, 72435, Note_off_c, 0, 77, 118
1, 72457, Note_on_c, 0, 76, 117
1, 72534, Note_off_c, 0, 76, 117
1, 72553, Note_on_c, 0, 75, 118
1, 72631, Note_off_c, 0, 75, 118
1, 72650, Note_on_c, 0, 74, 115
1, 72726, Note_off_c, 0, 74, 115
1, 72743, Note_on_c, 0, 73, 118
1, 72823, Note_off_c, 0, 73, 118
1, 72840, Note_on_c, 0, 72, 120
1, 72924, Note_off_c, 0, 72, 120
1, 72934, Note_on_c, 0, 71, 111
1, 73012, Note_off_c, 0, 71, 111
1, 73028, Note_on_c, 0, 70, 112
1, 73111, Note_off_c, 0, 70, 112
1, 73131, Note_on_c, 0, 67, 111
1, 73194, Note_off_c, 0, 67, 111
1, 73200, Note_on_c, 0, 68, 114
1, 73286, Note_off_c, 0, 68, 114
1, 73299, Note_on_c, 0, 69, 104
1, 73557, Note_off_c, 0, 69, 104
1, 73589, Note_on_c, 0, 67, 114
1, 73689, Note_off_c, 0, 67, 114
1, 73696, Note_on_c, 0, 64, 113
1, 73750, Note_off_c, 0, 64, 113
1, 73759, Note_on_c, 0, 60, 105
1, 74599, Note_off_c, 0, 60, 105
1, 74613, Note_on_c, 0, 62, 105
1, 74629, Note_off_c, 0, 62, 105
1, 74634, Note_on_c, 0, 64, 112
1, 74677, Note_off_c, 0, 64, 112
1, 74681, Note_on_c, 0, 67, 116
1, 74740, Note_off_c, 0, 67, 116
1, 74742, Note_on_c, 0, 66, 114
1, 74853, Note_off_c, 0, 66, 114
1, 74864, Note_on_c, 0, 67, 107
1, 75071, Note_off_c, 0, 67, 107
1, 75080, Note_on_c, 0, 67, 112
1, 75124, Note_off_c, 0, 67, 112
1, 75136, Note_on_c, 0, 67, 110
1, 75564, Note_off_c, 0, 67, 110
1, 75989, Note_on_c, 0, 72, 118
1, 76048, Note_off_c, 0, 72, 118
1, 76074, Note_on_c, 0, 76, 126
1, 76150, Note_off_c, 0, 76, 126
1, 76165, Note_on_c, 0, 81, 118
1, 76257, Note_off_c, 0, 81, 118
1, 76276, Note_on_c, 0, 76, 119
1, 76432, Note_off_c, 0, 76, 119
1, 76450, Note_on_c, 0, 76, 123
1, 76622, Note_off_c, 0, 76, 123
1, 76633, Note_on_c, 0, 76, 125
1, 76807, Note_off_c, 0, 76, 125
1, 76817, Note_on_c, 0, 76, 126
1, 77019, Note_off_c, 0, 76, 126
1, 77038, Note_on_c, 0, 77, 117
1, 77395, Note_off_c, 0, 77, 117
1, 77413, Note_on_c, 0, 76, 122
1, 77527, Note_off_c, 0, 76, 122
1, 77541, Note_on_c, 0, 74, 106
1, 77770, Note_off_c, 0, 74, 106
1, 77796, Note_on_c, 0, 76, 117
1, 77888, Note_off_c, 0, 76, 117
1, 78183, Note_on_c, 0, 69, 114
1, 78534, Note_off_c, 0, 69, 114
1, 78554, Note_on_c, 0, 69, 109
1, 78574, Note_off_c, 0, 69, 109
1, 78578, Note_on_c, 0, 67, 111
1, 78617, Note_off_c, 0, 67, 111
1, 78620, Note_on_c, 0, 72, 117
1, 78677, Note_off_c, 0, 72, 117
1, 78694, Note_on_c, 0, 76, 116
1, 78766, Note_off_c, 0, 76, 116
1, 78770, Note_on_c, 0, 79, 115
1, 78901, Note_on_c, 0, 78, 109
1, 78901, Note_off_c, 0, 79, 115
1, 79002, Note_off_c, 0, 78, 109
1, 79348, Note_on_c, 0, 78, 115
1, 79462, Note_off_c, 0, 78, 115
1, 79484, Note_on_c, 0, 74, 112
1, 79582, Note_off_c, 0, 74, 112
1, 79754, Note_on_c, 0, 66, 111
1, 80120, Note_off_c, 0, 66, 111
1, 80139, Note_on_c, 0, 62, 107
1, 80250, Note_off_c, 0, 62, 107
1, 80254, Note_on_c, 0, 66, 110
1, 80319, Note_off_c, 0, 66, 110
1, 80333, Note_on_c, 0, 70, 113
1, 80457, Note_off_c, 0, 70, 113
1, 80466, Note_on_c, 0, 70, 110
1, 80590, Note_off_c, 0, 70, 110
1, 80853, Note_on_c, 0, 65, 114
1, 80877, Note_off_c, 0, 65, 114
1, 80879, Note_on_c, 0, 66, 115
1, 80978, Note_off_c, 0, 66, 115
1, 80996, Note_on_c, 0, 62, 113
1, 81075, Note_off_c, 0, 62, 113
1, 81096, Note_on_c, 0, 62, 112
1, 81736, Note_off_c, 0, 62, 112
1, 81759, Note_on_c, 0, 65, 108
1, 81817, Note_off_c, 0, 65, 108
1, 81840, Note_on_c, 0, 70, 113
1, 81934, Note_off_c, 0, 70, 113
1, 81958, Note_on_c, 0, 70, 106
1, 82090, Note_off_c, 0, 70, 106
1, 82327, Note_on_c, 0, 60, 97
1, 82374, Note_off_c, 0, 60, 97
1, 82413, Note_on_c, 0, 68, 115
1, 82432, Note_off_c, 0, 68, 115
1, 82435, Note_on_c, 0, 69, 112
1, 82903, Note_off_c, 0, 69, 112
1, 82909, Note_on_c, 0, 72, 118
1, 82964, Note_off_c, 0, 72, 118
1, 82991, Note_on_c, 0, 76, 117
1, 83065, Note_off_c, 0, 76, 117
1, 83089, Note_on_c, 0, 81, 119
1, 83195, Note_off_c, 0, 81, 119
1, 83222, Note_on_c, 0, 79, 105
1, 83305, Note_off_c, 0, 79, 105
1, 83381, Note_on_c, 0, 71, 109
1, 83496, Note_off_c, 0, 71, 109
1, 83523, Note_on_c, 0, 66, 108
1, 83762, Note_off_c, 0, 66, 108
1, 83854, Note_on_c, 0, 62, 106
1, 83911, Note_off_c, 0, 62, 106
1, 83940, Note_on_c, 0, 66, 108
1, 83971, Note_off_c, 0, 66, 108
1, 83983, Note_on_c, 0, 69, 100
1, 84009, Note_off_c, 0, 69, 100
1, 84016, Note_on_c, 0, 66, 108
1, 84042, Note_off_c, 0, 66, 108
1, 84050, Note_on_c, 0, 62, 108
1, 84097, Note_off_c, 0, 62, 108
1, 84105, Note_on_c, 0, 66, 113
1, 84186, Note_off_c, 0, 66, 113
1, 84204, Note_on_c, 0, 71, 112
1, 84279, Note_off_c, 0, 71, 112
1, 84299, Note_on_c, 0, 74, 111
1, 84382, Note_off_c, 0, 74, 111
1, 84390, Note_on_c, 0, 76, 118
1, 84475, Note_off_c, 0, 76, 118
1, 84479, Note_on_c, 0, 77, 116
1, 84572, Note_off_c, 0, 77, 116
1, 84591, Note_on_c, 0, 76, 120
1, 84669, Note_off_c, 0, 76, 120
1, 84680, Note_on_c, 0, 75, 113
1, 84771, Note_off_c, 0, 75, 113
1, 84780, Note_on_c, 0, 74, 117
1, 84849, Note_off_c, 0, 74, 117
1, 84866, Note_on_c, 0, 72, 120
1, 84958, Note_off_c, 0, 72, 120
1, 84969, Note_on_c, 0, 71, 113
1, 85055, Note_off_c, 0, 71, 113
1, 85069, Note_on_c, 0, 70, 112
1, 85181, Note_off_c, 0, 70, 112
1, 85192, Note_on_c, 0, 67, 110
1, 85253, Note_off_c, 0, 67, 110
1, 85255, Note_on_c, 0, 68, 113
1, 85356, Note_off_c, 0, 68, 113
1, 85362, Note_on_c, 0, 65, 111
1, 85420, Note_off_c, 0, 65, 111
1, 85438, Note_on_c, 0, 58, 103
1, 85555, Note_off_c, 0, 58, 103
1, 85599, Note_on_c, 0, 55, 108
1, 85654, Note_off_c, 0, 55, 108
1, 85656, Note_on_c, 0, 60, 103
1, 85726, Note_off_c, 0, 60, 103
1, 85740, Note_on_c, 0, 64, 111
1, 85982, Note_off_c, 0, 64, 111
1, 86006, Note_on_c, 0, 67, 113
1, 86088, Note_off_c, 0, 67, 113
1, 86409, Note_on_c, 0, 64, 118
1, 86508, Note_off_c, 0, 64, 118
1, 86510, Note_on_c, 0, 67, 113
1, 86577, Note_off_c, 0, 67, 113
1, 86598, Note_on_c, 0, 66, 111
1, 86691, Note_off_c, 0, 66, 111
1, 86704, Note_on_c, 0, 63, 116
1, 86786, Note_off_c, 0, 63, 116
1, 86799, Note_on_c, 0, 62, 108
1, 86881, Note_off_c, 0, 62, 108
1, 86889, Note_on_c, 0, 60, 108
1, 86954, Note_off_c, 0, 60, 108
1, 86973, Note_on_c, 0, 59, 100
1, 87109, Note_off_c, 0, 59, 100
1, 87119, Note_on_c, 0, 62, 105
1, 87148, Note_off_c, 0, 62, 105
1, 87166, Note_on_c, 0, 64, 118
1, 87279, Note_off_c, 0, 64, 118
1, 87289, Note_on_c, 0, 66, 113
1, 87520, Note_off_c, 0, 66, 113
1, 87528, Note_on_c, 0, 64, 118
1, 87636, Note_off_c, 0, 64, 118
1, 87929, Note_on_c, 0, 59, 106
1, 88022, Note_off_c, 0, 59, 106
1, 88050, Note_on_c, 0, 62, 107
1, 88089, Note_off_c, 0, 62, 107
1, 88105, Note_on_c, 0, 64, 119
1, 88218, Note_off_c, 0, 64, 119
1, 88225, Note_on_c, 0, 66, 115
1, 88463, Note_off_c, 0, 66, 115
1, 88489, Note_on_c, 0, 64, 114
1, 89064, Note_off_c, 0, 64, 114
1, 89074, Note_on_c, 0, 62, 118
1, 89196, Note_off_c, 0, 62, 118
1, 89597, Note_on_c, 0, 57, 104
1, 89811, Note_off_c, 0, 57, 104
1, 89821, Note_on_c, 0, 62, 111
1, 90407, Note_off_c, 0, 62, 111
1, 90421, Note_on_c, 0, 64, 113
1, 90539, Note_off_c, 0, 64, 113
1, 90550, Note_on_c, 0, 62, 115
1, 90718, Note_off_c, 0, 62, 115
1, 90739, Note_on_c, 0, 58, 105
1, 91164, Note_off_c, 0, 58, 105
1, 91201, Note_on_c, 0, 62, 112
1, 91290, Note_off_c, 0, 62, 112
1, 91328, Note_on_c, 0, 64, 112
1, 91577, Note_off_c, 0, 64, 112
1, 91600, Note_on_c, 0, 66, 116
1, 91720, Note_off_c, 0, 66, 116
1, 91746, Note_on_c, 0, 62, 113
1, 91951, Note_off_c, 0, 62, 113
1, 91981, Note_on_c, 0, 69, 113
1, 92076, Note_off_c, 0, 69, 113
1, 92114, Note_on_c, 0, 62, 114
1, 92326, Note_off_c, 0, 62, 114
1, 92339, Note_on_c, 0, 66, 114
1, 92471, Note_off_c, 0, 66, 114
1, 92486, Note_on_c, 0, 62, 112
1, 92704, Note_off_c, 0, 62, 112
1, 92738, Note_on_c, 0, 70, 111
1, 92844, Note_off_c, 0, 70, 111
1, 92866, Note_on_c, 0, 62, 113
1, 93104, Note_off_c, 0, 62, 113
1, 93127, Note_on_c, 0, 66, 9
1, 93205, Note_off_c, 0, 66, 9
1, 93512, Note_on_c, 0, 62, 103
1, 93633, Note_off_c, 0, 62, 103
1, 93638, Note_on_c, 0, 64, 105
1, 93691, Note_off_c, 0, 64, 105
1, 93699, Note_on_c, 0, 66, 116
1, 93793, Note_off_c, 0, 66, 116
1, 93817, Note_on_c, 0, 69, 111
1, 93923, Note_off_c, 0, 69, 111
1, 93934, Note_on_c, 0, 66, 110
1, 94004, Note_off_c, 0, 66, 110
1, 94071, Note_on_c, 0, 66, 114
1, 94175, Note_off_c, 0, 66, 114
1, 94197, Note_on_c, 0, 69, 108
1, 94285, Note_off_c, 0, 69, 108
1, 94343, Note_on_c, 0, 69, 110
1, 94430, Note_off_c, 0, 69, 110
1, 94470, Note_on_c, 0, 65, 111
1, 94546, Note_off_c, 0, 65, 111
1, 95144, Note_on_c, 0, 67, 112
1, 95213, Note_off_c, 0, 67, 112
1, 95235, Note_on_c, 0, 69, 110
1, 95327, Note_off_c, 0, 69, 110
1, 95336, Note_on_c, 0, 72, 117
1, 95406, Note_off_c, 0, 72, 117
1, 95422, Note_on_c, 0, 75, 107
1, 95498, Note_off_c, 0, 75, 107
1, 95513, Note_on_c, 0, 79, 112
1, 95594, Note_off_c, 0, 79, 112
1, 95622, Note_on_c, 0, 84, 114
1, 95695, Note_off_c, 0, 84, 114
1, 95716, Note_on_c, 0, 87, 118
1, 95814, Note_off_c, 0, 87, 118
1, 95817, Note_on_c, 0, 84, 113
1, 95926, Note_off_c, 0, 84, 113
1, 96002, Note_on_c, 0, 79, 112
1, 96111, Note_off_c, 0, 79, 112
1, 96120, Note_on_c, 0, 75, 111
1, 96202, Note_off_c, 0, 75, 111
1, 96236, Note_on_c, 0, 74, 110
1, 96322, Note_off_c, 0, 74, 110
1, 96395, Note_on_c, 0, 70, 108
1, 96423, Note_off_c, 0, 70, 108
1, 96427, Note_on_c, 0, 71, 110
1, 96513, Note_off_c, 0, 71, 110
1, 96519, Note_on_c, 0, 66, 110
1, 96754, Note_off_c, 0, 66, 110
1, 97067, Note_on_c, 0, 62, 109
1, 97116, Note_off_c, 0, 62, 109
1, 97124, Note_on_c, 0, 65, 109
1, 97159, Note_off_c, 0, 65, 109
1, 97182, Note_on_c, 0, 70, 108
1, 97213, Note_off_c, 0, 70, 108
1, 97228, Note_on_c, 0, 65, 102
1, 97258, Note_off_c, 0, 65, 102
1, 97269, Note_on_c, 0, 62, 109
1, 97321, Note_off_c, 0, 62, 109
1, 97345, Note_on_c, 0, 65, 111
1, 97432, Note_off_c, 0, 65, 111
1, 97448, Note_on_c, 0, 71, 110
1, 97507, Note_off_c, 0, 71, 110
1, 97535, Note_on_c, 0, 74, 111
1, 97609, Note_off_c, 0, 74, 111
1, 97633, Note_on_c, 0, 77, 115
1, 97717, Note_off_c, 0, 77, 115
1, 97738, Note_on_c, 0, 76, 116
1, 97810, Note_off_c, 0, 76, 116
1, 97899, Note_on_c, 0, 66, 103
1, 97923, Note_off_c, 0, 66, 103
1, 97927, Note_on_c, 0, 67, 101
1, 98212, Note_off_c, 0, 67, 101
1, 98225, Note_on_c, 0, 60, 99
1, 98282, Note_off_c, 0, 60, 99
1, 98315, Note_on_c, 0, 64, 110
1, 98394, Note_off_c, 0, 64, 110
1, 98417, Note_on_c, 0, 67, 108
1, 98505, Note_off_c, 0, 67, 108
1, 98517, Note_on_c, 0, 66, 108
1, 98576, Note_off_c, 0, 66, 108
1, 98676, Note_on_c, 0, 66, 111
1, 98860, Note_off_c, 0, 66, 111
1, 98871, Note_on_c, 0, 69, 105
1, 99036, Note_off_c, 0, 69, 105
1, 99063, Note_on_c, 0, 69, 105
1, 99231, Note_off_c, 0, 69, 105
1, 99256, Note_on_c, 0, 69, 104
1, 99360, Note_off_c, 0, 69, 104
1, 99369, Note_on_c, 0, 67, 105
1, 99600, Note_off_c, 0, 67, 105
1, 99629, Note_on_c, 0, 67, 102
1, 99698, Note_off_c, 0, 67, 102
1, 99698, End_track
0, 0, End_of_file
