0, 0, Header, 1, 1, 192
1, 0, Start_track
1, 0, Title_t, "Melody"
1, 0, Tempo, 233463
1, 0, Key_signature, -1, "major"
1, 0, Time_signature, 4, 2, 24, 8
1, 3252, Note_on_c, 0, 64, 106
1, 3369, Note_off_c, 0, 64, 106
1, 3424, Note_on_c, 0, 65, 113
1, 3526, Note_off_c, 0, 65, 113
1, 3606, Note_on_c, 0, 61, 122
1, 3676, Note_off_c, 0, 61, 122
1, 3719, Note_on_c, 0, 62, 122
1, 4148, Note_off_c, 0, 62, 122
1, 4216, Note_on_c, 0, 60, 124
1, 4484, Note_off_c, 0, 60, 124
1, 4529, Note_on_c, 0, 57, 124
1, 4612, Note_off_c, 0, 57, 124
1, 4625, Note_on_c, 0, 53, 122
1, 4724, Note_off_c, 0, 53, 122
1, 4850, Note_on_c, 0, 50, 111
1, 4974, Note_off_c, 0, 50, 111
1, 5030, Note_on_c, 0, 48, 117
1, 5318, Note_off_c, 0, 48, 117
1, 5828, Note_on_c, 0, 52, 120
1, 5930, Note_off_c, 0, 52, 120
1, 5935, Note_on_c, 0, 54, 114
1, 6028, Note_off_c, 0, 54, 114
1, 6058, Note_on_c, 0, 55, 117
1, 6136, Note_off_c, 0, 55, 117
1, 6149, Note_on_c, 0, 57, 112
1, 6236, Note_off_c, 0, 57, 112
1, 6262, Note_on_c, 0, 60, 114
1, 6334, Note_off_c, 0, 60, 114
1, 6364, Note_on_c, 0, 60, 114
1, 6444, Note_off_c, 0, 60, 114
1, 6449, Note_on_c, 0, 57, 119
1, 6532, Note_off_c, 0, 57, 119
1, 6535, Note_on_c, 0, 58, 116
1, 6607, Note_off_c, 0, 58, 116
1, 6650, Note_on_c, 0, 55, 115
1, 6730, Note_off_c, 0, 55, 115
1, 6730, Note_on_c, 0, 57, 117
1, 6797, Note_off_c, 0, 57, 117
1, 6837, Note_on_c, 0, 55, 118
1, 6927, Note_off_c, 0, 55, 118
1, 6930, Note_on_c, 0, 54, 109
1, 7037, Note_off_c, 0, 54, 109
1, 7053, Note_on_c, 0, 58, 113
1, 7135, Note_off_c, 0, 58, 113
1, 7140, Note_on_c, 0, 60, 105
1, 7212, Note_off_c, 0, 60, 105
1, 7218, Note_on_c, 0, 63, 109
1, 7322, Note_off_c, 0, 63, 109
1, 7335, Note_on_c, 0, 60, 108
1, 7422, Note_off_c, 0, 60, 108
1, 7433, Note_on_c, 0, 61, 119
1, 7500, Note_off_c, 0, 61, 119
1, 7510, Note_on_c, 0, 62, 109
1, 7603, Note_off_c, 0, 62, 109
1, 7621, Note_on_c, 0, 57, 112
1, 7709, Note_off_c, 0, 57, 112
1, 7719, Note_on_c, 0, 60, 100
1, 7819, Note_off_c, 0, 60, 100
1, 7871, Note_on_c, 0, 60, 115
1, 8075, Note_off_c, 0, 60, 115
1, 8118, Note_on_c, 0, 60, 116
1, 8200, Note_off_c, 0, 60, 116
1, 8226, Note_on_c, 0, 60, 114
1, 8392, Note_off_c, 0, 60, 114
1, 8412, Note_on_c, 0, 62, 114
1, 8448, Note_off_c, 0, 62, 114
1, 8458, Note_on_c, 0, 64, 116
1, 8501, Note_off_c, 0, 64, 116
1, 8519, Note_on_c, 0, 65, 98
1, 8607, Note_off_c, 0, 65, 98
1, 8754, Note_on_c, 0, 53, 119
1, 8829, Note_off_c, 0, 53, 119
1, 8849, Note_on_c, 0, 58, 117
1, 8966, Note_off_c, 0, 58, 117
1, 9014, Note_on_c, 0, 58, 114
1, 9143, Note_off_c, 0, 58, 114
1, 9163, Note_on_c, 0, 55, 116
1, 9246, Note_off_c, 0, 55, 116
1, 9365, Note_on_c, 0, 66, 109
1, 9464, Note_off_c, 0, 66, 109
1, 9628, Note_on_c, 0, 65, 112
1, 9809, Note_off_c, 0, 65, 112
1, 9824, Note_on_c, 0, 62, 111
1, 9949, Note_off_c, 0, 62, 111
1, 10009, Note_on_c, 0, 65, 122
1, 10233, Note_off_c, 0, 65, 122
1, 10328, Note_on_c, 0, 68, 117
1, 10408, Note_off_c, 0, 68, 117
1, 10413, Note_on_c, 0, 69, 117
1, 10471, Note_off_c, 0, 69, 117
1, 10487, Note_on_c, 0, 70, 117
1, 10567, Note_off_c, 0, 70, 117
1, 11035, Note_on_c, 0, 69, 104
1, 11092, Note_off_c, 0, 69, 104
1, 11110, Note_on_c, 0, 70, 112
1, 12409, Note_off_c, 0, 70, 112
1, 12435, Note_on_c, 0, 69, 114
1, 12542, Note_off_c, 0, 69, 114
1, 12666, Note_on_c, 0, 67, 112
1, 12786, Note_off_c, 0, 67, 112
1, 13009, Note_on_c, 0, 65, 116
1, 13136, Note_off_c, 0, 65, 116
1, 13152, Note_on_c, 0, 64, 110
1, 13267, Note_off_c, 0, 64, 110
1, 13283, Note_on_c, 0, 64, 122
1, 13662, Note_off_c, 0, 64, 122
1, 13714, Note_on_c, 0, 62, 124
1, 13804, Note_off_c, 0, 62, 124
1, 13809, Note_on_c, 0, 61, 121
1, 13919, Note_off_c, 0, 61, 121
1, 13920, Note_on_c, 0, 64, 116
1, 13985, Note_off_c, 0, 64, 116
1, 14005, Note_on_c, 0, 59, 121
1, 14093, Note_off_c, 0, 59, 121
1, 14102, Note_on_c, 0, 52, 113
1, 14175, Note_off_c, 0, 52, 113
1, 14207, Note_on_c, 0, 57, 123
1, 14291, Note_off_c, 0, 57, 123
1, 14317, Note_on_c, 0, 60, 115
1, 14401, Note_off_c, 0, 60, 115
1, 14405, Note_on_c, 0, 61, 117
1, 14483, Note_off_c, 0, 61, 117
1, 14499, Note_on_c, 0, 65, 115
1, 14575, Note_off_c, 0, 65, 115
1, 14595, Note_on_c, 0, 60, 94
1, 14725, Note_off_c, 0, 60, 94
1, 14942, Note_on_c, 0, 60, 118
1, 15024, Note_off_c, 0, 60, 118
1, 15037, Note_on_c, 0, 62, 114
1, 15120, Note_off_c, 0, 62, 114
1, 15145, Note_on_c, 0, 64, 107
1, 15213, Note_off_c, 0, 64, 107
1, 15216, Note_on_c, 0, 67, 109
1, 15308, Note_off_c, 0, 67, 109
1, 15317, Note_on_c, 0, 66, 107
1, 15390, Note_off_c, 0, 66, 107
1, 15418, Note_on_c, 0, 62, 117
1, 15489, Note_off_c, 0, 62, 117
1, 15512, Note_on_c, 0, 65, 114
1, 15580, Note_off_c, 0, 65, 114
1, 15612, Note_on_c, 0, 62, 114
1, 15689, Note_off_c, 0, 62, 114
1, 15709, Note_on_c, 0, 58, 120
1, 15788, Note_off_c, 0, 58, 120
1, 15803, Note_on_c, 0, 53, 117
1, 15860, Note_off_c, 0, 53, 117
1, 15879, Note_on_c, 0, 64, 119
1, 15960, Note_off_c, 0, 64, 119
1, 15964, Note_on_c, 0, 63, 111
1, 16030, Note_off_c, 0, 63, 111
1, 16051, Note_on_c, 0, 62, 122
1, 16129, Note_off_c, 0, 62, 122
1, 16160, Note_on_c, 0, 61, 117
1, 16247, Note_off_c, 0, 61, 117
1, 16260, Note_on_c, 0, 60, 117
1, 16323, Note_off_c, 0, 60, 117
1, 16340, Note_on_c, 0, 57, 117
1, 16406, Note_off_c, 0, 57, 117
1, 16427, Note_on_c, 0, 58, 121
1, 16497, Note_off_c, 0, 58, 121
1, 16511, Note_on_c, 0, 61, 114
1, 16550, Note_off_c, 0, 61, 114
1, 16577, Note_on_c, 0, 58, 115
1, 16678, Note_off_c, 0, 58, 115
1, 16713, Note_on_c, 0, 55, 116
1, 16818, Note_off_c, 0, 55, 116
1, 16833, Note_on_c, 0, 53, 113
1, 17145, Note_off_c, 0, 53, 113
1, 17235, Note_on_c, 0, 52, 116
1, 17305, Note_off_c, 0, 52, 116
1, 17314, Note_on_c, 0, 55, 117
1, 17372, Note_off_c, 0, 55, 117
1, 17382, Note_on_c, 0, 57, 116
1, 17459, Note_off_c, 0, 57, 116
1, 17485, Note_on_c, 0, 61, 116
1, 17575, Note_off_c, 0, 61, 116
1, 17594, Note_on_c, 0, 64, 115
1, 17647, Note_off_c, 0, 64, 115
1, 17688, Note_on_c, 0, 64, 118
1, 17750, Note_off_c, 0, 64, 118
1, 17753, Note_on_c, 0, 62, 118
1, 17822, Note_off_c, 0, 62, 118
1, 17835, Note_on_c, 0, 61, 113
1, 17920, Note_off_c, 0, 61, 113
1, 17952, Note_on_c, 0, 60, 115
1, 18023, Note_off_c, 0, 60, 115
1, 18048, Note_on_c, 0, 57, 121
1, 18129, Note_off_c, 0, 57, 121
1, 18138, Note_on_c, 0, 58, 119
1, 18208, Note_off_c, 0, 58, 119
1, 18223, Note_on_c, 0, 61, 115
1, 18269, Note_off_c, 0, 61, 115
1, 18272, Note_on_c, 0, 60, 119
1, 18297, Note_off_c, 0, 60, 119
1, 18336, Note_on_c, 0, 57, 110
1, 18461, Note_off_c, 0, 57, 110
1, 18549, Note_on_c, 0, 54, 111
1, 18615, Note_off_c, 0, 54, 111
1, 18651, Note_on_c, 0, 57, 115
1, 18722, Note_off_c, 0, 57, 115
1, 18731, Note_on_c, 0, 60, 119
1, 18797, Note_off_c, 0, 60, 119
1, 18822, Note_on_c, 0, 65, 111
1, 18887, Note_off_c, 0, 65, 111
1, 18897, Note_on_c, 0, 60, 108
1, 18976, Note_off_c, 0, 60, 108
1, 19012, Note_on_c, 0, 61, 119
1, 19083, Note_off_c, 0, 61, 119
1, 19090, Note_on_c, 0, 62, 117
1, 19173, Note_off_c, 0, 62, 117
1, 19188, Note_on_c, 0, 58, 119
1, 19278, Note_off_c, 0, 58, 119
1, 19282, Note_on_c, 0, 57, 116
1, 19365, Note_off_c, 0, 57, 116
1, 19391, Note_on_c, 0, 60, 105
1, 19639, Note_off_c, 0, 60, 105
1, 20053, Note_on_c, 0, 72, 112
1, 20142, Note_off_c, 0, 72, 112
1, 20200, Note_on_c, 0, 70, 110
1, 20277, Note_off_c, 0, 70, 110
1, 20352, Note_on_c, 0, 62, 104
1, 20420, Note_off_c, 0, 62, 104
1, 20431, Note_on_c, 0, 66, 108
1, 20513, Note_off_c, 0, 66, 108
1, 20579, Note_on_c, 0, 71, 101
1, 20670, Note_off_c, 0, 71, 101
1, 20747, Note_on_c, 0, 67, 111
1, 20842, Note_off_c, 0, 67, 111
1, 20941, Note_on_c, 0, 65, 115
1, 21020, Note_off_c, 0, 65, 115
1, 21029, Note_on_c, 0, 64, 122
1, 21111, Note_off_c, 0, 64, 122
1, 21125, Note_on_c, 0, 62, 119
1, 21197, Note_off_c, 0, 62, 119
1, 21207, Note_on_c, 0, 60, 116
1, 21292, Note_off_c, 0, 60, 116
1, 21303, Note_on_c, 0, 58, 123
1, 21375, Note_off_c, 0, 58, 123
1, 21392, Note_on_c, 0, 57, 117
1, 21471, Note_off_c, 0, 57, 117
1, 21513, Note_on_c, 0, 60, 118
1, 21579, Note_off_c, 0, 60, 118
1, 21602, Note_on_c, 0, 64, 108
1, 21674, Note_off_c, 0, 64, 108
1, 21685, Note_on_c, 0, 67, 109
1, 21815, Note_off_c, 0, 67, 109
1, 21872, Note_on_c, 0, 67, 101
1, 21988, Note_off_c, 0, 67, 101
1, 22070, Note_on_c, 0, 65, 112
1, 22166, Note_off_c, 0, 65, 112
1, 22276, Note_on_c, 0, 62, 115
1, 22381, Note_off_c, 0, 62, 115
1, 22439, Note_on_c, 0, 65, 109
1, 22511, Note_off_c, 0, 65, 109
1, 22546, Note_on_c, 0, 59, 112
1, 22677, Note_off_c, 0, 59, 112
1, 22728, Note_on_c, 0, 62, 109
1, 22810, Note_off_c, 0, 62, 109
1, 22830, Note_on_c, 0, 59, 108
1, 22909, Note_off_c, 0, 59, 108
1, 22909, Note_on_c, 0, 60, 114
1, 23003, Note_off_c, 0, 60, 114
1, 23019, Note_on_c, 0, 57, 116
1, 23088, Note_off_c, 0, 57, 116
1, 23111, Note_on_c, 0, 53, 121
1, 23220, Note_off_c, 0, 53, 121
1, 23320, Note_on_c, 0, 56, 123
1, 23397, Note_off_c, 0, 56, 123
1, 23407, Note_on_c, 0, 57, 122
1, 23475, Note_off_c, 0, 57, 122
1, 23483, Note_on_c, 0, 58, 119
1, 23862, Note_off_c, 0, 58, 119
1, 23878, Note_on_c, 0, 56, 119
1, 23973, Note_off_c, 0, 56, 119
1, 24003, Note_on_c, 0, 54, 119
1, 24085, Note_off_c, 0, 54, 119
1, 24170, Note_on_c, 0, 64, 106
1, 24265, Note_off_c, 0, 64, 106
1, 24371, Note_on_c, 0, 61, 116
1, 24440, Note_off_c, 0, 61, 116
1, 24447, Note_on_c, 0, 62, 115
1, 24535, Note_off_c, 0, 62, 115
1, 24547, Note_on_c, 0, 58, 117
1, 24629, Note_off_c, 0, 58, 117
1, 24645, Note_on_c, 0, 58, 118
1, 24712, Note_off_c, 0, 58, 118
1, 24740, Note_on_c, 0, 58, 115
1, 24812, Note_off_c, 0, 58, 115
1, 24840, Note_on_c, 0, 58, 122
1, 24900, Note_off_c, 0, 58, 122
1, 24936, Note_on_c, 0, 58, 117
1, 25004, Note_off_c, 0, 58, 117
1, 25019, Note_on_c, 0, 58, 122
1, 25094, Note_off_c, 0, 58, 122
1, 25117, Note_on_c, 0, 57, 119
1, 25184, Note_off_c, 0, 57, 119
1, 25220, Note_on_c, 0, 59, 115
1, 25290, Note_off_c, 0, 59, 115
1, 25296, Note_on_c, 0, 60, 102
1, 25378, Note_off_c, 0, 60, 102
1, 25408, Note_on_c, 0, 59, 121
1, 25480, Note_off_c, 0, 59, 121
1, 25480, Note_on_c, 0, 60, 112
1, 25567, Note_off_c, 0, 60, 112
1, 26314, Note_on_c, 0, 60, 118
1, 26374, Note_off_c, 0, 60, 118
1, 26388, Note_on_c, 0, 62, 116
1, 26451, Note_off_c, 0, 62, 116
1, 26480, Note_on_c, 0, 65, 122
1, 26556, Note_off_c, 0, 65, 122
1, 26569, Note_on_c, 0, 64, 105
1, 26610, Note_off_c, 0, 64, 105
1, 27462, Note_on_c, 0, 72, 105
1, 27500, Note_off_c, 0, 72, 105
1, 27503, Note_on_c, 0, 73, 108
1, 27524, Note_off_c, 0, 73, 108
1, 27534, Note_on_c, 0, 74, 114
1, 27831, Note_off_c, 0, 74, 114
1, 27894, Note_on_c, 0, 72, 112
1, 27981, Note_off_c, 0, 72, 112
1, 28594, Note_on_c, 0, 70, 107
1, 28690, Note_off_c, 0, 70, 107
1, 28759, Note_on_c, 0, 69, 103
1, 28834, Note_off_c, 0, 69, 103
1, 28930, Note_on_c, 0, 65, 112
1, 29000, Note_off_c, 0, 65, 112
1, 29065, Note_on_c, 0, 60, 110
1, 29175, Note_off_c, 0, 60, 110
1, 29208, Note_on_c, 0, 60, 109
1, 29338, Note_off_c, 0, 60, 109
1, 29370, Note_on_c, 0, 60, 111
1, 29513, Note_off_c, 0, 60, 111
1, 29541, Note_on_c, 0, 60, 110
1, 29632, Note_off_c, 0, 60, 110
1, 29642, Note_on_c, 0, 59, 104
1, 29665, Note_off_c, 0, 59, 104
1, 30335, Note_on_c, 0, 62, 118
1, 30376, Note_off_c, 0, 62, 118
1, 30379, Note_on_c, 0, 63, 115
1, 30433, Note_off_c, 0, 63, 115
1, 30548, Note_on_c, 0, 64, 117
1, 30590, Note_off_c, 0, 64, 117
1, 30594, Note_on_c, 0, 65, 114
1, 30885, Note_off_c, 0, 65, 114
1, 30910, Note_on_c, 0, 62, 112
1, 31010, Note_off_c, 0, 62, 112
1, 31017, Note_on_c, 0, 61, 106
1, 31034, Note_off_c, 0, 61, 106
1, 31522, Note_on_c, 0, 62, 105
1, 31597, Note_off_c, 0, 62, 105
1, 31651, Note_on_c, 0, 68, 109
1, 31736, Note_off_c, 0, 68, 109
1, 31855, Note_on_c, 0, 65, 114
1, 31938, Note_off_c, 0, 65, 114
1, 32101, Note_on_c, 0, 65, 116
1, 32225, Note_off_c, 0, 65, 116
1, 32273, Note_on_c, 0, 65, 117
1, 32405, Note_off_c, 0, 65, 117
1, 32493, Note_on_c, 0, 59, 116
1, 32546, Note_off_c, 0, 59, 116
1, 32548, Note_on_c, 0, 60, 117
1, 32635, Note_off_c, 0, 60, 117
1, 32637, Note_on_c, 0, 59, 114
1, 32656, Note_off_c, 0, 59, 114
1, 32665, Note_on_c, 0, 58, 110
1, 32687, Note_off_c, 0, 58, 110
1, 33136, Note_on_c, 0, 59, 116
1, 33206, Note_off_c, 0, 59, 116
1, 33215, Note_on_c, 0, 58, 117
1, 33341, Note_off_c, 0, 58, 117
1, 33349, Note_on_c, 0, 59, 120
1, 33403, Note_off_c, 0, 59, 120
1, 33417, Note_on_c, 0, 56, 117
1, 33512, Note_off_c, 0, 56, 117
1, 33631, Note_on_c, 0, 53, 119
1, 33758, Note_off_c, 0, 53, 119
1, 33830, Note_on_c, 0, 53, 116
1, 33952, Note_off_c, 0, 53, 116
1, 33969, Note_on_c, 0, 52, 126
1, 33994, Note_off_c, 0, 52, 126
1, 34530, Note_on_c, 0, 61, 116
1, 34563, Note_off_c, 0, 61, 116
1, 34570, Note_on_c, 0, 62, 97
1, 34618, Note_off_c, 0, 62, 97
1, 34687, Note_on_c, 0, 60, 110
1, 34750, Note_off_c, 0, 60, 110
1, 34786, Note_on_c, 0, 58, 117
1, 34943, Note_off_c, 0, 58, 117
1, 34965, Note_on_c, 0, 56, 116
1, 35097, Note_off_c, 0, 56, 116
1, 35161, Note_on_c, 0, 57, 118
1, 35276, Note_off_c, 0, 57, 118
1, 35346, Note_on_c, 0, 65, 111
1, 35473, Note_off_c, 0, 65, 111
1, 35536, Note_on_c, 0, 62, 91
1, 35755, Note_off_c, 0, 62, 91
1, 36246, Note_on_c, 0, 67, 114
1, 36841, Note_off_c, 0, 67, 114
1, 36881, Note_on_c, 0, 65, 111
1, 36994, Note_off_c, 0, 65, 111
1, 37083, Note_on_c, 0, 64, 113
1, 37182, Note_off_c, 0, 64, 113
1, 37229, Note_on_c, 0, 62, 108
1, 37301, Note_off_c, 0, 62, 108
1, 37376, Note_on_c, 0, 64, 103
1, 37654, Note_off_c, 0, 64, 103
1, 37671, Note_on_c, 0, 62, 116
1, 37795, Note_off_c, 0, 62, 116
1, 37891, Note_on_c, 0, 59, 115
1, 37948, Note_off_c, 0, 59, 115
1, 37980, Note_on_c, 0, 61, 112
1, 38246, Note_off_c, 0, 61, 112
1, 38280, Note_on_c, 0, 64, 108
1, 38342, Note_off_c, 0, 64, 108
1, 38368, Note_on_c, 0, 66, 111
1, 38426, Note_off_c, 0, 66, 111
1, 38483, Note_on_c, 0, 68, 107
1, 38567, Note_off_c, 0, 68, 107
1, 38667, Note_on_c, 0, 66, 112
1, 38725, Note_off_c, 0, 66, 112
1, 38734, Note_on_c, 0, 64, 109
1, 38827, Note_off_c, 0, 64, 109
1, 38854, Note_on_c, 0, 61, 107
1, 38916, Note_off_c, 0, 61, 107
1, 38927, Note_on_c, 0, 59, 100
1, 39018, Note_off_c, 0, 59, 100
1, 39164, Note_on_c, 0, 53, 109
1, 39289, Note_off_c, 0, 53, 109
1, 39342, Note_on_c, 0, 60, 118
1, 39375, Note_off_c, 0, 60, 118
1, 39384, Note_on_c, 0, 62, 111
1, 39418, Note_off_c, 0, 62, 111
1, 39452, Note_on_c, 0, 60, 115
1, 39516, Note_off_c, 0, 60, 115
1, 39541, Note_on_c, 0, 56, 102
1, 39610, Note_off_c, 0, 56, 102
1, 40027, Note_on_c, 0, 53, 118
1, 40091, Note_off_c, 0, 53, 118
1, 40106, Note_on_c, 0, 58, 121
1, 40184, Note_off_c, 0, 58, 121
1, 40207, Note_on_c, 0, 54, 118
1, 40275, Note_off_c, 0, 54, 118
1, 40286, Note_on_c, 0, 58, 121
1, 40357, Note_off_c, 0, 58, 121
1, 40378, Note_on_c, 0, 62, 123
1, 40428, Note_off_c, 0, 62, 123
1, 40438, Note_on_c, 0, 61, 106
1, 40476, Note_off_c, 0, 61, 106
1, 40493, Note_on_c, 0, 59, 113
1, 40577, Note_off_c, 0, 59, 113
1, 40586, Note_on_c, 0, 55, 119
1, 40657, Note_off_c, 0, 55, 119
1, 40676, Note_on_c, 0, 59, 117
1, 40747, Note_off_c, 0, 59, 117
1, 40770, Note_on_c, 0, 63, 113
1, 40847, Note_off_c, 0, 63, 113
1, 40854, Note_on_c, 0, 60, 120
1, 40937, Note_off_c, 0, 60, 120
1, 40956, Note_on_c, 0, 57, 123
1, 41037, Note_off_c, 0, 57, 123
1, 41048, Note_on_c, 0, 52, 127
1, 41132, Note_off_c, 0, 52, 127
1, 41164, Note_on_c, 0, 50, 121
1, 41241, Note_off_c, 0, 50, 121
1, 41254, Note_on_c, 0, 48, 123
1, 41325, Note_off_c, 0, 48, 123
1, 41350, Note_on_c, 0, 50, 121
1, 41440, Note_off_c, 0, 50, 121
1, 41447, Note_on_c, 0, 52, 119
1, 41513, Note_off_c, 0, 52, 119
1, 41529, Note_on_c, 0, 57, 118
1, 41594, Note_off_c, 0, 57, 118
1, 41607, Note_on_c, 0, 55, 124
1, 41690, Note_off_c, 0, 55, 124
1, 41713, Note_on_c, 0, 52, 121
1, 41803, Note_off_c, 0, 52, 121
1, 41806, Note_on_c, 0, 53, 117
1, 41876, Note_off_c, 0, 53, 117
1, 41907, Note_on_c, 0, 55, 120
1, 41983, Note_off_c, 0, 55, 120
1, 41992, Note_on_c, 0, 57, 120
1, 42074, Note_off_c, 0, 57, 120
1, 42090, Note_on_c, 0, 60, 114
1, 42159, Note_off_c, 0, 60, 114
1, 42172, Note_on_c, 0, 57, 104
1, 42237, Note_off_c, 0, 57, 104
1, 42266, Note_on_c, 0, 57, 126
1, 42335, Note_off_c, 0, 57, 126
1, 42348, Note_on_c, 0, 58, 120
1, 42430, Note_off_c, 0, 58, 120
1, 42462, Note_on_c, 0, 55, 118
1, 42550, Note_off_c, 0, 55, 118
1, 42550, Note_on_c, 0, 57, 118
1, 42635, Note_off_c, 0, 57, 118
1, 42650, Note_on_c, 0, 58, 115
1, 42731, Note_off_c, 0, 58, 115
1, 42751, Note_on_c, 0, 58, 117
1, 42816, Note_off_c, 0, 58, 117
1, 42843, Note_on_c, 0, 60, 114
1, 42911, Note_off_c, 0, 60, 114
1, 42938, Note_on_c, 0, 61, 113
1, 43020, Note_off_c, 0, 61, 113
1, 43040, Note_on_c, 0, 62, 113
1, 43111, Note_off_c, 0, 62, 113
1, 43118, Note_on_c, 0, 63, 112
1, 43177, Note_off_c, 0, 63, 112
1, 43212, Note_on_c, 0, 65, 108
1, 43278, Note_off_c, 0, 65, 108
1, 43291, Note_on_c, 0, 64, 110
1, 43350, Note_off_c, 0, 64, 110
1, 43394, Note_on_c, 0, 65, 106
1, 43484, Note_off_c, 0, 65, 106
1, 43542, Note_on_c, 0, 66, 114
1, 43791, Note_off_c, 0, 66, 114
1, 43841, Note_on_c, 0, 65, 116
1, 43900, Note_off_c, 0, 65, 116
1, 43994, Note_on_c, 0, 62, 110
1, 44109, Note_off_c, 0, 62, 110
1, 44177, Note_on_c, 0, 59, 118
1, 44262, Note_off_c, 0, 59, 118
1, 44279, Note_on_c, 0, 62, 115
1, 44435, Note_off_c, 0, 62, 115
1, 44463, Note_on_c, 0, 59, 119
1, 44552, Note_off_c, 0, 59, 119
1, 44572, Note_on_c, 0, 57, 116
1, 44645, Note_off_c, 0, 57, 116
1, 44656, Note_on_c, 0, 55, 118
1, 44755, Note_off_c, 0, 55, 118
1, 45000, Note_on_c, 0, 56, 117
1, 45100, Note_off_c, 0, 56, 117
1, 45160, Note_on_c, 0, 61, 113
1, 45270, Note_off_c, 0, 61, 113
1, 45329, Note_on_c, 0, 64, 106
1, 45417, Note_off_c, 0, 64, 106
1, 45516, Note_on_c, 0, 62, 111
1, 45609, Note_off_c, 0, 62, 111
1, 45700, Note_on_c, 0, 60, 112
1, 45778, Note_off_c, 0, 60, 112
1, 45898, Note_on_c, 0, 57, 114
1, 45992, Note_off_c, 0, 57, 114
1, 46074, Note_on_c, 0, 61, 114
1, 46150, Note_off_c, 0, 61, 114
1, 46166, Note_on_c, 0, 65, 122
1, 46247, Note_off_c, 0, 65, 122
1, 46273, Note_on_c, 0, 62, 105
1, 46370, Note_off_c, 0, 62, 105
1, 46682, Note_on_c, 0, 65, 111
1, 46779, Note_off_c, 0, 65, 111
1, 46837, Note_on_c, 0, 63, 110
1, 46922, Note_off_c, 0, 63, 110
1, 46931, Note_on_c, 0, 65, 115
1, 47025, Note_off_c, 0, 65, 115
1, 47045, Note_on_c, 0, 62, 116
1, 47096, Note_off_c, 0, 62, 116
1, 47425, Note_on_c, 0, 65, 114
1, 47501, Note_off_c, 0, 65, 114
1, 47574, Note_on_c, 0, 62, 109
1, 47653, Note_off_c, 0, 62, 109
1, 47687, Note_on_c, 0, 65, 116
1, 47780, Note_off_c, 0, 65, 116
1, 47811, Note_on_c, 0, 63, 107
1, 47882, Note_off_c, 0, 63, 107
1, 47969, Note_on_c, 0, 72, 108
1, 48053, Note_off_c, 0, 72, 108
1, 48165, Note_on_c, 0, 69, 110
1, 48247, Note_off_c, 0, 69, 110
1, 48366, Note_on_c, 0, 58, 98
1, 48434, Note_off_c, 0, 58, 98
1, 48455, Note_on_c, 0, 65, 106
1, 48551, Note_off_c, 0, 65, 106
1, 48571, Note_on_c, 0, 62, 107
1, 48652, Note_off_c, 0, 62, 107
1, 48958, Note_on_c, 0, 65, 104
1, 49008, Note_off_c, 0, 65, 104
1, 49118, Note_on_c, 0, 69, 105
1, 49165, Note_off_c, 0, 69, 105
1, 49207, Note_on_c, 0, 72, 106
1, 49279, Note_off_c, 0, 72, 106
1, 49296, Note_on_c, 0, 70, 101
1, 49367, Note_off_c, 0, 70, 101
1, 49380, Note_on_c, 0, 72, 121
1, 49455, Note_off_c, 0, 72, 121
1, 49495, Note_on_c, 0, 72, 106
1, 49555, Note_off_c, 0, 72, 106
1, 49570, Note_on_c, 0, 70, 112
1, 49627, Note_off_c, 0, 70, 112
1, 49635, Note_on_c, 0, 71, 118
1, 49666, Note_off_c, 0, 71, 118
1, 49671, Note_on_c, 0, 72, 121
1, 50053, Note_off_c, 0, 72, 121
1, 50172, Note_on_c, 0, 71, 114
1, 50243, Note_off_c, 0, 71, 114
1, 50270, Note_on_c, 0, 70, 113
1, 50385, Note_off_c, 0, 70, 113
1, 50485, Note_on_c, 0, 68, 119
1, 50554, Note_off_c, 0, 68, 119
1, 50643, Note_on_c, 0, 65, 113
1, 50716, Note_off_c, 0, 65, 113
1, 50838, Note_on_c, 0, 63, 111
1, 50913, Note_off_c, 0, 63, 111
1, 51033, Note_on_c, 0, 60, 119
1, 51104, Note_off_c, 0, 60, 119
1, 51211, Note_on_c, 0, 58, 124
1, 51283, Note_off_c, 0, 58, 124
1, 51284, Note_on_c, 0, 59, 117
1, 51347, Note_off_c, 0, 59, 117
1, 51385, Note_on_c, 0, 65, 116
1, 51449, Note_off_c, 0, 65, 116
1, 51471, Note_on_c, 0, 60, 115
1, 51582, Note_off_c, 0, 60, 115
1, 51614, Note_on_c, 0, 57, 116
1, 51660, Note_off_c, 0, 57, 116
1, 51706, Note_on_c, 0, 53, 114
1, 51766, Note_off_c, 0, 53, 114
1, 51766, End_track
0, 0, End_of_file
