0, 0, Header, 1, 1, 192
1, 0, Start_track
1, 0, Title_t, "Melody"
1, 0, Tempo, 571428
1, 0, Time_signature, 4, 2, 24, 8
1, 3211, Note_on_c, 0, 72, 116
1, 3277, Note_on_c, 0, 70, 115
1, 3277, Note_off_c, 0, 72, 116
1, 3327, Note_off_c, 0, 70, 115
1, 3327, Note_on_c, 0, 67, 115
1, 3366, Note_on_c, 0, 63, 108
1, 3366, Note_off_c, 0, 67, 115
1, 3408, Note_off_c, 0, 63, 108
1, 3419, Note_on_c, 0, 62, 113
1, 3446, Note_off_c, 0, 62, 113
1, 3457, Note_on_c, 0, 65, 123
1, 3503, Note_off_c, 0, 65, 123
1, 3503, Note_on_c, 0, 72, 119
1, 3542, Note_off_c, 0, 72, 119
1, 3549, Note_on_c, 0, 70, 118
1, 3642, Note_off_c, 0, 70, 118
1, 4008, Note_on_c, 0, 65, 121
1, 4070, Note_off_c, 0, 65, 121
1, 4077, Note_on_c, 0, 72, 121
1, 4116, Note_off_c, 0, 72, 121
1, 4131, Note_on_c, 0, 70, 117
1, 4197, Note_off_c, 0, 70, 117
1, 4309, Note_on_c, 0, 65, 87
1, 4348, Note_off_c, 0, 65, 87
1, 4358, Note_on_c, 0, 67, 110
1, 4443, Note_off_c, 0, 67, 110
1, 4678, Note_on_c, 0, 65, 116
1, 4728, Note_off_c, 0, 65, 116
1, 4728, Note_on_c, 0, 70, 118
1, 4786, Note_off_c, 0, 70, 118
1, 4832, Note_on_c, 0, 70, 117
1, 4871, Note_off_c, 0, 70, 117
1, 4871, Note_on_c, 0, 67, 119
1, 4925, Note_off_c, 0, 67, 119
1, 4952, Note_on_c, 0, 72, 116
1, 5026, Note_off_c, 0, 72, 116
1, 5029, Note_on_c, 0, 73, 122
1, 5083, Note_off_c, 0, 73, 122
1, 5125, Note_on_c, 0, 73, 122
1, 5152, Note_off_c, 0, 73, 122
1, 5159, Note_on_c, 0, 72, 116
1, 5244, Note_off_c, 0, 72, 116
1, 5255, Note_on_c, 0, 73, 121
1, 5313, Note_off_c, 0, 73, 121
1, 5313, Note_on_c, 0, 70, 115
1, 5351, Note_off_c, 0, 70, 115
1, 5389, Note_on_c, 0, 70, 97
1, 5421, Note_off_c, 0, 70, 97
1, 5421, Note_on_c, 0, 72, 111
1, 5631, Note_off_c, 0, 72, 111
1, 5646, Note_on_c, 0, 67, 116
1, 5689, Note_off_c, 0, 67, 116
1, 5694, Note_on_c, 0, 72, 114
1, 5743, Note_off_c, 0, 72, 114
1, 5743, Note_on_c, 0, 70, 116
1, 5786, Note_off_c, 0, 70, 116
1, 5799, Note_on_c, 0, 65, 119
1, 5831, Note_off_c, 0, 65, 119
1, 5839, Note_on_c, 0, 63, 106
1, 5899, Note_off_c, 0, 63, 106
1, 5923, Note_on_c, 0, 67, 117
1, 5972, Note_off_c, 0, 67, 117
1, 5972, Note_on_c, 0, 70, 113
1, 6018, Note_off_c, 0, 70, 113
1, 6020, Note_on_c, 0, 69, 119
1, 6077, Note_off_c, 0, 69, 119
1, 6104, Note_on_c, 0, 66, 114
1, 6156, Note_off_c, 0, 66, 114
1, 6158, Note_on_c, 0, 71, 112
1, 6212, Note_off_c, 0, 71, 112
1, 6220, Note_on_c, 0, 70, 113
1, 6261, Note_off_c, 0, 70, 113
1, 6274, Note_on_c, 0, 68, 120
1, 6328, Note_off_c, 0, 68, 120
1, 6349, Note_on_c, 0, 70, 107
1, 6390, Note_off_c, 0, 70, 107
1, 6409, Note_on_c, 0, 66, 115
1, 6477, Note_off_c, 0, 66, 115
1, 6487, Note_on_c, 0, 70, 115
1, 6533, Note_off_c, 0, 70, 115
1, 6533, Note_on_c, 0, 67, 102
1, 6554, Note_off_c, 0, 67, 102
1, 6586, Note_on_c, 0, 71, 100
1, 6627, Note_off_c, 0, 71, 100
1, 6659, Note_on_c, 0, 67, 113
1, 6700, Note_off_c, 0, 67, 113
1, 7125, Note_on_c, 0, 58, 105
1, 7174, Note_off_c, 0, 58, 105
1, 7174, Note_on_c, 0, 60, 112
1, 7209, Note_off_c, 0, 60, 112
1, 7211, Note_on_c, 0, 63, 107
1, 7254, Note_off_c, 0, 63, 107
1, 7259, Note_on_c, 0, 65, 125
1, 7308, Note_off_c, 0, 65, 125
1, 7308, Note_on_c, 0, 70, 120
1, 7360, Note_off_c, 0, 70, 120
1, 7362, Note_on_c, 0, 67, 121
1, 7397, Note_off_c, 0, 67, 121
1, 7405, Note_on_c, 0, 70, 115
1, 7451, Note_off_c, 0, 70, 115
1, 7451, Note_on_c, 0, 72, 118
1, 7503, Note_off_c, 0, 72, 118
1, 7508, Note_on_c, 0, 75, 115
1, 7549, Note_off_c, 0, 75, 115
1, 7551, Note_on_c, 0, 77, 116
1, 7605, Note_off_c, 0, 77, 116
1, 7613, Note_on_c, 0, 79, 108
1, 7643, Note_off_c, 0, 79, 108
1, 7673, Note_on_c, 0, 79, 105
1, 7733, Note_off_c, 0, 79, 105
1, 7741, Note_on_c, 0, 75, 109
1, 7872, Note_off_c, 0, 75, 109
1, 8187, Note_on_c, 0, 77, 114
1, 8230, Note_off_c, 0, 77, 114
1, 8235, Note_on_c, 0, 76, 119
1, 8251, Note_off_c, 0, 76, 119
1, 8251, Note_on_c, 0, 75, 115
1, 8272, Note_off_c, 0, 75, 115
1, 8274, Note_on_c, 0, 74, 108
1, 8471, Note_off_c, 0, 74, 108
1, 8594, Note_on_c, 0, 75, 110
1, 8626, Note_off_c, 0, 75, 110
1, 8626, Note_on_c, 0, 73, 115
1, 8661, Note_off_c, 0, 73, 115
1, 8663, Note_on_c, 0, 72, 115
1, 8693, Note_off_c, 0, 72, 115
1, 8714, Note_on_c, 0, 71, 113
1, 8763, Note_off_c, 0, 71, 113
1, 9105, Note_on_c, 0, 69, 120
1, 9148, Note_off_c, 0, 69, 120
1, 9148, Note_on_c, 0, 70, 117
1, 9427, Note_off_c, 0, 70, 117
1, 9440, Note_on_c, 0, 67, 120
1, 9483, Note_off_c, 0, 67, 120
1, 9493, Note_on_c, 0, 62, 111
1, 9534, Note_off_c, 0, 62, 111
1, 9534, Note_on_c, 0, 63, 110
1, 9586, Note_off_c, 0, 63, 110
1, 9588, Note_on_c, 0, 60, 96
1, 9626, Note_off_c, 0, 60, 96
1, 9672, Note_on_c, 0, 61, 115
1, 9724, Note_off_c, 0, 61, 115
1, 9732, Note_on_c, 0, 60, 112
1, 9789, Note_off_c, 0, 60, 112
1, 9794, Note_on_c, 0, 56, 111
1, 9862, Note_off_c, 0, 56, 111
1, 10202, Note_on_c, 0, 67, 120
1, 10248, Note_off_c, 0, 67, 120
1, 10248, Note_on_c, 0, 70, 113
1, 10286, Note_off_c, 0, 70, 113
1, 10286, Note_on_c, 0, 72, 116
1, 10343, Note_off_c, 0, 72, 116
1, 10343, Note_on_c, 0, 75, 113
1, 10381, Note_off_c, 0, 75, 113
1, 10400, Note_on_c, 0, 77, 119
1, 10438, Note_off_c, 0, 77, 119
1, 10443, Note_on_c, 0, 78, 118
1, 10492, Note_off_c, 0, 78, 118
1, 10492, Note_on_c, 0, 75, 117
1, 10546, Note_off_c, 0, 75, 117
1, 10554, Note_on_c, 0, 72, 118
1, 10586, Note_off_c, 0, 72, 118
1, 10627, Note_on_c, 0, 73, 122
1, 10676, Note_on_c, 0, 70, 117
1, 10676, Note_off_c, 0, 73, 122
1, 10755, Note_off_c, 0, 70, 117
1, 10768, Note_on_c, 0, 72, 111
1, 10836, Note_off_c, 0, 72, 111
1, 10849, Note_on_c, 0, 68, 120
1, 10920, Note_off_c, 0, 68, 120
1, 10920, Note_on_c, 0, 70, 120
1, 10964, Note_off_c, 0, 70, 120
1, 10964, Note_on_c, 0, 66, 121
1, 11038, Note_off_c, 0, 66, 121
1, 11039, Note_on_c, 0, 65, 120
1, 11099, Note_off_c, 0, 65, 120
1, 11108, Note_on_c, 0, 68, 117
1, 11180, Note_off_c, 0, 68, 117
1, 11203, Note_on_c, 0, 68, 121
1, 11255, Note_off_c, 0, 68, 121
1, 11258, Note_on_c, 0, 67, 119
1, 11304, Note_off_c, 0, 67, 119
1, 11304, Note_on_c, 0, 70, 116
1, 11339, Note_off_c, 0, 70, 116
1, 11342, Note_on_c, 0, 68, 119
1, 11431, Note_off_c, 0, 68, 119
1, 11431, Note_on_c, 0, 70, 114
1, 11483, Note_off_c, 0, 70, 114
1, 11483, Note_on_c, 0, 72, 104
1, 11713, Note_off_c, 0, 72, 104
1, 11806, Note_on_c, 0, 70, 116
1, 11866, Note_off_c, 0, 70, 116
1, 11866, Note_on_c, 0, 68, 121
1, 11910, Note_off_c, 0, 68, 121
1, 11910, Note_on_c, 0, 63, 104
1, 11964, Note_off_c, 0, 63, 104
1, 11967, Note_on_c, 0, 58, 102
1, 11998, Note_off_c, 0, 58, 102
1, 11998, Note_on_c, 0, 66, 122
1, 12050, Note_off_c, 0, 66, 122
1, 12055, Note_on_c, 0, 68, 120
1, 12092, Note_off_c, 0, 68, 120
1, 12099, Note_on_c, 0, 70, 111
1, 12212, Note_off_c, 0, 70, 111
1, 12212, Note_on_c, 0, 68, 121
1, 12256, Note_off_c, 0, 68, 121
1, 12257, Note_on_c, 0, 64, 106
1, 12301, Note_off_c, 0, 64, 106
1, 12312, Note_on_c, 0, 61, 108
1, 12343, Note_off_c, 0, 61, 108
1, 13331, Note_on_c, 0, 72, 116
1, 13385, Note_off_c, 0, 72, 116
1, 13425, Note_on_c, 0, 73, 121
1, 13635, Note_off_c, 0, 73, 121
1, 13644, Note_on_c, 0, 72, 117
1, 13688, Note_off_c, 0, 72, 117
1, 13693, Note_on_c, 0, 73, 123
1, 13732, Note_off_c, 0, 73, 123
1, 13739, Note_on_c, 0, 75, 116
1, 13779, Note_off_c, 0, 75, 116
1, 13780, Note_on_c, 0, 76, 118
1, 13820, Note_off_c, 0, 76, 118
1, 13821, Note_on_c, 0, 77, 114
1, 13873, Note_off_c, 0, 77, 114
1, 13880, Note_on_c, 0, 76, 118
1, 13917, Note_off_c, 0, 76, 118
1, 13917, Note_on_c, 0, 75, 113
1, 13959, Note_off_c, 0, 75, 113
1, 13966, Note_on_c, 0, 72, 116
1, 13995, Note_off_c, 0, 72, 116
1, 13995, Note_on_c, 0, 71, 117
1, 14037, Note_off_c, 0, 71, 117
1, 14040, Note_on_c, 0, 70, 114
1, 14057, Note_off_c, 0, 70, 114
1, 14057, Note_on_c, 0, 75, 114
1, 14094, Note_off_c, 0, 75, 114
1, 14095, Note_on_c, 0, 73, 121
1, 14149, Note_off_c, 0, 73, 121
1, 14189, Note_on_c, 0, 72, 113
1, 14239, Note_on_c, 0, 75, 108
1, 14239, Note_off_c, 0, 72, 113
1, 14285, Note_off_c, 0, 75, 108
1, 14298, Note_on_c, 0, 70, 116
1, 14344, Note_off_c, 0, 70, 116
1, 14349, Note_on_c, 0, 67, 120
1, 14382, Note_off_c, 0, 67, 120
1, 14387, Note_on_c, 0, 63, 106
1, 14437, Note_off_c, 0, 63, 106
1, 14485, Note_on_c, 0, 65, 121
1, 14531, Note_off_c, 0, 65, 121
1, 14531, Note_on_c, 0, 70, 118
1, 14575, Note_off_c, 0, 70, 118
1, 14575, Note_on_c, 0, 67, 115
1, 14625, Note_off_c, 0, 67, 115
1, 14648, Note_on_c, 0, 58, 101
1, 14774, Note_off_c, 0, 58, 101
1, 14774, Note_on_c, 0, 60, 106
1, 14826, Note_off_c, 0, 60, 106
1, 14826, Note_on_c, 0, 65, 115
1, 14884, Note_off_c, 0, 65, 115
1, 15055, Note_on_c, 0, 67, 116
1, 15105, Note_off_c, 0, 67, 116
1, 15105, Note_on_c, 0, 70, 116
1, 15134, Note_off_c, 0, 70, 116
1, 15135, Note_on_c, 0, 72, 117
1, 15203, Note_off_c, 0, 72, 117
1, 15255, Note_on_c, 0, 60, 101
1, 15301, Note_off_c, 0, 60, 101
1, 15302, Note_on_c, 0, 65, 120
1, 15346, Note_off_c, 0, 65, 120
1, 15346, Note_on_c, 0, 67, 121
1, 15394, Note_off_c, 0, 67, 121
1, 15448, Note_on_c, 0, 58, 102
1, 15492, Note_off_c, 0, 58, 102
1, 15501, Note_on_c, 0, 60, 109
1, 15534, Note_off_c, 0, 60, 109
1, 15534, Note_on_c, 0, 63, 107
1, 15573, Note_off_c, 0, 63, 107
1, 15576, Note_on_c, 0, 65, 120
1, 15616, Note_off_c, 0, 65, 120
1, 15616, Note_on_c, 0, 67, 119
1, 15662, Note_off_c, 0, 67, 119
1, 15662, Note_on_c, 0, 70, 117
1, 15710, Note_off_c, 0, 70, 117
1, 15710, Note_on_c, 0, 72, 120
1, 15772, Note_off_c, 0, 72, 120
1, 15967, Note_on_c, 0, 73, 122
1, 16007, Note_off_c, 0, 73, 122
1, 16007, Note_on_c, 0, 74, 113
1, 16399, Note_off_c, 0, 74, 113
1, 16399, Note_on_c, 0, 73, 119
1, 16451, Note_off_c, 0, 73, 119
1, 16454, Note_on_c, 0, 74, 106
1, 16483, Note_off_c, 0, 74, 106
1, 16494, Note_on_c, 0, 77, 116
1, 16540, Note_off_c, 0, 77, 116
1, 16540, Note_on_c, 0, 74, 117
1, 16582, Note_off_c, 0, 74, 117
1, 16593, Note_on_c, 0, 70, 113
1, 16626, Note_off_c, 0, 70, 113
1, 16647, Note_on_c, 0, 67, 116
1, 16699, Note_off_c, 0, 67, 116
1, 16738, Note_on_c, 0, 60, 109
1, 16780, Note_off_c, 0, 60, 109
1, 16780, Note_on_c, 0, 65, 120
1, 16811, Note_off_c, 0, 65, 120
1, 16811, Note_on_c, 0, 70, 103
1, 16855, Note_off_c, 0, 70, 103
1, 16858, Note_on_c, 0, 74, 119
1, 16928, Note_off_c, 0, 74, 119
1, 16941, Note_on_c, 0, 72, 114
1, 17005, Note_off_c, 0, 72, 114
1, 17005, Note_on_c, 0, 75, 108
1, 17045, Note_off_c, 0, 75, 108
1, 17046, Note_on_c, 0, 74, 118
1, 17094, Note_off_c, 0, 74, 118
1, 17107, Note_on_c, 0, 67, 118
1, 17165, Note_off_c, 0, 67, 118
1, 17204, Note_on_c, 0, 74, 113
1, 17291, Note_off_c, 0, 74, 113
1, 17298, Note_on_c, 0, 67, 113
1, 17372, Note_off_c, 0, 67, 113
1, 17422, Note_on_c, 0, 65, 120
1, 17482, Note_off_c, 0, 65, 120
1, 17482, Note_on_c, 0, 67, 107
1, 17517, Note_off_c, 0, 67, 107
1, 17518, Note_on_c, 0, 70, 117
1, 17574, Note_on_c, 0, 67, 104
1, 17574, Note_off_c, 0, 70, 117
1, 17603, Note_off_c, 0, 67, 104
1, 17604, Note_on_c, 0, 69, 122
1, 17639, Note_off_c, 0, 69, 122
1, 17639, Note_on_c, 0, 70, 116
1, 17666, Note_off_c, 0, 70, 116
1, 17669, Note_on_c, 0, 69, 118
1, 17694, Note_off_c, 0, 69, 118
1, 17694, Note_on_c, 0, 67, 117
1, 17729, Note_off_c, 0, 67, 117
1, 17742, Note_on_c, 0, 67, 116
1, 17794, Note_off_c, 0, 67, 116
1, 18148, Note_on_c, 0, 58, 112
1, 18183, Note_off_c, 0, 58, 112
1, 18183, Note_on_c, 0, 63, 99
1, 18227, Note_off_c, 0, 63, 99
1, 18227, Note_on_c, 0, 65, 120
1, 18267, Note_off_c, 0, 65, 120
1, 18267, Note_on_c, 0, 66, 119
1, 18313, Note_off_c, 0, 66, 119
1, 18318, Note_on_c, 0, 69, 121
1, 18425, Note_off_c, 0, 69, 121
1, 18432, Note_on_c, 0, 66, 118
1, 18474, Note_off_c, 0, 66, 118
1, 18474, Note_on_c, 0, 65, 125
1, 18514, Note_off_c, 0, 65, 125
1, 18521, Note_on_c, 0, 64, 112
1, 18571, Note_off_c, 0, 64, 112
1, 18571, Note_on_c, 0, 63, 105
1, 18608, Note_off_c, 0, 63, 105
1, 18615, Note_on_c, 0, 59, 110
1, 18659, Note_off_c, 0, 59, 110
1, 18662, Note_on_c, 0, 58, 113
1, 18706, Note_off_c, 0, 58, 113
1, 18717, Note_on_c, 0, 59, 108
1, 18750, Note_off_c, 0, 59, 108
1, 18750, Note_on_c, 0, 61, 107
1, 18806, Note_off_c, 0, 61, 107
1, 18849, Note_on_c, 0, 53, 113
1, 18897, Note_off_c, 0, 53, 113
1, 18902, Note_on_c, 0, 58, 109
1, 18937, Note_off_c, 0, 58, 109
1, 18938, Note_on_c, 0, 59, 110
1, 18980, Note_off_c, 0, 59, 110
1, 18999, Note_on_c, 0, 62, 109
1, 19038, Note_off_c, 0, 62, 109
1, 19041, Note_on_c, 0, 63, 109
1, 19085, Note_off_c, 0, 63, 109
1, 19086, Note_on_c, 0, 65, 121
1, 19121, Note_off_c, 0, 65, 121
1, 19124, Note_on_c, 0, 66, 110
1, 19176, Note_off_c, 0, 66, 110
1, 19176, Note_on_c, 0, 69, 119
1, 19215, Note_off_c, 0, 69, 119
1, 19216, Note_on_c, 0, 71, 101
1, 19264, Note_off_c, 0, 71, 101
1, 19264, Note_on_c, 0, 74, 112
1, 19310, Note_off_c, 0, 74, 112
1, 19310, Note_on_c, 0, 75, 108
1, 19358, Note_off_c, 0, 75, 108
1, 19361, Note_on_c, 0, 76, 112
1, 19405, Note_off_c, 0, 76, 112
1, 19405, Note_on_c, 0, 77, 117
1, 19442, Note_off_c, 0, 77, 117
1, 19449, Note_on_c, 0, 78, 113
1, 19489, Note_off_c, 0, 78, 113
1, 19492, Note_on_c, 0, 75, 107
1, 19651, Note_off_c, 0, 75, 107
1, 19651, Note_on_c, 0, 71, 113
1, 19699, Note_off_c, 0, 71, 113
1, 19699, Note_on_c, 0, 70, 115
1, 19734, Note_off_c, 0, 70, 115
1, 19743, Note_on_c, 0, 69, 117
1, 19782, Note_off_c, 0, 69, 117
1, 19782, Note_on_c, 0, 68, 115
1, 19846, Note_off_c, 0, 68, 115
1, 19966, Note_on_c, 0, 67, 116
1, 20018, Note_off_c, 0, 67, 116
1, 20019, Note_on_c, 0, 70, 116
1, 20069, Note_off_c, 0, 70, 116
1, 20070, Note_on_c, 0, 68, 119
1, 20116, Note_off_c, 0, 68, 119
1, 20116, Note_on_c, 0, 65, 117
1, 20162, Note_off_c, 0, 65, 117
1, 20162, Note_on_c, 0, 67, 116
1, 20210, Note_off_c, 0, 67, 116
1, 20210, Note_on_c, 0, 65, 117
1, 20258, Note_off_c, 0, 65, 117
1, 20258, Note_on_c, 0, 63, 64
1, 20310, Note_off_c, 0, 63, 64
1, 20310, Note_on_c, 0, 60, 104
1, 20360, Note_off_c, 0, 60, 104
1, 20406, Note_on_c, 0, 60, 107
1, 20435, Note_off_c, 0, 60, 107
1, 20435, Note_on_c, 0, 62, 108
1, 20462, Note_off_c, 0, 62, 108
1, 20477, Note_on_c, 0, 62, 107
1, 20517, Note_off_c, 0, 62, 107
1, 20885, Note_on_c, 0, 58, 113
1, 20922, Note_off_c, 0, 58, 113
1, 20922, Note_on_c, 0, 60, 122
1, 20966, Note_off_c, 0, 60, 122
1, 20971, Note_on_c, 0, 65, 121
1, 21011, Note_off_c, 0, 65, 121
1, 21011, Note_on_c, 0, 70, 118
1, 21061, Note_off_c, 0, 70, 118
1, 21061, Note_on_c, 0, 72, 118
1, 21111, Note_off_c, 0, 72, 118
1, 21118, Note_on_c, 0, 73, 126
1, 21157, Note_off_c, 0, 73, 126
1, 21162, Note_on_c, 0, 74, 122
1, 21197, Note_off_c, 0, 74, 122
1, 21200, Note_on_c, 0, 73, 117
1, 21239, Note_off_c, 0, 73, 117
1, 21252, Note_on_c, 0, 78, 113
1, 21302, Note_off_c, 0, 78, 113
1, 21303, Note_on_c, 0, 76, 119
1, 21349, Note_off_c, 0, 76, 119
1, 21349, Note_on_c, 0, 73, 120
1, 21391, Note_off_c, 0, 73, 120
1, 21392, Note_on_c, 0, 71, 115
1, 21442, Note_off_c, 0, 71, 115
1, 21442, Note_on_c, 0, 75, 115
1, 21484, Note_off_c, 0, 75, 115
1, 21487, Note_on_c, 0, 73, 125
1, 21537, Note_off_c, 0, 73, 125
1, 21544, Note_on_c, 0, 66, 103
1, 21583, Note_off_c, 0, 66, 103
1, 21583, Note_on_c, 0, 71, 124
1, 21625, Note_off_c, 0, 71, 124
1, 21625, Note_on_c, 0, 73, 123
1, 21671, Note_off_c, 0, 73, 123
1, 21671, Note_on_c, 0, 71, 121
1, 21721, Note_off_c, 0, 71, 121
1, 21721, Note_on_c, 0, 69, 125
1, 21756, Note_off_c, 0, 69, 125
1, 21761, Note_on_c, 0, 63, 116
1, 21805, Note_off_c, 0, 63, 116
1, 21806, Note_on_c, 0, 60, 99
1, 21845, Note_off_c, 0, 60, 99
1, 21855, Note_on_c, 0, 68, 121
1, 21931, Note_off_c, 0, 68, 121
1, 21954, Note_on_c, 0, 70, 118
1, 22002, Note_off_c, 0, 70, 118
1, 22007, Note_on_c, 0, 72, 118
1, 22053, Note_off_c, 0, 72, 118
1, 22056, Note_on_c, 0, 68, 121
1, 22098, Note_off_c, 0, 68, 121
1, 22103, Note_on_c, 0, 72, 116
1, 22149, Note_off_c, 0, 72, 116
1, 22154, Note_on_c, 0, 70, 118
1, 22193, Note_on_c, 0, 67, 116
1, 22193, Note_off_c, 0, 70, 118
1, 22315, Note_off_c, 0, 67, 116
1, 22346, Note_on_c, 0, 63, 115
1, 22390, Note_off_c, 0, 63, 115
1, 22393, Note_on_c, 0, 60, 95
1, 22435, Note_off_c, 0, 60, 95
1, 22795, Note_on_c, 0, 58, 115
1, 22828, Note_off_c, 0, 58, 115
1, 22828, Note_on_c, 0, 56, 116
1, 22867, Note_off_c, 0, 56, 116
1, 22867, Note_on_c, 0, 58, 115
1, 22909, Note_off_c, 0, 58, 115
1, 22914, Note_on_c, 0, 63, 114
1, 22956, Note_off_c, 0, 63, 114
1, 22956, Note_on_c, 0, 68, 121
1, 22996, Note_off_c, 0, 68, 121
1, 23003, Note_on_c, 0, 70, 119
1, 23043, Note_off_c, 0, 70, 119
1, 23043, Note_on_c, 0, 75, 113
1, 23099, Note_off_c, 0, 75, 113
1, 23104, Note_on_c, 0, 76, 121
1, 23144, Note_off_c, 0, 76, 121
1, 23147, Note_on_c, 0, 80, 107
1, 23184, Note_off_c, 0, 80, 107
1, 23185, Note_on_c, 0, 82, 116
1, 23282, Note_off_c, 0, 82, 116
1, 23289, Note_on_c, 0, 80, 108
1, 23328, Note_off_c, 0, 80, 108
1, 23712, Note_on_c, 0, 79, 107
1, 23760, Note_on_c, 0, 77, 122
1, 23760, Note_off_c, 0, 79, 107
1, 23849, Note_off_c, 0, 77, 122
1, 23849, Note_on_c, 0, 72, 121
1, 23911, Note_off_c, 0, 72, 121
1, 23916, Note_on_c, 0, 70, 120
1, 23974, Note_off_c, 0, 70, 120
1, 24014, Note_on_c, 0, 76, 110
1, 24037, Note_off_c, 0, 76, 110
1, 24040, Note_on_c, 0, 78, 117
1, 24077, Note_off_c, 0, 78, 117
1, 24078, Note_on_c, 0, 76, 114
1, 24132, Note_off_c, 0, 76, 114
1, 24132, Note_on_c, 0, 73, 124
1, 24188, Note_off_c, 0, 73, 124
1, 24207, Note_on_c, 0, 71, 121
1, 24246, Note_off_c, 0, 71, 121
1, 24249, Note_on_c, 0, 68, 126
1, 24288, Note_off_c, 0, 68, 126
1, 24342, Note_on_c, 0, 64, 114
1, 24373, Note_off_c, 0, 64, 114
1, 24373, Note_on_c, 0, 66, 108
1, 24415, Note_off_c, 0, 66, 108
1, 24428, Note_on_c, 0, 68, 121
1, 24455, Note_off_c, 0, 68, 121
1, 24464, Note_on_c, 0, 70, 113
1, 24516, Note_off_c, 0, 70, 113
1, 24521, Note_on_c, 0, 76, 112
1, 24544, Note_off_c, 0, 76, 112
1, 24555, Note_on_c, 0, 77, 116
1, 24607, Note_on_c, 0, 75, 111
1, 24607, Note_off_c, 0, 77, 116
1, 24663, Note_off_c, 0, 75, 111
1, 24666, Note_on_c, 0, 71, 117
1, 24703, Note_off_c, 0, 71, 117
1, 24712, Note_on_c, 0, 65, 123
1, 24749, Note_off_c, 0, 65, 123
1, 24754, Note_on_c, 0, 70, 92
1, 24793, Note_off_c, 0, 70, 92
1, 24794, Note_on_c, 0, 65, 122
1, 24858, Note_off_c, 0, 65, 122
1, 24984, Note_on_c, 0, 76, 126
1, 25032, Note_off_c, 0, 76, 126
1, 25032, Note_on_c, 0, 74, 108
1, 25074, Note_off_c, 0, 74, 108
1, 25079, Note_on_c, 0, 75, 118
1, 25133, Note_off_c, 0, 75, 118
1, 25133, Note_on_c, 0, 72, 120
1, 25175, Note_off_c, 0, 72, 120
1, 25184, Note_on_c, 0, 70, 119
1, 25230, Note_off_c, 0, 70, 119
1, 25456, Note_on_c, 0, 72, 118
1, 25547, Note_off_c, 0, 72, 118
1, 25550, Note_on_c, 0, 74, 119
1, 25622, Note_off_c, 0, 74, 119
1, 25622, Note_on_c, 0, 67, 118
1, 25789, Note_off_c, 0, 67, 118
1, 25789, Note_on_c, 0, 72, 112
1, 25853, Note_on_c, 0, 70, 121
1, 25853, Note_off_c, 0, 72, 112
1, 25909, Note_off_c, 0, 70, 121
1, 25909, Note_on_c, 0, 65, 122
1, 25957, Note_off_c, 0, 65, 122
1, 25958, Note_on_c, 0, 63, 114
1, 25998, Note_off_c, 0, 63, 114
1, 25998, Note_on_c, 0, 60, 106
1, 26027, Note_on_c, 0, 65, 125
1, 26027, Note_off_c, 0, 60, 106
1, 26046, Note_off_c, 0, 65, 125
1, 26049, Note_on_c, 0, 67, 117
1, 26078, Note_off_c, 0, 67, 117
1, 26081, Note_on_c, 0, 71, 108
1, 26125, Note_off_c, 0, 71, 108
1, 26136, Note_on_c, 0, 65, 116
1, 26190, Note_off_c, 0, 65, 116
1, 26205, Note_on_c, 0, 65, 108
1, 26263, Note_off_c, 0, 65, 108
1, 26497, Note_on_c, 0, 65, 105
1, 26688, Note_off_c, 0, 65, 105
1, 26705, Note_on_c, 0, 65, 126
1, 26771, Note_off_c, 0, 65, 126
1, 26796, Note_on_c, 0, 70, 123
1, 26842, Note_off_c, 0, 70, 123
1, 26842, Note_on_c, 0, 67, 110
1, 26871, Note_off_c, 0, 67, 110
1, 26878, Note_on_c, 0, 65, 110
1, 26924, Note_off_c, 0, 65, 110
1, 26931, Note_on_c, 0, 64, 104
1, 26971, Note_off_c, 0, 64, 104
1, 26975, Note_on_c, 0, 65, 127
1, 27039, Note_off_c, 0, 65, 127
1, 27039, Note_on_c, 0, 66, 114
1, 27083, Note_off_c, 0, 66, 114
1, 27126, Note_on_c, 0, 64, 103
1, 27165, Note_off_c, 0, 64, 103
1, 27202, Note_on_c, 0, 66, 115
1, 27253, Note_off_c, 0, 66, 115
1, 27253, Note_on_c, 0, 65, 107
1, 27303, Note_off_c, 0, 65, 107
1, 27338, Note_on_c, 0, 65, 102
1, 27361, Note_off_c, 0, 65, 102
1, 27368, Note_on_c, 0, 67, 124
1, 27420, Note_off_c, 0, 67, 124
1, 27455, Note_on_c, 0, 70, 117
1, 27527, Note_off_c, 0, 70, 117
1, 27546, Note_on_c, 0, 70, 121
1, 27596, Note_off_c, 0, 70, 121
1, 27613, Note_on_c, 0, 74, 123
1, 27650, Note_off_c, 0, 74, 123
1, 27663, Note_on_c, 0, 75, 116
1, 27688, Note_off_c, 0, 75, 116
1, 27703, Note_on_c, 0, 76, 121
1, 27740, Note_off_c, 0, 76, 121
1, 27745, Note_on_c, 0, 72, 117
1, 27793, Note_off_c, 0, 72, 117
1, 27796, Note_on_c, 0, 70, 117
1, 27840, Note_off_c, 0, 70, 117
1, 27847, Note_on_c, 0, 67, 116
1, 27886, Note_off_c, 0, 67, 116
1, 27893, Note_on_c, 0, 63, 99
1, 27922, Note_off_c, 0, 63, 99
1, 27937, Note_on_c, 0, 65, 121
1, 27983, Note_off_c, 0, 65, 121
1, 27983, Note_on_c, 0, 70, 112
1, 28014, Note_off_c, 0, 70, 112
1, 28023, Note_on_c, 0, 67, 113
1, 28058, Note_off_c, 0, 67, 113
1, 28069, Note_on_c, 0, 63, 109
1, 28119, Note_off_c, 0, 63, 109
1, 28119, Note_on_c, 0, 65, 115
1, 28179, Note_off_c, 0, 65, 115
1, 28218, Note_on_c, 0, 70, 106
1, 28257, Note_off_c, 0, 70, 106
1, 28264, Note_on_c, 0, 67, 107
1, 28314, Note_off_c, 0, 67, 107
1, 28349, Note_on_c, 0, 67, 86
1, 28399, Note_off_c, 0, 67, 86
1, 28457, Note_on_c, 0, 57, 109
1, 28583, Note_off_c, 0, 57, 109
1, 28598, Note_on_c, 0, 65, 92
1, 28687, Note_off_c, 0, 65, 92
1, 28687, End_track
0, 0, End_of_file
