0, 0, Header, 1, 1, 840
1, 0, Start_track
1, 0, Title_t, "Melody"
1, 0, Tempo, 618556
1, 0, Key_signature, -5, "major"
1, 0, Time_signature, 3, 2, 24, 8
1, 7914, Note_on_c, 0, 75, 119
1, 8142, Note_off_c, 0, 75, 119
1, 8153, Note_on_c, 0, 78, 113
1, 8379, Note_off_c, 0, 78, 113
1, 8392, Note_on_c, 0, 72, 106
1, 8637, Note_off_c, 0, 72, 106
1, 8817, Note_on_c, 0, 77, 121
1, 8970, Note_off_c, 0, 77, 121
1, 8970, Note_on_c, 0, 73, 108
1, 9312, Note_off_c, 0, 73, 108
1, 9395, Note_on_c, 0, 68, 112
1, 9613, Note_off_c, 0, 68, 112
1, 9658, Note_on_c, 0, 72, 111
1, 9792, Note_off_c, 0, 72, 111
1, 9795, Note_on_c, 0, 70, 110
1, 10111, Note_off_c, 0, 70, 110
1, 10239, Note_on_c, 0, 67, 113
1, 10480, Note_off_c, 0, 67, 113
1, 10522, Note_on_c, 0, 63, 87
1, 10662, Note_off_c, 0, 63, 87
1, 10694, Note_on_c, 0, 69, 121
1, 10892, Note_off_c, 0, 69, 121
1, 10948, Note_on_c, 0, 71, 106
1, 11823, Note_off_c, 0, 71, 106
1, 11871, Note_on_c, 0, 66, 112
1, 12027, Note_off_c, 0, 66, 112
1, 12252, Note_on_c, 0, 71, 110
1, 12413, Note_off_c, 0, 71, 110
1, 12416, Note_on_c, 0, 70, 113
1, 12640, Note_off_c, 0, 70, 113
1, 12643, Note_on_c, 0, 67, 111
1, 12821, Note_off_c, 0, 67, 111
1, 12882, Note_on_c, 0, 63, 117
1, 13002, Note_off_c, 0, 63, 117
1, 13090, Note_on_c, 0, 60, 115
1, 13227, Note_off_c, 0, 60, 115
1, 13227, Note_on_c, 0, 65, 114
1, 13389, Note_off_c, 0, 65, 114
1, 13454, Note_on_c, 0, 68, 112
1, 13650, Note_off_c, 0, 68, 112
1, 13661, Note_on_c, 0, 67, 109
1, 13876, Note_off_c, 0, 67, 109
1, 13920, Note_on_c, 0, 61, 110
1, 14606, Note_off_c, 0, 61, 110
1, 14609, Note_on_c, 0, 60, 106
1, 14841, Note_off_c, 0, 60, 106
1, 14841, Note_on_c, 0, 63, 112
1, 15062, Note_off_c, 0, 63, 112
1, 15893, Note_on_c, 0, 55, 107
1, 16081, Note_on_c, 0, 61, 110
1, 16081, Note_off_c, 0, 55, 107
1, 16358, Note_off_c, 0, 61, 110
1, 16358, Note_on_c, 0, 58, 107
1, 16556, Note_off_c, 0, 58, 107
1, 16563, Note_on_c, 0, 53, 107
1, 16808, Note_off_c, 0, 53, 107
1, 16811, Note_on_c, 0, 56, 110
1, 17026, Note_off_c, 0, 56, 110
1, 17026, Note_on_c, 0, 55, 107
1, 17196, Note_off_c, 0, 55, 107
1, 17196, Note_on_c, 0, 61, 117
1, 17450, Note_off_c, 0, 61, 117
1, 18472, Note_on_c, 0, 57, 115
1, 18698, Note_off_c, 0, 57, 115
1, 18698, Note_on_c, 0, 63, 111
1, 18929, Note_off_c, 0, 63, 111
1, 19137, Note_on_c, 0, 67, 115
1, 19326, Note_off_c, 0, 67, 115
1, 19326, Note_on_c, 0, 61, 114
1, 19523, Note_on_c, 0, 63, 119
1, 19523, Note_off_c, 0, 61, 114
1, 19670, Note_off_c, 0, 63, 119
1, 19671, Note_on_c, 0, 65, 122
1, 19842, Note_off_c, 0, 65, 122
1, 20080, Note_on_c, 0, 73, 103
1, 20397, Note_off_c, 0, 73, 103
1, 20453, Note_on_c, 0, 72, 108
1, 20756, Note_off_c, 0, 72, 108
1, 20756, Note_on_c, 0, 67, 111
1, 21138, Note_off_c, 0, 67, 111
1, 21193, Note_on_c, 0, 72, 115
1, 21338, Note_off_c, 0, 72, 115
1, 21338, Note_on_c, 0, 70, 113
1, 21538, Note_off_c, 0, 70, 113
1, 21554, Note_on_c, 0, 65, 105
1, 21982, Note_off_c, 0, 65, 105
1, 22054, Note_on_c, 0, 68, 115
1, 22236, Note_off_c, 0, 68, 115
1, 22246, Note_on_c, 0, 67, 109
1, 22498, Note_off_c, 0, 67, 109
1, 22509, Note_on_c, 0, 63, 117
1, 22638, Note_off_c, 0, 63, 117
1, 22701, Note_on_c, 0, 67, 112
1, 22890, Note_off_c, 0, 67, 112
1, 22890, Note_on_c, 0, 66, 111
1, 23091, Note_off_c, 0, 66, 111
1, 23311, Note_on_c, 0, 61, 114
1, 23500, Note_off_c, 0, 61, 114
1, 23503, Note_on_c, 0, 66, 111
1, 23692, Note_off_c, 0, 66, 111
1, 23718, Note_on_c, 0, 65, 117
1, 23878, Note_off_c, 0, 65, 117
1, 23878, Note_on_c, 0, 63, 119
1, 24076, Note_off_c, 0, 63, 119
1, 24092, Note_on_c, 0, 58, 101
1, 24276, Note_off_c, 0, 58, 101
1, 24296, Note_on_c, 0, 61, 120
1, 24489, Note_off_c, 0, 61, 120
1, 24535, Note_on_c, 0, 65, 112
1, 24669, Note_off_c, 0, 65, 112
1, 24669, Note_on_c, 0, 64, 120
1, 24885, Note_off_c, 0, 64, 120
1, 24912, Note_on_c, 0, 63, 105
1, 26555, Note_off_c, 0, 63, 105
1, 26645, Note_on_c, 0, 63, 107
1, 26753, Note_off_c, 0, 63, 107
1, 26935, Note_on_c, 0, 63, 114
1, 27288, Note_off_c, 0, 63, 114
1, 27354, Note_on_c, 0, 61, 101
1, 27615, Note_off_c, 0, 61, 101
1, 27615, Note_on_c, 0, 70, 96
1, 28158, Note_off_c, 0, 70, 96
1, 28158, Note_on_c, 0, 68, 85
1, 29202, Note_off_c, 0, 68, 85
1, 31812, Note_on_c, 0, 68, 98
1, 32008, Note_off_c, 0, 68, 98
1, 32044, Note_on_c, 0, 68, 107
1, 32210, Note_off_c, 0, 68, 107
1, 32232, Note_on_c, 0, 68, 99
1, 32636, Note_off_c, 0, 68, 99
1, 32655, Note_on_c, 0, 68, 104
1, 32837, Note_off_c, 0, 68, 104
1, 32853, Note_on_c, 0, 68, 105
1, 33049, Note_off_c, 0, 68, 105
1, 33065, Note_on_c, 0, 68, 101
1, 33466, Note_off_c, 0, 68, 101
1, 33485, Note_on_c, 0, 68, 110
1, 33706, Note_off_c, 0, 68, 110
1, 33722, Note_on_c, 0, 68, 111
1, 33910, Note_off_c, 0, 68, 111
1, 33929, Note_on_c, 0, 68, 105
1, 34336, Note_off_c, 0, 68, 105
1, 34363, Note_on_c, 0, 68, 112
1, 34548, Note_off_c, 0, 68, 112
1, 34550, Note_on_c, 0, 69, 106
1, 34766, Note_off_c, 0, 69, 106
1, 34782, Note_on_c, 0, 68, 100
1, 35147, Note_off_c, 0, 68, 100
1, 35155, Note_on_c, 0, 68, 109
1, 35360, Note_off_c, 0, 68, 109
1, 35362, Note_on_c, 0, 68, 103
1, 35741, Note_off_c, 0, 68, 103
1, 35760, Note_on_c, 0, 68, 97
1, 36253, Note_off_c, 0, 68, 97
1, 36414, Note_on_c, 0, 68, 107
1, 36819, Note_off_c, 0, 68, 107
1, 36841, Note_on_c, 0, 68, 103
1, 37226, Note_off_c, 0, 68, 103
1, 37259, Note_on_c, 0, 68, 98
1, 37827, Note_off_c, 0, 68, 98
1, 37937, Note_on_c, 0, 68, 101
1, 38316, Note_off_c, 0, 68, 101
1, 38343, Note_on_c, 0, 68, 108
1, 38525, Note_off_c, 0, 68, 108
1, 38547, Note_on_c, 0, 68, 103
1, 38962, Note_off_c, 0, 68, 103
1, 38984, Note_on_c, 0, 68, 87
1, 39554, Note_off_c, 0, 68, 87
1, 39595, Note_on_c, 0, 68, 84
1, 40171, Note_off_c, 0, 68, 84
1, 40268, Note_on_c, 0, 68, 113
1, 40409, Note_off_c, 0, 68, 113
1, 40446, Note_on_c, 0, 68, 90
1, 41055, Note_off_c, 0, 68, 90
1, 41105, Note_on_c, 0, 68, 107
1, 41239, Note_off_c, 0, 68, 107
1, 41262, Note_on_c, 0, 68, 109
1, 41514, Note_off_c, 0, 68, 109
1, 41544, Note_on_c, 0, 68, 97
1, 41818, Note_off_c, 0, 68, 97
1, 41978, Note_on_c, 0, 68, 114
1, 42041, Note_off_c, 0, 68, 114
1, 42088, Note_on_c, 0, 68, 96
1, 42520, Note_off_c, 0, 68, 96
1, 42556, Note_on_c, 0, 68, 95
1, 43151, Note_off_c, 0, 68, 95
1, 43175, Note_on_c, 0, 68, 87
1, 43878, Note_off_c, 0, 68, 87
1, 44027, Note_on_c, 0, 68, 96
1, 44428, Note_off_c, 0, 68, 96
1, 44466, Note_on_c, 0, 68, 93
1, 44817, Note_off_c, 0, 68, 93
1, 44866, Note_on_c, 0, 68, 93
1, 45242, Note_off_c, 0, 68, 93
1, 45289, Note_on_c, 0, 68, 83
1, 45754, Note_off_c, 0, 68, 83
1, 46142, Note_on_c, 0, 68, 111
1, 46299, Note_off_c, 0, 68, 111
1, 46318, Note_on_c, 0, 68, 98
1, 46697, Note_off_c, 0, 68, 98
1, 46721, Note_on_c, 0, 68, 110
1, 46920, Note_off_c, 0, 68, 110
1, 46925, Note_on_c, 0, 68, 106
1, 47177, Note_off_c, 0, 68, 106
1, 47189, Note_on_c, 0, 65, 107
1, 47370, Note_off_c, 0, 65, 107
1, 47370, Note_on_c, 0, 68, 99
1, 47755, Note_off_c, 0, 68, 99
1, 47768, Note_on_c, 0, 68, 111
1, 47933, Note_off_c, 0, 68, 111
1, 47965, Note_on_c, 0, 65, 98
1, 48464, Note_off_c, 0, 65, 98
1, 50744, Note_on_c, 0, 65, 106
1, 51082, Note_off_c, 0, 65, 106
1, 51097, Note_on_c, 0, 65, 117
1, 51215, Note_off_c, 0, 65, 117
1, 51320, Note_on_c, 0, 65, 109
1, 51594, Note_off_c, 0, 65, 109
1, 51643, Note_on_c, 0, 64, 108
1, 51892, Note_off_c, 0, 64, 108
1, 51975, Note_on_c, 0, 64, 117
1, 52803, Note_off_c, 0, 64, 117
1, 52803, Note_on_c, 0, 65, 99
1, 53087, Note_off_c, 0, 65, 99
1, 53247, Note_on_c, 0, 65, 114
1, 54003, Note_off_c, 0, 65, 114
1, 54051, Note_on_c, 0, 65, 105
1, 54499, Note_off_c, 0, 65, 105
1, 54526, Note_on_c, 0, 66, 107
1, 55298, Note_off_c, 0, 66, 107
1, 55301, Note_on_c, 0, 65, 94
1, 55722, Note_off_c, 0, 65, 94
1, 55730, Note_on_c, 0, 65, 116
1, 55832, Note_off_c, 0, 65, 116
1, 55851, Note_on_c, 0, 65, 114
1, 56008, Note_off_c, 0, 65, 114
1, 56082, Note_on_c, 0, 64, 110
1, 56377, Note_off_c, 0, 64, 110
1, 56503, Note_on_c, 0, 64, 121
1, 56671, Note_off_c, 0, 64, 121
1, 56671, Note_on_c, 0, 65, 114
1, 57719, Note_off_c, 0, 65, 114
1, 57793, Note_on_c, 0, 65, 112
1, 57896, Note_off_c, 0, 65, 112
1, 58175, Note_on_c, 0, 64, 118
1, 58355, Note_off_c, 0, 64, 118
1, 58360, Note_on_c, 0, 65, 116
1, 58545, Note_off_c, 0, 65, 116
1, 58548, Note_on_c, 0, 66, 106
1, 58733, Note_off_c, 0, 66, 106
1, 58733, Note_on_c, 0, 65, 117
1, 58914, Note_off_c, 0, 65, 117
1, 58933, Note_on_c, 0, 65, 110
1, 59070, Note_off_c, 0, 65, 110
1, 59408, Note_on_c, 0, 64, 121
1, 59569, Note_off_c, 0, 64, 121
1, 59569, Note_on_c, 0, 65, 116
1, 60014, Note_off_c, 0, 65, 116
1, 60069, Note_on_c, 0, 65, 107
1, 61027, Note_off_c, 0, 65, 107
1, 61073, Note_on_c, 0, 64, 118
1, 61309, Note_off_c, 0, 64, 118
1, 61561, Note_on_c, 0, 65, 114
1, 61765, Note_off_c, 0, 65, 114
1, 61774, Note_on_c, 0, 66, 108
1, 62004, Note_on_c, 0, 65, 117
1, 62004, Note_off_c, 0, 66, 108
1, 62172, Note_off_c, 0, 65, 117
1, 62180, Note_on_c, 0, 64, 120
1, 62288, Note_off_c, 0, 64, 120
1, 62317, Note_on_c, 0, 63, 119
1, 62553, Note_off_c, 0, 63, 119
1, 62580, Note_on_c, 0, 63, 115
1, 63213, Note_off_c, 0, 63, 115
1, 63233, Note_on_c, 0, 65, 112
1, 63587, Note_off_c, 0, 65, 112
1, 63625, Note_on_c, 0, 65, 114
1, 63676, Note_off_c, 0, 65, 114
1, 63676, Note_on_c, 0, 64, 117
1, 63805, Note_off_c, 0, 64, 117
1, 63805, Note_on_c, 0, 65, 113
1, 63998, Note_off_c, 0, 65, 113
1, 64005, Note_on_c, 0, 66, 107
1, 64237, Note_off_c, 0, 66, 107
1, 64253, Note_on_c, 0, 63, 118
1, 64465, Note_off_c, 0, 63, 118
1, 64465, Note_on_c, 0, 58, 99
1, 64674, Note_off_c, 0, 58, 99
1, 64674, Note_on_c, 0, 61, 117
1, 65084, Note_off_c, 0, 61, 117
1, 65119, Note_on_c, 0, 56, 105
1, 65359, Note_off_c, 0, 56, 105
1, 65359, Note_on_c, 0, 60, 110
1, 65533, Note_off_c, 0, 60, 110
1, 65533, Note_on_c, 0, 58, 111
1, 65880, Note_off_c, 0, 58, 111
1, 66189, Note_on_c, 0, 58, 116
1, 66368, Note_off_c, 0, 58, 116
1, 66381, Note_on_c, 0, 56, 122
1, 66617, Note_off_c, 0, 56, 122
1, 66617, Note_on_c, 0, 58, 107
1, 66772, Note_off_c, 0, 58, 107
1, 66990, Note_on_c, 0, 63, 118
1, 67187, Note_off_c, 0, 63, 118
1, 67187, Note_on_c, 0, 65, 109
1, 67420, Note_off_c, 0, 65, 109
1, 67426, Note_on_c, 0, 70, 111
1, 67650, Note_off_c, 0, 70, 111
1, 67650, Note_on_c, 0, 71, 110
1, 67831, Note_off_c, 0, 71, 110
1, 67831, Note_on_c, 0, 73, 107
1, 68059, Note_off_c, 0, 73, 107
1, 68059, Note_on_c, 0, 68, 108
1, 68459, Note_off_c, 0, 68, 108
1, 68476, Note_on_c, 0, 70, 106
1, 68641, Note_off_c, 0, 70, 106
1, 68676, Note_on_c, 0, 65, 110
1, 68891, Note_off_c, 0, 65, 110
1, 68903, Note_on_c, 0, 63, 115
1, 69545, Note_off_c, 0, 63, 115
1, 69564, Note_on_c, 0, 59, 104
1, 69776, Note_off_c, 0, 59, 104
1, 69776, Note_on_c, 0, 58, 102
1, 69988, Note_off_c, 0, 58, 102
1, 69988, Note_on_c, 0, 56, 89
1, 70491, Note_off_c, 0, 56, 89
1, 79999, Note_on_c, 0, 76, 126
1, 80198, Note_off_c, 0, 76, 126
1, 80215, Note_on_c, 0, 77, 122
1, 80408, Note_off_c, 0, 77, 122
1, 80408, Note_on_c, 0, 78, 117
1, 80597, Note_off_c, 0, 78, 117
1, 80612, Note_on_c, 0, 77, 120
1, 80734, Note_off_c, 0, 77, 120
1, 80856, Note_on_c, 0, 77, 112
1, 81369, Note_off_c, 0, 77, 112
1, 81466, Note_on_c, 0, 75, 110
1, 81745, Note_off_c, 0, 75, 110
1, 81906, Note_on_c, 0, 75, 112
1, 82193, Note_off_c, 0, 75, 112
1, 82208, Note_on_c, 0, 73, 111
1, 82375, Note_off_c, 0, 73, 111
1, 82868, Note_on_c, 0, 77, 114
1, 82992, Note_off_c, 0, 77, 114
1, 82992, Note_on_c, 0, 75, 105
1, 83648, Note_off_c, 0, 75, 105
1, 83648, Note_on_c, 0, 72, 106
1, 83964, Note_off_c, 0, 72, 106
1, 84088, Note_on_c, 0, 75, 109
1, 84257, Note_off_c, 0, 75, 109
1, 84268, Note_on_c, 0, 73, 109
1, 84520, Note_off_c, 0, 73, 109
1, 84520, Note_on_c, 0, 69, 111
1, 84758, Note_off_c, 0, 69, 111
1, 84952, Note_on_c, 0, 72, 110
1, 85093, Note_off_c, 0, 72, 110
1, 85093, Note_on_c, 0, 70, 107
1, 85301, Note_off_c, 0, 70, 107
1, 85346, Note_on_c, 0, 67, 107
1, 85539, Note_off_c, 0, 67, 107
1, 85539, Note_on_c, 0, 63, 111
1, 85781, Note_off_c, 0, 63, 111
1, 85781, Note_on_c, 0, 60, 98
1, 85958, Note_off_c, 0, 60, 98
1, 85974, Note_on_c, 0, 69, 116
1, 86198, Note_off_c, 0, 69, 116
1, 86198, Note_on_c, 0, 72, 105
1, 86339, Note_off_c, 0, 72, 105
1, 86352, Note_on_c, 0, 71, 97
1, 87449, Note_off_c, 0, 71, 97
1, 87457, Note_on_c, 0, 67, 94
1, 87624, Note_off_c, 0, 67, 94
1, 87633, Note_on_c, 0, 70, 108
1, 87846, Note_off_c, 0, 70, 108
1, 87868, Note_on_c, 0, 69, 109
1, 88080, Note_off_c, 0, 69, 109
1, 88080, Note_on_c, 0, 68, 103
1, 88301, Note_off_c, 0, 68, 103
1, 88327, Note_on_c, 0, 58, 113
1, 88512, Note_off_c, 0, 58, 113
1, 88515, Note_on_c, 0, 59, 93
1, 88695, Note_off_c, 0, 59, 93
1, 88699, Note_on_c, 0, 68, 109
1, 88862, Note_off_c, 0, 68, 109
1, 88907, Note_on_c, 0, 63, 104
1, 89100, Note_off_c, 0, 63, 104
1, 89135, Note_on_c, 0, 60, 100
1, 89271, Note_off_c, 0, 60, 100
1, 89339, Note_on_c, 0, 67, 104
1, 89697, Note_on_c, 0, 73, 104
1, 89697, Note_off_c, 0, 67, 104
1, 90020, Note_off_c, 0, 73, 104
1, 90020, Note_on_c, 0, 68, 105
1, 90848, Note_off_c, 0, 68, 105
1, 90867, Note_on_c, 0, 72, 105
1, 91006, Note_off_c, 0, 72, 105
1, 91048, Note_on_c, 0, 70, 103
1, 91224, Note_off_c, 0, 70, 103
1, 91245, Note_on_c, 0, 67, 105
1, 91397, Note_off_c, 0, 67, 105
1, 91441, Note_on_c, 0, 63, 106
1, 91619, Note_off_c, 0, 63, 106
1, 91641, Note_on_c, 0, 60, 95
1, 91842, Note_off_c, 0, 60, 95
1, 91876, Note_on_c, 0, 69, 110
1, 92219, Note_off_c, 0, 69, 110
1, 92560, Note_on_c, 0, 63, 110
1, 92681, Note_off_c, 0, 63, 110
1, 92785, Note_on_c, 0, 63, 88
1, 93422, Note_off_c, 0, 63, 88
1, 95747, Note_on_c, 0, 60, 100
1, 95967, Note_off_c, 0, 60, 100
1, 95970, Note_on_c, 0, 62, 107
1, 96159, Note_off_c, 0, 62, 107
1, 96159, Note_on_c, 0, 57, 102
1, 96360, Note_off_c, 0, 57, 102
1, 96360, Note_on_c, 0, 62, 110
1, 96528, Note_off_c, 0, 62, 110
1, 96528, Note_on_c, 0, 58, 100
1, 96792, Note_off_c, 0, 58, 100
1, 96792, Note_on_c, 0, 59, 112
1, 96981, Note_off_c, 0, 59, 112
1, 96981, Note_on_c, 0, 62, 114
1, 97201, Note_off_c, 0, 62, 114
1, 97201, Note_on_c, 0, 66, 113
1, 97335, Note_off_c, 0, 66, 113
1, 97425, Note_on_c, 0, 69, 117
1, 97626, Note_off_c, 0, 69, 117
1, 97626, Note_on_c, 0, 70, 113
1, 97846, Note_off_c, 0, 70, 113
1, 97846, Note_on_c, 0, 71, 98
1, 98050, Note_off_c, 0, 71, 98
1, 98050, Note_on_c, 0, 73, 113
1, 98266, Note_off_c, 0, 73, 113
1, 98266, Note_on_c, 0, 75, 116
1, 98417, Note_off_c, 0, 75, 116
1, 98458, Note_on_c, 0, 76, 122
1, 98686, Note_off_c, 0, 76, 122
1, 98725, Note_on_c, 0, 77, 116
1, 98933, Note_off_c, 0, 77, 116
1, 98945, Note_on_c, 0, 76, 120
1, 99132, Note_off_c, 0, 76, 120
1, 99137, Note_on_c, 0, 73, 108
1, 99334, Note_off_c, 0, 73, 108
1, 99334, Note_on_c, 0, 72, 106
1, 99550, Note_off_c, 0, 72, 106
1, 99561, Note_on_c, 0, 70, 108
1, 99793, Note_on_c, 0, 69, 111
1, 99793, Note_off_c, 0, 70, 108
1, 99990, Note_off_c, 0, 69, 111
1, 100210, Note_on_c, 0, 72, 112
1, 100387, Note_off_c, 0, 72, 112
1, 100387, Note_on_c, 0, 68, 110
1, 100617, Note_off_c, 0, 68, 110
1, 100647, Note_on_c, 0, 72, 113
1, 100820, Note_off_c, 0, 72, 113
1, 100827, Note_on_c, 0, 70, 121
1, 100982, Note_off_c, 0, 70, 121
1, 101039, Note_on_c, 0, 65, 104
1, 101213, Note_off_c, 0, 65, 104
1, 101224, Note_on_c, 0, 68, 113
1, 101436, Note_off_c, 0, 68, 113
1, 101436, Note_on_c, 0, 67, 110
1, 101607, Note_off_c, 0, 67, 110
1, 101632, Note_on_c, 0, 63, 114
1, 101852, Note_off_c, 0, 63, 114
1, 101852, Note_on_c, 0, 60, 102
1, 102053, Note_off_c, 0, 60, 102
1, 102053, Note_on_c, 0, 67, 107
1, 102447, Note_off_c, 0, 67, 107
1, 102466, Note_on_c, 0, 65, 105
1, 102654, Note_off_c, 0, 65, 105
1, 102674, Note_on_c, 0, 61, 107
1, 103367, Note_off_c, 0, 61, 107
1, 103370, Note_on_c, 0, 65, 108
1, 103602, Note_off_c, 0, 65, 108
1, 103602, Note_on_c, 0, 63, 106
1, 104023, Note_off_c, 0, 63, 106
1, 104192, Note_on_c, 0, 58, 100
1, 104377, Note_off_c, 0, 58, 100
1, 104377, Note_on_c, 0, 63, 108
1, 104522, Note_off_c, 0, 63, 108
1, 104592, Note_on_c, 0, 61, 100
1, 104946, Note_off_c, 0, 61, 100
1, 105020, Note_on_c, 0, 55, 98
1, 105242, Note_off_c, 0, 55, 98
1, 105259, Note_on_c, 0, 60, 102
1, 105436, Note_off_c, 0, 60, 102
1, 105436, Note_on_c, 0, 58, 93
1, 105818, Note_off_c, 0, 58, 93
1, 105818, Note_on_c, 0, 53, 98
1, 105993, Note_off_c, 0, 53, 98
1, 106010, Note_on_c, 0, 56, 104
1, 106218, Note_off_c, 0, 56, 104
1, 106218, Note_on_c, 0, 55, 94
1, 106529, Note_off_c, 0, 55, 94
1, 106529, Note_on_c, 0, 53, 102
1, 106635, Note_off_c, 0, 53, 102
1, 106635, Note_on_c, 0, 58, 105
1, 107088, Note_off_c, 0, 58, 105
1, 107092, Note_on_c, 0, 60, 92
1, 107521, Note_off_c, 0, 60, 92
1, 107521, Note_on_c, 0, 53, 96
1, 109067, Note_off_c, 0, 53, 96
1, 112597, Note_on_c, 0, 53, 105
1, 113081, Note_off_c, 0, 53, 105
1, 113081, Note_on_c, 0, 51, 114
1, 113451, Note_off_c, 0, 51, 114
1, 113451, Note_on_c, 0, 53, 93
1, 114805, Note_off_c, 0, 53, 93
1, 117687, Note_on_c, 0, 53, 109
1, 118162, Note_off_c, 0, 53, 109
1, 118175, Note_on_c, 0, 51, 108
1, 118561, Note_off_c, 0, 51, 108
1, 118561, Note_on_c, 0, 53, 94
1, 119736, Note_off_c, 0, 53, 94
1, 122837, Note_on_c, 0, 65, 109
1, 123237, Note_off_c, 0, 65, 109
1, 123281, Note_on_c, 0, 63, 107
1, 123675, Note_off_c, 0, 63, 107
1, 123675, Note_on_c, 0, 65, 96
1, 124618, Note_off_c, 0, 65, 96
1, 126674, Note_on_c, 0, 70, 111
1, 126836, Note_off_c, 0, 70, 111
1, 126851, Note_on_c, 0, 69, 109
1, 127032, Note_off_c, 0, 69, 109
1, 127032, Note_on_c, 0, 68, 112
1, 127233, Note_off_c, 0, 68, 112
1, 127233, Note_on_c, 0, 67, 110
1, 127472, Note_off_c, 0, 67, 110
1, 127484, Note_on_c, 0, 66, 107
1, 127708, Note_off_c, 0, 66, 107
1, 127708, Note_on_c, 0, 61, 114
1, 127881, Note_off_c, 0, 61, 114
1, 127881, Note_on_c, 0, 58, 113
1, 128105, Note_off_c, 0, 58, 113
1, 128105, Note_on_c, 0, 57, 102
1, 128282, Note_off_c, 0, 57, 102
1, 128309, Note_on_c, 0, 56, 103
1, 128553, Note_off_c, 0, 56, 103
1, 128556, Note_on_c, 0, 54, 106
1, 128757, Note_off_c, 0, 54, 106
1, 128757, Note_on_c, 0, 53, 102
1, 128961, Note_off_c, 0, 53, 102
1, 128961, Note_on_c, 0, 60, 117
1, 129165, Note_off_c, 0, 60, 117
1, 129173, Note_on_c, 0, 56, 105
1, 129527, Note_off_c, 0, 56, 105
1, 129538, Note_on_c, 0, 60, 93
1, 132348, Note_off_c, 0, 60, 93
1, 132470, Note_on_c, 0, 55, 94
1, 132644, Note_off_c, 0, 55, 94
1, 132701, Note_on_c, 0, 60, 100
1, 132894, Note_off_c, 0, 60, 100
1, 133091, Note_on_c, 0, 55, 103
1, 133354, Note_off_c, 0, 55, 103
1, 133354, Note_on_c, 0, 60, 104
1, 133775, Note_off_c, 0, 60, 104
1, 133775, Note_on_c, 0, 55, 98
1, 134066, Note_off_c, 0, 55, 98
1, 134081, Note_on_c, 0, 60, 96
1, 134723, Note_off_c, 0, 60, 96
1, 134723, Note_on_c, 0, 55, 79
1, 134973, Note_off_c, 0, 55, 79
1, 135447, Note_on_c, 0, 58, 99
1, 135636, Note_off_c, 0, 58, 99
1, 135636, Note_on_c, 0, 60, 98
1, 136302, Note_off_c, 0, 60, 98
1, 136309, Note_on_c, 0, 55, 99
1, 136474, Note_off_c, 0, 55, 99
1, 136474, Note_on_c, 0, 60, 104
1, 136667, Note_on_c, 0, 65, 103
1, 136667, Note_off_c, 0, 60, 104
1, 136881, Note_off_c, 0, 65, 103
1, 136891, Note_on_c, 0, 72, 106
1, 137049, Note_off_c, 0, 72, 106
1, 137083, Note_on_c, 0, 67, 110
1, 137309, Note_off_c, 0, 67, 110
1, 137480, Note_on_c, 0, 60, 104
1, 137897, Note_off_c, 0, 60, 104
1, 137897, Note_on_c, 0, 65, 106
1, 138145, Note_off_c, 0, 65, 106
1, 138168, Note_on_c, 0, 72, 111
1, 138353, Note_off_c, 0, 72, 111
1, 138353, Note_on_c, 0, 67, 111
1, 138500, Note_off_c, 0, 67, 111
1, 138581, Note_on_c, 0, 72, 108
1, 138778, Note_off_c, 0, 72, 108
1, 139017, Note_on_c, 0, 72, 105
1, 139194, Note_off_c, 0, 72, 105
1, 139194, Note_on_c, 0, 70, 104
1, 139384, Note_off_c, 0, 70, 104
1, 139390, Note_on_c, 0, 65, 106
1, 139562, Note_off_c, 0, 65, 106
1, 139562, Note_on_c, 0, 60, 101
1, 139742, Note_off_c, 0, 60, 101
1, 139790, Note_on_c, 0, 67, 103
1, 139971, Note_off_c, 0, 67, 103
1, 139971, Note_on_c, 0, 72, 105
1, 140207, Note_off_c, 0, 72, 105
1, 140207, Note_on_c, 0, 70, 102
1, 140415, Note_off_c, 0, 70, 102
1, 140427, Note_on_c, 0, 65, 127
1, 140663, Note_off_c, 0, 65, 127
1, 140666, Note_on_c, 0, 63, 108
1, 140836, Note_off_c, 0, 63, 108
1, 140846, Note_on_c, 0, 69, 109
1, 141170, Note_off_c, 0, 69, 109
1, 141239, Note_on_c, 0, 62, 95
1, 141452, Note_off_c, 0, 62, 95
1, 141452, Note_on_c, 0, 67, 107
1, 141672, Note_off_c, 0, 67, 107
1, 141680, Note_on_c, 0, 64, 106
1, 142046, Note_off_c, 0, 64, 106
1, 142097, Note_on_c, 0, 68, 105
1, 142392, Note_off_c, 0, 68, 105
1, 142573, Note_on_c, 0, 61, 102
1, 142774, Note_off_c, 0, 61, 102
1, 142774, Note_on_c, 0, 67, 104
1, 142963, Note_off_c, 0, 67, 104
1, 142963, Note_on_c, 0, 62, 105
1, 143258, Note_off_c, 0, 62, 105
1, 143357, Note_on_c, 0, 66, 103
1, 143572, Note_off_c, 0, 66, 103
1, 143757, Note_on_c, 0, 63, 98
1, 143962, Note_on_c, 0, 67, 103
1, 143962, Note_off_c, 0, 63, 98
1, 144174, Note_off_c, 0, 67, 103
1, 144174, Note_on_c, 0, 64, 103
1, 144415, Note_off_c, 0, 64, 103
1, 144427, Note_on_c, 0, 66, 105
1, 144637, Note_off_c, 0, 66, 105
1, 144637, Note_on_c, 0, 73, 101
1, 144784, Note_off_c, 0, 73, 101
1, 144856, Note_on_c, 0, 73, 98
1, 144990, Note_off_c, 0, 73, 98
1, 144990, Note_on_c, 0, 69, 100
1, 145194, Note_off_c, 0, 69, 100
1, 145221, Note_on_c, 0, 71, 91
1, 145525, Note_off_c, 0, 71, 91
1, 146123, Note_on_c, 0, 69, 101
1, 146321, Note_off_c, 0, 69, 101
1, 146321, Note_on_c, 0, 70, 98
1, 146515, Note_off_c, 0, 70, 98
1, 146515, Note_on_c, 0, 68, 100
1, 146725, Note_off_c, 0, 68, 100
1, 146725, Note_on_c, 0, 63, 106
1, 146957, Note_off_c, 0, 63, 106
1, 147048, Note_on_c, 0, 68, 106
1, 147211, Note_off_c, 0, 68, 106
1, 147280, Note_on_c, 0, 67, 103
1, 147507, Note_off_c, 0, 67, 103
1, 147716, Note_on_c, 0, 62, 101
1, 147926, Note_off_c, 0, 62, 101
1, 147931, Note_on_c, 0, 61, 104
1, 148155, Note_off_c, 0, 61, 104
1, 148155, Note_on_c, 0, 68, 103
1, 148316, Note_off_c, 0, 68, 103
1, 148316, Note_on_c, 0, 67, 100
1, 148663, Note_off_c, 0, 67, 100
1, 148715, Note_on_c, 0, 60, 94
1, 148964, Note_off_c, 0, 60, 94
1, 148975, Note_on_c, 0, 58, 112
1, 149169, Note_off_c, 0, 58, 112
1, 149204, Note_on_c, 0, 65, 90
1, 149749, Note_off_c, 0, 65, 90
1, 157851, Note_on_c, 0, 75, 113
1, 158064, Note_off_c, 0, 75, 113
1, 158098, Note_on_c, 0, 76, 118
1, 158243, Note_off_c, 0, 76, 118
1, 158243, Note_on_c, 0, 77, 115
1, 158349, Note_on_c, 0, 78, 90
1, 158349, Note_off_c, 0, 77, 115
1, 159239, Note_off_c, 0, 78, 90
1, 159239, Note_on_c, 0, 77, 116
1, 159373, Note_off_c, 0, 77, 116
1, 159373, Note_on_c, 0, 76, 121
1, 159471, Note_off_c, 0, 76, 121
1, 159471, Note_on_c, 0, 75, 92
1, 160141, Note_off_c, 0, 75, 92
1, 160263, Note_on_c, 0, 76, 119
1, 160369, Note_off_c, 0, 76, 119
1, 160369, Note_on_c, 0, 77, 119
1, 160488, Note_off_c, 0, 77, 119
1, 160491, Note_on_c, 0, 78, 111
1, 160743, Note_off_c, 0, 78, 111
1, 160743, Note_on_c, 0, 77, 116
1, 160853, Note_on_c, 0, 76, 118
1, 160853, Note_off_c, 0, 77, 116
1, 160963, Note_off_c, 0, 76, 118
1, 160963, Note_on_c, 0, 75, 91
1, 161601, Note_off_c, 0, 75, 91
1, 163562, Note_on_c, 0, 72, 108
1, 163827, Note_off_c, 0, 72, 108
1, 163952, Note_on_c, 0, 76, 9
1, 164113, Note_off_c, 0, 76, 9
1, 164113, Note_on_c, 0, 77, 12
1, 164314, Note_off_c, 0, 77, 12
1, 164314, Note_on_c, 0, 76, 118
1, 164491, Note_off_c, 0, 76, 118
1, 164498, Note_on_c, 0, 74, 117
1, 164650, Note_off_c, 0, 74, 117
1, 164729, Note_on_c, 0, 74, 108
1, 164796, Note_off_c, 0, 74, 108
1, 164866, Note_on_c, 0, 74, 116
1, 165067, Note_off_c, 0, 74, 116
1, 165078, Note_on_c, 0, 73, 110
1, 165318, Note_off_c, 0, 73, 110
1, 165592, Note_on_c, 0, 73, 113
1, 165790, Note_off_c, 0, 73, 113
1, 165790, Note_on_c, 0, 72, 112
1, 166074, Note_off_c, 0, 72, 112
1, 166207, Note_on_c, 0, 70, 110
1, 166379, Note_off_c, 0, 70, 110
1, 166379, Note_on_c, 0, 75, 110
1, 166587, Note_off_c, 0, 75, 110
1, 166602, Note_on_c, 0, 73, 113
1, 166747, Note_off_c, 0, 73, 113
1, 166822, Note_on_c, 0, 69, 94
1, 167019, Note_off_c, 0, 69, 94
1, 167019, Note_on_c, 0, 70, 108
1, 167199, Note_off_c, 0, 70, 108
1, 167219, Note_on_c, 0, 73, 112
1, 167388, Note_off_c, 0, 73, 112
1, 167395, Note_on_c, 0, 72, 109
1, 167595, Note_off_c, 0, 72, 109
1, 167630, Note_on_c, 0, 71, 108
1, 167811, Note_off_c, 0, 71, 108
1, 167811, Note_on_c, 0, 69, 112
1, 168532, Note_off_c, 0, 69, 112
1, 168532, Note_on_c, 0, 71, 103
1, 168717, Note_off_c, 0, 71, 103
1, 168717, Note_on_c, 0, 70, 109
1, 168888, Note_off_c, 0, 70, 109
1, 168920, Note_on_c, 0, 69, 102
1, 169106, Note_off_c, 0, 69, 102
1, 169109, Note_on_c, 0, 68, 112
1, 169313, Note_off_c, 0, 68, 112
1, 169334, Note_on_c, 0, 65, 111
1, 169513, Note_off_c, 0, 65, 111
1, 169513, Note_on_c, 0, 61, 118
1, 169659, Note_off_c, 0, 61, 118
1, 169876, Note_on_c, 0, 67, 112
1, 170102, Note_off_c, 0, 67, 112
1, 170112, Note_on_c, 0, 70, 108
1, 170306, Note_off_c, 0, 70, 108
1, 170328, Note_on_c, 0, 69, 111
1, 170522, Note_off_c, 0, 69, 111
1, 170544, Note_on_c, 0, 65, 106
1, 170745, Note_off_c, 0, 65, 106
1, 170745, Note_on_c, 0, 63, 99
1, 171239, Note_off_c, 0, 63, 99
1, 171946, Note_on_c, 0, 60, 100
1, 172515, Note_off_c, 0, 60, 100
1, 172536, Note_on_c, 0, 61, 107
1, 172695, Note_off_c, 0, 61, 107
1, 172764, Note_on_c, 0, 57, 100
1, 172949, Note_off_c, 0, 57, 100
1, 172949, Note_on_c, 0, 60, 105
1, 173136, Note_off_c, 0, 60, 105
1, 173153, Note_on_c, 0, 59, 95
1, 173503, Note_off_c, 0, 59, 95
1, 173558, Note_on_c, 0, 55, 92
1, 173796, Note_off_c, 0, 55, 92
1, 173796, Note_on_c, 0, 57, 111
1, 173994, Note_off_c, 0, 57, 111
1, 173994, Note_on_c, 0, 59, 106
1, 174179, Note_off_c, 0, 59, 106
1, 174179, Note_on_c, 0, 64, 114
1, 174382, Note_off_c, 0, 64, 114
1, 174398, Note_on_c, 0, 66, 106
1, 174630, Note_off_c, 0, 66, 106
1, 174630, Note_on_c, 0, 63, 106
1, 175047, Note_off_c, 0, 63, 106
1, 175047, Note_on_c, 0, 67, 112
1, 175204, Note_off_c, 0, 67, 112
1, 175204, Note_on_c, 0, 64, 111
1, 175424, Note_off_c, 0, 64, 111
1, 175424, Note_on_c, 0, 66, 105
1, 175653, Note_off_c, 0, 66, 105
1, 175653, Note_on_c, 0, 68, 111
1, 175896, Note_off_c, 0, 68, 111
1, 175896, Note_on_c, 0, 67, 104
1, 176187, Note_off_c, 0, 67, 104
1, 176256, Note_on_c, 0, 62, 100
1, 176632, Note_off_c, 0, 62, 100
1, 176643, Note_on_c, 0, 64, 106
1, 176823, Note_off_c, 0, 64, 106
1, 176890, Note_on_c, 0, 67, 106
1, 177094, Note_off_c, 0, 67, 106
1, 177094, Note_on_c, 0, 69, 111
1, 177296, Note_off_c, 0, 69, 111
1, 177325, Note_on_c, 0, 68, 110
1, 177483, Note_off_c, 0, 68, 110
1, 177483, Note_on_c, 0, 70, 99
1, 177621, Note_off_c, 0, 70, 99
1, 177652, Note_on_c, 0, 69, 103
1, 178337, Note_off_c, 0, 69, 103
1, 178337, Note_on_c, 0, 71, 98
1, 178643, Note_off_c, 0, 71, 98
1, 178707, Note_on_c, 0, 69, 108
1, 178808, Note_off_c, 0, 69, 108
1, 178907, Note_on_c, 0, 72, 111
1, 179117, Note_off_c, 0, 72, 111
1, 179123, Note_on_c, 0, 70, 108
1, 179308, Note_off_c, 0, 70, 108
1, 179315, Note_on_c, 0, 69, 110
1, 179476, Note_off_c, 0, 69, 110
1, 179499, Note_on_c, 0, 68, 109
1, 179924, Note_off_c, 0, 68, 109
1, 179942, Note_on_c, 0, 66, 106
1, 180131, Note_off_c, 0, 66, 106
1, 180131, Note_on_c, 0, 63, 105
1, 180530, Note_off_c, 0, 63, 105
1, 180530, Note_on_c, 0, 66, 106
1, 180724, Note_off_c, 0, 66, 106
1, 180727, Note_on_c, 0, 68, 109
1, 180924, Note_off_c, 0, 68, 109
1, 180924, Note_on_c, 0, 67, 107
1, 181300, Note_off_c, 0, 67, 107
1, 181369, Note_on_c, 0, 63, 114
1, 181553, Note_on_c, 0, 67, 107
1, 181553, Note_off_c, 0, 63, 114
1, 181750, Note_off_c, 0, 67, 107
1, 181750, Note_on_c, 0, 66, 99
1, 182081, Note_off_c, 0, 66, 99
1, 182131, Note_on_c, 0, 62, 109
1, 182367, Note_off_c, 0, 62, 109
1, 182367, Note_on_c, 0, 65, 108
1, 182509, Note_off_c, 0, 65, 108
1, 182548, Note_on_c, 0, 64, 111
1, 182731, Note_off_c, 0, 64, 111
1, 182822, Note_on_c, 0, 65, 103
1, 183083, Note_off_c, 0, 65, 103
1, 183192, Note_on_c, 0, 66, 104
1, 183360, Note_off_c, 0, 66, 104
1, 183364, Note_on_c, 0, 63, 112
1, 183568, Note_off_c, 0, 63, 112
1, 183568, Note_on_c, 0, 58, 99
1, 183748, Note_off_c, 0, 58, 99
1, 183800, Note_on_c, 0, 54, 94
1, 184001, Note_off_c, 0, 54, 94
1, 184001, Note_on_c, 0, 62, 109
1, 184157, Note_off_c, 0, 62, 109
1, 184185, Note_on_c, 0, 61, 107
1, 184409, Note_off_c, 0, 61, 107
1, 184417, Note_on_c, 0, 63, 106
1, 184586, Note_off_c, 0, 63, 106
1, 184586, Note_on_c, 0, 59, 100
1, 184757, Note_off_c, 0, 59, 100
1, 185298, Note_on_c, 0, 57, 106
1, 185456, Note_off_c, 0, 57, 106
1, 185459, Note_on_c, 0, 58, 106
1, 185569, Note_off_c, 0, 58, 106
1, 185596, Note_on_c, 0, 57, 102
1, 185722, Note_off_c, 0, 57, 102
1, 185796, Note_on_c, 0, 56, 98
1, 185998, Note_off_c, 0, 56, 98
1, 186047, Note_on_c, 0, 58, 105
1, 186165, Note_off_c, 0, 58, 105
1, 186204, Note_on_c, 0, 59, 96
1, 186401, Note_off_c, 0, 59, 96
1, 186401, Note_on_c, 0, 68, 107
1, 186613, Note_off_c, 0, 68, 107
1, 186613, Note_on_c, 0, 63, 107
1, 186879, Note_off_c, 0, 63, 107
1, 186888, Note_on_c, 0, 59, 106
1, 186998, Note_off_c, 0, 59, 106
1, 186998, Note_on_c, 0, 67, 108
1, 187231, Note_off_c, 0, 67, 108
1, 187259, Note_on_c, 0, 70, 102
1, 187418, Note_off_c, 0, 70, 102
1, 187418, Note_on_c, 0, 69, 103
1, 187623, Note_off_c, 0, 69, 103
1, 187634, Note_on_c, 0, 66, 102
1, 187814, Note_off_c, 0, 66, 102
1, 187858, Note_on_c, 0, 62, 105
1, 188103, Note_on_c, 0, 59, 99
1, 188103, Note_off_c, 0, 62, 105
1, 188234, Note_off_c, 0, 59, 99
1, 188234, Note_on_c, 0, 67, 104
1, 188458, Note_off_c, 0, 67, 104
1, 188493, Note_on_c, 0, 64, 109
1, 188722, Note_off_c, 0, 64, 109
1, 188839, Note_on_c, 0, 66, 97
1, 189028, Note_on_c, 0, 62, 106
1, 189028, Note_off_c, 0, 66, 97
1, 189272, Note_off_c, 0, 62, 106
1, 189272, Note_on_c, 0, 65, 105
1, 189482, Note_off_c, 0, 65, 105
1, 189484, Note_on_c, 0, 63, 111
1, 189663, Note_off_c, 0, 63, 111
1, 196172, Note_on_c, 0, 60, 103
1, 196522, Note_off_c, 0, 60, 103
1, 196541, Note_on_c, 0, 60, 104
1, 196954, Note_off_c, 0, 60, 104
1, 196973, Note_on_c, 0, 60, 98
1, 197512, Note_off_c, 0, 60, 98
1, 197559, Note_on_c, 0, 60, 109
1, 197783, Note_off_c, 0, 60, 109
1, 198453, Note_on_c, 0, 60, 104
1, 198843, Note_off_c, 0, 60, 104
1, 199028, Note_on_c, 0, 60, 103
1, 199430, Note_off_c, 0, 60, 103
1, 199441, Note_on_c, 0, 60, 102
1, 199870, Note_off_c, 0, 60, 102
1, 199905, Note_on_c, 0, 60, 96
1, 200413, Note_off_c, 0, 60, 96
1, 200428, Note_on_c, 0, 60, 109
1, 200717, Note_off_c, 0, 60, 109
1, 200726, Note_on_c, 0, 66, 86
1, 200879, Note_off_c, 0, 66, 86
1, 201308, Note_on_c, 0, 60, 110
1, 201662, Note_off_c, 0, 60, 110
1, 201667, Note_on_c, 0, 60, 99
1, 202045, Note_off_c, 0, 60, 99
1, 203139, Note_on_c, 0, 60, 101
1, 203355, Note_off_c, 0, 60, 101
1, 203542, Note_on_c, 0, 60, 123
1, 203751, Note_off_c, 0, 60, 123
1, 203895, Note_on_c, 0, 60, 109
1, 204100, Note_off_c, 0, 60, 109
1, 204100, Note_on_c, 0, 67, 105
1, 204417, Note_off_c, 0, 67, 105
1, 204533, Note_on_c, 0, 60, 105
1, 204889, Note_off_c, 0, 60, 105
1, 205239, Note_on_c, 0, 60, 102
1, 205525, Note_off_c, 0, 60, 102
1, 205637, Note_on_c, 0, 60, 101
1, 205853, Note_on_c, 0, 65, 111
1, 205853, Note_off_c, 0, 60, 101
1, 205998, Note_off_c, 0, 65, 111
1, 206021, Note_on_c, 0, 67, 107
1, 206210, Note_off_c, 0, 67, 107
1, 206210, Note_on_c, 0, 72, 112
1, 206442, Note_off_c, 0, 72, 112
1, 206442, Note_on_c, 0, 67, 111
1, 206631, Note_off_c, 0, 67, 111
1, 206631, Note_on_c, 0, 66, 106
1, 206847, Note_off_c, 0, 66, 106
1, 206862, Note_on_c, 0, 60, 109
1, 206998, Note_off_c, 0, 60, 109
1, 207677, Note_on_c, 0, 60, 102
1, 208441, Note_off_c, 0, 60, 102
1, 208480, Note_on_c, 0, 60, 102
1, 209228, Note_off_c, 0, 60, 102
1, 209267, Note_on_c, 0, 60, 107
1, 209716, Note_off_c, 0, 60, 107
1, 209719, Note_on_c, 0, 60, 123
1, 209825, Note_off_c, 0, 60, 123
1, 209887, Note_on_c, 0, 60, 105
1, 210091, Note_off_c, 0, 60, 105
1, 210091, Note_on_c, 0, 65, 105
1, 210311, Note_off_c, 0, 65, 105
1, 210311, Note_on_c, 0, 67, 110
1, 210487, Note_off_c, 0, 67, 110
1, 210504, Note_on_c, 0, 71, 109
1, 210718, Note_off_c, 0, 71, 109
1, 210723, Note_on_c, 0, 66, 102
1, 210897, Note_off_c, 0, 66, 102
1, 210897, Note_on_c, 0, 60, 98
1, 211191, Note_off_c, 0, 60, 98
1, 211530, Note_on_c, 0, 60, 101
1, 211798, Note_off_c, 0, 60, 101
1, 211902, Note_on_c, 0, 60, 105
1, 212347, Note_off_c, 0, 60, 105
1, 219460, Note_on_c, 0, 72, 110
1, 219672, Note_off_c, 0, 72, 110
1, 219672, Note_on_c, 0, 73, 109
1, 219955, Note_off_c, 0, 73, 109
1, 219969, Note_on_c, 0, 70, 106
1, 220205, Note_off_c, 0, 70, 106
1, 220205, Note_on_c, 0, 72, 107
1, 220407, Note_off_c, 0, 72, 107
1, 220407, Note_on_c, 0, 69, 113
1, 220989, Note_on_c, 0, 72, 102
1, 220989, Note_off_c, 0, 69, 113
1, 221198, Note_off_c, 0, 72, 102
1, 221198, Note_on_c, 0, 70, 106
1, 221387, Note_on_c, 0, 65, 104
1, 221387, Note_off_c, 0, 70, 106
1, 221568, Note_off_c, 0, 65, 104
1, 221638, Note_on_c, 0, 69, 111
1, 222177, Note_off_c, 0, 69, 111
1, 222236, Note_on_c, 0, 67, 106
1, 222525, Note_off_c, 0, 67, 106
1, 222633, Note_on_c, 0, 63, 91
1, 222822, Note_off_c, 0, 63, 91
1, 222853, Note_on_c, 0, 67, 112
1, 223026, Note_off_c, 0, 67, 112
1, 223065, Note_on_c, 0, 65, 109
1, 223250, Note_off_c, 0, 65, 109
1, 223250, Note_on_c, 0, 61, 112
1, 223433, Note_off_c, 0, 61, 112
1, 223446, Note_on_c, 0, 65, 108
1, 223643, Note_off_c, 0, 65, 108
1, 223643, Note_on_c, 0, 63, 112
1, 223993, Note_off_c, 0, 63, 112
1, 224012, Note_on_c, 0, 60, 103
1, 224234, Note_off_c, 0, 60, 103
1, 224243, Note_on_c, 0, 61, 114
1, 224420, Note_off_c, 0, 61, 114
1, 224420, Note_on_c, 0, 57, 109
1, 224802, Note_off_c, 0, 57, 109
1, 224817, Note_on_c, 0, 60, 104
1, 225000, Note_off_c, 0, 60, 104
1, 225059, Note_on_c, 0, 57, 106
1, 225212, Note_off_c, 0, 57, 106
1, 225434, Note_on_c, 0, 57, 112
1, 225618, Note_off_c, 0, 57, 112
1, 225618, Note_on_c, 0, 53, 101
1, 225888, Note_off_c, 0, 53, 101
1, 226638, Note_on_c, 0, 57, 110
1, 226802, Note_off_c, 0, 57, 110
1, 226854, Note_on_c, 0, 55, 96
1, 227158, Note_off_c, 0, 55, 96
1, 227230, Note_on_c, 0, 57, 110
1, 227404, Note_off_c, 0, 57, 110
1, 228314, Note_on_c, 0, 57, 121
1, 228416, Note_off_c, 0, 57, 121
1, 228664, Note_on_c, 0, 55, 122
1, 228778, Note_off_c, 0, 55, 122
1, 229022, Note_on_c, 0, 57, 107
1, 229140, Note_off_c, 0, 57, 107
1, 229798, Note_on_c, 0, 55, 99
1, 230013, Note_off_c, 0, 55, 99
1, 230581, Note_on_c, 0, 57, 108
1, 230802, Note_off_c, 0, 57, 108
1, 231210, Note_on_c, 0, 55, 106
1, 231427, Note_off_c, 0, 55, 106
1, 231427, Note_on_c, 0, 57, 111
1, 231669, Note_off_c, 0, 57, 111
1, 232660, Note_on_c, 0, 53, 99
1, 233037, Note_off_c, 0, 53, 99
1, 233262, Note_on_c, 0, 55, 97
1, 233628, Note_off_c, 0, 55, 97
1, 233628, Note_on_c, 0, 57, 114
1, 233930, Note_off_c, 0, 57, 114
1, 233993, Note_on_c, 0, 53, 98
1, 234261, Note_off_c, 0, 53, 98
1, 234274, Note_on_c, 0, 55, 100
1, 234503, Note_off_c, 0, 55, 100
1, 234598, Note_on_c, 0, 57, 99
1, 234787, Note_off_c, 0, 57, 99
1, 234804, Note_on_c, 0, 53, 93
1, 235080, Note_off_c, 0, 53, 93
1, 235080, Note_on_c, 0, 55, 95
1, 235335, Note_off_c, 0, 55, 95
1, 235348, Note_on_c, 0, 57, 103
1, 235530, Note_off_c, 0, 57, 103
1, 235664, Note_on_c, 0, 53, 105
1, 235906, Note_off_c, 0, 53, 105
1, 235906, Note_on_c, 0, 55, 93
1, 236175, Note_off_c, 0, 55, 93
1, 236256, Note_on_c, 0, 57, 115
1, 236479, Note_off_c, 0, 57, 115
1, 236504, Note_on_c, 0, 53, 102
1, 236736, Note_off_c, 0, 53, 102
1, 237074, Note_on_c, 0, 55, 99
1, 237294, Note_off_c, 0, 55, 99
1, 237463, Note_on_c, 0, 57, 105
1, 237667, Note_on_c, 0, 53, 97
1, 237667, Note_off_c, 0, 57, 105
1, 237828, Note_off_c, 0, 53, 97
1, 237855, Note_on_c, 0, 55, 99
1, 238091, Note_off_c, 0, 55, 99
1, 238098, Note_on_c, 0, 57, 107
1, 238334, Note_off_c, 0, 57, 107
1, 238657, Note_on_c, 0, 53, 115
1, 238791, Note_off_c, 0, 53, 115
1, 238794, Note_on_c, 0, 55, 104
1, 238967, Note_on_c, 0, 57, 106
1, 238967, Note_off_c, 0, 55, 104
1, 239165, Note_off_c, 0, 57, 106
1, 239211, Note_on_c, 0, 53, 105
1, 239431, Note_off_c, 0, 53, 105
1, 239431, Note_on_c, 0, 55, 95
1, 239728, Note_off_c, 0, 55, 95
1, 239816, Note_on_c, 0, 57, 107
1, 240013, Note_off_c, 0, 57, 107
1, 240020, Note_on_c, 0, 53, 108
1, 240150, Note_off_c, 0, 53, 108
1, 240197, Note_on_c, 0, 55, 99
1, 240398, Note_off_c, 0, 55, 99
1, 241343, Note_on_c, 0, 57, 107
1, 241523, Note_off_c, 0, 57, 107
1, 241557, Note_on_c, 0, 53, 106
1, 241881, Note_off_c, 0, 53, 106
1, 241881, Note_on_c, 0, 55, 103
1, 242232, Note_off_c, 0, 55, 103
1, 242248, Note_on_c, 0, 57, 106
1, 242452, Note_off_c, 0, 57, 106
1, 242455, Note_on_c, 0, 53, 99
1, 242632, Note_off_c, 0, 53, 99
1, 242635, Note_on_c, 0, 55, 104
1, 242831, Note_off_c, 0, 55, 104
1, 242851, Note_on_c, 0, 57, 109
1, 243100, Note_off_c, 0, 57, 109
1, 243237, Note_on_c, 0, 53, 111
1, 243381, Note_off_c, 0, 53, 111
1, 243469, Note_on_c, 0, 55, 115
1, 243735, Note_off_c, 0, 55, 115
1, 243735, End_track
0, 0, End_of_file
