0, 0, Header, 1, 1, 2520
1, 0, Start_track
1, 0, Title_t, "Melody"
1, 0, Tempo, 576923
1, 0, Key_signature, -5, "major"
1, 0, Time_signature, 3, 2, 24, 8
1, 17267, Note_on_c, 0, 72, 112
1, 17799, Note_off_c, 0, 72, 112
1, 17875, Note_on_c, 0, 73, 111
1, 18559, Note_off_c, 0, 73, 111
1, 18787, Note_on_c, 0, 69, 115
1, 19623, Note_off_c, 0, 69, 115
1, 19952, Note_on_c, 0, 72, 115
1, 20509, Note_off_c, 0, 72, 115
1, 20559, Note_on_c, 0, 70, 112
1, 21142, Note_off_c, 0, 70, 112
1, 21268, Note_on_c, 0, 65, 108
1, 21724, Note_off_c, 0, 65, 108
1, 21749, Note_on_c, 0, 63, 116
1, 22433, Note_off_c, 0, 63, 116
1, 22483, Note_on_c, 0, 58, 93
1, 22914, Note_off_c, 0, 58, 93
1, 23015, Note_on_c, 0, 67, 111
1, 23572, Note_off_c, 0, 67, 111
1, 23572, Note_on_c, 0, 70, 109
1, 24079, Note_off_c, 0, 70, 109
1, 24180, Note_on_c, 0, 69, 115
1, 25929, Note_off_c, 0, 69, 115
1, 25979, Note_on_c, 0, 65, 110
1, 26765, Note_off_c, 0, 65, 110
1, 27474, Note_on_c, 0, 69, 119
1, 27981, Note_off_c, 0, 69, 119
1, 28006, Note_on_c, 0, 67, 109
1, 28665, Note_off_c, 0, 67, 109
1, 28690, Note_on_c, 0, 63, 112
1, 29704, Note_off_c, 0, 63, 112
1, 29982, Note_on_c, 0, 67, 113
1, 30336, Note_off_c, 0, 67, 113
1, 30462, Note_on_c, 0, 65, 113
1, 30994, Note_off_c, 0, 65, 113
1, 31120, Note_on_c, 0, 61, 117
1, 31652, Note_off_c, 0, 61, 117
1, 31728, Note_on_c, 0, 58, 105
1, 32285, Note_off_c, 0, 58, 105
1, 32411, Note_on_c, 0, 53, 107
1, 32816, Note_off_c, 0, 53, 107
1, 32917, Note_on_c, 0, 63, 115
1, 33449, Note_off_c, 0, 63, 115
1, 33651, Note_on_c, 0, 60, 111
1, 34082, Note_off_c, 0, 60, 111
1, 34386, Note_on_c, 0, 57, 108
1, 34842, Note_off_c, 0, 57, 108
1, 34892, Note_on_c, 0, 60, 114
1, 35475, Note_off_c, 0, 60, 114
1, 35627, Note_on_c, 0, 55, 100
1, 36387, Note_off_c, 0, 55, 100
1, 36716, Note_on_c, 0, 57, 110
1, 37502, Note_off_c, 0, 57, 110
1, 38211, Note_on_c, 0, 53, 103
1, 38819, Note_off_c, 0, 53, 103
1, 38869, Note_on_c, 0, 55, 93
1, 40441, Note_off_c, 0, 55, 93
1, 53702, Note_on_c, 0, 73, 112
1, 54209, Note_off_c, 0, 73, 112
1, 54792, Note_on_c, 0, 77, 124
1, 55349, Note_off_c, 0, 77, 124
1, 55450, Note_on_c, 0, 75, 120
1, 56438, Note_off_c, 0, 75, 120
1, 56514, Note_on_c, 0, 73, 117
1, 57249, Note_off_c, 0, 73, 117
1, 57426, Note_on_c, 0, 72, 110
1, 61026, Note_off_c, 0, 72, 110
1, 61304, Note_on_c, 0, 68, 114
1, 61760, Note_off_c, 0, 68, 114
1, 62343, Note_on_c, 0, 72, 114
1, 62875, Note_off_c, 0, 72, 114
1, 62976, Note_on_c, 0, 70, 111
1, 63762, Note_off_c, 0, 70, 111
1, 63863, Note_on_c, 0, 65, 104
1, 64167, Note_off_c, 0, 65, 104
1, 64167, Note_on_c, 0, 68, 114
1, 64876, Note_off_c, 0, 68, 114
1, 64977, Note_on_c, 0, 67, 113
1, 65382, Note_off_c, 0, 67, 113
1, 65610, Note_on_c, 0, 63, 115
1, 66091, Note_off_c, 0, 63, 115
1, 66167, Note_on_c, 0, 67, 114
1, 66648, Note_off_c, 0, 67, 114
1, 66698, Note_on_c, 0, 65, 114
1, 67230, Note_off_c, 0, 65, 114
1, 67508, Note_on_c, 0, 61, 117
1, 68065, Note_off_c, 0, 61, 117
1, 68141, Note_on_c, 0, 58, 106
1, 68394, Note_off_c, 0, 58, 106
1, 68495, Note_on_c, 0, 53, 108
1, 68748, Note_off_c, 0, 53, 108
1, 69102, Note_on_c, 0, 64, 123
1, 69609, Note_off_c, 0, 64, 123
1, 69710, Note_on_c, 0, 69, 110
1, 70242, Note_off_c, 0, 69, 110
1, 70292, Note_on_c, 0, 66, 108
1, 70900, Note_off_c, 0, 66, 108
1, 71052, Note_on_c, 0, 62, 119
1, 71559, Note_off_c, 0, 62, 119
1, 71635, Note_on_c, 0, 59, 107
1, 72319, Note_off_c, 0, 59, 107
1, 72952, Note_on_c, 0, 64, 122
1, 73484, Note_off_c, 0, 64, 122
1, 73654, Note_on_c, 0, 62, 116
1, 74153, Note_off_c, 0, 62, 116
1, 74224, Note_on_c, 0, 59, 108
1, 74687, Note_off_c, 0, 59, 108
1, 74722, Note_on_c, 0, 63, 115
1, 76005, Note_off_c, 0, 63, 115
1, 76005, Note_on_c, 0, 62, 114
1, 76504, Note_off_c, 0, 62, 114
1, 76682, Note_on_c, 0, 57, 106
1, 77234, Note_off_c, 0, 57, 106
1, 77358, Note_on_c, 0, 62, 116
1, 77999, Note_off_c, 0, 62, 116
1, 78159, Note_on_c, 0, 61, 113
1, 78586, Note_off_c, 0, 61, 113
1, 78657, Note_on_c, 0, 63, 113
1, 79174, Note_off_c, 0, 63, 113
1, 79245, Note_on_c, 0, 59, 110
1, 79708, Note_off_c, 0, 59, 110
1, 79850, Note_on_c, 0, 57, 97
1, 80384, Note_off_c, 0, 57, 97
1, 80508, Note_on_c, 0, 56, 105
1, 81791, Note_off_c, 0, 56, 105
1, 81862, Note_on_c, 0, 53, 104
1, 82325, Note_off_c, 0, 53, 104
1, 82538, Note_on_c, 0, 58, 101
1, 85123, Note_off_c, 0, 58, 101
1, 85176, Note_on_c, 0, 56, 96
1, 85657, Note_off_c, 0, 56, 96
1, 85799, Note_on_c, 0, 61, 113
1, 86529, Note_off_c, 0, 61, 113
1, 86849, Note_on_c, 0, 63, 120
1, 87651, Note_off_c, 0, 63, 120
1, 90343, Note_on_c, 0, 61, 113
1, 90592, Note_off_c, 0, 61, 113
1, 90770, Note_on_c, 0, 63, 120
1, 91358, Note_off_c, 0, 63, 120
1, 91571, Note_on_c, 0, 65, 112
1, 91981, Note_off_c, 0, 65, 112
1, 92034, Note_on_c, 0, 68, 118
1, 92444, Note_off_c, 0, 68, 118
1, 92640, Note_on_c, 0, 70, 116
1, 93192, Note_off_c, 0, 70, 116
1, 93298, Note_on_c, 0, 73, 119
1, 93832, Note_off_c, 0, 73, 119
1, 93992, Note_on_c, 0, 74, 122
1, 94455, Note_off_c, 0, 74, 122
1, 94490, Note_on_c, 0, 75, 127
1, 94846, Note_off_c, 0, 75, 127
1, 94863, Note_on_c, 0, 76, 123
1, 95219, Note_off_c, 0, 76, 123
1, 95236, Note_on_c, 0, 77, 119
1, 95681, Note_off_c, 0, 77, 119
1, 95787, Note_on_c, 0, 75, 119
1, 96838, Note_off_c, 0, 75, 119
1, 96873, Note_on_c, 0, 74, 116
1, 98851, Note_off_c, 0, 74, 116
1, 98868, Note_on_c, 0, 76, 119
1, 99474, Note_off_c, 0, 76, 119
1, 99491, Note_on_c, 0, 72, 113
1, 100596, Note_off_c, 0, 72, 113
1, 100827, Note_on_c, 0, 73, 117
1, 101379, Note_off_c, 0, 73, 117
1, 101468, Note_on_c, 0, 71, 113
1, 101878, Note_off_c, 0, 71, 113
1, 102038, Note_on_c, 0, 66, 110
1, 102555, Note_off_c, 0, 66, 110
1, 102697, Note_on_c, 0, 64, 109
1, 103107, Note_off_c, 0, 64, 109
1, 103356, Note_on_c, 0, 69, 123
1, 103926, Note_off_c, 0, 69, 123
1, 103997, Note_on_c, 0, 72, 114
1, 104407, Note_off_c, 0, 72, 114
1, 104442, Note_on_c, 0, 71, 111
1, 106314, Note_off_c, 0, 71, 111
1, 106349, Note_on_c, 0, 69, 114
1, 106955, Note_off_c, 0, 69, 114
1, 106990, Note_on_c, 0, 70, 111
1, 107435, Note_off_c, 0, 70, 111
1, 107506, Note_on_c, 0, 69, 111
1, 108058, Note_off_c, 0, 69, 111
1, 108111, Note_on_c, 0, 68, 112
1, 108735, Note_off_c, 0, 68, 112
1, 108841, Note_on_c, 0, 70, 109
1, 109482, Note_off_c, 0, 70, 109
1, 109535, Note_on_c, 0, 71, 101
1, 110052, Note_off_c, 0, 71, 101
1, 110158, Note_on_c, 0, 70, 109
1, 110639, Note_off_c, 0, 70, 109
1, 110835, Note_on_c, 0, 68, 110
1, 111334, Note_off_c, 0, 68, 110
1, 111458, Note_on_c, 0, 65, 113
1, 112010, Note_off_c, 0, 65, 113
1, 112027, Note_on_c, 0, 63, 111
1, 112544, Note_off_c, 0, 63, 111
1, 112636, Note_on_c, 0, 58, 91
1, 113016, Note_off_c, 0, 58, 91
1, 113149, Note_on_c, 0, 67, 114
1, 113719, Note_off_c, 0, 67, 114
1, 113790, Note_on_c, 0, 70, 109
1, 114271, Note_off_c, 0, 70, 109
1, 114395, Note_on_c, 0, 68, 110
1, 115019, Note_off_c, 0, 68, 110
1, 115215, Note_on_c, 0, 65, 112
1, 115714, Note_off_c, 0, 65, 112
1, 115731, Note_on_c, 0, 63, 110
1, 116319, Note_off_c, 0, 63, 110
1, 116497, Note_on_c, 0, 58, 103
1, 116889, Note_off_c, 0, 58, 103
1, 117031, Note_on_c, 0, 67, 105
1, 118261, Note_off_c, 0, 67, 105
1, 118296, Note_on_c, 0, 66, 105
1, 119026, Note_off_c, 0, 66, 105
1, 119168, Note_on_c, 0, 62, 112
1, 119827, Note_off_c, 0, 62, 112
1, 122947, Note_on_c, 0, 66, 116
1, 123251, Note_off_c, 0, 66, 116
1, 123320, Note_on_c, 0, 65, 117
1, 123926, Note_off_c, 0, 65, 117
1, 123979, Note_on_c, 0, 64, 121
1, 124478, Note_off_c, 0, 64, 121
1, 124549, Note_on_c, 0, 63, 113
1, 125137, Note_off_c, 0, 63, 113
1, 125243, Note_on_c, 0, 61, 118
1, 125831, Note_off_c, 0, 61, 118
1, 126544, Note_on_c, 0, 61, 118
1, 127078, Note_off_c, 0, 61, 118
1, 127184, Note_on_c, 0, 60, 112
1, 127790, Note_off_c, 0, 60, 112
1, 128449, Note_on_c, 0, 61, 117
1, 129055, Note_off_c, 0, 61, 117
1, 129144, Note_on_c, 0, 58, 109
1, 129607, Note_off_c, 0, 58, 109
1, 129767, Note_on_c, 0, 53, 106
1, 130212, Note_off_c, 0, 53, 106
1, 130247, Note_on_c, 0, 60, 108
1, 130764, Note_off_c, 0, 60, 108
1, 130781, Note_on_c, 0, 58, 107
1, 132029, Note_off_c, 0, 58, 107
1, 132118, Note_on_c, 0, 56, 106
1, 132759, Note_off_c, 0, 56, 106
1, 132776, Note_on_c, 0, 55, 103
1, 133293, Note_off_c, 0, 55, 103
1, 133542, Note_on_c, 0, 58, 102
1, 133827, Note_off_c, 0, 58, 102
1, 133844, Note_on_c, 0, 61, 107
1, 134057, Note_off_c, 0, 61, 107
1, 134288, Note_on_c, 0, 65, 112
1, 134644, Note_off_c, 0, 65, 112
1, 134661, Note_on_c, 0, 61, 115
1, 135213, Note_off_c, 0, 61, 115
1, 135230, Note_on_c, 0, 63, 113
1, 135854, Note_off_c, 0, 63, 113
1, 135889, Note_on_c, 0, 65, 113
1, 136602, Note_off_c, 0, 65, 113
1, 136815, Note_on_c, 0, 70, 95
1, 137046, Note_off_c, 0, 70, 95
1, 137202, Note_on_c, 0, 73, 110
1, 137772, Note_off_c, 0, 73, 110
1, 138043, Note_on_c, 0, 67, 99
1, 138363, Note_off_c, 0, 67, 99
1, 138380, Note_on_c, 0, 70, 113
1, 138861, Note_off_c, 0, 70, 113
1, 139146, Note_on_c, 0, 73, 109
1, 139556, Note_off_c, 0, 73, 109
1, 139573, Note_on_c, 0, 74, 114
1, 140250, Note_off_c, 0, 74, 114
1, 140321, Note_on_c, 0, 76, 118
1, 140820, Note_off_c, 0, 76, 118
1, 141176, Note_on_c, 0, 77, 107
1, 141675, Note_off_c, 0, 77, 107
1, 141696, Note_on_c, 0, 76, 120
1, 142177, Note_off_c, 0, 76, 120
1, 142202, Note_on_c, 0, 75, 113
1, 142417, Note_off_c, 0, 75, 113
1, 142455, Note_on_c, 0, 74, 115
1, 142721, Note_off_c, 0, 74, 115
1, 142813, Note_on_c, 0, 73, 107
1, 143151, Note_off_c, 0, 73, 107
1, 150532, Note_on_c, 0, 72, 112
1, 153099, Note_off_c, 0, 72, 112
1, 153188, Note_on_c, 0, 71, 114
1, 153615, Note_off_c, 0, 71, 114
1, 153757, Note_on_c, 0, 70, 112
1, 154345, Note_off_c, 0, 70, 112
1, 154398, Note_on_c, 0, 69, 113
1, 154825, Note_off_c, 0, 69, 113
1, 154860, Note_on_c, 0, 68, 113
1, 156838, Note_off_c, 0, 68, 113
1, 156980, Note_on_c, 0, 67, 111
1, 158228, Note_off_c, 0, 67, 111
1, 158370, Note_on_c, 0, 66, 111
1, 158833, Note_off_c, 0, 66, 111
1, 158939, Note_on_c, 0, 65, 113
1, 159349, Note_off_c, 0, 65, 113
1, 159491, Note_on_c, 0, 64, 120
1, 159954, Note_off_c, 0, 64, 120
1, 160096, Note_on_c, 0, 63, 116
1, 160434, Note_off_c, 0, 63, 116
1, 160558, Note_on_c, 0, 62, 117
1, 161288, Note_off_c, 0, 62, 117
1, 161394, Note_on_c, 0, 61, 113
1, 161786, Note_off_c, 0, 61, 113
1, 161946, Note_on_c, 0, 67, 107
1, 162373, Note_off_c, 0, 67, 107
1, 162482, Note_on_c, 0, 61, 112
1, 163141, Note_off_c, 0, 61, 112
1, 163267, Note_on_c, 0, 58, 97
1, 163723, Note_off_c, 0, 58, 97
1, 163779, Note_on_c, 0, 63, 115
1, 164884, Note_off_c, 0, 63, 115
1, 165062, Note_on_c, 0, 59, 109
1, 165579, Note_off_c, 0, 59, 109
1, 165650, Note_on_c, 0, 58, 112
1, 166238, Note_off_c, 0, 58, 112
1, 166309, Note_on_c, 0, 57, 103
1, 166736, Note_off_c, 0, 57, 103
1, 167003, Note_on_c, 0, 64, 119
1, 167466, Note_off_c, 0, 64, 119
1, 167626, Note_on_c, 0, 58, 110
1, 168053, Note_off_c, 0, 58, 110
1, 168142, Note_on_c, 0, 57, 105
1, 168694, Note_off_c, 0, 57, 105
1, 168711, Note_on_c, 0, 56, 112
1, 169243, Note_off_c, 0, 56, 112
1, 169319, Note_on_c, 0, 55, 103
1, 169902, Note_off_c, 0, 55, 103
1, 169976, Note_on_c, 0, 64, 118
1, 171794, Note_off_c, 0, 64, 118
1, 172043, Note_on_c, 0, 58, 110
1, 173041, Note_off_c, 0, 58, 110
1, 173094, Note_on_c, 0, 57, 109
1, 173525, Note_off_c, 0, 57, 109
1, 173525, Note_on_c, 0, 55, 96
1, 173778, Note_off_c, 0, 55, 96
1, 173879, Note_on_c, 0, 56, 105
1, 174324, Note_off_c, 0, 56, 105
1, 174339, Note_on_c, 0, 55, 115
1, 174873, Note_off_c, 0, 55, 115
1, 174941, Note_on_c, 0, 64, 121
1, 175654, Note_off_c, 0, 64, 121
1, 175692, Note_on_c, 0, 58, 104
1, 176066, Note_off_c, 0, 58, 104
1, 176244, Note_on_c, 0, 55, 102
1, 176850, Note_off_c, 0, 55, 102
1, 176921, Note_on_c, 0, 54, 108
1, 177473, Note_off_c, 0, 54, 108
1, 177550, Note_on_c, 0, 53, 101
1, 178234, Note_off_c, 0, 53, 101
1, 178345, Note_on_c, 0, 52, 106
1, 178986, Note_off_c, 0, 52, 106
1, 179324, Note_on_c, 0, 62, 115
1, 179894, Note_off_c, 0, 62, 115
1, 179905, Note_on_c, 0, 59, 102
1, 181147, Note_off_c, 0, 59, 102
1, 181551, Note_on_c, 0, 53, 109
1, 182175, Note_off_c, 0, 53, 109
1, 182210, Note_on_c, 0, 52, 106
1, 182637, Note_off_c, 0, 52, 106
1, 182690, Note_on_c, 0, 51, 99
1, 183153, Note_off_c, 0, 51, 99
1, 185702, Note_on_c, 0, 61, 118
1, 186201, Note_off_c, 0, 61, 118
1, 186343, Note_on_c, 0, 58, 103
1, 186895, Note_off_c, 0, 58, 103
1, 186930, Note_on_c, 0, 53, 108
1, 187411, Note_off_c, 0, 53, 108
1, 187607, Note_on_c, 0, 51, 109
1, 188070, Note_off_c, 0, 51, 109
1, 188123, Note_on_c, 0, 49, 123
1, 188996, Note_off_c, 0, 49, 123
1, 189299, Note_on_c, 0, 49, 119
1, 190083, Note_off_c, 0, 49, 119
1, 195877, Note_on_c, 0, 56, 111
1, 196322, Note_off_c, 0, 56, 111
1, 196338, Note_on_c, 0, 53, 100
1, 196857, Note_off_c, 0, 53, 100
1, 197059, Note_on_c, 0, 56, 113
1, 197528, Note_off_c, 0, 56, 113
1, 197591, Note_on_c, 0, 52, 106
1, 198072, Note_off_c, 0, 52, 106
1, 198781, Note_on_c, 0, 64, 123
1, 199452, Note_off_c, 0, 64, 123
1, 199566, Note_on_c, 0, 58, 108
1, 199971, Note_off_c, 0, 58, 108
1, 200123, Note_on_c, 0, 53, 105
1, 200528, Note_off_c, 0, 53, 105
1, 200843, Note_on_c, 0, 57, 116
1, 201199, Note_off_c, 0, 57, 116
1, 201305, Note_on_c, 0, 55, 108
1, 201893, Note_off_c, 0, 55, 108
1, 202623, Note_on_c, 0, 59, 110
1, 203122, Note_off_c, 0, 59, 110
1, 204548, Note_on_c, 0, 64, 122
1, 204993, Note_off_c, 0, 64, 122
1, 205064, Note_on_c, 0, 61, 113
1, 205652, Note_off_c, 0, 61, 113
1, 205812, Note_on_c, 0, 57, 106
1, 206311, Note_off_c, 0, 57, 106
1, 206970, Note_on_c, 0, 62, 115
1, 207344, Note_off_c, 0, 62, 115
1, 207450, Note_on_c, 0, 59, 107
1, 208145, Note_off_c, 0, 59, 107
1, 208287, Note_on_c, 0, 54, 108
1, 208857, Note_off_c, 0, 54, 108
1, 209623, Note_on_c, 0, 57, 109
1, 209997, Note_off_c, 0, 57, 109
1, 210086, Note_on_c, 0, 55, 101
1, 210567, Note_off_c, 0, 55, 101
1, 211084, Note_on_c, 0, 59, 107
1, 211404, Note_off_c, 0, 59, 107
1, 211671, Note_on_c, 0, 62, 109
1, 211902, Note_off_c, 0, 62, 109
1, 212102, Note_on_c, 0, 65, 89
1, 212431, Note_off_c, 0, 65, 89
1, 212583, Note_on_c, 0, 77, 70
1, 212912, Note_off_c, 0, 77, 70
1, 214698, Note_on_c, 0, 64, 120
1, 215179, Note_off_c, 0, 64, 120
1, 215285, Note_on_c, 0, 62, 105
1, 217299, Note_off_c, 0, 62, 105
1, 217405, Note_on_c, 0, 60, 104
1, 218403, Note_off_c, 0, 60, 104
1, 218492, Note_on_c, 0, 62, 118
1, 219044, Note_off_c, 0, 62, 118
1, 219079, Note_on_c, 0, 63, 117
1, 219613, Note_off_c, 0, 63, 117
1, 219702, Note_on_c, 0, 66, 108
1, 220147, Note_off_c, 0, 66, 108
1, 220289, Note_on_c, 0, 70, 112
1, 220859, Note_off_c, 0, 70, 112
1, 220948, Note_on_c, 0, 70, 112
1, 221500, Note_off_c, 0, 70, 112
1, 221571, Note_on_c, 0, 71, 112
1, 222141, Note_off_c, 0, 71, 112
1, 222212, Note_on_c, 0, 75, 120
1, 222907, Note_off_c, 0, 75, 120
1, 222942, Note_on_c, 0, 72, 115
1, 223583, Note_off_c, 0, 72, 115
1, 223672, Note_on_c, 0, 71, 113
1, 224135, Note_off_c, 0, 71, 113
1, 224152, Note_on_c, 0, 70, 111
1, 224686, Note_off_c, 0, 70, 111
1, 224846, Note_on_c, 0, 67, 111
1, 225256, Note_off_c, 0, 67, 111
1, 225398, Note_on_c, 0, 64, 117
1, 225954, Note_on_c, 0, 60, 103
1, 225954, Note_off_c, 0, 64, 117
1, 226486, Note_off_c, 0, 60, 103
1, 226644, Note_on_c, 0, 69, 113
1, 227339, Note_off_c, 0, 69, 113
1, 227374, Note_on_c, 0, 70, 108
1, 227873, Note_off_c, 0, 70, 108
1, 227908, Note_on_c, 0, 71, 106
1, 229904, Note_off_c, 0, 71, 106
1, 229975, Note_on_c, 0, 70, 108
1, 230402, Note_off_c, 0, 70, 108
1, 230473, Note_on_c, 0, 69, 113
1, 231025, Note_off_c, 0, 69, 113
1, 231203, Note_on_c, 0, 66, 107
1, 231648, Note_off_c, 0, 66, 107
1, 231754, Note_on_c, 0, 63, 111
1, 232449, Note_off_c, 0, 63, 111
1, 233001, Note_on_c, 0, 66, 107
1, 233535, Note_off_c, 0, 66, 107
1, 233606, Note_on_c, 0, 69, 114
1, 234158, Note_off_c, 0, 69, 114
1, 234318, Note_on_c, 0, 71, 92
1, 234852, Note_off_c, 0, 71, 92
1, 234905, Note_on_c, 0, 73, 108
1, 235493, Note_off_c, 0, 73, 108
1, 235546, Note_on_c, 0, 70, 104
1, 236098, Note_off_c, 0, 70, 104
1, 236276, Note_on_c, 0, 65, 104
1, 236668, Note_off_c, 0, 65, 104
1, 236721, Note_on_c, 0, 72, 111
1, 237451, Note_off_c, 0, 72, 111
1, 237575, Note_on_c, 0, 65, 105
1, 237949, Note_off_c, 0, 65, 105
1, 237984, Note_on_c, 0, 71, 112
1, 238625, Note_off_c, 0, 71, 112
1, 238767, Note_on_c, 0, 65, 106
1, 239159, Note_off_c, 0, 65, 106
1, 239212, Note_on_c, 0, 70, 111
1, 239800, Note_off_c, 0, 70, 111
1, 239871, Note_on_c, 0, 68, 106
1, 240388, Note_off_c, 0, 68, 106
1, 240459, Note_on_c, 0, 65, 109
1, 240922, Note_off_c, 0, 65, 109
1, 241046, Note_on_c, 0, 63, 112
1, 242276, Note_off_c, 0, 63, 112
1, 242650, Note_on_c, 0, 65, 111
1, 242970, Note_off_c, 0, 65, 111
1, 243076, Note_on_c, 0, 68, 110
1, 243486, Note_off_c, 0, 68, 110
1, 243575, Note_on_c, 0, 70, 109
1, 244145, Note_off_c, 0, 70, 109
1, 244198, Note_on_c, 0, 75, 113
1, 245570, Note_off_c, 0, 75, 113
1, 245712, Note_on_c, 0, 72, 103
1, 246728, Note_off_c, 0, 72, 103
1, 246888, Note_on_c, 0, 70, 99
1, 248617, Note_off_c, 0, 70, 99
1, 248884, Note_on_c, 0, 65, 107
1, 249383, Note_off_c, 0, 65, 107
1, 251344, Note_on_c, 0, 61, 114
1, 251807, Note_off_c, 0, 61, 114
1, 251824, Note_on_c, 0, 68, 112
1, 252465, Note_off_c, 0, 68, 112
1, 252571, Note_on_c, 0, 63, 116
1, 253052, Note_off_c, 0, 63, 116
1, 253105, Note_on_c, 0, 70, 107
1, 255066, Note_off_c, 0, 70, 107
1, 255101, Note_on_c, 0, 69, 114
1, 255564, Note_off_c, 0, 69, 114
1, 255617, Note_on_c, 0, 68, 110
1, 256134, Note_off_c, 0, 68, 110
1, 256312, Note_on_c, 0, 66, 106
1, 256864, Note_off_c, 0, 66, 106
1, 256970, Note_on_c, 0, 65, 115
1, 257451, Note_off_c, 0, 65, 115
1, 257522, Note_on_c, 0, 64, 119
1, 258056, Note_off_c, 0, 64, 119
1, 258145, Note_on_c, 0, 63, 106
1, 258715, Note_off_c, 0, 63, 106
1, 260176, Note_on_c, 0, 61, 117
1, 260746, Note_off_c, 0, 61, 117
1, 262831, Note_on_c, 0, 65, 118
1, 263526, Note_off_c, 0, 65, 118
1, 265255, Note_on_c, 0, 60, 107
1, 266164, Note_off_c, 0, 60, 107
1, 267911, Note_on_c, 0, 63, 120
1, 268267, Note_off_c, 0, 63, 120
1, 268320, Note_on_c, 0, 61, 115
1, 268961, Note_off_c, 0, 61, 115
1, 269014, Note_on_c, 0, 56, 105
1, 269477, Note_off_c, 0, 56, 105
1, 271616, Note_on_c, 0, 60, 113
1, 272008, Note_off_c, 0, 60, 113
1, 272055, Note_on_c, 0, 56, 103
1, 272333, Note_off_c, 0, 56, 103
1, 272358, Note_on_c, 0, 55, 105
1, 272636, Note_off_c, 0, 55, 105
1, 272843, Note_on_c, 0, 61, 114
1, 273270, Note_off_c, 0, 61, 114
1, 273376, Note_on_c, 0, 67, 115
1, 273982, Note_off_c, 0, 67, 115
1, 275764, Note_on_c, 0, 73, 118
1, 276459, Note_off_c, 0, 73, 118
1, 277938, Note_on_c, 0, 61, 113
1, 278597, Note_off_c, 0, 61, 113
1, 279417, Note_on_c, 0, 67, 114
1, 280076, Note_off_c, 0, 67, 114
1, 280396, Note_on_c, 0, 72, 115
1, 280699, Note_off_c, 0, 72, 115
1, 280788, Note_on_c, 0, 70, 111
1, 281358, Note_off_c, 0, 70, 111
1, 281661, Note_on_c, 0, 65, 109
1, 282017, Note_off_c, 0, 65, 109
1, 282034, Note_on_c, 0, 69, 109
1, 282319, Note_off_c, 0, 69, 109
1, 282408, Note_on_c, 0, 71, 116
1, 282639, Note_off_c, 0, 71, 116
1, 282835, Note_on_c, 0, 65, 113
1, 283245, Note_off_c, 0, 65, 113
1, 283334, Note_on_c, 0, 64, 116
1, 283815, Note_off_c, 0, 64, 116
1, 284028, Note_on_c, 0, 71, 114
1, 284562, Note_off_c, 0, 71, 114
1, 284651, Note_on_c, 0, 70, 110
1, 285114, Note_off_c, 0, 70, 110
1, 285238, Note_on_c, 0, 66, 109
1, 285737, Note_off_c, 0, 66, 109
1, 288393, Note_on_c, 0, 54, 108
1, 288785, Note_off_c, 0, 54, 108
1, 289070, Note_on_c, 0, 60, 111
1, 289497, Note_off_c, 0, 60, 111
1, 289497, Note_on_c, 0, 66, 109
1, 290031, Note_off_c, 0, 66, 109
1, 290244, Note_on_c, 0, 72, 117
1, 290743, Note_off_c, 0, 72, 117
1, 290867, Note_on_c, 0, 76, 121
1, 291491, Note_off_c, 0, 76, 121
1, 291562, Note_on_c, 0, 70, 110
1, 292079, Note_off_c, 0, 70, 110
1, 292150, Note_on_c, 0, 65, 111
1, 292667, Note_off_c, 0, 65, 111
1, 292827, Note_on_c, 0, 69, 114
1, 293504, Note_off_c, 0, 69, 114
1, 297051, Note_on_c, 0, 70, 114
1, 298174, Note_off_c, 0, 70, 114
1, 298245, Note_on_c, 0, 67, 104
1, 299047, Note_off_c, 0, 67, 104
1, 299064, Note_on_c, 0, 69, 118
1, 299491, Note_off_c, 0, 69, 118
1, 299508, Note_on_c, 0, 68, 109
1, 299935, Note_off_c, 0, 68, 109
1, 299988, Note_on_c, 0, 70, 103
1, 300398, Note_off_c, 0, 70, 103
1, 302287, Note_on_c, 0, 68, 119
1, 302643, Note_off_c, 0, 68, 119
1, 302856, Note_on_c, 0, 66, 107
1, 303604, Note_off_c, 0, 66, 107
1, 303800, Note_on_c, 0, 63, 118
1, 304352, Note_off_c, 0, 63, 118
1, 304458, Note_on_c, 0, 61, 114
1, 305010, Note_off_c, 0, 61, 114
1, 305081, Note_on_c, 0, 59, 108
1, 305544, Note_off_c, 0, 59, 108
1, 305744, Note_on_c, 0, 58, 107
1, 306530, Note_off_c, 0, 58, 107
1, 306898, Note_on_c, 0, 56, 102
1, 307557, Note_off_c, 0, 56, 102
1, 310078, Note_on_c, 0, 53, 118
1, 310284, Note_off_c, 0, 53, 118
1, 310284, Note_on_c, 0, 58, 115
1, 310747, Note_off_c, 0, 58, 115
1, 310907, Note_on_c, 0, 57, 116
1, 312618, Note_off_c, 0, 57, 116
1, 312760, Note_on_c, 0, 65, 121
1, 313205, Note_off_c, 0, 65, 121
1, 313222, Note_on_c, 0, 63, 108
1, 317126, Note_off_c, 0, 63, 108
1, 317250, Note_on_c, 0, 65, 115
1, 317909, Note_off_c, 0, 65, 115
1, 317998, Note_on_c, 0, 62, 116
1, 318728, Note_off_c, 0, 62, 116
1, 319120, Note_on_c, 0, 63, 119
1, 319601, Note_off_c, 0, 63, 119
1, 319743, Note_on_c, 0, 65, 114
1, 320224, Note_off_c, 0, 65, 114
1, 320295, Note_on_c, 0, 66, 110
1, 320847, Note_off_c, 0, 66, 110
1, 320900, Note_on_c, 0, 68, 111
1, 321452, Note_off_c, 0, 68, 111
1, 321487, Note_on_c, 0, 70, 112
1, 322075, Note_off_c, 0, 70, 112
1, 322164, Note_on_c, 0, 71, 114
1, 322734, Note_off_c, 0, 71, 114
1, 322805, Note_on_c, 0, 73, 112
1, 323839, Note_off_c, 0, 73, 112
1, 323892, Note_on_c, 0, 72, 104
1, 326263, Note_off_c, 0, 72, 104
1, 326316, Note_on_c, 0, 71, 101
1, 326654, Note_off_c, 0, 71, 101
1, 326867, Note_on_c, 0, 71, 108
1, 327366, Note_off_c, 0, 71, 108
1, 327401, Note_on_c, 0, 70, 108
1, 327918, Note_off_c, 0, 70, 108
1, 328114, Note_on_c, 0, 69, 110
1, 328417, Note_off_c, 0, 69, 110
1, 328452, Note_on_c, 0, 68, 109
1, 329093, Note_off_c, 0, 68, 109
1, 329164, Note_on_c, 0, 66, 105
1, 329645, Note_off_c, 0, 66, 105
1, 329680, Note_on_c, 0, 65, 111
1, 330286, Note_off_c, 0, 65, 111
1, 330339, Note_on_c, 0, 64, 117
1, 330963, Note_off_c, 0, 64, 117
1, 331052, Note_on_c, 0, 63, 107
1, 331515, Note_off_c, 0, 63, 107
1, 331761, Note_on_c, 0, 58, 104
1, 332065, Note_off_c, 0, 58, 104
1, 332137, Note_on_c, 0, 61, 111
1, 332725, Note_off_c, 0, 61, 111
1, 332796, Note_on_c, 0, 58, 107
1, 333277, Note_off_c, 0, 58, 107
1, 333330, Note_on_c, 0, 56, 104
1, 333757, Note_off_c, 0, 56, 104
1, 333935, Note_on_c, 0, 54, 104
1, 334986, Note_off_c, 0, 54, 104
1, 338932, Note_on_c, 0, 57, 108
1, 339565, Note_off_c, 0, 57, 108
1, 339767, Note_on_c, 0, 61, 103
1, 340400, Note_off_c, 0, 61, 103
1, 340670, Note_on_c, 0, 65, 111
1, 341080, Note_off_c, 0, 65, 111
1, 341169, Note_on_c, 0, 61, 115
1, 341579, Note_off_c, 0, 61, 115
1, 341650, Note_on_c, 0, 63, 110
1, 342220, Note_off_c, 0, 63, 110
1, 342273, Note_on_c, 0, 65, 113
1, 342825, Note_on_c, 0, 69, 103
1, 342825, Note_off_c, 0, 65, 113
1, 343431, Note_off_c, 0, 69, 103
1, 343520, Note_on_c, 0, 71, 114
1, 343965, Note_off_c, 0, 71, 114
1, 344022, Note_on_c, 0, 73, 114
1, 344521, Note_off_c, 0, 73, 114
1, 344588, Note_on_c, 0, 75, 116
1, 345212, Note_off_c, 0, 75, 116
1, 345301, Note_on_c, 0, 76, 121
1, 346014, Note_off_c, 0, 76, 121
1, 346014, Note_on_c, 0, 77, 119
1, 346495, Note_off_c, 0, 77, 119
1, 346619, Note_on_c, 0, 76, 121
1, 347118, Note_off_c, 0, 76, 121
1, 347171, Note_on_c, 0, 74, 119
1, 347795, Note_off_c, 0, 74, 119
1, 347919, Note_on_c, 0, 71, 112
1, 348596, Note_off_c, 0, 71, 112
1, 348845, Note_on_c, 0, 69, 113
1, 350610, Note_off_c, 0, 69, 113
1, 350663, Note_on_c, 0, 68, 111
1, 351643, Note_off_c, 0, 68, 111
1, 351732, Note_on_c, 0, 65, 109
1, 352284, Note_off_c, 0, 65, 109
1, 352408, Note_on_c, 0, 62, 115
1, 352835, Note_off_c, 0, 62, 115
1, 352888, Note_on_c, 0, 58, 101
1, 353315, Note_off_c, 0, 58, 101
1, 353439, Note_on_c, 0, 64, 120
1, 353938, Note_on_c, 0, 62, 115
1, 353938, Note_off_c, 0, 64, 120
1, 354615, Note_off_c, 0, 62, 115
1, 354757, Note_on_c, 0, 61, 112
1, 355327, Note_on_c, 0, 63, 114
1, 355327, Note_off_c, 0, 61, 112
1, 355844, Note_off_c, 0, 63, 114
1, 355950, Note_on_c, 0, 58, 109
1, 356484, Note_off_c, 0, 58, 109
1, 356501, Note_on_c, 0, 57, 113
1, 357071, Note_off_c, 0, 57, 113
1, 357177, Note_on_c, 0, 56, 106
1, 357676, Note_off_c, 0, 56, 106
1, 359441, Note_on_c, 0, 59, 99
1, 359940, Note_off_c, 0, 59, 99
1, 360064, Note_on_c, 0, 61, 110
1, 360688, Note_off_c, 0, 61, 110
1, 360705, Note_on_c, 0, 63, 111
1, 361329, Note_off_c, 0, 63, 111
1, 361507, Note_on_c, 0, 65, 109
1, 362113, Note_off_c, 0, 65, 109
1, 362184, Note_on_c, 0, 68, 109
1, 362701, Note_off_c, 0, 68, 109
1, 362807, Note_on_c, 0, 70, 112
1, 363395, Note_off_c, 0, 70, 112
1, 363501, Note_on_c, 0, 71, 99
1, 364071, Note_off_c, 0, 71, 99
1, 364160, Note_on_c, 0, 73, 113
1, 364712, Note_off_c, 0, 73, 113
1, 364729, Note_on_c, 0, 70, 108
1, 365192, Note_off_c, 0, 70, 108
1, 365334, Note_on_c, 0, 68, 110
1, 365833, Note_off_c, 0, 68, 110
1, 365886, Note_on_c, 0, 65, 112
1, 366438, Note_off_c, 0, 65, 112
1, 366473, Note_on_c, 0, 63, 101
1, 367007, Note_off_c, 0, 63, 101
1, 367149, Note_on_c, 0, 67, 110
1, 367648, Note_off_c, 0, 67, 110
1, 367683, Note_on_c, 0, 64, 118
1, 368378, Note_off_c, 0, 64, 118
1, 368413, Note_on_c, 0, 70, 97
1, 369910, Note_off_c, 0, 70, 97
1, 384832, Note_on_c, 0, 74, 119
1, 385402, Note_off_c, 0, 74, 119
1, 385419, Note_on_c, 0, 76, 122
1, 385704, Note_off_c, 0, 76, 122
1, 385721, Note_on_c, 0, 77, 119
1, 387860, Note_off_c, 0, 77, 119
1, 388127, Note_on_c, 0, 67, 108
1, 391193, Note_off_c, 0, 67, 108
1, 391531, Note_on_c, 0, 74, 118
1, 391851, Note_off_c, 0, 74, 118
1, 391868, Note_on_c, 0, 76, 124
1, 392153, Note_off_c, 0, 76, 124
1, 392153, Note_on_c, 0, 77, 118
1, 393115, Note_off_c, 0, 77, 118
1, 393525, Note_on_c, 0, 69, 116
1, 394790, Note_off_c, 0, 69, 116
1, 395253, Note_on_c, 0, 72, 104
1, 395520, Note_off_c, 0, 72, 104
1, 395555, Note_on_c, 0, 75, 116
1, 395768, Note_off_c, 0, 75, 116
1, 395803, Note_on_c, 0, 77, 117
1, 397068, Note_off_c, 0, 77, 117
1, 397317, Note_on_c, 0, 67, 108
1, 400312, Note_off_c, 0, 67, 108
1, 400597, Note_on_c, 0, 75, 115
1, 401060, Note_off_c, 0, 75, 115
1, 401309, Note_on_c, 0, 65, 109
1, 402949, Note_off_c, 0, 65, 109
1, 403234, Note_on_c, 0, 73, 99
1, 408101, Note_off_c, 0, 73, 99
1, 408386, Note_on_c, 0, 67, 108
1, 410578, Note_off_c, 0, 67, 108
1, 410667, Note_on_c, 0, 73, 110
1, 411184, Note_off_c, 0, 73, 110
1, 411237, Note_on_c, 0, 75, 111
1, 411736, Note_off_c, 0, 75, 111
1, 411842, Note_on_c, 0, 77, 111
1, 412323, Note_off_c, 0, 77, 111
1, 412358, Note_on_c, 0, 73, 108
1, 413588, Note_off_c, 0, 73, 108
1, 413694, Note_on_c, 0, 75, 110
1, 414335, Note_off_c, 0, 75, 110
1, 414424, Note_on_c, 0, 72, 103
1, 416741, Note_off_c, 0, 72, 103
1, 416830, Note_on_c, 0, 75, 112
1, 417257, Note_off_c, 0, 75, 112
1, 417363, Note_on_c, 0, 73, 108
1, 418058, Note_off_c, 0, 73, 108
1, 418735, Note_on_c, 0, 70, 109
1, 419269, Note_off_c, 0, 70, 109
1, 419375, Note_on_c, 0, 73, 111
1, 419963, Note_off_c, 0, 73, 111
1, 420034, Note_on_c, 0, 72, 108
1, 420622, Note_off_c, 0, 72, 108
1, 420800, Note_on_c, 0, 71, 108
1, 421406, Note_off_c, 0, 71, 108
1, 421441, Note_on_c, 0, 70, 106
1, 423027, Note_off_c, 0, 70, 106
1, 423098, Note_on_c, 0, 69, 108
1, 423632, Note_off_c, 0, 69, 108
1, 423632, Note_on_c, 0, 70, 106
1, 424238, Note_off_c, 0, 70, 106
1, 424327, Note_on_c, 0, 69, 109
1, 424933, Note_off_c, 0, 69, 109
1, 424986, Note_on_c, 0, 68, 107
1, 425503, Note_off_c, 0, 68, 107
1, 425627, Note_on_c, 0, 65, 107
1, 426144, Note_off_c, 0, 65, 107
1, 426233, Note_on_c, 0, 61, 116
1, 426892, Note_off_c, 0, 61, 116
1, 427070, Note_on_c, 0, 58, 104
1, 427390, Note_off_c, 0, 58, 104
1, 427555, Note_on_c, 0, 67, 110
1, 428179, Note_off_c, 0, 67, 110
1, 428209, Note_on_c, 0, 70, 103
1, 428708, Note_off_c, 0, 70, 103
1, 428797, Note_on_c, 0, 68, 109
1, 429314, Note_off_c, 0, 68, 109
1, 429403, Note_on_c, 0, 65, 106
1, 429866, Note_off_c, 0, 65, 106
1, 429955, Note_on_c, 0, 61, 112
1, 430543, Note_off_c, 0, 61, 112
1, 430632, Note_on_c, 0, 58, 105
1, 431184, Note_off_c, 0, 58, 105
1, 431184, Note_on_c, 0, 60, 105
1, 431718, Note_off_c, 0, 60, 105
1, 431771, Note_on_c, 0, 63, 109
1, 432430, Note_off_c, 0, 63, 109
1, 433054, Note_on_c, 0, 63, 103
1, 433678, Note_off_c, 0, 63, 103
1, 433784, Note_on_c, 0, 57, 106
1, 434336, Note_off_c, 0, 57, 106
1, 440183, Note_on_c, 0, 65, 112
1, 443320, Note_off_c, 0, 65, 112
1, 443391, Note_on_c, 0, 61, 113
1, 443890, Note_off_c, 0, 61, 113
1, 443907, Note_on_c, 0, 60, 111
1, 444477, Note_off_c, 0, 60, 111
1, 444477, Note_on_c, 0, 61, 122
1, 445011, Note_off_c, 0, 61, 122
1, 445189, Note_on_c, 0, 63, 114
1, 445723, Note_off_c, 0, 63, 114
1, 445883, Note_on_c, 0, 55, 102
1, 446400, Note_off_c, 0, 55, 102
1, 446524, Note_on_c, 0, 58, 105
1, 446916, Note_off_c, 0, 58, 105
1, 447076, Note_on_c, 0, 61, 117
1, 447593, Note_off_c, 0, 61, 117
1, 447664, Note_on_c, 0, 60, 111
1, 448234, Note_off_c, 0, 60, 111
1, 448305, Note_on_c, 0, 59, 114
1, 448857, Note_off_c, 0, 59, 114
1, 448910, Note_on_c, 0, 58, 108
1, 449534, Note_off_c, 0, 58, 108
1, 449587, Note_on_c, 0, 57, 110
1, 450621, Note_off_c, 0, 57, 110
1, 450710, Note_on_c, 0, 58, 108
1, 451440, Note_off_c, 0, 58, 108
1, 451498, Note_on_c, 0, 59, 105
1, 451908, Note_off_c, 0, 59, 105
1, 452005, Note_on_c, 0, 61, 108
1, 452575, Note_off_c, 0, 61, 108
1, 452669, Note_on_c, 0, 63, 115
1, 453203, Note_off_c, 0, 63, 115
1, 453363, Note_on_c, 0, 65, 105
1, 453844, Note_off_c, 0, 65, 105
1, 453933, Note_on_c, 0, 69, 118
1, 454628, Note_off_c, 0, 69, 118
1, 454699, Note_on_c, 0, 63, 108
1, 455144, Note_off_c, 0, 63, 108
1, 455286, Note_on_c, 0, 69, 118
1, 455999, Note_off_c, 0, 69, 118
1, 456088, Note_on_c, 0, 63, 110
1, 456462, Note_off_c, 0, 63, 110
1, 456782, Note_on_c, 0, 70, 110
1, 457209, Note_off_c, 0, 70, 110
1, 457280, Note_on_c, 0, 69, 115
1, 457743, Note_off_c, 0, 69, 115
1, 457832, Note_on_c, 0, 68, 113
1, 458509, Note_off_c, 0, 68, 113
1, 458562, Note_on_c, 0, 65, 114
1, 459096, Note_off_c, 0, 65, 114
1, 459167, Note_on_c, 0, 61, 117
1, 459737, Note_off_c, 0, 61, 117
1, 459956, Note_on_c, 0, 58, 95
1, 460234, Note_off_c, 0, 58, 95
1, 460342, Note_on_c, 0, 67, 115
1, 461001, Note_off_c, 0, 67, 115
1, 461072, Note_on_c, 0, 66, 109
1, 461571, Note_off_c, 0, 66, 109
1, 461624, Note_on_c, 0, 65, 111
1, 462248, Note_off_c, 0, 65, 111
1, 462301, Note_on_c, 0, 64, 117
1, 462728, Note_off_c, 0, 64, 117
1, 462763, Note_on_c, 0, 63, 109
1, 463280, Note_off_c, 0, 63, 109
1, 463565, Note_on_c, 0, 58, 103
1, 464171, Note_off_c, 0, 58, 103
1, 464848, Note_on_c, 0, 61, 114
1, 465311, Note_off_c, 0, 61, 114
1, 465596, Note_on_c, 0, 55, 103
1, 466451, Note_off_c, 0, 55, 103
1, 466611, Note_on_c, 0, 60, 107
1, 467645, Note_off_c, 0, 60, 107
1, 467823, Note_on_c, 0, 58, 105
1, 468589, Note_off_c, 0, 58, 105
1, 469227, Note_on_c, 0, 56, 103
1, 470190, Note_off_c, 0, 56, 103
1, 470418, Note_on_c, 0, 55, 102
1, 471330, Note_off_c, 0, 55, 102
1, 471406, Note_on_c, 0, 58, 103
1, 471887, Note_off_c, 0, 58, 103
1, 471912, Note_on_c, 0, 61, 109
1, 472317, Note_off_c, 0, 61, 109
1, 472545, Note_on_c, 0, 65, 108
1, 472950, Note_off_c, 0, 65, 108
1, 473178, Note_on_c, 0, 61, 109
1, 473634, Note_off_c, 0, 61, 109
1, 473760, Note_on_c, 0, 63, 109
1, 474216, Note_off_c, 0, 63, 109
1, 474266, Note_on_c, 0, 65, 109
1, 474975, Note_off_c, 0, 65, 109
1, 475482, Note_on_c, 0, 73, 111
1, 476014, Note_on_c, 0, 77, 104
1, 476014, Note_off_c, 0, 73, 111
1, 476521, Note_off_c, 0, 77, 104
1, 476571, Note_on_c, 0, 75, 107
1, 477230, Note_off_c, 0, 75, 107
1, 477407, Note_on_c, 0, 72, 110
1, 477939, Note_off_c, 0, 72, 110
1, 478648, Note_on_c, 0, 72, 101
1, 479155, Note_off_c, 0, 72, 101
1, 479180, Note_on_c, 0, 75, 110
1, 479889, Note_off_c, 0, 75, 110
1, 484300, Note_on_c, 0, 72, 110
1, 484781, Note_off_c, 0, 72, 110
1, 484831, Note_on_c, 0, 73, 110
1, 485338, Note_off_c, 0, 73, 110
1, 485515, Note_on_c, 0, 67, 110
1, 485971, Note_off_c, 0, 67, 110
1, 486199, Note_on_c, 0, 72, 113
1, 486630, Note_off_c, 0, 72, 113
1, 486630, Note_on_c, 0, 70, 111
1, 487339, Note_off_c, 0, 70, 111
1, 487491, Note_on_c, 0, 65, 98
1, 487871, Note_off_c, 0, 65, 98
1, 487921, Note_on_c, 0, 69, 116
1, 488554, Note_off_c, 0, 69, 116
1, 488655, Note_on_c, 0, 67, 114
1, 489035, Note_off_c, 0, 67, 114
1, 489136, Note_on_c, 0, 63, 114
1, 489795, Note_off_c, 0, 63, 114
1, 490048, Note_on_c, 0, 60, 102
1, 490377, Note_off_c, 0, 60, 102
1, 490377, Note_on_c, 0, 67, 114
1, 491086, Note_off_c, 0, 67, 114
1, 491314, Note_on_c, 0, 66, 110
1, 491719, Note_off_c, 0, 66, 110
1, 494432, Note_on_c, 0, 62, 110
1, 494913, Note_off_c, 0, 62, 110
1, 495014, Note_on_c, 0, 66, 110
1, 495318, Note_off_c, 0, 66, 110
1, 495571, Note_on_c, 0, 64, 115
1, 496154, Note_off_c, 0, 64, 115
1, 496255, Note_on_c, 0, 69, 116
1, 496686, Note_off_c, 0, 69, 116
1, 496812, Note_on_c, 0, 66, 110
1, 497319, Note_off_c, 0, 66, 110
1, 498460, Note_on_c, 0, 63, 112
1, 498992, Note_off_c, 0, 63, 112
1, 499017, Note_on_c, 0, 66, 111
1, 499625, Note_off_c, 0, 66, 111
1, 499701, Note_on_c, 0, 69, 118
1, 500208, Note_off_c, 0, 69, 118
1, 500284, Note_on_c, 0, 67, 112
1, 500841, Note_off_c, 0, 67, 112
1, 500993, Note_on_c, 0, 66, 109
1, 501525, Note_off_c, 0, 66, 109
1, 501575, Note_on_c, 0, 65, 110
1, 502158, Note_off_c, 0, 65, 110
1, 502234, Note_on_c, 0, 64, 115
1, 502690, Note_off_c, 0, 64, 115
1, 502842, Note_on_c, 0, 63, 113
1, 503374, Note_off_c, 0, 63, 113
1, 504717, Note_on_c, 0, 62, 115
1, 505224, Note_off_c, 0, 62, 115
1, 505249, Note_on_c, 0, 61, 113
1, 505756, Note_off_c, 0, 61, 113
1, 505857, Note_on_c, 0, 63, 113
1, 506389, Note_off_c, 0, 63, 113
1, 506617, Note_on_c, 0, 60, 108
1, 507098, Note_off_c, 0, 60, 108
1, 507174, Note_on_c, 0, 61, 112
1, 507655, Note_off_c, 0, 61, 112
1, 507756, Note_on_c, 0, 59, 109
1, 508263, Note_off_c, 0, 59, 109
1, 508339, Note_on_c, 0, 60, 105
1, 508896, Note_off_c, 0, 60, 105
1, 508946, Note_on_c, 0, 57, 104
1, 509554, Note_off_c, 0, 57, 104
1, 509655, Note_on_c, 0, 58, 109
1, 510162, Note_off_c, 0, 58, 109
1, 510288, Note_on_c, 0, 59, 97
1, 511074, Note_off_c, 0, 59, 97
1, 512291, Note_on_c, 0, 58, 108
1, 512798, Note_off_c, 0, 58, 108
1, 512848, Note_on_c, 0, 57, 109
1, 513304, Note_off_c, 0, 57, 109
1, 513557, Note_on_c, 0, 58, 107
1, 513911, Note_off_c, 0, 58, 107
1, 513936, Note_on_c, 0, 56, 107
1, 514544, Note_off_c, 0, 56, 107
1, 528997, Note_on_c, 0, 73, 115
1, 529529, Note_off_c, 0, 73, 115
1, 529706, Note_on_c, 0, 77, 116
1, 530162, Note_off_c, 0, 77, 116
1, 530212, Note_on_c, 0, 75, 115
1, 531048, Note_off_c, 0, 75, 115
1, 531149, Note_on_c, 0, 70, 113
1, 531580, Note_off_c, 0, 70, 113
1, 531656, Note_on_c, 0, 68, 120
1, 532289, Note_off_c, 0, 68, 120
1, 532289, Note_on_c, 0, 73, 115
1, 532846, Note_off_c, 0, 73, 115
1, 532896, Note_on_c, 0, 72, 107
1, 535811, Note_off_c, 0, 72, 107
1, 535937, Note_on_c, 0, 68, 106
1, 537179, Note_off_c, 0, 68, 106
1, 537229, Note_on_c, 0, 72, 116
1, 537660, Note_off_c, 0, 72, 116
1, 537710, Note_on_c, 0, 70, 114
1, 538318, Note_off_c, 0, 70, 114
1, 538368, Note_on_c, 0, 68, 114
1, 538773, Note_off_c, 0, 68, 114
1, 538899, Note_on_c, 0, 65, 114
1, 539532, Note_off_c, 0, 65, 114
1, 539684, Note_on_c, 0, 63, 112
1, 540140, Note_off_c, 0, 63, 112
1, 540241, Note_on_c, 0, 68, 115
1, 540824, Note_off_c, 0, 68, 115
1, 540925, Note_on_c, 0, 67, 112
1, 541330, Note_off_c, 0, 67, 112
1, 541507, Note_on_c, 0, 61, 113
1, 542343, Note_off_c, 0, 61, 113
1, 542419, Note_on_c, 0, 58, 108
1, 542748, Note_off_c, 0, 58, 108
1, 542748, Note_on_c, 0, 60, 109
1, 543381, Note_off_c, 0, 60, 109
1, 543609, Note_on_c, 0, 63, 113
1, 544090, Note_off_c, 0, 63, 113
1, 544191, Note_on_c, 0, 58, 107
1, 544545, Note_off_c, 0, 58, 107
1, 544899, Note_on_c, 0, 53, 106
1, 545659, Note_off_c, 0, 53, 106
1, 545988, Note_on_c, 0, 56, 119
1, 546266, Note_off_c, 0, 56, 119
1, 546342, Note_on_c, 0, 55, 116
1, 547026, Note_off_c, 0, 55, 116
1, 547051, Note_on_c, 0, 56, 112
1, 547583, Note_off_c, 0, 56, 112
1, 547760, Note_on_c, 0, 58, 106
1, 548469, Note_off_c, 0, 58, 106
1, 548595, Note_on_c, 0, 60, 108
1, 549304, Note_off_c, 0, 60, 108
1, 549608, Note_on_c, 0, 65, 117
1, 550089, Note_off_c, 0, 65, 117
1, 550139, Note_on_c, 0, 61, 119
1, 550747, Note_off_c, 0, 61, 119
1, 550797, Note_on_c, 0, 63, 115
1, 551202, Note_off_c, 0, 63, 115
1, 551354, Note_on_c, 0, 67, 112
1, 551861, Note_off_c, 0, 67, 112
1, 552139, Note_on_c, 0, 70, 97
1, 552519, Note_off_c, 0, 70, 97
1, 552620, Note_on_c, 0, 73, 115
1, 553253, Note_off_c, 0, 73, 115
1, 553405, Note_on_c, 0, 70, 109
1, 553709, Note_off_c, 0, 70, 109
1, 553709, Note_on_c, 0, 65, 109
1, 554393, Note_off_c, 0, 65, 109
1, 554671, Note_on_c, 0, 63, 112
1, 555051, Note_off_c, 0, 63, 112
1, 555304, Note_on_c, 0, 70, 109
1, 555785, Note_off_c, 0, 70, 109
1, 555810, Note_on_c, 0, 68, 108
1, 556367, Note_off_c, 0, 68, 108
1, 556443, Note_on_c, 0, 65, 109
1, 557026, Note_off_c, 0, 65, 109
1, 557279, Note_on_c, 0, 63, 106
1, 559941, Note_off_c, 0, 63, 106
1, 560295, Note_on_c, 0, 75, 116
1, 562171, Note_off_c, 0, 75, 116
1, 562171, Note_on_c, 0, 72, 106
1, 562627, Note_off_c, 0, 72, 106
1, 562703, Note_on_c, 0, 70, 107
1, 563336, Note_off_c, 0, 70, 107
1, 563412, Note_on_c, 0, 65, 108
1, 564045, Note_off_c, 0, 65, 108
1, 567873, Note_on_c, 0, 58, 101
1, 568430, Note_off_c, 0, 58, 101
1, 568531, Note_on_c, 0, 61, 113
1, 568987, Note_off_c, 0, 61, 113
1, 569037, Note_on_c, 0, 65, 111
1, 569569, Note_off_c, 0, 65, 111
1, 569797, Note_on_c, 0, 61, 114
1, 570278, Note_off_c, 0, 61, 114
1, 570303, Note_on_c, 0, 63, 117
1, 570810, Note_off_c, 0, 63, 117
1, 570962, Note_on_c, 0, 67, 110
1, 571545, Note_off_c, 0, 67, 110
1, 571646, Note_on_c, 0, 70, 99
1, 572077, Note_off_c, 0, 70, 99
1, 572153, Note_on_c, 0, 73, 115
1, 572533, Note_off_c, 0, 73, 115
1, 572659, Note_on_c, 0, 75, 116
1, 573267, Note_off_c, 0, 75, 116
1, 573343, Note_on_c, 0, 77, 106
1, 573951, Note_off_c, 0, 77, 106
1, 574001, Note_on_c, 0, 72, 112
1, 574533, Note_off_c, 0, 72, 112
1, 574634, Note_on_c, 0, 75, 113
1, 575217, Note_off_c, 0, 75, 113
1, 575318, Note_on_c, 0, 73, 112
1, 575825, Note_off_c, 0, 73, 112
1, 576129, Note_on_c, 0, 65, 100
1, 576458, Note_off_c, 0, 65, 100
1, 576508, Note_on_c, 0, 70, 110
1, 577065, Note_off_c, 0, 70, 110
1, 577166, Note_on_c, 0, 73, 114
1, 577622, Note_off_c, 0, 73, 114
1, 577748, Note_on_c, 0, 70, 110
1, 578280, Note_off_c, 0, 70, 110
1, 578356, Note_on_c, 0, 72, 110
1, 578913, Note_off_c, 0, 72, 110
1, 578989, Note_on_c, 0, 70, 109
1, 580992, Note_off_c, 0, 70, 109
1, 581042, Note_on_c, 0, 68, 107
1, 581473, Note_off_c, 0, 68, 107
1, 581599, Note_on_c, 0, 63, 114
1, 582207, Note_off_c, 0, 63, 114
1, 582460, Note_on_c, 0, 65, 107
1, 582789, Note_off_c, 0, 65, 107
1, 582814, Note_on_c, 0, 68, 103
1, 584005, Note_off_c, 0, 68, 103
1, 586312, Note_on_c, 0, 72, 116
1, 586692, Note_off_c, 0, 72, 116
1, 586793, Note_on_c, 0, 70, 114
1, 587249, Note_off_c, 0, 70, 114
1, 587426, Note_on_c, 0, 68, 114
1, 588059, Note_off_c, 0, 68, 114
1, 588515, Note_on_c, 0, 63, 118
1, 588971, Note_off_c, 0, 63, 118
1, 588996, Note_on_c, 0, 62, 116
1, 589832, Note_off_c, 0, 62, 116
1, 590440, Note_on_c, 0, 65, 116
1, 591124, Note_off_c, 0, 65, 116
1, 593203, Note_on_c, 0, 71, 121
1, 593557, Note_off_c, 0, 71, 121
1, 593582, Note_on_c, 0, 70, 112
1, 593911, Note_off_c, 0, 70, 112
1, 593961, Note_on_c, 0, 69, 119
1, 594315, Note_off_c, 0, 69, 119
1, 594365, Note_on_c, 0, 68, 117
1, 594922, Note_off_c, 0, 68, 117
1, 595124, Note_on_c, 0, 66, 111
1, 595478, Note_off_c, 0, 66, 111
1, 595579, Note_on_c, 0, 65, 116
1, 596086, Note_off_c, 0, 65, 116
1, 596364, Note_on_c, 0, 63, 119
1, 596845, Note_off_c, 0, 63, 119
1, 597022, Note_on_c, 0, 62, 117
1, 597376, Note_off_c, 0, 62, 117
1, 597604, Note_on_c, 0, 59, 113
1, 598009, Note_off_c, 0, 59, 113
1, 598085, Note_on_c, 0, 58, 109
1, 598439, Note_off_c, 0, 58, 109
1, 598616, Note_on_c, 0, 57, 113
1, 599021, Note_off_c, 0, 57, 113
1, 599198, Note_on_c, 0, 56, 113
1, 599755, Note_off_c, 0, 56, 113
1, 599957, Note_on_c, 0, 58, 109
1, 600388, Note_off_c, 0, 58, 109
1, 600489, Note_on_c, 0, 54, 105
1, 601680, Note_off_c, 0, 54, 105
1, 602060, Note_on_c, 0, 58, 94
1, 602364, Note_off_c, 0, 58, 94
1, 602389, Note_on_c, 0, 63, 105
1, 602693, Note_off_c, 0, 63, 105
1, 602794, Note_on_c, 0, 66, 106
1, 603123, Note_on_c, 0, 70, 115
1, 603123, Note_off_c, 0, 66, 106
1, 603706, Note_off_c, 0, 70, 115
1, 603959, Note_on_c, 0, 66, 112
1, 604263, Note_off_c, 0, 66, 112
1, 604440, Note_on_c, 0, 63, 114
1, 604972, Note_off_c, 0, 63, 114
1, 605758, Note_on_c, 0, 68, 113
1, 606290, Note_off_c, 0, 68, 113
1, 606340, Note_on_c, 0, 66, 109
1, 606923, Note_off_c, 0, 66, 109
1, 610320, Note_on_c, 0, 76, 121
1, 611055, Note_off_c, 0, 76, 121
1, 611080, Note_on_c, 0, 78, 111
1, 611536, Note_off_c, 0, 78, 111
1, 611536, Note_on_c, 0, 76, 119
1, 612448, Note_off_c, 0, 76, 119
1, 612549, Note_on_c, 0, 75, 111
1, 613664, Note_off_c, 0, 75, 111
1, 614095, Note_on_c, 0, 73, 115
1, 614576, Note_off_c, 0, 73, 115
1, 614728, Note_on_c, 0, 72, 112
1, 615285, Note_off_c, 0, 72, 112
1, 615386, Note_on_c, 0, 67, 109
1, 615943, Note_off_c, 0, 67, 109
1, 615968, Note_on_c, 0, 64, 114
1, 616830, Note_off_c, 0, 64, 114
1, 617768, Note_on_c, 0, 69, 121
1, 618249, Note_off_c, 0, 69, 121
1, 618350, Note_on_c, 0, 70, 112
1, 618857, Note_off_c, 0, 70, 112
1, 618907, Note_on_c, 0, 71, 112
1, 619338, Note_off_c, 0, 71, 112
1, 619439, Note_on_c, 0, 73, 114
1, 619946, Note_off_c, 0, 73, 114
1, 620047, Note_on_c, 0, 70, 111
1, 621390, Note_off_c, 0, 70, 111
1, 621491, Note_on_c, 0, 68, 113
1, 621871, Note_off_c, 0, 68, 113
1, 621896, Note_on_c, 0, 66, 108
1, 622529, Note_off_c, 0, 66, 108
1, 622681, Note_on_c, 0, 63, 110
1, 622985, Note_off_c, 0, 63, 110
1, 623365, Note_on_c, 0, 69, 117
1, 624277, Note_off_c, 0, 69, 117
1, 624378, Note_on_c, 0, 70, 111
1, 624986, Note_off_c, 0, 70, 111
1, 625011, Note_on_c, 0, 69, 117
1, 625594, Note_off_c, 0, 69, 117
1, 625720, Note_on_c, 0, 68, 108
1, 626227, Note_off_c, 0, 68, 108
1, 626379, Note_on_c, 0, 66, 107
1, 626784, Note_off_c, 0, 66, 107
1, 626910, Note_on_c, 0, 65, 109
1, 627442, Note_off_c, 0, 65, 109
1, 627644, Note_on_c, 0, 64, 116
1, 628151, Note_off_c, 0, 64, 116
1, 628277, Note_on_c, 0, 63, 113
1, 628708, Note_off_c, 0, 63, 113
1, 628860, Note_on_c, 0, 61, 118
1, 629316, Note_off_c, 0, 61, 118
1, 629468, Note_on_c, 0, 60, 117
1, 629975, Note_off_c, 0, 60, 117
1, 630177, Note_on_c, 0, 58, 98
1, 630684, Note_off_c, 0, 58, 98
1, 630785, Note_on_c, 0, 57, 106
1, 631190, Note_off_c, 0, 57, 106
1, 631240, Note_on_c, 0, 58, 99
1, 631848, Note_off_c, 0, 58, 99
1, 631898, Note_on_c, 0, 56, 99
1, 632582, Note_off_c, 0, 56, 99
1, 643865, Note_on_c, 0, 54, 119
1, 644422, Note_off_c, 0, 54, 119
1, 644523, Note_on_c, 0, 57, 112
1, 644979, Note_off_c, 0, 57, 112
1, 645080, Note_on_c, 0, 59, 113
1, 645536, Note_off_c, 0, 59, 113
1, 645688, Note_on_c, 0, 63, 113
1, 646169, Note_off_c, 0, 63, 113
1, 646169, Note_on_c, 0, 66, 112
1, 646701, Note_off_c, 0, 66, 112
1, 646802, Note_on_c, 0, 69, 120
1, 647283, Note_off_c, 0, 69, 120
1, 647384, Note_on_c, 0, 71, 115
1, 647865, Note_off_c, 0, 71, 115
1, 648067, Note_on_c, 0, 75, 121
1, 648624, Note_off_c, 0, 75, 121
1, 648649, Note_on_c, 0, 76, 122
1, 649080, Note_off_c, 0, 76, 122
1, 649156, Note_on_c, 0, 77, 120
1, 649840, Note_off_c, 0, 77, 120
1, 649916, Note_on_c, 0, 75, 116
1, 650549, Note_off_c, 0, 75, 116
1, 650726, Note_on_c, 0, 73, 109
1, 653160, Note_off_c, 0, 73, 109
1, 653312, Note_on_c, 0, 71, 112
1, 653717, Note_off_c, 0, 71, 112
1, 653793, Note_on_c, 0, 70, 111
1, 654325, Note_off_c, 0, 70, 111
1, 654350, Note_on_c, 0, 69, 113
1, 657316, Note_off_c, 0, 69, 113
1, 657594, Note_on_c, 0, 65, 111
1, 658177, Note_off_c, 0, 65, 111
1, 658278, Note_on_c, 0, 63, 118
1, 658658, Note_off_c, 0, 63, 118
1, 658784, Note_on_c, 0, 59, 108
1, 659468, Note_off_c, 0, 59, 108
1, 659569, Note_on_c, 0, 57, 110
1, 660152, Note_off_c, 0, 57, 110
1, 660202, Note_on_c, 0, 63, 96
1, 660683, Note_off_c, 0, 63, 96
1, 660683, Note_on_c, 0, 61, 117
1, 661164, Note_off_c, 0, 61, 117
1, 661341, Note_on_c, 0, 55, 119
1, 661974, Note_off_c, 0, 55, 119
1, 662024, Note_on_c, 0, 56, 113
1, 662860, Note_off_c, 0, 56, 113
1, 663291, Note_on_c, 0, 62, 114
1, 663747, Note_off_c, 0, 62, 114
1, 663975, Note_on_c, 0, 59, 115
1, 664456, Note_off_c, 0, 59, 115
1, 664481, Note_on_c, 0, 56, 112
1, 664962, Note_off_c, 0, 56, 112
1, 665088, Note_on_c, 0, 55, 106
1, 665696, Note_off_c, 0, 55, 106
1, 665696, Note_on_c, 0, 57, 123
1, 666076, Note_on_c, 0, 59, 110
1, 666076, Note_off_c, 0, 57, 123
1, 666811, Note_off_c, 0, 59, 110
1, 666861, Note_on_c, 0, 64, 115
1, 667545, Note_on_c, 0, 65, 111
1, 667545, Note_off_c, 0, 64, 115
1, 668153, Note_off_c, 0, 65, 111
1, 668229, Note_on_c, 0, 68, 111
1, 668761, Note_off_c, 0, 68, 111
1, 668811, Note_on_c, 0, 71, 109
1, 669318, Note_off_c, 0, 71, 109
1, 669444, Note_on_c, 0, 73, 109
1, 670128, Note_off_c, 0, 73, 109
1, 673982, Note_on_c, 0, 72, 117
1, 674514, Note_off_c, 0, 72, 117
1, 674590, Note_on_c, 0, 73, 110
1, 675021, Note_off_c, 0, 73, 110
1, 675071, Note_on_c, 0, 70, 111
1, 675628, Note_off_c, 0, 70, 111
1, 675754, Note_on_c, 0, 66, 113
1, 676185, Note_off_c, 0, 66, 113
1, 676286, Note_on_c, 0, 63, 117
1, 676894, Note_off_c, 0, 63, 117
1, 677122, Note_on_c, 0, 65, 105
1, 677578, Note_off_c, 0, 65, 105
1, 677603, Note_on_c, 0, 70, 113
1, 678845, Note_off_c, 0, 70, 113
1, 678921, Note_on_c, 0, 68, 113
1, 679428, Note_off_c, 0, 68, 113
1, 679706, Note_on_c, 0, 65, 114
1, 680137, Note_off_c, 0, 65, 114
1, 680187, Note_on_c, 0, 63, 115
1, 680694, Note_off_c, 0, 63, 115
1, 680922, Note_on_c, 0, 59, 103
1, 681302, Note_off_c, 0, 59, 103
1, 681352, Note_on_c, 0, 61, 113
1, 681960, Note_off_c, 0, 61, 113
1, 682188, Note_on_c, 0, 56, 111
1, 683100, Note_off_c, 0, 56, 111
1, 683328, Note_on_c, 0, 61, 111
1, 683784, Note_off_c, 0, 61, 111
1, 683936, Note_on_c, 0, 59, 109
1, 684645, Note_off_c, 0, 59, 109
1, 684695, Note_on_c, 0, 54, 119
1, 685202, Note_off_c, 0, 54, 119
1, 685227, Note_on_c, 0, 56, 112
1, 686063, Note_off_c, 0, 56, 112
1, 687761, Note_on_c, 0, 57, 106
1, 688344, Note_off_c, 0, 57, 106
1, 689003, Note_on_c, 0, 60, 108
1, 689560, Note_off_c, 0, 60, 108
1, 690193, Note_on_c, 0, 58, 107
1, 690776, Note_off_c, 0, 58, 107
1, 691004, Note_on_c, 0, 63, 102
1, 692880, Note_off_c, 0, 63, 102
1, 692905, Note_on_c, 0, 60, 103
1, 693488, Note_off_c, 0, 60, 103
1, 693538, Note_on_c, 0, 63, 102
1, 694095, Note_off_c, 0, 63, 102
1, 694348, Note_on_c, 0, 61, 101
1, 695844, Note_off_c, 0, 61, 101
1, 696198, Note_on_c, 0, 61, 108
1, 696654, Note_off_c, 0, 61, 108
1, 696730, Note_on_c, 0, 60, 95
1, 697718, Note_off_c, 0, 60, 95
1, 698732, Note_on_c, 0, 57, 99
1, 699112, Note_off_c, 0, 57, 99
1, 699289, Note_on_c, 0, 60, 95
1, 699897, Note_off_c, 0, 60, 95
1, 699973, Note_on_c, 0, 58, 97
1, 700404, Note_off_c, 0, 58, 97
1, 700581, Note_on_c, 0, 56, 97
1, 701062, Note_off_c, 0, 56, 97
1, 701138, Note_on_c, 0, 55, 94
1, 701670, Note_off_c, 0, 55, 94
1, 720889, Note_on_c, 0, 55, 97
1, 721421, Note_off_c, 0, 55, 97
1, 721446, Note_on_c, 0, 56, 104
1, 721851, Note_off_c, 0, 56, 104
1, 721927, Note_on_c, 0, 53, 99
1, 722535, Note_off_c, 0, 53, 99
1, 722636, Note_on_c, 0, 56, 104
1, 723143, Note_off_c, 0, 56, 104
1, 723219, Note_on_c, 0, 55, 115
1, 723726, Note_off_c, 0, 55, 115
1, 723802, Note_on_c, 0, 56, 119
1, 724309, Note_off_c, 0, 56, 119
1, 724410, Note_on_c, 0, 58, 101
1, 724967, Note_off_c, 0, 58, 101
1, 725093, Note_on_c, 0, 60, 105
1, 725701, Note_off_c, 0, 60, 105
1, 725751, Note_on_c, 0, 61, 107
1, 726308, Note_off_c, 0, 61, 107
1, 726358, Note_on_c, 0, 63, 107
1, 726915, Note_off_c, 0, 63, 107
1, 726965, Note_on_c, 0, 65, 104
1, 727472, Note_off_c, 0, 65, 104
1, 727522, Note_on_c, 0, 67, 98
1, 728181, Note_off_c, 0, 67, 98
1, 728282, Note_on_c, 0, 68, 97
1, 728763, Note_off_c, 0, 68, 97
1, 728915, Note_on_c, 0, 70, 97
1, 729498, Note_off_c, 0, 70, 97
1, 729574, Note_on_c, 0, 72, 93
1, 730486, Note_off_c, 0, 72, 93
1, 730714, Note_on_c, 0, 72, 91
1, 731373, Note_off_c, 0, 72, 91
1, 731702, Note_on_c, 0, 70, 95
1, 732437, Note_off_c, 0, 70, 95
1, 732893, Note_on_c, 0, 70, 97
1, 733349, Note_off_c, 0, 70, 97
1, 733399, Note_on_c, 0, 68, 99
1, 733931, Note_off_c, 0, 68, 99
1, 734260, Note_on_c, 0, 65, 102
1, 734640, Note_off_c, 0, 65, 102
1, 734766, Note_on_c, 0, 63, 109
1, 735425, Note_off_c, 0, 63, 109
1, 735501, Note_on_c, 0, 61, 107
1, 736033, Note_off_c, 0, 61, 107
1, 736058, Note_on_c, 0, 63, 106
1, 737199, Note_off_c, 0, 63, 106
1, 737199, Note_on_c, 0, 65, 85
1, 743461, Note_off_c, 0, 65, 85
1, 743562, Note_on_c, 0, 61, 100
1, 744398, Note_off_c, 0, 61, 100
1, 744423, Note_on_c, 0, 60, 93
1, 745031, Note_off_c, 0, 60, 93
1, 749747, Note_on_c, 0, 60, 105
1, 750025, Note_off_c, 0, 60, 105
1, 750050, Note_on_c, 0, 61, 106
1, 750633, Note_off_c, 0, 61, 106
1, 750683, Note_on_c, 0, 63, 107
1, 751164, Note_off_c, 0, 63, 107
1, 751189, Note_on_c, 0, 60, 98
1, 751873, Note_off_c, 0, 60, 98
1, 751949, Note_on_c, 0, 61, 106
1, 752506, Note_off_c, 0, 61, 106
1, 752582, Note_on_c, 0, 58, 112
1, 753089, Note_off_c, 0, 58, 112
1, 753165, Note_on_c, 0, 56, 98
1, 753672, Note_off_c, 0, 56, 98
1, 753722, Note_on_c, 0, 53, 99
1, 754330, Note_off_c, 0, 53, 99
1, 754380, Note_on_c, 0, 56, 99
1, 754988, Note_off_c, 0, 56, 99
1, 755013, Note_on_c, 0, 55, 94
1, 755596, Note_off_c, 0, 55, 94
1, 755874, Note_on_c, 0, 58, 100
1, 756330, Note_off_c, 0, 58, 100
1, 756406, Note_on_c, 0, 60, 94
1, 756760, Note_off_c, 0, 60, 94
1, 756912, Note_on_c, 0, 67, 104
1, 757545, Note_off_c, 0, 67, 104
1, 757595, Note_on_c, 0, 61, 102
1, 758127, Note_off_c, 0, 61, 102
1, 758152, Note_on_c, 0, 63, 102
1, 758633, Note_off_c, 0, 63, 102
1, 759013, Note_on_c, 0, 67, 101
1, 759469, Note_off_c, 0, 67, 101
1, 759595, Note_on_c, 0, 70, 84
1, 760026, Note_off_c, 0, 70, 84
1, 760051, Note_on_c, 0, 73, 98
1, 760659, Note_off_c, 0, 73, 98
1, 761013, Note_on_c, 0, 67, 87
1, 761342, Note_off_c, 0, 67, 87
1, 761443, Note_on_c, 0, 70, 98
1, 761975, Note_off_c, 0, 70, 98
1, 762025, Note_on_c, 0, 72, 96
1, 762506, Note_off_c, 0, 72, 96
1, 762683, Note_on_c, 0, 69, 101
1, 763671, Note_off_c, 0, 69, 101
1, 763747, Note_on_c, 0, 72, 95
1, 764456, Note_off_c, 0, 72, 95
1, 764557, Note_on_c, 0, 70, 95
1, 765216, Note_off_c, 0, 70, 95
1, 765849, Note_on_c, 0, 65, 103
1, 766330, Note_off_c, 0, 65, 103
1, 766355, Note_on_c, 0, 63, 105
1, 767090, Note_off_c, 0, 63, 105
1, 767292, Note_on_c, 0, 58, 95
1, 767621, Note_off_c, 0, 58, 95
1, 767697, Note_on_c, 0, 67, 92
1, 768939, Note_off_c, 0, 67, 92
1, 769116, Note_on_c, 0, 65, 96
1, 770358, Note_off_c, 0, 65, 96
1, 770459, Note_on_c, 0, 67, 101
1, 771625, Note_off_c, 0, 67, 101
1, 771777, Note_on_c, 0, 65, 82
1, 772715, Note_off_c, 0, 65, 82
1, 774236, Note_on_c, 0, 67, 95
1, 775326, Note_off_c, 0, 67, 95
1, 775402, Note_on_c, 0, 65, 95
1, 776188, Note_off_c, 0, 65, 95
1, 776821, Note_on_c, 0, 67, 95
1, 777835, Note_off_c, 0, 67, 95
1, 778012, Note_on_c, 0, 65, 93
1, 779431, Note_off_c, 0, 65, 93
1, 779431, End_track
0, 0, End_of_file
