0, 0, Header, 1, 1, 192
1, 0, Start_track
1, 0, Title_t, "Melody"
1, 0, Tempo, 410958
1, 0, Time_signature, 9, 2, 24, 8
1, 324, Note_on_c, 0, 73, 123
1, 441, Note_off_c, 0, 73, 123
1, 442, Note_on_c, 0, 72, 115
1, 490, Note_off_c, 0, 72, 115
1, 490, Note_on_c, 0, 73, 118
1, 895, Note_off_c, 0, 73, 118
1, 897, Note_on_c, 0, 71, 113
1, 954, Note_off_c, 0, 71, 113
1, 961, Note_on_c, 0, 72, 114
1, 1254, Note_off_c, 0, 72, 114
1, 1267, Note_on_c, 0, 71, 116
1, 1314, Note_off_c, 0, 71, 116
1, 1314, Note_on_c, 0, 69, 121
1, 1338, Note_off_c, 0, 69, 121
1, 1338, Note_on_c, 0, 66, 114
1, 1370, Note_off_c, 0, 66, 114
1, 1371, Note_on_c, 0, 64, 98
1, 1578, Note_off_c, 0, 64, 98
1, 1583, Note_on_c, 0, 61, 99
1, 1863, Note_off_c, 0, 61, 99
1, 2555, Note_on_c, 0, 73, 124
1, 2715, Note_off_c, 0, 73, 124
1, 2716, Note_on_c, 0, 71, 113
1, 2824, Note_off_c, 0, 71, 113
1, 2833, Note_on_c, 0, 72, 113
1, 3103, Note_off_c, 0, 72, 113
1, 3122, Note_on_c, 0, 71, 112
1, 3207, Note_off_c, 0, 71, 112
1, 3216, Note_on_c, 0, 69, 124
1, 3280, Note_off_c, 0, 69, 124
1, 3297, Note_on_c, 0, 66, 121
1, 3359, Note_off_c, 0, 66, 121
1, 3425, Note_on_c, 0, 64, 104
1, 3487, Note_off_c, 0, 64, 104
1, 3591, Note_on_c, 0, 69, 125
1, 3653, Note_off_c, 0, 69, 125
1, 3866, Note_on_c, 0, 69, 124
1, 3925, Note_off_c, 0, 69, 124
1, 4270, Note_on_c, 0, 69, 125
1, 4359, Note_off_c, 0, 69, 125
1, 4372, Note_on_c, 0, 71, 118
1, 4444, Note_off_c, 0, 71, 118
1, 4459, Note_on_c, 0, 72, 119
1, 4563, Note_on_c, 0, 71, 94
1, 4563, Note_off_c, 0, 72, 119
1, 4635, Note_off_c, 0, 71, 94
1, 4642, Note_on_c, 0, 68, 123
1, 4668, Note_off_c, 0, 68, 123
1, 4685, Note_on_c, 0, 69, 123
1, 4837, Note_off_c, 0, 69, 123
1, 4837, Note_on_c, 0, 67, 121
1, 5226, Note_off_c, 0, 67, 121
1, 5229, Note_on_c, 0, 66, 122
1, 5314, Note_off_c, 0, 66, 122
1, 5333, Note_on_c, 0, 67, 116
1, 5376, Note_off_c, 0, 67, 116
1, 5599, Note_on_c, 0, 67, 122
1, 5646, Note_off_c, 0, 67, 122
1, 5903, Note_on_c, 0, 69, 124
1, 5948, Note_off_c, 0, 69, 124
1, 5993, Note_on_c, 0, 73, 122
1, 6063, Note_off_c, 0, 73, 122
1, 6066, Note_on_c, 0, 78, 115
1, 6107, Note_off_c, 0, 78, 115
1, 6107, Note_on_c, 0, 76, 108
1, 6257, Note_off_c, 0, 76, 108
1, 6266, Note_on_c, 0, 73, 122
1, 6325, Note_off_c, 0, 73, 122
1, 6538, Note_on_c, 0, 72, 117
1, 6646, Note_off_c, 0, 72, 117
1, 6647, Note_on_c, 0, 71, 113
1, 6688, Note_off_c, 0, 71, 113
1, 6846, Note_on_c, 0, 69, 124
1, 6905, Note_off_c, 0, 69, 124
1, 6931, Note_on_c, 0, 64, 92
1, 6990, Note_off_c, 0, 64, 92
1, 7041, Note_on_c, 0, 66, 124
1, 7100, Note_off_c, 0, 66, 124
1, 7130, Note_on_c, 0, 64, 93
1, 7208, Note_off_c, 0, 64, 93
1, 7227, Note_on_c, 0, 69, 104
1, 7268, Note_off_c, 0, 69, 104
1, 7313, Note_on_c, 0, 71, 117
1, 7417, Note_off_c, 0, 71, 117
1, 7432, Note_on_c, 0, 66, 123
1, 7481, Note_off_c, 0, 66, 123
1, 7498, Note_on_c, 0, 64, 98
1, 7597, Note_off_c, 0, 64, 98
1, 7625, Note_on_c, 0, 69, 121
1, 7684, Note_off_c, 0, 69, 121
1, 7695, Note_on_c, 0, 61, 97
1, 7864, Note_off_c, 0, 61, 97
1, 7873, Note_on_c, 0, 64, 93
1, 7966, Note_off_c, 0, 64, 93
1, 7969, Note_on_c, 0, 66, 112
1, 8024, Note_off_c, 0, 66, 112
1, 8376, Note_on_c, 0, 69, 121
1, 8429, Note_off_c, 0, 69, 121
1, 8455, Note_on_c, 0, 71, 118
1, 8552, Note_off_c, 0, 71, 118
1, 8553, Note_on_c, 0, 73, 126
1, 8648, Note_off_c, 0, 73, 126
1, 8648, Note_on_c, 0, 72, 112
1, 8735, Note_off_c, 0, 72, 112
1, 8735, Note_on_c, 0, 73, 121
1, 8793, Note_off_c, 0, 73, 121
1, 9133, Note_on_c, 0, 66, 124
1, 9190, Note_off_c, 0, 66, 124
1, 9422, Note_on_c, 0, 69, 124
1, 9523, Note_off_c, 0, 69, 124
1, 9526, Note_on_c, 0, 66, 121
1, 9578, Note_off_c, 0, 66, 121
1, 9795, Note_on_c, 0, 64, 106
1, 9836, Note_off_c, 0, 64, 106
1, 9849, Note_on_c, 0, 69, 108
1, 9892, Note_off_c, 0, 69, 108
1, 9897, Note_on_c, 0, 71, 114
1, 9952, Note_off_c, 0, 71, 114
1, 9952, Note_on_c, 0, 73, 123
1, 10005, Note_off_c, 0, 73, 123
1, 10042, Note_on_c, 0, 76, 117
1, 10089, Note_off_c, 0, 76, 117
1, 10091, Note_on_c, 0, 78, 105
1, 10140, Note_off_c, 0, 78, 105
1, 10349, Note_on_c, 0, 73, 124
1, 10443, Note_off_c, 0, 73, 124
1, 10461, Note_on_c, 0, 72, 115
1, 10498, Note_off_c, 0, 72, 115
1, 10845, Note_on_c, 0, 73, 122
1, 10918, Note_off_c, 0, 73, 122
1, 11034, Note_on_c, 0, 73, 127
1, 11123, Note_on_c, 0, 71, 114
1, 11123, Note_off_c, 0, 73, 127
1, 11308, Note_off_c, 0, 71, 114
1, 11321, Note_on_c, 0, 72, 115
1, 11425, Note_off_c, 0, 72, 115
1, 11437, Note_on_c, 0, 71, 112
1, 11624, Note_off_c, 0, 71, 112
1, 11706, Note_on_c, 0, 69, 123
1, 11787, Note_off_c, 0, 69, 123
1, 11819, Note_on_c, 0, 64, 101
1, 11881, Note_off_c, 0, 64, 101
1, 12003, Note_on_c, 0, 66, 119
1, 12073, Note_off_c, 0, 66, 119
1, 12090, Note_on_c, 0, 69, 120
1, 12202, Note_off_c, 0, 69, 120
1, 12206, Note_on_c, 0, 66, 104
1, 12257, Note_off_c, 0, 66, 104
1, 12257, Note_on_c, 0, 67, 110
1, 12297, Note_off_c, 0, 67, 110
1, 12311, Note_on_c, 0, 71, 106
1, 12667, Note_off_c, 0, 71, 106
1, 12684, Note_on_c, 0, 69, 107
1, 13041, Note_off_c, 0, 69, 107
1, 13055, Note_on_c, 0, 66, 116
1, 13137, Note_off_c, 0, 66, 116
1, 13359, Note_on_c, 0, 64, 99
1, 13428, Note_off_c, 0, 64, 99
1, 13428, Note_on_c, 0, 61, 100
1, 13524, Note_off_c, 0, 61, 100
1, 13524, Note_on_c, 0, 64, 95
1, 13705, Note_off_c, 0, 64, 95
1, 13705, Note_on_c, 0, 60, 92
1, 13785, Note_off_c, 0, 60, 92
1, 13790, Note_on_c, 0, 61, 97
1, 14001, Note_off_c, 0, 61, 97
1, 14005, Note_on_c, 0, 59, 98
1, 14068, Note_off_c, 0, 59, 98
1, 14383, Note_on_c, 0, 57, 98
1, 14742, Note_off_c, 0, 57, 98
1, 14746, Note_on_c, 0, 54, 111
1, 14857, Note_off_c, 0, 54, 111
1, 14863, Note_on_c, 0, 57, 111
1, 14932, Note_off_c, 0, 57, 111
1, 14952, Note_on_c, 0, 53, 109
1, 15036, Note_off_c, 0, 53, 109
1, 15045, Note_on_c, 0, 54, 108
1, 15126, Note_off_c, 0, 54, 108
1, 15138, Note_on_c, 0, 57, 108
1, 15227, Note_off_c, 0, 57, 108
1, 15232, Note_on_c, 0, 59, 106
1, 15314, Note_off_c, 0, 59, 106
1, 15314, Note_on_c, 0, 60, 103
1, 15422, Note_off_c, 0, 60, 103
1, 15438, Note_on_c, 0, 61, 92
1, 15715, Note_off_c, 0, 61, 92
1, 15719, Note_on_c, 0, 66, 118
1, 15775, Note_off_c, 0, 66, 118
1, 16550, Note_on_c, 0, 73, 124
1, 16631, Note_off_c, 0, 73, 124
1, 16656, Note_on_c, 0, 78, 115
1, 16778, Note_off_c, 0, 78, 115
1, 16783, Note_on_c, 0, 79, 108
1, 17020, Note_off_c, 0, 79, 108
1, 17024, Note_on_c, 0, 78, 118
1, 17094, Note_off_c, 0, 78, 118
1, 17138, Note_on_c, 0, 76, 117
1, 17205, Note_off_c, 0, 76, 117
1, 17229, Note_on_c, 0, 73, 123
1, 17314, Note_off_c, 0, 73, 123
1, 17314, Note_on_c, 0, 72, 115
1, 17396, Note_off_c, 0, 72, 115
1, 17400, Note_on_c, 0, 73, 123
1, 17484, Note_off_c, 0, 73, 123
1, 17497, Note_on_c, 0, 71, 115
1, 17589, Note_off_c, 0, 71, 115
1, 17898, Note_on_c, 0, 69, 125
1, 17978, Note_off_c, 0, 69, 125
1, 18006, Note_on_c, 0, 71, 118
1, 18075, Note_off_c, 0, 71, 118
1, 18085, Note_on_c, 0, 72, 118
1, 18181, Note_off_c, 0, 72, 118
1, 18193, Note_on_c, 0, 71, 116
1, 18264, Note_off_c, 0, 71, 116
1, 18395, Note_on_c, 0, 69, 126
1, 18468, Note_off_c, 0, 69, 126
1, 18492, Note_on_c, 0, 64, 85
1, 18562, Note_off_c, 0, 64, 85
1, 18570, Note_on_c, 0, 66, 118
1, 18648, Note_off_c, 0, 66, 118
1, 18654, Note_on_c, 0, 69, 122
1, 18735, Note_off_c, 0, 69, 122
1, 18747, Note_on_c, 0, 71, 115
1, 18837, Note_off_c, 0, 71, 115
1, 18837, Note_on_c, 0, 69, 122
1, 18933, Note_off_c, 0, 69, 122
1, 18939, Note_on_c, 0, 64, 101
1, 19029, Note_off_c, 0, 64, 101
1, 19042, Note_on_c, 0, 61, 98
1, 19230, Note_off_c, 0, 61, 98
1, 19231, Note_on_c, 0, 67, 114
1, 19325, Note_off_c, 0, 67, 114
1, 19326, Note_on_c, 0, 66, 122
1, 19377, Note_off_c, 0, 66, 122
1, 19543, Note_on_c, 0, 66, 122
1, 19595, Note_off_c, 0, 66, 122
1, 19740, Note_on_c, 0, 66, 123
1, 19799, Note_off_c, 0, 66, 123
1, 19816, Note_on_c, 0, 69, 122
1, 19913, Note_off_c, 0, 69, 122
1, 19923, Note_on_c, 0, 66, 118
1, 19978, Note_off_c, 0, 66, 118
1, 20212, Note_on_c, 0, 71, 115
1, 20292, Note_off_c, 0, 71, 115
1, 20297, Note_on_c, 0, 73, 124
1, 20387, Note_off_c, 0, 73, 124
1, 20389, Note_on_c, 0, 72, 113
1, 20485, Note_off_c, 0, 72, 113
1, 20487, Note_on_c, 0, 73, 123
1, 20545, Note_off_c, 0, 73, 123
1, 20691, Note_on_c, 0, 78, 117
1, 20764, Note_off_c, 0, 78, 117
1, 20764, Note_on_c, 0, 76, 113
1, 20862, Note_off_c, 0, 76, 113
1, 20871, Note_on_c, 0, 78, 115
1, 20949, Note_off_c, 0, 78, 115
1, 20965, Note_on_c, 0, 80, 101
1, 21135, Note_off_c, 0, 80, 101
1, 21135, End_track
0, 0, End_of_file
