0, 0, Header, 1, 1, 192
1, 0, Start_track
1, 0, Title_t, "Melody"
1, 0, Tempo, 223880
1, 0, Key_signature, -4, "major"
1, 0, Time_signature, 4, 2, 24, 8
1, 3885, Note_on_c, 0, 76, 117
1, 3964, Note_off_c, 0, 76, 117
1, 3991, Note_on_c, 0, 78, 114
1, 4045, Note_off_c, 0, 78, 114
1, 4079, Note_on_c, 0, 80, 104
1, 4200, Note_off_c, 0, 80, 104
1, 4356, Note_on_c, 0, 82, 116
1, 4510, Note_off_c, 0, 82, 116
1, 4534, Note_on_c, 0, 79, 116
1, 4621, Note_off_c, 0, 79, 116
1, 4723, Note_on_c, 0, 75, 124
1, 4862, Note_off_c, 0, 75, 124
1, 4893, Note_on_c, 0, 80, 113
1, 4989, Note_off_c, 0, 80, 113
1, 5010, Note_on_c, 0, 80, 112
1, 5181, Note_off_c, 0, 80, 112
1, 5472, Note_on_c, 0, 79, 116
1, 5596, Note_off_c, 0, 79, 116
1, 5669, Note_on_c, 0, 77, 120
1, 5770, Note_off_c, 0, 77, 120
1, 5788, Note_on_c, 0, 75, 117
1, 5917, Note_off_c, 0, 75, 117
1, 6243, Note_on_c, 0, 77, 119
1, 6423, Note_off_c, 0, 77, 119
1, 6445, Note_on_c, 0, 75, 120
1, 6543, Note_off_c, 0, 75, 120
1, 6548, Note_on_c, 0, 77, 119
1, 6644, Note_off_c, 0, 77, 119
1, 6654, Note_on_c, 0, 75, 119
1, 6738, Note_off_c, 0, 75, 119
1, 6769, Note_on_c, 0, 74, 120
1, 6839, Note_off_c, 0, 74, 120
1, 6858, Note_on_c, 0, 73, 121
1, 6926, Note_off_c, 0, 73, 121
1, 6957, Note_on_c, 0, 71, 111
1, 7027, Note_off_c, 0, 71, 111
1, 7042, Note_on_c, 0, 70, 108
1, 7136, Note_off_c, 0, 70, 108
1, 7158, Note_on_c, 0, 66, 120
1, 7238, Note_off_c, 0, 66, 120
1, 7257, Note_on_c, 0, 64, 116
1, 7377, Note_off_c, 0, 64, 116
1, 7638, Note_on_c, 0, 68, 114
1, 7703, Note_off_c, 0, 68, 114
1, 7712, Note_on_c, 0, 69, 115
1, 7999, Note_off_c, 0, 69, 115
1, 8006, Note_on_c, 0, 65, 117
1, 8576, Note_off_c, 0, 65, 117
1, 8610, Note_on_c, 0, 68, 112
1, 8972, Note_off_c, 0, 68, 112
1, 9006, Note_on_c, 0, 63, 117
1, 9113, Note_off_c, 0, 63, 117
1, 9130, Note_on_c, 0, 65, 111
1, 9188, Note_off_c, 0, 65, 111
1, 9206, Note_on_c, 0, 67, 113
1, 9291, Note_off_c, 0, 67, 113
1, 9310, Note_on_c, 0, 68, 113
1, 9390, Note_off_c, 0, 68, 113
1, 9411, Note_on_c, 0, 67, 118
1, 9489, Note_off_c, 0, 67, 118
1, 9507, Note_on_c, 0, 65, 122
1, 9580, Note_off_c, 0, 65, 122
1, 9599, Note_on_c, 0, 63, 120
1, 9682, Note_off_c, 0, 63, 120
1, 9699, Note_on_c, 0, 62, 125
1, 9773, Note_off_c, 0, 62, 125
1, 9790, Note_on_c, 0, 61, 117
1, 9863, Note_off_c, 0, 61, 117
1, 10155, Note_on_c, 0, 75, 123
1, 10276, Note_off_c, 0, 75, 123
1, 10288, Note_on_c, 0, 77, 118
1, 10353, Note_off_c, 0, 77, 118
1, 10364, Note_on_c, 0, 79, 119
1, 10478, Note_off_c, 0, 79, 119
1, 10486, Note_on_c, 0, 80, 114
1, 10583, Note_off_c, 0, 80, 114
1, 10600, Note_on_c, 0, 78, 117
1, 10694, Note_off_c, 0, 78, 117
1, 10960, Note_on_c, 0, 77, 119
1, 11058, Note_off_c, 0, 77, 119
1, 11235, Note_on_c, 0, 76, 119
1, 11359, Note_off_c, 0, 76, 119
1, 11533, Note_on_c, 0, 75, 122
1, 11647, Note_off_c, 0, 75, 122
1, 11923, Note_on_c, 0, 79, 121
1, 12138, Note_off_c, 0, 79, 121
1, 12508, Note_on_c, 0, 78, 121
1, 12593, Note_off_c, 0, 78, 121
1, 12611, Note_on_c, 0, 76, 120
1, 12663, Note_off_c, 0, 76, 120
1, 12676, Note_on_c, 0, 75, 120
1, 12784, Note_off_c, 0, 75, 120
1, 12795, Note_on_c, 0, 73, 127
1, 12863, Note_off_c, 0, 73, 127
1, 12880, Note_on_c, 0, 72, 124
1, 12983, Note_off_c, 0, 72, 124
1, 13011, Note_on_c, 0, 69, 116
1, 13068, Note_off_c, 0, 69, 116
1, 13086, Note_on_c, 0, 65, 116
1, 13161, Note_off_c, 0, 65, 116
1, 13185, Note_on_c, 0, 63, 118
1, 13247, Note_off_c, 0, 63, 118
1, 13275, Note_on_c, 0, 62, 120
1, 13360, Note_off_c, 0, 62, 120
1, 13387, Note_on_c, 0, 65, 116
1, 13440, Note_off_c, 0, 65, 116
1, 13454, Note_on_c, 0, 68, 112
1, 13529, Note_off_c, 0, 68, 112
1, 13550, Note_on_c, 0, 72, 119
1, 13629, Note_off_c, 0, 72, 119
1, 13638, Note_on_c, 0, 73, 117
1, 13726, Note_off_c, 0, 73, 117
1, 13758, Note_on_c, 0, 76, 116
1, 13818, Note_off_c, 0, 76, 116
1, 13834, Note_on_c, 0, 79, 116
1, 13938, Note_off_c, 0, 79, 116
1, 13950, Note_on_c, 0, 83, 117
1, 14028, Note_off_c, 0, 83, 117
1, 14030, Note_on_c, 0, 82, 113
1, 14110, Note_off_c, 0, 82, 113
1, 14128, Note_on_c, 0, 78, 121
1, 14213, Note_off_c, 0, 78, 121
1, 14224, Note_on_c, 0, 75, 120
1, 14298, Note_off_c, 0, 75, 120
1, 14311, Note_on_c, 0, 72, 119
1, 14405, Note_off_c, 0, 72, 119
1, 14414, Note_on_c, 0, 71, 107
1, 14517, Note_off_c, 0, 71, 107
1, 14531, Note_on_c, 0, 69, 109
1, 14591, Note_off_c, 0, 69, 109
1, 14602, Note_on_c, 0, 67, 113
1, 14692, Note_off_c, 0, 67, 113
1, 14718, Note_on_c, 0, 65, 125
1, 14756, Note_off_c, 0, 65, 125
1, 14772, Note_on_c, 0, 64, 120
1, 14866, Note_off_c, 0, 64, 120
1, 14900, Note_on_c, 0, 61, 120
1, 14944, Note_off_c, 0, 61, 120
1, 14956, Note_on_c, 0, 64, 113
1, 15071, Note_off_c, 0, 64, 113
1, 15102, Note_on_c, 0, 66, 114
1, 15337, Note_off_c, 0, 66, 114
1, 15351, Note_on_c, 0, 63, 116
1, 15687, Note_off_c, 0, 63, 116
1, 15703, Note_on_c, 0, 62, 120
1, 15904, Note_off_c, 0, 62, 120
1, 15917, Note_on_c, 0, 61, 117
1, 16243, Note_off_c, 0, 61, 117
1, 16260, Note_on_c, 0, 60, 118
1, 16511, Note_off_c, 0, 60, 118
1, 16539, Note_on_c, 0, 62, 119
1, 16637, Note_off_c, 0, 62, 119
1, 16651, Note_on_c, 0, 66, 114
1, 16710, Note_off_c, 0, 66, 114
1, 16739, Note_on_c, 0, 69, 109
1, 16839, Note_off_c, 0, 69, 109
1, 16860, Note_on_c, 0, 66, 115
1, 16917, Note_off_c, 0, 66, 115
1, 16936, Note_on_c, 0, 67, 112
1, 17023, Note_off_c, 0, 67, 112
1, 17031, Note_on_c, 0, 71, 113
1, 17089, Note_off_c, 0, 71, 113
1, 17106, Note_on_c, 0, 74, 122
1, 17213, Note_off_c, 0, 74, 122
1, 17222, Note_on_c, 0, 72, 123
1, 17295, Note_off_c, 0, 72, 123
1, 17309, Note_on_c, 0, 76, 123
1, 17381, Note_off_c, 0, 76, 123
1, 17425, Note_on_c, 0, 79, 119
1, 17493, Note_off_c, 0, 79, 119
1, 17515, Note_on_c, 0, 82, 114
1, 17589, Note_off_c, 0, 82, 114
1, 17622, Note_on_c, 0, 81, 120
1, 17692, Note_off_c, 0, 81, 120
1, 17706, Note_on_c, 0, 79, 115
1, 17783, Note_off_c, 0, 79, 115
1, 17792, Note_on_c, 0, 77, 121
1, 17859, Note_off_c, 0, 77, 121
1, 17873, Note_on_c, 0, 76, 123
1, 17953, Note_off_c, 0, 76, 123
1, 17966, Note_on_c, 0, 75, 122
1, 18048, Note_off_c, 0, 75, 122
1, 18065, Note_on_c, 0, 74, 124
1, 18159, Note_off_c, 0, 74, 124
1, 18170, Note_on_c, 0, 73, 122
1, 18254, Note_off_c, 0, 73, 122
1, 18254, Note_on_c, 0, 74, 123
1, 18343, Note_off_c, 0, 74, 123
1, 18372, Note_on_c, 0, 75, 121
1, 18459, Note_off_c, 0, 75, 121
1, 18468, Note_on_c, 0, 73, 122
1, 18547, Note_off_c, 0, 73, 122
1, 18555, Note_on_c, 0, 75, 121
1, 18645, Note_off_c, 0, 75, 121
1, 18661, Note_on_c, 0, 72, 116
1, 18782, Note_off_c, 0, 72, 116
1, 19032, Note_on_c, 0, 71, 113
1, 19129, Note_off_c, 0, 71, 113
1, 19143, Note_on_c, 0, 69, 117
1, 19212, Note_off_c, 0, 69, 117
1, 19223, Note_on_c, 0, 67, 120
1, 19301, Note_off_c, 0, 67, 120
1, 19332, Note_on_c, 0, 65, 119
1, 19404, Note_off_c, 0, 65, 119
1, 19412, Note_on_c, 0, 66, 116
1, 19515, Note_off_c, 0, 66, 116
1, 19537, Note_on_c, 0, 64, 121
1, 19601, Note_off_c, 0, 64, 121
1, 19613, Note_on_c, 0, 63, 119
1, 19706, Note_off_c, 0, 63, 119
1, 19724, Note_on_c, 0, 61, 119
1, 19786, Note_off_c, 0, 61, 119
1, 19799, Note_on_c, 0, 60, 119
1, 19896, Note_off_c, 0, 60, 119
1, 19908, Note_on_c, 0, 62, 121
1, 19959, Note_off_c, 0, 62, 121
1, 19981, Note_on_c, 0, 63, 116
1, 20076, Note_off_c, 0, 63, 116
1, 20110, Note_on_c, 0, 65, 119
1, 20154, Note_off_c, 0, 65, 119
1, 20197, Note_on_c, 0, 58, 111
1, 20282, Note_off_c, 0, 58, 111
1, 20296, Note_on_c, 0, 60, 116
1, 20342, Note_off_c, 0, 60, 116
1, 20363, Note_on_c, 0, 62, 121
1, 20445, Note_off_c, 0, 62, 121
1, 20457, Note_on_c, 0, 65, 117
1, 20544, Note_off_c, 0, 65, 117
1, 20570, Note_on_c, 0, 63, 117
1, 20662, Note_off_c, 0, 63, 117
1, 20678, Note_on_c, 0, 65, 119
1, 20740, Note_off_c, 0, 65, 119
1, 20747, Note_on_c, 0, 67, 122
1, 20856, Note_off_c, 0, 67, 122
1, 20863, Note_on_c, 0, 70, 114
1, 20932, Note_off_c, 0, 70, 114
1, 20941, Note_on_c, 0, 68, 113
1, 21030, Note_off_c, 0, 68, 113
1, 21049, Note_on_c, 0, 70, 114
1, 21123, Note_off_c, 0, 70, 114
1, 21134, Note_on_c, 0, 72, 117
1, 21236, Note_off_c, 0, 72, 117
1, 21252, Note_on_c, 0, 75, 115
1, 21308, Note_off_c, 0, 75, 115
1, 21321, Note_on_c, 0, 77, 121
1, 21418, Note_off_c, 0, 77, 121
1, 21431, Note_on_c, 0, 79, 118
1, 21508, Note_off_c, 0, 79, 118
1, 21519, Note_on_c, 0, 77, 120
1, 21609, Note_off_c, 0, 77, 120
1, 21615, Note_on_c, 0, 78, 118
1, 21775, Note_off_c, 0, 78, 118
1, 22483, Note_on_c, 0, 83, 120
1, 22591, Note_off_c, 0, 83, 120
1, 22603, Note_on_c, 0, 77, 120
1, 22677, Note_off_c, 0, 77, 120
1, 22678, Note_on_c, 0, 76, 120
1, 22750, Note_off_c, 0, 76, 120
1, 22776, Note_on_c, 0, 82, 116
1, 22840, Note_off_c, 0, 82, 116
1, 22847, Note_on_c, 0, 81, 120
1, 22941, Note_off_c, 0, 81, 120
1, 22967, Note_on_c, 0, 75, 122
1, 23051, Note_off_c, 0, 75, 122
1, 23055, Note_on_c, 0, 74, 123
1, 23144, Note_off_c, 0, 74, 123
1, 23155, Note_on_c, 0, 80, 117
1, 23245, Note_off_c, 0, 80, 117
1, 23256, Note_on_c, 0, 79, 119
1, 23333, Note_off_c, 0, 79, 119
1, 23344, Note_on_c, 0, 73, 122
1, 23432, Note_off_c, 0, 73, 122
1, 23445, Note_on_c, 0, 72, 120
1, 23543, Note_off_c, 0, 72, 120
1, 23554, Note_on_c, 0, 78, 120
1, 23617, Note_off_c, 0, 78, 120
1, 23626, Note_on_c, 0, 77, 121
1, 23719, Note_off_c, 0, 77, 121
1, 23747, Note_on_c, 0, 71, 112
1, 23824, Note_off_c, 0, 71, 112
1, 23832, Note_on_c, 0, 70, 112
1, 23921, Note_off_c, 0, 70, 112
1, 23932, Note_on_c, 0, 65, 121
1, 23983, Note_off_c, 0, 65, 121
1, 23987, Note_on_c, 0, 64, 120
1, 24065, Note_off_c, 0, 64, 120
1, 24084, Note_on_c, 0, 63, 112
1, 24166, Note_off_c, 0, 63, 112
1, 24198, Note_on_c, 0, 62, 98
1, 24317, Note_off_c, 0, 62, 98
1, 24582, Note_on_c, 0, 64, 118
1, 24631, Note_off_c, 0, 64, 118
1, 24633, Note_on_c, 0, 65, 122
1, 24700, Note_off_c, 0, 65, 122
1, 24713, Note_on_c, 0, 67, 120
1, 24776, Note_off_c, 0, 67, 120
1, 24789, Note_on_c, 0, 68, 114
1, 24836, Note_off_c, 0, 68, 114
1, 24844, Note_on_c, 0, 70, 113
1, 24887, Note_off_c, 0, 70, 113
1, 24890, Note_on_c, 0, 71, 112
1, 24960, Note_off_c, 0, 71, 112
1, 24972, Note_on_c, 0, 75, 120
1, 25029, Note_off_c, 0, 75, 120
1, 25043, Note_on_c, 0, 77, 119
1, 25113, Note_off_c, 0, 77, 119
1, 25124, Note_on_c, 0, 79, 120
1, 25184, Note_off_c, 0, 79, 120
1, 25197, Note_on_c, 0, 80, 116
1, 25246, Note_off_c, 0, 80, 116
1, 25254, Note_on_c, 0, 82, 115
1, 25308, Note_off_c, 0, 82, 115
1, 25314, Note_on_c, 0, 83, 122
1, 25809, Note_off_c, 0, 83, 122
1, 25958, Note_on_c, 0, 79, 115
1, 26038, Note_off_c, 0, 79, 115
1, 26122, Note_on_c, 0, 83, 119
1, 26242, Note_off_c, 0, 83, 119
1, 26256, Note_on_c, 0, 79, 116
1, 26338, Note_off_c, 0, 79, 116
1, 26428, Note_on_c, 0, 83, 102
1, 26480, Note_off_c, 0, 83, 102
1, 26542, Note_on_c, 0, 79, 111
1, 26601, Note_off_c, 0, 79, 111
1, 26731, Note_on_c, 0, 83, 113
1, 26844, Note_off_c, 0, 83, 113
1, 26933, Note_on_c, 0, 79, 120
1, 27027, Note_off_c, 0, 79, 120
1, 27048, Note_on_c, 0, 83, 117
1, 27288, Note_off_c, 0, 83, 117
1, 27305, Note_on_c, 0, 79, 115
1, 27392, Note_off_c, 0, 79, 115
1, 27510, Note_on_c, 0, 83, 115
1, 27665, Note_off_c, 0, 83, 115
1, 27684, Note_on_c, 0, 79, 115
1, 27749, Note_off_c, 0, 79, 115
1, 27861, Note_on_c, 0, 80, 120
1, 28021, Note_off_c, 0, 80, 120
1, 28607, Note_on_c, 0, 76, 118
1, 28659, Note_off_c, 0, 76, 118
1, 28671, Note_on_c, 0, 78, 113
1, 28733, Note_off_c, 0, 78, 113
1, 28746, Note_on_c, 0, 80, 111
1, 28858, Note_off_c, 0, 80, 111
1, 28871, Note_on_c, 0, 84, 118
1, 28970, Note_off_c, 0, 84, 118
1, 28982, Note_on_c, 0, 82, 114
1, 29050, Note_off_c, 0, 82, 114
1, 29072, Note_on_c, 0, 79, 115
1, 29179, Note_off_c, 0, 79, 115
1, 29188, Note_on_c, 0, 75, 115
1, 29267, Note_off_c, 0, 75, 115
1, 29280, Note_on_c, 0, 71, 108
1, 29358, Note_off_c, 0, 71, 108
1, 29370, Note_on_c, 0, 74, 121
1, 29444, Note_off_c, 0, 74, 121
1, 29465, Note_on_c, 0, 76, 120
1, 29517, Note_off_c, 0, 76, 120
1, 29529, Note_on_c, 0, 78, 115
1, 29629, Note_off_c, 0, 78, 115
1, 29646, Note_on_c, 0, 82, 103
1, 29711, Note_off_c, 0, 82, 103
1, 29729, Note_on_c, 0, 80, 116
1, 29809, Note_off_c, 0, 80, 116
1, 29837, Note_on_c, 0, 78, 113
1, 29926, Note_off_c, 0, 78, 113
1, 29943, Note_on_c, 0, 73, 120
1, 30010, Note_off_c, 0, 73, 120
1, 30024, Note_on_c, 0, 69, 113
1, 30113, Note_off_c, 0, 69, 113
1, 30130, Note_on_c, 0, 72, 115
1, 30219, Note_off_c, 0, 72, 115
1, 30246, Note_on_c, 0, 74, 120
1, 30275, Note_off_c, 0, 74, 120
1, 30289, Note_on_c, 0, 76, 118
1, 30373, Note_off_c, 0, 76, 118
1, 30400, Note_on_c, 0, 80, 117
1, 30477, Note_off_c, 0, 80, 117
1, 30494, Note_on_c, 0, 78, 116
1, 30573, Note_off_c, 0, 78, 116
1, 30590, Note_on_c, 0, 75, 117
1, 30668, Note_off_c, 0, 75, 117
1, 30677, Note_on_c, 0, 71, 110
1, 30769, Note_off_c, 0, 71, 110
1, 30795, Note_on_c, 0, 67, 118
1, 30879, Note_off_c, 0, 67, 118
1, 30895, Note_on_c, 0, 70, 107
1, 30980, Note_off_c, 0, 70, 107
1, 30988, Note_on_c, 0, 72, 116
1, 31053, Note_off_c, 0, 72, 116
1, 31067, Note_on_c, 0, 74, 120
1, 31160, Note_off_c, 0, 74, 120
1, 31168, Note_on_c, 0, 78, 112
1, 31252, Note_off_c, 0, 78, 112
1, 31269, Note_on_c, 0, 76, 119
1, 31348, Note_off_c, 0, 76, 119
1, 31365, Note_on_c, 0, 73, 122
1, 31429, Note_off_c, 0, 73, 122
1, 31478, Note_on_c, 0, 69, 111
1, 31555, Note_off_c, 0, 69, 111
1, 31581, Note_on_c, 0, 66, 109
1, 31643, Note_off_c, 0, 66, 109
1, 31655, Note_on_c, 0, 68, 108
1, 31737, Note_off_c, 0, 68, 108
1, 31746, Note_on_c, 0, 70, 106
1, 31815, Note_off_c, 0, 70, 106
1, 31819, Note_on_c, 0, 72, 118
1, 31912, Note_off_c, 0, 72, 118
1, 31954, Note_on_c, 0, 76, 115
1, 32021, Note_off_c, 0, 76, 115
1, 32032, Note_on_c, 0, 74, 120
1, 32117, Note_off_c, 0, 74, 120
1, 32151, Note_on_c, 0, 71, 111
1, 32213, Note_off_c, 0, 71, 111
1, 32241, Note_on_c, 0, 67, 110
1, 32294, Note_off_c, 0, 67, 110
1, 32325, Note_on_c, 0, 63, 116
1, 32390, Note_off_c, 0, 63, 116
1, 32411, Note_on_c, 0, 66, 116
1, 32516, Note_off_c, 0, 66, 116
1, 32528, Note_on_c, 0, 68, 115
1, 32579, Note_off_c, 0, 68, 115
1, 32598, Note_on_c, 0, 70, 112
1, 32682, Note_off_c, 0, 70, 112
1, 32686, Note_on_c, 0, 72, 115
1, 32791, Note_off_c, 0, 72, 115
1, 32792, Note_on_c, 0, 70, 106
1, 32897, Note_off_c, 0, 70, 106
1, 32926, Note_on_c, 0, 69, 110
1, 32973, Note_off_c, 0, 69, 110
1, 33020, Note_on_c, 0, 65, 114
1, 33099, Note_off_c, 0, 65, 114
1, 33118, Note_on_c, 0, 61, 116
1, 33242, Note_off_c, 0, 61, 116
1, 33242, Note_on_c, 0, 60, 117
1, 33630, Note_off_c, 0, 60, 117
1, 33674, Note_on_c, 0, 61, 119
1, 33749, Note_off_c, 0, 61, 119
1, 33760, Note_on_c, 0, 63, 116
1, 33827, Note_off_c, 0, 63, 116
1, 33846, Note_on_c, 0, 65, 120
1, 33903, Note_off_c, 0, 65, 120
1, 33921, Note_on_c, 0, 67, 113
1, 33986, Note_off_c, 0, 67, 113
1, 33999, Note_on_c, 0, 69, 91
1, 34056, Note_off_c, 0, 69, 91
1, 34067, Note_on_c, 0, 73, 122
1, 34521, Note_off_c, 0, 73, 122
1, 34736, Note_on_c, 0, 70, 111
1, 34820, Note_off_c, 0, 70, 111
1, 34828, Note_on_c, 0, 76, 122
1, 34892, Note_off_c, 0, 76, 122
1, 34911, Note_on_c, 0, 80, 117
1, 34990, Note_off_c, 0, 80, 117
1, 34994, Note_on_c, 0, 82, 117
1, 35096, Note_off_c, 0, 82, 117
1, 35104, Note_on_c, 0, 81, 117
1, 35178, Note_off_c, 0, 81, 117
1, 35196, Note_on_c, 0, 79, 122
1, 35278, Note_off_c, 0, 79, 122
1, 35300, Note_on_c, 0, 75, 118
1, 35379, Note_off_c, 0, 75, 118
1, 35408, Note_on_c, 0, 69, 112
1, 35513, Note_off_c, 0, 69, 112
1, 35537, Note_on_c, 0, 72, 121
1, 35609, Note_off_c, 0, 72, 121
1, 35621, Note_on_c, 0, 74, 121
1, 35683, Note_off_c, 0, 74, 121
1, 35700, Note_on_c, 0, 78, 115
1, 35763, Note_off_c, 0, 78, 115
1, 35766, Note_on_c, 0, 79, 105
1, 35779, Note_off_c, 0, 79, 105
1, 35783, Note_on_c, 0, 80, 112
1, 35811, Note_off_c, 0, 80, 112
1, 35824, Note_on_c, 0, 83, 113
1, 35842, Note_off_c, 0, 83, 113
1, 35849, Note_on_c, 0, 84, 120
1, 35896, Note_off_c, 0, 84, 120
1, 35898, Note_on_c, 0, 85, 117
1, 35926, Note_off_c, 0, 85, 117
1, 35929, Note_on_c, 0, 86, 118
1, 36016, Note_off_c, 0, 86, 118
1, 36023, Note_on_c, 0, 85, 116
1, 36122, Note_off_c, 0, 85, 116
1, 36130, Note_on_c, 0, 84, 121
1, 36179, Note_off_c, 0, 84, 121
1, 36193, Note_on_c, 0, 83, 119
1, 36263, Note_off_c, 0, 83, 119
1, 36271, Note_on_c, 0, 81, 116
1, 36303, Note_off_c, 0, 81, 116
1, 36315, Note_on_c, 0, 79, 111
1, 36393, Note_off_c, 0, 79, 111
1, 36409, Note_on_c, 0, 78, 116
1, 36448, Note_off_c, 0, 78, 116
1, 36454, Note_on_c, 0, 76, 123
1, 36528, Note_off_c, 0, 76, 123
1, 36551, Note_on_c, 0, 75, 123
1, 36621, Note_off_c, 0, 75, 123
1, 36640, Note_on_c, 0, 74, 123
1, 36681, Note_off_c, 0, 74, 123
1, 36694, Note_on_c, 0, 73, 121
1, 36735, Note_off_c, 0, 73, 121
1, 36748, Note_on_c, 0, 72, 120
1, 36799, Note_off_c, 0, 72, 120
1, 36806, Note_on_c, 0, 71, 108
1, 36864, Note_off_c, 0, 71, 108
1, 36873, Note_on_c, 0, 69, 110
1, 36938, Note_off_c, 0, 69, 110
1, 36955, Note_on_c, 0, 68, 112
1, 36997, Note_off_c, 0, 68, 112
1, 37024, Note_on_c, 0, 66, 116
1, 37058, Note_off_c, 0, 66, 116
1, 37082, Note_on_c, 0, 65, 117
1, 37205, Note_off_c, 0, 65, 117
1, 37762, Note_on_c, 0, 61, 114
1, 37810, Note_off_c, 0, 61, 114
1, 37814, Note_on_c, 0, 63, 120
1, 37857, Note_off_c, 0, 63, 120
1, 37876, Note_on_c, 0, 65, 119
1, 38002, Note_off_c, 0, 65, 119
1, 38014, Note_on_c, 0, 69, 113
1, 38084, Note_off_c, 0, 69, 113
1, 38088, Note_on_c, 0, 71, 114
1, 38122, Note_off_c, 0, 71, 114
1, 38130, Note_on_c, 0, 73, 123
1, 38190, Note_off_c, 0, 73, 123
1, 38198, Note_on_c, 0, 74, 121
1, 38214, Note_off_c, 0, 74, 121
1, 38222, Note_on_c, 0, 75, 121
1, 38253, Note_off_c, 0, 75, 121
1, 38257, Note_on_c, 0, 77, 117
1, 38315, Note_off_c, 0, 77, 117
1, 38326, Note_on_c, 0, 78, 120
1, 38577, Note_off_c, 0, 78, 120
1, 39184, Note_on_c, 0, 69, 115
1, 39223, Note_off_c, 0, 69, 115
1, 39230, Note_on_c, 0, 70, 112
1, 39363, Note_off_c, 0, 70, 112
1, 39380, Note_on_c, 0, 73, 120
1, 39438, Note_off_c, 0, 73, 120
1, 39454, Note_on_c, 0, 76, 116
1, 39537, Note_off_c, 0, 76, 116
1, 39553, Note_on_c, 0, 80, 119
1, 39631, Note_off_c, 0, 80, 119
1, 39677, Note_on_c, 0, 85, 114
1, 39760, Note_off_c, 0, 85, 114
1, 39799, Note_on_c, 0, 81, 120
1, 39851, Note_off_c, 0, 81, 120
1, 39854, Note_on_c, 0, 78, 117
1, 39931, Note_off_c, 0, 78, 117
1, 39943, Note_on_c, 0, 75, 118
1, 40018, Note_off_c, 0, 75, 118
1, 40042, Note_on_c, 0, 68, 113
1, 40135, Note_off_c, 0, 68, 113
1, 40149, Note_on_c, 0, 71, 113
1, 40208, Note_off_c, 0, 71, 113
1, 40224, Note_on_c, 0, 74, 125
1, 40296, Note_off_c, 0, 74, 125
1, 40305, Note_on_c, 0, 78, 118
1, 40377, Note_off_c, 0, 78, 118
1, 40391, Note_on_c, 0, 83, 116
1, 40510, Note_off_c, 0, 83, 116
1, 40521, Note_on_c, 0, 79, 120
1, 40616, Note_off_c, 0, 79, 120
1, 40630, Note_on_c, 0, 76, 117
1, 40677, Note_off_c, 0, 76, 117
1, 40700, Note_on_c, 0, 73, 123
1, 40795, Note_off_c, 0, 73, 123
1, 40803, Note_on_c, 0, 66, 114
1, 40922, Note_off_c, 0, 66, 114
1, 40941, Note_on_c, 0, 69, 114
1, 41009, Note_off_c, 0, 69, 114
1, 41022, Note_on_c, 0, 73, 120
1, 41115, Note_off_c, 0, 73, 120
1, 41119, Note_on_c, 0, 76, 117
1, 41186, Note_off_c, 0, 76, 117
1, 41205, Note_on_c, 0, 81, 120
1, 41297, Note_off_c, 0, 81, 120
1, 41314, Note_on_c, 0, 77, 119
1, 41382, Note_off_c, 0, 77, 119
1, 41398, Note_on_c, 0, 74, 124
1, 41473, Note_off_c, 0, 74, 124
1, 41501, Note_on_c, 0, 71, 115
1, 41579, Note_off_c, 0, 71, 115
1, 41608, Note_on_c, 0, 64, 121
1, 41703, Note_off_c, 0, 64, 121
1, 41715, Note_on_c, 0, 67, 113
1, 41804, Note_off_c, 0, 67, 113
1, 41818, Note_on_c, 0, 70, 113
1, 41887, Note_off_c, 0, 70, 113
1, 41923, Note_on_c, 0, 74, 124
1, 41996, Note_off_c, 0, 74, 124
1, 42007, Note_on_c, 0, 79, 116
1, 42092, Note_off_c, 0, 79, 116
1, 42121, Note_on_c, 0, 75, 119
1, 42199, Note_off_c, 0, 75, 119
1, 42222, Note_on_c, 0, 72, 122
1, 42271, Note_off_c, 0, 72, 122
1, 42297, Note_on_c, 0, 69, 113
1, 42376, Note_off_c, 0, 69, 113
1, 42402, Note_on_c, 0, 62, 119
1, 42487, Note_off_c, 0, 62, 119
1, 42510, Note_on_c, 0, 65, 115
1, 42579, Note_off_c, 0, 65, 115
1, 42588, Note_on_c, 0, 69, 111
1, 42670, Note_off_c, 0, 69, 111
1, 42688, Note_on_c, 0, 72, 118
1, 42751, Note_off_c, 0, 72, 118
1, 42774, Note_on_c, 0, 77, 116
1, 42857, Note_off_c, 0, 77, 116
1, 42874, Note_on_c, 0, 73, 122
1, 42939, Note_off_c, 0, 73, 122
1, 42947, Note_on_c, 0, 70, 108
1, 43016, Note_off_c, 0, 70, 108
1, 43030, Note_on_c, 0, 67, 112
1, 43100, Note_off_c, 0, 67, 112
1, 43102, Note_on_c, 0, 60, 114
1, 43209, Note_off_c, 0, 60, 114
1, 43237, Note_on_c, 0, 64, 112
1, 43326, Note_off_c, 0, 64, 112
1, 43335, Note_on_c, 0, 66, 113
1, 43410, Note_off_c, 0, 66, 113
1, 43422, Note_on_c, 0, 70, 107
1, 43509, Note_off_c, 0, 70, 107
1, 43521, Note_on_c, 0, 75, 122
1, 43595, Note_off_c, 0, 75, 122
1, 43604, Note_on_c, 0, 77, 118
1, 43696, Note_off_c, 0, 77, 118
1, 43712, Note_on_c, 0, 75, 118
1, 43795, Note_off_c, 0, 75, 118
1, 43816, Note_on_c, 0, 74, 118
1, 43891, Note_off_c, 0, 74, 118
1, 43909, Note_on_c, 0, 73, 117
1, 43992, Note_off_c, 0, 73, 117
1, 44020, Note_on_c, 0, 71, 110
1, 44103, Note_off_c, 0, 71, 110
1, 44110, Note_on_c, 0, 70, 107
1, 44188, Note_off_c, 0, 70, 107
1, 44205, Note_on_c, 0, 67, 113
1, 44287, Note_off_c, 0, 67, 113
1, 44294, Note_on_c, 0, 68, 114
1, 44384, Note_off_c, 0, 68, 114
1, 44395, Note_on_c, 0, 67, 117
1, 44457, Note_off_c, 0, 67, 117
1, 44474, Note_on_c, 0, 66, 119
1, 44567, Note_off_c, 0, 66, 119
1, 44581, Note_on_c, 0, 64, 120
1, 44651, Note_off_c, 0, 64, 120
1, 44668, Note_on_c, 0, 65, 116
1, 44763, Note_off_c, 0, 65, 116
1, 44770, Note_on_c, 0, 64, 117
1, 44854, Note_off_c, 0, 64, 117
1, 44867, Note_on_c, 0, 63, 118
1, 44936, Note_off_c, 0, 63, 118
1, 44952, Note_on_c, 0, 62, 121
1, 45022, Note_off_c, 0, 62, 121
1, 45051, Note_on_c, 0, 61, 120
1, 45123, Note_off_c, 0, 61, 120
1, 45172, Note_on_c, 0, 63, 114
1, 45250, Note_off_c, 0, 63, 114
1, 45660, Note_on_c, 0, 62, 121
1, 45750, Note_off_c, 0, 62, 121
1, 45754, Note_on_c, 0, 65, 122
1, 45827, Note_off_c, 0, 65, 122
1, 45854, Note_on_c, 0, 63, 118
1, 45948, Note_off_c, 0, 63, 118
1, 45966, Note_on_c, 0, 65, 121
1, 46039, Note_off_c, 0, 65, 121
1, 46050, Note_on_c, 0, 67, 115
1, 46128, Note_off_c, 0, 67, 115
1, 46134, Note_on_c, 0, 70, 113
1, 46217, Note_off_c, 0, 70, 113
1, 46230, Note_on_c, 0, 67, 118
1, 46318, Note_off_c, 0, 67, 118
1, 46331, Note_on_c, 0, 68, 113
1, 46416, Note_off_c, 0, 68, 113
1, 46422, Note_on_c, 0, 70, 115
1, 46506, Note_off_c, 0, 70, 115
1, 46519, Note_on_c, 0, 72, 120
1, 46582, Note_off_c, 0, 72, 120
1, 46610, Note_on_c, 0, 75, 117
1, 46684, Note_off_c, 0, 75, 117
1, 46684, Note_on_c, 0, 77, 117
1, 46756, Note_off_c, 0, 77, 117
1, 46777, Note_on_c, 0, 79, 119
1, 46886, Note_off_c, 0, 79, 119
1, 46893, Note_on_c, 0, 80, 121
1, 47143, Note_off_c, 0, 80, 121
1, 47159, Note_on_c, 0, 79, 119
1, 47243, Note_off_c, 0, 79, 119
1, 47261, Note_on_c, 0, 77, 120
1, 47373, Note_off_c, 0, 77, 120
1, 48509, Note_on_c, 0, 78, 118
1, 48589, Note_off_c, 0, 78, 118
1, 48693, Note_on_c, 0, 75, 123
1, 48788, Note_off_c, 0, 75, 123
1, 48795, Note_on_c, 0, 74, 123
1, 48888, Note_off_c, 0, 74, 123
1, 48900, Note_on_c, 0, 77, 121
1, 48999, Note_off_c, 0, 77, 121
1, 49010, Note_on_c, 0, 76, 120
1, 49080, Note_off_c, 0, 76, 120
1, 49086, Note_on_c, 0, 73, 124
1, 49178, Note_off_c, 0, 73, 124
1, 49187, Note_on_c, 0, 72, 123
1, 49256, Note_off_c, 0, 72, 123
1, 49265, Note_on_c, 0, 75, 119
1, 49367, Note_off_c, 0, 75, 119
1, 49378, Note_on_c, 0, 74, 122
1, 49443, Note_off_c, 0, 74, 122
1, 49470, Note_on_c, 0, 71, 108
1, 49545, Note_off_c, 0, 71, 108
1, 49572, Note_on_c, 0, 70, 110
1, 49657, Note_off_c, 0, 70, 110
1, 49665, Note_on_c, 0, 73, 125
1, 49765, Note_off_c, 0, 73, 125
1, 49776, Note_on_c, 0, 72, 120
1, 49855, Note_off_c, 0, 72, 120
1, 49884, Note_on_c, 0, 69, 110
1, 49948, Note_off_c, 0, 69, 110
1, 49977, Note_on_c, 0, 68, 103
1, 50072, Note_off_c, 0, 68, 103
1, 50076, Note_on_c, 0, 71, 108
1, 50130, Note_off_c, 0, 71, 108
1, 50178, Note_on_c, 0, 67, 113
1, 50322, Note_off_c, 0, 67, 113
1, 50639, Note_on_c, 0, 63, 117
1, 50682, Note_off_c, 0, 63, 117
1, 50686, Note_on_c, 0, 65, 117
1, 50732, Note_off_c, 0, 65, 117
1, 50744, Note_on_c, 0, 67, 114
1, 50808, Note_off_c, 0, 67, 114
1, 50820, Note_on_c, 0, 65, 9
1, 51107, Note_off_c, 0, 65, 9
1, 51129, Note_on_c, 0, 63, 116
1, 51415, Note_off_c, 0, 63, 116
1, 51540, Note_on_c, 0, 75, 106
1, 51571, Note_off_c, 0, 75, 106
1, 51584, Note_on_c, 0, 77, 121
1, 51623, Note_off_c, 0, 77, 121
1, 51649, Note_on_c, 0, 79, 116
1, 51733, Note_off_c, 0, 79, 116
1, 51750, Note_on_c, 0, 75, 120
1, 51794, Note_off_c, 0, 75, 120
1, 51802, Note_on_c, 0, 77, 117
1, 51845, Note_off_c, 0, 77, 117
1, 51859, Note_on_c, 0, 79, 115
1, 51919, Note_off_c, 0, 79, 115
1, 51942, Note_on_c, 0, 75, 118
1, 51979, Note_off_c, 0, 75, 118
1, 51988, Note_on_c, 0, 77, 114
1, 52026, Note_off_c, 0, 77, 114
1, 52033, Note_on_c, 0, 79, 116
1, 52107, Note_off_c, 0, 79, 116
1, 52119, Note_on_c, 0, 75, 118
1, 52166, Note_off_c, 0, 75, 118
1, 52174, Note_on_c, 0, 77, 117
1, 52205, Note_off_c, 0, 77, 117
1, 52214, Note_on_c, 0, 79, 116
1, 52293, Note_off_c, 0, 79, 116
1, 52314, Note_on_c, 0, 75, 116
1, 52366, Note_off_c, 0, 75, 116
1, 52368, Note_on_c, 0, 77, 117
1, 52396, Note_off_c, 0, 77, 117
1, 52405, Note_on_c, 0, 79, 116
1, 52474, Note_off_c, 0, 79, 116
1, 52488, Note_on_c, 0, 75, 117
1, 52526, Note_off_c, 0, 75, 117
1, 52537, Note_on_c, 0, 77, 113
1, 52568, Note_off_c, 0, 77, 113
1, 52574, Note_on_c, 0, 79, 115
1, 52649, Note_off_c, 0, 79, 115
1, 52673, Note_on_c, 0, 75, 111
1, 52711, Note_off_c, 0, 75, 111
1, 52717, Note_on_c, 0, 77, 110
1, 52749, Note_off_c, 0, 77, 110
1, 52760, Note_on_c, 0, 79, 110
1, 52842, Note_off_c, 0, 79, 110
1, 52855, Note_on_c, 0, 75, 112
1, 52903, Note_on_c, 0, 77, 109
1, 52903, Note_off_c, 0, 75, 112
1, 52931, Note_off_c, 0, 77, 109
1, 52938, Note_on_c, 0, 79, 113
1, 53022, Note_off_c, 0, 79, 113
1, 53038, Note_on_c, 0, 78, 110
1, 53215, Note_off_c, 0, 78, 110
1, 53237, Note_on_c, 0, 74, 114
1, 53350, Note_off_c, 0, 74, 114
1, 53439, Note_on_c, 0, 71, 108
1, 53614, Note_off_c, 0, 71, 108
1, 53633, Note_on_c, 0, 67, 116
1, 53730, Note_off_c, 0, 67, 116
1, 53799, Note_on_c, 0, 70, 110
1, 53962, Note_off_c, 0, 70, 110
1, 53989, Note_on_c, 0, 76, 124
1, 54092, Note_off_c, 0, 76, 124
1, 54111, Note_on_c, 0, 75, 118
1, 54210, Note_off_c, 0, 75, 118
1, 54322, Note_on_c, 0, 69, 116
1, 54537, Note_off_c, 0, 69, 116
1, 54551, Note_on_c, 0, 68, 114
1, 54751, Note_off_c, 0, 68, 114
1, 54780, Note_on_c, 0, 75, 118
1, 54951, Note_off_c, 0, 75, 118
1, 54978, Note_on_c, 0, 72, 115
1, 55133, Note_off_c, 0, 72, 115
1, 55152, Note_on_c, 0, 75, 108
1, 55285, Note_off_c, 0, 75, 108
1, 55328, Note_on_c, 0, 68, 112
1, 55552, Note_off_c, 0, 68, 112
1, 55747, Note_on_c, 0, 73, 120
1, 55836, Note_off_c, 0, 73, 120
1, 55862, Note_on_c, 0, 75, 117
1, 55929, Note_off_c, 0, 75, 117
1, 55940, Note_on_c, 0, 77, 121
1, 56029, Note_off_c, 0, 77, 121
1, 56045, Note_on_c, 0, 78, 118
1, 56293, Note_off_c, 0, 78, 118
1, 56309, Note_on_c, 0, 76, 116
1, 56347, Note_off_c, 0, 76, 116
1, 56360, Note_on_c, 0, 75, 120
1, 56418, Note_off_c, 0, 75, 120
1, 56431, Note_on_c, 0, 73, 119
1, 56516, Note_off_c, 0, 73, 119
1, 56530, Note_on_c, 0, 77, 120
1, 56705, Note_off_c, 0, 77, 120
1, 56708, Note_on_c, 0, 75, 118
1, 56755, Note_off_c, 0, 75, 118
1, 56763, Note_on_c, 0, 74, 123
1, 56807, Note_off_c, 0, 74, 123
1, 56824, Note_on_c, 0, 73, 121
1, 56901, Note_off_c, 0, 73, 121
1, 56901, Note_on_c, 0, 76, 117
1, 57066, Note_off_c, 0, 76, 117
1, 57079, Note_on_c, 0, 74, 123
1, 57130, Note_off_c, 0, 74, 123
1, 57139, Note_on_c, 0, 73, 122
1, 57186, Note_off_c, 0, 73, 122
1, 57205, Note_on_c, 0, 71, 112
1, 57261, Note_off_c, 0, 71, 112
1, 57273, Note_on_c, 0, 75, 121
1, 57411, Note_off_c, 0, 75, 121
1, 57423, Note_on_c, 0, 73, 121
1, 57496, Note_off_c, 0, 73, 121
1, 57498, Note_on_c, 0, 72, 119
1, 57566, Note_off_c, 0, 72, 119
1, 57582, Note_on_c, 0, 70, 107
1, 57636, Note_off_c, 0, 70, 107
1, 57654, Note_on_c, 0, 75, 119
1, 57785, Note_off_c, 0, 75, 119
1, 58454, Note_on_c, 0, 83, 115
1, 58557, Note_off_c, 0, 83, 115
1, 59144, Note_on_c, 0, 78, 113
1, 59314, Note_off_c, 0, 78, 113
1, 59326, Note_on_c, 0, 76, 114
1, 59369, Note_off_c, 0, 76, 114
1, 59382, Note_on_c, 0, 75, 124
1, 59440, Note_off_c, 0, 75, 124
1, 59454, Note_on_c, 0, 73, 115
1, 59528, Note_off_c, 0, 73, 115
1, 59544, Note_on_c, 0, 77, 118
1, 59695, Note_off_c, 0, 77, 118
1, 59706, Note_on_c, 0, 75, 119
1, 59757, Note_off_c, 0, 75, 119
1, 59759, Note_on_c, 0, 74, 123
1, 59805, Note_off_c, 0, 74, 123
1, 59827, Note_on_c, 0, 73, 122
1, 59889, Note_off_c, 0, 73, 122
1, 59895, Note_on_c, 0, 76, 121
1, 60044, Note_off_c, 0, 76, 121
1, 60051, Note_on_c, 0, 74, 122
1, 60095, Note_off_c, 0, 74, 122
1, 60117, Note_on_c, 0, 73, 123
1, 60181, Note_off_c, 0, 73, 123
1, 60198, Note_on_c, 0, 71, 106
1, 60281, Note_off_c, 0, 71, 106
1, 60295, Note_on_c, 0, 75, 120
1, 60438, Note_off_c, 0, 75, 120
1, 60444, Note_on_c, 0, 73, 120
1, 60513, Note_off_c, 0, 73, 120
1, 60515, Note_on_c, 0, 72, 118
1, 60607, Note_off_c, 0, 72, 118
1, 60640, Note_on_c, 0, 71, 105
1, 60692, Note_off_c, 0, 71, 105
1, 60708, Note_on_c, 0, 80, 117
1, 60853, Note_off_c, 0, 80, 117
1, 60857, Note_on_c, 0, 78, 117
1, 60919, Note_off_c, 0, 78, 117
1, 60927, Note_on_c, 0, 77, 121
1, 60976, Note_off_c, 0, 77, 121
1, 60988, Note_on_c, 0, 75, 120
1, 61060, Note_off_c, 0, 75, 120
1, 61068, Note_on_c, 0, 79, 116
1, 61204, Note_off_c, 0, 79, 116
1, 61215, Note_on_c, 0, 77, 122
1, 61283, Note_off_c, 0, 77, 122
1, 61294, Note_on_c, 0, 76, 122
1, 61346, Note_off_c, 0, 76, 122
1, 61354, Note_on_c, 0, 75, 122
1, 61398, Note_off_c, 0, 75, 122
1, 61432, Note_on_c, 0, 78, 119
1, 61611, Note_off_c, 0, 78, 119
1, 61613, Note_on_c, 0, 76, 118
1, 61639, Note_off_c, 0, 76, 118
1, 61656, Note_on_c, 0, 75, 123
1, 61725, Note_off_c, 0, 75, 123
1, 61738, Note_on_c, 0, 73, 124
1, 61807, Note_off_c, 0, 73, 124
1, 61819, Note_on_c, 0, 77, 123
1, 61989, Note_off_c, 0, 77, 123
1, 61992, Note_on_c, 0, 75, 121
1, 62036, Note_off_c, 0, 75, 121
1, 62042, Note_on_c, 0, 74, 125
1, 62090, Note_off_c, 0, 74, 125
1, 62098, Note_on_c, 0, 73, 123
1, 62175, Note_off_c, 0, 73, 123
1, 62194, Note_on_c, 0, 82, 115
1, 62348, Note_off_c, 0, 82, 115
1, 62365, Note_on_c, 0, 80, 116
1, 62438, Note_off_c, 0, 80, 116
1, 62442, Note_on_c, 0, 79, 114
1, 62481, Note_off_c, 0, 79, 114
1, 62492, Note_on_c, 0, 77, 121
1, 62561, Note_off_c, 0, 77, 121
1, 62579, Note_on_c, 0, 81, 117
1, 62738, Note_off_c, 0, 81, 117
1, 62742, Note_on_c, 0, 79, 117
1, 62812, Note_off_c, 0, 79, 117
1, 62819, Note_on_c, 0, 78, 119
1, 62866, Note_off_c, 0, 78, 119
1, 62885, Note_on_c, 0, 76, 123
1, 62942, Note_off_c, 0, 76, 123
1, 62953, Note_on_c, 0, 80, 118
1, 63103, Note_off_c, 0, 80, 118
1, 63106, Note_on_c, 0, 78, 118
1, 63153, Note_off_c, 0, 78, 118
1, 63169, Note_on_c, 0, 77, 123
1, 63203, Note_off_c, 0, 77, 123
1, 63216, Note_on_c, 0, 75, 124
1, 63291, Note_off_c, 0, 75, 124
1, 63298, Note_on_c, 0, 79, 118
1, 63449, Note_off_c, 0, 79, 118
1, 63456, Note_on_c, 0, 77, 123
1, 63507, Note_off_c, 0, 77, 123
1, 63520, Note_on_c, 0, 76, 122
1, 63569, Note_off_c, 0, 76, 122
1, 63576, Note_on_c, 0, 75, 119
1, 63615, Note_off_c, 0, 75, 119
1, 63673, Note_on_c, 0, 78, 119
1, 63855, Note_off_c, 0, 78, 119
1, 63863, Note_on_c, 0, 77, 113
1, 63901, Note_off_c, 0, 77, 113
1, 63909, Note_on_c, 0, 75, 125
1, 63969, Note_off_c, 0, 75, 125
1, 63988, Note_on_c, 0, 73, 124
1, 64068, Note_off_c, 0, 73, 124
1, 64080, Note_on_c, 0, 71, 114
1, 64137, Note_off_c, 0, 71, 114
1, 64149, Note_on_c, 0, 83, 121
1, 64262, Note_off_c, 0, 83, 121
1, 64456, Note_on_c, 0, 76, 117
1, 64574, Note_off_c, 0, 76, 117
1, 64653, Note_on_c, 0, 74, 126
1, 64730, Note_off_c, 0, 74, 126
1, 64749, Note_on_c, 0, 73, 125
1, 64847, Note_off_c, 0, 73, 125
1, 65181, Note_on_c, 0, 74, 123
1, 65290, Note_off_c, 0, 74, 123
1, 65302, Note_on_c, 0, 78, 118
1, 65360, Note_off_c, 0, 78, 118
1, 65391, Note_on_c, 0, 81, 119
1, 65465, Note_off_c, 0, 81, 119
1, 65473, Note_on_c, 0, 79, 119
1, 65565, Note_off_c, 0, 79, 119
1, 65573, Note_on_c, 0, 77, 119
1, 65645, Note_off_c, 0, 77, 119
1, 65653, Note_on_c, 0, 76, 120
1, 65736, Note_off_c, 0, 76, 120
1, 65743, Note_on_c, 0, 74, 123
1, 65850, Note_off_c, 0, 74, 123
1, 65854, Note_on_c, 0, 72, 121
1, 65926, Note_off_c, 0, 72, 121
1, 65953, Note_on_c, 0, 70, 95
1, 66037, Note_off_c, 0, 70, 95
1, 66656, Note_on_c, 0, 69, 117
1, 66694, Note_off_c, 0, 69, 117
1, 66701, Note_on_c, 0, 70, 110
1, 66810, Note_off_c, 0, 70, 110
1, 66834, Note_on_c, 0, 72, 123
1, 66898, Note_off_c, 0, 72, 123
1, 66916, Note_on_c, 0, 74, 121
1, 67030, Note_off_c, 0, 74, 121
1, 67041, Note_on_c, 0, 77, 119
1, 67135, Note_off_c, 0, 77, 119
1, 67148, Note_on_c, 0, 75, 122
1, 67220, Note_off_c, 0, 75, 122
1, 67231, Note_on_c, 0, 77, 122
1, 67304, Note_off_c, 0, 77, 122
1, 67313, Note_on_c, 0, 79, 117
1, 67402, Note_off_c, 0, 79, 117
1, 67419, Note_on_c, 0, 82, 118
1, 67492, Note_off_c, 0, 82, 118
1, 67508, Note_on_c, 0, 80, 116
1, 67585, Note_off_c, 0, 80, 116
1, 67597, Note_on_c, 0, 79, 122
1, 67671, Note_off_c, 0, 79, 122
1, 67690, Note_on_c, 0, 77, 120
1, 67763, Note_off_c, 0, 77, 120
1, 67786, Note_on_c, 0, 76, 124
1, 67878, Note_off_c, 0, 76, 124
1, 67890, Note_on_c, 0, 75, 121
1, 67958, Note_off_c, 0, 75, 121
1, 67974, Note_on_c, 0, 74, 125
1, 68058, Note_off_c, 0, 74, 125
1, 68076, Note_on_c, 0, 73, 122
1, 68153, Note_off_c, 0, 73, 122
1, 68172, Note_on_c, 0, 71, 110
1, 68254, Note_off_c, 0, 71, 110
1, 68266, Note_on_c, 0, 70, 113
1, 68319, Note_off_c, 0, 70, 113
1, 68367, Note_on_c, 0, 66, 119
1, 68445, Note_off_c, 0, 66, 119
1, 68458, Note_on_c, 0, 64, 115
1, 68548, Note_off_c, 0, 64, 115
1, 68562, Note_on_c, 0, 60, 118
1, 68613, Note_off_c, 0, 60, 118
1, 68630, Note_on_c, 0, 63, 115
1, 68938, Note_off_c, 0, 63, 115
1, 68974, Note_on_c, 0, 58, 117
1, 69094, Note_off_c, 0, 58, 117
1, 69113, Note_on_c, 0, 60, 121
1, 69173, Note_off_c, 0, 60, 121
1, 69185, Note_on_c, 0, 62, 120
1, 69290, Note_off_c, 0, 62, 120
1, 69299, Note_on_c, 0, 65, 122
1, 69373, Note_off_c, 0, 65, 122
1, 69396, Note_on_c, 0, 63, 119
1, 69499, Note_off_c, 0, 63, 119
1, 69510, Note_on_c, 0, 65, 115
1, 69570, Note_off_c, 0, 65, 115
1, 69587, Note_on_c, 0, 67, 116
1, 69680, Note_off_c, 0, 67, 116
1, 69698, Note_on_c, 0, 70, 116
1, 69780, Note_off_c, 0, 70, 116
1, 69792, Note_on_c, 0, 67, 118
1, 69876, Note_off_c, 0, 67, 118
1, 69895, Note_on_c, 0, 68, 113
1, 69958, Note_off_c, 0, 68, 113
1, 69979, Note_on_c, 0, 70, 114
1, 70058, Note_off_c, 0, 70, 114
1, 70067, Note_on_c, 0, 73, 118
1, 70140, Note_off_c, 0, 73, 118
1, 70148, Note_on_c, 0, 75, 118
1, 70228, Note_off_c, 0, 75, 118
1, 70245, Note_on_c, 0, 77, 120
1, 70325, Note_off_c, 0, 77, 120
1, 70333, Note_on_c, 0, 79, 117
1, 70423, Note_off_c, 0, 79, 117
1, 70444, Note_on_c, 0, 80, 119
1, 70537, Note_off_c, 0, 80, 119
1, 70555, Note_on_c, 0, 78, 117
1, 70653, Note_off_c, 0, 78, 117
1, 71328, Note_on_c, 0, 81, 118
1, 71428, Note_off_c, 0, 81, 118
1, 71440, Note_on_c, 0, 83, 117
1, 71535, Note_off_c, 0, 83, 117
1, 71542, Note_on_c, 0, 80, 117
1, 71622, Note_off_c, 0, 80, 117
1, 71644, Note_on_c, 0, 77, 121
1, 71718, Note_off_c, 0, 77, 121
1, 71725, Note_on_c, 0, 79, 116
1, 71803, Note_off_c, 0, 79, 116
1, 71814, Note_on_c, 0, 81, 123
1, 71884, Note_off_c, 0, 81, 123
1, 71895, Note_on_c, 0, 78, 117
1, 71955, Note_off_c, 0, 78, 117
1, 71968, Note_on_c, 0, 75, 120
1, 72062, Note_off_c, 0, 75, 120
1, 72068, Note_on_c, 0, 77, 120
1, 72163, Note_off_c, 0, 77, 120
1, 72180, Note_on_c, 0, 79, 122
1, 72272, Note_off_c, 0, 79, 122
1, 72285, Note_on_c, 0, 76, 122
1, 72362, Note_off_c, 0, 76, 122
1, 72375, Note_on_c, 0, 73, 125
1, 72443, Note_off_c, 0, 73, 125
1, 72452, Note_on_c, 0, 75, 122
1, 72531, Note_off_c, 0, 75, 122
1, 72545, Note_on_c, 0, 77, 121
1, 72619, Note_off_c, 0, 77, 121
1, 72630, Note_on_c, 0, 74, 126
1, 72710, Note_off_c, 0, 74, 126
1, 72729, Note_on_c, 0, 71, 111
1, 72792, Note_off_c, 0, 71, 111
1, 72806, Note_on_c, 0, 73, 118
1, 72890, Note_off_c, 0, 73, 118
1, 72907, Note_on_c, 0, 75, 121
1, 72976, Note_off_c, 0, 75, 121
1, 72993, Note_on_c, 0, 74, 125
1, 73091, Note_off_c, 0, 74, 125
1, 73107, Note_on_c, 0, 71, 108
1, 73174, Note_off_c, 0, 71, 108
1, 73178, Note_on_c, 0, 75, 123
1, 73267, Note_off_c, 0, 75, 123
1, 73274, Note_on_c, 0, 77, 121
1, 73354, Note_off_c, 0, 77, 121
1, 73358, Note_on_c, 0, 76, 123
1, 73440, Note_off_c, 0, 76, 123
1, 73464, Note_on_c, 0, 73, 123
1, 73547, Note_off_c, 0, 73, 123
1, 73547, Note_on_c, 0, 77, 120
1, 73634, Note_off_c, 0, 77, 120
1, 73640, Note_on_c, 0, 79, 120
1, 73739, Note_off_c, 0, 79, 120
1, 73747, Note_on_c, 0, 78, 118
1, 73840, Note_off_c, 0, 78, 118
1, 73844, Note_on_c, 0, 75, 122
1, 73924, Note_off_c, 0, 75, 122
1, 73930, Note_on_c, 0, 79, 119
1, 74031, Note_off_c, 0, 79, 119
1, 74038, Note_on_c, 0, 81, 121
1, 74133, Note_off_c, 0, 81, 121
1, 74140, Note_on_c, 0, 79, 116
1, 74175, Note_off_c, 0, 79, 116
1, 74179, Note_on_c, 0, 77, 119
1, 74305, Note_off_c, 0, 77, 119
1, 74705, Note_on_c, 0, 77, 123
1, 74767, Note_off_c, 0, 77, 123
1, 74774, Note_on_c, 0, 79, 116
1, 74816, Note_off_c, 0, 79, 116
1, 74823, Note_on_c, 0, 81, 114
1, 74893, Note_off_c, 0, 81, 114
1, 74897, Note_on_c, 0, 83, 116
1, 74971, Note_off_c, 0, 83, 116
1, 74979, Note_on_c, 0, 81, 116
1, 75046, Note_off_c, 0, 81, 116
1, 75053, Note_on_c, 0, 79, 118
1, 75100, Note_off_c, 0, 79, 118
1, 75104, Note_on_c, 0, 77, 122
1, 75166, Note_off_c, 0, 77, 122
1, 75174, Note_on_c, 0, 75, 122
1, 75233, Note_off_c, 0, 75, 122
1, 75245, Note_on_c, 0, 73, 121
1, 75295, Note_off_c, 0, 73, 121
1, 75301, Note_on_c, 0, 71, 110
1, 75365, Note_off_c, 0, 71, 110
1, 75371, Note_on_c, 0, 69, 115
1, 75412, Note_off_c, 0, 69, 115
1, 75425, Note_on_c, 0, 67, 118
1, 75467, Note_off_c, 0, 67, 118
1, 75470, Note_on_c, 0, 65, 124
1, 75518, Note_off_c, 0, 65, 124
1, 75526, Note_on_c, 0, 63, 119
1, 75576, Note_off_c, 0, 63, 119
1, 75602, Note_on_c, 0, 61, 116
1, 76204, Note_off_c, 0, 61, 116
1, 76210, Note_on_c, 0, 63, 115
1, 76447, Note_off_c, 0, 63, 115
1, 76471, Note_on_c, 0, 61, 115
1, 76584, Note_off_c, 0, 61, 115
1, 76617, Note_on_c, 0, 68, 115
1, 77228, Note_off_c, 0, 68, 115
1, 77407, Note_on_c, 0, 72, 117
1, 77543, Note_off_c, 0, 72, 117
1, 77543, End_track
0, 0, End_of_file
