0, 0, Header, 1, 1, 192
1, 0, Start_track
1, 0, Title_t, "Melody"
1, 0, Tempo, 410958
1, 0, Time_signature, 9, 2, 24, 8
1, 1583, Note_on_c, 0, 67, 119
1, 1640, Note_off_c, 0, 67, 119
1, 1647, Note_on_c, 0, 69, 104
1, 1705, Note_off_c, 0, 69, 104
1, 1711, Note_on_c, 0, 71, 120
1, 1753, Note_off_c, 0, 71, 120
1, 1765, Note_on_c, 0, 73, 125
1, 1815, Note_off_c, 0, 73, 125
1, 1825, Note_on_c, 0, 69, 124
1, 1887, Note_off_c, 0, 69, 124
1, 1895, Note_on_c, 0, 67, 108
1, 1933, Note_off_c, 0, 67, 108
1, 1941, Note_on_c, 0, 71, 118
1, 1990, Note_off_c, 0, 71, 118
1, 2002, Note_on_c, 0, 76, 119
1, 2050, Note_off_c, 0, 76, 119
1, 2058, Note_on_c, 0, 78, 116
1, 2159, Note_off_c, 0, 78, 116
1, 2164, Note_on_c, 0, 76, 118
1, 2237, Note_off_c, 0, 76, 118
1, 2268, Note_on_c, 0, 73, 118
1, 2560, Note_off_c, 0, 73, 118
1, 2569, Note_on_c, 0, 72, 114
1, 2635, Note_off_c, 0, 72, 114
1, 3112, Note_on_c, 0, 60, 100
1, 3134, Note_off_c, 0, 60, 100
1, 3136, Note_on_c, 0, 62, 100
1, 3179, Note_off_c, 0, 62, 100
1, 3193, Note_on_c, 0, 65, 123
1, 3237, Note_off_c, 0, 65, 123
1, 3254, Note_on_c, 0, 67, 103
1, 3294, Note_off_c, 0, 67, 103
1, 3299, Note_on_c, 0, 70, 124
1, 3331, Note_off_c, 0, 70, 124
1, 3343, Note_on_c, 0, 72, 119
1, 3395, Note_off_c, 0, 72, 119
1, 3404, Note_on_c, 0, 74, 123
1, 3458, Note_off_c, 0, 74, 123
1, 3466, Note_on_c, 0, 77, 118
1, 3507, Note_off_c, 0, 77, 118
1, 3572, Note_on_c, 0, 78, 121
1, 3662, Note_off_c, 0, 78, 121
1, 3671, Note_on_c, 0, 76, 121
1, 3719, Note_off_c, 0, 76, 121
1, 3767, Note_on_c, 0, 73, 127
1, 3872, Note_off_c, 0, 73, 127
1, 3879, Note_on_c, 0, 71, 115
1, 3951, Note_off_c, 0, 71, 115
1, 4002, Note_on_c, 0, 72, 118
1, 4248, Note_off_c, 0, 72, 118
1, 4257, Note_on_c, 0, 70, 119
1, 4311, Note_off_c, 0, 70, 119
1, 4317, Note_on_c, 0, 67, 114
1, 4366, Note_off_c, 0, 67, 114
1, 4373, Note_on_c, 0, 63, 101
1, 4402, Note_off_c, 0, 63, 101
1, 4442, Note_on_c, 0, 69, 119
1, 4544, Note_off_c, 0, 69, 119
1, 4554, Note_on_c, 0, 71, 114
1, 4606, Note_off_c, 0, 71, 114
1, 5026, Note_on_c, 0, 66, 126
1, 5089, Note_off_c, 0, 66, 126
1, 5096, Note_on_c, 0, 69, 124
1, 5153, Note_off_c, 0, 69, 124
1, 5155, Note_on_c, 0, 64, 104
1, 5213, Note_off_c, 0, 64, 104
1, 5217, Note_on_c, 0, 59, 99
1, 5264, Note_off_c, 0, 59, 99
1, 5272, Note_on_c, 0, 61, 109
1, 5332, Note_off_c, 0, 61, 109
1, 5338, Note_on_c, 0, 66, 122
1, 5398, Note_off_c, 0, 66, 122
1, 5408, Note_on_c, 0, 63, 102
1, 5614, Note_off_c, 0, 63, 102
1, 5625, Note_on_c, 0, 68, 111
1, 5702, Note_off_c, 0, 68, 111
1, 5716, Note_on_c, 0, 63, 107
1, 5756, Note_off_c, 0, 63, 107
1, 5761, Note_on_c, 0, 61, 105
1, 5802, Note_off_c, 0, 61, 105
1, 5812, Note_on_c, 0, 66, 125
1, 5868, Note_off_c, 0, 66, 125
1, 5871, Note_on_c, 0, 68, 119
1, 5916, Note_off_c, 0, 68, 119
1, 5924, Note_on_c, 0, 67, 122
1, 5981, Note_off_c, 0, 67, 122
1, 5984, Note_on_c, 0, 65, 119
1, 6039, Note_off_c, 0, 65, 119
1, 6102, Note_on_c, 0, 70, 122
1, 6145, Note_off_c, 0, 70, 122
1, 6151, Note_on_c, 0, 72, 120
1, 6224, Note_off_c, 0, 72, 120
1, 6243, Note_on_c, 0, 67, 100
1, 6290, Note_off_c, 0, 67, 100
1, 6360, Note_on_c, 0, 70, 119
1, 6409, Note_off_c, 0, 70, 119
1, 6412, Note_on_c, 0, 71, 118
1, 6460, Note_off_c, 0, 71, 118
1, 6466, Note_on_c, 0, 70, 122
1, 6504, Note_off_c, 0, 70, 122
1, 6512, Note_on_c, 0, 69, 123
1, 6571, Note_off_c, 0, 69, 123
1, 6576, Note_on_c, 0, 66, 118
1, 6620, Note_off_c, 0, 66, 118
1, 6628, Note_on_c, 0, 64, 104
1, 6674, Note_off_c, 0, 64, 104
1, 6686, Note_on_c, 0, 59, 101
1, 6730, Note_off_c, 0, 59, 101
1, 6730, Note_on_c, 0, 66, 120
1, 6787, Note_off_c, 0, 66, 120
1, 6789, Note_on_c, 0, 69, 122
1, 6836, Note_off_c, 0, 69, 122
1, 6840, Note_on_c, 0, 67, 118
1, 6881, Note_off_c, 0, 67, 118
1, 6892, Note_on_c, 0, 63, 102
1, 6935, Note_off_c, 0, 63, 102
1, 7208, Note_on_c, 0, 67, 122
1, 7258, Note_off_c, 0, 67, 122
1, 7273, Note_on_c, 0, 65, 122
1, 7305, Note_off_c, 0, 65, 122
1, 7314, Note_on_c, 0, 62, 107
1, 7351, Note_off_c, 0, 62, 107
1, 7354, Note_on_c, 0, 58, 105
1, 7390, Note_off_c, 0, 58, 105
1, 7397, Note_on_c, 0, 60, 109
1, 7446, Note_off_c, 0, 60, 109
1, 7452, Note_on_c, 0, 63, 104
1, 7491, Note_off_c, 0, 63, 104
1, 7502, Note_on_c, 0, 58, 105
1, 7543, Note_off_c, 0, 58, 105
1, 7603, Note_on_c, 0, 57, 117
1, 7638, Note_off_c, 0, 57, 117
1, 7645, Note_on_c, 0, 55, 107
1, 7808, Note_off_c, 0, 55, 107
1, 7818, Note_on_c, 0, 57, 110
1, 7857, Note_off_c, 0, 57, 110
1, 7860, Note_on_c, 0, 55, 107
1, 7903, Note_off_c, 0, 55, 107
1, 7914, Note_on_c, 0, 57, 109
1, 7976, Note_off_c, 0, 57, 109
1, 7998, Note_on_c, 0, 61, 102
1, 8033, Note_off_c, 0, 61, 102
1, 8035, Note_on_c, 0, 63, 100
1, 8079, Note_off_c, 0, 63, 100
1, 8088, Note_on_c, 0, 66, 118
1, 8121, Note_off_c, 0, 66, 118
1, 8122, Note_on_c, 0, 67, 114
1, 8162, Note_off_c, 0, 67, 114
1, 8182, Note_on_c, 0, 71, 102
1, 8206, Note_off_c, 0, 71, 102
1, 8210, Note_on_c, 0, 73, 102
1, 8253, Note_off_c, 0, 73, 102
1, 8263, Note_on_c, 0, 77, 112
1, 8301, Note_off_c, 0, 77, 112
1, 8302, Note_on_c, 0, 79, 97
1, 8424, Note_off_c, 0, 79, 97
1, 8424, End_track
0, 0, End_of_file
