0, 0, Header, 1, 1, 420
1, 0, Start_track
1, 0, Title_t, "Melody"
1, 0, Tempo, 697674
1, 0, Key_signature, -5, "major"
1, 0, Time_signature, 4, 2, 24, 8
1, 6164, Note_on_c, 0, 58, 103
1, 6709, Note_off_c, 0, 58, 103
1, 7704, Note_on_c, 0, 57, 115
1, 7861, Note_off_c, 0, 57, 115
1, 7900, Note_on_c, 0, 60, 114
1, 8076, Note_off_c, 0, 60, 114
1, 8132, Note_on_c, 0, 63, 107
1, 8623, Note_off_c, 0, 63, 107
1, 9371, Note_on_c, 0, 66, 121
1, 9542, Note_off_c, 0, 66, 121
1, 9587, Note_on_c, 0, 68, 111
1, 10299, Note_off_c, 0, 68, 111
1, 11021, Note_on_c, 0, 65, 118
1, 11250, Note_off_c, 0, 65, 118
1, 11281, Note_on_c, 0, 71, 112
1, 11958, Note_off_c, 0, 71, 112
1, 12713, Note_on_c, 0, 62, 116
1, 12898, Note_off_c, 0, 62, 116
1, 12939, Note_on_c, 0, 60, 114
1, 13187, Note_off_c, 0, 60, 114
1, 13246, Note_on_c, 0, 61, 118
1, 13665, Note_off_c, 0, 61, 118
1, 13700, Note_on_c, 0, 72, 113
1, 14445, Note_off_c, 0, 72, 113
1, 14475, Note_on_c, 0, 68, 102
1, 14625, Note_off_c, 0, 68, 102
1, 14701, Note_on_c, 0, 65, 110
1, 15015, Note_off_c, 0, 65, 110
1, 15056, Note_on_c, 0, 64, 116
1, 15244, Note_off_c, 0, 64, 116
1, 15268, Note_on_c, 0, 65, 112
1, 15498, Note_off_c, 0, 65, 112
1, 15502, Note_on_c, 0, 75, 118
1, 16798, Note_off_c, 0, 75, 118
1, 17398, Note_on_c, 0, 68, 102
1, 17960, Note_off_c, 0, 68, 102
1, 18000, Note_on_c, 0, 75, 121
1, 19125, Note_off_c, 0, 75, 121
1, 19430, Note_on_c, 0, 68, 96
1, 19528, Note_off_c, 0, 68, 96
1, 19567, Note_on_c, 0, 68, 100
1, 19648, Note_off_c, 0, 68, 100
1, 19757, Note_on_c, 0, 76, 123
1, 20651, Note_off_c, 0, 76, 123
1, 20743, Note_on_c, 0, 67, 115
1, 20848, Note_off_c, 0, 67, 115
1, 20873, Note_on_c, 0, 70, 111
1, 21000, Note_off_c, 0, 70, 111
1, 21024, Note_on_c, 0, 74, 121
1, 21139, Note_off_c, 0, 74, 121
1, 21172, Note_on_c, 0, 76, 121
1, 21258, Note_off_c, 0, 76, 121
1, 21358, Note_on_c, 0, 77, 112
1, 21829, Note_off_c, 0, 77, 112
1, 22760, Note_on_c, 0, 67, 120
1, 22885, Note_off_c, 0, 67, 120
1, 22899, Note_on_c, 0, 69, 115
1, 22970, Note_off_c, 0, 69, 115
1, 23085, Note_on_c, 0, 78, 120
1, 23780, Note_off_c, 0, 78, 120
1, 24409, Note_on_c, 0, 77, 111
1, 24541, Note_off_c, 0, 77, 111
1, 24578, Note_on_c, 0, 75, 119
1, 24730, Note_off_c, 0, 75, 119
1, 24735, Note_on_c, 0, 76, 121
1, 24770, Note_off_c, 0, 76, 121
1, 24775, Note_on_c, 0, 77, 118
1, 25244, Note_off_c, 0, 77, 118
1, 25324, Note_on_c, 0, 71, 107
1, 25451, Note_off_c, 0, 71, 107
1, 25514, Note_on_c, 0, 65, 117
1, 25609, Note_off_c, 0, 65, 117
1, 25634, Note_on_c, 0, 71, 115
1, 25658, Note_off_c, 0, 71, 115
1, 25667, Note_on_c, 0, 70, 111
1, 26040, Note_off_c, 0, 70, 111
1, 26572, Note_on_c, 0, 64, 116
1, 26629, Note_off_c, 0, 64, 116
1, 26642, Note_on_c, 0, 65, 116
1, 26755, Note_off_c, 0, 65, 116
1, 26784, Note_on_c, 0, 67, 119
1, 26913, Note_off_c, 0, 67, 119
1, 26929, Note_on_c, 0, 70, 117
1, 27065, Note_off_c, 0, 70, 117
1, 27083, Note_on_c, 0, 75, 123
1, 27156, Note_off_c, 0, 75, 123
1, 27267, Note_on_c, 0, 79, 122
1, 27380, Note_off_c, 0, 79, 122
1, 27393, Note_on_c, 0, 80, 114
1, 27625, Note_off_c, 0, 80, 114
1, 27642, Note_on_c, 0, 78, 113
1, 27932, Note_off_c, 0, 78, 113
1, 27954, Note_on_c, 0, 74, 126
1, 28086, Note_off_c, 0, 74, 126
1, 28098, Note_on_c, 0, 77, 118
1, 28241, Note_off_c, 0, 77, 118
1, 28253, Note_on_c, 0, 75, 125
1, 28483, Note_off_c, 0, 75, 125
1, 28498, Note_on_c, 0, 72, 111
1, 28812, Note_off_c, 0, 72, 111
1, 28946, Note_on_c, 0, 63, 110
1, 29064, Note_off_c, 0, 63, 110
1, 29083, Note_on_c, 0, 65, 118
1, 29255, Note_off_c, 0, 65, 118
1, 29265, Note_on_c, 0, 60, 110
1, 29567, Note_off_c, 0, 60, 110
1, 29603, Note_on_c, 0, 58, 105
1, 29709, Note_off_c, 0, 58, 105
1, 29745, Note_on_c, 0, 61, 111
1, 30078, Note_off_c, 0, 61, 111
1, 30189, Note_on_c, 0, 63, 108
1, 30313, Note_off_c, 0, 63, 108
1, 30332, Note_on_c, 0, 65, 115
1, 30407, Note_off_c, 0, 65, 115
1, 30488, Note_on_c, 0, 66, 115
1, 30587, Note_off_c, 0, 66, 115
1, 30607, Note_on_c, 0, 68, 109
1, 30715, Note_off_c, 0, 68, 109
1, 30737, Note_on_c, 0, 70, 116
1, 30827, Note_off_c, 0, 70, 116
1, 30871, Note_on_c, 0, 72, 115
1, 30975, Note_off_c, 0, 72, 115
1, 30988, Note_on_c, 0, 75, 124
1, 31087, Note_off_c, 0, 75, 124
1, 31120, Note_on_c, 0, 77, 117
1, 31235, Note_off_c, 0, 77, 117
1, 31264, Note_on_c, 0, 80, 111
1, 31382, Note_off_c, 0, 80, 111
1, 31443, Note_on_c, 0, 84, 114
1, 31844, Note_off_c, 0, 84, 114
1, 32736, Note_on_c, 0, 69, 114
1, 32755, Note_off_c, 0, 69, 114
1, 32758, Note_on_c, 0, 70, 109
1, 32861, Note_off_c, 0, 70, 109
1, 32876, Note_on_c, 0, 72, 117
1, 32982, Note_off_c, 0, 72, 117
1, 32994, Note_on_c, 0, 73, 121
1, 33098, Note_off_c, 0, 73, 121
1, 33115, Note_on_c, 0, 75, 127
1, 33228, Note_off_c, 0, 75, 127
1, 33240, Note_on_c, 0, 77, 120
1, 33374, Note_off_c, 0, 77, 120
1, 33396, Note_on_c, 0, 83, 102
1, 33430, Note_off_c, 0, 83, 102
1, 33433, Note_on_c, 0, 85, 119
1, 33600, Note_off_c, 0, 85, 119
1, 33624, Note_on_c, 0, 82, 120
1, 33826, Note_off_c, 0, 82, 120
1, 33836, Note_on_c, 0, 77, 120
1, 34001, Note_off_c, 0, 77, 120
1, 34027, Note_on_c, 0, 72, 113
1, 34371, Note_off_c, 0, 72, 113
1, 34407, Note_on_c, 0, 80, 114
1, 34531, Note_off_c, 0, 80, 114
1, 34553, Note_on_c, 0, 76, 123
1, 34668, Note_off_c, 0, 76, 123
1, 34685, Note_on_c, 0, 71, 108
1, 34824, Note_off_c, 0, 71, 108
1, 34843, Note_on_c, 0, 70, 114
1, 35898, Note_off_c, 0, 70, 114
1, 36290, Note_on_c, 0, 65, 107
1, 36486, Note_off_c, 0, 65, 107
1, 36528, Note_on_c, 0, 75, 118
1, 36680, Note_off_c, 0, 75, 118
1, 36722, Note_on_c, 0, 77, 92
1, 36839, Note_off_c, 0, 77, 92
1, 36895, Note_on_c, 0, 70, 110
1, 37258, Note_off_c, 0, 70, 110
1, 37338, Note_on_c, 0, 76, 116
1, 37456, Note_off_c, 0, 76, 116
1, 37478, Note_on_c, 0, 74, 122
1, 37602, Note_off_c, 0, 74, 122
1, 37624, Note_on_c, 0, 71, 105
1, 37889, Note_off_c, 0, 71, 105
1, 37908, Note_on_c, 0, 69, 114
1, 38004, Note_off_c, 0, 69, 114
1, 38042, Note_on_c, 0, 64, 114
1, 38146, Note_off_c, 0, 64, 114
1, 38172, Note_on_c, 0, 62, 116
1, 38292, Note_off_c, 0, 62, 116
1, 38316, Note_on_c, 0, 58, 103
1, 38616, Note_off_c, 0, 58, 103
1, 39245, Note_on_c, 0, 61, 119
1, 39327, Note_off_c, 0, 61, 119
1, 39331, Note_on_c, 0, 63, 118
1, 39364, Note_off_c, 0, 63, 118
1, 39375, Note_on_c, 0, 65, 115
1, 39424, Note_off_c, 0, 65, 115
1, 39438, Note_on_c, 0, 67, 116
1, 39484, Note_off_c, 0, 67, 116
1, 39505, Note_on_c, 0, 68, 105
1, 39552, Note_off_c, 0, 68, 105
1, 39560, Note_on_c, 0, 70, 115
1, 39605, Note_off_c, 0, 70, 115
1, 39621, Note_on_c, 0, 72, 113
1, 39683, Note_off_c, 0, 72, 113
1, 39687, Note_on_c, 0, 73, 113
1, 39728, Note_off_c, 0, 73, 113
1, 39729, Note_on_c, 0, 75, 117
1, 39768, Note_off_c, 0, 75, 117
1, 39772, Note_on_c, 0, 77, 118
1, 39802, Note_off_c, 0, 77, 118
1, 39806, Note_on_c, 0, 79, 110
1, 39831, Note_off_c, 0, 79, 110
1, 39845, Note_on_c, 0, 80, 114
1, 39880, Note_off_c, 0, 80, 114
1, 39888, Note_on_c, 0, 82, 105
1, 40762, Note_off_c, 0, 82, 105
1, 40794, Note_on_c, 0, 77, 114
1, 40870, Note_off_c, 0, 77, 114
1, 40960, Note_on_c, 0, 77, 115
1, 41103, Note_off_c, 0, 77, 115
1, 41136, Note_on_c, 0, 76, 119
1, 41153, Note_off_c, 0, 76, 119
1, 41161, Note_on_c, 0, 77, 118
1, 41321, Note_off_c, 0, 77, 118
1, 41347, Note_on_c, 0, 75, 122
1, 41439, Note_off_c, 0, 75, 122
1, 41460, Note_on_c, 0, 73, 114
1, 41580, Note_off_c, 0, 73, 114
1, 41611, Note_on_c, 0, 70, 107
1, 41738, Note_off_c, 0, 70, 107
1, 41757, Note_on_c, 0, 63, 111
1, 42005, Note_off_c, 0, 63, 111
1, 42925, Note_on_c, 0, 63, 118
1, 42961, Note_off_c, 0, 63, 118
1, 42962, Note_on_c, 0, 64, 116
1, 43098, Note_off_c, 0, 64, 116
1, 43106, Note_on_c, 0, 70, 115
1, 43499, Note_off_c, 0, 70, 115
1, 43568, Note_on_c, 0, 68, 109
1, 43688, Note_off_c, 0, 68, 109
1, 43717, Note_on_c, 0, 66, 116
1, 43846, Note_off_c, 0, 66, 116
1, 43870, Note_on_c, 0, 58, 98
1, 43966, Note_off_c, 0, 58, 98
1, 44048, Note_on_c, 0, 65, 119
1, 44180, Note_off_c, 0, 65, 119
1, 44192, Note_on_c, 0, 63, 109
1, 44459, Note_off_c, 0, 63, 109
1, 45157, Note_on_c, 0, 67, 116
1, 45253, Note_off_c, 0, 67, 116
1, 45271, Note_on_c, 0, 70, 113
1, 45353, Note_off_c, 0, 70, 113
1, 45383, Note_on_c, 0, 72, 112
1, 45473, Note_off_c, 0, 72, 112
1, 45498, Note_on_c, 0, 73, 118
1, 45578, Note_off_c, 0, 73, 118
1, 45591, Note_on_c, 0, 76, 115
1, 45678, Note_off_c, 0, 76, 115
1, 45697, Note_on_c, 0, 79, 123
1, 45773, Note_off_c, 0, 79, 123
1, 45803, Note_on_c, 0, 82, 116
1, 45888, Note_off_c, 0, 82, 116
1, 45907, Note_on_c, 0, 84, 118
1, 46035, Note_off_c, 0, 84, 118
1, 46041, Note_on_c, 0, 84, 117
1, 46089, Note_off_c, 0, 84, 117
1, 46094, Note_on_c, 0, 85, 111
1, 46466, Note_off_c, 0, 85, 111
1, 46490, Note_on_c, 0, 84, 111
1, 46711, Note_off_c, 0, 84, 111
1, 46749, Note_on_c, 0, 79, 117
1, 47009, Note_off_c, 0, 79, 117
1, 47040, Note_on_c, 0, 76, 120
1, 47171, Note_off_c, 0, 76, 120
1, 47192, Note_on_c, 0, 72, 109
1, 47307, Note_off_c, 0, 72, 109
1, 47331, Note_on_c, 0, 71, 102
1, 47593, Note_off_c, 0, 71, 102
1, 47651, Note_on_c, 0, 83, 113
1, 48051, Note_off_c, 0, 83, 113
1, 48664, Note_on_c, 0, 81, 115
1, 48677, Note_off_c, 0, 81, 115
1, 48683, Note_on_c, 0, 82, 107
1, 48773, Note_off_c, 0, 82, 107
1, 48786, Note_on_c, 0, 77, 115
1, 48887, Note_off_c, 0, 77, 115
1, 48900, Note_on_c, 0, 74, 121
1, 49006, Note_off_c, 0, 74, 121
1, 49029, Note_on_c, 0, 70, 108
1, 49127, Note_off_c, 0, 70, 108
1, 49140, Note_on_c, 0, 69, 111
1, 49318, Note_off_c, 0, 69, 111
1, 49351, Note_on_c, 0, 81, 113
1, 49945, Note_off_c, 0, 81, 113
1, 49962, Note_on_c, 0, 80, 111
1, 50073, Note_off_c, 0, 80, 111
1, 50174, Note_on_c, 0, 81, 117
1, 50201, Note_off_c, 0, 81, 117
1, 50202, Note_on_c, 0, 82, 106
1, 50471, Note_off_c, 0, 82, 106
1, 50491, Note_on_c, 0, 80, 111
1, 50616, Note_off_c, 0, 80, 111
1, 50636, Note_on_c, 0, 82, 110
1, 50772, Note_off_c, 0, 82, 110
1, 50796, Note_on_c, 0, 80, 108
1, 51000, Note_off_c, 0, 80, 108
1, 51013, Note_on_c, 0, 76, 116
1, 51635, Note_off_c, 0, 76, 116
1, 51638, Note_on_c, 0, 77, 115
1, 51947, Note_off_c, 0, 77, 115
1, 52343, Note_on_c, 0, 65, 114
1, 52381, Note_off_c, 0, 65, 114
1, 52393, Note_on_c, 0, 67, 117
1, 52426, Note_off_c, 0, 67, 117
1, 52448, Note_on_c, 0, 69, 116
1, 52493, Note_off_c, 0, 69, 116
1, 52512, Note_on_c, 0, 71, 108
1, 52627, Note_off_c, 0, 71, 108
1, 52648, Note_on_c, 0, 73, 118
1, 52754, Note_off_c, 0, 73, 118
1, 52765, Note_on_c, 0, 74, 121
1, 52875, Note_off_c, 0, 74, 121
1, 52887, Note_on_c, 0, 75, 122
1, 53007, Note_off_c, 0, 75, 122
1, 53020, Note_on_c, 0, 76, 121
1, 53138, Note_off_c, 0, 76, 121
1, 53151, Note_on_c, 0, 78, 118
1, 53308, Note_off_c, 0, 78, 118
1, 53329, Note_on_c, 0, 77, 115
1, 53737, Note_off_c, 0, 77, 115
1, 53796, Note_on_c, 0, 73, 115
1, 53939, Note_off_c, 0, 73, 115
1, 53977, Note_on_c, 0, 70, 112
1, 54106, Note_off_c, 0, 70, 112
1, 54126, Note_on_c, 0, 67, 118
1, 54244, Note_off_c, 0, 67, 118
1, 54269, Note_on_c, 0, 66, 115
1, 54433, Note_off_c, 0, 66, 115
1, 54448, Note_on_c, 0, 76, 116
1, 54830, Note_off_c, 0, 76, 116
1, 55533, Note_on_c, 0, 75, 121
1, 55650, Note_off_c, 0, 75, 121
1, 55702, Note_on_c, 0, 73, 119
1, 55829, Note_off_c, 0, 73, 119
1, 55832, Note_on_c, 0, 72, 119
1, 55942, Note_off_c, 0, 72, 119
1, 55949, Note_on_c, 0, 73, 119
1, 56042, Note_off_c, 0, 73, 119
1, 56054, Note_on_c, 0, 77, 114
1, 56169, Note_off_c, 0, 77, 114
1, 56189, Note_on_c, 0, 80, 111
1, 56314, Note_off_c, 0, 80, 111
1, 56329, Note_on_c, 0, 84, 112
1, 56494, Note_off_c, 0, 84, 112
1, 56511, Note_on_c, 0, 82, 116
1, 56790, Note_off_c, 0, 82, 116
1, 57447, Note_on_c, 0, 82, 116
1, 57485, Note_off_c, 0, 82, 116
1, 57491, Note_on_c, 0, 83, 119
1, 57510, Note_off_c, 0, 83, 119
1, 57521, Note_on_c, 0, 84, 117
1, 57544, Note_off_c, 0, 84, 117
1, 57562, Note_on_c, 0, 85, 114
1, 57620, Note_off_c, 0, 85, 114
1, 57628, Note_on_c, 0, 87, 110
1, 57795, Note_off_c, 0, 87, 110
1, 57810, Note_on_c, 0, 85, 111
1, 57948, Note_off_c, 0, 85, 111
1, 57961, Note_on_c, 0, 82, 97
1, 58074, Note_off_c, 0, 82, 97
1, 58098, Note_on_c, 0, 78, 103
1, 58218, Note_off_c, 0, 78, 103
1, 58233, Note_on_c, 0, 77, 103
1, 58361, Note_off_c, 0, 77, 103
1, 58379, Note_on_c, 0, 73, 102
1, 58505, Note_off_c, 0, 73, 102
1, 58513, Note_on_c, 0, 70, 92
1, 58648, Note_off_c, 0, 70, 92
1, 58662, Note_on_c, 0, 66, 88
1, 58813, Note_off_c, 0, 66, 88
1, 58825, Note_on_c, 0, 61, 83
1, 59011, Note_off_c, 0, 61, 83
1, 59023, Note_on_c, 0, 58, 72
1, 59225, Note_off_c, 0, 58, 72
1, 59236, Note_on_c, 0, 60, 64
1, 59544, Note_off_c, 0, 60, 64
1, 59544, End_track
0, 0, End_of_file
