0, 0, Header, 1, 1, 840
1, 0, Start_track
1, 0, Title_t, "Melody"
1, 0, Tempo, 576923
1, 0, Key_signature, -4, "major"
1, 0, Time_signature, 5, 2, 24, 8
1, 10412, Note_on_c, 0, 63, 100
1, 11350, Note_off_c, 0, 63, 100
1, 11358, Note_on_c, 0, 56, 109
1, 11560, Note_off_c, 0, 56, 109
1, 11560, Note_on_c, 0, 65, 112
1, 13284, Note_off_c, 0, 65, 112
1, 13284, Note_on_c, 0, 63, 110
1, 14095, Note_off_c, 0, 63, 110
1, 14162, Note_on_c, 0, 56, 102
1, 14690, Note_off_c, 0, 56, 102
1, 16477, Note_on_c, 0, 62, 122
1, 16667, Note_off_c, 0, 62, 122
1, 16671, Note_on_c, 0, 56, 96
1, 16911, Note_off_c, 0, 56, 96
1, 17016, Note_on_c, 0, 62, 111
1, 18317, Note_off_c, 0, 62, 111
1, 18317, Note_on_c, 0, 56, 93
1, 18618, Note_off_c, 0, 56, 93
1, 18684, Note_on_c, 0, 62, 114
1, 18830, Note_off_c, 0, 62, 114
1, 18830, Note_on_c, 0, 68, 113
1, 19073, Note_off_c, 0, 68, 113
1, 19328, Note_on_c, 0, 62, 103
1, 19480, Note_off_c, 0, 62, 103
1, 19480, Note_on_c, 0, 67, 114
1, 19622, Note_off_c, 0, 67, 114
1, 19648, Note_on_c, 0, 72, 115
1, 19829, Note_off_c, 0, 72, 115
1, 19875, Note_on_c, 0, 70, 111
1, 20055, Note_off_c, 0, 70, 111
1, 20068, Note_on_c, 0, 67, 101
1, 20211, Note_off_c, 0, 67, 101
1, 20211, Note_on_c, 0, 68, 111
1, 20658, Note_off_c, 0, 68, 111
1, 20658, Note_on_c, 0, 65, 111
1, 20808, Note_off_c, 0, 65, 111
1, 20936, Note_on_c, 0, 62, 110
1, 21502, Note_off_c, 0, 62, 110
1, 21502, Note_on_c, 0, 60, 104
1, 21745, Note_off_c, 0, 60, 104
1, 25854, Note_on_c, 0, 56, 97
1, 26134, Note_off_c, 0, 56, 97
1, 26200, Note_on_c, 0, 61, 118
1, 26391, Note_off_c, 0, 61, 118
1, 26428, Note_on_c, 0, 67, 115
1, 26554, Note_off_c, 0, 67, 115
1, 26570, Note_on_c, 0, 70, 112
1, 26654, Note_off_c, 0, 70, 112
1, 26738, Note_on_c, 0, 73, 116
1, 26915, Note_off_c, 0, 73, 116
1, 26915, Note_on_c, 0, 71, 112
1, 27160, Note_off_c, 0, 71, 112
1, 27160, Note_on_c, 0, 70, 110
1, 29326, Note_off_c, 0, 70, 110
1, 29678, Note_on_c, 0, 66, 109
1, 29889, Note_off_c, 0, 66, 109
1, 29889, Note_on_c, 0, 63, 121
1, 30064, Note_off_c, 0, 63, 121
1, 30082, Note_on_c, 0, 59, 112
1, 30284, Note_off_c, 0, 59, 112
1, 30284, Note_on_c, 0, 66, 112
1, 30478, Note_on_c, 0, 67, 107
1, 30478, Note_off_c, 0, 66, 112
1, 30832, Note_off_c, 0, 67, 107
1, 30891, Note_on_c, 0, 63, 114
1, 31106, Note_off_c, 0, 63, 114
1, 31110, Note_on_c, 0, 68, 118
1, 31219, Note_off_c, 0, 68, 118
1, 31219, Note_on_c, 0, 70, 104
1, 31371, Note_off_c, 0, 70, 104
1, 31371, Note_on_c, 0, 68, 111
1, 31480, Note_off_c, 0, 68, 111
1, 31480, Note_on_c, 0, 67, 111
1, 31614, Note_off_c, 0, 67, 111
1, 31753, Note_on_c, 0, 66, 109
1, 32017, Note_off_c, 0, 66, 109
1, 32188, Note_on_c, 0, 63, 120
1, 32367, Note_off_c, 0, 63, 120
1, 32381, Note_on_c, 0, 59, 119
1, 32561, Note_off_c, 0, 59, 119
1, 32605, Note_on_c, 0, 56, 107
1, 32777, Note_on_c, 0, 61, 120
1, 32777, Note_off_c, 0, 56, 107
1, 32941, Note_off_c, 0, 61, 120
1, 33020, Note_on_c, 0, 56, 107
1, 33223, Note_off_c, 0, 56, 107
1, 33348, Note_on_c, 0, 61, 119
1, 33508, Note_off_c, 0, 61, 119
1, 33609, Note_on_c, 0, 60, 108
1, 33837, Note_off_c, 0, 60, 108
1, 33856, Note_on_c, 0, 53, 91
1, 34022, Note_off_c, 0, 53, 91
1, 34022, Note_on_c, 0, 56, 107
1, 34385, Note_off_c, 0, 56, 107
1, 34418, Note_on_c, 0, 55, 104
1, 34648, Note_off_c, 0, 55, 104
1, 34701, Note_on_c, 0, 58, 102
1, 34864, Note_off_c, 0, 58, 102
1, 34864, Note_on_c, 0, 63, 111
1, 35066, Note_off_c, 0, 63, 111
1, 35066, Note_on_c, 0, 67, 112
1, 35280, Note_off_c, 0, 67, 112
1, 35315, Note_on_c, 0, 61, 112
1, 35479, Note_off_c, 0, 61, 112
1, 35479, Note_on_c, 0, 63, 114
1, 35632, Note_off_c, 0, 63, 114
1, 35655, Note_on_c, 0, 65, 113
1, 35861, Note_off_c, 0, 65, 113
1, 35909, Note_on_c, 0, 70, 100
1, 36009, Note_off_c, 0, 70, 100
1, 36092, Note_on_c, 0, 73, 110
1, 36328, Note_off_c, 0, 73, 110
1, 36328, Note_on_c, 0, 67, 101
1, 36497, Note_off_c, 0, 67, 101
1, 36497, Note_on_c, 0, 70, 114
1, 36692, Note_off_c, 0, 70, 114
1, 36728, Note_on_c, 0, 72, 112
1, 36928, Note_off_c, 0, 72, 112
1, 36928, Note_on_c, 0, 75, 119
1, 37123, Note_on_c, 0, 77, 118
1, 37123, Note_off_c, 0, 75, 119
1, 37281, Note_off_c, 0, 77, 118
1, 37355, Note_on_c, 0, 79, 104
1, 38149, Note_off_c, 0, 79, 104
1, 38149, Note_on_c, 0, 72, 105
1, 38316, Note_off_c, 0, 72, 105
1, 38393, Note_on_c, 0, 70, 109
1, 38538, Note_off_c, 0, 70, 109
1, 38625, Note_on_c, 0, 68, 99
1, 39253, Note_off_c, 0, 68, 99
1, 41409, Note_on_c, 0, 72, 116
1, 41603, Note_off_c, 0, 72, 116
1, 41619, Note_on_c, 0, 71, 116
1, 41794, Note_off_c, 0, 71, 116
1, 41829, Note_on_c, 0, 70, 116
1, 41966, Note_off_c, 0, 70, 116
1, 41981, Note_on_c, 0, 66, 114
1, 42153, Note_off_c, 0, 66, 114
1, 42200, Note_on_c, 0, 70, 112
1, 42366, Note_off_c, 0, 70, 112
1, 42385, Note_on_c, 0, 68, 114
1, 42549, Note_off_c, 0, 68, 114
1, 42613, Note_on_c, 0, 66, 114
1, 42748, Note_off_c, 0, 66, 114
1, 42756, Note_on_c, 0, 64, 110
1, 43627, Note_off_c, 0, 64, 110
1, 45063, Note_on_c, 0, 61, 122
1, 45243, Note_off_c, 0, 61, 122
1, 45256, Note_on_c, 0, 60, 116
1, 45416, Note_off_c, 0, 60, 116
1, 45441, Note_on_c, 0, 63, 120
1, 45610, Note_off_c, 0, 63, 120
1, 45610, Note_on_c, 0, 62, 120
1, 45797, Note_off_c, 0, 62, 120
1, 45989, Note_on_c, 0, 56, 103
1, 46240, Note_off_c, 0, 56, 103
1, 46318, Note_on_c, 0, 62, 120
1, 46480, Note_off_c, 0, 62, 120
1, 46520, Note_on_c, 0, 59, 113
1, 46683, Note_off_c, 0, 59, 113
1, 46722, Note_on_c, 0, 57, 106
1, 46924, Note_off_c, 0, 57, 106
1, 46924, Note_on_c, 0, 58, 113
1, 47112, Note_off_c, 0, 58, 113
1, 47118, Note_on_c, 0, 57, 114
1, 47287, Note_off_c, 0, 57, 114
1, 47287, Note_on_c, 0, 56, 111
1, 47485, Note_off_c, 0, 56, 111
1, 47489, Note_on_c, 0, 58, 110
1, 47639, Note_off_c, 0, 58, 110
1, 47699, Note_on_c, 0, 59, 108
1, 47932, Note_off_c, 0, 59, 108
1, 47943, Note_on_c, 0, 68, 116
1, 48102, Note_off_c, 0, 68, 116
1, 48120, Note_on_c, 0, 64, 119
1, 48294, Note_off_c, 0, 64, 119
1, 48440, Note_on_c, 0, 58, 112
1, 48541, Note_off_c, 0, 58, 112
1, 48541, Note_on_c, 0, 66, 106
1, 48885, Note_off_c, 0, 66, 106
1, 48954, Note_on_c, 0, 68, 110
1, 49376, Note_off_c, 0, 68, 110
1, 49376, Note_on_c, 0, 64, 118
1, 49615, Note_off_c, 0, 64, 118
1, 49814, Note_on_c, 0, 62, 113
1, 50089, Note_off_c, 0, 62, 113
1, 50160, Note_on_c, 0, 58, 100
1, 50312, Note_off_c, 0, 58, 100
1, 50312, Note_on_c, 0, 63, 118
1, 50540, Note_off_c, 0, 63, 118
1, 50540, Note_on_c, 0, 65, 107
1, 50704, Note_off_c, 0, 65, 107
1, 50712, Note_on_c, 0, 62, 114
1, 50961, Note_off_c, 0, 62, 114
1, 50961, Note_on_c, 0, 66, 104
1, 51152, Note_off_c, 0, 66, 104
1, 51382, Note_on_c, 0, 63, 118
1, 51527, Note_off_c, 0, 63, 118
1, 51575, Note_on_c, 0, 69, 117
1, 51769, Note_off_c, 0, 69, 117
1, 51870, Note_on_c, 0, 64, 102
1, 52055, Note_on_c, 0, 69, 119
1, 52055, Note_off_c, 0, 64, 102
1, 52287, Note_off_c, 0, 69, 119
1, 52291, Note_on_c, 0, 66, 111
1, 52483, Note_off_c, 0, 66, 111
1, 52493, Note_on_c, 0, 62, 116
1, 52695, Note_off_c, 0, 62, 116
1, 52695, Note_on_c, 0, 59, 109
1, 52900, Note_off_c, 0, 59, 109
1, 52905, Note_on_c, 0, 64, 117
1, 53124, Note_off_c, 0, 64, 117
1, 53124, Note_on_c, 0, 60, 109
1, 53267, Note_off_c, 0, 60, 109
1, 53267, Note_on_c, 0, 57, 107
1, 53495, Note_off_c, 0, 57, 107
1, 53495, Note_on_c, 0, 60, 103
1, 53779, Note_off_c, 0, 60, 103
1, 53782, Note_on_c, 0, 56, 100
1, 54321, Note_off_c, 0, 56, 100
1, 54375, Note_on_c, 0, 54, 118
1, 54642, Note_off_c, 0, 54, 118
1, 54642, Note_on_c, 0, 59, 115
1, 54802, Note_off_c, 0, 59, 115
1, 54802, Note_on_c, 0, 64, 119
1, 54983, Note_off_c, 0, 64, 119
1, 54987, Note_on_c, 0, 61, 113
1, 55189, Note_off_c, 0, 61, 113
1, 55409, Note_on_c, 0, 60, 110
1, 55687, Note_off_c, 0, 60, 110
1, 55687, Note_on_c, 0, 64, 115
1, 55847, Note_off_c, 0, 64, 115
1, 55847, Note_on_c, 0, 61, 116
1, 56156, Note_off_c, 0, 61, 116
1, 57452, Note_on_c, 0, 60, 112
1, 57580, Note_off_c, 0, 60, 112
1, 57620, Note_on_c, 0, 64, 119
1, 57788, Note_off_c, 0, 64, 119
1, 57822, Note_on_c, 0, 63, 125
1, 58022, Note_off_c, 0, 63, 125
1, 58049, Note_on_c, 0, 61, 115
1, 58290, Note_off_c, 0, 61, 115
1, 58555, Note_on_c, 0, 61, 120
1, 58680, Note_off_c, 0, 61, 120
1, 58714, Note_on_c, 0, 60, 113
1, 58908, Note_off_c, 0, 60, 113
1, 58908, Note_on_c, 0, 61, 111
1, 59077, Note_off_c, 0, 61, 111
1, 59101, Note_on_c, 0, 63, 119
1, 59300, Note_off_c, 0, 63, 119
1, 59557, Note_on_c, 0, 57, 110
1, 59726, Note_off_c, 0, 57, 110
1, 59726, Note_on_c, 0, 58, 106
1, 60005, Note_off_c, 0, 58, 106
1, 62472, Note_on_c, 0, 62, 114
1, 65209, Note_off_c, 0, 62, 114
1, 65239, Note_on_c, 0, 58, 99
1, 65510, Note_off_c, 0, 58, 99
1, 65527, Note_on_c, 0, 55, 92
1, 66032, Note_off_c, 0, 55, 92
1, 66032, Note_on_c, 0, 62, 122
1, 66223, Note_off_c, 0, 62, 122
1, 66242, Note_on_c, 0, 58, 106
1, 66386, Note_off_c, 0, 58, 106
1, 66424, Note_on_c, 0, 62, 121
1, 66611, Note_off_c, 0, 62, 121
1, 66622, Note_on_c, 0, 58, 108
1, 66877, Note_off_c, 0, 58, 108
1, 66877, Note_on_c, 0, 62, 124
1, 67067, Note_off_c, 0, 62, 124
1, 67364, Note_on_c, 0, 62, 113
1, 67562, Note_off_c, 0, 62, 113
1, 67562, Note_on_c, 0, 58, 109
1, 67725, Note_off_c, 0, 58, 109
1, 67950, Note_on_c, 0, 62, 117
1, 68471, Note_off_c, 0, 62, 117
1, 68471, Note_on_c, 0, 58, 94
1, 68766, Note_off_c, 0, 58, 94
1, 68888, Note_on_c, 0, 62, 122
1, 69047, Note_off_c, 0, 62, 122
1, 69262, Note_on_c, 0, 71, 114
1, 69408, Note_off_c, 0, 71, 114
1, 69460, Note_on_c, 0, 73, 114
1, 69650, Note_off_c, 0, 73, 114
1, 69670, Note_on_c, 0, 72, 111
1, 69877, Note_off_c, 0, 72, 111
1, 69926, Note_on_c, 0, 69, 117
1, 69989, Note_off_c, 0, 69, 117
1, 70036, Note_on_c, 0, 68, 110
1, 70259, Note_off_c, 0, 68, 110
1, 70318, Note_on_c, 0, 63, 118
1, 70482, Note_off_c, 0, 63, 118
1, 70482, Note_on_c, 0, 62, 115
1, 70911, Note_off_c, 0, 62, 115
1, 71170, Note_on_c, 0, 68, 116
1, 71381, Note_off_c, 0, 68, 116
1, 71381, Note_on_c, 0, 67, 115
1, 71556, Note_off_c, 0, 67, 115
1, 71599, Note_on_c, 0, 62, 118
1, 71811, Note_off_c, 0, 62, 118
1, 71811, Note_on_c, 0, 61, 113
1, 72036, Note_off_c, 0, 61, 113
1, 72036, Note_on_c, 0, 63, 110
1, 72237, Note_off_c, 0, 63, 110
1, 72255, Note_on_c, 0, 60, 98
1, 72675, Note_off_c, 0, 60, 98
1, 72847, Note_on_c, 0, 58, 100
1, 73309, Note_off_c, 0, 58, 100
1, 74909, Note_on_c, 0, 56, 104
1, 76375, Note_on_c, 0, 55, 106
1, 76375, Note_off_c, 0, 56, 104
1, 76535, Note_off_c, 0, 55, 106
1, 76535, Note_on_c, 0, 52, 105
1, 76674, Note_off_c, 0, 52, 105
1, 76674, Note_on_c, 0, 51, 111
1, 76817, Note_off_c, 0, 51, 111
1, 76817, Note_on_c, 0, 49, 121
1, 76981, Note_off_c, 0, 49, 121
1, 76981, Note_on_c, 0, 51, 121
1, 77061, Note_on_c, 0, 52, 117
1, 77061, Note_off_c, 0, 51, 121
1, 77230, Note_off_c, 0, 52, 117
1, 77238, Note_on_c, 0, 55, 111
1, 77377, Note_off_c, 0, 55, 111
1, 77398, Note_on_c, 0, 56, 113
1, 77541, Note_off_c, 0, 56, 113
1, 77574, Note_on_c, 0, 59, 116
1, 77645, Note_off_c, 0, 59, 116
1, 77645, Note_on_c, 0, 61, 121
1, 77767, Note_on_c, 0, 63, 119
1, 77767, Note_off_c, 0, 61, 121
1, 77885, Note_off_c, 0, 63, 119
1, 77885, Note_on_c, 0, 67, 112
1, 77956, Note_off_c, 0, 67, 112
1, 77956, Note_on_c, 0, 68, 110
1, 78061, Note_off_c, 0, 68, 110
1, 78061, Note_on_c, 0, 71, 111
1, 78158, Note_off_c, 0, 71, 111
1, 78183, Note_on_c, 0, 73, 111
1, 78275, Note_off_c, 0, 73, 111
1, 78291, Note_on_c, 0, 75, 118
1, 78358, Note_off_c, 0, 75, 118
1, 78358, Note_on_c, 0, 76, 117
1, 78442, Note_on_c, 0, 73, 105
1, 78442, Note_off_c, 0, 76, 117
1, 78539, Note_off_c, 0, 73, 105
1, 78539, Note_on_c, 0, 71, 112
1, 78624, Note_off_c, 0, 71, 112
1, 78643, Note_on_c, 0, 70, 108
1, 78741, Note_off_c, 0, 70, 108
1, 78747, Note_on_c, 0, 68, 113
1, 78827, Note_off_c, 0, 68, 113
1, 78834, Note_on_c, 0, 67, 113
1, 78918, Note_off_c, 0, 67, 113
1, 78918, Note_on_c, 0, 63, 122
1, 78989, Note_on_c, 0, 64, 122
1, 78989, Note_off_c, 0, 63, 122
1, 79159, Note_off_c, 0, 64, 122
1, 79170, Note_on_c, 0, 58, 107
1, 79258, Note_off_c, 0, 58, 107
1, 79275, Note_on_c, 0, 59, 114
1, 79375, Note_off_c, 0, 59, 114
1, 79393, Note_on_c, 0, 56, 119
1, 79536, Note_off_c, 0, 56, 119
1, 79536, Note_on_c, 0, 55, 104
1, 79730, Note_off_c, 0, 55, 104
1, 81614, Note_on_c, 0, 71, 116
1, 81706, Note_off_c, 0, 71, 116
1, 81706, Note_on_c, 0, 70, 116
1, 81892, Note_off_c, 0, 70, 116
1, 81904, Note_on_c, 0, 69, 119
1, 82060, Note_off_c, 0, 69, 119
1, 82060, Note_on_c, 0, 68, 117
1, 82225, Note_off_c, 0, 68, 117
1, 82241, Note_on_c, 0, 66, 112
1, 82408, Note_off_c, 0, 66, 112
1, 82409, Note_on_c, 0, 65, 120
1, 82578, Note_off_c, 0, 65, 120
1, 82578, Note_on_c, 0, 64, 122
1, 82709, Note_off_c, 0, 64, 122
1, 82709, Note_on_c, 0, 63, 121
1, 82848, Note_off_c, 0, 63, 121
1, 82848, Note_on_c, 0, 62, 120
1, 82964, Note_off_c, 0, 62, 120
1, 82991, Note_on_c, 0, 61, 116
1, 83168, Note_off_c, 0, 61, 116
1, 83168, Note_on_c, 0, 64, 120
1, 83282, Note_off_c, 0, 64, 120
1, 83307, Note_on_c, 0, 66, 114
1, 83433, Note_off_c, 0, 66, 114
1, 83437, Note_on_c, 0, 61, 117
1, 83576, Note_off_c, 0, 61, 117
1, 83576, Note_on_c, 0, 58, 110
1, 83719, Note_off_c, 0, 58, 110
1, 83719, Note_on_c, 0, 54, 93
1, 83866, Note_off_c, 0, 54, 93
1, 83878, Note_on_c, 0, 64, 124
1, 84003, Note_off_c, 0, 64, 124
1, 84050, Note_on_c, 0, 54, 105
1, 84214, Note_off_c, 0, 54, 105
1, 84214, Note_on_c, 0, 57, 110
1, 84357, Note_off_c, 0, 57, 110
1, 84357, Note_on_c, 0, 61, 120
1, 84488, Note_off_c, 0, 61, 120
1, 84500, Note_on_c, 0, 58, 110
1, 84643, Note_off_c, 0, 58, 110
1, 84647, Note_on_c, 0, 57, 111
1, 84751, Note_off_c, 0, 57, 111
1, 84769, Note_on_c, 0, 56, 108
1, 84906, Note_off_c, 0, 56, 108
1, 84929, Note_on_c, 0, 58, 103
1, 85072, Note_off_c, 0, 58, 103
1, 85072, Note_on_c, 0, 59, 114
1, 85203, Note_off_c, 0, 59, 114
1, 85203, Note_on_c, 0, 61, 119
1, 85328, Note_off_c, 0, 61, 119
1, 85333, Note_on_c, 0, 63, 116
1, 85451, Note_off_c, 0, 63, 116
1, 85451, Note_on_c, 0, 65, 116
1, 85518, Note_off_c, 0, 65, 116
1, 85564, Note_on_c, 0, 68, 108
1, 85732, Note_off_c, 0, 68, 108
1, 85765, Note_on_c, 0, 70, 109
1, 85861, Note_off_c, 0, 70, 109
1, 85882, Note_on_c, 0, 71, 111
1, 85943, Note_off_c, 0, 71, 111
1, 85974, Note_on_c, 0, 73, 104
1, 86070, Note_off_c, 0, 73, 104
1, 86104, Note_on_c, 0, 75, 108
1, 86748, Note_off_c, 0, 75, 108
1, 87781, Note_on_c, 0, 72, 117
1, 87919, Note_off_c, 0, 72, 117
1, 87953, Note_on_c, 0, 70, 114
1, 88154, Note_off_c, 0, 70, 114
1, 88168, Note_on_c, 0, 68, 111
1, 88396, Note_off_c, 0, 68, 111
1, 88425, Note_on_c, 0, 70, 114
1, 88639, Note_off_c, 0, 70, 114
1, 88682, Note_on_c, 0, 71, 120
1, 88745, Note_off_c, 0, 71, 120
1, 88745, Note_on_c, 0, 72, 116
1, 89036, Note_off_c, 0, 72, 116
1, 89065, Note_on_c, 0, 65, 112
1, 89289, Note_off_c, 0, 65, 112
1, 89318, Note_on_c, 0, 72, 117
1, 89427, Note_off_c, 0, 72, 117
1, 89431, Note_on_c, 0, 70, 107
1, 90209, Note_off_c, 0, 70, 107
1, 90237, Note_on_c, 0, 67, 110
1, 90381, Note_off_c, 0, 67, 110
1, 90409, Note_on_c, 0, 63, 116
1, 90576, Note_off_c, 0, 63, 116
1, 90611, Note_on_c, 0, 60, 96
1, 90792, Note_off_c, 0, 60, 96
1, 90792, Note_on_c, 0, 67, 111
1, 91182, Note_off_c, 0, 67, 111
1, 91214, Note_on_c, 0, 66, 107
1, 91457, Note_off_c, 0, 66, 107
1, 91481, Note_on_c, 0, 65, 115
1, 91678, Note_off_c, 0, 65, 115
1, 91849, Note_on_c, 0, 63, 109
1, 92009, Note_off_c, 0, 63, 109
1, 92042, Note_on_c, 0, 58, 103
1, 92265, Note_off_c, 0, 58, 103
1, 92265, Note_on_c, 0, 53, 108
1, 92446, Note_off_c, 0, 53, 108
1, 92446, Note_on_c, 0, 64, 122
1, 92594, Note_off_c, 0, 64, 122
1, 92678, Note_on_c, 0, 62, 114
1, 92876, Note_off_c, 0, 62, 114
1, 92876, Note_on_c, 0, 60, 101
1, 93251, Note_off_c, 0, 60, 101
1, 97168, Note_on_c, 0, 75, 123
1, 97312, Note_off_c, 0, 75, 123
1, 97379, Note_on_c, 0, 76, 127
1, 97543, Note_off_c, 0, 76, 127
1, 97593, Note_on_c, 0, 77, 120
1, 97784, Note_off_c, 0, 77, 120
1, 97784, Note_on_c, 0, 78, 119
1, 97849, Note_off_c, 0, 78, 119
1, 97865, Note_on_c, 0, 77, 121
1, 98020, Note_off_c, 0, 77, 121
1, 98020, Note_on_c, 0, 76, 123
1, 98260, Note_off_c, 0, 76, 123
1, 98260, Note_on_c, 0, 75, 115
1, 98466, Note_off_c, 0, 75, 115
1, 98466, Note_on_c, 0, 74, 118
1, 99025, Note_off_c, 0, 74, 118
1, 99052, Note_on_c, 0, 73, 114
1, 99254, Note_off_c, 0, 73, 114
1, 99254, Note_on_c, 0, 72, 114
1, 99432, Note_off_c, 0, 72, 114
1, 99456, Note_on_c, 0, 71, 113
1, 99625, Note_off_c, 0, 71, 113
1, 99625, Note_on_c, 0, 70, 114
1, 99810, Note_off_c, 0, 70, 114
1, 99827, Note_on_c, 0, 69, 112
1, 100023, Note_off_c, 0, 69, 112
1, 100063, Note_on_c, 0, 68, 115
1, 100210, Note_off_c, 0, 68, 115
1, 100260, Note_on_c, 0, 66, 112
1, 100453, Note_off_c, 0, 66, 112
1, 100479, Note_on_c, 0, 65, 111
1, 100707, Note_off_c, 0, 65, 111
1, 100732, Note_on_c, 0, 62, 113
1, 100888, Note_off_c, 0, 62, 113
1, 100888, Note_on_c, 0, 58, 103
1, 101125, Note_off_c, 0, 58, 103
1, 101128, Note_on_c, 0, 56, 105
1, 101284, Note_off_c, 0, 56, 105
1, 101284, Note_on_c, 0, 62, 112
1, 101515, Note_off_c, 0, 62, 112
1, 101646, Note_on_c, 0, 60, 109
1, 101894, Note_off_c, 0, 60, 109
1, 101916, Note_on_c, 0, 56, 98
1, 102063, Note_off_c, 0, 56, 98
1, 102063, Note_on_c, 0, 60, 109
1, 102278, Note_off_c, 0, 60, 109
1, 102286, Note_on_c, 0, 62, 117
1, 102426, Note_off_c, 0, 62, 117
1, 102678, Note_on_c, 0, 62, 116
1, 102844, Note_off_c, 0, 62, 116
1, 102867, Note_on_c, 0, 66, 113
1, 103075, Note_off_c, 0, 66, 113
1, 103107, Note_on_c, 0, 62, 104
1, 103288, Note_off_c, 0, 62, 104
1, 103288, Note_on_c, 0, 68, 115
1, 103476, Note_off_c, 0, 68, 115
1, 103503, Note_on_c, 0, 66, 112
1, 103714, Note_off_c, 0, 66, 112
1, 103714, Note_on_c, 0, 62, 114
1, 103946, Note_off_c, 0, 62, 114
1, 103954, Note_on_c, 0, 58, 101
1, 104144, Note_off_c, 0, 58, 101
1, 104144, Note_on_c, 0, 64, 116
1, 104357, Note_off_c, 0, 64, 116
1, 104358, Note_on_c, 0, 66, 109
1, 104539, Note_off_c, 0, 66, 109
1, 104539, Note_on_c, 0, 67, 112
1, 104756, Note_off_c, 0, 67, 112
1, 104766, Note_on_c, 0, 70, 114
1, 104927, Note_off_c, 0, 70, 114
1, 104976, Note_on_c, 0, 71, 101
1, 105119, Note_off_c, 0, 71, 101
1, 105165, Note_on_c, 0, 73, 112
1, 105372, Note_off_c, 0, 73, 112
1, 105375, Note_on_c, 0, 75, 115
1, 105582, Note_off_c, 0, 75, 115
1, 105582, Note_on_c, 0, 76, 119
1, 105844, Note_off_c, 0, 76, 119
1, 105844, Note_on_c, 0, 77, 118
1, 106076, Note_off_c, 0, 77, 118
1, 106076, Note_on_c, 0, 76, 119
1, 106253, Note_off_c, 0, 76, 119
1, 106253, Note_on_c, 0, 72, 113
1, 106480, Note_off_c, 0, 72, 113
1, 106502, Note_on_c, 0, 71, 109
1, 106691, Note_off_c, 0, 71, 109
1, 106691, Note_on_c, 0, 70, 113
1, 106921, Note_off_c, 0, 70, 113
1, 106935, Note_on_c, 0, 66, 113
1, 107104, Note_off_c, 0, 66, 113
1, 107104, Note_on_c, 0, 64, 121
1, 107283, Note_off_c, 0, 64, 121
1, 107302, Note_on_c, 0, 60, 95
1, 107517, Note_off_c, 0, 60, 95
1, 107533, Note_on_c, 0, 67, 113
1, 107753, Note_off_c, 0, 67, 113
1, 107760, Note_on_c, 0, 64, 102
1, 107950, Note_off_c, 0, 64, 102
1, 107950, Note_on_c, 0, 70, 105
1, 108579, Note_off_c, 0, 70, 105
1, 108579, Note_on_c, 0, 69, 115
1, 108770, Note_off_c, 0, 69, 115
1, 108786, Note_on_c, 0, 68, 112
1, 109009, Note_off_c, 0, 68, 112
1, 109009, Note_on_c, 0, 65, 112
1, 109209, Note_off_c, 0, 65, 112
1, 109215, Note_on_c, 0, 63, 113
1, 109443, Note_off_c, 0, 63, 113
1, 109446, Note_on_c, 0, 60, 100
1, 109631, Note_off_c, 0, 60, 100
1, 109631, Note_on_c, 0, 67, 120
1, 109802, Note_off_c, 0, 67, 120
1, 109816, Note_on_c, 0, 64, 101
1, 110018, Note_off_c, 0, 64, 101
1, 110035, Note_on_c, 0, 65, 112
1, 110263, Note_off_c, 0, 65, 112
1, 110263, Note_on_c, 0, 64, 111
1, 110567, Note_off_c, 0, 64, 111
1, 110779, Note_on_c, 0, 66, 109
1, 110955, Note_off_c, 0, 66, 109
1, 110955, Note_on_c, 0, 67, 113
1, 111149, Note_off_c, 0, 67, 113
1, 111169, Note_on_c, 0, 65, 113
1, 111329, Note_off_c, 0, 65, 113
1, 111329, Note_on_c, 0, 62, 113
1, 111540, Note_off_c, 0, 62, 113
1, 111540, Note_on_c, 0, 58, 99
1, 111738, Note_on_c, 0, 67, 106
1, 111738, Note_off_c, 0, 58, 99
1, 112099, Note_off_c, 0, 67, 106
1, 112654, Note_on_c, 0, 60, 108
1, 112848, Note_on_c, 0, 62, 115
1, 112848, Note_off_c, 0, 60, 108
1, 113012, Note_off_c, 0, 62, 115
1, 113012, Note_on_c, 0, 63, 117
1, 113208, Note_off_c, 0, 63, 117
1, 113244, Note_on_c, 0, 60, 101
1, 113450, Note_off_c, 0, 60, 101
1, 113477, Note_on_c, 0, 64, 87
1, 113834, Note_off_c, 0, 64, 87
1, 114146, Note_on_c, 0, 64, 116
1, 114331, Note_off_c, 0, 64, 116
1, 114331, Note_on_c, 0, 60, 113
1, 114501, Note_off_c, 0, 60, 113
1, 114524, Note_on_c, 0, 63, 117
1, 114714, Note_off_c, 0, 63, 117
1, 114714, Note_on_c, 0, 61, 118
1, 114909, Note_off_c, 0, 61, 118
1, 114933, Note_on_c, 0, 56, 100
1, 115148, Note_off_c, 0, 56, 100
1, 115148, Note_on_c, 0, 58, 110
1, 115342, Note_on_c, 0, 61, 113
1, 115342, Note_off_c, 0, 58, 110
1, 115519, Note_off_c, 0, 61, 113
1, 115519, Note_on_c, 0, 60, 108
1, 115706, Note_off_c, 0, 60, 108
1, 115733, Note_on_c, 0, 58, 104
1, 115947, Note_off_c, 0, 58, 104
1, 115947, Note_on_c, 0, 53, 103
1, 116170, Note_on_c, 0, 58, 101
1, 116170, Note_off_c, 0, 53, 103
1, 116377, Note_off_c, 0, 58, 101
1, 116452, Note_on_c, 0, 53, 103
1, 116616, Note_off_c, 0, 53, 103
1, 116616, Note_on_c, 0, 54, 109
1, 116785, Note_off_c, 0, 54, 109
1, 116785, Note_on_c, 0, 58, 101
1, 116973, Note_off_c, 0, 58, 101
1, 117003, Note_on_c, 0, 60, 105
1, 117238, Note_off_c, 0, 60, 105
1, 117238, Note_on_c, 0, 65, 110
1, 117440, Note_off_c, 0, 65, 110
1, 117440, Note_on_c, 0, 66, 108
1, 117638, Note_off_c, 0, 66, 108
1, 117638, Note_on_c, 0, 70, 112
1, 117785, Note_off_c, 0, 70, 112
1, 117849, Note_on_c, 0, 72, 105
1, 118022, Note_off_c, 0, 72, 105
1, 118034, Note_on_c, 0, 77, 116
1, 118490, Note_off_c, 0, 77, 116
1, 118490, Note_on_c, 0, 75, 110
1, 118783, Note_off_c, 0, 75, 110
1, 118869, Note_on_c, 0, 72, 101
1, 119306, Note_off_c, 0, 72, 101
1, 119330, Note_on_c, 0, 70, 98
1, 119748, Note_off_c, 0, 70, 98
1, 119748, Note_on_c, 0, 68, 96
1, 120170, Note_off_c, 0, 68, 96
1, 120170, Note_on_c, 0, 66, 95
1, 120617, Note_off_c, 0, 66, 95
1, 120617, Note_on_c, 0, 65, 102
1, 120999, Note_off_c, 0, 65, 102
1, 120999, Note_on_c, 0, 63, 107
1, 121406, Note_off_c, 0, 63, 107
1, 121408, Note_on_c, 0, 60, 94
1, 121851, Note_off_c, 0, 60, 94
1, 121851, Note_on_c, 0, 58, 95
1, 122336, Note_off_c, 0, 58, 95
1, 123777, Note_on_c, 0, 75, 119
1, 123853, Note_off_c, 0, 75, 119
1, 123869, Note_on_c, 0, 73, 107
1, 123940, Note_off_c, 0, 73, 107
1, 123944, Note_on_c, 0, 72, 111
1, 124015, Note_off_c, 0, 72, 111
1, 124023, Note_on_c, 0, 71, 113
1, 124187, Note_on_c, 0, 69, 113
1, 124187, Note_off_c, 0, 71, 113
1, 124406, Note_off_c, 0, 69, 113
1, 124406, Note_on_c, 0, 68, 113
1, 124629, Note_off_c, 0, 68, 113
1, 124629, Note_on_c, 0, 66, 109
1, 124785, Note_on_c, 0, 65, 114
1, 124785, Note_off_c, 0, 66, 109
1, 125017, Note_off_c, 0, 65, 114
1, 125122, Note_on_c, 0, 62, 110
1, 125206, Note_off_c, 0, 62, 110
1, 125209, Note_on_c, 0, 68, 113
1, 125375, Note_off_c, 0, 68, 113
1, 125432, Note_on_c, 0, 64, 113
1, 125622, Note_on_c, 0, 60, 103
1, 125622, Note_off_c, 0, 64, 113
1, 125799, Note_off_c, 0, 60, 103
1, 125799, Note_on_c, 0, 56, 89
1, 126044, Note_off_c, 0, 56, 89
1, 126077, Note_on_c, 0, 63, 114
1, 126289, Note_off_c, 0, 63, 114
1, 126305, Note_on_c, 0, 61, 112
1, 126512, Note_off_c, 0, 61, 112
1, 126520, Note_on_c, 0, 58, 103
1, 126576, Note_off_c, 0, 58, 103
1, 126603, Note_on_c, 0, 59, 95
1, 127001, Note_off_c, 0, 59, 95
1, 128149, Note_on_c, 0, 58, 98
1, 129370, Note_off_c, 0, 58, 98
1, 129370, Note_on_c, 0, 56, 109
1, 129553, Note_off_c, 0, 56, 109
1, 129559, Note_on_c, 0, 55, 103
1, 129760, Note_off_c, 0, 55, 103
1, 129773, Note_on_c, 0, 58, 108
1, 129973, Note_off_c, 0, 58, 108
1, 130004, Note_on_c, 0, 59, 104
1, 130135, Note_off_c, 0, 59, 104
1, 130135, Note_on_c, 0, 63, 109
1, 130316, Note_off_c, 0, 63, 109
1, 130324, Note_on_c, 0, 67, 111
1, 130546, Note_off_c, 0, 67, 111
1, 130551, Note_on_c, 0, 71, 110
1, 130728, Note_off_c, 0, 71, 110
1, 130736, Note_on_c, 0, 73, 111
1, 130959, Note_off_c, 0, 73, 111
1, 130959, Note_on_c, 0, 75, 118
1, 131079, Note_off_c, 0, 75, 118
1, 131132, Note_on_c, 0, 76, 121
1, 131330, Note_off_c, 0, 76, 121
1, 131351, Note_on_c, 0, 77, 113
1, 131549, Note_off_c, 0, 77, 113
1, 131549, Note_on_c, 0, 71, 110
1, 131721, Note_off_c, 0, 71, 110
1, 131751, Note_on_c, 0, 67, 111
1, 131960, Note_off_c, 0, 67, 111
1, 131970, Note_on_c, 0, 63, 109
1, 132160, Note_off_c, 0, 63, 109
1, 132184, Note_on_c, 0, 59, 107
1, 132465, Note_off_c, 0, 59, 107
1, 132466, Note_on_c, 0, 58, 97
1, 132622, Note_off_c, 0, 58, 97
1, 132622, Note_on_c, 0, 67, 115
1, 132771, Note_off_c, 0, 67, 115
1, 132778, Note_on_c, 0, 65, 114
1, 132968, Note_off_c, 0, 65, 114
1, 132968, Note_on_c, 0, 61, 118
1, 133166, Note_on_c, 0, 59, 106
1, 133166, Note_off_c, 0, 61, 118
1, 133394, Note_off_c, 0, 59, 106
1, 133466, Note_on_c, 0, 56, 92
1, 133597, Note_off_c, 0, 56, 92
1, 133597, Note_on_c, 0, 64, 116
1, 133888, Note_off_c, 0, 64, 116
1, 134001, Note_on_c, 0, 71, 110
1, 134212, Note_off_c, 0, 71, 110
1, 134212, Note_on_c, 0, 73, 106
1, 134427, Note_off_c, 0, 73, 106
1, 134427, Note_on_c, 0, 66, 109
1, 134634, Note_off_c, 0, 66, 109
1, 134676, Note_on_c, 0, 72, 114
1, 134874, Note_off_c, 0, 72, 114
1, 134874, Note_on_c, 0, 70, 110
1, 135091, Note_off_c, 0, 70, 110
1, 135135, Note_on_c, 0, 65, 113
1, 135337, Note_on_c, 0, 63, 113
1, 135337, Note_off_c, 0, 65, 113
1, 135548, Note_off_c, 0, 63, 113
1, 135548, Note_on_c, 0, 60, 99
1, 135717, Note_off_c, 0, 60, 99
1, 135717, Note_on_c, 0, 67, 112
1, 136129, Note_off_c, 0, 67, 112
1, 136147, Note_on_c, 0, 62, 113
1, 136524, Note_off_c, 0, 62, 113
1, 136780, Note_on_c, 0, 62, 99
1, 137401, Note_off_c, 0, 62, 99
1, 137401, Note_on_c, 0, 58, 101
1, 137515, Note_off_c, 0, 58, 101
1, 137515, Note_on_c, 0, 62, 109
1, 137656, Note_off_c, 0, 62, 109
1, 137764, Note_on_c, 0, 63, 114
1, 137945, Note_off_c, 0, 63, 114
1, 137995, Note_on_c, 0, 65, 112
1, 138180, Note_off_c, 0, 65, 112
1, 138205, Note_on_c, 0, 63, 112
1, 138376, Note_off_c, 0, 63, 112
1, 138449, Note_on_c, 0, 67, 106
1, 138720, Note_off_c, 0, 67, 106
1, 139285, Note_on_c, 0, 67, 111
1, 139448, Note_off_c, 0, 67, 111
1, 139478, Note_on_c, 0, 65, 108
1, 139658, Note_off_c, 0, 65, 108
1, 139668, Note_on_c, 0, 62, 116
1, 139839, Note_off_c, 0, 62, 116
1, 139853, Note_on_c, 0, 58, 107
1, 140077, Note_off_c, 0, 58, 107
1, 140081, Note_on_c, 0, 53, 113
1, 140195, Note_off_c, 0, 53, 113
1, 140224, Note_on_c, 0, 60, 100
1, 140479, Note_off_c, 0, 60, 100
1, 141905, Note_on_c, 0, 58, 94
1, 143464, Note_off_c, 0, 58, 94
1, 143645, Note_on_c, 0, 58, 105
1, 143957, Note_off_c, 0, 58, 105
1, 143957, Note_on_c, 0, 60, 102
1, 144218, Note_off_c, 0, 60, 102
1, 144362, Note_on_c, 0, 60, 109
1, 144509, Note_on_c, 0, 61, 116
1, 144509, Note_off_c, 0, 60, 109
1, 144644, Note_off_c, 0, 61, 116
1, 144644, Note_on_c, 0, 63, 113
1, 144824, Note_off_c, 0, 63, 113
1, 144888, Note_on_c, 0, 64, 115
1, 145102, Note_off_c, 0, 64, 115
1, 145102, Note_on_c, 0, 66, 105
1, 145306, Note_off_c, 0, 66, 105
1, 145306, Note_on_c, 0, 70, 111
1, 145534, Note_off_c, 0, 70, 111
1, 145534, Note_on_c, 0, 73, 111
1, 145745, Note_off_c, 0, 73, 111
1, 145745, Note_on_c, 0, 72, 110
1, 146192, Note_on_c, 0, 66, 106
1, 146192, Note_off_c, 0, 72, 110
1, 146421, Note_off_c, 0, 66, 106
1, 146428, Note_on_c, 0, 64, 115
1, 146639, Note_off_c, 0, 64, 115
1, 146854, Note_on_c, 0, 70, 113
1, 146997, Note_off_c, 0, 70, 113
1, 147013, Note_on_c, 0, 69, 115
1, 147173, Note_off_c, 0, 69, 115
1, 147261, Note_on_c, 0, 68, 109
1, 147451, Note_off_c, 0, 68, 109
1, 147451, Note_on_c, 0, 66, 104
1, 147636, Note_on_c, 0, 65, 111
1, 147636, Note_off_c, 0, 66, 104
1, 147826, Note_off_c, 0, 65, 111
1, 147826, Note_on_c, 0, 62, 113
1, 148031, Note_off_c, 0, 62, 113
1, 148040, Note_on_c, 0, 58, 103
1, 148280, Note_off_c, 0, 58, 103
1, 148280, Note_on_c, 0, 54, 105
1, 148457, Note_on_c, 0, 64, 107
1, 148457, Note_off_c, 0, 54, 105
1, 148663, Note_off_c, 0, 64, 107
1, 148823, Note_on_c, 0, 64, 119
1, 149004, Note_off_c, 0, 64, 119
1, 149004, Note_on_c, 0, 63, 112
1, 149229, Note_off_c, 0, 63, 112
1, 149245, Note_on_c, 0, 63, 115
1, 149413, Note_off_c, 0, 63, 115
1, 149443, Note_on_c, 0, 62, 108
1, 149677, Note_off_c, 0, 62, 108
1, 149897, Note_on_c, 0, 62, 96
1, 150079, Note_off_c, 0, 62, 96
1, 150140, Note_on_c, 0, 62, 111
1, 150332, Note_off_c, 0, 62, 111
1, 150332, Note_on_c, 0, 59, 104
1, 150504, Note_off_c, 0, 59, 104
1, 150538, Note_on_c, 0, 54, 104
1, 150677, Note_on_c, 0, 56, 104
1, 150677, Note_off_c, 0, 54, 104
1, 150865, Note_off_c, 0, 56, 104
1, 150891, Note_on_c, 0, 58, 106
1, 151076, Note_off_c, 0, 58, 106
1, 151101, Note_on_c, 0, 59, 98
1, 151291, Note_off_c, 0, 59, 98
1, 151291, Note_on_c, 0, 64, 115
1, 151496, Note_off_c, 0, 64, 115
1, 151514, Note_on_c, 0, 68, 106
1, 151734, Note_off_c, 0, 68, 106
1, 151778, Note_on_c, 0, 64, 96
1, 151936, Note_off_c, 0, 64, 96
1, 151936, Note_on_c, 0, 72, 108
1, 152133, Note_off_c, 0, 72, 108
1, 152176, Note_on_c, 0, 73, 99
1, 152361, Note_on_c, 0, 68, 104
1, 152361, Note_off_c, 0, 73, 99
1, 152538, Note_off_c, 0, 68, 104
1, 152550, Note_on_c, 0, 64, 111
1, 152761, Note_off_c, 0, 64, 111
1, 152817, Note_on_c, 0, 66, 96
1, 153113, Note_off_c, 0, 66, 96
1, 154074, Note_on_c, 0, 60, 101
1, 154183, Note_off_c, 0, 60, 101
1, 154183, Note_on_c, 0, 61, 110
1, 154322, Note_off_c, 0, 61, 110
1, 154355, Note_on_c, 0, 63, 114
1, 154542, Note_off_c, 0, 63, 114
1, 154544, Note_on_c, 0, 64, 114
1, 154754, Note_off_c, 0, 64, 114
1, 154758, Note_on_c, 0, 65, 110
1, 154982, Note_off_c, 0, 65, 110
1, 154989, Note_on_c, 0, 70, 109
1, 155191, Note_off_c, 0, 70, 109
1, 155216, Note_on_c, 0, 73, 102
1, 155410, Note_off_c, 0, 73, 102
1, 155410, Note_on_c, 0, 75, 110
1, 155591, Note_off_c, 0, 75, 110
1, 155591, Note_on_c, 0, 72, 104
1, 155781, Note_off_c, 0, 72, 104
1, 155846, Note_on_c, 0, 76, 114
1, 156021, Note_on_c, 0, 73, 104
1, 156021, Note_off_c, 0, 76, 114
1, 156217, Note_off_c, 0, 73, 104
1, 156252, Note_on_c, 0, 75, 108
1, 156404, Note_off_c, 0, 75, 108
1, 156404, Note_on_c, 0, 72, 105
1, 156618, Note_off_c, 0, 72, 105
1, 156867, Note_on_c, 0, 74, 109
1, 157154, Note_off_c, 0, 74, 109
1, 157154, Note_on_c, 0, 73, 102
1, 157276, Note_off_c, 0, 73, 102
1, 157292, Note_on_c, 0, 75, 108
1, 157462, Note_off_c, 0, 75, 108
1, 157526, Note_on_c, 0, 72, 104
1, 157679, Note_on_c, 0, 73, 101
1, 157679, Note_off_c, 0, 72, 104
1, 158084, Note_off_c, 0, 73, 101
1, 158129, Note_on_c, 0, 71, 100
1, 158332, Note_off_c, 0, 71, 100
1, 158332, Note_on_c, 0, 72, 103
1, 158509, Note_on_c, 0, 75, 105
1, 158509, Note_off_c, 0, 72, 103
1, 158711, Note_off_c, 0, 75, 105
1, 158711, Note_on_c, 0, 70, 101
1, 158906, Note_off_c, 0, 70, 101
1, 158912, Note_on_c, 0, 69, 106
1, 159129, Note_off_c, 0, 69, 106
1, 159155, Note_on_c, 0, 70, 100
1, 159385, Note_off_c, 0, 70, 100
1, 159385, Note_on_c, 0, 71, 97
1, 159586, Note_off_c, 0, 71, 97
1, 159586, Note_on_c, 0, 68, 101
1, 159793, Note_off_c, 0, 68, 101
1, 159793, Note_on_c, 0, 63, 106
1, 159993, Note_off_c, 0, 63, 106
1, 159999, Note_on_c, 0, 60, 98
1, 160104, Note_off_c, 0, 60, 98
1, 160222, Note_on_c, 0, 68, 100
1, 160348, Note_off_c, 0, 68, 100
1, 160415, Note_on_c, 0, 67, 95
1, 160583, Note_off_c, 0, 67, 95
1, 160621, Note_on_c, 0, 63, 108
1, 160757, Note_off_c, 0, 63, 108
1, 160814, Note_on_c, 0, 60, 85
1, 161074, Note_off_c, 0, 60, 85
1, 161122, Note_on_c, 0, 67, 95
1, 161308, Note_off_c, 0, 67, 95
1, 161358, Note_on_c, 0, 65, 85
1, 161581, Note_off_c, 0, 65, 85
1, 161598, Note_on_c, 0, 60, 93
1, 161805, Note_on_c, 0, 58, 93
1, 161805, Note_off_c, 0, 60, 93
1, 162085, Note_off_c, 0, 58, 93
1, 162100, Note_on_c, 0, 56, 100
1, 162314, Note_off_c, 0, 56, 100
1, 162314, Note_on_c, 0, 58, 97
1, 162698, Note_off_c, 0, 58, 97
1, 162698, End_track
0, 0, End_of_file
