0, 0, Header, 1, 1, 192
1, 0, Start_track
1, 0, Title_t, "Melody"
1, 0, Tempo, 359281
1, 0, Time_signature, 4, 2, 24, 8
1, 5308, Note_on_c, 0, 68, 117
1, 5397, Note_off_c, 0, 68, 117
1, 5688, Note_on_c, 0, 63, 119
1, 5790, Note_off_c, 0, 63, 119
1, 5803, Note_on_c, 0, 62, 118
1, 5871, Note_off_c, 0, 62, 118
1, 5896, Note_on_c, 0, 61, 121
1, 6040, Note_off_c, 0, 61, 121
1, 6065, Note_on_c, 0, 68, 118
1, 6434, Note_off_c, 0, 68, 118
1, 6449, Note_on_c, 0, 63, 122
1, 6560, Note_off_c, 0, 63, 122
1, 6573, Note_on_c, 0, 61, 121
1, 6643, Note_off_c, 0, 61, 121
1, 6659, Note_on_c, 0, 60, 116
1, 6822, Note_off_c, 0, 60, 116
1, 6836, Note_on_c, 0, 68, 116
1, 7165, Note_off_c, 0, 68, 116
1, 7210, Note_on_c, 0, 63, 120
1, 7327, Note_off_c, 0, 63, 120
1, 7333, Note_on_c, 0, 61, 120
1, 7404, Note_off_c, 0, 61, 120
1, 7419, Note_on_c, 0, 60, 114
1, 7563, Note_off_c, 0, 60, 114
1, 7605, Note_on_c, 0, 68, 119
1, 7777, Note_off_c, 0, 68, 119
1, 7801, Note_on_c, 0, 68, 120
1, 7955, Note_off_c, 0, 68, 120
1, 7970, Note_on_c, 0, 63, 124
1, 8076, Note_off_c, 0, 63, 124
1, 8102, Note_on_c, 0, 61, 120
1, 8162, Note_off_c, 0, 61, 120
1, 8184, Note_on_c, 0, 60, 113
1, 8361, Note_off_c, 0, 60, 113
1, 8367, Note_on_c, 0, 67, 114
1, 8546, Note_off_c, 0, 67, 114
1, 8559, Note_on_c, 0, 67, 116
1, 8760, Note_off_c, 0, 67, 116
1, 8770, Note_on_c, 0, 66, 118
1, 8863, Note_off_c, 0, 66, 118
1, 8873, Note_on_c, 0, 62, 115
1, 8949, Note_off_c, 0, 62, 115
1, 8959, Note_on_c, 0, 59, 114
1, 9052, Note_off_c, 0, 59, 114
1, 9522, Note_on_c, 0, 70, 120
1, 9707, Note_off_c, 0, 70, 120
1, 9715, Note_on_c, 0, 70, 117
1, 9813, Note_off_c, 0, 70, 117
1, 9820, Note_on_c, 0, 67, 120
1, 9896, Note_off_c, 0, 67, 120
1, 9914, Note_on_c, 0, 65, 111
1, 10018, Note_off_c, 0, 65, 111
1, 10027, Note_on_c, 0, 63, 121
1, 10101, Note_off_c, 0, 63, 121
1, 10108, Note_on_c, 0, 61, 119
1, 10238, Note_off_c, 0, 61, 119
1, 10249, Note_on_c, 0, 63, 103
1, 10282, Note_off_c, 0, 63, 103
1, 10294, Note_on_c, 0, 68, 120
1, 10393, Note_off_c, 0, 68, 120
1, 10408, Note_on_c, 0, 68, 119
1, 10479, Note_off_c, 0, 68, 119
1, 10496, Note_on_c, 0, 68, 116
1, 10581, Note_off_c, 0, 68, 116
1, 10590, Note_on_c, 0, 64, 118
1, 10682, Note_off_c, 0, 64, 118
1, 10690, Note_on_c, 0, 62, 110
1, 10800, Note_off_c, 0, 62, 110
1, 10817, Note_on_c, 0, 60, 112
1, 11029, Note_off_c, 0, 60, 112
1, 11061, Note_on_c, 0, 68, 117
1, 11221, Note_off_c, 0, 68, 117
1, 11234, Note_on_c, 0, 68, 116
1, 11350, Note_off_c, 0, 68, 116
1, 11357, Note_on_c, 0, 66, 120
1, 11451, Note_off_c, 0, 66, 120
1, 11461, Note_on_c, 0, 65, 114
1, 11539, Note_off_c, 0, 65, 114
1, 11547, Note_on_c, 0, 63, 118
1, 11625, Note_off_c, 0, 63, 118
1, 11641, Note_on_c, 0, 65, 108
1, 11740, Note_off_c, 0, 65, 108
1, 11750, Note_on_c, 0, 68, 117
1, 11833, Note_off_c, 0, 68, 117
1, 11858, Note_on_c, 0, 66, 114
1, 11945, Note_off_c, 0, 66, 114
1, 12024, Note_on_c, 0, 66, 116
1, 12130, Note_off_c, 0, 66, 116
1, 12144, Note_on_c, 0, 68, 114
1, 12242, Note_off_c, 0, 68, 114
1, 12265, Note_on_c, 0, 65, 114
1, 12338, Note_off_c, 0, 65, 114
1, 12412, Note_on_c, 0, 65, 109
1, 12511, Note_off_c, 0, 65, 109
1, 12525, Note_on_c, 0, 68, 114
1, 12617, Note_off_c, 0, 68, 114
1, 12628, Note_on_c, 0, 64, 119
1, 12704, Note_off_c, 0, 64, 119
1, 12789, Note_on_c, 0, 64, 113
1, 12885, Note_off_c, 0, 64, 113
1, 12899, Note_on_c, 0, 68, 114
1, 12992, Note_off_c, 0, 68, 114
1, 12999, Note_on_c, 0, 63, 109
1, 13247, Note_off_c, 0, 63, 109
1, 13666, Note_on_c, 0, 70, 119
1, 13938, Note_off_c, 0, 70, 119
1, 13965, Note_on_c, 0, 75, 124
1, 14062, Note_off_c, 0, 75, 124
1, 14077, Note_on_c, 0, 76, 126
1, 14158, Note_off_c, 0, 76, 126
1, 14177, Note_on_c, 0, 75, 118
1, 14264, Note_off_c, 0, 75, 118
1, 14283, Note_on_c, 0, 70, 115
1, 14361, Note_off_c, 0, 70, 115
1, 14381, Note_on_c, 0, 75, 120
1, 14456, Note_off_c, 0, 75, 120
1, 14467, Note_on_c, 0, 76, 125
1, 14553, Note_off_c, 0, 76, 125
1, 14567, Note_on_c, 0, 77, 121
1, 14639, Note_off_c, 0, 77, 121
1, 14659, Note_on_c, 0, 77, 123
1, 14678, Note_off_c, 0, 77, 123
1, 14682, Note_on_c, 0, 75, 119
1, 14745, Note_off_c, 0, 75, 119
1, 14757, Note_on_c, 0, 72, 124
1, 14841, Note_off_c, 0, 72, 124
1, 14854, Note_on_c, 0, 69, 110
1, 14934, Note_off_c, 0, 69, 110
1, 14964, Note_on_c, 0, 74, 119
1, 15027, Note_off_c, 0, 74, 119
1, 15109, Note_on_c, 0, 74, 123
1, 15252, Note_off_c, 0, 74, 123
1, 15334, Note_on_c, 0, 71, 113
1, 15429, Note_off_c, 0, 71, 113
1, 15437, Note_on_c, 0, 70, 113
1, 15511, Note_off_c, 0, 70, 113
1, 15803, Note_on_c, 0, 69, 113
1, 15883, Note_off_c, 0, 69, 113
1, 15896, Note_on_c, 0, 70, 119
1, 15978, Note_off_c, 0, 70, 119
1, 15994, Note_on_c, 0, 67, 118
1, 16069, Note_off_c, 0, 67, 118
1, 16255, Note_on_c, 0, 68, 120
1, 16368, Note_off_c, 0, 68, 120
1, 16553, Note_on_c, 0, 64, 121
1, 16646, Note_off_c, 0, 64, 121
1, 17027, Note_on_c, 0, 70, 120
1, 17243, Note_off_c, 0, 70, 120
1, 17249, Note_on_c, 0, 66, 120
1, 17310, Note_off_c, 0, 66, 120
1, 17315, Note_on_c, 0, 62, 120
1, 17347, Note_off_c, 0, 62, 120
1, 17354, Note_on_c, 0, 60, 112
1, 17384, Note_off_c, 0, 60, 112
1, 17401, Note_on_c, 0, 58, 114
1, 17616, Note_off_c, 0, 58, 114
1, 17633, Note_on_c, 0, 59, 107
1, 17965, Note_off_c, 0, 59, 107
1, 17982, Note_on_c, 0, 62, 116
1, 18082, Note_off_c, 0, 62, 116
1, 18398, Note_on_c, 0, 65, 119
1, 18511, Note_off_c, 0, 65, 119
1, 18521, Note_on_c, 0, 71, 118
1, 18593, Note_off_c, 0, 71, 118
1, 18673, Note_on_c, 0, 77, 124
1, 18773, Note_off_c, 0, 77, 124
1, 18823, Note_on_c, 0, 83, 123
1, 18907, Note_off_c, 0, 83, 123
1, 18983, Note_on_c, 0, 77, 124
1, 19093, Note_off_c, 0, 77, 124
1, 19102, Note_on_c, 0, 76, 125
1, 19187, Note_off_c, 0, 76, 125
1, 19279, Note_on_c, 0, 70, 117
1, 19356, Note_off_c, 0, 70, 117
1, 19433, Note_on_c, 0, 64, 114
1, 19497, Note_off_c, 0, 64, 114
1, 19517, Note_on_c, 0, 70, 110
1, 19809, Note_off_c, 0, 70, 110
1, 19849, Note_on_c, 0, 63, 112
1, 19894, Note_off_c, 0, 63, 112
1, 19904, Note_on_c, 0, 64, 107
1, 20028, Note_off_c, 0, 64, 107
1, 20038, Note_on_c, 0, 67, 112
1, 20129, Note_off_c, 0, 67, 112
1, 20135, Note_on_c, 0, 69, 112
1, 20202, Note_off_c, 0, 69, 112
1, 20213, Note_on_c, 0, 70, 120
1, 20293, Note_off_c, 0, 70, 120
1, 20309, Note_on_c, 0, 72, 124
1, 20386, Note_off_c, 0, 72, 124
1, 20402, Note_on_c, 0, 74, 120
1, 20479, Note_off_c, 0, 74, 120
1, 20495, Note_on_c, 0, 75, 121
1, 20584, Note_off_c, 0, 75, 121
1, 20599, Note_on_c, 0, 77, 123
1, 20683, Note_off_c, 0, 77, 123
1, 20703, Note_on_c, 0, 78, 116
1, 20815, Note_off_c, 0, 78, 116
1, 20822, Note_on_c, 0, 84, 118
1, 20963, Note_off_c, 0, 84, 118
1, 20997, Note_on_c, 0, 78, 114
1, 21073, Note_off_c, 0, 78, 114
1, 21257, Note_on_c, 0, 77, 124
1, 21356, Note_off_c, 0, 77, 124
1, 21562, Note_on_c, 0, 75, 122
1, 21810, Note_off_c, 0, 75, 122
1, 21829, Note_on_c, 0, 72, 126
1, 21931, Note_off_c, 0, 72, 126
1, 21952, Note_on_c, 0, 69, 103
1, 22004, Note_off_c, 0, 69, 103
1, 22043, Note_on_c, 0, 66, 110
1, 22081, Note_off_c, 0, 66, 110
1, 22086, Note_on_c, 0, 69, 101
1, 22107, Note_off_c, 0, 69, 101
1, 22112, Note_on_c, 0, 66, 107
1, 22159, Note_off_c, 0, 66, 107
1, 22162, Note_on_c, 0, 63, 106
1, 22215, Note_off_c, 0, 63, 106
1, 22224, Note_on_c, 0, 65, 110
1, 22319, Note_off_c, 0, 65, 110
1, 22325, Note_on_c, 0, 68, 113
1, 22417, Note_off_c, 0, 68, 113
1, 22431, Note_on_c, 0, 71, 113
1, 22507, Note_off_c, 0, 71, 113
1, 22521, Note_on_c, 0, 74, 124
1, 22602, Note_off_c, 0, 74, 124
1, 22624, Note_on_c, 0, 73, 124
1, 22697, Note_off_c, 0, 73, 124
1, 22783, Note_on_c, 0, 69, 113
1, 22894, Note_off_c, 0, 69, 113
1, 23106, Note_on_c, 0, 72, 124
1, 23197, Note_off_c, 0, 72, 124
1, 23414, Note_on_c, 0, 68, 121
1, 24164, Note_off_c, 0, 68, 121
1, 24172, Note_on_c, 0, 68, 112
1, 24288, Note_off_c, 0, 68, 112
1, 24298, Note_on_c, 0, 68, 115
1, 24393, Note_off_c, 0, 68, 115
1, 24410, Note_on_c, 0, 68, 117
1, 24485, Note_off_c, 0, 68, 117
1, 24529, Note_on_c, 0, 68, 118
1, 24598, Note_off_c, 0, 68, 118
1, 24673, Note_on_c, 0, 65, 115
1, 24838, Note_off_c, 0, 65, 115
1, 24852, Note_on_c, 0, 68, 120
1, 25017, Note_off_c, 0, 68, 120
1, 25031, Note_on_c, 0, 65, 113
1, 25403, Note_off_c, 0, 65, 113
1, 25426, Note_on_c, 0, 63, 120
1, 25941, Note_off_c, 0, 63, 120
1, 26165, Note_on_c, 0, 58, 111
1, 26208, Note_off_c, 0, 58, 111
1, 26225, Note_on_c, 0, 63, 116
1, 26280, Note_off_c, 0, 63, 116
1, 26284, Note_on_c, 0, 65, 116
1, 26321, Note_off_c, 0, 65, 116
1, 26327, Note_on_c, 0, 63, 120
1, 26377, Note_off_c, 0, 63, 120
1, 26382, Note_on_c, 0, 58, 118
1, 26431, Note_off_c, 0, 58, 118
1, 26457, Note_on_c, 0, 63, 122
1, 26576, Note_off_c, 0, 63, 122
1, 26586, Note_on_c, 0, 64, 118
1, 26718, Note_off_c, 0, 64, 118
1, 26729, Note_on_c, 0, 65, 112
1, 26817, Note_off_c, 0, 65, 112
1, 27174, Note_on_c, 0, 66, 118
1, 27305, Note_off_c, 0, 66, 118
1, 27589, Note_on_c, 0, 67, 111
1, 27695, Note_off_c, 0, 67, 111
1, 27705, Note_on_c, 0, 69, 108
1, 27755, Note_off_c, 0, 69, 108
1, 27775, Note_on_c, 0, 71, 116
1, 27872, Note_off_c, 0, 71, 116
1, 27887, Note_on_c, 0, 73, 124
1, 27999, Note_off_c, 0, 73, 124
1, 28146, Note_on_c, 0, 75, 124
1, 28255, Note_off_c, 0, 75, 124
1, 28448, Note_on_c, 0, 76, 121
1, 28717, Note_off_c, 0, 76, 121
1, 28756, Note_on_c, 0, 77, 123
1, 28839, Note_off_c, 0, 77, 123
1, 28852, Note_on_c, 0, 78, 118
1, 28935, Note_off_c, 0, 78, 118
1, 28944, Note_on_c, 0, 74, 123
1, 29024, Note_off_c, 0, 74, 123
1, 29033, Note_on_c, 0, 72, 124
1, 29116, Note_off_c, 0, 72, 124
1, 29131, Note_on_c, 0, 70, 109
1, 29208, Note_off_c, 0, 70, 109
1, 29229, Note_on_c, 0, 66, 116
1, 29293, Note_off_c, 0, 66, 116
1, 29299, Note_on_c, 0, 64, 104
1, 29326, Note_off_c, 0, 64, 104
1, 29331, Note_on_c, 0, 66, 113
1, 29369, Note_off_c, 0, 66, 113
1, 29376, Note_on_c, 0, 64, 114
1, 29417, Note_off_c, 0, 64, 114
1, 29421, Note_on_c, 0, 62, 111
1, 29477, Note_off_c, 0, 62, 111
1, 29491, Note_on_c, 0, 60, 108
1, 29624, Note_off_c, 0, 60, 108
1, 29630, Note_on_c, 0, 62, 109
1, 29663, Note_off_c, 0, 62, 109
1, 29678, Note_on_c, 0, 64, 118
1, 29782, Note_off_c, 0, 64, 118
1, 29789, Note_on_c, 0, 66, 121
1, 29881, Note_off_c, 0, 66, 121
1, 29888, Note_on_c, 0, 65, 109
1, 29996, Note_off_c, 0, 65, 109
1, 30005, Note_on_c, 0, 64, 117
1, 30071, Note_off_c, 0, 64, 117
1, 30080, Note_on_c, 0, 65, 117
1, 30174, Note_off_c, 0, 65, 117
1, 30185, Note_on_c, 0, 68, 118
1, 30270, Note_off_c, 0, 68, 118
1, 30284, Note_on_c, 0, 70, 117
1, 30371, Note_off_c, 0, 70, 117
1, 30382, Note_on_c, 0, 72, 126
1, 30467, Note_off_c, 0, 72, 126
1, 30476, Note_on_c, 0, 73, 122
1, 30561, Note_off_c, 0, 73, 122
1, 30570, Note_on_c, 0, 75, 115
1, 30653, Note_off_c, 0, 75, 115
1, 30670, Note_on_c, 0, 77, 115
1, 30754, Note_off_c, 0, 77, 115
1, 30767, Note_on_c, 0, 78, 116
1, 30856, Note_off_c, 0, 78, 116
1, 30869, Note_on_c, 0, 80, 108
1, 30898, Note_off_c, 0, 80, 108
1, 30902, Note_on_c, 0, 77, 119
1, 30956, Note_off_c, 0, 77, 119
1, 31219, Note_on_c, 0, 80, 124
1, 31355, Note_off_c, 0, 80, 124
1, 31522, Note_on_c, 0, 76, 121
1, 31793, Note_off_c, 0, 76, 121
1, 31811, Note_on_c, 0, 70, 9
1, 32102, Note_off_c, 0, 70, 9
1, 32116, Note_on_c, 0, 75, 127
1, 32196, Note_off_c, 0, 75, 127
1, 32205, Note_on_c, 0, 73, 123
1, 32289, Note_off_c, 0, 73, 123
1, 32299, Note_on_c, 0, 76, 122
1, 32377, Note_off_c, 0, 76, 122
1, 32397, Note_on_c, 0, 75, 119
1, 32480, Note_off_c, 0, 75, 119
1, 32498, Note_on_c, 0, 78, 118
1, 32591, Note_off_c, 0, 78, 118
1, 32610, Note_on_c, 0, 76, 125
1, 32679, Note_off_c, 0, 76, 125
1, 32774, Note_on_c, 0, 76, 125
1, 32952, Note_off_c, 0, 76, 125
1, 32985, Note_on_c, 0, 75, 119
1, 33060, Note_off_c, 0, 75, 119
1, 33146, Note_on_c, 0, 75, 123
1, 33356, Note_off_c, 0, 75, 123
1, 33362, Note_on_c, 0, 74, 120
1, 33440, Note_off_c, 0, 74, 120
1, 33546, Note_on_c, 0, 74, 120
1, 33719, Note_off_c, 0, 74, 120
1, 33746, Note_on_c, 0, 73, 121
1, 33821, Note_off_c, 0, 73, 121
1, 33921, Note_on_c, 0, 73, 124
1, 34102, Note_off_c, 0, 73, 124
1, 34119, Note_on_c, 0, 71, 112
1, 34393, Note_off_c, 0, 71, 112
1, 34404, Note_on_c, 0, 71, 110
1, 34424, Note_off_c, 0, 71, 110
1, 34428, Note_on_c, 0, 69, 112
1, 34513, Note_off_c, 0, 69, 112
1, 34530, Note_on_c, 0, 70, 114
1, 34609, Note_off_c, 0, 70, 114
1, 34991, Note_on_c, 0, 67, 115
1, 35064, Note_off_c, 0, 67, 115
1, 35083, Note_on_c, 0, 69, 115
1, 35164, Note_off_c, 0, 69, 115
1, 35190, Note_on_c, 0, 73, 123
1, 35269, Note_off_c, 0, 73, 123
1, 35290, Note_on_c, 0, 68, 107
1, 35412, Note_off_c, 0, 68, 107
1, 35562, Note_on_c, 0, 67, 112
1, 35695, Note_off_c, 0, 67, 112
1, 35810, Note_on_c, 0, 66, 119
1, 35955, Note_off_c, 0, 66, 119
1, 36082, Note_on_c, 0, 65, 116
1, 36329, Note_off_c, 0, 65, 116
1, 36342, Note_on_c, 0, 68, 119
1, 36666, Note_off_c, 0, 68, 119
1, 36738, Note_on_c, 0, 75, 125
1, 36841, Note_off_c, 0, 75, 125
1, 36851, Note_on_c, 0, 76, 124
1, 36940, Note_off_c, 0, 76, 124
1, 36945, Note_on_c, 0, 75, 120
1, 37044, Note_off_c, 0, 75, 120
1, 37055, Note_on_c, 0, 70, 115
1, 37136, Note_off_c, 0, 70, 115
1, 37142, Note_on_c, 0, 75, 124
1, 37262, Note_off_c, 0, 75, 124
1, 37276, Note_on_c, 0, 76, 125
1, 37363, Note_off_c, 0, 76, 125
1, 37448, Note_on_c, 0, 76, 126
1, 37520, Note_off_c, 0, 76, 126
1, 37633, Note_on_c, 0, 70, 114
1, 38033, Note_off_c, 0, 70, 114
1, 38054, Note_on_c, 0, 64, 117
1, 38315, Note_off_c, 0, 64, 117
1, 38328, Note_on_c, 0, 64, 111
1, 38445, Note_off_c, 0, 64, 111
1, 38452, Note_on_c, 0, 58, 115
1, 38870, Note_off_c, 0, 58, 115
1, 38894, Note_on_c, 0, 65, 113
1, 39274, Note_off_c, 0, 65, 113
1, 39300, Note_on_c, 0, 63, 119
1, 39403, Note_off_c, 0, 63, 119
1, 39417, Note_on_c, 0, 60, 112
1, 39493, Note_off_c, 0, 60, 112
1, 39540, Note_on_c, 0, 59, 115
1, 39642, Note_off_c, 0, 59, 115
1, 39953, Note_on_c, 0, 71, 116
1, 40215, Note_off_c, 0, 71, 116
1, 40242, Note_on_c, 0, 66, 120
1, 40337, Note_off_c, 0, 66, 120
1, 40356, Note_on_c, 0, 62, 116
1, 40440, Note_off_c, 0, 62, 116
1, 40462, Note_on_c, 0, 61, 120
1, 40573, Note_off_c, 0, 61, 120
1, 40750, Note_on_c, 0, 70, 119
1, 41013, Note_off_c, 0, 70, 119
1, 41033, Note_on_c, 0, 66, 117
1, 41131, Note_off_c, 0, 66, 117
1, 41143, Note_on_c, 0, 62, 115
1, 41227, Note_off_c, 0, 62, 115
1, 41239, Note_on_c, 0, 60, 113
1, 41345, Note_off_c, 0, 60, 113
1, 41355, Note_on_c, 0, 57, 115
1, 41592, Note_off_c, 0, 57, 115
1, 41607, Note_on_c, 0, 56, 118
1, 41706, Note_off_c, 0, 56, 118
1, 41714, Note_on_c, 0, 57, 116
1, 41804, Note_off_c, 0, 57, 116
1, 41818, Note_on_c, 0, 59, 117
1, 41906, Note_off_c, 0, 59, 117
1, 41923, Note_on_c, 0, 60, 119
1, 41982, Note_off_c, 0, 60, 119
1, 42009, Note_on_c, 0, 62, 117
1, 42080, Note_off_c, 0, 62, 117
1, 42107, Note_on_c, 0, 64, 122
1, 42175, Note_off_c, 0, 64, 122
1, 42188, Note_on_c, 0, 65, 115
1, 42267, Note_off_c, 0, 65, 115
1, 42280, Note_on_c, 0, 67, 113
1, 42374, Note_off_c, 0, 67, 113
1, 42388, Note_on_c, 0, 68, 112
1, 42473, Note_off_c, 0, 68, 112
1, 42484, Note_on_c, 0, 70, 117
1, 42569, Note_off_c, 0, 70, 117
1, 42591, Note_on_c, 0, 71, 110
1, 42671, Note_off_c, 0, 71, 110
1, 42682, Note_on_c, 0, 73, 120
1, 42743, Note_off_c, 0, 73, 120
1, 42749, Note_on_c, 0, 74, 113
1, 42800, Note_off_c, 0, 74, 113
1, 42808, Note_on_c, 0, 76, 113
1, 42852, Note_off_c, 0, 76, 113
1, 42865, Note_on_c, 0, 83, 117
1, 42939, Note_off_c, 0, 83, 117
1, 42961, Note_on_c, 0, 77, 120
1, 43033, Note_off_c, 0, 77, 120
1, 43050, Note_on_c, 0, 83, 118
1, 43126, Note_off_c, 0, 83, 118
1, 43149, Note_on_c, 0, 77, 120
1, 43221, Note_off_c, 0, 77, 120
1, 43233, Note_on_c, 0, 76, 122
1, 43319, Note_off_c, 0, 76, 122
1, 43337, Note_on_c, 0, 75, 118
1, 43419, Note_off_c, 0, 75, 118
1, 43432, Note_on_c, 0, 74, 120
1, 43515, Note_off_c, 0, 74, 120
1, 43533, Note_on_c, 0, 73, 124
1, 43617, Note_off_c, 0, 73, 124
1, 43633, Note_on_c, 0, 71, 108
1, 43707, Note_off_c, 0, 71, 108
1, 43726, Note_on_c, 0, 70, 107
1, 43748, Note_off_c, 0, 70, 107
1, 43754, Note_on_c, 0, 71, 102
1, 43789, Note_off_c, 0, 71, 102
1, 43801, Note_on_c, 0, 70, 109
1, 43842, Note_off_c, 0, 70, 109
1, 43852, Note_on_c, 0, 67, 112
1, 43901, Note_off_c, 0, 67, 112
1, 43907, Note_on_c, 0, 70, 114
1, 44016, Note_off_c, 0, 70, 114
1, 44040, Note_on_c, 0, 70, 110
1, 44261, Note_off_c, 0, 70, 110
1, 44277, Note_on_c, 0, 67, 112
1, 44393, Note_off_c, 0, 67, 112
1, 44401, Note_on_c, 0, 66, 118
1, 44513, Note_off_c, 0, 66, 118
1, 44972, Note_on_c, 0, 64, 119
1, 45032, Note_off_c, 0, 64, 119
1, 45045, Note_on_c, 0, 66, 119
1, 45083, Note_off_c, 0, 66, 119
1, 45095, Note_on_c, 0, 67, 115
1, 45173, Note_off_c, 0, 67, 115
1, 45183, Note_on_c, 0, 64, 119
1, 45227, Note_off_c, 0, 64, 119
1, 45234, Note_on_c, 0, 66, 119
1, 45341, Note_off_c, 0, 66, 119
1, 45348, Note_on_c, 0, 67, 114
1, 45524, Note_off_c, 0, 67, 114
1, 45531, Note_on_c, 0, 70, 118
1, 45717, Note_off_c, 0, 70, 118
1, 45726, Note_on_c, 0, 67, 111
1, 45909, Note_off_c, 0, 67, 111
1, 45920, Note_on_c, 0, 66, 115
1, 46166, Note_off_c, 0, 66, 115
1, 46196, Note_on_c, 0, 67, 117
1, 46311, Note_off_c, 0, 67, 117
1, 46344, Note_on_c, 0, 70, 118
1, 46421, Note_off_c, 0, 70, 118
1, 46515, Note_on_c, 0, 67, 115
1, 46781, Note_off_c, 0, 67, 115
1, 46798, Note_on_c, 0, 65, 113
1, 46890, Note_off_c, 0, 65, 113
1, 46987, Note_on_c, 0, 68, 110
1, 47084, Note_off_c, 0, 68, 110
1, 47093, Note_on_c, 0, 72, 123
1, 47171, Note_off_c, 0, 72, 123
1, 47179, Note_on_c, 0, 73, 120
1, 47269, Note_off_c, 0, 73, 120
1, 47277, Note_on_c, 0, 76, 122
1, 47350, Note_off_c, 0, 76, 122
1, 47364, Note_on_c, 0, 79, 114
1, 47445, Note_off_c, 0, 79, 114
1, 47455, Note_on_c, 0, 78, 115
1, 47534, Note_off_c, 0, 78, 115
1, 47545, Note_on_c, 0, 77, 121
1, 47631, Note_off_c, 0, 77, 121
1, 47636, Note_on_c, 0, 76, 126
1, 47717, Note_off_c, 0, 76, 126
1, 47724, Note_on_c, 0, 75, 121
1, 47815, Note_off_c, 0, 75, 121
1, 47823, Note_on_c, 0, 74, 121
1, 47898, Note_off_c, 0, 74, 121
1, 47911, Note_on_c, 0, 73, 124
1, 47992, Note_off_c, 0, 73, 124
1, 48020, Note_on_c, 0, 71, 107
1, 48079, Note_off_c, 0, 71, 107
1, 48116, Note_on_c, 0, 66, 108
1, 48161, Note_off_c, 0, 66, 108
1, 48166, Note_on_c, 0, 68, 100
1, 48197, Note_off_c, 0, 68, 100
1, 48207, Note_on_c, 0, 66, 101
1, 48243, Note_off_c, 0, 66, 101
1, 48246, Note_on_c, 0, 62, 112
1, 48280, Note_off_c, 0, 62, 112
1, 48312, Note_on_c, 0, 65, 105
1, 48540, Note_off_c, 0, 65, 105
1, 48685, Note_on_c, 0, 65, 118
1, 48788, Note_off_c, 0, 65, 118
1, 49172, Note_on_c, 0, 68, 119
1, 49440, Note_off_c, 0, 68, 119
1, 49466, Note_on_c, 0, 75, 123
1, 49564, Note_off_c, 0, 75, 123
1, 49575, Note_on_c, 0, 76, 122
1, 49666, Note_off_c, 0, 76, 122
1, 49679, Note_on_c, 0, 75, 116
1, 49757, Note_off_c, 0, 75, 116
1, 49868, Note_on_c, 0, 75, 123
1, 50011, Note_off_c, 0, 75, 123
1, 50026, Note_on_c, 0, 70, 118
1, 50189, Note_off_c, 0, 70, 118
1, 50206, Note_on_c, 0, 70, 110
1, 50919, Note_off_c, 0, 70, 110
1, 50926, Note_on_c, 0, 70, 111
1, 51016, Note_off_c, 0, 70, 111
1, 51028, Note_on_c, 0, 75, 119
1, 51046, Note_off_c, 0, 75, 119
1, 51048, Note_on_c, 0, 76, 121
1, 51113, Note_off_c, 0, 76, 121
1, 51184, Note_on_c, 0, 75, 120
1, 51253, Note_off_c, 0, 75, 120
1, 51334, Note_on_c, 0, 70, 104
1, 51434, Note_off_c, 0, 70, 104
1, 51462, Note_on_c, 0, 75, 118
1, 51558, Note_off_c, 0, 75, 118
1, 51586, Note_on_c, 0, 69, 108
1, 51726, Note_off_c, 0, 69, 108
1, 51730, Note_on_c, 0, 68, 108
1, 52016, Note_off_c, 0, 68, 108
1, 52072, Note_on_c, 0, 74, 117
1, 52172, Note_off_c, 0, 74, 117
1, 52204, Note_on_c, 0, 73, 120
1, 52278, Note_off_c, 0, 73, 120
1, 52638, Note_on_c, 0, 70, 118
1, 52742, Note_off_c, 0, 70, 118
1, 52746, Note_on_c, 0, 67, 109
1, 52825, Note_off_c, 0, 67, 109
1, 52834, Note_on_c, 0, 65, 107
1, 52921, Note_off_c, 0, 65, 107
1, 52935, Note_on_c, 0, 66, 115
1, 53274, Note_off_c, 0, 66, 115
1, 53313, Note_on_c, 0, 72, 124
1, 53448, Note_off_c, 0, 72, 124
1, 53467, Note_on_c, 0, 64, 108
1, 53691, Note_off_c, 0, 64, 108
1, 53701, Note_on_c, 0, 62, 108
1, 53834, Note_off_c, 0, 62, 108
1, 53890, Note_on_c, 0, 62, 104
1, 54081, Note_off_c, 0, 62, 104
1, 54091, Note_on_c, 0, 70, 115
1, 54196, Note_off_c, 0, 70, 115
1, 54214, Note_on_c, 0, 62, 112
1, 54450, Note_off_c, 0, 62, 112
1, 54458, Note_on_c, 0, 61, 118
1, 54581, Note_off_c, 0, 61, 118
1, 54581, End_track
0, 0, End_of_file
