0, 0, Header, 1, 1, 840
1, 0, Start_track
1, 0, Title_t, "Melody"
1, 0, Tempo, 566037
1, 0, Key_signature, -3, "major"
1, 0, Time_signature, 4, 2, 24, 8
1, 8443, Note_on_c, 0, 62, 113
1, 8782, Note_off_c, 0, 62, 113
1, 9000, Note_on_c, 0, 62, 104
1, 9775, Note_off_c, 0, 62, 104
1, 9905, Note_on_c, 0, 63, 116
1, 10215, Note_off_c, 0, 63, 116
1, 10749, Note_on_c, 0, 56, 88
1, 10852, Note_off_c, 0, 56, 88
1, 10938, Note_on_c, 0, 57, 93
1, 11920, Note_off_c, 0, 57, 93
1, 12316, Note_on_c, 0, 55, 87
1, 13487, Note_off_c, 0, 55, 87
1, 14227, Note_on_c, 0, 55, 97
1, 14450, Note_off_c, 0, 55, 97
1, 14518, Note_on_c, 0, 57, 95
1, 15482, Note_off_c, 0, 57, 95
1, 15688, Note_on_c, 0, 55, 96
1, 15860, Note_off_c, 0, 55, 96
1, 15946, Note_on_c, 0, 57, 102
1, 16083, Note_off_c, 0, 57, 102
1, 16100, Note_on_c, 0, 55, 99
1, 16341, Note_off_c, 0, 55, 99
1, 16582, Note_on_c, 0, 57, 102
1, 17271, Note_off_c, 0, 57, 102
1, 17615, Note_on_c, 0, 57, 104
1, 17787, Note_off_c, 0, 57, 104
1, 17804, Note_on_c, 0, 55, 102
1, 18027, Note_off_c, 0, 55, 102
1, 18199, Note_on_c, 0, 62, 118
1, 18526, Note_off_c, 0, 62, 118
1, 18956, Note_on_c, 0, 57, 96
1, 19472, Note_off_c, 0, 57, 96
1, 20557, Note_on_c, 0, 57, 105
1, 20849, Note_off_c, 0, 57, 105
1, 20900, Note_on_c, 0, 55, 95
1, 21123, Note_off_c, 0, 55, 95
1, 21174, Note_on_c, 0, 57, 106
1, 21466, Note_off_c, 0, 57, 106
1, 21621, Note_on_c, 0, 60, 109
1, 21913, Note_off_c, 0, 60, 109
1, 21964, Note_on_c, 0, 62, 117
1, 22291, Note_off_c, 0, 62, 117
1, 23255, Note_on_c, 0, 68, 110
1, 23513, Note_off_c, 0, 68, 110
1, 23530, Note_on_c, 0, 67, 102
1, 23736, Note_off_c, 0, 67, 102
1, 23770, Note_on_c, 0, 68, 110
1, 23925, Note_off_c, 0, 68, 110
1, 23925, Note_on_c, 0, 66, 113
1, 24166, Note_off_c, 0, 66, 113
1, 24183, Note_on_c, 0, 65, 119
1, 24389, Note_off_c, 0, 65, 119
1, 24389, Note_on_c, 0, 64, 122
1, 24578, Note_off_c, 0, 64, 122
1, 24595, Note_on_c, 0, 63, 119
1, 24767, Note_off_c, 0, 63, 119
1, 24784, Note_on_c, 0, 65, 114
1, 24990, Note_off_c, 0, 65, 114
1, 25013, Note_on_c, 0, 62, 120
1, 25206, Note_off_c, 0, 62, 120
1, 25230, Note_on_c, 0, 61, 119
1, 25411, Note_off_c, 0, 61, 119
1, 25459, Note_on_c, 0, 60, 110
1, 25652, Note_off_c, 0, 60, 110
1, 25652, Note_on_c, 0, 58, 103
1, 25857, Note_on_c, 0, 57, 101
1, 25857, Note_off_c, 0, 58, 103
1, 26026, Note_off_c, 0, 57, 101
1, 26026, Note_on_c, 0, 55, 104
1, 26244, Note_off_c, 0, 55, 104
1, 26268, Note_on_c, 0, 53, 96
1, 26546, Note_off_c, 0, 53, 96
1, 28351, Note_on_c, 0, 74, 94
1, 28532, Note_off_c, 0, 74, 94
1, 28532, Note_on_c, 0, 72, 103
1, 28713, Note_off_c, 0, 72, 103
1, 28761, Note_on_c, 0, 70, 101
1, 28991, Note_off_c, 0, 70, 101
1, 29003, Note_on_c, 0, 71, 107
1, 29184, Note_off_c, 0, 71, 107
1, 29244, Note_on_c, 0, 68, 107
1, 29462, Note_off_c, 0, 68, 107
1, 29486, Note_on_c, 0, 70, 113
1, 29643, Note_off_c, 0, 70, 113
1, 29679, Note_on_c, 0, 68, 114
1, 29836, Note_off_c, 0, 68, 114
1, 29884, Note_on_c, 0, 66, 114
1, 30077, Note_off_c, 0, 66, 114
1, 30101, Note_on_c, 0, 65, 113
1, 30294, Note_off_c, 0, 65, 113
1, 30306, Note_on_c, 0, 67, 114
1, 30499, Note_off_c, 0, 67, 114
1, 30499, Note_on_c, 0, 64, 122
1, 30729, Note_off_c, 0, 64, 122
1, 30765, Note_on_c, 0, 65, 115
1, 31007, Note_off_c, 0, 65, 115
1, 31055, Note_on_c, 0, 66, 110
1, 31260, Note_off_c, 0, 66, 110
1, 31284, Note_on_c, 0, 65, 105
1, 31368, Note_off_c, 0, 65, 105
1, 31368, Note_on_c, 0, 62, 107
1, 31549, Note_off_c, 0, 62, 107
1, 31561, Note_on_c, 0, 65, 112
1, 31754, Note_off_c, 0, 65, 112
1, 31778, Note_on_c, 0, 63, 107
1, 31971, Note_off_c, 0, 63, 107
1, 32031, Note_on_c, 0, 61, 107
1, 32152, Note_off_c, 0, 61, 107
1, 32152, Note_on_c, 0, 60, 99
1, 32333, Note_off_c, 0, 60, 99
1, 32393, Note_on_c, 0, 58, 94
1, 32538, Note_off_c, 0, 58, 94
1, 32550, Note_on_c, 0, 56, 99
1, 32731, Note_off_c, 0, 56, 99
1, 35105, Note_on_c, 0, 75, 101
1, 35274, Note_off_c, 0, 75, 101
1, 35346, Note_on_c, 0, 77, 91
1, 35479, Note_off_c, 0, 77, 91
1, 35491, Note_on_c, 0, 81, 105
1, 35612, Note_off_c, 0, 81, 105
1, 35636, Note_on_c, 0, 79, 98
1, 35829, Note_off_c, 0, 79, 98
1, 35877, Note_on_c, 0, 73, 94
1, 36082, Note_off_c, 0, 73, 94
1, 36154, Note_on_c, 0, 71, 109
1, 36384, Note_off_c, 0, 71, 109
1, 36408, Note_on_c, 0, 69, 109
1, 36638, Note_off_c, 0, 69, 109
1, 36638, Note_on_c, 0, 71, 110
1, 36783, Note_off_c, 0, 71, 110
1, 36807, Note_on_c, 0, 68, 104
1, 37000, Note_off_c, 0, 68, 104
1, 37012, Note_on_c, 0, 67, 112
1, 37205, Note_off_c, 0, 67, 112
1, 37253, Note_on_c, 0, 66, 115
1, 37349, Note_off_c, 0, 66, 115
1, 37373, Note_on_c, 0, 65, 117
1, 37506, Note_off_c, 0, 65, 117
1, 37542, Note_on_c, 0, 69, 121
1, 37663, Note_off_c, 0, 69, 121
1, 37663, Note_on_c, 0, 65, 113
1, 37832, Note_off_c, 0, 65, 113
1, 37880, Note_on_c, 0, 63, 114
1, 38025, Note_off_c, 0, 63, 114
1, 38097, Note_on_c, 0, 63, 105
1, 38218, Note_off_c, 0, 63, 105
1, 38242, Note_on_c, 0, 66, 105
1, 38423, Note_off_c, 0, 66, 105
1, 38483, Note_on_c, 0, 64, 109
1, 38664, Note_off_c, 0, 64, 109
1, 38664, Note_on_c, 0, 61, 101
1, 38857, Note_off_c, 0, 61, 101
1, 39668, Note_on_c, 0, 68, 106
1, 39898, Note_off_c, 0, 68, 106
1, 39946, Note_on_c, 0, 66, 114
1, 40042, Note_off_c, 0, 66, 114
1, 40138, Note_on_c, 0, 66, 108
1, 40343, Note_off_c, 0, 66, 108
1, 40391, Note_on_c, 0, 63, 116
1, 40560, Note_off_c, 0, 63, 116
1, 41371, Note_on_c, 0, 71, 113
1, 41576, Note_off_c, 0, 71, 113
1, 41794, Note_on_c, 0, 81, 76
1, 41951, Note_off_c, 0, 81, 76
1, 41975, Note_on_c, 0, 83, 103
1, 42120, Note_off_c, 0, 83, 103
1, 42132, Note_on_c, 0, 82, 87
1, 42228, Note_off_c, 0, 82, 87
1, 43281, Note_on_c, 0, 70, 96
1, 43426, Note_off_c, 0, 70, 96
1, 43426, Note_on_c, 0, 71, 110
1, 43837, Note_off_c, 0, 71, 110
1, 43885, Note_on_c, 0, 70, 108
1, 44066, Note_off_c, 0, 70, 108
1, 44320, Note_on_c, 0, 69, 99
1, 44416, Note_off_c, 0, 69, 99
1, 44452, Note_on_c, 0, 70, 118
1, 44876, Note_off_c, 0, 70, 118
1, 44985, Note_on_c, 0, 67, 104
1, 45966, Note_off_c, 0, 67, 104
1, 46026, Note_on_c, 0, 65, 100
1, 46207, Note_off_c, 0, 65, 100
1, 46207, Note_on_c, 0, 67, 89
1, 46328, Note_off_c, 0, 67, 89
1, 48363, Note_on_c, 0, 57, 101
1, 48556, Note_off_c, 0, 57, 101
1, 48568, Note_on_c, 0, 60, 112
1, 48882, Note_off_c, 0, 60, 112
1, 48930, Note_on_c, 0, 57, 100
1, 49063, Note_on_c, 0, 60, 109
1, 49063, Note_off_c, 0, 57, 100
1, 49680, Note_off_c, 0, 60, 109
1, 50309, Note_on_c, 0, 63, 115
1, 50502, Note_on_c, 0, 65, 122
1, 50502, Note_off_c, 0, 63, 115
1, 50780, Note_off_c, 0, 65, 122
1, 50998, Note_on_c, 0, 65, 124
1, 51918, Note_off_c, 0, 65, 124
1, 51918, Note_on_c, 0, 63, 111
1, 52148, Note_off_c, 0, 63, 111
1, 52148, Note_on_c, 0, 60, 102
1, 52353, Note_off_c, 0, 60, 102
1, 53600, Note_on_c, 0, 66, 118
1, 53830, Note_off_c, 0, 66, 118
1, 53830, Note_on_c, 0, 65, 115
1, 53975, Note_off_c, 0, 65, 115
1, 54071, Note_on_c, 0, 65, 117
1, 54228, Note_off_c, 0, 65, 117
1, 54252, Note_on_c, 0, 63, 116
1, 54373, Note_off_c, 0, 63, 116
1, 54433, Note_on_c, 0, 60, 105
1, 54626, Note_off_c, 0, 60, 105
1, 56128, Note_on_c, 0, 69, 106
1, 56358, Note_off_c, 0, 69, 106
1, 56358, Note_on_c, 0, 71, 101
1, 56551, Note_off_c, 0, 71, 101
1, 56575, Note_on_c, 0, 69, 103
1, 56768, Note_off_c, 0, 69, 103
1, 56780, Note_on_c, 0, 66, 117
1, 57167, Note_off_c, 0, 66, 117
1, 57191, Note_on_c, 0, 67, 115
1, 57384, Note_off_c, 0, 67, 115
1, 57420, Note_on_c, 0, 66, 115
1, 58001, Note_off_c, 0, 66, 115
1, 58049, Note_on_c, 0, 65, 114
1, 58218, Note_off_c, 0, 65, 114
1, 58302, Note_on_c, 0, 64, 121
1, 58423, Note_off_c, 0, 64, 121
1, 58459, Note_on_c, 0, 67, 98
1, 58677, Note_off_c, 0, 67, 98
1, 58725, Note_on_c, 0, 65, 109
1, 58870, Note_off_c, 0, 65, 109
1, 58918, Note_on_c, 0, 64, 104
1, 59087, Note_off_c, 0, 64, 104
1, 59147, Note_on_c, 0, 66, 99
1, 59340, Note_off_c, 0, 66, 99
1, 59388, Note_on_c, 0, 69, 98
1, 59460, Note_off_c, 0, 69, 98
1, 59520, Note_on_c, 0, 70, 96
1, 59665, Note_off_c, 0, 70, 96
1, 59713, Note_on_c, 0, 71, 84
1, 59846, Note_off_c, 0, 71, 84
1, 59906, Note_on_c, 0, 72, 110
1, 60099, Note_off_c, 0, 72, 110
1, 60159, Note_on_c, 0, 74, 97
1, 60292, Note_off_c, 0, 74, 97
1, 60364, Note_on_c, 0, 72, 107
1, 60497, Note_off_c, 0, 72, 107
1, 60497, Note_on_c, 0, 68, 92
1, 60702, Note_on_c, 0, 69, 94
1, 60702, Note_off_c, 0, 68, 92
1, 60968, Note_off_c, 0, 69, 94
1, 62821, Note_on_c, 0, 74, 89
1, 63075, Note_off_c, 0, 74, 89
1, 63087, Note_on_c, 0, 72, 111
1, 63256, Note_off_c, 0, 72, 111
1, 63328, Note_on_c, 0, 70, 104
1, 63618, Note_off_c, 0, 70, 104
1, 63654, Note_on_c, 0, 71, 105
1, 63775, Note_off_c, 0, 71, 105
1, 63787, Note_on_c, 0, 68, 95
1, 64089, Note_off_c, 0, 68, 95
1, 64182, Note_on_c, 0, 70, 114
1, 64291, Note_off_c, 0, 70, 114
1, 64294, Note_on_c, 0, 68, 113
1, 64524, Note_off_c, 0, 68, 113
1, 64548, Note_on_c, 0, 66, 117
1, 64790, Note_off_c, 0, 66, 117
1, 64802, Note_on_c, 0, 65, 113
1, 65165, Note_off_c, 0, 65, 113
1, 65197, Note_on_c, 0, 58, 110
1, 65310, Note_off_c, 0, 58, 110
1, 65310, Note_on_c, 0, 57, 99
1, 65637, Note_off_c, 0, 57, 99
1, 65733, Note_on_c, 0, 64, 126
1, 66132, Note_off_c, 0, 64, 126
1, 66132, Note_on_c, 0, 67, 111
1, 66362, Note_off_c, 0, 67, 111
1, 66362, Note_on_c, 0, 65, 113
1, 66567, Note_off_c, 0, 65, 113
1, 66627, Note_on_c, 0, 63, 118
1, 66796, Note_off_c, 0, 63, 118
1, 66820, Note_on_c, 0, 66, 111
1, 66977, Note_off_c, 0, 66, 111
1, 67013, Note_on_c, 0, 62, 118
1, 67194, Note_off_c, 0, 62, 118
1, 67242, Note_on_c, 0, 61, 110
1, 67411, Note_off_c, 0, 61, 110
1, 67459, Note_on_c, 0, 59, 90
1, 68016, Note_off_c, 0, 59, 90
1, 69469, Note_on_c, 0, 70, 99
1, 69674, Note_off_c, 0, 70, 99
1, 69734, Note_on_c, 0, 74, 96
1, 69939, Note_off_c, 0, 74, 96
1, 69963, Note_on_c, 0, 70, 109
1, 70326, Note_off_c, 0, 70, 109
1, 70338, Note_on_c, 0, 68, 110
1, 70592, Note_off_c, 0, 68, 110
1, 70604, Note_on_c, 0, 71, 107
1, 70822, Note_off_c, 0, 71, 107
1, 70870, Note_on_c, 0, 69, 108
1, 71172, Note_off_c, 0, 69, 108
1, 71220, Note_on_c, 0, 66, 107
1, 71486, Note_off_c, 0, 66, 107
1, 71486, Note_on_c, 0, 69, 102
1, 71704, Note_off_c, 0, 69, 102
1, 71764, Note_on_c, 0, 67, 114
1, 72030, Note_off_c, 0, 67, 114
1, 72078, Note_on_c, 0, 64, 124
1, 72308, Note_off_c, 0, 64, 124
1, 72308, Note_on_c, 0, 67, 110
1, 72477, Note_off_c, 0, 67, 110
1, 72513, Note_on_c, 0, 65, 112
1, 72718, Note_off_c, 0, 65, 112
1, 72718, Note_on_c, 0, 61, 116
1, 72899, Note_off_c, 0, 61, 116
1, 72899, Note_on_c, 0, 58, 97
1, 73153, Note_off_c, 0, 58, 97
1, 74158, Note_on_c, 0, 68, 111
1, 74388, Note_on_c, 0, 67, 111
1, 74388, Note_off_c, 0, 68, 111
1, 74533, Note_off_c, 0, 67, 111
1, 74569, Note_on_c, 0, 66, 103
1, 74787, Note_off_c, 0, 66, 103
1, 74823, Note_on_c, 0, 68, 105
1, 74992, Note_off_c, 0, 68, 105
1, 75004, Note_on_c, 0, 64, 118
1, 75149, Note_off_c, 0, 64, 118
1, 75173, Note_on_c, 0, 66, 108
1, 75366, Note_off_c, 0, 66, 108
1, 75390, Note_on_c, 0, 63, 111
1, 75559, Note_off_c, 0, 63, 111
1, 75579, Note_on_c, 0, 68, 91
1, 75712, Note_off_c, 0, 68, 91
1, 75764, Note_on_c, 0, 67, 115
1, 76042, Note_off_c, 0, 67, 115
1, 76042, Note_on_c, 0, 69, 100
1, 76199, Note_off_c, 0, 69, 100
1, 76247, Note_on_c, 0, 68, 107
1, 76380, Note_off_c, 0, 68, 107
1, 76561, Note_on_c, 0, 70, 109
1, 76742, Note_off_c, 0, 70, 109
1, 76742, Note_on_c, 0, 71, 107
1, 76947, Note_off_c, 0, 71, 107
1, 77480, Note_on_c, 0, 68, 111
1, 77649, Note_off_c, 0, 68, 111
1, 77661, Note_on_c, 0, 67, 117
1, 77830, Note_off_c, 0, 67, 117
1, 77854, Note_on_c, 0, 66, 106
1, 78035, Note_off_c, 0, 66, 106
1, 78047, Note_on_c, 0, 71, 103
1, 78204, Note_off_c, 0, 71, 103
1, 78240, Note_on_c, 0, 63, 118
1, 78470, Note_off_c, 0, 63, 118
1, 78494, Note_on_c, 0, 66, 110
1, 78724, Note_off_c, 0, 66, 110
1, 78748, Note_on_c, 0, 63, 116
1, 78941, Note_off_c, 0, 63, 116
1, 78941, Note_on_c, 0, 69, 100
1, 79146, Note_off_c, 0, 69, 100
1, 79146, Note_on_c, 0, 68, 97
1, 79339, Note_off_c, 0, 68, 97
1, 79387, Note_on_c, 0, 69, 105
1, 79568, Note_off_c, 0, 69, 105
1, 79592, Note_on_c, 0, 70, 111
1, 79773, Note_off_c, 0, 70, 111
1, 79773, Note_on_c, 0, 73, 103
1, 79942, Note_off_c, 0, 73, 103
1, 80753, Note_on_c, 0, 72, 110
1, 80958, Note_off_c, 0, 72, 110
1, 81018, Note_on_c, 0, 71, 107
1, 81199, Note_off_c, 0, 71, 107
1, 81199, Note_on_c, 0, 68, 99
1, 81465, Note_off_c, 0, 68, 99
1, 81477, Note_on_c, 0, 70, 106
1, 81610, Note_off_c, 0, 70, 106
1, 81610, Note_on_c, 0, 75, 110
1, 81803, Note_off_c, 0, 75, 110
1, 81899, Note_on_c, 0, 79, 89
1, 82153, Note_off_c, 0, 79, 89
1, 82252, Note_on_c, 0, 83, 96
1, 82518, Note_off_c, 0, 83, 96
1, 82535, Note_on_c, 0, 88, 84
1, 82692, Note_off_c, 0, 88, 84
1, 82865, Note_on_c, 0, 84, 106
1, 83022, Note_off_c, 0, 84, 106
1, 83046, Note_on_c, 0, 88, 80
1, 83264, Note_off_c, 0, 88, 80
1, 83276, Note_on_c, 0, 86, 89
1, 83409, Note_off_c, 0, 86, 89
1, 83421, Note_on_c, 0, 82, 97
1, 83554, Note_off_c, 0, 82, 97
1, 83578, Note_on_c, 0, 83, 108
1, 83699, Note_off_c, 0, 83, 108
1, 83759, Note_on_c, 0, 72, 114
1, 84001, Note_off_c, 0, 72, 114
1, 84025, Note_on_c, 0, 74, 107
1, 84158, Note_off_c, 0, 74, 107
1, 84158, Note_on_c, 0, 71, 115
1, 84424, Note_off_c, 0, 71, 115
1, 84581, Note_on_c, 0, 70, 109
1, 84762, Note_off_c, 0, 70, 109
1, 84786, Note_on_c, 0, 71, 100
1, 84979, Note_off_c, 0, 71, 100
1, 84979, Note_on_c, 0, 68, 117
1, 85390, Note_off_c, 0, 68, 117
1, 85438, Note_on_c, 0, 67, 104
1, 85765, Note_off_c, 0, 67, 104
1, 85813, Note_on_c, 0, 66, 105
1, 86152, Note_off_c, 0, 66, 105
1, 87072, Note_on_c, 0, 68, 115
1, 87362, Note_off_c, 0, 68, 115
1, 87362, Note_on_c, 0, 67, 104
1, 87507, Note_off_c, 0, 67, 104
1, 87507, Note_on_c, 0, 66, 110
1, 87785, Note_off_c, 0, 66, 110
1, 87785, Note_on_c, 0, 70, 110
1, 87966, Note_off_c, 0, 70, 110
1, 87966, Note_on_c, 0, 65, 116
1, 88111, Note_off_c, 0, 65, 116
1, 88171, Note_on_c, 0, 63, 93
1, 88328, Note_off_c, 0, 63, 93
1, 88364, Note_on_c, 0, 62, 107
1, 88594, Note_off_c, 0, 62, 107
1, 88594, Note_on_c, 0, 67, 10
1, 88824, Note_off_c, 0, 67, 10
1, 88836, Note_on_c, 0, 65, 10
1, 89150, Note_off_c, 0, 65, 10
1, 89234, Note_on_c, 0, 66, 110
1, 89452, Note_off_c, 0, 66, 110
1, 89488, Note_on_c, 0, 67, 103
1, 89560, Note_off_c, 0, 67, 103
1, 89620, Note_on_c, 0, 68, 114
1, 89825, Note_off_c, 0, 68, 114
1, 90467, Note_on_c, 0, 68, 126
1, 90685, Note_off_c, 0, 68, 126
1, 90685, Note_on_c, 0, 67, 118
1, 90818, Note_off_c, 0, 67, 118
1, 90866, Note_on_c, 0, 66, 112
1, 91120, Note_off_c, 0, 66, 112
1, 91120, Note_on_c, 0, 71, 108
1, 91313, Note_off_c, 0, 71, 108
1, 91325, Note_on_c, 0, 65, 111
1, 91518, Note_off_c, 0, 65, 111
1, 91530, Note_on_c, 0, 66, 111
1, 91723, Note_off_c, 0, 66, 111
1, 91747, Note_on_c, 0, 64, 114
1, 91965, Note_off_c, 0, 64, 114
1, 91965, Note_on_c, 0, 66, 107
1, 92049, Note_off_c, 0, 66, 107
1, 92145, Note_on_c, 0, 68, 119
1, 92338, Note_off_c, 0, 68, 119
1, 92362, Note_on_c, 0, 70, 106
1, 92495, Note_off_c, 0, 70, 106
1, 92507, Note_on_c, 0, 68, 99
1, 92797, Note_off_c, 0, 68, 99
1, 92797, Note_on_c, 0, 71, 107
1, 92918, Note_off_c, 0, 71, 107
1, 93039, Note_on_c, 0, 68, 110
1, 93196, Note_off_c, 0, 68, 110
1, 93232, Note_on_c, 0, 70, 106
1, 93401, Note_off_c, 0, 70, 106
1, 93413, Note_on_c, 0, 68, 98
1, 93703, Note_off_c, 0, 68, 98
1, 93703, Note_on_c, 0, 70, 105
1, 93812, Note_off_c, 0, 70, 105
1, 93836, Note_on_c, 0, 71, 108
1, 94054, Note_off_c, 0, 71, 108
1, 94078, Note_on_c, 0, 70, 90
1, 94211, Note_off_c, 0, 70, 90
1, 94259, Note_on_c, 0, 71, 115
1, 94489, Note_off_c, 0, 71, 115
1, 94561, Note_on_c, 0, 67, 115
1, 94754, Note_off_c, 0, 67, 115
1, 94754, Note_on_c, 0, 66, 105
1, 94972, Note_off_c, 0, 66, 105
1, 94972, Note_on_c, 0, 70, 107
1, 95141, Note_off_c, 0, 70, 107
1, 95141, Note_on_c, 0, 63, 114
1, 95480, Note_off_c, 0, 63, 114
1, 96497, Note_on_c, 0, 60, 117
1, 96702, Note_off_c, 0, 60, 117
1, 96762, Note_on_c, 0, 62, 117
1, 97997, Note_off_c, 0, 62, 117
1, 98021, Note_on_c, 0, 60, 101
1, 98202, Note_off_c, 0, 60, 101
1, 98262, Note_on_c, 0, 61, 109
1, 98383, Note_off_c, 0, 61, 109
1, 98419, Note_on_c, 0, 60, 106
1, 98661, Note_off_c, 0, 60, 106
1, 98661, Note_on_c, 0, 57, 100
1, 99206, Note_off_c, 0, 57, 100
1, 99206, Note_on_c, 0, 60, 93
1, 99860, Note_off_c, 0, 60, 93
1, 100538, Note_on_c, 0, 57, 106
1, 100901, Note_off_c, 0, 57, 106
1, 100949, Note_on_c, 0, 55, 97
1, 101167, Note_off_c, 0, 55, 97
1, 101203, Note_on_c, 0, 57, 102
1, 101675, Note_off_c, 0, 57, 102
1, 101771, Note_on_c, 0, 60, 119
1, 101964, Note_off_c, 0, 60, 119
1, 102012, Note_on_c, 0, 57, 110
1, 102096, Note_off_c, 0, 57, 110
1, 102205, Note_on_c, 0, 61, 126
1, 102556, Note_off_c, 0, 61, 126
1, 103294, Note_on_c, 0, 65, 121
1, 103560, Note_off_c, 0, 65, 121
1, 103584, Note_on_c, 0, 67, 113
1, 105328, Note_off_c, 0, 67, 113
1, 105509, Note_on_c, 0, 64, 115
1, 105654, Note_off_c, 0, 64, 115
1, 105726, Note_on_c, 0, 67, 111
1, 106016, Note_off_c, 0, 67, 111
1, 106997, Note_on_c, 0, 66, 124
1, 107227, Note_off_c, 0, 66, 124
1, 107432, Note_on_c, 0, 67, 120
1, 107722, Note_off_c, 0, 67, 120
1, 107818, Note_on_c, 0, 65, 96
1, 107963, Note_off_c, 0, 65, 96
1, 108011, Note_on_c, 0, 66, 122
1, 108168, Note_off_c, 0, 66, 122
1, 108192, Note_on_c, 0, 67, 121
1, 108434, Note_off_c, 0, 67, 121
1, 108458, Note_on_c, 0, 66, 123
1, 108700, Note_off_c, 0, 66, 123
1, 108700, Note_on_c, 0, 64, 101
1, 108845, Note_off_c, 0, 64, 101
1, 108881, Note_on_c, 0, 65, 107
1, 109329, Note_off_c, 0, 65, 107
1, 109692, Note_on_c, 0, 62, 106
1, 109788, Note_off_c, 0, 62, 106
1, 109788, Note_on_c, 0, 63, 124
1, 110078, Note_off_c, 0, 63, 124
1, 110150, Note_on_c, 0, 60, 107
1, 110489, Note_off_c, 0, 60, 107
1, 110670, Note_on_c, 0, 60, 108
1, 111021, Note_off_c, 0, 60, 108
1, 111796, Note_on_c, 0, 66, 120
1, 112098, Note_off_c, 0, 66, 120
1, 112122, Note_on_c, 0, 67, 120
1, 112715, Note_off_c, 0, 67, 120
1, 112848, Note_on_c, 0, 66, 119
1, 112908, Note_off_c, 0, 66, 119
1, 112908, Note_on_c, 0, 67, 118
1, 113089, Note_off_c, 0, 67, 118
1, 113125, Note_on_c, 0, 65, 119
1, 113270, Note_off_c, 0, 65, 119
1, 113270, Note_on_c, 0, 67, 118
1, 113391, Note_off_c, 0, 67, 118
1, 113391, Note_on_c, 0, 65, 118
1, 113500, Note_off_c, 0, 65, 118
1, 113500, Note_on_c, 0, 63, 119
1, 113754, Note_off_c, 0, 63, 119
1, 115219, Note_on_c, 0, 66, 120
1, 115412, Note_off_c, 0, 66, 120
1, 115424, Note_on_c, 0, 67, 112
1, 115969, Note_off_c, 0, 67, 112
1, 116078, Note_on_c, 0, 66, 114
1, 116283, Note_off_c, 0, 66, 114
1, 116343, Note_on_c, 0, 63, 102
1, 116427, Note_off_c, 0, 63, 102
1, 116463, Note_on_c, 0, 65, 112
1, 116826, Note_off_c, 0, 65, 112
1, 116886, Note_on_c, 0, 63, 120
1, 117176, Note_off_c, 0, 63, 120
1, 117212, Note_on_c, 0, 62, 98
1, 117369, Note_off_c, 0, 62, 98
1, 117369, Note_on_c, 0, 63, 121
1, 117744, Note_off_c, 0, 63, 121
1, 117744, Note_on_c, 0, 60, 109
1, 117949, Note_off_c, 0, 60, 109
1, 118082, Note_on_c, 0, 55, 107
1, 118227, Note_off_c, 0, 55, 107
1, 118275, Note_on_c, 0, 58, 106
1, 118880, Note_off_c, 0, 58, 106
1, 118904, Note_on_c, 0, 60, 89
1, 119667, Note_off_c, 0, 60, 89
1, 120476, Note_on_c, 0, 52, 109
1, 120623, Note_off_c, 0, 52, 109
1, 120623, Note_on_c, 0, 58, 102
1, 120744, Note_off_c, 0, 58, 102
1, 120744, Note_on_c, 0, 60, 112
1, 120889, Note_on_c, 0, 64, 111
1, 120889, Note_off_c, 0, 60, 112
1, 121010, Note_off_c, 0, 64, 111
1, 121010, Note_on_c, 0, 67, 109
1, 121094, Note_off_c, 0, 67, 109
1, 121106, Note_on_c, 0, 70, 93
1, 121154, Note_off_c, 0, 70, 93
1, 121190, Note_on_c, 0, 72, 113
1, 121347, Note_off_c, 0, 72, 113
1, 121359, Note_on_c, 0, 70, 108
1, 121468, Note_off_c, 0, 70, 108
1, 121492, Note_on_c, 0, 69, 105
1, 121588, Note_off_c, 0, 69, 105
1, 121612, Note_on_c, 0, 89, 99
1, 121721, Note_off_c, 0, 89, 99
1, 121721, Note_on_c, 0, 90, 103
1, 121830, Note_off_c, 0, 90, 103
1, 122477, Note_on_c, 0, 48, 111
1, 122614, Note_off_c, 0, 48, 111
1, 122665, Note_on_c, 0, 55, 110
1, 122742, Note_off_c, 0, 55, 110
1, 122767, Note_on_c, 0, 58, 101
1, 122878, Note_off_c, 0, 58, 101
1, 122886, Note_on_c, 0, 60, 104
1, 122980, Note_off_c, 0, 60, 104
1, 122997, Note_on_c, 0, 63, 109
1, 123108, Note_off_c, 0, 63, 109
1, 123112, Note_on_c, 0, 65, 106
1, 123185, Note_off_c, 0, 65, 106
1, 123193, Note_on_c, 0, 69, 104
1, 123233, Note_off_c, 0, 69, 104
1, 123245, Note_on_c, 0, 72, 105
1, 123279, Note_off_c, 0, 72, 105
1, 123289, Note_on_c, 0, 74, 96
1, 123327, Note_off_c, 0, 74, 96
1, 123365, Note_on_c, 0, 70, 101
1, 123446, Note_off_c, 0, 70, 101
1, 123476, Note_on_c, 0, 72, 91
1, 123510, Note_off_c, 0, 72, 91
1, 123553, Note_on_c, 0, 74, 100
1, 123613, Note_off_c, 0, 74, 100
1, 123634, Note_on_c, 0, 82, 90
1, 123793, Note_off_c, 0, 82, 90
1, 124977, Note_on_c, 0, 53, 112
1, 125088, Note_off_c, 0, 53, 112
1, 125101, Note_on_c, 0, 58, 106
1, 125203, Note_off_c, 0, 58, 106
1, 125344, Note_on_c, 0, 50, 116
1, 125404, Note_off_c, 0, 50, 116
1, 125420, Note_on_c, 0, 48, 118
1, 125519, Note_off_c, 0, 48, 118
1, 125529, Note_on_c, 0, 70, 104
1, 125568, Note_off_c, 0, 70, 104
1, 125633, Note_on_c, 0, 73, 108
1, 126029, Note_off_c, 0, 73, 108
1, 126037, Note_on_c, 0, 63, 106
1, 126123, Note_off_c, 0, 63, 106
1, 126123, Note_on_c, 0, 70, 110
1, 126226, Note_off_c, 0, 70, 110
1, 126260, Note_on_c, 0, 63, 111
1, 126380, Note_off_c, 0, 63, 111
1, 126414, Note_on_c, 0, 70, 117
1, 126560, Note_off_c, 0, 70, 117
1, 126568, Note_on_c, 0, 82, 95
1, 126679, Note_off_c, 0, 82, 95
1, 126722, Note_on_c, 0, 86, 104
1, 126816, Note_off_c, 0, 86, 104
1, 126824, Note_on_c, 0, 90, 78
1, 126867, Note_off_c, 0, 90, 78
1, 126927, Note_on_c, 0, 89, 77
1, 127021, Note_off_c, 0, 89, 77
1, 127098, Note_on_c, 0, 85, 81
1, 127175, Note_off_c, 0, 85, 81
1, 127467, Note_on_c, 0, 53, 110
1, 127561, Note_off_c, 0, 53, 110
1, 127586, Note_on_c, 0, 48, 113
1, 127680, Note_off_c, 0, 48, 113
1, 127680, Note_on_c, 0, 55, 114
1, 127796, Note_off_c, 0, 55, 114
1, 127830, Note_on_c, 0, 57, 93
1, 127898, Note_off_c, 0, 57, 93
1, 127945, Note_on_c, 0, 60, 101
1, 128026, Note_off_c, 0, 60, 101
1, 128069, Note_on_c, 0, 69, 106
1, 128159, Note_off_c, 0, 69, 106
1, 128202, Note_on_c, 0, 65, 108
1, 128292, Note_off_c, 0, 65, 108
1, 128326, Note_on_c, 0, 63, 110
1, 128390, Note_off_c, 0, 63, 110
1, 128476, Note_on_c, 0, 57, 104
1, 128691, Note_off_c, 0, 57, 104
1, 128764, Note_on_c, 0, 74, 105
1, 128949, Note_off_c, 0, 74, 105
1, 128953, Note_on_c, 0, 73, 101
1, 129103, Note_off_c, 0, 73, 101
1, 129115, Note_on_c, 0, 70, 102
1, 129252, Note_off_c, 0, 70, 102
1, 129286, Note_on_c, 0, 73, 125
1, 129458, Note_off_c, 0, 73, 125
1, 129470, Note_on_c, 0, 71, 102
1, 129538, Note_off_c, 0, 71, 102
1, 129589, Note_on_c, 0, 69, 107
1, 129752, Note_off_c, 0, 69, 107
1, 129764, Note_on_c, 0, 75, 107
1, 129824, Note_off_c, 0, 75, 107
1, 129858, Note_on_c, 0, 71, 93
1, 129939, Note_off_c, 0, 71, 93
1, 130529, Note_on_c, 0, 48, 107
1, 130623, Note_off_c, 0, 48, 107
1, 130640, Note_on_c, 0, 53, 114
1, 130739, Note_off_c, 0, 53, 114
1, 130803, Note_on_c, 0, 57, 114
1, 130927, Note_off_c, 0, 57, 114
1, 130931, Note_on_c, 0, 56, 110
1, 130974, Note_off_c, 0, 56, 110
1, 131008, Note_on_c, 0, 55, 116
1, 131085, Note_off_c, 0, 55, 116
1, 131106, Note_on_c, 0, 57, 106
1, 131153, Note_off_c, 0, 57, 106
1, 131187, Note_on_c, 0, 62, 105
1, 131329, Note_off_c, 0, 62, 105
1, 131333, Note_on_c, 0, 59, 106
1, 131440, Note_off_c, 0, 59, 106
1, 131478, Note_on_c, 0, 58, 110
1, 131598, Note_off_c, 0, 58, 110
1, 131615, Note_on_c, 0, 63, 102
1, 131666, Note_off_c, 0, 63, 102
1, 131716, Note_on_c, 0, 70, 95
1, 131815, Note_off_c, 0, 70, 95
1, 131955, Note_on_c, 0, 70, 103
1, 132045, Note_off_c, 0, 70, 103
1, 132160, Note_on_c, 0, 70, 98
1, 132244, Note_off_c, 0, 70, 98
1, 132268, Note_on_c, 0, 71, 97
1, 132328, Note_off_c, 0, 71, 97
1, 132361, Note_on_c, 0, 72, 105
1, 132448, Note_off_c, 0, 72, 105
1, 132478, Note_on_c, 0, 70, 95
1, 132587, Note_off_c, 0, 70, 95
1, 132629, Note_on_c, 0, 72, 96
1, 132771, Note_off_c, 0, 72, 96
1, 132819, Note_on_c, 0, 71, 91
1, 132876, Note_off_c, 0, 71, 91
1, 132891, Note_on_c, 0, 69, 102
1, 133036, Note_off_c, 0, 69, 102
1, 133511, Note_on_c, 0, 64, 112
1, 133644, Note_off_c, 0, 64, 112
1, 133687, Note_on_c, 0, 68, 94
1, 133936, Note_off_c, 0, 68, 94
1, 133983, Note_on_c, 0, 76, 99
1, 134125, Note_off_c, 0, 76, 99
1, 134185, Note_on_c, 0, 80, 97
1, 134378, Note_off_c, 0, 80, 97
1, 134408, Note_on_c, 0, 81, 94
1, 134584, Note_off_c, 0, 81, 94
1, 134596, Note_on_c, 0, 82, 99
1, 134682, Note_off_c, 0, 82, 99
1, 134744, Note_on_c, 0, 83, 110
1, 134962, Note_off_c, 0, 83, 110
1, 134998, Note_on_c, 0, 85, 97
1, 135191, Note_off_c, 0, 85, 97
1, 135663, Note_on_c, 0, 70, 103
1, 135844, Note_off_c, 0, 70, 103
1, 135856, Note_on_c, 0, 73, 105
1, 136013, Note_off_c, 0, 73, 105
1, 136097, Note_on_c, 0, 72, 105
1, 137090, Note_off_c, 0, 72, 105
1, 137199, Note_on_c, 0, 70, 103
1, 137404, Note_off_c, 0, 70, 103
1, 137416, Note_on_c, 0, 71, 97
1, 137597, Note_off_c, 0, 71, 97
1, 137669, Note_on_c, 0, 68, 114
1, 137887, Note_off_c, 0, 68, 114
1, 138492, Note_on_c, 0, 67, 110
1, 138685, Note_off_c, 0, 67, 110
1, 138721, Note_on_c, 0, 65, 111
1, 138854, Note_off_c, 0, 65, 111
1, 139059, Note_on_c, 0, 67, 110
1, 139155, Note_off_c, 0, 67, 110
1, 139179, Note_on_c, 0, 66, 106
1, 139336, Note_off_c, 0, 66, 106
1, 139554, Note_on_c, 0, 67, 122
1, 139699, Note_off_c, 0, 67, 122
1, 139735, Note_on_c, 0, 66, 102
1, 139916, Note_off_c, 0, 66, 102
1, 140182, Note_on_c, 0, 67, 113
1, 140363, Note_off_c, 0, 67, 113
1, 140363, Note_on_c, 0, 66, 107
1, 140508, Note_off_c, 0, 66, 107
1, 141670, Note_on_c, 0, 65, 110
1, 141806, Note_off_c, 0, 65, 110
1, 141806, Note_on_c, 0, 67, 110
1, 141930, Note_off_c, 0, 67, 110
1, 141945, Note_on_c, 0, 66, 120
1, 142014, Note_off_c, 0, 66, 120
1, 142023, Note_on_c, 0, 70, 114
1, 142074, Note_off_c, 0, 70, 114
1, 142089, Note_on_c, 0, 71, 110
1, 142143, Note_off_c, 0, 71, 110
1, 142227, Note_on_c, 0, 67, 120
1, 142311, Note_off_c, 0, 67, 120
1, 142320, Note_on_c, 0, 71, 93
1, 142398, Note_off_c, 0, 71, 93
1, 142425, Note_on_c, 0, 67, 118
1, 142591, Note_off_c, 0, 67, 118
1, 142612, Note_on_c, 0, 67, 124
1, 142696, Note_off_c, 0, 67, 124
1, 142726, Note_on_c, 0, 65, 123
1, 142813, Note_off_c, 0, 65, 123
1, 142828, Note_on_c, 0, 64, 126
1, 142955, Note_off_c, 0, 64, 126
1, 142970, Note_on_c, 0, 63, 123
1, 143094, Note_on_c, 0, 61, 115
1, 143094, Note_off_c, 0, 63, 123
1, 143187, Note_off_c, 0, 61, 115
1, 143199, Note_on_c, 0, 60, 114
1, 143277, Note_off_c, 0, 60, 114
1, 143295, Note_on_c, 0, 58, 109
1, 143367, Note_off_c, 0, 58, 109
1, 143383, Note_on_c, 0, 56, 103
1, 143454, Note_off_c, 0, 56, 103
1, 143481, Note_on_c, 0, 54, 105
1, 143547, Note_off_c, 0, 54, 105
1, 143551, Note_on_c, 0, 53, 108
1, 143613, Note_off_c, 0, 53, 108
1, 143625, Note_on_c, 0, 52, 106
1, 143691, Note_off_c, 0, 52, 106
1, 143703, Note_on_c, 0, 50, 110
1, 143761, Note_off_c, 0, 50, 110
1, 143771, Note_on_c, 0, 51, 108
1, 143844, Note_off_c, 0, 51, 108
1, 143854, Note_on_c, 0, 53, 111
1, 143914, Note_off_c, 0, 53, 111
1, 143924, Note_on_c, 0, 57, 113
1, 143990, Note_off_c, 0, 57, 113
1, 144056, Note_on_c, 0, 61, 116
1, 144124, Note_off_c, 0, 61, 116
1, 144134, Note_on_c, 0, 60, 108
1, 144196, Note_off_c, 0, 60, 108
1, 144222, Note_on_c, 0, 59, 94
1, 144305, Note_off_c, 0, 59, 94
1, 144366, Note_on_c, 0, 69, 107
1, 144449, Note_off_c, 0, 69, 107
1, 144451, Note_on_c, 0, 66, 107
1, 144561, Note_off_c, 0, 66, 107
1, 144814, Note_on_c, 0, 54, 107
1, 144934, Note_off_c, 0, 54, 107
1, 144934, Note_on_c, 0, 57, 104
1, 145045, Note_off_c, 0, 57, 104
1, 145045, Note_on_c, 0, 62, 112
1, 145139, Note_off_c, 0, 62, 112
1, 145182, Note_on_c, 0, 63, 119
1, 145276, Note_off_c, 0, 63, 119
1, 145331, Note_on_c, 0, 65, 117
1, 145434, Note_off_c, 0, 65, 117
1, 145451, Note_on_c, 0, 65, 112
1, 145515, Note_off_c, 0, 65, 112
1, 145527, Note_on_c, 0, 61, 112
1, 145643, Note_off_c, 0, 61, 112
1, 146392, Note_on_c, 0, 69, 108
1, 146439, Note_off_c, 0, 69, 108
1, 146460, Note_on_c, 0, 66, 109
1, 146528, Note_off_c, 0, 66, 109
1, 146528, Note_on_c, 0, 69, 107
1, 146579, Note_off_c, 0, 69, 107
1, 146579, Note_on_c, 0, 71, 114
1, 146708, Note_off_c, 0, 71, 114
1, 146708, Note_on_c, 0, 70, 115
1, 146802, Note_off_c, 0, 70, 115
1, 146802, Note_on_c, 0, 68, 109
1, 146965, Note_off_c, 0, 68, 109
1, 146965, Note_on_c, 0, 65, 102
1, 147163, Note_off_c, 0, 65, 102
1, 147955, Note_on_c, 0, 66, 105
1, 148023, Note_off_c, 0, 66, 105
1, 148023, Note_on_c, 0, 68, 106
1, 148100, Note_off_c, 0, 68, 106
1, 148112, Note_on_c, 0, 70, 111
1, 148249, Note_off_c, 0, 70, 111
1, 148270, Note_on_c, 0, 63, 107
1, 148381, Note_off_c, 0, 63, 107
1, 148462, Note_on_c, 0, 65, 109
1, 148716, Note_off_c, 0, 65, 109
1, 148741, Note_on_c, 0, 69, 102
1, 148891, Note_off_c, 0, 69, 102
1, 148925, Note_on_c, 0, 67, 115
1, 149183, Note_off_c, 0, 67, 115
1, 149200, Note_on_c, 0, 64, 117
1, 149337, Note_off_c, 0, 64, 117
1, 149371, Note_on_c, 0, 63, 117
1, 149599, Note_off_c, 0, 63, 117
1, 150175, Note_on_c, 0, 62, 109
1, 150514, Note_off_c, 0, 62, 109
1, 150683, Note_on_c, 0, 62, 121
1, 151022, Note_off_c, 0, 62, 121
1, 151046, Note_on_c, 0, 63, 119
1, 151373, Note_off_c, 0, 63, 119
1, 151432, Note_on_c, 0, 55, 103
1, 152049, Note_off_c, 0, 55, 103
1, 152280, Note_on_c, 0, 62, 113
1, 152510, Note_off_c, 0, 62, 113
1, 152546, Note_on_c, 0, 62, 102
1, 152727, Note_off_c, 0, 62, 102
1, 153708, Note_on_c, 0, 58, 100
1, 154010, Note_on_c, 0, 60, 92
1, 154010, Note_off_c, 0, 58, 100
1, 154288, Note_off_c, 0, 60, 92
1, 154397, Note_on_c, 0, 72, 89
1, 154651, Note_off_c, 0, 72, 89
1, 154718, Note_on_c, 0, 60, 98
1, 155105, Note_off_c, 0, 60, 98
1, 155216, Note_on_c, 0, 60, 99
1, 155319, Note_off_c, 0, 60, 99
1, 155422, Note_on_c, 0, 60, 101
1, 155551, Note_off_c, 0, 60, 101
1, 155689, Note_on_c, 0, 60, 113
1, 155967, Note_off_c, 0, 60, 113
1, 156063, Note_on_c, 0, 60, 112
1, 156317, Note_off_c, 0, 60, 112
1, 156401, Note_on_c, 0, 60, 109
1, 156582, Note_off_c, 0, 60, 109
1, 157308, Note_on_c, 0, 60, 111
1, 157586, Note_off_c, 0, 60, 111
1, 157852, Note_on_c, 0, 62, 121
1, 158094, Note_off_c, 0, 62, 121
1, 158299, Note_on_c, 0, 63, 127
1, 158553, Note_off_c, 0, 63, 127
1, 159146, Note_on_c, 0, 65, 116
1, 159364, Note_off_c, 0, 65, 116
1, 159364, Note_on_c, 0, 67, 113
1, 159897, Note_off_c, 0, 67, 113
1, 159909, Note_on_c, 0, 66, 111
1, 160260, Note_off_c, 0, 66, 111
1, 160308, Note_on_c, 0, 65, 117
1, 160792, Note_off_c, 0, 65, 117
1, 160828, Note_on_c, 0, 63, 118
1, 161106, Note_off_c, 0, 63, 118
1, 161202, Note_on_c, 0, 60, 107
1, 161504, Note_off_c, 0, 60, 107
1, 161504, End_track
0, 0, End_of_file
