0, 0, Header, 1, 1, 192
1, 0, Start_track
1, 0, Title_t, "Melody"
1, 0, Tempo, 231660
1, 0, Key_signature, -1, "major"
1, 0, Time_signature, 4, 2, 24, 8
1, 3791, Note_on_c, 0, 72, 119
1, 3897, Note_off_c, 0, 72, 119
1, 3897, Note_on_c, 0, 70, 107
1, 3984, Note_on_c, 0, 69, 108
1, 3984, Note_off_c, 0, 70, 107
1, 4090, Note_off_c, 0, 69, 108
1, 4096, Note_on_c, 0, 67, 98
1, 4186, Note_off_c, 0, 67, 98
1, 4186, Note_on_c, 0, 62, 99
1, 4278, Note_on_c, 0, 64, 102
1, 4278, Note_off_c, 0, 62, 99
1, 4370, Note_off_c, 0, 64, 102
1, 4370, Note_on_c, 0, 65, 101
1, 4478, Note_off_c, 0, 65, 101
1, 4478, Note_on_c, 0, 62, 105
1, 4582, Note_off_c, 0, 62, 105
1, 4582, Note_on_c, 0, 64, 102
1, 4665, Note_off_c, 0, 64, 102
1, 4665, Note_on_c, 0, 65, 97
1, 4767, Note_off_c, 0, 65, 97
1, 4767, Note_on_c, 0, 67, 95
1, 4879, Note_off_c, 0, 67, 95
1, 4879, Note_on_c, 0, 65, 102
1, 4962, Note_off_c, 0, 65, 102
1, 4962, Note_on_c, 0, 64, 103
1, 5050, Note_on_c, 0, 62, 102
1, 5050, Note_off_c, 0, 64, 103
1, 5132, Note_off_c, 0, 62, 102
1, 5136, Note_on_c, 0, 60, 98
1, 5241, Note_on_c, 0, 59, 87
1, 5241, Note_off_c, 0, 60, 98
1, 5329, Note_off_c, 0, 59, 87
1, 5329, Note_on_c, 0, 58, 88
1, 5429, Note_off_c, 0, 58, 88
1, 5432, Note_on_c, 0, 62, 104
1, 5530, Note_off_c, 0, 62, 104
1, 5530, Note_on_c, 0, 60, 95
1, 5640, Note_off_c, 0, 60, 95
1, 5640, Note_on_c, 0, 58, 92
1, 5724, Note_off_c, 0, 58, 92
1, 5724, Note_on_c, 0, 57, 91
1, 5825, Note_off_c, 0, 57, 91
1, 5902, Note_on_c, 0, 67, 98
1, 5991, Note_off_c, 0, 67, 98
1, 6093, Note_on_c, 0, 65, 99
1, 6205, Note_off_c, 0, 65, 99
1, 6214, Note_on_c, 0, 63, 110
1, 6300, Note_off_c, 0, 63, 110
1, 6300, Note_on_c, 0, 62, 94
1, 6402, Note_off_c, 0, 62, 94
1, 6408, Note_on_c, 0, 60, 102
1, 6502, Note_off_c, 0, 60, 102
1, 6502, Note_on_c, 0, 58, 95
1, 6592, Note_off_c, 0, 58, 95
1, 6592, Note_on_c, 0, 57, 97
1, 6669, Note_off_c, 0, 57, 97
1, 6677, Note_on_c, 0, 55, 88
1, 6793, Note_off_c, 0, 55, 88
1, 6793, Note_on_c, 0, 53, 95
1, 7076, Note_off_c, 0, 53, 95
1, 7592, Note_on_c, 0, 50, 98
1, 7709, Note_off_c, 0, 50, 98
1, 7709, Note_on_c, 0, 53, 96
1, 7805, Note_off_c, 0, 53, 96
1, 7805, Note_on_c, 0, 55, 89
1, 7867, Note_off_c, 0, 55, 89
1, 8001, Note_on_c, 0, 60, 110
1, 8116, Note_on_c, 0, 59, 100
1, 8116, Note_off_c, 0, 60, 110
1, 8209, Note_off_c, 0, 59, 100
1, 8209, Note_on_c, 0, 58, 96
1, 8307, Note_off_c, 0, 58, 96
1, 8307, Note_on_c, 0, 57, 88
1, 8405, Note_off_c, 0, 57, 88
1, 8412, Note_on_c, 0, 55, 91
1, 8522, Note_off_c, 0, 55, 91
1, 8522, Note_on_c, 0, 53, 100
1, 8610, Note_off_c, 0, 53, 100
1, 8610, Note_on_c, 0, 52, 91
1, 8701, Note_off_c, 0, 52, 91
1, 8701, Note_on_c, 0, 53, 94
1, 8791, Note_off_c, 0, 53, 94
1, 8804, Note_on_c, 0, 57, 86
1, 8881, Note_off_c, 0, 57, 86
1, 8901, Note_on_c, 0, 60, 102
1, 8987, Note_off_c, 0, 60, 102
1, 8987, Note_on_c, 0, 62, 92
1, 9073, Note_off_c, 0, 62, 92
1, 9073, Note_on_c, 0, 64, 93
1, 9145, Note_off_c, 0, 64, 93
1, 9151, Note_on_c, 0, 67, 89
1, 9235, Note_off_c, 0, 67, 89
1, 9261, Note_on_c, 0, 64, 90
1, 9352, Note_off_c, 0, 64, 90
1, 9352, Note_on_c, 0, 65, 100
1, 9469, Note_on_c, 0, 69, 98
1, 9469, Note_off_c, 0, 65, 100
1, 9545, Note_off_c, 0, 69, 98
1, 9545, Note_on_c, 0, 72, 111
1, 9689, Note_off_c, 0, 72, 111
1, 9902, Note_on_c, 0, 69, 110
1, 9996, Note_off_c, 0, 69, 110
1, 10016, Note_on_c, 0, 67, 87
1, 10101, Note_off_c, 0, 67, 87
1, 10103, Note_on_c, 0, 65, 94
1, 10209, Note_off_c, 0, 65, 94
1, 10310, Note_on_c, 0, 74, 108
1, 10493, Note_off_c, 0, 74, 108
1, 10493, Note_on_c, 0, 72, 108
1, 10613, Note_off_c, 0, 72, 108
1, 10613, Note_on_c, 0, 70, 106
1, 10701, Note_off_c, 0, 70, 106
1, 10701, Note_on_c, 0, 69, 99
1, 10815, Note_off_c, 0, 69, 99
1, 10817, Note_on_c, 0, 67, 88
1, 10908, Note_off_c, 0, 67, 88
1, 10908, Note_on_c, 0, 65, 96
1, 10998, Note_off_c, 0, 65, 96
1, 10998, Note_on_c, 0, 64, 100
1, 11079, Note_off_c, 0, 64, 100
1, 11079, Note_on_c, 0, 67, 95
1, 11182, Note_off_c, 0, 67, 95
1, 11192, Note_on_c, 0, 65, 99
1, 11273, Note_off_c, 0, 65, 99
1, 11273, Note_on_c, 0, 64, 100
1, 11361, Note_off_c, 0, 64, 100
1, 11361, Note_on_c, 0, 62, 95
1, 11455, Note_off_c, 0, 62, 95
1, 11455, Note_on_c, 0, 60, 91
1, 11561, Note_off_c, 0, 60, 91
1, 11565, Note_on_c, 0, 59, 87
1, 11649, Note_off_c, 0, 59, 87
1, 11649, Note_on_c, 0, 58, 86
1, 11743, Note_off_c, 0, 58, 86
1, 11743, Note_on_c, 0, 62, 101
1, 11835, Note_off_c, 0, 62, 101
1, 11840, Note_on_c, 0, 57, 93
1, 11924, Note_off_c, 0, 57, 93
1, 11924, Note_on_c, 0, 58, 92
1, 12018, Note_off_c, 0, 58, 92
1, 12018, Note_on_c, 0, 60, 103
1, 12102, Note_off_c, 0, 60, 103
1, 12102, Note_on_c, 0, 62, 104
1, 12196, Note_off_c, 0, 62, 104
1, 12196, Note_on_c, 0, 64, 97
1, 12280, Note_on_c, 0, 65, 91
1, 12280, Note_off_c, 0, 64, 97
1, 12363, Note_off_c, 0, 65, 91
1, 12367, Note_on_c, 0, 67, 93
1, 12508, Note_off_c, 0, 67, 93
1, 12565, Note_on_c, 0, 60, 95
1, 12717, Note_off_c, 0, 60, 95
1, 12885, Note_on_c, 0, 60, 90
1, 12972, Note_off_c, 0, 60, 90
1, 13569, Note_on_c, 0, 57, 93
1, 13651, Note_on_c, 0, 58, 89
1, 13651, Note_off_c, 0, 57, 93
1, 13733, Note_off_c, 0, 58, 89
1, 13755, Note_on_c, 0, 60, 105
1, 13849, Note_off_c, 0, 60, 105
1, 13849, Note_on_c, 0, 59, 99
1, 13920, Note_off_c, 0, 59, 99
1, 13920, Note_on_c, 0, 58, 89
1, 14034, Note_off_c, 0, 58, 89
1, 14044, Note_on_c, 0, 61, 116
1, 14120, Note_off_c, 0, 61, 116
1, 14127, Note_on_c, 0, 60, 97
1, 14233, Note_off_c, 0, 60, 97
1, 14246, Note_on_c, 0, 58, 93
1, 14330, Note_off_c, 0, 58, 93
1, 14332, Note_on_c, 0, 57, 85
1, 14439, Note_off_c, 0, 57, 85
1, 14439, Note_on_c, 0, 60, 93
1, 14527, Note_off_c, 0, 60, 93
1, 14527, Note_on_c, 0, 62, 97
1, 14634, Note_off_c, 0, 62, 97
1, 14636, Note_on_c, 0, 64, 98
1, 14720, Note_off_c, 0, 64, 98
1, 14720, Note_on_c, 0, 65, 99
1, 14828, Note_off_c, 0, 65, 99
1, 14828, Note_on_c, 0, 67, 90
1, 14916, Note_off_c, 0, 67, 90
1, 15650, Note_on_c, 0, 68, 122
1, 15779, Note_off_c, 0, 68, 122
1, 15779, Note_on_c, 0, 67, 109
1, 15862, Note_off_c, 0, 67, 109
1, 15862, Note_on_c, 0, 65, 113
1, 15968, Note_off_c, 0, 65, 113
1, 15970, Note_on_c, 0, 63, 112
1, 16047, Note_off_c, 0, 63, 112
1, 16049, Note_on_c, 0, 61, 104
1, 16154, Note_off_c, 0, 61, 104
1, 16154, Note_on_c, 0, 60, 108
1, 16230, Note_off_c, 0, 60, 108
1, 16230, Note_on_c, 0, 58, 95
1, 16413, Note_off_c, 0, 58, 95
1, 16415, Note_on_c, 0, 59, 93
1, 16604, Note_on_c, 0, 62, 98
1, 16604, Note_off_c, 0, 59, 93
1, 16816, Note_off_c, 0, 62, 98
1, 16816, Note_on_c, 0, 66, 104
1, 16933, Note_off_c, 0, 66, 104
1, 16933, Note_on_c, 0, 64, 99
1, 17020, Note_off_c, 0, 64, 99
1, 17020, Note_on_c, 0, 62, 100
1, 17123, Note_off_c, 0, 62, 100
1, 17125, Note_on_c, 0, 61, 103
1, 17225, Note_on_c, 0, 59, 107
1, 17225, Note_off_c, 0, 61, 103
1, 17308, Note_off_c, 0, 59, 107
1, 17308, Note_on_c, 0, 58, 99
1, 17393, Note_off_c, 0, 58, 99
1, 17393, Note_on_c, 0, 56, 97
1, 17578, Note_off_c, 0, 56, 97
1, 17578, Note_on_c, 0, 58, 94
1, 17765, Note_off_c, 0, 58, 94
1, 17767, Note_on_c, 0, 59, 89
1, 17980, Note_off_c, 0, 59, 89
1, 17980, Note_on_c, 0, 66, 102
1, 18078, Note_on_c, 0, 64, 106
1, 18078, Note_off_c, 0, 66, 102
1, 18162, Note_off_c, 0, 64, 106
1, 18162, Note_on_c, 0, 62, 97
1, 18270, Note_off_c, 0, 62, 97
1, 18285, Note_on_c, 0, 61, 101
1, 18385, Note_off_c, 0, 61, 101
1, 18390, Note_on_c, 0, 59, 97
1, 18466, Note_off_c, 0, 59, 97
1, 18466, Note_on_c, 0, 57, 91
1, 18555, Note_off_c, 0, 57, 91
1, 18555, Note_on_c, 0, 56, 95
1, 18653, Note_off_c, 0, 56, 95
1, 18653, Note_on_c, 0, 54, 96
1, 18752, Note_off_c, 0, 54, 96
1, 18752, Note_on_c, 0, 53, 106
1, 18840, Note_off_c, 0, 53, 106
1, 18840, Note_on_c, 0, 49, 104
1, 18938, Note_off_c, 0, 49, 104
1, 18938, Note_on_c, 0, 51, 95
1, 19045, Note_off_c, 0, 51, 95
1, 19048, Note_on_c, 0, 53, 99
1, 19135, Note_off_c, 0, 53, 99
1, 19135, Note_on_c, 0, 54, 94
1, 19218, Note_off_c, 0, 54, 94
1, 19246, Note_on_c, 0, 56, 91
1, 19310, Note_off_c, 0, 56, 91
1, 19310, Note_on_c, 0, 57, 87
1, 19404, Note_off_c, 0, 57, 87
1, 19404, Note_on_c, 0, 59, 89
1, 19481, Note_off_c, 0, 59, 89
1, 19481, Note_on_c, 0, 61, 114
1, 19571, Note_off_c, 0, 61, 114
1, 19578, Note_on_c, 0, 63, 114
1, 19639, Note_off_c, 0, 63, 114
1, 19658, Note_on_c, 0, 65, 98
1, 19745, Note_off_c, 0, 65, 98
1, 19745, Note_on_c, 0, 66, 95
1, 19811, Note_off_c, 0, 66, 95
1, 19849, Note_on_c, 0, 68, 95
1, 20105, Note_off_c, 0, 68, 95
1, 20826, Note_on_c, 0, 69, 118
1, 20934, Note_off_c, 0, 69, 118
1, 20934, Note_on_c, 0, 67, 105
1, 21025, Note_off_c, 0, 67, 105
1, 21025, Note_on_c, 0, 66, 103
1, 21109, Note_off_c, 0, 66, 103
1, 21109, Note_on_c, 0, 67, 95
1, 21196, Note_off_c, 0, 67, 95
1, 21199, Note_on_c, 0, 70, 119
1, 21290, Note_off_c, 0, 70, 119
1, 21290, Note_on_c, 0, 69, 116
1, 21371, Note_off_c, 0, 69, 116
1, 21371, Note_on_c, 0, 67, 99
1, 21484, Note_off_c, 0, 67, 99
1, 21485, Note_on_c, 0, 65, 110
1, 21572, Note_off_c, 0, 65, 110
1, 21572, Note_on_c, 0, 64, 103
1, 21673, Note_off_c, 0, 64, 103
1, 21673, Note_on_c, 0, 62, 100
1, 21754, Note_off_c, 0, 62, 100
1, 21754, Note_on_c, 0, 60, 103
1, 21837, Note_off_c, 0, 60, 103
1, 21858, Note_on_c, 0, 58, 94
1, 21924, Note_off_c, 0, 58, 94
1, 21945, Note_on_c, 0, 57, 88
1, 22046, Note_off_c, 0, 57, 88
1, 22046, Note_on_c, 0, 60, 92
1, 22158, Note_off_c, 0, 60, 92
1, 22169, Note_on_c, 0, 62, 85
1, 22272, Note_off_c, 0, 62, 85
1, 22272, Note_on_c, 0, 64, 99
1, 22352, Note_off_c, 0, 64, 99
1, 22362, Note_on_c, 0, 67, 95
1, 22458, Note_off_c, 0, 67, 95
1, 22458, Note_on_c, 0, 65, 97
1, 22549, Note_off_c, 0, 65, 97
1, 22559, Note_on_c, 0, 64, 99
1, 22658, Note_off_c, 0, 64, 99
1, 22658, Note_on_c, 0, 65, 99
1, 22765, Note_off_c, 0, 65, 99
1, 22765, Note_on_c, 0, 72, 127
1, 22832, Note_off_c, 0, 72, 127
1, 22943, Note_on_c, 0, 70, 113
1, 23051, Note_off_c, 0, 70, 113
1, 23051, Note_on_c, 0, 69, 109
1, 23128, Note_off_c, 0, 69, 109
1, 23128, Note_on_c, 0, 67, 89
1, 23222, Note_off_c, 0, 67, 89
1, 23236, Note_on_c, 0, 65, 104
1, 23317, Note_off_c, 0, 65, 104
1, 23327, Note_on_c, 0, 64, 108
1, 23427, Note_off_c, 0, 64, 108
1, 23427, Note_on_c, 0, 60, 100
1, 23513, Note_on_c, 0, 62, 92
1, 23513, Note_off_c, 0, 60, 100
1, 23596, Note_off_c, 0, 62, 92
1, 23596, Note_on_c, 0, 64, 96
1, 23677, Note_off_c, 0, 64, 96
1, 23677, Note_on_c, 0, 67, 102
1, 23764, Note_off_c, 0, 67, 102
1, 23788, Note_on_c, 0, 66, 104
1, 23866, Note_off_c, 0, 66, 104
1, 23876, Note_on_c, 0, 65, 92
1, 23974, Note_off_c, 0, 65, 92
1, 23975, Note_on_c, 0, 62, 97
1, 24066, Note_off_c, 0, 62, 97
1, 24075, Note_on_c, 0, 58, 89
1, 24181, Note_off_c, 0, 58, 89
1, 24184, Note_on_c, 0, 55, 82
1, 24279, Note_off_c, 0, 55, 82
1, 24279, Note_on_c, 0, 57, 86
1, 24371, Note_off_c, 0, 57, 86
1, 24371, Note_on_c, 0, 58, 84
1, 24452, Note_off_c, 0, 58, 84
1, 24467, Note_on_c, 0, 60, 101
1, 24557, Note_off_c, 0, 60, 101
1, 24557, Note_on_c, 0, 62, 104
1, 24647, Note_off_c, 0, 62, 104
1, 24647, Note_on_c, 0, 63, 99
1, 24746, Note_off_c, 0, 63, 99
1, 24746, Note_on_c, 0, 65, 98
1, 24833, Note_off_c, 0, 65, 98
1, 24833, Note_on_c, 0, 67, 107
1, 24953, Note_off_c, 0, 67, 107
1, 25585, Note_on_c, 0, 62, 112
1, 25703, Note_off_c, 0, 62, 112
1, 25703, Note_on_c, 0, 65, 90
1, 25767, Note_off_c, 0, 65, 90
1, 25767, Note_on_c, 0, 72, 117
1, 25875, Note_off_c, 0, 72, 117
1, 25875, Note_on_c, 0, 70, 112
1, 25953, Note_off_c, 0, 70, 112
1, 26070, Note_on_c, 0, 65, 109
1, 26151, Note_off_c, 0, 65, 109
1, 26151, Note_on_c, 0, 61, 113
1, 26228, Note_off_c, 0, 61, 113
1, 26228, Note_on_c, 0, 60, 103
1, 26287, Note_off_c, 0, 60, 103
1, 26305, Note_on_c, 0, 58, 101
1, 26412, Note_off_c, 0, 58, 101
1, 26430, Note_on_c, 0, 57, 94
1, 26517, Note_off_c, 0, 57, 94
1, 26517, Note_on_c, 0, 55, 89
1, 26616, Note_off_c, 0, 55, 89
1, 26621, Note_on_c, 0, 53, 99
1, 26712, Note_off_c, 0, 53, 99
1, 26712, Note_on_c, 0, 52, 92
1, 26823, Note_off_c, 0, 52, 92
1, 26826, Note_on_c, 0, 53, 94
1, 26900, Note_on_c, 0, 57, 91
1, 26900, Note_off_c, 0, 53, 94
1, 26988, Note_off_c, 0, 57, 91
1, 27007, Note_on_c, 0, 60, 103
1, 27094, Note_off_c, 0, 60, 103
1, 27094, Note_on_c, 0, 62, 88
1, 27193, Note_off_c, 0, 62, 88
1, 27215, Note_on_c, 0, 64, 97
1, 27289, Note_on_c, 0, 67, 97
1, 27289, Note_off_c, 0, 64, 97
1, 27390, Note_off_c, 0, 67, 97
1, 27413, Note_on_c, 0, 64, 102
1, 27500, Note_on_c, 0, 65, 100
1, 27500, Note_off_c, 0, 64, 102
1, 27606, Note_off_c, 0, 65, 100
1, 27606, Note_on_c, 0, 67, 94
1, 27688, Note_off_c, 0, 67, 94
1, 27689, Note_on_c, 0, 69, 94
1, 27790, Note_off_c, 0, 69, 94
1, 27790, Note_on_c, 0, 70, 101
1, 27893, Note_off_c, 0, 70, 101
1, 27893, Note_on_c, 0, 72, 100
1, 28014, Note_off_c, 0, 72, 100
1, 28014, End_track
0, 0, End_of_file
