0, 0, Header, 1, 1, 192
1, 0, Start_track
1, 0, Title_t, "Melody"
1, 0, Tempo, 342857
1, 0, Key_signature, -1, "major"
1, 0, Time_signature, 4, 2, 24, 8
1, 1890, Note_on_c, 0, 62, 118
1, 2004, Note_off_c, 0, 62, 118
1, 2020, Note_on_c, 0, 65, 113
1, 2113, Note_off_c, 0, 65, 113
1, 2205, Note_on_c, 0, 69, 125
1, 2289, Note_off_c, 0, 69, 125
1, 2295, Note_on_c, 0, 72, 119
1, 2387, Note_off_c, 0, 72, 119
1, 2399, Note_on_c, 0, 71, 117
1, 2491, Note_off_c, 0, 71, 117
1, 2499, Note_on_c, 0, 70, 108
1, 2587, Note_off_c, 0, 70, 108
1, 2587, Note_on_c, 0, 69, 115
1, 2687, Note_off_c, 0, 69, 115
1, 2692, Note_on_c, 0, 67, 101
1, 2778, Note_off_c, 0, 67, 101
1, 2779, Note_on_c, 0, 65, 105
1, 2870, Note_off_c, 0, 65, 105
1, 2878, Note_on_c, 0, 64, 110
1, 2995, Note_off_c, 0, 64, 110
1, 2996, Note_on_c, 0, 65, 110
1, 3092, Note_off_c, 0, 65, 110
1, 3159, Note_on_c, 0, 69, 120
1, 3241, Note_off_c, 0, 69, 120
1, 3246, Note_on_c, 0, 74, 116
1, 3336, Note_off_c, 0, 74, 116
1, 3347, Note_on_c, 0, 72, 123
1, 3429, Note_off_c, 0, 72, 123
1, 3437, Note_on_c, 0, 70, 105
1, 3531, Note_off_c, 0, 70, 105
1, 3541, Note_on_c, 0, 69, 117
1, 3621, Note_off_c, 0, 69, 117
1, 3634, Note_on_c, 0, 67, 102
1, 3723, Note_off_c, 0, 67, 102
1, 3723, Note_on_c, 0, 65, 104
1, 3784, Note_off_c, 0, 65, 104
1, 3791, Note_on_c, 0, 64, 109
1, 3905, Note_off_c, 0, 64, 109
1, 3918, Note_on_c, 0, 62, 108
1, 3985, Note_off_c, 0, 62, 108
1, 3997, Note_on_c, 0, 60, 114
1, 4091, Note_off_c, 0, 60, 114
1, 4103, Note_on_c, 0, 58, 100
1, 4160, Note_off_c, 0, 58, 100
1, 4187, Note_on_c, 0, 56, 97
1, 4288, Note_off_c, 0, 56, 97
1, 4298, Note_on_c, 0, 60, 108
1, 4396, Note_off_c, 0, 60, 108
1, 4466, Note_on_c, 0, 63, 127
1, 4552, Note_off_c, 0, 63, 127
1, 4557, Note_on_c, 0, 67, 105
1, 4690, Note_off_c, 0, 67, 105
1, 4731, Note_on_c, 0, 59, 106
1, 4879, Note_off_c, 0, 59, 106
1, 4891, Note_on_c, 0, 66, 102
1, 4987, Note_off_c, 0, 66, 102
1, 4992, Note_on_c, 0, 64, 108
1, 5075, Note_off_c, 0, 64, 108
1, 5079, Note_on_c, 0, 62, 105
1, 5146, Note_off_c, 0, 62, 105
1, 5152, Note_on_c, 0, 60, 103
1, 5236, Note_off_c, 0, 60, 103
1, 5238, Note_on_c, 0, 59, 102
1, 5328, Note_off_c, 0, 59, 102
1, 5339, Note_on_c, 0, 57, 96
1, 5429, Note_off_c, 0, 57, 96
1, 5430, Note_on_c, 0, 55, 96
1, 5495, Note_off_c, 0, 55, 96
1, 5509, Note_on_c, 0, 54, 99
1, 5593, Note_off_c, 0, 54, 99
1, 5603, Note_on_c, 0, 57, 97
1, 5673, Note_off_c, 0, 57, 97
1, 5704, Note_on_c, 0, 61, 120
1, 5788, Note_off_c, 0, 61, 120
1, 5802, Note_on_c, 0, 64, 111
1, 5883, Note_off_c, 0, 64, 111
1, 5897, Note_on_c, 0, 68, 116
1, 6001, Note_off_c, 0, 68, 116
1, 6008, Note_on_c, 0, 66, 91
1, 6075, Note_off_c, 0, 66, 91
1, 6085, Note_on_c, 0, 63, 106
1, 6144, Note_off_c, 0, 63, 106
1, 6159, Note_on_c, 0, 64, 105
1, 6209, Note_off_c, 0, 64, 105
1, 6220, Note_on_c, 0, 67, 100
1, 6282, Note_off_c, 0, 67, 100
1, 6283, Note_on_c, 0, 72, 98
1, 6465, Note_off_c, 0, 72, 98
1, 7025, Note_on_c, 0, 69, 121
1, 7125, Note_off_c, 0, 69, 121
1, 7138, Note_on_c, 0, 70, 108
1, 7205, Note_off_c, 0, 70, 108
1, 7215, Note_on_c, 0, 72, 126
1, 7315, Note_off_c, 0, 72, 126
1, 7321, Note_on_c, 0, 74, 120
1, 7414, Note_off_c, 0, 74, 120
1, 7419, Note_on_c, 0, 75, 124
1, 7535, Note_off_c, 0, 75, 124
1, 7593, Note_on_c, 0, 72, 114
1, 7786, Note_off_c, 0, 72, 114
1, 7792, Note_on_c, 0, 74, 116
1, 7889, Note_off_c, 0, 74, 116
1, 7892, Note_on_c, 0, 72, 120
1, 7984, Note_off_c, 0, 72, 120
1, 7987, Note_on_c, 0, 70, 107
1, 8080, Note_off_c, 0, 70, 107
1, 8085, Note_on_c, 0, 69, 111
1, 8177, Note_off_c, 0, 69, 111
1, 8190, Note_on_c, 0, 67, 97
1, 8273, Note_off_c, 0, 67, 97
1, 8284, Note_on_c, 0, 65, 100
1, 8352, Note_off_c, 0, 65, 100
1, 8357, Note_on_c, 0, 64, 108
1, 8467, Note_off_c, 0, 64, 108
1, 8475, Note_on_c, 0, 65, 98
1, 8557, Note_off_c, 0, 65, 98
1, 8563, Note_on_c, 0, 67, 102
1, 8656, Note_off_c, 0, 67, 102
1, 8665, Note_on_c, 0, 69, 118
1, 8765, Note_off_c, 0, 69, 118
1, 8770, Note_on_c, 0, 70, 99
1, 8842, Note_off_c, 0, 70, 99
1, 8854, Note_on_c, 0, 72, 121
1, 8952, Note_off_c, 0, 72, 121
1, 8953, Note_on_c, 0, 73, 118
1, 9053, Note_off_c, 0, 73, 118
1, 9058, Note_on_c, 0, 69, 115
1, 9130, Note_on_c, 0, 64, 109
1, 9130, Note_off_c, 0, 69, 115
1, 9231, Note_off_c, 0, 64, 109
1, 9251, Note_on_c, 0, 61, 109
1, 9486, Note_off_c, 0, 61, 109
1, 9534, Note_on_c, 0, 64, 112
1, 9627, Note_off_c, 0, 64, 112
1, 9637, Note_on_c, 0, 61, 108
1, 9696, Note_off_c, 0, 61, 108
1, 9714, Note_on_c, 0, 64, 110
1, 9827, Note_off_c, 0, 64, 110
1, 9835, Note_on_c, 0, 61, 117
1, 9914, Note_off_c, 0, 61, 117
1, 9924, Note_on_c, 0, 60, 94
1, 10302, Note_off_c, 0, 60, 94
1, 10880, Note_on_c, 0, 62, 122
1, 10963, Note_off_c, 0, 62, 122
1, 10963, Note_on_c, 0, 60, 107
1, 11060, Note_off_c, 0, 60, 107
1, 11060, Note_on_c, 0, 59, 99
1, 11134, Note_off_c, 0, 59, 99
1, 11156, Note_on_c, 0, 62, 116
1, 11221, Note_off_c, 0, 62, 116
1, 11243, Note_on_c, 0, 66, 108
1, 11332, Note_off_c, 0, 66, 108
1, 11341, Note_on_c, 0, 64, 114
1, 11435, Note_off_c, 0, 64, 114
1, 11442, Note_on_c, 0, 62, 113
1, 11528, Note_off_c, 0, 62, 113
1, 11537, Note_on_c, 0, 60, 107
1, 11627, Note_off_c, 0, 60, 107
1, 11628, Note_on_c, 0, 59, 99
1, 11728, Note_off_c, 0, 59, 99
1, 11728, Note_on_c, 0, 57, 101
1, 11803, Note_off_c, 0, 57, 101
1, 11810, Note_on_c, 0, 56, 97
1, 11911, Note_off_c, 0, 56, 97
1, 11921, Note_on_c, 0, 59, 103
1, 11985, Note_off_c, 0, 59, 103
1, 12008, Note_on_c, 0, 64, 119
1, 12099, Note_off_c, 0, 64, 119
1, 12104, Note_on_c, 0, 63, 121
1, 12197, Note_off_c, 0, 63, 121
1, 12197, Note_on_c, 0, 61, 112
1, 12299, Note_off_c, 0, 61, 112
1, 12304, Note_on_c, 0, 60, 105
1, 12380, Note_off_c, 0, 60, 105
1, 12388, Note_on_c, 0, 58, 102
1, 12466, Note_off_c, 0, 58, 102
1, 12490, Note_on_c, 0, 57, 105
1, 12570, Note_off_c, 0, 57, 105
1, 12571, Note_on_c, 0, 55, 97
1, 12641, Note_off_c, 0, 55, 97
1, 12646, Note_on_c, 0, 53, 102
1, 12750, Note_off_c, 0, 53, 102
1, 12756, Note_on_c, 0, 52, 104
1, 12813, Note_off_c, 0, 52, 104
1, 12822, Note_on_c, 0, 53, 98
1, 12875, Note_off_c, 0, 53, 98
1, 12886, Note_on_c, 0, 57, 94
1, 12924, Note_off_c, 0, 57, 94
1, 12927, Note_on_c, 0, 62, 111
1, 12992, Note_off_c, 0, 62, 111
1, 13037, Note_on_c, 0, 55, 96
1, 13072, Note_off_c, 0, 55, 96
1, 13075, Note_on_c, 0, 57, 98
1, 13125, Note_off_c, 0, 57, 98
1, 13136, Note_on_c, 0, 60, 92
1, 13180, Note_off_c, 0, 60, 92
1, 13191, Note_on_c, 0, 64, 107
1, 13256, Note_off_c, 0, 64, 107
1, 13262, Note_on_c, 0, 67, 111
1, 13337, Note_off_c, 0, 67, 111
1, 13340, Note_on_c, 0, 65, 109
1, 13405, Note_off_c, 0, 65, 109
1, 13408, Note_on_c, 0, 64, 111
1, 13476, Note_off_c, 0, 64, 111
1, 13482, Note_on_c, 0, 62, 108
1, 13539, Note_off_c, 0, 62, 108
1, 13539, Note_on_c, 0, 60, 103
1, 13624, Note_off_c, 0, 60, 103
1, 13624, Note_on_c, 0, 58, 96
1, 13658, Note_off_c, 0, 58, 96
1, 13669, Note_on_c, 0, 57, 98
1, 13735, Note_off_c, 0, 57, 98
1, 13745, Note_on_c, 0, 55, 95
1, 13785, Note_off_c, 0, 55, 95
1, 13798, Note_on_c, 0, 53, 106
1, 13882, Note_off_c, 0, 53, 106
1, 13892, Note_on_c, 0, 51, 90
1, 14110, Note_off_c, 0, 51, 90
1, 14110, End_track
0, 0, End_of_file
