0, 0, Header, 1, 1, 192
1, 0, Start_track
1, 0, Title_t, "Melody"
1, 0, Tempo, 221402
1, 0, Key_signature, -1, "major"
1, 0, Time_signature, 4, 2, 24, 8
1, 2268, Note_on_c, 0, 68, 86
1, 2375, Note_off_c, 0, 68, 86
1, 2392, Note_on_c, 0, 69, 69
1, 2454, Note_off_c, 0, 69, 69
1, 2460, Note_on_c, 0, 72, 110
1, 2581, Note_off_c, 0, 72, 110
1, 2587, Note_on_c, 0, 69, 94
1, 2667, Note_off_c, 0, 69, 94
1, 2675, Note_on_c, 0, 65, 97
1, 2775, Note_off_c, 0, 65, 97
1, 2786, Note_on_c, 0, 62, 90
1, 2823, Note_off_c, 0, 62, 90
1, 2834, Note_on_c, 0, 64, 88
1, 3025, Note_off_c, 0, 64, 88
1, 3056, Note_on_c, 0, 61, 95
1, 3173, Note_off_c, 0, 61, 95
1, 3196, Note_on_c, 0, 62, 100
1, 3369, Note_off_c, 0, 62, 100
1, 3383, Note_on_c, 0, 57, 75
1, 3705, Note_off_c, 0, 57, 75
1, 4553, Note_on_c, 0, 60, 97
1, 4637, Note_off_c, 0, 60, 97
1, 4648, Note_on_c, 0, 63, 101
1, 4757, Note_off_c, 0, 63, 101
1, 4763, Note_on_c, 0, 62, 86
1, 4834, Note_off_c, 0, 62, 86
1, 4843, Note_on_c, 0, 60, 76
1, 4902, Note_off_c, 0, 60, 76
1, 4924, Note_on_c, 0, 65, 111
1, 5040, Note_off_c, 0, 65, 111
1, 5045, Note_on_c, 0, 62, 96
1, 5113, Note_off_c, 0, 62, 96
1, 5125, Note_on_c, 0, 58, 81
1, 5228, Note_off_c, 0, 58, 81
1, 5240, Note_on_c, 0, 55, 84
1, 5306, Note_off_c, 0, 55, 84
1, 5449, Note_on_c, 0, 58, 83
1, 5527, Note_off_c, 0, 58, 83
1, 5542, Note_on_c, 0, 57, 74
1, 5608, Note_off_c, 0, 57, 74
1, 5619, Note_on_c, 0, 55, 78
1, 5689, Note_off_c, 0, 55, 78
1, 5712, Note_on_c, 0, 60, 98
1, 5801, Note_off_c, 0, 60, 98
1, 5808, Note_on_c, 0, 57, 84
1, 5872, Note_off_c, 0, 57, 84
1, 5888, Note_on_c, 0, 58, 76
1, 5989, Note_off_c, 0, 58, 76
1, 5997, Note_on_c, 0, 60, 100
1, 6065, Note_off_c, 0, 60, 100
1, 6081, Note_on_c, 0, 62, 97
1, 6160, Note_off_c, 0, 62, 97
1, 6171, Note_on_c, 0, 64, 94
1, 6253, Note_off_c, 0, 64, 94
1, 6268, Note_on_c, 0, 65, 94
1, 6363, Note_off_c, 0, 65, 94
1, 6375, Note_on_c, 0, 67, 91
1, 6442, Note_off_c, 0, 67, 91
1, 6447, Note_on_c, 0, 69, 105
1, 6551, Note_off_c, 0, 69, 105
1, 7622, Note_on_c, 0, 70, 108
1, 7729, Note_off_c, 0, 70, 108
1, 7733, Note_on_c, 0, 67, 82
1, 7811, Note_off_c, 0, 67, 82
1, 7814, Note_on_c, 0, 72, 123
1, 7919, Note_off_c, 0, 72, 123
1, 7933, Note_on_c, 0, 69, 105
1, 8032, Note_off_c, 0, 69, 105
1, 8041, Note_on_c, 0, 65, 97
1, 8118, Note_off_c, 0, 65, 97
1, 8120, Note_on_c, 0, 62, 100
1, 8216, Note_off_c, 0, 62, 100
1, 8414, Note_on_c, 0, 64, 103
1, 8523, Note_off_c, 0, 64, 103
1, 8528, Note_on_c, 0, 61, 102
1, 8651, Note_off_c, 0, 61, 102
1, 9177, Note_on_c, 0, 62, 103
1, 9241, Note_off_c, 0, 62, 103
1, 9263, Note_on_c, 0, 59, 82
1, 9342, Note_off_c, 0, 59, 82
1, 9344, Note_on_c, 0, 61, 97
1, 9418, Note_off_c, 0, 61, 97
1, 9433, Note_on_c, 0, 62, 90
1, 9521, Note_off_c, 0, 62, 90
1, 9538, Note_on_c, 0, 64, 98
1, 9636, Note_off_c, 0, 64, 98
1, 9639, Note_on_c, 0, 62, 98
1, 9707, Note_off_c, 0, 62, 98
1, 9717, Note_on_c, 0, 61, 88
1, 9800, Note_off_c, 0, 61, 88
1, 9809, Note_on_c, 0, 62, 101
1, 9924, Note_off_c, 0, 62, 101
1, 9930, Note_on_c, 0, 65, 83
1, 10046, Note_off_c, 0, 65, 83
1, 10090, Note_on_c, 0, 69, 101
1, 10132, Note_off_c, 0, 69, 101
1, 10135, Note_on_c, 0, 74, 115
1, 10237, Note_off_c, 0, 74, 115
1, 10248, Note_on_c, 0, 73, 113
1, 10307, Note_off_c, 0, 73, 113
1, 10322, Note_on_c, 0, 72, 115
1, 10413, Note_off_c, 0, 72, 115
1, 10428, Note_on_c, 0, 69, 99
1, 10526, Note_off_c, 0, 69, 99
1, 10547, Note_on_c, 0, 66, 88
1, 10614, Note_off_c, 0, 66, 88
1, 10637, Note_on_c, 0, 63, 88
1, 10706, Note_off_c, 0, 63, 88
1, 10709, Note_on_c, 0, 60, 90
1, 10792, Note_off_c, 0, 60, 90
1, 10811, Note_on_c, 0, 57, 91
1, 10899, Note_off_c, 0, 57, 91
1, 10921, Note_on_c, 0, 54, 78
1, 10993, Note_off_c, 0, 54, 78
1, 10996, Note_on_c, 0, 55, 88
1, 11062, Note_off_c, 0, 55, 88
1, 11095, Note_on_c, 0, 58, 77
1, 11162, Note_off_c, 0, 58, 77
1, 11191, Note_on_c, 0, 62, 104
1, 11267, Note_off_c, 0, 62, 104
1, 11281, Note_on_c, 0, 58, 76
1, 11340, Note_off_c, 0, 58, 76
1, 11501, Note_on_c, 0, 60, 95
1, 11557, Note_off_c, 0, 60, 95
1, 11572, Note_on_c, 0, 59, 86
1, 11646, Note_off_c, 0, 59, 86
1, 11660, Note_on_c, 0, 58, 76
1, 11717, Note_off_c, 0, 58, 76
1, 11740, Note_on_c, 0, 60, 95
1, 11818, Note_off_c, 0, 60, 95
1, 11836, Note_on_c, 0, 62, 88
1, 11925, Note_off_c, 0, 62, 88
1, 11940, Note_on_c, 0, 64, 81
1, 12011, Note_off_c, 0, 64, 81
1, 12034, Note_on_c, 0, 69, 106
1, 12129, Note_off_c, 0, 69, 106
1, 12137, Note_on_c, 0, 67, 98
1, 12193, Note_off_c, 0, 67, 98
1, 12202, Note_on_c, 0, 64, 98
1, 12284, Note_off_c, 0, 64, 98
1, 12312, Note_on_c, 0, 60, 91
1, 12366, Note_off_c, 0, 60, 91
1, 12374, Note_on_c, 0, 62, 93
1, 12431, Note_off_c, 0, 62, 93
1, 12449, Note_on_c, 0, 65, 92
1, 12499, Note_off_c, 0, 65, 92
1, 12507, Note_on_c, 0, 69, 105
1, 12567, Note_off_c, 0, 69, 105
1, 12574, Note_on_c, 0, 72, 123
1, 12717, Note_off_c, 0, 72, 123
1, 12893, Note_on_c, 0, 60, 95
1, 12948, Note_off_c, 0, 60, 95
1, 12958, Note_on_c, 0, 62, 92
1, 13018, Note_off_c, 0, 62, 92
1, 13024, Note_on_c, 0, 65, 86
1, 13083, Note_off_c, 0, 65, 86
1, 13083, Note_on_c, 0, 69, 107
1, 13145, Note_off_c, 0, 69, 107
1, 13153, Note_on_c, 0, 70, 112
1, 13292, Note_off_c, 0, 70, 112
1, 13484, Note_on_c, 0, 69, 112
1, 13595, Note_off_c, 0, 69, 112
1, 13599, Note_on_c, 0, 70, 103
1, 13684, Note_off_c, 0, 70, 103
1, 13689, Note_on_c, 0, 69, 105
1, 13753, Note_off_c, 0, 69, 105
1, 13782, Note_on_c, 0, 65, 97
1, 13874, Note_off_c, 0, 65, 97
1, 13890, Note_on_c, 0, 60, 88
1, 13954, Note_off_c, 0, 60, 88
1, 13971, Note_on_c, 0, 57, 90
1, 14074, Note_off_c, 0, 57, 90
1, 14170, Note_on_c, 0, 55, 84
1, 14210, Note_off_c, 0, 55, 84
1, 14211, Note_on_c, 0, 56, 80
1, 14263, Note_off_c, 0, 56, 80
1, 14280, Note_on_c, 0, 60, 92
1, 14332, Note_off_c, 0, 60, 92
1, 14336, Note_on_c, 0, 63, 101
1, 14443, Note_off_c, 0, 63, 101
1, 14446, Note_on_c, 0, 60, 86
1, 14489, Note_off_c, 0, 60, 86
1, 14498, Note_on_c, 0, 61, 89
1, 14566, Note_off_c, 0, 61, 89
1, 14582, Note_on_c, 0, 65, 88
1, 14626, Note_off_c, 0, 65, 88
1, 14634, Note_on_c, 0, 68, 94
1, 14674, Note_off_c, 0, 68, 94
1, 14678, Note_on_c, 0, 72, 122
1, 14805, Note_off_c, 0, 72, 122
1, 14811, Note_on_c, 0, 75, 116
1, 14974, Note_off_c, 0, 75, 116
1, 15897, Note_on_c, 0, 63, 97
1, 15964, Note_off_c, 0, 63, 97
1, 15969, Note_on_c, 0, 65, 84
1, 16044, Note_off_c, 0, 65, 84
1, 16053, Note_on_c, 0, 68, 98
1, 16149, Note_off_c, 0, 68, 98
1, 16153, Note_on_c, 0, 73, 121
1, 16248, Note_off_c, 0, 73, 121
1, 16258, Note_on_c, 0, 72, 118
1, 16341, Note_off_c, 0, 72, 118
1, 16349, Note_on_c, 0, 70, 104
1, 16437, Note_off_c, 0, 70, 104
1, 16446, Note_on_c, 0, 68, 107
1, 16545, Note_off_c, 0, 68, 107
1, 16554, Note_on_c, 0, 67, 100
1, 16625, Note_off_c, 0, 67, 100
1, 16630, Note_on_c, 0, 65, 97
1, 16697, Note_off_c, 0, 65, 97
1, 16702, Note_on_c, 0, 63, 98
1, 16799, Note_off_c, 0, 63, 98
1, 16812, Note_on_c, 0, 61, 96
1, 16899, Note_off_c, 0, 61, 96
1, 16905, Note_on_c, 0, 60, 90
1, 16972, Note_off_c, 0, 60, 90
1, 16989, Note_on_c, 0, 58, 81
1, 17099, Note_off_c, 0, 58, 81
1, 17114, Note_on_c, 0, 56, 84
1, 17207, Note_off_c, 0, 56, 84
1, 17213, Note_on_c, 0, 57, 84
1, 17293, Note_off_c, 0, 57, 84
1, 17309, Note_on_c, 0, 60, 99
1, 17365, Note_off_c, 0, 60, 99
1, 17372, Note_on_c, 0, 64, 100
1, 17460, Note_off_c, 0, 64, 100
1, 17557, Note_on_c, 0, 67, 94
1, 17662, Note_off_c, 0, 67, 94
1, 17685, Note_on_c, 0, 64, 96
1, 17740, Note_off_c, 0, 64, 96
1, 17747, Note_on_c, 0, 65, 89
1, 17787, Note_off_c, 0, 65, 89
1, 17791, Note_on_c, 0, 66, 89
1, 17848, Note_off_c, 0, 66, 89
1, 17868, Note_on_c, 0, 67, 100
1, 17942, Note_off_c, 0, 67, 100
1, 17958, Note_on_c, 0, 69, 104
1, 18064, Note_off_c, 0, 69, 104
1, 18340, Note_on_c, 0, 74, 94
1, 18717, Note_off_c, 0, 74, 94
1, 19888, Note_on_c, 0, 62, 100
1, 19961, Note_off_c, 0, 62, 100
1, 19966, Note_on_c, 0, 65, 102
1, 20071, Note_off_c, 0, 65, 102
1, 20079, Note_on_c, 0, 64, 97
1, 20159, Note_off_c, 0, 64, 97
1, 20164, Note_on_c, 0, 65, 92
1, 20228, Note_off_c, 0, 65, 92
1, 20241, Note_on_c, 0, 67, 101
1, 20349, Note_off_c, 0, 67, 101
1, 20459, Note_on_c, 0, 72, 115
1, 20558, Note_off_c, 0, 72, 115
1, 20564, Note_on_c, 0, 69, 99
1, 20649, Note_off_c, 0, 69, 99
1, 20661, Note_on_c, 0, 65, 97
1, 20736, Note_off_c, 0, 65, 97
1, 20743, Note_on_c, 0, 62, 102
1, 20861, Note_off_c, 0, 62, 102
1, 21006, Note_on_c, 0, 64, 89
1, 21255, Note_off_c, 0, 64, 89
1, 21272, Note_on_c, 0, 61, 98
1, 21357, Note_off_c, 0, 61, 98
1, 21395, Note_on_c, 0, 57, 82
1, 21490, Note_off_c, 0, 57, 82
1, 21503, Note_on_c, 0, 59, 74
1, 21549, Note_off_c, 0, 59, 74
1, 21560, Note_on_c, 0, 61, 90
1, 21642, Note_off_c, 0, 61, 90
1, 21657, Note_on_c, 0, 62, 97
1, 21741, Note_off_c, 0, 62, 97
1, 21757, Note_on_c, 0, 64, 95
1, 21852, Note_off_c, 0, 64, 95
1, 21858, Note_on_c, 0, 62, 97
1, 21916, Note_off_c, 0, 62, 97
1, 21925, Note_on_c, 0, 61, 90
1, 22014, Note_off_c, 0, 61, 90
1, 22026, Note_on_c, 0, 62, 99
1, 22123, Note_off_c, 0, 62, 99
1, 22133, Note_on_c, 0, 65, 94
1, 22248, Note_off_c, 0, 65, 94
1, 22278, Note_on_c, 0, 69, 88
1, 22327, Note_off_c, 0, 69, 88
1, 22337, Note_on_c, 0, 74, 115
1, 22440, Note_off_c, 0, 74, 115
1, 22447, Note_on_c, 0, 73, 117
1, 22538, Note_off_c, 0, 73, 117
1, 22544, Note_on_c, 0, 72, 117
1, 22643, Note_off_c, 0, 72, 117
1, 22647, Note_on_c, 0, 69, 105
1, 22715, Note_off_c, 0, 69, 105
1, 22734, Note_on_c, 0, 66, 84
1, 22810, Note_off_c, 0, 66, 84
1, 22824, Note_on_c, 0, 63, 90
1, 22915, Note_off_c, 0, 63, 90
1, 22925, Note_on_c, 0, 60, 88
1, 23001, Note_off_c, 0, 60, 88
1, 23030, Note_on_c, 0, 57, 90
1, 23080, Note_off_c, 0, 57, 90
1, 23111, Note_on_c, 0, 54, 81
1, 23203, Note_off_c, 0, 54, 81
1, 23215, Note_on_c, 0, 55, 86
1, 23291, Note_off_c, 0, 55, 86
1, 23402, Note_on_c, 0, 62, 106
1, 23474, Note_off_c, 0, 62, 106
1, 23484, Note_on_c, 0, 67, 105
1, 23594, Note_off_c, 0, 67, 105
1, 23600, Note_on_c, 0, 66, 93
1, 23684, Note_off_c, 0, 66, 93
1, 23706, Note_on_c, 0, 65, 92
1, 23743, Note_off_c, 0, 65, 92
1, 23754, Note_on_c, 0, 61, 97
1, 23839, Note_off_c, 0, 61, 97
1, 23851, Note_on_c, 0, 58, 77
1, 23927, Note_off_c, 0, 58, 77
1, 23958, Note_on_c, 0, 60, 84
1, 24042, Note_off_c, 0, 60, 84
1, 24054, Note_on_c, 0, 61, 94
1, 24132, Note_off_c, 0, 61, 94
1, 24165, Note_on_c, 0, 65, 91
1, 24210, Note_off_c, 0, 65, 91
1, 24215, Note_on_c, 0, 69, 108
1, 24365, Note_off_c, 0, 69, 108
1, 24368, Note_on_c, 0, 68, 91
1, 24423, Note_off_c, 0, 68, 91
1, 24432, Note_on_c, 0, 67, 94
1, 24525, Note_off_c, 0, 67, 94
1, 24532, Note_on_c, 0, 64, 90
1, 24595, Note_off_c, 0, 64, 90
1, 24607, Note_on_c, 0, 60, 94
1, 24673, Note_off_c, 0, 60, 94
1, 24717, Note_on_c, 0, 57, 92
1, 24792, Note_off_c, 0, 57, 92
1, 24803, Note_on_c, 0, 55, 92
1, 24889, Note_off_c, 0, 55, 92
1, 24895, Note_on_c, 0, 53, 89
1, 24952, Note_off_c, 0, 53, 89
1, 24957, Note_on_c, 0, 52, 91
1, 25036, Note_off_c, 0, 52, 91
1, 25073, Note_on_c, 0, 53, 86
1, 25137, Note_off_c, 0, 53, 86
1, 25153, Note_on_c, 0, 55, 91
1, 25257, Note_off_c, 0, 55, 91
1, 25276, Note_on_c, 0, 57, 84
1, 25333, Note_off_c, 0, 57, 84
1, 25347, Note_on_c, 0, 58, 76
1, 25433, Note_off_c, 0, 58, 76
1, 25451, Note_on_c, 0, 60, 84
1, 25818, Note_off_c, 0, 60, 84
1, 26510, Note_on_c, 0, 48, 98
1, 26611, Note_off_c, 0, 48, 98
1, 26617, Note_on_c, 0, 50, 86
1, 26683, Note_off_c, 0, 50, 86
1, 26688, Note_on_c, 0, 52, 87
1, 26785, Note_off_c, 0, 52, 87
1, 26792, Note_on_c, 0, 53, 90
1, 26887, Note_off_c, 0, 53, 90
1, 26893, Note_on_c, 0, 55, 94
1, 27004, Note_off_c, 0, 55, 94
1, 27016, Note_on_c, 0, 52, 89
1, 27075, Note_off_c, 0, 52, 89
1, 27080, Note_on_c, 0, 53, 89
1, 27195, Note_off_c, 0, 53, 89
1, 27201, Note_on_c, 0, 55, 86
1, 27291, Note_off_c, 0, 55, 86
1, 27330, Note_on_c, 0, 57, 85
1, 27374, Note_off_c, 0, 57, 85
1, 27387, Note_on_c, 0, 59, 77
1, 27441, Note_off_c, 0, 59, 77
1, 27465, Note_on_c, 0, 61, 104
1, 27562, Note_off_c, 0, 61, 104
1, 27572, Note_on_c, 0, 62, 101
1, 27658, Note_off_c, 0, 62, 101
1, 27663, Note_on_c, 0, 64, 102
1, 27763, Note_off_c, 0, 64, 102
1, 27777, Note_on_c, 0, 61, 100
1, 27856, Note_off_c, 0, 61, 100
1, 27867, Note_on_c, 0, 62, 101
1, 27943, Note_off_c, 0, 62, 101
1, 27969, Note_on_c, 0, 64, 91
1, 28052, Note_off_c, 0, 64, 91
1, 28063, Note_on_c, 0, 65, 89
1, 28120, Note_off_c, 0, 65, 89
1, 28132, Note_on_c, 0, 67, 86
1, 28202, Note_off_c, 0, 67, 86
1, 28220, Note_on_c, 0, 69, 105
1, 28309, Note_off_c, 0, 69, 105
1, 28325, Note_on_c, 0, 70, 104
1, 28408, Note_off_c, 0, 70, 104
1, 28412, Note_on_c, 0, 72, 113
1, 28498, Note_off_c, 0, 72, 113
1, 28506, Note_on_c, 0, 74, 121
1, 28593, Note_off_c, 0, 74, 121
1, 28600, Note_on_c, 0, 75, 118
1, 28682, Note_off_c, 0, 75, 118
1, 28689, Note_on_c, 0, 74, 119
1, 28782, Note_off_c, 0, 74, 119
1, 28786, Note_on_c, 0, 72, 113
1, 28888, Note_off_c, 0, 72, 113
1, 28895, Note_on_c, 0, 71, 112
1, 28965, Note_off_c, 0, 71, 112
1, 28971, Note_on_c, 0, 70, 108
1, 29062, Note_off_c, 0, 70, 108
1, 29068, Note_on_c, 0, 69, 110
1, 29170, Note_off_c, 0, 69, 110
1, 29174, Note_on_c, 0, 67, 99
1, 29272, Note_off_c, 0, 67, 99
1, 29278, Note_on_c, 0, 66, 103
1, 29357, Note_off_c, 0, 66, 103
1, 29366, Note_on_c, 0, 65, 100
1, 29455, Note_off_c, 0, 65, 100
1, 29461, Note_on_c, 0, 62, 96
1, 29547, Note_off_c, 0, 62, 96
1, 29556, Note_on_c, 0, 58, 84
1, 29649, Note_off_c, 0, 58, 84
1, 29664, Note_on_c, 0, 55, 83
1, 29717, Note_off_c, 0, 55, 83
1, 29755, Note_on_c, 0, 60, 97
1, 29846, Note_off_c, 0, 60, 97
1, 29859, Note_on_c, 0, 59, 89
1, 29918, Note_off_c, 0, 59, 89
1, 29932, Note_on_c, 0, 58, 79
1, 30012, Note_off_c, 0, 58, 79
1, 30021, Note_on_c, 0, 60, 99
1, 30114, Note_off_c, 0, 60, 99
1, 30122, Note_on_c, 0, 61, 97
1, 30194, Note_off_c, 0, 61, 97
1, 30210, Note_on_c, 0, 64, 89
1, 30299, Note_off_c, 0, 64, 89
1, 30306, Note_on_c, 0, 69, 107
1, 30415, Note_off_c, 0, 69, 107
1, 30425, Note_on_c, 0, 67, 97
1, 30497, Note_off_c, 0, 67, 97
1, 30504, Note_on_c, 0, 64, 94
1, 30577, Note_off_c, 0, 64, 94
1, 30599, Note_on_c, 0, 60, 95
1, 30653, Note_off_c, 0, 60, 95
1, 30664, Note_on_c, 0, 62, 96
1, 30736, Note_off_c, 0, 62, 96
1, 30745, Note_on_c, 0, 65, 91
1, 30795, Note_off_c, 0, 65, 91
1, 30799, Note_on_c, 0, 69, 97
1, 30864, Note_on_c, 0, 72, 118
1, 30864, Note_off_c, 0, 69, 97
1, 30989, Note_off_c, 0, 72, 118
1, 31094, Note_on_c, 0, 60, 92
1, 31167, Note_off_c, 0, 60, 92
1, 31182, Note_on_c, 0, 62, 98
1, 31249, Note_off_c, 0, 62, 98
1, 31257, Note_on_c, 0, 63, 106
1, 31340, Note_off_c, 0, 63, 106
1, 31344, Note_on_c, 0, 66, 89
1, 31385, Note_off_c, 0, 66, 89
1, 31391, Note_on_c, 0, 69, 97
1, 31445, Note_off_c, 0, 69, 97
1, 31453, Note_on_c, 0, 72, 117
1, 31573, Note_off_c, 0, 72, 117
1, 31703, Note_on_c, 0, 58, 80
1, 31786, Note_off_c, 0, 58, 80
1, 31789, Note_on_c, 0, 60, 96
1, 31856, Note_off_c, 0, 60, 96
1, 31858, Note_on_c, 0, 61, 91
1, 31897, Note_off_c, 0, 61, 91
1, 31903, Note_on_c, 0, 64, 80
1, 31958, Note_off_c, 0, 64, 80
1, 32001, Note_on_c, 0, 68, 95
1, 32051, Note_off_c, 0, 68, 95
1, 32056, Note_on_c, 0, 72, 122
1, 32154, Note_off_c, 0, 72, 122
1, 32165, Note_on_c, 0, 68, 105
1, 32229, Note_off_c, 0, 68, 105
1, 32235, Note_on_c, 0, 63, 96
1, 32274, Note_off_c, 0, 63, 96
1, 32282, Note_on_c, 0, 61, 98
1, 32334, Note_off_c, 0, 61, 98
1, 32344, Note_on_c, 0, 58, 87
1, 32393, Note_off_c, 0, 58, 87
1, 32408, Note_on_c, 0, 52, 88
1, 32477, Note_off_c, 0, 52, 88
1, 32484, Note_on_c, 0, 53, 94
1, 32595, Note_off_c, 0, 53, 94
1, 33306, Note_on_c, 0, 60, 102
1, 33387, Note_off_c, 0, 60, 102
1, 33406, Note_on_c, 0, 57, 88
1, 33495, Note_off_c, 0, 57, 88
1, 33515, Note_on_c, 0, 53, 82
1, 33577, Note_off_c, 0, 53, 82
1, 33592, Note_on_c, 0, 61, 110
1, 33693, Note_off_c, 0, 61, 110
1, 33713, Note_on_c, 0, 57, 90
1, 33782, Note_off_c, 0, 57, 90
1, 33802, Note_on_c, 0, 52, 86
1, 33889, Note_off_c, 0, 52, 86
1, 33905, Note_on_c, 0, 53, 89
1, 33988, Note_off_c, 0, 53, 89
1, 34008, Note_on_c, 0, 55, 86
1, 34084, Note_off_c, 0, 55, 86
1, 34093, Note_on_c, 0, 57, 85
1, 34169, Note_off_c, 0, 57, 85
1, 34227, Note_on_c, 0, 61, 109
1, 34295, Note_off_c, 0, 61, 109
1, 34310, Note_on_c, 0, 62, 89
1, 34690, Note_off_c, 0, 62, 89
1, 35355, Note_on_c, 0, 55, 90
1, 35432, Note_off_c, 0, 55, 90
1, 35443, Note_on_c, 0, 58, 81
1, 35498, Note_off_c, 0, 58, 81
1, 35511, Note_on_c, 0, 62, 105
1, 35626, Note_off_c, 0, 62, 105
1, 35700, Note_on_c, 0, 67, 116
1, 35835, Note_off_c, 0, 67, 116
1, 35844, Note_on_c, 0, 66, 102
1, 35932, Note_off_c, 0, 66, 102
1, 35938, Note_on_c, 0, 65, 98
1, 35978, Note_off_c, 0, 65, 98
1, 35984, Note_on_c, 0, 62, 94
1, 36054, Note_off_c, 0, 62, 94
1, 36070, Note_on_c, 0, 58, 79
1, 36173, Note_off_c, 0, 58, 79
1, 36196, Note_on_c, 0, 60, 95
1, 36278, Note_off_c, 0, 60, 95
1, 36286, Note_on_c, 0, 61, 107
1, 36395, Note_off_c, 0, 61, 107
1, 36484, Note_on_c, 0, 69, 116
1, 36612, Note_off_c, 0, 69, 116
1, 36620, Note_on_c, 0, 68, 110
1, 36665, Note_off_c, 0, 68, 110
1, 36672, Note_on_c, 0, 67, 102
1, 36764, Note_off_c, 0, 67, 102
1, 36770, Note_on_c, 0, 64, 99
1, 36836, Note_off_c, 0, 64, 99
1, 36868, Note_on_c, 0, 60, 93
1, 36944, Note_off_c, 0, 60, 93
1, 36954, Note_on_c, 0, 62, 101
1, 37050, Note_off_c, 0, 62, 101
1, 37057, Note_on_c, 0, 64, 95
1, 37131, Note_off_c, 0, 64, 95
1, 37141, Note_on_c, 0, 67, 94
1, 37233, Note_off_c, 0, 67, 94
1, 37243, Note_on_c, 0, 72, 127
1, 37352, Note_off_c, 0, 72, 127
1, 37367, Note_on_c, 0, 71, 111
1, 37429, Note_off_c, 0, 71, 111
1, 37435, Note_on_c, 0, 70, 105
1, 37523, Note_off_c, 0, 70, 105
1, 37554, Note_on_c, 0, 68, 107
1, 37655, Note_off_c, 0, 68, 107
1, 37661, Note_on_c, 0, 67, 103
1, 37732, Note_off_c, 0, 67, 103
1, 37739, Note_on_c, 0, 65, 111
1, 37880, Note_off_c, 0, 65, 111
1, 37885, Note_on_c, 0, 64, 102
1, 37986, Note_off_c, 0, 64, 102
1, 38034, Note_on_c, 0, 60, 86
1, 38104, Note_off_c, 0, 60, 86
1, 38137, Note_on_c, 0, 62, 103
1, 38213, Note_off_c, 0, 62, 103
1, 38224, Note_on_c, 0, 64, 102
1, 38342, Note_off_c, 0, 64, 102
1, 38353, Note_on_c, 0, 65, 108
1, 38451, Note_off_c, 0, 65, 108
1, 38458, Note_on_c, 0, 67, 107
1, 38585, Note_off_c, 0, 67, 107
1, 38589, Note_on_c, 0, 68, 117
1, 38706, Note_off_c, 0, 68, 117
1, 38992, Note_on_c, 0, 58, 88
1, 39086, Note_off_c, 0, 58, 88
1, 39098, Note_on_c, 0, 60, 103
1, 39191, Note_off_c, 0, 60, 103
1, 39201, Note_on_c, 0, 61, 102
1, 39287, Note_off_c, 0, 61, 102
1, 39295, Note_on_c, 0, 63, 100
1, 39472, Note_off_c, 0, 63, 100
1, 39568, Note_on_c, 0, 58, 76
1, 39675, Note_off_c, 0, 58, 76
1, 39696, Note_on_c, 0, 60, 100
1, 39783, Note_off_c, 0, 60, 100
1, 39793, Note_on_c, 0, 61, 103
1, 39880, Note_off_c, 0, 61, 103
1, 39908, Note_on_c, 0, 63, 106
1, 40017, Note_off_c, 0, 63, 106
1, 40032, Note_on_c, 0, 65, 104
1, 40158, Note_off_c, 0, 65, 104
1, 40171, Note_on_c, 0, 70, 91
1, 40496, Note_off_c, 0, 70, 91
1, 41270, Note_on_c, 0, 75, 121
1, 41383, Note_off_c, 0, 75, 121
1, 41391, Note_on_c, 0, 72, 118
1, 41480, Note_off_c, 0, 72, 118
1, 41490, Note_on_c, 0, 68, 106
1, 41581, Note_off_c, 0, 68, 106
1, 41594, Note_on_c, 0, 63, 100
1, 41666, Note_off_c, 0, 63, 100
1, 41676, Note_on_c, 0, 61, 101
1, 41764, Note_off_c, 0, 61, 101
1, 41776, Note_on_c, 0, 62, 99
1, 41850, Note_off_c, 0, 62, 99
1, 41857, Note_on_c, 0, 67, 107
1, 42001, Note_off_c, 0, 67, 107
1, 42051, Note_on_c, 0, 72, 125
1, 42181, Note_off_c, 0, 72, 125
1, 42191, Note_on_c, 0, 71, 112
1, 42282, Note_off_c, 0, 71, 112
1, 42284, Note_on_c, 0, 69, 109
1, 42364, Note_off_c, 0, 69, 109
1, 42369, Note_on_c, 0, 67, 106
1, 42461, Note_off_c, 0, 67, 106
1, 42469, Note_on_c, 0, 66, 99
1, 42548, Note_off_c, 0, 66, 99
1, 42555, Note_on_c, 0, 64, 100
1, 42648, Note_off_c, 0, 64, 100
1, 42654, Note_on_c, 0, 62, 101
1, 42737, Note_off_c, 0, 62, 101
1, 42743, Note_on_c, 0, 60, 93
1, 42818, Note_off_c, 0, 60, 93
1, 42839, Note_on_c, 0, 59, 92
1, 42920, Note_off_c, 0, 59, 92
1, 42936, Note_on_c, 0, 57, 92
1, 43003, Note_off_c, 0, 57, 92
1, 43035, Note_on_c, 0, 54, 77
1, 43116, Note_off_c, 0, 54, 77
1, 43127, Note_on_c, 0, 55, 86
1, 43208, Note_off_c, 0, 55, 86
1, 43256, Note_on_c, 0, 59, 86
1, 43317, Note_off_c, 0, 59, 86
1, 43329, Note_on_c, 0, 62, 107
1, 43392, Note_off_c, 0, 62, 107
1, 43400, Note_on_c, 0, 66, 110
1, 43511, Note_off_c, 0, 66, 110
1, 43524, Note_on_c, 0, 64, 103
1, 43598, Note_off_c, 0, 64, 103
1, 43624, Note_on_c, 0, 63, 107
1, 43685, Note_off_c, 0, 63, 107
1, 43697, Note_on_c, 0, 62, 105
1, 43774, Note_off_c, 0, 62, 105
1, 43788, Note_on_c, 0, 61, 105
1, 43881, Note_off_c, 0, 61, 105
1, 43895, Note_on_c, 0, 60, 96
1, 43982, Note_off_c, 0, 60, 96
1, 43997, Note_on_c, 0, 59, 97
1, 44070, Note_off_c, 0, 59, 97
1, 44083, Note_on_c, 0, 58, 93
1, 44163, Note_off_c, 0, 58, 93
1, 44194, Note_on_c, 0, 57, 89
1, 44266, Note_off_c, 0, 57, 89
1, 44280, Note_on_c, 0, 55, 90
1, 44356, Note_off_c, 0, 55, 90
1, 44388, Note_on_c, 0, 53, 92
1, 44470, Note_off_c, 0, 53, 92
1, 44489, Note_on_c, 0, 52, 82
1, 44707, Note_off_c, 0, 52, 82
1, 44729, Note_on_c, 0, 53, 81
1, 45048, Note_off_c, 0, 53, 81
1, 45065, Note_on_c, 0, 57, 89
1, 45127, Note_off_c, 0, 57, 89
1, 45159, Note_on_c, 0, 60, 98
1, 45253, Note_off_c, 0, 60, 98
1, 45358, Note_on_c, 0, 57, 79
1, 45599, Note_off_c, 0, 57, 79
1, 45626, Note_on_c, 0, 61, 106
1, 45702, Note_off_c, 0, 61, 106
1, 45710, Note_on_c, 0, 64, 101
1, 45807, Note_off_c, 0, 64, 101
1, 45920, Note_on_c, 0, 61, 104
1, 46002, Note_off_c, 0, 61, 104
1, 46009, Note_on_c, 0, 62, 99
1, 46075, Note_off_c, 0, 62, 99
1, 46083, Note_on_c, 0, 65, 84
1, 46193, Note_off_c, 0, 65, 84
1, 46194, Note_on_c, 0, 69, 94
1, 46264, Note_off_c, 0, 69, 94
1, 46268, Note_on_c, 0, 74, 104
1, 46498, Note_off_c, 0, 74, 104
1, 46569, Note_on_c, 0, 74, 99
1, 46657, Note_off_c, 0, 74, 99
1, 47825, Note_on_c, 0, 77, 106
1, 47910, Note_off_c, 0, 77, 106
1, 47920, Note_on_c, 0, 74, 116
1, 48005, Note_off_c, 0, 74, 116
1, 48021, Note_on_c, 0, 70, 99
1, 48112, Note_off_c, 0, 70, 99
1, 48129, Note_on_c, 0, 67, 90
1, 48195, Note_off_c, 0, 67, 90
1, 48221, Note_on_c, 0, 62, 106
1, 48310, Note_off_c, 0, 62, 106
1, 48325, Note_on_c, 0, 65, 109
1, 48420, Note_off_c, 0, 65, 109
1, 48425, Note_on_c, 0, 64, 97
1, 48509, Note_off_c, 0, 64, 97
1, 48514, Note_on_c, 0, 62, 98
1, 48577, Note_off_c, 0, 62, 98
1, 48590, Note_on_c, 0, 61, 95
1, 48663, Note_off_c, 0, 61, 95
1, 48675, Note_on_c, 0, 64, 94
1, 48753, Note_off_c, 0, 64, 94
1, 48761, Note_on_c, 0, 67, 92
1, 48862, Note_off_c, 0, 67, 92
1, 48873, Note_on_c, 0, 71, 114
1, 48950, Note_off_c, 0, 71, 114
1, 48960, Note_on_c, 0, 72, 120
1, 49063, Note_off_c, 0, 72, 120
1, 49069, Note_on_c, 0, 69, 102
1, 49132, Note_off_c, 0, 69, 102
1, 49166, Note_on_c, 0, 65, 92
1, 49236, Note_off_c, 0, 65, 92
1, 49245, Note_on_c, 0, 60, 90
1, 49309, Note_off_c, 0, 60, 90
1, 49343, Note_on_c, 0, 57, 87
1, 49411, Note_off_c, 0, 57, 87
1, 49433, Note_on_c, 0, 60, 95
1, 49500, Note_off_c, 0, 60, 95
1, 49532, Note_on_c, 0, 58, 83
1, 49628, Note_off_c, 0, 58, 83
1, 49636, Note_on_c, 0, 57, 82
1, 49719, Note_off_c, 0, 57, 82
1, 49728, Note_on_c, 0, 55, 87
1, 49823, Note_off_c, 0, 55, 87
1, 49833, Note_on_c, 0, 58, 81
1, 49893, Note_off_c, 0, 58, 81
1, 49924, Note_on_c, 0, 62, 101
1, 50000, Note_off_c, 0, 62, 101
1, 50014, Note_on_c, 0, 65, 103
1, 50109, Note_off_c, 0, 65, 103
1, 50115, Note_on_c, 0, 66, 101
1, 50201, Note_off_c, 0, 66, 101
1, 50219, Note_on_c, 0, 64, 96
1, 50290, Note_off_c, 0, 64, 96
1, 50299, Note_on_c, 0, 63, 100
1, 50395, Note_off_c, 0, 63, 100
1, 50406, Note_on_c, 0, 61, 96
1, 50496, Note_off_c, 0, 61, 96
1, 50508, Note_on_c, 0, 60, 90
1, 50584, Note_off_c, 0, 60, 90
1, 50593, Note_on_c, 0, 58, 87
1, 50670, Note_off_c, 0, 58, 87
1, 50691, Note_on_c, 0, 56, 89
1, 50769, Note_off_c, 0, 56, 89
1, 50782, Note_on_c, 0, 55, 87
1, 50836, Note_off_c, 0, 55, 87
1, 50866, Note_on_c, 0, 53, 110
1, 50930, Note_off_c, 0, 53, 110
1, 50930, End_track
0, 0, End_of_file
