0, 0, Header, 1, 1, 840
1, 0, Start_track
1, 0, Title_t, "Melody"
1, 0, Tempo, 441176
1, 0, Key_signature, -3, "major"
1, 0, Time_signature, 6, 2, 24, 8
1, 11826, Note_on_c, 0, 60, 111
1, 12047, Note_off_c, 0, 60, 111
1, 12047, Note_on_c, 0, 62, 121
1, 12334, Note_off_c, 0, 62, 121
1, 12334, Note_on_c, 0, 63, 122
1, 12599, Note_off_c, 0, 63, 122
1, 12676, Note_on_c, 0, 65, 120
1, 12863, Note_off_c, 0, 65, 120
1, 12863, Note_on_c, 0, 67, 121
1, 13117, Note_off_c, 0, 67, 121
1, 13194, Note_on_c, 0, 69, 116
1, 13381, Note_off_c, 0, 69, 116
1, 13513, Note_on_c, 0, 70, 116
1, 13723, Note_off_c, 0, 70, 116
1, 13723, Note_on_c, 0, 72, 114
1, 13977, Note_off_c, 0, 72, 114
1, 14021, Note_on_c, 0, 67, 112
1, 14264, Note_off_c, 0, 67, 112
1, 14352, Note_on_c, 0, 70, 112
1, 15567, Note_off_c, 0, 70, 112
1, 15578, Note_on_c, 0, 67, 110
1, 15854, Note_off_c, 0, 67, 110
1, 15854, Note_on_c, 0, 65, 109
1, 16119, Note_on_c, 0, 63, 117
1, 16119, Note_off_c, 0, 65, 109
1, 16373, Note_off_c, 0, 63, 117
1, 16395, Note_on_c, 0, 65, 111
1, 16660, Note_off_c, 0, 65, 111
1, 16759, Note_on_c, 0, 60, 109
1, 17659, Note_off_c, 0, 60, 109
1, 20245, Note_on_c, 0, 60, 120
1, 20671, Note_off_c, 0, 60, 120
1, 20781, Note_on_c, 0, 55, 98
1, 21073, Note_off_c, 0, 55, 98
1, 21073, Note_on_c, 0, 60, 114
1, 22426, Note_off_c, 0, 60, 114
1, 24537, Note_on_c, 0, 60, 121
1, 25043, Note_off_c, 0, 60, 121
1, 25043, Note_on_c, 0, 55, 121
1, 25361, Note_off_c, 0, 55, 121
1, 25375, Note_on_c, 0, 60, 116
1, 25828, Note_off_c, 0, 60, 116
1, 25881, Note_on_c, 0, 55, 99
1, 26126, Note_off_c, 0, 55, 99
1, 26126, Note_on_c, 0, 59, 107
1, 26203, Note_off_c, 0, 59, 107
1, 26203, Note_on_c, 0, 60, 116
1, 26744, Note_off_c, 0, 60, 116
1, 26777, Note_on_c, 0, 55, 106
1, 27020, Note_off_c, 0, 55, 106
1, 27042, Note_on_c, 0, 53, 103
1, 27627, Note_off_c, 0, 53, 103
1, 27638, Note_on_c, 0, 55, 106
1, 28024, Note_off_c, 0, 55, 106
1, 31826, Note_on_c, 0, 56, 112
1, 32599, Note_off_c, 0, 56, 112
1, 32643, Note_on_c, 0, 58, 110
1, 33096, Note_off_c, 0, 58, 110
1, 33096, Note_on_c, 0, 60, 116
1, 33543, Note_off_c, 0, 60, 116
1, 33636, Note_on_c, 0, 63, 120
1, 34155, Note_off_c, 0, 63, 120
1, 34232, Note_on_c, 0, 65, 118
1, 34685, Note_off_c, 0, 65, 118
1, 34707, Note_on_c, 0, 67, 112
1, 35016, Note_off_c, 0, 67, 112
1, 35231, Note_on_c, 0, 68, 115
1, 35728, Note_off_c, 0, 68, 115
1, 35733, Note_on_c, 0, 70, 113
1, 36075, Note_off_c, 0, 70, 113
1, 36318, Note_on_c, 0, 72, 106
1, 36688, Note_off_c, 0, 72, 106
1, 36892, Note_on_c, 0, 74, 110
1, 37234, Note_off_c, 0, 74, 110
1, 37554, Note_on_c, 0, 74, 114
1, 37780, Note_off_c, 0, 74, 114
1, 37780, Note_on_c, 0, 75, 116
1, 38128, Note_off_c, 0, 75, 116
1, 38128, Note_on_c, 0, 74, 108
1, 38393, Note_off_c, 0, 74, 108
1, 38404, Note_on_c, 0, 72, 113
1, 38580, Note_off_c, 0, 72, 113
1, 38607, Note_on_c, 0, 70, 113
1, 38756, Note_off_c, 0, 70, 113
1, 38827, Note_on_c, 0, 67, 111
1, 40180, Note_off_c, 0, 67, 111
1, 40229, Note_on_c, 0, 65, 113
1, 40499, Note_off_c, 0, 65, 113
1, 42466, Note_on_c, 0, 70, 116
1, 42742, Note_off_c, 0, 70, 116
1, 42742, Note_on_c, 0, 69, 113
1, 42996, Note_off_c, 0, 69, 113
1, 43040, Note_on_c, 0, 67, 112
1, 43205, Note_off_c, 0, 67, 112
1, 43205, Note_on_c, 0, 65, 111
1, 43470, Note_off_c, 0, 65, 111
1, 43602, Note_on_c, 0, 62, 116
1, 43695, Note_off_c, 0, 62, 116
1, 43717, Note_on_c, 0, 63, 119
1, 44324, Note_off_c, 0, 63, 119
1, 44412, Note_on_c, 0, 62, 114
1, 46174, Note_off_c, 0, 62, 114
1, 46212, Note_on_c, 0, 60, 107
1, 46405, Note_off_c, 0, 60, 107
1, 46438, Note_on_c, 0, 67, 114
1, 46681, Note_off_c, 0, 67, 114
1, 46681, Note_on_c, 0, 65, 116
1, 46868, Note_off_c, 0, 65, 116
1, 46879, Note_on_c, 0, 63, 120
1, 47100, Note_off_c, 0, 63, 120
1, 47127, Note_on_c, 0, 56, 104
1, 47320, Note_off_c, 0, 56, 104
1, 47353, Note_on_c, 0, 55, 104
1, 47971, Note_off_c, 0, 55, 104
1, 47993, Note_on_c, 0, 58, 106
1, 48136, Note_off_c, 0, 58, 106
1, 48169, Note_on_c, 0, 60, 110
1, 48379, Note_off_c, 0, 60, 110
1, 48379, Note_on_c, 0, 63, 113
1, 48456, Note_off_c, 0, 63, 113
1, 51583, Note_on_c, 0, 71, 112
1, 53583, Note_off_c, 0, 71, 112
1, 53656, Note_on_c, 0, 71, 113
1, 53866, Note_off_c, 0, 71, 113
1, 53921, Note_on_c, 0, 69, 103
1, 54197, Note_off_c, 0, 69, 103
1, 54214, Note_on_c, 0, 71, 113
1, 54545, Note_off_c, 0, 71, 113
1, 54603, Note_on_c, 0, 74, 112
1, 55531, Note_off_c, 0, 74, 112
1, 56449, Note_on_c, 0, 67, 108
1, 56747, Note_off_c, 0, 67, 108
1, 56857, Note_on_c, 0, 68, 100
1, 56923, Note_off_c, 0, 68, 100
1, 56933, Note_on_c, 0, 70, 111
1, 58635, Note_off_c, 0, 70, 111
1, 58760, Note_on_c, 0, 70, 110
1, 58953, Note_off_c, 0, 70, 110
1, 58953, Note_on_c, 0, 67, 106
1, 59240, Note_off_c, 0, 67, 106
1, 59274, Note_on_c, 0, 70, 105
1, 59738, Note_off_c, 0, 70, 105
1, 59804, Note_on_c, 0, 75, 117
1, 62147, Note_off_c, 0, 75, 117
1, 62246, Note_on_c, 0, 71, 102
1, 62312, Note_off_c, 0, 71, 102
1, 62342, Note_on_c, 0, 77, 104
1, 65539, Note_off_c, 0, 77, 104
1, 65663, Note_on_c, 0, 79, 95
1, 65954, Note_off_c, 0, 79, 95
1, 68923, Note_on_c, 0, 74, 118
1, 69040, Note_off_c, 0, 74, 118
1, 69040, Note_on_c, 0, 75, 127
1, 69570, Note_off_c, 0, 75, 127
1, 69835, Note_on_c, 0, 74, 113
1, 70476, Note_off_c, 0, 74, 113
1, 70490, Note_on_c, 0, 72, 115
1, 70786, Note_off_c, 0, 72, 115
1, 70786, Note_on_c, 0, 70, 115
1, 70968, Note_off_c, 0, 70, 115
1, 71048, Note_on_c, 0, 67, 114
1, 71265, Note_off_c, 0, 67, 114
1, 71265, Note_on_c, 0, 65, 115
1, 71443, Note_off_c, 0, 65, 115
1, 71458, Note_on_c, 0, 63, 116
1, 71690, Note_off_c, 0, 63, 116
1, 71719, Note_on_c, 0, 60, 114
1, 72459, Note_off_c, 0, 60, 114
1, 72626, Note_on_c, 0, 63, 117
1, 72968, Note_off_c, 0, 63, 117
1, 74871, Note_on_c, 0, 60, 105
1, 75080, Note_off_c, 0, 60, 105
1, 75199, Note_on_c, 0, 63, 114
1, 75364, Note_off_c, 0, 63, 114
1, 75364, Note_on_c, 0, 65, 107
1, 76701, Note_off_c, 0, 65, 107
1, 76714, Note_on_c, 0, 63, 107
1, 76935, Note_off_c, 0, 63, 107
1, 76942, Note_on_c, 0, 66, 109
1, 77039, Note_off_c, 0, 66, 109
1, 77041, Note_on_c, 0, 67, 112
1, 77748, Note_off_c, 0, 67, 112
1, 77753, Note_on_c, 0, 63, 114
1, 78239, Note_off_c, 0, 63, 114
1, 78300, Note_on_c, 0, 60, 99
1, 78696, Note_off_c, 0, 60, 99
1, 80267, Note_on_c, 0, 67, 88
1, 80319, Note_off_c, 0, 67, 88
1, 80330, Note_on_c, 0, 68, 109
1, 80783, Note_off_c, 0, 68, 109
1, 80826, Note_on_c, 0, 65, 109
1, 81124, Note_off_c, 0, 65, 109
1, 81125, Note_on_c, 0, 63, 113
1, 81379, Note_off_c, 0, 63, 113
1, 81385, Note_on_c, 0, 58, 103
1, 81669, Note_off_c, 0, 58, 103
1, 81669, Note_on_c, 0, 56, 106
1, 81828, Note_off_c, 0, 56, 106
1, 81939, Note_on_c, 0, 55, 102
1, 83792, Note_off_c, 0, 55, 102
1, 83828, Note_on_c, 0, 63, 105
1, 83982, Note_off_c, 0, 63, 105
1, 86975, Note_on_c, 0, 55, 95
1, 87216, Note_off_c, 0, 55, 95
1, 87286, Note_on_c, 0, 60, 110
1, 87558, Note_on_c, 0, 57, 106
1, 87558, Note_off_c, 0, 60, 110
1, 87808, Note_off_c, 0, 57, 106
1, 87848, Note_on_c, 0, 62, 110
1, 88091, Note_off_c, 0, 62, 110
1, 88095, Note_on_c, 0, 57, 98
1, 89095, Note_off_c, 0, 57, 98
1, 89295, Note_on_c, 0, 63, 114
1, 89538, Note_off_c, 0, 63, 114
1, 89547, Note_on_c, 0, 60, 115
1, 89734, Note_off_c, 0, 60, 115
1, 89850, Note_on_c, 0, 65, 110
1, 90082, Note_off_c, 0, 65, 110
1, 90133, Note_on_c, 0, 62, 114
1, 90343, Note_off_c, 0, 62, 114
1, 90354, Note_on_c, 0, 67, 114
1, 90597, Note_off_c, 0, 67, 114
1, 90652, Note_on_c, 0, 63, 109
1, 90839, Note_off_c, 0, 63, 109
1, 90894, Note_on_c, 0, 69, 111
1, 91126, Note_off_c, 0, 69, 111
1, 91203, Note_on_c, 0, 65, 104
1, 91401, Note_off_c, 0, 65, 104
1, 91434, Note_on_c, 0, 70, 110
1, 91666, Note_off_c, 0, 70, 110
1, 91666, Note_on_c, 0, 67, 100
1, 91876, Note_off_c, 0, 67, 100
1, 91964, Note_on_c, 0, 72, 120
1, 92229, Note_off_c, 0, 72, 120
1, 93060, Note_on_c, 0, 56, 104
1, 93517, Note_off_c, 0, 56, 104
1, 93623, Note_on_c, 0, 55, 102
1, 93720, Note_off_c, 0, 55, 102
1, 93720, Note_on_c, 0, 58, 100
1, 95000, Note_off_c, 0, 58, 100
1, 95000, Note_on_c, 0, 56, 106
1, 95298, Note_off_c, 0, 56, 106
1, 95329, Note_on_c, 0, 55, 96
1, 95534, Note_off_c, 0, 55, 96
1, 95563, Note_on_c, 0, 56, 104
1, 95749, Note_off_c, 0, 56, 104
1, 95749, Note_on_c, 0, 60, 100
1, 95919, Note_off_c, 0, 60, 100
1, 95928, Note_on_c, 0, 63, 120
1, 96021, Note_off_c, 0, 63, 120
1, 96026, Note_on_c, 0, 67, 113
1, 96183, Note_off_c, 0, 67, 113
1, 96829, Note_on_c, 0, 62, 114
1, 97061, Note_off_c, 0, 62, 114
1, 97061, Note_on_c, 0, 65, 116
1, 97801, Note_off_c, 0, 65, 116
1, 99371, Note_on_c, 0, 63, 119
1, 99542, Note_off_c, 0, 63, 119
1, 99555, Note_on_c, 0, 62, 115
1, 99820, Note_off_c, 0, 62, 115
1, 99938, Note_on_c, 0, 63, 101
1, 100048, Note_off_c, 0, 63, 101
1, 100158, Note_on_c, 0, 67, 101
1, 100255, Note_off_c, 0, 67, 101
1, 100255, Note_on_c, 0, 70, 104
1, 100346, Note_off_c, 0, 70, 104
1, 100357, Note_on_c, 0, 73, 110
1, 100426, Note_off_c, 0, 73, 110
1, 100426, Note_on_c, 0, 74, 110
1, 101600, Note_off_c, 0, 74, 110
1, 101605, Note_on_c, 0, 72, 114
1, 101826, Note_on_c, 0, 70, 115
1, 101826, Note_off_c, 0, 72, 114
1, 101936, Note_off_c, 0, 70, 115
1, 101936, Note_on_c, 0, 68, 115
1, 102057, Note_off_c, 0, 68, 115
1, 102057, Note_on_c, 0, 67, 110
1, 103471, Note_off_c, 0, 67, 110
1, 103509, Note_on_c, 0, 70, 109
1, 103866, Note_off_c, 0, 70, 109
1, 103922, Note_on_c, 0, 67, 100
1, 104349, Note_off_c, 0, 67, 100
1, 104410, Note_on_c, 0, 62, 111
1, 104559, Note_off_c, 0, 62, 111
1, 104590, Note_on_c, 0, 63, 116
1, 104716, Note_off_c, 0, 63, 116
1, 104716, Note_on_c, 0, 62, 115
1, 104809, Note_off_c, 0, 62, 115
1, 104820, Note_on_c, 0, 63, 117
1, 104905, Note_off_c, 0, 63, 117
1, 104918, Note_on_c, 0, 62, 113
1, 105011, Note_off_c, 0, 62, 113
1, 105014, Note_on_c, 0, 63, 117
1, 105095, Note_off_c, 0, 63, 117
1, 105112, Note_on_c, 0, 62, 116
1, 105211, Note_off_c, 0, 62, 116
1, 105218, Note_on_c, 0, 63, 114
1, 105295, Note_off_c, 0, 63, 114
1, 105366, Note_on_c, 0, 62, 115
1, 105439, Note_off_c, 0, 62, 115
1, 105472, Note_on_c, 0, 63, 110
1, 105557, Note_off_c, 0, 63, 110
1, 105568, Note_on_c, 0, 62, 114
1, 105667, Note_off_c, 0, 62, 114
1, 105678, Note_on_c, 0, 63, 113
1, 105751, Note_off_c, 0, 63, 113
1, 105762, Note_on_c, 0, 62, 116
1, 105857, Note_off_c, 0, 62, 116
1, 105880, Note_on_c, 0, 63, 114
1, 105951, Note_off_c, 0, 63, 114
1, 105951, Note_on_c, 0, 62, 111
1, 106055, Note_off_c, 0, 62, 111
1, 106152, Note_on_c, 0, 60, 109
1, 106461, Note_off_c, 0, 60, 109
1, 112176, Note_on_c, 0, 58, 118
1, 112430, Note_on_c, 0, 59, 9
1, 112430, Note_off_c, 0, 58, 118
1, 114259, Note_off_c, 0, 59, 9
1, 114325, Note_on_c, 0, 57, 93
1, 114485, Note_off_c, 0, 57, 93
1, 114582, Note_on_c, 0, 59, 100
1, 115278, Note_off_c, 0, 59, 100
1, 115322, Note_on_c, 0, 62, 112
1, 115598, Note_off_c, 0, 62, 112
1, 116902, Note_on_c, 0, 65, 99
1, 117940, Note_on_c, 0, 66, 110
1, 117940, Note_off_c, 0, 65, 99
1, 118161, Note_off_c, 0, 66, 110
1, 118161, Note_on_c, 0, 68, 105
1, 119067, Note_off_c, 0, 68, 105
1, 119144, Note_on_c, 0, 71, 107
1, 120315, Note_off_c, 0, 71, 107
1, 120381, Note_on_c, 0, 73, 110
1, 120568, Note_off_c, 0, 73, 110
1, 120578, Note_on_c, 0, 72, 103
1, 120632, Note_off_c, 0, 72, 103
1, 120632, Note_on_c, 0, 70, 104
1, 120698, Note_off_c, 0, 70, 104
1, 120709, Note_on_c, 0, 69, 107
1, 120863, Note_off_c, 0, 69, 107
1, 120865, Note_on_c, 0, 67, 114
1, 120923, Note_off_c, 0, 67, 114
1, 120925, Note_on_c, 0, 66, 113
1, 120996, Note_off_c, 0, 66, 113
1, 120998, Note_on_c, 0, 64, 111
1, 121100, Note_off_c, 0, 64, 111
1, 121100, Note_on_c, 0, 63, 113
1, 121227, Note_off_c, 0, 63, 113
1, 121227, Note_on_c, 0, 61, 113
1, 121324, Note_off_c, 0, 61, 113
1, 121347, Note_on_c, 0, 59, 101
1, 121446, Note_off_c, 0, 59, 101
1, 121476, Note_on_c, 0, 58, 103
1, 121547, Note_off_c, 0, 58, 103
1, 121547, Note_on_c, 0, 57, 102
1, 121620, Note_off_c, 0, 57, 102
1, 121657, Note_on_c, 0, 56, 108
1, 121745, Note_off_c, 0, 56, 108
1, 121789, Note_on_c, 0, 51, 108
1, 121894, Note_off_c, 0, 51, 108
1, 121906, Note_on_c, 0, 49, 112
1, 122070, Note_off_c, 0, 49, 112
1, 122124, Note_on_c, 0, 48, 107
1, 122230, Note_off_c, 0, 48, 107
1, 123560, Note_on_c, 0, 60, 105
1, 123833, Note_off_c, 0, 60, 105
1, 123938, Note_on_c, 0, 63, 110
1, 124136, Note_off_c, 0, 63, 110
1, 124180, Note_on_c, 0, 65, 102
1, 124345, Note_off_c, 0, 65, 102
1, 125375, Note_on_c, 0, 60, 107
1, 125618, Note_off_c, 0, 60, 107
1, 125681, Note_on_c, 0, 63, 116
1, 125913, Note_off_c, 0, 63, 116
1, 125946, Note_on_c, 0, 65, 116
1, 126111, Note_off_c, 0, 65, 116
1, 127041, Note_on_c, 0, 60, 102
1, 127273, Note_off_c, 0, 60, 102
1, 127303, Note_on_c, 0, 63, 115
1, 127546, Note_off_c, 0, 63, 115
1, 127611, Note_on_c, 0, 65, 82
1, 127826, Note_off_c, 0, 65, 82
1, 127867, Note_on_c, 0, 60, 102
1, 128074, Note_off_c, 0, 60, 102
1, 128118, Note_on_c, 0, 63, 114
1, 128350, Note_off_c, 0, 63, 114
1, 128350, Note_on_c, 0, 65, 111
1, 128493, Note_off_c, 0, 65, 111
1, 128608, Note_on_c, 0, 60, 102
1, 128884, Note_off_c, 0, 60, 102
1, 128923, Note_on_c, 0, 63, 115
1, 129177, Note_off_c, 0, 63, 115
1, 129188, Note_on_c, 0, 65, 105
1, 129353, Note_off_c, 0, 65, 105
1, 130226, Note_on_c, 0, 60, 95
1, 130391, Note_off_c, 0, 60, 95
1, 130479, Note_on_c, 0, 63, 115
1, 130722, Note_off_c, 0, 63, 115
1, 130799, Note_on_c, 0, 65, 110
1, 130898, Note_off_c, 0, 65, 110
1, 131793, Note_on_c, 0, 67, 103
1, 131936, Note_off_c, 0, 67, 103
1, 132134, Note_on_c, 0, 70, 114
1, 132344, Note_off_c, 0, 70, 114
1, 132344, Note_on_c, 0, 72, 111
1, 132476, Note_off_c, 0, 72, 111
1, 132686, Note_on_c, 0, 67, 108
1, 132873, Note_off_c, 0, 67, 108
1, 132939, Note_on_c, 0, 70, 110
1, 133182, Note_off_c, 0, 70, 110
1, 133193, Note_on_c, 0, 72, 111
1, 133391, Note_off_c, 0, 72, 111
1, 133501, Note_on_c, 0, 67, 104
1, 133633, Note_off_c, 0, 67, 104
1, 133740, Note_on_c, 0, 70, 110
1, 133983, Note_off_c, 0, 70, 110
1, 134032, Note_on_c, 0, 72, 110
1, 134178, Note_off_c, 0, 72, 110
1, 134995, Note_on_c, 0, 63, 90
1, 135399, Note_off_c, 0, 63, 90
1, 135464, Note_on_c, 0, 65, 113
1, 135662, Note_off_c, 0, 65, 113
1, 135704, Note_on_c, 0, 67, 109
1, 136886, Note_off_c, 0, 67, 109
1, 136906, Note_on_c, 0, 60, 100
1, 137110, Note_off_c, 0, 60, 100
1, 137173, Note_on_c, 0, 63, 114
1, 137360, Note_off_c, 0, 63, 114
1, 137371, Note_on_c, 0, 65, 112
1, 137647, Note_off_c, 0, 65, 112
1, 138055, Note_on_c, 0, 65, 112
1, 138539, Note_off_c, 0, 65, 112
1, 138539, Note_on_c, 0, 63, 103
1, 138795, Note_off_c, 0, 63, 103
1, 138795, Note_on_c, 0, 65, 109
1, 139237, Note_off_c, 0, 65, 109
1, 139237, Note_on_c, 0, 67, 108
1, 140187, Note_off_c, 0, 67, 108
1, 141789, Note_on_c, 0, 67, 101
1, 141910, Note_off_c, 0, 67, 101
1, 142000, Note_on_c, 0, 69, 75
1, 142093, Note_off_c, 0, 69, 75
1, 142122, Note_on_c, 0, 70, 110
1, 142370, Note_off_c, 0, 70, 110
1, 142376, Note_on_c, 0, 72, 98
1, 142544, Note_off_c, 0, 72, 98
1, 142690, Note_on_c, 0, 67, 100
1, 142789, Note_off_c, 0, 67, 100
1, 142954, Note_on_c, 0, 70, 106
1, 143241, Note_off_c, 0, 70, 106
1, 143241, Note_on_c, 0, 72, 111
1, 143406, Note_off_c, 0, 72, 111
1, 144494, Note_on_c, 0, 60, 99
1, 144676, Note_off_c, 0, 60, 99
1, 144676, Note_on_c, 0, 63, 119
1, 144930, Note_off_c, 0, 63, 119
1, 144941, Note_on_c, 0, 65, 105
1, 145206, Note_off_c, 0, 65, 105
1, 146068, Note_on_c, 0, 66, 102
1, 146145, Note_off_c, 0, 66, 102
1, 146388, Note_on_c, 0, 68, 110
1, 146620, Note_off_c, 0, 68, 110
1, 146631, Note_on_c, 0, 71, 114
1, 147482, Note_off_c, 0, 71, 114
1, 147724, Note_on_c, 0, 64, 83
1, 147956, Note_off_c, 0, 64, 83
1, 148096, Note_on_c, 0, 67, 108
1, 148283, Note_off_c, 0, 67, 108
1, 148283, Note_on_c, 0, 69, 107
1, 149134, Note_off_c, 0, 69, 107
1, 149476, Note_on_c, 0, 66, 101
1, 150991, Note_off_c, 0, 66, 101
1, 150991, Note_on_c, 0, 63, 114
1, 151245, Note_off_c, 0, 63, 114
1, 151280, Note_on_c, 0, 61, 112
1, 151444, Note_off_c, 0, 61, 112
1, 151506, Note_on_c, 0, 58, 104
1, 151611, Note_off_c, 0, 58, 104
1, 151670, Note_on_c, 0, 56, 101
1, 151816, Note_off_c, 0, 56, 101
1, 153142, Note_on_c, 0, 60, 99
1, 153360, Note_off_c, 0, 60, 99
1, 153461, Note_on_c, 0, 63, 102
1, 153803, Note_off_c, 0, 63, 102
1, 154112, Note_on_c, 0, 62, 108
1, 154297, Note_off_c, 0, 62, 108
1, 154343, Note_on_c, 0, 65, 107
1, 154497, Note_off_c, 0, 65, 107
1, 154883, Note_on_c, 0, 63, 109
1, 155115, Note_off_c, 0, 63, 109
1, 155126, Note_on_c, 0, 67, 108
1, 155313, Note_off_c, 0, 67, 108
1, 155788, Note_on_c, 0, 65, 109
1, 155953, Note_off_c, 0, 65, 109
1, 155963, Note_on_c, 0, 68, 110
1, 156139, Note_off_c, 0, 68, 110
1, 156304, Note_on_c, 0, 67, 116
1, 156536, Note_off_c, 0, 67, 116
1, 156545, Note_on_c, 0, 70, 91
1, 156731, Note_off_c, 0, 70, 91
1, 156867, Note_on_c, 0, 68, 112
1, 157121, Note_off_c, 0, 68, 112
1, 157121, Note_on_c, 0, 72, 97
1, 157220, Note_off_c, 0, 72, 97
1, 157407, Note_on_c, 0, 70, 111
1, 157661, Note_off_c, 0, 70, 111
1, 157674, Note_on_c, 0, 74, 108
1, 157801, Note_off_c, 0, 74, 108
1, 158014, Note_on_c, 0, 72, 107
1, 158168, Note_off_c, 0, 72, 107
1, 158200, Note_on_c, 0, 75, 109
1, 158343, Note_off_c, 0, 75, 109
1, 158486, Note_on_c, 0, 72, 106
1, 158784, Note_on_c, 0, 74, 99
1, 158784, Note_off_c, 0, 72, 106
1, 159513, Note_off_c, 0, 74, 99
1, 159513, Note_on_c, 0, 72, 107
1, 159723, Note_off_c, 0, 72, 107
1, 159977, Note_on_c, 0, 74, 105
1, 160772, Note_off_c, 0, 74, 105
1, 160772, Note_on_c, 0, 72, 114
1, 161291, Note_off_c, 0, 72, 114
1, 161291, Note_on_c, 0, 74, 109
1, 161887, Note_off_c, 0, 74, 109
1, 162086, Note_on_c, 0, 72, 103
1, 162373, Note_off_c, 0, 72, 103
1, 162440, Note_on_c, 0, 74, 108
1, 164682, Note_off_c, 0, 74, 108
1, 168042, Note_on_c, 0, 74, 113
1, 168207, Note_off_c, 0, 74, 113
1, 168207, Note_on_c, 0, 72, 107
1, 168417, Note_off_c, 0, 72, 107
1, 168461, Note_on_c, 0, 70, 115
1, 168637, Note_off_c, 0, 70, 115
1, 168670, Note_on_c, 0, 67, 116
1, 168857, Note_off_c, 0, 67, 116
1, 168912, Note_on_c, 0, 65, 112
1, 169088, Note_off_c, 0, 65, 112
1, 169143, Note_on_c, 0, 63, 116
1, 169330, Note_on_c, 0, 62, 111
1, 169330, Note_off_c, 0, 63, 116
1, 169506, Note_off_c, 0, 62, 111
1, 169637, Note_on_c, 0, 60, 112
1, 170642, Note_off_c, 0, 60, 112
1, 170756, Note_on_c, 0, 58, 105
1, 170883, Note_off_c, 0, 58, 105
1, 170998, Note_on_c, 0, 55, 102
1, 171130, Note_off_c, 0, 55, 102
1, 171189, Note_on_c, 0, 53, 106
1, 171399, Note_off_c, 0, 53, 106
1, 171463, Note_on_c, 0, 50, 103
1, 171648, Note_off_c, 0, 50, 103
1, 171758, Note_on_c, 0, 48, 101
1, 171991, Note_off_c, 0, 48, 101
1, 172007, Note_on_c, 0, 45, 99
1, 172349, Note_off_c, 0, 45, 99
1, 173485, Note_on_c, 0, 47, 105
1, 173739, Note_off_c, 0, 47, 105
1, 174092, Note_on_c, 0, 53, 100
1, 174434, Note_off_c, 0, 53, 100
1, 174435, Note_on_c, 0, 56, 100
1, 174667, Note_off_c, 0, 56, 100
1, 174764, Note_on_c, 0, 59, 105
1, 175007, Note_off_c, 0, 59, 105
1, 175172, Note_on_c, 0, 62, 117
1, 175492, Note_off_c, 0, 62, 117
1, 175503, Note_on_c, 0, 64, 114
1, 175779, Note_off_c, 0, 64, 114
1, 175878, Note_on_c, 0, 67, 110
1, 176894, Note_off_c, 0, 67, 110
1, 177988, Note_on_c, 0, 70, 113
1, 179303, Note_off_c, 0, 70, 113
1, 179314, Note_on_c, 0, 67, 107
1, 179512, Note_off_c, 0, 67, 107
1, 179512, Note_on_c, 0, 70, 107
1, 179710, Note_off_c, 0, 70, 107
1, 179853, Note_on_c, 0, 67, 110
1, 181242, Note_off_c, 0, 67, 110
1, 181290, Note_on_c, 0, 72, 107
1, 181621, Note_off_c, 0, 72, 107
1, 181740, Note_on_c, 0, 67, 111
1, 182016, Note_off_c, 0, 67, 111
1, 182043, Note_on_c, 0, 66, 109
1, 182288, Note_off_c, 0, 66, 109
1, 182288, Note_on_c, 0, 65, 108
1, 183735, Note_off_c, 0, 65, 108
1, 184568, Note_on_c, 0, 66, 106
1, 184855, Note_off_c, 0, 66, 106
1, 184855, Note_on_c, 0, 65, 109
1, 185031, Note_off_c, 0, 65, 109
1, 185031, Note_on_c, 0, 66, 107
1, 185141, Note_off_c, 0, 66, 107
1, 185141, Note_on_c, 0, 65, 106
1, 185351, Note_off_c, 0, 65, 106
1, 185362, Note_on_c, 0, 67, 106
1, 185461, Note_off_c, 0, 67, 106
1, 185461, Note_on_c, 0, 65, 104
1, 185659, Note_off_c, 0, 65, 104
1, 185659, Note_on_c, 0, 67, 109
1, 185791, Note_off_c, 0, 67, 109
1, 185791, Note_on_c, 0, 65, 109
1, 185934, Note_off_c, 0, 65, 109
1, 185934, Note_on_c, 0, 67, 106
1, 186110, Note_off_c, 0, 67, 106
1, 186110, Note_on_c, 0, 65, 97
1, 186264, Note_off_c, 0, 65, 97
1, 186416, Note_on_c, 0, 63, 114
1, 186523, Note_off_c, 0, 63, 114
1, 186523, Note_on_c, 0, 65, 109
1, 186669, Note_off_c, 0, 65, 109
1, 186726, Note_on_c, 0, 63, 104
1, 186858, Note_off_c, 0, 63, 104
1, 186858, Note_on_c, 0, 65, 92
1, 187001, Note_off_c, 0, 65, 92
1, 187093, Note_on_c, 0, 63, 86
1, 187316, Note_off_c, 0, 63, 86
1, 187398, Note_on_c, 0, 65, 96
1, 187544, Note_on_c, 0, 63, 95
1, 187544, Note_off_c, 0, 65, 96
1, 187798, Note_off_c, 0, 63, 95
1, 187993, Note_on_c, 0, 62, 114
1, 188346, Note_off_c, 0, 62, 114
1, 188346, Note_on_c, 0, 60, 97
1, 188677, Note_off_c, 0, 60, 97
1, 192344, Note_on_c, 0, 60, 116
1, 192819, Note_off_c, 0, 60, 116
1, 192876, Note_on_c, 0, 60, 117
1, 193152, Note_off_c, 0, 60, 117
1, 193184, Note_on_c, 0, 63, 113
1, 193733, Note_off_c, 0, 63, 113
1, 193733, Note_on_c, 0, 65, 108
1, 193970, Note_off_c, 0, 65, 108
1, 194936, Note_on_c, 0, 63, 112
1, 195400, Note_off_c, 0, 63, 112
1, 195400, Note_on_c, 0, 63, 110
1, 195698, Note_off_c, 0, 63, 110
1, 195698, Note_on_c, 0, 65, 110
1, 196183, Note_on_c, 0, 67, 99
1, 196183, Note_off_c, 0, 65, 110
1, 196779, Note_off_c, 0, 67, 99
1, 197419, Note_on_c, 0, 63, 109
1, 197927, Note_off_c, 0, 63, 109
1, 197993, Note_on_c, 0, 63, 111
1, 198147, Note_off_c, 0, 63, 111
1, 198296, Note_on_c, 0, 67, 106
1, 198716, Note_off_c, 0, 67, 106
1, 198767, Note_on_c, 0, 72, 94
1, 199076, Note_off_c, 0, 72, 94
1, 199539, Note_on_c, 0, 63, 106
1, 199627, Note_off_c, 0, 63, 106
1, 199649, Note_on_c, 0, 67, 108
1, 199811, Note_off_c, 0, 67, 108
1, 199811, Note_on_c, 0, 72, 112
1, 199946, Note_off_c, 0, 72, 112
1, 199954, Note_on_c, 0, 70, 111
1, 200923, Note_off_c, 0, 70, 111
1, 201073, Note_on_c, 0, 65, 113
1, 201171, Note_off_c, 0, 65, 113
1, 201171, Note_on_c, 0, 63, 112
1, 201325, Note_off_c, 0, 63, 112
1, 201401, Note_on_c, 0, 58, 100
1, 201510, Note_off_c, 0, 58, 100
1, 201569, Note_on_c, 0, 55, 114
1, 201765, Note_off_c, 0, 55, 114
1, 203389, Note_on_c, 0, 60, 111
1, 203479, Note_off_c, 0, 60, 111
1, 203587, Note_on_c, 0, 63, 108
1, 203752, Note_off_c, 0, 63, 108
1, 203774, Note_on_c, 0, 67, 108
1, 204006, Note_off_c, 0, 67, 108
1, 204038, Note_on_c, 0, 72, 112
1, 204557, Note_off_c, 0, 72, 112
1, 204568, Note_on_c, 0, 70, 108
1, 205363, Note_off_c, 0, 70, 108
1, 205385, Note_on_c, 0, 67, 108
1, 205594, Note_off_c, 0, 67, 108
1, 205594, Note_on_c, 0, 65, 111
1, 205869, Note_off_c, 0, 65, 111
1, 205869, Note_on_c, 0, 63, 117
1, 205979, Note_off_c, 0, 63, 117
1, 205980, Note_on_c, 0, 58, 113
1, 206070, Note_off_c, 0, 58, 113
1, 206079, Note_on_c, 0, 55, 108
1, 206270, Note_off_c, 0, 55, 108
1, 206310, Note_on_c, 0, 53, 104
1, 206510, Note_off_c, 0, 53, 104
1, 206530, Note_on_c, 0, 55, 112
1, 206728, Note_off_c, 0, 55, 112
1, 208195, Note_on_c, 0, 56, 108
1, 208360, Note_off_c, 0, 56, 108
1, 208395, Note_on_c, 0, 54, 104
1, 208508, Note_off_c, 0, 54, 104
1, 208535, Note_on_c, 0, 57, 105
1, 208733, Note_off_c, 0, 57, 105
1, 208760, Note_on_c, 0, 55, 112
1, 208994, Note_off_c, 0, 55, 112
1, 208994, Note_on_c, 0, 56, 102
1, 209204, Note_off_c, 0, 56, 102
1, 209259, Note_on_c, 0, 57, 105
1, 209405, Note_off_c, 0, 57, 105
1, 209474, Note_on_c, 0, 58, 110
1, 209606, Note_off_c, 0, 58, 110
1, 209636, Note_on_c, 0, 59, 112
1, 209702, Note_off_c, 0, 59, 112
1, 209702, Note_on_c, 0, 60, 112
1, 209812, Note_off_c, 0, 60, 112
1, 209846, Note_on_c, 0, 62, 114
1, 209978, Note_off_c, 0, 62, 114
1, 210043, Note_on_c, 0, 63, 108
1, 210197, Note_off_c, 0, 63, 108
1, 210197, Note_on_c, 0, 65, 105
1, 210318, Note_off_c, 0, 65, 105
1, 210407, Note_on_c, 0, 67, 101
1, 210550, Note_off_c, 0, 67, 101
1, 210615, Note_on_c, 0, 68, 113
1, 210737, Note_off_c, 0, 68, 113
1, 210737, Note_on_c, 0, 67, 107
1, 211002, Note_off_c, 0, 67, 107
1, 211012, Note_on_c, 0, 66, 110
1, 211188, Note_off_c, 0, 66, 110
1, 211188, Note_on_c, 0, 67, 110
1, 211398, Note_off_c, 0, 67, 110
1, 211416, Note_on_c, 0, 65, 123
1, 211529, Note_off_c, 0, 65, 123
1, 211540, Note_on_c, 0, 64, 117
1, 211691, Note_off_c, 0, 64, 117
1, 211726, Note_on_c, 0, 63, 114
1, 211913, Note_off_c, 0, 63, 114
1, 211925, Note_on_c, 0, 65, 112
1, 212157, Note_off_c, 0, 65, 112
1, 212194, Note_on_c, 0, 63, 117
1, 212290, Note_off_c, 0, 63, 117
1, 212331, Note_on_c, 0, 65, 108
1, 212521, Note_off_c, 0, 65, 108
1, 212545, Note_on_c, 0, 67, 104
1, 212799, Note_off_c, 0, 67, 104
1, 212859, Note_on_c, 0, 70, 103
1, 213002, Note_off_c, 0, 70, 103
1, 213034, Note_on_c, 0, 75, 107
1, 216526, Note_off_c, 0, 75, 107
1, 216670, Note_on_c, 0, 72, 103
1, 216791, Note_off_c, 0, 72, 103
1, 216851, Note_on_c, 0, 68, 109
1, 216996, Note_off_c, 0, 68, 109
1, 217015, Note_on_c, 0, 63, 110
1, 217242, Note_off_c, 0, 63, 110
1, 218668, Note_on_c, 0, 75, 108
1, 219180, Note_off_c, 0, 75, 108
1, 219180, Note_on_c, 0, 72, 100
1, 219304, Note_off_c, 0, 72, 100
1, 219375, Note_on_c, 0, 68, 112
1, 219485, Note_off_c, 0, 68, 112
1, 219485, Note_on_c, 0, 65, 104
1, 219751, Note_off_c, 0, 65, 104
1, 220024, Note_on_c, 0, 77, 97
1, 220786, Note_off_c, 0, 77, 97
1, 220863, Note_on_c, 0, 74, 111
1, 221039, Note_off_c, 0, 74, 111
1, 221039, Note_on_c, 0, 70, 114
1, 221211, Note_on_c, 0, 67, 113
1, 221211, Note_off_c, 0, 70, 114
1, 221348, Note_off_c, 0, 67, 113
1, 221351, Note_on_c, 0, 65, 108
1, 221624, Note_off_c, 0, 65, 108
1, 221931, Note_on_c, 0, 75, 114
1, 221975, Note_off_c, 0, 75, 114
1, 222064, Note_on_c, 0, 79, 103
1, 224694, Note_off_c, 0, 79, 103
1, 224727, Note_on_c, 0, 77, 103
1, 225244, Note_off_c, 0, 77, 103
1, 225244, Note_on_c, 0, 79, 100
1, 225487, Note_off_c, 0, 79, 100
1, 225521, Note_on_c, 0, 79, 111
1, 225675, Note_off_c, 0, 79, 111
1, 225675, Note_on_c, 0, 77, 102
1, 225884, Note_off_c, 0, 77, 102
1, 225884, Note_on_c, 0, 78, 97
1, 225961, Note_off_c, 0, 78, 97
1, 225982, Note_on_c, 0, 75, 101
1, 227087, Note_off_c, 0, 75, 101
1, 227087, Note_on_c, 0, 74, 97
1, 227750, Note_off_c, 0, 74, 97
1, 228396, Note_on_c, 0, 72, 113
1, 228594, Note_off_c, 0, 72, 113
1, 228594, Note_on_c, 0, 70, 110
1, 228770, Note_off_c, 0, 70, 110
1, 228857, Note_on_c, 0, 69, 111
1, 229166, Note_off_c, 0, 69, 111
1, 230038, Note_on_c, 0, 67, 113
1, 230115, Note_off_c, 0, 67, 113
1, 230159, Note_on_c, 0, 65, 118
1, 230346, Note_off_c, 0, 65, 118
1, 230369, Note_on_c, 0, 63, 112
1, 230567, Note_off_c, 0, 63, 112
1, 230641, Note_on_c, 0, 62, 118
1, 230773, Note_off_c, 0, 62, 118
1, 230800, Note_on_c, 0, 60, 111
1, 230998, Note_off_c, 0, 60, 111
1, 231064, Note_on_c, 0, 58, 106
1, 231517, Note_off_c, 0, 58, 106
1, 231859, Note_on_c, 0, 60, 89
1, 231964, Note_off_c, 0, 60, 89
1, 232054, Note_on_c, 0, 66, 109
1, 232120, Note_off_c, 0, 66, 109
1, 232129, Note_on_c, 0, 68, 105
1, 232195, Note_off_c, 0, 68, 105
1, 232284, Note_on_c, 0, 71, 113
1, 233455, Note_off_c, 0, 71, 113
1, 233532, Note_on_c, 0, 71, 109
1, 234383, Note_off_c, 0, 71, 109
1, 234383, Note_on_c, 0, 69, 97
1, 234570, Note_off_c, 0, 69, 97
1, 234612, Note_on_c, 0, 71, 115
1, 234877, Note_off_c, 0, 71, 115
1, 234899, Note_on_c, 0, 74, 105
1, 235893, Note_off_c, 0, 74, 105
1, 237442, Note_on_c, 0, 67, 111
1, 237652, Note_off_c, 0, 67, 111
1, 237872, Note_on_c, 0, 70, 118
1, 238247, Note_off_c, 0, 70, 118
1, 238257, Note_on_c, 0, 67, 116
1, 238478, Note_off_c, 0, 67, 116
1, 238622, Note_on_c, 0, 70, 117
1, 238909, Note_off_c, 0, 70, 117
1, 238918, Note_on_c, 0, 67, 114
1, 239161, Note_off_c, 0, 67, 114
1, 239275, Note_on_c, 0, 71, 101
1, 239346, Note_off_c, 0, 71, 101
1, 239392, Note_on_c, 0, 74, 96
1, 239469, Note_off_c, 0, 74, 96
1, 239469, Note_on_c, 0, 77, 106
1, 240849, Note_off_c, 0, 77, 106
1, 240849, Note_on_c, 0, 75, 120
1, 241103, Note_off_c, 0, 75, 120
1, 241147, Note_on_c, 0, 72, 111
1, 241390, Note_off_c, 0, 72, 111
1, 241457, Note_on_c, 0, 70, 112
1, 241644, Note_off_c, 0, 70, 112
1, 241697, Note_on_c, 0, 68, 113
1, 241907, Note_off_c, 0, 68, 113
1, 241908, Note_on_c, 0, 67, 111
1, 242162, Note_off_c, 0, 67, 111
1, 242204, Note_on_c, 0, 65, 111
1, 242414, Note_off_c, 0, 65, 111
1, 242459, Note_on_c, 0, 63, 111
1, 242580, Note_off_c, 0, 63, 111
1, 242589, Note_on_c, 0, 65, 108
1, 242655, Note_off_c, 0, 65, 108
1, 242655, Note_on_c, 0, 67, 108
1, 242920, Note_off_c, 0, 67, 108
1, 242921, Note_on_c, 0, 65, 109
1, 243153, Note_off_c, 0, 65, 109
1, 243189, Note_on_c, 0, 63, 113
1, 243316, Note_off_c, 0, 63, 113
1, 243357, Note_on_c, 0, 60, 112
1, 243449, Note_off_c, 0, 60, 112
1, 243449, Note_on_c, 0, 58, 98
1, 244355, Note_off_c, 0, 58, 98
1, 245163, Note_on_c, 0, 62, 105
1, 245272, Note_off_c, 0, 62, 105
1, 245272, Note_on_c, 0, 63, 116
1, 246841, Note_off_c, 0, 63, 116
1, 246993, Note_on_c, 0, 58, 85
1, 247186, Note_off_c, 0, 58, 85
1, 247292, Note_on_c, 0, 62, 113
1, 247568, Note_off_c, 0, 62, 113
1, 247594, Note_on_c, 0, 60, 111
1, 248246, Note_off_c, 0, 60, 111
1, 250773, Note_on_c, 0, 60, 118
1, 251148, Note_off_c, 0, 60, 118
1, 251170, Note_on_c, 0, 62, 115
1, 251368, Note_off_c, 0, 62, 115
1, 251544, Note_on_c, 0, 63, 118
1, 251908, Note_off_c, 0, 63, 118
1, 251908, Note_on_c, 0, 65, 114
1, 252173, Note_off_c, 0, 65, 114
1, 252317, Note_on_c, 0, 60, 116
1, 252493, Note_off_c, 0, 60, 116
1, 252501, Note_on_c, 0, 62, 111
1, 253943, Note_off_c, 0, 62, 111
1, 253943, End_track
0, 0, End_of_file
