0, 0, Header, 1, 1, 192
1, 0, Start_track
1, 0, Note_on_c, 0, 65, 113
1, 97, Note_off_c, 0, 65, 113
1, 115, Note_on_c, 0, 62, 105
1, 189, Note_off_c, 0, 62, 105
1, 194, Note_on_c, 0, 65, 121
1, 286, Note_off_c, 0, 65, 121
1, 306, Note_on_c, 0, 67, 117
1, 565, Note_off_c, 0, 67, 117
1, 590, Note_on_c, 0, 65, 103
1, 662, Note_off_c, 0, 65, 103
1, 682, Note_on_c, 0, 67, 112
1, 759, Note_off_c, 0, 67, 112
1, 769, Note_on_c, 0, 65, 109
1, 853, Note_off_c, 0, 65, 109
1, 871, Note_on_c, 0, 62, 103
1, 940, Note_off_c, 0, 62, 103
1, 978, Note_on_c, 0, 58, 98
1, 1055, Note_off_c, 0, 58, 98
1, 1070, Note_on_c, 0, 62, 111
1, 1167, Note_off_c, 0, 62, 111
1, 1177, Note_on_c, 0, 60, 109
1, 1233, Note_off_c, 0, 60, 109
1, 1264, Note_on_c, 0, 56, 111
1, 1354, Note_off_c, 0, 56, 111
1, 1453, Note_on_c, 0, 55, 102
1, 1540, Note_off_c, 0, 55, 102
1, 1555, Note_on_c, 0, 58, 106
1, 1634, Note_off_c, 0, 58, 106
1, 1654, Note_on_c, 0, 55, 106
1, 1731, Note_off_c, 0, 55, 106
1, 1738, Note_on_c, 0, 57, 111
1, 1810, Note_off_c, 0, 57, 111
1, 1810, Note_on_c, 0, 55, 104
1, 2005, Note_off_c, 0, 55, 104
1, 2699, Note_on_c, 0, 56, 107
1, 3328, Note_off_c, 0, 56, 107
1, 3353, Note_on_c, 0, 56, 101
1, 3439, Note_off_c, 0, 56, 101
1, 3455, Note_on_c, 0, 58, 106
1, 3519, Note_off_c, 0, 58, 106
1, 3526, Note_on_c, 0, 59, 110
1, 3616, Note_off_c, 0, 59, 110
1, 3636, Note_on_c, 0, 62, 111
1, 3700, Note_off_c, 0, 62, 111
1, 3707, Note_on_c, 0, 63, 118
1, 3838, Note_off_c, 0, 63, 118
1, 3849, Note_on_c, 0, 65, 119
1, 3880, Note_off_c, 0, 65, 119
1, 3880, Note_on_c, 0, 66, 117
1, 4163, Note_off_c, 0, 66, 117
1, 4169, Note_on_c, 0, 65, 99
1, 4272, Note_off_c, 0, 65, 99
1, 5300, Note_on_c, 0, 69, 121
1, 5406, Note_off_c, 0, 69, 121
1, 5416, Note_on_c, 0, 72, 120
1, 5891, Note_off_c, 0, 72, 120
1, 5906, Note_on_c, 0, 70, 114
1, 6011, Note_off_c, 0, 70, 114
1, 6021, Note_on_c, 0, 72, 115
1, 6090, Note_off_c, 0, 72, 115
1, 6102, Note_on_c, 0, 70, 113
1, 6204, Note_off_c, 0, 70, 113
1, 6209, Note_on_c, 0, 67, 104
1, 6278, Note_off_c, 0, 67, 104
1, 6886, Note_on_c, 0, 67, 108
1, 6970, Note_off_c, 0, 67, 108
1, 6984, Note_on_c, 0, 64, 107
1, 7068, Note_off_c, 0, 64, 107
1, 7080, Note_on_c, 0, 67, 114
1, 7185, Note_off_c, 0, 67, 114
1, 7195, Note_on_c, 0, 66, 115
1, 7261, Note_off_c, 0, 66, 115
1, 7289, Note_on_c, 0, 63, 117
1, 7376, Note_off_c, 0, 63, 117
1, 7394, Note_on_c, 0, 58, 113
1, 7504, Note_off_c, 0, 58, 113
1, 7529, Note_on_c, 0, 63, 120
1, 7670, Note_off_c, 0, 63, 120
1, 7690, Note_on_c, 0, 60, 113
1, 7759, Note_off_c, 0, 60, 113
1, 7787, Note_on_c, 0, 56, 109
1, 7866, Note_off_c, 0, 56, 109
1, 8351, Note_on_c, 0, 56, 114
1, 8441, Note_off_c, 0, 56, 114
1, 8620, Note_on_c, 0, 55, 109
1, 8670, Note_off_c, 0, 55, 109
1, 8670, Note_on_c, 0, 58, 109
1, 8742, Note_off_c, 0, 58, 109
1, 8765, Note_on_c, 0, 54, 107
1, 8848, Note_off_c, 0, 54, 107
1, 8853, Note_on_c, 0, 55, 108
1, 8930, Note_off_c, 0, 55, 108
1, 9088, Note_on_c, 0, 63, 93
1, 9129, Note_off_c, 0, 63, 93
1, 9148, Note_on_c, 0, 65, 117
1, 9251, Note_on_c, 0, 62, 99
1, 9251, Note_off_c, 0, 65, 117
1, 9296, Note_off_c, 0, 62, 99
1, 9306, Note_on_c, 0, 63, 95
1, 9423, Note_off_c, 0, 63, 95
1, 9444, Note_on_c, 0, 64, 119
1, 9548, Note_off_c, 0, 64, 119
1, 10058, Title_t, "Melody"
1, 10058, Tempo, 216606
1, 10058, Key_signature, -5, "major"
1, 10058, Time_signature, 4, 2, 24, 8
1, 10619, Note_on_c, 0, 67, 112
1, 10711, Note_off_c, 0, 67, 112
1, 10723, Note_on_c, 0, 69, 117
1, 10789, Note_off_c, 0, 69, 117
1, 10812, Note_on_c, 0, 65, 114
1, 10902, Note_off_c, 0, 65, 114
1, 10914, Note_on_c, 0, 62, 114
1, 10997, Note_off_c, 0, 62, 114
1, 11290, Note_on_c, 0, 62, 112
1, 11402, Note_on_c, 0, 61, 102
1, 11402, Note_off_c, 0, 62, 112
1, 11472, Note_off_c, 0, 61, 102
1, 11472, Note_on_c, 0, 64, 118
1, 11564, Note_off_c, 0, 64, 118
1, 11580, Note_on_c, 0, 62, 114
1, 11652, Note_off_c, 0, 62, 114
1, 11686, Note_on_c, 0, 59, 109
1, 11752, Note_off_c, 0, 59, 109
1, 11811, Note_on_c, 0, 55, 99
1, 11892, Note_off_c, 0, 55, 99
1, 11980, Note_on_c, 0, 60, 115
1, 12057, Note_off_c, 0, 60, 115
1, 12076, Note_on_c, 0, 56, 104
1, 12162, Note_off_c, 0, 56, 104
1, 13345, Note_on_c, 0, 69, 124
1, 13413, Note_off_c, 0, 69, 124
1, 13431, Note_on_c, 0, 68, 112
1, 13476, Note_off_c, 0, 68, 112
1, 13497, Note_on_c, 0, 66, 115
1, 13582, Note_off_c, 0, 66, 115
1, 13598, Note_on_c, 0, 69, 120
1, 13666, Note_off_c, 0, 69, 120
1, 13684, Note_on_c, 0, 67, 114
1, 13774, Note_off_c, 0, 67, 114
1, 13784, Note_on_c, 0, 65, 113
1, 13847, Note_off_c, 0, 65, 113
1, 13857, Note_on_c, 0, 64, 112
1, 13965, Note_off_c, 0, 64, 112
1, 13986, Note_on_c, 0, 63, 109
1, 14043, Note_off_c, 0, 63, 109
1, 14066, Note_on_c, 0, 62, 110
1, 14169, Note_off_c, 0, 62, 110
1, 14199, Note_on_c, 0, 61, 110
1, 14246, Note_off_c, 0, 61, 110
1, 14255, Note_on_c, 0, 60, 104
1, 14332, Note_off_c, 0, 60, 104
1, 14357, Note_on_c, 0, 59, 102
1, 14409, Note_off_c, 0, 59, 102
1, 14424, Note_on_c, 0, 58, 98
1, 14508, Note_off_c, 0, 58, 98
1, 14838, Note_on_c, 0, 57, 106
1, 14904, Note_off_c, 0, 57, 106
1, 14923, Note_on_c, 0, 55, 102
1, 14986, Note_off_c, 0, 55, 102
1, 15002, Note_on_c, 0, 54, 99
1, 15083, Note_off_c, 0, 54, 99
1, 15115, Note_on_c, 0, 57, 105
1, 15176, Note_off_c, 0, 57, 105
1, 15179, Note_on_c, 0, 55, 100
1, 15260, Note_off_c, 0, 55, 100
1, 15306, Note_on_c, 0, 57, 109
1, 15367, Note_off_c, 0, 57, 109
1, 15386, Note_on_c, 0, 58, 108
1, 15468, Note_off_c, 0, 58, 108
1, 15484, Note_on_c, 0, 60, 110
1, 15558, Note_off_c, 0, 60, 110
1, 15567, Note_on_c, 0, 62, 108
1, 15668, Note_off_c, 0, 62, 108
1, 15691, Note_on_c, 0, 58, 107
1, 15734, Note_off_c, 0, 58, 107
1, 15759, Note_on_c, 0, 57, 102
1, 15824, Note_off_c, 0, 57, 102
1, 15888, Note_on_c, 0, 55, 103
1, 15938, Note_off_c, 0, 55, 103
1, 15975, Note_on_c, 0, 60, 106
1, 16058, Note_off_c, 0, 60, 106
1, 16312, Note_on_c, 0, 54, 112
1, 16363, Note_off_c, 0, 54, 112
1, 16363, Note_on_c, 0, 58, 111
1, 16436, Note_off_c, 0, 58, 111
1, 16441, Note_on_c, 0, 55, 103
1, 16493, Note_off_c, 0, 55, 103
1, 16493, Note_on_c, 0, 56, 98
1, 16577, Note_off_c, 0, 56, 98
1, 16609, Note_on_c, 0, 58, 109
1, 16679, Note_off_c, 0, 58, 109
1, 16724, Note_on_c, 0, 55, 103
1, 16780, Note_off_c, 0, 55, 103
1, 16792, Note_on_c, 0, 58, 112
1, 16870, Note_off_c, 0, 58, 112
1, 16882, Note_on_c, 0, 55, 109
1, 16955, Note_off_c, 0, 55, 109
1, 16962, Note_on_c, 0, 53, 108
1, 17035, Note_off_c, 0, 53, 108
1, 17046, Note_on_c, 0, 51, 109
1, 17136, Note_off_c, 0, 51, 109
1, 17174, Note_on_c, 0, 55, 108
1, 17256, Note_off_c, 0, 55, 108
1, 17261, Note_on_c, 0, 53, 113
1, 17326, Note_off_c, 0, 53, 113
1, 17332, Note_on_c, 0, 55, 110
1, 17404, Note_off_c, 0, 55, 110
1, 17404, Note_on_c, 0, 56, 104
1, 17512, Note_off_c, 0, 56, 104
1, 17536, Note_on_c, 0, 58, 110
1, 17617, Note_off_c, 0, 58, 110
1, 17645, Note_on_c, 0, 60, 111
1, 17722, Note_off_c, 0, 60, 111
1, 18309, Note_on_c, 0, 59, 112
1, 18580, Note_off_c, 0, 59, 112
1, 18605, Note_on_c, 0, 55, 101
1, 18679, Note_off_c, 0, 55, 101
1, 18679, Note_on_c, 0, 62, 118
1, 18976, Note_off_c, 0, 62, 118
1, 19027, Note_on_c, 0, 56, 108
1, 19093, Note_off_c, 0, 56, 108
1, 19108, Note_on_c, 0, 63, 113
1, 19402, Note_off_c, 0, 63, 113
1, 19430, Note_on_c, 0, 61, 101
1, 19532, Note_off_c, 0, 61, 101
1, 19541, Note_on_c, 0, 64, 106
1, 19701, Note_off_c, 0, 64, 106
1, 20259, Note_on_c, 0, 55, 104
1, 20340, Note_off_c, 0, 55, 104
1, 20343, Note_on_c, 0, 57, 106
1, 20408, Note_off_c, 0, 57, 106
1, 20419, Note_on_c, 0, 58, 108
1, 20530, Note_off_c, 0, 58, 108
1, 20550, Note_on_c, 0, 60, 114
1, 20679, Note_off_c, 0, 60, 114
1, 20698, Note_on_c, 0, 62, 116
1, 20844, Note_off_c, 0, 62, 116
1, 20936, Note_on_c, 0, 60, 116
1, 21094, Note_off_c, 0, 60, 116
1, 21108, Note_on_c, 0, 58, 107
1, 21210, Note_off_c, 0, 58, 107
1, 21226, Note_on_c, 0, 60, 118
1, 21476, Note_off_c, 0, 60, 118
1, 22042, Note_on_c, 0, 60, 104
1, 22125, Note_off_c, 0, 60, 104
1, 22229, Note_on_c, 0, 65, 117
1, 22464, Note_off_c, 0, 65, 117
1, 22479, Note_on_c, 0, 62, 114
1, 22625, Note_off_c, 0, 62, 114
1, 22663, Note_on_c, 0, 58, 105
1, 22715, Note_off_c, 0, 58, 105
1, 22775, Note_on_c, 0, 67, 106
1, 23471, Note_off_c, 0, 67, 106
1, 23481, Note_on_c, 0, 66, 117
1, 23560, Note_off_c, 0, 66, 117
1, 23579, Note_on_c, 0, 65, 113
1, 23671, Note_off_c, 0, 65, 113
1, 23687, Note_on_c, 0, 64, 112
1, 23755, Note_off_c, 0, 64, 112
1, 23765, Note_on_c, 0, 63, 113
1, 23857, Note_off_c, 0, 63, 113
1, 23869, Note_on_c, 0, 62, 114
1, 23957, Note_off_c, 0, 62, 114
1, 23969, Note_on_c, 0, 60, 107
1, 24069, Note_off_c, 0, 60, 107
1, 24078, Note_on_c, 0, 58, 106
1, 24162, Note_off_c, 0, 58, 106
1, 24197, Note_on_c, 0, 57, 102
1, 24260, Note_off_c, 0, 57, 102
1, 24270, Note_on_c, 0, 55, 99
1, 24347, Note_off_c, 0, 55, 99
1, 24349, Note_on_c, 0, 57, 107
1, 24444, Note_off_c, 0, 57, 107
1, 24761, Note_on_c, 0, 58, 110
1, 24825, Note_off_c, 0, 58, 110
1, 24848, Note_on_c, 0, 60, 109
1, 24909, Note_off_c, 0, 60, 109
1, 24920, Note_on_c, 0, 62, 113
1, 25019, Note_off_c, 0, 62, 113
1, 25254, Note_on_c, 0, 60, 110
1, 25304, Note_off_c, 0, 60, 110
1, 25313, Note_on_c, 0, 62, 113
1, 25405, Note_off_c, 0, 62, 113
1, 25411, Note_on_c, 0, 63, 111
1, 25516, Note_off_c, 0, 63, 111
1, 25739, Note_on_c, 0, 62, 112
1, 25805, Note_off_c, 0, 62, 112
1, 25811, Note_on_c, 0, 63, 107
1, 25854, Note_off_c, 0, 63, 107
1, 25883, Note_on_c, 0, 65, 107
1, 25989, Note_off_c, 0, 65, 107
1, 26291, Note_on_c, 0, 64, 116
1, 26377, Note_off_c, 0, 64, 116
1, 26389, Note_on_c, 0, 65, 115
1, 26453, Note_off_c, 0, 65, 115
1, 26459, Note_on_c, 0, 67, 110
1, 26533, Note_off_c, 0, 67, 110
1, 26880, Note_on_c, 0, 65, 109
1, 26968, Note_off_c, 0, 65, 109
1, 26973, Note_on_c, 0, 67, 107
1, 27018, Note_off_c, 0, 67, 107
1, 27023, Note_on_c, 0, 69, 124
1, 27104, Note_off_c, 0, 69, 124
1, 27263, Note_on_c, 0, 67, 104
1, 27347, Note_off_c, 0, 67, 104
1, 27349, Note_on_c, 0, 68, 110
1, 27395, Note_off_c, 0, 68, 110
1, 27411, Note_on_c, 0, 70, 106
1, 27458, Note_off_c, 0, 70, 106
1, 27798, Note_on_c, 0, 69, 107
1, 27880, Note_off_c, 0, 69, 107
1, 27899, Note_on_c, 0, 70, 119
1, 27974, Note_off_c, 0, 70, 119
1, 27977, Note_on_c, 0, 72, 119
1, 28079, Note_off_c, 0, 72, 119
1, 29020, Note_on_c, 0, 55, 94
1, 29083, Note_off_c, 0, 55, 94
1, 29216, Note_on_c, 0, 62, 94
1, 29276, Note_off_c, 0, 62, 94
1, 29305, Note_on_c, 0, 70, 114
1, 29351, Note_on_c, 0, 72, 122
1, 29351, Note_off_c, 0, 70, 114
1, 29410, Note_off_c, 0, 72, 122
1, 29413, Note_on_c, 0, 73, 122
1, 29469, Note_off_c, 0, 73, 122
1, 29472, Note_on_c, 0, 72, 123
1, 29536, Note_off_c, 0, 72, 123
1, 29550, Note_on_c, 0, 71, 120
1, 29614, Note_off_c, 0, 71, 120
1, 29625, Note_on_c, 0, 70, 122
1, 29713, Note_off_c, 0, 70, 122
1, 29718, Note_on_c, 0, 68, 115
1, 29796, Note_off_c, 0, 68, 115
1, 29814, Note_on_c, 0, 66, 112
1, 29898, Note_off_c, 0, 66, 112
1, 29913, Note_on_c, 0, 65, 109
1, 29972, Note_off_c, 0, 65, 109
1, 30004, Note_on_c, 0, 63, 113
1, 30094, Note_off_c, 0, 63, 113
1, 30096, Note_on_c, 0, 61, 106
1, 30169, Note_off_c, 0, 61, 106
1, 30192, Note_on_c, 0, 59, 100
1, 30284, Note_off_c, 0, 59, 100
1, 30286, Note_on_c, 0, 58, 105
1, 30337, Note_off_c, 0, 58, 105
1, 30402, Note_on_c, 0, 56, 102
1, 30453, Note_off_c, 0, 56, 102
1, 30482, Note_on_c, 0, 53, 119
1, 30574, Note_off_c, 0, 53, 119
1, 30635, Note_on_c, 0, 57, 116
1, 30704, Note_off_c, 0, 57, 116
1, 30706, Note_on_c, 0, 58, 105
1, 30779, Note_off_c, 0, 58, 105
1, 30780, Note_on_c, 0, 60, 107
1, 30862, Note_off_c, 0, 60, 107
1, 30876, Note_on_c, 0, 62, 115
1, 30942, Note_off_c, 0, 62, 115
1, 30956, Note_on_c, 0, 64, 112
1, 31038, Note_off_c, 0, 64, 112
1, 31065, Note_on_c, 0, 65, 101
1, 31122, Note_off_c, 0, 65, 101
1, 31137, Note_on_c, 0, 67, 101
1, 31215, Note_off_c, 0, 67, 101
1, 31235, Note_on_c, 0, 69, 109
1, 31335, Note_off_c, 0, 69, 109
1, 31545, Note_on_c, 0, 65, 100
1, 31590, Note_off_c, 0, 65, 100
1, 31591, Note_on_c, 0, 69, 94
1, 31630, Note_off_c, 0, 69, 94
1, 31632, Note_on_c, 0, 68, 108
1, 31729, Note_off_c, 0, 68, 108
1, 31871, Note_on_c, 0, 63, 100
1, 31903, Note_off_c, 0, 63, 100
1, 31904, Note_on_c, 0, 68, 107
1, 32003, Note_off_c, 0, 68, 107
1, 32010, Note_on_c, 0, 67, 105
1, 32102, Note_off_c, 0, 67, 105
1, 32134, Note_on_c, 0, 60, 102
1, 32193, Note_off_c, 0, 60, 102
1, 32204, Note_on_c, 0, 65, 105
1, 32283, Note_off_c, 0, 65, 105
1, 32314, Note_on_c, 0, 67, 115
1, 32400, Note_off_c, 0, 67, 115
1, 32436, Note_on_c, 0, 66, 108
1, 32477, Note_off_c, 0, 66, 108
1, 32488, Note_on_c, 0, 62, 114
1, 32578, Note_off_c, 0, 62, 114
1, 32589, Note_on_c, 0, 58, 100
1, 32689, Note_off_c, 0, 58, 100
1, 32695, Note_on_c, 0, 55, 98
1, 32746, Note_off_c, 0, 55, 98
1, 32767, Note_on_c, 0, 65, 115
1, 32873, Note_off_c, 0, 65, 115
1, 32891, Note_on_c, 0, 62, 111
1, 32957, Note_off_c, 0, 62, 111
1, 32969, Note_on_c, 0, 58, 105
1, 33041, Note_off_c, 0, 58, 105
1, 33075, Note_on_c, 0, 57, 94
1, 33130, Note_on_c, 0, 64, 116
1, 33130, Note_off_c, 0, 57, 94
1, 33245, Note_off_c, 0, 64, 116
1, 33263, Note_on_c, 0, 61, 98
1, 33324, Note_off_c, 0, 61, 98
1, 33335, Note_on_c, 0, 63, 113
1, 33386, Note_off_c, 0, 63, 113
1, 33391, Note_on_c, 0, 66, 119
1, 33487, Note_off_c, 0, 66, 119
1, 33492, Note_on_c, 0, 65, 113
1, 33521, Note_off_c, 0, 65, 113
1, 33521, Note_on_c, 0, 63, 119
1, 33605, Note_off_c, 0, 63, 119
1, 33633, Note_on_c, 0, 59, 108
1, 33747, Note_off_c, 0, 59, 108
1, 33950, Note_on_c, 0, 58, 105
1, 34034, Note_off_c, 0, 58, 105
1, 34040, Note_on_c, 0, 55, 93
1, 34074, Note_off_c, 0, 55, 93
1, 34084, Note_on_c, 0, 56, 114
1, 34177, Note_off_c, 0, 56, 114
1, 34188, Note_on_c, 0, 58, 104
1, 34254, Note_off_c, 0, 58, 104
1, 34308, Note_on_c, 0, 54, 109
1, 34367, Note_off_c, 0, 54, 109
1, 34386, Note_on_c, 0, 56, 106
1, 34456, Note_off_c, 0, 56, 106
1, 34466, Note_on_c, 0, 53, 97
1, 34552, Note_off_c, 0, 53, 97
1, 34602, Note_on_c, 0, 51, 103
1, 34724, Note_off_c, 0, 51, 103
1, 35431, Note_on_c, 0, 63, 120
1, 35513, Note_off_c, 0, 63, 120
1, 35515, Note_on_c, 0, 62, 112
1, 35642, Note_off_c, 0, 62, 112
1, 35652, Note_on_c, 0, 61, 102
1, 35695, Note_off_c, 0, 61, 102
1, 35718, Note_on_c, 0, 60, 113
1, 35802, Note_off_c, 0, 60, 113
1, 35812, Note_on_c, 0, 59, 103
1, 35893, Note_off_c, 0, 59, 103
1, 35905, Note_on_c, 0, 61, 105
1, 36006, Note_off_c, 0, 61, 105
1, 36006, Note_on_c, 0, 63, 116
1, 36110, Note_off_c, 0, 63, 116
1, 36120, Note_on_c, 0, 65, 108
1, 36180, Note_off_c, 0, 65, 108
1, 36196, Note_on_c, 0, 70, 109
1, 36307, Note_off_c, 0, 70, 109
1, 36388, Note_on_c, 0, 62, 105
1, 36444, Note_off_c, 0, 62, 105
1, 36481, Note_on_c, 0, 70, 114
1, 36555, Note_off_c, 0, 70, 114
1, 36569, Note_on_c, 0, 69, 101
1, 36891, Note_off_c, 0, 69, 101
1, 36941, Note_on_c, 0, 67, 116
1, 37076, Note_off_c, 0, 67, 116
1, 37096, Note_on_c, 0, 69, 122
1, 37204, Note_off_c, 0, 69, 122
1, 37215, Note_on_c, 0, 70, 123
1, 37320, Note_off_c, 0, 70, 123
1, 37336, Note_on_c, 0, 72, 124
1, 37437, Note_off_c, 0, 72, 124
1, 37449, Note_on_c, 0, 74, 116
1, 37559, Note_off_c, 0, 74, 116
1, 37574, Note_on_c, 0, 72, 118
1, 37665, Note_off_c, 0, 72, 118
1, 37667, Note_on_c, 0, 70, 116
1, 37784, Note_off_c, 0, 70, 116
1, 37809, Note_on_c, 0, 69, 121
1, 37900, Note_off_c, 0, 69, 121
1, 37939, Note_on_c, 0, 67, 112
1, 38031, Note_off_c, 0, 67, 112
1, 38061, Note_on_c, 0, 69, 116
1, 38158, Note_off_c, 0, 69, 116
1, 38165, Note_on_c, 0, 70, 117
1, 38260, Note_off_c, 0, 70, 117
1, 38278, Note_on_c, 0, 72, 116
1, 38407, Note_off_c, 0, 72, 116
1, 38422, Note_on_c, 0, 74, 99
1, 38473, Note_off_c, 0, 74, 99
1, 38497, Note_on_c, 0, 72, 114
1, 38610, Note_off_c, 0, 72, 114
1, 38625, Note_on_c, 0, 70, 119
1, 38704, Note_off_c, 0, 70, 119
1, 38725, Note_on_c, 0, 69, 114
1, 38812, Note_off_c, 0, 69, 114
1, 38844, Note_on_c, 0, 67, 109
1, 39009, Note_off_c, 0, 67, 109
1, 39039, Note_on_c, 0, 68, 96
1, 39143, Note_off_c, 0, 68, 96
1, 39177, Note_on_c, 0, 70, 115
1, 39299, Note_off_c, 0, 70, 115
1, 39308, Note_on_c, 0, 72, 112
1, 39405, Note_off_c, 0, 72, 112
1, 39438, Note_on_c, 0, 67, 107
1, 39547, Note_off_c, 0, 67, 107
1, 39547, Note_on_c, 0, 65, 106
1, 39661, Note_off_c, 0, 65, 106
1, 39695, Note_on_c, 0, 63, 109
1, 39984, Note_off_c, 0, 63, 109
1, 41165, Note_on_c, 0, 65, 102
1, 41577, Note_off_c, 0, 65, 102
1, 41640, Note_on_c, 0, 69, 115
1, 41739, Note_off_c, 0, 69, 115
1, 41755, Note_on_c, 0, 67, 102
1, 41849, Note_off_c, 0, 67, 102
1, 41865, Note_on_c, 0, 65, 96
1, 41956, Note_off_c, 0, 65, 96
1, 41956, Note_on_c, 0, 69, 119
1, 42067, Note_off_c, 0, 69, 119
1, 42145, Note_on_c, 0, 64, 111
1, 42244, Note_off_c, 0, 64, 111
1, 42309, Note_on_c, 0, 67, 114
1, 42462, Note_off_c, 0, 67, 114
1, 42472, Note_on_c, 0, 65, 112
1, 42576, Note_off_c, 0, 65, 112
1, 42608, Note_on_c, 0, 73, 103
1, 42642, Note_off_c, 0, 73, 103
1, 42648, Note_on_c, 0, 74, 111
1, 43027, Note_off_c, 0, 74, 111
1, 43031, Note_on_c, 0, 72, 106
1, 43130, Note_off_c, 0, 72, 106
1, 43153, Note_on_c, 0, 70, 116
1, 43236, Note_off_c, 0, 70, 116
1, 43254, Note_on_c, 0, 69, 99
1, 43300, Note_off_c, 0, 69, 99
1, 43325, Note_on_c, 0, 67, 106
1, 43415, Note_off_c, 0, 67, 106
1, 43427, Note_on_c, 0, 66, 110
1, 43472, Note_off_c, 0, 66, 110
1, 43488, Note_on_c, 0, 64, 108
1, 43567, Note_off_c, 0, 64, 108
1, 43570, Note_on_c, 0, 63, 112
1, 43685, Note_off_c, 0, 63, 112
1, 43697, Note_on_c, 0, 61, 108
1, 43781, Note_off_c, 0, 61, 108
1, 43795, Note_on_c, 0, 60, 105
1, 43859, Note_off_c, 0, 60, 105
1, 43883, Note_on_c, 0, 58, 104
1, 43989, Note_off_c, 0, 58, 104
1, 43996, Note_on_c, 0, 57, 111
1, 44080, Note_off_c, 0, 57, 111
1, 44087, Note_on_c, 0, 55, 105
1, 44138, Note_off_c, 0, 55, 105
1, 44157, Note_on_c, 0, 53, 106
1, 44248, Note_off_c, 0, 53, 106
1, 44262, Note_on_c, 0, 55, 101
1, 44344, Note_off_c, 0, 55, 101
1, 44350, Note_on_c, 0, 56, 105
1, 44428, Note_off_c, 0, 56, 105
1, 44443, Note_on_c, 0, 58, 104
1, 44511, Note_off_c, 0, 58, 104
1, 44523, Note_on_c, 0, 59, 100
1, 44583, Note_off_c, 0, 59, 100
1, 44634, Note_on_c, 0, 58, 112
1, 44711, Note_off_c, 0, 58, 112
1, 44736, Note_on_c, 0, 63, 109
1, 44817, Note_off_c, 0, 63, 109
1, 44820, Note_on_c, 0, 64, 106
1, 44897, Note_off_c, 0, 64, 106
1, 44917, Note_on_c, 0, 66, 115
1, 44989, Note_off_c, 0, 66, 115
1, 45008, Note_on_c, 0, 67, 105
1, 45060, Note_off_c, 0, 67, 105
1, 45076, Note_on_c, 0, 69, 111
1, 45164, Note_off_c, 0, 69, 111
1, 45184, Note_on_c, 0, 70, 98
1, 45241, Note_off_c, 0, 70, 98
1, 45262, Note_on_c, 0, 72, 102
1, 45346, Note_off_c, 0, 72, 102
1, 45383, Note_on_c, 0, 67, 107
1, 45474, Note_off_c, 0, 67, 107
1, 45488, Note_on_c, 0, 65, 98
1, 45533, Note_off_c, 0, 65, 98
1, 45536, Note_on_c, 0, 63, 94
1, 45599, Note_off_c, 0, 63, 94
1, 46018, Note_on_c, 0, 68, 119
1, 46102, Note_off_c, 0, 68, 119
1, 46112, Note_on_c, 0, 66, 113
1, 46216, Note_off_c, 0, 66, 113
1, 46219, Note_on_c, 0, 63, 120
1, 46305, Note_off_c, 0, 63, 120
1, 46328, Note_on_c, 0, 59, 104
1, 46443, Note_off_c, 0, 59, 104
1, 46502, Note_on_c, 0, 59, 109
1, 46599, Note_off_c, 0, 59, 109
1, 46604, Note_on_c, 0, 63, 105
1, 46663, Note_off_c, 0, 63, 105
1, 46677, Note_on_c, 0, 65, 107
1, 46774, Note_off_c, 0, 65, 107
1, 46806, Note_on_c, 0, 70, 112
1, 46870, Note_off_c, 0, 70, 112
1, 46903, Note_on_c, 0, 66, 99
1, 46944, Note_off_c, 0, 66, 99
1, 46958, Note_on_c, 0, 68, 109
1, 47031, Note_off_c, 0, 68, 109
1, 47050, Note_on_c, 0, 68, 111
1, 47141, Note_off_c, 0, 68, 111
1, 47164, Note_on_c, 0, 66, 119
1, 47215, Note_off_c, 0, 66, 119
1, 47227, Note_on_c, 0, 66, 112
1, 47275, Note_off_c, 0, 66, 112
1, 47275, Note_on_c, 0, 62, 113
1, 47341, Note_off_c, 0, 62, 113
1, 47361, Note_on_c, 0, 58, 104
1, 47422, Note_off_c, 0, 58, 104
1, 47451, Note_on_c, 0, 54, 97
1, 47510, Note_off_c, 0, 54, 97
1, 47553, Note_on_c, 0, 64, 114
1, 47666, Note_off_c, 0, 64, 114
1, 47677, Note_on_c, 0, 62, 111
1, 47731, Note_off_c, 0, 62, 111
1, 47778, Note_on_c, 0, 55, 97
1, 47864, Note_off_c, 0, 55, 97
1, 47869, Note_on_c, 0, 53, 95
1, 47914, Note_off_c, 0, 53, 95
1, 47915, Note_on_c, 0, 55, 101
1, 48016, Note_off_c, 0, 55, 101
1, 48027, Note_on_c, 0, 61, 109
1, 48113, Note_off_c, 0, 61, 109
1, 48348, Note_on_c, 0, 56, 107
1, 48431, Note_off_c, 0, 56, 107
1, 48476, Note_on_c, 0, 56, 24
1, 48567, Note_off_c, 0, 56, 24
1, 48578, Note_on_c, 0, 59, 108
1, 48659, Note_off_c, 0, 59, 108
1, 48687, Note_on_c, 0, 56, 112
1, 48746, Note_off_c, 0, 56, 112
1, 48784, Note_on_c, 0, 54, 109
1, 48895, Note_off_c, 0, 54, 109
1, 49560, Note_on_c, 0, 56, 111
1, 49638, Note_off_c, 0, 56, 111
1, 49638, Note_on_c, 0, 54, 112
1, 49752, Note_off_c, 0, 54, 112
1, 49758, Note_on_c, 0, 53, 95
1, 49815, Note_off_c, 0, 53, 95
1, 49847, Note_on_c, 0, 55, 107
1, 49938, Note_off_c, 0, 55, 107
1, 50061, Note_on_c, 0, 55, 93
1, 50161, Note_off_c, 0, 55, 93
1, 50243, Note_on_c, 0, 55, 108
1, 50315, Note_off_c, 0, 55, 108
1, 50546, Note_on_c, 0, 55, 106
1, 50607, Note_off_c, 0, 55, 106
1, 50614, Note_on_c, 0, 54, 99
1, 50687, Note_off_c, 0, 54, 99
1, 50720, Note_on_c, 0, 55, 104
1, 50792, Note_off_c, 0, 55, 104
1, 50792, Note_on_c, 0, 58, 104
1, 50893, Note_off_c, 0, 58, 104
1, 50907, Note_on_c, 0, 62, 114
1, 50950, Note_off_c, 0, 62, 114
1, 50965, Note_on_c, 0, 65, 118
1, 51231, Note_off_c, 0, 65, 118
1, 51236, Note_on_c, 0, 64, 117
1, 51309, Note_off_c, 0, 64, 117
1, 51325, Note_on_c, 0, 63, 115
1, 51417, Note_off_c, 0, 63, 115
1, 51428, Note_on_c, 0, 62, 111
1, 51509, Note_off_c, 0, 62, 111
1, 51519, Note_on_c, 0, 61, 107
1, 51580, Note_off_c, 0, 61, 107
1, 51592, Note_on_c, 0, 60, 108
1, 51715, Note_off_c, 0, 60, 108
1, 51720, Note_on_c, 0, 59, 105
1, 51829, Note_off_c, 0, 59, 105
1, 51841, Note_on_c, 0, 61, 105
1, 51896, Note_off_c, 0, 61, 105
1, 52069, Note_on_c, 0, 65, 101
1, 52117, Note_off_c, 0, 65, 101
1, 52126, Note_on_c, 0, 70, 124
1, 52218, Note_off_c, 0, 70, 124
1, 52287, Note_on_c, 0, 70, 117
1, 52419, Note_off_c, 0, 70, 117
1, 52420, Note_on_c, 0, 68, 115
1, 52511, Note_off_c, 0, 68, 115
1, 52567, Note_on_c, 0, 68, 110
1, 52678, Note_off_c, 0, 68, 110
1, 52694, Note_on_c, 0, 66, 113
1, 52772, Note_off_c, 0, 66, 113
1, 52797, Note_on_c, 0, 66, 111
1, 52932, Note_off_c, 0, 66, 111
1, 52937, Note_on_c, 0, 65, 104
1, 53007, Note_off_c, 0, 65, 104
1, 53027, Note_on_c, 0, 65, 107
1, 53086, Note_off_c, 0, 65, 107
1, 53106, Note_on_c, 0, 63, 102
1, 53175, Note_off_c, 0, 63, 102
1, 53674, Note_on_c, 0, 62, 109
1, 53742, Note_off_c, 0, 62, 109
1, 53762, Note_on_c, 0, 64, 104
1, 53832, Note_off_c, 0, 64, 104
1, 53850, Note_on_c, 0, 65, 103
1, 53907, Note_off_c, 0, 65, 103
1, 53917, Note_on_c, 0, 67, 101
1, 54009, Note_off_c, 0, 67, 101
1, 54319, Note_on_c, 0, 69, 111
1, 54403, Note_off_c, 0, 69, 111
1, 54410, Note_on_c, 0, 67, 110
1, 54503, Note_off_c, 0, 67, 110
1, 54605, Note_on_c, 0, 64, 115
1, 54688, Note_off_c, 0, 64, 115
1, 55179, Note_on_c, 0, 64, 122
1, 55276, Note_off_c, 0, 64, 122
1, 55291, Note_on_c, 0, 67, 116
1, 55339, Note_off_c, 0, 67, 116
1, 55358, Note_on_c, 0, 65, 115
1, 55432, Note_off_c, 0, 65, 115
1, 55448, Note_on_c, 0, 63, 121
1, 55548, Note_off_c, 0, 63, 121
1, 55563, Note_on_c, 0, 60, 112
1, 55642, Note_off_c, 0, 60, 112
1, 55647, Note_on_c, 0, 56, 112
1, 55747, Note_off_c, 0, 56, 112
1, 55757, Note_on_c, 0, 55, 105
1, 55838, Note_off_c, 0, 55, 105
1, 55863, Note_on_c, 0, 53, 105
1, 55929, Note_off_c, 0, 53, 105
1, 55958, Note_on_c, 0, 58, 114
1, 56053, Note_off_c, 0, 58, 114
1, 56055, Note_on_c, 0, 57, 115
1, 56106, Note_off_c, 0, 57, 115
1, 56121, Note_on_c, 0, 56, 112
1, 56229, Note_off_c, 0, 56, 112
1, 56236, Note_on_c, 0, 58, 108
1, 56401, Note_off_c, 0, 58, 108
1, 56411, Note_on_c, 0, 52, 109
1, 56467, Note_off_c, 0, 52, 109
1, 56476, Note_on_c, 0, 54, 111
1, 56569, Note_off_c, 0, 54, 111
1, 56571, Note_on_c, 0, 55, 111
1, 56634, Note_off_c, 0, 55, 111
1, 56644, Note_on_c, 0, 57, 113
1, 56730, Note_off_c, 0, 57, 113
1, 56750, Note_on_c, 0, 59, 112
1, 56820, Note_off_c, 0, 59, 112
1, 56847, Note_on_c, 0, 61, 120
1, 56946, Note_off_c, 0, 61, 120
1, 56988, Note_on_c, 0, 65, 119
1, 57065, Note_off_c, 0, 65, 119
1, 57076, Note_on_c, 0, 63, 114
1, 57166, Note_off_c, 0, 63, 114
1, 57189, Note_on_c, 0, 58, 109
1, 57262, Note_off_c, 0, 58, 109
1, 57436, Note_on_c, 0, 63, 108
1, 57527, Note_off_c, 0, 63, 108
1, 57542, Note_on_c, 0, 61, 113
1, 57620, Note_off_c, 0, 61, 113
1, 57622, Note_on_c, 0, 56, 117
1, 57705, Note_off_c, 0, 56, 117
1, 57844, Note_on_c, 0, 53, 110
1, 57944, Note_off_c, 0, 53, 110
1, 58341, Note_on_c, 0, 57, 112
1, 58406, Note_off_c, 0, 57, 112
1, 58420, Note_on_c, 0, 55, 104
1, 58476, Note_off_c, 0, 55, 104
1, 58487, Note_on_c, 0, 53, 103
1, 58568, Note_off_c, 0, 53, 103
1, 58584, Note_on_c, 0, 57, 112
1, 58667, Note_off_c, 0, 57, 112
1, 58696, Note_on_c, 0, 52, 112
1, 58786, Note_off_c, 0, 52, 112
1, 58797, Note_on_c, 0, 55, 111
1, 59085, Note_off_c, 0, 55, 111
1, 59094, Note_on_c, 0, 53, 110
1, 59190, Note_off_c, 0, 53, 110
1, 59201, Note_on_c, 0, 52, 106
1, 59282, Note_off_c, 0, 52, 106
1, 59300, Note_on_c, 0, 53, 111
1, 59383, Note_off_c, 0, 53, 111
1, 59401, Note_on_c, 0, 62, 121
1, 59563, Note_off_c, 0, 62, 121
1, 59632, Note_on_c, 0, 62, 120
1, 59778, Note_off_c, 0, 62, 120
1, 59809, Note_on_c, 0, 62, 115
1, 59967, Note_off_c, 0, 62, 115
1, 60005, Note_on_c, 0, 62, 113
1, 60169, Note_off_c, 0, 62, 113
1, 60207, Note_on_c, 0, 62, 108
1, 60340, Note_off_c, 0, 62, 108
1, 60406, Note_on_c, 0, 62, 106
1, 60480, Note_off_c, 0, 62, 106
1, 60510, Note_on_c, 0, 62, 114
1, 60576, Note_off_c, 0, 62, 114
1, 60588, Note_on_c, 0, 65, 105
1, 60652, Note_off_c, 0, 65, 105
1, 60654, Note_on_c, 0, 62, 108
1, 60751, Note_off_c, 0, 62, 108
1, 60774, Note_on_c, 0, 60, 107
1, 60840, Note_off_c, 0, 60, 107
1, 60858, Note_on_c, 0, 62, 109
1, 60940, Note_off_c, 0, 62, 109
1, 61228, Note_on_c, 0, 63, 118
1, 61310, Note_off_c, 0, 63, 118
1, 61324, Note_on_c, 0, 62, 112
1, 61403, Note_off_c, 0, 62, 112
1, 61420, Note_on_c, 0, 61, 105
1, 61488, Note_off_c, 0, 61, 105
1, 61498, Note_on_c, 0, 60, 107
1, 61573, Note_off_c, 0, 60, 107
1, 61606, Note_on_c, 0, 59, 104
1, 61697, Note_off_c, 0, 59, 104
1, 61709, Note_on_c, 0, 60, 105
1, 61787, Note_off_c, 0, 60, 105
1, 61808, Note_on_c, 0, 63, 106
1, 61890, Note_off_c, 0, 63, 106
1, 61908, Note_on_c, 0, 65, 105
1, 61951, Note_off_c, 0, 65, 105
1, 61972, Note_on_c, 0, 70, 121
1, 62062, Note_off_c, 0, 70, 121
1, 62180, Note_on_c, 0, 73, 123
1, 62275, Note_off_c, 0, 73, 123
1, 62277, Note_on_c, 0, 72, 127
1, 62337, Note_off_c, 0, 72, 127
1, 62343, Note_on_c, 0, 71, 124
1, 62385, Note_off_c, 0, 71, 124
1, 62395, Note_on_c, 0, 70, 122
1, 62497, Note_off_c, 0, 70, 122
1, 62533, Note_on_c, 0, 66, 114
1, 62616, Note_off_c, 0, 66, 114
1, 63049, Note_on_c, 0, 66, 114
1, 63137, Note_off_c, 0, 66, 114
1, 63138, Note_on_c, 0, 65, 109
1, 63228, Note_off_c, 0, 65, 109
1, 63238, Note_on_c, 0, 63, 112
1, 63331, Note_off_c, 0, 63, 112
1, 63346, Note_on_c, 0, 61, 109
1, 63419, Note_off_c, 0, 61, 109
1, 63429, Note_on_c, 0, 60, 108
1, 63522, Note_off_c, 0, 60, 108
1, 63536, Note_on_c, 0, 59, 107
1, 63601, Note_off_c, 0, 59, 107
1, 63606, Note_on_c, 0, 58, 106
1, 63732, Note_off_c, 0, 58, 106
1, 63748, Note_on_c, 0, 56, 110
1, 63847, Note_off_c, 0, 56, 110
1, 63870, Note_on_c, 0, 54, 110
1, 63934, Note_off_c, 0, 54, 110
1, 63934, Note_on_c, 0, 53, 105
1, 64366, Note_off_c, 0, 53, 105
1, 64366, End_track
0, 0, End_of_file
