0, 0, Header, 1, 1, 192
1, 0, Start_track
1, 0, Title_t, "Melody"
1, 0, Tempo, 342857
1, 0, Key_signature, -5, "major"
1, 0, Time_signature, 4, 2, 24, 8
1, 1427, Note_on_c, 0, 68, 99
1, 1495, Note_off_c, 0, 68, 99
1, 1517, Note_on_c, 0, 68, 107
1, 1580, Note_off_c, 0, 68, 107
1, 1605, Note_on_c, 0, 66, 107
1, 1712, Note_off_c, 0, 66, 107
1, 1719, Note_on_c, 0, 68, 115
1, 1787, Note_off_c, 0, 68, 115
1, 2084, Note_on_c, 0, 63, 101
1, 2171, Note_off_c, 0, 63, 101
1, 2187, Note_on_c, 0, 66, 92
1, 2259, Note_off_c, 0, 66, 92
1, 2280, Note_on_c, 0, 66, 114
1, 2349, Note_off_c, 0, 66, 114
1, 2366, Note_on_c, 0, 65, 115
1, 2447, Note_off_c, 0, 65, 115
1, 2464, Note_on_c, 0, 66, 116
1, 2553, Note_off_c, 0, 66, 116
1, 2659, Note_on_c, 0, 65, 115
1, 2702, Note_off_c, 0, 65, 115
1, 2706, Note_on_c, 0, 63, 113
1, 2734, Note_off_c, 0, 63, 113
1, 2752, Note_on_c, 0, 61, 111
1, 2824, Note_off_c, 0, 61, 111
1, 2937, Note_on_c, 0, 63, 107
1, 3005, Note_off_c, 0, 63, 107
1, 3016, Note_on_c, 0, 63, 105
1, 3094, Note_off_c, 0, 63, 105
1, 3131, Note_on_c, 0, 61, 100
1, 3225, Note_off_c, 0, 61, 100
1, 3245, Note_on_c, 0, 63, 95
1, 3326, Note_off_c, 0, 63, 95
1, 3714, Note_on_c, 0, 59, 107
1, 3791, Note_off_c, 0, 59, 107
1, 3815, Note_on_c, 0, 59, 111
1, 3896, Note_off_c, 0, 59, 111
1, 3900, Note_on_c, 0, 58, 107
1, 4000, Note_off_c, 0, 58, 107
1, 4002, Note_on_c, 0, 59, 109
1, 4091, Note_off_c, 0, 59, 109
1, 4169, Note_on_c, 0, 58, 103
1, 4201, Note_off_c, 0, 58, 103
1, 4210, Note_on_c, 0, 56, 108
1, 4247, Note_off_c, 0, 56, 108
1, 4260, Note_on_c, 0, 54, 102
1, 4357, Note_off_c, 0, 54, 102
1, 4475, Note_on_c, 0, 56, 104
1, 4569, Note_off_c, 0, 56, 104
1, 4585, Note_on_c, 0, 56, 93
1, 4645, Note_off_c, 0, 56, 93
1, 4657, Note_on_c, 0, 60, 92
1, 4741, Note_off_c, 0, 60, 92
1, 4768, Note_on_c, 0, 56, 95
1, 4833, Note_off_c, 0, 56, 95
1, 5351, Note_on_c, 0, 56, 100
1, 5424, Note_off_c, 0, 56, 100
1, 5443, Note_on_c, 0, 58, 108
1, 5539, Note_off_c, 0, 58, 108
1, 5552, Note_on_c, 0, 60, 117
1, 5639, Note_off_c, 0, 60, 117
1, 5733, Note_on_c, 0, 56, 104
1, 5798, Note_off_c, 0, 56, 104
1, 5824, Note_on_c, 0, 54, 103
1, 5904, Note_off_c, 0, 54, 103
1, 5913, Note_on_c, 0, 56, 96
1, 6101, Note_off_c, 0, 56, 96
1, 6129, Note_on_c, 0, 56, 99
1, 6202, Note_off_c, 0, 56, 99
1, 6202, Note_on_c, 0, 60, 108
1, 6290, Note_off_c, 0, 60, 108
1, 6303, Note_on_c, 0, 56, 103
1, 6384, Note_off_c, 0, 56, 103
1, 6403, Note_on_c, 0, 54, 100
1, 6484, Note_off_c, 0, 54, 100
1, 6488, Note_on_c, 0, 56, 96
1, 6570, Note_off_c, 0, 56, 96
1, 6814, Note_on_c, 0, 60, 105
1, 6891, Note_off_c, 0, 60, 105
1, 6895, Note_on_c, 0, 56, 110
1, 6977, Note_off_c, 0, 56, 110
1, 6995, Note_on_c, 0, 54, 107
1, 7075, Note_off_c, 0, 54, 107
1, 7087, Note_on_c, 0, 56, 108
1, 7172, Note_off_c, 0, 56, 108
1, 7199, Note_on_c, 0, 60, 109
1, 7273, Note_off_c, 0, 60, 109
1, 7282, Note_on_c, 0, 63, 110
1, 7344, Note_off_c, 0, 63, 110
1, 7376, Note_on_c, 0, 66, 114
1, 7464, Note_off_c, 0, 66, 114
1, 7473, Note_on_c, 0, 68, 114
1, 7965, Note_off_c, 0, 68, 114
1, 7978, Note_on_c, 0, 64, 116
1, 8095, Note_off_c, 0, 64, 116
1, 8095, Note_on_c, 0, 58, 101
1, 8134, Note_off_c, 0, 58, 101
1, 8139, Note_on_c, 0, 61, 99
1, 8232, Note_off_c, 0, 61, 99
1, 8248, Note_on_c, 0, 63, 104
1, 8306, Note_off_c, 0, 63, 104
1, 8720, Note_on_c, 0, 61, 96
1, 8806, Note_off_c, 0, 61, 96
1, 8818, Note_on_c, 0, 63, 108
1, 8900, Note_off_c, 0, 63, 108
1, 8913, Note_on_c, 0, 64, 123
1, 8985, Note_off_c, 0, 64, 123
1, 9005, Note_on_c, 0, 66, 117
1, 9091, Note_off_c, 0, 66, 117
1, 9096, Note_on_c, 0, 68, 120
1, 9157, Note_off_c, 0, 68, 120
1, 9202, Note_on_c, 0, 71, 120
1, 9268, Note_off_c, 0, 71, 120
1, 9281, Note_on_c, 0, 70, 115
1, 9380, Note_off_c, 0, 70, 115
1, 9391, Note_on_c, 0, 66, 113
1, 9475, Note_off_c, 0, 66, 113
1, 9487, Note_on_c, 0, 68, 117
1, 9573, Note_off_c, 0, 68, 117
1, 9648, Note_on_c, 0, 64, 117
1, 9768, Note_off_c, 0, 64, 117
1, 9790, Note_on_c, 0, 65, 111
1, 9818, Note_off_c, 0, 65, 111
1, 9822, Note_on_c, 0, 63, 109
1, 9875, Note_off_c, 0, 63, 109
1, 9968, Note_on_c, 0, 61, 111
1, 10034, Note_off_c, 0, 61, 111
1, 10053, Note_on_c, 0, 66, 116
1, 10136, Note_off_c, 0, 66, 116
1, 10154, Note_on_c, 0, 65, 115
1, 10218, Note_off_c, 0, 65, 115
1, 10232, Note_on_c, 0, 64, 120
1, 10340, Note_off_c, 0, 64, 120
1, 10345, Note_on_c, 0, 63, 112
1, 10416, Note_off_c, 0, 63, 112
1, 10428, Note_on_c, 0, 61, 113
1, 10527, Note_off_c, 0, 61, 113
1, 10531, Note_on_c, 0, 63, 102
1, 10563, Note_off_c, 0, 63, 102
1, 10627, Note_on_c, 0, 60, 101
1, 10783, Note_off_c, 0, 60, 101
1, 10812, Note_on_c, 0, 63, 100
1, 10928, Note_off_c, 0, 63, 100
1, 10934, Note_on_c, 0, 56, 100
1, 11007, Note_off_c, 0, 56, 100
1, 11308, Note_on_c, 0, 56, 104
1, 11372, Note_off_c, 0, 56, 104
1, 11397, Note_on_c, 0, 54, 96
1, 11488, Note_off_c, 0, 54, 96
1, 11488, Note_on_c, 0, 56, 107
1, 11572, Note_off_c, 0, 56, 107
1, 11581, Note_on_c, 0, 58, 100
1, 11671, Note_off_c, 0, 58, 100
1, 11697, Note_on_c, 0, 60, 96
1, 11755, Note_off_c, 0, 60, 96
1, 11772, Note_on_c, 0, 63, 111
1, 12057, Note_off_c, 0, 63, 111
1, 12062, Note_on_c, 0, 59, 94
1, 12155, Note_off_c, 0, 59, 94
1, 12161, Note_on_c, 0, 65, 114
1, 12283, Note_off_c, 0, 65, 114
1, 12291, Note_on_c, 0, 60, 96
1, 12342, Note_off_c, 0, 60, 96
1, 12346, Note_on_c, 0, 66, 109
1, 12474, Note_off_c, 0, 66, 109
1, 12475, Note_on_c, 0, 65, 101
1, 12493, Note_off_c, 0, 65, 101
1, 13633, Note_on_c, 0, 68, 111
1, 13703, Note_off_c, 0, 68, 111
1, 13707, Note_on_c, 0, 70, 116
1, 14384, Note_off_c, 0, 70, 116
1, 14398, Note_on_c, 0, 70, 116
1, 14571, Note_off_c, 0, 70, 116
1, 14577, Note_on_c, 0, 68, 119
1, 14664, Note_off_c, 0, 68, 119
1, 14673, Note_on_c, 0, 71, 115
1, 14700, Note_off_c, 0, 71, 115
1, 14706, Note_on_c, 0, 73, 115
1, 14776, Note_off_c, 0, 73, 115
1, 14786, Note_on_c, 0, 70, 116
1, 14866, Note_off_c, 0, 70, 116
1, 14947, Note_on_c, 0, 68, 119
1, 15039, Note_off_c, 0, 68, 119
1, 15051, Note_on_c, 0, 66, 113
1, 15138, Note_off_c, 0, 66, 113
1, 16080, Note_on_c, 0, 75, 114
1, 16225, Note_off_c, 0, 75, 114
1, 16231, Note_on_c, 0, 73, 119
1, 16331, Note_off_c, 0, 73, 119
1, 16342, Note_on_c, 0, 71, 120
1, 16426, Note_off_c, 0, 71, 120
1, 16429, Note_on_c, 0, 68, 118
1, 16525, Note_off_c, 0, 68, 118
1, 16530, Note_on_c, 0, 66, 119
1, 16616, Note_off_c, 0, 66, 119
1, 16623, Note_on_c, 0, 63, 109
1, 16714, Note_off_c, 0, 63, 109
1, 16747, Note_on_c, 0, 59, 103
1, 16816, Note_off_c, 0, 59, 103
1, 16832, Note_on_c, 0, 62, 112
1, 16915, Note_off_c, 0, 62, 112
1, 17033, Note_on_c, 0, 61, 112
1, 17141, Note_off_c, 0, 61, 112
1, 17149, Note_on_c, 0, 59, 106
1, 17240, Note_off_c, 0, 59, 106
1, 17302, Note_on_c, 0, 59, 108
1, 17474, Note_off_c, 0, 59, 108
1, 17493, Note_on_c, 0, 59, 106
1, 17825, Note_off_c, 0, 59, 106
1, 17841, Note_on_c, 0, 59, 97
1, 17889, Note_off_c, 0, 59, 97
1, 17896, Note_on_c, 0, 56, 108
1, 17956, Note_off_c, 0, 56, 108
1, 17981, Note_on_c, 0, 59, 107
1, 18030, Note_off_c, 0, 59, 107
1, 18040, Note_on_c, 0, 61, 112
1, 18091, Note_off_c, 0, 61, 112
1, 18098, Note_on_c, 0, 59, 112
1, 18151, Note_off_c, 0, 59, 112
1, 18163, Note_on_c, 0, 56, 110
1, 18368, Note_off_c, 0, 56, 110
1, 19912, Note_on_c, 0, 63, 104
1, 19955, Note_off_c, 0, 63, 104
1, 19958, Note_on_c, 0, 65, 114
1, 20097, Note_off_c, 0, 65, 114
1, 20102, Note_on_c, 0, 68, 121
1, 20193, Note_off_c, 0, 68, 121
1, 20296, Note_on_c, 0, 68, 116
1, 20581, Note_off_c, 0, 68, 116
1, 20587, Note_on_c, 0, 68, 115
1, 20760, Note_off_c, 0, 68, 115
1, 20771, Note_on_c, 0, 68, 114
1, 21055, Note_off_c, 0, 68, 114
1, 21057, Note_on_c, 0, 63, 114
1, 21098, Note_off_c, 0, 63, 114
1, 21101, Note_on_c, 0, 65, 114
1, 21260, Note_off_c, 0, 65, 114
1, 21270, Note_on_c, 0, 68, 109
1, 21311, Note_off_c, 0, 68, 109
1, 21856, Note_on_c, 0, 64, 95
1, 21899, Note_off_c, 0, 64, 95
1, 21903, Note_on_c, 0, 65, 107
1, 21956, Note_off_c, 0, 65, 107
1, 21965, Note_on_c, 0, 68, 112
1, 21989, Note_off_c, 0, 68, 112
1, 22131, Note_on_c, 0, 68, 114
1, 22514, Note_off_c, 0, 68, 114
1, 22596, Note_on_c, 0, 70, 115
1, 22700, Note_off_c, 0, 70, 115
1, 22715, Note_on_c, 0, 68, 114
1, 22783, Note_off_c, 0, 68, 114
1, 22792, Note_on_c, 0, 70, 110
1, 22908, Note_off_c, 0, 70, 110
1, 23405, Note_on_c, 0, 63, 104
1, 23446, Note_off_c, 0, 63, 104
1, 23449, Note_on_c, 0, 65, 116
1, 23526, Note_off_c, 0, 65, 116
1, 23528, Note_on_c, 0, 68, 117
1, 23588, Note_off_c, 0, 68, 117
1, 23702, Note_on_c, 0, 68, 118
1, 24066, Note_off_c, 0, 68, 118
1, 24073, Note_on_c, 0, 65, 106
1, 24139, Note_off_c, 0, 65, 106
1, 24144, Note_on_c, 0, 68, 120
1, 24200, Note_off_c, 0, 68, 120
1, 24207, Note_on_c, 0, 70, 118
1, 24254, Note_off_c, 0, 70, 118
1, 24337, Note_on_c, 0, 70, 117
1, 24472, Note_off_c, 0, 70, 117
1, 24934, Note_on_c, 0, 63, 98
1, 25000, Note_off_c, 0, 63, 98
1, 25006, Note_on_c, 0, 65, 105
1, 25054, Note_off_c, 0, 65, 105
1, 25065, Note_on_c, 0, 68, 113
1, 25116, Note_off_c, 0, 68, 113
1, 25214, Note_on_c, 0, 68, 117
1, 25679, Note_off_c, 0, 68, 117
1, 25698, Note_on_c, 0, 68, 118
1, 25777, Note_off_c, 0, 68, 118
1, 25778, Note_on_c, 0, 64, 122
1, 25810, Note_off_c, 0, 64, 122
1, 25815, Note_on_c, 0, 63, 115
1, 25837, Note_off_c, 0, 63, 115
1, 25845, Note_on_c, 0, 62, 119
1, 25885, Note_off_c, 0, 62, 119
1, 25898, Note_on_c, 0, 59, 105
1, 25970, Note_off_c, 0, 59, 105
1, 26383, Note_on_c, 0, 58, 101
1, 26444, Note_off_c, 0, 58, 101
1, 26460, Note_on_c, 0, 54, 107
1, 26548, Note_off_c, 0, 54, 107
1, 26554, Note_on_c, 0, 56, 108
1, 26644, Note_off_c, 0, 56, 108
1, 26654, Note_on_c, 0, 58, 103
1, 26732, Note_off_c, 0, 58, 103
1, 26734, Note_on_c, 0, 61, 123
1, 26834, Note_off_c, 0, 61, 123
1, 26845, Note_on_c, 0, 64, 120
1, 26929, Note_off_c, 0, 64, 120
1, 26933, Note_on_c, 0, 66, 115
1, 27015, Note_off_c, 0, 66, 115
1, 27018, Note_on_c, 0, 68, 118
1, 27112, Note_off_c, 0, 68, 118
1, 27115, Note_on_c, 0, 70, 114
1, 27204, Note_off_c, 0, 70, 114
1, 27207, Note_on_c, 0, 73, 115
1, 27291, Note_off_c, 0, 73, 115
1, 27308, Note_on_c, 0, 68, 113
1, 27387, Note_off_c, 0, 68, 113
1, 27395, Note_on_c, 0, 70, 113
1, 27475, Note_off_c, 0, 70, 113
1, 27479, Note_on_c, 0, 66, 105
1, 27573, Note_on_c, 0, 68, 115
1, 27573, Note_off_c, 0, 66, 105
1, 27764, Note_off_c, 0, 68, 115
1, 27769, Note_on_c, 0, 64, 116
1, 27856, Note_off_c, 0, 64, 116
1, 27867, Note_on_c, 0, 61, 109
1, 27947, Note_off_c, 0, 61, 109
1, 28351, Note_on_c, 0, 64, 127
1, 28428, Note_off_c, 0, 64, 127
1, 28440, Note_on_c, 0, 63, 116
1, 28474, Note_off_c, 0, 63, 116
1, 28486, Note_on_c, 0, 61, 115
1, 28530, Note_off_c, 0, 61, 115
1, 28534, Note_on_c, 0, 59, 108
1, 28614, Note_off_c, 0, 59, 108
1, 28617, Note_on_c, 0, 58, 104
1, 28710, Note_off_c, 0, 58, 104
1, 28713, Note_on_c, 0, 56, 108
1, 28807, Note_off_c, 0, 56, 108
1, 28815, Note_on_c, 0, 54, 114
1, 28912, Note_off_c, 0, 54, 114
1, 28912, Note_on_c, 0, 52, 113
1, 29000, Note_off_c, 0, 52, 113
1, 29052, Note_on_c, 0, 50, 107
1, 29088, Note_off_c, 0, 50, 107
1, 29090, Note_on_c, 0, 51, 107
1, 29431, Note_off_c, 0, 51, 107
1, 29483, Note_on_c, 0, 56, 105
1, 29834, Note_off_c, 0, 56, 105
1, 29865, Note_on_c, 0, 53, 103
1, 30142, Note_off_c, 0, 53, 103
1, 32135, Note_on_c, 0, 70, 116
1, 32288, Note_off_c, 0, 70, 116
1, 32326, Note_on_c, 0, 72, 113
1, 32352, Note_off_c, 0, 72, 113
1, 32354, Note_on_c, 0, 73, 110
1, 32515, Note_off_c, 0, 73, 110
1, 32515, Note_on_c, 0, 70, 114
1, 32665, Note_off_c, 0, 70, 114
1, 32819, Note_on_c, 0, 69, 115
1, 32857, Note_off_c, 0, 69, 115
1, 32861, Note_on_c, 0, 70, 109
1, 32989, Note_off_c, 0, 70, 109
1, 32995, Note_on_c, 0, 70, 111
1, 33083, Note_off_c, 0, 70, 111
1, 33091, Note_on_c, 0, 73, 112
1, 33180, Note_off_c, 0, 73, 112
1, 33191, Note_on_c, 0, 73, 110
1, 33271, Note_off_c, 0, 73, 110
1, 33272, Note_on_c, 0, 70, 109
1, 33350, Note_off_c, 0, 70, 109
1, 33365, Note_on_c, 0, 70, 9
1, 33450, Note_off_c, 0, 70, 9
1, 33461, Note_on_c, 0, 68, 112
1, 33541, Note_off_c, 0, 68, 112
1, 34011, Note_on_c, 0, 70, 114
1, 34057, Note_off_c, 0, 70, 114
1, 34062, Note_on_c, 0, 72, 117
1, 34120, Note_off_c, 0, 72, 117
1, 34129, Note_on_c, 0, 75, 108
1, 34731, Note_off_c, 0, 75, 108
1, 34784, Note_on_c, 0, 71, 109
1, 34880, Note_off_c, 0, 71, 109
1, 34896, Note_on_c, 0, 67, 112
1, 34936, Note_off_c, 0, 67, 112
1, 34944, Note_on_c, 0, 63, 109
1, 34976, Note_off_c, 0, 63, 109
1, 34984, Note_on_c, 0, 59, 106
1, 35066, Note_off_c, 0, 59, 106
1, 35077, Note_on_c, 0, 57, 107
1, 35134, Note_off_c, 0, 57, 107
1, 35137, Note_on_c, 0, 58, 102
1, 36599, Note_off_c, 0, 58, 102
1, 36627, Note_on_c, 0, 56, 103
1, 36700, Note_off_c, 0, 56, 103
1, 36700, Note_on_c, 0, 58, 105
1, 36843, Note_off_c, 0, 58, 105
1, 38267, Note_on_c, 0, 68, 118
1, 38356, Note_off_c, 0, 68, 118
1, 38369, Note_on_c, 0, 68, 121
1, 38446, Note_off_c, 0, 68, 121
1, 38460, Note_on_c, 0, 66, 118
1, 38546, Note_off_c, 0, 66, 118
1, 38549, Note_on_c, 0, 68, 121
1, 38623, Note_off_c, 0, 68, 121
1, 39714, Note_on_c, 0, 63, 109
1, 39777, Note_off_c, 0, 63, 109
1, 39793, Note_on_c, 0, 68, 120
1, 39888, Note_off_c, 0, 68, 120
1, 39900, Note_on_c, 0, 68, 121
1, 39991, Note_off_c, 0, 68, 121
1, 39999, Note_on_c, 0, 66, 115
1, 40083, Note_off_c, 0, 66, 115
1, 40084, Note_on_c, 0, 68, 115
1, 40172, Note_off_c, 0, 68, 115
1, 41335, Note_on_c, 0, 68, 116
1, 41419, Note_off_c, 0, 68, 116
1, 41423, Note_on_c, 0, 68, 115
1, 41508, Note_off_c, 0, 68, 115
1, 41521, Note_on_c, 0, 66, 109
1, 41607, Note_off_c, 0, 66, 109
1, 41611, Note_on_c, 0, 68, 109
1, 41686, Note_off_c, 0, 68, 109
1, 41801, Note_on_c, 0, 75, 110
1, 41882, Note_off_c, 0, 75, 110
1, 41888, Note_on_c, 0, 77, 105
1, 42828, Note_off_c, 0, 77, 105
1, 42828, Note_on_c, 0, 68, 116
1, 42939, Note_off_c, 0, 68, 116
1, 43030, Note_on_c, 0, 66, 107
1, 43229, Note_off_c, 0, 66, 107
1, 43612, Note_on_c, 0, 66, 110
1, 43671, Note_off_c, 0, 66, 110
1, 43706, Note_on_c, 0, 76, 113
1, 43792, Note_off_c, 0, 76, 113
1, 43855, Note_on_c, 0, 66, 113
1, 43941, Note_off_c, 0, 66, 113
1, 43944, Note_on_c, 0, 65, 111
1, 44059, Note_off_c, 0, 65, 111
1, 44141, Note_on_c, 0, 74, 113
1, 44238, Note_off_c, 0, 74, 113
1, 44732, Note_on_c, 0, 73, 116
1, 44821, Note_off_c, 0, 73, 116
1, 45193, Note_on_c, 0, 61, 115
1, 45264, Note_off_c, 0, 61, 115
1, 45285, Note_on_c, 0, 71, 118
1, 45382, Note_off_c, 0, 71, 118
1, 45850, Note_on_c, 0, 70, 117
1, 45967, Note_off_c, 0, 70, 117
1, 46436, Note_on_c, 0, 68, 121
1, 46529, Note_off_c, 0, 68, 121
1, 46908, Note_on_c, 0, 66, 113
1, 47050, Note_off_c, 0, 66, 113
1, 47058, Note_on_c, 0, 65, 110
1, 47300, Note_off_c, 0, 65, 110
1, 47321, Note_on_c, 0, 65, 115
1, 47415, Note_off_c, 0, 65, 115
1, 47431, Note_on_c, 0, 63, 110
1, 47530, Note_off_c, 0, 63, 110
1, 47579, Note_on_c, 0, 63, 110
1, 48085, Note_off_c, 0, 63, 110
1, 48099, Note_on_c, 0, 65, 110
1, 48167, Note_off_c, 0, 65, 110
1, 48185, Note_on_c, 0, 60, 111
1, 48465, Note_off_c, 0, 60, 111
1, 48478, Note_on_c, 0, 63, 115
1, 48555, Note_off_c, 0, 63, 115
1, 48563, Note_on_c, 0, 58, 103
1, 48630, Note_off_c, 0, 58, 103
1, 48644, Note_on_c, 0, 63, 114
1, 48710, Note_off_c, 0, 63, 114
1, 48721, Note_on_c, 0, 56, 103
1, 48820, Note_off_c, 0, 56, 103
1, 48836, Note_on_c, 0, 54, 106
1, 48930, Note_off_c, 0, 54, 106
1, 50488, Note_on_c, 0, 56, 101
1, 50556, Note_off_c, 0, 56, 101
1, 50573, Note_on_c, 0, 58, 107
1, 50651, Note_off_c, 0, 58, 107
1, 50660, Note_on_c, 0, 59, 112
1, 50753, Note_off_c, 0, 59, 112
1, 50771, Note_on_c, 0, 68, 112
1, 50852, Note_off_c, 0, 68, 112
1, 50858, Note_on_c, 0, 63, 111
1, 50956, Note_off_c, 0, 63, 111
1, 50961, Note_on_c, 0, 65, 112
1, 51049, Note_off_c, 0, 65, 112
1, 51053, Note_on_c, 0, 66, 115
1, 51122, Note_off_c, 0, 66, 115
1, 51134, Note_on_c, 0, 68, 119
1, 51214, Note_off_c, 0, 68, 119
1, 51226, Note_on_c, 0, 70, 116
1, 51320, Note_off_c, 0, 70, 116
1, 51328, Note_on_c, 0, 73, 114
1, 51603, Note_off_c, 0, 73, 114
1, 51616, Note_on_c, 0, 70, 117
1, 51690, Note_off_c, 0, 70, 117
1, 51698, Note_on_c, 0, 68, 116
1, 51784, Note_off_c, 0, 68, 116
1, 51788, Note_on_c, 0, 66, 113
1, 51874, Note_off_c, 0, 66, 113
1, 51886, Note_on_c, 0, 68, 115
1, 51993, Note_off_c, 0, 68, 115
1, 51993, Note_on_c, 0, 67, 111
1, 52075, Note_off_c, 0, 67, 111
1, 52083, Note_on_c, 0, 65, 116
1, 52166, Note_off_c, 0, 65, 116
1, 52180, Note_on_c, 0, 61, 119
1, 52260, Note_off_c, 0, 61, 119
1, 52363, Note_on_c, 0, 63, 114
1, 52477, Note_off_c, 0, 63, 114
1, 52751, Note_on_c, 0, 61, 117
1, 52807, Note_off_c, 0, 61, 117
1, 52854, Note_on_c, 0, 63, 116
1, 52910, Note_off_c, 0, 63, 116
1, 53050, Note_on_c, 0, 68, 107
1, 53096, Note_off_c, 0, 68, 107
1, 53134, Note_on_c, 0, 70, 112
1, 53185, Note_off_c, 0, 70, 112
1, 53190, Note_on_c, 0, 72, 122
1, 53436, Note_off_c, 0, 72, 122
1, 53437, Note_on_c, 0, 75, 113
1, 53489, Note_off_c, 0, 75, 113
1, 53557, Note_on_c, 0, 68, 120
1, 53931, Note_off_c, 0, 68, 120
1, 53962, Note_on_c, 0, 65, 115
1, 54019, Note_off_c, 0, 65, 115
1, 54024, Note_on_c, 0, 68, 117
1, 54307, Note_off_c, 0, 68, 117
1, 54311, Note_on_c, 0, 65, 115
1, 54408, Note_off_c, 0, 65, 115
1, 54419, Note_on_c, 0, 68, 117
1, 54689, Note_off_c, 0, 68, 117
1, 54697, Note_on_c, 0, 63, 110
1, 54786, Note_off_c, 0, 63, 110
1, 54806, Note_on_c, 0, 68, 109
1, 55050, Note_off_c, 0, 68, 109
1, 55066, Note_on_c, 0, 60, 111
1, 55160, Note_off_c, 0, 60, 111
1, 55168, Note_on_c, 0, 68, 116
1, 55255, Note_off_c, 0, 68, 116
1, 56608, Note_on_c, 0, 75, 106
1, 56669, Note_off_c, 0, 75, 106
1, 56683, Note_on_c, 0, 77, 111
1, 56957, Note_off_c, 0, 77, 111
1, 56970, Note_on_c, 0, 75, 115
1, 57350, Note_off_c, 0, 75, 115
1, 58118, Note_on_c, 0, 76, 118
1, 58166, Note_off_c, 0, 76, 118
1, 58167, Note_on_c, 0, 77, 111
1, 58413, Note_off_c, 0, 77, 111
1, 58421, Note_on_c, 0, 75, 110
1, 58508, Note_off_c, 0, 75, 110
1, 58896, Note_on_c, 0, 76, 110
1, 58996, Note_off_c, 0, 76, 110
1, 59000, Note_on_c, 0, 75, 107
1, 59069, Note_off_c, 0, 75, 107
1, 59076, Note_on_c, 0, 76, 110
1, 59186, Note_off_c, 0, 76, 110
1, 59186, Note_on_c, 0, 75, 109
1, 59285, Note_off_c, 0, 75, 109
1, 59788, Note_on_c, 0, 70, 104
1, 59866, Note_off_c, 0, 70, 104
1, 59869, Note_on_c, 0, 68, 120
1, 59951, Note_off_c, 0, 68, 120
1, 59981, Note_on_c, 0, 70, 118
1, 60309, Note_off_c, 0, 70, 118
1, 60313, Note_on_c, 0, 68, 117
1, 60405, Note_off_c, 0, 68, 117
1, 60473, Note_on_c, 0, 70, 115
1, 60546, Note_off_c, 0, 70, 115
1, 60558, Note_on_c, 0, 68, 115
1, 60636, Note_off_c, 0, 68, 115
1, 60657, Note_on_c, 0, 70, 114
1, 60724, Note_off_c, 0, 70, 114
1, 60728, Note_on_c, 0, 68, 115
1, 60811, Note_on_c, 0, 70, 108
1, 60811, Note_off_c, 0, 68, 115
1, 60871, Note_off_c, 0, 70, 108
1, 60871, Note_on_c, 0, 68, 111
1, 60924, Note_off_c, 0, 68, 111
1, 60955, Note_on_c, 0, 70, 115
1, 60994, Note_off_c, 0, 70, 115
1, 60999, Note_on_c, 0, 68, 112
1, 61047, Note_off_c, 0, 68, 112
1, 61071, Note_on_c, 0, 70, 112
1, 61138, Note_off_c, 0, 70, 112
1, 61139, Note_on_c, 0, 68, 112
1, 61201, Note_off_c, 0, 68, 112
1, 61249, Note_on_c, 0, 70, 112
1, 61378, Note_off_c, 0, 70, 112
1, 61388, Note_on_c, 0, 68, 111
1, 61472, Note_off_c, 0, 68, 111
1, 61493, Note_on_c, 0, 65, 109
1, 61608, Note_off_c, 0, 65, 109
1, 62727, Note_on_c, 0, 66, 104
1, 62836, Note_off_c, 0, 66, 104
1, 62846, Note_on_c, 0, 68, 115
1, 62954, Note_off_c, 0, 68, 115
1, 63219, Note_on_c, 0, 61, 101
1, 63278, Note_off_c, 0, 61, 101
1, 63299, Note_on_c, 0, 66, 116
1, 63403, Note_off_c, 0, 66, 116
1, 63406, Note_on_c, 0, 68, 117
1, 63495, Note_off_c, 0, 68, 117
1, 63782, Note_on_c, 0, 61, 109
1, 63859, Note_off_c, 0, 61, 109
1, 63880, Note_on_c, 0, 64, 122
1, 63983, Note_off_c, 0, 64, 122
1, 63987, Note_on_c, 0, 66, 114
1, 64072, Note_off_c, 0, 66, 114
1, 64390, Note_on_c, 0, 61, 116
1, 64433, Note_off_c, 0, 61, 116
1, 64485, Note_on_c, 0, 66, 113
1, 64594, Note_off_c, 0, 66, 113
1, 64595, Note_on_c, 0, 68, 117
1, 64686, Note_off_c, 0, 68, 117
1, 64971, Note_on_c, 0, 61, 114
1, 65032, Note_off_c, 0, 61, 114
1, 65048, Note_on_c, 0, 64, 114
1, 65114, Note_off_c, 0, 64, 114
1, 65116, Note_on_c, 0, 66, 107
1, 65153, Note_off_c, 0, 66, 107
1, 65159, Note_on_c, 0, 61, 117
1, 65211, Note_off_c, 0, 61, 117
1, 65231, Note_on_c, 0, 64, 114
1, 65361, Note_off_c, 0, 64, 114
1, 65369, Note_on_c, 0, 66, 110
1, 65468, Note_off_c, 0, 66, 110
1, 65841, Note_on_c, 0, 60, 116
1, 65857, Note_off_c, 0, 60, 116
1, 65863, Note_on_c, 0, 63, 107
1, 65939, Note_off_c, 0, 63, 107
1, 65947, Note_on_c, 0, 65, 112
1, 66044, Note_off_c, 0, 65, 112
1, 66326, Note_on_c, 0, 60, 98
1, 66363, Note_off_c, 0, 60, 98
1, 66391, Note_on_c, 0, 68, 118
1, 66508, Note_off_c, 0, 68, 118
1, 66512, Note_on_c, 0, 70, 111
1, 66592, Note_off_c, 0, 70, 111
1, 66882, Note_on_c, 0, 60, 9
1, 66938, Note_off_c, 0, 60, 9
1, 66951, Note_on_c, 0, 63, 119
1, 67016, Note_off_c, 0, 63, 119
1, 67023, Note_on_c, 0, 65, 118
1, 67068, Note_off_c, 0, 65, 118
1, 67398, Note_on_c, 0, 63, 99
1, 67440, Note_off_c, 0, 63, 99
1, 67453, Note_on_c, 0, 68, 125
1, 67518, Note_off_c, 0, 68, 125
1, 67519, Note_on_c, 0, 70, 122
1, 67558, Note_off_c, 0, 70, 122
1, 67657, Note_on_c, 0, 60, 122
1, 67698, Note_off_c, 0, 60, 122
1, 67711, Note_on_c, 0, 63, 120
1, 67746, Note_off_c, 0, 63, 120
1, 67750, Note_on_c, 0, 65, 120
1, 67806, Note_off_c, 0, 65, 120
1, 67953, Note_on_c, 0, 68, 124
1, 68013, Note_off_c, 0, 68, 124
1, 68015, Note_on_c, 0, 70, 120
1, 68081, Note_off_c, 0, 70, 120
1, 68152, Note_on_c, 0, 60, 109
1, 68207, Note_off_c, 0, 60, 109
1, 68211, Note_on_c, 0, 63, 120
1, 68280, Note_off_c, 0, 63, 120
1, 68288, Note_on_c, 0, 65, 117
1, 68331, Note_off_c, 0, 65, 117
1, 68865, Note_on_c, 0, 69, 117
1, 68884, Note_off_c, 0, 69, 117
1, 68885, Note_on_c, 0, 68, 123
1, 68925, Note_off_c, 0, 68, 123
1, 68938, Note_on_c, 0, 70, 119
1, 69711, Note_off_c, 0, 70, 119
1, 69717, Note_on_c, 0, 68, 117
1, 69808, Note_off_c, 0, 68, 117
1, 69827, Note_on_c, 0, 70, 116
1, 69920, Note_off_c, 0, 70, 116
1, 69935, Note_on_c, 0, 68, 119
1, 70009, Note_off_c, 0, 68, 119
1, 70022, Note_on_c, 0, 70, 115
1, 70110, Note_off_c, 0, 70, 115
1, 70111, Note_on_c, 0, 68, 112
1, 70193, Note_off_c, 0, 68, 112
1, 70218, Note_on_c, 0, 73, 121
1, 70308, Note_off_c, 0, 73, 121
1, 71165, Note_on_c, 0, 63, 123
1, 71251, Note_off_c, 0, 63, 123
1, 71403, Note_on_c, 0, 74, 115
1, 71469, Note_off_c, 0, 74, 115
1, 71476, Note_on_c, 0, 72, 121
1, 71569, Note_off_c, 0, 72, 121
1, 71629, Note_on_c, 0, 71, 123
1, 71726, Note_off_c, 0, 71, 123
1, 71739, Note_on_c, 0, 68, 118
1, 71838, Note_off_c, 0, 68, 118
1, 71858, Note_on_c, 0, 71, 117
1, 73107, Note_off_c, 0, 71, 117
1, 73141, Note_on_c, 0, 70, 110
1, 73228, Note_off_c, 0, 70, 110
1, 73241, Note_on_c, 0, 71, 119
1, 73289, Note_off_c, 0, 71, 119
1, 73306, Note_on_c, 0, 70, 106
1, 74259, Note_off_c, 0, 70, 106
1, 74649, Note_on_c, 0, 66, 126
1, 74678, Note_off_c, 0, 66, 126
1, 74686, Note_on_c, 0, 68, 125
1, 74850, Note_off_c, 0, 68, 125
1, 74886, Note_on_c, 0, 66, 117
1, 75002, Note_off_c, 0, 66, 117
1, 75002, End_track
0, 0, End_of_file
