0, 0, Header, 1, 1, 840
1, 0, Start_track
1, 0, Note_on_c, 0, 71, 100
1, 185, Note_on_c, 0, 72, 121
1, 185, Note_off_c, 0, 71, 100
1, 1009, Note_off_c, 0, 72, 121
1, 1009, Note_on_c, 0, 71, 119
1, 1122, Note_off_c, 0, 71, 119
1, 1133, Note_on_c, 0, 69, 116
1, 1252, Note_off_c, 0, 69, 116
1, 1269, Note_on_c, 0, 67, 118
1, 1388, Note_off_c, 0, 67, 118
1, 1429, Note_on_c, 0, 65, 118
1, 1667, Note_off_c, 0, 65, 118
1, 1756, Note_on_c, 0, 62, 114
1, 1997, Note_on_c, 0, 65, 112
1, 1997, Note_off_c, 0, 62, 114
1, 2097, Note_off_c, 0, 65, 112
1, 2097, Note_on_c, 0, 67, 112
1, 2164, Note_off_c, 0, 67, 112
1, 2164, Note_on_c, 0, 69, 112
1, 2260, Note_on_c, 0, 71, 115
1, 2260, Note_off_c, 0, 69, 112
1, 2343, Note_off_c, 0, 71, 115
1, 2351, Note_on_c, 0, 72, 118
1, 2506, Note_off_c, 0, 72, 118
1, 2518, Note_on_c, 0, 71, 121
1, 2828, Title_t, "Melody"
1, 2828, Tempo, 408163
1, 2828, Key_signature, 3, "major"
1, 2828, Time_signature, 4, 2, 24, 8
1, 2874, Note_off_c, 0, 71, 121
1, 4154, Note_on_c, 0, 70, 106
1, 4210, Note_off_c, 0, 70, 106
1, 4218, Note_on_c, 0, 71, 121
1, 5066, Note_off_c, 0, 71, 121
1, 5107, Note_on_c, 0, 71, 114
1, 5235, Note_off_c, 0, 71, 114
1, 5267, Note_on_c, 0, 69, 115
1, 5356, Note_off_c, 0, 69, 115
1, 5391, Note_on_c, 0, 68, 118
1, 5570, Note_off_c, 0, 68, 118
1, 5677, Note_on_c, 0, 66, 112
1, 5781, Note_off_c, 0, 66, 112
1, 5795, Note_on_c, 0, 65, 115
1, 6078, Note_off_c, 0, 65, 115
1, 6095, Note_on_c, 0, 62, 115
1, 6259, Note_off_c, 0, 62, 115
1, 6259, Note_on_c, 0, 59, 108
1, 6333, Note_off_c, 0, 59, 108
1, 6335, Note_on_c, 0, 61, 113
1, 6544, Note_off_c, 0, 61, 113
1, 6555, Note_on_c, 0, 59, 111
1, 6716, Note_off_c, 0, 59, 111
1, 6760, Note_on_c, 0, 57, 103
1, 7694, Note_off_c, 0, 57, 103
1, 7726, Note_on_c, 0, 59, 103
1, 7860, Note_off_c, 0, 59, 103
1, 7865, Note_on_c, 0, 60, 95
1, 7969, Note_off_c, 0, 60, 95
1, 7984, Note_on_c, 0, 61, 103
1, 8082, Note_off_c, 0, 61, 103
1, 8113, Note_on_c, 0, 64, 112
1, 8232, Note_off_c, 0, 64, 112
1, 8244, Note_on_c, 0, 68, 119
1, 8503, Note_off_c, 0, 68, 119
1, 8529, Note_on_c, 0, 66, 115
1, 8681, Note_off_c, 0, 66, 115
1, 8698, Note_on_c, 0, 64, 119
1, 8919, Note_off_c, 0, 64, 119
1, 8919, Note_on_c, 0, 62, 116
1, 9087, Note_off_c, 0, 62, 116
1, 9103, Note_on_c, 0, 61, 109
1, 9268, Note_off_c, 0, 61, 109
1, 9333, Note_on_c, 0, 59, 105
1, 9507, Note_off_c, 0, 59, 105
1, 9523, Note_on_c, 0, 57, 105
1, 9653, Note_off_c, 0, 57, 105
1, 9657, Note_on_c, 0, 56, 107
1, 9850, Note_off_c, 0, 56, 107
1, 9954, Note_on_c, 0, 54, 104
1, 10136, Note_off_c, 0, 54, 104
1, 10148, Note_on_c, 0, 52, 104
1, 10309, Note_off_c, 0, 52, 104
1, 10367, Note_on_c, 0, 49, 102
1, 10534, Note_off_c, 0, 49, 102
1, 10668, Note_on_c, 0, 45, 113
1, 11652, Note_off_c, 0, 45, 113
1, 13260, Note_on_c, 0, 68, 114
1, 13438, Note_off_c, 0, 68, 114
1, 13450, Note_on_c, 0, 66, 112
1, 13576, Note_off_c, 0, 66, 112
1, 13578, Note_on_c, 0, 64, 121
1, 13834, Note_off_c, 0, 64, 121
1, 13838, Note_on_c, 0, 62, 116
1, 13999, Note_off_c, 0, 62, 116
1, 14009, Note_on_c, 0, 61, 116
1, 14141, Note_off_c, 0, 61, 116
1, 14149, Note_on_c, 0, 59, 112
1, 14474, Note_off_c, 0, 59, 112
1, 14474, Note_on_c, 0, 61, 112
1, 14669, Note_off_c, 0, 61, 112
1, 14683, Note_on_c, 0, 64, 118
1, 14903, Note_off_c, 0, 64, 118
1, 14965, Note_on_c, 0, 68, 119
1, 15208, Note_off_c, 0, 68, 119
1, 15233, Note_on_c, 0, 66, 112
1, 15298, Note_off_c, 0, 66, 112
1, 15298, Note_on_c, 0, 64, 119
1, 15520, Note_on_c, 0, 62, 116
1, 15520, Note_off_c, 0, 64, 119
1, 15711, Note_off_c, 0, 62, 116
1, 15713, Note_on_c, 0, 61, 112
1, 15857, Note_off_c, 0, 61, 112
1, 15877, Note_on_c, 0, 59, 109
1, 16026, Note_on_c, 0, 57, 108
1, 16026, Note_off_c, 0, 59, 109
1, 16214, Note_off_c, 0, 57, 108
1, 17587, Note_on_c, 0, 70, 118
1, 17704, Note_off_c, 0, 70, 118
1, 17712, Note_on_c, 0, 71, 123
1, 18478, Note_off_c, 0, 71, 123
1, 18478, Note_on_c, 0, 70, 115
1, 18654, Note_off_c, 0, 70, 115
1, 18656, Note_on_c, 0, 69, 117
1, 18811, Note_off_c, 0, 69, 117
1, 18819, Note_on_c, 0, 68, 117
1, 19020, Note_off_c, 0, 68, 117
1, 19032, Note_on_c, 0, 66, 112
1, 19172, Note_off_c, 0, 66, 112
1, 19216, Note_on_c, 0, 65, 115
1, 19468, Note_off_c, 0, 65, 115
1, 19480, Note_on_c, 0, 62, 114
1, 19652, Note_off_c, 0, 62, 114
1, 19700, Note_on_c, 0, 61, 110
1, 19870, Note_off_c, 0, 61, 110
1, 19870, Note_on_c, 0, 59, 111
1, 20050, Note_off_c, 0, 59, 111
1, 20079, Note_on_c, 0, 58, 107
1, 20232, Note_off_c, 0, 58, 107
1, 20263, Note_on_c, 0, 57, 105
1, 20435, Note_off_c, 0, 57, 105
1, 20464, Note_on_c, 0, 56, 106
1, 20627, Note_off_c, 0, 56, 106
1, 20690, Note_on_c, 0, 55, 113
1, 20851, Note_off_c, 0, 55, 113
1, 20919, Note_on_c, 0, 54, 102
1, 21326, Note_off_c, 0, 54, 102
1, 24247, Note_on_c, 0, 52, 114
1, 24473, Note_off_c, 0, 52, 114
1, 24491, Note_on_c, 0, 53, 111
1, 24671, Note_off_c, 0, 53, 111
1, 24689, Note_on_c, 0, 55, 103
1, 24873, Note_off_c, 0, 55, 103
1, 24877, Note_on_c, 0, 57, 108
1, 25045, Note_off_c, 0, 57, 108
1, 25087, Note_on_c, 0, 59, 107
1, 25244, Note_off_c, 0, 59, 107
1, 25317, Note_on_c, 0, 60, 107
1, 25508, Note_off_c, 0, 60, 107
1, 25564, Note_on_c, 0, 62, 112
1, 25710, Note_on_c, 0, 64, 116
1, 25710, Note_off_c, 0, 62, 112
1, 25861, Note_off_c, 0, 64, 116
1, 25886, Note_on_c, 0, 66, 118
1, 26030, Note_off_c, 0, 66, 118
1, 26044, Note_on_c, 0, 69, 116
1, 26329, Note_off_c, 0, 69, 116
1, 26335, Note_on_c, 0, 68, 114
1, 26427, Note_off_c, 0, 68, 114
1, 26439, Note_on_c, 0, 67, 113
1, 26649, Note_off_c, 0, 67, 113
1, 26688, Note_on_c, 0, 66, 109
1, 26858, Note_off_c, 0, 66, 109
1, 26876, Note_on_c, 0, 65, 113
1, 27075, Note_off_c, 0, 65, 113
1, 27133, Note_on_c, 0, 64, 119
1, 27336, Note_off_c, 0, 64, 119
1, 27352, Note_on_c, 0, 62, 112
1, 27530, Note_off_c, 0, 62, 112
1, 27567, Note_on_c, 0, 60, 101
1, 27686, Note_off_c, 0, 60, 101
1, 27698, Note_on_c, 0, 59, 107
1, 27847, Note_off_c, 0, 59, 107
1, 27849, Note_on_c, 0, 60, 102
1, 28090, Note_off_c, 0, 60, 102
1, 28090, Note_on_c, 0, 62, 102
1, 28234, Note_off_c, 0, 62, 102
1, 28234, Note_on_c, 0, 64, 103
1, 28404, Note_off_c, 0, 64, 103
1, 28418, Note_on_c, 0, 65, 108
1, 28649, Note_off_c, 0, 65, 108
1, 28649, Note_on_c, 0, 62, 106
1, 28846, Note_off_c, 0, 62, 106
1, 28869, Note_on_c, 0, 57, 93
1, 28997, Note_on_c, 0, 55, 105
1, 28997, Note_off_c, 0, 57, 93
1, 29171, Note_off_c, 0, 55, 105
1, 29181, Note_on_c, 0, 53, 101
1, 29319, Note_off_c, 0, 53, 101
1, 29319, Note_on_c, 0, 60, 103
1, 29766, Note_off_c, 0, 60, 103
1, 30855, Note_on_c, 0, 60, 111
1, 30960, Note_off_c, 0, 60, 111
1, 31031, Note_on_c, 0, 64, 111
1, 31199, Note_off_c, 0, 64, 111
1, 31209, Note_on_c, 0, 62, 108
1, 31316, Note_off_c, 0, 62, 108
1, 31353, Note_on_c, 0, 62, 109
1, 31443, Note_off_c, 0, 62, 109
1, 31443, Note_on_c, 0, 60, 107
1, 31579, Note_off_c, 0, 60, 107
1, 31591, Note_on_c, 0, 59, 109
1, 31801, Note_off_c, 0, 59, 109
1, 31853, Note_on_c, 0, 60, 95
1, 32029, Note_off_c, 0, 60, 95
1, 32058, Note_on_c, 0, 62, 107
1, 32251, Note_off_c, 0, 62, 107
1, 32255, Note_on_c, 0, 64, 107
1, 32469, Note_off_c, 0, 64, 107
1, 32469, Note_on_c, 0, 67, 110
1, 32737, Note_off_c, 0, 67, 110
1, 32808, Note_on_c, 0, 64, 99
1, 32942, Note_off_c, 0, 64, 99
1, 32942, Note_on_c, 0, 65, 99
1, 33093, Note_off_c, 0, 65, 99
1, 33126, Note_on_c, 0, 67, 111
1, 33331, Note_off_c, 0, 67, 111
1, 33349, Note_on_c, 0, 66, 110
1, 33571, Note_off_c, 0, 66, 110
1, 33606, Note_on_c, 0, 62, 110
1, 33832, Note_off_c, 0, 62, 110
1, 33842, Note_on_c, 0, 59, 101
1, 33957, Note_off_c, 0, 59, 101
1, 34001, Note_on_c, 0, 55, 106
1, 34122, Note_off_c, 0, 55, 106
1, 34210, Note_on_c, 0, 63, 115
1, 34550, Note_off_c, 0, 63, 115
1, 34562, Note_on_c, 0, 61, 101
1, 34679, Note_off_c, 0, 61, 101
1, 34695, Note_on_c, 0, 59, 101
1, 34858, Note_off_c, 0, 59, 101
1, 34948, Note_on_c, 0, 56, 102
1, 35071, Note_off_c, 0, 56, 102
1, 35073, Note_on_c, 0, 59, 102
1, 35493, Note_off_c, 0, 59, 102
1, 36843, Note_on_c, 0, 52, 97
1, 36979, Note_off_c, 0, 52, 97
1, 36993, Note_on_c, 0, 54, 100
1, 37150, Note_off_c, 0, 54, 100
1, 37196, Note_on_c, 0, 55, 101
1, 37389, Note_off_c, 0, 55, 101
1, 37439, Note_on_c, 0, 57, 104
1, 37588, Note_off_c, 0, 57, 104
1, 37611, Note_on_c, 0, 59, 100
1, 37758, Note_off_c, 0, 59, 100
1, 37825, Note_on_c, 0, 61, 104
1, 37978, Note_off_c, 0, 61, 104
1, 37978, Note_on_c, 0, 62, 108
1, 38114, Note_off_c, 0, 62, 108
1, 38114, Note_on_c, 0, 64, 108
1, 38258, Note_off_c, 0, 64, 108
1, 38339, Note_on_c, 0, 66, 111
1, 38565, Note_off_c, 0, 66, 111
1, 38596, Note_on_c, 0, 62, 109
1, 38747, Note_off_c, 0, 62, 109
1, 38786, Note_on_c, 0, 59, 96
1, 38916, Note_off_c, 0, 59, 96
1, 38987, Note_on_c, 0, 55, 109
1, 39134, Note_off_c, 0, 55, 109
1, 39169, Note_on_c, 0, 64, 114
1, 39391, Note_off_c, 0, 64, 114
1, 39391, Note_on_c, 0, 61, 105
1, 39554, Note_off_c, 0, 61, 105
1, 39583, Note_on_c, 0, 57, 103
1, 39757, Note_off_c, 0, 57, 103
1, 39757, Note_on_c, 0, 54, 103
1, 39939, Note_off_c, 0, 54, 103
1, 39949, Note_on_c, 0, 57, 107
1, 40142, Note_off_c, 0, 57, 107
1, 40230, Note_on_c, 0, 53, 106
1, 40423, Note_off_c, 0, 53, 106
1, 40425, Note_on_c, 0, 55, 106
1, 40609, Note_off_c, 0, 55, 106
1, 40674, Note_on_c, 0, 57, 114
1, 40758, Note_off_c, 0, 57, 114
1, 40795, Note_on_c, 0, 59, 102
1, 40988, Note_off_c, 0, 59, 102
1, 41042, Note_on_c, 0, 60, 106
1, 41260, Note_off_c, 0, 60, 106
1, 41306, Note_on_c, 0, 63, 106
1, 41392, Note_off_c, 0, 63, 106
1, 41455, Note_on_c, 0, 65, 109
1, 41587, Note_off_c, 0, 65, 109
1, 41589, Note_on_c, 0, 69, 114
1, 41792, Note_off_c, 0, 69, 114
1, 41806, Note_on_c, 0, 68, 109
1, 41997, Note_off_c, 0, 68, 109
1, 42005, Note_on_c, 0, 67, 112
1, 42215, Note_off_c, 0, 67, 112
1, 42242, Note_on_c, 0, 66, 105
1, 42414, Note_off_c, 0, 66, 105
1, 42435, Note_on_c, 0, 65, 109
1, 42617, Note_off_c, 0, 65, 109
1, 42652, Note_on_c, 0, 64, 105
1, 42857, Note_off_c, 0, 64, 105
1, 42873, Note_on_c, 0, 62, 108
1, 42994, Note_off_c, 0, 62, 108
1, 43042, Note_on_c, 0, 60, 101
1, 43243, Note_off_c, 0, 60, 101
1, 43263, Note_on_c, 0, 59, 102
1, 43489, Note_off_c, 0, 59, 102
1, 43533, Note_on_c, 0, 61, 102
1, 43713, Note_on_c, 0, 62, 109
1, 43713, Note_off_c, 0, 61, 102
1, 43887, Note_off_c, 0, 62, 109
1, 43893, Note_on_c, 0, 63, 105
1, 44073, Note_off_c, 0, 63, 105
1, 44079, Note_on_c, 0, 66, 112
1, 44299, Note_off_c, 0, 66, 112
1, 44330, Note_on_c, 0, 63, 108
1, 44477, Note_off_c, 0, 63, 108
1, 44514, Note_on_c, 0, 59, 103
1, 44642, Note_off_c, 0, 59, 103
1, 44650, Note_on_c, 0, 56, 104
1, 44862, Note_off_c, 0, 56, 104
1, 44866, Note_on_c, 0, 53, 101
1, 44947, Note_off_c, 0, 53, 101
1, 44955, Note_on_c, 0, 58, 105
1, 45081, Note_off_c, 0, 58, 105
1, 45152, Note_on_c, 0, 56, 104
1, 45330, Note_off_c, 0, 56, 104
1, 45361, Note_on_c, 0, 55, 101
1, 45512, Note_off_c, 0, 55, 101
1, 45583, Note_on_c, 0, 58, 103
1, 45713, Note_off_c, 0, 58, 103
1, 45750, Note_on_c, 0, 56, 112
1, 45873, Note_off_c, 0, 56, 112
1, 45883, Note_on_c, 0, 55, 110
1, 45977, Note_off_c, 0, 55, 110
1, 46008, Note_on_c, 0, 54, 111
1, 46163, Note_off_c, 0, 54, 111
1, 46186, Note_on_c, 0, 53, 110
1, 46274, Note_off_c, 0, 53, 110
1, 46295, Note_on_c, 0, 52, 111
1, 46408, Note_off_c, 0, 52, 111
1, 46447, Note_on_c, 0, 49, 107
1, 46591, Note_off_c, 0, 49, 107
1, 46608, Note_on_c, 0, 47, 106
1, 47416, Note_off_c, 0, 47, 106
1, 51271, Note_on_c, 0, 69, 122
1, 51451, Note_off_c, 0, 69, 122
1, 51451, Note_on_c, 0, 70, 123
1, 51509, Note_on_c, 0, 71, 125
1, 51509, Note_off_c, 0, 70, 123
1, 52997, Note_off_c, 0, 71, 125
1, 53022, Note_on_c, 0, 68, 121
1, 53309, Note_off_c, 0, 68, 121
1, 53474, Note_on_c, 0, 70, 113
1, 53601, Note_off_c, 0, 70, 113
1, 53601, Note_on_c, 0, 72, 117
1, 53714, Note_off_c, 0, 72, 117
1, 53722, Note_on_c, 0, 73, 110
1, 57909, Note_off_c, 0, 73, 110
1, 58383, Note_on_c, 0, 66, 93
1, 58726, Note_off_c, 0, 66, 93
1, 58985, Note_on_c, 0, 66, 107
1, 59209, Note_off_c, 0, 66, 107
1, 59540, Note_on_c, 0, 75, 123
1, 60038, Note_off_c, 0, 75, 123
1, 60187, Note_on_c, 0, 75, 127
1, 61393, Note_off_c, 0, 75, 127
1, 61431, Note_on_c, 0, 68, 111
1, 61846, Note_off_c, 0, 68, 111
1, 61884, Note_on_c, 0, 73, 115
1, 62436, Note_off_c, 0, 73, 115
1, 65867, Note_on_c, 0, 76, 104
1, 66252, Note_off_c, 0, 76, 104
1, 66496, Note_on_c, 0, 76, 119
1, 67795, Note_off_c, 0, 76, 119
1, 67947, Note_on_c, 0, 67, 118
1, 68517, Note_off_c, 0, 67, 118
1, 68531, Note_on_c, 0, 70, 112
1, 68590, Note_off_c, 0, 70, 112
1, 68592, Note_on_c, 0, 72, 111
1, 68663, Note_off_c, 0, 72, 111
1, 68704, Note_on_c, 0, 74, 103
1, 69704, Note_off_c, 0, 74, 103
1, 69805, Note_on_c, 0, 65, 116
1, 70124, Note_off_c, 0, 65, 116
1, 70141, Note_on_c, 0, 67, 115
1, 70278, Note_off_c, 0, 67, 115
1, 70278, Note_on_c, 0, 71, 112
1, 70355, Note_off_c, 0, 71, 112
1, 70366, Note_on_c, 0, 72, 120
1, 70598, Note_off_c, 0, 72, 120
1, 70768, Note_on_c, 0, 64, 114
1, 71084, Note_off_c, 0, 64, 114
1, 71146, Note_on_c, 0, 71, 118
1, 71447, Note_off_c, 0, 71, 118
1, 71590, Note_on_c, 0, 64, 106
1, 71754, Note_off_c, 0, 64, 106
1, 71754, Note_on_c, 0, 69, 115
1, 71966, Note_off_c, 0, 69, 115
1, 71977, Note_on_c, 0, 66, 105
1, 72171, Note_off_c, 0, 66, 105
1, 72185, Note_on_c, 0, 67, 114
1, 72441, Note_off_c, 0, 67, 114
1, 72618, Note_on_c, 0, 59, 107
1, 72760, Note_off_c, 0, 59, 107
1, 72812, Note_on_c, 0, 64, 112
1, 73009, Note_off_c, 0, 64, 112
1, 73128, Note_on_c, 0, 57, 106
1, 73291, Note_off_c, 0, 57, 106
1, 73291, Note_on_c, 0, 62, 114
1, 73446, Note_off_c, 0, 62, 114
1, 73624, Note_on_c, 0, 54, 110
1, 73798, Note_on_c, 0, 60, 101
1, 73798, Note_off_c, 0, 54, 110
1, 73986, Note_off_c, 0, 60, 101
1, 74248, Note_on_c, 0, 54, 109
1, 74628, Note_off_c, 0, 54, 109
1, 77614, Note_on_c, 0, 64, 111
1, 77826, Note_off_c, 0, 64, 111
1, 77840, Note_on_c, 0, 66, 114
1, 78033, Note_off_c, 0, 66, 114
1, 78041, Note_on_c, 0, 67, 110
1, 78234, Note_off_c, 0, 67, 110
1, 78234, Note_on_c, 0, 69, 112
1, 78448, Note_off_c, 0, 69, 112
1, 78458, Note_on_c, 0, 71, 108
1, 78594, Note_off_c, 0, 71, 108
1, 78724, Note_on_c, 0, 74, 107
1, 78868, Note_off_c, 0, 74, 107
1, 78880, Note_on_c, 0, 73, 108
1, 79085, Note_off_c, 0, 73, 108
1, 79101, Note_on_c, 0, 71, 110
1, 79260, Note_off_c, 0, 71, 110
1, 79339, Note_on_c, 0, 69, 117
1, 79540, Note_off_c, 0, 69, 117
1, 79540, Note_on_c, 0, 67, 115
1, 79739, Note_off_c, 0, 67, 115
1, 79741, Note_on_c, 0, 66, 110
1, 79925, Note_off_c, 0, 66, 110
1, 79954, Note_on_c, 0, 65, 118
1, 80182, Note_off_c, 0, 65, 118
1, 80184, Note_on_c, 0, 64, 115
1, 80257, Note_off_c, 0, 64, 115
1, 80301, Note_on_c, 0, 62, 114
1, 80502, Note_off_c, 0, 62, 114
1, 80520, Note_on_c, 0, 60, 106
1, 80660, Note_off_c, 0, 60, 106
1, 80672, Note_on_c, 0, 56, 101
1, 80823, Note_off_c, 0, 56, 101
1, 80894, Note_on_c, 0, 53, 115
1, 80996, Note_off_c, 0, 53, 115
1, 81016, Note_on_c, 0, 57, 111
1, 81167, Note_off_c, 0, 57, 111
1, 81192, Note_on_c, 0, 56, 109
1, 81425, Note_off_c, 0, 56, 109
1, 82443, Note_on_c, 0, 62, 108
1, 82529, Note_off_c, 0, 62, 108
1, 82554, Note_on_c, 0, 67, 103
1, 82638, Note_off_c, 0, 67, 103
1, 82638, Note_on_c, 0, 70, 109
1, 82724, Note_off_c, 0, 70, 109
1, 82738, Note_on_c, 0, 69, 118
1, 82843, Note_off_c, 0, 69, 118
1, 82870, Note_on_c, 0, 68, 116
1, 83046, Note_off_c, 0, 68, 116
1, 83056, Note_on_c, 0, 67, 115
1, 83209, Note_off_c, 0, 67, 115
1, 83265, Note_on_c, 0, 67, 114
1, 83367, Note_off_c, 0, 67, 114
1, 83373, Note_on_c, 0, 66, 116
1, 83503, Note_off_c, 0, 66, 116
1, 83515, Note_on_c, 0, 65, 114
1, 83643, Note_off_c, 0, 65, 114
1, 83680, Note_on_c, 0, 64, 115
1, 83852, Note_off_c, 0, 64, 115
1, 83868, Note_on_c, 0, 65, 115
1, 83958, Note_off_c, 0, 65, 115
1, 83958, Note_on_c, 0, 63, 113
1, 84050, Note_off_c, 0, 63, 113
1, 84085, Note_on_c, 0, 62, 112
1, 84320, Note_off_c, 0, 62, 112
1, 84366, Note_on_c, 0, 61, 110
1, 84494, Note_off_c, 0, 61, 110
1, 84512, Note_on_c, 0, 60, 106
1, 84625, Note_off_c, 0, 60, 106
1, 84664, Note_on_c, 0, 59, 104
1, 84865, Note_off_c, 0, 59, 104
1, 84909, Note_on_c, 0, 61, 102
1, 85074, Note_off_c, 0, 61, 102
1, 85103, Note_on_c, 0, 63, 111
1, 85313, Note_off_c, 0, 63, 111
1, 85386, Note_on_c, 0, 67, 115
1, 85453, Note_off_c, 0, 67, 115
1, 85455, Note_on_c, 0, 68, 115
1, 85589, Note_off_c, 0, 68, 115
1, 85683, Note_on_c, 0, 63, 106
1, 85857, Note_off_c, 0, 63, 106
1, 85978, Note_on_c, 0, 66, 111
1, 86198, Note_off_c, 0, 66, 111
1, 86200, Note_on_c, 0, 63, 122
1, 86386, Note_off_c, 0, 63, 122
1, 86404, Note_on_c, 0, 59, 104
1, 86527, Note_off_c, 0, 59, 104
1, 88450, Note_on_c, 0, 65, 119
1, 88662, Note_off_c, 0, 65, 119
1, 88678, Note_on_c, 0, 64, 124
1, 88930, Note_off_c, 0, 64, 124
1, 88930, Note_on_c, 0, 63, 125
1, 89074, Note_off_c, 0, 63, 125
1, 89092, Note_on_c, 0, 62, 116
1, 89268, Note_off_c, 0, 62, 116
1, 89293, Note_on_c, 0, 61, 116
1, 89444, Note_off_c, 0, 61, 116
1, 89496, Note_on_c, 0, 60, 110
1, 89672, Note_off_c, 0, 60, 110
1, 89726, Note_on_c, 0, 59, 108
1, 89952, Note_off_c, 0, 59, 108
1, 90024, Note_on_c, 0, 56, 106
1, 90177, Note_off_c, 0, 56, 106
1, 90205, Note_on_c, 0, 58, 106
1, 90433, Note_off_c, 0, 58, 106
1, 90951, Note_on_c, 0, 56, 119
1, 91095, Note_off_c, 0, 56, 119
1, 91101, Note_on_c, 0, 55, 112
1, 91334, Note_off_c, 0, 55, 112
1, 91376, Note_on_c, 0, 58, 106
1, 91529, Note_off_c, 0, 58, 106
1, 91579, Note_on_c, 0, 56, 107
1, 91736, Note_off_c, 0, 56, 107
1, 91845, Note_on_c, 0, 55, 115
1, 92073, Note_off_c, 0, 55, 115
1, 92094, Note_on_c, 0, 53, 106
1, 92642, Note_off_c, 0, 53, 106
1, 92812, Note_on_c, 0, 53, 111
1, 93227, Note_off_c, 0, 53, 111
1, 93378, Note_on_c, 0, 49, 122
1, 93588, Note_off_c, 0, 49, 122
1, 93617, Note_on_c, 0, 48, 123
1, 93734, Note_off_c, 0, 48, 123
1, 93742, Note_on_c, 0, 46, 120
1, 93884, Note_off_c, 0, 46, 120
1, 93913, Note_on_c, 0, 45, 114
1, 94488, Note_off_c, 0, 45, 114
1, 94492, Note_on_c, 0, 45, 124
1, 94802, Note_off_c, 0, 45, 124
1, 94831, Note_on_c, 0, 45, 120
1, 95146, Note_off_c, 0, 45, 120
1, 95146, End_track
0, 0, End_of_file
