0, 0, Header, 1, 1, 840
1, 0, Start_track
1, 0, Title_t, "Melody"
1, 0, Tempo, 431654
1, 0, Key_signature, -1, "major"
1, 0, Time_signature, 4, 2, 24, 8
1, 11120, Note_on_c, 0, 67, 110
1, 11533, Note_off_c, 0, 67, 110
1, 11795, Note_on_c, 0, 67, 114
1, 12962, Note_off_c, 0, 67, 114
1, 12985, Note_on_c, 0, 65, 108
1, 13263, Note_off_c, 0, 65, 108
1, 13294, Note_on_c, 0, 67, 115
1, 13532, Note_off_c, 0, 67, 115
1, 13555, Note_on_c, 0, 70, 115
1, 13825, Note_off_c, 0, 70, 115
1, 17454, Note_on_c, 0, 67, 114
1, 17716, Note_off_c, 0, 67, 114
1, 17747, Note_on_c, 0, 70, 114
1, 18215, Note_off_c, 0, 70, 114
1, 18230, Note_on_c, 0, 67, 117
1, 18428, Note_off_c, 0, 67, 117
1, 18451, Note_on_c, 0, 70, 98
1, 18578, Note_off_c, 0, 70, 98
1, 18609, Note_on_c, 0, 67, 112
1, 18942, Note_off_c, 0, 67, 112
1, 18957, Note_on_c, 0, 70, 111
1, 19211, Note_off_c, 0, 70, 111
1, 19258, Note_on_c, 0, 67, 120
1, 19416, Note_off_c, 0, 67, 120
1, 19416, Note_on_c, 0, 65, 99
1, 19527, Note_off_c, 0, 65, 99
1, 19564, Note_on_c, 0, 67, 112
1, 19823, Note_off_c, 0, 67, 112
1, 19834, Note_on_c, 0, 70, 106
1, 20025, Note_off_c, 0, 70, 106
1, 20025, Note_on_c, 0, 67, 120
1, 20215, Note_off_c, 0, 67, 120
1, 20215, Note_on_c, 0, 65, 107
1, 20307, Note_off_c, 0, 65, 107
1, 20307, Note_on_c, 0, 67, 109
1, 20973, Note_off_c, 0, 67, 109
1, 20973, Note_on_c, 0, 70, 110
1, 21278, Note_off_c, 0, 70, 110
1, 24686, Note_on_c, 0, 70, 96
1, 24836, Note_off_c, 0, 70, 96
1, 24843, Note_on_c, 0, 72, 106
1, 26495, Note_off_c, 0, 72, 106
1, 26526, Note_on_c, 0, 67, 109
1, 26843, Note_off_c, 0, 67, 109
1, 26874, Note_on_c, 0, 72, 109
1, 27318, Note_off_c, 0, 72, 109
1, 27333, Note_on_c, 0, 67, 116
1, 27682, Note_off_c, 0, 67, 116
1, 27936, Note_on_c, 0, 67, 113
1, 28174, Note_off_c, 0, 67, 113
1, 28174, Note_on_c, 0, 65, 110
1, 28467, Note_off_c, 0, 65, 110
1, 28490, Note_on_c, 0, 67, 112
1, 29959, Note_off_c, 0, 67, 112
1, 29989, Note_on_c, 0, 65, 106
1, 30203, Note_off_c, 0, 65, 106
1, 30236, Note_on_c, 0, 67, 114
1, 30439, Note_off_c, 0, 67, 114
1, 30439, Note_on_c, 0, 65, 112
1, 30664, Note_off_c, 0, 65, 112
1, 30675, Note_on_c, 0, 63, 121
1, 30912, Note_off_c, 0, 63, 121
1, 34086, Note_on_c, 0, 70, 101
1, 34153, Note_off_c, 0, 70, 101
1, 34203, Note_on_c, 0, 72, 108
1, 35315, Note_off_c, 0, 72, 108
1, 35315, Note_on_c, 0, 70, 115
1, 35886, Note_off_c, 0, 70, 115
1, 35893, Note_on_c, 0, 72, 106
1, 36091, Note_off_c, 0, 72, 106
1, 37425, Note_on_c, 0, 74, 98
1, 37591, Note_off_c, 0, 74, 98
1, 37606, Note_on_c, 0, 75, 100
1, 38741, Note_off_c, 0, 75, 100
1, 38756, Note_on_c, 0, 72, 110
1, 38930, Note_off_c, 0, 72, 110
1, 38930, Note_on_c, 0, 70, 112
1, 39144, Note_off_c, 0, 70, 112
1, 39172, Note_on_c, 0, 68, 111
1, 39522, Note_off_c, 0, 68, 111
1, 40811, Note_on_c, 0, 67, 112
1, 41033, Note_off_c, 0, 67, 112
1, 41056, Note_on_c, 0, 69, 110
1, 41882, Note_off_c, 0, 69, 110
1, 41897, Note_on_c, 0, 65, 96
1, 42119, Note_off_c, 0, 65, 96
1, 42150, Note_on_c, 0, 69, 108
1, 42348, Note_off_c, 0, 69, 108
1, 42348, Note_on_c, 0, 65, 107
1, 42586, Note_off_c, 0, 65, 107
1, 42646, Note_on_c, 0, 63, 108
1, 43436, Note_off_c, 0, 63, 108
1, 43466, Note_on_c, 0, 60, 96
1, 43680, Note_off_c, 0, 60, 96
1, 43739, Note_on_c, 0, 63, 117
1, 43953, Note_off_c, 0, 63, 117
1, 43964, Note_on_c, 0, 60, 112
1, 44223, Note_on_c, 0, 58, 97
1, 44223, Note_off_c, 0, 60, 112
1, 45036, Note_off_c, 0, 58, 97
1, 45082, Note_on_c, 0, 53, 97
1, 45296, Note_off_c, 0, 53, 97
1, 45350, Note_on_c, 0, 57, 98
1, 45575, Note_off_c, 0, 57, 98
1, 45609, Note_on_c, 0, 60, 105
1, 45786, Note_off_c, 0, 60, 105
1, 45786, Note_on_c, 0, 65, 107
1, 46675, Note_off_c, 0, 65, 107
1, 46889, Note_on_c, 0, 63, 85
1, 47047, Note_off_c, 0, 63, 85
1, 47078, Note_on_c, 0, 65, 111
1, 47284, Note_off_c, 0, 65, 111
1, 47291, Note_on_c, 0, 66, 109
1, 47521, Note_off_c, 0, 66, 109
1, 47521, Note_on_c, 0, 65, 105
1, 47783, Note_off_c, 0, 65, 105
1, 50483, Note_on_c, 0, 60, 96
1, 50697, Note_off_c, 0, 60, 96
1, 50712, Note_on_c, 0, 65, 106
1, 51212, Note_off_c, 0, 65, 106
1, 51243, Note_on_c, 0, 60, 101
1, 51393, Note_off_c, 0, 60, 101
1, 51473, Note_on_c, 0, 65, 109
1, 51766, Note_off_c, 0, 65, 109
1, 51780, Note_on_c, 0, 66, 103
1, 53630, Note_off_c, 0, 66, 103
1, 53658, Note_on_c, 0, 64, 108
1, 53782, Note_off_c, 0, 64, 108
1, 53793, Note_on_c, 0, 65, 113
1, 54018, Note_off_c, 0, 65, 113
1, 54018, Note_on_c, 0, 64, 119
1, 54266, Note_off_c, 0, 64, 119
1, 54299, Note_on_c, 0, 63, 115
1, 55134, Note_off_c, 0, 63, 115
1, 55205, Note_on_c, 0, 57, 100
1, 58063, Note_off_c, 0, 57, 100
1, 58199, Note_on_c, 0, 59, 100
1, 58373, Note_off_c, 0, 59, 100
1, 58396, Note_on_c, 0, 64, 105
1, 58483, Note_off_c, 0, 64, 105
1, 58514, Note_on_c, 0, 65, 112
1, 58625, Note_off_c, 0, 65, 112
1, 58632, Note_on_c, 0, 63, 119
1, 58878, Note_off_c, 0, 63, 119
1, 58949, Note_on_c, 0, 64, 111
1, 59528, Note_off_c, 0, 64, 111
1, 59528, Note_on_c, 0, 68, 108
1, 59821, Note_off_c, 0, 68, 108
1, 59828, Note_on_c, 0, 63, 119
1, 60169, Note_off_c, 0, 63, 119
1, 60192, Note_on_c, 0, 61, 114
1, 60501, Note_off_c, 0, 61, 114
1, 62002, Note_on_c, 0, 62, 113
1, 62256, Note_off_c, 0, 62, 113
1, 62307, Note_on_c, 0, 65, 113
1, 62487, Note_off_c, 0, 65, 113
1, 62780, Note_on_c, 0, 68, 120
1, 63017, Note_off_c, 0, 68, 120
1, 63348, Note_on_c, 0, 69, 80
1, 63483, Note_off_c, 0, 69, 80
1, 63550, Note_on_c, 0, 70, 113
1, 64431, Note_off_c, 0, 70, 113
1, 64623, Note_on_c, 0, 68, 113
1, 64882, Note_off_c, 0, 68, 113
1, 64882, Note_on_c, 0, 65, 111
1, 65119, Note_off_c, 0, 65, 111
1, 65158, Note_on_c, 0, 62, 119
1, 65348, Note_off_c, 0, 62, 119
1, 65371, Note_on_c, 0, 58, 101
1, 65577, Note_off_c, 0, 58, 101
1, 65783, Note_on_c, 0, 59, 98
1, 65981, Note_off_c, 0, 59, 98
1, 66004, Note_on_c, 0, 62, 99
1, 66186, Note_off_c, 0, 62, 99
1, 66205, Note_on_c, 0, 65, 103
1, 66453, Note_off_c, 0, 65, 103
1, 66454, Note_on_c, 0, 67, 110
1, 66684, Note_off_c, 0, 67, 110
1, 66715, Note_on_c, 0, 67, 110
1, 66921, Note_off_c, 0, 67, 110
1, 66940, Note_on_c, 0, 65, 109
1, 67132, Note_off_c, 0, 65, 109
1, 67184, Note_on_c, 0, 63, 118
1, 67387, Note_off_c, 0, 63, 118
1, 67387, Note_on_c, 0, 61, 118
1, 67612, Note_off_c, 0, 61, 118
1, 67612, Note_on_c, 0, 60, 111
1, 67871, Note_off_c, 0, 60, 111
1, 67871, Note_on_c, 0, 58, 100
1, 68053, Note_off_c, 0, 58, 100
1, 68068, Note_on_c, 0, 55, 91
1, 68242, Note_off_c, 0, 55, 91
1, 68273, Note_on_c, 0, 57, 103
1, 68598, Note_off_c, 0, 57, 103
1, 68613, Note_on_c, 0, 67, 108
1, 68843, Note_off_c, 0, 67, 108
1, 68898, Note_on_c, 0, 69, 87
1, 69033, Note_off_c, 0, 69, 87
1, 69072, Note_on_c, 0, 63, 93
1, 69294, Note_off_c, 0, 63, 93
1, 69344, Note_on_c, 0, 67, 112
1, 69615, Note_off_c, 0, 67, 112
1, 69637, Note_on_c, 0, 63, 104
1, 69772, Note_off_c, 0, 63, 104
1, 69785, Note_on_c, 0, 62, 91
1, 70015, Note_off_c, 0, 62, 91
1, 70015, Note_on_c, 0, 60, 86
1, 70110, Note_off_c, 0, 60, 86
1, 70125, Note_on_c, 0, 65, 107
1, 70577, Note_off_c, 0, 65, 107
1, 70616, Note_on_c, 0, 62, 113
1, 70796, Note_off_c, 0, 62, 113
1, 73832, Note_on_c, 0, 64, 119
1, 74114, Note_off_c, 0, 64, 119
1, 74157, Note_on_c, 0, 60, 106
1, 74339, Note_off_c, 0, 60, 106
1, 74418, Note_on_c, 0, 67, 110
1, 74815, Note_off_c, 0, 67, 110
1, 74815, Note_on_c, 0, 72, 97
1, 74989, Note_off_c, 0, 72, 97
1, 75210, Note_on_c, 0, 70, 115
1, 76113, Note_off_c, 0, 70, 115
1, 76146, Note_on_c, 0, 69, 115
1, 76304, Note_off_c, 0, 69, 115
1, 76552, Note_on_c, 0, 67, 114
1, 76789, Note_off_c, 0, 67, 114
1, 76789, Note_on_c, 0, 65, 95
1, 77027, Note_off_c, 0, 65, 95
1, 77027, Note_on_c, 0, 67, 117
1, 77201, Note_off_c, 0, 67, 117
1, 77201, Note_on_c, 0, 66, 110
1, 77328, Note_off_c, 0, 66, 110
1, 77359, Note_on_c, 0, 68, 117
1, 77835, Note_off_c, 0, 68, 117
1, 77858, Note_on_c, 0, 67, 112
1, 78143, Note_off_c, 0, 67, 112
1, 78241, Note_on_c, 0, 65, 116
1, 78444, Note_off_c, 0, 65, 116
1, 78444, Note_on_c, 0, 62, 117
1, 78642, Note_off_c, 0, 62, 117
1, 78657, Note_on_c, 0, 58, 108
1, 78831, Note_off_c, 0, 58, 108
1, 78886, Note_on_c, 0, 55, 99
1, 79076, Note_off_c, 0, 55, 99
1, 79076, Note_on_c, 0, 56, 104
1, 79322, Note_off_c, 0, 56, 104
1, 79345, Note_on_c, 0, 58, 100
1, 79519, Note_off_c, 0, 58, 100
1, 79526, Note_on_c, 0, 64, 118
1, 80367, Note_off_c, 0, 64, 118
1, 80425, Note_on_c, 0, 62, 113
1, 80652, Note_off_c, 0, 62, 113
1, 80652, Note_on_c, 0, 60, 107
1, 80802, Note_off_c, 0, 60, 107
1, 80802, Note_on_c, 0, 58, 103
1, 81032, Note_off_c, 0, 58, 103
1, 81063, Note_on_c, 0, 57, 103
1, 81253, Note_off_c, 0, 57, 103
1, 81253, Note_on_c, 0, 55, 102
1, 81475, Note_off_c, 0, 55, 102
1, 81551, Note_on_c, 0, 53, 103
1, 81765, Note_off_c, 0, 53, 103
1, 81765, Note_on_c, 0, 55, 99
1, 81958, Note_off_c, 0, 55, 99
1, 81958, Note_on_c, 0, 57, 99
1, 82100, Note_off_c, 0, 57, 99
1, 82115, Note_on_c, 0, 58, 93
1, 82353, Note_off_c, 0, 58, 93
1, 82392, Note_on_c, 0, 60, 103
1, 82582, Note_off_c, 0, 60, 103
1, 82597, Note_on_c, 0, 62, 104
1, 82819, Note_off_c, 0, 62, 104
1, 82834, Note_on_c, 0, 63, 85
1, 82976, Note_on_c, 0, 65, 86
1, 82976, Note_off_c, 0, 63, 85
1, 83087, Note_off_c, 0, 65, 86
1, 83090, Note_on_c, 0, 67, 103
1, 83451, Note_off_c, 0, 67, 103
1, 83483, Note_on_c, 0, 62, 100
1, 83633, Note_off_c, 0, 62, 100
1, 83698, Note_on_c, 0, 65, 106
1, 83856, Note_off_c, 0, 65, 106
1, 83886, Note_on_c, 0, 64, 115
1, 84013, Note_off_c, 0, 64, 115
1, 84013, Note_on_c, 0, 65, 104
1, 84108, Note_off_c, 0, 65, 104
1, 84108, Note_on_c, 0, 63, 102
1, 84219, Note_off_c, 0, 63, 102
1, 84266, Note_on_c, 0, 65, 105
1, 84416, Note_off_c, 0, 65, 105
1, 84717, Note_on_c, 0, 69, 89
1, 84844, Note_off_c, 0, 69, 89
1, 84971, Note_on_c, 0, 72, 101
1, 85066, Note_off_c, 0, 72, 101
1, 85073, Note_on_c, 0, 77, 100
1, 85351, Note_off_c, 0, 77, 100
1, 87443, Note_on_c, 0, 69, 114
1, 87623, Note_off_c, 0, 69, 114
1, 87668, Note_on_c, 0, 72, 103
1, 87814, Note_off_c, 0, 72, 103
1, 88055, Note_on_c, 0, 77, 99
1, 90664, Note_off_c, 0, 77, 99
1, 90784, Note_on_c, 0, 77, 104
1, 90934, Note_off_c, 0, 77, 104
1, 90934, Note_on_c, 0, 75, 108
1, 91080, Note_off_c, 0, 75, 108
1, 91113, Note_on_c, 0, 72, 89
1, 91214, Note_off_c, 0, 72, 89
1, 91214, Note_on_c, 0, 68, 90
1, 91338, Note_off_c, 0, 68, 90
1, 91383, Note_on_c, 0, 70, 115
1, 91902, Note_off_c, 0, 70, 115
1, 93276, Note_on_c, 0, 70, 112
1, 93479, Note_off_c, 0, 70, 112
1, 93532, Note_on_c, 0, 67, 103
1, 93635, Note_off_c, 0, 67, 103
1, 93650, Note_on_c, 0, 70, 108
1, 93943, Note_off_c, 0, 70, 108
1, 93950, Note_on_c, 0, 72, 96
1, 94053, Note_off_c, 0, 72, 96
1, 94068, Note_on_c, 0, 74, 105
1, 94330, Note_off_c, 0, 74, 105
1, 94344, Note_on_c, 0, 72, 113
1, 94999, Note_off_c, 0, 72, 113
1, 94999, Note_on_c, 0, 69, 118
1, 95544, Note_off_c, 0, 69, 118
1, 95544, Note_on_c, 0, 65, 106
1, 96727, Note_off_c, 0, 65, 106
1, 96748, Note_on_c, 0, 63, 116
1, 96917, Note_off_c, 0, 63, 116
1, 96917, Note_on_c, 0, 68, 114
1, 97138, Note_off_c, 0, 68, 114
1, 97138, Note_on_c, 0, 61, 115
1, 97511, Note_off_c, 0, 61, 115
1, 99568, Note_on_c, 0, 66, 106
1, 99679, Note_off_c, 0, 66, 106
1, 99702, Note_on_c, 0, 68, 111
1, 100416, Note_off_c, 0, 68, 111
1, 100503, Note_on_c, 0, 65, 97
1, 100725, Note_on_c, 0, 67, 112
1, 100725, Note_off_c, 0, 65, 97
1, 100891, Note_off_c, 0, 67, 112
1, 100970, Note_on_c, 0, 72, 88
1, 101120, Note_off_c, 0, 72, 88
1, 101278, Note_on_c, 0, 65, 108
1, 101675, Note_off_c, 0, 65, 108
1, 101730, Note_on_c, 0, 70, 82
1, 101865, Note_off_c, 0, 70, 82
1, 102278, Note_on_c, 0, 63, 115
1, 102556, Note_off_c, 0, 63, 115
1, 102654, Note_on_c, 0, 68, 97
1, 102744, Note_off_c, 0, 68, 97
1, 102904, Note_on_c, 0, 62, 115
1, 103102, Note_off_c, 0, 62, 115
1, 103141, Note_on_c, 0, 67, 107
1, 103371, Note_off_c, 0, 67, 107
1, 103410, Note_on_c, 0, 67, 111
1, 103640, Note_off_c, 0, 67, 111
1, 103655, Note_on_c, 0, 65, 102
1, 103933, Note_off_c, 0, 65, 102
1, 103972, Note_on_c, 0, 58, 100
1, 104234, Note_off_c, 0, 58, 100
1, 104234, Note_on_c, 0, 63, 109
1, 104416, Note_off_c, 0, 63, 109
1, 104423, Note_on_c, 0, 57, 98
1, 104677, Note_off_c, 0, 57, 98
1, 104716, Note_on_c, 0, 62, 107
1, 104946, Note_off_c, 0, 62, 107
1, 104946, Note_on_c, 0, 55, 97
1, 105152, Note_off_c, 0, 55, 97
1, 105231, Note_on_c, 0, 60, 101
1, 105540, Note_off_c, 0, 60, 101
1, 105570, Note_on_c, 0, 55, 100
1, 106959, Note_off_c, 0, 55, 100
1, 107032, Note_on_c, 0, 53, 95
1, 107135, Note_off_c, 0, 53, 95
1, 107195, Note_on_c, 0, 55, 102
1, 107443, Note_off_c, 0, 55, 102
1, 107443, Note_on_c, 0, 53, 104
1, 107665, Note_off_c, 0, 53, 104
1, 107811, Note_on_c, 0, 53, 102
1, 108793, Note_off_c, 0, 53, 102
1, 108934, Note_on_c, 0, 55, 107
1, 109084, Note_off_c, 0, 55, 107
1, 109099, Note_on_c, 0, 48, 102
1, 109400, Note_off_c, 0, 48, 102
1, 113865, Note_on_c, 0, 69, 110
1, 114124, Note_off_c, 0, 69, 110
1, 114124, Note_on_c, 0, 70, 113
1, 114270, Note_off_c, 0, 70, 113
1, 114270, Note_on_c, 0, 72, 101
1, 114552, Note_off_c, 0, 72, 101
1, 115227, Note_on_c, 0, 60, 78
1, 115354, Note_off_c, 0, 60, 78
1, 115449, Note_on_c, 0, 68, 93
1, 115575, Note_on_c, 0, 70, 110
1, 115575, Note_off_c, 0, 68, 93
1, 115947, Note_off_c, 0, 70, 110
1, 115987, Note_on_c, 0, 69, 108
1, 116153, Note_off_c, 0, 69, 108
1, 116153, Note_on_c, 0, 68, 111
1, 116303, Note_off_c, 0, 68, 111
1, 116303, Note_on_c, 0, 67, 108
1, 116390, Note_off_c, 0, 67, 108
1, 116390, Note_on_c, 0, 65, 107
1, 116437, Note_off_c, 0, 65, 107
1, 116437, Note_on_c, 0, 62, 9
1, 116786, Note_off_c, 0, 62, 9
1, 116913, Note_on_c, 0, 67, 111
1, 117071, Note_off_c, 0, 67, 111
1, 117086, Note_on_c, 0, 68, 111
1, 117689, Note_off_c, 0, 68, 111
1, 117728, Note_on_c, 0, 61, 101
1, 118006, Note_off_c, 0, 61, 101
1, 118013, Note_on_c, 0, 62, 113
1, 118616, Note_off_c, 0, 62, 113
1, 121308, Note_on_c, 0, 66, 104
1, 121522, Note_off_c, 0, 66, 104
1, 121522, Note_on_c, 0, 68, 103
1, 121800, Note_off_c, 0, 68, 103
1, 121807, Note_on_c, 0, 61, 103
1, 122037, Note_off_c, 0, 61, 103
1, 122061, Note_on_c, 0, 62, 112
1, 122422, Note_off_c, 0, 62, 112
1, 122433, Note_on_c, 0, 67, 105
1, 122794, Note_off_c, 0, 67, 105
1, 122794, Note_on_c, 0, 68, 104
1, 123083, Note_off_c, 0, 68, 104
1, 123083, Note_on_c, 0, 61, 110
1, 123233, Note_off_c, 0, 61, 110
1, 123233, Note_on_c, 0, 62, 110
1, 123534, Note_off_c, 0, 62, 110
1, 123788, Note_on_c, 0, 66, 103
1, 124034, Note_off_c, 0, 66, 103
1, 124042, Note_on_c, 0, 68, 102
1, 124324, Note_off_c, 0, 68, 102
1, 124357, Note_on_c, 0, 61, 102
1, 124549, Note_off_c, 0, 61, 102
1, 124564, Note_on_c, 0, 62, 113
1, 124835, Note_off_c, 0, 62, 113
1, 124953, Note_on_c, 0, 66, 103
1, 125056, Note_off_c, 0, 66, 103
1, 125056, Note_on_c, 0, 67, 106
1, 125214, Note_off_c, 0, 67, 106
1, 125221, Note_on_c, 0, 68, 102
1, 125538, Note_off_c, 0, 68, 102
1, 125760, Note_on_c, 0, 68, 99
1, 125902, Note_off_c, 0, 68, 99
1, 125902, Note_on_c, 0, 69, 98
1, 126060, Note_off_c, 0, 69, 98
1, 126147, Note_on_c, 0, 67, 101
1, 126353, Note_off_c, 0, 67, 101
1, 126360, Note_on_c, 0, 68, 101
1, 126558, Note_off_c, 0, 68, 101
1, 126621, Note_on_c, 0, 61, 94
1, 126803, Note_off_c, 0, 61, 94
1, 126803, Note_on_c, 0, 62, 111
1, 126945, Note_off_c, 0, 62, 111
1, 127026, Note_on_c, 0, 67, 104
1, 127387, Note_off_c, 0, 67, 104
1, 127387, Note_on_c, 0, 68, 99
1, 128516, Note_off_c, 0, 68, 99
1, 128523, Note_on_c, 0, 69, 99
1, 128777, Note_off_c, 0, 69, 99
1, 128784, Note_on_c, 0, 67, 103
1, 129141, Note_off_c, 0, 67, 103
1, 129169, Note_on_c, 0, 68, 103
1, 129361, Note_off_c, 0, 68, 103
1, 130538, Note_on_c, 0, 66, 106
1, 130720, Note_off_c, 0, 66, 106
1, 130735, Note_on_c, 0, 68, 104
1, 131878, Note_off_c, 0, 68, 104
1, 132005, Note_on_c, 0, 62, 101
1, 132171, Note_off_c, 0, 62, 101
1, 132282, Note_on_c, 0, 67, 101
1, 132496, Note_off_c, 0, 67, 101
1, 132511, Note_on_c, 0, 68, 101
1, 132749, Note_off_c, 0, 68, 101
1, 133845, Note_on_c, 0, 60, 103
1, 134035, Note_off_c, 0, 60, 103
1, 134066, Note_on_c, 0, 62, 107
1, 134272, Note_off_c, 0, 62, 107
1, 134334, Note_on_c, 0, 65, 107
1, 134661, Note_off_c, 0, 65, 107
1, 134661, Note_on_c, 0, 67, 105
1, 134841, Note_off_c, 0, 67, 105
1, 134841, Note_on_c, 0, 68, 106
1, 135145, Note_off_c, 0, 68, 106
1, 135145, Note_on_c, 0, 70, 106
1, 135404, Note_off_c, 0, 70, 106
1, 135404, Note_on_c, 0, 72, 93
1, 135658, Note_off_c, 0, 72, 93
1, 135658, Note_on_c, 0, 70, 104
1, 135827, Note_off_c, 0, 70, 104
1, 136046, Note_on_c, 0, 72, 95
1, 136192, Note_off_c, 0, 72, 95
1, 136243, Note_on_c, 0, 70, 105
1, 136435, Note_off_c, 0, 70, 105
1, 136489, Note_on_c, 0, 68, 109
1, 136737, Note_off_c, 0, 68, 109
1, 136790, Note_on_c, 0, 65, 103
1, 136988, Note_off_c, 0, 65, 103
1, 137019, Note_on_c, 0, 70, 108
1, 137273, Note_off_c, 0, 70, 108
1, 137280, Note_on_c, 0, 68, 103
1, 137534, Note_off_c, 0, 68, 103
1, 137589, Note_on_c, 0, 65, 114
1, 137826, Note_off_c, 0, 65, 114
1, 137922, Note_on_c, 0, 61, 116
1, 138096, Note_off_c, 0, 61, 116
1, 138096, Note_on_c, 0, 62, 126
1, 138344, Note_off_c, 0, 62, 126
1, 138389, Note_on_c, 0, 65, 105
1, 138535, Note_off_c, 0, 65, 105
1, 138619, Note_on_c, 0, 67, 113
1, 138746, Note_off_c, 0, 67, 113
1, 138761, Note_on_c, 0, 66, 112
1, 138903, Note_off_c, 0, 66, 112
1, 138939, Note_on_c, 0, 65, 102
1, 139085, Note_off_c, 0, 65, 102
1, 139163, Note_on_c, 0, 67, 114
1, 139544, Note_off_c, 0, 67, 114
1, 139551, Note_on_c, 0, 66, 107
1, 139757, Note_off_c, 0, 66, 107
1, 140567, Note_on_c, 0, 65, 111
1, 140770, Note_off_c, 0, 65, 111
1, 140868, Note_on_c, 0, 68, 110
1, 141048, Note_off_c, 0, 68, 110
1, 141204, Note_on_c, 0, 70, 114
1, 141893, Note_on_c, 0, 68, 107
1, 141893, Note_off_c, 0, 70, 114
1, 142062, Note_off_c, 0, 68, 107
1, 142152, Note_on_c, 0, 69, 100
1, 142318, Note_off_c, 0, 69, 100
1, 142341, Note_on_c, 0, 72, 105
1, 142650, Note_off_c, 0, 72, 105
1, 142650, Note_on_c, 0, 67, 115
1, 142967, Note_off_c, 0, 67, 115
1, 143794, Note_on_c, 0, 70, 116
1, 144324, Note_off_c, 0, 70, 116
1, 144371, Note_on_c, 0, 68, 109
1, 144498, Note_off_c, 0, 68, 109
1, 144673, Note_on_c, 0, 70, 118
1, 145192, Note_off_c, 0, 70, 118
1, 145235, Note_on_c, 0, 68, 114
1, 145460, Note_off_c, 0, 68, 114
1, 145668, Note_on_c, 0, 65, 119
1, 145821, Note_off_c, 0, 65, 119
1, 145821, Note_on_c, 0, 67, 114
1, 145979, Note_off_c, 0, 67, 114
1, 146002, Note_on_c, 0, 65, 116
1, 146049, Note_off_c, 0, 65, 116
1, 146049, Note_on_c, 0, 63, 125
1, 146350, Note_off_c, 0, 63, 125
1, 146373, Note_on_c, 0, 60, 116
1, 146857, Note_off_c, 0, 60, 116
1, 146896, Note_on_c, 0, 58, 94
1, 147054, Note_off_c, 0, 58, 94
1, 147260, Note_on_c, 0, 66, 115
1, 147402, Note_off_c, 0, 66, 115
1, 147402, Note_on_c, 0, 68, 120
1, 147854, Note_off_c, 0, 68, 120
1, 147854, Note_on_c, 0, 67, 114
1, 148306, Note_off_c, 0, 67, 114
1, 148306, Note_on_c, 0, 61, 110
1, 148472, Note_off_c, 0, 61, 110
1, 148472, Note_on_c, 0, 62, 121
1, 148694, Note_off_c, 0, 62, 121
1, 148725, Note_on_c, 0, 67, 115
1, 148917, Note_off_c, 0, 67, 115
1, 148917, Note_on_c, 0, 65, 117
1, 149493, Note_off_c, 0, 65, 117
1, 149526, Note_on_c, 0, 62, 125
1, 149797, Note_off_c, 0, 62, 125
1, 149827, Note_on_c, 0, 60, 112
1, 149977, Note_off_c, 0, 60, 112
1, 154100, Note_on_c, 0, 75, 119
1, 154337, Note_off_c, 0, 75, 119
1, 154377, Note_on_c, 0, 74, 109
1, 154575, Note_off_c, 0, 74, 109
1, 154742, Note_on_c, 0, 72, 101
1, 154911, Note_off_c, 0, 72, 101
1, 154911, Note_on_c, 0, 71, 98
1, 155170, Note_off_c, 0, 71, 98
1, 155256, Note_on_c, 0, 68, 106
1, 155398, Note_off_c, 0, 68, 106
1, 155437, Note_on_c, 0, 70, 108
1, 156094, Note_off_c, 0, 70, 108
1, 156094, Note_on_c, 0, 69, 108
1, 156489, Note_off_c, 0, 69, 108
1, 156563, Note_on_c, 0, 68, 115
1, 156817, Note_off_c, 0, 68, 115
1, 156824, Note_on_c, 0, 67, 108
1, 157062, Note_off_c, 0, 67, 108
1, 157197, Note_on_c, 0, 65, 117
1, 157931, Note_off_c, 0, 65, 117
1, 157942, Note_on_c, 0, 63, 123
1, 158134, Note_off_c, 0, 63, 123
1, 158269, Note_on_c, 0, 62, 125
1, 158506, Note_off_c, 0, 62, 125
1, 158539, Note_on_c, 0, 60, 113
1, 158731, Note_off_c, 0, 60, 113
1, 158830, Note_on_c, 0, 58, 107
1, 159163, Note_on_c, 0, 57, 102
1, 159163, Note_off_c, 0, 58, 107
1, 159504, Note_off_c, 0, 57, 102
1, 159519, Note_on_c, 0, 56, 103
1, 159804, Note_off_c, 0, 56, 103
1, 159899, Note_on_c, 0, 55, 112
1, 160181, Note_off_c, 0, 55, 112
1, 160195, Note_on_c, 0, 53, 103
1, 160364, Note_off_c, 0, 53, 103
1, 160397, Note_on_c, 0, 54, 101
1, 160492, Note_off_c, 0, 54, 101
1, 160588, Note_on_c, 0, 57, 109
1, 161672, Note_off_c, 0, 57, 109
1, 161762, Note_on_c, 0, 57, 108
1, 161896, Note_on_c, 0, 65, 108
1, 161896, Note_off_c, 0, 57, 108
1, 162166, Note_off_c, 0, 65, 108
1, 162189, Note_on_c, 0, 60, 111
1, 162482, Note_off_c, 0, 60, 111
1, 167414, Note_on_c, 0, 69, 112
1, 167834, Note_off_c, 0, 69, 112
1, 168318, Note_on_c, 0, 72, 103
1, 168781, Note_off_c, 0, 72, 103
1, 169112, Note_on_c, 0, 74, 74
1, 169315, Note_off_c, 0, 74, 74
1, 169416, Note_on_c, 0, 77, 100
1, 170850, Note_off_c, 0, 77, 100
1, 170881, Note_on_c, 0, 70, 92
1, 171031, Note_off_c, 0, 70, 92
1, 171118, Note_on_c, 0, 74, 110
1, 171618, Note_off_c, 0, 74, 110
1, 171695, Note_on_c, 0, 70, 113
1, 172237, Note_off_c, 0, 70, 113
1, 172259, Note_on_c, 0, 67, 115
1, 172801, Note_off_c, 0, 67, 115
1, 172815, Note_on_c, 0, 66, 97
1, 173005, Note_off_c, 0, 66, 97
1, 174339, Note_on_c, 0, 69, 115
1, 174711, Note_off_c, 0, 69, 115
1, 174743, Note_on_c, 0, 67, 115
1, 175100, Note_off_c, 0, 67, 115
1, 175157, Note_on_c, 0, 65, 111
1, 175536, Note_off_c, 0, 65, 111
1, 175536, Note_on_c, 0, 67, 79
1, 175861, Note_off_c, 0, 67, 79
1, 175924, Note_on_c, 0, 69, 114
1, 176392, Note_off_c, 0, 69, 114
1, 176392, Note_on_c, 0, 71, 91
1, 176503, Note_off_c, 0, 71, 91
1, 176503, Note_on_c, 0, 77, 93
1, 177607, Note_off_c, 0, 77, 93
1, 177614, Note_on_c, 0, 72, 83
1, 177717, Note_off_c, 0, 72, 83
1, 177836, Note_on_c, 0, 74, 105
1, 178415, Note_off_c, 0, 74, 105
1, 178415, Note_on_c, 0, 77, 101
1, 179002, Note_off_c, 0, 77, 101
1, 179065, Note_on_c, 0, 70, 104
1, 179184, Note_off_c, 0, 70, 104
1, 179184, Note_on_c, 0, 72, 109
1, 179557, Note_off_c, 0, 72, 109
1, 179557, Note_on_c, 0, 70, 79
1, 179668, Note_off_c, 0, 70, 79
1, 181050, Note_on_c, 0, 70, 114
1, 181513, Note_off_c, 0, 70, 114
1, 181820, Note_on_c, 0, 70, 114
1, 182317, Note_off_c, 0, 70, 114
1, 182360, Note_on_c, 0, 75, 122
1, 182661, Note_off_c, 0, 75, 122
1, 182661, Note_on_c, 0, 69, 97
1, 182748, Note_off_c, 0, 69, 97
1, 182748, Note_on_c, 0, 72, 109
1, 183478, Note_off_c, 0, 72, 109
1, 183546, Note_on_c, 0, 70, 111
1, 184152, Note_off_c, 0, 70, 111
1, 184152, Note_on_c, 0, 68, 111
1, 184930, Note_off_c, 0, 68, 111
1, 184977, Note_on_c, 0, 67, 111
1, 186891, Note_off_c, 0, 67, 111
1, 187033, Note_on_c, 0, 67, 111
1, 187493, Note_off_c, 0, 67, 111
1, 187530, Note_on_c, 0, 65, 115
1, 187868, Note_off_c, 0, 65, 115
1, 188047, Note_on_c, 0, 63, 115
1, 188566, Note_off_c, 0, 63, 115
1, 188705, Note_on_c, 0, 63, 108
1, 189235, Note_off_c, 0, 63, 108
1, 189299, Note_on_c, 0, 63, 110
1, 189909, Note_off_c, 0, 63, 110
1, 190005, Note_on_c, 0, 63, 110
1, 190394, Note_off_c, 0, 63, 110
1, 190409, Note_on_c, 0, 62, 106
1, 190496, Note_off_c, 0, 62, 106
1, 193974, Note_on_c, 0, 64, 116
1, 194180, Note_off_c, 0, 64, 116
1, 194186, Note_on_c, 0, 62, 117
1, 194423, Note_off_c, 0, 62, 117
1, 194544, Note_on_c, 0, 64, 118
1, 195171, Note_off_c, 0, 64, 118
1, 195213, Note_on_c, 0, 62, 112
1, 195471, Note_off_c, 0, 62, 112
1, 195471, Note_on_c, 0, 60, 107
1, 195832, Note_off_c, 0, 60, 107
1, 195939, Note_on_c, 0, 70, 94
1, 196081, Note_off_c, 0, 70, 94
1, 196104, Note_on_c, 0, 72, 93
1, 197803, Note_off_c, 0, 72, 93
1, 198311, Note_on_c, 0, 73, 99
1, 198446, Note_off_c, 0, 73, 99
1, 198482, Note_on_c, 0, 74, 108
1, 198741, Note_off_c, 0, 74, 108
1, 198741, Note_on_c, 0, 72, 102
1, 198920, Note_off_c, 0, 72, 102
1, 198920, Note_on_c, 0, 70, 112
1, 199315, Note_off_c, 0, 70, 112
1, 199626, Note_on_c, 0, 70, 113
1, 200563, Note_off_c, 0, 70, 113
1, 200625, Note_on_c, 0, 74, 106
1, 201099, Note_off_c, 0, 74, 106
1, 201132, Note_on_c, 0, 72, 97
1, 201945, Note_off_c, 0, 72, 97
1, 201945, Note_on_c, 0, 72, 97
1, 202181, Note_on_c, 0, 69, 114
1, 202181, Note_off_c, 0, 72, 97
1, 202737, Note_off_c, 0, 69, 114
1, 202737, Note_on_c, 0, 65, 113
1, 203165, Note_off_c, 0, 65, 113
1, 204213, Note_on_c, 0, 67, 116
1, 204435, Note_off_c, 0, 67, 116
1, 204435, Note_on_c, 0, 63, 127
1, 204705, Note_off_c, 0, 63, 127
1, 204744, Note_on_c, 0, 60, 114
1, 205546, Note_off_c, 0, 60, 114
1, 205649, Note_on_c, 0, 65, 106
1, 205895, Note_off_c, 0, 65, 106
1, 205928, Note_on_c, 0, 62, 118
1, 206165, Note_off_c, 0, 62, 118
1, 206244, Note_on_c, 0, 58, 99
1, 207497, Note_off_c, 0, 58, 99
1, 207531, Note_on_c, 0, 63, 120
1, 207768, Note_off_c, 0, 63, 120
1, 207789, Note_on_c, 0, 60, 112
1, 207979, Note_off_c, 0, 60, 112
1, 207979, Note_on_c, 0, 55, 104
1, 208137, Note_off_c, 0, 55, 104
1, 208137, Note_on_c, 0, 57, 97
1, 209797, Note_off_c, 0, 57, 97
1, 209797, End_track
0, 0, End_of_file
