0, 0, Header, 1, 1, 192
1, 0, Start_track
1, 0, Title_t, "Melody"
1, 0, Tempo, 222222
1, 0, Time_signature, 4, 2, 24, 8
1, 4411, Note_on_c, 0, 66, 124
1, 4686, Note_off_c, 0, 66, 124
1, 4701, Note_on_c, 0, 61, 120
1, 4954, Note_off_c, 0, 61, 120
1, 4998, Note_on_c, 0, 66, 113
1, 5110, Note_off_c, 0, 66, 113
1, 5129, Note_on_c, 0, 65, 116
1, 5548, Note_off_c, 0, 65, 116
1, 5826, Note_on_c, 0, 61, 111
1, 6660, Note_off_c, 0, 61, 111
1, 6689, Note_on_c, 0, 60, 112
1, 7299, Note_off_c, 0, 60, 112
1, 7323, Note_on_c, 0, 67, 113
1, 8216, Note_off_c, 0, 67, 113
1, 8222, Note_on_c, 0, 65, 108
1, 8280, Note_off_c, 0, 65, 108
1, 8287, Note_on_c, 0, 67, 111
1, 8422, Note_off_c, 0, 67, 111
1, 8429, Note_on_c, 0, 65, 115
1, 8475, Note_off_c, 0, 65, 115
1, 8483, Note_on_c, 0, 63, 114
1, 8583, Note_off_c, 0, 63, 114
1, 8599, Note_on_c, 0, 58, 104
1, 8672, Note_off_c, 0, 58, 104
1, 9432, Note_on_c, 0, 56, 110
1, 9515, Note_off_c, 0, 56, 110
1, 9540, Note_on_c, 0, 58, 102
1, 9595, Note_off_c, 0, 58, 102
1, 9607, Note_on_c, 0, 59, 108
1, 9702, Note_off_c, 0, 59, 108
1, 9742, Note_on_c, 0, 62, 102
1, 9788, Note_off_c, 0, 62, 102
1, 9815, Note_on_c, 0, 63, 90
1, 9960, Note_off_c, 0, 63, 90
1, 10129, Note_on_c, 0, 66, 123
1, 10207, Note_off_c, 0, 66, 123
1, 10215, Note_on_c, 0, 65, 121
1, 10304, Note_off_c, 0, 65, 121
1, 10336, Note_on_c, 0, 62, 122
1, 10395, Note_off_c, 0, 62, 122
1, 10430, Note_on_c, 0, 58, 116
1, 10519, Note_off_c, 0, 58, 116
1, 10538, Note_on_c, 0, 55, 98
1, 10597, Note_off_c, 0, 55, 98
1, 10614, Note_on_c, 0, 62, 122
1, 10707, Note_off_c, 0, 62, 122
1, 10721, Note_on_c, 0, 60, 121
1, 10784, Note_off_c, 0, 60, 121
1, 10796, Note_on_c, 0, 56, 120
1, 10907, Note_off_c, 0, 56, 120
1, 10920, Note_on_c, 0, 53, 105
1, 10972, Note_off_c, 0, 53, 105
1, 10989, Note_on_c, 0, 58, 111
1, 11103, Note_off_c, 0, 58, 111
1, 11112, Note_on_c, 0, 53, 97
1, 11153, Note_off_c, 0, 53, 97
1, 11162, Note_on_c, 0, 56, 115
1, 11279, Note_off_c, 0, 56, 115
1, 11298, Note_on_c, 0, 58, 116
1, 11365, Note_off_c, 0, 58, 116
1, 11388, Note_on_c, 0, 55, 106
1, 11485, Note_off_c, 0, 55, 106
1, 11499, Note_on_c, 0, 58, 117
1, 11566, Note_off_c, 0, 58, 117
1, 11594, Note_on_c, 0, 62, 106
1, 11650, Note_off_c, 0, 62, 106
1, 11679, Note_on_c, 0, 65, 121
1, 11757, Note_off_c, 0, 65, 121
1, 11830, Note_on_c, 0, 60, 98
1, 11910, Note_off_c, 0, 60, 98
1, 12090, Note_on_c, 0, 67, 120
1, 12166, Note_off_c, 0, 67, 120
1, 12196, Note_on_c, 0, 61, 111
1, 12268, Note_off_c, 0, 61, 111
1, 12471, Note_on_c, 0, 67, 118
1, 12540, Note_off_c, 0, 67, 118
1, 12563, Note_on_c, 0, 63, 121
1, 12649, Note_off_c, 0, 63, 121
1, 12881, Note_on_c, 0, 67, 117
1, 12948, Note_off_c, 0, 67, 117
1, 13392, Note_on_c, 0, 67, 126
1, 13454, Note_off_c, 0, 67, 126
1, 13461, Note_on_c, 0, 68, 124
1, 13537, Note_off_c, 0, 68, 124
1, 13541, Note_on_c, 0, 70, 125
1, 13663, Note_off_c, 0, 70, 125
1, 13692, Note_on_c, 0, 72, 123
1, 13820, Note_off_c, 0, 72, 123
1, 14106, Note_on_c, 0, 72, 126
1, 14341, Note_off_c, 0, 72, 126
1, 14376, Note_on_c, 0, 70, 112
1, 14432, Note_off_c, 0, 70, 112
1, 14446, Note_on_c, 0, 68, 119
1, 14519, Note_off_c, 0, 68, 119
1, 14541, Note_on_c, 0, 67, 107
1, 14650, Note_off_c, 0, 67, 107
1, 15024, Note_on_c, 0, 68, 115
1, 15092, Note_off_c, 0, 68, 115
1, 15095, Note_on_c, 0, 70, 115
1, 15209, Note_off_c, 0, 70, 115
1, 15216, Note_on_c, 0, 72, 125
1, 15397, Note_off_c, 0, 72, 125
1, 15413, Note_on_c, 0, 70, 115
1, 15453, Note_off_c, 0, 70, 115
1, 15466, Note_on_c, 0, 68, 113
1, 15515, Note_off_c, 0, 68, 113
1, 15524, Note_on_c, 0, 67, 108
1, 15593, Note_off_c, 0, 67, 108
1, 15616, Note_on_c, 0, 84, 100
1, 15666, Note_off_c, 0, 84, 100
1, 15726, Note_on_c, 0, 65, 105
1, 15800, Note_off_c, 0, 65, 105
1, 15813, Note_on_c, 0, 64, 105
1, 15841, Note_off_c, 0, 64, 105
1, 15851, Note_on_c, 0, 63, 108
1, 15978, Note_off_c, 0, 63, 108
1, 16357, Note_on_c, 0, 72, 125
1, 16739, Note_off_c, 0, 72, 125
1, 16749, Note_on_c, 0, 70, 116
1, 16792, Note_off_c, 0, 70, 116
1, 16797, Note_on_c, 0, 68, 116
1, 16848, Note_off_c, 0, 68, 116
1, 16853, Note_on_c, 0, 67, 110
1, 16972, Note_off_c, 0, 67, 110
1, 16980, Note_on_c, 0, 66, 114
1, 17018, Note_off_c, 0, 66, 114
1, 17025, Note_on_c, 0, 65, 114
1, 17121, Note_off_c, 0, 65, 114
1, 17131, Note_on_c, 0, 64, 113
1, 17192, Note_off_c, 0, 64, 113
1, 17212, Note_on_c, 0, 63, 114
1, 17313, Note_off_c, 0, 63, 114
1, 17343, Note_on_c, 0, 62, 112
1, 17418, Note_off_c, 0, 62, 112
1, 17434, Note_on_c, 0, 61, 105
1, 17512, Note_off_c, 0, 61, 105
1, 17531, Note_on_c, 0, 60, 111
1, 17600, Note_off_c, 0, 60, 111
1, 17618, Note_on_c, 0, 59, 108
1, 17703, Note_off_c, 0, 59, 108
1, 17969, Note_on_c, 0, 53, 104
1, 18017, Note_off_c, 0, 53, 104
1, 18042, Note_on_c, 0, 57, 113
1, 18131, Note_off_c, 0, 57, 113
1, 18181, Note_on_c, 0, 53, 103
1, 18330, Note_off_c, 0, 53, 103
1, 18333, Note_on_c, 0, 56, 110
1, 18367, Note_off_c, 0, 56, 110
1, 18377, Note_on_c, 0, 55, 122
1, 18468, Note_off_c, 0, 55, 122
1, 18499, Note_on_c, 0, 53, 106
1, 18587, Note_off_c, 0, 53, 106
1, 18616, Note_on_c, 0, 51, 105
1, 18717, Note_off_c, 0, 51, 105
1, 18728, Note_on_c, 0, 55, 106
1, 18788, Note_off_c, 0, 55, 106
1, 18801, Note_on_c, 0, 53, 104
1, 18895, Note_off_c, 0, 53, 104
1, 18903, Note_on_c, 0, 55, 103
1, 18955, Note_off_c, 0, 55, 103
1, 18963, Note_on_c, 0, 56, 124
1, 19067, Note_off_c, 0, 56, 124
1, 19086, Note_on_c, 0, 58, 100
1, 19159, Note_off_c, 0, 58, 100
1, 19186, Note_on_c, 0, 60, 111
1, 19278, Note_off_c, 0, 60, 111
1, 19571, Note_on_c, 0, 58, 105
1, 19681, Note_off_c, 0, 58, 105
1, 19969, Note_on_c, 0, 56, 105
1, 20057, Note_off_c, 0, 56, 105
1, 20275, Note_on_c, 0, 61, 108
1, 20335, Note_off_c, 0, 61, 108
1, 20737, Note_on_c, 0, 59, 107
1, 20799, Note_off_c, 0, 59, 107
1, 21103, Note_on_c, 0, 63, 108
1, 21169, Note_off_c, 0, 63, 108
1, 21516, Note_on_c, 0, 65, 123
1, 21825, Note_off_c, 0, 65, 123
1, 21834, Note_on_c, 0, 70, 106
1, 21968, Note_off_c, 0, 70, 106
1, 22305, Note_on_c, 0, 65, 102
1, 22355, Note_off_c, 0, 65, 102
1, 22692, Note_on_c, 0, 68, 120
1, 22751, Note_off_c, 0, 68, 120
1, 23003, Note_on_c, 0, 66, 115
1, 23053, Note_off_c, 0, 66, 115
1, 23390, Note_on_c, 0, 71, 113
1, 23447, Note_off_c, 0, 71, 113
1, 23666, Note_on_c, 0, 64, 117
1, 23718, Note_off_c, 0, 64, 117
1, 23978, Note_on_c, 0, 72, 113
1, 24032, Note_off_c, 0, 72, 113
1, 24254, Note_on_c, 0, 62, 115
1, 24326, Note_off_c, 0, 62, 115
1, 24534, Note_on_c, 0, 73, 125
1, 24595, Note_off_c, 0, 73, 125
1, 24790, Note_on_c, 0, 61, 123
1, 24864, Note_off_c, 0, 61, 123
1, 25106, Note_on_c, 0, 74, 97
1, 25384, Note_off_c, 0, 74, 97
1, 26161, Note_on_c, 0, 73, 126
1, 26322, Note_off_c, 0, 73, 126
1, 26344, Note_on_c, 0, 68, 118
1, 26431, Note_off_c, 0, 68, 118
1, 26556, Note_on_c, 0, 66, 114
1, 26737, Note_off_c, 0, 66, 114
1, 26748, Note_on_c, 0, 61, 115
1, 26862, Note_off_c, 0, 61, 115
1, 26882, Note_on_c, 0, 60, 102
1, 27653, Note_off_c, 0, 60, 102
1, 27678, Note_on_c, 0, 60, 114
1, 27716, Note_off_c, 0, 60, 114
1, 27722, Note_on_c, 0, 61, 113
1, 27843, Note_off_c, 0, 61, 113
1, 27868, Note_on_c, 0, 56, 119
1, 27965, Note_off_c, 0, 56, 119
1, 27971, Note_on_c, 0, 54, 115
1, 28079, Note_off_c, 0, 54, 115
1, 28713, Note_on_c, 0, 55, 111
1, 28790, Note_off_c, 0, 55, 111
1, 28803, Note_on_c, 0, 58, 111
1, 28867, Note_off_c, 0, 58, 111
1, 28875, Note_on_c, 0, 62, 113
1, 28916, Note_off_c, 0, 62, 113
1, 28932, Note_on_c, 0, 65, 110
1, 29002, Note_off_c, 0, 65, 110
1, 29037, Note_on_c, 0, 60, 113
1, 29098, Note_off_c, 0, 60, 113
1, 29101, Note_on_c, 0, 61, 109
1, 29212, Note_off_c, 0, 61, 109
1, 29245, Note_on_c, 0, 64, 113
1, 29290, Note_off_c, 0, 64, 113
1, 29374, Note_on_c, 0, 66, 113
1, 29412, Note_off_c, 0, 66, 113
1, 29549, Note_on_c, 0, 70, 90
1, 29598, Note_off_c, 0, 70, 90
1, 29625, Note_on_c, 0, 72, 123
1, 29803, Note_off_c, 0, 72, 123
1, 29821, Note_on_c, 0, 70, 119
1, 29890, Note_off_c, 0, 70, 119
1, 29899, Note_on_c, 0, 68, 114
1, 29972, Note_off_c, 0, 68, 114
1, 29979, Note_on_c, 0, 67, 109
1, 30053, Note_off_c, 0, 67, 109
1, 30066, Note_on_c, 0, 65, 110
1, 30120, Note_off_c, 0, 65, 110
1, 30133, Note_on_c, 0, 63, 115
1, 30256, Note_off_c, 0, 63, 115
1, 30274, Note_on_c, 0, 61, 111
1, 30324, Note_off_c, 0, 61, 111
1, 30333, Note_on_c, 0, 60, 108
1, 30428, Note_off_c, 0, 60, 108
1, 30453, Note_on_c, 0, 58, 105
1, 30517, Note_off_c, 0, 58, 105
1, 30521, Note_on_c, 0, 56, 111
1, 30596, Note_off_c, 0, 56, 111
1, 30603, Note_on_c, 0, 55, 107
1, 30700, Note_off_c, 0, 55, 107
1, 30729, Note_on_c, 0, 58, 105
1, 30840, Note_off_c, 0, 58, 105
1, 30913, Note_on_c, 0, 56, 110
1, 30990, Note_off_c, 0, 56, 110
1, 31018, Note_on_c, 0, 58, 109
1, 31090, Note_off_c, 0, 58, 109
1, 31100, Note_on_c, 0, 59, 109
1, 31178, Note_off_c, 0, 59, 109
1, 31199, Note_on_c, 0, 61, 102
1, 31248, Note_off_c, 0, 61, 102
1, 31263, Note_on_c, 0, 63, 107
1, 31356, Note_off_c, 0, 63, 107
1, 31380, Note_on_c, 0, 66, 117
1, 31455, Note_off_c, 0, 66, 117
1, 31461, Note_on_c, 0, 65, 110
1, 31539, Note_off_c, 0, 65, 110
1, 31565, Note_on_c, 0, 60, 105
1, 31638, Note_off_c, 0, 60, 105
1, 31662, Note_on_c, 0, 58, 115
1, 31803, Note_off_c, 0, 58, 115
1, 31843, Note_on_c, 0, 60, 116
1, 31950, Note_off_c, 0, 60, 116
1, 32269, Note_on_c, 0, 58, 114
1, 32326, Note_off_c, 0, 58, 114
1, 32469, Note_on_c, 0, 51, 110
1, 32576, Note_off_c, 0, 51, 110
1, 32595, Note_on_c, 0, 55, 114
1, 32708, Note_off_c, 0, 55, 114
1, 32719, Note_on_c, 0, 61, 117
1, 32812, Note_off_c, 0, 61, 117
1, 32812, Note_on_c, 0, 60, 121
1, 32862, Note_off_c, 0, 60, 121
1, 32876, Note_on_c, 0, 60, 114
1, 32929, Note_off_c, 0, 60, 114
1, 32939, Note_on_c, 0, 56, 113
1, 33013, Note_off_c, 0, 56, 113
1, 33479, Note_on_c, 0, 56, 104
1, 33566, Note_off_c, 0, 56, 104
1, 33579, Note_on_c, 0, 58, 111
1, 33673, Note_off_c, 0, 58, 111
1, 33691, Note_on_c, 0, 60, 115
1, 33768, Note_on_c, 0, 63, 119
1, 33768, Note_off_c, 0, 60, 115
1, 33850, Note_off_c, 0, 63, 119
1, 34187, Note_on_c, 0, 67, 120
1, 34247, Note_off_c, 0, 67, 120
1, 34255, Note_on_c, 0, 67, 125
1, 34327, Note_off_c, 0, 67, 125
1, 34337, Note_on_c, 0, 65, 113
1, 34455, Note_off_c, 0, 65, 113
1, 35016, Note_on_c, 0, 67, 120
1, 35095, Note_off_c, 0, 67, 120
1, 35205, Note_on_c, 0, 62, 118
1, 35314, Note_off_c, 0, 62, 118
1, 35430, Note_on_c, 0, 57, 115
1, 35528, Note_off_c, 0, 57, 115
1, 35550, Note_on_c, 0, 56, 113
1, 35637, Note_off_c, 0, 56, 113
1, 35884, Note_on_c, 0, 63, 104
1, 35947, Note_off_c, 0, 63, 104
1, 36027, Note_on_c, 0, 66, 123
1, 36117, Note_off_c, 0, 66, 123
1, 36127, Note_on_c, 0, 65, 122
1, 36230, Note_off_c, 0, 65, 122
1, 36528, Note_on_c, 0, 60, 117
1, 36605, Note_off_c, 0, 60, 117
1, 36752, Note_on_c, 0, 55, 120
1, 36852, Note_off_c, 0, 55, 120
1, 36857, Note_on_c, 0, 59, 116
1, 36938, Note_off_c, 0, 59, 116
1, 37869, Note_on_c, 0, 73, 122
1, 37949, Note_off_c, 0, 73, 122
1, 37962, Note_on_c, 0, 72, 127
1, 38093, Note_off_c, 0, 72, 127
1, 38123, Note_on_c, 0, 67, 114
1, 38291, Note_off_c, 0, 67, 114
1, 38331, Note_on_c, 0, 62, 115
1, 38482, Note_off_c, 0, 62, 115
1, 38485, Note_on_c, 0, 61, 112
1, 38720, Note_off_c, 0, 61, 112
1, 38731, Note_on_c, 0, 66, 113
1, 38874, Note_off_c, 0, 66, 113
1, 38916, Note_on_c, 0, 71, 117
1, 39039, Note_off_c, 0, 71, 117
1, 39111, Note_on_c, 0, 70, 116
1, 39458, Note_off_c, 0, 70, 116
1, 39493, Note_on_c, 0, 65, 101
1, 39613, Note_off_c, 0, 65, 101
1, 40034, Note_on_c, 0, 60, 113
1, 40109, Note_off_c, 0, 60, 113
1, 40122, Note_on_c, 0, 59, 111
1, 40397, Note_off_c, 0, 59, 111
1, 40442, Note_on_c, 0, 64, 123
1, 40518, Note_off_c, 0, 64, 123
1, 40541, Note_on_c, 0, 69, 126
1, 40604, Note_off_c, 0, 69, 126
1, 40613, Note_on_c, 0, 68, 113
1, 41004, Note_off_c, 0, 68, 113
1, 41036, Note_on_c, 0, 63, 113
1, 41099, Note_off_c, 0, 63, 113
1, 41114, Note_on_c, 0, 58, 100
1, 41150, Note_off_c, 0, 58, 100
1, 41183, Note_on_c, 0, 55, 105
1, 41359, Note_off_c, 0, 55, 105
1, 41786, Note_on_c, 0, 55, 104
1, 41857, Note_off_c, 0, 55, 104
1, 41892, Note_on_c, 0, 62, 106
1, 41952, Note_off_c, 0, 62, 106
1, 41956, Note_on_c, 0, 67, 112
1, 42060, Note_off_c, 0, 67, 112
1, 42074, Note_on_c, 0, 66, 117
1, 42162, Note_off_c, 0, 66, 117
1, 42564, Note_on_c, 0, 62, 115
1, 42659, Note_off_c, 0, 62, 115
1, 42701, Note_on_c, 0, 55, 112
1, 42761, Note_off_c, 0, 55, 112
1, 42776, Note_on_c, 0, 54, 116
1, 43238, Note_off_c, 0, 54, 116
1, 43258, Note_on_c, 0, 49, 110
1, 43325, Note_off_c, 0, 49, 110
1, 43335, Note_on_c, 0, 54, 118
1, 43442, Note_off_c, 0, 54, 118
1, 43452, Note_on_c, 0, 59, 118
1, 43518, Note_off_c, 0, 59, 118
1, 43560, Note_on_c, 0, 64, 119
1, 43628, Note_off_c, 0, 64, 119
1, 44429, Note_on_c, 0, 61, 106
1, 44494, Note_off_c, 0, 61, 106
1, 44513, Note_on_c, 0, 61, 122
1, 44654, Note_off_c, 0, 61, 122
1, 44668, Note_on_c, 0, 66, 119
1, 44787, Note_off_c, 0, 66, 119
1, 44906, Note_on_c, 0, 66, 123
1, 45077, Note_off_c, 0, 66, 123
1, 45099, Note_on_c, 0, 61, 117
1, 45188, Note_off_c, 0, 61, 117
1, 45198, Note_on_c, 0, 60, 115
1, 45280, Note_off_c, 0, 60, 115
1, 46034, Note_on_c, 0, 60, 110
1, 46116, Note_off_c, 0, 60, 110
1, 46119, Note_on_c, 0, 61, 112
1, 46221, Note_off_c, 0, 61, 112
1, 46277, Note_on_c, 0, 63, 116
1, 46359, Note_off_c, 0, 63, 116
1, 46447, Note_on_c, 0, 68, 121
1, 46631, Note_off_c, 0, 68, 121
1, 46659, Note_on_c, 0, 73, 125
1, 46764, Note_off_c, 0, 73, 125
1, 46779, Note_on_c, 0, 72, 119
1, 48572, Note_off_c, 0, 72, 119
1, 48591, Note_on_c, 0, 72, 121
1, 48667, Note_off_c, 0, 72, 121
1, 48681, Note_on_c, 0, 70, 119
1, 48768, Note_off_c, 0, 70, 119
1, 48781, Note_on_c, 0, 72, 126
1, 48861, Note_off_c, 0, 72, 126
1, 48875, Note_on_c, 0, 70, 122
1, 48956, Note_off_c, 0, 70, 122
1, 48969, Note_on_c, 0, 68, 112
1, 49042, Note_off_c, 0, 68, 112
1, 49057, Note_on_c, 0, 67, 106
1, 49133, Note_off_c, 0, 67, 106
1, 49162, Note_on_c, 0, 70, 124
1, 49256, Note_off_c, 0, 70, 124
1, 49263, Note_on_c, 0, 68, 118
1, 49316, Note_off_c, 0, 68, 118
1, 49324, Note_on_c, 0, 67, 113
1, 49396, Note_off_c, 0, 67, 113
1, 49409, Note_on_c, 0, 68, 114
1, 49504, Note_off_c, 0, 68, 114
1, 49522, Note_on_c, 0, 65, 107
1, 49622, Note_off_c, 0, 65, 107
1, 49638, Note_on_c, 0, 61, 118
1, 49687, Note_off_c, 0, 61, 118
1, 49720, Note_on_c, 0, 58, 103
1, 49837, Note_off_c, 0, 58, 103
1, 49845, Note_on_c, 0, 55, 93
1, 49875, Note_off_c, 0, 55, 93
1, 49896, Note_on_c, 0, 63, 121
1, 49994, Note_off_c, 0, 63, 121
1, 50015, Note_on_c, 0, 60, 110
1, 50069, Note_off_c, 0, 60, 110
1, 50080, Note_on_c, 0, 56, 106
1, 50225, Note_off_c, 0, 56, 106
1, 50241, Note_on_c, 0, 53, 109
1, 50285, Note_off_c, 0, 53, 109
1, 50305, Note_on_c, 0, 58, 108
1, 50382, Note_off_c, 0, 58, 108
1, 50431, Note_on_c, 0, 53, 106
1, 50471, Note_off_c, 0, 53, 106
1, 50494, Note_on_c, 0, 56, 111
1, 50557, Note_off_c, 0, 56, 111
1, 50577, Note_on_c, 0, 58, 112
1, 50642, Note_off_c, 0, 58, 112
1, 50678, Note_on_c, 0, 53, 116
1, 50743, Note_off_c, 0, 53, 116
1, 50755, Note_on_c, 0, 51, 114
1, 50832, Note_off_c, 0, 51, 114
1, 50846, Note_on_c, 0, 49, 118
1, 50933, Note_off_c, 0, 49, 118
1, 50958, Note_on_c, 0, 53, 110
1, 51018, Note_off_c, 0, 53, 110
1, 51025, Note_on_c, 0, 51, 113
1, 51111, Note_off_c, 0, 51, 113
1, 51115, Note_on_c, 0, 49, 109
1, 51214, Note_off_c, 0, 49, 109
1, 51225, Note_on_c, 0, 46, 117
1, 51274, Note_off_c, 0, 46, 117
1, 51280, Note_on_c, 0, 44, 119
1, 51327, Note_off_c, 0, 44, 119
1, 52234, Note_on_c, 0, 52, 124
1, 52312, Note_off_c, 0, 52, 124
1, 52325, Note_on_c, 0, 57, 118
1, 52379, Note_off_c, 0, 57, 118
1, 52395, Note_on_c, 0, 54, 109
1, 52491, Note_off_c, 0, 54, 109
1, 52508, Note_on_c, 0, 62, 116
1, 52607, Note_off_c, 0, 62, 116
1, 52622, Note_on_c, 0, 59, 108
1, 52725, Note_off_c, 0, 59, 108
1, 52894, Note_on_c, 0, 64, 125
1, 52989, Note_off_c, 0, 64, 125
1, 53010, Note_on_c, 0, 60, 111
1, 53077, Note_off_c, 0, 60, 111
1, 53287, Note_on_c, 0, 66, 123
1, 53358, Note_off_c, 0, 66, 123
1, 53371, Note_on_c, 0, 62, 117
1, 53474, Note_off_c, 0, 62, 117
1, 53484, Note_on_c, 0, 67, 115
1, 53544, Note_off_c, 0, 67, 115
1, 53814, Note_on_c, 0, 63, 122
1, 53877, Note_off_c, 0, 63, 122
1, 53891, Note_on_c, 0, 68, 111
1, 54002, Note_off_c, 0, 68, 111
1, 54017, Note_on_c, 0, 66, 114
1, 54109, Note_off_c, 0, 66, 114
1, 54428, Note_on_c, 0, 61, 113
1, 54513, Note_off_c, 0, 61, 113
1, 54822, Note_on_c, 0, 66, 110
1, 55080, Note_off_c, 0, 66, 110
1, 55107, Note_on_c, 0, 61, 107
1, 55301, Note_off_c, 0, 61, 107
1, 55302, Note_on_c, 0, 60, 104
1, 55686, Note_off_c, 0, 60, 104
1, 56107, Note_on_c, 0, 61, 105
1, 56380, Note_off_c, 0, 61, 105
1, 56428, Note_on_c, 0, 66, 102
1, 56671, Note_off_c, 0, 66, 102
1, 56709, Note_on_c, 0, 61, 111
1, 56798, Note_off_c, 0, 61, 111
1, 56818, Note_on_c, 0, 60, 104
1, 57098, Note_off_c, 0, 60, 104
1, 57701, Note_on_c, 0, 66, 119
1, 57953, Note_off_c, 0, 66, 119
1, 57981, Note_on_c, 0, 61, 116
1, 58216, Note_off_c, 0, 61, 116
1, 58274, Note_on_c, 0, 54, 113
1, 58404, Note_off_c, 0, 54, 113
1, 58436, Note_on_c, 0, 57, 99
1, 59218, Note_off_c, 0, 57, 99
1, 59218, End_track
0, 0, End_of_file
