0, 0, Header, 1, 1, 192
1, 0, Start_track
1, 0, Title_t, "Melody"
1, 0, Tempo, 338983
1, 0, Key_signature, 5, "major"
1, 0, Time_signature, 3, 2, 24, 8
1, 3244, Note_on_c, 0, 67, 117
1, 3322, Note_off_c, 0, 67, 117
1, 3326, Note_on_c, 0, 69, 117
1, 4370, Note_off_c, 0, 69, 117
1, 4391, Note_on_c, 0, 66, 109
1, 4430, Note_off_c, 0, 66, 109
1, 4450, Note_on_c, 0, 69, 114
1, 4569, Note_off_c, 0, 69, 114
1, 4580, Note_on_c, 0, 67, 122
1, 4674, Note_off_c, 0, 67, 122
1, 5431, Note_on_c, 0, 68, 115
1, 5465, Note_off_c, 0, 68, 115
1, 5470, Note_on_c, 0, 69, 113
1, 6617, Note_off_c, 0, 69, 113
1, 6626, Note_on_c, 0, 69, 114
1, 6725, Note_off_c, 0, 69, 114
1, 6750, Note_on_c, 0, 66, 107
1, 6789, Note_off_c, 0, 66, 107
1, 6798, Note_on_c, 0, 69, 116
1, 6921, Note_off_c, 0, 69, 116
1, 6923, Note_on_c, 0, 67, 110
1, 7428, Note_off_c, 0, 67, 110
1, 7431, Note_on_c, 0, 63, 108
1, 7584, Note_off_c, 0, 63, 108
1, 7908, Note_on_c, 0, 62, 117
1, 8088, Note_off_c, 0, 62, 117
1, 8091, Note_on_c, 0, 66, 115
1, 8269, Note_off_c, 0, 66, 115
1, 8304, Note_on_c, 0, 70, 116
1, 8657, Note_off_c, 0, 70, 116
1, 9092, Note_on_c, 0, 68, 118
1, 9145, Note_off_c, 0, 68, 118
1, 9149, Note_on_c, 0, 69, 120
1, 9279, Note_off_c, 0, 69, 120
1, 9281, Note_on_c, 0, 67, 119
1, 9462, Note_off_c, 0, 67, 119
1, 9468, Note_on_c, 0, 64, 123
1, 9746, Note_off_c, 0, 64, 123
1, 10238, Note_on_c, 0, 69, 117
1, 10272, Note_off_c, 0, 69, 117
1, 10276, Note_on_c, 0, 70, 116
1, 10438, Note_off_c, 0, 70, 116
1, 10442, Note_on_c, 0, 68, 119
1, 10625, Note_off_c, 0, 68, 119
1, 10638, Note_on_c, 0, 63, 115
1, 10816, Note_off_c, 0, 63, 115
1, 10818, Note_on_c, 0, 65, 114
1, 10995, Note_off_c, 0, 65, 114
1, 11025, Note_on_c, 0, 70, 116
1, 11174, Note_off_c, 0, 70, 116
1, 11206, Note_on_c, 0, 68, 119
1, 11251, Note_off_c, 0, 68, 119
1, 11254, Note_on_c, 0, 69, 118
1, 11470, Note_off_c, 0, 69, 118
1, 11480, Note_on_c, 0, 67, 115
1, 11581, Note_off_c, 0, 67, 115
1, 11600, Note_on_c, 0, 64, 106
1, 11716, Note_off_c, 0, 64, 106
1, 12211, Note_on_c, 0, 70, 115
1, 12372, Note_off_c, 0, 70, 115
1, 12376, Note_on_c, 0, 69, 117
1, 12457, Note_off_c, 0, 69, 117
1, 12549, Note_on_c, 0, 69, 117
1, 12663, Note_off_c, 0, 69, 117
1, 12695, Note_on_c, 0, 69, 116
1, 12769, Note_off_c, 0, 69, 116
1, 12834, Note_on_c, 0, 69, 115
1, 12927, Note_off_c, 0, 69, 115
1, 12980, Note_on_c, 0, 69, 113
1, 13065, Note_off_c, 0, 69, 113
1, 13125, Note_on_c, 0, 69, 114
1, 13228, Note_off_c, 0, 69, 114
1, 13279, Note_on_c, 0, 69, 114
1, 13341, Note_off_c, 0, 69, 114
1, 13416, Note_on_c, 0, 69, 118
1, 13524, Note_off_c, 0, 69, 118
1, 13527, Note_on_c, 0, 67, 111
1, 13605, Note_off_c, 0, 67, 111
1, 13685, Note_on_c, 0, 69, 115
1, 13754, Note_off_c, 0, 69, 115
1, 13758, Note_on_c, 0, 67, 114
1, 13818, Note_off_c, 0, 67, 114
1, 13825, Note_on_c, 0, 64, 119
1, 13886, Note_off_c, 0, 64, 119
1, 13887, Note_on_c, 0, 62, 114
1, 13946, Note_off_c, 0, 62, 114
1, 13951, Note_on_c, 0, 59, 116
1, 14041, Note_off_c, 0, 59, 116
1, 14047, Note_on_c, 0, 57, 111
1, 14097, Note_off_c, 0, 57, 111
1, 14109, Note_on_c, 0, 55, 110
1, 14145, Note_off_c, 0, 55, 110
1, 14148, Note_on_c, 0, 52, 114
1, 14219, Note_off_c, 0, 52, 114
1, 15001, Note_on_c, 0, 57, 103
1, 15049, Note_off_c, 0, 57, 103
1, 15053, Note_on_c, 0, 59, 100
1, 15082, Note_off_c, 0, 59, 100
1, 15093, Note_on_c, 0, 62, 118
1, 15156, Note_off_c, 0, 62, 118
1, 15159, Note_on_c, 0, 64, 120
1, 15195, Note_off_c, 0, 64, 120
1, 15215, Note_on_c, 0, 67, 114
1, 15257, Note_off_c, 0, 67, 114
1, 15258, Note_on_c, 0, 69, 120
1, 15296, Note_off_c, 0, 69, 120
1, 15299, Note_on_c, 0, 71, 120
1, 15336, Note_off_c, 0, 71, 120
1, 15339, Note_on_c, 0, 74, 112
1, 15721, Note_off_c, 0, 74, 112
1, 15725, Note_on_c, 0, 69, 116
1, 15804, Note_off_c, 0, 69, 116
1, 15812, Note_on_c, 0, 65, 113
1, 15841, Note_off_c, 0, 65, 113
1, 15843, Note_on_c, 0, 64, 120
1, 15889, Note_off_c, 0, 64, 120
1, 15890, Note_on_c, 0, 62, 119
1, 15943, Note_off_c, 0, 62, 119
1, 15946, Note_on_c, 0, 59, 111
1, 15979, Note_off_c, 0, 59, 111
1, 15988, Note_on_c, 0, 57, 106
1, 16037, Note_off_c, 0, 57, 106
1, 16061, Note_on_c, 0, 54, 111
1, 16085, Note_off_c, 0, 54, 111
1, 16089, Note_on_c, 0, 52, 114
1, 16108, Note_off_c, 0, 52, 114
1, 16111, Note_on_c, 0, 50, 110
1, 16164, Note_off_c, 0, 50, 110
1, 16170, Note_on_c, 0, 52, 110
1, 16221, Note_off_c, 0, 52, 110
1, 16252, Note_on_c, 0, 55, 115
1, 16292, Note_off_c, 0, 55, 115
1, 16307, Note_on_c, 0, 59, 121
1, 16352, Note_off_c, 0, 59, 121
1, 16357, Note_on_c, 0, 64, 120
1, 16423, Note_off_c, 0, 64, 120
1, 16428, Note_on_c, 0, 69, 112
1, 16479, Note_off_c, 0, 69, 112
1, 16482, Note_on_c, 0, 66, 115
1, 16515, Note_off_c, 0, 66, 115
1, 16519, Note_on_c, 0, 67, 113
1, 16539, Note_off_c, 0, 67, 113
1, 16541, Note_on_c, 0, 69, 114
1, 16591, Note_off_c, 0, 69, 114
1, 17160, Note_on_c, 0, 71, 117
1, 17215, Note_off_c, 0, 71, 117
1, 17227, Note_on_c, 0, 71, 121
1, 17274, Note_off_c, 0, 71, 121
1, 17276, Note_on_c, 0, 69, 116
1, 17343, Note_off_c, 0, 69, 116
1, 17373, Note_on_c, 0, 71, 115
1, 17434, Note_off_c, 0, 71, 115
1, 17440, Note_on_c, 0, 71, 116
1, 17500, Note_off_c, 0, 71, 116
1, 17504, Note_on_c, 0, 69, 115
1, 17557, Note_off_c, 0, 69, 115
1, 17576, Note_on_c, 0, 71, 113
1, 17619, Note_off_c, 0, 71, 113
1, 17625, Note_on_c, 0, 69, 118
1, 17694, Note_off_c, 0, 69, 118
1, 17697, Note_on_c, 0, 67, 116
1, 17739, Note_off_c, 0, 67, 116
1, 17743, Note_on_c, 0, 65, 119
1, 17799, Note_off_c, 0, 65, 119
1, 17800, Note_on_c, 0, 63, 119
1, 17850, Note_off_c, 0, 63, 119
1, 17877, Note_on_c, 0, 69, 117
1, 17927, Note_off_c, 0, 69, 117
1, 17930, Note_on_c, 0, 67, 115
1, 17980, Note_off_c, 0, 67, 115
1, 17983, Note_on_c, 0, 65, 118
1, 18052, Note_off_c, 0, 65, 118
1, 18055, Note_on_c, 0, 63, 120
1, 18117, Note_off_c, 0, 63, 120
1, 18123, Note_on_c, 0, 59, 114
1, 18169, Note_off_c, 0, 59, 114
1, 18177, Note_on_c, 0, 57, 112
1, 18248, Note_off_c, 0, 57, 112
1, 18545, Note_on_c, 0, 71, 119
1, 18584, Note_off_c, 0, 71, 119
1, 18592, Note_on_c, 0, 69, 115
1, 18670, Note_off_c, 0, 69, 115
1, 19164, Note_on_c, 0, 69, 109
1, 19203, Note_off_c, 0, 69, 109
1, 19206, Note_on_c, 0, 71, 113
1, 19348, Note_off_c, 0, 71, 113
1, 19350, Note_on_c, 0, 69, 116
1, 19397, Note_off_c, 0, 69, 116
1, 19405, Note_on_c, 0, 71, 111
1, 19549, Note_off_c, 0, 71, 111
1, 19557, Note_on_c, 0, 69, 112
1, 19605, Note_off_c, 0, 69, 112
1, 19611, Note_on_c, 0, 71, 109
1, 19653, Note_off_c, 0, 71, 109
1, 19656, Note_on_c, 0, 69, 116
1, 19706, Note_off_c, 0, 69, 116
1, 19707, Note_on_c, 0, 67, 116
1, 19769, Note_off_c, 0, 67, 116
1, 19771, Note_on_c, 0, 65, 117
1, 19814, Note_off_c, 0, 65, 117
1, 19818, Note_on_c, 0, 63, 117
1, 19884, Note_off_c, 0, 63, 117
1, 19889, Note_on_c, 0, 68, 113
1, 19904, Note_off_c, 0, 68, 113
1, 19905, Note_on_c, 0, 69, 115
1, 19946, Note_off_c, 0, 69, 115
1, 19947, Note_on_c, 0, 67, 114
1, 19993, Note_off_c, 0, 67, 114
1, 20000, Note_on_c, 0, 65, 115
1, 20058, Note_off_c, 0, 65, 115
1, 20060, Note_on_c, 0, 63, 121
1, 20130, Note_off_c, 0, 63, 121
1, 20135, Note_on_c, 0, 59, 114
1, 20196, Note_off_c, 0, 59, 114
1, 20197, Note_on_c, 0, 57, 112
1, 20262, Note_off_c, 0, 57, 112
1, 20268, Note_on_c, 0, 59, 111
1, 20327, Note_off_c, 0, 59, 111
1, 20328, Note_on_c, 0, 57, 114
1, 20376, Note_off_c, 0, 57, 114
1, 20384, Note_on_c, 0, 55, 118
1, 20419, Note_off_c, 0, 55, 118
1, 20423, Note_on_c, 0, 53, 117
1, 20467, Note_off_c, 0, 53, 117
1, 20470, Note_on_c, 0, 51, 115
1, 20545, Note_off_c, 0, 51, 115
1, 20556, Note_on_c, 0, 59, 110
1, 20599, Note_off_c, 0, 59, 110
1, 20606, Note_on_c, 0, 57, 112
1, 20658, Note_off_c, 0, 57, 112
1, 20665, Note_on_c, 0, 55, 116
1, 20717, Note_off_c, 0, 55, 116
1, 20726, Note_on_c, 0, 53, 112
1, 20769, Note_off_c, 0, 53, 112
1, 20772, Note_on_c, 0, 51, 112
1, 20815, Note_off_c, 0, 51, 112
1, 20846, Note_on_c, 0, 57, 115
1, 20895, Note_off_c, 0, 57, 115
1, 20906, Note_on_c, 0, 55, 117
1, 20947, Note_off_c, 0, 55, 117
1, 20954, Note_on_c, 0, 53, 111
1, 21006, Note_off_c, 0, 53, 111
1, 21012, Note_on_c, 0, 51, 117
1, 21058, Note_off_c, 0, 51, 117
1, 21067, Note_on_c, 0, 48, 115
1, 21154, Note_off_c, 0, 48, 115
1, 21167, Note_on_c, 0, 47, 118
1, 21444, Note_off_c, 0, 47, 118
1, 21777, Note_on_c, 0, 50, 119
1, 21814, Note_off_c, 0, 50, 119
1, 21818, Note_on_c, 0, 51, 118
1, 21860, Note_off_c, 0, 51, 118
1, 21865, Note_on_c, 0, 54, 109
1, 21896, Note_off_c, 0, 54, 109
1, 21904, Note_on_c, 0, 55, 111
1, 21935, Note_off_c, 0, 55, 111
1, 21945, Note_on_c, 0, 58, 120
1, 21986, Note_off_c, 0, 58, 120
1, 21999, Note_on_c, 0, 62, 118
1, 22040, Note_off_c, 0, 62, 118
1, 22047, Note_on_c, 0, 67, 125
1, 22073, Note_off_c, 0, 67, 125
1, 22081, Note_on_c, 0, 69, 115
1, 22121, Note_off_c, 0, 69, 115
1, 22129, Note_on_c, 0, 71, 117
1, 22164, Note_off_c, 0, 71, 117
1, 22182, Note_on_c, 0, 74, 106
1, 22256, Note_off_c, 0, 74, 106
1, 22259, Note_on_c, 0, 72, 112
1, 22277, Note_off_c, 0, 72, 112
1, 22279, Note_on_c, 0, 71, 112
1, 22301, Note_off_c, 0, 71, 112
1, 22304, Note_on_c, 0, 70, 117
1, 22526, Note_off_c, 0, 70, 117
1, 22913, Note_on_c, 0, 67, 117
1, 22963, Note_off_c, 0, 67, 117
1, 22969, Note_on_c, 0, 69, 115
1, 23105, Note_off_c, 0, 69, 115
1, 23109, Note_on_c, 0, 73, 112
1, 23236, Note_off_c, 0, 73, 112
1, 23239, Note_on_c, 0, 75, 112
1, 23255, Note_off_c, 0, 75, 112
1, 23261, Note_on_c, 0, 76, 110
1, 24096, Note_off_c, 0, 76, 110
1, 24104, Note_on_c, 0, 77, 107
1, 25052, Note_off_c, 0, 77, 107
1, 25084, Note_on_c, 0, 76, 117
1, 25230, Note_off_c, 0, 76, 117
1, 25248, Note_on_c, 0, 71, 112
1, 25373, Note_off_c, 0, 71, 112
1, 25393, Note_on_c, 0, 67, 116
1, 25480, Note_off_c, 0, 67, 116
1, 26236, Note_on_c, 0, 69, 120
1, 26333, Note_off_c, 0, 69, 120
1, 26336, Note_on_c, 0, 67, 122
1, 26399, Note_off_c, 0, 67, 122
1, 26424, Note_on_c, 0, 65, 116
1, 26516, Note_off_c, 0, 65, 116
1, 26542, Note_on_c, 0, 69, 114
1, 26622, Note_off_c, 0, 69, 114
1, 26626, Note_on_c, 0, 64, 124
1, 26713, Note_off_c, 0, 64, 124
1, 26740, Note_on_c, 0, 67, 99
1, 26785, Note_off_c, 0, 67, 99
1, 26813, Note_on_c, 0, 71, 111
1, 26902, Note_off_c, 0, 71, 111
1, 26902, Note_on_c, 0, 74, 105
1, 26986, Note_off_c, 0, 74, 105
1, 27003, Note_on_c, 0, 71, 111
1, 27093, Note_off_c, 0, 71, 111
1, 27107, Note_on_c, 0, 67, 113
1, 27190, Note_off_c, 0, 67, 113
1, 27191, Note_on_c, 0, 64, 123
1, 27292, Note_off_c, 0, 64, 123
1, 27310, Note_on_c, 0, 69, 118
1, 27390, Note_off_c, 0, 69, 118
1, 27396, Note_on_c, 0, 67, 118
1, 27486, Note_off_c, 0, 67, 118
1, 27488, Note_on_c, 0, 64, 119
1, 27549, Note_off_c, 0, 64, 119
1, 27568, Note_on_c, 0, 69, 117
1, 27633, Note_off_c, 0, 69, 117
1, 27637, Note_on_c, 0, 71, 110
1, 27687, Note_off_c, 0, 71, 110
1, 27692, Note_on_c, 0, 69, 116
1, 27754, Note_off_c, 0, 69, 116
1, 27767, Note_on_c, 0, 66, 115
1, 27859, Note_off_c, 0, 66, 115
1, 27878, Note_on_c, 0, 62, 122
1, 27950, Note_off_c, 0, 62, 122
1, 27959, Note_on_c, 0, 59, 107
1, 28071, Note_off_c, 0, 59, 107
1, 28144, Note_on_c, 0, 57, 110
1, 28239, Note_off_c, 0, 57, 110
1, 28245, Note_on_c, 0, 57, 113
1, 28286, Note_off_c, 0, 57, 113
1, 28290, Note_on_c, 0, 54, 111
1, 28343, Note_off_c, 0, 54, 111
1, 28350, Note_on_c, 0, 52, 119
1, 28511, Note_off_c, 0, 52, 119
1, 28833, Note_on_c, 0, 69, 119
1, 28900, Note_off_c, 0, 69, 119
1, 29031, Note_on_c, 0, 67, 119
1, 29111, Note_off_c, 0, 67, 119
1, 29117, Note_on_c, 0, 65, 112
1, 29189, Note_off_c, 0, 65, 112
1, 29196, Note_on_c, 0, 65, 113
1, 29218, Note_off_c, 0, 65, 113
1, 29218, Note_on_c, 0, 67, 118
1, 29279, Note_off_c, 0, 67, 118
1, 29280, Note_on_c, 0, 69, 118
1, 29383, Note_off_c, 0, 69, 118
1, 29389, Note_on_c, 0, 72, 115
1, 29485, Note_off_c, 0, 72, 115
1, 29490, Note_on_c, 0, 71, 114
1, 29568, Note_off_c, 0, 71, 114
1, 29658, Note_on_c, 0, 69, 118
1, 29831, Note_off_c, 0, 69, 118
1, 29843, Note_on_c, 0, 67, 117
1, 29960, Note_off_c, 0, 67, 117
1, 29967, Note_on_c, 0, 64, 123
1, 30053, Note_off_c, 0, 64, 123
1, 30545, Note_on_c, 0, 70, 119
1, 30583, Note_off_c, 0, 70, 119
1, 30590, Note_on_c, 0, 71, 117
1, 30728, Note_off_c, 0, 71, 117
1, 30740, Note_on_c, 0, 69, 113
1, 30793, Note_off_c, 0, 69, 113
1, 30806, Note_on_c, 0, 70, 118
1, 30855, Note_off_c, 0, 70, 118
1, 30857, Note_on_c, 0, 71, 121
1, 30989, Note_off_c, 0, 71, 121
1, 31000, Note_on_c, 0, 69, 110
1, 31056, Note_off_c, 0, 69, 110
1, 31150, Note_on_c, 0, 59, 111
1, 31201, Note_off_c, 0, 59, 111
1, 31214, Note_on_c, 0, 71, 115
1, 31301, Note_off_c, 0, 71, 115
1, 31315, Note_on_c, 0, 70, 113
1, 31387, Note_off_c, 0, 70, 113
1, 31403, Note_on_c, 0, 71, 115
1, 31570, Note_off_c, 0, 71, 115
1, 31589, Note_on_c, 0, 69, 118
1, 31649, Note_off_c, 0, 69, 118
1, 31723, Note_on_c, 0, 71, 117
1, 31894, Note_off_c, 0, 71, 117
1, 31902, Note_on_c, 0, 69, 117
1, 31950, Note_off_c, 0, 69, 117
1, 31967, Note_on_c, 0, 71, 114
1, 32467, Note_off_c, 0, 71, 114
1, 32469, Note_on_c, 0, 75, 116
1, 32601, Note_off_c, 0, 75, 116
1, 32865, Note_on_c, 0, 70, 113
1, 32902, Note_off_c, 0, 70, 113
1, 32907, Note_on_c, 0, 71, 115
1, 33052, Note_off_c, 0, 71, 115
1, 33061, Note_on_c, 0, 69, 113
1, 33111, Note_off_c, 0, 69, 113
1, 33118, Note_on_c, 0, 71, 116
1, 33297, Note_off_c, 0, 71, 116
1, 33304, Note_on_c, 0, 69, 116
1, 33368, Note_off_c, 0, 69, 116
1, 33419, Note_on_c, 0, 71, 114
1, 33607, Note_off_c, 0, 71, 114
1, 33620, Note_on_c, 0, 69, 110
1, 33678, Note_off_c, 0, 69, 110
1, 33701, Note_on_c, 0, 71, 9
1, 33862, Note_off_c, 0, 71, 9
1, 33875, Note_on_c, 0, 69, 116
1, 33932, Note_off_c, 0, 69, 116
1, 34001, Note_on_c, 0, 71, 111
1, 34171, Note_off_c, 0, 71, 111
1, 34182, Note_on_c, 0, 69, 107
1, 34247, Note_off_c, 0, 69, 107
1, 34259, Note_on_c, 0, 71, 114
1, 34409, Note_off_c, 0, 71, 114
1, 34445, Note_on_c, 0, 65, 113
1, 34511, Note_off_c, 0, 65, 113
1, 34546, Note_on_c, 0, 74, 97
1, 34596, Note_off_c, 0, 74, 97
1, 34608, Note_on_c, 0, 77, 107
1, 34740, Note_off_c, 0, 77, 107
1, 34767, Note_on_c, 0, 79, 107
1, 34815, Note_off_c, 0, 79, 107
1, 34830, Note_on_c, 0, 77, 103
1, 35025, Note_off_c, 0, 77, 103
1, 35409, Note_on_c, 0, 74, 109
1, 35473, Note_off_c, 0, 74, 109
1, 35478, Note_on_c, 0, 76, 108
1, 35695, Note_off_c, 0, 76, 108
1, 35699, Note_on_c, 0, 74, 111
1, 35874, Note_off_c, 0, 74, 111
1, 35894, Note_on_c, 0, 70, 109
1, 36203, Note_off_c, 0, 70, 109
1, 36535, Note_on_c, 0, 75, 114
1, 36590, Note_off_c, 0, 75, 114
1, 36596, Note_on_c, 0, 76, 110
1, 36799, Note_off_c, 0, 76, 110
1, 36807, Note_on_c, 0, 73, 114
1, 36987, Note_off_c, 0, 73, 114
1, 37014, Note_on_c, 0, 67, 113
1, 37150, Note_off_c, 0, 67, 113
1, 37672, Note_on_c, 0, 74, 106
1, 37734, Note_off_c, 0, 74, 106
1, 37744, Note_on_c, 0, 77, 108
1, 37939, Note_off_c, 0, 77, 108
1, 37952, Note_on_c, 0, 75, 114
1, 38131, Note_off_c, 0, 75, 114
1, 38147, Note_on_c, 0, 73, 113
1, 38211, Note_off_c, 0, 73, 113
1, 38217, Note_on_c, 0, 72, 111
1, 38353, Note_off_c, 0, 72, 111
1, 38370, Note_on_c, 0, 70, 112
1, 38517, Note_off_c, 0, 70, 112
1, 38553, Note_on_c, 0, 68, 115
1, 38705, Note_off_c, 0, 68, 115
1, 38745, Note_on_c, 0, 65, 100
1, 38782, Note_off_c, 0, 65, 100
1, 38808, Note_on_c, 0, 69, 113
1, 38994, Note_off_c, 0, 69, 113
1, 38996, Note_on_c, 0, 67, 112
1, 39076, Note_off_c, 0, 67, 112
1, 39083, Note_on_c, 0, 64, 119
1, 39168, Note_off_c, 0, 64, 119
1, 39170, Note_on_c, 0, 62, 113
1, 39270, Note_off_c, 0, 62, 113
1, 39281, Note_on_c, 0, 59, 110
1, 39368, Note_off_c, 0, 59, 110
1, 39369, Note_on_c, 0, 57, 106
1, 39451, Note_off_c, 0, 57, 106
1, 39950, Note_on_c, 0, 67, 119
1, 40043, Note_off_c, 0, 67, 119
1, 40131, Note_on_c, 0, 67, 119
1, 40237, Note_off_c, 0, 67, 119
1, 40310, Note_on_c, 0, 67, 116
1, 40415, Note_off_c, 0, 67, 116
1, 40495, Note_on_c, 0, 67, 116
1, 40682, Note_off_c, 0, 67, 116
1, 40684, Note_on_c, 0, 64, 114
1, 40865, Note_off_c, 0, 64, 114
1, 40874, Note_on_c, 0, 69, 115
1, 40979, Note_off_c, 0, 69, 115
1, 41067, Note_on_c, 0, 62, 119
1, 41174, Note_off_c, 0, 62, 119
1, 41250, Note_on_c, 0, 62, 118
1, 41393, Note_off_c, 0, 62, 118
1, 41463, Note_on_c, 0, 62, 118
1, 41578, Note_off_c, 0, 62, 118
1, 41649, Note_on_c, 0, 62, 112
1, 41769, Note_off_c, 0, 62, 112
1, 41770, Note_on_c, 0, 64, 117
1, 41839, Note_off_c, 0, 64, 117
1, 41840, Note_on_c, 0, 62, 116
1, 41972, Note_off_c, 0, 62, 116
1, 42357, Note_on_c, 0, 66, 117
1, 42420, Note_off_c, 0, 66, 117
1, 42423, Note_on_c, 0, 67, 115
1, 42610, Note_off_c, 0, 67, 115
1, 42625, Note_on_c, 0, 67, 117
1, 42694, Note_off_c, 0, 67, 117
1, 42828, Note_on_c, 0, 67, 116
1, 42994, Note_off_c, 0, 67, 116
1, 42998, Note_on_c, 0, 64, 121
1, 43072, Note_off_c, 0, 64, 121
1, 43391, Note_on_c, 0, 62, 116
1, 43441, Note_off_c, 0, 62, 116
1, 43442, Note_on_c, 0, 64, 116
1, 43487, Note_off_c, 0, 64, 116
1, 43489, Note_on_c, 0, 62, 115
1, 43534, Note_off_c, 0, 62, 115
1, 43535, Note_on_c, 0, 64, 117
1, 43575, Note_off_c, 0, 64, 117
1, 43577, Note_on_c, 0, 62, 117
1, 43624, Note_off_c, 0, 62, 117
1, 43624, Note_on_c, 0, 64, 117
1, 43666, Note_off_c, 0, 64, 117
1, 43668, Note_on_c, 0, 62, 114
1, 43709, Note_off_c, 0, 62, 114
1, 43709, Note_on_c, 0, 64, 122
1, 43759, Note_off_c, 0, 64, 122
1, 43761, Note_on_c, 0, 62, 118
1, 43803, Note_off_c, 0, 62, 118
1, 43803, Note_on_c, 0, 64, 118
1, 43845, Note_off_c, 0, 64, 118
1, 43845, Note_on_c, 0, 62, 117
1, 43890, Note_off_c, 0, 62, 117
1, 43890, Note_on_c, 0, 64, 114
1, 43928, Note_off_c, 0, 64, 114
1, 43928, Note_on_c, 0, 62, 115
1, 43972, Note_off_c, 0, 62, 115
1, 43972, Note_on_c, 0, 64, 118
1, 44010, Note_off_c, 0, 64, 118
1, 44010, Note_on_c, 0, 62, 112
1, 44053, Note_off_c, 0, 62, 112
1, 44055, Note_on_c, 0, 64, 113
1, 44091, Note_off_c, 0, 64, 113
1, 44093, Note_on_c, 0, 62, 114
1, 44139, Note_off_c, 0, 62, 114
1, 44141, Note_on_c, 0, 64, 119
1, 44178, Note_off_c, 0, 64, 119
1, 44181, Note_on_c, 0, 62, 115
1, 44225, Note_off_c, 0, 62, 115
1, 44226, Note_on_c, 0, 64, 114
1, 44259, Note_off_c, 0, 64, 114
1, 44262, Note_on_c, 0, 62, 112
1, 44297, Note_off_c, 0, 62, 112
1, 44298, Note_on_c, 0, 64, 112
1, 44334, Note_off_c, 0, 64, 112
1, 44337, Note_on_c, 0, 62, 113
1, 44444, Note_off_c, 0, 62, 113
1, 44453, Note_on_c, 0, 64, 107
1, 44484, Note_off_c, 0, 64, 107
1, 44491, Note_on_c, 0, 59, 106
1, 44533, Note_off_c, 0, 59, 106
1, 44563, Note_on_c, 0, 65, 114
1, 44608, Note_off_c, 0, 65, 114
1, 44609, Note_on_c, 0, 63, 112
1, 44642, Note_off_c, 0, 63, 112
1, 44643, Note_on_c, 0, 65, 112
1, 44682, Note_off_c, 0, 65, 112
1, 44682, Note_on_c, 0, 63, 111
1, 44708, Note_off_c, 0, 63, 111
1, 44710, Note_on_c, 0, 65, 113
1, 44751, Note_off_c, 0, 65, 113
1, 44754, Note_on_c, 0, 63, 112
1, 44790, Note_off_c, 0, 63, 112
1, 44791, Note_on_c, 0, 65, 114
1, 44832, Note_off_c, 0, 65, 114
1, 44835, Note_on_c, 0, 63, 120
1, 44867, Note_off_c, 0, 63, 120
1, 44869, Note_on_c, 0, 65, 117
1, 44915, Note_off_c, 0, 65, 117
1, 44915, Note_on_c, 0, 63, 109
1, 44944, Note_off_c, 0, 63, 109
1, 44944, Note_on_c, 0, 65, 114
1, 44988, Note_off_c, 0, 65, 114
1, 44989, Note_on_c, 0, 63, 110
1, 45021, Note_off_c, 0, 63, 110
1, 45022, Note_on_c, 0, 65, 112
1, 45061, Note_off_c, 0, 65, 112
1, 45061, Note_on_c, 0, 63, 110
1, 45096, Note_off_c, 0, 63, 110
1, 45096, Note_on_c, 0, 65, 113
1, 45132, Note_off_c, 0, 65, 113
1, 45133, Note_on_c, 0, 63, 112
1, 45165, Note_off_c, 0, 63, 112
1, 45165, Note_on_c, 0, 65, 111
1, 45206, Note_off_c, 0, 65, 111
1, 45207, Note_on_c, 0, 63, 111
1, 45237, Note_off_c, 0, 63, 111
1, 45238, Note_on_c, 0, 65, 112
1, 45278, Note_off_c, 0, 65, 112
1, 45278, Note_on_c, 0, 63, 114
1, 45308, Note_off_c, 0, 63, 114
1, 45314, Note_on_c, 0, 65, 110
1, 45354, Note_off_c, 0, 65, 110
1, 45355, Note_on_c, 0, 63, 112
1, 45387, Note_off_c, 0, 63, 112
1, 45387, Note_on_c, 0, 65, 109
1, 45430, Note_off_c, 0, 65, 109
1, 45430, Note_on_c, 0, 63, 111
1, 45461, Note_off_c, 0, 63, 111
1, 45462, Note_on_c, 0, 65, 114
1, 45508, Note_off_c, 0, 65, 114
1, 45509, Note_on_c, 0, 63, 117
1, 45541, Note_off_c, 0, 63, 117
1, 45543, Note_on_c, 0, 65, 105
1, 45577, Note_off_c, 0, 65, 105
1, 45586, Note_on_c, 0, 63, 109
1, 45619, Note_off_c, 0, 63, 109
1, 45621, Note_on_c, 0, 65, 107
1, 45652, Note_off_c, 0, 65, 107
1, 45660, Note_on_c, 0, 63, 107
1, 45699, Note_off_c, 0, 63, 107
1, 45702, Note_on_c, 0, 65, 107
1, 45736, Note_off_c, 0, 65, 107
1, 45738, Note_on_c, 0, 63, 108
1, 45780, Note_off_c, 0, 63, 108
1, 45781, Note_on_c, 0, 65, 103
1, 45805, Note_off_c, 0, 65, 103
1, 45812, Note_on_c, 0, 63, 103
1, 45837, Note_off_c, 0, 63, 103
1, 45844, Note_on_c, 0, 65, 101
1, 45875, Note_off_c, 0, 65, 101
1, 45878, Note_on_c, 0, 63, 101
1, 45921, Note_off_c, 0, 63, 101
1, 45934, Note_on_c, 0, 65, 122
1, 45968, Note_off_c, 0, 65, 122
1, 45972, Note_on_c, 0, 63, 115
1, 46011, Note_off_c, 0, 63, 115
1, 46015, Note_on_c, 0, 65, 114
1, 46047, Note_off_c, 0, 65, 114
1, 46051, Note_on_c, 0, 63, 109
1, 46087, Note_off_c, 0, 63, 109
1, 46088, Note_on_c, 0, 65, 99
1, 46113, Note_off_c, 0, 65, 99
1, 46120, Note_on_c, 0, 63, 105
1, 46151, Note_off_c, 0, 63, 105
1, 46152, Note_on_c, 0, 65, 105
1, 46183, Note_off_c, 0, 65, 105
1, 46188, Note_on_c, 0, 63, 99
1, 46254, Note_off_c, 0, 63, 99
1, 46673, Note_on_c, 0, 59, 101
1, 46749, Note_off_c, 0, 59, 101
1, 46827, Note_on_c, 0, 65, 112
1, 46863, Note_off_c, 0, 65, 112
1, 46874, Note_on_c, 0, 63, 113
1, 46906, Note_off_c, 0, 63, 113
1, 46915, Note_on_c, 0, 65, 111
1, 46952, Note_off_c, 0, 65, 111
1, 46965, Note_on_c, 0, 63, 109
1, 47011, Note_off_c, 0, 63, 109
1, 47014, Note_on_c, 0, 65, 113
1, 47049, Note_off_c, 0, 65, 113
1, 47055, Note_on_c, 0, 63, 109
1, 47096, Note_off_c, 0, 63, 109
1, 47099, Note_on_c, 0, 65, 112
1, 47139, Note_off_c, 0, 65, 112
1, 47155, Note_on_c, 0, 63, 108
1, 47194, Note_off_c, 0, 63, 108
1, 47198, Note_on_c, 0, 65, 113
1, 47237, Note_off_c, 0, 65, 113
1, 47246, Note_on_c, 0, 63, 111
1, 47279, Note_off_c, 0, 63, 111
1, 47282, Note_on_c, 0, 65, 114
1, 47307, Note_off_c, 0, 65, 114
1, 47311, Note_on_c, 0, 63, 112
1, 47339, Note_off_c, 0, 63, 112
1, 47343, Note_on_c, 0, 65, 112
1, 47371, Note_off_c, 0, 65, 112
1, 47372, Note_on_c, 0, 63, 109
1, 47399, Note_off_c, 0, 63, 109
1, 47403, Note_on_c, 0, 65, 114
1, 47440, Note_off_c, 0, 65, 114
1, 47446, Note_on_c, 0, 63, 111
1, 47482, Note_off_c, 0, 63, 111
1, 47490, Note_on_c, 0, 65, 117
1, 47535, Note_off_c, 0, 65, 117
1, 47543, Note_on_c, 0, 63, 111
1, 47575, Note_off_c, 0, 63, 111
1, 47578, Note_on_c, 0, 65, 116
1, 47615, Note_off_c, 0, 65, 116
1, 47617, Note_on_c, 0, 63, 113
1, 47649, Note_off_c, 0, 63, 113
1, 47652, Note_on_c, 0, 65, 114
1, 47682, Note_off_c, 0, 65, 114
1, 47683, Note_on_c, 0, 63, 113
1, 47722, Note_off_c, 0, 63, 113
1, 47723, Note_on_c, 0, 65, 114
1, 47753, Note_off_c, 0, 65, 114
1, 47757, Note_on_c, 0, 63, 113
1, 47792, Note_off_c, 0, 63, 113
1, 47795, Note_on_c, 0, 65, 113
1, 47831, Note_off_c, 0, 65, 113
1, 47834, Note_on_c, 0, 63, 112
1, 47873, Note_off_c, 0, 63, 112
1, 47875, Note_on_c, 0, 65, 112
1, 47911, Note_off_c, 0, 65, 112
1, 47916, Note_on_c, 0, 63, 111
1, 47952, Note_off_c, 0, 63, 111
1, 47958, Note_on_c, 0, 65, 114
1, 47990, Note_off_c, 0, 65, 114
1, 47993, Note_on_c, 0, 63, 113
1, 48025, Note_off_c, 0, 63, 113
1, 48032, Note_on_c, 0, 65, 115
1, 48067, Note_off_c, 0, 65, 115
1, 48072, Note_on_c, 0, 63, 108
1, 48108, Note_off_c, 0, 63, 108
1, 48110, Note_on_c, 0, 65, 112
1, 48147, Note_off_c, 0, 65, 112
1, 48153, Note_on_c, 0, 63, 110
1, 48182, Note_off_c, 0, 63, 110
1, 48190, Note_on_c, 0, 65, 115
1, 48224, Note_off_c, 0, 65, 115
1, 48233, Note_on_c, 0, 63, 112
1, 48261, Note_off_c, 0, 63, 112
1, 48263, Note_on_c, 0, 65, 112
1, 48293, Note_off_c, 0, 65, 112
1, 48305, Note_on_c, 0, 63, 112
1, 48341, Note_off_c, 0, 63, 112
1, 48343, Note_on_c, 0, 65, 112
1, 48379, Note_off_c, 0, 65, 112
1, 48384, Note_on_c, 0, 63, 118
1, 48419, Note_off_c, 0, 63, 118
1, 48423, Note_on_c, 0, 65, 116
1, 48459, Note_off_c, 0, 65, 116
1, 48466, Note_on_c, 0, 63, 112
1, 48494, Note_off_c, 0, 63, 112
1, 48498, Note_on_c, 0, 65, 113
1, 48525, Note_off_c, 0, 65, 113
1, 48527, Note_on_c, 0, 63, 112
1, 48548, Note_off_c, 0, 63, 112
1, 48557, Note_on_c, 0, 65, 114
1, 48597, Note_off_c, 0, 65, 114
1, 48606, Note_on_c, 0, 63, 110
1, 48634, Note_off_c, 0, 63, 110
1, 48636, Note_on_c, 0, 65, 109
1, 48673, Note_off_c, 0, 65, 109
1, 48686, Note_on_c, 0, 63, 110
1, 48746, Note_off_c, 0, 63, 110
1, 48989, Note_on_c, 0, 70, 117
1, 49037, Note_off_c, 0, 70, 117
1, 49049, Note_on_c, 0, 72, 104
1, 50001, Note_off_c, 0, 72, 104
1, 50063, Note_on_c, 0, 72, 110
1, 50109, Note_off_c, 0, 72, 110
1, 50109, Note_on_c, 0, 73, 105
1, 50204, Note_off_c, 0, 73, 105
1, 50236, Note_on_c, 0, 67, 103
1, 50426, Note_off_c, 0, 67, 103
1, 50743, Note_on_c, 0, 71, 108
1, 50779, Note_off_c, 0, 71, 108
1, 50790, Note_on_c, 0, 73, 107
1, 51082, Note_off_c, 0, 73, 107
1, 51100, Note_on_c, 0, 74, 103
1, 51147, Note_off_c, 0, 74, 103
1, 51202, Note_on_c, 0, 75, 117
1, 51287, Note_off_c, 0, 75, 117
1, 51291, Note_on_c, 0, 72, 113
1, 51400, Note_off_c, 0, 72, 113
1, 51409, Note_on_c, 0, 70, 110
1, 51608, Note_off_c, 0, 70, 110
1, 51724, Note_on_c, 0, 68, 116
1, 51782, Note_off_c, 0, 68, 116
1, 51791, Note_on_c, 0, 67, 115
1, 51882, Note_off_c, 0, 67, 115
1, 51887, Note_on_c, 0, 63, 107
1, 51941, Note_off_c, 0, 63, 107
1, 51957, Note_on_c, 0, 67, 113
1, 52062, Note_off_c, 0, 67, 113
1, 52274, Note_on_c, 0, 64, 102
1, 52306, Note_off_c, 0, 64, 102
1, 52354, Note_on_c, 0, 69, 113
1, 52453, Note_off_c, 0, 69, 113
1, 52471, Note_on_c, 0, 64, 111
1, 52516, Note_off_c, 0, 64, 111
1, 52537, Note_on_c, 0, 71, 110
1, 52664, Note_off_c, 0, 71, 110
1, 52854, Note_on_c, 0, 69, 118
1, 52930, Note_off_c, 0, 69, 118
1, 52935, Note_on_c, 0, 67, 117
1, 53033, Note_off_c, 0, 67, 117
1, 53042, Note_on_c, 0, 64, 111
1, 53088, Note_off_c, 0, 64, 111
1, 53089, Note_on_c, 0, 62, 107
1, 53125, Note_off_c, 0, 62, 107
1, 53139, Note_on_c, 0, 64, 113
1, 53240, Note_off_c, 0, 64, 113
1, 53434, Note_on_c, 0, 69, 115
1, 53497, Note_off_c, 0, 69, 115
1, 53504, Note_on_c, 0, 65, 110
1, 53591, Note_off_c, 0, 65, 110
1, 53680, Note_on_c, 0, 75, 107
1, 53726, Note_off_c, 0, 75, 107
1, 53730, Note_on_c, 0, 77, 106
1, 53923, Note_off_c, 0, 77, 106
1, 54095, Note_on_c, 0, 64, 111
1, 54144, Note_off_c, 0, 64, 111
1, 54153, Note_on_c, 0, 65, 107
1, 54212, Note_off_c, 0, 65, 107
1, 54252, Note_on_c, 0, 57, 99
1, 54464, Note_off_c, 0, 57, 99
1, 54669, Note_on_c, 0, 67, 116
1, 54783, Note_off_c, 0, 67, 116
1, 54786, Note_on_c, 0, 71, 109
1, 54831, Note_off_c, 0, 71, 109
1, 54847, Note_on_c, 0, 64, 115
1, 54931, Note_off_c, 0, 64, 115
1, 55118, Note_on_c, 0, 69, 113
1, 55200, Note_off_c, 0, 69, 113
1, 55206, Note_on_c, 0, 66, 116
1, 55278, Note_off_c, 0, 66, 116
1, 55293, Note_on_c, 0, 62, 112
1, 55374, Note_off_c, 0, 62, 112
1, 55379, Note_on_c, 0, 59, 113
1, 55457, Note_off_c, 0, 59, 113
1, 55762, Note_on_c, 0, 71, 109
1, 55890, Note_off_c, 0, 71, 109
1, 55959, Note_on_c, 0, 71, 115
1, 56065, Note_off_c, 0, 71, 115
1, 56147, Note_on_c, 0, 71, 113
1, 56254, Note_off_c, 0, 71, 113
1, 56336, Note_on_c, 0, 70, 108
1, 56376, Note_off_c, 0, 70, 108
1, 56380, Note_on_c, 0, 71, 108
1, 56754, Note_off_c, 0, 71, 108
1, 56766, Note_on_c, 0, 69, 112
1, 56819, Note_off_c, 0, 69, 112
1, 56822, Note_on_c, 0, 67, 112
1, 56859, Note_off_c, 0, 67, 112
1, 56862, Note_on_c, 0, 64, 120
1, 56908, Note_off_c, 0, 64, 120
1, 56910, Note_on_c, 0, 62, 117
1, 56969, Note_off_c, 0, 62, 117
1, 56970, Note_on_c, 0, 59, 103
1, 57026, Note_off_c, 0, 59, 103
1, 57034, Note_on_c, 0, 57, 107
1, 57084, Note_off_c, 0, 57, 107
1, 57087, Note_on_c, 0, 55, 109
1, 57114, Note_off_c, 0, 55, 109
1, 57119, Note_on_c, 0, 52, 111
1, 57164, Note_off_c, 0, 52, 111
1, 57173, Note_on_c, 0, 50, 110
1, 57222, Note_off_c, 0, 50, 110
1, 57227, Note_on_c, 0, 47, 109
1, 57414, Note_off_c, 0, 47, 109
1, 57792, Note_on_c, 0, 70, 113
1, 57824, Note_off_c, 0, 70, 113
1, 57826, Note_on_c, 0, 71, 110
1, 57981, Note_off_c, 0, 71, 110
1, 57989, Note_on_c, 0, 69, 112
1, 58044, Note_off_c, 0, 69, 112
1, 58048, Note_on_c, 0, 71, 110
1, 58089, Note_off_c, 0, 71, 110
1, 58093, Note_on_c, 0, 69, 113
1, 58143, Note_off_c, 0, 69, 113
1, 58147, Note_on_c, 0, 67, 111
1, 58189, Note_off_c, 0, 67, 111
1, 58192, Note_on_c, 0, 65, 114
1, 58257, Note_off_c, 0, 65, 114
1, 58258, Note_on_c, 0, 63, 116
1, 58311, Note_off_c, 0, 63, 116
1, 58316, Note_on_c, 0, 59, 103
1, 58362, Note_off_c, 0, 59, 103
1, 58370, Note_on_c, 0, 57, 121
1, 58407, Note_off_c, 0, 57, 121
1, 58418, Note_on_c, 0, 55, 118
1, 58453, Note_off_c, 0, 55, 118
1, 58463, Note_on_c, 0, 53, 114
1, 58504, Note_off_c, 0, 53, 114
1, 58506, Note_on_c, 0, 51, 109
1, 58575, Note_off_c, 0, 51, 109
1, 58583, Note_on_c, 0, 53, 118
1, 58621, Note_off_c, 0, 53, 118
1, 58626, Note_on_c, 0, 55, 111
1, 58659, Note_off_c, 0, 55, 111
1, 58664, Note_on_c, 0, 57, 105
1, 58705, Note_off_c, 0, 57, 105
1, 58707, Note_on_c, 0, 59, 101
1, 58762, Note_off_c, 0, 59, 101
1, 58786, Note_on_c, 0, 63, 122
1, 58820, Note_off_c, 0, 63, 122
1, 58825, Note_on_c, 0, 65, 119
1, 58857, Note_off_c, 0, 65, 119
1, 58861, Note_on_c, 0, 67, 107
1, 58905, Note_off_c, 0, 67, 107
1, 58908, Note_on_c, 0, 69, 111
1, 58949, Note_off_c, 0, 69, 111
1, 58952, Note_on_c, 0, 71, 111
1, 58999, Note_off_c, 0, 71, 111
1, 59002, Note_on_c, 0, 69, 113
1, 59046, Note_off_c, 0, 69, 113
1, 59049, Note_on_c, 0, 67, 110
1, 59093, Note_off_c, 0, 67, 110
1, 59096, Note_on_c, 0, 65, 110
1, 59153, Note_off_c, 0, 65, 110
1, 59154, Note_on_c, 0, 63, 116
1, 59202, Note_off_c, 0, 63, 116
1, 59213, Note_on_c, 0, 65, 109
1, 59241, Note_off_c, 0, 65, 109
1, 59245, Note_on_c, 0, 67, 107
1, 59272, Note_off_c, 0, 67, 107
1, 59275, Note_on_c, 0, 69, 111
1, 59306, Note_off_c, 0, 69, 111
1, 59313, Note_on_c, 0, 71, 107
1, 59347, Note_off_c, 0, 71, 107
1, 59367, Note_on_c, 0, 75, 102
1, 59433, Note_off_c, 0, 75, 102
1, 59437, Note_on_c, 0, 73, 103
1, 59488, Note_off_c, 0, 73, 103
1, 59500, Note_on_c, 0, 71, 104
1, 59533, Note_off_c, 0, 71, 104
1, 59535, Note_on_c, 0, 70, 104
1, 59571, Note_off_c, 0, 70, 104
1, 59573, Note_on_c, 0, 69, 111
1, 59634, Note_off_c, 0, 69, 111
1, 59640, Note_on_c, 0, 67, 110
1, 59686, Note_off_c, 0, 67, 110
1, 59687, Note_on_c, 0, 65, 109
1, 59742, Note_off_c, 0, 65, 109
1, 59745, Note_on_c, 0, 63, 113
1, 59797, Note_off_c, 0, 63, 113
1, 59798, Note_on_c, 0, 59, 103
1, 59837, Note_off_c, 0, 59, 103
1, 59839, Note_on_c, 0, 57, 104
1, 59880, Note_off_c, 0, 57, 104
1, 59881, Note_on_c, 0, 55, 120
1, 59927, Note_off_c, 0, 55, 120
1, 59933, Note_on_c, 0, 53, 117
1, 59970, Note_off_c, 0, 53, 117
1, 59972, Note_on_c, 0, 51, 116
1, 60018, Note_off_c, 0, 51, 116
1, 60353, Note_on_c, 0, 51, 111
1, 60403, Note_off_c, 0, 51, 111
1, 60407, Note_on_c, 0, 53, 106
1, 60442, Note_off_c, 0, 53, 106
1, 60444, Note_on_c, 0, 55, 102
1, 60473, Note_off_c, 0, 55, 102
1, 60478, Note_on_c, 0, 59, 100
1, 60562, Note_off_c, 0, 59, 100
1, 60596, Note_on_c, 0, 65, 113
1, 60631, Note_off_c, 0, 65, 113
1, 60631, Note_on_c, 0, 67, 107
1, 60656, Note_off_c, 0, 67, 107
1, 60659, Note_on_c, 0, 69, 108
1, 60701, Note_off_c, 0, 69, 108
1, 60712, Note_on_c, 0, 75, 103
1, 60769, Note_off_c, 0, 75, 103
1, 60771, Note_on_c, 0, 73, 103
1, 60816, Note_off_c, 0, 73, 103
1, 60828, Note_on_c, 0, 71, 89
1, 60878, Note_off_c, 0, 71, 89
1, 60950, Note_on_c, 0, 77, 105
1, 61023, Note_off_c, 0, 77, 105
1, 61046, Note_on_c, 0, 75, 102
1, 61102, Note_off_c, 0, 75, 102
1, 61137, Note_on_c, 0, 71, 112
1, 61178, Note_off_c, 0, 71, 112
1, 61181, Note_on_c, 0, 70, 103
1, 61224, Note_off_c, 0, 70, 103
1, 61239, Note_on_c, 0, 69, 102
1, 61289, Note_off_c, 0, 69, 102
1, 61295, Note_on_c, 0, 67, 107
1, 61330, Note_off_c, 0, 67, 107
1, 61336, Note_on_c, 0, 65, 107
1, 61382, Note_off_c, 0, 65, 107
1, 61386, Note_on_c, 0, 63, 107
1, 61421, Note_off_c, 0, 63, 107
1, 61433, Note_on_c, 0, 69, 104
1, 61482, Note_off_c, 0, 69, 104
1, 61485, Note_on_c, 0, 65, 112
1, 61521, Note_off_c, 0, 65, 112
1, 61522, Note_on_c, 0, 63, 109
1, 61557, Note_off_c, 0, 63, 109
1, 61570, Note_on_c, 0, 59, 97
1, 61602, Note_off_c, 0, 59, 97
1, 61615, Note_on_c, 0, 57, 103
1, 61651, Note_off_c, 0, 57, 103
1, 61655, Note_on_c, 0, 55, 115
1, 61694, Note_off_c, 0, 55, 115
1, 61716, Note_on_c, 0, 51, 113
1, 61748, Note_off_c, 0, 51, 113
1, 61763, Note_on_c, 0, 59, 106
1, 61798, Note_off_c, 0, 59, 106
1, 61804, Note_on_c, 0, 57, 106
1, 61837, Note_off_c, 0, 57, 106
1, 61848, Note_on_c, 0, 55, 117
1, 61890, Note_off_c, 0, 55, 117
1, 61898, Note_on_c, 0, 51, 110
1, 61937, Note_off_c, 0, 51, 110
1, 61941, Note_on_c, 0, 59, 106
1, 61973, Note_off_c, 0, 59, 106
1, 61978, Note_on_c, 0, 57, 106
1, 62020, Note_off_c, 0, 57, 106
1, 62026, Note_on_c, 0, 55, 112
1, 62067, Note_off_c, 0, 55, 112
1, 62074, Note_on_c, 0, 51, 112
1, 62120, Note_off_c, 0, 51, 112
1, 62155, Note_on_c, 0, 48, 106
1, 62237, Note_off_c, 0, 48, 106
1, 62534, Note_on_c, 0, 46, 127
1, 62570, Note_off_c, 0, 46, 127
1, 62604, Note_on_c, 0, 52, 121
1, 62639, Note_off_c, 0, 52, 121
1, 62641, Note_on_c, 0, 53, 117
1, 62667, Note_off_c, 0, 53, 117
1, 62670, Note_on_c, 0, 55, 114
1, 62693, Note_off_c, 0, 55, 114
1, 62694, Note_on_c, 0, 57, 106
1, 62717, Note_off_c, 0, 57, 106
1, 62726, Note_on_c, 0, 58, 103
1, 62768, Note_off_c, 0, 58, 103
1, 62778, Note_on_c, 0, 60, 111
1, 62803, Note_off_c, 0, 60, 111
1, 62809, Note_on_c, 0, 64, 118
1, 62829, Note_off_c, 0, 64, 118
1, 62841, Note_on_c, 0, 67, 117
1, 62861, Note_off_c, 0, 67, 117
1, 62862, Note_on_c, 0, 69, 115
1, 62897, Note_off_c, 0, 69, 115
1, 62898, Note_on_c, 0, 74, 106
1, 62928, Note_off_c, 0, 74, 106
1, 62929, Note_on_c, 0, 73, 111
1, 62956, Note_off_c, 0, 73, 111
1, 62957, Note_on_c, 0, 72, 113
1, 62982, Note_off_c, 0, 72, 113
1, 62986, Note_on_c, 0, 71, 110
1, 63000, Note_off_c, 0, 71, 110
1, 63003, Note_on_c, 0, 70, 114
1, 63268, Note_off_c, 0, 70, 114
1, 63278, Note_on_c, 0, 69, 113
1, 63322, Note_off_c, 0, 69, 113
1, 63327, Note_on_c, 0, 68, 117
1, 63372, Note_off_c, 0, 68, 117
1, 63373, Note_on_c, 0, 67, 122
1, 63415, Note_off_c, 0, 67, 122
1, 63417, Note_on_c, 0, 65, 118
1, 63455, Note_off_c, 0, 65, 118
1, 63459, Note_on_c, 0, 64, 116
1, 63501, Note_off_c, 0, 64, 116
1, 63504, Note_on_c, 0, 62, 115
1, 63536, Note_off_c, 0, 62, 115
1, 63541, Note_on_c, 0, 60, 111
1, 63579, Note_off_c, 0, 60, 111
1, 63592, Note_on_c, 0, 57, 111
1, 63645, Note_off_c, 0, 57, 111
1, 63662, Note_on_c, 0, 52, 110
1, 63694, Note_off_c, 0, 52, 110
1, 63698, Note_on_c, 0, 50, 115
1, 63728, Note_off_c, 0, 50, 115
1, 63735, Note_on_c, 0, 48, 118
1, 63775, Note_off_c, 0, 48, 118
1, 63795, Note_on_c, 0, 45, 112
1, 64402, Note_off_c, 0, 45, 112
1, 64741, Note_on_c, 0, 44, 110
1, 65816, Note_off_c, 0, 44, 110
1, 66013, Note_on_c, 0, 57, 101
1, 66162, Note_off_c, 0, 57, 101
1, 66166, Note_on_c, 0, 59, 109
1, 66355, Note_off_c, 0, 59, 109
1, 66387, Note_on_c, 0, 62, 118
1, 66463, Note_off_c, 0, 62, 118
1, 66578, Note_on_c, 0, 64, 114
1, 66662, Note_off_c, 0, 64, 114
1, 66741, Note_on_c, 0, 69, 114
1, 66800, Note_off_c, 0, 69, 114
1, 66907, Note_on_c, 0, 61, 111
1, 66941, Note_off_c, 0, 61, 111
1, 66995, Note_on_c, 0, 67, 115
1, 67056, Note_off_c, 0, 67, 115
1, 67062, Note_on_c, 0, 69, 114
1, 67296, Note_off_c, 0, 69, 114
1, 67305, Note_on_c, 0, 69, 111
1, 67369, Note_off_c, 0, 69, 111
1, 67695, Note_on_c, 0, 67, 117
1, 67752, Note_off_c, 0, 67, 117
1, 67752, Note_on_c, 0, 69, 115
1, 68048, Note_off_c, 0, 69, 115
1, 68062, Note_on_c, 0, 64, 112
1, 68135, Note_off_c, 0, 64, 112
1, 68150, Note_on_c, 0, 69, 118
1, 68228, Note_off_c, 0, 69, 118
1, 68240, Note_on_c, 0, 69, 120
1, 68319, Note_off_c, 0, 69, 120
1, 68326, Note_on_c, 0, 64, 118
1, 68435, Note_off_c, 0, 64, 118
1, 68443, Note_on_c, 0, 69, 100
1, 68579, Note_off_c, 0, 69, 100
1, 68856, Note_on_c, 0, 68, 114
1, 68913, Note_off_c, 0, 68, 114
1, 68916, Note_on_c, 0, 69, 114
1, 69228, Note_off_c, 0, 69, 114
1, 69230, Note_on_c, 0, 64, 108
1, 69278, Note_off_c, 0, 64, 108
1, 69290, Note_on_c, 0, 69, 116
1, 69377, Note_off_c, 0, 69, 116
1, 69397, Note_on_c, 0, 64, 113
1, 69452, Note_off_c, 0, 64, 113
1, 69469, Note_on_c, 0, 69, 97
1, 69630, Note_off_c, 0, 69, 97
1, 69959, Note_on_c, 0, 68, 114
1, 70004, Note_off_c, 0, 68, 114
1, 70005, Note_on_c, 0, 69, 114
1, 70341, Note_off_c, 0, 69, 114
1, 70343, Note_on_c, 0, 64, 111
1, 70404, Note_off_c, 0, 64, 111
1, 70418, Note_on_c, 0, 69, 111
1, 70526, Note_off_c, 0, 69, 111
1, 70533, Note_on_c, 0, 64, 107
1, 70587, Note_off_c, 0, 64, 107
1, 70606, Note_on_c, 0, 69, 91
1, 70770, Note_off_c, 0, 69, 91
1, 71091, Note_on_c, 0, 68, 115
1, 71125, Note_off_c, 0, 68, 115
1, 71128, Note_on_c, 0, 69, 111
1, 72110, Note_off_c, 0, 69, 111
1, 72153, Note_on_c, 0, 63, 116
1, 72182, Note_off_c, 0, 63, 116
1, 72183, Note_on_c, 0, 65, 117
1, 72235, Note_off_c, 0, 65, 117
1, 72241, Note_on_c, 0, 67, 115
1, 72282, Note_off_c, 0, 67, 115
1, 72292, Note_on_c, 0, 69, 97
1, 72313, Note_off_c, 0, 69, 97
1, 72593, Note_on_c, 0, 55, 122
1, 72622, Note_off_c, 0, 55, 122
1, 72624, Note_on_c, 0, 56, 117
1, 72654, Note_off_c, 0, 56, 117
1, 72657, Note_on_c, 0, 57, 118
1, 72717, Note_off_c, 0, 57, 118
1, 72721, Note_on_c, 0, 59, 111
1, 72758, Note_off_c, 0, 59, 111
1, 72765, Note_on_c, 0, 63, 111
1, 72819, Note_off_c, 0, 63, 111
1, 72823, Note_on_c, 0, 67, 110
1, 72854, Note_off_c, 0, 67, 110
1, 72855, Note_on_c, 0, 69, 114
1, 72880, Note_off_c, 0, 69, 114
1, 72891, Note_on_c, 0, 71, 110
1, 72914, Note_off_c, 0, 71, 110
1, 72919, Note_on_c, 0, 73, 110
1, 72943, Note_off_c, 0, 73, 110
1, 72943, Note_on_c, 0, 74, 103
1, 72971, Note_off_c, 0, 74, 103
1, 73218, Note_on_c, 0, 53, 126
1, 73273, Note_off_c, 0, 53, 126
1, 73279, Note_on_c, 0, 55, 120
1, 73325, Note_off_c, 0, 55, 120
1, 73327, Note_on_c, 0, 57, 112
1, 73390, Note_off_c, 0, 57, 112
1, 73395, Note_on_c, 0, 60, 120
1, 73428, Note_off_c, 0, 60, 120
1, 73433, Note_on_c, 0, 63, 116
1, 73469, Note_off_c, 0, 63, 116
1, 73479, Note_on_c, 0, 65, 112
1, 73504, Note_off_c, 0, 65, 112
1, 73505, Note_on_c, 0, 67, 115
1, 73525, Note_off_c, 0, 67, 115
1, 73529, Note_on_c, 0, 69, 117
1, 73566, Note_off_c, 0, 69, 117
1, 73574, Note_on_c, 0, 70, 120
1, 73617, Note_off_c, 0, 70, 120
1, 73621, Note_on_c, 0, 71, 119
1, 73649, Note_off_c, 0, 71, 119
1, 73651, Note_on_c, 0, 74, 105
1, 73680, Note_off_c, 0, 74, 105
1, 73687, Note_on_c, 0, 75, 106
1, 73750, Note_off_c, 0, 75, 106
1, 73963, Note_on_c, 0, 51, 110
1, 74014, Note_off_c, 0, 51, 110
1, 74029, Note_on_c, 0, 55, 104
1, 74067, Note_off_c, 0, 55, 104
1, 74079, Note_on_c, 0, 57, 120
1, 74132, Note_off_c, 0, 57, 120
1, 74139, Note_on_c, 0, 60, 115
1, 74182, Note_off_c, 0, 60, 115
1, 74215, Note_on_c, 0, 67, 112
1, 74251, Note_off_c, 0, 67, 112
1, 74252, Note_on_c, 0, 69, 114
1, 74272, Note_off_c, 0, 69, 114
1, 74274, Note_on_c, 0, 71, 114
1, 74308, Note_off_c, 0, 71, 114
1, 74310, Note_on_c, 0, 75, 112
1, 74343, Note_off_c, 0, 75, 112
1, 74347, Note_on_c, 0, 77, 99
1, 74620, Note_off_c, 0, 77, 99
1, 74848, Note_on_c, 0, 50, 112
1, 74895, Note_off_c, 0, 50, 112
1, 74898, Note_on_c, 0, 58, 120
1, 74970, Note_off_c, 0, 58, 120
1, 74980, Note_on_c, 0, 69, 102
1, 75016, Note_off_c, 0, 69, 102
1, 75020, Note_on_c, 0, 71, 110
1, 75065, Note_off_c, 0, 71, 110
1, 75067, Note_on_c, 0, 75, 106
1, 75116, Note_off_c, 0, 75, 106
1, 75119, Note_on_c, 0, 77, 96
1, 75410, Note_off_c, 0, 77, 96
1, 75419, Note_on_c, 0, 65, 119
1, 75449, Note_off_c, 0, 65, 119
1, 75462, Note_on_c, 0, 61, 116
1, 75494, Note_off_c, 0, 61, 116
1, 75505, Note_on_c, 0, 60, 117
1, 75573, Note_off_c, 0, 60, 117
1, 76052, Note_on_c, 0, 75, 118
1, 76095, Note_off_c, 0, 75, 118
1, 76099, Note_on_c, 0, 76, 109
1, 76594, Note_off_c, 0, 76, 109
1, 76626, Note_on_c, 0, 75, 103
1, 76649, Note_off_c, 0, 75, 103
1, 76649, Note_on_c, 0, 76, 115
1, 77148, Note_off_c, 0, 76, 115
1, 77203, Note_on_c, 0, 75, 111
1, 77226, Note_off_c, 0, 75, 111
1, 77233, Note_on_c, 0, 76, 113
1, 77727, Note_off_c, 0, 76, 113
1, 77789, Note_on_c, 0, 76, 113
1, 78083, Note_off_c, 0, 76, 113
1, 78337, Note_on_c, 0, 76, 108
1, 78413, Note_off_c, 0, 76, 108
1, 78426, Note_on_c, 0, 77, 116
1, 78858, Note_off_c, 0, 77, 116
1, 78917, Note_on_c, 0, 76, 108
1, 78963, Note_off_c, 0, 76, 108
1, 78968, Note_on_c, 0, 77, 104
1, 79587, Note_off_c, 0, 77, 104
1, 79592, Note_on_c, 0, 79, 97
1, 79651, Note_off_c, 0, 79, 97
1, 79658, Note_on_c, 0, 71, 101
1, 79750, Note_off_c, 0, 71, 101
1, 79798, Note_on_c, 0, 77, 96
1, 79842, Note_off_c, 0, 77, 96
1, 79846, Note_on_c, 0, 79, 100
1, 79886, Note_off_c, 0, 79, 100
1, 79891, Note_on_c, 0, 71, 102
1, 79943, Note_off_c, 0, 71, 102
1, 80599, Note_on_c, 0, 76, 109
1, 80663, Note_off_c, 0, 76, 109
1, 80668, Note_on_c, 0, 77, 86
1, 80743, Note_off_c, 0, 77, 86
1, 80748, Note_on_c, 0, 79, 99
1, 80889, Note_off_c, 0, 79, 99
1, 80907, Note_on_c, 0, 79, 102
1, 81322, Note_off_c, 0, 79, 102
1, 81338, Note_on_c, 0, 76, 118
1, 81446, Note_off_c, 0, 76, 118
1, 81537, Note_on_c, 0, 79, 95
1, 81579, Note_off_c, 0, 79, 95
1, 81608, Note_on_c, 0, 71, 97
1, 81690, Note_off_c, 0, 71, 97
1, 81726, Note_on_c, 0, 74, 111
1, 82299, Note_off_c, 0, 74, 111
1, 82307, Note_on_c, 0, 73, 116
1, 82374, Note_off_c, 0, 73, 116
1, 82387, Note_on_c, 0, 74, 116
1, 82436, Note_off_c, 0, 74, 116
1, 82449, Note_on_c, 0, 73, 119
1, 82616, Note_off_c, 0, 73, 119
1, 82629, Note_on_c, 0, 71, 114
1, 82725, Note_off_c, 0, 71, 114
1, 82730, Note_on_c, 0, 72, 113
1, 83007, Note_off_c, 0, 72, 113
1, 83425, Note_on_c, 0, 71, 109
1, 83463, Note_off_c, 0, 71, 109
1, 83466, Note_on_c, 0, 72, 114
1, 83724, Note_off_c, 0, 72, 114
1, 83734, Note_on_c, 0, 71, 108
1, 83869, Note_off_c, 0, 71, 108
1, 83874, Note_on_c, 0, 72, 109
1, 83938, Note_off_c, 0, 72, 109
1, 83948, Note_on_c, 0, 71, 108
1, 84098, Note_off_c, 0, 71, 108
1, 84585, Note_on_c, 0, 69, 104
1, 84651, Note_off_c, 0, 69, 104
1, 84655, Note_on_c, 0, 71, 104
1, 84899, Note_off_c, 0, 71, 104
1, 84907, Note_on_c, 0, 69, 104
1, 84976, Note_off_c, 0, 69, 104
1, 84981, Note_on_c, 0, 71, 103
1, 85092, Note_off_c, 0, 71, 103
1, 85144, Note_on_c, 0, 48, 114
1, 85678, Note_off_c, 0, 48, 114
1, 85693, Note_on_c, 0, 50, 106
1, 85814, Note_off_c, 0, 50, 106
1, 85830, Note_on_c, 0, 50, 107
1, 85903, Note_off_c, 0, 50, 107
1, 86279, Note_on_c, 0, 69, 106
1, 86341, Note_off_c, 0, 69, 106
1, 86347, Note_on_c, 0, 71, 113
1, 86420, Note_off_c, 0, 71, 113
1, 86452, Note_on_c, 0, 71, 114
1, 86523, Note_off_c, 0, 71, 114
1, 86580, Note_on_c, 0, 71, 115
1, 86649, Note_off_c, 0, 71, 115
1, 86699, Note_on_c, 0, 71, 111
1, 86769, Note_off_c, 0, 71, 111
1, 86816, Note_on_c, 0, 71, 111
1, 86880, Note_off_c, 0, 71, 111
1, 86944, Note_on_c, 0, 71, 113
1, 87005, Note_off_c, 0, 71, 113
1, 87046, Note_on_c, 0, 71, 112
1, 87105, Note_off_c, 0, 71, 112
1, 87158, Note_on_c, 0, 71, 109
1, 87197, Note_off_c, 0, 71, 109
1, 87232, Note_on_c, 0, 71, 109
1, 87282, Note_off_c, 0, 71, 109
1, 87299, Note_on_c, 0, 71, 114
1, 87357, Note_off_c, 0, 71, 114
1, 87385, Note_on_c, 0, 71, 114
1, 87430, Note_off_c, 0, 71, 114
1, 87457, Note_on_c, 0, 71, 108
1, 87501, Note_off_c, 0, 71, 108
1, 87528, Note_on_c, 0, 71, 113
1, 87569, Note_off_c, 0, 71, 113
1, 87598, Note_on_c, 0, 71, 112
1, 87648, Note_off_c, 0, 71, 112
1, 87674, Note_on_c, 0, 71, 112
1, 87705, Note_off_c, 0, 71, 112
1, 87748, Note_on_c, 0, 71, 112
1, 87787, Note_off_c, 0, 71, 112
1, 87816, Note_on_c, 0, 71, 114
1, 87858, Note_off_c, 0, 71, 114
1, 87888, Note_on_c, 0, 71, 113
1, 87935, Note_off_c, 0, 71, 113
1, 87967, Note_on_c, 0, 71, 111
1, 88011, Note_off_c, 0, 71, 111
1, 88055, Note_on_c, 0, 71, 119
1, 88111, Note_off_c, 0, 71, 119
1, 88162, Note_on_c, 0, 71, 112
1, 88203, Note_off_c, 0, 71, 112
1, 88231, Note_on_c, 0, 71, 111
1, 88273, Note_off_c, 0, 71, 111
1, 88304, Note_on_c, 0, 71, 106
1, 88345, Note_off_c, 0, 71, 106
1, 88360, Note_on_c, 0, 71, 110
1, 88417, Note_off_c, 0, 71, 110
1, 88432, Note_on_c, 0, 75, 116
1, 88508, Note_off_c, 0, 75, 116
1, 88522, Note_on_c, 0, 69, 107
1, 88901, Note_off_c, 0, 69, 107
1, 89129, Note_on_c, 0, 70, 114
1, 89162, Note_off_c, 0, 70, 114
1, 89164, Note_on_c, 0, 71, 113
1, 89226, Note_off_c, 0, 71, 113
1, 89252, Note_on_c, 0, 71, 106
1, 89294, Note_off_c, 0, 71, 106
1, 89312, Note_on_c, 0, 71, 107
1, 89352, Note_off_c, 0, 71, 107
1, 89372, Note_on_c, 0, 71, 111
1, 89400, Note_off_c, 0, 71, 111
1, 89423, Note_on_c, 0, 71, 110
1, 89469, Note_off_c, 0, 71, 110
1, 89517, Note_on_c, 0, 70, 114
1, 89592, Note_off_c, 0, 70, 114
1, 89597, Note_on_c, 0, 76, 114
1, 89634, Note_off_c, 0, 76, 114
1, 89637, Note_on_c, 0, 77, 96
1, 90177, Note_off_c, 0, 77, 96
1, 90613, Note_on_c, 0, 75, 106
1, 90637, Note_off_c, 0, 75, 106
1, 90643, Note_on_c, 0, 76, 113
1, 90715, Note_off_c, 0, 76, 113
1, 90730, Note_on_c, 0, 45, 115
1, 90914, Note_off_c, 0, 45, 115
1, 91289, Note_on_c, 0, 68, 112
1, 91330, Note_off_c, 0, 68, 112
1, 91333, Note_on_c, 0, 69, 112
1, 91684, Note_off_c, 0, 69, 112
1, 91749, Note_on_c, 0, 68, 117
1, 91835, Note_off_c, 0, 68, 117
1, 91843, Note_on_c, 0, 70, 114
1, 91918, Note_off_c, 0, 70, 114
1, 91923, Note_on_c, 0, 68, 117
1, 92017, Note_off_c, 0, 68, 117
1, 92029, Note_on_c, 0, 65, 124
1, 92112, Note_off_c, 0, 65, 124
1, 92117, Note_on_c, 0, 63, 110
1, 92190, Note_off_c, 0, 63, 110
1, 92221, Note_on_c, 0, 68, 116
1, 92312, Note_off_c, 0, 68, 116
1, 92316, Note_on_c, 0, 65, 118
1, 92400, Note_off_c, 0, 65, 118
1, 92411, Note_on_c, 0, 63, 114
1, 92497, Note_off_c, 0, 63, 114
1, 92501, Note_on_c, 0, 60, 111
1, 92594, Note_off_c, 0, 60, 111
1, 92598, Note_on_c, 0, 58, 109
1, 92681, Note_off_c, 0, 58, 109
1, 92687, Note_on_c, 0, 56, 108
1, 92783, Note_off_c, 0, 56, 108
1, 92971, Note_on_c, 0, 69, 120
1, 93044, Note_off_c, 0, 69, 120
1, 93045, Note_on_c, 0, 67, 118
1, 93136, Note_off_c, 0, 67, 118
1, 93141, Note_on_c, 0, 64, 124
1, 93249, Note_off_c, 0, 64, 124
1, 93251, Note_on_c, 0, 59, 105
1, 93320, Note_off_c, 0, 59, 105
1, 93369, Note_on_c, 0, 55, 109
1, 93411, Note_off_c, 0, 55, 109
1, 93416, Note_on_c, 0, 57, 113
1, 93563, Note_off_c, 0, 57, 113
1, 93990, Note_on_c, 0, 70, 104
1, 94013, Note_off_c, 0, 70, 104
1, 94014, Note_on_c, 0, 71, 114
1, 94252, Note_off_c, 0, 71, 114
1, 94272, Note_on_c, 0, 69, 113
1, 94436, Note_off_c, 0, 69, 113
1, 94445, Note_on_c, 0, 68, 115
1, 94505, Note_off_c, 0, 68, 115
1, 94509, Note_on_c, 0, 69, 111
1, 94685, Note_off_c, 0, 69, 111
1, 94700, Note_on_c, 0, 67, 117
1, 94822, Note_off_c, 0, 67, 117
1, 94882, Note_on_c, 0, 67, 121
1, 94997, Note_off_c, 0, 67, 121
1, 95002, Note_on_c, 0, 64, 112
1, 95075, Note_off_c, 0, 64, 112
1, 95081, Note_on_c, 0, 67, 118
1, 95358, Note_off_c, 0, 67, 118
1, 95371, Note_on_c, 0, 64, 114
1, 95433, Note_off_c, 0, 64, 114
1, 95574, Note_on_c, 0, 64, 116
1, 95841, Note_off_c, 0, 64, 116
1, 95848, Note_on_c, 0, 62, 118
1, 95895, Note_off_c, 0, 62, 118
1, 96045, Note_on_c, 0, 67, 119
1, 96131, Note_off_c, 0, 67, 119
1, 96143, Note_on_c, 0, 62, 117
1, 96183, Note_off_c, 0, 62, 117
1, 96206, Note_on_c, 0, 64, 119
1, 96492, Note_off_c, 0, 64, 119
1, 96500, Note_on_c, 0, 62, 121
1, 96698, Note_off_c, 0, 62, 121
1, 96704, Note_on_c, 0, 61, 113
1, 96753, Note_off_c, 0, 61, 113
1, 96759, Note_on_c, 0, 62, 120
1, 96986, Note_off_c, 0, 62, 120
1, 96988, Note_on_c, 0, 59, 113
1, 97015, Note_off_c, 0, 59, 113
1, 97171, Note_on_c, 0, 59, 112
1, 97294, Note_off_c, 0, 59, 112
1, 97298, Note_on_c, 0, 57, 108
1, 97365, Note_off_c, 0, 57, 108
1, 97369, Note_on_c, 0, 59, 108
1, 97653, Note_off_c, 0, 59, 108
1, 97655, Note_on_c, 0, 57, 109
1, 97716, Note_off_c, 0, 57, 109
1, 97861, Note_on_c, 0, 56, 115
1, 97902, Note_off_c, 0, 56, 115
1, 97905, Note_on_c, 0, 57, 110
1, 98117, Note_off_c, 0, 57, 110
1, 98122, Note_on_c, 0, 55, 112
1, 98285, Note_off_c, 0, 55, 112
1, 98312, Note_on_c, 0, 55, 111
1, 98419, Note_off_c, 0, 55, 111
1, 98425, Note_on_c, 0, 52, 113
1, 98505, Note_off_c, 0, 52, 113
1, 98511, Note_on_c, 0, 50, 105
1, 98787, Note_off_c, 0, 50, 105
1, 98787, End_track
0, 0, End_of_file
