0, 0, Header, 1, 1, 192
1, 0, Start_track
1, 0, Title_t, "Melody"
1, 0, Tempo, 419580
1, 0, Key_signature, -3, "major"
1, 0, Time_signature, 4, 2, 24, 8
1, 2111, Note_on_c, 0, 65, 125
1, 2197, Note_off_c, 0, 65, 125
1, 2197, Note_on_c, 0, 67, 121
1, 2256, Note_off_c, 0, 67, 121
1, 2288, Note_on_c, 0, 67, 120
1, 2357, Note_off_c, 0, 67, 120
1, 2394, Note_on_c, 0, 67, 113
1, 2468, Note_off_c, 0, 67, 113
1, 2504, Note_on_c, 0, 67, 115
1, 2579, Note_off_c, 0, 67, 115
1, 2611, Note_on_c, 0, 67, 115
1, 2688, Note_off_c, 0, 67, 115
1, 2752, Note_on_c, 0, 67, 120
1, 2911, Note_off_c, 0, 67, 120
1, 2945, Note_on_c, 0, 65, 120
1, 3033, Note_off_c, 0, 65, 120
1, 3159, Note_on_c, 0, 65, 117
1, 3295, Note_off_c, 0, 65, 117
1, 4407, Note_on_c, 0, 67, 117
1, 4478, Note_off_c, 0, 67, 117
1, 4537, Note_on_c, 0, 67, 115
1, 4614, Note_off_c, 0, 67, 115
1, 4714, Note_on_c, 0, 69, 122
1, 4783, Note_off_c, 0, 69, 122
1, 4788, Note_on_c, 0, 70, 116
1, 4866, Note_off_c, 0, 70, 116
1, 4871, Note_on_c, 0, 71, 108
1, 4887, Note_off_c, 0, 71, 108
1, 4889, Note_on_c, 0, 72, 113
1, 5018, Note_off_c, 0, 72, 113
1, 5027, Note_on_c, 0, 70, 111
1, 5505, Note_off_c, 0, 70, 111
1, 5508, Note_on_c, 0, 67, 110
1, 5565, Note_off_c, 0, 67, 110
1, 5569, Note_on_c, 0, 65, 115
1, 5620, Note_off_c, 0, 65, 115
1, 5622, Note_on_c, 0, 63, 117
1, 5688, Note_off_c, 0, 63, 117
1, 5691, Note_on_c, 0, 67, 112
1, 5750, Note_off_c, 0, 67, 112
1, 5751, Note_on_c, 0, 65, 111
1, 5802, Note_off_c, 0, 65, 111
1, 5802, Note_on_c, 0, 63, 112
1, 5877, Note_off_c, 0, 63, 112
1, 5879, Note_on_c, 0, 60, 95
1, 6102, Note_off_c, 0, 60, 95
1, 6103, Note_on_c, 0, 58, 93
1, 6153, Note_off_c, 0, 58, 93
1, 6153, Note_on_c, 0, 55, 95
1, 6223, Note_off_c, 0, 55, 95
1, 6223, Note_on_c, 0, 53, 100
1, 6276, Note_off_c, 0, 53, 100
1, 6277, Note_on_c, 0, 51, 97
1, 6337, Note_off_c, 0, 51, 97
1, 6344, Note_on_c, 0, 53, 96
1, 6399, Note_off_c, 0, 53, 96
1, 6414, Note_on_c, 0, 51, 98
1, 6477, Note_off_c, 0, 51, 98
1, 6484, Note_on_c, 0, 48, 90
1, 6569, Note_off_c, 0, 48, 90
1, 7364, Note_on_c, 0, 70, 110
1, 7381, Note_off_c, 0, 70, 110
1, 7382, Note_on_c, 0, 71, 110
1, 7643, Note_off_c, 0, 71, 110
1, 7646, Note_on_c, 0, 74, 108
1, 7734, Note_off_c, 0, 74, 108
1, 7738, Note_on_c, 0, 71, 100
1, 7797, Note_off_c, 0, 71, 100
1, 7861, Note_on_c, 0, 66, 106
1, 7899, Note_off_c, 0, 66, 106
1, 7899, Note_on_c, 0, 67, 113
1, 8017, Note_off_c, 0, 67, 113
1, 8022, Note_on_c, 0, 64, 115
1, 8099, Note_off_c, 0, 64, 115
1, 8107, Note_on_c, 0, 67, 111
1, 8152, Note_off_c, 0, 67, 111
1, 8159, Note_on_c, 0, 69, 115
1, 8383, Note_off_c, 0, 69, 115
1, 8386, Note_on_c, 0, 72, 102
1, 8473, Note_off_c, 0, 72, 102
1, 8473, Note_on_c, 0, 67, 109
1, 8546, Note_off_c, 0, 67, 109
1, 8611, Note_on_c, 0, 65, 111
1, 8712, Note_off_c, 0, 65, 111
1, 8714, Note_on_c, 0, 62, 113
1, 8777, Note_off_c, 0, 62, 113
1, 8785, Note_on_c, 0, 65, 109
1, 8871, Note_off_c, 0, 65, 109
1, 8875, Note_on_c, 0, 63, 116
1, 8978, Note_off_c, 0, 63, 116
1, 9036, Note_on_c, 0, 61, 102
1, 9074, Note_off_c, 0, 61, 102
1, 9077, Note_on_c, 0, 60, 103
1, 9186, Note_off_c, 0, 60, 103
1, 9194, Note_on_c, 0, 58, 89
1, 9278, Note_off_c, 0, 58, 89
1, 10029, Note_on_c, 0, 55, 101
1, 10053, Note_off_c, 0, 55, 101
1, 10055, Note_on_c, 0, 56, 109
1, 10313, Note_off_c, 0, 56, 109
1, 10315, Note_on_c, 0, 55, 97
1, 10418, Note_off_c, 0, 55, 97
1, 10418, Note_on_c, 0, 56, 95
1, 10583, Note_off_c, 0, 56, 95
1, 10588, Note_on_c, 0, 55, 100
1, 10702, Note_off_c, 0, 55, 100
1, 10705, Note_on_c, 0, 53, 95
1, 10781, Note_off_c, 0, 53, 95
1, 10784, Note_on_c, 0, 51, 89
1, 10879, Note_off_c, 0, 51, 89
1, 11777, Note_on_c, 0, 67, 120
1, 11861, Note_off_c, 0, 67, 120
1, 11867, Note_on_c, 0, 72, 107
1, 11943, Note_off_c, 0, 72, 107
1, 11958, Note_on_c, 0, 60, 107
1, 12036, Note_off_c, 0, 60, 107
1, 12084, Note_on_c, 0, 65, 118
1, 12209, Note_off_c, 0, 65, 118
1, 12572, Note_on_c, 0, 67, 108
1, 12656, Note_off_c, 0, 67, 108
1, 12658, Note_on_c, 0, 72, 106
1, 12739, Note_off_c, 0, 72, 106
1, 12855, Note_on_c, 0, 65, 118
1, 12958, Note_off_c, 0, 65, 118
1, 13022, Note_on_c, 0, 67, 118
1, 13130, Note_off_c, 0, 67, 118
1, 13340, Note_on_c, 0, 67, 115
1, 13423, Note_off_c, 0, 67, 115
1, 13425, Note_on_c, 0, 72, 112
1, 13514, Note_off_c, 0, 72, 112
1, 13554, Note_on_c, 0, 62, 95
1, 13593, Note_off_c, 0, 62, 95
1, 13615, Note_on_c, 0, 65, 114
1, 13736, Note_off_c, 0, 65, 114
1, 13788, Note_on_c, 0, 67, 113
1, 13921, Note_off_c, 0, 67, 113
1, 13999, Note_on_c, 0, 68, 116
1, 14124, Note_off_c, 0, 68, 116
1, 14129, Note_on_c, 0, 69, 115
1, 14218, Note_off_c, 0, 69, 115
1, 14233, Note_on_c, 0, 70, 112
1, 14307, Note_off_c, 0, 70, 112
1, 14312, Note_on_c, 0, 71, 112
1, 14389, Note_off_c, 0, 71, 112
1, 14398, Note_on_c, 0, 71, 108
1, 14436, Note_off_c, 0, 71, 108
1, 14439, Note_on_c, 0, 72, 108
1, 14497, Note_off_c, 0, 72, 108
1, 14500, Note_on_c, 0, 73, 105
1, 14579, Note_off_c, 0, 73, 105
1, 14582, Note_on_c, 0, 74, 97
1, 14706, Note_off_c, 0, 74, 97
1, 14871, Note_on_c, 0, 60, 108
1, 14935, Note_off_c, 0, 60, 108
1, 14970, Note_on_c, 0, 65, 110
1, 15052, Note_off_c, 0, 65, 110
1, 15058, Note_on_c, 0, 67, 114
1, 15134, Note_off_c, 0, 67, 114
1, 15138, Note_on_c, 0, 67, 115
1, 15182, Note_off_c, 0, 67, 115
1, 15182, Note_on_c, 0, 68, 114
1, 15242, Note_off_c, 0, 68, 114
1, 15243, Note_on_c, 0, 69, 112
1, 15306, Note_off_c, 0, 69, 112
1, 15540, Note_on_c, 0, 69, 113
1, 15654, Note_off_c, 0, 69, 113
1, 15910, Note_on_c, 0, 69, 113
1, 15983, Note_off_c, 0, 69, 113
1, 15986, Note_on_c, 0, 71, 107
1, 16100, Note_off_c, 0, 71, 107
1, 16108, Note_on_c, 0, 69, 115
1, 16145, Note_off_c, 0, 69, 115
1, 16145, Note_on_c, 0, 70, 113
1, 16233, Note_off_c, 0, 70, 113
1, 16234, Note_on_c, 0, 71, 109
1, 16267, Note_off_c, 0, 71, 109
1, 16269, Note_on_c, 0, 70, 109
1, 16383, Note_off_c, 0, 70, 109
1, 16383, Note_on_c, 0, 67, 110
1, 16465, Note_off_c, 0, 67, 110
1, 16468, Note_on_c, 0, 65, 113
1, 16570, Note_off_c, 0, 65, 113
1, 16572, Note_on_c, 0, 63, 110
1, 16662, Note_off_c, 0, 63, 110
1, 16688, Note_on_c, 0, 67, 114
1, 16773, Note_off_c, 0, 67, 114
1, 16776, Note_on_c, 0, 65, 113
1, 16858, Note_off_c, 0, 65, 113
1, 16860, Note_on_c, 0, 63, 113
1, 16958, Note_off_c, 0, 63, 113
1, 16985, Note_on_c, 0, 67, 100
1, 17017, Note_off_c, 0, 67, 100
1, 17017, Note_on_c, 0, 63, 112
1, 17078, Note_off_c, 0, 63, 112
1, 17088, Note_on_c, 0, 60, 102
1, 17160, Note_off_c, 0, 60, 102
1, 17181, Note_on_c, 0, 58, 103
1, 17234, Note_off_c, 0, 58, 103
1, 17243, Note_on_c, 0, 55, 98
1, 17343, Note_off_c, 0, 55, 98
1, 17358, Note_on_c, 0, 53, 94
1, 17432, Note_off_c, 0, 53, 94
1, 18209, Note_on_c, 0, 74, 109
1, 18266, Note_off_c, 0, 74, 109
1, 18275, Note_on_c, 0, 71, 105
1, 18297, Note_off_c, 0, 71, 105
1, 18311, Note_on_c, 0, 67, 114
1, 18362, Note_off_c, 0, 67, 114
1, 18376, Note_on_c, 0, 64, 123
1, 18463, Note_off_c, 0, 64, 123
1, 18492, Note_on_c, 0, 69, 117
1, 18579, Note_off_c, 0, 69, 117
1, 18587, Note_on_c, 0, 65, 113
1, 18680, Note_off_c, 0, 65, 113
1, 18683, Note_on_c, 0, 62, 106
1, 18762, Note_off_c, 0, 62, 106
1, 18783, Note_on_c, 0, 57, 101
1, 18869, Note_off_c, 0, 57, 101
1, 18873, Note_on_c, 0, 60, 107
1, 18961, Note_off_c, 0, 60, 107
1, 18977, Note_on_c, 0, 63, 113
1, 19073, Note_off_c, 0, 63, 113
1, 19076, Note_on_c, 0, 67, 113
1, 19163, Note_off_c, 0, 67, 113
1, 19180, Note_on_c, 0, 58, 98
1, 19263, Note_off_c, 0, 58, 98
1, 19268, Note_on_c, 0, 61, 114
1, 19348, Note_off_c, 0, 61, 114
1, 19372, Note_on_c, 0, 72, 114
1, 19459, Note_off_c, 0, 72, 114
1, 19467, Note_on_c, 0, 68, 104
1, 19540, Note_off_c, 0, 68, 104
1, 19566, Note_on_c, 0, 72, 104
1, 19696, Note_off_c, 0, 72, 104
1, 19764, Note_on_c, 0, 69, 107
1, 19948, Note_off_c, 0, 69, 107
1, 19949, Note_on_c, 0, 64, 114
1, 20035, Note_off_c, 0, 64, 114
1, 21099, Note_on_c, 0, 69, 116
1, 21151, Note_off_c, 0, 69, 116
1, 21154, Note_on_c, 0, 64, 107
1, 21224, Note_off_c, 0, 64, 107
1, 21234, Note_on_c, 0, 69, 114
1, 21279, Note_off_c, 0, 69, 114
1, 21285, Note_on_c, 0, 64, 112
1, 21358, Note_off_c, 0, 64, 112
1, 21359, Note_on_c, 0, 61, 108
1, 21432, Note_off_c, 0, 61, 108
1, 21442, Note_on_c, 0, 57, 97
1, 21488, Note_off_c, 0, 57, 97
1, 21501, Note_on_c, 0, 52, 97
1, 21587, Note_off_c, 0, 52, 97
1, 21614, Note_on_c, 0, 57, 93
1, 21664, Note_off_c, 0, 57, 93
1, 22764, Note_on_c, 0, 62, 99
1, 22794, Note_off_c, 0, 62, 99
1, 22797, Note_on_c, 0, 63, 106
1, 23125, Note_off_c, 0, 63, 106
1, 23137, Note_on_c, 0, 63, 108
1, 23264, Note_off_c, 0, 63, 108
1, 23279, Note_on_c, 0, 63, 115
1, 23346, Note_off_c, 0, 63, 115
1, 23448, Note_on_c, 0, 63, 117
1, 23873, Note_off_c, 0, 63, 117
1, 23925, Note_on_c, 0, 66, 100
1, 23981, Note_off_c, 0, 66, 100
1, 23986, Note_on_c, 0, 65, 105
1, 24021, Note_off_c, 0, 65, 105
1, 24027, Note_on_c, 0, 63, 112
1, 24084, Note_off_c, 0, 63, 112
1, 24088, Note_on_c, 0, 60, 101
1, 24191, Note_off_c, 0, 60, 101
1, 24269, Note_on_c, 0, 63, 115
1, 24586, Note_off_c, 0, 63, 115
1, 24643, Note_on_c, 0, 63, 117
1, 24783, Note_off_c, 0, 63, 117
1, 24792, Note_on_c, 0, 63, 109
1, 24842, Note_off_c, 0, 63, 109
1, 24956, Note_on_c, 0, 63, 110
1, 25392, Note_off_c, 0, 63, 110
1, 25405, Note_on_c, 0, 63, 116
1, 25498, Note_off_c, 0, 63, 116
1, 25593, Note_on_c, 0, 62, 110
1, 25624, Note_off_c, 0, 62, 110
1, 25626, Note_on_c, 0, 63, 113
1, 25960, Note_off_c, 0, 63, 113
1, 26173, Note_on_c, 0, 62, 113
1, 26195, Note_off_c, 0, 62, 113
1, 26195, Note_on_c, 0, 63, 117
1, 26319, Note_off_c, 0, 63, 117
1, 26320, Note_on_c, 0, 58, 98
1, 26363, Note_off_c, 0, 58, 98
1, 26366, Note_on_c, 0, 61, 111
1, 26393, Note_off_c, 0, 61, 111
1, 26393, Note_on_c, 0, 63, 114
1, 26742, Note_off_c, 0, 63, 114
1, 26749, Note_on_c, 0, 62, 103
1, 26765, Note_off_c, 0, 62, 103
1, 26765, Note_on_c, 0, 63, 116
1, 27070, Note_off_c, 0, 63, 116
1, 27076, Note_on_c, 0, 58, 104
1, 27123, Note_off_c, 0, 58, 104
1, 27128, Note_on_c, 0, 63, 116
1, 27234, Note_off_c, 0, 63, 116
1, 27319, Note_on_c, 0, 56, 113
1, 27361, Note_off_c, 0, 56, 113
1, 27364, Note_on_c, 0, 57, 107
1, 27520, Note_off_c, 0, 57, 107
1, 27541, Note_on_c, 0, 69, 105
1, 27624, Note_off_c, 0, 69, 105
1, 27640, Note_on_c, 0, 68, 114
1, 27670, Note_off_c, 0, 68, 114
1, 27675, Note_on_c, 0, 69, 113
1, 27745, Note_off_c, 0, 69, 113
1, 28884, Note_on_c, 0, 75, 95
1, 28898, Note_off_c, 0, 75, 95
1, 28898, Note_on_c, 0, 76, 112
1, 28933, Note_off_c, 0, 76, 112
1, 29058, Note_on_c, 0, 72, 120
1, 29170, Note_off_c, 0, 72, 120
1, 29244, Note_on_c, 0, 74, 103
1, 29266, Note_off_c, 0, 74, 103
1, 29266, Note_on_c, 0, 75, 120
1, 29368, Note_off_c, 0, 75, 120
1, 29450, Note_on_c, 0, 67, 114
1, 29541, Note_off_c, 0, 67, 114
1, 29548, Note_on_c, 0, 70, 112
1, 29631, Note_off_c, 0, 70, 112
1, 29638, Note_on_c, 0, 72, 117
1, 29733, Note_off_c, 0, 72, 117
1, 29735, Note_on_c, 0, 67, 103
1, 29789, Note_off_c, 0, 67, 103
1, 29832, Note_on_c, 0, 76, 117
1, 29863, Note_off_c, 0, 76, 117
1, 29867, Note_on_c, 0, 77, 100
1, 29943, Note_off_c, 0, 77, 100
1, 30029, Note_on_c, 0, 67, 103
1, 30131, Note_off_c, 0, 67, 103
1, 30144, Note_on_c, 0, 75, 122
1, 30217, Note_off_c, 0, 75, 122
1, 30222, Note_on_c, 0, 72, 107
1, 30324, Note_off_c, 0, 72, 107
1, 30331, Note_on_c, 0, 71, 116
1, 30358, Note_off_c, 0, 71, 116
1, 30359, Note_on_c, 0, 72, 116
1, 30527, Note_off_c, 0, 72, 116
1, 30539, Note_on_c, 0, 67, 105
1, 30572, Note_off_c, 0, 67, 105
1, 30602, Note_on_c, 0, 70, 114
1, 30721, Note_off_c, 0, 70, 114
1, 30788, Note_on_c, 0, 74, 117
1, 30814, Note_off_c, 0, 74, 117
1, 30816, Note_on_c, 0, 75, 121
1, 30909, Note_off_c, 0, 75, 121
1, 30974, Note_on_c, 0, 72, 117
1, 31079, Note_off_c, 0, 72, 117
1, 31083, Note_on_c, 0, 76, 88
1, 31106, Note_off_c, 0, 76, 88
1, 31106, Note_on_c, 0, 77, 116
1, 31146, Note_off_c, 0, 77, 116
1, 31171, Note_on_c, 0, 67, 101
1, 31340, Note_off_c, 0, 67, 101
1, 31356, Note_on_c, 0, 72, 116
1, 31442, Note_off_c, 0, 72, 116
1, 31542, Note_on_c, 0, 67, 110
1, 31620, Note_off_c, 0, 67, 110
1, 31643, Note_on_c, 0, 70, 109
1, 31711, Note_off_c, 0, 70, 109
1, 31787, Note_on_c, 0, 74, 107
1, 31824, Note_off_c, 0, 74, 107
1, 31889, Note_on_c, 0, 72, 104
1, 32064, Note_off_c, 0, 72, 104
1, 32218, Note_on_c, 0, 67, 115
1, 32292, Note_off_c, 0, 67, 115
1, 32328, Note_on_c, 0, 70, 119
1, 32402, Note_off_c, 0, 70, 119
1, 32404, Note_on_c, 0, 67, 113
1, 32453, Note_off_c, 0, 67, 113
1, 32468, Note_on_c, 0, 65, 114
1, 32587, Note_off_c, 0, 65, 114
1, 32589, Note_on_c, 0, 63, 113
1, 32657, Note_off_c, 0, 63, 113
1, 32685, Note_on_c, 0, 67, 117
1, 32765, Note_off_c, 0, 67, 117
1, 32766, Note_on_c, 0, 65, 119
1, 32843, Note_off_c, 0, 65, 119
1, 32850, Note_on_c, 0, 63, 118
1, 32956, Note_off_c, 0, 63, 118
1, 33055, Note_on_c, 0, 65, 120
1, 33140, Note_off_c, 0, 65, 120
1, 33140, Note_on_c, 0, 63, 121
1, 33232, Note_off_c, 0, 63, 121
1, 33235, Note_on_c, 0, 60, 111
1, 33338, Note_off_c, 0, 60, 111
1, 33347, Note_on_c, 0, 58, 105
1, 33439, Note_off_c, 0, 58, 105
1, 33450, Note_on_c, 0, 55, 102
1, 33605, Note_off_c, 0, 55, 102
1, 33609, Note_on_c, 0, 53, 105
1, 33714, Note_off_c, 0, 53, 105
1, 33716, Note_on_c, 0, 51, 106
1, 33787, Note_off_c, 0, 51, 106
1, 33794, Note_on_c, 0, 48, 104
1, 33869, Note_off_c, 0, 48, 104
1, 34769, Note_on_c, 0, 68, 99
1, 34797, Note_on_c, 0, 69, 112
1, 34797, Note_off_c, 0, 68, 99
1, 34959, Note_off_c, 0, 69, 112
1, 34962, Note_on_c, 0, 68, 113
1, 34981, Note_off_c, 0, 68, 113
1, 34983, Note_on_c, 0, 69, 113
1, 35078, Note_off_c, 0, 69, 113
1, 35123, Note_on_c, 0, 74, 107
1, 35205, Note_off_c, 0, 74, 107
1, 35214, Note_on_c, 0, 71, 103
1, 35286, Note_off_c, 0, 71, 103
1, 35329, Note_on_c, 0, 69, 120
1, 35424, Note_off_c, 0, 69, 120
1, 35427, Note_on_c, 0, 65, 120
1, 35501, Note_off_c, 0, 65, 120
1, 35520, Note_on_c, 0, 62, 116
1, 35600, Note_off_c, 0, 62, 116
1, 35629, Note_on_c, 0, 67, 121
1, 35716, Note_off_c, 0, 67, 121
1, 35718, Note_on_c, 0, 65, 118
1, 35806, Note_off_c, 0, 65, 118
1, 35807, Note_on_c, 0, 62, 113
1, 35903, Note_off_c, 0, 62, 113
1, 35910, Note_on_c, 0, 63, 120
1, 35995, Note_off_c, 0, 63, 120
1, 36002, Note_on_c, 0, 63, 115
1, 36094, Note_on_c, 0, 61, 115
1, 36094, Note_off_c, 0, 63, 115
1, 36196, Note_off_c, 0, 61, 115
1, 36196, Note_on_c, 0, 63, 114
1, 36286, Note_off_c, 0, 63, 114
1, 36289, Note_on_c, 0, 60, 113
1, 36387, Note_off_c, 0, 60, 113
1, 36391, Note_on_c, 0, 58, 106
1, 36462, Note_off_c, 0, 58, 106
1, 36516, Note_on_c, 0, 57, 100
1, 36641, Note_off_c, 0, 57, 100
1, 37034, Note_on_c, 0, 45, 110
1, 37159, Note_off_c, 0, 45, 110
1, 37166, Note_on_c, 0, 46, 106
1, 37437, Note_off_c, 0, 46, 106
1, 37447, Note_on_c, 0, 48, 104
1, 37557, Note_off_c, 0, 48, 104
1, 37565, Note_on_c, 0, 49, 106
1, 37643, Note_off_c, 0, 49, 106
1, 37656, Note_on_c, 0, 51, 104
1, 37799, Note_off_c, 0, 51, 104
1, 37815, Note_on_c, 0, 49, 104
1, 37914, Note_off_c, 0, 49, 104
1, 37984, Note_on_c, 0, 48, 100
1, 38180, Note_off_c, 0, 48, 100
1, 38786, Note_on_c, 0, 46, 101
1, 38899, Note_off_c, 0, 46, 101
1, 38901, Note_on_c, 0, 48, 106
1, 38968, Note_off_c, 0, 48, 106
1, 38971, Note_on_c, 0, 49, 104
1, 39073, Note_off_c, 0, 49, 104
1, 39089, Note_on_c, 0, 51, 106
1, 39166, Note_off_c, 0, 51, 106
1, 39180, Note_on_c, 0, 53, 105
1, 39263, Note_off_c, 0, 53, 105
1, 39271, Note_on_c, 0, 55, 105
1, 39346, Note_off_c, 0, 55, 105
1, 39363, Note_on_c, 0, 57, 103
1, 39475, Note_off_c, 0, 57, 103
1, 39544, Note_on_c, 0, 60, 95
1, 39684, Note_off_c, 0, 60, 95
1, 39967, Note_on_c, 0, 60, 93
1, 40043, Note_off_c, 0, 60, 93
1, 40305, Note_on_c, 0, 60, 94
1, 40410, Note_off_c, 0, 60, 94
1, 40628, Note_on_c, 0, 60, 107
1, 40703, Note_off_c, 0, 60, 107
1, 40984, Note_on_c, 0, 60, 111
1, 41053, Note_off_c, 0, 60, 111
1, 41256, Note_on_c, 0, 60, 111
1, 41352, Note_off_c, 0, 60, 111
1, 41634, Note_on_c, 0, 60, 110
1, 41752, Note_off_c, 0, 60, 110
1, 41759, Note_on_c, 0, 60, 101
1, 41815, Note_off_c, 0, 60, 101
1, 42198, Note_on_c, 0, 60, 111
1, 42297, Note_off_c, 0, 60, 111
1, 42398, Note_on_c, 0, 60, 109
1, 42470, Note_off_c, 0, 60, 109
1, 42582, Note_on_c, 0, 60, 106
1, 42670, Note_off_c, 0, 60, 106
1, 42992, Note_on_c, 0, 60, 93
1, 43064, Note_off_c, 0, 60, 93
1, 43071, Note_on_c, 0, 62, 117
1, 43164, Note_off_c, 0, 62, 117
1, 43167, Note_on_c, 0, 63, 119
1, 43276, Note_off_c, 0, 63, 119
1, 43277, Note_on_c, 0, 65, 116
1, 43359, Note_off_c, 0, 65, 116
1, 43374, Note_on_c, 0, 61, 96
1, 43390, Note_off_c, 0, 61, 96
1, 43393, Note_on_c, 0, 60, 105
1, 43418, Note_off_c, 0, 60, 105
1, 43426, Note_on_c, 0, 62, 112
1, 43539, Note_off_c, 0, 62, 112
1, 43544, Note_on_c, 0, 60, 104
1, 43730, Note_off_c, 0, 60, 104
1, 43733, Note_on_c, 0, 58, 95
1, 43905, Note_off_c, 0, 58, 95
1, 43917, Note_on_c, 0, 55, 100
1, 44033, Note_off_c, 0, 55, 100
1, 44041, Note_on_c, 0, 53, 103
1, 44118, Note_off_c, 0, 53, 103
1, 44123, Note_on_c, 0, 51, 103
1, 44235, Note_off_c, 0, 51, 103
1, 44239, Note_on_c, 0, 48, 99
1, 44300, Note_off_c, 0, 48, 99
1, 44305, Note_on_c, 0, 53, 102
1, 44503, Note_off_c, 0, 53, 102
1, 44507, Note_on_c, 0, 51, 98
1, 44594, Note_off_c, 0, 51, 98
1, 45683, Note_on_c, 0, 64, 111
1, 45774, Note_off_c, 0, 64, 111
1, 45778, Note_on_c, 0, 66, 116
1, 45859, Note_off_c, 0, 66, 116
1, 45862, Note_on_c, 0, 67, 119
1, 45950, Note_off_c, 0, 67, 119
1, 45952, Note_on_c, 0, 69, 120
1, 46040, Note_off_c, 0, 69, 120
1, 46045, Note_on_c, 0, 71, 113
1, 46135, Note_off_c, 0, 71, 113
1, 46143, Note_on_c, 0, 62, 105
1, 46220, Note_off_c, 0, 62, 105
1, 46227, Note_on_c, 0, 65, 115
1, 46332, Note_off_c, 0, 65, 115
1, 46333, Note_on_c, 0, 69, 118
1, 46424, Note_off_c, 0, 69, 118
1, 46454, Note_on_c, 0, 67, 95
1, 46473, Note_off_c, 0, 67, 95
1, 46476, Note_on_c, 0, 68, 118
1, 46583, Note_off_c, 0, 68, 118
1, 46595, Note_on_c, 0, 69, 109
1, 46615, Note_off_c, 0, 69, 109
1, 46620, Note_on_c, 0, 67, 115
1, 46723, Note_off_c, 0, 67, 115
1, 46724, Note_on_c, 0, 67, 118
1, 46808, Note_off_c, 0, 67, 118
1, 46814, Note_on_c, 0, 66, 116
1, 46912, Note_off_c, 0, 66, 116
1, 46917, Note_on_c, 0, 65, 117
1, 46988, Note_off_c, 0, 65, 117
1, 46999, Note_on_c, 0, 64, 118
1, 47088, Note_off_c, 0, 64, 118
1, 47089, Note_on_c, 0, 58, 104
1, 47114, Note_off_c, 0, 58, 104
1, 47118, Note_on_c, 0, 62, 113
1, 47211, Note_off_c, 0, 62, 113
1, 47214, Note_on_c, 0, 63, 113
1, 47306, Note_off_c, 0, 63, 113
1, 47311, Note_on_c, 0, 60, 109
1, 47386, Note_off_c, 0, 60, 109
1, 47390, Note_on_c, 0, 55, 99
1, 47411, Note_off_c, 0, 55, 99
1, 47411, Note_on_c, 0, 56, 97
1, 47521, Note_off_c, 0, 56, 97
1, 48234, Note_on_c, 0, 70, 106
1, 48270, Note_off_c, 0, 70, 106
1, 48273, Note_on_c, 0, 72, 105
1, 48673, Note_off_c, 0, 72, 105
1, 48702, Note_on_c, 0, 70, 120
1, 48790, Note_off_c, 0, 70, 120
1, 48792, Note_on_c, 0, 68, 117
1, 48868, Note_off_c, 0, 68, 117
1, 48868, Note_on_c, 0, 67, 119
1, 48971, Note_off_c, 0, 67, 119
1, 48978, Note_on_c, 0, 65, 121
1, 49057, Note_off_c, 0, 65, 121
1, 49064, Note_on_c, 0, 63, 123
1, 49161, Note_off_c, 0, 63, 123
1, 49161, Note_on_c, 0, 60, 114
1, 49242, Note_off_c, 0, 60, 114
1, 50240, Note_on_c, 0, 72, 122
1, 50351, Note_off_c, 0, 72, 122
1, 50357, Note_on_c, 0, 72, 122
1, 50421, Note_off_c, 0, 72, 122
1, 50433, Note_on_c, 0, 75, 121
1, 50523, Note_off_c, 0, 75, 121
1, 50533, Note_on_c, 0, 67, 102
1, 50608, Note_off_c, 0, 67, 102
1, 50621, Note_on_c, 0, 72, 116
1, 50719, Note_off_c, 0, 72, 116
1, 50728, Note_on_c, 0, 72, 114
1, 50797, Note_off_c, 0, 72, 114
1, 50822, Note_on_c, 0, 75, 116
1, 50926, Note_off_c, 0, 75, 116
1, 50936, Note_on_c, 0, 67, 94
1, 51006, Note_off_c, 0, 67, 94
1, 51009, Note_on_c, 0, 72, 111
1, 51099, Note_off_c, 0, 72, 111
1, 51106, Note_on_c, 0, 72, 112
1, 51181, Note_off_c, 0, 72, 112
1, 51197, Note_on_c, 0, 75, 119
1, 51301, Note_off_c, 0, 75, 119
1, 51343, Note_on_c, 0, 67, 99
1, 51375, Note_off_c, 0, 67, 99
1, 51399, Note_on_c, 0, 72, 111
1, 51496, Note_off_c, 0, 72, 111
1, 51501, Note_on_c, 0, 72, 113
1, 51574, Note_off_c, 0, 72, 113
1, 51592, Note_on_c, 0, 75, 112
1, 51671, Note_off_c, 0, 75, 112
1, 51719, Note_on_c, 0, 67, 96
1, 51776, Note_off_c, 0, 67, 96
1, 51777, Note_on_c, 0, 72, 107
1, 51879, Note_off_c, 0, 72, 107
1, 51890, Note_on_c, 0, 67, 99
1, 51952, Note_off_c, 0, 67, 99
1, 51959, Note_on_c, 0, 72, 110
1, 52069, Note_off_c, 0, 72, 110
1, 52070, Note_on_c, 0, 67, 104
1, 52136, Note_off_c, 0, 67, 104
1, 52160, Note_on_c, 0, 72, 112
1, 52262, Note_off_c, 0, 72, 112
1, 52266, Note_on_c, 0, 67, 98
1, 52314, Note_off_c, 0, 67, 98
1, 52344, Note_on_c, 0, 75, 119
1, 52444, Note_off_c, 0, 75, 119
1, 52481, Note_on_c, 0, 67, 107
1, 52658, Note_off_c, 0, 67, 107
1, 52669, Note_on_c, 0, 72, 115
1, 52838, Note_off_c, 0, 72, 115
1, 52853, Note_on_c, 0, 75, 116
1, 53032, Note_off_c, 0, 75, 116
1, 53035, Note_on_c, 0, 72, 99
1, 53058, Note_off_c, 0, 72, 99
1, 53074, Note_on_c, 0, 67, 101
1, 53213, Note_off_c, 0, 67, 101
1, 53220, Note_on_c, 0, 72, 108
1, 53413, Note_off_c, 0, 72, 108
1, 53422, Note_on_c, 0, 75, 110
1, 53502, Note_off_c, 0, 75, 110
1, 53685, Note_on_c, 0, 75, 114
1, 53787, Note_off_c, 0, 75, 114
1, 53858, Note_on_c, 0, 72, 111
1, 54170, Note_off_c, 0, 72, 111
1, 54188, Note_on_c, 0, 75, 116
1, 54261, Note_off_c, 0, 75, 116
1, 54272, Note_on_c, 0, 72, 106
1, 54359, Note_off_c, 0, 72, 106
1, 54375, Note_on_c, 0, 72, 100
1, 54425, Note_off_c, 0, 72, 100
1, 54427, Note_on_c, 0, 75, 9
1, 54638, Note_off_c, 0, 75, 9
1, 54844, Note_on_c, 0, 75, 121
1, 54958, Note_off_c, 0, 75, 121
1, 55027, Note_on_c, 0, 74, 102
1, 55044, Note_off_c, 0, 74, 102
1, 55047, Note_on_c, 0, 75, 119
1, 55151, Note_off_c, 0, 75, 119
1, 55168, Note_on_c, 0, 77, 102
1, 55409, Note_off_c, 0, 77, 102
1, 55420, Note_on_c, 0, 75, 118
1, 55532, Note_off_c, 0, 75, 118
1, 55541, Note_on_c, 0, 72, 106
1, 55645, Note_off_c, 0, 72, 106
1, 56245, Note_on_c, 0, 73, 101
1, 56289, Note_off_c, 0, 73, 101
1, 56292, Note_on_c, 0, 77, 95
1, 56315, Note_off_c, 0, 77, 95
1, 56360, Note_on_c, 0, 78, 104
1, 56387, Note_off_c, 0, 78, 104
1, 56387, Note_on_c, 0, 77, 101
1, 56408, Note_off_c, 0, 77, 101
1, 56412, Note_on_c, 0, 78, 107
1, 56532, Note_off_c, 0, 78, 107
1, 56544, Note_on_c, 0, 75, 108
1, 56601, Note_off_c, 0, 75, 108
1, 56601, Note_on_c, 0, 77, 91
1, 56622, Note_off_c, 0, 77, 91
1, 56641, Note_on_c, 0, 74, 104
1, 56714, Note_off_c, 0, 74, 104
1, 56717, Note_on_c, 0, 73, 103
1, 56824, Note_off_c, 0, 73, 103
1, 56899, Note_on_c, 0, 73, 112
1, 56929, Note_off_c, 0, 73, 112
1, 56931, Note_on_c, 0, 75, 118
1, 57102, Note_off_c, 0, 75, 118
1, 57110, Note_on_c, 0, 73, 112
1, 57203, Note_off_c, 0, 73, 112
1, 57204, Note_on_c, 0, 72, 117
1, 57294, Note_off_c, 0, 72, 117
1, 57305, Note_on_c, 0, 71, 114
1, 57395, Note_off_c, 0, 71, 114
1, 57397, Note_on_c, 0, 70, 116
1, 57499, Note_off_c, 0, 70, 116
1, 57516, Note_on_c, 0, 69, 120
1, 57561, Note_off_c, 0, 69, 120
1, 57563, Note_on_c, 0, 68, 117
1, 57592, Note_off_c, 0, 68, 117
1, 57609, Note_on_c, 0, 67, 118
1, 57699, Note_off_c, 0, 67, 118
1, 57720, Note_on_c, 0, 67, 116
1, 57801, Note_off_c, 0, 67, 116
1, 57813, Note_on_c, 0, 65, 112
1, 57913, Note_off_c, 0, 65, 112
1, 57936, Note_on_c, 0, 65, 111
1, 58032, Note_off_c, 0, 65, 111
1, 58853, Note_on_c, 0, 65, 123
1, 58944, Note_off_c, 0, 65, 123
1, 58951, Note_on_c, 0, 64, 127
1, 59030, Note_off_c, 0, 64, 127
1, 59055, Note_on_c, 0, 63, 123
1, 59129, Note_off_c, 0, 63, 123
1, 59134, Note_on_c, 0, 62, 121
1, 59216, Note_off_c, 0, 62, 121
1, 59221, Note_on_c, 0, 61, 119
1, 59326, Note_off_c, 0, 61, 119
1, 59327, Note_on_c, 0, 59, 115
1, 59437, Note_off_c, 0, 59, 115
1, 59474, Note_on_c, 0, 58, 105
1, 59575, Note_off_c, 0, 58, 105
1, 59637, Note_on_c, 0, 58, 99
1, 59726, Note_off_c, 0, 58, 99
1, 59747, Note_on_c, 0, 57, 100
1, 59851, Note_off_c, 0, 57, 100
1, 59915, Note_on_c, 0, 56, 106
1, 59967, Note_off_c, 0, 56, 106
1, 60001, Note_on_c, 0, 55, 104
1, 60072, Note_off_c, 0, 55, 104
1, 61044, Note_on_c, 0, 63, 107
1, 61103, Note_off_c, 0, 63, 107
1, 61328, Note_on_c, 0, 63, 109
1, 61532, Note_off_c, 0, 63, 109
1, 62004, Note_on_c, 0, 63, 115
1, 62256, Note_off_c, 0, 63, 115
1, 62266, Note_on_c, 0, 63, 117
1, 62342, Note_off_c, 0, 63, 117
1, 62662, Note_on_c, 0, 63, 102
1, 62717, Note_off_c, 0, 63, 102
1, 62845, Note_on_c, 0, 63, 101
1, 63040, Note_off_c, 0, 63, 101
1, 63561, Note_on_c, 0, 62, 109
1, 63588, Note_off_c, 0, 62, 109
1, 63590, Note_on_c, 0, 63, 112
1, 63773, Note_off_c, 0, 63, 112
1, 63826, Note_on_c, 0, 73, 118
1, 63865, Note_off_c, 0, 73, 118
1, 63868, Note_on_c, 0, 75, 112
1, 64412, Note_off_c, 0, 75, 112
1, 64447, Note_on_c, 0, 72, 114
1, 64498, Note_off_c, 0, 72, 114
1, 64501, Note_on_c, 0, 73, 113
1, 64524, Note_on_c, 0, 72, 108
1, 64524, Note_off_c, 0, 73, 113
1, 64566, Note_off_c, 0, 72, 108
1, 64566, Note_on_c, 0, 71, 119
1, 64601, Note_off_c, 0, 71, 119
1, 64602, Note_on_c, 0, 70, 120
1, 64714, Note_off_c, 0, 70, 120
1, 64730, Note_on_c, 0, 68, 114
1, 64809, Note_off_c, 0, 68, 114
1, 64824, Note_on_c, 0, 66, 109
1, 64903, Note_off_c, 0, 66, 109
1, 64908, Note_on_c, 0, 63, 113
1, 64986, Note_off_c, 0, 63, 113
1, 64999, Note_on_c, 0, 61, 103
1, 65082, Note_off_c, 0, 61, 103
1, 65106, Note_on_c, 0, 58, 100
1, 65172, Note_off_c, 0, 58, 100
1, 65188, Note_on_c, 0, 56, 96
1, 65365, Note_off_c, 0, 56, 96
1, 65376, Note_on_c, 0, 54, 104
1, 65417, Note_off_c, 0, 54, 104
1, 65551, Note_on_c, 0, 57, 107
1, 65698, Note_off_c, 0, 57, 107
1, 65853, Note_on_c, 0, 45, 110
1, 65986, Note_off_c, 0, 45, 110
1, 66424, Note_on_c, 0, 49, 105
1, 66508, Note_off_c, 0, 49, 105
1, 66514, Note_on_c, 0, 53, 101
1, 66622, Note_off_c, 0, 53, 101
1, 66623, Note_on_c, 0, 56, 106
1, 66698, Note_off_c, 0, 56, 106
1, 66716, Note_on_c, 0, 61, 113
1, 66814, Note_off_c, 0, 61, 113
1, 66815, Note_on_c, 0, 65, 112
1, 66883, Note_off_c, 0, 65, 112
1, 66899, Note_on_c, 0, 68, 113
1, 66997, Note_off_c, 0, 68, 113
1, 67003, Note_on_c, 0, 65, 88
1, 67061, Note_off_c, 0, 65, 88
1, 67072, Note_on_c, 0, 67, 112
1, 69165, Note_off_c, 0, 67, 112
1, 69667, Note_on_c, 0, 65, 113
1, 69721, Note_off_c, 0, 65, 113
1, 69728, Note_on_c, 0, 67, 115
1, 70071, Note_off_c, 0, 67, 115
1, 70110, Note_on_c, 0, 67, 116
1, 70227, Note_off_c, 0, 67, 116
1, 70237, Note_on_c, 0, 67, 114
1, 70283, Note_off_c, 0, 67, 114
1, 70303, Note_on_c, 0, 67, 116
1, 70409, Note_off_c, 0, 67, 116
1, 70430, Note_on_c, 0, 67, 108
1, 70476, Note_off_c, 0, 67, 108
1, 70491, Note_on_c, 0, 66, 115
1, 70537, Note_off_c, 0, 66, 115
1, 70548, Note_on_c, 0, 67, 110
1, 70605, Note_off_c, 0, 67, 110
1, 70612, Note_on_c, 0, 67, 111
1, 70655, Note_off_c, 0, 67, 111
1, 70669, Note_on_c, 0, 67, 117
1, 70790, Note_off_c, 0, 67, 117
1, 70812, Note_on_c, 0, 67, 100
1, 70847, Note_off_c, 0, 67, 100
1, 70865, Note_on_c, 0, 67, 115
1, 70965, Note_off_c, 0, 67, 115
1, 70993, Note_on_c, 0, 67, 107
1, 71024, Note_off_c, 0, 67, 107
1, 71041, Note_on_c, 0, 67, 112
1, 71167, Note_off_c, 0, 67, 112
1, 71172, Note_on_c, 0, 67, 100
1, 71210, Note_off_c, 0, 67, 100
1, 71228, Note_on_c, 0, 67, 106
1, 71351, Note_off_c, 0, 67, 106
1, 71362, Note_on_c, 0, 67, 108
1, 71447, Note_off_c, 0, 67, 108
1, 71465, Note_on_c, 0, 67, 108
1, 71547, Note_off_c, 0, 67, 108
1, 71572, Note_on_c, 0, 65, 100
1, 71617, Note_off_c, 0, 65, 100
1, 71617, Note_on_c, 0, 67, 112
1, 71737, Note_off_c, 0, 67, 112
1, 71742, Note_on_c, 0, 65, 107
1, 71791, Note_off_c, 0, 65, 107
1, 71795, Note_on_c, 0, 63, 111
1, 71907, Note_off_c, 0, 63, 111
1, 71919, Note_on_c, 0, 65, 105
1, 71994, Note_off_c, 0, 65, 105
1, 72006, Note_on_c, 0, 60, 101
1, 72094, Note_off_c, 0, 60, 101
1, 73049, Note_on_c, 0, 67, 121
1, 73095, Note_off_c, 0, 67, 121
1, 73098, Note_on_c, 0, 69, 113
1, 73345, Note_off_c, 0, 69, 113
1, 73353, Note_on_c, 0, 71, 115
1, 73445, Note_off_c, 0, 71, 115
1, 73452, Note_on_c, 0, 69, 111
1, 73519, Note_off_c, 0, 69, 111
1, 73595, Note_on_c, 0, 67, 108
1, 73730, Note_off_c, 0, 67, 108
1, 73743, Note_on_c, 0, 65, 108
1, 73839, Note_off_c, 0, 65, 108
1, 73858, Note_on_c, 0, 65, 114
1, 73908, Note_off_c, 0, 65, 114
1, 73910, Note_on_c, 0, 67, 112
1, 74203, Note_off_c, 0, 67, 112
1, 74205, Note_on_c, 0, 69, 115
1, 74251, Note_off_c, 0, 69, 115
1, 74257, Note_on_c, 0, 67, 111
1, 74310, Note_off_c, 0, 67, 111
1, 74353, Note_on_c, 0, 65, 112
1, 74506, Note_off_c, 0, 65, 112
1, 74509, Note_on_c, 0, 63, 109
1, 74614, Note_off_c, 0, 63, 109
1, 74624, Note_on_c, 0, 65, 113
1, 74780, Note_off_c, 0, 65, 113
1, 75167, Note_on_c, 0, 63, 109
1, 75258, Note_off_c, 0, 63, 109
1, 75266, Note_on_c, 0, 65, 114
1, 75346, Note_off_c, 0, 65, 114
1, 75700, Note_on_c, 0, 63, 117
1, 75778, Note_off_c, 0, 63, 117
1, 75805, Note_on_c, 0, 65, 120
1, 75882, Note_off_c, 0, 65, 120
1, 76281, Note_on_c, 0, 63, 107
1, 76357, Note_off_c, 0, 63, 107
1, 76386, Note_on_c, 0, 65, 114
1, 76464, Note_off_c, 0, 65, 114
1, 76658, Note_on_c, 0, 75, 117
1, 76723, Note_off_c, 0, 75, 117
1, 76756, Note_on_c, 0, 72, 111
1, 76811, Note_off_c, 0, 72, 111
1, 76813, Note_on_c, 0, 76, 113
1, 76866, Note_off_c, 0, 76, 113
1, 76870, Note_on_c, 0, 77, 103
1, 77295, Note_off_c, 0, 77, 103
1, 77304, Note_on_c, 0, 75, 115
1, 77412, Note_off_c, 0, 75, 115
1, 77422, Note_on_c, 0, 72, 110
1, 77539, Note_off_c, 0, 72, 110
1, 77549, Note_on_c, 0, 70, 103
1, 77625, Note_off_c, 0, 70, 103
1, 77636, Note_on_c, 0, 67, 105
1, 77664, Note_off_c, 0, 67, 105
1, 77740, Note_on_c, 0, 65, 105
1, 77873, Note_off_c, 0, 65, 105
1, 77890, Note_on_c, 0, 63, 96
1, 77977, Note_off_c, 0, 63, 96
1, 77992, Note_on_c, 0, 60, 97
1, 78047, Note_off_c, 0, 60, 97
1, 78231, Note_on_c, 0, 60, 97
1, 78316, Note_off_c, 0, 60, 97
1, 78316, End_track
0, 0, End_of_file
