0, 0, Header, 1, 1, 192
1, 0, Start_track
1, 0, Title_t, "Melody"
1, 0, Tempo, 211267
1, 0, Key_signature, -1, "major"
1, 0, Time_signature, 4, 2, 24, 8
1, 7077, Note_on_c, 0, 56, 99
1, 7149, Note_off_c, 0, 56, 99
1, 7170, Note_on_c, 0, 58, 100
1, 7259, Note_off_c, 0, 58, 100
1, 7271, Note_on_c, 0, 59, 106
1, 7363, Note_off_c, 0, 59, 106
1, 7381, Note_on_c, 0, 61, 107
1, 7438, Note_off_c, 0, 61, 107
1, 7457, Note_on_c, 0, 63, 119
1, 7524, Note_off_c, 0, 63, 119
1, 7543, Note_on_c, 0, 64, 127
1, 7660, Note_off_c, 0, 64, 127
1, 7673, Note_on_c, 0, 66, 113
1, 7750, Note_off_c, 0, 66, 113
1, 7764, Note_on_c, 0, 68, 118
1, 7858, Note_off_c, 0, 68, 118
1, 7875, Note_on_c, 0, 70, 117
1, 7991, Note_off_c, 0, 70, 117
1, 8018, Note_on_c, 0, 71, 105
1, 8318, Note_off_c, 0, 71, 105
1, 9413, Note_on_c, 0, 69, 115
1, 9542, Note_off_c, 0, 69, 115
1, 9567, Note_on_c, 0, 68, 114
1, 9621, Note_off_c, 0, 68, 114
1, 9640, Note_on_c, 0, 67, 113
1, 9733, Note_off_c, 0, 67, 113
1, 9746, Note_on_c, 0, 66, 112
1, 9827, Note_off_c, 0, 66, 112
1, 9838, Note_on_c, 0, 64, 117
1, 9925, Note_off_c, 0, 64, 117
1, 9940, Note_on_c, 0, 62, 116
1, 10024, Note_off_c, 0, 62, 116
1, 10037, Note_on_c, 0, 60, 106
1, 10117, Note_off_c, 0, 60, 106
1, 10130, Note_on_c, 0, 58, 103
1, 10200, Note_off_c, 0, 58, 103
1, 10230, Note_on_c, 0, 56, 89
1, 10458, Note_off_c, 0, 56, 89
1, 10478, Note_on_c, 0, 58, 96
1, 10525, Note_off_c, 0, 58, 96
1, 10538, Note_on_c, 0, 61, 103
1, 10580, Note_off_c, 0, 61, 103
1, 10593, Note_on_c, 0, 62, 111
1, 10841, Note_off_c, 0, 62, 111
1, 10862, Note_on_c, 0, 60, 96
1, 10910, Note_off_c, 0, 60, 96
1, 10916, Note_on_c, 0, 62, 111
1, 11060, Note_off_c, 0, 62, 111
1, 11068, Note_on_c, 0, 60, 105
1, 11133, Note_off_c, 0, 60, 105
1, 11156, Note_on_c, 0, 58, 99
1, 11230, Note_off_c, 0, 58, 99
1, 11257, Note_on_c, 0, 55, 92
1, 11303, Note_off_c, 0, 55, 92
1, 11325, Note_on_c, 0, 57, 100
1, 11426, Note_off_c, 0, 57, 100
1, 11439, Note_on_c, 0, 60, 98
1, 11485, Note_off_c, 0, 60, 98
1, 11495, Note_on_c, 0, 62, 107
1, 11587, Note_off_c, 0, 62, 107
1, 11594, Note_on_c, 0, 63, 96
1, 11657, Note_off_c, 0, 63, 96
1, 11677, Note_on_c, 0, 67, 110
1, 11768, Note_off_c, 0, 67, 110
1, 11779, Note_on_c, 0, 65, 113
1, 11870, Note_off_c, 0, 65, 113
1, 11888, Note_on_c, 0, 62, 102
1, 11956, Note_off_c, 0, 62, 102
1, 12002, Note_on_c, 0, 58, 95
1, 12042, Note_off_c, 0, 58, 95
1, 12075, Note_on_c, 0, 63, 107
1, 12152, Note_off_c, 0, 63, 107
1, 12182, Note_on_c, 0, 60, 98
1, 12238, Note_off_c, 0, 60, 98
1, 12252, Note_on_c, 0, 56, 98
1, 12331, Note_off_c, 0, 56, 98
1, 12352, Note_on_c, 0, 55, 94
1, 12414, Note_off_c, 0, 55, 94
1, 12433, Note_on_c, 0, 58, 100
1, 12529, Note_off_c, 0, 58, 100
1, 12542, Note_on_c, 0, 56, 100
1, 12654, Note_off_c, 0, 56, 100
1, 13157, Note_on_c, 0, 56, 100
1, 13372, Note_off_c, 0, 56, 100
1, 13736, Note_on_c, 0, 57, 102
1, 13937, Note_off_c, 0, 57, 102
1, 14293, Note_on_c, 0, 58, 107
1, 14457, Note_off_c, 0, 58, 107
1, 14766, Note_on_c, 0, 59, 109
1, 14884, Note_off_c, 0, 59, 109
1, 14933, Note_on_c, 0, 62, 112
1, 15056, Note_off_c, 0, 62, 112
1, 15058, Note_on_c, 0, 59, 103
1, 15132, Note_off_c, 0, 59, 103
1, 15147, Note_on_c, 0, 60, 105
1, 15219, Note_off_c, 0, 60, 105
1, 15227, Note_on_c, 0, 62, 117
1, 15335, Note_off_c, 0, 62, 117
1, 15344, Note_on_c, 0, 63, 114
1, 15432, Note_off_c, 0, 63, 114
1, 15439, Note_on_c, 0, 65, 100
1, 15484, Note_off_c, 0, 65, 100
1, 15487, Note_on_c, 0, 67, 111
1, 15572, Note_off_c, 0, 67, 111
1, 15596, Note_on_c, 0, 64, 101
1, 15672, Note_off_c, 0, 64, 101
1, 15695, Note_on_c, 0, 66, 112
1, 15794, Note_off_c, 0, 66, 112
1, 15814, Note_on_c, 0, 64, 111
1, 15875, Note_off_c, 0, 64, 111
1, 15896, Note_on_c, 0, 65, 114
1, 15985, Note_off_c, 0, 65, 114
1, 15994, Note_on_c, 0, 64, 111
1, 16078, Note_off_c, 0, 64, 111
1, 16092, Note_on_c, 0, 63, 105
1, 16186, Note_off_c, 0, 63, 105
1, 16241, Note_on_c, 0, 61, 94
1, 16300, Note_off_c, 0, 61, 94
1, 16311, Note_on_c, 0, 64, 104
1, 16388, Note_off_c, 0, 64, 104
1, 16403, Note_on_c, 0, 61, 96
1, 16488, Note_off_c, 0, 61, 96
1, 16500, Note_on_c, 0, 62, 103
1, 16586, Note_off_c, 0, 62, 103
1, 16595, Note_on_c, 0, 64, 106
1, 16670, Note_off_c, 0, 64, 106
1, 16678, Note_on_c, 0, 65, 105
1, 16772, Note_off_c, 0, 65, 105
1, 16799, Note_on_c, 0, 67, 101
1, 16869, Note_off_c, 0, 67, 101
1, 16882, Note_on_c, 0, 69, 112
1, 16966, Note_off_c, 0, 69, 112
1, 16980, Note_on_c, 0, 65, 106
1, 17059, Note_off_c, 0, 65, 106
1, 17067, Note_on_c, 0, 67, 105
1, 17156, Note_off_c, 0, 67, 105
1, 17168, Note_on_c, 0, 65, 110
1, 17235, Note_off_c, 0, 65, 110
1, 17249, Note_on_c, 0, 62, 110
1, 17346, Note_off_c, 0, 62, 110
1, 17364, Note_on_c, 0, 58, 107
1, 17422, Note_off_c, 0, 58, 107
1, 17448, Note_on_c, 0, 57, 89
1, 17830, Note_off_c, 0, 57, 89
1, 17836, Note_on_c, 0, 55, 91
1, 17896, Note_off_c, 0, 55, 91
1, 17917, Note_on_c, 0, 58, 97
1, 17990, Note_off_c, 0, 58, 97
1, 18132, Note_on_c, 0, 57, 99
1, 18381, Note_off_c, 0, 57, 99
1, 18388, Note_on_c, 0, 56, 96
1, 18549, Note_off_c, 0, 56, 96
1, 19344, Note_on_c, 0, 56, 114
1, 19415, Note_off_c, 0, 56, 114
1, 19423, Note_on_c, 0, 55, 104
1, 19497, Note_off_c, 0, 55, 104
1, 19506, Note_on_c, 0, 54, 107
1, 19583, Note_off_c, 0, 54, 107
1, 19629, Note_on_c, 0, 56, 107
1, 19692, Note_off_c, 0, 56, 107
1, 19707, Note_on_c, 0, 52, 110
1, 19796, Note_off_c, 0, 52, 110
1, 19809, Note_on_c, 0, 54, 104
1, 19888, Note_off_c, 0, 54, 104
1, 19913, Note_on_c, 0, 56, 105
1, 20013, Note_off_c, 0, 56, 105
1, 20040, Note_on_c, 0, 58, 94
1, 20084, Note_off_c, 0, 58, 94
1, 20125, Note_on_c, 0, 63, 115
1, 20202, Note_off_c, 0, 63, 115
1, 20215, Note_on_c, 0, 61, 104
1, 20286, Note_off_c, 0, 61, 104
1, 20293, Note_on_c, 0, 58, 99
1, 20394, Note_off_c, 0, 58, 99
1, 20411, Note_on_c, 0, 54, 96
1, 20459, Note_off_c, 0, 54, 96
1, 20474, Note_on_c, 0, 57, 101
1, 20578, Note_off_c, 0, 57, 101
1, 20611, Note_on_c, 0, 53, 88
1, 20674, Note_off_c, 0, 53, 88
1, 20687, Note_on_c, 0, 55, 110
1, 20763, Note_off_c, 0, 55, 110
1, 20786, Note_on_c, 0, 57, 101
1, 20850, Note_off_c, 0, 57, 101
1, 20886, Note_on_c, 0, 58, 96
1, 20959, Note_off_c, 0, 58, 96
1, 20980, Note_on_c, 0, 60, 100
1, 21039, Note_off_c, 0, 60, 100
1, 21047, Note_on_c, 0, 62, 107
1, 21119, Note_off_c, 0, 62, 107
1, 21141, Note_on_c, 0, 64, 90
1, 21232, Note_off_c, 0, 64, 90
1, 21250, Note_on_c, 0, 67, 108
1, 21340, Note_off_c, 0, 67, 108
1, 21365, Note_on_c, 0, 65, 108
1, 21439, Note_off_c, 0, 65, 108
1, 21448, Note_on_c, 0, 64, 103
1, 21535, Note_off_c, 0, 64, 103
1, 21571, Note_on_c, 0, 65, 96
1, 21630, Note_off_c, 0, 65, 96
1, 21642, Note_on_c, 0, 69, 113
1, 21718, Note_off_c, 0, 69, 113
1, 21742, Note_on_c, 0, 67, 99
1, 21809, Note_off_c, 0, 67, 99
1, 21836, Note_on_c, 0, 64, 102
1, 21928, Note_off_c, 0, 64, 102
1, 21941, Note_on_c, 0, 69, 110
1, 22028, Note_off_c, 0, 69, 110
1, 22065, Note_on_c, 0, 63, 113
1, 22113, Note_off_c, 0, 63, 113
1, 22116, Note_on_c, 0, 64, 107
1, 22209, Note_off_c, 0, 64, 107
1, 22344, Note_on_c, 0, 67, 83
1, 22386, Note_off_c, 0, 67, 83
1, 22409, Note_on_c, 0, 71, 104
1, 22502, Note_off_c, 0, 71, 104
1, 22511, Note_on_c, 0, 76, 105
1, 22584, Note_off_c, 0, 76, 105
1, 22587, Note_on_c, 0, 71, 112
1, 22711, Note_off_c, 0, 71, 112
1, 22726, Note_on_c, 0, 70, 109
1, 22798, Note_off_c, 0, 70, 109
1, 22811, Note_on_c, 0, 69, 113
1, 22888, Note_off_c, 0, 69, 113
1, 22904, Note_on_c, 0, 68, 114
1, 22987, Note_off_c, 0, 68, 114
1, 23017, Note_on_c, 0, 67, 110
1, 23085, Note_off_c, 0, 67, 110
1, 23106, Note_on_c, 0, 66, 110
1, 23170, Note_off_c, 0, 66, 110
1, 23181, Note_on_c, 0, 65, 109
1, 23265, Note_off_c, 0, 65, 109
1, 23285, Note_on_c, 0, 64, 121
1, 23358, Note_off_c, 0, 64, 121
1, 23366, Note_on_c, 0, 63, 112
1, 23489, Note_off_c, 0, 63, 112
1, 23496, Note_on_c, 0, 67, 109
1, 23555, Note_off_c, 0, 67, 109
1, 23571, Note_on_c, 0, 65, 110
1, 23642, Note_off_c, 0, 65, 110
1, 23655, Note_on_c, 0, 62, 114
1, 23738, Note_off_c, 0, 62, 114
1, 23753, Note_on_c, 0, 58, 102
1, 23871, Note_off_c, 0, 58, 102
1, 23883, Note_on_c, 0, 55, 92
1, 23946, Note_off_c, 0, 55, 92
1, 23949, Note_on_c, 0, 63, 108
1, 24036, Note_off_c, 0, 63, 108
1, 24047, Note_on_c, 0, 60, 102
1, 24111, Note_off_c, 0, 60, 102
1, 24122, Note_on_c, 0, 56, 102
1, 24257, Note_off_c, 0, 56, 102
1, 24271, Note_on_c, 0, 53, 98
1, 24321, Note_off_c, 0, 53, 98
1, 24325, Note_on_c, 0, 58, 101
1, 24417, Note_off_c, 0, 58, 101
1, 24428, Note_on_c, 0, 55, 92
1, 24471, Note_off_c, 0, 55, 92
1, 24504, Note_on_c, 0, 56, 104
1, 24584, Note_off_c, 0, 56, 104
1, 24613, Note_on_c, 0, 58, 100
1, 24672, Note_off_c, 0, 58, 100
1, 24684, Note_on_c, 0, 55, 106
1, 24753, Note_off_c, 0, 55, 106
1, 24772, Note_on_c, 0, 53, 101
1, 24850, Note_off_c, 0, 53, 101
1, 24857, Note_on_c, 0, 51, 98
1, 24935, Note_off_c, 0, 51, 98
1, 25450, Note_on_c, 0, 67, 113
1, 25557, Note_off_c, 0, 67, 113
1, 25564, Note_on_c, 0, 66, 109
1, 25624, Note_off_c, 0, 66, 109
1, 25635, Note_on_c, 0, 65, 112
1, 25689, Note_off_c, 0, 65, 112
1, 25991, Note_on_c, 0, 68, 115
1, 26084, Note_off_c, 0, 68, 115
1, 26103, Note_on_c, 0, 67, 109
1, 26180, Note_off_c, 0, 67, 109
1, 26193, Note_on_c, 0, 66, 108
1, 26251, Note_off_c, 0, 66, 108
1, 26396, Note_on_c, 0, 71, 111
1, 26481, Note_off_c, 0, 71, 111
1, 26494, Note_on_c, 0, 70, 111
1, 26577, Note_off_c, 0, 70, 111
1, 26585, Note_on_c, 0, 69, 109
1, 26666, Note_off_c, 0, 69, 109
1, 26677, Note_on_c, 0, 68, 110
1, 26771, Note_off_c, 0, 68, 110
1, 26784, Note_on_c, 0, 67, 105
1, 26862, Note_off_c, 0, 67, 105
1, 26872, Note_on_c, 0, 66, 107
1, 26938, Note_off_c, 0, 66, 107
1, 26954, Note_on_c, 0, 65, 109
1, 27031, Note_off_c, 0, 65, 109
1, 27042, Note_on_c, 0, 64, 115
1, 27113, Note_off_c, 0, 64, 115
1, 27127, Note_on_c, 0, 63, 111
1, 27208, Note_off_c, 0, 63, 111
1, 27224, Note_on_c, 0, 62, 109
1, 27306, Note_off_c, 0, 62, 109
1, 27321, Note_on_c, 0, 61, 99
1, 27392, Note_off_c, 0, 61, 99
1, 27410, Note_on_c, 0, 63, 106
1, 27514, Note_off_c, 0, 63, 106
1, 27523, Note_on_c, 0, 62, 100
1, 27599, Note_off_c, 0, 62, 100
1, 27648, Note_on_c, 0, 58, 99
1, 27711, Note_off_c, 0, 58, 99
1, 27717, Note_on_c, 0, 57, 101
1, 27803, Note_off_c, 0, 57, 101
1, 27832, Note_on_c, 0, 55, 96
1, 27896, Note_off_c, 0, 55, 96
1, 27930, Note_on_c, 0, 60, 107
1, 28006, Note_off_c, 0, 60, 107
1, 28011, Note_on_c, 0, 58, 108
1, 28063, Note_off_c, 0, 58, 108
1, 28069, Note_on_c, 0, 57, 104
1, 28169, Note_off_c, 0, 57, 104
1, 28182, Note_on_c, 0, 55, 106
1, 28250, Note_off_c, 0, 55, 106
1, 28261, Note_on_c, 0, 54, 93
1, 28370, Note_off_c, 0, 54, 93
1, 28398, Note_on_c, 0, 57, 100
1, 28465, Note_off_c, 0, 57, 100
1, 28479, Note_on_c, 0, 55, 94
1, 28556, Note_off_c, 0, 55, 94
1, 28574, Note_on_c, 0, 57, 101
1, 28637, Note_off_c, 0, 57, 101
1, 28652, Note_on_c, 0, 58, 95
1, 28734, Note_off_c, 0, 58, 95
1, 28753, Note_on_c, 0, 60, 101
1, 28832, Note_off_c, 0, 60, 101
1, 28840, Note_on_c, 0, 61, 102
1, 28916, Note_off_c, 0, 61, 102
1, 28929, Note_on_c, 0, 63, 105
1, 29011, Note_off_c, 0, 63, 105
1, 29039, Note_on_c, 0, 64, 108
1, 29121, Note_off_c, 0, 64, 108
1, 29138, Note_on_c, 0, 66, 101
1, 29207, Note_off_c, 0, 66, 101
1, 29215, Note_on_c, 0, 68, 110
1, 29320, Note_off_c, 0, 68, 110
1, 29330, Note_on_c, 0, 64, 106
1, 29393, Note_off_c, 0, 64, 106
1, 29409, Note_on_c, 0, 63, 107
1, 29490, Note_off_c, 0, 63, 107
1, 29506, Note_on_c, 0, 61, 95
1, 29590, Note_off_c, 0, 61, 95
1, 29598, Note_on_c, 0, 73, 111
1, 29700, Note_off_c, 0, 73, 111
1, 29703, Note_on_c, 0, 63, 109
1, 29797, Note_off_c, 0, 63, 109
1, 29802, Note_on_c, 0, 61, 108
1, 29877, Note_off_c, 0, 61, 108
1, 29886, Note_on_c, 0, 58, 100
1, 29968, Note_off_c, 0, 58, 100
1, 29991, Note_on_c, 0, 54, 109
1, 30073, Note_off_c, 0, 54, 109
1, 30079, Note_on_c, 0, 56, 104
1, 30132, Note_off_c, 0, 56, 104
1, 30146, Note_on_c, 0, 58, 98
1, 30244, Note_off_c, 0, 58, 98
1, 30253, Note_on_c, 0, 61, 106
1, 30335, Note_off_c, 0, 61, 106
1, 30341, Note_on_c, 0, 60, 104
1, 30398, Note_off_c, 0, 60, 104
1, 30456, Note_on_c, 0, 58, 92
1, 30546, Note_off_c, 0, 58, 92
1, 30620, Note_on_c, 0, 55, 94
1, 30719, Note_off_c, 0, 55, 94
1, 30731, Note_on_c, 0, 57, 110
1, 30815, Note_off_c, 0, 57, 110
1, 30839, Note_on_c, 0, 60, 101
1, 30906, Note_off_c, 0, 60, 101
1, 30921, Note_on_c, 0, 62, 101
1, 30988, Note_off_c, 0, 62, 101
1, 31011, Note_on_c, 0, 67, 107
1, 31081, Note_off_c, 0, 67, 107
1, 31097, Note_on_c, 0, 65, 106
1, 31207, Note_off_c, 0, 65, 106
1, 31220, Note_on_c, 0, 67, 92
1, 31288, Note_off_c, 0, 67, 92
1, 31387, Note_on_c, 0, 70, 95
1, 31435, Note_off_c, 0, 70, 95
1, 31451, Note_on_c, 0, 73, 99
1, 31613, Note_off_c, 0, 73, 99
1, 32301, Note_on_c, 0, 67, 117
1, 32372, Note_off_c, 0, 67, 117
1, 32375, Note_on_c, 0, 66, 116
1, 32418, Note_off_c, 0, 66, 116
1, 32426, Note_on_c, 0, 67, 113
1, 32464, Note_off_c, 0, 67, 113
1, 32474, Note_on_c, 0, 66, 110
1, 32525, Note_off_c, 0, 66, 110
1, 32541, Note_on_c, 0, 66, 114
1, 32589, Note_off_c, 0, 66, 114
1, 32600, Note_on_c, 0, 65, 112
1, 32721, Note_off_c, 0, 65, 112
1, 32731, Note_on_c, 0, 62, 113
1, 32791, Note_off_c, 0, 62, 113
1, 32813, Note_on_c, 0, 58, 95
1, 32892, Note_off_c, 0, 58, 95
1, 32911, Note_on_c, 0, 55, 89
1, 32975, Note_off_c, 0, 55, 89
1, 32983, Note_on_c, 0, 64, 121
1, 33116, Note_off_c, 0, 64, 121
1, 33126, Note_on_c, 0, 60, 105
1, 33253, Note_off_c, 0, 60, 105
1, 33888, Note_on_c, 0, 64, 118
1, 34009, Note_off_c, 0, 64, 118
1, 34059, Note_on_c, 0, 60, 107
1, 34111, Note_off_c, 0, 60, 107
1, 34154, Note_on_c, 0, 64, 117
1, 34254, Note_off_c, 0, 64, 117
1, 34265, Note_on_c, 0, 61, 104
1, 34347, Note_off_c, 0, 61, 104
1, 34374, Note_on_c, 0, 63, 110
1, 34426, Note_off_c, 0, 63, 110
1, 34437, Note_on_c, 0, 65, 110
1, 34514, Note_off_c, 0, 65, 110
1, 34524, Note_on_c, 0, 63, 114
1, 34632, Note_off_c, 0, 63, 114
1, 34639, Note_on_c, 0, 58, 104
1, 34700, Note_off_c, 0, 58, 104
1, 34821, Note_on_c, 0, 58, 90
1, 34880, Note_off_c, 0, 58, 90
1, 34895, Note_on_c, 0, 62, 116
1, 34997, Note_off_c, 0, 62, 116
1, 35007, Note_on_c, 0, 57, 104
1, 35100, Note_off_c, 0, 57, 104
1, 35275, Note_on_c, 0, 60, 116
1, 35381, Note_off_c, 0, 60, 116
1, 35391, Note_on_c, 0, 56, 105
1, 35487, Note_off_c, 0, 56, 105
1, 35491, Note_on_c, 0, 53, 108
1, 35577, Note_off_c, 0, 53, 108
1, 35604, Note_on_c, 0, 48, 101
1, 35650, Note_off_c, 0, 48, 101
1, 35684, Note_on_c, 0, 58, 105
1, 35774, Note_off_c, 0, 58, 105
1, 35792, Note_on_c, 0, 48, 110
1, 35855, Note_off_c, 0, 48, 110
1, 35867, Note_on_c, 0, 53, 111
1, 35934, Note_off_c, 0, 53, 111
1, 35940, Note_on_c, 0, 55, 104
1, 36011, Note_off_c, 0, 55, 104
1, 36034, Note_on_c, 0, 53, 107
1, 36112, Note_off_c, 0, 53, 107
1, 36125, Note_on_c, 0, 55, 93
1, 36208, Note_off_c, 0, 55, 93
1, 36319, Note_on_c, 0, 60, 107
1, 36392, Note_off_c, 0, 60, 107
1, 36414, Note_on_c, 0, 58, 101
1, 36485, Note_off_c, 0, 58, 101
1, 36493, Note_on_c, 0, 60, 109
1, 36545, Note_off_c, 0, 60, 109
1, 36547, Note_on_c, 0, 62, 115
1, 36637, Note_off_c, 0, 62, 115
1, 36650, Note_on_c, 0, 65, 114
1, 36736, Note_off_c, 0, 65, 114
1, 36743, Note_on_c, 0, 62, 116
1, 36835, Note_off_c, 0, 62, 116
1, 36865, Note_on_c, 0, 63, 110
1, 36905, Note_off_c, 0, 63, 110
1, 36923, Note_on_c, 0, 67, 108
1, 37023, Note_off_c, 0, 67, 108
1, 37044, Note_on_c, 0, 70, 107
1, 37120, Note_off_c, 0, 70, 107
1, 37126, Note_on_c, 0, 74, 108
1, 37679, Note_off_c, 0, 74, 108
1, 37689, Note_on_c, 0, 72, 112
1, 37740, Note_off_c, 0, 72, 112
1, 37745, Note_on_c, 0, 74, 110
1, 37799, Note_off_c, 0, 74, 110
1, 37807, Note_on_c, 0, 72, 115
1, 37885, Note_off_c, 0, 72, 115
1, 37895, Note_on_c, 0, 69, 115
1, 38250, Note_off_c, 0, 69, 115
1, 38257, Note_on_c, 0, 68, 109
1, 38289, Note_off_c, 0, 68, 109
1, 38296, Note_on_c, 0, 67, 107
1, 38360, Note_off_c, 0, 67, 107
1, 38364, Note_on_c, 0, 69, 109
1, 38416, Note_off_c, 0, 69, 109
1, 38421, Note_on_c, 0, 67, 109
1, 38474, Note_off_c, 0, 67, 109
1, 38480, Note_on_c, 0, 65, 112
1, 38534, Note_off_c, 0, 65, 112
1, 38543, Note_on_c, 0, 62, 115
1, 38616, Note_off_c, 0, 62, 115
1, 38617, Note_on_c, 0, 57, 104
1, 38674, Note_off_c, 0, 57, 104
1, 38683, Note_on_c, 0, 55, 101
1, 38725, Note_off_c, 0, 55, 101
1, 38734, Note_on_c, 0, 53, 106
1, 38779, Note_off_c, 0, 53, 106
1, 38782, Note_on_c, 0, 50, 104
1, 38824, Note_off_c, 0, 50, 104
1, 38826, Note_on_c, 0, 55, 104
1, 38876, Note_off_c, 0, 55, 104
1, 38880, Note_on_c, 0, 53, 106
1, 38911, Note_off_c, 0, 53, 106
1, 38918, Note_on_c, 0, 50, 107
1, 38976, Note_off_c, 0, 50, 107
1, 38977, Note_on_c, 0, 48, 106
1, 39010, Note_off_c, 0, 48, 106
1, 39017, Note_on_c, 0, 46, 110
1, 39107, Note_off_c, 0, 46, 110
1, 39116, Note_on_c, 0, 45, 106
1, 39224, Note_off_c, 0, 45, 106
1, 39950, Note_on_c, 0, 69, 119
1, 40073, Note_off_c, 0, 69, 119
1, 40214, Note_on_c, 0, 69, 117
1, 40293, Note_off_c, 0, 69, 117
1, 40303, Note_on_c, 0, 67, 114
1, 40379, Note_off_c, 0, 67, 114
1, 40397, Note_on_c, 0, 65, 111
1, 40507, Note_off_c, 0, 65, 111
1, 40515, Note_on_c, 0, 64, 110
1, 40567, Note_off_c, 0, 64, 110
1, 40572, Note_on_c, 0, 67, 114
1, 40678, Note_off_c, 0, 67, 114
1, 40684, Note_on_c, 0, 65, 119
1, 40761, Note_off_c, 0, 65, 119
1, 40773, Note_on_c, 0, 64, 119
1, 40844, Note_off_c, 0, 64, 119
1, 40855, Note_on_c, 0, 62, 118
1, 40954, Note_off_c, 0, 62, 118
1, 40965, Note_on_c, 0, 61, 109
1, 41027, Note_off_c, 0, 61, 109
1, 41047, Note_on_c, 0, 63, 120
1, 41116, Note_off_c, 0, 63, 120
1, 41127, Note_on_c, 0, 62, 110
1, 41225, Note_off_c, 0, 62, 110
1, 41237, Note_on_c, 0, 60, 111
1, 41314, Note_off_c, 0, 60, 111
1, 41325, Note_on_c, 0, 59, 98
1, 41402, Note_off_c, 0, 59, 98
1, 41413, Note_on_c, 0, 60, 109
1, 41476, Note_off_c, 0, 60, 109
1, 41487, Note_on_c, 0, 62, 109
1, 41576, Note_off_c, 0, 62, 109
1, 41614, Note_on_c, 0, 67, 110
1, 41685, Note_off_c, 0, 67, 110
1, 41705, Note_on_c, 0, 65, 112
1, 41786, Note_off_c, 0, 65, 112
1, 41846, Note_on_c, 0, 62, 114
1, 41936, Note_off_c, 0, 62, 114
1, 41953, Note_on_c, 0, 58, 98
1, 42022, Note_off_c, 0, 58, 98
1, 42070, Note_on_c, 0, 57, 91
1, 42123, Note_off_c, 0, 57, 91
1, 42498, Note_on_c, 0, 53, 108
1, 42533, Note_off_c, 0, 53, 108
1, 42538, Note_on_c, 0, 54, 106
1, 42618, Note_off_c, 0, 54, 106
1, 42628, Note_on_c, 0, 58, 93
1, 42700, Note_off_c, 0, 58, 93
1, 42719, Note_on_c, 0, 61, 96
1, 42787, Note_off_c, 0, 61, 96
1, 42803, Note_on_c, 0, 65, 109
1, 42919, Note_off_c, 0, 65, 109
1, 42940, Note_on_c, 0, 61, 103
1, 42996, Note_off_c, 0, 61, 103
1, 43010, Note_on_c, 0, 58, 92
1, 43098, Note_off_c, 0, 58, 92
1, 43114, Note_on_c, 0, 55, 94
1, 43182, Note_off_c, 0, 55, 94
1, 43223, Note_on_c, 0, 64, 123
1, 43388, Note_off_c, 0, 64, 123
1, 43965, Note_on_c, 0, 56, 112
1, 44077, Note_off_c, 0, 56, 112
1, 44142, Note_on_c, 0, 56, 104
1, 44268, Note_off_c, 0, 56, 104
1, 44271, Note_on_c, 0, 64, 120
1, 44392, Note_off_c, 0, 64, 120
1, 44447, Note_on_c, 0, 64, 123
1, 44557, Note_off_c, 0, 64, 123
1, 44573, Note_on_c, 0, 56, 104
1, 44734, Note_off_c, 0, 56, 104
1, 45099, Note_on_c, 0, 55, 105
1, 45244, Note_off_c, 0, 55, 105
1, 45307, Note_on_c, 0, 55, 100
1, 45430, Note_off_c, 0, 55, 100
1, 45431, Note_on_c, 0, 64, 117
1, 45564, Note_off_c, 0, 64, 117
1, 45605, Note_on_c, 0, 64, 115
1, 45686, Note_off_c, 0, 64, 115
1, 45705, Note_on_c, 0, 55, 105
1, 45887, Note_off_c, 0, 55, 105
1, 46245, Note_on_c, 0, 56, 107
1, 46356, Note_off_c, 0, 56, 107
1, 46374, Note_on_c, 0, 52, 113
1, 46450, Note_off_c, 0, 52, 113
1, 46470, Note_on_c, 0, 56, 110
1, 46564, Note_off_c, 0, 56, 110
1, 46588, Note_on_c, 0, 64, 115
1, 46704, Note_off_c, 0, 64, 115
1, 46741, Note_on_c, 0, 64, 122
1, 46837, Note_off_c, 0, 64, 122
1, 46845, Note_on_c, 0, 62, 122
1, 46953, Note_off_c, 0, 62, 122
1, 46968, Note_on_c, 0, 56, 102
1, 47416, Note_off_c, 0, 56, 102
1, 47458, Note_on_c, 0, 64, 122
1, 47617, Note_off_c, 0, 64, 122
1, 47644, Note_on_c, 0, 56, 111
1, 47732, Note_off_c, 0, 56, 111
1, 47803, Note_on_c, 0, 55, 107
1, 47985, Note_off_c, 0, 55, 107
1, 47988, Note_on_c, 0, 62, 114
1, 48097, Note_off_c, 0, 62, 114
1, 48149, Note_on_c, 0, 55, 103
1, 48251, Note_off_c, 0, 55, 103
1, 48283, Note_on_c, 0, 55, 103
1, 48369, Note_off_c, 0, 55, 103
1, 48395, Note_on_c, 0, 65, 110
1, 48548, Note_off_c, 0, 65, 110
1, 48910, Note_on_c, 0, 65, 115
1, 49006, Note_off_c, 0, 65, 115
1, 49025, Note_on_c, 0, 67, 116
1, 49104, Note_off_c, 0, 67, 116
1, 49110, Note_on_c, 0, 65, 117
1, 49214, Note_off_c, 0, 65, 117
1, 49222, Note_on_c, 0, 62, 115
1, 49299, Note_off_c, 0, 62, 115
1, 49312, Note_on_c, 0, 69, 119
1, 49591, Note_off_c, 0, 69, 119
1, 49600, Note_on_c, 0, 67, 114
1, 49705, Note_off_c, 0, 67, 114
1, 50125, Note_on_c, 0, 70, 119
1, 50179, Note_off_c, 0, 70, 119
1, 50188, Note_on_c, 0, 69, 118
1, 50312, Note_off_c, 0, 69, 118
1, 50346, Note_on_c, 0, 68, 115
1, 50466, Note_off_c, 0, 68, 115
1, 50825, Note_on_c, 0, 71, 114
1, 50904, Note_off_c, 0, 71, 114
1, 50920, Note_on_c, 0, 70, 112
1, 50992, Note_off_c, 0, 70, 112
1, 50999, Note_on_c, 0, 69, 117
1, 51086, Note_off_c, 0, 69, 117
1, 51364, Note_on_c, 0, 72, 114
1, 51442, Note_off_c, 0, 72, 114
1, 51454, Note_on_c, 0, 71, 107
1, 51544, Note_off_c, 0, 71, 107
1, 51562, Note_on_c, 0, 70, 117
1, 51662, Note_off_c, 0, 70, 117
1, 51948, Note_on_c, 0, 69, 117
1, 52037, Note_off_c, 0, 69, 117
1, 52044, Note_on_c, 0, 68, 115
1, 52119, Note_off_c, 0, 68, 115
1, 52134, Note_on_c, 0, 67, 110
1, 52228, Note_off_c, 0, 67, 110
1, 52244, Note_on_c, 0, 66, 111
1, 52305, Note_off_c, 0, 66, 111
1, 52322, Note_on_c, 0, 65, 112
1, 52411, Note_off_c, 0, 65, 112
1, 52420, Note_on_c, 0, 64, 115
1, 52495, Note_off_c, 0, 64, 115
1, 52510, Note_on_c, 0, 63, 109
1, 52594, Note_off_c, 0, 63, 109
1, 52615, Note_on_c, 0, 62, 111
1, 52709, Note_off_c, 0, 62, 111
1, 52726, Note_on_c, 0, 61, 107
1, 52807, Note_off_c, 0, 61, 107
1, 52831, Note_on_c, 0, 63, 105
1, 52881, Note_off_c, 0, 63, 105
1, 52915, Note_on_c, 0, 63, 108
1, 52976, Note_off_c, 0, 63, 108
1, 52984, Note_on_c, 0, 65, 105
1, 53054, Note_off_c, 0, 65, 105
1, 53076, Note_on_c, 0, 68, 108
1, 53174, Note_off_c, 0, 68, 108
1, 53211, Note_on_c, 0, 61, 109
1, 53250, Note_off_c, 0, 61, 109
1, 53258, Note_on_c, 0, 63, 101
1, 53288, Note_off_c, 0, 63, 101
1, 53307, Note_on_c, 0, 65, 96
1, 53345, Note_off_c, 0, 65, 96
1, 53351, Note_on_c, 0, 68, 115
1, 53443, Note_off_c, 0, 68, 115
1, 53450, Note_on_c, 0, 66, 110
1, 53532, Note_off_c, 0, 66, 110
1, 53553, Note_on_c, 0, 66, 113
1, 53627, Note_off_c, 0, 66, 113
1, 53636, Note_on_c, 0, 68, 111
1, 53714, Note_off_c, 0, 68, 111
1, 53731, Note_on_c, 0, 65, 115
1, 53812, Note_off_c, 0, 65, 115
1, 53827, Note_on_c, 0, 64, 120
1, 53902, Note_off_c, 0, 64, 120
1, 53916, Note_on_c, 0, 63, 117
1, 53993, Note_off_c, 0, 63, 117
1, 54002, Note_on_c, 0, 62, 113
1, 54084, Note_off_c, 0, 62, 113
1, 54104, Note_on_c, 0, 61, 41
1, 54191, Note_off_c, 0, 61, 41
1, 54204, Note_on_c, 0, 58, 108
1, 54282, Note_off_c, 0, 58, 108
1, 54296, Note_on_c, 0, 54, 109
1, 54340, Note_off_c, 0, 54, 109
1, 54388, Note_on_c, 0, 55, 108
1, 54770, Note_off_c, 0, 55, 108
1, 54798, Note_on_c, 0, 54, 107
1, 54840, Note_off_c, 0, 54, 107
1, 54853, Note_on_c, 0, 53, 109
1, 54925, Note_off_c, 0, 53, 109
1, 54944, Note_on_c, 0, 57, 115
1, 55038, Note_off_c, 0, 57, 115
1, 55052, Note_on_c, 0, 55, 108
1, 55115, Note_off_c, 0, 55, 108
1, 55130, Note_on_c, 0, 53, 112
1, 55211, Note_off_c, 0, 53, 112
1, 55257, Note_on_c, 0, 49, 114
1, 55304, Note_off_c, 0, 49, 114
1, 55308, Note_on_c, 0, 48, 105
1, 55654, Note_off_c, 0, 48, 105
1, 55657, Note_on_c, 0, 47, 117
1, 55727, Note_off_c, 0, 47, 117
1, 55727, End_track
0, 0, End_of_file
