0, 0, Header, 1, 1, 192
1, 0, Start_track
1, 0, Title_t, "Melody"
1, 0, Tempo, 348837
1, 0, Time_signature, 3, 2, 24, 8
1, 3622, Note_on_c, 0, 74, 117
1, 3821, Note_off_c, 0, 74, 117
1, 3861, Note_on_c, 0, 67, 107
1, 3991, Note_off_c, 0, 67, 107
1, 4004, Note_on_c, 0, 69, 110
1, 4821, Note_off_c, 0, 69, 110
1, 4865, Note_on_c, 0, 67, 107
1, 4903, Note_off_c, 0, 67, 107
1, 4917, Note_on_c, 0, 69, 111
1, 4976, Note_off_c, 0, 69, 111
1, 5001, Note_on_c, 0, 72, 119
1, 5061, Note_off_c, 0, 72, 119
1, 5072, Note_on_c, 0, 74, 119
1, 5150, Note_off_c, 0, 74, 119
1, 5180, Note_on_c, 0, 67, 109
1, 5271, Note_off_c, 0, 67, 109
1, 5294, Note_on_c, 0, 69, 107
1, 5546, Note_off_c, 0, 69, 107
1, 6252, Note_on_c, 0, 69, 110
1, 6299, Note_off_c, 0, 69, 110
1, 6329, Note_on_c, 0, 74, 121
1, 6397, Note_off_c, 0, 74, 121
1, 6420, Note_on_c, 0, 76, 125
1, 6498, Note_off_c, 0, 76, 125
1, 6510, Note_on_c, 0, 77, 123
1, 6655, Note_off_c, 0, 77, 123
1, 6688, Note_on_c, 0, 75, 123
1, 6753, Note_off_c, 0, 75, 123
1, 6765, Note_on_c, 0, 77, 127
1, 6859, Note_off_c, 0, 77, 127
1, 6874, Note_on_c, 0, 79, 124
1, 6955, Note_off_c, 0, 79, 124
1, 6983, Note_on_c, 0, 75, 121
1, 7074, Note_off_c, 0, 75, 121
1, 7105, Note_on_c, 0, 70, 107
1, 7291, Note_off_c, 0, 70, 107
1, 7334, Note_on_c, 0, 67, 105
1, 7388, Note_off_c, 0, 67, 105
1, 7400, Note_on_c, 0, 69, 106
1, 7494, Note_off_c, 0, 69, 106
1, 7535, Note_on_c, 0, 62, 97
1, 7645, Note_off_c, 0, 62, 97
1, 7657, Note_on_c, 0, 64, 100
1, 7824, Note_off_c, 0, 64, 100
1, 7854, Note_on_c, 0, 61, 103
1, 7895, Note_off_c, 0, 61, 103
1, 7904, Note_on_c, 0, 64, 99
1, 7947, Note_off_c, 0, 64, 99
1, 7983, Note_on_c, 0, 58, 99
1, 8086, Note_off_c, 0, 58, 99
1, 8116, Note_on_c, 0, 57, 102
1, 8314, Note_off_c, 0, 57, 102
1, 8683, Note_on_c, 0, 65, 101
1, 8714, Note_off_c, 0, 65, 101
1, 8731, Note_on_c, 0, 70, 105
1, 8786, Note_off_c, 0, 70, 105
1, 8817, Note_on_c, 0, 75, 117
1, 8887, Note_off_c, 0, 75, 117
1, 8893, Note_on_c, 0, 77, 111
1, 9123, Note_off_c, 0, 77, 111
1, 9148, Note_on_c, 0, 72, 106
1, 9499, Note_off_c, 0, 72, 106
1, 9518, Note_on_c, 0, 70, 102
1, 9548, Note_off_c, 0, 70, 102
1, 10370, Note_on_c, 0, 75, 110
1, 10421, Note_off_c, 0, 75, 110
1, 10436, Note_on_c, 0, 77, 112
1, 10495, Note_off_c, 0, 77, 112
1, 10536, Note_on_c, 0, 82, 111
1, 10591, Note_off_c, 0, 82, 111
1, 11097, Note_on_c, 0, 80, 111
1, 11159, Note_off_c, 0, 80, 111
1, 11166, Note_on_c, 0, 77, 110
1, 11277, Note_off_c, 0, 77, 110
1, 11291, Note_on_c, 0, 75, 113
1, 11346, Note_off_c, 0, 75, 113
1, 11361, Note_on_c, 0, 77, 110
1, 11458, Note_off_c, 0, 77, 110
1, 11472, Note_on_c, 0, 72, 109
1, 11748, Note_off_c, 0, 72, 109
1, 11759, Note_on_c, 0, 69, 90
1, 11790, Note_off_c, 0, 69, 90
1, 11796, Note_on_c, 0, 73, 110
1, 11835, Note_off_c, 0, 73, 110
1, 11850, Note_on_c, 0, 76, 100
1, 11878, Note_off_c, 0, 76, 100
1, 11885, Note_on_c, 0, 75, 116
1, 11928, Note_off_c, 0, 75, 116
1, 11943, Note_on_c, 0, 73, 112
1, 11990, Note_off_c, 0, 73, 112
1, 12001, Note_on_c, 0, 71, 101
1, 12044, Note_off_c, 0, 71, 101
1, 12055, Note_on_c, 0, 73, 108
1, 12098, Note_off_c, 0, 73, 108
1, 12111, Note_on_c, 0, 71, 103
1, 12146, Note_off_c, 0, 71, 103
1, 12171, Note_on_c, 0, 69, 106
1, 12214, Note_off_c, 0, 69, 106
1, 12226, Note_on_c, 0, 66, 96
1, 12257, Note_off_c, 0, 66, 96
1, 12280, Note_on_c, 0, 71, 106
1, 12331, Note_off_c, 0, 71, 106
1, 12348, Note_on_c, 0, 68, 100
1, 12389, Note_off_c, 0, 68, 100
1, 12400, Note_on_c, 0, 64, 94
1, 12430, Note_off_c, 0, 64, 94
1, 12444, Note_on_c, 0, 69, 108
1, 12494, Note_off_c, 0, 69, 108
1, 12509, Note_on_c, 0, 68, 107
1, 12573, Note_off_c, 0, 68, 107
1, 12590, Note_on_c, 0, 64, 98
1, 12732, Note_off_c, 0, 64, 98
1, 12747, Note_on_c, 0, 59, 97
1, 12786, Note_off_c, 0, 59, 97
1, 12786, Note_on_c, 0, 60, 94
1, 12830, Note_off_c, 0, 60, 94
1, 12837, Note_on_c, 0, 61, 98
1, 12874, Note_off_c, 0, 61, 98
1, 12886, Note_on_c, 0, 63, 95
1, 12916, Note_off_c, 0, 63, 95
1, 12920, Note_on_c, 0, 66, 103
1, 12948, Note_off_c, 0, 66, 103
1, 12955, Note_on_c, 0, 67, 106
1, 12989, Note_off_c, 0, 67, 106
1, 12995, Note_on_c, 0, 69, 105
1, 13030, Note_off_c, 0, 69, 105
1, 13040, Note_on_c, 0, 71, 105
1, 13065, Note_off_c, 0, 71, 105
1, 13071, Note_on_c, 0, 73, 113
1, 13103, Note_off_c, 0, 73, 113
1, 13117, Note_on_c, 0, 74, 112
1, 13433, Note_off_c, 0, 74, 112
1, 13450, Note_on_c, 0, 72, 108
1, 13494, Note_off_c, 0, 72, 108
1, 13532, Note_on_c, 0, 67, 103
1, 13580, Note_off_c, 0, 67, 103
1, 13593, Note_on_c, 0, 69, 82
1, 14042, Note_off_c, 0, 69, 82
1, 14707, Note_on_c, 0, 76, 116
1, 14770, Note_off_c, 0, 76, 116
1, 14770, Note_on_c, 0, 77, 108
1, 14834, Note_off_c, 0, 77, 108
1, 14888, Note_on_c, 0, 79, 115
1, 14953, Note_off_c, 0, 79, 115
1, 14963, Note_on_c, 0, 81, 114
1, 15037, Note_off_c, 0, 81, 114
1, 15093, Note_on_c, 0, 79, 110
1, 15166, Note_off_c, 0, 79, 110
1, 15182, Note_on_c, 0, 77, 112
1, 15279, Note_off_c, 0, 77, 112
1, 15284, Note_on_c, 0, 76, 112
1, 15352, Note_off_c, 0, 76, 112
1, 15355, Note_on_c, 0, 77, 108
1, 15416, Note_off_c, 0, 77, 108
1, 15477, Note_on_c, 0, 74, 115
1, 15605, Note_off_c, 0, 74, 115
1, 15618, Note_on_c, 0, 72, 107
1, 15645, Note_off_c, 0, 72, 107
1, 15645, Note_on_c, 0, 74, 106
1, 15686, Note_off_c, 0, 74, 106
1, 15707, Note_on_c, 0, 79, 108
1, 15745, Note_off_c, 0, 79, 108
1, 15749, Note_on_c, 0, 76, 103
1, 15775, Note_off_c, 0, 76, 103
1, 15787, Note_on_c, 0, 74, 114
1, 15840, Note_off_c, 0, 74, 114
1, 15846, Note_on_c, 0, 72, 104
1, 15870, Note_off_c, 0, 72, 104
1, 15881, Note_on_c, 0, 77, 110
1, 15911, Note_off_c, 0, 77, 110
1, 15917, Note_on_c, 0, 76, 112
1, 15954, Note_off_c, 0, 76, 112
1, 15971, Note_on_c, 0, 72, 104
1, 16001, Note_off_c, 0, 72, 104
1, 16007, Note_on_c, 0, 74, 99
1, 16038, Note_off_c, 0, 74, 99
1, 16049, Note_on_c, 0, 70, 106
1, 16073, Note_off_c, 0, 70, 106
1, 16073, Note_on_c, 0, 69, 100
1, 16093, Note_off_c, 0, 69, 100
1, 16093, Note_on_c, 0, 67, 100
1, 16130, Note_off_c, 0, 67, 100
1, 16152, Note_on_c, 0, 72, 111
1, 16184, Note_off_c, 0, 72, 111
1, 16192, Note_on_c, 0, 71, 103
1, 16226, Note_off_c, 0, 71, 103
1, 16244, Note_on_c, 0, 65, 96
1, 16285, Note_off_c, 0, 65, 96
1, 16291, Note_on_c, 0, 70, 110
1, 16488, Note_off_c, 0, 70, 110
1, 16495, Note_on_c, 0, 72, 109
1, 16545, Note_off_c, 0, 72, 109
1, 16552, Note_on_c, 0, 73, 109
1, 16602, Note_off_c, 0, 73, 109
1, 16619, Note_on_c, 0, 75, 112
1, 16702, Note_off_c, 0, 75, 112
1, 16709, Note_on_c, 0, 72, 110
1, 16796, Note_off_c, 0, 72, 110
1, 16807, Note_on_c, 0, 70, 110
1, 16902, Note_off_c, 0, 70, 110
1, 16930, Note_on_c, 0, 63, 95
1, 16959, Note_off_c, 0, 63, 95
1, 16979, Note_on_c, 0, 69, 104
1, 17087, Note_off_c, 0, 69, 104
1, 17108, Note_on_c, 0, 62, 97
1, 17177, Note_off_c, 0, 62, 97
1, 17185, Note_on_c, 0, 64, 100
1, 17310, Note_off_c, 0, 64, 100
1, 17355, Note_on_c, 0, 59, 94
1, 17389, Note_off_c, 0, 59, 94
1, 17414, Note_on_c, 0, 61, 101
1, 17442, Note_off_c, 0, 61, 101
1, 17450, Note_on_c, 0, 62, 98
1, 17473, Note_off_c, 0, 62, 98
1, 17483, Note_on_c, 0, 64, 97
1, 17514, Note_off_c, 0, 64, 97
1, 17518, Note_on_c, 0, 66, 95
1, 17557, Note_off_c, 0, 66, 95
1, 17569, Note_on_c, 0, 67, 106
1, 17601, Note_off_c, 0, 67, 106
1, 17607, Note_on_c, 0, 69, 108
1, 17638, Note_off_c, 0, 69, 108
1, 17648, Note_on_c, 0, 71, 102
1, 17680, Note_off_c, 0, 71, 102
1, 17686, Note_on_c, 0, 73, 109
1, 17751, Note_off_c, 0, 73, 109
1, 18437, Note_on_c, 0, 75, 117
1, 18485, Note_off_c, 0, 75, 117
1, 18504, Note_on_c, 0, 79, 111
1, 18542, Note_off_c, 0, 79, 111
1, 18587, Note_on_c, 0, 82, 105
1, 18645, Note_off_c, 0, 82, 105
1, 18657, Note_on_c, 0, 77, 113
1, 18730, Note_off_c, 0, 77, 113
1, 18744, Note_on_c, 0, 75, 114
1, 18842, Note_off_c, 0, 75, 114
1, 18871, Note_on_c, 0, 70, 107
1, 18954, Note_off_c, 0, 70, 107
1, 18988, Note_on_c, 0, 77, 113
1, 19054, Note_off_c, 0, 77, 113
1, 19054, Note_on_c, 0, 75, 115
1, 19132, Note_off_c, 0, 75, 115
1, 19140, Note_on_c, 0, 70, 110
1, 19235, Note_off_c, 0, 70, 110
1, 19258, Note_on_c, 0, 65, 102
1, 19317, Note_off_c, 0, 65, 102
1, 19325, Note_on_c, 0, 67, 88
1, 19358, Note_off_c, 0, 67, 88
1, 19400, Note_on_c, 0, 74, 115
1, 19457, Note_off_c, 0, 74, 115
1, 19457, Note_on_c, 0, 75, 117
1, 19570, Note_off_c, 0, 75, 117
1, 19577, Note_on_c, 0, 74, 112
1, 19598, Note_off_c, 0, 74, 112
1, 19601, Note_on_c, 0, 73, 110
1, 19645, Note_off_c, 0, 73, 110
1, 19661, Note_on_c, 0, 72, 111
1, 19777, Note_off_c, 0, 72, 111
1, 19794, Note_on_c, 0, 70, 108
1, 19934, Note_off_c, 0, 70, 108
1, 19958, Note_on_c, 0, 68, 109
1, 20006, Note_off_c, 0, 68, 109
1, 20027, Note_on_c, 0, 70, 110
1, 20094, Note_off_c, 0, 70, 110
1, 20117, Note_on_c, 0, 70, 110
1, 20195, Note_off_c, 0, 70, 110
1, 20260, Note_on_c, 0, 70, 112
1, 20366, Note_off_c, 0, 70, 112
1, 20387, Note_on_c, 0, 70, 112
1, 20466, Note_off_c, 0, 70, 112
1, 20539, Note_on_c, 0, 63, 90
1, 20587, Note_off_c, 0, 63, 90
1, 20587, Note_on_c, 0, 67, 89
1, 20620, Note_off_c, 0, 67, 89
1, 20621, Note_on_c, 0, 68, 108
1, 20735, Note_off_c, 0, 68, 108
1, 20761, Note_on_c, 0, 65, 104
1, 21387, Note_off_c, 0, 65, 104
1, 21425, Note_on_c, 0, 71, 99
1, 21464, Note_off_c, 0, 71, 99
1, 21465, Note_on_c, 0, 73, 110
1, 21520, Note_off_c, 0, 73, 110
1, 21538, Note_on_c, 0, 71, 104
1, 21621, Note_off_c, 0, 71, 104
1, 21628, Note_on_c, 0, 68, 111
1, 21720, Note_off_c, 0, 68, 111
1, 21746, Note_on_c, 0, 66, 87
1, 22131, Note_off_c, 0, 66, 87
1, 22857, Note_on_c, 0, 67, 105
1, 22891, Note_off_c, 0, 67, 105
1, 22917, Note_on_c, 0, 74, 115
1, 23020, Note_off_c, 0, 74, 115
1, 23027, Note_on_c, 0, 70, 108
1, 23148, Note_off_c, 0, 70, 108
1, 23162, Note_on_c, 0, 69, 107
1, 23252, Note_off_c, 0, 69, 107
1, 23274, Note_on_c, 0, 67, 108
1, 23372, Note_off_c, 0, 67, 108
1, 23386, Note_on_c, 0, 68, 101
1, 23406, Note_off_c, 0, 68, 101
1, 23414, Note_on_c, 0, 70, 84
1, 23429, Note_off_c, 0, 70, 84
1, 23442, Note_on_c, 0, 68, 108
1, 23604, Note_off_c, 0, 68, 108
1, 23617, Note_on_c, 0, 71, 108
1, 23702, Note_off_c, 0, 71, 108
1, 23721, Note_on_c, 0, 75, 116
1, 23799, Note_off_c, 0, 75, 116
1, 23814, Note_on_c, 0, 78, 109
1, 23910, Note_off_c, 0, 78, 109
1, 24252, Note_on_c, 0, 81, 117
1, 24317, Note_off_c, 0, 81, 117
1, 24331, Note_on_c, 0, 79, 114
1, 24442, Note_off_c, 0, 79, 114
1, 24647, Note_on_c, 0, 78, 108
1, 24681, Note_off_c, 0, 78, 108
1, 24685, Note_on_c, 0, 77, 109
1, 24707, Note_off_c, 0, 77, 109
1, 24710, Note_on_c, 0, 75, 113
1, 24734, Note_off_c, 0, 75, 113
1, 24747, Note_on_c, 0, 71, 107
1, 24781, Note_off_c, 0, 71, 107
1, 24807, Note_on_c, 0, 68, 101
1, 24926, Note_off_c, 0, 68, 101
1, 25216, Note_on_c, 0, 76, 116
1, 25268, Note_off_c, 0, 76, 116
1, 25273, Note_on_c, 0, 74, 116
1, 25330, Note_off_c, 0, 74, 116
1, 25336, Note_on_c, 0, 69, 112
1, 25587, Note_off_c, 0, 69, 112
1, 25602, Note_on_c, 0, 70, 86
1, 25618, Note_off_c, 0, 70, 86
1, 25628, Note_on_c, 0, 77, 115
1, 25659, Note_off_c, 0, 77, 115
1, 25670, Note_on_c, 0, 74, 106
1, 25685, Note_off_c, 0, 74, 106
1, 25695, Note_on_c, 0, 72, 113
1, 25855, Note_off_c, 0, 72, 113
1, 25860, Note_on_c, 0, 73, 112
1, 25900, Note_off_c, 0, 73, 112
1, 25912, Note_on_c, 0, 75, 119
1, 26077, Note_off_c, 0, 75, 119
1, 26097, Note_on_c, 0, 73, 94
1, 26127, Note_off_c, 0, 73, 94
1, 26130, Note_on_c, 0, 76, 115
1, 26173, Note_off_c, 0, 76, 115
1, 26176, Note_on_c, 0, 74, 104
1, 26196, Note_off_c, 0, 74, 104
1, 26201, Note_on_c, 0, 71, 112
1, 26265, Note_off_c, 0, 71, 112
1, 26279, Note_on_c, 0, 68, 109
1, 26528, Note_off_c, 0, 68, 109
1, 26551, Note_on_c, 0, 76, 113
1, 26588, Note_off_c, 0, 76, 113
1, 26598, Note_on_c, 0, 71, 90
1, 26612, Note_off_c, 0, 71, 90
1, 26626, Note_on_c, 0, 68, 106
1, 26648, Note_off_c, 0, 68, 106
1, 26663, Note_on_c, 0, 65, 108
1, 26711, Note_off_c, 0, 65, 108
1, 26726, Note_on_c, 0, 64, 105
1, 26963, Note_off_c, 0, 64, 105
1, 26982, Note_on_c, 0, 75, 119
1, 27050, Note_off_c, 0, 75, 119
1, 27062, Note_on_c, 0, 70, 114
1, 27139, Note_off_c, 0, 70, 114
1, 27171, Note_on_c, 0, 67, 105
1, 27312, Note_off_c, 0, 67, 105
1, 27313, Note_on_c, 0, 64, 96
1, 27356, Note_off_c, 0, 64, 96
1, 27357, Note_on_c, 0, 69, 111
1, 27421, Note_off_c, 0, 69, 111
1, 27426, Note_on_c, 0, 70, 110
1, 27541, Note_off_c, 0, 70, 110
1, 27552, Note_on_c, 0, 69, 110
1, 27659, Note_off_c, 0, 69, 110
1, 27679, Note_on_c, 0, 62, 99
1, 27769, Note_off_c, 0, 62, 99
1, 27780, Note_on_c, 0, 64, 103
1, 28022, Note_off_c, 0, 64, 103
1, 28024, Note_on_c, 0, 65, 94
1, 28050, Note_off_c, 0, 65, 94
1, 28061, Note_on_c, 0, 67, 100
1, 28092, Note_off_c, 0, 67, 100
1, 28100, Note_on_c, 0, 69, 107
1, 28144, Note_off_c, 0, 69, 107
1, 28147, Note_on_c, 0, 70, 98
1, 28482, Note_off_c, 0, 70, 98
1, 28506, Note_on_c, 0, 67, 100
1, 28557, Note_off_c, 0, 67, 100
1, 28572, Note_on_c, 0, 69, 104
1, 28664, Note_off_c, 0, 69, 104
1, 28684, Note_on_c, 0, 74, 103
1, 28737, Note_off_c, 0, 74, 103
1, 29810, Note_on_c, 0, 77, 110
1, 29868, Note_off_c, 0, 77, 110
1, 29881, Note_on_c, 0, 79, 116
1, 29920, Note_off_c, 0, 79, 116
1, 29920, Note_on_c, 0, 81, 116
1, 30007, Note_off_c, 0, 81, 116
1, 30035, Note_on_c, 0, 79, 105
1, 30071, Note_off_c, 0, 79, 105
1, 30074, Note_on_c, 0, 77, 111
1, 30117, Note_off_c, 0, 77, 111
1, 30131, Note_on_c, 0, 76, 114
1, 30164, Note_off_c, 0, 76, 114
1, 30164, Note_on_c, 0, 75, 105
1, 30206, Note_off_c, 0, 75, 105
1, 30218, Note_on_c, 0, 78, 112
1, 30252, Note_off_c, 0, 78, 112
1, 30262, Note_on_c, 0, 76, 101
1, 30288, Note_off_c, 0, 76, 101
1, 30303, Note_on_c, 0, 73, 103
1, 30331, Note_off_c, 0, 73, 103
1, 30338, Note_on_c, 0, 71, 102
1, 30373, Note_off_c, 0, 71, 102
1, 30387, Note_on_c, 0, 76, 116
1, 30442, Note_off_c, 0, 76, 116
1, 30446, Note_on_c, 0, 77, 109
1, 30474, Note_off_c, 0, 77, 109
1, 30479, Note_on_c, 0, 76, 114
1, 30512, Note_off_c, 0, 76, 114
1, 30516, Note_on_c, 0, 75, 108
1, 30550, Note_off_c, 0, 75, 108
1, 30569, Note_on_c, 0, 79, 115
1, 30618, Note_off_c, 0, 79, 115
1, 30626, Note_on_c, 0, 77, 104
1, 30651, Note_off_c, 0, 77, 104
1, 30658, Note_on_c, 0, 74, 110
1, 30696, Note_off_c, 0, 74, 110
1, 30711, Note_on_c, 0, 72, 109
1, 30752, Note_off_c, 0, 72, 109
1, 30756, Note_on_c, 0, 77, 110
1, 30794, Note_off_c, 0, 77, 110
1, 30807, Note_on_c, 0, 72, 109
1, 30853, Note_off_c, 0, 72, 109
1, 30855, Note_on_c, 0, 73, 110
1, 30898, Note_off_c, 0, 73, 110
1, 30910, Note_on_c, 0, 75, 95
1, 30948, Note_off_c, 0, 75, 95
1, 30961, Note_on_c, 0, 68, 103
1, 31016, Note_off_c, 0, 68, 103
1, 31034, Note_on_c, 0, 73, 112
1, 31080, Note_off_c, 0, 73, 112
1, 31091, Note_on_c, 0, 71, 103
1, 31129, Note_off_c, 0, 71, 103
1, 31151, Note_on_c, 0, 65, 95
1, 31224, Note_off_c, 0, 65, 95
1, 31236, Note_on_c, 0, 71, 107
1, 31259, Note_off_c, 0, 71, 107
1, 31270, Note_on_c, 0, 73, 113
1, 31309, Note_off_c, 0, 73, 113
1, 31321, Note_on_c, 0, 78, 110
1, 31349, Note_off_c, 0, 78, 110
1, 31354, Note_on_c, 0, 76, 111
1, 31532, Note_off_c, 0, 76, 111
1, 31994, Note_on_c, 0, 81, 86
1, 32025, Note_off_c, 0, 81, 86
1, 32042, Note_on_c, 0, 84, 113
1, 32120, Note_off_c, 0, 84, 113
1, 32170, Note_on_c, 0, 77, 110
1, 32385, Note_off_c, 0, 77, 110
1, 33058, Note_on_c, 0, 76, 99
1, 33096, Note_off_c, 0, 76, 99
1, 33144, Note_on_c, 0, 79, 111
1, 33176, Note_off_c, 0, 79, 111
1, 33206, Note_on_c, 0, 84, 107
1, 33280, Note_off_c, 0, 84, 107
1, 33321, Note_on_c, 0, 77, 110
1, 33605, Note_off_c, 0, 77, 110
1, 33938, Note_on_c, 0, 75, 110
1, 33988, Note_off_c, 0, 75, 110
1, 34004, Note_on_c, 0, 77, 115
1, 34028, Note_off_c, 0, 77, 115
1, 34045, Note_on_c, 0, 77, 105
1, 34075, Note_off_c, 0, 77, 105
1, 34089, Note_on_c, 0, 80, 113
1, 34124, Note_off_c, 0, 80, 113
1, 34131, Note_on_c, 0, 79, 110
1, 34168, Note_off_c, 0, 79, 110
1, 34185, Note_on_c, 0, 77, 112
1, 34228, Note_off_c, 0, 77, 112
1, 34242, Note_on_c, 0, 75, 117
1, 34283, Note_off_c, 0, 75, 117
1, 34311, Note_on_c, 0, 70, 99
1, 34339, Note_off_c, 0, 70, 99
1, 34355, Note_on_c, 0, 75, 109
1, 34394, Note_off_c, 0, 75, 109
1, 34402, Note_on_c, 0, 77, 91
1, 34424, Note_off_c, 0, 77, 91
1, 34434, Note_on_c, 0, 78, 107
1, 34481, Note_off_c, 0, 78, 107
1, 34493, Note_on_c, 0, 80, 101
1, 34534, Note_off_c, 0, 80, 101
1, 34546, Note_on_c, 0, 77, 110
1, 34579, Note_off_c, 0, 77, 110
1, 34592, Note_on_c, 0, 75, 115
1, 34632, Note_off_c, 0, 75, 115
1, 34642, Note_on_c, 0, 73, 105
1, 34686, Note_off_c, 0, 73, 105
1, 34696, Note_on_c, 0, 70, 111
1, 34740, Note_off_c, 0, 70, 111
1, 34747, Note_on_c, 0, 68, 107
1, 34771, Note_off_c, 0, 68, 107
1, 34786, Note_on_c, 0, 65, 103
1, 34817, Note_off_c, 0, 65, 103
1, 34841, Note_on_c, 0, 70, 110
1, 35002, Note_off_c, 0, 70, 110
1, 35396, Note_on_c, 0, 79, 104
1, 35424, Note_off_c, 0, 79, 104
1, 35429, Note_on_c, 0, 81, 106
1, 35446, Note_off_c, 0, 81, 106
1, 35448, Note_on_c, 0, 83, 107
1, 35481, Note_off_c, 0, 83, 107
1, 35492, Note_on_c, 0, 85, 112
1, 35567, Note_off_c, 0, 85, 112
1, 35582, Note_on_c, 0, 78, 113
1, 35909, Note_off_c, 0, 78, 113
1, 36272, Note_on_c, 0, 80, 100
1, 36294, Note_off_c, 0, 80, 100
1, 36302, Note_on_c, 0, 82, 114
1, 36331, Note_off_c, 0, 82, 114
1, 36350, Note_on_c, 0, 84, 114
1, 36378, Note_off_c, 0, 84, 114
1, 36389, Note_on_c, 0, 84, 117
1, 36416, Note_off_c, 0, 84, 117
1, 36425, Note_on_c, 0, 84, 114
1, 36452, Note_off_c, 0, 84, 114
1, 36462, Note_on_c, 0, 84, 111
1, 36489, Note_off_c, 0, 84, 111
1, 36502, Note_on_c, 0, 84, 109
1, 36537, Note_off_c, 0, 84, 109
1, 36544, Note_on_c, 0, 84, 112
1, 36580, Note_off_c, 0, 84, 112
1, 36596, Note_on_c, 0, 84, 108
1, 36631, Note_off_c, 0, 84, 108
1, 36647, Note_on_c, 0, 84, 117
1, 36704, Note_off_c, 0, 84, 117
1, 36715, Note_on_c, 0, 81, 114
1, 36947, Note_off_c, 0, 81, 114
1, 37267, Note_on_c, 0, 81, 95
1, 37306, Note_off_c, 0, 81, 95
1, 37349, Note_on_c, 0, 87, 100
1, 37397, Note_off_c, 0, 87, 100
1, 37448, Note_on_c, 0, 79, 106
1, 37694, Note_off_c, 0, 79, 106
1, 37957, Note_on_c, 0, 80, 97
1, 37981, Note_off_c, 0, 80, 97
1, 38015, Note_on_c, 0, 84, 108
1, 38068, Note_off_c, 0, 84, 108
1, 38107, Note_on_c, 0, 77, 110
1, 38327, Note_off_c, 0, 77, 110
1, 38345, Note_on_c, 0, 79, 111
1, 38384, Note_off_c, 0, 79, 111
1, 38386, Note_on_c, 0, 81, 110
1, 38421, Note_off_c, 0, 81, 110
1, 38434, Note_on_c, 0, 79, 103
1, 38475, Note_off_c, 0, 79, 103
1, 38489, Note_on_c, 0, 77, 102
1, 38521, Note_off_c, 0, 77, 102
1, 38524, Note_on_c, 0, 76, 113
1, 38565, Note_off_c, 0, 76, 113
1, 38572, Note_on_c, 0, 75, 107
1, 38616, Note_off_c, 0, 75, 107
1, 38622, Note_on_c, 0, 79, 112
1, 38672, Note_off_c, 0, 79, 112
1, 38683, Note_on_c, 0, 76, 93
1, 38706, Note_off_c, 0, 76, 93
1, 38710, Note_on_c, 0, 74, 111
1, 38763, Note_off_c, 0, 74, 111
1, 38767, Note_on_c, 0, 72, 100
1, 38792, Note_off_c, 0, 72, 100
1, 38803, Note_on_c, 0, 77, 111
1, 38844, Note_off_c, 0, 77, 111
1, 38850, Note_on_c, 0, 76, 110
1, 38881, Note_off_c, 0, 76, 110
1, 38904, Note_on_c, 0, 72, 109
1, 38926, Note_off_c, 0, 72, 109
1, 38929, Note_on_c, 0, 74, 109
1, 38954, Note_off_c, 0, 74, 109
1, 38972, Note_on_c, 0, 70, 98
1, 39002, Note_off_c, 0, 70, 98
1, 39009, Note_on_c, 0, 67, 101
1, 39039, Note_off_c, 0, 67, 101
1, 39055, Note_on_c, 0, 72, 105
1, 39092, Note_off_c, 0, 72, 105
1, 39112, Note_on_c, 0, 69, 108
1, 39140, Note_off_c, 0, 69, 108
1, 39167, Note_on_c, 0, 65, 95
1, 39202, Note_off_c, 0, 65, 95
1, 39208, Note_on_c, 0, 70, 110
1, 39280, Note_off_c, 0, 70, 110
1, 39288, Note_on_c, 0, 72, 107
1, 39315, Note_off_c, 0, 72, 107
1, 39326, Note_on_c, 0, 73, 108
1, 39360, Note_off_c, 0, 73, 108
1, 39369, Note_on_c, 0, 75, 109
1, 39404, Note_off_c, 0, 75, 109
1, 39411, Note_on_c, 0, 77, 109
1, 39503, Note_off_c, 0, 77, 109
1, 39508, Note_on_c, 0, 72, 105
1, 39620, Note_off_c, 0, 72, 105
1, 39637, Note_on_c, 0, 73, 107
1, 39666, Note_off_c, 0, 73, 107
1, 39677, Note_on_c, 0, 75, 106
1, 39723, Note_off_c, 0, 75, 106
1, 39723, Note_on_c, 0, 68, 93
1, 39753, Note_off_c, 0, 68, 93
1, 39762, Note_on_c, 0, 70, 106
1, 39801, Note_off_c, 0, 70, 106
1, 39811, Note_on_c, 0, 73, 107
1, 39854, Note_off_c, 0, 73, 107
1, 39861, Note_on_c, 0, 71, 94
1, 39906, Note_off_c, 0, 71, 94
1, 39915, Note_on_c, 0, 68, 82
1, 39945, Note_off_c, 0, 68, 82
1, 39959, Note_on_c, 0, 69, 107
1, 39986, Note_off_c, 0, 69, 107
1, 40017, Note_on_c, 0, 71, 106
1, 40039, Note_off_c, 0, 71, 106
1, 40045, Note_on_c, 0, 73, 102
1, 40084, Note_off_c, 0, 73, 102
1, 40112, Note_on_c, 0, 78, 106
1, 40140, Note_off_c, 0, 78, 106
1, 40145, Note_on_c, 0, 76, 104
1, 40177, Note_off_c, 0, 76, 104
1, 40190, Note_on_c, 0, 73, 111
1, 40235, Note_off_c, 0, 73, 111
1, 40242, Note_on_c, 0, 71, 104
1, 40281, Note_off_c, 0, 71, 104
1, 40298, Note_on_c, 0, 69, 99
1, 40326, Note_off_c, 0, 69, 99
1, 40329, Note_on_c, 0, 76, 115
1, 40396, Note_off_c, 0, 76, 115
1, 41058, Note_on_c, 0, 75, 106
1, 41100, Note_off_c, 0, 75, 106
1, 41104, Note_on_c, 0, 77, 106
1, 41141, Note_off_c, 0, 77, 106
1, 41146, Note_on_c, 0, 78, 108
1, 41187, Note_off_c, 0, 78, 108
1, 41193, Note_on_c, 0, 80, 105
1, 41231, Note_off_c, 0, 80, 105
1, 41249, Note_on_c, 0, 77, 111
1, 41284, Note_off_c, 0, 77, 111
1, 41295, Note_on_c, 0, 75, 113
1, 41333, Note_off_c, 0, 75, 113
1, 41344, Note_on_c, 0, 73, 104
1, 41383, Note_off_c, 0, 73, 104
1, 41395, Note_on_c, 0, 70, 110
1, 41450, Note_off_c, 0, 70, 110
1, 41459, Note_on_c, 0, 68, 105
1, 41485, Note_off_c, 0, 68, 105
1, 41496, Note_on_c, 0, 65, 96
1, 41522, Note_off_c, 0, 65, 96
1, 41539, Note_on_c, 0, 70, 107
1, 41567, Note_off_c, 0, 70, 107
1, 41574, Note_on_c, 0, 75, 109
1, 41604, Note_off_c, 0, 75, 109
1, 41609, Note_on_c, 0, 72, 105
1, 41627, Note_off_c, 0, 72, 105
1, 41636, Note_on_c, 0, 68, 111
1, 41771, Note_off_c, 0, 68, 111
1, 41809, Note_on_c, 0, 70, 101
1, 41847, Note_off_c, 0, 70, 101
1, 41858, Note_on_c, 0, 73, 103
1, 41893, Note_off_c, 0, 73, 103
1, 41897, Note_on_c, 0, 72, 103
1, 41946, Note_off_c, 0, 72, 103
1, 41956, Note_on_c, 0, 70, 108
1, 41995, Note_off_c, 0, 70, 108
1, 42008, Note_on_c, 0, 68, 110
1, 42041, Note_off_c, 0, 68, 110
1, 42057, Note_on_c, 0, 67, 100
1, 42093, Note_off_c, 0, 67, 100
1, 42107, Note_on_c, 0, 70, 111
1, 42142, Note_off_c, 0, 70, 111
1, 42146, Note_on_c, 0, 69, 108
1, 42185, Note_off_c, 0, 69, 108
1, 42191, Note_on_c, 0, 68, 111
1, 42230, Note_off_c, 0, 68, 111
1, 42245, Note_on_c, 0, 63, 105
1, 42280, Note_off_c, 0, 63, 105
1, 42303, Note_on_c, 0, 60, 96
1, 42327, Note_off_c, 0, 60, 96
1, 42349, Note_on_c, 0, 65, 107
1, 42380, Note_off_c, 0, 65, 107
1, 42397, Note_on_c, 0, 63, 100
1, 42428, Note_off_c, 0, 63, 100
1, 42437, Note_on_c, 0, 56, 93
1, 42472, Note_off_c, 0, 56, 93
1, 42473, Note_on_c, 0, 58, 99
1, 42512, Note_off_c, 0, 58, 99
1, 42526, Note_on_c, 0, 63, 96
1, 42594, Note_off_c, 0, 63, 96
1, 42594, Note_on_c, 0, 67, 87
1, 42609, Note_off_c, 0, 67, 87
1, 42622, Note_on_c, 0, 70, 109
1, 42669, Note_off_c, 0, 70, 109
1, 42676, Note_on_c, 0, 75, 120
1, 42731, Note_off_c, 0, 75, 120
1, 42748, Note_on_c, 0, 75, 118
1, 42780, Note_off_c, 0, 75, 118
1, 42792, Note_on_c, 0, 75, 117
1, 42835, Note_off_c, 0, 75, 117
1, 42842, Note_on_c, 0, 75, 115
1, 42879, Note_off_c, 0, 75, 115
1, 42890, Note_on_c, 0, 75, 114
1, 42932, Note_off_c, 0, 75, 114
1, 42941, Note_on_c, 0, 75, 114
1, 42971, Note_off_c, 0, 75, 114
1, 42982, Note_on_c, 0, 75, 114
1, 43035, Note_off_c, 0, 75, 114
1, 43045, Note_on_c, 0, 75, 112
1, 43080, Note_off_c, 0, 75, 112
1, 43088, Note_on_c, 0, 75, 109
1, 43136, Note_off_c, 0, 75, 109
1, 43139, Note_on_c, 0, 75, 113
1, 43166, Note_off_c, 0, 75, 113
1, 43176, Note_on_c, 0, 75, 113
1, 43214, Note_off_c, 0, 75, 113
1, 43225, Note_on_c, 0, 75, 107
1, 43256, Note_off_c, 0, 75, 107
1, 43271, Note_on_c, 0, 75, 108
1, 43306, Note_off_c, 0, 75, 108
1, 43313, Note_on_c, 0, 75, 107
1, 43340, Note_off_c, 0, 75, 107
1, 43347, Note_on_c, 0, 75, 110
1, 43392, Note_off_c, 0, 75, 110
1, 43397, Note_on_c, 0, 75, 106
1, 43428, Note_off_c, 0, 75, 106
1, 43437, Note_on_c, 0, 75, 109
1, 43474, Note_off_c, 0, 75, 109
1, 43490, Note_on_c, 0, 75, 91
1, 43518, Note_off_c, 0, 75, 91
1, 43546, Note_on_c, 0, 68, 101
1, 43649, Note_off_c, 0, 68, 101
1, 44375, Note_on_c, 0, 76, 113
1, 44427, Note_off_c, 0, 76, 113
1, 44432, Note_on_c, 0, 78, 112
1, 44458, Note_off_c, 0, 78, 112
1, 44472, Note_on_c, 0, 76, 114
1, 44519, Note_off_c, 0, 76, 114
1, 44537, Note_on_c, 0, 76, 109
1, 44572, Note_off_c, 0, 76, 109
1, 44580, Note_on_c, 0, 76, 112
1, 44629, Note_off_c, 0, 76, 112
1, 44638, Note_on_c, 0, 76, 106
1, 44679, Note_off_c, 0, 76, 106
1, 44686, Note_on_c, 0, 76, 114
1, 44725, Note_off_c, 0, 76, 114
1, 44732, Note_on_c, 0, 76, 109
1, 44773, Note_off_c, 0, 76, 109
1, 44788, Note_on_c, 0, 76, 116
1, 44883, Note_off_c, 0, 76, 116
1, 44899, Note_on_c, 0, 78, 102
1, 44939, Note_off_c, 0, 78, 102
1, 44946, Note_on_c, 0, 79, 109
1, 44968, Note_off_c, 0, 79, 109
1, 44972, Note_on_c, 0, 80, 96
1, 45011, Note_off_c, 0, 80, 96
1, 45481, Note_on_c, 0, 81, 110
1, 45517, Note_off_c, 0, 81, 110
1, 45524, Note_on_c, 0, 82, 104
1, 45545, Note_off_c, 0, 82, 104
1, 45549, Note_on_c, 0, 84, 110
1, 45600, Note_off_c, 0, 84, 110
1, 46046, Note_on_c, 0, 79, 110
1, 46153, Note_off_c, 0, 79, 110
1, 46165, Note_on_c, 0, 84, 97
1, 46180, Note_off_c, 0, 84, 97
1, 46185, Note_on_c, 0, 87, 106
1, 46200, Note_off_c, 0, 87, 106
1, 46210, Note_on_c, 0, 86, 115
1, 46319, Note_off_c, 0, 86, 115
1, 46774, Note_on_c, 0, 77, 92
1, 46805, Note_off_c, 0, 77, 92
1, 46816, Note_on_c, 0, 84, 118
1, 46895, Note_off_c, 0, 84, 118
1, 46916, Note_on_c, 0, 79, 113
1, 47195, Note_off_c, 0, 79, 113
1, 47544, Note_on_c, 0, 77, 104
1, 47580, Note_off_c, 0, 77, 104
1, 47598, Note_on_c, 0, 79, 113
1, 47635, Note_off_c, 0, 79, 113
1, 47642, Note_on_c, 0, 79, 107
1, 47677, Note_off_c, 0, 79, 107
1, 47691, Note_on_c, 0, 82, 96
1, 47714, Note_off_c, 0, 82, 96
1, 47718, Note_on_c, 0, 81, 115
1, 47778, Note_off_c, 0, 81, 115
1, 47789, Note_on_c, 0, 79, 106
1, 47827, Note_off_c, 0, 79, 106
1, 47832, Note_on_c, 0, 77, 100
1, 47874, Note_off_c, 0, 77, 100
1, 47879, Note_on_c, 0, 76, 105
1, 47917, Note_off_c, 0, 76, 105
1, 47926, Note_on_c, 0, 75, 106
1, 47966, Note_off_c, 0, 75, 106
1, 47981, Note_on_c, 0, 79, 105
1, 48032, Note_off_c, 0, 79, 105
1, 48035, Note_on_c, 0, 77, 99
1, 48060, Note_off_c, 0, 77, 99
1, 48070, Note_on_c, 0, 74, 109
1, 48105, Note_off_c, 0, 74, 109
1, 48118, Note_on_c, 0, 72, 99
1, 48142, Note_off_c, 0, 72, 99
1, 48161, Note_on_c, 0, 77, 107
1, 48196, Note_off_c, 0, 77, 107
1, 48212, Note_on_c, 0, 72, 103
1, 48245, Note_off_c, 0, 72, 103
1, 48252, Note_on_c, 0, 73, 106
1, 48293, Note_off_c, 0, 73, 106
1, 48304, Note_on_c, 0, 75, 101
1, 48334, Note_off_c, 0, 75, 101
1, 48341, Note_on_c, 0, 68, 99
1, 48377, Note_off_c, 0, 68, 99
1, 48380, Note_on_c, 0, 69, 91
1, 48416, Note_off_c, 0, 69, 91
1, 48427, Note_on_c, 0, 73, 106
1, 48471, Note_off_c, 0, 73, 106
1, 48484, Note_on_c, 0, 71, 107
1, 48511, Note_off_c, 0, 71, 107
1, 48549, Note_on_c, 0, 65, 98
1, 48586, Note_off_c, 0, 65, 98
1, 48592, Note_on_c, 0, 69, 102
1, 48619, Note_off_c, 0, 69, 102
1, 48628, Note_on_c, 0, 72, 102
1, 48655, Note_off_c, 0, 72, 102
1, 48664, Note_on_c, 0, 73, 103
1, 48707, Note_off_c, 0, 73, 103
1, 48718, Note_on_c, 0, 78, 111
1, 48757, Note_off_c, 0, 78, 111
1, 48761, Note_on_c, 0, 76, 104
1, 48788, Note_off_c, 0, 76, 104
1, 48798, Note_on_c, 0, 73, 111
1, 48835, Note_off_c, 0, 73, 111
1, 48844, Note_on_c, 0, 71, 105
1, 48871, Note_off_c, 0, 71, 105
1, 48894, Note_on_c, 0, 76, 120
1, 48937, Note_off_c, 0, 76, 120
1, 48942, Note_on_c, 0, 77, 109
1, 48978, Note_off_c, 0, 77, 109
1, 48993, Note_on_c, 0, 73, 107
1, 49021, Note_off_c, 0, 73, 107
1, 49027, Note_on_c, 0, 72, 101
1, 49070, Note_off_c, 0, 72, 101
1, 49080, Note_on_c, 0, 70, 104
1, 49109, Note_off_c, 0, 70, 104
1, 49120, Note_on_c, 0, 75, 111
1, 49154, Note_off_c, 0, 75, 111
1, 49157, Note_on_c, 0, 73, 107
1, 49176, Note_off_c, 0, 73, 107
1, 49184, Note_on_c, 0, 71, 99
1, 49208, Note_off_c, 0, 71, 99
1, 49226, Note_on_c, 0, 70, 105
1, 49267, Note_off_c, 0, 70, 105
1, 49286, Note_on_c, 0, 67, 90
1, 49316, Note_off_c, 0, 67, 90
1, 49324, Note_on_c, 0, 73, 111
1, 49454, Note_off_c, 0, 73, 111
1, 49970, Note_on_c, 0, 78, 111
1, 49993, Note_off_c, 0, 78, 111
1, 49996, Note_on_c, 0, 80, 106
1, 50008, Note_off_c, 0, 80, 106
1, 50015, Note_on_c, 0, 82, 111
1, 50081, Note_off_c, 0, 82, 111
1, 50095, Note_on_c, 0, 82, 110
1, 50147, Note_off_c, 0, 82, 110
1, 50159, Note_on_c, 0, 82, 111
1, 50204, Note_off_c, 0, 82, 111
1, 50230, Note_on_c, 0, 82, 111
1, 50277, Note_off_c, 0, 82, 111
1, 50292, Note_on_c, 0, 82, 113
1, 50339, Note_off_c, 0, 82, 113
1, 50360, Note_on_c, 0, 82, 112
1, 50399, Note_off_c, 0, 82, 112
1, 50418, Note_on_c, 0, 82, 110
1, 50539, Note_off_c, 0, 82, 110
1, 50585, Note_on_c, 0, 79, 105
1, 50643, Note_off_c, 0, 79, 105
1, 50646, Note_on_c, 0, 80, 110
1, 50725, Note_off_c, 0, 80, 110
1, 50738, Note_on_c, 0, 77, 113
1, 50884, Note_off_c, 0, 77, 113
1, 50894, Note_on_c, 0, 72, 108
1, 51010, Note_off_c, 0, 72, 108
1, 51025, Note_on_c, 0, 73, 107
1, 51062, Note_off_c, 0, 73, 107
1, 51069, Note_on_c, 0, 75, 112
1, 51108, Note_off_c, 0, 75, 112
1, 51132, Note_on_c, 0, 68, 105
1, 51159, Note_off_c, 0, 68, 105
1, 51169, Note_on_c, 0, 70, 105
1, 51204, Note_off_c, 0, 70, 105
1, 51210, Note_on_c, 0, 73, 105
1, 51248, Note_off_c, 0, 73, 105
1, 51252, Note_on_c, 0, 72, 106
1, 51299, Note_off_c, 0, 72, 106
1, 51318, Note_on_c, 0, 70, 109
1, 51360, Note_off_c, 0, 70, 109
1, 51368, Note_on_c, 0, 68, 108
1, 51401, Note_off_c, 0, 68, 108
1, 51415, Note_on_c, 0, 66, 92
1, 51444, Note_off_c, 0, 66, 92
1, 51460, Note_on_c, 0, 70, 110
1, 51498, Note_off_c, 0, 70, 110
1, 51509, Note_on_c, 0, 69, 103
1, 51554, Note_off_c, 0, 69, 103
1, 51561, Note_on_c, 0, 68, 100
1, 51600, Note_off_c, 0, 68, 100
1, 51611, Note_on_c, 0, 63, 103
1, 51644, Note_off_c, 0, 63, 103
1, 51651, Note_on_c, 0, 60, 93
1, 51695, Note_off_c, 0, 60, 93
1, 51710, Note_on_c, 0, 65, 105
1, 51744, Note_off_c, 0, 65, 105
1, 51750, Note_on_c, 0, 63, 103
1, 51794, Note_off_c, 0, 63, 103
1, 51804, Note_on_c, 0, 57, 91
1, 51838, Note_off_c, 0, 57, 91
1, 51848, Note_on_c, 0, 58, 97
1, 51874, Note_off_c, 0, 58, 97
1, 51879, Note_on_c, 0, 61, 103
1, 51914, Note_off_c, 0, 61, 103
1, 51914, Note_on_c, 0, 63, 103
1, 51941, Note_off_c, 0, 63, 103
1, 51947, Note_on_c, 0, 65, 106
1, 51985, Note_off_c, 0, 65, 106
1, 52015, Note_on_c, 0, 70, 107
1, 52063, Note_off_c, 0, 70, 107
1, 52103, Note_on_c, 0, 75, 117
1, 52186, Note_off_c, 0, 75, 117
1, 52205, Note_on_c, 0, 72, 107
1, 52387, Note_off_c, 0, 72, 107
1, 52409, Note_on_c, 0, 67, 102
1, 52464, Note_off_c, 0, 67, 102
1, 52492, Note_on_c, 0, 72, 85
1, 52562, Note_off_c, 0, 72, 85
1, 53232, Note_on_c, 0, 80, 113
1, 53286, Note_off_c, 0, 80, 113
1, 53297, Note_on_c, 0, 78, 111
1, 53339, Note_off_c, 0, 78, 111
1, 53354, Note_on_c, 0, 76, 108
1, 53532, Note_off_c, 0, 76, 108
1, 53535, Note_on_c, 0, 73, 105
1, 53678, Note_off_c, 0, 73, 105
1, 53681, Note_on_c, 0, 71, 107
1, 53717, Note_off_c, 0, 71, 107
1, 53727, Note_on_c, 0, 73, 111
1, 53761, Note_off_c, 0, 73, 111
1, 53772, Note_on_c, 0, 78, 113
1, 53802, Note_off_c, 0, 78, 113
1, 53809, Note_on_c, 0, 76, 114
1, 53842, Note_off_c, 0, 76, 114
1, 53854, Note_on_c, 0, 73, 117
1, 53898, Note_off_c, 0, 73, 117
1, 53907, Note_on_c, 0, 71, 112
1, 53938, Note_off_c, 0, 71, 112
1, 53941, Note_on_c, 0, 70, 101
1, 53964, Note_off_c, 0, 70, 101
1, 53975, Note_on_c, 0, 76, 91
1, 54024, Note_off_c, 0, 76, 91
1, 54384, Note_on_c, 0, 81, 119
1, 54467, Note_off_c, 0, 81, 119
1, 54498, Note_on_c, 0, 74, 105
1, 54542, Note_off_c, 0, 74, 105
1, 54867, Note_on_c, 0, 75, 108
1, 54909, Note_off_c, 0, 75, 108
1, 54935, Note_on_c, 0, 82, 116
1, 55048, Note_off_c, 0, 82, 116
1, 55055, Note_on_c, 0, 82, 112
1, 55101, Note_off_c, 0, 82, 112
1, 55107, Note_on_c, 0, 82, 113
1, 55157, Note_off_c, 0, 82, 113
1, 55629, Note_on_c, 0, 79, 111
1, 55652, Note_off_c, 0, 79, 111
1, 55657, Note_on_c, 0, 81, 113
1, 55720, Note_off_c, 0, 81, 113
1, 55834, Note_on_c, 0, 79, 115
1, 55968, Note_off_c, 0, 79, 115
1, 56004, Note_on_c, 0, 75, 98
1, 56067, Note_off_c, 0, 75, 98
1, 56076, Note_on_c, 0, 78, 114
1, 56169, Note_off_c, 0, 78, 114
1, 56193, Note_on_c, 0, 75, 117
1, 56256, Note_off_c, 0, 75, 117
1, 56285, Note_on_c, 0, 71, 103
1, 56393, Note_off_c, 0, 71, 103
1, 56421, Note_on_c, 0, 68, 92
1, 56452, Note_off_c, 0, 68, 92
1, 56467, Note_on_c, 0, 73, 113
1, 56575, Note_off_c, 0, 73, 113
1, 56604, Note_on_c, 0, 69, 97
1, 56634, Note_off_c, 0, 69, 97
1, 56649, Note_on_c, 0, 76, 117
1, 56743, Note_off_c, 0, 76, 117
1, 56754, Note_on_c, 0, 71, 101
1, 56877, Note_off_c, 0, 71, 101
1, 57198, Note_on_c, 0, 77, 114
1, 57282, Note_off_c, 0, 77, 114
1, 57292, Note_on_c, 0, 75, 120
1, 57371, Note_off_c, 0, 75, 120
1, 57400, Note_on_c, 0, 70, 111
1, 57508, Note_off_c, 0, 70, 111
1, 57550, Note_on_c, 0, 69, 92
1, 57572, Note_off_c, 0, 69, 92
1, 57581, Note_on_c, 0, 76, 114
1, 57660, Note_off_c, 0, 76, 114
1, 57683, Note_on_c, 0, 71, 106
1, 57758, Note_off_c, 0, 71, 106
1, 57764, Note_on_c, 0, 73, 113
1, 57839, Note_off_c, 0, 73, 113
1, 57862, Note_on_c, 0, 76, 118
1, 57927, Note_off_c, 0, 76, 118
1, 57945, Note_on_c, 0, 71, 107
1, 58035, Note_off_c, 0, 71, 107
1, 58051, Note_on_c, 0, 68, 107
1, 58206, Note_off_c, 0, 68, 107
1, 58245, Note_on_c, 0, 65, 102
1, 58282, Note_off_c, 0, 65, 102
1, 58321, Note_on_c, 0, 75, 118
1, 58408, Note_off_c, 0, 75, 118
1, 58425, Note_on_c, 0, 70, 110
1, 58496, Note_off_c, 0, 70, 110
1, 58500, Note_on_c, 0, 67, 107
1, 58592, Note_off_c, 0, 67, 107
1, 58639, Note_on_c, 0, 65, 100
1, 58658, Note_off_c, 0, 65, 100
1, 58677, Note_on_c, 0, 70, 113
1, 58788, Note_off_c, 0, 70, 113
1, 58823, Note_on_c, 0, 67, 106
1, 58858, Note_off_c, 0, 67, 106
1, 58875, Note_on_c, 0, 69, 111
1, 58958, Note_off_c, 0, 69, 111
1, 59009, Note_on_c, 0, 74, 119
1, 59069, Note_off_c, 0, 74, 119
1, 59085, Note_on_c, 0, 74, 116
1, 59167, Note_off_c, 0, 74, 116
1, 59175, Note_on_c, 0, 74, 118
1, 59238, Note_off_c, 0, 74, 118
1, 59249, Note_on_c, 0, 74, 118
1, 59299, Note_off_c, 0, 74, 118
1, 59312, Note_on_c, 0, 74, 115
1, 59395, Note_off_c, 0, 74, 115
1, 59413, Note_on_c, 0, 70, 91
1, 59439, Note_off_c, 0, 70, 91
1, 59452, Note_on_c, 0, 74, 114
1, 59638, Note_off_c, 0, 74, 114
1, 60231, Note_on_c, 0, 77, 110
1, 60250, Note_off_c, 0, 77, 110
1, 60254, Note_on_c, 0, 79, 110
1, 60282, Note_off_c, 0, 79, 110
1, 60290, Note_on_c, 0, 81, 98
1, 61061, Note_off_c, 0, 81, 98
1, 61099, Note_on_c, 0, 79, 105
1, 61162, Note_off_c, 0, 79, 105
1, 61182, Note_on_c, 0, 77, 105
1, 61256, Note_off_c, 0, 77, 105
1, 61263, Note_on_c, 0, 79, 107
1, 61320, Note_off_c, 0, 79, 107
1, 61330, Note_on_c, 0, 81, 107
1, 61564, Note_off_c, 0, 81, 107
1, 62195, Note_on_c, 0, 79, 103
1, 62221, Note_off_c, 0, 79, 103
1, 62230, Note_on_c, 0, 82, 110
1, 62311, Note_off_c, 0, 82, 110
1, 62323, Note_on_c, 0, 81, 107
1, 62348, Note_off_c, 0, 81, 107
1, 62355, Note_on_c, 0, 80, 102
1, 62382, Note_off_c, 0, 80, 102
1, 62393, Note_on_c, 0, 79, 103
1, 62423, Note_off_c, 0, 79, 103
1, 62430, Note_on_c, 0, 78, 110
1, 62521, Note_off_c, 0, 78, 110
1, 62547, Note_on_c, 0, 79, 103
1, 62563, Note_off_c, 0, 79, 103
1, 62573, Note_on_c, 0, 78, 112
1, 62593, Note_off_c, 0, 78, 112
1, 62598, Note_on_c, 0, 77, 106
1, 62621, Note_off_c, 0, 77, 106
1, 62630, Note_on_c, 0, 76, 113
1, 62669, Note_off_c, 0, 76, 113
1, 62673, Note_on_c, 0, 75, 106
1, 62706, Note_off_c, 0, 75, 106
1, 62724, Note_on_c, 0, 78, 112
1, 62767, Note_off_c, 0, 78, 112
1, 62778, Note_on_c, 0, 76, 109
1, 62791, Note_off_c, 0, 76, 109
1, 62805, Note_on_c, 0, 73, 115
1, 62854, Note_off_c, 0, 73, 115
1, 62865, Note_on_c, 0, 71, 101
1, 62893, Note_off_c, 0, 71, 101
1, 62907, Note_on_c, 0, 76, 113
1, 62955, Note_off_c, 0, 76, 113
1, 62962, Note_on_c, 0, 77, 101
1, 62986, Note_off_c, 0, 77, 101
1, 62992, Note_on_c, 0, 73, 115
1, 63032, Note_off_c, 0, 73, 115
1, 63039, Note_on_c, 0, 72, 104
1, 63085, Note_off_c, 0, 72, 104
1, 63098, Note_on_c, 0, 70, 105
1, 63122, Note_off_c, 0, 70, 105
1, 63134, Note_on_c, 0, 75, 116
1, 63236, Note_off_c, 0, 75, 116
1, 63245, Note_on_c, 0, 75, 116
1, 63272, Note_off_c, 0, 75, 116
1, 63287, Note_on_c, 0, 75, 114
1, 63318, Note_off_c, 0, 75, 114
1, 63337, Note_on_c, 0, 75, 117
1, 63368, Note_off_c, 0, 75, 117
1, 63379, Note_on_c, 0, 75, 113
1, 63569, Note_off_c, 0, 75, 113
1, 63612, Note_on_c, 0, 77, 113
1, 63713, Note_off_c, 0, 77, 113
1, 63727, Note_on_c, 0, 72, 112
1, 63860, Note_off_c, 0, 72, 112
1, 63892, Note_on_c, 0, 70, 113
1, 63955, Note_off_c, 0, 70, 113
1, 63978, Note_on_c, 0, 75, 115
1, 64073, Note_off_c, 0, 75, 115
1, 64081, Note_on_c, 0, 70, 104
1, 64152, Note_off_c, 0, 70, 104
1, 64164, Note_on_c, 0, 65, 111
1, 64255, Note_off_c, 0, 65, 111
1, 64269, Note_on_c, 0, 63, 98
1, 64331, Note_off_c, 0, 63, 98
1, 64333, Note_on_c, 0, 70, 113
1, 64465, Note_off_c, 0, 70, 113
1, 64524, Note_on_c, 0, 75, 115
1, 64666, Note_off_c, 0, 75, 115
1, 64698, Note_on_c, 0, 77, 107
1, 64900, Note_off_c, 0, 77, 107
1, 65649, Note_on_c, 0, 79, 88
1, 65696, Note_off_c, 0, 79, 88
1, 65707, Note_on_c, 0, 84, 108
1, 65803, Note_off_c, 0, 84, 108
1, 65825, Note_on_c, 0, 87, 111
1, 65960, Note_off_c, 0, 87, 111
1, 66557, Note_on_c, 0, 82, 92
1, 66596, Note_off_c, 0, 82, 92
1, 66613, Note_on_c, 0, 85, 105
1, 67255, Note_off_c, 0, 85, 105
1, 67275, Note_on_c, 0, 83, 96
1, 67350, Note_off_c, 0, 83, 96
1, 67376, Note_on_c, 0, 80, 100
1, 67626, Note_off_c, 0, 80, 100
1, 68032, Note_on_c, 0, 78, 92
1, 68076, Note_off_c, 0, 78, 92
1, 68077, Note_on_c, 0, 81, 116
1, 68168, Note_off_c, 0, 81, 116
1, 68177, Note_on_c, 0, 79, 110
1, 68210, Note_off_c, 0, 79, 110
1, 68216, Note_on_c, 0, 77, 106
1, 68265, Note_off_c, 0, 77, 106
1, 68276, Note_on_c, 0, 76, 112
1, 68305, Note_off_c, 0, 76, 112
1, 68314, Note_on_c, 0, 75, 109
1, 68353, Note_off_c, 0, 75, 109
1, 68369, Note_on_c, 0, 79, 113
1, 68398, Note_off_c, 0, 79, 113
1, 68404, Note_on_c, 0, 77, 103
1, 68427, Note_off_c, 0, 77, 103
1, 68442, Note_on_c, 0, 74, 111
1, 68493, Note_off_c, 0, 74, 111
1, 68505, Note_on_c, 0, 72, 108
1, 68536, Note_off_c, 0, 72, 108
1, 68546, Note_on_c, 0, 77, 116
1, 68582, Note_off_c, 0, 77, 116
1, 68588, Note_on_c, 0, 75, 116
1, 68624, Note_off_c, 0, 75, 116
1, 68629, Note_on_c, 0, 73, 114
1, 68656, Note_off_c, 0, 73, 114
1, 68668, Note_on_c, 0, 74, 117
1, 68787, Note_off_c, 0, 74, 117
1, 68789, Note_on_c, 0, 73, 111
1, 68812, Note_off_c, 0, 73, 111
1, 68819, Note_on_c, 0, 72, 109
1, 68854, Note_off_c, 0, 72, 109
1, 68865, Note_on_c, 0, 74, 106
1, 68907, Note_off_c, 0, 74, 106
1, 68914, Note_on_c, 0, 70, 96
1, 68945, Note_off_c, 0, 70, 96
1, 68957, Note_on_c, 0, 73, 111
1, 69004, Note_off_c, 0, 73, 111
1, 69009, Note_on_c, 0, 70, 106
1, 69038, Note_off_c, 0, 70, 106
1, 69045, Note_on_c, 0, 69, 108
1, 69089, Note_off_c, 0, 69, 108
1, 69092, Note_on_c, 0, 67, 105
1, 69131, Note_off_c, 0, 67, 105
1, 69156, Note_on_c, 0, 65, 97
1, 69192, Note_off_c, 0, 65, 97
1, 69205, Note_on_c, 0, 69, 104
1, 69236, Note_off_c, 0, 69, 104
1, 69238, Note_on_c, 0, 71, 102
1, 69274, Note_off_c, 0, 71, 102
1, 69281, Note_on_c, 0, 73, 114
1, 69320, Note_off_c, 0, 73, 114
1, 69335, Note_on_c, 0, 78, 118
1, 69371, Note_off_c, 0, 78, 118
1, 69378, Note_on_c, 0, 76, 106
1, 69409, Note_off_c, 0, 76, 106
1, 69416, Note_on_c, 0, 73, 115
1, 69448, Note_off_c, 0, 73, 115
1, 69453, Note_on_c, 0, 71, 114
1, 69486, Note_off_c, 0, 71, 114
1, 69512, Note_on_c, 0, 76, 114
1, 69546, Note_off_c, 0, 76, 114
1, 69553, Note_on_c, 0, 77, 116
1, 69588, Note_off_c, 0, 77, 116
1, 69592, Note_on_c, 0, 76, 115
1, 69631, Note_off_c, 0, 76, 115
1, 69639, Note_on_c, 0, 75, 116
1, 69698, Note_off_c, 0, 75, 116
1, 69712, Note_on_c, 0, 79, 109
1, 69763, Note_off_c, 0, 79, 109
1, 70266, Note_on_c, 0, 77, 109
1, 70297, Note_off_c, 0, 77, 109
1, 70301, Note_on_c, 0, 75, 113
1, 70340, Note_off_c, 0, 75, 113
1, 70347, Note_on_c, 0, 77, 101
1, 70374, Note_off_c, 0, 77, 101
1, 70379, Note_on_c, 0, 78, 106
1, 70425, Note_off_c, 0, 78, 106
1, 70449, Note_on_c, 0, 80, 104
1, 70481, Note_off_c, 0, 80, 104
1, 70487, Note_on_c, 0, 77, 111
1, 70522, Note_off_c, 0, 77, 111
1, 70529, Note_on_c, 0, 76, 111
1, 70565, Note_off_c, 0, 76, 111
1, 70579, Note_on_c, 0, 75, 101
1, 70617, Note_off_c, 0, 75, 101
1, 70628, Note_on_c, 0, 78, 115
1, 70663, Note_off_c, 0, 78, 115
1, 70671, Note_on_c, 0, 76, 103
1, 70706, Note_off_c, 0, 76, 103
1, 70714, Note_on_c, 0, 73, 114
1, 70757, Note_off_c, 0, 73, 114
1, 70764, Note_on_c, 0, 71, 105
1, 70791, Note_off_c, 0, 71, 105
1, 70803, Note_on_c, 0, 69, 90
1, 70834, Note_off_c, 0, 69, 90
1, 70838, Note_on_c, 0, 77, 108
1, 70884, Note_off_c, 0, 77, 108
1, 70901, Note_on_c, 0, 73, 112
1, 70938, Note_off_c, 0, 73, 112
1, 70945, Note_on_c, 0, 71, 103
1, 70978, Note_off_c, 0, 71, 103
1, 70983, Note_on_c, 0, 70, 95
1, 71019, Note_off_c, 0, 70, 95
1, 71026, Note_on_c, 0, 75, 116
1, 71073, Note_off_c, 0, 75, 116
1, 71084, Note_on_c, 0, 71, 109
1, 71116, Note_off_c, 0, 71, 109
1, 71119, Note_on_c, 0, 70, 102
1, 71166, Note_off_c, 0, 70, 102
1, 71173, Note_on_c, 0, 69, 94
1, 71190, Note_off_c, 0, 69, 94
1, 71221, Note_on_c, 0, 72, 112
1, 71276, Note_off_c, 0, 72, 112
1, 71283, Note_on_c, 0, 71, 107
1, 71337, Note_off_c, 0, 71, 107
1, 71345, Note_on_c, 0, 75, 101
1, 71368, Note_off_c, 0, 75, 101
1, 71369, Note_on_c, 0, 73, 109
1, 71397, Note_off_c, 0, 73, 109
1, 71422, Note_on_c, 0, 69, 105
1, 71448, Note_off_c, 0, 69, 105
1, 71455, Note_on_c, 0, 68, 107
1, 71503, Note_off_c, 0, 68, 107
1, 71509, Note_on_c, 0, 65, 101
1, 71547, Note_off_c, 0, 65, 101
1, 71559, Note_on_c, 0, 70, 108
1, 71587, Note_off_c, 0, 70, 108
1, 71595, Note_on_c, 0, 68, 106
1, 71622, Note_off_c, 0, 68, 106
1, 71626, Note_on_c, 0, 69, 97
1, 71656, Note_off_c, 0, 69, 97
1, 72209, Note_on_c, 0, 77, 105
1, 72240, Note_off_c, 0, 77, 105
1, 72248, Note_on_c, 0, 75, 109
1, 72279, Note_off_c, 0, 75, 109
1, 72289, Note_on_c, 0, 73, 113
1, 72332, Note_off_c, 0, 73, 113
1, 72343, Note_on_c, 0, 75, 110
1, 72376, Note_off_c, 0, 75, 110
1, 72415, Note_on_c, 0, 68, 95
1, 72436, Note_off_c, 0, 68, 95
1, 72443, Note_on_c, 0, 70, 104
1, 72470, Note_off_c, 0, 70, 104
1, 72481, Note_on_c, 0, 73, 110
1, 72523, Note_off_c, 0, 73, 110
1, 72528, Note_on_c, 0, 72, 113
1, 72563, Note_off_c, 0, 72, 113
1, 72574, Note_on_c, 0, 70, 113
1, 72637, Note_off_c, 0, 70, 113
1, 72646, Note_on_c, 0, 68, 102
1, 72673, Note_off_c, 0, 68, 102
1, 72678, Note_on_c, 0, 66, 99
1, 72709, Note_off_c, 0, 66, 99
1, 72713, Note_on_c, 0, 70, 111
1, 72764, Note_off_c, 0, 70, 111
1, 72771, Note_on_c, 0, 69, 109
1, 72806, Note_off_c, 0, 69, 109
1, 72816, Note_on_c, 0, 68, 108
1, 72852, Note_off_c, 0, 68, 108
1, 72870, Note_on_c, 0, 63, 97
1, 72898, Note_off_c, 0, 63, 97
1, 72902, Note_on_c, 0, 65, 95
1, 72933, Note_off_c, 0, 65, 95
1, 72960, Note_on_c, 0, 65, 110
1, 72997, Note_off_c, 0, 65, 110
1, 73004, Note_on_c, 0, 63, 104
1, 73044, Note_off_c, 0, 63, 104
1, 73054, Note_on_c, 0, 56, 98
1, 73097, Note_off_c, 0, 56, 98
1, 73104, Note_on_c, 0, 58, 102
1, 73298, Note_off_c, 0, 58, 102
1, 73314, Note_on_c, 0, 57, 100
1, 73335, Note_off_c, 0, 57, 100
1, 73343, Note_on_c, 0, 58, 102
1, 73365, Note_off_c, 0, 58, 102
1, 73377, Note_on_c, 0, 61, 103
1, 73404, Note_off_c, 0, 61, 103
1, 73412, Note_on_c, 0, 60, 100
1, 73437, Note_off_c, 0, 60, 100
1, 73480, Note_on_c, 0, 70, 105
1, 73515, Note_off_c, 0, 70, 105
1, 73518, Note_on_c, 0, 69, 105
1, 73553, Note_off_c, 0, 69, 105
1, 73570, Note_on_c, 0, 70, 102
1, 73988, Note_off_c, 0, 70, 102
1, 74499, Note_on_c, 0, 75, 111
1, 74541, Note_off_c, 0, 75, 111
1, 74564, Note_on_c, 0, 77, 93
1, 74577, Note_off_c, 0, 77, 93
1, 74582, Note_on_c, 0, 78, 106
1, 74632, Note_off_c, 0, 78, 106
1, 74649, Note_on_c, 0, 80, 109
1, 74689, Note_off_c, 0, 80, 109
1, 74695, Note_on_c, 0, 77, 113
1, 74734, Note_off_c, 0, 77, 113
1, 74746, Note_on_c, 0, 76, 114
1, 74790, Note_off_c, 0, 76, 114
1, 74801, Note_on_c, 0, 75, 108
1, 74839, Note_off_c, 0, 75, 108
1, 74858, Note_on_c, 0, 78, 112
1, 74906, Note_off_c, 0, 78, 112
1, 74913, Note_on_c, 0, 76, 113
1, 74936, Note_off_c, 0, 76, 113
1, 74939, Note_on_c, 0, 75, 97
1, 74960, Note_off_c, 0, 75, 97
1, 74963, Note_on_c, 0, 73, 111
1, 75002, Note_off_c, 0, 73, 111
1, 75006, Note_on_c, 0, 71, 109
1, 75047, Note_off_c, 0, 71, 109
1, 75066, Note_on_c, 0, 69, 102
1, 75087, Note_off_c, 0, 69, 102
1, 75092, Note_on_c, 0, 76, 110
1, 75121, Note_off_c, 0, 76, 110
1, 75131, Note_on_c, 0, 71, 110
1, 75172, Note_off_c, 0, 71, 110
1, 75177, Note_on_c, 0, 73, 108
1, 75217, Note_off_c, 0, 73, 108
1, 75223, Note_on_c, 0, 69, 108
1, 75252, Note_off_c, 0, 69, 108
1, 75259, Note_on_c, 0, 66, 98
1, 75306, Note_off_c, 0, 66, 98
1, 75322, Note_on_c, 0, 71, 102
1, 75366, Note_off_c, 0, 71, 102
1, 75369, Note_on_c, 0, 68, 109
1, 75412, Note_off_c, 0, 68, 109
1, 75414, Note_on_c, 0, 64, 98
1, 75452, Note_off_c, 0, 64, 98
1, 75461, Note_on_c, 0, 69, 112
1, 75588, Note_off_c, 0, 69, 112
1, 75599, Note_on_c, 0, 65, 97
1, 75632, Note_off_c, 0, 65, 97
1, 75653, Note_on_c, 0, 70, 112
1, 75761, Note_off_c, 0, 70, 112
1, 75780, Note_on_c, 0, 67, 98
1, 75809, Note_off_c, 0, 67, 98
1, 75832, Note_on_c, 0, 71, 102
1, 75901, Note_off_c, 0, 71, 102
1, 75908, Note_on_c, 0, 72, 98
1, 75994, Note_off_c, 0, 72, 98
1, 76013, Note_on_c, 0, 73, 102
1, 76091, Note_off_c, 0, 73, 102
1, 76166, Note_on_c, 0, 73, 112
1, 76253, Note_off_c, 0, 73, 112
1, 76278, Note_on_c, 0, 74, 113
1, 76704, Note_off_c, 0, 74, 113
1, 76718, Note_on_c, 0, 74, 110
1, 76745, Note_off_c, 0, 74, 110
1, 76768, Note_on_c, 0, 74, 109
1, 76892, Note_off_c, 0, 74, 109
1, 76904, Note_on_c, 0, 74, 108
1, 76934, Note_off_c, 0, 74, 108
1, 76949, Note_on_c, 0, 74, 110
1, 77086, Note_off_c, 0, 74, 110
1, 77098, Note_on_c, 0, 74, 107
1, 77134, Note_off_c, 0, 74, 107
1, 77146, Note_on_c, 0, 74, 109
1, 77259, Note_off_c, 0, 74, 109
1, 77281, Note_on_c, 0, 74, 97
1, 77324, Note_off_c, 0, 74, 97
1, 78303, Note_on_c, 0, 69, 106
1, 78354, Note_off_c, 0, 69, 106
1, 78398, Note_on_c, 0, 76, 113
1, 78476, Note_off_c, 0, 76, 113
1, 78488, Note_on_c, 0, 74, 110
1, 78568, Note_off_c, 0, 74, 110
1, 78603, Note_on_c, 0, 71, 102
1, 78680, Note_off_c, 0, 71, 102
1, 78695, Note_on_c, 0, 69, 106
1, 78812, Note_off_c, 0, 69, 106
1, 78827, Note_on_c, 0, 64, 93
1, 78865, Note_off_c, 0, 64, 93
1, 78880, Note_on_c, 0, 67, 103
1, 78914, Note_off_c, 0, 67, 103
1, 78928, Note_on_c, 0, 69, 105
1, 79015, Note_off_c, 0, 69, 105
1, 79031, Note_on_c, 0, 67, 105
1, 79088, Note_off_c, 0, 67, 105
1, 79155, Note_on_c, 0, 73, 111
1, 79221, Note_off_c, 0, 73, 111
1, 79225, Note_on_c, 0, 74, 108
1, 79311, Note_off_c, 0, 74, 108
1, 79326, Note_on_c, 0, 69, 103
1, 79503, Note_off_c, 0, 69, 103
1, 79515, Note_on_c, 0, 65, 90
1, 79555, Note_off_c, 0, 65, 90
1, 79561, Note_on_c, 0, 70, 108
1, 79678, Note_off_c, 0, 70, 108
1, 79686, Note_on_c, 0, 67, 88
1, 79981, Note_off_c, 0, 67, 88
1, 80001, Note_on_c, 0, 70, 103
1, 80070, Note_off_c, 0, 70, 103
1, 80084, Note_on_c, 0, 69, 102
1, 80162, Note_off_c, 0, 69, 102
1, 80190, Note_on_c, 0, 64, 101
1, 80237, Note_off_c, 0, 64, 101
1, 80261, Note_on_c, 0, 61, 97
1, 80353, Note_off_c, 0, 61, 97
1, 80378, Note_on_c, 0, 58, 102
1, 80454, Note_off_c, 0, 58, 102
1, 80468, Note_on_c, 0, 57, 100
1, 80667, Note_off_c, 0, 57, 100
1, 81342, Note_on_c, 0, 65, 105
1, 81411, Note_off_c, 0, 65, 105
1, 81426, Note_on_c, 0, 60, 87
1, 81487, Note_off_c, 0, 60, 87
1, 81542, Note_on_c, 0, 65, 103
1, 81621, Note_off_c, 0, 65, 103
1, 81634, Note_on_c, 0, 70, 110
1, 81720, Note_off_c, 0, 70, 110
1, 81739, Note_on_c, 0, 75, 118
1, 81810, Note_off_c, 0, 75, 118
1, 81821, Note_on_c, 0, 77, 116
1, 81926, Note_off_c, 0, 77, 116
1, 82023, Note_on_c, 0, 72, 102
1, 82135, Note_off_c, 0, 72, 102
1, 82762, Note_on_c, 0, 77, 113
1, 82876, Note_off_c, 0, 77, 113
1, 82916, Note_on_c, 0, 75, 117
1, 82993, Note_off_c, 0, 75, 117
1, 83019, Note_on_c, 0, 70, 109
1, 83094, Note_off_c, 0, 70, 109
1, 83120, Note_on_c, 0, 65, 101
1, 83178, Note_off_c, 0, 65, 101
1, 83201, Note_on_c, 0, 60, 93
1, 83262, Note_off_c, 0, 60, 93
1, 83299, Note_on_c, 0, 65, 106
1, 83359, Note_off_c, 0, 65, 106
1, 83387, Note_on_c, 0, 58, 103
1, 83482, Note_off_c, 0, 58, 103
1, 83511, Note_on_c, 0, 56, 87
1, 83544, Note_off_c, 0, 56, 87
1, 83572, Note_on_c, 0, 63, 105
1, 83670, Note_off_c, 0, 63, 105
1, 83702, Note_on_c, 0, 58, 89
1, 83737, Note_off_c, 0, 58, 89
1, 83757, Note_on_c, 0, 65, 103
1, 83836, Note_off_c, 0, 65, 103
1, 83852, Note_on_c, 0, 68, 108
1, 83930, Note_off_c, 0, 68, 108
1, 83961, Note_on_c, 0, 70, 110
1, 84301, Note_off_c, 0, 70, 110
1, 84333, Note_on_c, 0, 73, 118
1, 84423, Note_off_c, 0, 73, 118
1, 84434, Note_on_c, 0, 71, 112
1, 84504, Note_off_c, 0, 71, 112
1, 84521, Note_on_c, 0, 73, 116
1, 84617, Note_off_c, 0, 73, 116
1, 84628, Note_on_c, 0, 78, 119
1, 84697, Note_off_c, 0, 78, 119
1, 84719, Note_on_c, 0, 73, 118
1, 84807, Note_off_c, 0, 73, 118
1, 84818, Note_on_c, 0, 71, 110
1, 84883, Note_off_c, 0, 71, 110
1, 84917, Note_on_c, 0, 66, 99
1, 85007, Note_off_c, 0, 66, 99
1, 85053, Note_on_c, 0, 68, 82
1, 85076, Note_off_c, 0, 68, 82
1, 85090, Note_on_c, 0, 71, 106
1, 85279, Note_off_c, 0, 71, 106
1, 85969, Note_on_c, 0, 77, 107
1, 86001, Note_off_c, 0, 77, 107
1, 86012, Note_on_c, 0, 74, 97
1, 86038, Note_off_c, 0, 74, 97
1, 86045, Note_on_c, 0, 73, 105
1, 86069, Note_off_c, 0, 73, 105
1, 86082, Note_on_c, 0, 68, 93
1, 86102, Note_off_c, 0, 68, 93
1, 86103, Note_on_c, 0, 67, 98
1, 86390, Note_off_c, 0, 67, 98
1, 86434, Note_on_c, 0, 75, 119
1, 86517, Note_off_c, 0, 75, 119
1, 86551, Note_on_c, 0, 68, 98
1, 86632, Note_off_c, 0, 68, 98
1, 86636, Note_on_c, 0, 70, 96
1, 86711, Note_off_c, 0, 70, 96
1, 87143, Note_on_c, 0, 73, 110
1, 87177, Note_off_c, 0, 73, 110
1, 87181, Note_on_c, 0, 74, 116
1, 87267, Note_off_c, 0, 74, 116
1, 87315, Note_on_c, 0, 74, 115
1, 87388, Note_off_c, 0, 74, 115
1, 87405, Note_on_c, 0, 72, 114
1, 87517, Note_off_c, 0, 72, 114
1, 87534, Note_on_c, 0, 70, 99
1, 87564, Note_off_c, 0, 70, 99
1, 87577, Note_on_c, 0, 75, 118
1, 87663, Note_off_c, 0, 75, 118
1, 87693, Note_on_c, 0, 68, 83
1, 87740, Note_off_c, 0, 68, 83
1, 87751, Note_on_c, 0, 70, 94
1, 87875, Note_off_c, 0, 70, 94
1, 88325, Note_on_c, 0, 76, 119
1, 88395, Note_off_c, 0, 76, 119
1, 88409, Note_on_c, 0, 74, 119
1, 88485, Note_off_c, 0, 74, 119
1, 88497, Note_on_c, 0, 71, 109
1, 88589, Note_off_c, 0, 71, 109
1, 88605, Note_on_c, 0, 70, 88
1, 88628, Note_off_c, 0, 70, 88
1, 88643, Note_on_c, 0, 77, 114
1, 88707, Note_off_c, 0, 77, 114
1, 88718, Note_on_c, 0, 75, 118
1, 88785, Note_off_c, 0, 75, 118
1, 88808, Note_on_c, 0, 70, 109
1, 88869, Note_off_c, 0, 70, 109
1, 88891, Note_on_c, 0, 66, 99
1, 88929, Note_off_c, 0, 66, 99
1, 88943, Note_on_c, 0, 68, 104
1, 89004, Note_off_c, 0, 68, 104
1, 89070, Note_on_c, 0, 75, 84
1, 89093, Note_off_c, 0, 75, 84
1, 89096, Note_on_c, 0, 76, 112
1, 89161, Note_off_c, 0, 76, 112
1, 89171, Note_on_c, 0, 74, 116
1, 89232, Note_off_c, 0, 74, 116
1, 89248, Note_on_c, 0, 71, 108
1, 89296, Note_off_c, 0, 71, 108
1, 89302, Note_on_c, 0, 73, 113
1, 89434, Note_off_c, 0, 73, 113
1, 89442, Note_on_c, 0, 72, 112
1, 89492, Note_off_c, 0, 72, 112
1, 89499, Note_on_c, 0, 71, 103
1, 89527, Note_off_c, 0, 71, 103
1, 89534, Note_on_c, 0, 75, 113
1, 89567, Note_off_c, 0, 75, 113
1, 89574, Note_on_c, 0, 73, 109
1, 89595, Note_off_c, 0, 73, 109
1, 89610, Note_on_c, 0, 69, 104
1, 89674, Note_off_c, 0, 69, 104
1, 89677, Note_on_c, 0, 68, 106
1, 89711, Note_off_c, 0, 68, 106
1, 89725, Note_on_c, 0, 65, 97
1, 89762, Note_off_c, 0, 65, 97
1, 89764, Note_on_c, 0, 70, 112
1, 89796, Note_off_c, 0, 70, 112
1, 89809, Note_on_c, 0, 67, 107
1, 89867, Note_off_c, 0, 67, 107
1, 89872, Note_on_c, 0, 69, 108
1, 90030, Note_off_c, 0, 69, 108
1, 90047, Note_on_c, 0, 67, 105
1, 90170, Note_off_c, 0, 67, 105
1, 90191, Note_on_c, 0, 65, 93
1, 90235, Note_off_c, 0, 65, 93
1, 90244, Note_on_c, 0, 67, 104
1, 90285, Note_off_c, 0, 67, 104
1, 90292, Note_on_c, 0, 69, 108
1, 90347, Note_off_c, 0, 69, 108
1, 90378, Note_on_c, 0, 62, 100
1, 90436, Note_off_c, 0, 62, 100
1, 90464, Note_on_c, 0, 65, 90
1, 91437, Note_off_c, 0, 65, 90
1, 91480, Note_on_c, 0, 62, 98
1, 91534, Note_off_c, 0, 62, 98
1, 91554, Note_on_c, 0, 65, 101
1, 91635, Note_off_c, 0, 65, 101
1, 91671, Note_on_c, 0, 67, 105
1, 91710, Note_off_c, 0, 67, 105
1, 91719, Note_on_c, 0, 69, 107
1, 91803, Note_off_c, 0, 69, 107
1, 91823, Note_on_c, 0, 62, 95
1, 91896, Note_off_c, 0, 62, 95
1, 91913, Note_on_c, 0, 65, 98
1, 92101, Note_off_c, 0, 65, 98
1, 92778, Note_on_c, 0, 67, 105
1, 92806, Note_off_c, 0, 67, 105
1, 92817, Note_on_c, 0, 69, 106
1, 92916, Note_off_c, 0, 69, 106
1, 92933, Note_on_c, 0, 74, 107
1, 93425, Note_off_c, 0, 74, 107
1, 93950, Note_on_c, 0, 77, 111
1, 94074, Note_off_c, 0, 77, 111
1, 94096, Note_on_c, 0, 75, 112
1, 94260, Note_off_c, 0, 75, 112
1, 94264, Note_on_c, 0, 76, 118
1, 94363, Note_off_c, 0, 76, 118
1, 94386, Note_on_c, 0, 71, 105
1, 94433, Note_off_c, 0, 71, 105
1, 94442, Note_on_c, 0, 73, 110
1, 94499, Note_off_c, 0, 73, 110
1, 94530, Note_on_c, 0, 69, 104
1, 95050, Note_off_c, 0, 69, 104
1, 95085, Note_on_c, 0, 77, 111
1, 95185, Note_off_c, 0, 77, 111
1, 95202, Note_on_c, 0, 77, 109
1, 95253, Note_off_c, 0, 77, 109
1, 95270, Note_on_c, 0, 77, 112
1, 95375, Note_off_c, 0, 77, 112
1, 95390, Note_on_c, 0, 77, 98
1, 95442, Note_off_c, 0, 77, 98
1, 96148, Note_on_c, 0, 77, 103
1, 96189, Note_off_c, 0, 77, 103
1, 96201, Note_on_c, 0, 82, 103
1, 96250, Note_off_c, 0, 82, 103
1, 96388, Note_on_c, 0, 77, 82
1, 96447, Note_off_c, 0, 77, 82
1, 96590, Note_on_c, 0, 75, 108
1, 96636, Note_off_c, 0, 75, 108
1, 96653, Note_on_c, 0, 77, 108
1, 96700, Note_off_c, 0, 77, 108
1, 96781, Note_on_c, 0, 72, 112
1, 96948, Note_off_c, 0, 72, 112
1, 96959, Note_on_c, 0, 70, 110
1, 97061, Note_off_c, 0, 70, 110
1, 97069, Note_on_c, 0, 69, 95
1, 97115, Note_off_c, 0, 69, 95
1, 97116, Note_on_c, 0, 68, 109
1, 97162, Note_off_c, 0, 68, 109
1, 97174, Note_on_c, 0, 63, 100
1, 97209, Note_off_c, 0, 63, 100
1, 97224, Note_on_c, 0, 60, 91
1, 97270, Note_off_c, 0, 60, 91
1, 97270, Note_on_c, 0, 65, 102
1, 97321, Note_off_c, 0, 65, 102
1, 97327, Note_on_c, 0, 63, 102
1, 97370, Note_off_c, 0, 63, 102
1, 97384, Note_on_c, 0, 56, 95
1, 97428, Note_off_c, 0, 56, 95
1, 97438, Note_on_c, 0, 58, 98
1, 97467, Note_off_c, 0, 58, 98
1, 97474, Note_on_c, 0, 63, 104
1, 97517, Note_off_c, 0, 63, 104
1, 97529, Note_on_c, 0, 65, 102
1, 97559, Note_off_c, 0, 65, 102
1, 97574, Note_on_c, 0, 70, 97
1, 97636, Note_off_c, 0, 70, 97
1, 97664, Note_on_c, 0, 75, 105
1, 98088, Note_off_c, 0, 75, 105
1, 98349, Note_on_c, 0, 76, 112
1, 98444, Note_off_c, 0, 76, 112
1, 98457, Note_on_c, 0, 78, 109
1, 98481, Note_off_c, 0, 78, 109
1, 98494, Note_on_c, 0, 76, 108
1, 98516, Note_off_c, 0, 76, 108
1, 98538, Note_on_c, 0, 73, 106
1, 98578, Note_off_c, 0, 73, 106
1, 98591, Note_on_c, 0, 71, 101
1, 98630, Note_off_c, 0, 71, 101
1, 98641, Note_on_c, 0, 69, 97
1, 98678, Note_off_c, 0, 69, 97
1, 98682, Note_on_c, 0, 76, 109
1, 98723, Note_off_c, 0, 76, 109
1, 98733, Note_on_c, 0, 71, 100
1, 98757, Note_off_c, 0, 71, 100
1, 98777, Note_on_c, 0, 69, 97
1, 98808, Note_off_c, 0, 69, 97
1, 98817, Note_on_c, 0, 69, 106
1, 98855, Note_off_c, 0, 69, 106
1, 98873, Note_on_c, 0, 66, 102
1, 98895, Note_off_c, 0, 66, 102
1, 98920, Note_on_c, 0, 71, 106
1, 98955, Note_off_c, 0, 71, 106
1, 98969, Note_on_c, 0, 68, 104
1, 99001, Note_off_c, 0, 68, 104
1, 99013, Note_on_c, 0, 64, 96
1, 99045, Note_off_c, 0, 64, 96
1, 99053, Note_on_c, 0, 69, 103
1, 99128, Note_off_c, 0, 69, 103
1, 99133, Note_on_c, 0, 67, 83
1, 99162, Note_off_c, 0, 67, 83
1, 99188, Note_on_c, 0, 73, 106
1, 99232, Note_off_c, 0, 73, 106
1, 99239, Note_on_c, 0, 74, 109
1, 99306, Note_off_c, 0, 74, 109
1, 99319, Note_on_c, 0, 72, 104
1, 99383, Note_off_c, 0, 72, 104
1, 99416, Note_on_c, 0, 67, 101
1, 99464, Note_off_c, 0, 67, 101
1, 99472, Note_on_c, 0, 68, 107
1, 99501, Note_off_c, 0, 68, 107
1, 99513, Note_on_c, 0, 67, 104
1, 99572, Note_off_c, 0, 67, 104
1, 99606, Note_on_c, 0, 65, 97
1, 99639, Note_off_c, 0, 65, 97
1, 99653, Note_on_c, 0, 67, 104
1, 99708, Note_off_c, 0, 67, 104
1, 99716, Note_on_c, 0, 69, 104
1, 99759, Note_off_c, 0, 69, 104
1, 99777, Note_on_c, 0, 62, 95
1, 99835, Note_off_c, 0, 62, 95
1, 99847, Note_on_c, 0, 65, 79
1, 100707, Note_off_c, 0, 65, 79
1, 100707, End_track
0, 0, End_of_file
