0, 0, Header, 1, 1, 192
1, 0, Start_track
1, 0, Title_t, "Melody"
1, 0, Tempo, 521739
1, 0, Key_signature, -3, "major"
1, 0, Time_signature, 4, 2, 24, 8
1, 2815, Note_on_c, 0, 70, 117
1, 2854, Note_off_c, 0, 70, 117
1, 2860, Note_on_c, 0, 67, 116
1, 2890, Note_off_c, 0, 67, 116
1, 2919, Note_on_c, 0, 72, 119
1, 2974, Note_off_c, 0, 72, 119
1, 2978, Note_on_c, 0, 72, 118
1, 3034, Note_off_c, 0, 72, 118
1, 3039, Note_on_c, 0, 72, 107
1, 3090, Note_off_c, 0, 72, 107
1, 3642, Note_on_c, 0, 67, 114
1, 3667, Note_off_c, 0, 67, 114
1, 3687, Note_on_c, 0, 72, 116
1, 3793, Note_off_c, 0, 72, 116
1, 3805, Note_on_c, 0, 69, 108
1, 3916, Note_off_c, 0, 69, 108
1, 4585, Note_on_c, 0, 74, 121
1, 4690, Note_off_c, 0, 74, 121
1, 4744, Note_on_c, 0, 77, 118
1, 4887, Note_off_c, 0, 77, 118
1, 4890, Note_on_c, 0, 76, 113
1, 4904, Note_off_c, 0, 76, 113
1, 4906, Note_on_c, 0, 75, 116
1, 4945, Note_off_c, 0, 75, 116
1, 4948, Note_on_c, 0, 74, 123
1, 5138, Note_off_c, 0, 74, 123
1, 5155, Note_on_c, 0, 72, 119
1, 5227, Note_off_c, 0, 72, 119
1, 5244, Note_on_c, 0, 71, 115
1, 5272, Note_off_c, 0, 71, 115
1, 5277, Note_on_c, 0, 74, 115
1, 5319, Note_off_c, 0, 74, 115
1, 5325, Note_on_c, 0, 71, 85
1, 5357, Note_off_c, 0, 71, 85
1, 5361, Note_on_c, 0, 68, 116
1, 5434, Note_off_c, 0, 68, 116
1, 5443, Note_on_c, 0, 67, 111
1, 5498, Note_off_c, 0, 67, 111
1, 5510, Note_on_c, 0, 65, 110
1, 5561, Note_off_c, 0, 65, 110
1, 5599, Note_on_c, 0, 70, 110
1, 5825, Note_off_c, 0, 70, 110
1, 5850, Note_on_c, 0, 68, 123
1, 5895, Note_off_c, 0, 68, 123
1, 5899, Note_on_c, 0, 70, 111
1, 5935, Note_off_c, 0, 70, 111
1, 5961, Note_on_c, 0, 66, 116
1, 5985, Note_off_c, 0, 66, 116
1, 5988, Note_on_c, 0, 67, 119
1, 6072, Note_off_c, 0, 67, 119
1, 6136, Note_on_c, 0, 60, 101
1, 6253, Note_off_c, 0, 60, 101
1, 6329, Note_on_c, 0, 63, 115
1, 6457, Note_off_c, 0, 63, 115
1, 6464, Note_on_c, 0, 60, 110
1, 6520, Note_off_c, 0, 60, 110
1, 6525, Note_on_c, 0, 63, 115
1, 6668, Note_off_c, 0, 63, 115
1, 6677, Note_on_c, 0, 60, 101
1, 6696, Note_off_c, 0, 60, 101
1, 6705, Note_on_c, 0, 63, 97
1, 6934, Note_off_c, 0, 63, 97
1, 7208, Note_on_c, 0, 63, 90
1, 7258, Note_off_c, 0, 63, 90
1, 7274, Note_on_c, 0, 66, 120
1, 7312, Note_off_c, 0, 66, 120
1, 7336, Note_on_c, 0, 67, 117
1, 7388, Note_off_c, 0, 67, 117
1, 7394, Note_on_c, 0, 67, 118
1, 7447, Note_off_c, 0, 67, 118
1, 7464, Note_on_c, 0, 66, 118
1, 7507, Note_off_c, 0, 66, 118
1, 7514, Note_on_c, 0, 67, 118
1, 7572, Note_off_c, 0, 67, 118
1, 7589, Note_on_c, 0, 67, 118
1, 7638, Note_off_c, 0, 67, 118
1, 7646, Note_on_c, 0, 67, 118
1, 7697, Note_off_c, 0, 67, 118
1, 7706, Note_on_c, 0, 67, 119
1, 7765, Note_off_c, 0, 67, 119
1, 7770, Note_on_c, 0, 67, 118
1, 7818, Note_off_c, 0, 67, 118
1, 7834, Note_on_c, 0, 65, 114
1, 7864, Note_off_c, 0, 65, 114
1, 7870, Note_on_c, 0, 64, 98
1, 7889, Note_off_c, 0, 64, 98
1, 7894, Note_on_c, 0, 63, 114
1, 7934, Note_off_c, 0, 63, 114
1, 7939, Note_on_c, 0, 60, 111
1, 8009, Note_off_c, 0, 60, 111
1, 8027, Note_on_c, 0, 58, 112
1, 8077, Note_off_c, 0, 58, 112
1, 8088, Note_on_c, 0, 55, 93
1, 8124, Note_off_c, 0, 55, 93
1, 8142, Note_on_c, 0, 60, 106
1, 8319, Note_off_c, 0, 60, 106
1, 8893, Note_on_c, 0, 67, 123
1, 8937, Note_off_c, 0, 67, 123
1, 8964, Note_on_c, 0, 73, 121
1, 8983, Note_off_c, 0, 73, 121
1, 8983, Note_on_c, 0, 74, 120
1, 9028, Note_off_c, 0, 74, 120
1, 9078, Note_on_c, 0, 72, 118
1, 9139, Note_off_c, 0, 72, 118
1, 9140, Note_on_c, 0, 69, 117
1, 9209, Note_off_c, 0, 69, 117
1, 9212, Note_on_c, 0, 67, 113
1, 9260, Note_off_c, 0, 67, 113
1, 9260, Note_on_c, 0, 69, 116
1, 9567, Note_off_c, 0, 69, 116
1, 10313, Note_on_c, 0, 75, 124
1, 10379, Note_off_c, 0, 75, 124
1, 10404, Note_on_c, 0, 79, 118
1, 10470, Note_off_c, 0, 79, 118
1, 10473, Note_on_c, 0, 74, 120
1, 10530, Note_off_c, 0, 74, 120
1, 10568, Note_on_c, 0, 77, 120
1, 10624, Note_off_c, 0, 77, 120
1, 10624, Note_on_c, 0, 76, 119
1, 10649, Note_off_c, 0, 76, 119
1, 10651, Note_on_c, 0, 75, 120
1, 10679, Note_off_c, 0, 75, 120
1, 10681, Note_on_c, 0, 74, 124
1, 10728, Note_off_c, 0, 74, 124
1, 10730, Note_on_c, 0, 72, 120
1, 10774, Note_off_c, 0, 72, 120
1, 10776, Note_on_c, 0, 71, 119
1, 10977, Note_off_c, 0, 71, 119
1, 11007, Note_on_c, 0, 68, 118
1, 11063, Note_off_c, 0, 68, 118
1, 11069, Note_on_c, 0, 67, 119
1, 11119, Note_off_c, 0, 67, 119
1, 11131, Note_on_c, 0, 65, 113
1, 11177, Note_off_c, 0, 65, 113
1, 11197, Note_on_c, 0, 70, 116
1, 11246, Note_off_c, 0, 70, 116
1, 11256, Note_on_c, 0, 68, 121
1, 11305, Note_off_c, 0, 68, 121
1, 11324, Note_on_c, 0, 63, 115
1, 11366, Note_off_c, 0, 63, 115
1, 11402, Note_on_c, 0, 59, 109
1, 11438, Note_off_c, 0, 59, 109
1, 11445, Note_on_c, 0, 61, 109
1, 11483, Note_off_c, 0, 61, 109
1, 11498, Note_on_c, 0, 58, 114
1, 11557, Note_off_c, 0, 58, 114
1, 11568, Note_on_c, 0, 56, 107
1, 11619, Note_off_c, 0, 56, 107
1, 11619, Note_on_c, 0, 58, 109
1, 11659, Note_off_c, 0, 58, 109
1, 11666, Note_on_c, 0, 55, 108
1, 11737, Note_off_c, 0, 55, 108
1, 11776, Note_on_c, 0, 62, 116
1, 11839, Note_off_c, 0, 62, 116
1, 11844, Note_on_c, 0, 65, 115
1, 11940, Note_off_c, 0, 65, 115
1, 11942, Note_on_c, 0, 62, 116
1, 12166, Note_off_c, 0, 62, 116
1, 12184, Note_on_c, 0, 65, 114
1, 12285, Note_off_c, 0, 65, 114
1, 12288, Note_on_c, 0, 62, 107
1, 12354, Note_off_c, 0, 62, 107
1, 12363, Note_on_c, 0, 63, 95
1, 12488, Note_off_c, 0, 63, 95
1, 13284, Note_on_c, 0, 66, 116
1, 13341, Note_off_c, 0, 66, 116
1, 13344, Note_on_c, 0, 65, 113
1, 13443, Note_off_c, 0, 65, 113
1, 13486, Note_on_c, 0, 63, 100
1, 13507, Note_off_c, 0, 63, 100
1, 13513, Note_on_c, 0, 65, 116
1, 13632, Note_off_c, 0, 65, 116
1, 13692, Note_on_c, 0, 63, 116
1, 13701, Note_off_c, 0, 63, 116
1, 13703, Note_on_c, 0, 65, 116
1, 13802, Note_off_c, 0, 65, 116
1, 13808, Note_on_c, 0, 63, 118
1, 13866, Note_off_c, 0, 63, 118
1, 13883, Note_on_c, 0, 66, 123
1, 13915, Note_off_c, 0, 66, 123
1, 13917, Note_on_c, 0, 67, 119
1, 14016, Note_off_c, 0, 67, 119
1, 14085, Note_on_c, 0, 60, 112
1, 14197, Note_off_c, 0, 60, 112
1, 14203, Note_on_c, 0, 63, 117
1, 14266, Note_off_c, 0, 63, 117
1, 14267, Note_on_c, 0, 65, 121
1, 14381, Note_off_c, 0, 65, 121
1, 14385, Note_on_c, 0, 63, 117
1, 14462, Note_off_c, 0, 63, 117
1, 15069, Note_on_c, 0, 80, 125
1, 15118, Note_off_c, 0, 80, 125
1, 15119, Note_on_c, 0, 79, 121
1, 15170, Note_off_c, 0, 79, 121
1, 15173, Note_on_c, 0, 77, 125
1, 15212, Note_off_c, 0, 77, 125
1, 15215, Note_on_c, 0, 76, 124
1, 15239, Note_off_c, 0, 76, 124
1, 15242, Note_on_c, 0, 75, 127
1, 15270, Note_off_c, 0, 75, 127
1, 15274, Note_on_c, 0, 74, 123
1, 15326, Note_off_c, 0, 74, 123
1, 15331, Note_on_c, 0, 72, 118
1, 15397, Note_off_c, 0, 72, 118
1, 15400, Note_on_c, 0, 71, 121
1, 15462, Note_off_c, 0, 71, 121
1, 15463, Note_on_c, 0, 74, 124
1, 15520, Note_off_c, 0, 74, 124
1, 15522, Note_on_c, 0, 72, 122
1, 15578, Note_off_c, 0, 72, 122
1, 15588, Note_on_c, 0, 67, 119
1, 15752, Note_off_c, 0, 67, 119
1, 15760, Note_on_c, 0, 70, 118
1, 15812, Note_off_c, 0, 70, 118
1, 15831, Note_on_c, 0, 67, 111
1, 15863, Note_off_c, 0, 67, 111
1, 15866, Note_on_c, 0, 69, 120
1, 15939, Note_off_c, 0, 69, 120
1, 15954, Note_on_c, 0, 67, 117
1, 16007, Note_off_c, 0, 67, 117
1, 16023, Note_on_c, 0, 66, 118
1, 16062, Note_off_c, 0, 66, 118
1, 16072, Note_on_c, 0, 69, 118
1, 16115, Note_off_c, 0, 69, 118
1, 16133, Note_on_c, 0, 63, 117
1, 16183, Note_off_c, 0, 63, 117
1, 16187, Note_on_c, 0, 65, 105
1, 16233, Note_off_c, 0, 65, 105
1, 16245, Note_on_c, 0, 62, 117
1, 16504, Note_off_c, 0, 62, 117
1, 16881, Note_on_c, 0, 77, 121
1, 16897, Note_off_c, 0, 77, 121
1, 16900, Note_on_c, 0, 76, 119
1, 16921, Note_off_c, 0, 76, 119
1, 16924, Note_on_c, 0, 75, 122
1, 16953, Note_off_c, 0, 75, 122
1, 16954, Note_on_c, 0, 74, 122
1, 17007, Note_off_c, 0, 74, 122
1, 17024, Note_on_c, 0, 72, 118
1, 17090, Note_off_c, 0, 72, 118
1, 17094, Note_on_c, 0, 71, 119
1, 17160, Note_off_c, 0, 71, 119
1, 17166, Note_on_c, 0, 68, 117
1, 17216, Note_off_c, 0, 68, 117
1, 17229, Note_on_c, 0, 67, 117
1, 17276, Note_off_c, 0, 67, 117
1, 17292, Note_on_c, 0, 65, 115
1, 17338, Note_off_c, 0, 65, 115
1, 17367, Note_on_c, 0, 70, 117
1, 17418, Note_off_c, 0, 70, 117
1, 17443, Note_on_c, 0, 68, 113
1, 17474, Note_off_c, 0, 68, 113
1, 17478, Note_on_c, 0, 70, 101
1, 17701, Note_off_c, 0, 70, 101
1, 18166, Note_on_c, 0, 72, 118
1, 18216, Note_off_c, 0, 72, 118
1, 18217, Note_on_c, 0, 74, 120
1, 18264, Note_off_c, 0, 74, 120
1, 18274, Note_on_c, 0, 71, 116
1, 18308, Note_off_c, 0, 71, 116
1, 18309, Note_on_c, 0, 74, 119
1, 18354, Note_off_c, 0, 74, 119
1, 18358, Note_on_c, 0, 68, 118
1, 18411, Note_off_c, 0, 68, 118
1, 18413, Note_on_c, 0, 67, 117
1, 18459, Note_off_c, 0, 67, 117
1, 18469, Note_on_c, 0, 65, 116
1, 18544, Note_off_c, 0, 65, 116
1, 18569, Note_on_c, 0, 62, 117
1, 18606, Note_off_c, 0, 62, 117
1, 18609, Note_on_c, 0, 63, 116
1, 18670, Note_off_c, 0, 63, 116
1, 18678, Note_on_c, 0, 60, 111
1, 18724, Note_off_c, 0, 60, 111
1, 18779, Note_on_c, 0, 59, 104
1, 18795, Note_off_c, 0, 59, 104
1, 18799, Note_on_c, 0, 57, 111
1, 18850, Note_off_c, 0, 57, 111
1, 18852, Note_on_c, 0, 58, 114
1, 18882, Note_off_c, 0, 58, 114
1, 18885, Note_on_c, 0, 59, 110
1, 18898, Note_off_c, 0, 59, 110
1, 18903, Note_on_c, 0, 61, 114
1, 18930, Note_off_c, 0, 61, 114
1, 18936, Note_on_c, 0, 62, 113
1, 18968, Note_off_c, 0, 62, 113
1, 18969, Note_on_c, 0, 64, 119
1, 18989, Note_off_c, 0, 64, 119
1, 18997, Note_on_c, 0, 67, 115
1, 19012, Note_off_c, 0, 67, 115
1, 19017, Note_on_c, 0, 68, 120
1, 19037, Note_off_c, 0, 68, 120
1, 19041, Note_on_c, 0, 70, 115
1, 19055, Note_off_c, 0, 70, 115
1, 19058, Note_on_c, 0, 72, 119
1, 19082, Note_off_c, 0, 72, 119
1, 19083, Note_on_c, 0, 74, 124
1, 19112, Note_off_c, 0, 74, 124
1, 19114, Note_on_c, 0, 75, 121
1, 19137, Note_off_c, 0, 75, 121
1, 19141, Note_on_c, 0, 74, 120
1, 19175, Note_off_c, 0, 74, 120
1, 19828, Note_on_c, 0, 77, 119
1, 19862, Note_off_c, 0, 77, 119
1, 19863, Note_on_c, 0, 76, 113
1, 19886, Note_off_c, 0, 76, 113
1, 19889, Note_on_c, 0, 77, 118
1, 19901, Note_off_c, 0, 77, 118
1, 19902, Note_on_c, 0, 75, 124
1, 19928, Note_off_c, 0, 75, 124
1, 19929, Note_on_c, 0, 74, 121
1, 20003, Note_off_c, 0, 74, 121
1, 20051, Note_on_c, 0, 72, 118
1, 20120, Note_off_c, 0, 72, 118
1, 20133, Note_on_c, 0, 71, 119
1, 20203, Note_off_c, 0, 71, 119
1, 20231, Note_on_c, 0, 68, 120
1, 20297, Note_off_c, 0, 68, 120
1, 20303, Note_on_c, 0, 67, 118
1, 20428, Note_off_c, 0, 67, 118
1, 20430, Note_on_c, 0, 65, 113
1, 20489, Note_off_c, 0, 65, 113
1, 20491, Note_on_c, 0, 67, 117
1, 20620, Note_off_c, 0, 67, 117
1, 20628, Note_on_c, 0, 65, 111
1, 20684, Note_off_c, 0, 65, 111
1, 20684, Note_on_c, 0, 67, 119
1, 20796, Note_off_c, 0, 67, 119
1, 20877, Note_on_c, 0, 73, 122
1, 20907, Note_off_c, 0, 73, 122
1, 20911, Note_on_c, 0, 74, 124
1, 21050, Note_off_c, 0, 74, 124
1, 21065, Note_on_c, 0, 72, 120
1, 21083, Note_off_c, 0, 72, 120
1, 21181, Note_on_c, 0, 69, 120
1, 21241, Note_off_c, 0, 69, 120
1, 21241, Note_on_c, 0, 67, 120
1, 21390, Note_off_c, 0, 67, 120
1, 21451, Note_on_c, 0, 69, 103
1, 21636, Note_off_c, 0, 69, 103
1, 22557, Note_on_c, 0, 77, 10
1, 22604, Note_off_c, 0, 77, 10
1, 22625, Note_on_c, 0, 79, 121
1, 22659, Note_off_c, 0, 79, 121
1, 22662, Note_on_c, 0, 80, 125
1, 22689, Note_off_c, 0, 80, 125
1, 22698, Note_on_c, 0, 83, 121
1, 22717, Note_off_c, 0, 83, 121
1, 22718, Note_on_c, 0, 82, 124
1, 22773, Note_off_c, 0, 82, 124
1, 22785, Note_on_c, 0, 79, 120
1, 23118, Note_off_c, 0, 79, 120
1, 23377, Note_on_c, 0, 74, 123
1, 23394, Note_off_c, 0, 74, 123
1, 23396, Note_on_c, 0, 77, 111
1, 23408, Note_off_c, 0, 77, 111
1, 23414, Note_on_c, 0, 76, 124
1, 23438, Note_off_c, 0, 76, 124
1, 23442, Note_on_c, 0, 75, 118
1, 23471, Note_off_c, 0, 75, 118
1, 23476, Note_on_c, 0, 78, 123
1, 23509, Note_off_c, 0, 78, 123
1, 23512, Note_on_c, 0, 76, 118
1, 23537, Note_off_c, 0, 76, 118
1, 23538, Note_on_c, 0, 73, 117
1, 23563, Note_off_c, 0, 73, 117
1, 23574, Note_on_c, 0, 71, 115
1, 23594, Note_off_c, 0, 71, 115
1, 23602, Note_on_c, 0, 76, 122
1, 23638, Note_off_c, 0, 76, 122
1, 23641, Note_on_c, 0, 77, 117
1, 23657, Note_off_c, 0, 77, 117
1, 23657, Note_on_c, 0, 76, 122
1, 23693, Note_off_c, 0, 76, 122
1, 23694, Note_on_c, 0, 75, 119
1, 23717, Note_off_c, 0, 75, 119
1, 23721, Note_on_c, 0, 73, 118
1, 23753, Note_off_c, 0, 73, 118
1, 23757, Note_on_c, 0, 71, 104
1, 23777, Note_off_c, 0, 71, 104
1, 23778, Note_on_c, 0, 72, 115
1, 23802, Note_off_c, 0, 72, 115
1, 23805, Note_on_c, 0, 70, 120
1, 23831, Note_off_c, 0, 70, 120
1, 23836, Note_on_c, 0, 69, 117
1, 23860, Note_off_c, 0, 69, 117
1, 23866, Note_on_c, 0, 68, 119
1, 23893, Note_off_c, 0, 68, 119
1, 23936, Note_on_c, 0, 70, 121
1, 23987, Note_off_c, 0, 70, 121
1, 24019, Note_on_c, 0, 68, 120
1, 24036, Note_off_c, 0, 68, 120
1, 24037, Note_on_c, 0, 65, 117
1, 24073, Note_off_c, 0, 65, 117
1, 24088, Note_on_c, 0, 68, 121
1, 24290, Note_off_c, 0, 68, 121
1, 24294, Note_on_c, 0, 67, 120
1, 24449, Note_off_c, 0, 67, 120
1, 24495, Note_on_c, 0, 68, 121
1, 24667, Note_off_c, 0, 68, 121
1, 24679, Note_on_c, 0, 67, 121
1, 24860, Note_off_c, 0, 67, 121
1, 24882, Note_on_c, 0, 68, 122
1, 25073, Note_off_c, 0, 68, 122
1, 25089, Note_on_c, 0, 67, 120
1, 25185, Note_off_c, 0, 67, 120
1, 25195, Note_on_c, 0, 63, 113
1, 25234, Note_off_c, 0, 63, 113
1, 25778, Note_on_c, 0, 72, 120
1, 25827, Note_off_c, 0, 72, 120
1, 25835, Note_on_c, 0, 70, 118
1, 25887, Note_off_c, 0, 70, 118
1, 25892, Note_on_c, 0, 67, 119
1, 25952, Note_off_c, 0, 67, 119
1, 25958, Note_on_c, 0, 66, 119
1, 26010, Note_off_c, 0, 66, 119
1, 26016, Note_on_c, 0, 65, 121
1, 26154, Note_off_c, 0, 65, 121
1, 26177, Note_on_c, 0, 63, 110
1, 26201, Note_off_c, 0, 63, 110
1, 26206, Note_on_c, 0, 65, 118
1, 26342, Note_off_c, 0, 65, 118
1, 26361, Note_on_c, 0, 63, 106
1, 26389, Note_off_c, 0, 63, 106
1, 26392, Note_on_c, 0, 65, 117
1, 26518, Note_off_c, 0, 65, 117
1, 26526, Note_on_c, 0, 63, 119
1, 26541, Note_off_c, 0, 63, 119
1, 26972, Note_on_c, 0, 72, 119
1, 27086, Note_off_c, 0, 72, 119
1, 27156, Note_on_c, 0, 75, 123
1, 27321, Note_off_c, 0, 75, 123
1, 27751, Note_on_c, 0, 72, 115
1, 27864, Note_off_c, 0, 72, 115
1, 27921, Note_on_c, 0, 75, 121
1, 28053, Note_off_c, 0, 75, 121
1, 28055, Note_on_c, 0, 75, 110
1, 28098, Note_off_c, 0, 75, 110
1, 28657, Note_on_c, 0, 72, 120
1, 28706, Note_off_c, 0, 72, 120
1, 28721, Note_on_c, 0, 77, 120
1, 28773, Note_off_c, 0, 77, 120
1, 28776, Note_on_c, 0, 75, 124
1, 28825, Note_off_c, 0, 75, 124
1, 28861, Note_on_c, 0, 70, 118
1, 29210, Note_off_c, 0, 70, 118
1, 29213, Note_on_c, 0, 69, 121
1, 29240, Note_off_c, 0, 69, 121
1, 29243, Note_on_c, 0, 68, 117
1, 29276, Note_off_c, 0, 68, 117
1, 29277, Note_on_c, 0, 70, 113
1, 29307, Note_off_c, 0, 70, 113
1, 29311, Note_on_c, 0, 71, 116
1, 29331, Note_off_c, 0, 71, 116
1, 29336, Note_on_c, 0, 73, 117
1, 29371, Note_off_c, 0, 73, 117
1, 29372, Note_on_c, 0, 70, 120
1, 29393, Note_off_c, 0, 70, 120
1, 29395, Note_on_c, 0, 69, 122
1, 29423, Note_off_c, 0, 69, 122
1, 29427, Note_on_c, 0, 68, 119
1, 29463, Note_off_c, 0, 68, 119
1, 29511, Note_on_c, 0, 70, 119
1, 29567, Note_off_c, 0, 70, 119
1, 29583, Note_on_c, 0, 64, 93
1, 29601, Note_off_c, 0, 64, 93
1, 29603, Note_on_c, 0, 68, 115
1, 29670, Note_off_c, 0, 68, 115
1, 29672, Note_on_c, 0, 67, 122
1, 29747, Note_off_c, 0, 67, 122
1, 29755, Note_on_c, 0, 65, 118
1, 30042, Note_off_c, 0, 65, 118
1, 30069, Note_on_c, 0, 63, 123
1, 30107, Note_off_c, 0, 63, 123
1, 30125, Note_on_c, 0, 60, 101
1, 30163, Note_off_c, 0, 60, 101
1, 30167, Note_on_c, 0, 63, 121
1, 30230, Note_off_c, 0, 63, 121
1, 30242, Note_on_c, 0, 65, 120
1, 30362, Note_off_c, 0, 65, 120
1, 30366, Note_on_c, 0, 65, 94
1, 30419, Note_off_c, 0, 65, 94
1, 30825, Note_on_c, 0, 64, 119
1, 30837, Note_off_c, 0, 64, 119
1, 30840, Note_on_c, 0, 65, 122
1, 30858, Note_off_c, 0, 65, 122
1, 30862, Note_on_c, 0, 63, 114
1, 30880, Note_off_c, 0, 63, 114
1, 30888, Note_on_c, 0, 60, 106
1, 30934, Note_off_c, 0, 60, 106
1, 30950, Note_on_c, 0, 63, 114
1, 30994, Note_off_c, 0, 63, 114
1, 31024, Note_on_c, 0, 65, 111
1, 31128, Note_off_c, 0, 65, 111
1, 31138, Note_on_c, 0, 65, 100
1, 31168, Note_off_c, 0, 65, 100
1, 31811, Note_on_c, 0, 78, 123
1, 31846, Note_off_c, 0, 78, 123
1, 31848, Note_on_c, 0, 77, 123
1, 31954, Note_off_c, 0, 77, 123
1, 31984, Note_on_c, 0, 75, 125
1, 32030, Note_off_c, 0, 75, 125
1, 32038, Note_on_c, 0, 72, 122
1, 32145, Note_off_c, 0, 72, 122
1, 32187, Note_on_c, 0, 70, 119
1, 32237, Note_off_c, 0, 70, 119
1, 32249, Note_on_c, 0, 67, 119
1, 32304, Note_off_c, 0, 67, 119
1, 32313, Note_on_c, 0, 72, 123
1, 32365, Note_off_c, 0, 72, 123
1, 32372, Note_on_c, 0, 74, 123
1, 32434, Note_off_c, 0, 74, 123
1, 32438, Note_on_c, 0, 72, 122
1, 32494, Note_off_c, 0, 72, 122
1, 32495, Note_on_c, 0, 69, 118
1, 32548, Note_off_c, 0, 69, 118
1, 32563, Note_on_c, 0, 67, 116
1, 32616, Note_off_c, 0, 67, 116
1, 32627, Note_on_c, 0, 72, 120
1, 32680, Note_off_c, 0, 72, 120
1, 32690, Note_on_c, 0, 69, 120
1, 32742, Note_off_c, 0, 69, 120
1, 32755, Note_on_c, 0, 67, 119
1, 32810, Note_off_c, 0, 67, 119
1, 32820, Note_on_c, 0, 69, 119
1, 32875, Note_off_c, 0, 69, 119
1, 32878, Note_on_c, 0, 67, 119
1, 32932, Note_off_c, 0, 67, 119
1, 32947, Note_on_c, 0, 65, 121
1, 33100, Note_off_c, 0, 65, 121
1, 33140, Note_on_c, 0, 63, 120
1, 33263, Note_off_c, 0, 63, 120
1, 33295, Note_on_c, 0, 63, 96
1, 33312, Note_off_c, 0, 63, 96
1, 33319, Note_on_c, 0, 65, 118
1, 33459, Note_off_c, 0, 65, 118
1, 33482, Note_on_c, 0, 63, 107
1, 33508, Note_off_c, 0, 63, 107
1, 33510, Note_on_c, 0, 65, 118
1, 33660, Note_off_c, 0, 65, 118
1, 34434, Note_on_c, 0, 69, 117
1, 34479, Note_off_c, 0, 69, 117
1, 34481, Note_on_c, 0, 70, 116
1, 34723, Note_off_c, 0, 70, 116
1, 34752, Note_on_c, 0, 67, 119
1, 34810, Note_off_c, 0, 67, 119
1, 34815, Note_on_c, 0, 65, 117
1, 34867, Note_off_c, 0, 65, 117
1, 34875, Note_on_c, 0, 63, 115
1, 34936, Note_off_c, 0, 63, 115
1, 34949, Note_on_c, 0, 60, 98
1, 34985, Note_off_c, 0, 60, 98
1, 34996, Note_on_c, 0, 65, 115
1, 35510, Note_off_c, 0, 65, 115
1, 35528, Note_on_c, 0, 63, 117
1, 35585, Note_off_c, 0, 63, 117
1, 35589, Note_on_c, 0, 65, 118
1, 35638, Note_off_c, 0, 65, 118
1, 35669, Note_on_c, 0, 70, 118
1, 35934, Note_off_c, 0, 70, 118
1, 35937, Note_on_c, 0, 68, 122
1, 35991, Note_off_c, 0, 68, 122
1, 35992, Note_on_c, 0, 70, 120
1, 36031, Note_off_c, 0, 70, 120
1, 36037, Note_on_c, 0, 71, 110
1, 36058, Note_off_c, 0, 71, 110
1, 36061, Note_on_c, 0, 73, 123
1, 36106, Note_off_c, 0, 73, 123
1, 36110, Note_on_c, 0, 70, 118
1, 36168, Note_off_c, 0, 70, 118
1, 36188, Note_on_c, 0, 66, 110
1, 36208, Note_off_c, 0, 66, 110
1, 36241, Note_on_c, 0, 68, 122
1, 36345, Note_off_c, 0, 68, 122
1, 36372, Note_on_c, 0, 68, 119
1, 36385, Note_off_c, 0, 68, 119
1, 36386, Note_on_c, 0, 70, 117
1, 36422, Note_off_c, 0, 70, 117
1, 36426, Note_on_c, 0, 67, 116
1, 36619, Note_off_c, 0, 67, 116
1, 37154, Note_on_c, 0, 74, 119
1, 37230, Note_off_c, 0, 74, 119
1, 37231, Note_on_c, 0, 69, 102
1, 37445, Note_off_c, 0, 69, 102
1, 38122, Note_on_c, 0, 77, 116
1, 38189, Note_off_c, 0, 77, 116
1, 38202, Note_on_c, 0, 75, 117
1, 38233, Note_off_c, 0, 75, 117
1, 38314, Note_on_c, 0, 72, 117
1, 38366, Note_off_c, 0, 72, 117
1, 38384, Note_on_c, 0, 70, 117
1, 38497, Note_off_c, 0, 70, 117
1, 38510, Note_on_c, 0, 67, 119
1, 38547, Note_off_c, 0, 67, 119
1, 38567, Note_on_c, 0, 71, 117
1, 38687, Note_off_c, 0, 71, 117
1, 38756, Note_on_c, 0, 72, 116
1, 38851, Note_off_c, 0, 72, 116
1, 39523, Note_on_c, 0, 79, 117
1, 39609, Note_off_c, 0, 79, 117
1, 39906, Note_on_c, 0, 77, 117
1, 40002, Note_off_c, 0, 77, 117
1, 40252, Note_on_c, 0, 74, 122
1, 40329, Note_off_c, 0, 74, 122
1, 40333, Note_on_c, 0, 72, 118
1, 40412, Note_off_c, 0, 72, 118
1, 40454, Note_on_c, 0, 69, 118
1, 40510, Note_off_c, 0, 69, 118
1, 40523, Note_on_c, 0, 67, 117
1, 40636, Note_off_c, 0, 67, 117
1, 40710, Note_on_c, 0, 65, 113
1, 40821, Note_off_c, 0, 65, 113
1, 41222, Note_on_c, 0, 72, 119
1, 41286, Note_off_c, 0, 72, 119
1, 41292, Note_on_c, 0, 77, 120
1, 41351, Note_off_c, 0, 77, 120
1, 41352, Note_on_c, 0, 75, 124
1, 41412, Note_off_c, 0, 75, 124
1, 41416, Note_on_c, 0, 70, 118
1, 41754, Note_off_c, 0, 70, 118
1, 41757, Note_on_c, 0, 67, 105
1, 41774, Note_off_c, 0, 67, 105
1, 41777, Note_on_c, 0, 68, 123
1, 41819, Note_off_c, 0, 68, 123
1, 41823, Note_on_c, 0, 70, 117
1, 41876, Note_off_c, 0, 70, 117
1, 41893, Note_on_c, 0, 67, 118
1, 41922, Note_off_c, 0, 67, 118
1, 41925, Note_on_c, 0, 68, 122
1, 41971, Note_off_c, 0, 68, 122
1, 41982, Note_on_c, 0, 67, 106
1, 42224, Note_off_c, 0, 67, 106
1, 42762, Note_on_c, 0, 77, 120
1, 42788, Note_off_c, 0, 77, 120
1, 42789, Note_on_c, 0, 76, 118
1, 42809, Note_off_c, 0, 76, 118
1, 42811, Note_on_c, 0, 75, 119
1, 42838, Note_off_c, 0, 75, 119
1, 42841, Note_on_c, 0, 74, 122
1, 42880, Note_off_c, 0, 74, 122
1, 42882, Note_on_c, 0, 72, 118
1, 42932, Note_off_c, 0, 72, 118
1, 42934, Note_on_c, 0, 71, 118
1, 42982, Note_off_c, 0, 71, 118
1, 42992, Note_on_c, 0, 68, 118
1, 43034, Note_off_c, 0, 68, 118
1, 43036, Note_on_c, 0, 67, 119
1, 43090, Note_off_c, 0, 67, 119
1, 43131, Note_on_c, 0, 70, 118
1, 43168, Note_off_c, 0, 70, 118
1, 43173, Note_on_c, 0, 67, 106
1, 43211, Note_off_c, 0, 67, 106
1, 43217, Note_on_c, 0, 69, 117
1, 43331, Note_off_c, 0, 69, 117
1, 43351, Note_on_c, 0, 67, 118
1, 43389, Note_off_c, 0, 67, 118
1, 43394, Note_on_c, 0, 66, 116
1, 43438, Note_off_c, 0, 66, 116
1, 43446, Note_on_c, 0, 69, 119
1, 43484, Note_off_c, 0, 69, 119
1, 43487, Note_on_c, 0, 72, 120
1, 43528, Note_off_c, 0, 72, 120
1, 43536, Note_on_c, 0, 75, 123
1, 43582, Note_off_c, 0, 75, 123
1, 43584, Note_on_c, 0, 74, 122
1, 43624, Note_off_c, 0, 74, 122
1, 43630, Note_on_c, 0, 72, 119
1, 43669, Note_off_c, 0, 72, 119
1, 43673, Note_on_c, 0, 70, 119
1, 43717, Note_off_c, 0, 70, 119
1, 43744, Note_on_c, 0, 67, 105
1, 43762, Note_off_c, 0, 67, 105
1, 43763, Note_on_c, 0, 69, 119
1, 43814, Note_off_c, 0, 69, 119
1, 43817, Note_on_c, 0, 67, 118
1, 43852, Note_off_c, 0, 67, 118
1, 43856, Note_on_c, 0, 66, 116
1, 43896, Note_off_c, 0, 66, 116
1, 43904, Note_on_c, 0, 69, 120
1, 43942, Note_off_c, 0, 69, 120
1, 43943, Note_on_c, 0, 67, 120
1, 44024, Note_off_c, 0, 67, 120
1, 44074, Note_on_c, 0, 69, 118
1, 44131, Note_off_c, 0, 69, 118
1, 44136, Note_on_c, 0, 70, 118
1, 44309, Note_off_c, 0, 70, 118
1, 44318, Note_on_c, 0, 66, 116
1, 44338, Note_off_c, 0, 66, 116
1, 44349, Note_on_c, 0, 65, 10
1, 44516, Note_off_c, 0, 65, 10
1, 44528, Note_on_c, 0, 63, 118
1, 44641, Note_off_c, 0, 63, 118
1, 44673, Note_on_c, 0, 60, 115
1, 44710, Note_off_c, 0, 60, 115
1, 44719, Note_on_c, 0, 58, 115
1, 44861, Note_off_c, 0, 58, 115
1, 44886, Note_on_c, 0, 55, 107
1, 44906, Note_off_c, 0, 55, 107
1, 44910, Note_on_c, 0, 58, 113
1, 45036, Note_off_c, 0, 58, 113
1, 45500, Note_on_c, 0, 71, 119
1, 45523, Note_off_c, 0, 71, 119
1, 45526, Note_on_c, 0, 72, 120
1, 45613, Note_off_c, 0, 72, 120
1, 45623, Note_on_c, 0, 75, 122
1, 45676, Note_off_c, 0, 75, 122
1, 45690, Note_on_c, 0, 75, 122
1, 45804, Note_off_c, 0, 75, 122
1, 45821, Note_on_c, 0, 75, 94
1, 45851, Note_off_c, 0, 75, 94
1, 46387, Note_on_c, 0, 77, 118
1, 46451, Note_off_c, 0, 77, 118
1, 46455, Note_on_c, 0, 75, 125
1, 46577, Note_off_c, 0, 75, 125
1, 46585, Note_on_c, 0, 75, 118
1, 46615, Note_off_c, 0, 75, 118
1, 47294, Note_on_c, 0, 77, 119
1, 47347, Note_off_c, 0, 77, 119
1, 47350, Note_on_c, 0, 75, 121
1, 47430, Note_off_c, 0, 75, 121
1, 47430, Note_on_c, 0, 82, 123
1, 47622, Note_off_c, 0, 82, 123
1, 47996, Note_on_c, 0, 80, 109
1, 48050, Note_off_c, 0, 80, 109
1, 48053, Note_on_c, 0, 79, 122
1, 48119, Note_off_c, 0, 79, 122
1, 48122, Note_on_c, 0, 77, 118
1, 48180, Note_off_c, 0, 77, 118
1, 48183, Note_on_c, 0, 76, 122
1, 48203, Note_off_c, 0, 76, 122
1, 48205, Note_on_c, 0, 75, 123
1, 48230, Note_off_c, 0, 75, 123
1, 48233, Note_on_c, 0, 74, 125
1, 48287, Note_off_c, 0, 74, 125
1, 48294, Note_on_c, 0, 75, 116
1, 48306, Note_off_c, 0, 75, 116
1, 48312, Note_on_c, 0, 72, 118
1, 48358, Note_off_c, 0, 72, 118
1, 48366, Note_on_c, 0, 71, 119
1, 48416, Note_off_c, 0, 71, 119
1, 48434, Note_on_c, 0, 68, 119
1, 48485, Note_off_c, 0, 68, 119
1, 48502, Note_on_c, 0, 67, 120
1, 48626, Note_off_c, 0, 67, 120
1, 48667, Note_on_c, 0, 73, 119
1, 48686, Note_off_c, 0, 73, 119
1, 48689, Note_on_c, 0, 74, 121
1, 48739, Note_off_c, 0, 74, 121
1, 48743, Note_on_c, 0, 72, 118
1, 48853, Note_off_c, 0, 72, 118
1, 48857, Note_on_c, 0, 72, 119
1, 48907, Note_off_c, 0, 72, 119
1, 48916, Note_on_c, 0, 75, 119
1, 49090, Note_off_c, 0, 75, 119
1, 49455, Note_on_c, 0, 72, 117
1, 49519, Note_off_c, 0, 72, 117
1, 49522, Note_on_c, 0, 70, 117
1, 49648, Note_off_c, 0, 70, 117
1, 49666, Note_on_c, 0, 67, 108
1, 49690, Note_off_c, 0, 67, 108
1, 49697, Note_on_c, 0, 72, 114
1, 49804, Note_off_c, 0, 72, 114
1, 50050, Note_on_c, 0, 60, 107
1, 50077, Note_off_c, 0, 60, 107
1, 50086, Note_on_c, 0, 65, 118
1, 50148, Note_off_c, 0, 65, 118
1, 50165, Note_on_c, 0, 63, 111
1, 50202, Note_off_c, 0, 63, 111
1, 50205, Note_on_c, 0, 65, 115
1, 50273, Note_off_c, 0, 65, 115
1, 50280, Note_on_c, 0, 63, 113
1, 50313, Note_off_c, 0, 63, 113
1, 50323, Note_on_c, 0, 65, 115
1, 50384, Note_off_c, 0, 65, 115
1, 50389, Note_on_c, 0, 63, 117
1, 50425, Note_off_c, 0, 63, 117
1, 50464, Note_on_c, 0, 66, 120
1, 50491, Note_off_c, 0, 66, 120
1, 50501, Note_on_c, 0, 67, 119
1, 50647, Note_off_c, 0, 67, 119
1, 50649, Note_on_c, 0, 66, 118
1, 50675, Note_off_c, 0, 66, 118
1, 50683, Note_on_c, 0, 65, 116
1, 50829, Note_off_c, 0, 65, 116
1, 50831, Note_on_c, 0, 63, 119
1, 50879, Note_off_c, 0, 63, 119
1, 50894, Note_on_c, 0, 60, 114
1, 50939, Note_off_c, 0, 60, 114
1, 50959, Note_on_c, 0, 65, 116
1, 51015, Note_off_c, 0, 65, 116
1, 51021, Note_on_c, 0, 63, 121
1, 51075, Note_off_c, 0, 63, 121
1, 51085, Note_on_c, 0, 60, 112
1, 51133, Note_off_c, 0, 60, 112
1, 51144, Note_on_c, 0, 65, 121
1, 51200, Note_off_c, 0, 65, 121
1, 51209, Note_on_c, 0, 63, 120
1, 51266, Note_off_c, 0, 63, 120
1, 51283, Note_on_c, 0, 60, 112
1, 51330, Note_off_c, 0, 60, 112
1, 51352, Note_on_c, 0, 65, 116
1, 51401, Note_off_c, 0, 65, 116
1, 51413, Note_on_c, 0, 63, 119
1, 51483, Note_off_c, 0, 63, 119
1, 51509, Note_on_c, 0, 60, 113
1, 51572, Note_off_c, 0, 60, 113
1, 51594, Note_on_c, 0, 58, 118
1, 51636, Note_off_c, 0, 58, 118
1, 51653, Note_on_c, 0, 55, 109
1, 51700, Note_off_c, 0, 55, 109
1, 51711, Note_on_c, 0, 60, 94
1, 52023, Note_off_c, 0, 60, 94
1, 52023, End_track
0, 0, End_of_file
