0, 0, Header, 1, 1, 192
1, 0, Start_track
1, 0, Title_t, "Melody"
1, 0, Tempo, 224719
1, 0, Key_signature, -1, "major"
1, 0, Time_signature, 4, 2, 24, 8
1, 3165, Note_on_c, 0, 75, 122
1, 3256, Note_off_c, 0, 75, 122
1, 3273, Note_on_c, 0, 76, 117
1, 3334, Note_off_c, 0, 76, 117
1, 3341, Note_on_c, 0, 75, 119
1, 3536, Note_off_c, 0, 75, 119
1, 3555, Note_on_c, 0, 79, 109
1, 3614, Note_off_c, 0, 79, 109
1, 3737, Note_on_c, 0, 77, 120
1, 4096, Note_off_c, 0, 77, 120
1, 4170, Note_on_c, 0, 74, 122
1, 4469, Note_off_c, 0, 74, 122
1, 4479, Note_on_c, 0, 72, 118
1, 4712, Note_off_c, 0, 72, 118
1, 4723, Note_on_c, 0, 69, 110
1, 4796, Note_off_c, 0, 69, 110
1, 4909, Note_on_c, 0, 69, 114
1, 5676, Note_off_c, 0, 69, 114
1, 5722, Note_on_c, 0, 67, 113
1, 5791, Note_off_c, 0, 67, 113
1, 5825, Note_on_c, 0, 70, 116
1, 5901, Note_off_c, 0, 70, 116
1, 5905, Note_on_c, 0, 69, 113
1, 6001, Note_off_c, 0, 69, 113
1, 6010, Note_on_c, 0, 65, 109
1, 6091, Note_off_c, 0, 65, 109
1, 6103, Note_on_c, 0, 63, 106
1, 6316, Note_off_c, 0, 63, 106
1, 6320, Note_on_c, 0, 65, 108
1, 6381, Note_off_c, 0, 65, 108
1, 6393, Note_on_c, 0, 67, 96
1, 6621, Note_off_c, 0, 67, 96
1, 6632, Note_on_c, 0, 69, 112
1, 7020, Note_off_c, 0, 69, 112
1, 7032, Note_on_c, 0, 67, 112
1, 7164, Note_off_c, 0, 67, 112
1, 7181, Note_on_c, 0, 65, 108
1, 7793, Note_off_c, 0, 65, 108
1, 7801, Note_on_c, 0, 63, 106
1, 7922, Note_off_c, 0, 63, 106
1, 7949, Note_on_c, 0, 65, 111
1, 8035, Note_off_c, 0, 65, 111
1, 8047, Note_on_c, 0, 67, 113
1, 8118, Note_off_c, 0, 67, 113
1, 8130, Note_on_c, 0, 69, 115
1, 8224, Note_off_c, 0, 69, 115
1, 8231, Note_on_c, 0, 70, 118
1, 8315, Note_off_c, 0, 70, 118
1, 8327, Note_on_c, 0, 67, 109
1, 8403, Note_off_c, 0, 67, 109
1, 8413, Note_on_c, 0, 69, 110
1, 8492, Note_off_c, 0, 69, 110
1, 8516, Note_on_c, 0, 72, 121
1, 8595, Note_off_c, 0, 72, 121
1, 8604, Note_on_c, 0, 77, 109
1, 8698, Note_off_c, 0, 77, 109
1, 9751, Note_on_c, 0, 79, 124
1, 9824, Note_off_c, 0, 79, 124
1, 9830, Note_on_c, 0, 80, 115
1, 9849, Note_off_c, 0, 80, 115
1, 9869, Note_on_c, 0, 79, 119
1, 10015, Note_off_c, 0, 79, 119
1, 10015, Note_on_c, 0, 81, 118
1, 10248, Note_off_c, 0, 81, 118
1, 10262, Note_on_c, 0, 79, 119
1, 10338, Note_off_c, 0, 79, 119
1, 10377, Note_on_c, 0, 74, 121
1, 10525, Note_off_c, 0, 74, 121
1, 10525, Note_on_c, 0, 72, 115
1, 10606, Note_off_c, 0, 72, 115
1, 11300, Note_on_c, 0, 75, 118
1, 11399, Note_off_c, 0, 75, 118
1, 11404, Note_on_c, 0, 79, 122
1, 11501, Note_off_c, 0, 79, 122
1, 11509, Note_on_c, 0, 77, 119
1, 11582, Note_off_c, 0, 77, 119
1, 11585, Note_on_c, 0, 74, 121
1, 11680, Note_off_c, 0, 74, 121
1, 11690, Note_on_c, 0, 72, 118
1, 11775, Note_off_c, 0, 72, 118
1, 11780, Note_on_c, 0, 77, 118
1, 11849, Note_off_c, 0, 77, 118
1, 11857, Note_on_c, 0, 72, 118
1, 11933, Note_off_c, 0, 72, 118
1, 11950, Note_on_c, 0, 72, 122
1, 12061, Note_off_c, 0, 72, 122
1, 12065, Note_on_c, 0, 74, 116
1, 12139, Note_off_c, 0, 74, 116
1, 12141, Note_on_c, 0, 70, 118
1, 12219, Note_off_c, 0, 70, 118
1, 12234, Note_on_c, 0, 67, 111
1, 12324, Note_off_c, 0, 67, 111
1, 12343, Note_on_c, 0, 72, 118
1, 12421, Note_off_c, 0, 72, 118
1, 12429, Note_on_c, 0, 69, 118
1, 12537, Note_off_c, 0, 69, 118
1, 12570, Note_on_c, 0, 65, 102
1, 12611, Note_off_c, 0, 65, 102
1, 12638, Note_on_c, 0, 70, 120
1, 12709, Note_off_c, 0, 70, 120
1, 12710, Note_on_c, 0, 69, 115
1, 12798, Note_off_c, 0, 69, 115
1, 12813, Note_on_c, 0, 65, 111
1, 12910, Note_off_c, 0, 65, 111
1, 12958, Note_on_c, 0, 62, 99
1, 12996, Note_off_c, 0, 62, 99
1, 13006, Note_on_c, 0, 67, 118
1, 13086, Note_off_c, 0, 67, 118
1, 13099, Note_on_c, 0, 63, 114
1, 13187, Note_off_c, 0, 63, 114
1, 13187, Note_on_c, 0, 60, 108
1, 13251, Note_off_c, 0, 60, 108
1, 13287, Note_on_c, 0, 58, 111
1, 13355, Note_off_c, 0, 58, 111
1, 13381, Note_on_c, 0, 55, 102
1, 13482, Note_off_c, 0, 55, 102
1, 13495, Note_on_c, 0, 57, 108
1, 13587, Note_off_c, 0, 57, 108
1, 13593, Note_on_c, 0, 58, 109
1, 13659, Note_off_c, 0, 58, 109
1, 13674, Note_on_c, 0, 60, 110
1, 13768, Note_off_c, 0, 60, 110
1, 13783, Note_on_c, 0, 62, 110
1, 13861, Note_off_c, 0, 62, 110
1, 13878, Note_on_c, 0, 63, 114
1, 13933, Note_off_c, 0, 63, 114
1, 13956, Note_on_c, 0, 60, 107
1, 14037, Note_off_c, 0, 60, 107
1, 14085, Note_on_c, 0, 62, 112
1, 14158, Note_off_c, 0, 62, 112
1, 14163, Note_on_c, 0, 63, 109
1, 14246, Note_off_c, 0, 63, 109
1, 14254, Note_on_c, 0, 65, 110
1, 14332, Note_off_c, 0, 65, 110
1, 14340, Note_on_c, 0, 67, 117
1, 14418, Note_off_c, 0, 67, 117
1, 14435, Note_on_c, 0, 69, 117
1, 14511, Note_off_c, 0, 69, 117
1, 14521, Note_on_c, 0, 70, 120
1, 14592, Note_off_c, 0, 70, 120
1, 14604, Note_on_c, 0, 72, 124
1, 14685, Note_off_c, 0, 72, 124
1, 14711, Note_on_c, 0, 74, 115
1, 14770, Note_off_c, 0, 74, 115
1, 14773, Note_on_c, 0, 77, 110
1, 14865, Note_off_c, 0, 77, 110
1, 15824, Note_on_c, 0, 77, 112
1, 15895, Note_off_c, 0, 77, 112
1, 16025, Note_on_c, 0, 79, 119
1, 16124, Note_off_c, 0, 79, 119
1, 16136, Note_on_c, 0, 80, 122
1, 16223, Note_off_c, 0, 80, 122
1, 16226, Note_on_c, 0, 79, 120
1, 16316, Note_off_c, 0, 79, 120
1, 16342, Note_on_c, 0, 75, 120
1, 16537, Note_off_c, 0, 75, 120
1, 16556, Note_on_c, 0, 70, 98
1, 16603, Note_off_c, 0, 70, 98
1, 16611, Note_on_c, 0, 77, 120
1, 16713, Note_off_c, 0, 77, 120
1, 16728, Note_on_c, 0, 72, 123
1, 16914, Note_off_c, 0, 72, 123
1, 16920, Note_on_c, 0, 74, 117
1, 17014, Note_off_c, 0, 74, 117
1, 17014, Note_on_c, 0, 72, 115
1, 17102, Note_off_c, 0, 72, 115
1, 17108, Note_on_c, 0, 68, 106
1, 17200, Note_off_c, 0, 68, 106
1, 17203, Note_on_c, 0, 70, 114
1, 17288, Note_off_c, 0, 70, 114
1, 17289, Note_on_c, 0, 73, 122
1, 17379, Note_off_c, 0, 73, 122
1, 17385, Note_on_c, 0, 72, 116
1, 17480, Note_off_c, 0, 72, 116
1, 17485, Note_on_c, 0, 70, 114
1, 17575, Note_off_c, 0, 70, 114
1, 17580, Note_on_c, 0, 68, 113
1, 17682, Note_off_c, 0, 68, 113
1, 17709, Note_on_c, 0, 65, 101
1, 17771, Note_off_c, 0, 65, 101
1, 17777, Note_on_c, 0, 70, 116
1, 17865, Note_off_c, 0, 70, 116
1, 17875, Note_on_c, 0, 69, 114
1, 17955, Note_off_c, 0, 69, 114
1, 17960, Note_on_c, 0, 68, 111
1, 18061, Note_off_c, 0, 68, 111
1, 18066, Note_on_c, 0, 63, 108
1, 18132, Note_off_c, 0, 63, 108
1, 18140, Note_on_c, 0, 60, 104
1, 18239, Note_off_c, 0, 60, 104
1, 18256, Note_on_c, 0, 65, 114
1, 18320, Note_off_c, 0, 65, 114
1, 18330, Note_on_c, 0, 63, 107
1, 18410, Note_off_c, 0, 63, 107
1, 18465, Note_on_c, 0, 58, 107
1, 18522, Note_off_c, 0, 58, 107
1, 18535, Note_on_c, 0, 59, 101
1, 18618, Note_off_c, 0, 59, 101
1, 18621, Note_on_c, 0, 63, 105
1, 18797, Note_off_c, 0, 63, 105
1, 18803, Note_on_c, 0, 65, 109
1, 18998, Note_off_c, 0, 65, 109
1, 19006, Note_on_c, 0, 68, 113
1, 19187, Note_off_c, 0, 68, 113
1, 19218, Note_on_c, 0, 65, 100
1, 19272, Note_off_c, 0, 65, 100
1, 19294, Note_on_c, 0, 70, 113
1, 19379, Note_off_c, 0, 70, 113
1, 19399, Note_on_c, 0, 75, 120
1, 20087, Note_off_c, 0, 75, 120
1, 20104, Note_on_c, 0, 74, 108
1, 20126, Note_off_c, 0, 74, 108
1, 20138, Note_on_c, 0, 76, 110
1, 20171, Note_off_c, 0, 76, 110
1, 20186, Note_on_c, 0, 75, 114
1, 20477, Note_off_c, 0, 75, 114
1, 20492, Note_on_c, 0, 74, 104
1, 20525, Note_off_c, 0, 74, 104
1, 20531, Note_on_c, 0, 76, 109
1, 20572, Note_off_c, 0, 76, 109
1, 20580, Note_on_c, 0, 75, 109
1, 20632, Note_off_c, 0, 75, 109
1, 21564, Note_on_c, 0, 80, 124
1, 21684, Note_off_c, 0, 80, 124
1, 21697, Note_on_c, 0, 80, 127
1, 21759, Note_off_c, 0, 80, 127
1, 21778, Note_on_c, 0, 80, 124
1, 21957, Note_off_c, 0, 80, 124
1, 22881, Note_on_c, 0, 75, 115
1, 22978, Note_off_c, 0, 75, 115
1, 22986, Note_on_c, 0, 77, 122
1, 23067, Note_off_c, 0, 77, 122
1, 23068, Note_on_c, 0, 78, 123
1, 23149, Note_off_c, 0, 78, 123
1, 23166, Note_on_c, 0, 82, 114
1, 23282, Note_off_c, 0, 82, 114
1, 23649, Note_on_c, 0, 80, 122
1, 23757, Note_off_c, 0, 80, 122
1, 23763, Note_on_c, 0, 77, 116
1, 23857, Note_off_c, 0, 77, 116
1, 23857, Note_on_c, 0, 75, 118
1, 23980, Note_off_c, 0, 75, 118
1, 24058, Note_on_c, 0, 77, 115
1, 24145, Note_off_c, 0, 77, 115
1, 24153, Note_on_c, 0, 72, 110
1, 24214, Note_off_c, 0, 72, 110
1, 24231, Note_on_c, 0, 72, 117
1, 24325, Note_off_c, 0, 72, 117
1, 24337, Note_on_c, 0, 70, 114
1, 24406, Note_off_c, 0, 70, 114
1, 24425, Note_on_c, 0, 68, 109
1, 24519, Note_off_c, 0, 68, 109
1, 24592, Note_on_c, 0, 65, 106
1, 24635, Note_off_c, 0, 65, 106
1, 24641, Note_on_c, 0, 70, 115
1, 24712, Note_off_c, 0, 70, 115
1, 24725, Note_on_c, 0, 69, 116
1, 24806, Note_off_c, 0, 69, 116
1, 24812, Note_on_c, 0, 68, 109
1, 24881, Note_off_c, 0, 68, 109
1, 24914, Note_on_c, 0, 63, 106
1, 24994, Note_off_c, 0, 63, 106
1, 24999, Note_on_c, 0, 60, 104
1, 25072, Note_off_c, 0, 60, 104
1, 25099, Note_on_c, 0, 65, 109
1, 25175, Note_off_c, 0, 65, 109
1, 25178, Note_on_c, 0, 63, 108
1, 25469, Note_off_c, 0, 63, 108
1, 25502, Note_on_c, 0, 65, 105
1, 25578, Note_off_c, 0, 65, 105
1, 25583, Note_on_c, 0, 68, 116
1, 25891, Note_off_c, 0, 68, 116
1, 25922, Note_on_c, 0, 65, 97
1, 25974, Note_off_c, 0, 65, 97
1, 25975, Note_on_c, 0, 70, 111
1, 26067, Note_off_c, 0, 70, 111
1, 26067, Note_on_c, 0, 69, 111
1, 26155, Note_off_c, 0, 69, 111
1, 26170, Note_on_c, 0, 68, 110
1, 26250, Note_off_c, 0, 68, 110
1, 26260, Note_on_c, 0, 63, 102
1, 26347, Note_off_c, 0, 63, 102
1, 26364, Note_on_c, 0, 60, 93
1, 26444, Note_off_c, 0, 60, 93
1, 26454, Note_on_c, 0, 65, 106
1, 26549, Note_off_c, 0, 65, 106
1, 26555, Note_on_c, 0, 63, 102
1, 26612, Note_off_c, 0, 63, 102
1, 26615, Note_on_c, 0, 65, 102
1, 26717, Note_off_c, 0, 65, 102
1, 26718, Note_on_c, 0, 67, 110
1, 26803, Note_off_c, 0, 67, 110
1, 26811, Note_on_c, 0, 69, 106
1, 26894, Note_off_c, 0, 69, 106
1, 26909, Note_on_c, 0, 70, 108
1, 26964, Note_off_c, 0, 70, 108
1, 26983, Note_on_c, 0, 72, 117
1, 27071, Note_off_c, 0, 72, 117
1, 27079, Note_on_c, 0, 74, 119
1, 27145, Note_off_c, 0, 74, 119
1, 27183, Note_on_c, 0, 74, 116
1, 27277, Note_off_c, 0, 74, 116
1, 27290, Note_on_c, 0, 74, 113
1, 27354, Note_off_c, 0, 74, 113
1, 27397, Note_on_c, 0, 74, 116
1, 27466, Note_off_c, 0, 74, 116
1, 27481, Note_on_c, 0, 74, 111
1, 27529, Note_off_c, 0, 74, 111
1, 27572, Note_on_c, 0, 74, 115
1, 27652, Note_off_c, 0, 74, 115
1, 27664, Note_on_c, 0, 74, 110
1, 27730, Note_off_c, 0, 74, 110
1, 27771, Note_on_c, 0, 74, 111
1, 27804, Note_off_c, 0, 74, 111
1, 27814, Note_on_c, 0, 74, 116
1, 27909, Note_off_c, 0, 74, 116
1, 27921, Note_on_c, 0, 70, 105
1, 27966, Note_off_c, 0, 70, 105
1, 28006, Note_on_c, 0, 67, 101
1, 28089, Note_off_c, 0, 67, 101
1, 28089, End_track
0, 0, End_of_file
