0, 0, Header, 1, 1, 192
1, 0, Start_track
1, 0, Title_t, "Melody"
1, 0, Tempo, 237154
1, 0, Key_signature, -1, "major"
1, 0, Time_signature, 4, 2, 24, 8
1, 2709, Note_on_c, 0, 65, 113
1, 2785, Note_off_c, 0, 65, 113
1, 2795, Note_on_c, 0, 64, 110
1, 2862, Note_off_c, 0, 64, 110
1, 2881, Note_on_c, 0, 63, 100
1, 2959, Note_off_c, 0, 63, 100
1, 2959, Note_on_c, 0, 65, 114
1, 3048, Note_off_c, 0, 65, 114
1, 3062, Note_on_c, 0, 66, 113
1, 3139, Note_off_c, 0, 66, 113
1, 3148, Note_on_c, 0, 68, 121
1, 3236, Note_off_c, 0, 68, 121
1, 3243, Note_on_c, 0, 69, 115
1, 3332, Note_off_c, 0, 69, 115
1, 3338, Note_on_c, 0, 71, 120
1, 3432, Note_off_c, 0, 71, 120
1, 3439, Note_on_c, 0, 73, 121
1, 3528, Note_off_c, 0, 73, 121
1, 3531, Note_on_c, 0, 76, 120
1, 3622, Note_off_c, 0, 76, 120
1, 3636, Note_on_c, 0, 75, 118
1, 3706, Note_off_c, 0, 75, 118
1, 3715, Note_on_c, 0, 73, 121
1, 3812, Note_off_c, 0, 73, 121
1, 3825, Note_on_c, 0, 71, 119
1, 3924, Note_off_c, 0, 71, 119
1, 3941, Note_on_c, 0, 69, 86
1, 3996, Note_off_c, 0, 69, 86
1, 3999, Note_on_c, 0, 74, 123
1, 4153, Note_off_c, 0, 74, 123
1, 4233, Note_on_c, 0, 71, 119
1, 4423, Note_off_c, 0, 71, 119
1, 4452, Note_on_c, 0, 74, 121
1, 4564, Note_off_c, 0, 74, 121
1, 4582, Note_on_c, 0, 69, 105
1, 4639, Note_off_c, 0, 69, 105
1, 4815, Note_on_c, 0, 69, 107
1, 4857, Note_off_c, 0, 69, 107
1, 5446, Note_on_c, 0, 75, 120
1, 5537, Note_off_c, 0, 75, 120
1, 5543, Note_on_c, 0, 73, 110
1, 5633, Note_off_c, 0, 73, 110
1, 5652, Note_on_c, 0, 72, 112
1, 5728, Note_off_c, 0, 72, 112
1, 5750, Note_on_c, 0, 70, 110
1, 5830, Note_off_c, 0, 70, 110
1, 5856, Note_on_c, 0, 69, 115
1, 6036, Note_off_c, 0, 69, 115
1, 6050, Note_on_c, 0, 70, 107
1, 6119, Note_off_c, 0, 70, 107
1, 6139, Note_on_c, 0, 72, 101
1, 6225, Note_off_c, 0, 72, 101
1, 6235, Note_on_c, 0, 67, 107
1, 6315, Note_off_c, 0, 67, 107
1, 7559, Note_on_c, 0, 72, 110
1, 7624, Note_off_c, 0, 72, 110
1, 7633, Note_on_c, 0, 74, 117
1, 7728, Note_off_c, 0, 74, 117
1, 7742, Note_on_c, 0, 76, 114
1, 7814, Note_off_c, 0, 76, 114
1, 7828, Note_on_c, 0, 79, 115
1, 7916, Note_off_c, 0, 79, 115
1, 7937, Note_on_c, 0, 77, 118
1, 8007, Note_off_c, 0, 77, 118
1, 8019, Note_on_c, 0, 76, 118
1, 8140, Note_off_c, 0, 76, 118
1, 8173, Note_on_c, 0, 70, 102
1, 8205, Note_off_c, 0, 70, 102
1, 8220, Note_on_c, 0, 77, 118
1, 8305, Note_off_c, 0, 77, 118
1, 8319, Note_on_c, 0, 75, 121
1, 8403, Note_off_c, 0, 75, 121
1, 8436, Note_on_c, 0, 70, 114
1, 8565, Note_off_c, 0, 70, 114
1, 8591, Note_on_c, 0, 68, 99
1, 8612, Note_off_c, 0, 68, 99
1, 8625, Note_on_c, 0, 75, 119
1, 8703, Note_off_c, 0, 75, 119
1, 8718, Note_on_c, 0, 73, 118
1, 8799, Note_off_c, 0, 73, 118
1, 8811, Note_on_c, 0, 68, 117
1, 8901, Note_off_c, 0, 68, 117
1, 8957, Note_on_c, 0, 73, 119
1, 9014, Note_off_c, 0, 73, 119
1, 9029, Note_on_c, 0, 70, 115
1, 9107, Note_off_c, 0, 70, 115
1, 9214, Note_on_c, 0, 71, 105
1, 9295, Note_off_c, 0, 71, 105
1, 9320, Note_on_c, 0, 71, 118
1, 9400, Note_off_c, 0, 71, 118
1, 9408, Note_on_c, 0, 73, 114
1, 9470, Note_off_c, 0, 73, 114
1, 9479, Note_on_c, 0, 76, 121
1, 9568, Note_off_c, 0, 76, 121
1, 9575, Note_on_c, 0, 75, 119
1, 9646, Note_off_c, 0, 75, 119
1, 9663, Note_on_c, 0, 73, 119
1, 9750, Note_off_c, 0, 73, 119
1, 9763, Note_on_c, 0, 71, 116
1, 9814, Note_off_c, 0, 71, 116
1, 9920, Note_on_c, 0, 70, 105
1, 9947, Note_off_c, 0, 70, 105
1, 9959, Note_on_c, 0, 73, 119
1, 10056, Note_off_c, 0, 73, 119
1, 10067, Note_on_c, 0, 71, 106
1, 10139, Note_off_c, 0, 71, 106
1, 10149, Note_on_c, 0, 72, 118
1, 10213, Note_off_c, 0, 72, 118
1, 10279, Note_on_c, 0, 64, 108
1, 10350, Note_off_c, 0, 64, 108
1, 10363, Note_on_c, 0, 65, 101
1, 10436, Note_off_c, 0, 65, 101
1, 10468, Note_on_c, 0, 70, 116
1, 10535, Note_off_c, 0, 70, 116
1, 10550, Note_on_c, 0, 67, 112
1, 10631, Note_off_c, 0, 67, 112
1, 10649, Note_on_c, 0, 68, 116
1, 10709, Note_off_c, 0, 68, 116
1, 10728, Note_on_c, 0, 69, 117
1, 10814, Note_off_c, 0, 69, 117
1, 10855, Note_on_c, 0, 65, 107
1, 10929, Note_off_c, 0, 65, 107
1, 10964, Note_on_c, 0, 63, 104
1, 11020, Note_off_c, 0, 63, 104
1, 11115, Note_on_c, 0, 65, 114
1, 11719, Note_off_c, 0, 65, 114
1, 11778, Note_on_c, 0, 67, 113
1, 11861, Note_off_c, 0, 67, 113
1, 11906, Note_on_c, 0, 64, 108
1, 11944, Note_off_c, 0, 64, 108
1, 11949, Note_on_c, 0, 65, 104
1, 12025, Note_off_c, 0, 65, 104
1, 12074, Note_on_c, 0, 67, 117
1, 12130, Note_off_c, 0, 67, 117
1, 12149, Note_on_c, 0, 69, 116
1, 12223, Note_off_c, 0, 69, 116
1, 12247, Note_on_c, 0, 65, 97
1, 12284, Note_off_c, 0, 65, 97
1, 13317, Note_on_c, 0, 76, 113
1, 13401, Note_off_c, 0, 76, 113
1, 13416, Note_on_c, 0, 74, 118
1, 13488, Note_off_c, 0, 74, 118
1, 13502, Note_on_c, 0, 73, 119
1, 13605, Note_off_c, 0, 73, 119
1, 13682, Note_on_c, 0, 74, 118
1, 13800, Note_off_c, 0, 74, 118
1, 13805, Note_on_c, 0, 69, 94
1, 13870, Note_off_c, 0, 69, 94
1, 14496, Note_on_c, 0, 76, 119
1, 14571, Note_off_c, 0, 76, 119
1, 14606, Note_on_c, 0, 78, 120
1, 14665, Note_off_c, 0, 78, 120
1, 14691, Note_on_c, 0, 78, 119
1, 14723, Note_off_c, 0, 78, 119
1, 14734, Note_on_c, 0, 76, 108
1, 14765, Note_off_c, 0, 76, 108
1, 14776, Note_on_c, 0, 74, 114
1, 14858, Note_off_c, 0, 74, 114
1, 14873, Note_on_c, 0, 73, 119
1, 14948, Note_off_c, 0, 73, 119
1, 14982, Note_on_c, 0, 71, 115
1, 15050, Note_off_c, 0, 71, 115
1, 15067, Note_on_c, 0, 70, 113
1, 15126, Note_off_c, 0, 70, 113
1, 15148, Note_on_c, 0, 73, 117
1, 15224, Note_off_c, 0, 73, 117
1, 15240, Note_on_c, 0, 71, 117
1, 15316, Note_off_c, 0, 71, 117
1, 15397, Note_on_c, 0, 69, 114
1, 15495, Note_off_c, 0, 69, 114
1, 15519, Note_on_c, 0, 71, 115
1, 15585, Note_off_c, 0, 71, 115
1, 15597, Note_on_c, 0, 68, 116
1, 15687, Note_off_c, 0, 68, 116
1, 15714, Note_on_c, 0, 66, 114
1, 15773, Note_off_c, 0, 66, 114
1, 15822, Note_on_c, 0, 64, 113
1, 15885, Note_off_c, 0, 64, 113
1, 15976, Note_on_c, 0, 62, 115
1, 16081, Note_off_c, 0, 62, 115
1, 16186, Note_on_c, 0, 64, 118
1, 16274, Note_off_c, 0, 64, 118
1, 16400, Note_on_c, 0, 65, 118
1, 16466, Note_off_c, 0, 65, 118
1, 16492, Note_on_c, 0, 67, 118
1, 16570, Note_off_c, 0, 67, 118
1, 16581, Note_on_c, 0, 68, 116
1, 16659, Note_off_c, 0, 68, 116
1, 16694, Note_on_c, 0, 69, 119
1, 16762, Note_off_c, 0, 69, 119
1, 16780, Note_on_c, 0, 70, 116
1, 16845, Note_off_c, 0, 70, 116
1, 16877, Note_on_c, 0, 69, 117
1, 16958, Note_off_c, 0, 69, 117
1, 16974, Note_on_c, 0, 68, 114
1, 17042, Note_off_c, 0, 68, 114
1, 17054, Note_on_c, 0, 70, 119
1, 17135, Note_off_c, 0, 70, 119
1, 17149, Note_on_c, 0, 71, 116
1, 17220, Note_off_c, 0, 71, 116
1, 17235, Note_on_c, 0, 73, 122
1, 17311, Note_off_c, 0, 73, 122
1, 17323, Note_on_c, 0, 75, 122
1, 17402, Note_off_c, 0, 75, 122
1, 17427, Note_on_c, 0, 71, 117
1, 17516, Note_off_c, 0, 71, 117
1, 17527, Note_on_c, 0, 70, 117
1, 17621, Note_off_c, 0, 70, 117
1, 17713, Note_on_c, 0, 73, 120
1, 17792, Note_off_c, 0, 73, 120
1, 17797, Note_on_c, 0, 70, 115
1, 17882, Note_off_c, 0, 70, 115
1, 17893, Note_on_c, 0, 66, 110
1, 17995, Note_off_c, 0, 66, 110
1, 18021, Note_on_c, 0, 71, 117
1, 18096, Note_off_c, 0, 71, 117
1, 18110, Note_on_c, 0, 68, 115
1, 18183, Note_off_c, 0, 68, 115
1, 18273, Note_on_c, 0, 69, 114
1, 18347, Note_off_c, 0, 69, 114
1, 18366, Note_on_c, 0, 68, 117
1, 18444, Note_off_c, 0, 68, 117
1, 18451, Note_on_c, 0, 67, 100
1, 18479, Note_off_c, 0, 67, 100
1, 18496, Note_on_c, 0, 64, 115
1, 18569, Note_off_c, 0, 64, 115
1, 18689, Note_on_c, 0, 66, 117
1, 18783, Note_off_c, 0, 66, 117
1, 18883, Note_on_c, 0, 67, 115
1, 19339, Note_off_c, 0, 67, 115
1, 19391, Note_on_c, 0, 65, 117
1, 19447, Note_off_c, 0, 65, 117
1, 19460, Note_on_c, 0, 64, 116
1, 19524, Note_off_c, 0, 64, 116
1, 19545, Note_on_c, 0, 62, 112
1, 19592, Note_off_c, 0, 62, 112
1, 19634, Note_on_c, 0, 60, 110
1, 19706, Note_off_c, 0, 60, 110
1, 19747, Note_on_c, 0, 58, 116
1, 19780, Note_off_c, 0, 58, 116
1, 19797, Note_on_c, 0, 57, 115
1, 19878, Note_off_c, 0, 57, 115
1, 19946, Note_on_c, 0, 61, 113
1, 20001, Note_off_c, 0, 61, 113
1, 20009, Note_on_c, 0, 62, 115
1, 20037, Note_off_c, 0, 62, 115
1, 20042, Note_on_c, 0, 63, 116
1, 20076, Note_off_c, 0, 63, 116
1, 20084, Note_on_c, 0, 65, 119
1, 20137, Note_off_c, 0, 65, 119
1, 20146, Note_on_c, 0, 67, 121
1, 20181, Note_off_c, 0, 67, 121
1, 20186, Note_on_c, 0, 68, 116
1, 20218, Note_off_c, 0, 68, 116
1, 20227, Note_on_c, 0, 70, 117
1, 20264, Note_off_c, 0, 70, 117
1, 20270, Note_on_c, 0, 72, 119
1, 20321, Note_off_c, 0, 72, 119
1, 20328, Note_on_c, 0, 74, 121
1, 20376, Note_off_c, 0, 74, 121
1, 20381, Note_on_c, 0, 75, 118
1, 20424, Note_off_c, 0, 75, 118
1, 20428, Note_on_c, 0, 77, 116
1, 20478, Note_off_c, 0, 77, 116
1, 22656, Note_on_c, 0, 74, 118
1, 22770, Note_off_c, 0, 74, 118
1, 22793, Note_on_c, 0, 77, 116
1, 22870, Note_off_c, 0, 77, 116
1, 22884, Note_on_c, 0, 77, 105
1, 22958, Note_off_c, 0, 77, 105
1, 24251, Note_on_c, 0, 74, 120
1, 24327, Note_off_c, 0, 74, 120
1, 24347, Note_on_c, 0, 77, 117
1, 24427, Note_off_c, 0, 77, 117
1, 24442, Note_on_c, 0, 77, 111
1, 24518, Note_off_c, 0, 77, 111
1, 25803, Note_on_c, 0, 77, 117
1, 25876, Note_off_c, 0, 77, 117
1, 25900, Note_on_c, 0, 81, 118
1, 25986, Note_off_c, 0, 81, 118
1, 26005, Note_on_c, 0, 82, 119
1, 26091, Note_off_c, 0, 82, 119
1, 26096, Note_on_c, 0, 81, 123
1, 26171, Note_off_c, 0, 81, 123
1, 26180, Note_on_c, 0, 80, 127
1, 26276, Note_off_c, 0, 80, 127
1, 26293, Note_on_c, 0, 81, 116
1, 26355, Note_off_c, 0, 81, 116
1, 26366, Note_on_c, 0, 82, 119
1, 26467, Note_off_c, 0, 82, 119
1, 26473, Note_on_c, 0, 83, 118
1, 26542, Note_off_c, 0, 83, 118
1, 26556, Note_on_c, 0, 82, 121
1, 26646, Note_off_c, 0, 82, 121
1, 26660, Note_on_c, 0, 81, 122
1, 26725, Note_off_c, 0, 81, 122
1, 26733, Note_on_c, 0, 82, 119
1, 26912, Note_off_c, 0, 82, 119
1, 26921, Note_on_c, 0, 81, 116
1, 27010, Note_off_c, 0, 81, 116
1, 27918, Note_on_c, 0, 79, 121
1, 27994, Note_off_c, 0, 79, 121
1, 28007, Note_on_c, 0, 81, 120
1, 28105, Note_off_c, 0, 81, 120
1, 28110, Note_on_c, 0, 79, 111
1, 28165, Note_off_c, 0, 79, 111
1, 28171, Note_on_c, 0, 77, 117
1, 28253, Note_off_c, 0, 77, 117
1, 28260, Note_on_c, 0, 76, 116
1, 28344, Note_off_c, 0, 76, 116
1, 28351, Note_on_c, 0, 74, 117
1, 28432, Note_off_c, 0, 74, 117
1, 28444, Note_on_c, 0, 72, 116
1, 28509, Note_off_c, 0, 72, 116
1, 28528, Note_on_c, 0, 71, 114
1, 28600, Note_off_c, 0, 71, 114
1, 28626, Note_on_c, 0, 70, 113
1, 28697, Note_off_c, 0, 70, 113
1, 28712, Note_on_c, 0, 69, 115
1, 28786, Note_off_c, 0, 69, 115
1, 28801, Note_on_c, 0, 67, 116
1, 28889, Note_off_c, 0, 67, 116
1, 28921, Note_on_c, 0, 69, 117
1, 28986, Note_off_c, 0, 69, 117
1, 28998, Note_on_c, 0, 70, 113
1, 29079, Note_off_c, 0, 70, 113
1, 29106, Note_on_c, 0, 72, 118
1, 29172, Note_off_c, 0, 72, 118
1, 29179, Note_on_c, 0, 74, 115
1, 29255, Note_off_c, 0, 74, 115
1, 29266, Note_on_c, 0, 77, 120
1, 29340, Note_off_c, 0, 77, 120
1, 29375, Note_on_c, 0, 76, 115
1, 29428, Note_off_c, 0, 76, 115
1, 29439, Note_on_c, 0, 75, 116
1, 29480, Note_off_c, 0, 75, 116
1, 29492, Note_on_c, 0, 74, 118
1, 29556, Note_off_c, 0, 74, 118
1, 29568, Note_on_c, 0, 73, 116
1, 29643, Note_off_c, 0, 73, 116
1, 29655, Note_on_c, 0, 76, 116
1, 29761, Note_off_c, 0, 76, 116
1, 29769, Note_on_c, 0, 74, 115
1, 29837, Note_off_c, 0, 74, 115
1, 29893, Note_on_c, 0, 70, 90
1, 29936, Note_off_c, 0, 70, 90
1, 29944, Note_on_c, 0, 74, 117
1, 30069, Note_off_c, 0, 74, 117
1, 30076, Note_on_c, 0, 72, 117
1, 30356, Note_off_c, 0, 72, 117
1, 30371, Note_on_c, 0, 70, 116
1, 30496, Note_off_c, 0, 70, 116
1, 30535, Note_on_c, 0, 67, 102
1, 30577, Note_off_c, 0, 67, 102
1, 30598, Note_on_c, 0, 69, 116
1, 30662, Note_off_c, 0, 69, 116
1, 30733, Note_on_c, 0, 60, 105
1, 30781, Note_off_c, 0, 60, 105
1, 30795, Note_on_c, 0, 65, 91
1, 30844, Note_off_c, 0, 65, 91
1, 30859, Note_on_c, 0, 69, 115
1, 30922, Note_off_c, 0, 69, 115
1, 30939, Note_on_c, 0, 67, 115
1, 31031, Note_off_c, 0, 67, 115
1, 31144, Note_on_c, 0, 70, 114
1, 31240, Note_off_c, 0, 70, 114
1, 31248, Note_on_c, 0, 67, 105
1, 31319, Note_off_c, 0, 67, 105
1, 31325, Note_on_c, 0, 69, 116
1, 31610, Note_off_c, 0, 69, 116
1, 31629, Note_on_c, 0, 72, 117
1, 31929, Note_off_c, 0, 72, 117
1, 31942, Note_on_c, 0, 70, 116
1, 32055, Note_off_c, 0, 70, 116
1, 32064, Note_on_c, 0, 69, 117
1, 32246, Note_off_c, 0, 69, 117
1, 32258, Note_on_c, 0, 72, 117
1, 32312, Note_off_c, 0, 72, 117
1, 32474, Note_on_c, 0, 70, 114
1, 32749, Note_off_c, 0, 70, 114
1, 32777, Note_on_c, 0, 67, 101
1, 32840, Note_off_c, 0, 67, 101
1, 32858, Note_on_c, 0, 69, 115
1, 33008, Note_off_c, 0, 69, 115
1, 33031, Note_on_c, 0, 67, 114
1, 33157, Note_off_c, 0, 67, 114
1, 33167, Note_on_c, 0, 66, 115
1, 33231, Note_off_c, 0, 66, 115
1, 33354, Note_on_c, 0, 63, 113
1, 33515, Note_off_c, 0, 63, 113
1, 33559, Note_on_c, 0, 65, 114
1, 33624, Note_off_c, 0, 65, 114
1, 33647, Note_on_c, 0, 62, 110
1, 33753, Note_off_c, 0, 62, 110
1, 33855, Note_on_c, 0, 64, 114
1, 33945, Note_off_c, 0, 64, 114
1, 34043, Note_on_c, 0, 65, 119
1, 34152, Note_off_c, 0, 65, 119
1, 34171, Note_on_c, 0, 67, 113
1, 34217, Note_off_c, 0, 67, 113
1, 34227, Note_on_c, 0, 69, 112
1, 34326, Note_off_c, 0, 69, 112
1, 35251, Note_on_c, 0, 65, 116
1, 35310, Note_off_c, 0, 65, 116
1, 35325, Note_on_c, 0, 63, 101
1, 35409, Note_off_c, 0, 63, 101
1, 35432, Note_on_c, 0, 65, 111
1, 35503, Note_off_c, 0, 65, 111
1, 35536, Note_on_c, 0, 67, 113
1, 35610, Note_off_c, 0, 67, 113
1, 35652, Note_on_c, 0, 65, 106
1, 35704, Note_off_c, 0, 65, 106
1, 35743, Note_on_c, 0, 62, 103
1, 35814, Note_off_c, 0, 62, 103
1, 35836, Note_on_c, 0, 63, 105
1, 35877, Note_off_c, 0, 63, 105
1, 35911, Note_on_c, 0, 68, 115
1, 35998, Note_off_c, 0, 68, 115
1, 36011, Note_on_c, 0, 69, 116
1, 36067, Note_off_c, 0, 69, 116
1, 36078, Note_on_c, 0, 70, 114
1, 36138, Note_off_c, 0, 70, 114
1, 36176, Note_on_c, 0, 71, 115
1, 36240, Note_off_c, 0, 71, 115
1, 36251, Note_on_c, 0, 72, 117
1, 36335, Note_off_c, 0, 72, 117
1, 36564, Note_on_c, 0, 70, 116
1, 36625, Note_off_c, 0, 70, 116
1, 36641, Note_on_c, 0, 67, 109
1, 36726, Note_off_c, 0, 67, 109
1, 36745, Note_on_c, 0, 68, 116
1, 36816, Note_off_c, 0, 68, 116
1, 36832, Note_on_c, 0, 69, 117
1, 36897, Note_off_c, 0, 69, 117
1, 36938, Note_on_c, 0, 64, 102
1, 36978, Note_off_c, 0, 64, 102
1, 37002, Note_on_c, 0, 67, 117
1, 37077, Note_off_c, 0, 67, 117
1, 37104, Note_on_c, 0, 69, 117
1, 37174, Note_off_c, 0, 69, 117
1, 37183, Note_on_c, 0, 67, 116
1, 37259, Note_off_c, 0, 67, 116
1, 37282, Note_on_c, 0, 65, 117
1, 37358, Note_off_c, 0, 65, 117
1, 37371, Note_on_c, 0, 64, 113
1, 37589, Note_off_c, 0, 64, 113
1, 39107, Note_on_c, 0, 76, 118
1, 39195, Note_off_c, 0, 76, 118
1, 39213, Note_on_c, 0, 78, 117
1, 39285, Note_off_c, 0, 78, 117
1, 39295, Note_on_c, 0, 76, 114
1, 39356, Note_off_c, 0, 76, 114
1, 39366, Note_on_c, 0, 74, 116
1, 39442, Note_off_c, 0, 74, 116
1, 39454, Note_on_c, 0, 73, 117
1, 39544, Note_off_c, 0, 73, 117
1, 39572, Note_on_c, 0, 71, 113
1, 39626, Note_off_c, 0, 71, 113
1, 39637, Note_on_c, 0, 70, 111
1, 39728, Note_off_c, 0, 70, 111
1, 39748, Note_on_c, 0, 73, 118
1, 39810, Note_off_c, 0, 73, 118
1, 39818, Note_on_c, 0, 71, 111
1, 39896, Note_off_c, 0, 71, 111
1, 39915, Note_on_c, 0, 69, 113
1, 40005, Note_off_c, 0, 69, 113
1, 40014, Note_on_c, 0, 68, 118
1, 40079, Note_off_c, 0, 68, 118
1, 40102, Note_on_c, 0, 66, 113
1, 40163, Note_off_c, 0, 66, 113
1, 40186, Note_on_c, 0, 64, 114
1, 40276, Note_off_c, 0, 64, 114
1, 40391, Note_on_c, 0, 62, 116
1, 40486, Note_off_c, 0, 62, 116
1, 40576, Note_on_c, 0, 64, 113
1, 40660, Note_off_c, 0, 64, 113
1, 40775, Note_on_c, 0, 65, 115
1, 40865, Note_off_c, 0, 65, 115
1, 40879, Note_on_c, 0, 64, 116
1, 40954, Note_off_c, 0, 64, 116
1, 40974, Note_on_c, 0, 63, 115
1, 41021, Note_off_c, 0, 63, 115
1, 41057, Note_on_c, 0, 66, 117
1, 41105, Note_off_c, 0, 66, 117
1, 41127, Note_on_c, 0, 65, 115
1, 41218, Note_off_c, 0, 65, 115
1, 41347, Note_on_c, 0, 67, 112
1, 41389, Note_off_c, 0, 67, 112
1, 41398, Note_on_c, 0, 66, 115
1, 41469, Note_off_c, 0, 66, 115
1, 41483, Note_on_c, 0, 65, 115
1, 41586, Note_off_c, 0, 65, 115
1, 41625, Note_on_c, 0, 68, 114
1, 41699, Note_off_c, 0, 68, 114
1, 41738, Note_on_c, 0, 68, 115
1, 41806, Note_off_c, 0, 68, 115
1, 41928, Note_on_c, 0, 69, 114
1, 42018, Note_off_c, 0, 69, 114
1, 42035, Note_on_c, 0, 68, 115
1, 42102, Note_off_c, 0, 68, 115
1, 42122, Note_on_c, 0, 67, 110
1, 42201, Note_off_c, 0, 67, 110
1, 42223, Note_on_c, 0, 70, 113
1, 42290, Note_off_c, 0, 70, 113
1, 42301, Note_on_c, 0, 69, 111
1, 42396, Note_off_c, 0, 69, 111
1, 42494, Note_on_c, 0, 71, 114
1, 42565, Note_off_c, 0, 71, 114
1, 42590, Note_on_c, 0, 70, 114
1, 42640, Note_off_c, 0, 70, 114
1, 42650, Note_on_c, 0, 69, 116
1, 42731, Note_off_c, 0, 69, 116
1, 42764, Note_on_c, 0, 72, 116
1, 42835, Note_off_c, 0, 72, 116
1, 42845, Note_on_c, 0, 71, 112
1, 42926, Note_off_c, 0, 71, 112
1, 43023, Note_on_c, 0, 73, 116
1, 43127, Note_off_c, 0, 73, 116
1, 43133, Note_on_c, 0, 72, 115
1, 43204, Note_off_c, 0, 72, 115
1, 43211, Note_on_c, 0, 71, 114
1, 43315, Note_off_c, 0, 71, 114
1, 43390, Note_on_c, 0, 74, 111
1, 43497, Note_off_c, 0, 74, 111
1, 43577, Note_on_c, 0, 75, 115
1, 43702, Note_off_c, 0, 75, 115
1, 43768, Note_on_c, 0, 76, 115
1, 43901, Note_off_c, 0, 76, 115
1, 45022, Note_on_c, 0, 77, 112
1, 45096, Note_off_c, 0, 77, 112
1, 45100, Note_on_c, 0, 76, 111
1, 45185, Note_off_c, 0, 76, 111
1, 45193, Note_on_c, 0, 74, 114
1, 45286, Note_off_c, 0, 74, 114
1, 45297, Note_on_c, 0, 72, 112
1, 45365, Note_off_c, 0, 72, 112
1, 45373, Note_on_c, 0, 71, 112
1, 45439, Note_off_c, 0, 71, 112
1, 45452, Note_on_c, 0, 70, 112
1, 45522, Note_off_c, 0, 70, 112
1, 45545, Note_on_c, 0, 69, 115
1, 45626, Note_off_c, 0, 69, 115
1, 45640, Note_on_c, 0, 67, 112
1, 45711, Note_off_c, 0, 67, 112
1, 45726, Note_on_c, 0, 69, 116
1, 45811, Note_off_c, 0, 69, 116
1, 45831, Note_on_c, 0, 70, 112
1, 45895, Note_off_c, 0, 70, 112
1, 45913, Note_on_c, 0, 72, 118
1, 45983, Note_off_c, 0, 72, 118
1, 46001, Note_on_c, 0, 74, 118
1, 46099, Note_off_c, 0, 74, 118
1, 46108, Note_on_c, 0, 73, 117
1, 46184, Note_off_c, 0, 73, 117
1, 46191, Note_on_c, 0, 72, 111
1, 46265, Note_off_c, 0, 72, 111
1, 46272, Note_on_c, 0, 71, 115
1, 46365, Note_off_c, 0, 71, 115
1, 46377, Note_on_c, 0, 70, 116
1, 46453, Note_off_c, 0, 70, 116
1, 46462, Note_on_c, 0, 69, 113
1, 46533, Note_off_c, 0, 69, 113
1, 46556, Note_on_c, 0, 67, 112
1, 46592, Note_off_c, 0, 67, 112
1, 46599, Note_on_c, 0, 68, 101
1, 46665, Note_off_c, 0, 68, 101
1, 46679, Note_on_c, 0, 70, 114
1, 46726, Note_off_c, 0, 70, 114
1, 46740, Note_on_c, 0, 69, 111
1, 46795, Note_off_c, 0, 69, 111
1, 46857, Note_on_c, 0, 65, 112
1, 46920, Note_off_c, 0, 65, 112
1, 46930, Note_on_c, 0, 62, 113
1, 47000, Note_off_c, 0, 62, 113
1, 47115, Note_on_c, 0, 65, 113
1, 47411, Note_off_c, 0, 65, 113
1, 48255, Note_on_c, 0, 67, 117
1, 48340, Note_off_c, 0, 67, 117
1, 48366, Note_on_c, 0, 65, 112
1, 48419, Note_off_c, 0, 65, 112
1, 48435, Note_on_c, 0, 62, 106
1, 48515, Note_off_c, 0, 62, 106
1, 48619, Note_on_c, 0, 65, 101
1, 49031, Note_off_c, 0, 65, 101
1, 50056, Note_on_c, 0, 65, 117
1, 50119, Note_off_c, 0, 65, 117
1, 50128, Note_on_c, 0, 67, 117
1, 50165, Note_off_c, 0, 67, 117
1, 50176, Note_on_c, 0, 69, 115
1, 50238, Note_off_c, 0, 69, 115
1, 50261, Note_on_c, 0, 65, 115
1, 50323, Note_off_c, 0, 65, 115
1, 50345, Note_on_c, 0, 67, 110
1, 50406, Note_off_c, 0, 67, 110
1, 50509, Note_on_c, 0, 69, 114
1, 50608, Note_off_c, 0, 69, 114
1, 50636, Note_on_c, 0, 65, 101
1, 50674, Note_off_c, 0, 65, 101
1, 50689, Note_on_c, 0, 67, 107
1, 50761, Note_off_c, 0, 67, 107
1, 50814, Note_on_c, 0, 77, 118
1, 50889, Note_off_c, 0, 77, 118
1, 50900, Note_on_c, 0, 76, 118
1, 51052, Note_off_c, 0, 76, 118
1, 51089, Note_on_c, 0, 72, 109
1, 51151, Note_off_c, 0, 72, 109
1, 51284, Note_on_c, 0, 69, 115
1, 51429, Note_off_c, 0, 69, 115
1, 51486, Note_on_c, 0, 60, 84
1, 51588, Note_off_c, 0, 60, 84
1, 51655, Note_on_c, 0, 65, 118
1, 51735, Note_off_c, 0, 65, 118
1, 51735, End_track
0, 0, End_of_file
