0, 0, Header, 1, 1, 27720
1, 0, Start_track
1, 0, Title_t, "Melody"
1, 0, Tempo, 1000000
1, 0, Key_signature, -3, "major"
1, 0, Time_signature, 4, 2, 24, 8
1, 209188, Note_on_c, 0, 70, 122
1, 213371, Note_off_c, 0, 70, 122
1, 213531, Note_on_c, 0, 72, 122
1, 217714, Note_off_c, 0, 72, 122
1, 218035, Note_on_c, 0, 74, 122
1, 223827, Note_off_c, 0, 74, 122
1, 224148, Note_on_c, 0, 75, 99
1, 225918, Note_off_c, 0, 75, 99
1, 226561, Note_on_c, 0, 74, 95
1, 230583, Note_off_c, 0, 74, 95
1, 231226, Note_on_c, 0, 70, 122
1, 266466, Note_off_c, 0, 70, 122
1, 267431, Note_on_c, 0, 67, 116
1, 269201, Note_off_c, 0, 67, 116
1, 269201, Note_on_c, 0, 68, 117
1, 273706, Note_off_c, 0, 68, 117
1, 273866, Note_on_c, 0, 67, 116
1, 306692, Note_off_c, 0, 67, 116
1, 307979, Note_on_c, 0, 70, 120
1, 311680, Note_off_c, 0, 70, 120
1, 312323, Note_on_c, 0, 67, 119
1, 317633, Note_off_c, 0, 67, 119
1, 317793, Note_on_c, 0, 68, 116
1, 326643, Note_off_c, 0, 68, 116
1, 327286, Note_on_c, 0, 65, 92
1, 330343, Note_off_c, 0, 65, 92
1, 367031, Note_on_c, 0, 70, 120
1, 372823, Note_off_c, 0, 70, 120
1, 372983, Note_on_c, 0, 69, 121
1, 380385, Note_off_c, 0, 69, 121
1, 380545, Note_on_c, 0, 74, 112
1, 384246, Note_off_c, 0, 74, 112
1, 423026, Note_on_c, 0, 72, 123
1, 427692, Note_off_c, 0, 72, 123
1, 428013, Note_on_c, 0, 74, 124
1, 433966, Note_off_c, 0, 74, 124
1, 435414, Note_on_c, 0, 77, 127
1, 437344, Note_off_c, 0, 77, 127
1, 437954, Note_on_c, 0, 76, 109
1, 439538, Note_off_c, 0, 76, 109
1, 439764, Note_on_c, 0, 75, 123
1, 442366, Note_off_c, 0, 75, 123
1, 442592, Note_on_c, 0, 74, 118
1, 447343, Note_off_c, 0, 74, 118
1, 449605, Note_on_c, 0, 72, 109
1, 452999, Note_off_c, 0, 72, 109
1, 458178, Note_on_c, 0, 70, 120
1, 479096, Note_off_c, 0, 70, 120
1, 479739, Note_on_c, 0, 67, 107
1, 481750, Note_off_c, 0, 67, 107
1, 486094, Note_on_c, 0, 70, 119
1, 589240, Note_off_c, 0, 70, 119
1, 589729, Note_on_c, 0, 69, 112
1, 590973, Note_off_c, 0, 69, 112
1, 590973, Note_on_c, 0, 71, 118
1, 592104, Note_off_c, 0, 71, 118
1, 592669, Note_on_c, 0, 72, 124
1, 594309, Note_off_c, 0, 72, 124
1, 594309, Note_on_c, 0, 74, 121
1, 595949, Note_off_c, 0, 74, 121
1, 595949, Note_on_c, 0, 75, 125
1, 600361, Note_off_c, 0, 75, 125
1, 603132, Note_on_c, 0, 73, 118
1, 608562, Note_off_c, 0, 73, 118
1, 608958, Note_on_c, 0, 68, 114
1, 614445, Note_off_c, 0, 68, 114
1, 614841, Note_on_c, 0, 64, 103
1, 622082, Note_off_c, 0, 64, 103
1, 622817, Note_on_c, 0, 63, 108
1, 649631, Note_off_c, 0, 63, 108
1, 657058, Note_on_c, 0, 67, 123
1, 663655, Note_off_c, 0, 67, 123
1, 664781, Note_on_c, 0, 60, 90
1, 666872, Note_off_c, 0, 60, 90
1, 671136, Note_on_c, 0, 63, 108
1, 680066, Note_off_c, 0, 63, 108
1, 743197, Note_on_c, 0, 67, 117
1, 749702, Note_off_c, 0, 67, 117
1, 750098, Note_on_c, 0, 60, 95
1, 751964, Note_off_c, 0, 60, 95
1, 756376, Note_on_c, 0, 63, 112
1, 762994, Note_off_c, 0, 63, 112
1, 763786, Note_on_c, 0, 65, 113
1, 767746, Note_off_c, 0, 65, 113
1, 770574, Note_on_c, 0, 67, 121
1, 776514, Note_off_c, 0, 67, 121
1, 778380, Note_on_c, 0, 60, 83
1, 780360, Note_off_c, 0, 60, 83
1, 784376, Note_on_c, 0, 63, 100
1, 798688, Note_off_c, 0, 63, 100
1, 848074, Note_on_c, 0, 70, 117
1, 855484, Note_off_c, 0, 70, 117
1, 857803, Note_on_c, 0, 74, 123
1, 873190, Note_off_c, 0, 74, 123
1, 874200, Note_on_c, 0, 72, 122
1, 878786, Note_off_c, 0, 72, 122
1, 879550, Note_on_c, 0, 70, 118
1, 885262, Note_off_c, 0, 70, 118
1, 885262, Note_on_c, 0, 68, 113
1, 892261, Note_off_c, 0, 68, 113
1, 892381, Note_on_c, 0, 67, 117
1, 931241, Note_off_c, 0, 67, 117
1, 931482, Note_on_c, 0, 65, 116
1, 937114, Note_off_c, 0, 65, 116
1, 937918, Note_on_c, 0, 62, 108
1, 942262, Note_off_c, 0, 62, 108
1, 943066, Note_on_c, 0, 64, 116
1, 947410, Note_off_c, 0, 64, 116
1, 948310, Note_on_c, 0, 61, 92
1, 985760, Note_off_c, 0, 61, 92
1, 1007483, Note_on_c, 0, 58, 110
1, 1010540, Note_off_c, 0, 58, 110
1, 1010876, Note_on_c, 0, 57, 103
1, 1012969, Note_off_c, 0, 57, 103
1, 1013025, Note_on_c, 0, 56, 96
1, 1014609, Note_off_c, 0, 56, 96
1, 1014609, Note_on_c, 0, 58, 105
1, 1017324, Note_off_c, 0, 58, 105
1, 1017324, Note_on_c, 0, 61, 92
1, 1019756, Note_off_c, 0, 61, 92
1, 1019982, Note_on_c, 0, 63, 98
1, 1022131, Note_off_c, 0, 63, 98
1, 1022357, Note_on_c, 0, 65, 114
1, 1024676, Note_off_c, 0, 65, 114
1, 1025298, Note_on_c, 0, 64, 107
1, 1026995, Note_off_c, 0, 64, 107
1, 1027390, Note_on_c, 0, 63, 111
1, 1029313, Note_off_c, 0, 63, 111
1, 1030218, Note_on_c, 0, 60, 92
1, 1032311, Note_off_c, 0, 60, 92
1, 1032480, Note_on_c, 0, 63, 108
1, 1035365, Note_off_c, 0, 63, 108
1, 1035365, Note_on_c, 0, 65, 109
1, 1037345, Note_off_c, 0, 65, 109
1, 1037627, Note_on_c, 0, 67, 106
1, 1039889, Note_off_c, 0, 67, 106
1, 1039889, Note_on_c, 0, 69, 116
1, 1042661, Note_off_c, 0, 69, 116
1, 1042661, Note_on_c, 0, 70, 114
1, 1045432, Note_off_c, 0, 70, 114
1, 1045432, Note_on_c, 0, 69, 119
1, 1047072, Note_off_c, 0, 69, 119
1, 1047072, Note_on_c, 0, 68, 114
1, 1050183, Note_off_c, 0, 68, 114
1, 1050183, Note_on_c, 0, 70, 102
1, 1053068, Note_off_c, 0, 70, 102
1, 1053068, Note_on_c, 0, 71, 112
1, 1055401, Note_off_c, 0, 71, 112
1, 1055451, Note_on_c, 0, 73, 119
1, 1059393, Note_off_c, 0, 73, 119
1, 1059875, Note_on_c, 0, 71, 112
1, 1063415, Note_off_c, 0, 71, 112
1, 1064702, Note_on_c, 0, 66, 104
1, 1068885, Note_off_c, 0, 66, 104
1, 1070941, Note_on_c, 0, 62, 109
1, 1075687, Note_off_c, 0, 62, 109
1, 1075883, Note_on_c, 0, 64, 109
1, 1084894, Note_off_c, 0, 64, 109
1, 1084894, Note_on_c, 0, 65, 107
1, 1107743, Note_off_c, 0, 65, 107
1, 1108547, Note_on_c, 0, 63, 115
1, 1111523, Note_off_c, 0, 63, 115
1, 1111523, Note_on_c, 0, 65, 115
1, 1114580, Note_off_c, 0, 65, 115
1, 1114660, Note_on_c, 0, 67, 96
1, 1132923, Note_off_c, 0, 67, 96
1, 1178704, Note_on_c, 0, 74, 105
1, 1183003, Note_off_c, 0, 74, 105
1, 1184869, Note_on_c, 0, 70, 116
1, 1191091, Note_off_c, 0, 70, 116
1, 1191713, Note_on_c, 0, 68, 116
1, 1198275, Note_off_c, 0, 68, 116
1, 1198840, Note_on_c, 0, 67, 115
1, 1206420, Note_off_c, 0, 67, 115
1, 1206646, Note_on_c, 0, 64, 113
1, 1212868, Note_off_c, 0, 64, 113
1, 1212981, Note_on_c, 0, 61, 99
1, 1219939, Note_off_c, 0, 61, 99
1, 1221523, Note_on_c, 0, 63, 110
1, 1223672, Note_off_c, 0, 63, 110
1, 1227236, Note_on_c, 0, 60, 95
1, 1235778, Note_off_c, 0, 60, 95
1, 1284429, Note_on_c, 0, 72, 119
1, 1288841, Note_off_c, 0, 72, 119
1, 1288897, Note_on_c, 0, 74, 121
1, 1292291, Note_off_c, 0, 74, 121
1, 1296760, Note_on_c, 0, 75, 120
1, 1304510, Note_off_c, 0, 75, 120
1, 1304510, Note_on_c, 0, 74, 119
1, 1310336, Note_off_c, 0, 74, 119
1, 1310392, Note_on_c, 0, 72, 119
1, 1313560, Note_off_c, 0, 72, 119
1, 1317237, Note_on_c, 0, 77, 124
1, 1320291, Note_off_c, 0, 77, 124
1, 1320573, Note_on_c, 0, 76, 109
1, 1321874, Note_off_c, 0, 76, 109
1, 1322043, Note_on_c, 0, 75, 119
1, 1324984, Note_off_c, 0, 75, 119
1, 1325436, Note_on_c, 0, 74, 115
1, 1330527, Note_off_c, 0, 74, 115
1, 1332054, Note_on_c, 0, 72, 112
1, 1336070, Note_off_c, 0, 72, 112
1, 1340369, Note_on_c, 0, 70, 115
1, 1348289, Note_off_c, 0, 70, 115
1, 1348741, Note_on_c, 0, 67, 116
1, 1363393, Note_off_c, 0, 67, 116
1, 1363449, Note_on_c, 0, 70, 110
1, 1388397, Note_off_c, 0, 70, 110
1, 1439481, Note_on_c, 0, 70, 112
1, 1447401, Note_off_c, 0, 70, 112
1, 1447683, Note_on_c, 0, 68, 96
1, 1449832, Note_off_c, 0, 68, 96
1, 1454131, Note_on_c, 0, 70, 118
1, 1469348, Note_off_c, 0, 70, 118
1, 1470253, Note_on_c, 0, 73, 112
1, 1472346, Note_off_c, 0, 73, 112
1, 1472911, Note_on_c, 0, 70, 104
1, 1475060, Note_off_c, 0, 70, 104
1, 1475229, Note_on_c, 0, 65, 106
1, 1477605, Note_off_c, 0, 65, 106
1, 1477718, Note_on_c, 0, 68, 117
1, 1501930, Note_off_c, 0, 68, 117
1, 1501930, Note_on_c, 0, 70, 108
1, 1505607, Note_off_c, 0, 70, 108
1, 1508661, Note_on_c, 0, 68, 101
1, 1510245, Note_off_c, 0, 68, 101
1, 1510301, Note_on_c, 0, 70, 115
1, 1511998, Note_off_c, 0, 70, 115
1, 1512132, Note_on_c, 0, 68, 117
1, 1513419, Note_off_c, 0, 68, 117
1, 1513982, Note_on_c, 0, 67, 108
1, 1518930, Note_off_c, 0, 67, 108
1, 1522067, Note_on_c, 0, 68, 113
1, 1523475, Note_off_c, 0, 68, 113
1, 1523515, Note_on_c, 0, 70, 115
1, 1524842, Note_off_c, 0, 70, 115
1, 1525043, Note_on_c, 0, 68, 115
1, 1527537, Note_off_c, 0, 68, 115
1, 1527738, Note_on_c, 0, 67, 109
1, 1532364, Note_off_c, 0, 67, 109
1, 1536266, Note_on_c, 0, 68, 91
1, 1537875, Note_off_c, 0, 68, 91
1, 1537995, Note_on_c, 0, 70, 119
1, 1539523, Note_off_c, 0, 70, 119
1, 1539603, Note_on_c, 0, 68, 117
1, 1541654, Note_off_c, 0, 68, 117
1, 1541814, Note_on_c, 0, 67, 111
1, 1546279, Note_off_c, 0, 67, 111
1, 1550741, Note_on_c, 0, 63, 106
1, 1555945, Note_off_c, 0, 63, 106
1, 1564939, Note_on_c, 0, 63, 108
1, 1577724, Note_off_c, 0, 63, 108
1, 1578120, Note_on_c, 0, 65, 108
1, 1586040, Note_off_c, 0, 65, 108
1, 1586153, Note_on_c, 0, 67, 106
1, 1618625, Note_off_c, 0, 67, 106
1, 1671065, Note_on_c, 0, 70, 114
1, 1674283, Note_off_c, 0, 70, 114
1, 1679432, Note_on_c, 0, 67, 98
1, 1681684, Note_off_c, 0, 67, 98
1, 1681764, Note_on_c, 0, 68, 114
1, 1690775, Note_off_c, 0, 68, 114
1, 1691257, Note_on_c, 0, 67, 106
1, 1694636, Note_off_c, 0, 67, 106
1, 1699222, Note_on_c, 0, 70, 106
1, 1740818, Note_off_c, 0, 70, 106
1, 1780805, Note_on_c, 0, 70, 114
1, 1784991, Note_off_c, 0, 70, 114
1, 1785449, Note_on_c, 0, 68, 118
1, 1789352, Note_off_c, 0, 68, 118
1, 1792550, Note_on_c, 0, 67, 115
1, 1797924, Note_off_c, 0, 67, 115
1, 1798912, Note_on_c, 0, 63, 104
1, 1800496, Note_off_c, 0, 63, 104
1, 1805191, Note_on_c, 0, 63, 106
1, 1853955, Note_off_c, 0, 63, 106
1, 1892637, Note_on_c, 0, 77, 121
1, 1895774, Note_off_c, 0, 77, 121
1, 1895774, Note_on_c, 0, 75, 114
1, 1898268, Note_off_c, 0, 75, 114
1, 1898268, Note_on_c, 0, 77, 115
1, 1901244, Note_off_c, 0, 77, 115
1, 1901404, Note_on_c, 0, 79, 117
1, 1904461, Note_off_c, 0, 79, 117
1, 1904943, Note_on_c, 0, 77, 119
1, 1907839, Note_off_c, 0, 77, 119
1, 1907839, Note_on_c, 0, 75, 123
1, 1910976, Note_off_c, 0, 75, 123
1, 1910976, Note_on_c, 0, 74, 120
1, 1913952, Note_off_c, 0, 74, 120
1, 1914032, Note_on_c, 0, 73, 119
1, 1917652, Note_off_c, 0, 73, 119
1, 1917812, Note_on_c, 0, 72, 119
1, 1920628, Note_off_c, 0, 72, 119
1, 1920788, Note_on_c, 0, 70, 119
1, 1923282, Note_off_c, 0, 70, 119
1, 1923282, Note_on_c, 0, 68, 119
1, 1926098, Note_off_c, 0, 68, 119
1, 1926339, Note_on_c, 0, 67, 118
1, 1929396, Note_off_c, 0, 67, 118
1, 1929556, Note_on_c, 0, 65, 113
1, 1932130, Note_off_c, 0, 65, 113
1, 1932210, Note_on_c, 0, 63, 107
1, 1934839, Note_off_c, 0, 63, 107
1, 1934839, Note_on_c, 0, 59, 100
1, 1937554, Note_off_c, 0, 59, 100
1, 1938289, Note_on_c, 0, 63, 108
1, 1940382, Note_off_c, 0, 63, 108
1, 1940834, Note_on_c, 0, 65, 116
1, 1942757, Note_off_c, 0, 65, 116
1, 1942813, Note_on_c, 0, 67, 121
1, 1945471, Note_off_c, 0, 67, 121
1, 1945810, Note_on_c, 0, 70, 120
1, 1948016, Note_off_c, 0, 70, 120
1, 1948298, Note_on_c, 0, 69, 119
1, 1950900, Note_off_c, 0, 69, 119
1, 1951295, Note_on_c, 0, 67, 117
1, 1953840, Note_off_c, 0, 67, 117
1, 1954009, Note_on_c, 0, 68, 119
1, 1956724, Note_off_c, 0, 68, 119
1, 1957515, Note_on_c, 0, 65, 115
1, 1960004, Note_off_c, 0, 65, 115
1, 1960118, Note_on_c, 0, 61, 94
1, 1962531, Note_off_c, 0, 61, 94
1, 1962852, Note_on_c, 0, 59, 94
1, 1965346, Note_off_c, 0, 59, 94
1, 1966391, Note_on_c, 0, 67, 114
1, 1969287, Note_off_c, 0, 67, 114
1, 1969528, Note_on_c, 0, 65, 107
1, 1971941, Note_off_c, 0, 65, 107
1, 1971941, Note_on_c, 0, 63, 113
1, 1974354, Note_off_c, 0, 63, 113
1, 1974354, Note_on_c, 0, 61, 103
1, 1976284, Note_off_c, 0, 61, 103
1, 1977088, Note_on_c, 0, 56, 97
1, 1980306, Note_off_c, 0, 56, 97
1, 1982961, Note_on_c, 0, 58, 108
1, 1989719, Note_off_c, 0, 58, 108
1, 1989879, Note_on_c, 0, 56, 106
1, 1995430, Note_off_c, 0, 56, 106
1, 1995590, Note_on_c, 0, 58, 112
1, 2000739, Note_off_c, 0, 58, 112
1, 2000739, Note_on_c, 0, 55, 100
1, 2009830, Note_off_c, 0, 55, 100
1, 2032518, Note_on_c, 0, 70, 116
1, 2035092, Note_off_c, 0, 70, 116
1, 2039758, Note_on_c, 0, 75, 121
1, 2045470, Note_off_c, 0, 75, 121
1, 2045550, Note_on_c, 0, 74, 123
1, 2047239, Note_off_c, 0, 74, 123
1, 2047480, Note_on_c, 0, 73, 119
1, 2049491, Note_off_c, 0, 73, 119
1, 2049732, Note_on_c, 0, 72, 115
1, 2061237, Note_off_c, 0, 72, 115
1, 2087546, Note_on_c, 0, 75, 121
1, 2094465, Note_off_c, 0, 75, 121
1, 2097200, Note_on_c, 0, 69, 108
1, 2103073, Note_off_c, 0, 69, 108
1, 2154646, Note_on_c, 0, 77, 123
1, 2156174, Note_off_c, 0, 77, 123
1, 2156254, Note_on_c, 0, 76, 112
1, 2157621, Note_off_c, 0, 76, 112
1, 2157942, Note_on_c, 0, 75, 123
1, 2160516, Note_off_c, 0, 75, 123
1, 2160596, Note_on_c, 0, 74, 122
1, 2164699, Note_off_c, 0, 74, 122
1, 2166469, Note_on_c, 0, 72, 117
1, 2170652, Note_off_c, 0, 72, 117
1, 2170893, Note_on_c, 0, 69, 115
1, 2175559, Note_off_c, 0, 69, 115
1, 2176363, Note_on_c, 0, 66, 109
1, 2180868, Note_off_c, 0, 66, 109
1, 2181833, Note_on_c, 0, 63, 110
1, 2185694, Note_off_c, 0, 63, 110
1, 2185935, Note_on_c, 0, 62, 107
1, 2191647, Note_off_c, 0, 62, 107
1, 2191888, Note_on_c, 0, 60, 92
1, 2194140, Note_off_c, 0, 60, 92
1, 2198243, Note_on_c, 0, 64, 109
1, 2201300, Note_off_c, 0, 64, 109
1, 2201621, Note_on_c, 0, 65, 106
1, 2226964, Note_off_c, 0, 65, 106
1, 2227205, Note_on_c, 0, 63, 100
1, 2230584, Note_off_c, 0, 63, 100
1, 2234285, Note_on_c, 0, 67, 116
1, 2242572, Note_off_c, 0, 67, 116
1, 2247640, Note_on_c, 0, 67, 116
1, 2256651, Note_off_c, 0, 67, 116
1, 2261880, Note_on_c, 0, 67, 111
1, 2270247, Note_off_c, 0, 67, 111
1, 2275476, Note_on_c, 0, 67, 115
1, 2284809, Note_off_c, 0, 67, 115
1, 2290038, Note_on_c, 0, 67, 114
1, 2297037, Note_off_c, 0, 67, 114
1, 2303714, Note_on_c, 0, 67, 116
1, 2312081, Note_off_c, 0, 67, 116
1, 2317230, Note_on_c, 0, 67, 107
1, 2337827, Note_off_c, 0, 67, 107
1, 2338470, Note_on_c, 0, 70, 117
1, 2341446, Note_off_c, 0, 70, 117
1, 2342572, Note_on_c, 0, 71, 107
1, 2344985, Note_off_c, 0, 71, 107
1, 2346191, Note_on_c, 0, 69, 118
1, 2363730, Note_off_c, 0, 69, 118
1, 2364212, Note_on_c, 0, 68, 114
1, 2371372, Note_off_c, 0, 68, 114
1, 2372417, Note_on_c, 0, 69, 117
1, 2391404, Note_off_c, 0, 69, 117
1, 2468803, Note_on_c, 0, 65, 121
1, 2472423, Note_off_c, 0, 65, 121
1, 2472583, Note_on_c, 0, 67, 117
1, 2477088, Note_off_c, 0, 67, 117
1, 2477651, Note_on_c, 0, 69, 117
1, 2483443, Note_off_c, 0, 69, 117
1, 2483764, Note_on_c, 0, 70, 120
1, 2489396, Note_off_c, 0, 70, 120
1, 2489798, Note_on_c, 0, 72, 119
1, 2496073, Note_off_c, 0, 72, 119
1, 2496073, Note_on_c, 0, 74, 123
1, 2502429, Note_off_c, 0, 74, 123
1, 2503072, Note_on_c, 0, 75, 124
1, 2506451, Note_off_c, 0, 75, 124
1, 2511197, Note_on_c, 0, 77, 124
1, 2559954, Note_off_c, 0, 77, 124
1, 2599297, Note_on_c, 0, 77, 124
1, 2604848, Note_off_c, 0, 77, 124
1, 2607985, Note_on_c, 0, 79, 121
1, 2610157, Note_off_c, 0, 79, 121
1, 2610317, Note_on_c, 0, 81, 122
1, 2615949, Note_off_c, 0, 81, 122
1, 2616431, Note_on_c, 0, 79, 120
1, 2622223, Note_off_c, 0, 79, 120
1, 2622303, Note_on_c, 0, 77, 124
1, 2627532, Note_off_c, 0, 77, 124
1, 2627532, Note_on_c, 0, 74, 122
1, 2664542, Note_off_c, 0, 74, 122
1, 2665024, Note_on_c, 0, 72, 120
1, 2667920, Note_off_c, 0, 72, 120
1, 2668644, Note_on_c, 0, 74, 118
1, 2670574, Note_off_c, 0, 74, 118
1, 2674275, Note_on_c, 0, 70, 114
1, 2694952, Note_off_c, 0, 70, 114
1, 2696239, Note_on_c, 0, 70, 108
1, 2734456, Note_off_c, 0, 70, 108
1, 2768489, Note_on_c, 0, 70, 118
1, 2772753, Note_off_c, 0, 70, 118
1, 2772994, Note_on_c, 0, 71, 117
1, 2777740, Note_off_c, 0, 71, 117
1, 2778222, Note_on_c, 0, 76, 120
1, 2782164, Note_off_c, 0, 76, 120
1, 2782888, Note_on_c, 0, 71, 117
1, 2787634, Note_off_c, 0, 71, 117
1, 2787794, Note_on_c, 0, 70, 120
1, 2793345, Note_off_c, 0, 70, 120
1, 2793666, Note_on_c, 0, 68, 119
1, 2799298, Note_off_c, 0, 68, 119
1, 2800077, Note_on_c, 0, 64, 114
1, 2804150, Note_off_c, 0, 64, 114
1, 2804929, Note_on_c, 0, 66, 115
1, 2806457, Note_off_c, 0, 66, 115
1, 2806698, Note_on_c, 0, 67, 116
1, 2807824, Note_off_c, 0, 67, 116
1, 2808065, Note_on_c, 0, 68, 120
1, 2809191, Note_off_c, 0, 68, 120
1, 2810236, Note_on_c, 0, 69, 121
1, 2812006, Note_off_c, 0, 69, 121
1, 2812569, Note_on_c, 0, 70, 118
1, 2814499, Note_off_c, 0, 70, 118
1, 2815120, Note_on_c, 0, 64, 105
1, 2816704, Note_off_c, 0, 64, 105
1, 2817043, Note_on_c, 0, 65, 110
1, 2818457, Note_off_c, 0, 65, 110
1, 2818683, Note_on_c, 0, 66, 104
1, 2820832, Note_off_c, 0, 66, 104
1, 2821171, Note_on_c, 0, 67, 115
1, 2822981, Note_off_c, 0, 67, 115
1, 2823320, Note_on_c, 0, 68, 115
1, 2824790, Note_off_c, 0, 68, 115
1, 2825242, Note_on_c, 0, 69, 119
1, 2826995, Note_off_c, 0, 69, 119
1, 2827164, Note_on_c, 0, 70, 96
1, 2828069, Note_off_c, 0, 70, 96
1, 2829619, Note_on_c, 0, 64, 124
1, 2831147, Note_off_c, 0, 64, 124
1, 2831468, Note_on_c, 0, 65, 117
1, 2832674, Note_off_c, 0, 65, 117
1, 2833076, Note_on_c, 0, 66, 113
1, 2834282, Note_off_c, 0, 66, 113
1, 2834764, Note_on_c, 0, 67, 110
1, 2836212, Note_off_c, 0, 67, 110
1, 2836775, Note_on_c, 0, 68, 109
1, 2838062, Note_off_c, 0, 68, 109
1, 2838705, Note_on_c, 0, 69, 121
1, 2840475, Note_off_c, 0, 69, 121
1, 2840957, Note_on_c, 0, 70, 105
1, 2854232, Note_off_c, 0, 70, 105
1, 2895104, Note_on_c, 0, 70, 119
1, 2898644, Note_off_c, 0, 70, 119
1, 2898965, Note_on_c, 0, 72, 120
1, 2902826, Note_off_c, 0, 72, 120
1, 2903067, Note_on_c, 0, 74, 124
1, 2907492, Note_off_c, 0, 74, 124
1, 2907974, Note_on_c, 0, 77, 122
1, 2911433, Note_off_c, 0, 77, 122
1, 2911996, Note_on_c, 0, 75, 122
1, 2916662, Note_off_c, 0, 75, 122
1, 2916662, Note_on_c, 0, 74, 121
1, 2921328, Note_off_c, 0, 74, 121
1, 2922454, Note_on_c, 0, 70, 114
1, 2926476, Note_off_c, 0, 70, 114
1, 2928970, Note_on_c, 0, 72, 118
1, 2933073, Note_off_c, 0, 72, 118
1, 2933877, Note_on_c, 0, 67, 113
1, 2939026, Note_off_c, 0, 67, 113
1, 2942163, Note_on_c, 0, 70, 115
1, 2961392, Note_off_c, 0, 70, 115
1, 2961552, Note_on_c, 0, 64, 111
1, 2991160, Note_off_c, 0, 64, 111
1, 2991320, Note_on_c, 0, 67, 117
1, 2997997, Note_off_c, 0, 67, 117
1, 2998801, Note_on_c, 0, 65, 114
1, 3004593, Note_off_c, 0, 65, 114
1, 3005626, Note_on_c, 0, 60, 104
1, 3008454, Note_off_c, 0, 60, 104
1, 3012155, Note_on_c, 0, 63, 107
1, 3018108, Note_off_c, 0, 63, 107
1, 3018349, Note_on_c, 0, 65, 114
1, 3038543, Note_off_c, 0, 65, 114
1, 3038864, Note_on_c, 0, 67, 114
1, 3045622, Note_off_c, 0, 67, 114
1, 3045782, Note_on_c, 0, 69, 116
1, 3052379, Note_off_c, 0, 69, 116
1, 3052379, Note_on_c, 0, 66, 104
1, 3062999, Note_off_c, 0, 66, 104
1, 3107335, Note_on_c, 0, 70, 113
1, 3116216, Note_off_c, 0, 70, 113
1, 3120628, Note_on_c, 0, 63, 99
1, 3128038, Note_off_c, 0, 63, 99
1, 3188830, Note_on_c, 0, 70, 115
1, 3195668, Note_off_c, 0, 70, 115
1, 3195668, Note_on_c, 0, 63, 92
1, 3198403, Note_off_c, 0, 63, 92
1, 3201862, Note_on_c, 0, 70, 116
1, 3209183, Note_off_c, 0, 70, 116
1, 3209183, Note_on_c, 0, 75, 111
1, 3211355, Note_off_c, 0, 75, 111
1, 3215780, Note_on_c, 0, 70, 117
1, 3225354, Note_off_c, 0, 70, 117
1, 3229618, Note_on_c, 0, 63, 99
1, 3235893, Note_off_c, 0, 63, 99
1, 3310637, Note_on_c, 0, 79, 119
1, 3316590, Note_off_c, 0, 79, 119
1, 3355933, Note_on_c, 0, 77, 120
1, 3358185, Note_off_c, 0, 77, 120
1, 3358345, Note_on_c, 0, 76, 110
1, 3359793, Note_off_c, 0, 76, 110
1, 3359873, Note_on_c, 0, 75, 118
1, 3362045, Note_off_c, 0, 75, 118
1, 3362286, Note_on_c, 0, 74, 122
1, 3365262, Note_off_c, 0, 74, 122
1, 3369204, Note_on_c, 0, 75, 117
1, 3372180, Note_off_c, 0, 75, 117
1, 3376605, Note_on_c, 0, 72, 117
1, 3379662, Note_off_c, 0, 72, 117
1, 3379822, Note_on_c, 0, 74, 112
1, 3382396, Note_off_c, 0, 74, 112
1, 3384809, Note_on_c, 0, 70, 114
1, 3418279, Note_off_c, 0, 70, 114
1, 3418600, Note_on_c, 0, 67, 93
1, 3421657, Note_off_c, 0, 67, 93
1, 3422059, Note_on_c, 0, 68, 108
1, 3425518, Note_off_c, 0, 68, 108
1, 3426161, Note_on_c, 0, 67, 114
1, 3430907, Note_off_c, 0, 67, 114
1, 3431241, Note_on_c, 0, 63, 100
1, 3439387, Note_off_c, 0, 63, 100
1, 3439500, Note_on_c, 0, 60, 85
1, 3445270, Note_off_c, 0, 60, 85
1, 3445270, Note_on_c, 0, 56, 104
1, 3451945, Note_off_c, 0, 56, 104
1, 3459186, Note_on_c, 0, 58, 108
1, 3466653, Note_off_c, 0, 58, 108
1, 3466653, Note_on_c, 0, 56, 104
1, 3471291, Note_off_c, 0, 56, 104
1, 3532501, Note_on_c, 0, 70, 117
1, 3536687, Note_off_c, 0, 70, 117
1, 3536856, Note_on_c, 0, 72, 117
1, 3541098, Note_off_c, 0, 72, 117
1, 3541494, Note_on_c, 0, 73, 119
1, 3546359, Note_off_c, 0, 73, 119
1, 3546359, Note_on_c, 0, 72, 115
1, 3550149, Note_off_c, 0, 72, 115
1, 3550940, Note_on_c, 0, 73, 117
1, 3556427, Note_off_c, 0, 73, 117
1, 3556654, Note_on_c, 0, 72, 114
1, 3588756, Note_off_c, 0, 72, 114
1, 3642018, Note_on_c, 0, 68, 119
1, 3646204, Note_off_c, 0, 68, 119
1, 3646317, Note_on_c, 0, 70, 116
1, 3651634, Note_off_c, 0, 70, 116
1, 3651860, Note_on_c, 0, 71, 117
1, 3656838, Note_off_c, 0, 71, 117
1, 3658082, Note_on_c, 0, 70, 118
1, 3669961, Note_off_c, 0, 70, 118
1, 3670300, Note_on_c, 0, 68, 116
1, 3678106, Note_off_c, 0, 68, 116
1, 3679237, Note_on_c, 0, 67, 112
1, 3711143, Note_off_c, 0, 67, 112
1, 3739428, Note_on_c, 0, 70, 116
1, 3744971, Note_off_c, 0, 70, 116
1, 3745989, Note_on_c, 0, 68, 122
1, 3751532, Note_off_c, 0, 68, 122
1, 3751645, Note_on_c, 0, 67, 115
1, 3754813, Note_off_c, 0, 67, 115
1, 3757641, Note_on_c, 0, 63, 106
1, 3769068, Note_off_c, 0, 63, 106
1, 3802897, Note_on_c, 0, 70, 115
1, 3805612, Note_off_c, 0, 70, 115
1, 3805838, Note_on_c, 0, 68, 121
1, 3808440, Note_off_c, 0, 68, 121
1, 3808779, Note_on_c, 0, 67, 115
1, 3811947, Note_off_c, 0, 67, 115
1, 3814775, Note_on_c, 0, 63, 109
1, 3825184, Note_off_c, 0, 63, 109
1, 3854148, Note_on_c, 0, 70, 122
1, 3856750, Note_off_c, 0, 70, 122
1, 3856750, Note_on_c, 0, 68, 122
1, 3859352, Note_off_c, 0, 68, 122
1, 3859917, Note_on_c, 0, 67, 121
1, 3862858, Note_off_c, 0, 67, 121
1, 3867383, Note_on_c, 0, 63, 107
1, 3879036, Note_off_c, 0, 63, 107
1, 3916599, Note_on_c, 0, 63, 101
1, 3919314, Note_off_c, 0, 63, 101
1, 3921237, Note_on_c, 0, 70, 117
1, 3942281, Note_off_c, 0, 70, 117
1, 3985275, Note_on_c, 0, 78, 123
1, 3991497, Note_off_c, 0, 78, 123
1, 3991497, Note_on_c, 0, 79, 121
1, 3992854, Note_off_c, 0, 79, 121
1, 3992854, Note_on_c, 0, 80, 122
1, 3994777, Note_off_c, 0, 80, 122
1, 3994777, Note_on_c, 0, 81, 126
1, 3996926, Note_off_c, 0, 81, 126
1, 3996926, Note_on_c, 0, 82, 122
1, 4001451, Note_off_c, 0, 82, 122
1, 4001790, Note_on_c, 0, 80, 118
1, 4044671, Note_off_c, 0, 80, 118
1, 4085176, Note_on_c, 0, 78, 116
1, 4092304, Note_off_c, 0, 78, 116
1, 4098979, Note_on_c, 0, 75, 115
1, 4105315, Note_off_c, 0, 75, 115
1, 4105993, Note_on_c, 0, 73, 110
1, 4108482, Note_off_c, 0, 73, 110
1, 4111310, Note_on_c, 0, 75, 111
1, 4131110, Note_off_c, 0, 75, 111
1, 4131223, Note_on_c, 0, 73, 114
1, 4164260, Note_off_c, 0, 73, 114
1, 4190735, Note_on_c, 0, 71, 114
1, 4193450, Note_off_c, 0, 71, 114
1, 4193450, Note_on_c, 0, 73, 112
1, 4211552, Note_off_c, 0, 73, 112
1, 4211552, Note_on_c, 0, 70, 112
1, 4228410, Note_off_c, 0, 70, 112
1, 4229541, Note_on_c, 0, 68, 111
1, 4236329, Note_off_c, 0, 68, 111
1, 4236555, Note_on_c, 0, 66, 107
1, 4264388, Note_off_c, 0, 66, 107
1, 4297991, Note_on_c, 0, 70, 112
1, 4319488, Note_off_c, 0, 70, 112
1, 4320393, Note_on_c, 0, 75, 120
1, 4329670, Note_off_c, 0, 75, 120
1, 4332046, Note_on_c, 0, 68, 115
1, 4336458, Note_off_c, 0, 68, 115
1, 4336684, Note_on_c, 0, 70, 115
1, 4342001, Note_off_c, 0, 70, 115
1, 4342001, Note_on_c, 0, 73, 116
1, 4345961, Note_off_c, 0, 73, 116
1, 4346413, Note_on_c, 0, 68, 113
1, 4350825, Note_off_c, 0, 68, 113
1, 4351051, Note_on_c, 0, 70, 114
1, 4355237, Note_off_c, 0, 70, 114
1, 4355463, Note_on_c, 0, 73, 115
1, 4359875, Note_off_c, 0, 73, 115
1, 4360440, Note_on_c, 0, 68, 115
1, 4363721, Note_off_c, 0, 68, 115
1, 4363834, Note_on_c, 0, 70, 106
1, 4367907, Note_off_c, 0, 70, 106
1, 4368359, Note_on_c, 0, 66, 111
1, 4371300, Note_off_c, 0, 66, 111
1, 4372205, Note_on_c, 0, 68, 108
1, 4375825, Note_off_c, 0, 68, 108
1, 4376730, Note_on_c, 0, 63, 111
1, 4382160, Note_off_c, 0, 63, 111
1, 4382273, Note_on_c, 0, 66, 113
1, 4387590, Note_off_c, 0, 66, 113
1, 4388042, Note_on_c, 0, 61, 98
1, 4501071, Note_off_c, 0, 61, 98
1, 4501071, End_track
0, 0, End_of_file
