0, 0, Header, 1, 1, 192
1, 0, Start_track
1, 0, Title_t, "Melody"
1, 0, Tempo, 291262
1, 0, Key_signature, -1, "major"
1, 0, Time_signature, 4, 2, 24, 8
1, 2326, Note_on_c, 0, 69, 100
1, 2410, Note_off_c, 0, 69, 100
1, 2410, Note_on_c, 0, 70, 93
1, 2501, Note_off_c, 0, 70, 93
1, 2514, Note_on_c, 0, 69, 104
1, 2592, Note_off_c, 0, 69, 104
1, 2611, Note_on_c, 0, 65, 94
1, 2695, Note_off_c, 0, 65, 94
1, 2721, Note_on_c, 0, 60, 96
1, 2787, Note_off_c, 0, 60, 96
1, 2911, Note_on_c, 0, 58, 100
1, 2972, Note_off_c, 0, 58, 100
1, 2998, Note_on_c, 0, 57, 96
1, 3091, Note_off_c, 0, 57, 96
1, 3172, Note_on_c, 0, 65, 104
1, 3352, Note_off_c, 0, 65, 104
1, 3373, Note_on_c, 0, 60, 91
1, 3550, Note_off_c, 0, 60, 91
1, 3559, Note_on_c, 0, 65, 99
1, 3750, Note_off_c, 0, 65, 99
1, 3771, Note_on_c, 0, 63, 95
1, 3854, Note_off_c, 0, 63, 95
1, 3888, Note_on_c, 0, 68, 102
1, 4124, Note_off_c, 0, 68, 102
1, 4138, Note_on_c, 0, 66, 105
1, 4234, Note_off_c, 0, 66, 105
1, 4256, Note_on_c, 0, 64, 100
1, 4324, Note_off_c, 0, 64, 100
1, 4332, Note_on_c, 0, 65, 99
1, 4431, Note_off_c, 0, 65, 99
1, 4441, Note_on_c, 0, 62, 88
1, 4488, Note_off_c, 0, 62, 88
1, 5682, Note_on_c, 0, 71, 107
1, 5772, Note_off_c, 0, 71, 107
1, 5792, Note_on_c, 0, 76, 106
1, 5880, Note_off_c, 0, 76, 106
1, 5884, Note_on_c, 0, 74, 101
1, 5949, Note_off_c, 0, 74, 101
1, 5949, Note_on_c, 0, 72, 81
1, 5975, Note_off_c, 0, 72, 81
1, 5983, Note_on_c, 0, 69, 92
1, 6044, Note_off_c, 0, 69, 92
1, 7026, Note_on_c, 0, 72, 110
1, 7141, Note_off_c, 0, 72, 110
1, 7193, Note_on_c, 0, 77, 111
1, 7296, Note_off_c, 0, 77, 111
1, 7305, Note_on_c, 0, 75, 106
1, 7392, Note_off_c, 0, 75, 106
1, 7396, Note_on_c, 0, 70, 102
1, 7504, Note_off_c, 0, 70, 102
1, 7512, Note_on_c, 0, 68, 92
1, 7590, Note_off_c, 0, 68, 92
1, 7603, Note_on_c, 0, 75, 112
1, 7697, Note_off_c, 0, 75, 112
1, 7705, Note_on_c, 0, 73, 110
1, 7800, Note_off_c, 0, 73, 110
1, 7802, Note_on_c, 0, 68, 107
1, 7916, Note_off_c, 0, 68, 107
1, 7925, Note_on_c, 0, 63, 95
1, 8005, Note_off_c, 0, 63, 95
1, 8014, Note_on_c, 0, 73, 107
1, 8098, Note_off_c, 0, 73, 107
1, 8104, Note_on_c, 0, 71, 102
1, 8204, Note_off_c, 0, 71, 102
1, 8212, Note_on_c, 0, 72, 104
1, 8369, Note_off_c, 0, 72, 104
1, 8389, Note_on_c, 0, 70, 104
1, 8491, Note_off_c, 0, 70, 104
1, 8492, Note_on_c, 0, 68, 104
1, 8578, Note_off_c, 0, 68, 104
1, 8588, Note_on_c, 0, 69, 104
1, 8719, Note_off_c, 0, 69, 104
1, 8736, Note_on_c, 0, 68, 97
1, 8770, Note_off_c, 0, 68, 97
1, 8786, Note_on_c, 0, 65, 100
1, 8868, Note_off_c, 0, 65, 100
1, 8873, Note_on_c, 0, 63, 87
1, 8924, Note_off_c, 0, 63, 87
1, 8953, Note_on_c, 0, 65, 99
1, 9250, Note_off_c, 0, 65, 99
1, 9276, Note_on_c, 0, 63, 99
1, 9561, Note_off_c, 0, 63, 99
1, 9572, Note_on_c, 0, 65, 94
1, 9618, Note_off_c, 0, 65, 94
1, 9618, Note_on_c, 0, 67, 95
1, 9640, Note_off_c, 0, 67, 95
1, 9647, Note_on_c, 0, 69, 99
1, 9686, Note_off_c, 0, 69, 99
1, 9690, Note_on_c, 0, 70, 99
1, 10010, Note_off_c, 0, 70, 99
1, 10026, Note_on_c, 0, 67, 90
1, 10090, Note_off_c, 0, 67, 90
1, 10090, Note_on_c, 0, 69, 102
1, 10189, Note_off_c, 0, 69, 102
1, 10202, Note_on_c, 0, 65, 96
1, 10277, Note_off_c, 0, 65, 96
1, 10313, Note_on_c, 0, 60, 88
1, 10380, Note_off_c, 0, 60, 88
1, 10403, Note_on_c, 0, 58, 95
1, 10475, Note_off_c, 0, 58, 95
1, 10486, Note_on_c, 0, 57, 92
1, 10590, Note_off_c, 0, 57, 92
1, 10607, Note_on_c, 0, 60, 91
1, 10678, Note_off_c, 0, 60, 91
1, 10699, Note_on_c, 0, 65, 99
1, 10790, Note_off_c, 0, 65, 99
1, 10801, Note_on_c, 0, 64, 101
1, 10882, Note_off_c, 0, 64, 101
1, 10889, Note_on_c, 0, 63, 99
1, 10971, Note_off_c, 0, 63, 99
1, 10977, Note_on_c, 0, 65, 102
1, 11065, Note_off_c, 0, 65, 102
1, 11085, Note_on_c, 0, 60, 93
1, 11168, Note_off_c, 0, 60, 93
1, 11184, Note_on_c, 0, 63, 100
1, 11267, Note_off_c, 0, 63, 100
1, 11272, Note_on_c, 0, 65, 102
1, 11358, Note_off_c, 0, 65, 102
1, 11377, Note_on_c, 0, 62, 99
1, 11448, Note_off_c, 0, 62, 99
1, 11460, Note_on_c, 0, 64, 98
1, 11548, Note_off_c, 0, 64, 98
1, 11564, Note_on_c, 0, 67, 106
1, 11652, Note_off_c, 0, 67, 106
1, 11659, Note_on_c, 0, 69, 105
1, 11753, Note_off_c, 0, 69, 105
1, 11753, Note_on_c, 0, 66, 103
1, 11824, Note_off_c, 0, 66, 103
1, 11835, Note_on_c, 0, 68, 103
1, 11940, Note_off_c, 0, 68, 103
1, 11942, Note_on_c, 0, 71, 107
1, 12014, Note_off_c, 0, 71, 107
1, 12025, Note_on_c, 0, 73, 109
1, 12114, Note_off_c, 0, 73, 109
1, 12132, Note_on_c, 0, 70, 104
1, 12210, Note_off_c, 0, 70, 104
1, 12223, Note_on_c, 0, 72, 105
1, 12317, Note_off_c, 0, 72, 105
1, 12321, Note_on_c, 0, 75, 109
1, 12406, Note_off_c, 0, 75, 109
1, 12408, Note_on_c, 0, 77, 107
1, 12963, Note_off_c, 0, 77, 107
1, 13754, Note_on_c, 0, 76, 105
1, 13847, Note_off_c, 0, 76, 105
1, 13851, Note_on_c, 0, 79, 107
1, 13941, Note_off_c, 0, 79, 107
1, 13950, Note_on_c, 0, 81, 108
1, 14086, Note_off_c, 0, 81, 108
1, 14096, Note_on_c, 0, 78, 111
1, 14248, Note_off_c, 0, 78, 111
1, 14259, Note_on_c, 0, 80, 106
1, 14446, Note_off_c, 0, 80, 106
1, 14448, Note_on_c, 0, 83, 109
1, 15073, Note_off_c, 0, 83, 109
1, 15849, Note_on_c, 0, 80, 108
1, 15951, Note_off_c, 0, 80, 108
1, 15970, Note_on_c, 0, 83, 107
1, 16137, Note_off_c, 0, 83, 107
1, 16141, Note_on_c, 0, 84, 107
1, 16157, Note_off_c, 0, 84, 107
1, 16157, Note_on_c, 0, 83, 106
1, 16310, Note_off_c, 0, 83, 106
1, 16338, Note_on_c, 0, 82, 105
1, 16444, Note_off_c, 0, 82, 105
1, 16448, Note_on_c, 0, 81, 103
1, 16462, Note_off_c, 0, 81, 103
1, 16462, Note_on_c, 0, 80, 92
1, 16469, Note_off_c, 0, 80, 92
1, 16472, Note_on_c, 0, 79, 80
1, 16477, Note_off_c, 0, 79, 80
1, 16488, Note_on_c, 0, 78, 70
1, 16525, Note_off_c, 0, 78, 70
1, 17298, Note_on_c, 0, 77, 100
1, 17368, Note_off_c, 0, 77, 100
1, 17382, Note_on_c, 0, 82, 103
1, 17491, Note_off_c, 0, 82, 103
1, 17494, Note_on_c, 0, 81, 109
1, 17571, Note_off_c, 0, 81, 109
1, 17571, Note_on_c, 0, 82, 105
1, 17656, Note_off_c, 0, 82, 105
1, 17656, Note_on_c, 0, 81, 112
1, 17752, Note_off_c, 0, 81, 112
1, 17760, Note_on_c, 0, 82, 107
1, 17936, Note_off_c, 0, 82, 107
1, 17939, Note_on_c, 0, 81, 108
1, 18071, Note_off_c, 0, 81, 108
1, 18073, Note_on_c, 0, 84, 109
1, 18260, Note_off_c, 0, 84, 109
1, 18263, Note_on_c, 0, 83, 97
1, 18280, Note_off_c, 0, 83, 97
1, 18280, Note_on_c, 0, 81, 105
1, 18405, Note_off_c, 0, 81, 105
1, 18414, Note_on_c, 0, 77, 103
1, 18867, Note_off_c, 0, 77, 103
1, 19647, Note_on_c, 0, 80, 103
1, 19836, Note_off_c, 0, 80, 103
1, 19839, Note_on_c, 0, 81, 96
1, 19875, Note_off_c, 0, 81, 96
1, 19880, Note_on_c, 0, 83, 111
1, 20010, Note_off_c, 0, 83, 111
1, 20021, Note_on_c, 0, 82, 106
1, 20185, Note_off_c, 0, 82, 106
1, 20217, Note_on_c, 0, 76, 105
1, 20342, Note_off_c, 0, 76, 105
1, 20342, Note_on_c, 0, 80, 107
1, 20646, Note_off_c, 0, 80, 107
1, 21117, Note_on_c, 0, 77, 103
1, 21195, Note_off_c, 0, 77, 103
1, 21208, Note_on_c, 0, 81, 107
1, 21296, Note_off_c, 0, 81, 107
1, 21299, Note_on_c, 0, 79, 105
1, 21383, Note_off_c, 0, 79, 105
1, 21392, Note_on_c, 0, 77, 107
1, 21495, Note_off_c, 0, 77, 107
1, 21498, Note_on_c, 0, 76, 105
1, 21586, Note_off_c, 0, 76, 105
1, 21586, Note_on_c, 0, 75, 102
1, 21666, Note_off_c, 0, 75, 102
1, 21669, Note_on_c, 0, 79, 103
1, 21749, Note_off_c, 0, 79, 103
1, 21762, Note_on_c, 0, 76, 95
1, 21787, Note_off_c, 0, 76, 95
1, 21787, Note_on_c, 0, 74, 104
1, 21895, Note_off_c, 0, 74, 104
1, 21962, Note_on_c, 0, 78, 111
1, 22050, Note_off_c, 0, 78, 111
1, 22060, Note_on_c, 0, 80, 106
1, 22140, Note_off_c, 0, 80, 106
1, 22145, Note_on_c, 0, 78, 105
1, 22271, Note_off_c, 0, 78, 105
1, 22279, Note_on_c, 0, 76, 106
1, 22336, Note_off_c, 0, 76, 106
1, 22342, Note_on_c, 0, 75, 102
1, 22444, Note_off_c, 0, 75, 102
1, 22449, Note_on_c, 0, 73, 105
1, 22520, Note_off_c, 0, 73, 105
1, 22526, Note_on_c, 0, 71, 96
1, 22622, Note_off_c, 0, 71, 96
1, 22636, Note_on_c, 0, 77, 106
1, 22734, Note_off_c, 0, 77, 106
1, 22736, Note_on_c, 0, 76, 104
1, 22797, Note_off_c, 0, 76, 104
1, 22797, Note_on_c, 0, 75, 103
1, 22876, Note_on_c, 0, 74, 106
1, 22876, Note_off_c, 0, 75, 103
1, 23010, Note_off_c, 0, 74, 106
1, 23024, Note_on_c, 0, 72, 104
1, 23096, Note_off_c, 0, 72, 104
1, 23128, Note_on_c, 0, 70, 100
1, 23227, Note_off_c, 0, 70, 100
1, 23231, Note_on_c, 0, 69, 102
1, 23310, Note_off_c, 0, 69, 102
1, 23314, Note_on_c, 0, 68, 99
1, 23397, Note_off_c, 0, 68, 99
1, 23420, Note_on_c, 0, 63, 96
1, 23471, Note_off_c, 0, 63, 96
1, 23487, Note_on_c, 0, 60, 84
1, 23578, Note_off_c, 0, 60, 84
1, 23622, Note_on_c, 0, 65, 97
1, 23669, Note_off_c, 0, 65, 97
1, 23674, Note_on_c, 0, 63, 92
1, 23976, Note_off_c, 0, 63, 92
1, 23990, Note_on_c, 0, 65, 92
1, 24045, Note_off_c, 0, 65, 92
1, 24053, Note_on_c, 0, 62, 84
1, 24107, Note_off_c, 0, 62, 84
1, 24107, Note_on_c, 0, 64, 92
1, 24612, Note_off_c, 0, 64, 92
1, 24629, Note_on_c, 0, 65, 101
1, 24735, Note_off_c, 0, 65, 101
1, 24769, Note_on_c, 0, 67, 99
1, 24822, Note_off_c, 0, 67, 99
1, 24831, Note_on_c, 0, 69, 96
1, 24927, Note_off_c, 0, 69, 96
1, 24931, Note_on_c, 0, 72, 104
1, 25009, Note_off_c, 0, 72, 104
1, 25025, Note_on_c, 0, 76, 103
1, 25120, Note_off_c, 0, 76, 103
1, 25130, Note_on_c, 0, 72, 95
1, 25208, Note_off_c, 0, 72, 95
1, 25216, Note_on_c, 0, 69, 92
1, 25288, Note_off_c, 0, 69, 92
1, 25297, Note_on_c, 0, 67, 94
1, 25369, Note_off_c, 0, 67, 94
1, 25382, Note_on_c, 0, 66, 103
1, 25480, Note_off_c, 0, 66, 103
1, 25489, Note_on_c, 0, 69, 99
1, 25571, Note_off_c, 0, 69, 99
1, 25607, Note_on_c, 0, 72, 86
1, 25654, Note_off_c, 0, 72, 86
1, 25658, Note_on_c, 0, 75, 100
1, 25771, Note_off_c, 0, 75, 100
1, 25771, Note_on_c, 0, 74, 98
1, 25851, Note_off_c, 0, 74, 98
1, 25857, Note_on_c, 0, 70, 93
1, 25887, Note_off_c, 0, 70, 93
1, 26830, Note_on_c, 0, 74, 86
1, 26847, Note_off_c, 0, 74, 86
1, 26847, Note_on_c, 0, 77, 107
1, 26915, Note_off_c, 0, 77, 107
1, 26928, Note_on_c, 0, 76, 105
1, 27026, Note_off_c, 0, 76, 105
1, 27032, Note_on_c, 0, 77, 108
1, 27099, Note_off_c, 0, 77, 108
1, 27107, Note_on_c, 0, 76, 105
1, 27245, Note_off_c, 0, 76, 105
1, 27257, Note_on_c, 0, 77, 102
1, 27394, Note_off_c, 0, 77, 102
1, 27411, Note_on_c, 0, 72, 98
1, 27480, Note_off_c, 0, 72, 98
1, 27513, Note_on_c, 0, 69, 94
1, 27589, Note_off_c, 0, 69, 94
1, 27607, Note_on_c, 0, 66, 74
1, 27666, Note_off_c, 0, 66, 74
1, 27667, Note_on_c, 0, 74, 104
1, 27853, Note_off_c, 0, 74, 104
1, 29113, Note_on_c, 0, 79, 102
1, 29246, Note_off_c, 0, 79, 102
1, 29293, Note_on_c, 0, 83, 102
1, 29386, Note_off_c, 0, 83, 102
1, 29491, Note_on_c, 0, 79, 101
1, 29575, Note_off_c, 0, 79, 101
1, 30323, Note_on_c, 0, 79, 103
1, 30458, Note_off_c, 0, 79, 103
1, 30505, Note_on_c, 0, 83, 104
1, 30631, Note_off_c, 0, 83, 104
1, 30703, Note_on_c, 0, 79, 106
1, 30882, Note_off_c, 0, 79, 106
1, 31771, Note_on_c, 0, 77, 103
1, 31864, Note_off_c, 0, 77, 103
1, 31886, Note_on_c, 0, 80, 102
1, 31995, Note_on_c, 0, 82, 104
1, 31995, Note_off_c, 0, 80, 102
1, 32075, Note_off_c, 0, 82, 104
1, 32078, Note_on_c, 0, 80, 102
1, 32166, Note_off_c, 0, 80, 102
1, 32185, Note_on_c, 0, 77, 104
1, 32276, Note_on_c, 0, 75, 101
1, 32276, Note_off_c, 0, 77, 104
1, 32392, Note_off_c, 0, 75, 101
1, 32407, Note_on_c, 0, 70, 82
1, 32451, Note_off_c, 0, 70, 82
1, 32452, Note_on_c, 0, 77, 104
1, 32555, Note_off_c, 0, 77, 104
1, 32564, Note_on_c, 0, 75, 98
1, 32650, Note_off_c, 0, 75, 98
1, 32663, Note_on_c, 0, 73, 104
1, 32831, Note_off_c, 0, 73, 104
1, 32832, Note_on_c, 0, 70, 99
1, 32942, Note_off_c, 0, 70, 99
1, 32955, Note_on_c, 0, 66, 85
1, 33000, Note_off_c, 0, 66, 85
1, 33014, Note_on_c, 0, 68, 102
1, 33124, Note_off_c, 0, 68, 102
1, 33138, Note_on_c, 0, 71, 103
1, 33237, Note_off_c, 0, 71, 103
1, 33238, Note_on_c, 0, 73, 104
1, 33333, Note_off_c, 0, 73, 104
1, 33339, Note_on_c, 0, 76, 105
1, 33426, Note_off_c, 0, 76, 105
1, 33427, Note_on_c, 0, 75, 102
1, 33525, Note_off_c, 0, 75, 102
1, 33543, Note_on_c, 0, 71, 90
1, 33575, Note_off_c, 0, 71, 90
1, 33583, Note_on_c, 0, 73, 105
1, 33710, Note_off_c, 0, 73, 105
1, 33727, Note_on_c, 0, 72, 104
1, 33979, Note_off_c, 0, 72, 104
1, 33986, Note_on_c, 0, 71, 105
1, 34336, Note_off_c, 0, 71, 105
1, 34337, Note_on_c, 0, 75, 105
1, 34389, Note_off_c, 0, 75, 105
1, 34394, Note_on_c, 0, 75, 100
1, 34427, Note_off_c, 0, 75, 100
1, 34427, Note_on_c, 0, 70, 96
1, 34514, Note_off_c, 0, 70, 96
1, 34519, Note_on_c, 0, 69, 99
1, 34587, Note_off_c, 0, 69, 99
1, 34592, Note_on_c, 0, 68, 100
1, 34675, Note_off_c, 0, 68, 100
1, 34676, Note_on_c, 0, 70, 104
1, 34756, Note_off_c, 0, 70, 104
1, 34774, Note_on_c, 0, 71, 89
1, 34839, Note_off_c, 0, 71, 89
1, 34855, Note_on_c, 0, 68, 95
1, 34937, Note_off_c, 0, 68, 95
1, 34943, Note_on_c, 0, 69, 104
1, 35030, Note_off_c, 0, 69, 104
1, 35066, Note_on_c, 0, 60, 88
1, 35114, Note_off_c, 0, 60, 88
1, 35127, Note_on_c, 0, 65, 95
1, 35214, Note_off_c, 0, 65, 95
1, 35220, Note_on_c, 0, 69, 105
1, 35306, Note_off_c, 0, 69, 105
1, 35306, Note_on_c, 0, 70, 103
1, 35399, Note_off_c, 0, 70, 103
1, 35421, Note_on_c, 0, 69, 92
1, 35491, Note_off_c, 0, 69, 92
1, 35498, Note_on_c, 0, 70, 103
1, 35584, Note_off_c, 0, 70, 103
1, 35596, Note_on_c, 0, 69, 102
1, 35685, Note_off_c, 0, 69, 102
1, 35695, Note_on_c, 0, 70, 102
1, 35781, Note_off_c, 0, 70, 102
1, 35792, Note_on_c, 0, 69, 99
1, 35868, Note_off_c, 0, 69, 99
1, 35878, Note_on_c, 0, 70, 99
1, 35983, Note_off_c, 0, 70, 99
1, 36001, Note_on_c, 0, 69, 101
1, 36063, Note_off_c, 0, 69, 101
1, 36067, Note_on_c, 0, 70, 104
1, 36209, Note_off_c, 0, 70, 104
1, 36229, Note_on_c, 0, 67, 99
1, 36274, Note_off_c, 0, 67, 99
1, 36279, Note_on_c, 0, 69, 105
1, 36371, Note_off_c, 0, 69, 105
1, 36371, Note_on_c, 0, 67, 104
1, 36406, Note_off_c, 0, 67, 104
1, 36407, Note_on_c, 0, 65, 94
1, 36424, Note_off_c, 0, 65, 94
1, 36424, Note_on_c, 0, 64, 96
1, 36455, Note_off_c, 0, 64, 96
1, 36464, Note_on_c, 0, 62, 98
1, 36510, Note_off_c, 0, 62, 98
1, 36512, Note_on_c, 0, 63, 87
1, 36546, Note_off_c, 0, 63, 87
1, 36550, Note_on_c, 0, 61, 90
1, 36595, Note_off_c, 0, 61, 90
1, 36614, Note_on_c, 0, 62, 104
1, 36656, Note_off_c, 0, 62, 104
1, 36663, Note_on_c, 0, 64, 95
1, 36704, Note_off_c, 0, 64, 95
1, 36710, Note_on_c, 0, 68, 100
1, 36757, Note_off_c, 0, 68, 100
1, 36760, Note_on_c, 0, 70, 98
1, 36796, Note_off_c, 0, 70, 98
1, 36798, Note_on_c, 0, 72, 106
1, 36845, Note_off_c, 0, 72, 106
1, 36845, Note_on_c, 0, 74, 109
1, 36889, Note_on_c, 0, 75, 105
1, 36889, Note_off_c, 0, 74, 109
1, 36933, Note_off_c, 0, 75, 105
1, 36933, Note_on_c, 0, 77, 104
1, 36983, Note_off_c, 0, 77, 104
1, 36983, Note_on_c, 0, 79, 98
1, 37001, Note_off_c, 0, 79, 98
1, 37001, Note_on_c, 0, 81, 107
1, 37034, Note_off_c, 0, 81, 107
1, 37040, Note_on_c, 0, 82, 93
1, 37129, Note_off_c, 0, 82, 93
1, 38023, Note_on_c, 0, 75, 84
1, 38042, Note_off_c, 0, 75, 84
1, 38045, Note_on_c, 0, 77, 106
1, 38242, Note_off_c, 0, 77, 106
1, 38245, Note_on_c, 0, 76, 104
1, 38289, Note_off_c, 0, 76, 104
1, 38289, Note_on_c, 0, 75, 102
1, 38318, Note_off_c, 0, 75, 102
1, 38323, Note_on_c, 0, 74, 107
1, 38434, Note_off_c, 0, 74, 107
1, 38434, Note_on_c, 0, 77, 105
1, 38477, Note_off_c, 0, 77, 105
1, 38481, Note_on_c, 0, 76, 99
1, 38509, Note_off_c, 0, 76, 99
1, 38512, Note_on_c, 0, 75, 103
1, 38536, Note_off_c, 0, 75, 103
1, 38546, Note_on_c, 0, 74, 100
1, 38626, Note_off_c, 0, 74, 100
1, 38628, Note_on_c, 0, 77, 100
1, 38667, Note_off_c, 0, 77, 100
1, 38667, Note_on_c, 0, 76, 103
1, 38696, Note_off_c, 0, 76, 103
1, 38704, Note_on_c, 0, 75, 105
1, 38732, Note_off_c, 0, 75, 105
1, 38741, Note_on_c, 0, 74, 100
1, 38794, Note_off_c, 0, 74, 100
1, 38812, Note_on_c, 0, 77, 102
1, 38883, Note_off_c, 0, 77, 102
1, 38883, Note_on_c, 0, 75, 101
1, 38928, Note_off_c, 0, 75, 101
1, 38928, Note_on_c, 0, 74, 106
1, 38985, Note_off_c, 0, 74, 106
1, 38985, Note_on_c, 0, 72, 104
1, 39262, Note_off_c, 0, 72, 104
1, 39306, Note_on_c, 0, 74, 17
1, 39343, Note_off_c, 0, 74, 17
1, 39343, Note_on_c, 0, 71, 101
1, 39427, Note_off_c, 0, 71, 101
1, 40173, Note_on_c, 0, 76, 101
1, 40203, Note_off_c, 0, 76, 101
1, 40203, Note_on_c, 0, 77, 110
1, 40258, Note_off_c, 0, 77, 110
1, 40267, Note_on_c, 0, 78, 112
1, 40359, Note_off_c, 0, 78, 112
1, 40381, Note_on_c, 0, 80, 106
1, 40451, Note_off_c, 0, 80, 106
1, 40455, Note_on_c, 0, 78, 109
1, 40533, Note_off_c, 0, 78, 109
1, 40534, Note_on_c, 0, 76, 103
1, 40571, Note_off_c, 0, 76, 103
1, 40571, Note_on_c, 0, 78, 106
1, 40594, Note_off_c, 0, 78, 106
1, 40594, Note_on_c, 0, 76, 108
1, 40632, Note_off_c, 0, 76, 108
1, 40635, Note_on_c, 0, 75, 105
1, 40719, Note_off_c, 0, 75, 105
1, 40728, Note_on_c, 0, 73, 109
1, 40817, Note_off_c, 0, 73, 109
1, 40823, Note_on_c, 0, 71, 101
1, 40896, Note_off_c, 0, 71, 101
1, 40946, Note_on_c, 0, 77, 103
1, 41002, Note_off_c, 0, 77, 103
1, 41102, Note_on_c, 0, 74, 85
1, 41162, Note_off_c, 0, 74, 85
1, 41304, Note_on_c, 0, 70, 104
1, 41385, Note_off_c, 0, 70, 104
1, 41390, Note_on_c, 0, 72, 110
1, 41490, Note_off_c, 0, 72, 110
1, 41495, Note_on_c, 0, 75, 106
1, 41593, Note_off_c, 0, 75, 106
1, 41593, Note_on_c, 0, 74, 107
1, 41673, Note_off_c, 0, 74, 107
1, 41696, Note_on_c, 0, 70, 103
1, 41784, Note_off_c, 0, 70, 103
1, 41788, Note_on_c, 0, 73, 110
1, 41882, Note_off_c, 0, 73, 110
1, 41886, Note_on_c, 0, 70, 103
1, 41954, Note_off_c, 0, 70, 103
1, 41987, Note_on_c, 0, 66, 99
1, 42075, Note_off_c, 0, 66, 99
1, 42100, Note_on_c, 0, 71, 105
1, 42171, Note_off_c, 0, 71, 105
1, 42180, Note_on_c, 0, 73, 108
1, 42276, Note_off_c, 0, 73, 108
1, 42280, Note_on_c, 0, 76, 106
1, 42434, Note_off_c, 0, 76, 106
1, 42465, Note_on_c, 0, 78, 110
1, 42591, Note_off_c, 0, 78, 110
1, 43279, Note_on_c, 0, 76, 109
1, 43398, Note_off_c, 0, 76, 109
1, 43399, Note_on_c, 0, 78, 102
1, 43497, Note_off_c, 0, 78, 102
1, 43854, Note_on_c, 0, 76, 106
1, 43974, Note_off_c, 0, 76, 106
1, 43976, Note_on_c, 0, 78, 100
1, 44095, Note_off_c, 0, 78, 100
1, 44425, Note_on_c, 0, 71, 98
1, 44469, Note_off_c, 0, 71, 98
1, 44469, Note_on_c, 0, 76, 107
1, 44572, Note_off_c, 0, 76, 107
1, 44581, Note_on_c, 0, 79, 106
1, 44626, Note_off_c, 0, 79, 106
1, 44756, Note_on_c, 0, 77, 103
1, 44910, Note_off_c, 0, 77, 103
1, 45109, Note_on_c, 0, 73, 101
1, 45179, Note_off_c, 0, 73, 101
1, 45179, Note_on_c, 0, 70, 92
1, 45190, Note_off_c, 0, 70, 92
1, 45190, Note_on_c, 0, 69, 101
1, 45212, Note_off_c, 0, 69, 101
1, 45215, Note_on_c, 0, 67, 101
1, 45289, Note_off_c, 0, 67, 101
1, 45301, Note_on_c, 0, 70, 100
1, 45393, Note_off_c, 0, 70, 100
1, 45410, Note_on_c, 0, 74, 100
1, 45497, Note_off_c, 0, 74, 100
1, 45518, Note_on_c, 0, 77, 106
1, 45587, Note_off_c, 0, 77, 106
1, 45610, Note_on_c, 0, 76, 108
1, 45779, Note_off_c, 0, 76, 108
1, 45799, Note_on_c, 0, 72, 103
1, 45871, Note_off_c, 0, 72, 103
1, 45884, Note_on_c, 0, 76, 106
1, 45982, Note_off_c, 0, 76, 106
1, 45986, Note_on_c, 0, 74, 103
1, 46121, Note_off_c, 0, 74, 103
1, 46166, Note_on_c, 0, 70, 103
1, 46278, Note_off_c, 0, 70, 103
1, 46291, Note_on_c, 0, 67, 86
1, 46321, Note_off_c, 0, 67, 86
1, 46340, Note_on_c, 0, 72, 106
1, 46481, Note_off_c, 0, 72, 106
1, 46552, Note_on_c, 0, 69, 103
1, 46679, Note_off_c, 0, 69, 103
1, 46747, Note_on_c, 0, 70, 105
1, 46847, Note_off_c, 0, 70, 105
1, 46847, Note_on_c, 0, 69, 100
1, 46926, Note_off_c, 0, 69, 100
1, 46969, Note_on_c, 0, 65, 99
1, 47064, Note_off_c, 0, 65, 99
1, 47098, Note_on_c, 0, 63, 92
1, 47891, Note_off_c, 0, 63, 92
1, 47891, End_track
0, 0, End_of_file
