0, 0, Header, 1, 1, 420
1, 0, Start_track
1, 0, Title_t, "Melody"
1, 0, Tempo, 346820
1, 0, Time_signature, 4, 2, 24, 8
1, 4808, Note_on_c, 0, 68, 110
1, 4981, Note_off_c, 0, 68, 110
1, 5026, Note_on_c, 0, 70, 118
1, 5119, Note_off_c, 0, 70, 118
1, 5287, Note_on_c, 0, 72, 118
1, 5430, Note_off_c, 0, 72, 118
1, 5469, Note_on_c, 0, 74, 109
1, 6091, Note_off_c, 0, 74, 109
1, 6140, Note_on_c, 0, 72, 108
1, 6362, Note_off_c, 0, 72, 108
1, 6401, Note_on_c, 0, 70, 105
1, 6569, Note_off_c, 0, 70, 105
1, 6603, Note_on_c, 0, 67, 103
1, 6820, Note_off_c, 0, 67, 103
1, 6879, Note_on_c, 0, 65, 110
1, 7546, Note_off_c, 0, 65, 110
1, 7575, Note_on_c, 0, 63, 111
1, 7782, Note_off_c, 0, 63, 111
1, 7846, Note_on_c, 0, 67, 112
1, 7994, Note_off_c, 0, 67, 112
1, 8048, Note_on_c, 0, 70, 114
1, 8418, Note_off_c, 0, 70, 114
1, 8487, Note_on_c, 0, 68, 112
1, 8689, Note_off_c, 0, 68, 112
1, 8733, Note_on_c, 0, 65, 108
1, 8905, Note_off_c, 0, 65, 108
1, 8964, Note_on_c, 0, 61, 105
1, 9156, Note_off_c, 0, 61, 105
1, 9205, Note_on_c, 0, 54, 106
1, 9407, Note_off_c, 0, 54, 106
1, 9446, Note_on_c, 0, 56, 107
1, 9757, Note_off_c, 0, 56, 107
1, 9811, Note_on_c, 0, 58, 92
1, 9954, Note_off_c, 0, 58, 92
1, 10038, Note_on_c, 0, 62, 91
1, 10186, Note_off_c, 0, 62, 91
1, 10230, Note_on_c, 0, 66, 111
1, 10427, Note_off_c, 0, 66, 111
1, 10456, Note_on_c, 0, 68, 112
1, 10658, Note_off_c, 0, 68, 112
1, 10697, Note_on_c, 0, 70, 109
1, 10790, Note_off_c, 0, 70, 109
1, 11086, Note_on_c, 0, 70, 114
1, 11268, Note_off_c, 0, 70, 114
1, 11302, Note_on_c, 0, 67, 103
1, 11400, Note_off_c, 0, 67, 103
1, 11528, Note_on_c, 0, 79, 98
1, 11656, Note_off_c, 0, 79, 98
1, 12792, Note_on_c, 0, 77, 120
1, 12984, Note_off_c, 0, 77, 120
1, 13021, Note_on_c, 0, 79, 122
1, 13249, Note_off_c, 0, 79, 122
1, 13298, Note_on_c, 0, 82, 104
1, 13396, Note_off_c, 0, 82, 104
1, 14503, Note_on_c, 0, 75, 117
1, 14590, Note_off_c, 0, 75, 117
1, 14635, Note_on_c, 0, 77, 123
1, 14722, Note_off_c, 0, 77, 123
1, 14767, Note_on_c, 0, 77, 124
1, 14897, Note_off_c, 0, 77, 124
1, 14928, Note_on_c, 0, 77, 119
1, 15054, Note_off_c, 0, 77, 119
1, 15278, Note_on_c, 0, 77, 122
1, 15393, Note_off_c, 0, 77, 122
1, 15421, Note_on_c, 0, 76, 122
1, 15491, Note_off_c, 0, 76, 122
1, 15540, Note_on_c, 0, 75, 124
1, 15842, Note_off_c, 0, 75, 124
1, 15884, Note_on_c, 0, 77, 122
1, 15957, Note_off_c, 0, 77, 122
1, 15981, Note_on_c, 0, 78, 125
1, 16227, Note_off_c, 0, 78, 125
1, 16276, Note_on_c, 0, 80, 120
1, 16353, Note_off_c, 0, 80, 120
1, 16384, Note_on_c, 0, 77, 107
1, 16440, Note_off_c, 0, 77, 107
1, 16478, Note_on_c, 0, 75, 115
1, 16569, Note_off_c, 0, 75, 115
1, 16600, Note_on_c, 0, 73, 114
1, 16656, Note_off_c, 0, 73, 114
1, 16677, Note_on_c, 0, 70, 112
1, 16778, Note_off_c, 0, 70, 112
1, 16799, Note_on_c, 0, 68, 112
1, 16879, Note_off_c, 0, 68, 112
1, 16921, Note_on_c, 0, 65, 106
1, 16984, Note_off_c, 0, 65, 106
1, 16998, Note_on_c, 0, 66, 109
1, 17043, Note_off_c, 0, 66, 109
1, 17057, Note_on_c, 0, 70, 110
1, 17092, Note_off_c, 0, 70, 110
1, 17109, Note_on_c, 0, 69, 112
1, 17200, Note_off_c, 0, 69, 112
1, 17221, Note_on_c, 0, 68, 113
1, 17691, Note_off_c, 0, 68, 113
1, 17727, Note_on_c, 0, 70, 89
1, 17799, Note_off_c, 0, 70, 89
1, 18115, Note_on_c, 0, 70, 108
1, 18417, Note_off_c, 0, 70, 108
1, 18448, Note_on_c, 0, 70, 103
1, 18571, Note_off_c, 0, 70, 103
1, 18985, Note_on_c, 0, 70, 107
1, 19322, Note_off_c, 0, 70, 107
1, 19395, Note_on_c, 0, 75, 100
1, 19472, Note_off_c, 0, 75, 100
1, 19711, Note_on_c, 0, 72, 94
1, 20965, Note_off_c, 0, 72, 94
1, 21801, Note_on_c, 0, 63, 101
1, 21955, Note_off_c, 0, 63, 101
1, 21993, Note_on_c, 0, 68, 108
1, 22196, Note_off_c, 0, 68, 108
1, 22220, Note_on_c, 0, 70, 105
1, 22406, Note_off_c, 0, 70, 105
1, 22486, Note_on_c, 0, 71, 104
1, 22587, Note_off_c, 0, 71, 104
1, 22622, Note_on_c, 0, 73, 103
1, 23180, Note_off_c, 0, 73, 103
1, 23250, Note_on_c, 0, 68, 110
1, 23446, Note_off_c, 0, 68, 110
1, 23491, Note_on_c, 0, 70, 108
1, 23645, Note_off_c, 0, 70, 108
1, 23676, Note_on_c, 0, 68, 109
1, 23865, Note_off_c, 0, 68, 109
1, 23928, Note_on_c, 0, 65, 110
1, 24082, Note_off_c, 0, 65, 110
1, 24127, Note_on_c, 0, 63, 106
1, 24316, Note_off_c, 0, 63, 106
1, 24375, Note_on_c, 0, 60, 100
1, 24501, Note_off_c, 0, 60, 100
1, 24543, Note_on_c, 0, 65, 110
1, 24736, Note_off_c, 0, 65, 110
1, 24802, Note_on_c, 0, 63, 110
1, 25005, Note_off_c, 0, 63, 110
1, 25026, Note_on_c, 0, 60, 105
1, 25338, Note_off_c, 0, 60, 105
1, 25390, Note_on_c, 0, 65, 113
1, 25618, Note_off_c, 0, 65, 113
1, 25716, Note_on_c, 0, 58, 104
1, 26183, Note_off_c, 0, 58, 104
1, 26239, Note_on_c, 0, 63, 108
1, 26502, Note_off_c, 0, 63, 108
1, 26572, Note_on_c, 0, 65, 110
1, 27833, Note_off_c, 0, 65, 110
1, 28634, Note_on_c, 0, 66, 107
1, 28788, Note_off_c, 0, 66, 107
1, 28816, Note_on_c, 0, 69, 107
1, 28988, Note_off_c, 0, 69, 107
1, 29054, Note_on_c, 0, 73, 112
1, 29236, Note_off_c, 0, 73, 112
1, 29295, Note_on_c, 0, 71, 100
1, 29418, Note_off_c, 0, 71, 100
1, 30296, Note_on_c, 0, 74, 119
1, 30464, Note_off_c, 0, 74, 119
1, 30506, Note_on_c, 0, 78, 126
1, 30709, Note_off_c, 0, 78, 126
1, 30754, Note_on_c, 0, 81, 126
1, 30968, Note_off_c, 0, 81, 126
1, 30982, Note_on_c, 0, 80, 119
1, 31080, Note_off_c, 0, 80, 119
1, 32032, Note_on_c, 0, 78, 115
1, 32133, Note_off_c, 0, 78, 115
1, 32241, Note_on_c, 0, 81, 123
1, 32356, Note_off_c, 0, 81, 123
1, 32405, Note_on_c, 0, 84, 123
1, 33016, Note_off_c, 0, 84, 123
1, 33103, Note_on_c, 0, 82, 112
1, 33310, Note_off_c, 0, 82, 112
1, 33362, Note_on_c, 0, 79, 107
1, 33565, Note_off_c, 0, 79, 107
1, 33705, Note_on_c, 0, 77, 113
1, 33866, Note_off_c, 0, 77, 113
1, 33897, Note_on_c, 0, 75, 112
1, 34083, Note_off_c, 0, 75, 112
1, 34118, Note_on_c, 0, 72, 110
1, 34613, Note_off_c, 0, 72, 110
1, 34662, Note_on_c, 0, 75, 105
1, 34753, Note_off_c, 0, 75, 105
1, 34805, Note_on_c, 0, 77, 98
1, 34875, Note_off_c, 0, 77, 98
1, 34892, Note_on_c, 0, 78, 104
1, 34965, Note_off_c, 0, 78, 104
1, 35007, Note_on_c, 0, 82, 74
1, 35035, Note_off_c, 0, 82, 74
1, 35049, Note_on_c, 0, 80, 110
1, 35101, Note_off_c, 0, 80, 110
1, 35136, Note_on_c, 0, 77, 108
1, 35244, Note_off_c, 0, 77, 108
1, 35258, Note_on_c, 0, 76, 107
1, 35307, Note_off_c, 0, 76, 107
1, 35324, Note_on_c, 0, 75, 110
1, 35439, Note_off_c, 0, 75, 110
1, 35470, Note_on_c, 0, 78, 112
1, 35561, Note_off_c, 0, 78, 112
1, 35578, Note_on_c, 0, 76, 108
1, 35665, Note_off_c, 0, 76, 108
1, 35687, Note_on_c, 0, 73, 113
1, 35788, Note_off_c, 0, 73, 113
1, 35816, Note_on_c, 0, 71, 109
1, 35888, Note_off_c, 0, 71, 109
1, 35916, Note_on_c, 0, 69, 104
1, 35984, Note_off_c, 0, 69, 104
1, 35991, Note_on_c, 0, 76, 112
1, 36084, Note_off_c, 0, 76, 112
1, 36115, Note_on_c, 0, 71, 105
1, 36213, Note_off_c, 0, 71, 105
1, 36232, Note_on_c, 0, 73, 112
1, 36281, Note_off_c, 0, 73, 112
1, 36314, Note_on_c, 0, 69, 110
1, 36373, Note_off_c, 0, 69, 110
1, 36395, Note_on_c, 0, 66, 100
1, 36486, Note_off_c, 0, 66, 100
1, 36517, Note_on_c, 0, 70, 109
1, 36596, Note_off_c, 0, 70, 109
1, 36618, Note_on_c, 0, 68, 106
1, 36714, Note_off_c, 0, 68, 106
1, 36789, Note_on_c, 0, 69, 110
1, 36885, Note_off_c, 0, 69, 110
1, 36899, Note_on_c, 0, 68, 106
1, 36992, Note_off_c, 0, 68, 106
1, 37025, Note_on_c, 0, 64, 104
1, 37450, Note_off_c, 0, 64, 104
1, 37462, Note_on_c, 0, 62, 104
1, 37569, Note_off_c, 0, 62, 104
1, 37581, Note_on_c, 0, 64, 103
1, 37936, Note_off_c, 0, 64, 103
1, 37958, Note_on_c, 0, 62, 101
1, 38144, Note_off_c, 0, 62, 101
1, 38224, Note_on_c, 0, 61, 98
1, 38310, Note_off_c, 0, 61, 98
1, 38322, Note_on_c, 0, 62, 100
1, 38364, Note_off_c, 0, 62, 100
1, 38381, Note_on_c, 0, 63, 101
1, 38445, Note_off_c, 0, 63, 101
1, 38459, Note_on_c, 0, 65, 114
1, 38503, Note_off_c, 0, 65, 114
1, 38515, Note_on_c, 0, 67, 108
1, 38579, Note_off_c, 0, 67, 108
1, 38591, Note_on_c, 0, 68, 110
1, 38652, Note_off_c, 0, 68, 110
1, 38661, Note_on_c, 0, 70, 111
1, 38715, Note_off_c, 0, 70, 111
1, 38734, Note_on_c, 0, 72, 115
1, 38793, Note_off_c, 0, 72, 115
1, 38812, Note_on_c, 0, 74, 116
1, 39073, Note_off_c, 0, 74, 116
1, 39107, Note_on_c, 0, 81, 108
1, 39156, Note_off_c, 0, 81, 108
1, 39168, Note_on_c, 0, 79, 109
1, 39195, Note_off_c, 0, 79, 109
1, 39222, Note_on_c, 0, 77, 116
1, 39264, Note_off_c, 0, 77, 116
1, 39303, Note_on_c, 0, 74, 107
1, 39379, Note_off_c, 0, 74, 107
1, 39408, Note_on_c, 0, 72, 106
1, 39506, Note_off_c, 0, 72, 106
1, 40524, Note_on_c, 0, 77, 112
1, 40617, Note_off_c, 0, 77, 112
1, 40659, Note_on_c, 0, 81, 112
1, 40710, Note_off_c, 0, 81, 112
1, 40747, Note_on_c, 0, 81, 120
1, 41011, Note_off_c, 0, 81, 120
1, 41050, Note_on_c, 0, 79, 112
1, 41143, Note_off_c, 0, 79, 112
1, 41167, Note_on_c, 0, 77, 112
1, 41233, Note_off_c, 0, 77, 112
1, 41255, Note_on_c, 0, 76, 109
1, 41356, Note_off_c, 0, 76, 109
1, 41358, Note_on_c, 0, 75, 117
1, 41446, Note_off_c, 0, 75, 117
1, 41473, Note_on_c, 0, 68, 96
1, 41566, Note_off_c, 0, 68, 96
1, 41585, Note_on_c, 0, 75, 115
1, 41678, Note_off_c, 0, 75, 115
1, 41705, Note_on_c, 0, 77, 116
1, 41766, Note_off_c, 0, 77, 116
1, 41780, Note_on_c, 0, 78, 109
1, 41836, Note_off_c, 0, 78, 109
1, 41885, Note_on_c, 0, 82, 94
1, 41934, Note_off_c, 0, 82, 94
1, 41948, Note_on_c, 0, 80, 115
1, 41980, Note_off_c, 0, 80, 115
1, 41999, Note_on_c, 0, 77, 118
1, 42080, Note_off_c, 0, 77, 118
1, 42109, Note_on_c, 0, 75, 115
1, 42202, Note_off_c, 0, 75, 115
1, 42216, Note_on_c, 0, 73, 113
1, 42290, Note_off_c, 0, 73, 113
1, 42312, Note_on_c, 0, 70, 104
1, 42378, Note_off_c, 0, 70, 104
1, 42412, Note_on_c, 0, 68, 108
1, 42533, Note_off_c, 0, 68, 108
1, 42659, Note_on_c, 0, 71, 112
1, 42772, Note_off_c, 0, 71, 112
1, 42791, Note_on_c, 0, 73, 103
1, 42996, Note_off_c, 0, 73, 103
1, 43020, Note_on_c, 0, 71, 108
1, 43212, Note_off_c, 0, 71, 108
1, 43266, Note_on_c, 0, 68, 100
1, 44044, Note_off_c, 0, 68, 100
1, 44899, Note_on_c, 0, 76, 110
1, 44987, Note_off_c, 0, 76, 110
1, 45071, Note_on_c, 0, 81, 94
1, 45226, Note_off_c, 0, 81, 94
1, 45736, Note_on_c, 0, 76, 119
1, 45936, Note_off_c, 0, 76, 119
1, 46163, Note_on_c, 0, 74, 115
1, 46333, Note_off_c, 0, 74, 115
1, 46342, Note_on_c, 0, 71, 109
1, 46571, Note_off_c, 0, 71, 109
1, 46580, Note_on_c, 0, 74, 110
1, 46730, Note_off_c, 0, 74, 110
1, 46784, Note_on_c, 0, 69, 110
1, 46934, Note_off_c, 0, 69, 110
1, 47000, Note_on_c, 0, 64, 100
1, 47116, Note_off_c, 0, 64, 100
1, 47175, Note_on_c, 0, 71, 115
1, 47362, Note_off_c, 0, 71, 115
1, 47408, Note_on_c, 0, 69, 111
1, 47566, Note_off_c, 0, 69, 111
1, 47645, Note_on_c, 0, 67, 106
1, 47825, Note_off_c, 0, 67, 106
1, 48255, Note_on_c, 0, 77, 120
1, 48442, Note_off_c, 0, 77, 120
1, 48471, Note_on_c, 0, 82, 112
1, 48569, Note_off_c, 0, 82, 112
1, 49883, Note_on_c, 0, 77, 107
1, 49976, Note_off_c, 0, 77, 107
1, 50074, Note_on_c, 0, 80, 106
1, 50143, Note_off_c, 0, 80, 106
1, 50174, Note_on_c, 0, 82, 120
1, 50246, Note_off_c, 0, 82, 120
1, 50267, Note_on_c, 0, 82, 118
1, 50330, Note_off_c, 0, 82, 118
1, 50351, Note_on_c, 0, 82, 120
1, 50419, Note_off_c, 0, 82, 120
1, 50445, Note_on_c, 0, 82, 117
1, 50504, Note_off_c, 0, 82, 117
1, 50516, Note_on_c, 0, 82, 117
1, 50591, Note_off_c, 0, 82, 117
1, 50615, Note_on_c, 0, 82, 115
1, 50681, Note_off_c, 0, 82, 115
1, 50703, Note_on_c, 0, 82, 114
1, 50780, Note_off_c, 0, 82, 114
1, 50822, Note_on_c, 0, 82, 118
1, 50878, Note_off_c, 0, 82, 118
1, 50900, Note_on_c, 0, 82, 115
1, 50926, Note_off_c, 0, 82, 115
1, 50927, Note_on_c, 0, 83, 119
1, 50993, Note_off_c, 0, 83, 119
1, 51022, Note_on_c, 0, 82, 120
1, 51090, Note_off_c, 0, 82, 120
1, 51107, Note_on_c, 0, 82, 117
1, 51172, Note_off_c, 0, 82, 117
1, 51207, Note_on_c, 0, 82, 115
1, 51254, Note_off_c, 0, 82, 115
1, 51283, Note_on_c, 0, 82, 119
1, 51355, Note_off_c, 0, 82, 119
1, 51381, Note_on_c, 0, 82, 117
1, 51446, Note_off_c, 0, 82, 117
1, 51467, Note_on_c, 0, 82, 116
1, 51530, Note_off_c, 0, 82, 116
1, 51552, Note_on_c, 0, 82, 117
1, 51606, Note_off_c, 0, 82, 117
1, 51635, Note_on_c, 0, 82, 115
1, 51717, Note_off_c, 0, 82, 115
1, 51738, Note_on_c, 0, 82, 116
1, 51787, Note_off_c, 0, 82, 116
1, 51815, Note_on_c, 0, 82, 114
1, 51897, Note_off_c, 0, 82, 114
1, 51923, Note_on_c, 0, 82, 113
1, 51988, Note_off_c, 0, 82, 113
1, 52005, Note_on_c, 0, 82, 111
1, 52085, Note_off_c, 0, 82, 111
1, 52113, Note_on_c, 0, 82, 111
1, 52179, Note_off_c, 0, 82, 111
1, 52210, Note_on_c, 0, 82, 111
1, 52283, Note_off_c, 0, 82, 111
1, 52305, Note_on_c, 0, 82, 109
1, 52355, Note_off_c, 0, 82, 109
1, 52377, Note_on_c, 0, 82, 110
1, 52456, Note_off_c, 0, 82, 110
1, 52484, Note_on_c, 0, 82, 111
1, 52566, Note_off_c, 0, 82, 111
1, 52581, Note_on_c, 0, 82, 112
1, 52663, Note_off_c, 0, 82, 112
1, 52682, Note_on_c, 0, 82, 109
1, 52734, Note_off_c, 0, 82, 109
1, 52758, Note_on_c, 0, 82, 113
1, 52815, Note_off_c, 0, 82, 113
1, 52848, Note_on_c, 0, 82, 111
1, 52902, Note_off_c, 0, 82, 111
1, 52938, Note_on_c, 0, 82, 111
1, 53020, Note_off_c, 0, 82, 111
1, 53044, Note_on_c, 0, 82, 110
1, 53087, Note_off_c, 0, 82, 110
1, 53095, Note_on_c, 0, 83, 98
1, 53119, Note_off_c, 0, 83, 98
1, 53136, Note_on_c, 0, 82, 114
1, 53244, Note_off_c, 0, 82, 114
1, 53265, Note_on_c, 0, 83, 117
1, 53303, Note_off_c, 0, 83, 117
1, 53338, Note_on_c, 0, 82, 117
1, 53397, Note_off_c, 0, 82, 117
1, 53432, Note_on_c, 0, 81, 116
1, 53656, Note_off_c, 0, 81, 116
1, 54431, Note_on_c, 0, 83, 114
1, 54496, Note_off_c, 0, 83, 114
1, 54501, Note_on_c, 0, 84, 119
1, 54555, Note_off_c, 0, 84, 119
1, 54558, Note_on_c, 0, 85, 121
1, 54586, Note_off_c, 0, 85, 121
1, 54608, Note_on_c, 0, 86, 117
1, 55465, Note_off_c, 0, 86, 117
1, 55488, Note_on_c, 0, 85, 117
1, 55510, Note_off_c, 0, 85, 117
1, 55547, Note_on_c, 0, 83, 119
1, 55967, Note_off_c, 0, 83, 119
1, 55991, Note_on_c, 0, 84, 106
1, 56050, Note_off_c, 0, 84, 106
1, 56069, Note_on_c, 0, 85, 82
1, 56088, Note_off_c, 0, 85, 82
1, 57822, Note_on_c, 0, 76, 117
1, 57992, Note_off_c, 0, 76, 117
1, 58036, Note_on_c, 0, 81, 121
1, 58231, Note_off_c, 0, 81, 121
1, 58255, Note_on_c, 0, 83, 115
1, 58351, Note_off_c, 0, 83, 115
1, 58400, Note_on_c, 0, 85, 113
1, 58632, Note_off_c, 0, 85, 113
1, 58698, Note_on_c, 0, 83, 118
1, 58853, Note_off_c, 0, 83, 118
1, 58897, Note_on_c, 0, 81, 118
1, 59104, Note_off_c, 0, 81, 118
1, 59146, Note_on_c, 0, 78, 114
1, 59489, Note_off_c, 0, 78, 114
1, 59531, Note_on_c, 0, 80, 101
1, 59575, Note_off_c, 0, 80, 101
1, 59604, Note_on_c, 0, 78, 99
1, 59668, Note_off_c, 0, 78, 99
1, 59705, Note_on_c, 0, 80, 98
1, 59766, Note_off_c, 0, 80, 98
1, 59827, Note_on_c, 0, 78, 102
1, 59901, Note_off_c, 0, 78, 102
1, 59913, Note_on_c, 0, 80, 101
1, 59964, Note_off_c, 0, 80, 101
1, 59998, Note_on_c, 0, 78, 99
1, 60054, Note_off_c, 0, 78, 99
1, 60071, Note_on_c, 0, 80, 100
1, 60122, Note_off_c, 0, 80, 100
1, 60146, Note_on_c, 0, 78, 84
1, 60254, Note_off_c, 0, 78, 84
1, 61183, Note_on_c, 0, 77, 111
1, 61318, Note_off_c, 0, 77, 111
1, 61394, Note_on_c, 0, 81, 113
1, 61534, Note_off_c, 0, 81, 113
1, 61603, Note_on_c, 0, 84, 113
1, 61682, Note_off_c, 0, 84, 113
1, 61788, Note_on_c, 0, 79, 114
1, 61988, Note_off_c, 0, 79, 114
1, 62005, Note_on_c, 0, 81, 104
1, 62086, Note_off_c, 0, 81, 104
1, 62239, Note_on_c, 0, 77, 112
1, 62412, Note_off_c, 0, 77, 112
1, 62478, Note_on_c, 0, 74, 107
1, 62601, Note_off_c, 0, 74, 107
1, 62655, Note_on_c, 0, 72, 105
1, 62852, Note_off_c, 0, 72, 105
1, 62889, Note_on_c, 0, 77, 114
1, 63113, Note_off_c, 0, 77, 114
1, 63288, Note_on_c, 0, 77, 115
1, 63480, Note_off_c, 0, 77, 115
1, 63534, Note_on_c, 0, 75, 114
1, 63692, Note_off_c, 0, 75, 114
1, 63776, Note_on_c, 0, 68, 100
1, 63929, Note_off_c, 0, 68, 100
1, 63943, Note_on_c, 0, 70, 101
1, 64073, Note_off_c, 0, 70, 101
1, 64176, Note_on_c, 0, 68, 101
1, 65137, Note_off_c, 0, 68, 101
1, 65613, Note_on_c, 0, 75, 114
1, 65689, Note_off_c, 0, 75, 114
1, 65722, Note_on_c, 0, 77, 112
1, 65806, Note_off_c, 0, 77, 112
1, 65827, Note_on_c, 0, 79, 102
1, 65876, Note_off_c, 0, 79, 102
1, 65902, Note_on_c, 0, 80, 106
1, 65970, Note_off_c, 0, 80, 106
1, 65994, Note_on_c, 0, 77, 114
1, 66081, Note_off_c, 0, 77, 114
1, 66095, Note_on_c, 0, 76, 102
1, 66151, Note_off_c, 0, 76, 102
1, 66172, Note_on_c, 0, 75, 114
1, 66282, Note_off_c, 0, 75, 114
1, 66332, Note_on_c, 0, 79, 113
1, 66404, Note_off_c, 0, 79, 113
1, 66418, Note_on_c, 0, 76, 106
1, 66483, Note_off_c, 0, 76, 106
1, 66549, Note_on_c, 0, 74, 112
1, 66633, Note_off_c, 0, 74, 112
1, 66647, Note_on_c, 0, 72, 112
1, 66748, Note_off_c, 0, 72, 112
1, 66774, Note_on_c, 0, 70, 94
1, 66826, Note_off_c, 0, 70, 94
1, 66826, Note_on_c, 0, 77, 110
1, 66936, Note_off_c, 0, 77, 110
1, 66948, Note_on_c, 0, 72, 108
1, 67013, Note_off_c, 0, 72, 108
1, 67027, Note_on_c, 0, 74, 110
1, 67127, Note_off_c, 0, 74, 110
1, 67146, Note_on_c, 0, 70, 102
1, 67200, Note_off_c, 0, 70, 102
1, 67233, Note_on_c, 0, 67, 100
1, 67356, Note_off_c, 0, 67, 100
1, 67377, Note_on_c, 0, 72, 111
1, 67442, Note_off_c, 0, 72, 111
1, 67473, Note_on_c, 0, 69, 109
1, 67574, Note_off_c, 0, 69, 109
1, 67614, Note_on_c, 0, 65, 104
1, 67687, Note_off_c, 0, 65, 104
1, 67704, Note_on_c, 0, 70, 106
1, 67788, Note_off_c, 0, 70, 106
1, 67803, Note_on_c, 0, 69, 103
1, 67866, Note_off_c, 0, 69, 103
1, 67890, Note_on_c, 0, 68, 108
1, 67972, Note_off_c, 0, 68, 108
1, 67986, Note_on_c, 0, 70, 104
1, 68070, Note_off_c, 0, 70, 104
1, 68089, Note_on_c, 0, 71, 110
1, 68178, Note_off_c, 0, 71, 110
1, 68199, Note_on_c, 0, 74, 112
1, 68269, Note_off_c, 0, 74, 112
1, 68276, Note_on_c, 0, 73, 115
1, 68379, Note_off_c, 0, 73, 115
1, 68401, Note_on_c, 0, 71, 107
1, 68471, Note_off_c, 0, 71, 107
1, 68483, Note_on_c, 0, 64, 102
1, 68555, Note_off_c, 0, 64, 102
1, 68579, Note_on_c, 0, 69, 107
1, 68652, Note_off_c, 0, 69, 107
1, 68671, Note_on_c, 0, 71, 109
1, 68743, Note_off_c, 0, 71, 109
1, 68755, Note_on_c, 0, 73, 117
1, 68860, Note_off_c, 0, 73, 117
1, 68881, Note_on_c, 0, 69, 105
1, 68938, Note_off_c, 0, 69, 105
1, 68959, Note_on_c, 0, 66, 107
1, 69050, Note_off_c, 0, 66, 107
1, 69097, Note_on_c, 0, 71, 106
1, 69162, Note_off_c, 0, 71, 106
1, 69195, Note_on_c, 0, 68, 111
1, 69265, Note_off_c, 0, 68, 111
1, 69305, Note_on_c, 0, 65, 102
1, 69366, Note_off_c, 0, 65, 102
1, 69395, Note_on_c, 0, 70, 108
1, 69467, Note_off_c, 0, 70, 108
1, 69475, Note_on_c, 0, 69, 103
1, 69562, Note_off_c, 0, 69, 103
1, 69588, Note_on_c, 0, 67, 106
1, 69658, Note_off_c, 0, 67, 106
1, 69673, Note_on_c, 0, 64, 103
1, 69720, Note_off_c, 0, 64, 103
1, 69730, Note_on_c, 0, 63, 98
1, 69814, Note_off_c, 0, 63, 98
1, 69868, Note_on_c, 0, 65, 105
1, 69936, Note_off_c, 0, 65, 105
1, 69950, Note_on_c, 0, 63, 100
1, 69995, Note_off_c, 0, 63, 100
1, 70021, Note_on_c, 0, 60, 92
1, 70140, Note_off_c, 0, 60, 92
1, 70215, Note_on_c, 0, 63, 106
1, 70489, Note_off_c, 0, 63, 106
1, 70503, Note_on_c, 0, 65, 107
1, 70592, Note_off_c, 0, 65, 107
1, 71323, Note_on_c, 0, 75, 110
1, 71421, Note_off_c, 0, 75, 110
1, 71440, Note_on_c, 0, 77, 112
1, 71517, Note_off_c, 0, 77, 112
1, 71632, Note_on_c, 0, 82, 95
1, 71667, Note_off_c, 0, 82, 95
1, 71681, Note_on_c, 0, 80, 120
1, 71709, Note_off_c, 0, 80, 120
1, 71730, Note_on_c, 0, 77, 113
1, 71823, Note_off_c, 0, 77, 113
1, 71826, Note_on_c, 0, 76, 105
1, 71899, Note_off_c, 0, 76, 105
1, 71911, Note_on_c, 0, 75, 108
1, 72009, Note_off_c, 0, 75, 108
1, 72045, Note_on_c, 0, 79, 110
1, 72092, Note_off_c, 0, 79, 110
1, 72100, Note_on_c, 0, 77, 113
1, 72135, Note_off_c, 0, 77, 113
1, 72156, Note_on_c, 0, 75, 105
1, 72199, Note_off_c, 0, 75, 105
1, 72234, Note_on_c, 0, 73, 9
1, 72341, Note_off_c, 0, 73, 9
1, 72358, Note_on_c, 0, 71, 80
1, 72408, Note_off_c, 0, 71, 80
1, 72439, Note_on_c, 0, 70, 95
1, 72475, Note_off_c, 0, 70, 95
1, 72499, Note_on_c, 0, 76, 116
1, 72583, Note_off_c, 0, 76, 116
1, 72602, Note_on_c, 0, 71, 112
1, 72659, Note_off_c, 0, 71, 112
1, 72671, Note_on_c, 0, 73, 114
1, 72743, Note_off_c, 0, 73, 114
1, 72785, Note_on_c, 0, 69, 100
1, 72837, Note_off_c, 0, 69, 100
1, 72854, Note_on_c, 0, 67, 104
1, 72901, Note_off_c, 0, 67, 104
1, 72915, Note_on_c, 0, 65, 94
1, 72985, Note_off_c, 0, 65, 94
1, 73021, Note_on_c, 0, 71, 111
1, 73091, Note_off_c, 0, 71, 111
1, 73110, Note_on_c, 0, 68, 111
1, 73204, Note_off_c, 0, 68, 111
1, 73244, Note_on_c, 0, 66, 101
1, 73287, Note_off_c, 0, 66, 101
1, 73304, Note_on_c, 0, 70, 104
1, 73430, Note_off_c, 0, 70, 104
1, 74827, Note_on_c, 0, 77, 101
1, 74939, Note_off_c, 0, 77, 101
1, 75334, Note_on_c, 0, 77, 108
1, 75446, Note_off_c, 0, 77, 108
1, 75753, Note_on_c, 0, 77, 109
1, 75823, Note_off_c, 0, 77, 109
1, 75996, Note_on_c, 0, 74, 109
1, 76141, Note_off_c, 0, 74, 109
1, 76153, Note_on_c, 0, 75, 105
1, 76346, Note_off_c, 0, 75, 105
1, 76384, Note_on_c, 0, 72, 106
1, 76702, Note_off_c, 0, 72, 106
1, 76810, Note_on_c, 0, 68, 105
1, 76906, Note_off_c, 0, 68, 105
1, 76935, Note_on_c, 0, 70, 101
1, 77170, Note_off_c, 0, 70, 101
1, 77203, Note_on_c, 0, 68, 105
1, 77406, Note_off_c, 0, 68, 105
1, 77435, Note_on_c, 0, 70, 106
1, 77640, Note_off_c, 0, 70, 106
1, 77661, Note_on_c, 0, 68, 103
1, 77991, Note_off_c, 0, 68, 103
1, 78001, Note_on_c, 0, 70, 106
1, 78211, Note_off_c, 0, 70, 106
1, 78307, Note_on_c, 0, 66, 102
1, 78528, Note_off_c, 0, 66, 102
1, 78650, Note_on_c, 0, 61, 99
1, 78860, Note_off_c, 0, 61, 99
1, 78869, Note_on_c, 0, 54, 101
1, 79064, Note_off_c, 0, 54, 101
1, 79093, Note_on_c, 0, 56, 98
1, 79273, Note_off_c, 0, 56, 98
1, 79347, Note_on_c, 0, 58, 95
1, 79482, Note_off_c, 0, 58, 95
1, 79516, Note_on_c, 0, 61, 99
1, 79689, Note_off_c, 0, 61, 99
1, 79726, Note_on_c, 0, 63, 101
1, 79911, Note_off_c, 0, 63, 101
1, 79960, Note_on_c, 0, 66, 106
1, 80039, Note_off_c, 0, 66, 106
1, 80236, Note_on_c, 0, 70, 96
1, 81424, Note_off_c, 0, 70, 96
1, 81483, Note_on_c, 0, 67, 101
1, 81690, Note_off_c, 0, 67, 101
1, 81753, Note_on_c, 0, 65, 90
1, 82765, Note_off_c, 0, 65, 90
1, 85095, Note_on_c, 0, 75, 124
1, 85326, Note_off_c, 0, 75, 124
1, 85465, Note_on_c, 0, 82, 127
1, 85660, Note_off_c, 0, 82, 127
1, 85687, Note_on_c, 0, 82, 122
1, 85766, Note_off_c, 0, 82, 122
1, 85788, Note_on_c, 0, 80, 102
1, 85830, Note_off_c, 0, 80, 102
1, 85862, Note_on_c, 0, 78, 117
1, 85913, Note_off_c, 0, 78, 117
1, 85935, Note_on_c, 0, 77, 121
1, 86137, Note_off_c, 0, 77, 121
1, 86337, Note_on_c, 0, 75, 115
1, 86564, Note_off_c, 0, 75, 115
1, 86786, Note_on_c, 0, 77, 118
1, 86988, Note_off_c, 0, 77, 118
1, 87044, Note_on_c, 0, 73, 113
1, 87671, Note_off_c, 0, 73, 113
1, 87715, Note_on_c, 0, 70, 112
1, 88083, Note_off_c, 0, 70, 112
1, 88122, Note_on_c, 0, 68, 109
1, 88356, Note_off_c, 0, 68, 109
1, 88383, Note_on_c, 0, 65, 109
1, 88612, Note_off_c, 0, 65, 109
1, 88670, Note_on_c, 0, 63, 96
1, 89833, Note_off_c, 0, 63, 96
1, 90722, Note_on_c, 0, 66, 99
1, 90828, Note_off_c, 0, 66, 99
1, 90852, Note_on_c, 0, 68, 105
1, 90913, Note_off_c, 0, 68, 105
1, 90937, Note_on_c, 0, 69, 111
1, 91040, Note_off_c, 0, 69, 111
1, 91057, Note_on_c, 0, 74, 112
1, 91121, Note_off_c, 0, 74, 112
1, 91135, Note_on_c, 0, 73, 112
1, 91233, Note_off_c, 0, 73, 112
1, 91247, Note_on_c, 0, 78, 110
1, 91328, Note_off_c, 0, 78, 110
1, 91347, Note_on_c, 0, 75, 118
1, 91794, Note_off_c, 0, 75, 118
1, 92171, Note_on_c, 0, 71, 106
1, 92278, Note_off_c, 0, 71, 106
1, 92295, Note_on_c, 0, 73, 115
1, 92358, Note_off_c, 0, 73, 115
1, 92370, Note_on_c, 0, 74, 117
1, 92431, Note_off_c, 0, 74, 117
1, 92445, Note_on_c, 0, 73, 104
1, 92546, Note_off_c, 0, 73, 104
1, 92570, Note_on_c, 0, 71, 114
1, 92685, Note_off_c, 0, 71, 114
1, 92725, Note_on_c, 0, 64, 100
1, 92795, Note_off_c, 0, 64, 100
1, 92837, Note_on_c, 0, 69, 110
1, 92916, Note_off_c, 0, 69, 110
1, 92933, Note_on_c, 0, 71, 113
1, 93019, Note_off_c, 0, 71, 113
1, 93033, Note_on_c, 0, 73, 120
1, 93129, Note_off_c, 0, 73, 120
1, 93157, Note_on_c, 0, 69, 111
1, 93220, Note_off_c, 0, 69, 111
1, 93251, Note_on_c, 0, 66, 109
1, 93359, Note_off_c, 0, 66, 109
1, 93369, Note_on_c, 0, 65, 98
1, 93435, Note_off_c, 0, 65, 98
1, 93454, Note_on_c, 0, 70, 111
1, 93545, Note_off_c, 0, 70, 111
1, 93560, Note_on_c, 0, 72, 115
1, 93621, Note_off_c, 0, 72, 115
1, 93635, Note_on_c, 0, 74, 113
1, 93749, Note_off_c, 0, 74, 113
1, 93770, Note_on_c, 0, 79, 119
1, 93864, Note_off_c, 0, 79, 119
1, 93879, Note_on_c, 0, 77, 114
1, 93936, Note_off_c, 0, 77, 114
1, 93953, Note_on_c, 0, 74, 118
1, 94070, Note_off_c, 0, 74, 118
1, 94085, Note_on_c, 0, 72, 114
1, 94139, Note_off_c, 0, 72, 114
1, 94163, Note_on_c, 0, 70, 97
1, 94236, Note_off_c, 0, 70, 97
1, 94237, Note_on_c, 0, 76, 116
1, 94337, Note_off_c, 0, 76, 116
1, 94377, Note_on_c, 0, 72, 106
1, 94442, Note_off_c, 0, 72, 106
1, 94447, Note_on_c, 0, 74, 117
1, 94506, Note_off_c, 0, 74, 117
1, 94534, Note_on_c, 0, 70, 110
1, 94609, Note_off_c, 0, 70, 110
1, 94630, Note_on_c, 0, 67, 107
1, 94738, Note_off_c, 0, 67, 107
1, 94748, Note_on_c, 0, 72, 115
1, 94834, Note_off_c, 0, 72, 115
1, 94837, Note_on_c, 0, 71, 99
1, 94889, Note_off_c, 0, 71, 99
1, 94908, Note_on_c, 0, 65, 98
1, 95275, Note_off_c, 0, 65, 98
1, 96946, Note_on_c, 0, 75, 108
1, 97051, Note_off_c, 0, 75, 108
1, 97200, Note_on_c, 0, 78, 120
1, 97391, Note_off_c, 0, 78, 120
1, 97413, Note_on_c, 0, 80, 113
1, 97509, Note_off_c, 0, 80, 113
1, 97653, Note_on_c, 0, 77, 118
1, 97807, Note_off_c, 0, 77, 118
1, 97829, Note_on_c, 0, 75, 117
1, 98010, Note_off_c, 0, 75, 117
1, 98071, Note_on_c, 0, 76, 114
1, 98266, Note_off_c, 0, 76, 114
1, 98294, Note_on_c, 0, 71, 108
1, 98462, Note_off_c, 0, 71, 108
1, 98469, Note_on_c, 0, 73, 108
1, 98646, Note_off_c, 0, 73, 108
1, 98672, Note_on_c, 0, 71, 112
1, 98860, Note_off_c, 0, 71, 112
1, 98903, Note_on_c, 0, 68, 106
1, 99105, Note_off_c, 0, 68, 106
1, 99136, Note_on_c, 0, 66, 102
1, 99325, Note_off_c, 0, 66, 102
1, 99346, Note_on_c, 0, 63, 94
1, 99469, Note_off_c, 0, 63, 94
1, 100393, Note_on_c, 0, 72, 105
1, 100494, Note_off_c, 0, 72, 105
1, 100587, Note_on_c, 0, 82, 110
1, 100699, Note_off_c, 0, 82, 110
1, 101208, Note_on_c, 0, 79, 112
1, 101355, Note_off_c, 0, 79, 112
1, 102073, Note_on_c, 0, 77, 121
1, 102236, Note_off_c, 0, 77, 121
1, 102260, Note_on_c, 0, 75, 116
1, 102397, Note_off_c, 0, 75, 116
1, 102486, Note_on_c, 0, 72, 99
1, 102572, Note_off_c, 0, 72, 99
1, 102710, Note_on_c, 0, 70, 112
1, 102912, Note_off_c, 0, 70, 112
1, 103070, Note_on_c, 0, 69, 108
1, 103226, Note_off_c, 0, 69, 108
1, 103241, Note_on_c, 0, 70, 112
1, 103469, Note_off_c, 0, 70, 112
1, 103484, Note_on_c, 0, 73, 117
1, 103881, Note_off_c, 0, 73, 117
1, 103923, Note_on_c, 0, 78, 121
1, 104146, Note_off_c, 0, 78, 121
1, 104159, Note_on_c, 0, 80, 108
1, 105130, Note_off_c, 0, 80, 108
1, 105602, Note_on_c, 0, 83, 124
1, 105873, Note_off_c, 0, 83, 124
1, 105999, Note_on_c, 0, 80, 119
1, 106184, Note_off_c, 0, 80, 119
1, 106213, Note_on_c, 0, 78, 116
1, 106371, Note_off_c, 0, 78, 116
1, 106406, Note_on_c, 0, 76, 116
1, 106615, Note_off_c, 0, 76, 116
1, 106641, Note_on_c, 0, 80, 117
1, 106814, Note_off_c, 0, 80, 117
1, 106835, Note_on_c, 0, 82, 109
1, 106994, Note_off_c, 0, 82, 109
1, 108347, Note_on_c, 0, 77, 117
1, 108506, Note_off_c, 0, 77, 117
1, 108523, Note_on_c, 0, 75, 116
1, 108707, Note_off_c, 0, 75, 116
1, 108800, Note_on_c, 0, 70, 96
1, 108875, Note_off_c, 0, 70, 96
1, 108990, Note_on_c, 0, 80, 110
1, 109171, Note_off_c, 0, 80, 110
1, 109206, Note_on_c, 0, 77, 115
1, 109358, Note_off_c, 0, 77, 115
1, 109391, Note_on_c, 0, 75, 114
1, 109593, Note_off_c, 0, 75, 114
1, 109638, Note_on_c, 0, 70, 108
1, 109720, Note_off_c, 0, 70, 108
1, 109783, Note_on_c, 0, 77, 117
1, 109983, Note_off_c, 0, 77, 117
1, 110009, Note_on_c, 0, 75, 117
1, 110181, Note_off_c, 0, 75, 117
1, 110224, Note_on_c, 0, 70, 112
1, 110413, Note_off_c, 0, 70, 112
1, 110437, Note_on_c, 0, 65, 105
1, 110552, Note_off_c, 0, 65, 105
1, 110646, Note_on_c, 0, 75, 116
1, 110848, Note_off_c, 0, 75, 116
1, 110888, Note_on_c, 0, 70, 111
1, 111037, Note_off_c, 0, 70, 111
1, 111067, Note_on_c, 0, 65, 105
1, 111353, Note_off_c, 0, 65, 105
1, 111459, Note_on_c, 0, 70, 112
1, 111676, Note_off_c, 0, 70, 112
1, 111755, Note_on_c, 0, 65, 110
1, 111895, Note_off_c, 0, 65, 110
1, 111946, Note_on_c, 0, 63, 106
1, 112165, Note_off_c, 0, 63, 106
1, 112182, Note_on_c, 0, 58, 101
1, 112258, Note_off_c, 0, 58, 101
1, 112337, Note_on_c, 0, 65, 113
1, 112769, Note_off_c, 0, 65, 113
1, 112791, Note_on_c, 0, 63, 110
1, 112892, Note_off_c, 0, 63, 110
1, 112906, Note_on_c, 0, 65, 110
1, 112999, Note_off_c, 0, 65, 110
1, 113016, Note_on_c, 0, 68, 114
1, 113107, Note_off_c, 0, 68, 114
1, 113124, Note_on_c, 0, 70, 111
1, 113756, Note_off_c, 0, 70, 111
1, 113783, Note_on_c, 0, 68, 106
1, 113909, Note_off_c, 0, 68, 106
1, 113943, Note_on_c, 0, 64, 93
1, 113997, Note_off_c, 0, 64, 93
1, 114135, Note_on_c, 0, 67, 111
1, 114283, Note_off_c, 0, 67, 111
1, 114302, Note_on_c, 0, 68, 109
1, 114648, Note_off_c, 0, 68, 109
1, 114716, Note_on_c, 0, 65, 91
1, 116614, Note_off_c, 0, 65, 91
1, 116960, Note_on_c, 0, 75, 111
1, 117042, Note_off_c, 0, 75, 111
1, 117063, Note_on_c, 0, 77, 107
1, 117154, Note_off_c, 0, 77, 107
1, 117164, Note_on_c, 0, 78, 93
1, 117230, Note_off_c, 0, 78, 93
1, 117275, Note_on_c, 0, 80, 109
1, 117343, Note_off_c, 0, 80, 109
1, 117357, Note_on_c, 0, 77, 112
1, 117439, Note_off_c, 0, 77, 112
1, 117472, Note_on_c, 0, 75, 109
1, 117522, Note_off_c, 0, 75, 109
1, 117543, Note_on_c, 0, 73, 111
1, 117653, Note_off_c, 0, 73, 111
1, 117668, Note_on_c, 0, 70, 107
1, 117775, Note_off_c, 0, 70, 107
1, 117801, Note_on_c, 0, 68, 103
1, 117871, Note_off_c, 0, 68, 103
1, 117881, Note_on_c, 0, 65, 100
1, 117947, Note_off_c, 0, 65, 100
1, 118027, Note_on_c, 0, 70, 109
1, 118081, Note_off_c, 0, 70, 109
1, 118088, Note_on_c, 0, 75, 94
1, 118142, Note_off_c, 0, 75, 94
1, 118184, Note_on_c, 0, 73, 119
1, 118243, Note_off_c, 0, 73, 119
1, 118267, Note_on_c, 0, 70, 97
1, 118370, Note_off_c, 0, 70, 97
1, 118379, Note_on_c, 0, 68, 97
1, 118458, Note_off_c, 0, 68, 97
1, 118487, Note_on_c, 0, 73, 104
1, 118590, Note_off_c, 0, 73, 104
1, 118609, Note_on_c, 0, 70, 112
1, 119074, Note_off_c, 0, 70, 112
1, 119084, Note_on_c, 0, 69, 104
1, 119117, Note_off_c, 0, 69, 104
1, 119132, Note_on_c, 0, 70, 110
1, 119355, Note_off_c, 0, 70, 110
1, 119360, Note_on_c, 0, 68, 106
1, 119423, Note_off_c, 0, 68, 106
1, 119475, Note_on_c, 0, 65, 103
1, 119583, Note_off_c, 0, 65, 103
1, 119583, Note_on_c, 0, 63, 104
1, 119676, Note_on_c, 0, 61, 100
1, 119676, Note_off_c, 0, 63, 104
1, 119755, Note_off_c, 0, 61, 100
1, 119774, Note_on_c, 0, 58, 102
1, 119862, Note_off_c, 0, 58, 102
1, 119866, Note_on_c, 0, 56, 101
1, 119954, Note_off_c, 0, 56, 101
1, 119958, Note_on_c, 0, 58, 101
1, 120042, Note_off_c, 0, 58, 101
1, 120042, Note_on_c, 0, 56, 97
1, 120338, Note_off_c, 0, 56, 97
1, 120338, End_track
0, 0, End_of_file
