0, 0, Header, 1, 1, 192
1, 0, Start_track
1, 0, Title_t, "Melody"
1, 0, Tempo, 201342
1, 0, Key_signature, -2, "major"
1, 0, Time_signature, 4, 2, 24, 8
1, 4678, Note_on_c, 0, 74, 114
1, 4771, Note_off_c, 0, 74, 114
1, 4786, Note_on_c, 0, 72, 112
1, 5350, Note_off_c, 0, 72, 112
1, 5427, Note_on_c, 0, 67, 111
1, 5565, Note_off_c, 0, 67, 111
1, 5570, Note_on_c, 0, 69, 109
1, 5908, Note_off_c, 0, 69, 109
1, 5950, Note_on_c, 0, 67, 109
1, 6045, Note_off_c, 0, 67, 109
1, 6058, Note_on_c, 0, 69, 111
1, 6143, Note_off_c, 0, 69, 111
1, 6162, Note_on_c, 0, 67, 102
1, 6269, Note_off_c, 0, 67, 102
1, 6289, Note_on_c, 0, 65, 104
1, 6360, Note_off_c, 0, 65, 104
1, 6369, Note_on_c, 0, 64, 107
1, 6915, Note_off_c, 0, 64, 107
1, 6932, Note_on_c, 0, 65, 111
1, 7095, Note_off_c, 0, 65, 111
1, 7135, Note_on_c, 0, 62, 107
1, 7210, Note_off_c, 0, 62, 107
1, 7225, Note_on_c, 0, 63, 107
1, 7328, Note_off_c, 0, 63, 107
1, 7361, Note_on_c, 0, 60, 100
1, 8589, Note_off_c, 0, 60, 100
1, 8673, Note_on_c, 0, 62, 112
1, 8713, Note_off_c, 0, 62, 112
1, 8728, Note_on_c, 0, 63, 105
1, 8786, Note_off_c, 0, 63, 105
1, 8821, Note_on_c, 0, 65, 111
1, 8908, Note_off_c, 0, 65, 111
1, 8926, Note_on_c, 0, 62, 97
1, 9028, Note_off_c, 0, 62, 97
1, 9048, Note_on_c, 0, 58, 101
1, 9106, Note_off_c, 0, 58, 101
1, 9119, Note_on_c, 0, 57, 106
1, 9447, Note_off_c, 0, 57, 106
1, 9483, Note_on_c, 0, 58, 101
1, 9582, Note_off_c, 0, 58, 101
1, 9591, Note_on_c, 0, 55, 106
1, 9921, Note_off_c, 0, 55, 106
1, 9935, Note_on_c, 0, 57, 103
1, 10020, Note_off_c, 0, 57, 103
1, 10080, Note_on_c, 0, 57, 108
1, 10136, Note_off_c, 0, 57, 108
1, 10153, Note_on_c, 0, 56, 97
1, 10228, Note_off_c, 0, 56, 97
1, 10240, Note_on_c, 0, 58, 100
1, 10314, Note_off_c, 0, 58, 100
1, 10323, Note_on_c, 0, 61, 100
1, 10402, Note_off_c, 0, 61, 100
1, 10442, Note_on_c, 0, 63, 109
1, 10510, Note_off_c, 0, 63, 109
1, 10515, Note_on_c, 0, 65, 113
1, 10579, Note_off_c, 0, 65, 113
1, 10604, Note_on_c, 0, 64, 110
1, 10689, Note_off_c, 0, 64, 110
1, 10714, Note_on_c, 0, 63, 108
1, 10784, Note_off_c, 0, 63, 108
1, 10816, Note_on_c, 0, 58, 95
1, 10899, Note_off_c, 0, 58, 95
1, 10941, Note_on_c, 0, 63, 103
1, 11001, Note_off_c, 0, 63, 103
1, 11032, Note_on_c, 0, 65, 113
1, 11109, Note_off_c, 0, 65, 113
1, 11126, Note_on_c, 0, 67, 109
1, 11194, Note_off_c, 0, 67, 109
1, 11229, Note_on_c, 0, 69, 119
1, 11324, Note_off_c, 0, 69, 119
1, 11338, Note_on_c, 0, 70, 106
1, 11398, Note_off_c, 0, 70, 106
1, 11411, Note_on_c, 0, 72, 114
1, 11508, Note_off_c, 0, 72, 114
1, 11515, Note_on_c, 0, 74, 118
1, 11583, Note_off_c, 0, 74, 118
1, 11614, Note_on_c, 0, 77, 127
1, 11682, Note_off_c, 0, 77, 127
1, 11695, Note_on_c, 0, 76, 112
1, 11767, Note_off_c, 0, 76, 112
1, 12882, Note_on_c, 0, 77, 96
1, 12970, Note_off_c, 0, 77, 96
1, 12972, Note_on_c, 0, 81, 126
1, 13045, Note_off_c, 0, 81, 126
1, 13054, Note_on_c, 0, 79, 119
1, 13116, Note_off_c, 0, 79, 119
1, 13141, Note_on_c, 0, 77, 123
1, 13213, Note_off_c, 0, 77, 123
1, 13245, Note_on_c, 0, 76, 122
1, 13330, Note_off_c, 0, 76, 122
1, 13336, Note_on_c, 0, 74, 117
1, 13417, Note_off_c, 0, 74, 117
1, 13448, Note_on_c, 0, 72, 116
1, 14045, Note_off_c, 0, 72, 116
1, 14073, Note_on_c, 0, 79, 114
1, 14143, Note_off_c, 0, 79, 114
1, 14284, Note_on_c, 0, 79, 121
1, 14376, Note_off_c, 0, 79, 121
1, 14382, Note_on_c, 0, 80, 117
1, 14603, Note_off_c, 0, 80, 117
1, 14651, Note_on_c, 0, 77, 124
1, 14740, Note_off_c, 0, 77, 124
1, 14761, Note_on_c, 0, 75, 109
1, 14833, Note_off_c, 0, 75, 109
1, 14862, Note_on_c, 0, 73, 115
1, 14941, Note_off_c, 0, 73, 115
1, 14966, Note_on_c, 0, 70, 116
1, 15047, Note_off_c, 0, 70, 116
1, 15066, Note_on_c, 0, 68, 109
1, 15153, Note_off_c, 0, 68, 109
1, 15187, Note_on_c, 0, 65, 102
1, 15231, Note_off_c, 0, 65, 102
1, 15239, Note_on_c, 0, 70, 116
1, 15311, Note_off_c, 0, 70, 116
1, 15347, Note_on_c, 0, 69, 113
1, 15434, Note_off_c, 0, 69, 113
1, 15450, Note_on_c, 0, 68, 106
1, 15512, Note_off_c, 0, 68, 106
1, 15519, Note_on_c, 0, 70, 113
1, 15589, Note_off_c, 0, 70, 113
1, 15610, Note_on_c, 0, 71, 116
1, 15935, Note_off_c, 0, 71, 116
1, 15948, Note_on_c, 0, 73, 121
1, 15996, Note_off_c, 0, 73, 121
1, 16015, Note_on_c, 0, 74, 118
1, 16115, Note_off_c, 0, 74, 118
1, 17195, Note_on_c, 0, 77, 119
1, 17274, Note_off_c, 0, 77, 119
1, 17308, Note_on_c, 0, 82, 123
1, 17366, Note_off_c, 0, 82, 123
1, 17387, Note_on_c, 0, 81, 122
1, 17474, Note_off_c, 0, 81, 122
1, 17505, Note_on_c, 0, 79, 118
1, 17571, Note_off_c, 0, 79, 118
1, 17601, Note_on_c, 0, 77, 110
1, 17667, Note_off_c, 0, 77, 110
1, 17679, Note_on_c, 0, 76, 114
1, 17766, Note_off_c, 0, 76, 114
1, 17775, Note_on_c, 0, 75, 109
1, 17829, Note_off_c, 0, 75, 109
1, 17864, Note_on_c, 0, 79, 119
1, 17955, Note_off_c, 0, 79, 119
1, 17978, Note_on_c, 0, 77, 113
1, 18024, Note_off_c, 0, 77, 113
1, 18060, Note_on_c, 0, 74, 117
1, 18120, Note_off_c, 0, 74, 117
1, 18162, Note_on_c, 0, 72, 108
1, 18239, Note_off_c, 0, 72, 108
1, 18252, Note_on_c, 0, 77, 118
1, 18345, Note_off_c, 0, 77, 118
1, 18370, Note_on_c, 0, 77, 114
1, 18484, Note_off_c, 0, 77, 114
1, 18519, Note_on_c, 0, 75, 116
1, 18847, Note_off_c, 0, 75, 116
1, 18913, Note_on_c, 0, 69, 82
1, 18966, Note_off_c, 0, 69, 82
1, 18990, Note_on_c, 0, 76, 115
1, 19095, Note_off_c, 0, 76, 115
1, 20132, Note_on_c, 0, 79, 113
1, 20211, Note_off_c, 0, 79, 113
1, 20242, Note_on_c, 0, 82, 121
1, 20329, Note_off_c, 0, 82, 121
1, 20437, Note_on_c, 0, 82, 93
1, 20542, Note_off_c, 0, 82, 93
1, 20555, Note_on_c, 0, 85, 120
1, 20869, Note_off_c, 0, 85, 120
1, 20913, Note_on_c, 0, 82, 119
1, 20985, Note_off_c, 0, 82, 119
1, 21012, Note_on_c, 0, 80, 107
1, 21062, Note_off_c, 0, 80, 107
1, 21082, Note_on_c, 0, 78, 106
1, 21181, Note_off_c, 0, 78, 106
1, 21197, Note_on_c, 0, 75, 109
1, 21268, Note_off_c, 0, 75, 109
1, 21276, Note_on_c, 0, 73, 112
1, 21370, Note_off_c, 0, 73, 112
1, 21384, Note_on_c, 0, 70, 112
1, 21454, Note_off_c, 0, 70, 112
1, 21486, Note_on_c, 0, 68, 104
1, 21563, Note_off_c, 0, 68, 104
1, 21586, Note_on_c, 0, 65, 95
1, 21644, Note_off_c, 0, 65, 95
1, 21656, Note_on_c, 0, 70, 109
1, 21741, Note_off_c, 0, 70, 109
1, 21755, Note_on_c, 0, 69, 110
1, 21811, Note_off_c, 0, 69, 110
1, 21824, Note_on_c, 0, 68, 107
1, 21914, Note_off_c, 0, 68, 107
1, 21924, Note_on_c, 0, 70, 113
1, 22005, Note_off_c, 0, 70, 113
1, 22017, Note_on_c, 0, 67, 94
1, 22107, Note_off_c, 0, 67, 94
1, 22113, Note_on_c, 0, 73, 113
1, 22181, Note_off_c, 0, 73, 113
1, 22200, Note_on_c, 0, 73, 109
1, 22272, Note_off_c, 0, 73, 109
1, 22305, Note_on_c, 0, 72, 114
1, 22380, Note_off_c, 0, 72, 114
1, 22394, Note_on_c, 0, 74, 114
1, 22469, Note_off_c, 0, 74, 114
1, 22496, Note_on_c, 0, 77, 115
1, 22568, Note_off_c, 0, 77, 115
1, 22585, Note_on_c, 0, 83, 113
1, 22677, Note_off_c, 0, 83, 113
1, 22689, Note_on_c, 0, 84, 109
1, 22721, Note_off_c, 0, 84, 109
1, 22733, Note_on_c, 0, 85, 114
1, 22812, Note_off_c, 0, 85, 114
1, 22831, Note_on_c, 0, 84, 115
1, 23531, Note_off_c, 0, 84, 115
1, 23589, Note_on_c, 0, 81, 112
1, 23645, Note_off_c, 0, 81, 112
1, 23680, Note_on_c, 0, 84, 112
1, 23940, Note_off_c, 0, 84, 112
1, 23951, Note_on_c, 0, 83, 114
1, 24021, Note_off_c, 0, 83, 114
1, 24032, Note_on_c, 0, 84, 113
1, 24283, Note_off_c, 0, 84, 113
1, 24294, Note_on_c, 0, 82, 103
1, 24338, Note_off_c, 0, 82, 103
1, 24345, Note_on_c, 0, 81, 113
1, 24708, Note_off_c, 0, 81, 113
1, 24719, Note_on_c, 0, 85, 108
1, 24761, Note_off_c, 0, 85, 108
1, 25455, Note_on_c, 0, 79, 110
1, 25536, Note_off_c, 0, 79, 110
1, 25555, Note_on_c, 0, 82, 117
1, 25619, Note_off_c, 0, 82, 117
1, 25636, Note_on_c, 0, 81, 115
1, 25721, Note_off_c, 0, 81, 115
1, 25742, Note_on_c, 0, 79, 115
1, 25810, Note_off_c, 0, 79, 115
1, 25837, Note_on_c, 0, 77, 115
1, 25893, Note_off_c, 0, 77, 115
1, 25935, Note_on_c, 0, 76, 114
1, 25999, Note_off_c, 0, 76, 114
1, 26014, Note_on_c, 0, 75, 112
1, 26095, Note_off_c, 0, 75, 112
1, 26124, Note_on_c, 0, 79, 114
1, 26194, Note_off_c, 0, 79, 114
1, 26215, Note_on_c, 0, 77, 102
1, 26259, Note_off_c, 0, 77, 102
1, 26292, Note_on_c, 0, 74, 114
1, 26402, Note_off_c, 0, 74, 114
1, 26415, Note_on_c, 0, 72, 106
1, 26461, Note_off_c, 0, 72, 106
1, 26507, Note_on_c, 0, 77, 116
1, 26579, Note_off_c, 0, 77, 116
1, 26600, Note_on_c, 0, 75, 111
1, 26672, Note_off_c, 0, 75, 111
1, 26718, Note_on_c, 0, 68, 99
1, 26772, Note_off_c, 0, 68, 99
1, 26785, Note_on_c, 0, 70, 109
1, 26864, Note_off_c, 0, 70, 109
1, 26904, Note_on_c, 0, 73, 113
1, 26997, Note_off_c, 0, 73, 113
1, 27002, Note_on_c, 0, 71, 110
1, 27058, Note_off_c, 0, 71, 110
1, 27117, Note_on_c, 0, 64, 98
1, 27173, Note_off_c, 0, 64, 98
1, 27193, Note_on_c, 0, 69, 110
1, 27253, Note_off_c, 0, 69, 110
1, 27272, Note_on_c, 0, 71, 108
1, 27345, Note_off_c, 0, 71, 108
1, 27354, Note_on_c, 0, 73, 108
1, 27429, Note_off_c, 0, 73, 108
1, 27467, Note_on_c, 0, 78, 111
1, 27511, Note_off_c, 0, 78, 111
1, 27538, Note_on_c, 0, 73, 104
1, 27576, Note_off_c, 0, 73, 104
1, 27587, Note_on_c, 0, 74, 115
1, 27655, Note_off_c, 0, 74, 115
1, 27693, Note_on_c, 0, 76, 112
1, 27758, Note_off_c, 0, 76, 112
1, 27775, Note_on_c, 0, 74, 111
1, 27824, Note_off_c, 0, 74, 111
1, 27858, Note_on_c, 0, 71, 101
1, 27945, Note_off_c, 0, 71, 101
1, 27973, Note_on_c, 0, 74, 114
1, 28039, Note_off_c, 0, 74, 114
1, 28056, Note_on_c, 0, 71, 104
1, 28089, Note_off_c, 0, 71, 104
1, 28113, Note_on_c, 0, 69, 103
1, 28187, Note_off_c, 0, 69, 103
1, 28225, Note_on_c, 0, 72, 106
1, 28291, Note_off_c, 0, 72, 106
1, 28300, Note_on_c, 0, 70, 106
1, 28348, Note_off_c, 0, 70, 106
1, 28371, Note_on_c, 0, 67, 104
1, 28458, Note_off_c, 0, 67, 104
1, 28558, Note_on_c, 0, 70, 109
1, 28596, Note_off_c, 0, 70, 109
1, 28610, Note_on_c, 0, 69, 97
1, 28648, Note_off_c, 0, 69, 97
1, 29224, Note_on_c, 0, 74, 109
1, 29309, Note_off_c, 0, 74, 109
1, 29324, Note_on_c, 0, 73, 110
1, 29372, Note_off_c, 0, 73, 110
1, 29389, Note_on_c, 0, 75, 112
1, 29482, Note_off_c, 0, 75, 112
1, 29514, Note_on_c, 0, 78, 116
1, 29589, Note_off_c, 0, 78, 116
1, 29605, Note_on_c, 0, 76, 113
1, 29657, Note_off_c, 0, 76, 113
1, 29703, Note_on_c, 0, 73, 110
1, 29788, Note_off_c, 0, 73, 110
1, 29795, Note_on_c, 0, 71, 95
1, 29846, Note_off_c, 0, 71, 95
1, 29878, Note_on_c, 0, 76, 117
1, 29955, Note_off_c, 0, 76, 117
1, 29978, Note_on_c, 0, 77, 117
1, 30057, Note_off_c, 0, 77, 117
1, 30084, Note_on_c, 0, 79, 106
1, 30132, Note_off_c, 0, 79, 106
1, 30134, Note_on_c, 0, 78, 108
1, 30200, Note_off_c, 0, 78, 108
1, 30221, Note_on_c, 0, 74, 104
1, 30271, Note_off_c, 0, 74, 104
1, 31226, Note_on_c, 0, 74, 111
1, 31284, Note_off_c, 0, 74, 111
1, 31313, Note_on_c, 0, 74, 114
1, 31383, Note_off_c, 0, 74, 114
1, 31423, Note_on_c, 0, 74, 115
1, 31788, Note_off_c, 0, 74, 115
1, 31846, Note_on_c, 0, 72, 106
1, 31906, Note_off_c, 0, 72, 106
1, 32028, Note_on_c, 0, 76, 105
1, 32105, Note_off_c, 0, 76, 105
1, 32217, Note_on_c, 0, 74, 103
1, 32989, Note_off_c, 0, 74, 103
1, 34143, Note_on_c, 0, 77, 110
1, 34220, Note_off_c, 0, 77, 110
1, 34249, Note_on_c, 0, 82, 106
1, 34301, Note_off_c, 0, 82, 106
1, 34326, Note_on_c, 0, 80, 107
1, 34366, Note_off_c, 0, 80, 107
1, 34385, Note_on_c, 0, 79, 91
1, 34435, Note_off_c, 0, 79, 91
1, 34441, Note_on_c, 0, 79, 104
1, 34528, Note_off_c, 0, 79, 104
1, 34540, Note_on_c, 0, 77, 110
1, 34580, Note_off_c, 0, 77, 110
1, 34614, Note_on_c, 0, 76, 112
1, 34650, Note_off_c, 0, 76, 112
1, 34679, Note_on_c, 0, 75, 112
1, 34752, Note_off_c, 0, 75, 112
1, 34802, Note_on_c, 0, 78, 114
1, 34856, Note_off_c, 0, 78, 114
1, 34887, Note_on_c, 0, 76, 117
1, 34955, Note_off_c, 0, 76, 117
1, 34982, Note_on_c, 0, 73, 112
1, 35061, Note_off_c, 0, 73, 112
1, 35076, Note_on_c, 0, 71, 98
1, 35134, Note_off_c, 0, 71, 98
1, 35231, Note_on_c, 0, 76, 115
1, 35297, Note_off_c, 0, 76, 115
1, 35302, Note_on_c, 0, 77, 118
1, 35375, Note_off_c, 0, 77, 118
1, 35384, Note_on_c, 0, 76, 93
1, 35426, Note_off_c, 0, 76, 93
1, 35449, Note_on_c, 0, 75, 109
1, 35538, Note_off_c, 0, 75, 109
1, 35575, Note_on_c, 0, 79, 111
1, 35658, Note_off_c, 0, 79, 111
1, 35673, Note_on_c, 0, 77, 116
1, 35725, Note_off_c, 0, 77, 116
1, 35760, Note_on_c, 0, 77, 114
1, 35824, Note_off_c, 0, 77, 114
1, 35874, Note_on_c, 0, 72, 103
1, 35916, Note_off_c, 0, 72, 103
1, 35949, Note_on_c, 0, 77, 117
1, 36027, Note_off_c, 0, 77, 117
1, 36031, Note_on_c, 0, 75, 109
1, 36105, Note_off_c, 0, 75, 109
1, 36126, Note_on_c, 0, 73, 107
1, 36203, Note_off_c, 0, 73, 107
1, 36210, Note_on_c, 0, 74, 114
1, 36291, Note_off_c, 0, 74, 114
1, 36326, Note_on_c, 0, 70, 112
1, 36386, Note_off_c, 0, 70, 112
1, 36411, Note_on_c, 0, 67, 98
1, 36463, Note_off_c, 0, 67, 98
1, 36466, Note_on_c, 0, 68, 96
1, 36513, Note_off_c, 0, 68, 96
1, 36529, Note_on_c, 0, 72, 103
1, 36562, Note_off_c, 0, 72, 103
1, 36579, Note_on_c, 0, 69, 110
1, 36662, Note_off_c, 0, 69, 110
1, 36736, Note_on_c, 0, 65, 101
1, 36786, Note_off_c, 0, 65, 101
1, 36803, Note_on_c, 0, 70, 110
1, 37034, Note_off_c, 0, 70, 110
1, 37717, Note_on_c, 0, 77, 106
1, 37814, Note_off_c, 0, 77, 106
1, 37886, Note_on_c, 0, 82, 120
1, 37983, Note_off_c, 0, 82, 120
1, 37998, Note_on_c, 0, 81, 116
1, 38068, Note_off_c, 0, 81, 116
1, 38078, Note_on_c, 0, 80, 112
1, 38155, Note_off_c, 0, 80, 112
1, 38164, Note_on_c, 0, 79, 109
1, 38201, Note_off_c, 0, 79, 109
1, 38212, Note_on_c, 0, 78, 116
1, 38515, Note_off_c, 0, 78, 116
1, 39212, Note_on_c, 0, 78, 113
1, 39358, Note_off_c, 0, 78, 113
1, 39404, Note_on_c, 0, 81, 122
1, 39538, Note_off_c, 0, 81, 122
1, 39545, Note_on_c, 0, 80, 113
1, 39659, Note_off_c, 0, 80, 113
1, 39694, Note_on_c, 0, 81, 117
1, 39824, Note_off_c, 0, 81, 117
1, 39848, Note_on_c, 0, 78, 115
1, 40137, Note_off_c, 0, 78, 115
1, 40776, Note_on_c, 0, 74, 110
1, 40855, Note_off_c, 0, 74, 110
1, 40943, Note_on_c, 0, 81, 100
1, 41037, Note_off_c, 0, 81, 100
1, 41044, Note_on_c, 0, 85, 108
1, 41304, Note_off_c, 0, 85, 108
1, 41315, Note_on_c, 0, 82, 107
1, 41431, Note_off_c, 0, 82, 107
1, 41445, Note_on_c, 0, 80, 100
1, 41507, Note_off_c, 0, 80, 100
1, 41526, Note_on_c, 0, 78, 112
1, 41627, Note_off_c, 0, 78, 112
1, 42073, Note_on_c, 0, 77, 115
1, 42150, Note_off_c, 0, 77, 115
1, 42159, Note_on_c, 0, 79, 111
1, 42227, Note_off_c, 0, 79, 111
1, 42239, Note_on_c, 0, 81, 117
1, 42318, Note_off_c, 0, 81, 117
1, 42351, Note_on_c, 0, 79, 114
1, 42414, Note_off_c, 0, 79, 114
1, 42431, Note_on_c, 0, 77, 106
1, 42502, Note_off_c, 0, 77, 106
1, 42518, Note_on_c, 0, 76, 111
1, 42578, Note_off_c, 0, 76, 111
1, 42589, Note_on_c, 0, 75, 108
1, 42674, Note_off_c, 0, 75, 108
1, 42693, Note_on_c, 0, 79, 112
1, 42769, Note_off_c, 0, 79, 112
1, 42792, Note_on_c, 0, 77, 109
1, 42858, Note_off_c, 0, 77, 109
1, 42875, Note_on_c, 0, 74, 115
1, 42949, Note_off_c, 0, 74, 115
1, 42965, Note_on_c, 0, 72, 104
1, 43035, Note_off_c, 0, 72, 104
1, 43074, Note_on_c, 0, 77, 112
1, 43132, Note_off_c, 0, 77, 112
1, 43145, Note_on_c, 0, 75, 113
1, 43205, Note_off_c, 0, 75, 113
1, 43217, Note_on_c, 0, 74, 101
1, 43256, Note_off_c, 0, 74, 101
1, 43259, Note_on_c, 0, 73, 113
1, 43342, Note_off_c, 0, 73, 113
1, 43356, Note_on_c, 0, 74, 113
1, 43491, Note_off_c, 0, 74, 113
1, 43515, Note_on_c, 0, 70, 105
1, 43840, Note_off_c, 0, 70, 105
1, 43853, Note_on_c, 0, 69, 104
1, 43947, Note_off_c, 0, 69, 104
1, 43948, Note_on_c, 0, 68, 107
1, 44172, Note_off_c, 0, 68, 107
1, 44194, Note_on_c, 0, 67, 103
1, 44261, Note_off_c, 0, 67, 103
1, 44290, Note_on_c, 0, 65, 103
1, 44352, Note_off_c, 0, 65, 103
1, 44378, Note_on_c, 0, 63, 101
1, 44445, Note_off_c, 0, 63, 101
1, 44460, Note_on_c, 0, 62, 99
1, 44559, Note_off_c, 0, 62, 99
1, 44581, Note_on_c, 0, 65, 106
1, 44639, Note_off_c, 0, 65, 106
1, 44679, Note_on_c, 0, 63, 102
1, 44767, Note_off_c, 0, 63, 102
1, 44794, Note_on_c, 0, 59, 91
1, 44845, Note_off_c, 0, 59, 91
1, 44864, Note_on_c, 0, 63, 101
1, 44931, Note_off_c, 0, 63, 101
1, 44958, Note_on_c, 0, 65, 103
1, 45002, Note_off_c, 0, 65, 103
1, 45037, Note_on_c, 0, 67, 104
1, 45126, Note_off_c, 0, 67, 104
1, 45140, Note_on_c, 0, 69, 107
1, 45214, Note_off_c, 0, 69, 107
1, 45216, Note_on_c, 0, 70, 112
1, 45305, Note_off_c, 0, 70, 112
1, 45325, Note_on_c, 0, 72, 113
1, 45388, Note_off_c, 0, 72, 113
1, 45405, Note_on_c, 0, 74, 112
1, 45494, Note_off_c, 0, 74, 112
1, 45504, Note_on_c, 0, 79, 111
1, 45562, Note_off_c, 0, 79, 111
1, 46521, Note_on_c, 0, 81, 118
1, 46587, Note_off_c, 0, 81, 118
1, 46606, Note_on_c, 0, 81, 117
1, 46677, Note_off_c, 0, 81, 117
1, 46692, Note_on_c, 0, 81, 109
1, 46768, Note_off_c, 0, 81, 109
1, 46806, Note_on_c, 0, 84, 107
1, 46880, Note_off_c, 0, 84, 107
1, 46908, Note_on_c, 0, 79, 104
1, 46982, Note_off_c, 0, 79, 104
1, 47019, Note_on_c, 0, 82, 109
1, 47088, Note_off_c, 0, 82, 109
1, 47099, Note_on_c, 0, 79, 106
1, 47179, Note_off_c, 0, 79, 106
1, 47204, Note_on_c, 0, 81, 108
1, 47271, Note_off_c, 0, 81, 108
1, 47280, Note_on_c, 0, 80, 100
1, 47360, Note_off_c, 0, 80, 100
1, 47384, Note_on_c, 0, 77, 116
1, 47464, Note_off_c, 0, 77, 116
1, 47483, Note_on_c, 0, 75, 105
1, 47552, Note_off_c, 0, 75, 105
1, 47581, Note_on_c, 0, 70, 99
1, 47622, Note_off_c, 0, 70, 99
1, 47642, Note_on_c, 0, 77, 113
1, 47707, Note_off_c, 0, 77, 113
1, 47715, Note_on_c, 0, 75, 112
1, 47793, Note_off_c, 0, 75, 112
1, 47815, Note_on_c, 0, 76, 117
1, 47893, Note_off_c, 0, 76, 117
1, 47934, Note_on_c, 0, 73, 113
1, 48012, Note_off_c, 0, 73, 113
1, 48029, Note_on_c, 0, 71, 99
1, 48073, Note_off_c, 0, 71, 99
1, 48121, Note_on_c, 0, 76, 116
1, 48202, Note_off_c, 0, 76, 116
1, 48208, Note_on_c, 0, 77, 117
1, 48273, Note_off_c, 0, 77, 117
1, 48277, Note_on_c, 0, 76, 111
1, 48347, Note_off_c, 0, 76, 111
1, 48353, Note_on_c, 0, 75, 110
1, 48458, Note_off_c, 0, 75, 110
1, 48487, Note_on_c, 0, 78, 116
1, 48542, Note_off_c, 0, 78, 116
1, 48559, Note_on_c, 0, 76, 113
1, 48635, Note_off_c, 0, 76, 113
1, 48658, Note_on_c, 0, 73, 111
1, 48752, Note_off_c, 0, 73, 111
1, 48769, Note_on_c, 0, 71, 113
1, 48809, Note_off_c, 0, 71, 113
1, 48846, Note_on_c, 0, 69, 101
1, 48905, Note_off_c, 0, 69, 101
1, 48927, Note_on_c, 0, 76, 107
1, 48976, Note_off_c, 0, 76, 107
1, 48988, Note_on_c, 0, 73, 106
1, 49029, Note_off_c, 0, 73, 106
1, 49049, Note_on_c, 0, 71, 112
1, 49109, Note_off_c, 0, 71, 112
1, 49121, Note_on_c, 0, 73, 110
1, 49176, Note_off_c, 0, 73, 110
1, 49209, Note_on_c, 0, 69, 110
1, 49280, Note_off_c, 0, 69, 110
1, 49288, Note_on_c, 0, 66, 104
1, 49366, Note_off_c, 0, 66, 104
1, 49407, Note_on_c, 0, 64, 90
1, 49462, Note_off_c, 0, 64, 90
1, 49476, Note_on_c, 0, 70, 113
1, 49565, Note_off_c, 0, 70, 113
1, 49589, Note_on_c, 0, 72, 107
1, 49642, Note_off_c, 0, 72, 107
1, 49658, Note_on_c, 0, 74, 110
1, 49727, Note_off_c, 0, 74, 110
1, 49765, Note_on_c, 0, 79, 103
1, 49846, Note_off_c, 0, 79, 103
1, 50289, Note_on_c, 0, 77, 117
1, 50357, Note_off_c, 0, 77, 117
1, 50363, Note_on_c, 0, 76, 113
1, 50415, Note_off_c, 0, 76, 113
1, 50437, Note_on_c, 0, 75, 110
1, 50526, Note_off_c, 0, 75, 110
1, 50566, Note_on_c, 0, 79, 101
1, 50637, Note_off_c, 0, 79, 101
1, 50659, Note_on_c, 0, 74, 113
1, 50704, Note_off_c, 0, 74, 113
1, 50733, Note_on_c, 0, 74, 111
1, 50785, Note_off_c, 0, 74, 111
1, 50811, Note_on_c, 0, 72, 102
1, 50877, Note_off_c, 0, 72, 102
1, 50914, Note_on_c, 0, 77, 114
1, 50983, Note_off_c, 0, 77, 114
1, 50989, Note_on_c, 0, 75, 112
1, 51037, Note_off_c, 0, 75, 112
1, 51110, Note_on_c, 0, 68, 99
1, 51177, Note_off_c, 0, 68, 99
1, 51185, Note_on_c, 0, 70, 105
1, 51252, Note_off_c, 0, 70, 105
1, 51276, Note_on_c, 0, 73, 113
1, 51347, Note_off_c, 0, 73, 113
1, 51366, Note_on_c, 0, 71, 109
1, 51457, Note_off_c, 0, 71, 109
1, 51477, Note_on_c, 0, 64, 102
1, 51540, Note_off_c, 0, 64, 102
1, 51559, Note_on_c, 0, 69, 109
1, 51635, Note_off_c, 0, 69, 109
1, 51664, Note_on_c, 0, 71, 99
1, 51709, Note_off_c, 0, 71, 99
1, 51711, Note_on_c, 0, 73, 115
1, 51840, Note_off_c, 0, 73, 115
1, 52689, Note_on_c, 0, 77, 102
1, 52760, Note_off_c, 0, 77, 102
1, 52769, Note_on_c, 0, 72, 105
1, 52831, Note_off_c, 0, 72, 105
1, 52837, Note_on_c, 0, 73, 115
1, 52921, Note_off_c, 0, 73, 115
1, 52925, Note_on_c, 0, 74, 102
1, 52973, Note_off_c, 0, 74, 102
1, 53004, Note_on_c, 0, 68, 106
1, 53095, Note_off_c, 0, 68, 106
1, 53107, Note_on_c, 0, 70, 95
1, 53152, Note_off_c, 0, 70, 95
1, 53170, Note_on_c, 0, 73, 114
1, 53251, Note_off_c, 0, 73, 114
1, 53262, Note_on_c, 0, 71, 110
1, 53322, Note_off_c, 0, 71, 110
1, 53363, Note_on_c, 0, 68, 99
1, 53411, Note_off_c, 0, 68, 99
1, 53415, Note_on_c, 0, 69, 111
1, 53510, Note_off_c, 0, 69, 111
1, 53525, Note_on_c, 0, 71, 112
1, 53596, Note_off_c, 0, 71, 112
1, 53601, Note_on_c, 0, 73, 107
1, 53643, Note_off_c, 0, 73, 107
1, 53672, Note_on_c, 0, 69, 109
1, 53753, Note_off_c, 0, 69, 109
1, 53772, Note_on_c, 0, 66, 100
1, 53885, Note_off_c, 0, 66, 100
1, 53900, Note_on_c, 0, 65, 95
1, 53949, Note_off_c, 0, 65, 95
1, 53955, Note_on_c, 0, 70, 112
1, 54044, Note_off_c, 0, 70, 112
1, 54070, Note_on_c, 0, 69, 108
1, 54135, Note_off_c, 0, 69, 108
1, 54141, Note_on_c, 0, 68, 107
1, 54212, Note_off_c, 0, 68, 107
1, 54240, Note_on_c, 0, 70, 111
1, 54291, Note_off_c, 0, 70, 111
1, 54300, Note_on_c, 0, 67, 106
1, 54399, Note_off_c, 0, 67, 106
1, 54425, Note_on_c, 0, 68, 106
1, 54485, Note_off_c, 0, 68, 106
1, 54505, Note_on_c, 0, 69, 112
1, 54583, Note_off_c, 0, 69, 112
1, 54628, Note_on_c, 0, 64, 103
1, 54702, Note_off_c, 0, 64, 103
1, 54807, Note_on_c, 0, 65, 107
1, 54883, Note_off_c, 0, 65, 107
1, 54900, Note_on_c, 0, 63, 100
1, 54955, Note_off_c, 0, 63, 100
1, 54978, Note_on_c, 0, 59, 95
1, 55038, Note_off_c, 0, 59, 95
1, 55073, Note_on_c, 0, 63, 100
1, 55167, Note_off_c, 0, 63, 100
1, 55233, Note_on_c, 0, 62, 89
1, 55292, Note_off_c, 0, 62, 89
1, 55310, Note_on_c, 0, 64, 106
1, 55376, Note_off_c, 0, 64, 106
1, 55405, Note_on_c, 0, 63, 86
1, 55470, Note_off_c, 0, 63, 86
1, 55482, Note_on_c, 0, 65, 109
1, 55627, Note_off_c, 0, 65, 109
1, 56248, Note_on_c, 0, 73, 113
1, 56332, Note_off_c, 0, 73, 113
1, 56373, Note_on_c, 0, 66, 95
1, 56422, Note_off_c, 0, 66, 95
1, 56449, Note_on_c, 0, 72, 107
1, 56794, Note_off_c, 0, 72, 107
1, 56810, Note_on_c, 0, 73, 10
1, 56904, Note_off_c, 0, 73, 10
1, 56962, Note_on_c, 0, 70, 100
1, 57011, Note_off_c, 0, 70, 100
1, 57020, Note_on_c, 0, 72, 120
1, 57320, Note_off_c, 0, 72, 120
1, 57385, Note_on_c, 0, 70, 119
1, 57462, Note_off_c, 0, 70, 119
1, 57513, Note_on_c, 0, 66, 100
1, 57577, Note_off_c, 0, 66, 100
1, 57577, Note_on_c, 0, 67, 115
1, 57904, Note_off_c, 0, 67, 115
1, 57977, Note_on_c, 0, 70, 119
1, 58076, Note_off_c, 0, 70, 119
1, 58159, Note_on_c, 0, 67, 113
1, 58433, Note_off_c, 0, 67, 113
1, 58518, Note_on_c, 0, 70, 121
1, 58595, Note_off_c, 0, 70, 121
1, 58625, Note_on_c, 0, 66, 106
1, 58681, Note_off_c, 0, 66, 106
1, 58696, Note_on_c, 0, 64, 107
1, 58833, Note_off_c, 0, 64, 107
1, 58850, Note_on_c, 0, 62, 106
1, 59565, Note_off_c, 0, 62, 106
1, 59565, End_track
0, 0, End_of_file
