0, 0, Header, 1, 1, 192
1, 0, Start_track
1, 0, Title_t, "Melody"
1, 0, Tempo, 175953
1, 0, Key_signature, -2, "major"
1, 0, Time_signature, 4, 2, 24, 8
1, 3885, Note_on_c, 0, 82, 97
1, 3995, Note_off_c, 0, 82, 97
1, 4018, Note_on_c, 0, 80, 96
1, 4093, Note_off_c, 0, 80, 96
1, 4131, Note_on_c, 0, 78, 107
1, 4177, Note_off_c, 0, 78, 107
1, 4196, Note_on_c, 0, 77, 114
1, 4231, Note_off_c, 0, 77, 114
1, 4242, Note_on_c, 0, 76, 119
1, 4318, Note_off_c, 0, 76, 119
1, 4330, Note_on_c, 0, 75, 100
1, 4380, Note_off_c, 0, 75, 100
1, 4395, Note_on_c, 0, 73, 113
1, 4458, Note_off_c, 0, 73, 113
1, 4467, Note_on_c, 0, 72, 110
1, 4517, Note_off_c, 0, 72, 110
1, 4542, Note_on_c, 0, 71, 114
1, 4605, Note_off_c, 0, 71, 114
1, 4627, Note_on_c, 0, 69, 119
1, 4722, Note_off_c, 0, 69, 119
1, 4737, Note_on_c, 0, 68, 114
1, 4800, Note_off_c, 0, 68, 114
1, 4800, Note_on_c, 0, 67, 113
1, 4850, Note_on_c, 0, 66, 116
1, 4850, Note_off_c, 0, 67, 113
1, 4903, Note_off_c, 0, 66, 116
1, 4912, Note_on_c, 0, 65, 123
1, 4962, Note_off_c, 0, 65, 123
1, 4971, Note_on_c, 0, 64, 124
1, 5024, Note_off_c, 0, 64, 124
1, 5039, Note_on_c, 0, 63, 122
1, 5099, Note_off_c, 0, 63, 122
1, 5108, Note_on_c, 0, 61, 121
1, 5196, Note_off_c, 0, 61, 121
1, 5204, Note_on_c, 0, 59, 122
1, 5362, Note_off_c, 0, 59, 122
1, 5378, Note_on_c, 0, 58, 119
1, 5511, Note_off_c, 0, 58, 119
1, 5602, Note_on_c, 0, 60, 109
1, 5719, Note_off_c, 0, 60, 109
1, 5722, Note_on_c, 0, 62, 104
1, 5804, Note_off_c, 0, 62, 104
1, 5813, Note_on_c, 0, 65, 106
1, 5917, Note_off_c, 0, 65, 106
1, 5917, Note_on_c, 0, 62, 111
1, 5986, Note_off_c, 0, 62, 111
1, 5992, Note_on_c, 0, 60, 111
1, 6083, Note_off_c, 0, 60, 111
1, 6089, Note_on_c, 0, 58, 108
1, 6174, Note_off_c, 0, 58, 108
1, 6183, Note_on_c, 0, 60, 104
1, 6290, Note_off_c, 0, 60, 104
1, 6296, Note_on_c, 0, 58, 112
1, 6349, Note_off_c, 0, 58, 112
1, 6355, Note_on_c, 0, 57, 115
1, 6478, Note_off_c, 0, 57, 115
1, 6506, Note_on_c, 0, 58, 117
1, 6604, Note_off_c, 0, 58, 117
1, 6613, Note_on_c, 0, 63, 107
1, 6701, Note_off_c, 0, 63, 107
1, 6726, Note_on_c, 0, 66, 114
1, 6798, Note_off_c, 0, 66, 114
1, 6798, Note_on_c, 0, 69, 110
1, 6870, Note_off_c, 0, 69, 110
1, 6898, Note_on_c, 0, 66, 107
1, 6974, Note_off_c, 0, 66, 107
1, 7002, Note_on_c, 0, 67, 111
1, 7078, Note_off_c, 0, 67, 111
1, 7104, Note_on_c, 0, 64, 103
1, 7157, Note_off_c, 0, 64, 103
1, 7179, Note_on_c, 0, 63, 104
1, 7263, Note_off_c, 0, 63, 104
1, 7267, Note_on_c, 0, 60, 92
1, 7338, Note_off_c, 0, 60, 92
1, 7354, Note_on_c, 0, 65, 109
1, 7436, Note_off_c, 0, 65, 109
1, 7470, Note_on_c, 0, 58, 109
1, 7590, Note_off_c, 0, 58, 109
1, 8904, Note_on_c, 0, 70, 114
1, 8989, Note_off_c, 0, 70, 114
1, 9008, Note_on_c, 0, 72, 104
1, 9093, Note_off_c, 0, 72, 104
1, 9302, Note_on_c, 0, 70, 111
1, 9374, Note_off_c, 0, 70, 111
1, 9393, Note_on_c, 0, 72, 101
1, 9484, Note_off_c, 0, 72, 101
1, 9693, Note_on_c, 0, 70, 113
1, 10054, Note_off_c, 0, 70, 113
1, 10085, Note_on_c, 0, 70, 114
1, 10151, Note_off_c, 0, 70, 114
1, 10163, Note_on_c, 0, 69, 108
1, 10245, Note_off_c, 0, 69, 108
1, 10264, Note_on_c, 0, 68, 113
1, 10355, Note_off_c, 0, 68, 113
1, 10355, Note_on_c, 0, 67, 118
1, 10424, Note_off_c, 0, 67, 118
1, 10433, Note_on_c, 0, 66, 117
1, 10521, Note_off_c, 0, 66, 117
1, 10543, Note_on_c, 0, 65, 123
1, 10625, Note_off_c, 0, 65, 123
1, 10653, Note_on_c, 0, 64, 115
1, 10729, Note_off_c, 0, 64, 115
1, 10744, Note_on_c, 0, 62, 113
1, 10823, Note_off_c, 0, 62, 113
1, 10835, Note_on_c, 0, 63, 114
1, 10911, Note_off_c, 0, 63, 114
1, 10930, Note_on_c, 0, 65, 110
1, 11018, Note_off_c, 0, 65, 110
1, 11030, Note_on_c, 0, 66, 107
1, 11109, Note_off_c, 0, 66, 107
1, 11128, Note_on_c, 0, 69, 99
1, 11185, Note_off_c, 0, 69, 99
1, 11200, Note_on_c, 0, 70, 110
1, 11266, Note_off_c, 0, 70, 110
1, 11316, Note_on_c, 0, 66, 118
1, 11385, Note_off_c, 0, 66, 118
1, 11407, Note_on_c, 0, 63, 105
1, 11479, Note_off_c, 0, 63, 105
1, 11488, Note_on_c, 0, 60, 104
1, 11548, Note_off_c, 0, 60, 104
1, 11557, Note_on_c, 0, 65, 122
1, 11645, Note_off_c, 0, 65, 122
1, 11654, Note_on_c, 0, 64, 119
1, 11723, Note_off_c, 0, 64, 119
1, 11738, Note_on_c, 0, 65, 116
1, 11855, Note_off_c, 0, 65, 116
1, 11924, Note_on_c, 0, 77, 103
1, 12009, Note_off_c, 0, 77, 103
1, 12012, Note_on_c, 0, 76, 115
1, 12113, Note_off_c, 0, 76, 115
1, 12143, Note_on_c, 0, 77, 100
1, 12231, Note_off_c, 0, 77, 100
1, 12361, Note_on_c, 0, 77, 109
1, 12443, Note_off_c, 0, 77, 109
1, 12465, Note_on_c, 0, 79, 99
1, 12553, Note_off_c, 0, 79, 99
1, 12556, Note_on_c, 0, 74, 111
1, 12657, Note_off_c, 0, 74, 111
1, 12677, Note_on_c, 0, 69, 91
1, 12754, Note_off_c, 0, 69, 91
1, 12756, Note_on_c, 0, 70, 104
1, 12836, Note_off_c, 0, 70, 104
1, 12858, Note_on_c, 0, 67, 111
1, 12944, Note_off_c, 0, 67, 111
1, 12961, Note_on_c, 0, 69, 100
1, 13036, Note_off_c, 0, 69, 100
1, 13049, Note_on_c, 0, 67, 106
1, 13106, Note_off_c, 0, 67, 106
1, 13110, Note_on_c, 0, 64, 115
1, 13185, Note_off_c, 0, 64, 115
1, 13207, Note_on_c, 0, 66, 108
1, 13291, Note_off_c, 0, 66, 108
1, 13308, Note_on_c, 0, 64, 109
1, 13405, Note_off_c, 0, 64, 109
1, 13409, Note_on_c, 0, 66, 109
1, 13493, Note_off_c, 0, 66, 109
1, 13493, Note_on_c, 0, 63, 110
1, 13599, Note_off_c, 0, 63, 110
1, 13603, Note_on_c, 0, 64, 111
1, 13651, Note_off_c, 0, 64, 111
1, 13668, Note_on_c, 0, 63, 111
1, 13770, Note_off_c, 0, 63, 111
1, 13805, Note_on_c, 0, 62, 114
1, 13911, Note_off_c, 0, 62, 114
1, 13915, Note_on_c, 0, 65, 112
1, 14004, Note_off_c, 0, 65, 112
1, 14004, Note_on_c, 0, 63, 108
1, 14075, Note_off_c, 0, 63, 108
1, 14079, Note_on_c, 0, 62, 110
1, 14172, Note_off_c, 0, 62, 110
1, 14198, Note_on_c, 0, 60, 110
1, 14264, Note_off_c, 0, 60, 110
1, 14286, Note_on_c, 0, 58, 116
1, 14366, Note_off_c, 0, 58, 116
1, 14388, Note_on_c, 0, 60, 108
1, 14477, Note_off_c, 0, 60, 108
1, 14490, Note_on_c, 0, 62, 112
1, 14552, Note_off_c, 0, 62, 112
1, 14560, Note_on_c, 0, 65, 112
1, 14631, Note_off_c, 0, 65, 112
1, 14648, Note_on_c, 0, 69, 112
1, 14732, Note_off_c, 0, 69, 112
1, 14754, Note_on_c, 0, 67, 107
1, 14820, Note_off_c, 0, 67, 107
1, 14860, Note_on_c, 0, 65, 104
1, 14940, Note_off_c, 0, 65, 104
1, 14948, Note_on_c, 0, 62, 108
1, 15014, Note_off_c, 0, 62, 108
1, 15018, Note_on_c, 0, 63, 112
1, 15093, Note_off_c, 0, 63, 112
1, 15115, Note_on_c, 0, 65, 114
1, 15181, Note_off_c, 0, 65, 114
1, 15198, Note_on_c, 0, 67, 102
1, 15278, Note_off_c, 0, 67, 102
1, 15291, Note_on_c, 0, 69, 101
1, 15375, Note_off_c, 0, 69, 101
1, 15375, Note_on_c, 0, 74, 113
1, 15454, Note_off_c, 0, 74, 113
1, 15466, Note_on_c, 0, 73, 106
1, 15538, Note_off_c, 0, 73, 106
1, 15538, Note_on_c, 0, 74, 106
1, 15648, Note_off_c, 0, 74, 106
1, 15705, Note_on_c, 0, 75, 104
1, 15831, Note_off_c, 0, 75, 104
1, 15846, Note_on_c, 0, 74, 97
1, 15912, Note_off_c, 0, 74, 97
1, 15915, Note_on_c, 0, 75, 102
1, 15991, Note_off_c, 0, 75, 102
1, 16073, Note_on_c, 0, 71, 104
1, 16161, Note_off_c, 0, 71, 104
1, 16176, Note_on_c, 0, 72, 104
1, 17119, Note_off_c, 0, 72, 104
1, 17242, Note_on_c, 0, 74, 111
1, 17327, Note_off_c, 0, 74, 111
1, 17336, Note_on_c, 0, 73, 107
1, 17402, Note_off_c, 0, 73, 107
1, 17421, Note_on_c, 0, 74, 107
1, 17512, Note_off_c, 0, 74, 107
1, 17524, Note_on_c, 0, 72, 101
1, 17609, Note_off_c, 0, 72, 101
1, 17615, Note_on_c, 0, 69, 110
1, 17687, Note_off_c, 0, 69, 110
1, 17702, Note_on_c, 0, 70, 109
1, 17790, Note_off_c, 0, 70, 109
1, 17812, Note_on_c, 0, 72, 100
1, 17891, Note_off_c, 0, 72, 100
1, 17897, Note_on_c, 0, 69, 106
1, 17973, Note_off_c, 0, 69, 106
1, 17979, Note_on_c, 0, 70, 105
1, 18058, Note_off_c, 0, 70, 105
1, 18070, Note_on_c, 0, 65, 109
1, 18161, Note_off_c, 0, 65, 109
1, 18170, Note_on_c, 0, 62, 112
1, 18242, Note_off_c, 0, 62, 112
1, 18254, Note_on_c, 0, 63, 107
1, 18336, Note_off_c, 0, 63, 107
1, 18364, Note_on_c, 0, 65, 112
1, 18462, Note_off_c, 0, 65, 112
1, 18462, Note_on_c, 0, 67, 105
1, 18541, Note_off_c, 0, 67, 105
1, 18544, Note_on_c, 0, 66, 105
1, 18635, Note_off_c, 0, 66, 105
1, 18641, Note_on_c, 0, 64, 110
1, 18723, Note_off_c, 0, 64, 110
1, 18735, Note_on_c, 0, 65, 112
1, 18855, Note_off_c, 0, 65, 112
1, 18864, Note_on_c, 0, 63, 109
1, 18943, Note_off_c, 0, 63, 109
1, 18949, Note_on_c, 0, 62, 108
1, 19028, Note_off_c, 0, 62, 108
1, 19043, Note_on_c, 0, 60, 110
1, 19115, Note_off_c, 0, 60, 110
1, 19127, Note_on_c, 0, 58, 110
1, 19212, Note_off_c, 0, 58, 110
1, 19253, Note_on_c, 0, 60, 109
1, 19344, Note_off_c, 0, 60, 109
1, 19356, Note_on_c, 0, 62, 109
1, 19444, Note_off_c, 0, 62, 109
1, 19450, Note_on_c, 0, 66, 115
1, 19519, Note_off_c, 0, 66, 115
1, 19522, Note_on_c, 0, 70, 115
1, 19607, Note_off_c, 0, 70, 115
1, 19632, Note_on_c, 0, 65, 105
1, 19752, Note_off_c, 0, 65, 105
1, 20306, Note_on_c, 0, 82, 99
1, 20407, Note_off_c, 0, 82, 99
1, 20413, Note_on_c, 0, 78, 106
1, 20504, Note_off_c, 0, 78, 106
1, 20523, Note_on_c, 0, 74, 107
1, 20599, Note_off_c, 0, 74, 107
1, 20621, Note_on_c, 0, 70, 112
1, 20678, Note_off_c, 0, 70, 112
1, 20681, Note_on_c, 0, 68, 109
1, 20795, Note_off_c, 0, 68, 109
1, 20798, Note_on_c, 0, 67, 106
1, 20880, Note_off_c, 0, 67, 106
1, 20899, Note_on_c, 0, 70, 110
1, 20968, Note_off_c, 0, 70, 110
1, 20983, Note_on_c, 0, 67, 104
1, 21040, Note_off_c, 0, 67, 104
1, 21052, Note_on_c, 0, 68, 104
1, 21134, Note_off_c, 0, 68, 104
1, 21159, Note_on_c, 0, 65, 103
1, 21238, Note_off_c, 0, 65, 103
1, 21241, Note_on_c, 0, 64, 95
1, 21310, Note_off_c, 0, 64, 95
1, 21332, Note_on_c, 0, 62, 102
1, 21385, Note_off_c, 0, 62, 102
1, 21419, Note_on_c, 0, 65, 106
1, 21504, Note_off_c, 0, 65, 106
1, 21538, Note_on_c, 0, 62, 106
1, 21617, Note_off_c, 0, 62, 106
1, 21626, Note_on_c, 0, 63, 105
1, 21692, Note_off_c, 0, 63, 105
1, 21720, Note_on_c, 0, 65, 102
1, 21818, Note_off_c, 0, 65, 102
1, 21821, Note_on_c, 0, 67, 103
1, 21890, Note_off_c, 0, 67, 103
1, 21905, Note_on_c, 0, 68, 97
1, 21974, Note_off_c, 0, 68, 97
1, 21989, Note_on_c, 0, 70, 106
1, 22093, Note_off_c, 0, 70, 106
1, 22093, Note_on_c, 0, 69, 108
1, 22181, Note_off_c, 0, 69, 108
1, 22196, Note_on_c, 0, 68, 104
1, 22281, Note_off_c, 0, 68, 104
1, 22366, Note_on_c, 0, 67, 97
1, 22467, Note_off_c, 0, 67, 97
1, 22546, Note_on_c, 0, 66, 94
1, 22669, Note_off_c, 0, 66, 94
1, 22760, Note_on_c, 0, 68, 100
1, 22861, Note_off_c, 0, 68, 100
1, 23081, Note_on_c, 0, 66, 95
1, 23214, Note_off_c, 0, 66, 95
1, 23310, Note_on_c, 0, 65, 109
1, 23420, Note_off_c, 0, 65, 109
1, 23496, Note_on_c, 0, 64, 107
1, 23594, Note_off_c, 0, 64, 107
1, 23698, Note_on_c, 0, 65, 105
1, 23793, Note_off_c, 0, 65, 105
1, 23862, Note_on_c, 0, 70, 96
1, 23976, Note_off_c, 0, 70, 96
1, 24071, Note_on_c, 0, 74, 85
1, 24181, Note_off_c, 0, 74, 85
1, 24266, Note_on_c, 0, 77, 105
1, 24684, Note_off_c, 0, 77, 105
1, 24709, Note_on_c, 0, 77, 108
1, 25070, Note_off_c, 0, 77, 108
1, 25117, Note_on_c, 0, 77, 106
1, 25199, Note_off_c, 0, 77, 106
1, 25281, Note_on_c, 0, 77, 113
1, 25445, Note_off_c, 0, 77, 113
1, 25470, Note_on_c, 0, 79, 97
1, 25558, Note_off_c, 0, 79, 97
1, 25662, Note_on_c, 0, 77, 107
1, 26051, Note_off_c, 0, 77, 107
1, 27247, Note_on_c, 0, 86, 106
1, 27322, Note_off_c, 0, 86, 106
1, 27330, Note_on_c, 0, 85, 96
1, 27381, Note_off_c, 0, 85, 96
1, 27389, Note_on_c, 0, 84, 105
1, 27484, Note_off_c, 0, 84, 105
1, 27492, Note_on_c, 0, 81, 109
1, 27594, Note_off_c, 0, 81, 109
1, 27602, Note_on_c, 0, 79, 108
1, 27695, Note_off_c, 0, 79, 108
1, 27703, Note_on_c, 0, 78, 105
1, 27769, Note_off_c, 0, 78, 105
1, 27775, Note_on_c, 0, 77, 110
1, 27879, Note_off_c, 0, 77, 110
1, 27885, Note_on_c, 0, 76, 116
1, 27965, Note_off_c, 0, 76, 116
1, 27973, Note_on_c, 0, 75, 114
1, 28046, Note_off_c, 0, 75, 114
1, 28054, Note_on_c, 0, 74, 118
1, 28147, Note_off_c, 0, 74, 118
1, 28160, Note_on_c, 0, 73, 104
1, 28249, Note_off_c, 0, 73, 104
1, 28266, Note_on_c, 0, 71, 101
1, 28343, Note_off_c, 0, 71, 101
1, 28354, Note_on_c, 0, 72, 108
1, 28429, Note_off_c, 0, 72, 108
1, 28442, Note_on_c, 0, 70, 107
1, 28519, Note_off_c, 0, 70, 107
1, 28534, Note_on_c, 0, 67, 108
1, 28607, Note_off_c, 0, 67, 108
1, 28609, Note_on_c, 0, 68, 101
1, 28682, Note_off_c, 0, 68, 101
1, 28699, Note_on_c, 0, 69, 107
1, 28774, Note_off_c, 0, 69, 107
1, 28791, Note_on_c, 0, 65, 110
1, 28877, Note_off_c, 0, 65, 110
1, 28885, Note_on_c, 0, 67, 108
1, 28982, Note_off_c, 0, 67, 108
1, 28988, Note_on_c, 0, 64, 101
1, 29045, Note_off_c, 0, 64, 101
1, 29062, Note_on_c, 0, 65, 117
1, 29153, Note_off_c, 0, 65, 117
1, 29164, Note_on_c, 0, 64, 105
1, 29226, Note_off_c, 0, 64, 105
1, 29252, Note_on_c, 0, 63, 108
1, 29318, Note_off_c, 0, 63, 108
1, 29380, Note_on_c, 0, 60, 110
1, 29428, Note_off_c, 0, 60, 110
1, 29443, Note_on_c, 0, 58, 114
1, 29498, Note_off_c, 0, 58, 114
1, 29513, Note_on_c, 0, 60, 106
1, 29593, Note_off_c, 0, 60, 106
1, 29608, Note_on_c, 0, 62, 107
1, 29661, Note_off_c, 0, 62, 107
1, 29685, Note_on_c, 0, 65, 107
1, 29758, Note_off_c, 0, 65, 107
1, 29789, Note_on_c, 0, 60, 111
1, 29866, Note_off_c, 0, 60, 111
1, 29874, Note_on_c, 0, 61, 109
1, 29967, Note_off_c, 0, 61, 109
1, 29980, Note_on_c, 0, 60, 111
1, 30082, Note_off_c, 0, 60, 111
1, 30099, Note_on_c, 0, 61, 101
1, 30168, Note_off_c, 0, 61, 101
1, 30179, Note_on_c, 0, 66, 104
1, 30270, Note_off_c, 0, 66, 104
1, 30282, Note_on_c, 0, 68, 103
1, 30370, Note_off_c, 0, 68, 103
1, 30376, Note_on_c, 0, 66, 105
1, 30464, Note_off_c, 0, 66, 105
1, 30466, Note_on_c, 0, 68, 89
1, 30532, Note_off_c, 0, 68, 89
1, 30554, Note_on_c, 0, 71, 94
1, 30638, Note_off_c, 0, 71, 94
1, 30658, Note_on_c, 0, 73, 105
1, 30729, Note_off_c, 0, 73, 105
1, 30740, Note_on_c, 0, 71, 111
1, 30822, Note_off_c, 0, 71, 111
1, 30839, Note_on_c, 0, 68, 88
1, 30908, Note_off_c, 0, 68, 88
1, 30930, Note_on_c, 0, 78, 99
1, 31021, Note_off_c, 0, 78, 99
1, 31045, Note_on_c, 0, 80, 102
1, 31131, Note_off_c, 0, 80, 102
1, 31144, Note_on_c, 0, 78, 93
1, 31228, Note_off_c, 0, 78, 93
1, 31305, Note_on_c, 0, 83, 89
1, 31400, Note_off_c, 0, 83, 89
1, 31415, Note_on_c, 0, 85, 99
1, 31508, Note_off_c, 0, 85, 99
1, 31514, Note_on_c, 0, 85, 97
1, 31583, Note_off_c, 0, 85, 97
1, 31589, Note_on_c, 0, 85, 81
1, 31653, Note_off_c, 0, 85, 81
1, 31708, Note_on_c, 0, 78, 93
1, 31812, Note_off_c, 0, 78, 93
1, 31812, Note_on_c, 0, 79, 86
1, 31896, Note_off_c, 0, 79, 86
1, 31911, Note_on_c, 0, 78, 97
1, 31982, Note_off_c, 0, 78, 97
1, 32013, Note_on_c, 0, 78, 99
1, 32068, Note_off_c, 0, 78, 99
1, 32070, Note_on_c, 0, 74, 97
1, 32156, Note_off_c, 0, 74, 97
1, 32191, Note_on_c, 0, 73, 107
1, 32257, Note_off_c, 0, 73, 107
1, 32263, Note_on_c, 0, 71, 107
1, 32365, Note_off_c, 0, 71, 107
1, 32389, Note_on_c, 0, 73, 95
1, 32453, Note_off_c, 0, 73, 95
1, 32495, Note_on_c, 0, 66, 110
1, 32552, Note_off_c, 0, 66, 110
1, 32569, Note_on_c, 0, 68, 103
1, 32646, Note_off_c, 0, 68, 103
1, 32657, Note_on_c, 0, 69, 95
1, 32734, Note_off_c, 0, 69, 95
1, 33003, Note_on_c, 0, 57, 113
1, 33094, Note_off_c, 0, 57, 113
1, 33114, Note_on_c, 0, 59, 116
1, 33194, Note_off_c, 0, 59, 116
1, 33222, Note_on_c, 0, 56, 111
1, 33277, Note_off_c, 0, 56, 111
1, 33288, Note_on_c, 0, 59, 115
1, 33370, Note_off_c, 0, 59, 115
1, 33385, Note_on_c, 0, 64, 109
1, 33442, Note_off_c, 0, 64, 109
1, 33457, Note_on_c, 0, 66, 111
1, 33541, Note_off_c, 0, 66, 111
1, 33545, Note_on_c, 0, 64, 109
1, 33625, Note_off_c, 0, 64, 109
1, 33638, Note_on_c, 0, 66, 110
1, 33722, Note_off_c, 0, 66, 110
1, 33759, Note_on_c, 0, 69, 112
1, 33839, Note_off_c, 0, 69, 112
1, 33847, Note_on_c, 0, 71, 105
1, 33936, Note_off_c, 0, 71, 105
1, 33949, Note_on_c, 0, 69, 106
1, 34020, Note_off_c, 0, 69, 106
1, 34042, Note_on_c, 0, 71, 114
1, 34119, Note_off_c, 0, 71, 114
1, 34145, Note_on_c, 0, 76, 115
1, 34225, Note_off_c, 0, 76, 115
1, 34233, Note_on_c, 0, 78, 103
1, 34326, Note_off_c, 0, 78, 103
1, 34332, Note_on_c, 0, 76, 97
1, 34414, Note_off_c, 0, 76, 97
1, 34429, Note_on_c, 0, 78, 106
1, 34504, Note_off_c, 0, 78, 106
1, 34524, Note_on_c, 0, 81, 107
1, 34619, Note_off_c, 0, 81, 107
1, 34663, Note_on_c, 0, 81, 112
1, 34758, Note_off_c, 0, 81, 112
1, 34769, Note_on_c, 0, 83, 100
1, 34846, Note_off_c, 0, 83, 100
1, 35284, Note_on_c, 0, 76, 107
1, 35395, Note_off_c, 0, 76, 107
1, 35415, Note_on_c, 0, 78, 100
1, 35488, Note_off_c, 0, 78, 100
1, 35490, Note_on_c, 0, 76, 108
1, 35812, Note_off_c, 0, 76, 108
1, 35840, Note_on_c, 0, 76, 109
1, 35920, Note_off_c, 0, 76, 109
1, 35924, Note_on_c, 0, 75, 111
1, 36015, Note_off_c, 0, 75, 111
1, 36019, Note_on_c, 0, 74, 107
1, 36110, Note_off_c, 0, 74, 107
1, 36121, Note_on_c, 0, 73, 97
1, 36205, Note_off_c, 0, 73, 97
1, 36213, Note_on_c, 0, 72, 103
1, 36288, Note_off_c, 0, 72, 103
1, 36303, Note_on_c, 0, 71, 100
1, 36349, Note_off_c, 0, 71, 100
1, 36355, Note_on_c, 0, 70, 104
1, 36424, Note_off_c, 0, 70, 104
1, 36428, Note_on_c, 0, 69, 110
1, 36519, Note_off_c, 0, 69, 110
1, 36527, Note_on_c, 0, 67, 113
1, 36593, Note_off_c, 0, 67, 113
1, 36601, Note_on_c, 0, 66, 108
1, 36692, Note_off_c, 0, 66, 108
1, 36714, Note_on_c, 0, 64, 113
1, 36787, Note_off_c, 0, 64, 113
1, 36798, Note_on_c, 0, 63, 111
1, 36882, Note_off_c, 0, 63, 111
1, 36899, Note_on_c, 0, 64, 109
1, 36983, Note_off_c, 0, 64, 109
1, 36994, Note_on_c, 0, 67, 112
1, 37091, Note_off_c, 0, 67, 112
1, 37104, Note_on_c, 0, 63, 108
1, 37157, Note_off_c, 0, 63, 108
1, 37159, Note_on_c, 0, 62, 104
1, 37201, Note_off_c, 0, 62, 104
1, 37209, Note_on_c, 0, 60, 105
1, 37278, Note_off_c, 0, 60, 105
1, 37324, Note_on_c, 0, 58, 84
1, 37377, Note_off_c, 0, 58, 84
1, 37377, Note_on_c, 0, 59, 109
1, 37474, Note_off_c, 0, 59, 109
1, 37563, Note_on_c, 0, 60, 103
1, 37678, Note_off_c, 0, 60, 103
1, 37780, Note_on_c, 0, 62, 112
1, 37851, Note_off_c, 0, 62, 112
1, 37948, Note_on_c, 0, 64, 98
1, 38037, Note_off_c, 0, 64, 98
1, 38384, Note_on_c, 0, 66, 115
1, 38468, Note_off_c, 0, 66, 115
1, 38572, Note_on_c, 0, 67, 112
1, 38665, Note_off_c, 0, 67, 112
1, 38774, Note_on_c, 0, 69, 111
1, 38854, Note_off_c, 0, 69, 111
1, 38923, Note_on_c, 0, 70, 97
1, 39056, Note_off_c, 0, 70, 97
1, 39343, Note_on_c, 0, 71, 101
1, 39440, Note_off_c, 0, 71, 101
1, 39524, Note_on_c, 0, 72, 107
1, 39635, Note_off_c, 0, 72, 107
1, 39708, Note_on_c, 0, 73, 105
1, 39797, Note_off_c, 0, 73, 105
1, 39866, Note_on_c, 0, 74, 102
1, 39990, Note_off_c, 0, 74, 102
1, 40283, Note_on_c, 0, 75, 114
1, 40376, Note_off_c, 0, 75, 114
1, 40456, Note_on_c, 0, 76, 110
1, 40553, Note_off_c, 0, 76, 110
1, 40628, Note_on_c, 0, 77, 99
1, 40752, Note_off_c, 0, 77, 99
1, 40832, Note_on_c, 0, 82, 98
1, 40956, Note_off_c, 0, 82, 98
1, 41042, Note_on_c, 0, 77, 108
1, 41148, Note_off_c, 0, 77, 108
1, 41210, Note_on_c, 0, 79, 105
1, 41307, Note_off_c, 0, 79, 105
1, 41389, Note_on_c, 0, 78, 100
1, 41504, Note_off_c, 0, 78, 100
1, 41575, Note_on_c, 0, 77, 103
1, 41690, Note_off_c, 0, 77, 103
1, 41810, Note_on_c, 0, 76, 111
1, 41916, Note_off_c, 0, 76, 111
1, 42013, Note_on_c, 0, 77, 106
1, 42115, Note_off_c, 0, 77, 106
1, 42306, Note_on_c, 0, 82, 111
1, 42399, Note_off_c, 0, 82, 111
1, 42563, Note_on_c, 0, 77, 100
1, 42683, Note_off_c, 0, 77, 100
1, 42785, Note_on_c, 0, 79, 106
1, 42923, Note_off_c, 0, 79, 106
1, 43123, Note_on_c, 0, 74, 103
1, 43225, Note_off_c, 0, 74, 103
1, 43367, Note_on_c, 0, 77, 112
1, 43509, Note_off_c, 0, 77, 112
1, 43736, Note_on_c, 0, 66, 108
1, 43829, Note_off_c, 0, 66, 108
1, 43953, Note_on_c, 0, 74, 105
1, 44082, Note_off_c, 0, 74, 105
1, 44331, Note_on_c, 0, 67, 100
1, 44411, Note_off_c, 0, 67, 100
1, 44531, Note_on_c, 0, 70, 108
1, 44615, Note_off_c, 0, 70, 108
1, 44753, Note_on_c, 0, 65, 102
1, 44846, Note_off_c, 0, 65, 102
1, 44846, Note_on_c, 0, 66, 105
1, 44908, Note_off_c, 0, 66, 105
1, 44908, Note_on_c, 0, 67, 104
1, 44997, Note_off_c, 0, 67, 104
1, 45117, Note_on_c, 0, 70, 100
1, 45223, Note_off_c, 0, 70, 100
1, 45251, Note_on_c, 0, 72, 98
1, 45293, Note_off_c, 0, 72, 98
1, 45301, Note_on_c, 0, 72, 105
1, 45394, Note_off_c, 0, 72, 105
1, 45491, Note_on_c, 0, 70, 111
1, 45566, Note_off_c, 0, 70, 111
1, 45583, Note_on_c, 0, 70, 107
1, 45676, Note_off_c, 0, 70, 107
1, 45689, Note_on_c, 0, 72, 104
1, 45778, Note_off_c, 0, 72, 104
1, 46107, Note_on_c, 0, 70, 109
1, 46169, Note_off_c, 0, 70, 109
1, 46182, Note_on_c, 0, 70, 109
1, 46253, Note_off_c, 0, 70, 109
1, 46257, Note_on_c, 0, 72, 104
1, 46332, Note_off_c, 0, 72, 104
1, 46452, Note_on_c, 0, 70, 100
1, 46541, Note_off_c, 0, 70, 100
1, 46567, Note_on_c, 0, 70, 107
1, 46656, Note_off_c, 0, 70, 107
1, 46682, Note_on_c, 0, 72, 101
1, 46788, Note_off_c, 0, 72, 101
1, 47081, Note_on_c, 0, 70, 104
1, 47165, Note_off_c, 0, 70, 104
1, 47169, Note_on_c, 0, 70, 103
1, 47271, Note_off_c, 0, 70, 103
1, 47288, Note_on_c, 0, 72, 97
1, 47377, Note_off_c, 0, 72, 97
1, 47528, Note_on_c, 0, 70, 108
1, 47590, Note_off_c, 0, 70, 108
1, 47607, Note_on_c, 0, 70, 110
1, 47687, Note_off_c, 0, 70, 110
1, 47687, Note_on_c, 0, 72, 104
1, 47780, Note_off_c, 0, 72, 104
1, 48104, Note_on_c, 0, 70, 107
1, 48173, Note_off_c, 0, 70, 107
1, 48179, Note_on_c, 0, 70, 110
1, 48255, Note_off_c, 0, 70, 110
1, 48289, Note_on_c, 0, 72, 99
1, 48352, Note_off_c, 0, 72, 99
1, 48456, Note_on_c, 0, 70, 104
1, 48522, Note_off_c, 0, 70, 104
1, 48544, Note_on_c, 0, 70, 107
1, 48610, Note_off_c, 0, 70, 107
1, 48619, Note_on_c, 0, 72, 104
1, 48701, Note_off_c, 0, 72, 104
1, 49035, Note_on_c, 0, 70, 112
1, 49115, Note_off_c, 0, 70, 112
1, 49134, Note_on_c, 0, 70, 108
1, 49200, Note_off_c, 0, 70, 108
1, 49225, Note_on_c, 0, 72, 87
1, 49285, Note_off_c, 0, 72, 87
1, 49452, Note_on_c, 0, 72, 111
1, 49553, Note_off_c, 0, 72, 111
1, 49584, Note_on_c, 0, 74, 99
1, 49641, Note_off_c, 0, 74, 99
1, 49663, Note_on_c, 0, 74, 89
1, 49727, Note_off_c, 0, 74, 89
1, 49991, Note_on_c, 0, 74, 103
1, 50060, Note_off_c, 0, 74, 103
1, 50075, Note_on_c, 0, 74, 108
1, 50166, Note_off_c, 0, 74, 108
1, 50181, Note_on_c, 0, 75, 111
1, 50241, Note_off_c, 0, 75, 111
1, 50361, Note_on_c, 0, 74, 108
1, 50437, Note_off_c, 0, 74, 108
1, 50456, Note_on_c, 0, 74, 112
1, 50519, Note_off_c, 0, 74, 112
1, 50538, Note_on_c, 0, 75, 108
1, 50629, Note_off_c, 0, 75, 108
1, 50948, Note_on_c, 0, 74, 113
1, 51024, Note_off_c, 0, 74, 113
1, 51049, Note_on_c, 0, 74, 111
1, 51134, Note_off_c, 0, 74, 111
1, 51137, Note_on_c, 0, 75, 108
1, 51216, Note_off_c, 0, 75, 108
1, 51561, Note_on_c, 0, 75, 108
1, 51614, Note_off_c, 0, 75, 108
1, 51623, Note_on_c, 0, 75, 112
1, 51705, Note_off_c, 0, 75, 112
1, 51733, Note_on_c, 0, 75, 107
1, 51821, Note_off_c, 0, 75, 107
1, 52125, Note_on_c, 0, 75, 109
1, 52182, Note_off_c, 0, 75, 109
1, 52197, Note_on_c, 0, 76, 112
1, 52285, Note_off_c, 0, 76, 112
1, 52646, Note_on_c, 0, 76, 115
1, 52731, Note_off_c, 0, 76, 115
1, 52832, Note_on_c, 0, 77, 107
1, 52927, Note_off_c, 0, 77, 107
1, 53360, Note_on_c, 0, 77, 112
1, 53743, Note_off_c, 0, 77, 112
1, 53771, Note_on_c, 0, 79, 103
1, 53869, Note_off_c, 0, 79, 103
1, 53948, Note_on_c, 0, 80, 108
1, 54134, Note_off_c, 0, 80, 108
1, 54146, Note_on_c, 0, 81, 108
1, 54231, Note_off_c, 0, 81, 108
1, 54348, Note_on_c, 0, 83, 99
1, 54452, Note_off_c, 0, 83, 99
1, 54537, Note_on_c, 0, 84, 92
1, 55050, Note_off_c, 0, 84, 92
1, 55162, Note_on_c, 0, 82, 99
1, 55251, Note_off_c, 0, 82, 99
1, 55286, Note_on_c, 0, 81, 97
1, 55339, Note_off_c, 0, 81, 97
1, 55361, Note_on_c, 0, 79, 104
1, 55441, Note_off_c, 0, 79, 104
1, 55458, Note_on_c, 0, 78, 96
1, 55524, Note_off_c, 0, 78, 96
1, 55555, Note_on_c, 0, 77, 101
1, 55612, Note_off_c, 0, 77, 101
1, 55656, Note_on_c, 0, 76, 108
1, 55736, Note_off_c, 0, 76, 108
1, 55758, Note_on_c, 0, 75, 108
1, 55811, Note_off_c, 0, 75, 108
1, 55839, Note_on_c, 0, 76, 106
1, 55896, Note_off_c, 0, 76, 106
1, 55896, Note_on_c, 0, 74, 95
1, 55951, Note_off_c, 0, 74, 95
1, 55968, Note_on_c, 0, 73, 100
1, 56021, Note_off_c, 0, 73, 100
1, 56034, Note_on_c, 0, 71, 100
1, 56127, Note_off_c, 0, 71, 100
1, 56131, Note_on_c, 0, 72, 111
1, 56181, Note_off_c, 0, 72, 111
1, 56193, Note_on_c, 0, 70, 111
1, 56278, Note_off_c, 0, 70, 111
1, 56290, Note_on_c, 0, 69, 111
1, 56366, Note_off_c, 0, 69, 111
1, 56400, Note_on_c, 0, 67, 113
1, 56469, Note_off_c, 0, 67, 113
1, 56488, Note_on_c, 0, 66, 111
1, 56570, Note_off_c, 0, 66, 111
1, 56573, Note_on_c, 0, 64, 109
1, 56687, Note_off_c, 0, 64, 109
1, 56712, Note_on_c, 0, 65, 103
1, 56803, Note_off_c, 0, 65, 103
1, 56818, Note_on_c, 0, 64, 113
1, 56868, Note_off_c, 0, 64, 113
1, 56890, Note_on_c, 0, 62, 110
1, 56947, Note_off_c, 0, 62, 110
1, 56975, Note_on_c, 0, 60, 106
1, 57060, Note_off_c, 0, 60, 106
1, 57072, Note_on_c, 0, 58, 112
1, 57148, Note_off_c, 0, 58, 112
1, 57192, Note_on_c, 0, 60, 108
1, 57261, Note_off_c, 0, 60, 108
1, 57273, Note_on_c, 0, 62, 100
1, 57371, Note_off_c, 0, 62, 100
1, 57374, Note_on_c, 0, 66, 107
1, 57456, Note_off_c, 0, 66, 107
1, 57481, Note_on_c, 0, 70, 114
1, 57557, Note_off_c, 0, 70, 114
1, 57572, Note_on_c, 0, 69, 107
1, 57638, Note_off_c, 0, 69, 107
1, 57660, Note_on_c, 0, 70, 92
1, 57758, Note_off_c, 0, 70, 92
1, 57818, Note_on_c, 0, 72, 99
1, 57890, Note_off_c, 0, 72, 99
1, 57899, Note_on_c, 0, 71, 93
1, 57975, Note_off_c, 0, 71, 93
1, 57997, Note_on_c, 0, 72, 100
1, 58104, Note_off_c, 0, 72, 100
1, 58180, Note_on_c, 0, 74, 108
1, 58268, Note_off_c, 0, 74, 108
1, 58278, Note_on_c, 0, 70, 103
1, 58351, Note_off_c, 0, 70, 103
1, 58355, Note_on_c, 0, 72, 93
1, 58403, Note_off_c, 0, 72, 93
1, 58411, Note_on_c, 0, 74, 95
1, 58531, Note_off_c, 0, 74, 95
1, 58584, Note_on_c, 0, 75, 104
1, 58660, Note_off_c, 0, 75, 104
1, 58672, Note_on_c, 0, 76, 109
1, 58735, Note_off_c, 0, 76, 109
1, 58754, Note_on_c, 0, 77, 117
1, 58845, Note_off_c, 0, 77, 117
1, 58880, Note_on_c, 0, 78, 100
1, 59073, Note_off_c, 0, 78, 100
1, 59109, Note_on_c, 0, 77, 97
1, 59172, Note_off_c, 0, 77, 97
1, 59175, Note_on_c, 0, 78, 107
1, 59244, Note_off_c, 0, 78, 107
1, 59259, Note_on_c, 0, 77, 91
1, 59322, Note_off_c, 0, 77, 91
1, 59344, Note_on_c, 0, 78, 94
1, 59429, Note_off_c, 0, 78, 94
1, 59452, Note_on_c, 0, 80, 90
1, 59503, Note_off_c, 0, 80, 90
1, 59523, Note_on_c, 0, 78, 97
1, 59586, Note_off_c, 0, 78, 97
1, 59605, Note_on_c, 0, 80, 92
1, 59668, Note_off_c, 0, 80, 92
1, 59677, Note_on_c, 0, 78, 97
1, 59756, Note_off_c, 0, 78, 97
1, 59762, Note_on_c, 0, 77, 101
1, 59844, Note_off_c, 0, 77, 101
1, 59869, Note_on_c, 0, 76, 91
1, 59970, Note_off_c, 0, 76, 91
1, 59989, Note_on_c, 0, 74, 100
1, 60065, Note_off_c, 0, 74, 100
1, 60087, Note_on_c, 0, 78, 102
1, 60163, Note_off_c, 0, 78, 102
1, 60166, Note_on_c, 0, 77, 101
1, 60254, Note_off_c, 0, 77, 101
1, 60285, Note_on_c, 0, 76, 105
1, 60373, Note_off_c, 0, 76, 105
1, 60388, Note_on_c, 0, 74, 104
1, 60461, Note_off_c, 0, 74, 104
1, 60472, Note_on_c, 0, 76, 105
1, 60516, Note_off_c, 0, 76, 105
1, 60516, Note_on_c, 0, 77, 110
1, 60600, Note_off_c, 0, 77, 110
1, 60600, Note_on_c, 0, 76, 106
1, 60713, Note_off_c, 0, 76, 106
1, 60713, Note_on_c, 0, 77, 75
1, 60785, Note_off_c, 0, 77, 75
1, 60834, Note_on_c, 0, 77, 106
1, 60913, Note_off_c, 0, 77, 106
1, 60938, Note_on_c, 0, 79, 95
1, 61007, Note_off_c, 0, 79, 95
1, 61045, Note_on_c, 0, 77, 104
1, 61117, Note_off_c, 0, 77, 104
1, 61145, Note_on_c, 0, 79, 89
1, 61221, Note_off_c, 0, 79, 89
1, 61240, Note_on_c, 0, 65, 109
1, 61322, Note_off_c, 0, 65, 109
1, 61329, Note_on_c, 0, 67, 105
1, 61405, Note_off_c, 0, 67, 105
1, 61432, Note_on_c, 0, 65, 113
1, 61495, Note_off_c, 0, 65, 113
1, 61498, Note_on_c, 0, 66, 98
1, 61586, Note_off_c, 0, 66, 98
1, 61601, Note_on_c, 0, 64, 110
1, 61667, Note_off_c, 0, 64, 110
1, 61689, Note_on_c, 0, 65, 104
1, 61758, Note_off_c, 0, 65, 104
1, 61781, Note_on_c, 0, 64, 106
1, 61870, Note_off_c, 0, 64, 106
1, 61915, Note_on_c, 0, 61, 92
1, 61953, Note_off_c, 0, 61, 92
1, 61974, Note_on_c, 0, 63, 99
1, 62170, Note_off_c, 0, 63, 99
1, 63719, Note_on_c, 0, 77, 115
1, 63801, Note_off_c, 0, 77, 115
1, 63829, Note_on_c, 0, 73, 92
1, 63876, Note_off_c, 0, 73, 92
1, 63885, Note_on_c, 0, 77, 105
1, 63948, Note_off_c, 0, 77, 105
1, 63963, Note_on_c, 0, 77, 103
1, 64039, Note_off_c, 0, 77, 103
1, 64070, Note_on_c, 0, 74, 106
1, 64146, Note_off_c, 0, 74, 106
1, 64165, Note_on_c, 0, 72, 115
1, 64244, Note_off_c, 0, 72, 115
1, 64259, Note_on_c, 0, 71, 49
1, 64379, Note_off_c, 0, 71, 49
1, 64407, Note_on_c, 0, 74, 94
1, 64445, Note_off_c, 0, 74, 94
1, 64451, Note_on_c, 0, 77, 106
1, 64542, Note_off_c, 0, 77, 106
1, 64557, Note_on_c, 0, 80, 107
1, 64636, Note_off_c, 0, 80, 107
1, 64648, Note_on_c, 0, 79, 111
1, 64717, Note_off_c, 0, 79, 111
1, 64717, Note_on_c, 0, 79, 100
1, 64777, Note_off_c, 0, 79, 100
1, 64818, Note_on_c, 0, 78, 99
1, 64925, Note_off_c, 0, 78, 99
1, 65004, Note_on_c, 0, 82, 98
1, 65083, Note_off_c, 0, 82, 98
1, 65108, Note_on_c, 0, 89, 84
1, 65174, Note_off_c, 0, 89, 84
1, 65188, Note_on_c, 0, 86, 91
1, 65248, Note_off_c, 0, 86, 91
1, 65258, Note_on_c, 0, 84, 93
1, 65311, Note_off_c, 0, 84, 93
1, 65323, Note_on_c, 0, 82, 112
1, 65399, Note_off_c, 0, 82, 112
1, 65408, Note_on_c, 0, 81, 99
1, 65512, Note_off_c, 0, 81, 99
1, 65527, Note_on_c, 0, 79, 100
1, 65596, Note_off_c, 0, 79, 100
1, 65611, Note_on_c, 0, 80, 103
1, 65683, Note_off_c, 0, 80, 103
1, 65683, Note_on_c, 0, 79, 104
1, 65768, Note_off_c, 0, 79, 104
1, 65783, Note_on_c, 0, 78, 96
1, 65859, Note_off_c, 0, 78, 96
1, 65874, Note_on_c, 0, 76, 91
1, 65965, Note_off_c, 0, 76, 91
1, 65977, Note_on_c, 0, 77, 104
1, 66065, Note_off_c, 0, 77, 104
1, 66077, Note_on_c, 0, 76, 107
1, 66162, Note_off_c, 0, 76, 107
1, 66174, Note_on_c, 0, 75, 105
1, 66259, Note_off_c, 0, 75, 105
1, 66262, Note_on_c, 0, 73, 106
1, 66344, Note_off_c, 0, 73, 106
1, 66366, Note_on_c, 0, 71, 101
1, 66464, Note_off_c, 0, 71, 101
1, 66476, Note_on_c, 0, 69, 108
1, 66539, Note_off_c, 0, 69, 108
1, 66551, Note_on_c, 0, 70, 112
1, 66627, Note_off_c, 0, 70, 112
1, 66636, Note_on_c, 0, 65, 102
1, 66712, Note_off_c, 0, 65, 102
1, 66731, Note_on_c, 0, 67, 103
1, 66826, Note_off_c, 0, 67, 103
1, 66845, Note_on_c, 0, 69, 96
1, 66917, Note_off_c, 0, 69, 96
1, 66948, Note_on_c, 0, 70, 107
1, 67014, Note_off_c, 0, 70, 107
1, 67017, Note_on_c, 0, 65, 106
1, 67110, Note_off_c, 0, 65, 106
1, 67132, Note_on_c, 0, 64, 99
1, 67194, Note_off_c, 0, 64, 99
1, 67229, Note_on_c, 0, 60, 98
1, 67304, Note_off_c, 0, 60, 98
1, 67339, Note_on_c, 0, 62, 110
1, 67367, Note_off_c, 0, 62, 110
1, 67369, Note_on_c, 0, 63, 109
1, 67442, Note_off_c, 0, 63, 109
1, 67475, Note_on_c, 0, 64, 112
1, 67532, Note_off_c, 0, 64, 112
1, 67536, Note_on_c, 0, 66, 116
1, 67584, Note_off_c, 0, 66, 116
1, 67601, Note_on_c, 0, 64, 115
1, 67681, Note_off_c, 0, 64, 115
1, 67698, Note_on_c, 0, 63, 109
1, 67787, Note_on_c, 0, 59, 105
1, 67787, Note_off_c, 0, 63, 109
1, 67889, Note_off_c, 0, 59, 105
1, 67906, Note_on_c, 0, 56, 113
1, 67990, Note_off_c, 0, 56, 113
1, 68007, Note_on_c, 0, 52, 95
1, 68091, Note_off_c, 0, 52, 95
1, 68137, Note_on_c, 0, 53, 93
1, 68197, Note_off_c, 0, 53, 93
1, 68208, Note_on_c, 0, 60, 103
1, 68256, Note_off_c, 0, 60, 103
1, 68284, Note_on_c, 0, 62, 100
1, 68335, Note_off_c, 0, 62, 100
1, 68397, Note_on_c, 0, 65, 111
1, 68492, Note_off_c, 0, 65, 111
1, 68514, Note_on_c, 0, 69, 112
1, 68576, Note_off_c, 0, 69, 112
1, 68593, Note_on_c, 0, 70, 103
1, 68655, Note_off_c, 0, 70, 103
1, 68686, Note_on_c, 0, 72, 99
1, 68837, Note_off_c, 0, 72, 99
1, 68863, Note_on_c, 0, 70, 102
1, 68925, Note_off_c, 0, 70, 102
1, 68969, Note_on_c, 0, 65, 109
1, 69022, Note_off_c, 0, 65, 109
1, 69044, Note_on_c, 0, 62, 105
1, 69199, Note_off_c, 0, 62, 105
1, 69234, Note_on_c, 0, 65, 116
1, 69336, Note_off_c, 0, 65, 116
1, 69344, Note_on_c, 0, 67, 108
1, 69410, Note_off_c, 0, 67, 108
1, 69427, Note_on_c, 0, 65, 109
1, 69520, Note_on_c, 0, 64, 105
1, 69520, Note_off_c, 0, 65, 109
1, 69609, Note_off_c, 0, 64, 105
1, 69631, Note_on_c, 0, 65, 106
1, 69724, Note_off_c, 0, 65, 106
1, 69835, Note_on_c, 0, 70, 106
1, 69932, Note_off_c, 0, 70, 106
1, 70217, Note_on_c, 0, 72, 109
1, 70301, Note_off_c, 0, 72, 109
1, 70398, Note_on_c, 0, 74, 91
1, 70495, Note_off_c, 0, 74, 91
1, 70802, Note_on_c, 0, 75, 109
1, 70891, Note_off_c, 0, 75, 109
1, 70993, Note_on_c, 0, 77, 116
1, 71086, Note_off_c, 0, 77, 116
1, 71384, Note_on_c, 0, 78, 109
1, 71495, Note_off_c, 0, 78, 109
1, 71584, Note_on_c, 0, 77, 112
1, 71677, Note_off_c, 0, 77, 112
1, 71975, Note_on_c, 0, 74, 107
1, 72068, Note_off_c, 0, 74, 107
1, 72188, Note_on_c, 0, 70, 98
1, 72272, Note_off_c, 0, 70, 98
1, 72561, Note_on_c, 0, 72, 103
1, 72623, Note_off_c, 0, 72, 103
1, 72769, Note_on_c, 0, 73, 108
1, 72866, Note_off_c, 0, 73, 108
1, 73133, Note_on_c, 0, 74, 113
1, 73222, Note_off_c, 0, 74, 113
1, 73382, Note_on_c, 0, 75, 110
1, 73466, Note_off_c, 0, 75, 110
1, 73737, Note_on_c, 0, 76, 108
1, 73857, Note_off_c, 0, 76, 108
1, 73950, Note_on_c, 0, 77, 114
1, 74034, Note_off_c, 0, 77, 114
1, 74359, Note_on_c, 0, 79, 109
1, 74425, Note_off_c, 0, 79, 109
1, 74540, Note_on_c, 0, 77, 102
1, 74642, Note_off_c, 0, 77, 102
1, 74882, Note_on_c, 0, 88, 113
1, 75006, Note_off_c, 0, 88, 113
1, 75117, Note_on_c, 0, 86, 104
1, 75219, Note_off_c, 0, 86, 104
1, 75450, Note_on_c, 0, 82, 95
1, 75552, Note_off_c, 0, 82, 95
1, 75672, Note_on_c, 0, 81, 95
1, 75769, Note_off_c, 0, 81, 95
1, 76071, Note_on_c, 0, 77, 97
1, 76177, Note_off_c, 0, 77, 97
1, 76301, Note_on_c, 0, 77, 107
1, 76407, Note_off_c, 0, 77, 107
1, 76700, Note_on_c, 0, 79, 102
1, 76806, Note_off_c, 0, 79, 102
1, 76886, Note_on_c, 0, 77, 105
1, 77015, Note_off_c, 0, 77, 105
1, 77277, Note_on_c, 0, 73, 107
1, 77325, Note_off_c, 0, 73, 107
1, 77338, Note_on_c, 0, 74, 111
1, 77413, Note_off_c, 0, 74, 111
1, 77430, Note_on_c, 0, 70, 115
1, 77485, Note_off_c, 0, 70, 115
1, 77496, Note_on_c, 0, 70, 102
1, 77576, Note_off_c, 0, 70, 102
1, 77829, Note_on_c, 0, 72, 103
1, 77922, Note_off_c, 0, 72, 103
1, 78051, Note_on_c, 0, 69, 100
1, 78140, Note_off_c, 0, 69, 100
1, 78416, Note_on_c, 0, 65, 100
1, 78513, Note_off_c, 0, 65, 100
1, 78633, Note_on_c, 0, 70, 105
1, 78699, Note_off_c, 0, 70, 105
1, 78739, Note_on_c, 0, 71, 88
1, 78845, Note_off_c, 0, 71, 88
1, 78951, Note_on_c, 0, 71, 99
1, 79035, Note_off_c, 0, 71, 99
1, 79222, Note_on_c, 0, 75, 106
1, 79342, Note_off_c, 0, 75, 106
1, 79493, Note_on_c, 0, 78, 106
1, 79604, Note_off_c, 0, 78, 106
1, 79746, Note_on_c, 0, 77, 98
1, 79812, Note_off_c, 0, 77, 98
1, 79981, Note_on_c, 0, 73, 104
1, 80092, Note_off_c, 0, 73, 104
1, 80283, Note_on_c, 0, 71, 102
1, 80372, Note_off_c, 0, 71, 102
1, 80525, Note_on_c, 0, 69, 102
1, 80671, Note_off_c, 0, 69, 102
1, 80677, Note_on_c, 0, 70, 100
1, 80803, Note_off_c, 0, 70, 100
1, 80840, Note_on_c, 0, 68, 103
1, 81227, Note_off_c, 0, 68, 103
1, 81240, Note_on_c, 0, 66, 99
1, 81449, Note_off_c, 0, 66, 99
1, 82001, Note_on_c, 0, 73, 107
1, 82116, Note_off_c, 0, 73, 107
1, 82213, Note_on_c, 0, 74, 109
1, 82342, Note_off_c, 0, 74, 109
1, 82546, Note_on_c, 0, 76, 120
1, 82657, Note_off_c, 0, 76, 120
1, 82790, Note_on_c, 0, 74, 111
1, 82914, Note_off_c, 0, 74, 111
1, 83056, Note_on_c, 0, 73, 110
1, 83167, Note_off_c, 0, 73, 110
1, 83318, Note_on_c, 0, 71, 108
1, 83433, Note_off_c, 0, 71, 108
1, 83593, Note_on_c, 0, 69, 109
1, 83690, Note_off_c, 0, 69, 109
1, 83854, Note_on_c, 0, 68, 109
1, 83974, Note_off_c, 0, 68, 109
1, 84125, Note_on_c, 0, 71, 112
1, 84258, Note_off_c, 0, 71, 112
1, 84378, Note_on_c, 0, 69, 110
1, 84493, Note_off_c, 0, 69, 110
1, 84684, Note_on_c, 0, 68, 100
1, 84795, Note_off_c, 0, 68, 100
1, 84897, Note_on_c, 0, 66, 107
1, 85026, Note_off_c, 0, 66, 107
1, 85123, Note_on_c, 0, 69, 112
1, 85265, Note_off_c, 0, 69, 112
1, 85425, Note_on_c, 0, 71, 114
1, 85527, Note_off_c, 0, 71, 114
1, 85660, Note_on_c, 0, 72, 112
1, 85793, Note_off_c, 0, 72, 112
1, 85908, Note_on_c, 0, 71, 103
1, 86023, Note_off_c, 0, 71, 103
1, 86178, Note_on_c, 0, 69, 109
1, 86298, Note_off_c, 0, 69, 109
1, 86436, Note_on_c, 0, 67, 110
1, 86542, Note_off_c, 0, 67, 110
1, 86673, Note_on_c, 0, 69, 105
1, 86788, Note_off_c, 0, 69, 105
1, 86923, Note_on_c, 0, 67, 108
1, 87074, Note_off_c, 0, 67, 108
1, 87243, Note_on_c, 0, 66, 109
1, 87349, Note_off_c, 0, 66, 109
1, 87495, Note_on_c, 0, 67, 101
1, 87592, Note_off_c, 0, 67, 101
1, 87721, Note_on_c, 0, 66, 117
1, 87841, Note_off_c, 0, 66, 117
1, 87983, Note_on_c, 0, 64, 118
1, 88076, Note_off_c, 0, 64, 118
1, 88209, Note_on_c, 0, 67, 108
1, 88329, Note_off_c, 0, 67, 108
1, 88444, Note_on_c, 0, 69, 111
1, 88582, Note_off_c, 0, 69, 111
1, 88688, Note_on_c, 0, 70, 109
1, 88812, Note_off_c, 0, 70, 109
1, 88918, Note_on_c, 0, 72, 108
1, 89042, Note_off_c, 0, 72, 108
1, 89171, Note_on_c, 0, 70, 111
1, 89277, Note_off_c, 0, 70, 111
1, 89410, Note_on_c, 0, 69, 115
1, 89525, Note_off_c, 0, 69, 115
1, 89663, Note_on_c, 0, 70, 104
1, 89765, Note_off_c, 0, 70, 104
1, 89920, Note_on_c, 0, 69, 105
1, 90040, Note_off_c, 0, 69, 105
1, 90146, Note_on_c, 0, 67, 103
1, 90248, Note_off_c, 0, 67, 103
1, 90363, Note_on_c, 0, 69, 104
1, 90465, Note_off_c, 0, 69, 104
1, 90656, Note_on_c, 0, 66, 98
1, 90878, Note_off_c, 0, 66, 98
1, 91287, Note_on_c, 0, 65, 91
1, 91338, Note_off_c, 0, 65, 91
1, 91338, Note_on_c, 0, 68, 116
1, 91380, Note_off_c, 0, 68, 116
1, 91380, Note_on_c, 0, 70, 103
1, 91451, Note_on_c, 0, 74, 113
1, 91451, Note_off_c, 0, 70, 103
1, 91531, Note_off_c, 0, 74, 113
1, 91553, Note_on_c, 0, 77, 99
1, 91624, Note_off_c, 0, 77, 99
1, 91892, Note_on_c, 0, 77, 96
1, 91962, Note_off_c, 0, 77, 96
1, 92062, Note_on_c, 0, 62, 105
1, 92097, Note_off_c, 0, 62, 105
1, 92108, Note_on_c, 0, 67, 94
1, 92148, Note_off_c, 0, 67, 94
1, 92174, Note_on_c, 0, 70, 103
1, 92240, Note_off_c, 0, 70, 103
1, 92257, Note_on_c, 0, 74, 97
1, 92314, Note_off_c, 0, 74, 97
1, 92376, Note_on_c, 0, 63, 109
1, 92411, Note_off_c, 0, 63, 109
1, 92428, Note_on_c, 0, 65, 113
1, 92461, Note_off_c, 0, 65, 113
1, 92478, Note_on_c, 0, 63, 98
1, 92535, Note_off_c, 0, 63, 98
1, 92577, Note_on_c, 0, 72, 111
1, 92630, Note_off_c, 0, 72, 111
1, 92647, Note_on_c, 0, 77, 99
1, 92700, Note_off_c, 0, 77, 99
1, 92793, Note_on_c, 0, 65, 94
1, 92846, Note_off_c, 0, 65, 94
1, 92881, Note_on_c, 0, 67, 107
1, 92932, Note_off_c, 0, 67, 107
1, 92960, Note_on_c, 0, 74, 116
1, 93013, Note_off_c, 0, 74, 116
1, 93044, Note_on_c, 0, 77, 115
1, 93110, Note_off_c, 0, 77, 115
1, 93123, Note_on_c, 0, 63, 112
1, 93171, Note_off_c, 0, 63, 112
1, 93188, Note_on_c, 0, 65, 107
1, 93241, Note_off_c, 0, 65, 107
1, 93303, Note_on_c, 0, 72, 108
1, 93369, Note_off_c, 0, 72, 108
1, 93382, Note_on_c, 0, 73, 90
1, 93453, Note_off_c, 0, 73, 90
1, 93537, Note_on_c, 0, 63, 113
1, 93590, Note_off_c, 0, 63, 113
1, 93605, Note_on_c, 0, 65, 94
1, 93669, Note_off_c, 0, 65, 94
1, 93760, Note_on_c, 0, 77, 86
1, 93808, Note_off_c, 0, 77, 86
1, 93830, Note_on_c, 0, 70, 102
1, 93892, Note_off_c, 0, 70, 102
1, 93903, Note_on_c, 0, 66, 97
1, 93956, Note_off_c, 0, 66, 97
1, 94060, Note_on_c, 0, 67, 108
1, 94108, Note_off_c, 0, 67, 108
1, 94110, Note_on_c, 0, 70, 106
1, 94150, Note_off_c, 0, 70, 106
1, 94185, Note_on_c, 0, 75, 92
1, 94233, Note_off_c, 0, 75, 92
1, 94302, Note_on_c, 0, 67, 98
1, 94362, Note_off_c, 0, 67, 98
1, 94393, Note_on_c, 0, 63, 94
1, 94439, Note_off_c, 0, 63, 94
1, 94470, Note_on_c, 0, 63, 99
1, 94503, Note_off_c, 0, 63, 99
1, 94503, Note_on_c, 0, 70, 106
1, 94542, Note_off_c, 0, 70, 106
1, 94542, Note_on_c, 0, 77, 114
1, 94624, Note_off_c, 0, 77, 114
1, 94643, Note_on_c, 0, 76, 112
1, 94725, Note_off_c, 0, 76, 112
1, 94759, Note_on_c, 0, 75, 112
1, 94825, Note_off_c, 0, 75, 112
1, 94834, Note_on_c, 0, 74, 106
1, 94881, Note_off_c, 0, 74, 106
1, 94887, Note_on_c, 0, 75, 117
1, 94928, Note_off_c, 0, 75, 117
1, 94940, Note_on_c, 0, 74, 111
1, 94981, Note_off_c, 0, 74, 111
1, 95009, Note_on_c, 0, 70, 116
1, 95059, Note_off_c, 0, 70, 116
1, 95087, Note_on_c, 0, 67, 108
1, 95156, Note_off_c, 0, 67, 108
1, 95162, Note_on_c, 0, 65, 107
1, 95253, Note_off_c, 0, 65, 107
1, 95285, Note_on_c, 0, 72, 105
1, 95327, Note_off_c, 0, 72, 105
1, 95335, Note_on_c, 0, 73, 112
1, 95392, Note_off_c, 0, 73, 112
1, 95407, Note_on_c, 0, 72, 120
1, 95471, Note_off_c, 0, 72, 120
1, 95477, Note_on_c, 0, 71, 116
1, 95543, Note_off_c, 0, 71, 116
1, 95551, Note_on_c, 0, 70, 105
1, 95623, Note_off_c, 0, 70, 105
1, 95629, Note_on_c, 0, 69, 116
1, 95670, Note_off_c, 0, 69, 116
1, 95692, Note_on_c, 0, 70, 117
1, 95758, Note_off_c, 0, 70, 117
1, 95789, Note_on_c, 0, 69, 110
1, 95858, Note_off_c, 0, 69, 110
1, 95883, Note_on_c, 0, 68, 112
1, 95959, Note_off_c, 0, 68, 112
1, 95965, Note_on_c, 0, 67, 119
1, 96034, Note_off_c, 0, 67, 119
1, 96049, Note_on_c, 0, 66, 115
1, 96134, Note_off_c, 0, 66, 115
1, 96137, Note_on_c, 0, 65, 110
1, 96209, Note_off_c, 0, 65, 110
1, 96231, Note_on_c, 0, 64, 110
1, 96294, Note_off_c, 0, 64, 110
1, 96300, Note_on_c, 0, 63, 106
1, 96363, Note_off_c, 0, 63, 106
1, 96366, Note_on_c, 0, 62, 115
1, 96416, Note_off_c, 0, 62, 115
1, 96447, Note_on_c, 0, 64, 118
1, 96488, Note_off_c, 0, 64, 118
1, 96516, Note_on_c, 0, 65, 109
1, 96585, Note_off_c, 0, 65, 109
1, 96613, Note_on_c, 0, 66, 110
1, 96682, Note_off_c, 0, 66, 110
1, 96697, Note_on_c, 0, 68, 103
1, 96760, Note_off_c, 0, 68, 103
1, 96788, Note_on_c, 0, 70, 105
1, 96873, Note_off_c, 0, 70, 105
1, 96892, Note_on_c, 0, 66, 113
1, 96945, Note_off_c, 0, 66, 113
1, 96972, Note_on_c, 0, 65, 102
1, 97029, Note_off_c, 0, 65, 102
1, 97063, Note_on_c, 0, 63, 110
1, 97113, Note_off_c, 0, 63, 110
1, 97152, Note_on_c, 0, 68, 114
1, 97247, Note_off_c, 0, 68, 114
1, 97286, Note_on_c, 0, 68, 115
1, 97349, Note_off_c, 0, 68, 115
1, 97372, Note_on_c, 0, 66, 114
1, 97463, Note_off_c, 0, 66, 114
1, 97482, Note_on_c, 0, 64, 106
1, 97520, Note_off_c, 0, 64, 106
1, 97539, Note_on_c, 0, 65, 127
1, 97665, Note_off_c, 0, 65, 127
1, 98158, Note_on_c, 0, 70, 121
1, 98269, Note_off_c, 0, 70, 121
1, 98322, Note_on_c, 0, 72, 116
1, 98477, Note_off_c, 0, 72, 116
1, 98534, Note_on_c, 0, 73, 120
1, 98587, Note_off_c, 0, 73, 120
1, 98599, Note_on_c, 0, 74, 118
1, 98764, Note_off_c, 0, 74, 118
1, 98798, Note_on_c, 0, 74, 117
1, 98843, Note_off_c, 0, 74, 117
1, 98866, Note_on_c, 0, 75, 107
1, 98955, Note_off_c, 0, 75, 107
1, 99044, Note_on_c, 0, 76, 113
1, 99195, Note_off_c, 0, 76, 113
1, 99235, Note_on_c, 0, 77, 109
1, 99324, Note_off_c, 0, 77, 109
1, 99466, Note_on_c, 0, 70, 107
1, 99537, Note_off_c, 0, 70, 107
1, 99559, Note_on_c, 0, 70, 102
1, 99656, Note_off_c, 0, 70, 102
1, 99794, Note_on_c, 0, 70, 91
1, 99860, Note_off_c, 0, 70, 91
1, 99902, Note_on_c, 0, 70, 108
1, 99999, Note_off_c, 0, 70, 108
1, 100375, Note_on_c, 0, 74, 111
1, 100450, Note_off_c, 0, 74, 111
1, 100472, Note_on_c, 0, 74, 103
1, 100569, Note_off_c, 0, 74, 103
1, 100742, Note_on_c, 0, 74, 116
1, 100817, Note_off_c, 0, 74, 116
1, 100843, Note_on_c, 0, 74, 107
1, 100932, Note_off_c, 0, 74, 107
1, 101328, Note_on_c, 0, 77, 113
1, 101394, Note_off_c, 0, 77, 113
1, 101420, Note_on_c, 0, 77, 108
1, 101522, Note_off_c, 0, 77, 108
1, 101749, Note_on_c, 0, 82, 108
1, 101944, Note_off_c, 0, 82, 108
1, 101944, End_track
0, 0, End_of_file
