0, 0, Header, 1, 1, 192
1, 0, Start_track
1, 0, Title_t, "Melody"
1, 0, Tempo, 304568
1, 0, Key_signature, 0, "major"
1, 0, Time_signature, 4, 2, 24, 8
1, 1714, Note_on_c, 0, 58, 119
1, 1940, Note_off_c, 0, 58, 119
1, 1945, Note_on_c, 0, 57, 112
1, 1982, Note_off_c, 0, 57, 112
1, 1995, Note_on_c, 0, 55, 100
1, 2019, Note_off_c, 0, 55, 100
1, 2024, Note_on_c, 0, 54, 105
1, 2045, Note_off_c, 0, 54, 105
1, 2058, Note_on_c, 0, 53, 109
1, 2092, Note_off_c, 0, 53, 109
1, 2097, Note_on_c, 0, 52, 110
1, 2657, Note_off_c, 0, 52, 110
1, 2664, Note_on_c, 0, 54, 114
1, 2778, Note_off_c, 0, 54, 114
1, 2788, Note_on_c, 0, 55, 116
1, 2890, Note_off_c, 0, 55, 116
1, 4136, Note_on_c, 0, 58, 114
1, 4200, Note_off_c, 0, 58, 114
1, 4396, Note_on_c, 0, 58, 117
1, 4579, Note_off_c, 0, 58, 117
1, 4587, Note_on_c, 0, 60, 113
1, 4692, Note_off_c, 0, 60, 113
1, 4728, Note_on_c, 0, 58, 102
1, 4771, Note_off_c, 0, 58, 102
1, 4784, Note_on_c, 0, 61, 114
1, 4955, Note_off_c, 0, 61, 114
1, 4965, Note_on_c, 0, 63, 113
1, 5083, Note_off_c, 0, 63, 113
1, 5117, Note_on_c, 0, 63, 91
1, 5147, Note_off_c, 0, 63, 91
1, 5152, Note_on_c, 0, 64, 109
1, 5514, Note_off_c, 0, 64, 109
1, 5531, Note_on_c, 0, 65, 96
1, 5551, Note_off_c, 0, 65, 96
1, 5555, Note_on_c, 0, 66, 114
1, 5673, Note_off_c, 0, 66, 114
1, 5698, Note_on_c, 0, 63, 100
1, 5731, Note_off_c, 0, 63, 100
1, 5738, Note_on_c, 0, 67, 116
1, 6106, Note_off_c, 0, 67, 116
1, 6114, Note_on_c, 0, 69, 121
1, 6246, Note_off_c, 0, 69, 121
1, 6268, Note_on_c, 0, 67, 100
1, 6300, Note_off_c, 0, 67, 100
1, 6317, Note_on_c, 0, 70, 118
1, 6487, Note_off_c, 0, 70, 118
1, 6497, Note_on_c, 0, 72, 120
1, 6625, Note_off_c, 0, 72, 120
1, 6682, Note_on_c, 0, 74, 118
1, 6711, Note_off_c, 0, 74, 118
1, 6723, Note_on_c, 0, 75, 119
1, 7659, Note_off_c, 0, 75, 119
1, 7669, Note_on_c, 0, 76, 117
1, 7733, Note_off_c, 0, 76, 117
1, 7767, Note_on_c, 0, 70, 93
1, 8164, Note_off_c, 0, 70, 93
1, 9366, Note_on_c, 0, 78, 122
1, 9472, Note_off_c, 0, 78, 122
1, 9671, Note_on_c, 0, 75, 120
1, 9936, Note_off_c, 0, 75, 120
1, 9954, Note_on_c, 0, 76, 119
1, 10324, Note_off_c, 0, 76, 119
1, 10336, Note_on_c, 0, 75, 119
1, 10453, Note_off_c, 0, 75, 119
1, 10460, Note_on_c, 0, 73, 99
1, 10515, Note_off_c, 0, 73, 99
1, 10538, Note_on_c, 0, 74, 117
1, 10624, Note_off_c, 0, 74, 117
1, 10649, Note_on_c, 0, 74, 120
1, 10709, Note_off_c, 0, 74, 120
1, 10712, Note_on_c, 0, 76, 120
1, 10826, Note_off_c, 0, 76, 120
1, 10835, Note_on_c, 0, 69, 83
1, 10880, Note_off_c, 0, 69, 83
1, 10892, Note_on_c, 0, 77, 122
1, 11017, Note_off_c, 0, 77, 122
1, 11027, Note_on_c, 0, 79, 118
1, 11130, Note_off_c, 0, 79, 118
1, 11197, Note_on_c, 0, 83, 123
1, 11267, Note_off_c, 0, 83, 123
1, 11274, Note_on_c, 0, 84, 117
1, 11344, Note_off_c, 0, 84, 117
1, 11497, Note_on_c, 0, 80, 118
1, 11614, Note_off_c, 0, 80, 118
1, 11794, Note_on_c, 0, 79, 121
1, 11890, Note_off_c, 0, 79, 121
1, 12036, Note_on_c, 0, 77, 118
1, 12325, Note_off_c, 0, 77, 118
1, 12357, Note_on_c, 0, 74, 113
1, 12434, Note_off_c, 0, 74, 113
1, 12442, Note_on_c, 0, 72, 112
1, 12518, Note_off_c, 0, 72, 112
1, 12536, Note_on_c, 0, 72, 114
1, 12583, Note_off_c, 0, 72, 114
1, 12600, Note_on_c, 0, 73, 116
1, 12695, Note_off_c, 0, 73, 116
1, 12724, Note_on_c, 0, 70, 97
1, 12756, Note_off_c, 0, 70, 97
1, 12768, Note_on_c, 0, 72, 111
1, 12932, Note_off_c, 0, 72, 111
1, 12949, Note_on_c, 0, 67, 110
1, 13049, Note_off_c, 0, 67, 110
1, 13077, Note_on_c, 0, 65, 101
1, 13136, Note_off_c, 0, 65, 101
1, 13146, Note_on_c, 0, 70, 112
1, 13242, Note_off_c, 0, 70, 112
1, 13269, Note_on_c, 0, 72, 113
1, 13329, Note_off_c, 0, 72, 113
1, 13444, Note_on_c, 0, 65, 111
1, 13482, Note_off_c, 0, 65, 111
1, 13534, Note_on_c, 0, 75, 110
1, 13563, Note_off_c, 0, 75, 110
1, 13573, Note_on_c, 0, 76, 112
1, 13817, Note_off_c, 0, 76, 112
1, 13856, Note_on_c, 0, 67, 106
1, 13895, Note_off_c, 0, 67, 106
1, 14013, Note_on_c, 0, 70, 114
1, 14094, Note_off_c, 0, 70, 114
1, 14216, Note_on_c, 0, 64, 85
1, 14248, Note_off_c, 0, 64, 85
1, 14305, Note_on_c, 0, 76, 113
1, 14576, Note_off_c, 0, 76, 113
1, 14605, Note_on_c, 0, 67, 100
1, 14640, Note_off_c, 0, 67, 100
1, 14685, Note_on_c, 0, 70, 107
1, 14748, Note_off_c, 0, 70, 107
1, 14833, Note_on_c, 0, 74, 119
1, 14862, Note_off_c, 0, 74, 119
1, 14870, Note_on_c, 0, 76, 105
1, 15156, Note_off_c, 0, 76, 105
1, 15168, Note_on_c, 0, 67, 99
1, 15216, Note_off_c, 0, 67, 99
1, 15224, Note_on_c, 0, 70, 107
1, 15334, Note_off_c, 0, 70, 107
1, 15397, Note_on_c, 0, 76, 108
1, 15559, Note_off_c, 0, 76, 108
1, 15604, Note_on_c, 0, 67, 94
1, 15728, Note_off_c, 0, 67, 94
1, 15739, Note_on_c, 0, 70, 112
1, 16341, Note_off_c, 0, 70, 112
1, 16351, Note_on_c, 0, 67, 114
1, 16460, Note_off_c, 0, 67, 114
1, 16484, Note_on_c, 0, 61, 101
1, 16534, Note_off_c, 0, 61, 101
1, 16562, Note_on_c, 0, 64, 107
1, 16640, Note_off_c, 0, 64, 107
1, 16664, Note_on_c, 0, 61, 105
1, 16732, Note_off_c, 0, 61, 105
1, 16742, Note_on_c, 0, 58, 112
1, 16821, Note_off_c, 0, 58, 112
1, 16832, Note_on_c, 0, 55, 105
1, 16909, Note_off_c, 0, 55, 105
1, 16926, Note_on_c, 0, 52, 100
1, 16996, Note_off_c, 0, 52, 100
1, 18422, Note_on_c, 0, 78, 116
1, 18561, Note_off_c, 0, 78, 116
1, 18614, Note_on_c, 0, 75, 103
1, 18679, Note_off_c, 0, 75, 103
1, 18699, Note_on_c, 0, 76, 115
1, 18951, Note_off_c, 0, 76, 115
1, 18974, Note_on_c, 0, 76, 117
1, 19135, Note_off_c, 0, 76, 117
1, 19182, Note_on_c, 0, 73, 102
1, 19255, Note_off_c, 0, 73, 102
1, 19271, Note_on_c, 0, 75, 114
1, 19521, Note_off_c, 0, 75, 114
1, 19555, Note_on_c, 0, 78, 115
1, 19726, Note_off_c, 0, 78, 115
1, 19745, Note_on_c, 0, 78, 96
1, 19786, Note_off_c, 0, 78, 96
1, 19844, Note_on_c, 0, 76, 115
1, 20094, Note_off_c, 0, 76, 115
1, 20122, Note_on_c, 0, 76, 116
1, 20291, Note_off_c, 0, 76, 116
1, 20310, Note_on_c, 0, 73, 96
1, 20399, Note_off_c, 0, 73, 96
1, 20418, Note_on_c, 0, 75, 115
1, 20868, Note_off_c, 0, 75, 115
1, 20900, Note_on_c, 0, 78, 115
1, 20979, Note_off_c, 0, 78, 115
1, 21003, Note_on_c, 0, 75, 97
1, 21061, Note_off_c, 0, 75, 97
1, 21065, Note_on_c, 0, 76, 114
1, 21366, Note_off_c, 0, 76, 114
1, 21398, Note_on_c, 0, 76, 117
1, 21473, Note_off_c, 0, 76, 117
1, 21480, Note_on_c, 0, 73, 109
1, 21560, Note_off_c, 0, 73, 109
1, 21587, Note_on_c, 0, 75, 115
1, 21830, Note_off_c, 0, 75, 115
1, 21866, Note_on_c, 0, 76, 117
1, 21962, Note_off_c, 0, 76, 117
1, 21982, Note_on_c, 0, 73, 93
1, 22028, Note_off_c, 0, 73, 93
1, 22041, Note_on_c, 0, 75, 113
1, 22578, Note_off_c, 0, 75, 113
1, 22616, Note_on_c, 0, 74, 112
1, 22690, Note_off_c, 0, 74, 112
1, 22710, Note_on_c, 0, 74, 115
1, 22772, Note_off_c, 0, 74, 115
1, 22781, Note_on_c, 0, 73, 112
1, 22866, Note_off_c, 0, 73, 112
1, 22896, Note_on_c, 0, 73, 116
1, 22962, Note_off_c, 0, 73, 116
1, 22982, Note_on_c, 0, 72, 112
1, 23054, Note_off_c, 0, 72, 112
1, 23066, Note_on_c, 0, 68, 108
1, 23126, Note_off_c, 0, 68, 108
1, 23312, Note_on_c, 0, 67, 112
1, 23481, Note_off_c, 0, 67, 112
1, 23489, Note_on_c, 0, 68, 111
1, 23628, Note_off_c, 0, 68, 111
1, 23664, Note_on_c, 0, 65, 104
1, 23697, Note_off_c, 0, 65, 104
1, 23714, Note_on_c, 0, 68, 112
1, 23813, Note_off_c, 0, 68, 112
1, 23829, Note_on_c, 0, 68, 116
1, 23891, Note_off_c, 0, 68, 116
1, 23906, Note_on_c, 0, 67, 114
1, 24004, Note_off_c, 0, 67, 114
1, 24022, Note_on_c, 0, 66, 113
1, 24086, Note_off_c, 0, 66, 113
1, 24103, Note_on_c, 0, 65, 109
1, 24188, Note_off_c, 0, 65, 109
1, 24215, Note_on_c, 0, 62, 106
1, 24270, Note_off_c, 0, 62, 106
1, 24278, Note_on_c, 0, 58, 98
1, 24380, Note_off_c, 0, 58, 98
1, 24390, Note_on_c, 0, 55, 95
1, 24474, Note_off_c, 0, 55, 95
1, 24482, Note_on_c, 0, 56, 98
1, 24679, Note_off_c, 0, 56, 98
1, 25710, Note_on_c, 0, 56, 109
1, 25785, Note_off_c, 0, 56, 109
1, 25797, Note_on_c, 0, 57, 107
1, 25884, Note_off_c, 0, 57, 107
1, 25896, Note_on_c, 0, 60, 103
1, 25975, Note_off_c, 0, 60, 103
1, 26088, Note_on_c, 0, 57, 113
1, 26153, Note_off_c, 0, 57, 113
1, 26164, Note_on_c, 0, 55, 103
1, 26256, Note_off_c, 0, 55, 103
1, 26293, Note_on_c, 0, 53, 88
1, 26349, Note_off_c, 0, 53, 88
1, 26363, Note_on_c, 0, 55, 93
1, 26466, Note_off_c, 0, 55, 93
1, 26472, Note_on_c, 0, 57, 104
1, 26533, Note_off_c, 0, 57, 104
1, 26548, Note_on_c, 0, 60, 92
1, 26637, Note_off_c, 0, 60, 92
1, 26671, Note_on_c, 0, 62, 103
1, 26733, Note_off_c, 0, 62, 103
1, 26774, Note_on_c, 0, 63, 102
1, 26837, Note_off_c, 0, 63, 102
1, 26849, Note_on_c, 0, 62, 92
1, 26911, Note_off_c, 0, 62, 92
1, 26930, Note_on_c, 0, 63, 106
1, 27044, Note_off_c, 0, 63, 106
1, 27058, Note_on_c, 0, 65, 116
1, 27133, Note_off_c, 0, 65, 116
1, 27177, Note_on_c, 0, 66, 98
1, 27249, Note_off_c, 0, 66, 98
1, 27257, Note_on_c, 0, 67, 105
1, 27318, Note_off_c, 0, 67, 105
1, 27350, Note_on_c, 0, 72, 117
1, 27444, Note_off_c, 0, 72, 117
1, 27474, Note_on_c, 0, 67, 98
1, 27516, Note_off_c, 0, 67, 98
1, 27530, Note_on_c, 0, 69, 112
1, 27614, Note_off_c, 0, 69, 112
1, 27702, Note_on_c, 0, 69, 108
1, 27908, Note_off_c, 0, 69, 108
1, 27937, Note_on_c, 0, 67, 98
1, 28025, Note_off_c, 0, 67, 98
1, 28039, Note_on_c, 0, 69, 116
1, 28096, Note_off_c, 0, 69, 116
1, 28101, Note_on_c, 0, 67, 111
1, 28201, Note_off_c, 0, 67, 111
1, 28256, Note_on_c, 0, 65, 101
1, 28308, Note_off_c, 0, 65, 101
1, 28428, Note_on_c, 0, 64, 110
1, 28457, Note_off_c, 0, 64, 110
1, 28461, Note_on_c, 0, 65, 104
1, 28686, Note_off_c, 0, 65, 104
1, 28711, Note_on_c, 0, 63, 105
1, 28799, Note_off_c, 0, 63, 105
1, 28814, Note_on_c, 0, 65, 118
1, 28871, Note_off_c, 0, 65, 118
1, 28880, Note_on_c, 0, 63, 108
1, 28997, Note_off_c, 0, 63, 108
1, 29069, Note_on_c, 0, 62, 91
1, 29144, Note_off_c, 0, 62, 91
1, 29277, Note_on_c, 0, 65, 108
1, 29353, Note_off_c, 0, 65, 108
1, 29483, Note_on_c, 0, 68, 101
1, 29577, Note_off_c, 0, 68, 101
1, 29678, Note_on_c, 0, 72, 111
1, 29765, Note_off_c, 0, 72, 111
1, 29883, Note_on_c, 0, 74, 119
1, 30001, Note_off_c, 0, 74, 119
1, 30011, Note_on_c, 0, 77, 122
1, 30084, Note_off_c, 0, 77, 122
1, 30186, Note_on_c, 0, 80, 103
1, 30586, Note_off_c, 0, 80, 103
1, 31750, Note_on_c, 0, 84, 120
1, 31831, Note_off_c, 0, 84, 120
1, 31872, Note_on_c, 0, 84, 120
1, 31901, Note_off_c, 0, 84, 120
1, 31906, Note_on_c, 0, 85, 119
1, 31963, Note_off_c, 0, 85, 119
1, 32004, Note_on_c, 0, 84, 109
1, 32036, Note_off_c, 0, 84, 109
1, 32038, Note_on_c, 0, 85, 126
1, 32129, Note_off_c, 0, 85, 126
1, 32140, Note_on_c, 0, 84, 122
1, 32229, Note_off_c, 0, 84, 122
1, 32241, Note_on_c, 0, 82, 114
1, 32327, Note_off_c, 0, 82, 114
1, 32337, Note_on_c, 0, 80, 120
1, 32430, Note_off_c, 0, 80, 120
1, 32443, Note_on_c, 0, 79, 113
1, 32528, Note_off_c, 0, 79, 113
1, 32535, Note_on_c, 0, 77, 122
1, 32613, Note_off_c, 0, 77, 122
1, 32631, Note_on_c, 0, 75, 120
1, 32721, Note_off_c, 0, 75, 120
1, 32730, Note_on_c, 0, 74, 121
1, 32803, Note_off_c, 0, 74, 121
1, 32810, Note_on_c, 0, 73, 116
1, 32935, Note_off_c, 0, 73, 116
1, 32982, Note_on_c, 0, 65, 103
1, 33026, Note_off_c, 0, 65, 103
1, 33029, Note_on_c, 0, 68, 100
1, 33115, Note_off_c, 0, 68, 100
1, 33191, Note_on_c, 0, 72, 118
1, 33352, Note_off_c, 0, 72, 118
1, 33382, Note_on_c, 0, 74, 99
1, 33414, Note_off_c, 0, 74, 99
1, 33418, Note_on_c, 0, 76, 119
1, 33798, Note_off_c, 0, 76, 119
1, 33817, Note_on_c, 0, 76, 116
1, 34170, Note_off_c, 0, 76, 116
1, 34195, Note_on_c, 0, 76, 119
1, 34505, Note_off_c, 0, 76, 119
1, 34542, Note_on_c, 0, 65, 98
1, 34578, Note_off_c, 0, 65, 98
1, 34595, Note_on_c, 0, 68, 96
1, 34701, Note_off_c, 0, 68, 96
1, 34713, Note_on_c, 0, 72, 113
1, 34763, Note_off_c, 0, 72, 113
1, 34877, Note_on_c, 0, 75, 118
1, 35080, Note_off_c, 0, 75, 118
1, 35142, Note_on_c, 0, 65, 94
1, 35183, Note_off_c, 0, 65, 94
1, 35190, Note_on_c, 0, 68, 100
1, 35249, Note_off_c, 0, 68, 100
1, 35282, Note_on_c, 0, 72, 116
1, 35355, Note_off_c, 0, 72, 116
1, 35472, Note_on_c, 0, 76, 122
1, 35675, Note_off_c, 0, 76, 122
1, 35684, Note_on_c, 0, 65, 104
1, 35728, Note_off_c, 0, 65, 104
1, 35758, Note_on_c, 0, 68, 96
1, 35844, Note_off_c, 0, 68, 96
1, 35866, Note_on_c, 0, 72, 117
1, 35918, Note_off_c, 0, 72, 117
1, 36605, Note_on_c, 0, 76, 120
1, 36690, Note_off_c, 0, 76, 120
1, 36795, Note_on_c, 0, 75, 120
1, 36871, Note_off_c, 0, 75, 120
1, 36988, Note_on_c, 0, 72, 118
1, 37064, Note_off_c, 0, 72, 118
1, 37182, Note_on_c, 0, 73, 115
1, 37277, Note_off_c, 0, 73, 115
1, 37376, Note_on_c, 0, 67, 114
1, 37444, Note_off_c, 0, 67, 114
1, 37576, Note_on_c, 0, 70, 10
1, 37644, Note_off_c, 0, 70, 10
1, 37789, Note_on_c, 0, 65, 102
1, 37853, Note_off_c, 0, 65, 102
1, 37867, Note_on_c, 0, 67, 118
1, 37950, Note_off_c, 0, 67, 118
1, 37996, Note_on_c, 0, 65, 96
1, 38030, Note_off_c, 0, 65, 96
1, 38037, Note_on_c, 0, 69, 102
1, 38228, Note_off_c, 0, 69, 102
1, 38236, Note_on_c, 0, 70, 118
1, 39408, Note_off_c, 0, 70, 118
1, 39428, Note_on_c, 0, 72, 114
1, 39530, Note_off_c, 0, 72, 114
1, 39542, Note_on_c, 0, 70, 102
1, 39579, Note_off_c, 0, 70, 102
1, 39589, Note_on_c, 0, 75, 118
1, 39861, Note_off_c, 0, 75, 118
1, 39882, Note_on_c, 0, 75, 119
1, 39932, Note_off_c, 0, 75, 119
1, 41154, Note_on_c, 0, 78, 118
1, 41317, Note_off_c, 0, 78, 118
1, 41323, Note_on_c, 0, 76, 112
1, 41366, Note_off_c, 0, 76, 112
1, 41441, Note_on_c, 0, 76, 118
1, 41623, Note_off_c, 0, 76, 118
1, 41642, Note_on_c, 0, 75, 100
1, 41681, Note_off_c, 0, 75, 100
1, 41723, Note_on_c, 0, 76, 121
1, 41887, Note_off_c, 0, 76, 121
1, 41903, Note_on_c, 0, 75, 118
1, 41978, Note_off_c, 0, 75, 118
1, 42021, Note_on_c, 0, 75, 119
1, 42219, Note_off_c, 0, 75, 119
1, 42256, Note_on_c, 0, 72, 99
1, 42286, Note_off_c, 0, 72, 99
1, 42301, Note_on_c, 0, 73, 119
1, 42405, Note_off_c, 0, 73, 119
1, 42421, Note_on_c, 0, 63, 103
1, 42474, Note_off_c, 0, 63, 103
1, 42484, Note_on_c, 0, 67, 101
1, 42577, Note_off_c, 0, 67, 101
1, 42584, Note_on_c, 0, 69, 121
1, 42650, Note_off_c, 0, 69, 121
1, 42669, Note_on_c, 0, 70, 119
1, 42750, Note_off_c, 0, 70, 119
1, 42759, Note_on_c, 0, 67, 117
1, 42838, Note_off_c, 0, 67, 117
1, 42866, Note_on_c, 0, 61, 106
1, 42954, Note_off_c, 0, 61, 106
1, 42987, Note_on_c, 0, 56, 99
1, 43026, Note_off_c, 0, 56, 99
1, 43028, Note_on_c, 0, 58, 113
1, 43807, Note_off_c, 0, 58, 113
1, 43820, Note_on_c, 0, 57, 101
1, 43861, Note_off_c, 0, 57, 101
1, 43865, Note_on_c, 0, 56, 109
1, 43912, Note_off_c, 0, 56, 109
1, 43918, Note_on_c, 0, 55, 113
1, 43961, Note_off_c, 0, 55, 113
1, 43973, Note_on_c, 0, 54, 109
1, 43998, Note_off_c, 0, 54, 109
1, 44008, Note_on_c, 0, 53, 106
1, 44040, Note_off_c, 0, 53, 106
1, 44053, Note_on_c, 0, 52, 102
1, 45289, Note_off_c, 0, 52, 102
1, 45300, Note_on_c, 0, 54, 106
1, 45464, Note_off_c, 0, 54, 106
1, 45475, Note_on_c, 0, 52, 100
1, 45577, Note_off_c, 0, 52, 100
1, 45588, Note_on_c, 0, 55, 102
1, 46006, Note_off_c, 0, 55, 102
1, 46931, Note_on_c, 0, 54, 107
1, 46988, Note_off_c, 0, 54, 107
1, 46999, Note_on_c, 0, 56, 114
1, 47083, Note_off_c, 0, 56, 114
1, 47095, Note_on_c, 0, 53, 111
1, 47172, Note_off_c, 0, 53, 111
1, 47303, Note_on_c, 0, 56, 109
1, 47363, Note_off_c, 0, 56, 109
1, 47368, Note_on_c, 0, 60, 98
1, 47446, Note_off_c, 0, 60, 98
1, 47464, Note_on_c, 0, 56, 108
1, 47534, Note_off_c, 0, 56, 108
1, 47663, Note_on_c, 0, 60, 106
1, 47718, Note_off_c, 0, 60, 106
1, 47731, Note_on_c, 0, 63, 113
1, 47840, Note_off_c, 0, 63, 113
1, 47863, Note_on_c, 0, 60, 96
1, 47919, Note_off_c, 0, 60, 96
1, 47933, Note_on_c, 0, 61, 95
1, 48011, Note_off_c, 0, 61, 95
1, 48032, Note_on_c, 0, 64, 107
1, 48103, Note_off_c, 0, 64, 107
1, 48121, Note_on_c, 0, 65, 107
1, 48193, Note_off_c, 0, 65, 107
1, 48214, Note_on_c, 0, 67, 115
1, 48282, Note_off_c, 0, 67, 115
1, 48287, Note_on_c, 0, 68, 114
1, 48391, Note_off_c, 0, 68, 114
1, 48402, Note_on_c, 0, 67, 99
1, 48454, Note_off_c, 0, 67, 99
1, 48465, Note_on_c, 0, 70, 117
1, 48568, Note_off_c, 0, 70, 117
1, 48649, Note_on_c, 0, 68, 112
1, 48735, Note_off_c, 0, 68, 112
1, 48752, Note_on_c, 0, 70, 118
1, 48829, Note_off_c, 0, 70, 118
1, 49145, Note_on_c, 0, 72, 113
1, 49207, Note_off_c, 0, 72, 113
1, 49228, Note_on_c, 0, 73, 117
1, 49300, Note_off_c, 0, 73, 117
1, 49332, Note_on_c, 0, 74, 121
1, 49400, Note_off_c, 0, 74, 121
1, 49404, Note_on_c, 0, 75, 120
1, 49510, Note_off_c, 0, 75, 120
1, 49586, Note_on_c, 0, 76, 121
1, 49698, Note_off_c, 0, 76, 121
1, 49776, Note_on_c, 0, 77, 120
1, 49875, Note_off_c, 0, 77, 120
1, 49957, Note_on_c, 0, 79, 118
1, 50057, Note_off_c, 0, 79, 118
1, 50151, Note_on_c, 0, 82, 100
1, 50223, Note_off_c, 0, 82, 100
1, 50234, Note_on_c, 0, 86, 91
1, 50298, Note_off_c, 0, 86, 91
1, 50448, Note_on_c, 0, 82, 119
1, 51501, Note_off_c, 0, 82, 119
1, 51502, Note_on_c, 0, 84, 125
1, 51620, Note_off_c, 0, 84, 125
1, 51628, Note_on_c, 0, 87, 105
1, 51711, Note_off_c, 0, 87, 105
1, 53192, Note_on_c, 0, 82, 90
1, 53237, Note_off_c, 0, 82, 90
1, 53292, Note_on_c, 0, 84, 117
1, 53344, Note_off_c, 0, 84, 117
1, 53348, Note_on_c, 0, 86, 107
1, 53414, Note_off_c, 0, 86, 107
1, 53422, Note_on_c, 0, 87, 116
1, 53497, Note_off_c, 0, 87, 116
1, 53500, Note_on_c, 0, 86, 120
1, 53644, Note_off_c, 0, 86, 120
1, 53648, Note_on_c, 0, 87, 120
1, 53776, Note_off_c, 0, 87, 120
1, 53818, Note_on_c, 0, 85, 125
1, 53941, Note_off_c, 0, 85, 125
1, 53991, Note_on_c, 0, 84, 121
1, 54098, Note_off_c, 0, 84, 121
1, 54146, Note_on_c, 0, 83, 123
1, 54234, Note_off_c, 0, 83, 123
1, 54246, Note_on_c, 0, 82, 121
1, 54339, Note_off_c, 0, 82, 121
1, 54351, Note_on_c, 0, 80, 119
1, 54430, Note_off_c, 0, 80, 119
1, 54453, Note_on_c, 0, 79, 107
1, 54516, Note_off_c, 0, 79, 107
1, 54539, Note_on_c, 0, 78, 115
1, 54616, Note_off_c, 0, 78, 115
1, 54633, Note_on_c, 0, 76, 117
1, 54714, Note_off_c, 0, 76, 117
1, 54720, Note_on_c, 0, 75, 113
1, 54755, Note_off_c, 0, 75, 113
1, 54780, Note_on_c, 0, 75, 105
1, 54823, Note_off_c, 0, 75, 105
1, 54846, Note_on_c, 0, 76, 116
1, 54923, Note_off_c, 0, 76, 116
1, 54933, Note_on_c, 0, 78, 118
1, 55007, Note_off_c, 0, 78, 118
1, 55018, Note_on_c, 0, 79, 114
1, 55095, Note_off_c, 0, 79, 114
1, 55111, Note_on_c, 0, 81, 123
1, 55190, Note_off_c, 0, 81, 123
1, 55201, Note_on_c, 0, 82, 121
1, 55298, Note_off_c, 0, 82, 121
1, 55305, Note_on_c, 0, 84, 122
1, 55386, Note_off_c, 0, 84, 122
1, 55407, Note_on_c, 0, 86, 119
1, 55531, Note_off_c, 0, 86, 119
1, 55581, Note_on_c, 0, 85, 122
1, 55686, Note_off_c, 0, 85, 122
1, 55954, Note_on_c, 0, 85, 117
1, 56090, Note_off_c, 0, 85, 117
1, 56119, Note_on_c, 0, 84, 110
1, 56516, Note_off_c, 0, 84, 110
1, 56580, Note_on_c, 0, 85, 116
1, 56667, Note_off_c, 0, 85, 116
1, 56699, Note_on_c, 0, 84, 96
1, 56758, Note_off_c, 0, 84, 96
1, 56765, Note_on_c, 0, 85, 117
1, 56857, Note_off_c, 0, 85, 117
1, 56877, Note_on_c, 0, 84, 125
1, 56955, Note_off_c, 0, 84, 125
1, 56982, Note_on_c, 0, 82, 115
1, 57063, Note_off_c, 0, 82, 115
1, 57072, Note_on_c, 0, 82, 118
1, 57148, Note_off_c, 0, 82, 118
1, 57175, Note_on_c, 0, 79, 111
1, 57255, Note_off_c, 0, 79, 111
1, 57265, Note_on_c, 0, 78, 119
1, 57352, Note_off_c, 0, 78, 119
1, 57364, Note_on_c, 0, 76, 114
1, 57473, Note_off_c, 0, 76, 114
1, 57520, Note_on_c, 0, 71, 103
1, 57559, Note_off_c, 0, 71, 103
1, 57567, Note_on_c, 0, 72, 101
1, 57648, Note_off_c, 0, 72, 101
1, 57738, Note_on_c, 0, 76, 99
1, 57834, Note_off_c, 0, 76, 99
1, 57918, Note_on_c, 0, 77, 117
1, 58040, Note_off_c, 0, 77, 117
1, 58055, Note_on_c, 0, 78, 117
1, 58146, Note_off_c, 0, 78, 117
1, 58255, Note_on_c, 0, 77, 118
1, 58333, Note_off_c, 0, 77, 118
1, 58429, Note_on_c, 0, 76, 117
1, 58507, Note_off_c, 0, 76, 117
1, 58630, Note_on_c, 0, 75, 119
1, 58703, Note_off_c, 0, 75, 119
1, 58832, Note_on_c, 0, 72, 101
1, 58886, Note_off_c, 0, 72, 101
1, 58907, Note_on_c, 0, 73, 118
1, 59013, Note_off_c, 0, 73, 118
1, 59045, Note_on_c, 0, 71, 95
1, 59086, Note_off_c, 0, 71, 95
1, 59100, Note_on_c, 0, 72, 106
1, 59193, Note_off_c, 0, 72, 106
1, 59206, Note_on_c, 0, 70, 119
1, 59263, Note_off_c, 0, 70, 119
1, 59282, Note_on_c, 0, 69, 98
1, 59389, Note_off_c, 0, 69, 98
1, 59410, Note_on_c, 0, 67, 102
1, 59451, Note_off_c, 0, 67, 102
1, 59486, Note_on_c, 0, 68, 104
1, 59562, Note_off_c, 0, 68, 104
1, 59665, Note_on_c, 0, 62, 93
1, 59766, Note_off_c, 0, 62, 93
1, 59783, Note_on_c, 0, 64, 106
1, 59837, Note_off_c, 0, 64, 106
1, 59869, Note_on_c, 0, 67, 100
1, 59959, Note_off_c, 0, 67, 100
1, 59979, Note_on_c, 0, 65, 93
1, 60039, Note_off_c, 0, 65, 93
1, 60048, Note_on_c, 0, 68, 104
1, 60142, Note_off_c, 0, 68, 104
1, 60248, Note_on_c, 0, 72, 106
1, 60332, Note_off_c, 0, 72, 106
1, 60425, Note_on_c, 0, 77, 116
1, 60534, Note_off_c, 0, 77, 116
1, 60630, Note_on_c, 0, 80, 118
1, 60741, Note_off_c, 0, 80, 118
1, 60773, Note_on_c, 0, 86, 86
1, 60811, Note_off_c, 0, 86, 86
1, 60937, Note_on_c, 0, 80, 103
1, 61154, Note_off_c, 0, 80, 103
1, 61182, Note_on_c, 0, 80, 107
1, 61257, Note_off_c, 0, 80, 107
1, 61311, Note_on_c, 0, 79, 117
1, 61381, Note_off_c, 0, 79, 117
1, 61405, Note_on_c, 0, 77, 110
1, 61507, Note_off_c, 0, 77, 110
1, 62910, Note_on_c, 0, 78, 116
1, 63001, Note_off_c, 0, 78, 116
1, 63294, Note_on_c, 0, 76, 122
1, 63688, Note_off_c, 0, 76, 122
1, 63700, Note_on_c, 0, 78, 119
1, 63957, Note_off_c, 0, 78, 119
1, 64004, Note_on_c, 0, 70, 108
1, 64067, Note_off_c, 0, 70, 108
1, 64858, Note_on_c, 0, 78, 120
1, 65017, Note_off_c, 0, 78, 120
1, 65055, Note_on_c, 0, 76, 103
1, 65136, Note_off_c, 0, 76, 103
1, 65163, Note_on_c, 0, 78, 118
1, 65327, Note_off_c, 0, 78, 118
1, 65351, Note_on_c, 0, 76, 110
1, 65397, Note_off_c, 0, 76, 110
1, 65451, Note_on_c, 0, 76, 121
1, 65610, Note_off_c, 0, 76, 121
1, 65640, Note_on_c, 0, 75, 102
1, 65715, Note_off_c, 0, 75, 102
1, 65738, Note_on_c, 0, 76, 118
1, 66010, Note_off_c, 0, 76, 118
1, 66022, Note_on_c, 0, 75, 120
1, 66094, Note_off_c, 0, 75, 120
1, 66193, Note_on_c, 0, 76, 119
1, 66310, Note_off_c, 0, 76, 119
1, 66324, Note_on_c, 0, 74, 99
1, 66361, Note_off_c, 0, 74, 99
1, 66380, Note_on_c, 0, 78, 114
1, 66484, Note_off_c, 0, 78, 114
1, 66502, Note_on_c, 0, 75, 99
1, 66541, Note_off_c, 0, 75, 99
1, 66553, Note_on_c, 0, 79, 119
1, 66667, Note_off_c, 0, 79, 119
1, 66865, Note_on_c, 0, 78, 120
1, 66940, Note_off_c, 0, 78, 120
1, 67051, Note_on_c, 0, 76, 119
1, 67128, Note_off_c, 0, 76, 119
1, 67230, Note_on_c, 0, 75, 120
1, 67335, Note_off_c, 0, 75, 120
1, 67461, Note_on_c, 0, 65, 92
1, 67493, Note_off_c, 0, 65, 92
1, 67523, Note_on_c, 0, 76, 115
1, 67620, Note_off_c, 0, 76, 115
1, 67655, Note_on_c, 0, 71, 95
1, 67687, Note_off_c, 0, 71, 95
1, 67697, Note_on_c, 0, 75, 119
1, 67785, Note_off_c, 0, 75, 119
1, 67853, Note_on_c, 0, 72, 103
1, 67881, Note_off_c, 0, 72, 103
1, 67888, Note_on_c, 0, 73, 116
1, 67969, Note_off_c, 0, 73, 116
1, 68184, Note_on_c, 0, 75, 121
1, 68274, Note_off_c, 0, 75, 121
1, 68368, Note_on_c, 0, 76, 119
1, 68452, Note_off_c, 0, 76, 119
1, 68565, Note_on_c, 0, 70, 112
1, 68630, Note_off_c, 0, 70, 112
1, 68830, Note_on_c, 0, 72, 116
1, 68930, Note_off_c, 0, 72, 116
1, 69009, Note_on_c, 0, 75, 118
1, 69967, Note_off_c, 0, 75, 118
1, 69985, Note_on_c, 0, 73, 119
1, 70103, Note_off_c, 0, 73, 119
1, 70171, Note_on_c, 0, 63, 103
1, 70303, Note_off_c, 0, 63, 103
1, 70305, Note_on_c, 0, 64, 104
1, 70558, Note_off_c, 0, 64, 104
1, 70600, Note_on_c, 0, 64, 103
1, 70944, Note_off_c, 0, 64, 103
1, 70969, Note_on_c, 0, 64, 105
1, 71327, Note_off_c, 0, 64, 105
1, 71369, Note_on_c, 0, 67, 115
1, 71448, Note_off_c, 0, 67, 115
1, 71468, Note_on_c, 0, 65, 114
1, 71518, Note_off_c, 0, 65, 114
1, 71535, Note_on_c, 0, 64, 105
1, 71649, Note_off_c, 0, 64, 105
1, 71730, Note_on_c, 0, 64, 104
1, 71910, Note_off_c, 0, 64, 104
1, 71927, Note_on_c, 0, 65, 111
1, 72045, Note_off_c, 0, 65, 111
1, 72118, Note_on_c, 0, 67, 106
1, 72235, Note_off_c, 0, 67, 106
1, 72306, Note_on_c, 0, 68, 113
1, 72424, Note_off_c, 0, 68, 113
1, 72446, Note_on_c, 0, 65, 98
1, 72498, Note_off_c, 0, 65, 98
1, 72509, Note_on_c, 0, 70, 114
1, 72892, Note_off_c, 0, 70, 114
1, 72903, Note_on_c, 0, 72, 107
1, 72992, Note_off_c, 0, 72, 107
1, 73023, Note_on_c, 0, 68, 109
1, 73072, Note_off_c, 0, 68, 109
1, 73107, Note_on_c, 0, 65, 102
1, 73188, Note_off_c, 0, 65, 102
1, 73228, Note_on_c, 0, 62, 91
1, 73283, Note_off_c, 0, 62, 91
1, 73292, Note_on_c, 0, 64, 97
1, 73434, Note_off_c, 0, 64, 97
1, 73455, Note_on_c, 0, 65, 111
1, 73571, Note_off_c, 0, 65, 111
1, 73586, Note_on_c, 0, 67, 91
1, 73830, Note_off_c, 0, 67, 91
1, 74981, Note_on_c, 0, 79, 122
1, 75077, Note_off_c, 0, 79, 122
1, 75089, Note_on_c, 0, 80, 123
1, 75175, Note_off_c, 0, 80, 123
1, 75185, Note_on_c, 0, 81, 10
1, 75280, Note_off_c, 0, 81, 10
1, 75285, Note_on_c, 0, 78, 10
1, 75372, Note_off_c, 0, 78, 10
1, 75389, Note_on_c, 0, 75, 117
1, 75478, Note_off_c, 0, 75, 117
1, 75490, Note_on_c, 0, 76, 127
1, 75566, Note_off_c, 0, 76, 127
1, 75582, Note_on_c, 0, 77, 122
1, 75678, Note_off_c, 0, 77, 122
1, 75688, Note_on_c, 0, 76, 114
1, 75769, Note_off_c, 0, 76, 114
1, 75779, Note_on_c, 0, 75, 121
1, 75881, Note_off_c, 0, 75, 121
1, 75931, Note_on_c, 0, 72, 104
1, 75968, Note_off_c, 0, 72, 104
1, 75975, Note_on_c, 0, 74, 122
1, 76076, Note_off_c, 0, 74, 122
1, 76085, Note_on_c, 0, 72, 121
1, 76170, Note_off_c, 0, 72, 121
1, 76191, Note_on_c, 0, 71, 101
1, 76276, Note_off_c, 0, 71, 101
1, 76289, Note_on_c, 0, 69, 118
1, 76349, Note_off_c, 0, 69, 118
1, 76391, Note_on_c, 0, 68, 115
1, 76466, Note_off_c, 0, 68, 115
1, 76510, Note_on_c, 0, 65, 101
1, 76551, Note_off_c, 0, 65, 101
1, 76562, Note_on_c, 0, 69, 118
1, 76660, Note_off_c, 0, 69, 118
1, 76693, Note_on_c, 0, 65, 101
1, 76729, Note_off_c, 0, 65, 101
1, 76753, Note_on_c, 0, 71, 112
1, 76863, Note_off_c, 0, 71, 112
1, 76874, Note_on_c, 0, 69, 95
1, 76917, Note_off_c, 0, 69, 95
1, 76929, Note_on_c, 0, 72, 118
1, 77035, Note_off_c, 0, 72, 118
1, 77081, Note_on_c, 0, 74, 123
1, 77169, Note_off_c, 0, 74, 123
1, 77241, Note_on_c, 0, 75, 126
1, 77328, Note_off_c, 0, 75, 126
1, 77421, Note_on_c, 0, 76, 124
1, 77512, Note_off_c, 0, 76, 124
1, 77535, Note_on_c, 0, 77, 123
1, 77648, Note_off_c, 0, 77, 123
1, 77718, Note_on_c, 0, 79, 121
1, 77815, Note_off_c, 0, 79, 121
1, 77879, Note_on_c, 0, 77, 108
1, 77917, Note_off_c, 0, 77, 108
1, 77925, Note_on_c, 0, 79, 120
1, 77971, Note_off_c, 0, 79, 120
1, 77977, Note_on_c, 0, 80, 119
1, 78998, Note_off_c, 0, 80, 119
1, 79008, Note_on_c, 0, 79, 121
1, 79097, Note_off_c, 0, 79, 121
1, 79154, Note_on_c, 0, 80, 120
1, 79267, Note_off_c, 0, 80, 120
1, 79271, Note_on_c, 0, 79, 120
1, 79377, Note_off_c, 0, 79, 120
1, 79401, Note_on_c, 0, 74, 117
1, 79806, Note_off_c, 0, 74, 117
1, 79811, Note_on_c, 0, 72, 101
1, 79833, Note_off_c, 0, 72, 101
1, 79839, Note_on_c, 0, 74, 117
1, 79979, Note_off_c, 0, 74, 117
1, 79982, Note_on_c, 0, 75, 116
1, 80013, Note_off_c, 0, 75, 116
1, 80017, Note_on_c, 0, 72, 111
1, 80047, Note_off_c, 0, 72, 111
1, 80055, Note_on_c, 0, 67, 106
1, 80111, Note_off_c, 0, 67, 106
1, 81327, Note_on_c, 0, 85, 117
1, 81370, Note_off_c, 0, 85, 117
1, 81375, Note_on_c, 0, 84, 126
1, 81415, Note_off_c, 0, 84, 126
1, 81422, Note_on_c, 0, 82, 117
1, 81523, Note_off_c, 0, 82, 117
1, 81531, Note_on_c, 0, 80, 123
1, 81621, Note_off_c, 0, 80, 123
1, 81629, Note_on_c, 0, 79, 117
1, 81720, Note_off_c, 0, 79, 117
1, 81727, Note_on_c, 0, 77, 121
1, 81813, Note_off_c, 0, 77, 121
1, 81824, Note_on_c, 0, 75, 123
1, 81916, Note_off_c, 0, 75, 123
1, 81923, Note_on_c, 0, 74, 120
1, 81990, Note_off_c, 0, 74, 120
1, 82005, Note_on_c, 0, 73, 120
1, 82095, Note_off_c, 0, 73, 120
1, 82149, Note_on_c, 0, 86, 116
1, 82185, Note_off_c, 0, 86, 116
1, 82191, Note_on_c, 0, 84, 119
1, 82217, Note_off_c, 0, 84, 119
1, 82227, Note_on_c, 0, 82, 114
1, 82300, Note_off_c, 0, 82, 114
1, 82322, Note_on_c, 0, 80, 124
1, 82401, Note_off_c, 0, 80, 124
1, 82407, Note_on_c, 0, 79, 119
1, 82482, Note_off_c, 0, 79, 119
1, 82509, Note_on_c, 0, 77, 121
1, 82569, Note_off_c, 0, 77, 121
1, 82616, Note_on_c, 0, 85, 112
1, 82640, Note_off_c, 0, 85, 112
1, 82647, Note_on_c, 0, 86, 121
1, 82669, Note_off_c, 0, 86, 121
1, 82676, Note_on_c, 0, 84, 120
1, 82697, Note_off_c, 0, 84, 120
1, 82702, Note_on_c, 0, 82, 114
1, 82788, Note_off_c, 0, 82, 114
1, 82806, Note_on_c, 0, 80, 119
1, 82872, Note_off_c, 0, 80, 119
1, 82885, Note_on_c, 0, 79, 116
1, 82968, Note_off_c, 0, 79, 116
1, 82978, Note_on_c, 0, 77, 120
1, 83050, Note_off_c, 0, 77, 120
1, 83110, Note_on_c, 0, 86, 107
1, 83140, Note_off_c, 0, 86, 107
1, 83145, Note_on_c, 0, 84, 110
1, 83161, Note_off_c, 0, 84, 110
1, 83165, Note_on_c, 0, 82, 119
1, 83258, Note_off_c, 0, 82, 119
1, 83269, Note_on_c, 0, 80, 119
1, 83333, Note_off_c, 0, 80, 119
1, 83343, Note_on_c, 0, 79, 115
1, 83415, Note_off_c, 0, 79, 115
1, 83476, Note_on_c, 0, 85, 124
1, 83523, Note_off_c, 0, 85, 124
1, 83526, Note_on_c, 0, 84, 112
1, 83571, Note_off_c, 0, 84, 112
1, 83578, Note_on_c, 0, 82, 116
1, 83635, Note_off_c, 0, 82, 116
1, 83653, Note_on_c, 0, 81, 119
1, 83703, Note_off_c, 0, 81, 119
1, 83715, Note_on_c, 0, 80, 112
1, 83820, Note_off_c, 0, 80, 112
1, 83831, Note_on_c, 0, 79, 114
1, 83896, Note_off_c, 0, 79, 114
1, 83934, Note_on_c, 0, 77, 118
1, 83978, Note_off_c, 0, 77, 118
1, 84048, Note_on_c, 0, 86, 113
1, 84070, Note_off_c, 0, 86, 113
1, 84076, Note_on_c, 0, 84, 112
1, 84105, Note_off_c, 0, 84, 112
1, 84114, Note_on_c, 0, 82, 120
1, 84164, Note_off_c, 0, 82, 120
1, 84186, Note_on_c, 0, 80, 95
1, 84213, Note_off_c, 0, 80, 95
1, 84226, Note_on_c, 0, 80, 116
1, 84298, Note_off_c, 0, 80, 116
1, 84308, Note_on_c, 0, 79, 113
1, 84397, Note_off_c, 0, 79, 113
1, 84410, Note_on_c, 0, 77, 118
1, 84492, Note_off_c, 0, 77, 118
1, 84513, Note_on_c, 0, 75, 117
1, 84592, Note_off_c, 0, 75, 117
1, 84601, Note_on_c, 0, 74, 120
1, 84671, Note_off_c, 0, 74, 120
1, 84684, Note_on_c, 0, 73, 117
1, 84808, Note_off_c, 0, 73, 117
1, 84826, Note_on_c, 0, 65, 92
1, 84867, Note_off_c, 0, 65, 92
1, 84870, Note_on_c, 0, 68, 97
1, 84958, Note_off_c, 0, 68, 97
1, 84974, Note_on_c, 0, 72, 117
1, 85040, Note_off_c, 0, 72, 117
1, 85172, Note_on_c, 0, 75, 125
1, 85240, Note_off_c, 0, 75, 125
1, 85358, Note_on_c, 0, 76, 122
1, 85438, Note_off_c, 0, 76, 122
1, 85549, Note_on_c, 0, 77, 120
1, 85615, Note_off_c, 0, 77, 120
1, 85744, Note_on_c, 0, 78, 120
1, 85826, Note_off_c, 0, 78, 120
1, 85941, Note_on_c, 0, 77, 120
1, 86009, Note_off_c, 0, 77, 120
1, 86127, Note_on_c, 0, 76, 122
1, 86192, Note_off_c, 0, 76, 122
1, 86316, Note_on_c, 0, 75, 121
1, 86384, Note_off_c, 0, 75, 121
1, 86509, Note_on_c, 0, 72, 113
1, 86579, Note_off_c, 0, 72, 113
1, 86597, Note_on_c, 0, 73, 114
1, 86687, Note_off_c, 0, 73, 114
1, 86706, Note_on_c, 0, 70, 95
1, 86751, Note_off_c, 0, 70, 95
1, 86762, Note_on_c, 0, 75, 115
1, 86881, Note_off_c, 0, 75, 115
1, 86893, Note_on_c, 0, 70, 90
1, 86948, Note_off_c, 0, 70, 90
1, 86952, Note_on_c, 0, 76, 116
1, 88527, Note_off_c, 0, 76, 116
1, 88542, Note_on_c, 0, 75, 119
1, 88658, Note_off_c, 0, 75, 119
1, 88669, Note_on_c, 0, 72, 98
1, 88710, Note_off_c, 0, 72, 98
1, 88723, Note_on_c, 0, 73, 115
1, 88844, Note_off_c, 0, 73, 115
1, 88855, Note_on_c, 0, 66, 93
1, 88898, Note_off_c, 0, 66, 93
1, 88909, Note_on_c, 0, 67, 112
1, 89006, Note_off_c, 0, 67, 112
1, 89109, Note_on_c, 0, 70, 117
1, 89201, Note_off_c, 0, 70, 117
1, 89228, Note_on_c, 0, 66, 112
1, 89270, Note_off_c, 0, 66, 112
1, 89286, Note_on_c, 0, 61, 105
1, 89343, Note_off_c, 0, 61, 105
1, 90405, Note_on_c, 0, 56, 107
1, 90680, Note_off_c, 0, 56, 107
1, 90686, Note_on_c, 0, 58, 113
1, 91608, Note_off_c, 0, 58, 113
1, 91615, Note_on_c, 0, 57, 104
1, 91654, Note_off_c, 0, 57, 104
1, 91658, Note_on_c, 0, 56, 98
1, 91691, Note_off_c, 0, 56, 98
1, 91704, Note_on_c, 0, 55, 113
1, 91749, Note_off_c, 0, 55, 113
1, 91754, Note_on_c, 0, 54, 113
1, 91797, Note_off_c, 0, 54, 113
1, 91804, Note_on_c, 0, 52, 105
1, 92815, Note_off_c, 0, 52, 105
1, 92825, Note_on_c, 0, 54, 112
1, 93004, Note_off_c, 0, 54, 112
1, 93404, Note_on_c, 0, 61, 113
1, 93473, Note_off_c, 0, 61, 113
1, 93610, Note_on_c, 0, 60, 114
1, 93663, Note_off_c, 0, 60, 114
1, 93785, Note_on_c, 0, 55, 105
1, 93840, Note_off_c, 0, 55, 105
1, 93992, Note_on_c, 0, 58, 113
1, 94038, Note_off_c, 0, 58, 113
1, 94178, Note_on_c, 0, 60, 109
1, 94243, Note_off_c, 0, 60, 109
1, 94388, Note_on_c, 0, 57, 99
1, 94413, Note_off_c, 0, 57, 99
1, 94421, Note_on_c, 0, 61, 97
1, 94463, Note_off_c, 0, 61, 97
1, 94470, Note_on_c, 0, 64, 107
1, 94706, Note_off_c, 0, 64, 107
1, 94716, Note_on_c, 0, 53, 106
1, 94787, Note_off_c, 0, 53, 106
1, 94810, Note_on_c, 0, 58, 99
1, 95168, Note_off_c, 0, 58, 99
1, 95192, Note_on_c, 0, 58, 107
1, 95583, Note_off_c, 0, 58, 107
1, 95605, Note_on_c, 0, 58, 107
1, 95759, Note_off_c, 0, 58, 107
1, 95766, Note_on_c, 0, 60, 100
1, 95863, Note_off_c, 0, 60, 100
1, 95957, Note_on_c, 0, 60, 96
1, 96041, Note_off_c, 0, 60, 96
1, 96063, Note_on_c, 0, 58, 100
1, 96097, Note_off_c, 0, 58, 100
1, 96118, Note_on_c, 0, 56, 99
1, 96230, Note_off_c, 0, 56, 99
1, 96235, Note_on_c, 0, 55, 88
1, 96284, Note_off_c, 0, 55, 88
1, 96296, Note_on_c, 0, 56, 94
1, 96596, Note_off_c, 0, 56, 94
1, 96729, Note_on_c, 0, 56, 97
1, 96809, Note_off_c, 0, 56, 97
1, 96825, Note_on_c, 0, 55, 99
1, 96867, Note_off_c, 0, 55, 99
1, 96902, Note_on_c, 0, 53, 100
1, 96959, Note_off_c, 0, 53, 100
1, 97602, Note_on_c, 0, 56, 102
1, 97644, Note_off_c, 0, 56, 102
1, 97655, Note_on_c, 0, 55, 99
1, 97761, Note_off_c, 0, 55, 99
1, 97853, Note_on_c, 0, 56, 88
1, 97960, Note_off_c, 0, 56, 88
1, 97968, Note_on_c, 0, 60, 87
1, 98011, Note_off_c, 0, 60, 87
1, 98014, Note_on_c, 0, 65, 101
1, 98121, Note_off_c, 0, 65, 101
1, 98217, Note_on_c, 0, 67, 70
1, 98286, Note_off_c, 0, 67, 70
1, 98311, Note_on_c, 0, 68, 96
1, 98383, Note_off_c, 0, 68, 96
1, 98395, Note_on_c, 0, 72, 90
1, 98470, Note_off_c, 0, 72, 90
1, 98494, Note_on_c, 0, 77, 108
1, 98571, Note_off_c, 0, 77, 108
1, 98591, Note_on_c, 0, 75, 98
1, 98648, Note_off_c, 0, 75, 98
1, 98653, Note_on_c, 0, 76, 95
1, 98882, Note_off_c, 0, 76, 95
1, 98976, Note_on_c, 0, 75, 112
1, 99048, Note_off_c, 0, 75, 112
1, 99075, Note_on_c, 0, 74, 104
1, 99139, Note_off_c, 0, 74, 104
1, 99169, Note_on_c, 0, 73, 94
1, 99245, Note_off_c, 0, 73, 94
1, 99262, Note_on_c, 0, 72, 94
1, 99329, Note_off_c, 0, 72, 94
1, 99351, Note_on_c, 0, 70, 88
1, 99443, Note_off_c, 0, 70, 88
1, 99460, Note_on_c, 0, 70, 86
1, 99519, Note_off_c, 0, 70, 86
1, 99531, Note_on_c, 0, 72, 86
1, 99617, Note_off_c, 0, 72, 86
1, 99678, Note_on_c, 0, 70, 77
1, 99718, Note_off_c, 0, 70, 77
1, 99723, Note_on_c, 0, 75, 89
1, 99818, Note_off_c, 0, 75, 89
1, 99859, Note_on_c, 0, 72, 76
1, 99902, Note_off_c, 0, 72, 76
1, 99902, End_track
0, 0, End_of_file
