0, 0, Header, 1, 1, 192
1, 0, Start_track
1, 0, Title_t, "Melody"
1, 0, Tempo, 434782
1, 0, Key_signature, 5, "major"
1, 0, Time_signature, 4, 2, 24, 8
1, 2127, Note_on_c, 0, 64, 97
1, 2236, Note_off_c, 0, 64, 97
1, 2250, Note_on_c, 0, 59, 83
1, 2313, Note_off_c, 0, 59, 83
1, 2316, Note_on_c, 0, 64, 93
1, 2416, Note_off_c, 0, 64, 93
1, 2426, Note_on_c, 0, 64, 103
1, 2474, Note_off_c, 0, 64, 103
1, 2486, Note_on_c, 0, 59, 84
1, 2559, Note_off_c, 0, 59, 84
1, 2613, Note_on_c, 0, 64, 103
1, 2665, Note_off_c, 0, 64, 103
1, 2686, Note_on_c, 0, 63, 92
1, 2783, Note_off_c, 0, 63, 92
1, 2799, Note_on_c, 0, 66, 87
1, 2845, Note_off_c, 0, 66, 87
1, 2852, Note_on_c, 0, 71, 109
1, 2954, Note_off_c, 0, 71, 109
1, 3051, Note_on_c, 0, 61, 99
1, 3088, Note_off_c, 0, 61, 99
1, 3093, Note_on_c, 0, 63, 84
1, 3188, Note_off_c, 0, 63, 84
1, 4128, Note_on_c, 0, 70, 104
1, 4369, Note_off_c, 0, 70, 104
1, 4383, Note_on_c, 0, 70, 108
1, 4501, Note_off_c, 0, 70, 108
1, 4558, Note_on_c, 0, 70, 108
1, 4873, Note_off_c, 0, 70, 108
1, 4883, Note_on_c, 0, 68, 106
1, 4962, Note_off_c, 0, 68, 106
1, 4996, Note_on_c, 0, 66, 97
1, 5136, Note_off_c, 0, 66, 97
1, 5168, Note_on_c, 0, 66, 99
1, 5272, Note_off_c, 0, 66, 99
1, 5291, Note_on_c, 0, 66, 99
1, 5523, Note_off_c, 0, 66, 99
1, 5541, Note_on_c, 0, 68, 103
1, 5636, Note_off_c, 0, 68, 103
1, 5655, Note_on_c, 0, 66, 102
1, 5719, Note_off_c, 0, 66, 102
1, 5722, Note_on_c, 0, 64, 88
1, 5844, Note_off_c, 0, 64, 88
1, 5853, Note_on_c, 0, 64, 82
1, 5894, Note_off_c, 0, 64, 82
1, 5895, Note_on_c, 0, 75, 114
1, 6021, Note_off_c, 0, 75, 114
1, 6046, Note_on_c, 0, 64, 86
1, 6606, Note_off_c, 0, 64, 86
1, 7018, Note_on_c, 0, 68, 117
1, 7066, Note_off_c, 0, 68, 117
1, 7082, Note_on_c, 0, 71, 119
1, 7188, Note_off_c, 0, 71, 119
1, 7189, Note_on_c, 0, 69, 104
1, 7244, Note_off_c, 0, 69, 104
1, 7251, Note_on_c, 0, 70, 114
1, 7813, Note_off_c, 0, 70, 114
1, 7814, Note_on_c, 0, 68, 106
1, 7934, Note_off_c, 0, 68, 106
1, 7944, Note_on_c, 0, 66, 97
1, 8026, Note_off_c, 0, 66, 97
1, 8067, Note_on_c, 0, 64, 95
1, 8189, Note_off_c, 0, 64, 95
1, 8205, Note_on_c, 0, 64, 96
1, 8313, Note_off_c, 0, 64, 96
1, 8336, Note_on_c, 0, 63, 95
1, 8692, Note_off_c, 0, 63, 95
1, 8704, Note_on_c, 0, 61, 96
1, 8776, Note_off_c, 0, 61, 96
1, 8808, Note_on_c, 0, 63, 98
1, 8881, Note_off_c, 0, 63, 98
1, 8902, Note_on_c, 0, 66, 102
1, 8963, Note_off_c, 0, 66, 102
1, 8981, Note_on_c, 0, 70, 114
1, 9074, Note_off_c, 0, 70, 114
1, 9092, Note_on_c, 0, 74, 118
1, 9183, Note_off_c, 0, 74, 118
1, 9206, Note_on_c, 0, 76, 104
1, 9229, Note_off_c, 0, 76, 104
1, 9236, Note_on_c, 0, 77, 122
1, 9351, Note_off_c, 0, 77, 122
1, 9358, Note_on_c, 0, 75, 118
1, 9455, Note_off_c, 0, 75, 118
1, 9471, Note_on_c, 0, 76, 120
1, 9553, Note_off_c, 0, 76, 120
1, 9581, Note_on_c, 0, 81, 107
1, 9633, Note_off_c, 0, 81, 107
1, 9638, Note_on_c, 0, 79, 113
1, 9683, Note_off_c, 0, 79, 113
1, 9693, Note_on_c, 0, 77, 116
1, 9732, Note_off_c, 0, 77, 116
1, 9739, Note_on_c, 0, 76, 118
1, 9834, Note_off_c, 0, 76, 118
1, 9852, Note_on_c, 0, 74, 117
1, 9933, Note_off_c, 0, 74, 117
1, 9967, Note_on_c, 0, 72, 112
1, 10028, Note_off_c, 0, 72, 112
1, 10047, Note_on_c, 0, 71, 114
1, 10101, Note_off_c, 0, 71, 114
1, 10110, Note_on_c, 0, 69, 105
1, 10201, Note_off_c, 0, 69, 105
1, 10228, Note_on_c, 0, 68, 106
1, 10303, Note_off_c, 0, 68, 106
1, 10321, Note_on_c, 0, 66, 98
1, 10396, Note_off_c, 0, 66, 98
1, 10424, Note_on_c, 0, 75, 118
1, 10501, Note_off_c, 0, 75, 118
1, 10546, Note_on_c, 0, 73, 104
1, 10607, Note_off_c, 0, 73, 104
1, 10641, Note_on_c, 0, 64, 100
1, 10705, Note_off_c, 0, 64, 100
1, 10755, Note_on_c, 0, 66, 94
1, 10859, Note_off_c, 0, 66, 94
1, 10884, Note_on_c, 0, 64, 94
1, 11011, Note_off_c, 0, 64, 94
1, 11027, Note_on_c, 0, 63, 79
1, 11455, Note_off_c, 0, 63, 79
1, 11786, Note_on_c, 0, 71, 111
1, 11986, Note_off_c, 0, 71, 111
1, 11998, Note_on_c, 0, 68, 91
1, 12043, Note_off_c, 0, 68, 91
1, 12044, Note_on_c, 0, 71, 110
1, 12171, Note_off_c, 0, 71, 110
1, 12230, Note_on_c, 0, 68, 99
1, 12347, Note_off_c, 0, 68, 99
1, 12383, Note_on_c, 0, 59, 78
1, 12638, Note_off_c, 0, 59, 78
1, 13012, Note_on_c, 0, 77, 123
1, 13307, Note_off_c, 0, 77, 123
1, 13321, Note_on_c, 0, 78, 116
1, 13420, Note_off_c, 0, 78, 116
1, 13441, Note_on_c, 0, 76, 117
1, 13574, Note_off_c, 0, 76, 117
1, 13579, Note_on_c, 0, 73, 110
1, 13688, Note_off_c, 0, 73, 110
1, 13711, Note_on_c, 0, 75, 118
1, 13804, Note_off_c, 0, 75, 118
1, 13836, Note_on_c, 0, 73, 114
1, 13978, Note_off_c, 0, 73, 114
1, 13981, Note_on_c, 0, 70, 112
1, 14089, Note_off_c, 0, 70, 112
1, 14107, Note_on_c, 0, 71, 114
1, 14171, Note_off_c, 0, 71, 114
1, 14203, Note_on_c, 0, 67, 110
1, 14293, Note_off_c, 0, 67, 110
1, 14302, Note_on_c, 0, 68, 111
1, 14372, Note_off_c, 0, 68, 111
1, 14388, Note_on_c, 0, 64, 104
1, 14478, Note_off_c, 0, 64, 104
1, 14481, Note_on_c, 0, 61, 99
1, 14558, Note_off_c, 0, 61, 99
1, 14594, Note_on_c, 0, 55, 103
1, 14758, Note_off_c, 0, 55, 103
1, 14777, Note_on_c, 0, 56, 103
1, 14910, Note_off_c, 0, 56, 103
1, 14940, Note_on_c, 0, 66, 95
1, 15295, Note_off_c, 0, 66, 95
1, 15335, Note_on_c, 0, 66, 91
1, 15652, Note_off_c, 0, 66, 91
1, 15666, Note_on_c, 0, 63, 84
1, 16057, Note_off_c, 0, 63, 84
1, 16296, Note_on_c, 0, 57, 108
1, 16411, Note_off_c, 0, 57, 108
1, 16420, Note_on_c, 0, 58, 109
1, 16508, Note_off_c, 0, 58, 109
1, 16508, Note_on_c, 0, 65, 91
1, 16529, Note_off_c, 0, 65, 91
1, 16554, Note_on_c, 0, 70, 111
1, 16654, Note_off_c, 0, 70, 111
1, 16655, Note_on_c, 0, 68, 110
1, 16784, Note_off_c, 0, 68, 110
1, 16798, Note_on_c, 0, 68, 109
1, 17127, Note_off_c, 0, 68, 109
1, 17155, Note_on_c, 0, 56, 100
1, 17216, Note_off_c, 0, 56, 100
1, 17226, Note_on_c, 0, 65, 97
1, 17260, Note_off_c, 0, 65, 97
1, 17287, Note_on_c, 0, 68, 106
1, 17414, Note_off_c, 0, 68, 106
1, 17421, Note_on_c, 0, 66, 104
1, 17572, Note_off_c, 0, 66, 104
1, 17586, Note_on_c, 0, 66, 99
1, 17820, Note_off_c, 0, 66, 99
1, 17830, Note_on_c, 0, 68, 107
1, 17941, Note_off_c, 0, 68, 107
1, 17960, Note_on_c, 0, 66, 104
1, 18035, Note_off_c, 0, 66, 104
1, 18053, Note_on_c, 0, 64, 104
1, 18144, Note_off_c, 0, 64, 104
1, 18210, Note_on_c, 0, 74, 107
1, 18260, Note_off_c, 0, 74, 107
1, 18260, Note_on_c, 0, 75, 107
1, 18391, Note_off_c, 0, 75, 107
1, 18419, Note_on_c, 0, 64, 83
1, 18968, Note_off_c, 0, 64, 83
1, 19503, Note_on_c, 0, 68, 111
1, 19596, Note_off_c, 0, 68, 111
1, 19612, Note_on_c, 0, 70, 116
1, 19711, Note_off_c, 0, 70, 116
1, 19716, Note_on_c, 0, 68, 89
1, 19766, Note_off_c, 0, 68, 89
1, 19778, Note_on_c, 0, 70, 114
1, 19880, Note_off_c, 0, 70, 114
1, 19887, Note_on_c, 0, 68, 111
1, 19968, Note_off_c, 0, 68, 111
1, 19995, Note_on_c, 0, 67, 106
1, 20140, Note_off_c, 0, 67, 106
1, 20161, Note_on_c, 0, 65, 105
1, 20245, Note_off_c, 0, 65, 105
1, 20264, Note_on_c, 0, 62, 98
1, 20355, Note_off_c, 0, 62, 98
1, 20383, Note_on_c, 0, 64, 97
1, 20460, Note_off_c, 0, 64, 97
1, 20469, Note_on_c, 0, 65, 111
1, 20533, Note_off_c, 0, 65, 111
1, 20558, Note_on_c, 0, 68, 107
1, 20653, Note_off_c, 0, 68, 107
1, 20663, Note_on_c, 0, 70, 117
1, 20751, Note_off_c, 0, 70, 117
1, 20776, Note_on_c, 0, 71, 116
1, 20866, Note_off_c, 0, 71, 116
1, 20941, Note_on_c, 0, 73, 111
1, 21306, Note_off_c, 0, 73, 111
1, 21324, Note_on_c, 0, 71, 112
1, 21433, Note_off_c, 0, 71, 112
1, 21447, Note_on_c, 0, 68, 108
1, 21526, Note_off_c, 0, 68, 108
1, 21578, Note_on_c, 0, 71, 105
1, 21695, Note_off_c, 0, 71, 105
1, 21713, Note_on_c, 0, 68, 99
1, 21848, Note_off_c, 0, 68, 99
1, 21853, Note_on_c, 0, 63, 92
1, 21908, Note_off_c, 0, 63, 92
1, 21931, Note_on_c, 0, 68, 103
1, 22026, Note_off_c, 0, 68, 103
1, 22112, Note_on_c, 0, 68, 102
1, 22267, Note_off_c, 0, 68, 102
1, 22292, Note_on_c, 0, 63, 87
1, 22587, Note_off_c, 0, 63, 87
1, 22612, Note_on_c, 0, 59, 89
1, 22700, Note_off_c, 0, 59, 89
1, 22701, Note_on_c, 0, 62, 97
1, 22738, Note_off_c, 0, 62, 97
1, 22763, Note_on_c, 0, 63, 100
1, 22858, Note_off_c, 0, 63, 100
1, 22868, Note_on_c, 0, 59, 84
1, 22985, Note_off_c, 0, 59, 84
1, 23006, Note_on_c, 0, 56, 88
1, 23386, Note_off_c, 0, 56, 88
1, 23563, Note_on_c, 0, 67, 110
1, 23634, Note_off_c, 0, 67, 110
1, 23654, Note_on_c, 0, 66, 101
1, 23738, Note_off_c, 0, 66, 101
1, 23763, Note_on_c, 0, 64, 103
1, 23839, Note_off_c, 0, 64, 103
1, 23862, Note_on_c, 0, 63, 101
1, 23936, Note_off_c, 0, 63, 101
1, 23943, Note_on_c, 0, 61, 105
1, 24012, Note_off_c, 0, 61, 105
1, 24032, Note_on_c, 0, 59, 94
1, 24126, Note_off_c, 0, 59, 94
1, 24138, Note_on_c, 0, 57, 89
1, 24199, Note_off_c, 0, 57, 89
1, 24219, Note_on_c, 0, 58, 95
1, 24295, Note_off_c, 0, 58, 95
1, 24312, Note_on_c, 0, 63, 111
1, 24370, Note_off_c, 0, 63, 111
1, 24380, Note_on_c, 0, 61, 95
1, 24482, Note_off_c, 0, 61, 95
1, 24587, Note_on_c, 0, 68, 109
1, 24674, Note_off_c, 0, 68, 109
1, 24763, Note_on_c, 0, 68, 106
1, 24878, Note_off_c, 0, 68, 106
1, 24944, Note_on_c, 0, 71, 111
1, 25192, Note_off_c, 0, 71, 111
1, 25263, Note_on_c, 0, 68, 109
1, 25324, Note_off_c, 0, 68, 109
1, 25377, Note_on_c, 0, 74, 118
1, 25433, Note_off_c, 0, 74, 118
1, 25435, Note_on_c, 0, 75, 119
1, 25619, Note_off_c, 0, 75, 119
1, 25657, Note_on_c, 0, 78, 118
1, 25736, Note_off_c, 0, 78, 118
1, 25764, Note_on_c, 0, 81, 115
1, 25840, Note_off_c, 0, 81, 115
1, 25849, Note_on_c, 0, 79, 114
1, 25913, Note_off_c, 0, 79, 114
1, 25945, Note_on_c, 0, 76, 118
1, 26015, Note_off_c, 0, 76, 118
1, 26047, Note_on_c, 0, 71, 101
1, 26119, Note_off_c, 0, 71, 101
1, 26126, Note_on_c, 0, 76, 76
1, 26147, Note_off_c, 0, 76, 76
1, 26147, Note_on_c, 0, 78, 100
1, 26186, Note_off_c, 0, 78, 100
1, 26186, Note_on_c, 0, 76, 109
1, 26218, Note_off_c, 0, 76, 109
1, 26245, Note_on_c, 0, 71, 107
1, 26288, Note_off_c, 0, 71, 107
1, 26304, Note_on_c, 0, 67, 102
1, 26404, Note_off_c, 0, 67, 102
1, 26427, Note_on_c, 0, 64, 93
1, 26464, Note_off_c, 0, 64, 93
1, 26469, Note_on_c, 0, 66, 84
1, 26501, Note_off_c, 0, 66, 84
1, 26511, Note_on_c, 0, 67, 10
1, 26647, Note_off_c, 0, 67, 10
1, 26657, Note_on_c, 0, 64, 117
1, 26765, Note_off_c, 0, 64, 117
1, 26788, Note_on_c, 0, 59, 101
1, 26822, Note_off_c, 0, 59, 101
1, 26841, Note_on_c, 0, 64, 116
1, 27008, Note_off_c, 0, 64, 116
1, 27011, Note_on_c, 0, 59, 109
1, 27140, Note_off_c, 0, 59, 109
1, 27145, Note_on_c, 0, 55, 117
1, 27182, Note_off_c, 0, 55, 117
1, 27189, Note_on_c, 0, 59, 110
1, 27340, Note_off_c, 0, 59, 110
1, 27347, Note_on_c, 0, 54, 127
1, 27404, Note_off_c, 0, 54, 127
1, 27414, Note_on_c, 0, 52, 110
1, 27487, Note_off_c, 0, 52, 110
1, 27512, Note_on_c, 0, 51, 115
1, 27688, Note_off_c, 0, 51, 115
1, 27688, End_track
0, 0, End_of_file
