0, 0, Header, 1, 1, 192
1, 0, Start_track
1, 0, Title_t, "Melody"
1, 0, Tempo, 267857
1, 0, Key_signature, -5, "major"
1, 0, Time_signature, 4, 2, 24, 8
1, 3341, Note_on_c, 0, 79, 115
1, 3426, Note_off_c, 0, 79, 115
1, 3438, Note_on_c, 0, 80, 123
1, 3945, Note_off_c, 0, 80, 123
1, 3955, Note_on_c, 0, 79, 118
1, 4074, Note_off_c, 0, 79, 118
1, 4087, Note_on_c, 0, 78, 117
1, 4824, Note_off_c, 0, 78, 117
1, 4841, Note_on_c, 0, 77, 110
1, 4917, Note_off_c, 0, 77, 110
1, 4929, Note_on_c, 0, 78, 120
1, 5108, Note_off_c, 0, 78, 120
1, 5119, Note_on_c, 0, 77, 125
1, 5249, Note_off_c, 0, 77, 125
1, 5258, Note_on_c, 0, 78, 117
1, 5614, Note_off_c, 0, 78, 117
1, 5638, Note_on_c, 0, 77, 123
1, 5745, Note_off_c, 0, 77, 123
1, 5753, Note_on_c, 0, 76, 117
1, 6271, Note_off_c, 0, 76, 117
1, 6312, Note_on_c, 0, 77, 122
1, 6424, Note_off_c, 0, 77, 122
1, 6463, Note_on_c, 0, 65, 97
1, 6493, Note_off_c, 0, 65, 97
1, 6506, Note_on_c, 0, 69, 106
1, 6637, Note_off_c, 0, 69, 106
1, 6653, Note_on_c, 0, 70, 111
1, 6837, Note_off_c, 0, 70, 111
1, 6855, Note_on_c, 0, 72, 110
1, 7021, Note_off_c, 0, 72, 110
1, 7039, Note_on_c, 0, 73, 114
1, 7227, Note_off_c, 0, 73, 114
1, 7243, Note_on_c, 0, 75, 116
1, 7595, Note_off_c, 0, 75, 116
1, 7620, Note_on_c, 0, 74, 90
1, 7663, Note_off_c, 0, 74, 90
1, 7706, Note_on_c, 0, 76, 118
1, 8255, Note_off_c, 0, 76, 118
1, 8269, Note_on_c, 0, 75, 119
1, 8394, Note_off_c, 0, 75, 119
1, 8425, Note_on_c, 0, 72, 108
1, 8996, Note_off_c, 0, 72, 108
1, 9389, Note_on_c, 0, 65, 97
1, 9429, Note_off_c, 0, 65, 97
1, 9438, Note_on_c, 0, 68, 105
1, 9562, Note_off_c, 0, 68, 105
1, 9604, Note_on_c, 0, 70, 114
1, 9729, Note_off_c, 0, 70, 114
1, 9750, Note_on_c, 0, 71, 113
1, 9865, Note_off_c, 0, 71, 113
1, 9957, Note_on_c, 0, 70, 113
1, 10019, Note_off_c, 0, 70, 113
1, 10035, Note_on_c, 0, 71, 110
1, 10334, Note_off_c, 0, 71, 110
1, 10358, Note_on_c, 0, 70, 93
1, 10407, Note_off_c, 0, 70, 93
1, 10428, Note_on_c, 0, 73, 114
1, 10528, Note_off_c, 0, 73, 114
1, 10560, Note_on_c, 0, 70, 93
1, 10592, Note_off_c, 0, 70, 93
1, 10607, Note_on_c, 0, 71, 109
1, 10721, Note_off_c, 0, 71, 109
1, 10762, Note_on_c, 0, 66, 98
1, 11051, Note_off_c, 0, 66, 98
1, 11105, Note_on_c, 0, 68, 108
1, 11190, Note_off_c, 0, 68, 108
1, 11245, Note_on_c, 0, 69, 112
1, 11334, Note_off_c, 0, 69, 112
1, 11350, Note_on_c, 0, 68, 109
1, 11454, Note_off_c, 0, 68, 109
1, 11538, Note_on_c, 0, 77, 119
1, 12148, Note_off_c, 0, 77, 119
1, 12156, Note_on_c, 0, 78, 118
1, 12267, Note_off_c, 0, 78, 118
1, 12283, Note_on_c, 0, 80, 112
1, 14034, Note_off_c, 0, 80, 112
1, 14044, Note_on_c, 0, 77, 104
1, 14099, Note_off_c, 0, 77, 104
1, 14121, Note_on_c, 0, 78, 117
1, 14239, Note_off_c, 0, 78, 117
1, 14314, Note_on_c, 0, 77, 120
1, 14481, Note_off_c, 0, 77, 120
1, 14491, Note_on_c, 0, 75, 114
1, 14605, Note_off_c, 0, 75, 114
1, 14621, Note_on_c, 0, 71, 103
1, 15093, Note_off_c, 0, 71, 103
1, 15630, Note_on_c, 0, 65, 93
1, 15658, Note_off_c, 0, 65, 93
1, 15680, Note_on_c, 0, 67, 101
1, 15747, Note_off_c, 0, 67, 101
1, 15757, Note_on_c, 0, 69, 110
1, 15830, Note_off_c, 0, 69, 110
1, 15936, Note_on_c, 0, 70, 116
1, 16017, Note_off_c, 0, 70, 116
1, 16035, Note_on_c, 0, 72, 113
1, 16142, Note_off_c, 0, 72, 113
1, 16169, Note_on_c, 0, 73, 115
1, 16275, Note_off_c, 0, 73, 115
1, 16353, Note_on_c, 0, 75, 119
1, 16445, Note_off_c, 0, 75, 119
1, 16551, Note_on_c, 0, 69, 108
1, 16586, Note_off_c, 0, 69, 108
1, 16662, Note_on_c, 0, 76, 106
1, 16826, Note_off_c, 0, 76, 106
1, 16840, Note_on_c, 0, 75, 116
1, 16913, Note_off_c, 0, 75, 116
1, 16940, Note_on_c, 0, 73, 112
1, 17025, Note_off_c, 0, 73, 112
1, 17040, Note_on_c, 0, 72, 112
1, 17126, Note_off_c, 0, 72, 112
1, 17148, Note_on_c, 0, 70, 112
1, 17210, Note_off_c, 0, 70, 112
1, 17233, Note_on_c, 0, 67, 94
1, 17322, Note_off_c, 0, 67, 94
1, 17352, Note_on_c, 0, 68, 102
1, 17405, Note_off_c, 0, 68, 102
1, 17420, Note_on_c, 0, 69, 109
1, 17516, Note_off_c, 0, 69, 109
1, 17535, Note_on_c, 0, 64, 91
1, 17587, Note_off_c, 0, 64, 91
1, 17602, Note_on_c, 0, 67, 106
1, 17705, Note_off_c, 0, 67, 106
1, 17729, Note_on_c, 0, 64, 89
1, 17776, Note_off_c, 0, 64, 89
1, 17795, Note_on_c, 0, 65, 100
1, 17884, Note_off_c, 0, 65, 100
1, 18008, Note_on_c, 0, 69, 111
1, 18089, Note_off_c, 0, 69, 111
1, 18125, Note_on_c, 0, 72, 110
1, 18220, Note_off_c, 0, 72, 110
1, 18247, Note_on_c, 0, 69, 77
1, 18285, Note_off_c, 0, 69, 77
1, 18292, Note_on_c, 0, 76, 121
1, 18374, Note_off_c, 0, 76, 121
1, 18395, Note_on_c, 0, 79, 111
1, 18490, Note_off_c, 0, 79, 111
1, 18509, Note_on_c, 0, 76, 93
1, 18547, Note_off_c, 0, 76, 93
1, 18576, Note_on_c, 0, 77, 119
1, 18763, Note_off_c, 0, 77, 119
1, 18774, Note_on_c, 0, 76, 117
1, 18891, Note_off_c, 0, 76, 117
1, 18907, Note_on_c, 0, 73, 97
1, 18963, Note_off_c, 0, 73, 97
1, 18975, Note_on_c, 0, 74, 117
1, 19153, Note_off_c, 0, 74, 117
1, 19161, Note_on_c, 0, 73, 113
1, 19275, Note_off_c, 0, 73, 113
1, 19298, Note_on_c, 0, 70, 95
1, 19346, Note_off_c, 0, 70, 95
1, 19378, Note_on_c, 0, 71, 106
1, 19543, Note_off_c, 0, 71, 106
1, 19563, Note_on_c, 0, 70, 114
1, 19660, Note_off_c, 0, 70, 114
1, 19685, Note_on_c, 0, 67, 94
1, 19734, Note_off_c, 0, 67, 94
1, 19750, Note_on_c, 0, 68, 108
1, 19873, Note_off_c, 0, 68, 108
1, 19882, Note_on_c, 0, 65, 94
1, 19915, Note_off_c, 0, 65, 94
1, 19935, Note_on_c, 0, 66, 93
1, 20021, Note_off_c, 0, 66, 93
1, 20063, Note_on_c, 0, 68, 108
1, 20136, Note_off_c, 0, 68, 108
1, 20246, Note_on_c, 0, 69, 111
1, 20319, Note_off_c, 0, 69, 111
1, 20446, Note_on_c, 0, 68, 106
1, 20499, Note_off_c, 0, 68, 106
1, 20534, Note_on_c, 0, 66, 105
1, 20670, Note_off_c, 0, 66, 105
1, 20716, Note_on_c, 0, 68, 107
1, 20867, Note_off_c, 0, 68, 107
1, 20875, Note_on_c, 0, 65, 99
1, 21430, Note_off_c, 0, 65, 99
1, 21815, Note_on_c, 0, 65, 95
1, 21864, Note_off_c, 0, 65, 95
1, 21893, Note_on_c, 0, 68, 110
1, 21993, Note_off_c, 0, 68, 110
1, 22004, Note_on_c, 0, 70, 116
1, 22057, Note_off_c, 0, 70, 116
1, 22068, Note_on_c, 0, 71, 113
1, 22231, Note_off_c, 0, 71, 113
1, 22244, Note_on_c, 0, 70, 114
1, 22358, Note_off_c, 0, 70, 114
1, 22473, Note_on_c, 0, 78, 116
1, 22775, Note_off_c, 0, 78, 116
1, 22784, Note_on_c, 0, 77, 122
1, 23320, Note_off_c, 0, 77, 122
1, 23370, Note_on_c, 0, 65, 99
1, 23416, Note_off_c, 0, 65, 99
1, 23435, Note_on_c, 0, 66, 99
1, 23511, Note_off_c, 0, 66, 99
1, 23521, Note_on_c, 0, 68, 112
1, 23605, Note_off_c, 0, 68, 112
1, 23615, Note_on_c, 0, 69, 115
1, 23769, Note_off_c, 0, 69, 115
1, 23787, Note_on_c, 0, 68, 115
1, 23900, Note_off_c, 0, 68, 115
1, 24006, Note_on_c, 0, 76, 114
1, 24288, Note_off_c, 0, 76, 114
1, 24306, Note_on_c, 0, 75, 119
1, 24766, Note_off_c, 0, 75, 119
1, 25126, Note_on_c, 0, 72, 116
1, 25235, Note_off_c, 0, 72, 116
1, 25240, Note_on_c, 0, 67, 105
1, 25290, Note_off_c, 0, 67, 105
1, 25299, Note_on_c, 0, 64, 107
1, 25404, Note_off_c, 0, 64, 107
1, 25423, Note_on_c, 0, 65, 97
1, 25501, Note_off_c, 0, 65, 97
1, 25524, Note_on_c, 0, 68, 104
1, 25907, Note_off_c, 0, 68, 104
1, 26012, Note_on_c, 0, 65, 105
1, 26056, Note_off_c, 0, 65, 105
1, 26067, Note_on_c, 0, 63, 106
1, 26154, Note_off_c, 0, 63, 106
1, 26159, Note_on_c, 0, 61, 94
1, 26232, Note_off_c, 0, 61, 94
1, 26251, Note_on_c, 0, 69, 116
1, 26359, Note_off_c, 0, 69, 116
1, 26368, Note_on_c, 0, 64, 90
1, 26431, Note_off_c, 0, 64, 90
1, 26441, Note_on_c, 0, 65, 102
1, 26543, Note_off_c, 0, 65, 102
1, 26555, Note_on_c, 0, 69, 104
1, 26624, Note_off_c, 0, 69, 104
1, 26638, Note_on_c, 0, 73, 117
1, 26724, Note_off_c, 0, 73, 117
1, 26821, Note_on_c, 0, 77, 123
1, 27018, Note_off_c, 0, 77, 123
1, 27060, Note_on_c, 0, 81, 115
1, 27386, Note_off_c, 0, 81, 115
1, 27424, Note_on_c, 0, 80, 116
1, 28069, Note_off_c, 0, 80, 116
1, 28077, Note_on_c, 0, 77, 108
1, 28144, Note_off_c, 0, 77, 108
1, 28150, Note_on_c, 0, 80, 115
1, 28255, Note_off_c, 0, 80, 115
1, 28273, Note_on_c, 0, 77, 106
1, 28325, Note_off_c, 0, 77, 106
1, 28334, Note_on_c, 0, 80, 114
1, 28459, Note_off_c, 0, 80, 114
1, 28545, Note_on_c, 0, 80, 114
1, 28938, Note_off_c, 0, 80, 114
1, 28951, Note_on_c, 0, 80, 113
1, 29364, Note_off_c, 0, 80, 113
1, 29671, Note_on_c, 0, 78, 118
1, 29834, Note_off_c, 0, 78, 118
1, 29844, Note_on_c, 0, 77, 108
1, 29893, Note_off_c, 0, 77, 108
1, 29899, Note_on_c, 0, 78, 120
1, 30027, Note_off_c, 0, 78, 120
1, 30035, Note_on_c, 0, 78, 119
1, 30396, Note_off_c, 0, 78, 119
1, 30415, Note_on_c, 0, 77, 122
1, 30491, Note_off_c, 0, 77, 122
1, 30503, Note_on_c, 0, 78, 120
1, 30783, Note_off_c, 0, 78, 120
1, 30823, Note_on_c, 0, 79, 114
1, 30889, Note_off_c, 0, 79, 114
1, 30913, Note_on_c, 0, 79, 117
1, 30978, Note_off_c, 0, 79, 117
1, 30990, Note_on_c, 0, 80, 110
1, 31071, Note_off_c, 0, 80, 110
1, 31091, Note_on_c, 0, 80, 117
1, 31190, Note_off_c, 0, 80, 117
1, 31226, Note_on_c, 0, 79, 99
1, 31267, Note_off_c, 0, 79, 99
1, 31277, Note_on_c, 0, 80, 115
1, 31365, Note_off_c, 0, 80, 115
1, 31372, Note_on_c, 0, 82, 108
1, 31423, Note_off_c, 0, 82, 108
1, 31431, Note_on_c, 0, 80, 118
1, 31457, Note_off_c, 0, 80, 118
1, 31465, Note_on_c, 0, 79, 114
1, 31564, Note_off_c, 0, 79, 114
1, 31600, Note_on_c, 0, 82, 115
1, 31715, Note_off_c, 0, 82, 115
1, 31767, Note_on_c, 0, 80, 118
1, 31875, Note_off_c, 0, 80, 118
1, 31961, Note_on_c, 0, 77, 121
1, 32068, Note_off_c, 0, 77, 121
1, 32155, Note_on_c, 0, 73, 115
1, 32233, Note_off_c, 0, 73, 115
1, 32243, Note_on_c, 0, 72, 116
1, 32335, Note_off_c, 0, 72, 116
1, 32349, Note_on_c, 0, 71, 118
1, 32425, Note_off_c, 0, 71, 118
1, 32448, Note_on_c, 0, 70, 118
1, 32545, Note_off_c, 0, 70, 118
1, 32550, Note_on_c, 0, 69, 115
1, 32621, Note_off_c, 0, 69, 115
1, 32636, Note_on_c, 0, 68, 114
1, 32731, Note_off_c, 0, 68, 114
1, 32740, Note_on_c, 0, 64, 112
1, 32817, Note_off_c, 0, 64, 112
1, 32847, Note_on_c, 0, 61, 103
1, 32955, Note_off_c, 0, 61, 103
1, 32959, Note_on_c, 0, 64, 98
1, 32994, Note_off_c, 0, 64, 98
1, 33010, Note_on_c, 0, 68, 112
1, 33104, Note_off_c, 0, 68, 112
1, 33127, Note_on_c, 0, 71, 88
1, 33174, Note_off_c, 0, 71, 88
1, 33198, Note_on_c, 0, 75, 124
1, 33369, Note_off_c, 0, 75, 124
1, 33376, Note_on_c, 0, 78, 115
1, 33443, Note_off_c, 0, 78, 115
1, 33564, Note_on_c, 0, 76, 120
1, 33886, Note_off_c, 0, 76, 120
1, 33991, Note_on_c, 0, 77, 123
1, 34091, Note_off_c, 0, 77, 123
1, 34111, Note_on_c, 0, 65, 98
1, 34165, Note_off_c, 0, 65, 98
1, 34197, Note_on_c, 0, 68, 105
1, 34358, Note_off_c, 0, 68, 105
1, 34382, Note_on_c, 0, 70, 117
1, 34566, Note_off_c, 0, 70, 117
1, 34595, Note_on_c, 0, 68, 98
1, 34679, Note_off_c, 0, 68, 98
1, 34700, Note_on_c, 0, 71, 101
1, 35160, Note_off_c, 0, 71, 101
1, 35650, Note_on_c, 0, 77, 122
1, 35756, Note_off_c, 0, 77, 122
1, 35850, Note_on_c, 0, 66, 108
1, 35908, Note_off_c, 0, 66, 108
1, 35946, Note_on_c, 0, 68, 110
1, 36087, Note_off_c, 0, 68, 110
1, 36097, Note_on_c, 0, 66, 111
1, 36189, Note_off_c, 0, 66, 111
1, 36302, Note_on_c, 0, 69, 113
1, 36419, Note_off_c, 0, 69, 113
1, 36560, Note_on_c, 0, 74, 104
1, 37124, Note_off_c, 0, 74, 104
1, 37130, Note_on_c, 0, 73, 116
1, 37207, Note_off_c, 0, 73, 116
1, 37221, Note_on_c, 0, 68, 104
1, 37286, Note_off_c, 0, 68, 104
1, 37322, Note_on_c, 0, 65, 105
1, 37401, Note_off_c, 0, 65, 105
1, 37485, Note_on_c, 0, 68, 102
1, 37626, Note_off_c, 0, 68, 102
1, 37638, Note_on_c, 0, 67, 104
1, 37676, Note_off_c, 0, 67, 104
1, 37687, Note_on_c, 0, 70, 105
1, 37792, Note_off_c, 0, 70, 105
1, 37796, Note_on_c, 0, 67, 96
1, 37855, Note_off_c, 0, 67, 96
1, 37871, Note_on_c, 0, 68, 110
1, 38150, Note_off_c, 0, 68, 110
1, 38179, Note_on_c, 0, 65, 114
1, 38257, Note_off_c, 0, 65, 114
1, 38284, Note_on_c, 0, 63, 102
1, 38383, Note_off_c, 0, 63, 102
1, 38389, Note_on_c, 0, 61, 97
1, 38542, Note_off_c, 0, 61, 97
1, 39236, Note_on_c, 0, 68, 97
1, 39322, Note_off_c, 0, 68, 97
1, 39342, Note_on_c, 0, 70, 115
1, 39404, Note_off_c, 0, 70, 115
1, 39416, Note_on_c, 0, 71, 112
1, 39520, Note_off_c, 0, 71, 112
1, 39527, Note_on_c, 0, 73, 116
1, 39600, Note_off_c, 0, 73, 116
1, 39609, Note_on_c, 0, 74, 117
1, 39695, Note_off_c, 0, 74, 117
1, 39703, Note_on_c, 0, 76, 120
1, 39786, Note_off_c, 0, 76, 120
1, 39794, Note_on_c, 0, 73, 113
1, 39883, Note_off_c, 0, 73, 113
1, 39899, Note_on_c, 0, 71, 111
1, 39975, Note_off_c, 0, 71, 111
1, 39993, Note_on_c, 0, 70, 115
1, 40072, Note_off_c, 0, 70, 115
1, 40096, Note_on_c, 0, 68, 112
1, 40148, Note_off_c, 0, 68, 112
1, 40168, Note_on_c, 0, 67, 107
1, 40258, Note_off_c, 0, 67, 107
1, 40580, Note_on_c, 0, 72, 114
1, 40671, Note_off_c, 0, 72, 114
1, 40689, Note_on_c, 0, 73, 118
1, 40770, Note_off_c, 0, 73, 118
1, 40867, Note_on_c, 0, 75, 119
1, 41607, Note_off_c, 0, 75, 119
1, 41633, Note_on_c, 0, 72, 115
1, 41708, Note_off_c, 0, 72, 115
1, 41734, Note_on_c, 0, 69, 113
1, 41829, Note_off_c, 0, 69, 113
1, 41849, Note_on_c, 0, 64, 103
1, 41885, Note_off_c, 0, 64, 103
1, 41908, Note_on_c, 0, 67, 109
1, 42028, Note_off_c, 0, 67, 109
1, 42038, Note_on_c, 0, 64, 93
1, 42084, Note_off_c, 0, 64, 93
1, 42104, Note_on_c, 0, 65, 101
1, 42277, Note_off_c, 0, 65, 101
1, 42320, Note_on_c, 0, 69, 103
1, 42395, Note_off_c, 0, 69, 103
1, 42416, Note_on_c, 0, 74, 91
1, 42467, Note_off_c, 0, 74, 91
1, 42496, Note_on_c, 0, 76, 114
1, 42603, Note_off_c, 0, 76, 114
1, 42612, Note_on_c, 0, 77, 9
1, 43444, Note_off_c, 0, 77, 9
1, 43452, Note_on_c, 0, 78, 119
1, 43568, Note_off_c, 0, 78, 119
1, 43581, Note_on_c, 0, 80, 101
1, 43643, Note_off_c, 0, 80, 101
1, 43653, Note_on_c, 0, 77, 121
1, 44045, Note_off_c, 0, 77, 121
1, 44050, Note_on_c, 0, 78, 117
1, 44150, Note_off_c, 0, 78, 117
1, 44159, Note_on_c, 0, 80, 105
1, 44215, Note_off_c, 0, 80, 105
1, 44232, Note_on_c, 0, 77, 120
1, 44787, Note_off_c, 0, 77, 120
1, 44806, Note_on_c, 0, 78, 118
1, 44904, Note_off_c, 0, 78, 118
1, 44913, Note_on_c, 0, 80, 105
1, 44953, Note_off_c, 0, 80, 105
1, 45009, Note_on_c, 0, 76, 116
1, 45557, Note_off_c, 0, 76, 116
1, 45567, Note_on_c, 0, 78, 116
1, 45684, Note_off_c, 0, 78, 116
1, 45689, Note_on_c, 0, 80, 106
1, 45742, Note_off_c, 0, 80, 106
1, 45765, Note_on_c, 0, 77, 115
1, 46524, Note_off_c, 0, 77, 115
1, 46548, Note_on_c, 0, 76, 114
1, 46676, Note_off_c, 0, 76, 114
1, 46725, Note_on_c, 0, 77, 119
1, 46891, Note_off_c, 0, 77, 119
1, 46920, Note_on_c, 0, 76, 117
1, 47053, Note_off_c, 0, 76, 117
1, 47058, Note_on_c, 0, 78, 112
1, 47612, Note_off_c, 0, 78, 112
1, 48014, Note_on_c, 0, 70, 90
1, 48069, Note_off_c, 0, 70, 90
1, 48104, Note_on_c, 0, 84, 127
1, 48206, Note_off_c, 0, 84, 127
1, 48219, Note_on_c, 0, 83, 123
1, 48289, Note_off_c, 0, 83, 123
1, 48304, Note_on_c, 0, 82, 121
1, 48388, Note_off_c, 0, 82, 121
1, 48401, Note_on_c, 0, 81, 119
1, 48477, Note_off_c, 0, 81, 119
1, 48490, Note_on_c, 0, 80, 117
1, 48586, Note_off_c, 0, 80, 117
1, 48599, Note_on_c, 0, 79, 119
1, 48675, Note_off_c, 0, 79, 119
1, 48691, Note_on_c, 0, 78, 118
1, 48778, Note_off_c, 0, 78, 118
1, 48789, Note_on_c, 0, 77, 124
1, 48872, Note_off_c, 0, 77, 124
1, 48881, Note_on_c, 0, 75, 118
1, 48965, Note_off_c, 0, 75, 118
1, 48976, Note_on_c, 0, 76, 118
1, 49079, Note_off_c, 0, 76, 118
1, 49154, Note_on_c, 0, 73, 115
1, 49215, Note_off_c, 0, 73, 115
1, 49234, Note_on_c, 0, 72, 110
1, 49328, Note_off_c, 0, 72, 110
1, 49341, Note_on_c, 0, 71, 115
1, 49403, Note_off_c, 0, 71, 115
1, 49423, Note_on_c, 0, 70, 115
1, 49511, Note_off_c, 0, 70, 115
1, 49541, Note_on_c, 0, 69, 115
1, 49598, Note_off_c, 0, 69, 115
1, 49617, Note_on_c, 0, 68, 111
1, 49693, Note_off_c, 0, 68, 111
1, 49713, Note_on_c, 0, 64, 110
1, 49785, Note_off_c, 0, 64, 110
1, 49816, Note_on_c, 0, 67, 115
1, 49883, Note_off_c, 0, 67, 115
1, 49904, Note_on_c, 0, 64, 110
1, 49971, Note_off_c, 0, 64, 110
1, 49995, Note_on_c, 0, 62, 96
1, 50054, Note_off_c, 0, 62, 96
1, 50096, Note_on_c, 0, 60, 95
1, 50150, Note_off_c, 0, 60, 95
1, 50183, Note_on_c, 0, 68, 114
1, 50259, Note_off_c, 0, 68, 114
1, 50310, Note_on_c, 0, 61, 104
1, 50370, Note_off_c, 0, 61, 104
1, 50387, Note_on_c, 0, 65, 94
1, 50447, Note_off_c, 0, 65, 94
1, 50461, Note_on_c, 0, 68, 109
1, 50516, Note_off_c, 0, 68, 109
1, 50559, Note_on_c, 0, 70, 117
1, 50632, Note_off_c, 0, 70, 117
1, 50657, Note_on_c, 0, 65, 100
1, 50719, Note_off_c, 0, 65, 100
1, 50743, Note_on_c, 0, 68, 98
1, 50816, Note_off_c, 0, 68, 98
1, 50860, Note_on_c, 0, 67, 112
1, 50924, Note_off_c, 0, 67, 112
1, 51037, Note_on_c, 0, 73, 112
1, 51094, Note_off_c, 0, 73, 112
1, 51115, Note_on_c, 0, 76, 119
1, 51219, Note_off_c, 0, 76, 119
1, 51324, Note_on_c, 0, 77, 118
1, 51710, Note_off_c, 0, 77, 118
1, 51724, Note_on_c, 0, 77, 119
1, 52031, Note_off_c, 0, 77, 119
1, 52084, Note_on_c, 0, 84, 82
1, 52312, Note_off_c, 0, 84, 82
1, 52329, Note_on_c, 0, 79, 96
1, 52357, Note_off_c, 0, 79, 96
1, 52357, Note_on_c, 0, 77, 110
1, 52388, Note_off_c, 0, 77, 110
1, 52393, Note_on_c, 0, 75, 109
1, 52428, Note_off_c, 0, 75, 109
1, 52429, Note_on_c, 0, 72, 112
1, 52465, Note_off_c, 0, 72, 112
1, 52473, Note_on_c, 0, 71, 112
1, 52516, Note_off_c, 0, 71, 112
1, 52527, Note_on_c, 0, 70, 115
1, 52744, Note_off_c, 0, 70, 115
1, 52757, Note_on_c, 0, 68, 98
1, 52813, Note_off_c, 0, 68, 98
1, 52826, Note_on_c, 0, 71, 99
1, 53282, Note_off_c, 0, 71, 99
1, 53282, End_track
0, 0, End_of_file
