0, 0, Header, 1, 1, 192
1, 0, Start_track
1, 0, Note_on_c, 0, 79, 125
1, 33, Note_off_c, 0, 79, 125
1, 37, Note_on_c, 0, 80, 121
1, 72, Title_t, "Melody"
1, 72, Tempo, 392156
1, 72, Key_signature, 0, "major"
1, 72, Time_signature, 4, 2, 24, 8
1, 143, Note_off_c, 0, 80, 121
1, 164, Note_on_c, 0, 80, 122
1, 284, Note_off_c, 0, 80, 122
1, 303, Note_on_c, 0, 80, 123
1, 400, Note_off_c, 0, 80, 123
1, 431, Note_on_c, 0, 78, 118
1, 502, Note_off_c, 0, 78, 118
1, 512, Note_on_c, 0, 79, 110
1, 556, Note_off_c, 0, 79, 110
1, 574, Note_on_c, 0, 77, 119
1, 727, Note_off_c, 0, 77, 119
1, 749, Note_on_c, 0, 77, 123
1, 851, Note_off_c, 0, 77, 123
1, 865, Note_on_c, 0, 77, 120
1, 944, Note_off_c, 0, 77, 120
1, 949, Note_on_c, 0, 75, 120
1, 1014, Note_off_c, 0, 75, 120
1, 1023, Note_on_c, 0, 76, 112
1, 1067, Note_off_c, 0, 76, 112
1, 1071, Note_on_c, 0, 73, 116
1, 1224, Note_off_c, 0, 73, 116
1, 1237, Note_on_c, 0, 73, 118
1, 1359, Note_off_c, 0, 73, 118
1, 1386, Note_on_c, 0, 72, 118
1, 1459, Note_off_c, 0, 72, 118
1, 1479, Note_on_c, 0, 70, 116
1, 1523, Note_off_c, 0, 70, 116
1, 1527, Note_on_c, 0, 71, 114
1, 1577, Note_off_c, 0, 71, 114
1, 1599, Note_on_c, 0, 68, 111
1, 1748, Note_off_c, 0, 68, 111
1, 1762, Note_on_c, 0, 68, 115
1, 1887, Note_off_c, 0, 68, 115
1, 1902, Note_on_c, 0, 68, 118
1, 1960, Note_off_c, 0, 68, 118
1, 1990, Note_on_c, 0, 66, 109
1, 2028, Note_off_c, 0, 66, 109
1, 2039, Note_on_c, 0, 67, 109
1, 2078, Note_off_c, 0, 67, 109
1, 2082, Note_on_c, 0, 65, 109
1, 2238, Note_off_c, 0, 65, 109
1, 2251, Note_on_c, 0, 65, 113
1, 2347, Note_off_c, 0, 65, 113
1, 2372, Note_on_c, 0, 63, 107
1, 2412, Note_off_c, 0, 63, 107
1, 2419, Note_on_c, 0, 64, 107
1, 2468, Note_off_c, 0, 64, 107
1, 2471, Note_on_c, 0, 61, 106
1, 2591, Note_off_c, 0, 61, 106
1, 2596, Note_on_c, 0, 62, 109
1, 2674, Note_off_c, 0, 62, 109
1, 2688, Note_on_c, 0, 58, 110
1, 2804, Note_off_c, 0, 58, 110
1, 2817, Note_on_c, 0, 58, 109
1, 2879, Note_off_c, 0, 58, 109
1, 2881, Note_on_c, 0, 56, 108
1, 2920, Note_off_c, 0, 56, 108
1, 2926, Note_on_c, 0, 57, 106
1, 2957, Note_off_c, 0, 57, 106
1, 2965, Note_on_c, 0, 55, 103
1, 3042, Note_off_c, 0, 55, 103
1, 3055, Note_on_c, 0, 56, 101
1, 3431, Note_off_c, 0, 56, 101
1, 3433, Note_on_c, 0, 58, 106
1, 3525, Note_off_c, 0, 58, 106
1, 3535, Note_on_c, 0, 59, 94
1, 3618, Note_off_c, 0, 59, 94
1, 3632, Note_on_c, 0, 62, 109
1, 3711, Note_off_c, 0, 62, 109
1, 3719, Note_on_c, 0, 67, 113
1, 3802, Note_off_c, 0, 67, 113
1, 3814, Note_on_c, 0, 65, 112
1, 3898, Note_off_c, 0, 65, 112
1, 3904, Note_on_c, 0, 64, 94
1, 3999, Note_off_c, 0, 64, 94
1, 4962, Note_on_c, 0, 67, 115
1, 5017, Note_off_c, 0, 67, 115
1, 5073, Note_on_c, 0, 70, 118
1, 5157, Note_off_c, 0, 70, 118
1, 5189, Note_on_c, 0, 67, 99
1, 5220, Note_off_c, 0, 67, 99
1, 5229, Note_on_c, 0, 68, 112
1, 5334, Note_off_c, 0, 68, 112
1, 5343, Note_on_c, 0, 70, 119
1, 5418, Note_off_c, 0, 70, 119
1, 5461, Note_on_c, 0, 71, 104
1, 5525, Note_off_c, 0, 71, 104
1, 5530, Note_on_c, 0, 72, 116
1, 5599, Note_off_c, 0, 72, 116
1, 5620, Note_on_c, 0, 73, 114
1, 5702, Note_off_c, 0, 73, 114
1, 5712, Note_on_c, 0, 74, 118
1, 5798, Note_off_c, 0, 74, 118
1, 5802, Note_on_c, 0, 76, 121
1, 5900, Note_off_c, 0, 76, 121
1, 5976, Note_on_c, 0, 76, 121
1, 6091, Note_off_c, 0, 76, 121
1, 6113, Note_on_c, 0, 74, 101
1, 6156, Note_off_c, 0, 74, 101
1, 6195, Note_on_c, 0, 76, 120
1, 6286, Note_off_c, 0, 76, 120
1, 6364, Note_on_c, 0, 76, 121
1, 6463, Note_off_c, 0, 76, 121
1, 6506, Note_on_c, 0, 74, 118
1, 6584, Note_off_c, 0, 74, 118
1, 6624, Note_on_c, 0, 76, 119
1, 6706, Note_off_c, 0, 76, 119
1, 6764, Note_on_c, 0, 76, 120
1, 6857, Note_off_c, 0, 76, 120
1, 6876, Note_on_c, 0, 74, 120
1, 6940, Note_off_c, 0, 74, 120
1, 6964, Note_on_c, 0, 76, 116
1, 7030, Note_off_c, 0, 76, 116
1, 7074, Note_on_c, 0, 70, 112
1, 7142, Note_off_c, 0, 70, 112
1, 7193, Note_on_c, 0, 70, 113
1, 7259, Note_off_c, 0, 70, 113
1, 7312, Note_on_c, 0, 70, 116
1, 7378, Note_off_c, 0, 70, 116
1, 7411, Note_on_c, 0, 72, 115
1, 7472, Note_off_c, 0, 72, 115
1, 7507, Note_on_c, 0, 69, 116
1, 7595, Note_off_c, 0, 69, 116
1, 7614, Note_on_c, 0, 67, 112
1, 7667, Note_off_c, 0, 67, 112
1, 7712, Note_on_c, 0, 73, 116
1, 7738, Note_off_c, 0, 73, 116
1, 7740, Note_on_c, 0, 74, 106
1, 8456, Note_off_c, 0, 74, 106
1, 8480, Note_on_c, 0, 71, 106
1, 8555, Note_off_c, 0, 71, 106
1, 8579, Note_on_c, 0, 64, 106
1, 8764, Note_off_c, 0, 64, 106
1, 9496, Note_on_c, 0, 74, 120
1, 9523, Note_off_c, 0, 74, 120
1, 9529, Note_on_c, 0, 72, 116
1, 9564, Note_off_c, 0, 72, 116
1, 9569, Note_on_c, 0, 71, 110
1, 9659, Note_off_c, 0, 71, 110
1, 9674, Note_on_c, 0, 69, 114
1, 9756, Note_off_c, 0, 69, 114
1, 9771, Note_on_c, 0, 68, 105
1, 9864, Note_off_c, 0, 68, 105
1, 9878, Note_on_c, 0, 71, 111
1, 9950, Note_off_c, 0, 71, 111
1, 9987, Note_on_c, 0, 74, 110
1, 10048, Note_off_c, 0, 74, 110
1, 10070, Note_on_c, 0, 77, 123
1, 10126, Note_off_c, 0, 77, 123
1, 10132, Note_on_c, 0, 76, 119
1, 10257, Note_off_c, 0, 76, 119
1, 10273, Note_on_c, 0, 75, 102
1, 10311, Note_off_c, 0, 75, 102
1, 10317, Note_on_c, 0, 76, 122
1, 10899, Note_off_c, 0, 76, 122
1, 10906, Note_on_c, 0, 74, 118
1, 11023, Note_off_c, 0, 74, 118
1, 11041, Note_on_c, 0, 73, 97
1, 11080, Note_off_c, 0, 73, 97
1, 11098, Note_on_c, 0, 74, 110
1, 11226, Note_off_c, 0, 74, 110
1, 11262, Note_on_c, 0, 74, 119
1, 11366, Note_off_c, 0, 74, 119
1, 11370, Note_on_c, 0, 75, 118
1, 11447, Note_off_c, 0, 75, 118
1, 11451, Note_on_c, 0, 74, 115
1, 12035, Note_off_c, 0, 74, 115
1, 12050, Note_on_c, 0, 72, 116
1, 12142, Note_off_c, 0, 72, 116
1, 12152, Note_on_c, 0, 71, 115
1, 12226, Note_off_c, 0, 71, 115
1, 12252, Note_on_c, 0, 70, 111
1, 12349, Note_off_c, 0, 70, 111
1, 12376, Note_on_c, 0, 69, 99
1, 12412, Note_off_c, 0, 69, 99
1, 12428, Note_on_c, 0, 70, 116
1, 12498, Note_off_c, 0, 70, 116
1, 12535, Note_on_c, 0, 76, 118
1, 12594, Note_off_c, 0, 76, 118
1, 12624, Note_on_c, 0, 69, 113
1, 12702, Note_off_c, 0, 69, 113
1, 12727, Note_on_c, 0, 63, 111
1, 12806, Note_off_c, 0, 63, 111
1, 13294, Note_on_c, 0, 81, 120
1, 13345, Note_off_c, 0, 81, 120
1, 13350, Note_on_c, 0, 79, 115
1, 13366, Note_off_c, 0, 79, 115
1, 13370, Note_on_c, 0, 80, 118
1, 13449, Note_off_c, 0, 80, 118
1, 13467, Note_on_c, 0, 77, 123
1, 13545, Note_off_c, 0, 77, 123
1, 13563, Note_on_c, 0, 76, 112
1, 13644, Note_off_c, 0, 76, 112
1, 13662, Note_on_c, 0, 74, 118
1, 13736, Note_off_c, 0, 74, 118
1, 13757, Note_on_c, 0, 75, 118
1, 13848, Note_off_c, 0, 75, 118
1, 13908, Note_on_c, 0, 75, 119
1, 14086, Note_off_c, 0, 75, 119
1, 14113, Note_on_c, 0, 74, 118
1, 14221, Note_off_c, 0, 74, 118
1, 14285, Note_on_c, 0, 74, 118
1, 14470, Note_off_c, 0, 74, 118
1, 14500, Note_on_c, 0, 72, 110
1, 14615, Note_off_c, 0, 72, 110
1, 14632, Note_on_c, 0, 70, 92
1, 14671, Note_off_c, 0, 70, 92
1, 14683, Note_on_c, 0, 72, 112
1, 15063, Note_off_c, 0, 72, 112
1, 15083, Note_on_c, 0, 71, 106
1, 15164, Note_off_c, 0, 71, 106
1, 15195, Note_on_c, 0, 74, 118
1, 15275, Note_off_c, 0, 74, 118
1, 15321, Note_on_c, 0, 72, 103
1, 15385, Note_off_c, 0, 72, 103
1, 15391, Note_on_c, 0, 71, 110
1, 15463, Note_off_c, 0, 71, 110
1, 15486, Note_on_c, 0, 70, 104
1, 15561, Note_off_c, 0, 70, 104
1, 15579, Note_on_c, 0, 68, 119
1, 15654, Note_off_c, 0, 68, 119
1, 15681, Note_on_c, 0, 67, 101
1, 15740, Note_off_c, 0, 67, 101
1, 15769, Note_on_c, 0, 65, 114
1, 15839, Note_off_c, 0, 65, 114
1, 15859, Note_on_c, 0, 62, 97
1, 15937, Note_off_c, 0, 62, 97
1, 15947, Note_on_c, 0, 63, 102
1, 16026, Note_off_c, 0, 63, 102
1, 16037, Note_on_c, 0, 64, 96
1, 16152, Note_off_c, 0, 64, 96
1, 16958, Note_on_c, 0, 77, 124
1, 17013, Note_off_c, 0, 77, 124
1, 17016, Note_on_c, 0, 76, 110
1, 17065, Note_off_c, 0, 76, 110
1, 17069, Note_on_c, 0, 77, 123
1, 17130, Note_off_c, 0, 77, 123
1, 17136, Note_on_c, 0, 76, 118
1, 17187, Note_off_c, 0, 76, 118
1, 17198, Note_on_c, 0, 76, 120
1, 17250, Note_off_c, 0, 76, 120
1, 17258, Note_on_c, 0, 75, 113
1, 17296, Note_off_c, 0, 75, 113
1, 17300, Note_on_c, 0, 76, 116
1, 17350, Note_off_c, 0, 76, 116
1, 17361, Note_on_c, 0, 74, 114
1, 17415, Note_off_c, 0, 74, 114
1, 17420, Note_on_c, 0, 72, 113
1, 17473, Note_off_c, 0, 72, 113
1, 17479, Note_on_c, 0, 71, 95
1, 17525, Note_off_c, 0, 71, 95
1, 17532, Note_on_c, 0, 74, 116
1, 17584, Note_off_c, 0, 74, 116
1, 17591, Note_on_c, 0, 72, 116
1, 17635, Note_off_c, 0, 72, 116
1, 17640, Note_on_c, 0, 71, 111
1, 17687, Note_off_c, 0, 71, 111
1, 17698, Note_on_c, 0, 69, 111
1, 17740, Note_off_c, 0, 69, 111
1, 17752, Note_on_c, 0, 68, 106
1, 17812, Note_off_c, 0, 68, 106
1, 17834, Note_on_c, 0, 69, 100
1, 17865, Note_off_c, 0, 69, 100
1, 17874, Note_on_c, 0, 71, 113
1, 17928, Note_off_c, 0, 71, 113
1, 17947, Note_on_c, 0, 69, 103
1, 17982, Note_off_c, 0, 69, 103
1, 17992, Note_on_c, 0, 72, 118
1, 18049, Note_off_c, 0, 72, 118
1, 18061, Note_on_c, 0, 71, 108
1, 18105, Note_off_c, 0, 71, 108
1, 18108, Note_on_c, 0, 69, 112
1, 18174, Note_off_c, 0, 69, 112
1, 18189, Note_on_c, 0, 67, 103
1, 18220, Note_off_c, 0, 67, 103
1, 18228, Note_on_c, 0, 68, 116
1, 18292, Note_off_c, 0, 68, 116
1, 18307, Note_on_c, 0, 63, 98
1, 18335, Note_off_c, 0, 63, 98
1, 18347, Note_on_c, 0, 66, 113
1, 18410, Note_off_c, 0, 66, 113
1, 18429, Note_on_c, 0, 63, 103
1, 18460, Note_off_c, 0, 63, 103
1, 18466, Note_on_c, 0, 64, 106
1, 18526, Note_off_c, 0, 64, 106
1, 18534, Note_on_c, 0, 66, 108
1, 18583, Note_off_c, 0, 66, 108
1, 18589, Note_on_c, 0, 68, 109
1, 18639, Note_off_c, 0, 68, 109
1, 18647, Note_on_c, 0, 69, 117
1, 18695, Note_off_c, 0, 69, 117
1, 18699, Note_on_c, 0, 71, 117
1, 18759, Note_off_c, 0, 71, 117
1, 18793, Note_on_c, 0, 68, 99
1, 18827, Note_off_c, 0, 68, 99
1, 18829, Note_on_c, 0, 69, 119
1, 18891, Note_off_c, 0, 69, 119
1, 18895, Note_on_c, 0, 65, 107
1, 18935, Note_off_c, 0, 65, 107
1, 18946, Note_on_c, 0, 68, 120
1, 19005, Note_off_c, 0, 68, 120
1, 19017, Note_on_c, 0, 66, 114
1, 19064, Note_off_c, 0, 66, 114
1, 19073, Note_on_c, 0, 64, 113
1, 19119, Note_off_c, 0, 64, 113
1, 19126, Note_on_c, 0, 61, 111
1, 19171, Note_off_c, 0, 61, 111
1, 19181, Note_on_c, 0, 57, 103
1, 19233, Note_off_c, 0, 57, 103
1, 19302, Note_on_c, 0, 63, 111
1, 19364, Note_off_c, 0, 63, 111
1, 19377, Note_on_c, 0, 60, 103
1, 19416, Note_off_c, 0, 60, 103
1, 19426, Note_on_c, 0, 65, 118
1, 19487, Note_off_c, 0, 65, 118
1, 19495, Note_on_c, 0, 62, 93
1, 19541, Note_off_c, 0, 62, 93
1, 19551, Note_on_c, 0, 64, 104
1, 19603, Note_off_c, 0, 64, 104
1, 19619, Note_on_c, 0, 69, 105
1, 19658, Note_off_c, 0, 69, 105
1, 19675, Note_on_c, 0, 67, 116
1, 19722, Note_off_c, 0, 67, 116
1, 19738, Note_on_c, 0, 65, 107
1, 19782, Note_off_c, 0, 65, 107
1, 19791, Note_on_c, 0, 64, 104
1, 19841, Note_off_c, 0, 64, 104
1, 19855, Note_on_c, 0, 62, 105
1, 19903, Note_off_c, 0, 62, 105
1, 19918, Note_on_c, 0, 65, 104
1, 19964, Note_off_c, 0, 65, 104
1, 19985, Note_on_c, 0, 68, 117
1, 20031, Note_off_c, 0, 68, 117
1, 20036, Note_on_c, 0, 67, 108
1, 20086, Note_off_c, 0, 67, 108
1, 20101, Note_on_c, 0, 65, 111
1, 20149, Note_off_c, 0, 65, 111
1, 20159, Note_on_c, 0, 64, 101
1, 20223, Note_off_c, 0, 64, 101
1, 20227, Note_on_c, 0, 67, 99
1, 20270, Note_off_c, 0, 67, 99
1, 20289, Note_on_c, 0, 70, 117
1, 20353, Note_off_c, 0, 70, 117
1, 20381, Note_on_c, 0, 67, 105
1, 20408, Note_off_c, 0, 67, 105
1, 20411, Note_on_c, 0, 68, 113
1, 20458, Note_off_c, 0, 68, 113
1, 20478, Note_on_c, 0, 70, 118
1, 20517, Note_off_c, 0, 70, 118
1, 20533, Note_on_c, 0, 73, 116
1, 20599, Note_off_c, 0, 73, 116
1, 20602, Note_on_c, 0, 71, 108
1, 20641, Note_off_c, 0, 71, 108
1, 20652, Note_on_c, 0, 73, 123
1, 20706, Note_off_c, 0, 73, 123
1, 20712, Note_on_c, 0, 71, 120
1, 20759, Note_off_c, 0, 71, 120
1, 20766, Note_on_c, 0, 70, 114
1, 20812, Note_off_c, 0, 70, 114
1, 20829, Note_on_c, 0, 71, 116
1, 20877, Note_off_c, 0, 71, 116
1, 20881, Note_on_c, 0, 70, 112
1, 20938, Note_off_c, 0, 70, 112
1, 20948, Note_on_c, 0, 68, 104
1, 20990, Note_off_c, 0, 68, 104
1, 20994, Note_on_c, 0, 70, 118
1, 21052, Note_off_c, 0, 70, 118
1, 21068, Note_on_c, 0, 68, 110
1, 21101, Note_off_c, 0, 68, 110
1, 21104, Note_on_c, 0, 67, 110
1, 21156, Note_off_c, 0, 67, 110
1, 21162, Note_on_c, 0, 65, 109
1, 21214, Note_off_c, 0, 65, 109
1, 21220, Note_on_c, 0, 64, 100
1, 21254, Note_off_c, 0, 64, 100
1, 21274, Note_on_c, 0, 67, 94
1, 21301, Note_off_c, 0, 67, 94
1, 21308, Note_on_c, 0, 69, 89
1, 21327, Note_off_c, 0, 69, 89
1, 21335, Note_on_c, 0, 70, 115
1, 21393, Note_off_c, 0, 70, 115
1, 21420, Note_on_c, 0, 67, 98
1, 21452, Note_off_c, 0, 67, 98
1, 21456, Note_on_c, 0, 68, 109
1, 21520, Note_off_c, 0, 68, 109
1, 21533, Note_on_c, 0, 69, 110
1, 21577, Note_off_c, 0, 69, 110
1, 21583, Note_on_c, 0, 72, 117
1, 21650, Note_off_c, 0, 72, 117
1, 21658, Note_on_c, 0, 69, 103
1, 21705, Note_off_c, 0, 69, 103
1, 21707, Note_on_c, 0, 70, 114
1, 21758, Note_off_c, 0, 70, 114
1, 21768, Note_on_c, 0, 72, 117
1, 21828, Note_off_c, 0, 72, 117
1, 21837, Note_on_c, 0, 73, 113
1, 21893, Note_off_c, 0, 73, 113
1, 21903, Note_on_c, 0, 74, 120
1, 21958, Note_off_c, 0, 74, 120
1, 21963, Note_on_c, 0, 75, 120
1, 22017, Note_off_c, 0, 75, 120
1, 22025, Note_on_c, 0, 75, 116
1, 22078, Note_off_c, 0, 75, 116
1, 22083, Note_on_c, 0, 76, 119
1, 22135, Note_off_c, 0, 76, 119
1, 22148, Note_on_c, 0, 76, 120
1, 22202, Note_off_c, 0, 76, 120
1, 22206, Note_on_c, 0, 77, 119
1, 22277, Note_off_c, 0, 77, 119
1, 22281, Note_on_c, 0, 75, 107
1, 22326, Note_off_c, 0, 75, 107
1, 22335, Note_on_c, 0, 76, 121
1, 22402, Note_off_c, 0, 76, 121
1, 22407, Note_on_c, 0, 77, 122
1, 22466, Note_off_c, 0, 77, 122
1, 22488, Note_on_c, 0, 79, 120
1, 22539, Note_off_c, 0, 79, 120
1, 22551, Note_on_c, 0, 82, 118
1, 22603, Note_off_c, 0, 82, 118
1, 22628, Note_on_c, 0, 79, 119
1, 22652, Note_off_c, 0, 79, 119
1, 22656, Note_on_c, 0, 80, 119
1, 22695, Note_off_c, 0, 80, 119
1, 22705, Note_on_c, 0, 80, 120
1, 22757, Note_off_c, 0, 80, 120
1, 22770, Note_on_c, 0, 80, 119
1, 22822, Note_off_c, 0, 80, 119
1, 22836, Note_on_c, 0, 79, 118
1, 22887, Note_off_c, 0, 79, 118
1, 22891, Note_on_c, 0, 77, 115
1, 22934, Note_off_c, 0, 77, 115
1, 22944, Note_on_c, 0, 79, 120
1, 22986, Note_off_c, 0, 79, 120
1, 23007, Note_on_c, 0, 79, 120
1, 23047, Note_off_c, 0, 79, 120
1, 23059, Note_on_c, 0, 79, 119
1, 23113, Note_off_c, 0, 79, 119
1, 23119, Note_on_c, 0, 77, 120
1, 23172, Note_off_c, 0, 77, 120
1, 23177, Note_on_c, 0, 76, 108
1, 23213, Note_off_c, 0, 76, 108
1, 23221, Note_on_c, 0, 77, 123
1, 23273, Note_off_c, 0, 77, 123
1, 23285, Note_on_c, 0, 77, 121
1, 23327, Note_off_c, 0, 77, 121
1, 23337, Note_on_c, 0, 77, 121
1, 23361, Note_off_c, 0, 77, 121
1, 23365, Note_on_c, 0, 76, 117
1, 23391, Note_off_c, 0, 76, 117
1, 23409, Note_on_c, 0, 76, 121
1, 23477, Note_off_c, 0, 76, 121
1, 23504, Note_on_c, 0, 74, 104
1, 23529, Note_off_c, 0, 74, 104
1, 23540, Note_on_c, 0, 76, 119
1, 23598, Note_off_c, 0, 76, 119
1, 23612, Note_on_c, 0, 76, 117
1, 23667, Note_off_c, 0, 76, 117
1, 23671, Note_on_c, 0, 75, 119
1, 23744, Note_off_c, 0, 75, 119
1, 23756, Note_on_c, 0, 74, 108
1, 23781, Note_off_c, 0, 74, 108
1, 23792, Note_on_c, 0, 75, 118
1, 23859, Note_off_c, 0, 75, 118
1, 23881, Note_on_c, 0, 74, 120
1, 23921, Note_off_c, 0, 74, 120
1, 23933, Note_on_c, 0, 73, 115
1, 23996, Note_off_c, 0, 73, 115
1, 24030, Note_on_c, 0, 72, 100
1, 24072, Note_off_c, 0, 72, 100
1, 24105, Note_on_c, 0, 70, 116
1, 24149, Note_off_c, 0, 70, 116
1, 24154, Note_on_c, 0, 72, 107
1, 24201, Note_off_c, 0, 72, 107
1, 24214, Note_on_c, 0, 73, 116
1, 24284, Note_off_c, 0, 73, 116
1, 24298, Note_on_c, 0, 71, 93
1, 24335, Note_off_c, 0, 71, 93
1, 24346, Note_on_c, 0, 72, 118
1, 24412, Note_off_c, 0, 72, 118
1, 24423, Note_on_c, 0, 70, 118
1, 24489, Note_off_c, 0, 70, 118
1, 24536, Note_on_c, 0, 75, 122
1, 24594, Note_off_c, 0, 75, 122
1, 24652, Note_on_c, 0, 76, 120
1, 24711, Note_off_c, 0, 76, 120
1, 24780, Note_on_c, 0, 74, 118
1, 24843, Note_off_c, 0, 74, 118
1, 24910, Note_on_c, 0, 80, 117
1, 24936, Note_off_c, 0, 80, 117
1, 24938, Note_on_c, 0, 79, 114
1, 24960, Note_off_c, 0, 79, 114
1, 24963, Note_on_c, 0, 78, 121
1, 25007, Note_off_c, 0, 78, 121
1, 25012, Note_on_c, 0, 77, 122
1, 25077, Note_off_c, 0, 77, 122
1, 25121, Note_on_c, 0, 76, 121
1, 25189, Note_off_c, 0, 76, 121
1, 25249, Note_on_c, 0, 75, 115
1, 25319, Note_off_c, 0, 75, 115
1, 25348, Note_on_c, 0, 74, 121
1, 25404, Note_off_c, 0, 74, 121
1, 25418, Note_on_c, 0, 73, 114
1, 25479, Note_off_c, 0, 73, 114
1, 25496, Note_on_c, 0, 71, 103
1, 25572, Note_off_c, 0, 71, 103
1, 25692, Note_on_c, 0, 63, 89
1, 25993, Note_off_c, 0, 63, 89
1, 26000, Note_on_c, 0, 65, 96
1, 26220, Note_off_c, 0, 65, 96
1, 26237, Note_on_c, 0, 67, 108
1, 26346, Note_off_c, 0, 67, 108
1, 26351, Note_on_c, 0, 64, 119
1, 26409, Note_off_c, 0, 64, 119
1, 27506, Note_on_c, 0, 90, 100
1, 27531, Note_off_c, 0, 90, 100
1, 27534, Note_on_c, 0, 85, 119
1, 27555, Note_off_c, 0, 85, 119
1, 27555, Note_on_c, 0, 84, 119
1, 27573, Note_off_c, 0, 84, 119
1, 27575, Note_on_c, 0, 83, 118
1, 27596, Note_off_c, 0, 83, 118
1, 27604, Note_on_c, 0, 80, 119
1, 27632, Note_off_c, 0, 80, 119
1, 27636, Note_on_c, 0, 79, 118
1, 27659, Note_off_c, 0, 79, 118
1, 27662, Note_on_c, 0, 78, 118
1, 27676, Note_off_c, 0, 78, 118
1, 27678, Note_on_c, 0, 76, 122
1, 27705, Note_off_c, 0, 76, 122
1, 27708, Note_on_c, 0, 77, 116
1, 27728, Note_off_c, 0, 77, 116
1, 27728, Note_on_c, 0, 75, 111
1, 27750, Note_off_c, 0, 75, 111
1, 27751, Note_on_c, 0, 71, 116
1, 27789, Note_off_c, 0, 71, 116
1, 27792, Note_on_c, 0, 70, 106
1, 27816, Note_off_c, 0, 70, 106
1, 27820, Note_on_c, 0, 67, 116
1, 27858, Note_off_c, 0, 67, 116
1, 27863, Note_on_c, 0, 65, 104
1, 27883, Note_off_c, 0, 65, 104
1, 27884, Note_on_c, 0, 64, 99
1, 27900, Note_off_c, 0, 64, 99
1, 27903, Note_on_c, 0, 65, 105
1, 27923, Note_off_c, 0, 65, 105
1, 27929, Note_on_c, 0, 62, 103
1, 27952, Note_off_c, 0, 62, 103
1, 27955, Note_on_c, 0, 60, 103
1, 28022, Note_off_c, 0, 60, 103
1, 28031, Note_on_c, 0, 63, 103
1, 28051, Note_off_c, 0, 63, 103
1, 28055, Note_on_c, 0, 65, 111
1, 28072, Note_off_c, 0, 65, 111
1, 28076, Note_on_c, 0, 68, 126
1, 28101, Note_off_c, 0, 68, 126
1, 28104, Note_on_c, 0, 67, 116
1, 28142, Note_off_c, 0, 67, 116
1, 28147, Note_on_c, 0, 65, 109
1, 28177, Note_off_c, 0, 65, 109
1, 28184, Note_on_c, 0, 62, 104
1, 28214, Note_off_c, 0, 62, 104
1, 28218, Note_on_c, 0, 63, 98
1, 28251, Note_off_c, 0, 63, 98
1, 28257, Note_on_c, 0, 65, 121
1, 28285, Note_off_c, 0, 65, 121
1, 28289, Note_on_c, 0, 67, 10
1, 28328, Note_off_c, 0, 67, 10
1, 29101, Note_on_c, 0, 71, 106
1, 29220, Note_off_c, 0, 71, 106
1, 29235, Note_on_c, 0, 72, 94
1, 29279, Note_off_c, 0, 72, 94
1, 29295, Note_on_c, 0, 74, 116
1, 29394, Note_off_c, 0, 74, 116
1, 29420, Note_on_c, 0, 76, 119
1, 29511, Note_off_c, 0, 76, 119
1, 29624, Note_on_c, 0, 76, 121
1, 29690, Note_off_c, 0, 76, 121
1, 29814, Note_on_c, 0, 76, 119
1, 29890, Note_off_c, 0, 76, 119
1, 29991, Note_on_c, 0, 76, 121
1, 30084, Note_off_c, 0, 76, 121
1, 30186, Note_on_c, 0, 74, 106
1, 30240, Note_off_c, 0, 74, 106
1, 30253, Note_on_c, 0, 76, 120
1, 30439, Note_off_c, 0, 76, 120
1, 30449, Note_on_c, 0, 77, 122
1, 30622, Note_off_c, 0, 77, 122
1, 30628, Note_on_c, 0, 79, 115
1, 30785, Note_off_c, 0, 79, 115
1, 30816, Note_on_c, 0, 81, 117
1, 30999, Note_off_c, 0, 81, 117
1, 31014, Note_on_c, 0, 78, 115
1, 31659, Note_off_c, 0, 78, 115
1, 31721, Note_on_c, 0, 79, 126
1, 31776, Note_off_c, 0, 79, 126
1, 31912, Note_on_c, 0, 76, 127
1, 31973, Note_off_c, 0, 76, 127
1, 31993, Note_on_c, 0, 72, 103
1, 32100, Note_off_c, 0, 72, 103
1, 32110, Note_on_c, 0, 65, 101
1, 32152, Note_off_c, 0, 65, 101
1, 32154, Note_on_c, 0, 69, 96
1, 32322, Note_off_c, 0, 69, 96
1, 33243, Note_on_c, 0, 77, 98
1, 33276, Note_off_c, 0, 77, 98
1, 33346, Note_on_c, 0, 79, 116
1, 33374, Note_off_c, 0, 79, 116
1, 33377, Note_on_c, 0, 80, 112
1, 33445, Note_off_c, 0, 80, 112
1, 33452, Note_on_c, 0, 77, 116
1, 33530, Note_off_c, 0, 77, 116
1, 33548, Note_on_c, 0, 76, 111
1, 33634, Note_off_c, 0, 76, 111
1, 33641, Note_on_c, 0, 74, 119
1, 33727, Note_off_c, 0, 74, 119
1, 33747, Note_on_c, 0, 72, 105
1, 33827, Note_off_c, 0, 72, 105
1, 33836, Note_on_c, 0, 71, 113
1, 33892, Note_off_c, 0, 71, 113
1, 33917, Note_on_c, 0, 69, 114
1, 34032, Note_off_c, 0, 69, 114
1, 34052, Note_on_c, 0, 68, 97
1, 34086, Note_off_c, 0, 68, 97
1, 34096, Note_on_c, 0, 69, 115
1, 34257, Note_off_c, 0, 69, 115
1, 34265, Note_on_c, 0, 71, 112
1, 34382, Note_off_c, 0, 71, 112
1, 34398, Note_on_c, 0, 71, 114
1, 34530, Note_off_c, 0, 71, 114
1, 34534, Note_on_c, 0, 72, 113
1, 34827, Note_off_c, 0, 72, 113
1, 34856, Note_on_c, 0, 71, 118
1, 34905, Note_off_c, 0, 71, 118
1, 34911, Note_on_c, 0, 72, 109
1, 34972, Note_off_c, 0, 72, 109
1, 34981, Note_on_c, 0, 71, 119
1, 35010, Note_off_c, 0, 71, 119
1, 35013, Note_on_c, 0, 72, 108
1, 35116, Note_off_c, 0, 72, 108
1, 35123, Note_on_c, 0, 71, 118
1, 35152, Note_off_c, 0, 71, 118
1, 35160, Note_on_c, 0, 72, 111
1, 35234, Note_off_c, 0, 72, 111
1, 35245, Note_on_c, 0, 70, 111
1, 35357, Note_off_c, 0, 70, 111
1, 35371, Note_on_c, 0, 71, 111
1, 35485, Note_off_c, 0, 71, 111
1, 35508, Note_on_c, 0, 70, 117
1, 35543, Note_off_c, 0, 70, 117
1, 35546, Note_on_c, 0, 71, 107
1, 35621, Note_off_c, 0, 71, 107
1, 35636, Note_on_c, 0, 70, 115
1, 35664, Note_off_c, 0, 70, 115
1, 35667, Note_on_c, 0, 71, 110
1, 35747, Note_off_c, 0, 71, 110
1, 35766, Note_on_c, 0, 71, 109
1, 35871, Note_off_c, 0, 71, 109
1, 35908, Note_on_c, 0, 69, 94
1, 36003, Note_off_c, 0, 69, 94
1, 36023, Note_on_c, 0, 70, 112
1, 36121, Note_off_c, 0, 70, 112
1, 36143, Note_on_c, 0, 70, 112
1, 36259, Note_off_c, 0, 70, 112
1, 36281, Note_on_c, 0, 70, 112
1, 36383, Note_off_c, 0, 70, 112
1, 36399, Note_on_c, 0, 70, 114
1, 36509, Note_off_c, 0, 70, 114
1, 36543, Note_on_c, 0, 68, 103
1, 36617, Note_off_c, 0, 68, 103
1, 36630, Note_on_c, 0, 69, 113
1, 36753, Note_off_c, 0, 69, 113
1, 36763, Note_on_c, 0, 69, 111
1, 36884, Note_off_c, 0, 69, 111
1, 36895, Note_on_c, 0, 69, 114
1, 37004, Note_off_c, 0, 69, 114
1, 37012, Note_on_c, 0, 67, 98
1, 37105, Note_off_c, 0, 67, 98
1, 37125, Note_on_c, 0, 68, 113
1, 37248, Note_off_c, 0, 68, 113
1, 37256, Note_on_c, 0, 68, 115
1, 37364, Note_off_c, 0, 68, 115
1, 37375, Note_on_c, 0, 68, 116
1, 37480, Note_off_c, 0, 68, 116
1, 37501, Note_on_c, 0, 66, 99
1, 37585, Note_off_c, 0, 66, 99
1, 37625, Note_on_c, 0, 67, 115
1, 37715, Note_off_c, 0, 67, 115
1, 37724, Note_on_c, 0, 69, 117
1, 37809, Note_off_c, 0, 69, 117
1, 37845, Note_on_c, 0, 71, 118
1, 37867, Note_off_c, 0, 71, 118
1, 37870, Note_on_c, 0, 72, 103
1, 38399, Note_off_c, 0, 72, 103
1, 38423, Note_on_c, 0, 76, 111
1, 38564, Note_off_c, 0, 76, 111
1, 38576, Note_on_c, 0, 72, 105
1, 38628, Note_off_c, 0, 72, 105
1, 39603, Note_on_c, 0, 67, 115
1, 39708, Note_off_c, 0, 67, 115
1, 39717, Note_on_c, 0, 65, 96
1, 39768, Note_off_c, 0, 65, 96
1, 39791, Note_on_c, 0, 67, 109
1, 39889, Note_off_c, 0, 67, 109
1, 39898, Note_on_c, 0, 69, 119
1, 39976, Note_off_c, 0, 69, 119
1, 40008, Note_on_c, 0, 67, 100
1, 40084, Note_off_c, 0, 67, 100
1, 40092, Note_on_c, 0, 65, 117
1, 40158, Note_off_c, 0, 65, 117
1, 40182, Note_on_c, 0, 64, 116
1, 40266, Note_off_c, 0, 64, 116
1, 41039, Note_on_c, 0, 73, 112
1, 41066, Note_off_c, 0, 73, 112
1, 41069, Note_on_c, 0, 74, 113
1, 41297, Note_off_c, 0, 74, 113
1, 41308, Note_on_c, 0, 74, 115
1, 41499, Note_off_c, 0, 74, 115
1, 41511, Note_on_c, 0, 76, 118
1, 41665, Note_off_c, 0, 76, 118
1, 41711, Note_on_c, 0, 72, 107
1, 41825, Note_off_c, 0, 72, 107
1, 41852, Note_on_c, 0, 69, 95
1, 41899, Note_off_c, 0, 69, 95
1, 42264, Note_on_c, 0, 71, 107
1, 42323, Note_off_c, 0, 71, 107
1, 42327, Note_on_c, 0, 72, 101
1, 42375, Note_off_c, 0, 72, 101
1, 42382, Note_on_c, 0, 74, 117
1, 42440, Note_off_c, 0, 74, 117
1, 42447, Note_on_c, 0, 72, 112
1, 42493, Note_off_c, 0, 72, 112
1, 42498, Note_on_c, 0, 71, 112
1, 42548, Note_off_c, 0, 71, 112
1, 42556, Note_on_c, 0, 69, 111
1, 42605, Note_off_c, 0, 69, 111
1, 42610, Note_on_c, 0, 68, 105
1, 42672, Note_off_c, 0, 68, 105
1, 42694, Note_on_c, 0, 71, 91
1, 42727, Note_off_c, 0, 71, 91
1, 42730, Note_on_c, 0, 74, 112
1, 42797, Note_off_c, 0, 74, 112
1, 42802, Note_on_c, 0, 77, 117
1, 42855, Note_off_c, 0, 77, 117
1, 42864, Note_on_c, 0, 74, 110
1, 42925, Note_off_c, 0, 74, 110
1, 42935, Note_on_c, 0, 78, 95
1, 42970, Note_off_c, 0, 78, 95
1, 42982, Note_on_c, 0, 76, 112
1, 43047, Note_off_c, 0, 76, 112
1, 43052, Note_on_c, 0, 72, 104
1, 43098, Note_off_c, 0, 72, 104
1, 43104, Note_on_c, 0, 71, 101
1, 43156, Note_off_c, 0, 71, 101
1, 43173, Note_on_c, 0, 74, 115
1, 43224, Note_off_c, 0, 74, 115
1, 43233, Note_on_c, 0, 72, 109
1, 43283, Note_off_c, 0, 72, 109
1, 43293, Note_on_c, 0, 69, 111
1, 43346, Note_off_c, 0, 69, 111
1, 43354, Note_on_c, 0, 68, 103
1, 43398, Note_off_c, 0, 68, 103
1, 43406, Note_on_c, 0, 69, 97
1, 43454, Note_off_c, 0, 69, 97
1, 43457, Note_on_c, 0, 71, 113
1, 43515, Note_off_c, 0, 71, 113
1, 43526, Note_on_c, 0, 69, 99
1, 43577, Note_off_c, 0, 69, 99
1, 43586, Note_on_c, 0, 70, 112
1, 43639, Note_off_c, 0, 70, 112
1, 43647, Note_on_c, 0, 68, 111
1, 43699, Note_off_c, 0, 68, 111
1, 43702, Note_on_c, 0, 67, 104
1, 43752, Note_off_c, 0, 67, 104
1, 43770, Note_on_c, 0, 65, 111
1, 43811, Note_off_c, 0, 65, 111
1, 43818, Note_on_c, 0, 64, 103
1, 43872, Note_off_c, 0, 64, 103
1, 43896, Note_on_c, 0, 62, 96
1, 43928, Note_off_c, 0, 62, 96
1, 43935, Note_on_c, 0, 65, 111
1, 43995, Note_off_c, 0, 65, 111
1, 44001, Note_on_c, 0, 68, 116
1, 44050, Note_off_c, 0, 68, 116
1, 44060, Note_on_c, 0, 67, 106
1, 44108, Note_off_c, 0, 67, 106
1, 44129, Note_on_c, 0, 65, 108
1, 44169, Note_off_c, 0, 65, 108
1, 44177, Note_on_c, 0, 64, 96
1, 44245, Note_off_c, 0, 64, 96
1, 44255, Note_on_c, 0, 67, 101
1, 44286, Note_off_c, 0, 67, 101
1, 44303, Note_on_c, 0, 70, 113
1, 44366, Note_off_c, 0, 70, 113
1, 44399, Note_on_c, 0, 67, 90
1, 44431, Note_off_c, 0, 67, 90
1, 44435, Note_on_c, 0, 68, 107
1, 44487, Note_off_c, 0, 68, 107
1, 44493, Note_on_c, 0, 70, 111
1, 44533, Note_off_c, 0, 70, 111
1, 44546, Note_on_c, 0, 71, 107
1, 44574, Note_off_c, 0, 71, 107
1, 44579, Note_on_c, 0, 72, 98
1, 44609, Note_off_c, 0, 72, 98
1, 44611, Note_on_c, 0, 73, 108
1, 44643, Note_off_c, 0, 73, 108
1, 44651, Note_on_c, 0, 74, 114
1, 44709, Note_off_c, 0, 74, 114
1, 44740, Note_on_c, 0, 71, 95
1, 44773, Note_off_c, 0, 71, 95
1, 44779, Note_on_c, 0, 72, 112
1, 44829, Note_off_c, 0, 72, 112
1, 44838, Note_on_c, 0, 73, 114
1, 44879, Note_off_c, 0, 73, 114
1, 44888, Note_on_c, 0, 74, 113
1, 44935, Note_off_c, 0, 74, 113
1, 44950, Note_on_c, 0, 75, 115
1, 44988, Note_off_c, 0, 75, 115
1, 44997, Note_on_c, 0, 76, 114
1, 45036, Note_off_c, 0, 76, 114
1, 45042, Note_on_c, 0, 77, 113
1, 45098, Note_off_c, 0, 77, 113
1, 45107, Note_on_c, 0, 76, 114
1, 45132, Note_off_c, 0, 76, 114
1, 45138, Note_on_c, 0, 77, 118
1, 45194, Note_off_c, 0, 77, 118
1, 45204, Note_on_c, 0, 76, 117
1, 45232, Note_off_c, 0, 76, 117
1, 45239, Note_on_c, 0, 77, 116
1, 45302, Note_off_c, 0, 77, 116
1, 45321, Note_on_c, 0, 75, 113
1, 45366, Note_off_c, 0, 75, 113
1, 45381, Note_on_c, 0, 76, 114
1, 45442, Note_off_c, 0, 76, 114
1, 45453, Note_on_c, 0, 76, 117
1, 45507, Note_off_c, 0, 76, 117
1, 45514, Note_on_c, 0, 75, 113
1, 45560, Note_off_c, 0, 75, 113
1, 45570, Note_on_c, 0, 74, 111
1, 45610, Note_off_c, 0, 74, 111
1, 45615, Note_on_c, 0, 75, 113
1, 45673, Note_off_c, 0, 75, 113
1, 45684, Note_on_c, 0, 74, 114
1, 45723, Note_off_c, 0, 74, 114
1, 45731, Note_on_c, 0, 73, 110
1, 45791, Note_off_c, 0, 73, 110
1, 45803, Note_on_c, 0, 72, 105
1, 45833, Note_off_c, 0, 72, 105
1, 45860, Note_on_c, 0, 73, 116
1, 45893, Note_off_c, 0, 73, 116
1, 45896, Note_on_c, 0, 74, 115
1, 45944, Note_off_c, 0, 74, 115
1, 45964, Note_on_c, 0, 73, 110
1, 45983, Note_off_c, 0, 73, 110
1, 45984, Note_on_c, 0, 74, 111
1, 46026, Note_off_c, 0, 74, 111
1, 46049, Note_on_c, 0, 73, 113
1, 46073, Note_off_c, 0, 73, 113
1, 46074, Note_on_c, 0, 74, 112
1, 46120, Note_off_c, 0, 74, 112
1, 46133, Note_on_c, 0, 72, 109
1, 46177, Note_off_c, 0, 72, 109
1, 46182, Note_on_c, 0, 71, 103
1, 46238, Note_off_c, 0, 71, 103
1, 46247, Note_on_c, 0, 72, 101
1, 46286, Note_off_c, 0, 72, 101
1, 46300, Note_on_c, 0, 74, 114
1, 46355, Note_off_c, 0, 74, 114
1, 46363, Note_on_c, 0, 73, 115
1, 46410, Note_off_c, 0, 73, 115
1, 46417, Note_on_c, 0, 72, 113
1, 46469, Note_off_c, 0, 72, 113
1, 46479, Note_on_c, 0, 71, 112
1, 46529, Note_off_c, 0, 71, 112
1, 46543, Note_on_c, 0, 68, 99
1, 46560, Note_off_c, 0, 68, 99
1, 46571, Note_on_c, 0, 69, 108
1, 46592, Note_off_c, 0, 69, 108
1, 46597, Note_on_c, 0, 70, 109
1, 46640, Note_off_c, 0, 70, 109
1, 46651, Note_on_c, 0, 69, 113
1, 46689, Note_off_c, 0, 69, 113
1, 46692, Note_on_c, 0, 70, 103
1, 46734, Note_off_c, 0, 70, 103
1, 46748, Note_on_c, 0, 69, 111
1, 46772, Note_off_c, 0, 69, 111
1, 46775, Note_on_c, 0, 70, 116
1, 46844, Note_off_c, 0, 70, 116
1, 46853, Note_on_c, 0, 67, 100
1, 46885, Note_off_c, 0, 67, 100
1, 46899, Note_on_c, 0, 68, 114
1, 46958, Note_off_c, 0, 68, 114
1, 46989, Note_on_c, 0, 67, 96
1, 47015, Note_off_c, 0, 67, 96
1, 47031, Note_on_c, 0, 70, 119
1, 47082, Note_off_c, 0, 70, 119
1, 47095, Note_on_c, 0, 68, 112
1, 47141, Note_off_c, 0, 68, 112
1, 47152, Note_on_c, 0, 67, 106
1, 47192, Note_off_c, 0, 67, 106
1, 47208, Note_on_c, 0, 65, 108
1, 47251, Note_off_c, 0, 65, 108
1, 47263, Note_on_c, 0, 63, 99
1, 47307, Note_off_c, 0, 63, 99
1, 47312, Note_on_c, 0, 62, 107
1, 47344, Note_off_c, 0, 62, 107
1, 47357, Note_on_c, 0, 66, 103
1, 47380, Note_off_c, 0, 66, 103
1, 47382, Note_on_c, 0, 67, 109
1, 47429, Note_off_c, 0, 67, 109
1, 47451, Note_on_c, 0, 65, 106
1, 47479, Note_off_c, 0, 65, 106
1, 47485, Note_on_c, 0, 67, 110
1, 47531, Note_off_c, 0, 67, 110
1, 47555, Note_on_c, 0, 66, 108
1, 47577, Note_off_c, 0, 66, 108
1, 47583, Note_on_c, 0, 67, 111
1, 47629, Note_off_c, 0, 67, 111
1, 47695, Note_on_c, 0, 65, 115
1, 47746, Note_off_c, 0, 65, 115
1, 47773, Note_on_c, 0, 63, 93
1, 47805, Note_off_c, 0, 63, 93
1, 47832, Note_on_c, 0, 64, 100
1, 47889, Note_off_c, 0, 64, 100
1, 47905, Note_on_c, 0, 65, 109
1, 47966, Note_off_c, 0, 65, 109
1, 47992, Note_on_c, 0, 67, 104
1, 48033, Note_off_c, 0, 67, 104
1, 48055, Note_on_c, 0, 70, 113
1, 48110, Note_off_c, 0, 70, 113
1, 48161, Note_on_c, 0, 68, 115
1, 48218, Note_off_c, 0, 68, 115
1, 48224, Note_on_c, 0, 67, 117
1, 48277, Note_off_c, 0, 67, 117
1, 48288, Note_on_c, 0, 65, 116
1, 48333, Note_off_c, 0, 65, 116
1, 48339, Note_on_c, 0, 62, 101
1, 48373, Note_off_c, 0, 62, 101
1, 48384, Note_on_c, 0, 63, 102
1, 48417, Note_off_c, 0, 63, 102
1, 48433, Note_on_c, 0, 64, 109
1, 48474, Note_off_c, 0, 64, 109
1, 48482, Note_on_c, 0, 67, 111
1, 48541, Note_off_c, 0, 67, 111
1, 48622, Note_on_c, 0, 69, 103
1, 48706, Note_off_c, 0, 69, 103
1, 48749, Note_on_c, 0, 71, 108
1, 48801, Note_off_c, 0, 71, 108
1, 48854, Note_on_c, 0, 74, 119
1, 48892, Note_off_c, 0, 74, 119
1, 48894, Note_on_c, 0, 72, 113
1, 48950, Note_off_c, 0, 72, 113
1, 48959, Note_on_c, 0, 71, 108
1, 49073, Note_off_c, 0, 71, 108
1, 49081, Note_on_c, 0, 69, 108
1, 49147, Note_off_c, 0, 69, 108
1, 49196, Note_on_c, 0, 70, 115
1, 49236, Note_off_c, 0, 70, 115
1, 49245, Note_on_c, 0, 68, 112
1, 49309, Note_off_c, 0, 68, 112
1, 49325, Note_on_c, 0, 63, 100
1, 49403, Note_off_c, 0, 63, 100
1, 49412, Note_on_c, 0, 65, 106
1, 49481, Note_off_c, 0, 65, 106
1, 49543, Note_on_c, 0, 67, 110
1, 49584, Note_off_c, 0, 67, 110
1, 49589, Note_on_c, 0, 65, 113
1, 49630, Note_off_c, 0, 65, 113
1, 49640, Note_on_c, 0, 61, 90
1, 49739, Note_off_c, 0, 61, 90
1, 49751, Note_on_c, 0, 63, 81
1, 49781, Note_off_c, 0, 63, 81
1, 49868, Note_on_c, 0, 64, 111
1, 49899, Note_off_c, 0, 64, 111
1, 49906, Note_on_c, 0, 62, 104
1, 49941, Note_off_c, 0, 62, 104
1, 49964, Note_on_c, 0, 59, 87
1, 50131, Note_off_c, 0, 59, 87
1, 50146, Note_on_c, 0, 56, 90
1, 50259, Note_off_c, 0, 56, 90
1, 50271, Note_on_c, 0, 55, 87
1, 50477, Note_off_c, 0, 55, 87
1, 50491, Note_on_c, 0, 62, 88
1, 50549, Note_off_c, 0, 62, 88
1, 50557, Note_on_c, 0, 65, 90
1, 50666, Note_off_c, 0, 65, 90
1, 50678, Note_on_c, 0, 64, 83
1, 50820, Note_off_c, 0, 64, 83
1, 50820, End_track
0, 0, End_of_file
