0, 0, Header, 1, 1, 192
1, 0, Start_track
1, 0, Note_on_c, 0, 73, 90
1, 79, Note_off_c, 0, 73, 90
1, 105, Note_on_c, 0, 74, 114
1, 689, Title_t, "Melody"
1, 689, Tempo, 176991
1, 689, Key_signature, -2, "major"
1, 689, Time_signature, 4, 2, 24, 8
1, 777, Note_off_c, 0, 74, 114
1, 785, Note_on_c, 0, 73, 109
1, 873, Note_off_c, 0, 73, 109
1, 873, Note_on_c, 0, 74, 112
1, 1138, Note_on_c, 0, 72, 99
1, 1138, Note_off_c, 0, 74, 112
1, 1199, Note_off_c, 0, 72, 99
1, 1216, Note_on_c, 0, 74, 103
1, 1304, Note_off_c, 0, 74, 103
1, 1312, Note_on_c, 0, 72, 111
1, 1400, Note_on_c, 0, 70, 115
1, 1400, Note_off_c, 0, 72, 111
1, 1550, Note_off_c, 0, 70, 115
1, 1558, Note_on_c, 0, 69, 112
1, 1885, Note_off_c, 0, 69, 112
1, 1920, Note_on_c, 0, 69, 114
1, 2212, Note_off_c, 0, 69, 114
1, 2238, Note_on_c, 0, 65, 114
1, 2335, Note_off_c, 0, 65, 114
1, 2352, Note_on_c, 0, 67, 107
1, 2387, Note_off_c, 0, 67, 107
1, 2395, Note_on_c, 0, 69, 115
1, 2465, Note_on_c, 0, 67, 118
1, 2465, Note_off_c, 0, 69, 115
1, 2526, Note_off_c, 0, 67, 118
1, 2526, Note_on_c, 0, 65, 123
1, 2711, Note_off_c, 0, 65, 123
1, 2728, Note_on_c, 0, 67, 106
1, 2772, Note_off_c, 0, 67, 106
1, 2772, Note_on_c, 0, 69, 105
1, 2851, Note_off_c, 0, 69, 105
1, 2859, Note_on_c, 0, 67, 110
1, 2903, Note_off_c, 0, 67, 110
1, 2903, Note_on_c, 0, 65, 120
1, 3080, Note_off_c, 0, 65, 120
1, 3088, Note_on_c, 0, 62, 113
1, 3167, Note_off_c, 0, 62, 113
1, 3169, Note_on_c, 0, 65, 118
1, 3213, Note_off_c, 0, 65, 118
1, 3238, Note_on_c, 0, 62, 121
1, 3269, Note_off_c, 0, 62, 121
1, 3275, Note_on_c, 0, 58, 117
1, 3495, Note_off_c, 0, 58, 117
1, 3537, Note_on_c, 0, 65, 104
1, 3596, Note_off_c, 0, 65, 104
1, 3600, Note_on_c, 0, 62, 117
1, 3675, Note_off_c, 0, 62, 117
1, 3693, Note_on_c, 0, 58, 116
1, 3907, Note_on_c, 0, 62, 102
1, 3907, Note_off_c, 0, 58, 116
1, 3963, Note_off_c, 0, 62, 102
1, 3963, Note_on_c, 0, 65, 102
1, 3994, Note_off_c, 0, 65, 102
1, 4044, Note_on_c, 0, 62, 110
1, 4106, Note_off_c, 0, 62, 110
1, 4106, Note_on_c, 0, 58, 118
1, 4282, Note_off_c, 0, 58, 118
1, 4313, Note_on_c, 0, 62, 102
1, 4363, Note_off_c, 0, 62, 102
1, 4375, Note_on_c, 0, 65, 107
1, 4456, Note_off_c, 0, 65, 107
1, 4462, Note_on_c, 0, 62, 116
1, 4499, Note_on_c, 0, 58, 115
1, 4499, Note_off_c, 0, 62, 116
1, 4687, Note_off_c, 0, 58, 115
1, 4718, Note_on_c, 0, 64, 116
1, 4755, Note_off_c, 0, 64, 116
1, 4780, Note_on_c, 0, 65, 101
1, 5321, Note_off_c, 0, 65, 101
1, 6057, Note_on_c, 0, 70, 107
1, 6172, Note_off_c, 0, 70, 107
1, 6185, Note_on_c, 0, 69, 115
1, 6269, Note_off_c, 0, 69, 115
1, 6286, Note_on_c, 0, 68, 116
1, 6361, Note_off_c, 0, 68, 116
1, 6378, Note_on_c, 0, 67, 115
1, 6462, Note_off_c, 0, 67, 115
1, 6462, Note_on_c, 0, 65, 122
1, 6568, Note_off_c, 0, 65, 122
1, 6568, Note_on_c, 0, 63, 118
1, 6665, Note_off_c, 0, 63, 118
1, 6665, Note_on_c, 0, 62, 119
1, 6757, Note_off_c, 0, 62, 119
1, 6765, Note_on_c, 0, 60, 116
1, 6844, Note_off_c, 0, 60, 116
1, 6852, Note_on_c, 0, 59, 123
1, 6931, Note_off_c, 0, 59, 123
1, 6949, Note_on_c, 0, 58, 123
1, 7032, Note_off_c, 0, 58, 123
1, 7056, Note_on_c, 0, 57, 120
1, 7172, Note_off_c, 0, 57, 120
1, 7241, Note_on_c, 0, 58, 98
1, 7378, Note_off_c, 0, 58, 98
1, 7445, Note_on_c, 0, 60, 96
1, 7577, Note_off_c, 0, 60, 96
1, 7627, Note_on_c, 0, 62, 117
1, 7742, Note_off_c, 0, 62, 117
1, 7742, Note_on_c, 0, 65, 110
1, 7883, Note_off_c, 0, 65, 110
1, 7931, Note_on_c, 0, 63, 111
1, 8019, Note_off_c, 0, 63, 111
1, 8019, Note_on_c, 0, 64, 117
1, 8107, Note_off_c, 0, 64, 117
1, 8115, Note_on_c, 0, 65, 121
1, 8221, Note_off_c, 0, 65, 121
1, 8243, Note_on_c, 0, 66, 114
1, 8318, Note_off_c, 0, 66, 114
1, 8331, Note_on_c, 0, 68, 99
1, 8397, Note_off_c, 0, 68, 99
1, 8410, Note_on_c, 0, 70, 114
1, 8520, Note_off_c, 0, 70, 114
1, 8528, Note_on_c, 0, 66, 112
1, 8603, Note_off_c, 0, 66, 112
1, 8629, Note_on_c, 0, 68, 113
1, 8721, Note_off_c, 0, 68, 113
1, 8734, Note_on_c, 0, 65, 117
1, 8818, Note_off_c, 0, 65, 117
1, 8840, Note_on_c, 0, 66, 117
1, 8932, Note_off_c, 0, 66, 117
1, 8932, Note_on_c, 0, 64, 119
1, 8998, Note_off_c, 0, 64, 119
1, 9002, Note_on_c, 0, 65, 123
1, 9099, Note_off_c, 0, 65, 123
1, 9125, Note_on_c, 0, 63, 118
1, 9200, Note_off_c, 0, 63, 118
1, 9232, Note_on_c, 0, 60, 106
1, 9316, Note_off_c, 0, 60, 106
1, 9321, Note_on_c, 0, 61, 104
1, 9396, Note_off_c, 0, 61, 104
1, 9408, Note_on_c, 0, 62, 106
1, 9523, Note_off_c, 0, 62, 106
1, 9590, Note_on_c, 0, 65, 115
1, 9691, Note_off_c, 0, 65, 115
1, 9807, Note_on_c, 0, 70, 114
1, 10010, Note_off_c, 0, 70, 114
1, 10010, Note_on_c, 0, 72, 113
1, 10200, Note_off_c, 0, 72, 113
1, 10200, Note_on_c, 0, 74, 116
1, 10549, Note_off_c, 0, 74, 116
1, 10579, Note_on_c, 0, 74, 117
1, 10782, Note_off_c, 0, 74, 117
1, 10795, Note_on_c, 0, 77, 117
1, 11003, Note_off_c, 0, 77, 117
1, 11011, Note_on_c, 0, 76, 108
1, 11537, Note_off_c, 0, 76, 108
1, 12537, Note_on_c, 0, 83, 114
1, 12678, Note_off_c, 0, 83, 114
1, 12682, Note_on_c, 0, 84, 109
1, 13110, Note_off_c, 0, 84, 109
1, 13121, Note_on_c, 0, 82, 90
1, 13316, Note_off_c, 0, 82, 90
1, 13327, Note_on_c, 0, 81, 103
1, 13672, Note_off_c, 0, 81, 103
1, 13676, Note_on_c, 0, 79, 110
1, 13932, Note_off_c, 0, 79, 110
1, 13940, Note_on_c, 0, 80, 106
1, 13979, Note_off_c, 0, 80, 106
1, 14009, Note_on_c, 0, 81, 111
1, 14053, Note_off_c, 0, 81, 111
1, 14070, Note_on_c, 0, 82, 111
1, 14415, Note_off_c, 0, 82, 111
1, 14432, Note_on_c, 0, 75, 101
1, 15034, Note_off_c, 0, 75, 101
1, 15618, Note_on_c, 0, 82, 105
1, 15737, Note_off_c, 0, 82, 105
1, 15749, Note_on_c, 0, 81, 90
1, 15796, Note_off_c, 0, 81, 90
1, 15827, Note_on_c, 0, 82, 105
1, 15902, Note_off_c, 0, 82, 105
1, 15914, Note_on_c, 0, 81, 98
1, 15970, Note_off_c, 0, 81, 98
1, 15984, Note_on_c, 0, 80, 102
1, 16034, Note_off_c, 0, 80, 102
1, 16035, Note_on_c, 0, 79, 99
1, 16110, Note_off_c, 0, 79, 99
1, 16125, Note_on_c, 0, 78, 99
1, 16206, Note_off_c, 0, 78, 99
1, 16221, Note_on_c, 0, 77, 115
1, 16280, Note_off_c, 0, 77, 115
1, 16298, Note_on_c, 0, 76, 115
1, 16417, Note_off_c, 0, 76, 115
1, 16417, Note_on_c, 0, 75, 111
1, 16495, Note_off_c, 0, 75, 111
1, 16504, Note_on_c, 0, 74, 113
1, 16585, Note_off_c, 0, 74, 113
1, 16588, Note_on_c, 0, 73, 106
1, 16691, Note_off_c, 0, 73, 106
1, 16698, Note_on_c, 0, 71, 95
1, 16759, Note_off_c, 0, 71, 95
1, 16785, Note_on_c, 0, 72, 101
1, 16891, Note_off_c, 0, 72, 101
1, 16899, Note_on_c, 0, 70, 109
1, 16965, Note_off_c, 0, 70, 109
1, 16978, Note_on_c, 0, 69, 114
1, 17066, Note_off_c, 0, 69, 114
1, 17088, Note_on_c, 0, 68, 106
1, 17158, Note_off_c, 0, 68, 106
1, 17170, Note_on_c, 0, 70, 99
1, 17271, Note_off_c, 0, 70, 99
1, 17373, Note_on_c, 0, 72, 108
1, 17576, Note_off_c, 0, 72, 108
1, 17594, Note_on_c, 0, 70, 107
1, 17757, Note_off_c, 0, 70, 107
1, 17760, Note_on_c, 0, 72, 87
1, 17866, Note_off_c, 0, 72, 87
1, 18150, Note_on_c, 0, 70, 91
1, 18247, Note_off_c, 0, 70, 91
1, 18330, Note_on_c, 0, 72, 105
1, 18569, Note_off_c, 0, 72, 105
1, 18581, Note_on_c, 0, 70, 109
1, 18744, Note_off_c, 0, 70, 109
1, 18770, Note_on_c, 0, 72, 100
1, 18840, Note_off_c, 0, 72, 100
1, 19131, Note_on_c, 0, 70, 96
1, 19228, Note_off_c, 0, 70, 96
1, 19344, Note_on_c, 0, 72, 104
1, 19525, Note_off_c, 0, 72, 104
1, 19533, Note_on_c, 0, 70, 112
1, 19705, Note_off_c, 0, 70, 112
1, 19716, Note_on_c, 0, 72, 104
1, 19835, Note_off_c, 0, 72, 104
1, 20077, Note_on_c, 0, 74, 111
1, 20169, Note_off_c, 0, 74, 111
1, 20253, Note_on_c, 0, 75, 112
1, 20461, Note_off_c, 0, 75, 112
1, 20484, Note_on_c, 0, 74, 113
1, 20705, Note_off_c, 0, 74, 113
1, 20705, Note_on_c, 0, 75, 102
1, 20806, Note_off_c, 0, 75, 102
1, 21067, Note_on_c, 0, 77, 109
1, 21155, Note_off_c, 0, 77, 109
1, 21220, Note_on_c, 0, 78, 105
1, 21436, Note_off_c, 0, 78, 105
1, 21440, Note_on_c, 0, 79, 102
1, 21617, Note_off_c, 0, 79, 102
1, 21630, Note_on_c, 0, 78, 100
1, 21731, Note_off_c, 0, 78, 100
1, 22005, Note_on_c, 0, 74, 104
1, 22106, Note_off_c, 0, 74, 104
1, 22229, Note_on_c, 0, 75, 108
1, 22410, Note_off_c, 0, 75, 108
1, 22423, Note_on_c, 0, 74, 114
1, 22600, Note_off_c, 0, 74, 114
1, 22617, Note_on_c, 0, 75, 101
1, 22709, Note_off_c, 0, 75, 101
1, 22996, Note_on_c, 0, 75, 105
1, 23084, Note_off_c, 0, 75, 105
1, 23132, Note_on_c, 0, 76, 114
1, 23357, Note_off_c, 0, 76, 114
1, 23361, Note_on_c, 0, 75, 112
1, 23538, Note_off_c, 0, 75, 112
1, 23538, Note_on_c, 0, 76, 109
1, 23635, Note_off_c, 0, 76, 109
1, 23900, Note_on_c, 0, 76, 108
1, 24006, Note_off_c, 0, 76, 108
1, 24098, Note_on_c, 0, 77, 102
1, 24314, Note_off_c, 0, 77, 102
1, 24318, Note_on_c, 0, 76, 111
1, 24495, Note_off_c, 0, 76, 111
1, 24508, Note_on_c, 0, 77, 112
1, 24804, Note_off_c, 0, 77, 112
1, 24914, Note_on_c, 0, 79, 90
1, 25024, Note_off_c, 0, 79, 90
1, 25044, Note_on_c, 0, 83, 89
1, 25103, Note_off_c, 0, 83, 89
1, 25117, Note_on_c, 0, 84, 100
1, 25272, Note_off_c, 0, 84, 100
1, 25283, Note_on_c, 0, 82, 109
1, 25451, Note_off_c, 0, 82, 109
1, 25473, Note_on_c, 0, 81, 94
1, 25884, Note_off_c, 0, 81, 94
1, 25897, Note_on_c, 0, 79, 96
1, 25981, Note_off_c, 0, 79, 96
1, 26057, Note_on_c, 0, 77, 103
1, 26194, Note_off_c, 0, 77, 103
1, 26237, Note_on_c, 0, 74, 108
1, 26298, Note_off_c, 0, 74, 108
1, 26311, Note_on_c, 0, 75, 108
1, 26448, Note_off_c, 0, 75, 108
1, 26463, Note_on_c, 0, 74, 104
1, 26989, Note_off_c, 0, 74, 104
1, 27039, Note_on_c, 0, 72, 96
1, 27189, Note_off_c, 0, 72, 96
1, 27219, Note_on_c, 0, 70, 103
1, 27391, Note_off_c, 0, 70, 103
1, 27399, Note_on_c, 0, 69, 103
1, 27753, Note_off_c, 0, 69, 103
1, 27783, Note_on_c, 0, 67, 104
1, 27906, Note_off_c, 0, 67, 104
1, 27981, Note_on_c, 0, 66, 98
1, 28587, Note_off_c, 0, 66, 98
1, 28724, Note_on_c, 0, 74, 106
1, 28839, Note_off_c, 0, 74, 106
1, 28839, Note_on_c, 0, 75, 113
1, 29246, Note_on_c, 0, 73, 112
1, 29246, Note_off_c, 0, 75, 113
1, 29361, Note_off_c, 0, 73, 112
1, 29361, Note_on_c, 0, 71, 104
1, 29461, Note_off_c, 0, 71, 104
1, 29461, Note_on_c, 0, 66, 101
1, 29886, Note_off_c, 0, 66, 101
1, 31171, Note_on_c, 0, 73, 113
1, 31290, Note_on_c, 0, 71, 109
1, 31290, Note_off_c, 0, 73, 113
1, 31391, Note_off_c, 0, 71, 109
1, 31395, Note_on_c, 0, 73, 116
1, 31492, Note_off_c, 0, 73, 116
1, 31492, Note_on_c, 0, 71, 108
1, 31545, Note_off_c, 0, 71, 108
1, 31545, Note_on_c, 0, 69, 117
1, 31668, Note_off_c, 0, 69, 117
1, 31676, Note_on_c, 0, 68, 105
1, 31751, Note_off_c, 0, 68, 105
1, 31777, Note_on_c, 0, 71, 113
1, 31945, Note_off_c, 0, 71, 113
1, 31958, Note_on_c, 0, 69, 116
1, 32143, Note_off_c, 0, 69, 116
1, 32151, Note_on_c, 0, 68, 116
1, 32323, Note_off_c, 0, 68, 116
1, 32336, Note_on_c, 0, 66, 116
1, 32539, Note_off_c, 0, 66, 116
1, 32547, Note_on_c, 0, 64, 106
1, 32980, Note_off_c, 0, 64, 106
1, 33727, Note_on_c, 0, 60, 109
1, 33821, Note_off_c, 0, 60, 109
1, 33821, Note_on_c, 0, 64, 111
1, 33921, Note_off_c, 0, 64, 111
1, 33921, Note_on_c, 0, 67, 113
1, 33996, Note_off_c, 0, 67, 113
1, 34008, Note_on_c, 0, 64, 115
1, 34108, Note_off_c, 0, 64, 115
1, 34120, Note_on_c, 0, 66, 106
1, 34227, Note_on_c, 0, 69, 112
1, 34227, Note_off_c, 0, 66, 106
1, 34289, Note_off_c, 0, 69, 112
1, 34301, Note_on_c, 0, 68, 115
1, 34408, Note_off_c, 0, 68, 115
1, 34426, Note_on_c, 0, 66, 110
1, 34526, Note_off_c, 0, 66, 110
1, 34526, Note_on_c, 0, 67, 116
1, 34626, Note_off_c, 0, 67, 116
1, 34638, Note_on_c, 0, 69, 112
1, 34694, Note_off_c, 0, 69, 112
1, 34712, Note_on_c, 0, 71, 105
1, 34800, Note_off_c, 0, 71, 105
1, 34806, Note_on_c, 0, 72, 97
1, 34900, Note_off_c, 0, 72, 97
1, 34906, Note_on_c, 0, 74, 110
1, 34962, Note_off_c, 0, 74, 110
1, 34999, Note_on_c, 0, 71, 108
1, 35074, Note_off_c, 0, 71, 108
1, 35086, Note_on_c, 0, 72, 103
1, 35186, Note_off_c, 0, 72, 103
1, 35192, Note_on_c, 0, 69, 111
1, 35286, Note_off_c, 0, 69, 111
1, 35286, Note_on_c, 0, 68, 102
1, 35380, Note_off_c, 0, 68, 102
1, 35386, Note_on_c, 0, 69, 101
1, 35448, Note_off_c, 0, 69, 101
1, 35492, Note_on_c, 0, 71, 111
1, 35554, Note_off_c, 0, 71, 111
1, 35554, Note_on_c, 0, 68, 111
1, 35648, Note_off_c, 0, 68, 111
1, 35685, Note_on_c, 0, 69, 114
1, 35766, Note_off_c, 0, 69, 114
1, 35772, Note_on_c, 0, 67, 115
1, 35841, Note_off_c, 0, 67, 115
1, 35841, Note_on_c, 0, 66, 114
1, 35922, Note_off_c, 0, 66, 114
1, 35928, Note_on_c, 0, 64, 122
1, 36035, Note_off_c, 0, 64, 122
1, 36060, Note_on_c, 0, 63, 116
1, 36148, Note_off_c, 0, 63, 116
1, 36173, Note_on_c, 0, 64, 113
1, 36242, Note_off_c, 0, 64, 113
1, 36242, Note_on_c, 0, 67, 114
1, 36336, Note_off_c, 0, 67, 114
1, 36348, Note_on_c, 0, 64, 114
1, 36417, Note_off_c, 0, 64, 114
1, 36417, Note_on_c, 0, 60, 113
1, 36505, Note_off_c, 0, 60, 113
1, 36530, Note_on_c, 0, 55, 114
1, 36580, Note_off_c, 0, 55, 114
1, 36586, Note_on_c, 0, 60, 116
1, 36699, Note_off_c, 0, 60, 116
1, 36717, Note_on_c, 0, 55, 114
1, 36779, Note_off_c, 0, 55, 114
1, 36796, Note_on_c, 0, 60, 122
1, 36841, Note_off_c, 0, 60, 122
1, 36847, Note_on_c, 0, 62, 108
1, 36930, Note_off_c, 0, 62, 108
1, 36941, Note_on_c, 0, 59, 109
1, 37016, Note_off_c, 0, 59, 109
1, 37066, Note_on_c, 0, 59, 113
1, 37166, Note_off_c, 0, 59, 113
1, 37191, Note_on_c, 0, 58, 118
1, 37285, Note_off_c, 0, 58, 118
1, 37288, Note_on_c, 0, 59, 114
1, 37376, Note_off_c, 0, 59, 114
1, 37382, Note_on_c, 0, 60, 108
1, 37462, Note_off_c, 0, 60, 108
1, 37473, Note_on_c, 0, 62, 106
1, 37548, Note_off_c, 0, 62, 106
1, 37579, Note_on_c, 0, 64, 123
1, 37660, Note_on_c, 0, 66, 105
1, 37660, Note_off_c, 0, 64, 123
1, 37729, Note_off_c, 0, 66, 105
1, 37735, Note_on_c, 0, 64, 108
1, 37823, Note_off_c, 0, 64, 108
1, 37841, Note_on_c, 0, 65, 113
1, 37903, Note_off_c, 0, 65, 113
1, 37903, Note_on_c, 0, 67, 114
1, 38016, Note_off_c, 0, 67, 114
1, 38053, Note_on_c, 0, 69, 111
1, 38122, Note_off_c, 0, 69, 111
1, 38122, Note_on_c, 0, 70, 107
1, 38191, Note_off_c, 0, 70, 107
1, 38228, Note_on_c, 0, 72, 95
1, 38284, Note_off_c, 0, 72, 95
1, 38315, Note_on_c, 0, 74, 106
1, 38422, Note_off_c, 0, 74, 106
1, 38422, Note_on_c, 0, 70, 106
1, 38478, Note_off_c, 0, 70, 106
1, 38484, Note_on_c, 0, 67, 106
1, 38553, Note_off_c, 0, 67, 106
1, 38565, Note_on_c, 0, 65, 99
1, 38665, Note_off_c, 0, 65, 99
1, 38696, Note_on_c, 0, 74, 104
1, 38815, Note_off_c, 0, 74, 104
1, 38815, Note_on_c, 0, 72, 116
1, 38877, Note_off_c, 0, 72, 116
1, 38883, Note_on_c, 0, 71, 112
1, 38964, Note_off_c, 0, 71, 112
1, 38964, Note_on_c, 0, 69, 116
1, 39052, Note_off_c, 0, 69, 116
1, 39064, Note_on_c, 0, 70, 109
1, 39171, Note_off_c, 0, 70, 109
1, 39366, Note_on_c, 0, 65, 98
1, 39441, Note_off_c, 0, 65, 98
1, 39441, Note_on_c, 0, 69, 121
1, 39497, Note_off_c, 0, 69, 121
1, 39522, Note_on_c, 0, 67, 121
1, 39578, Note_off_c, 0, 67, 121
1, 39578, Note_on_c, 0, 65, 119
1, 39678, Note_off_c, 0, 65, 119
1, 39678, Note_on_c, 0, 64, 117
1, 39772, Note_off_c, 0, 64, 117
1, 39784, Note_on_c, 0, 62, 114
1, 39859, Note_off_c, 0, 62, 114
1, 39877, Note_on_c, 0, 63, 120
1, 39927, Note_off_c, 0, 63, 120
1, 39945, Note_on_c, 0, 65, 115
1, 40033, Note_off_c, 0, 65, 115
1, 40051, Note_on_c, 0, 67, 111
1, 40139, Note_off_c, 0, 67, 111
1, 40170, Note_on_c, 0, 69, 108
1, 40226, Note_off_c, 0, 69, 108
1, 40244, Note_on_c, 0, 70, 106
1, 40325, Note_off_c, 0, 70, 106
1, 40404, Note_on_c, 0, 62, 118
1, 40603, Note_off_c, 0, 62, 118
1, 40629, Note_on_c, 0, 63, 117
1, 40797, Note_off_c, 0, 63, 117
1, 40823, Note_on_c, 0, 64, 114
1, 41000, Note_off_c, 0, 64, 114
1, 41044, Note_on_c, 0, 65, 117
1, 41247, Note_off_c, 0, 65, 117
1, 41273, Note_on_c, 0, 67, 111
1, 41450, Note_off_c, 0, 67, 111
1, 41450, Note_on_c, 0, 65, 113
1, 41627, Note_off_c, 0, 65, 113
1, 41627, Note_on_c, 0, 62, 115
1, 41835, Note_off_c, 0, 62, 115
1, 41835, Note_on_c, 0, 60, 113
1, 42012, Note_off_c, 0, 60, 113
1, 42029, Note_on_c, 0, 58, 108
1, 42400, Note_off_c, 0, 58, 108
1, 43945, Note_on_c, 0, 74, 111
1, 44029, Note_off_c, 0, 74, 111
1, 44117, Note_on_c, 0, 77, 115
1, 44515, Note_off_c, 0, 77, 115
1, 44554, Note_on_c, 0, 77, 99
1, 44610, Note_off_c, 0, 77, 99
1, 44708, Note_on_c, 0, 77, 111
1, 45088, Note_off_c, 0, 77, 111
1, 45115, Note_on_c, 0, 75, 100
1, 45181, Note_off_c, 0, 75, 100
1, 45299, Note_on_c, 0, 75, 114
1, 45670, Note_off_c, 0, 75, 114
1, 45690, Note_on_c, 0, 74, 107
1, 45763, Note_off_c, 0, 74, 107
1, 45876, Note_on_c, 0, 74, 116
1, 46287, Note_off_c, 0, 74, 116
1, 46295, Note_on_c, 0, 72, 109
1, 46361, Note_off_c, 0, 72, 109
1, 46480, Note_on_c, 0, 72, 110
1, 46847, Note_off_c, 0, 72, 110
1, 46869, Note_on_c, 0, 70, 114
1, 46961, Note_off_c, 0, 70, 114
1, 47036, Note_on_c, 0, 70, 112
1, 47474, Note_off_c, 0, 70, 112
1, 47496, Note_on_c, 0, 69, 119
1, 47580, Note_off_c, 0, 69, 119
1, 47602, Note_on_c, 0, 70, 114
1, 47641, Note_off_c, 0, 70, 114
1, 47641, Note_on_c, 0, 69, 108
1, 48070, Note_off_c, 0, 69, 108
1, 48092, Note_on_c, 0, 67, 117
1, 48189, Note_on_c, 0, 69, 118
1, 48189, Note_off_c, 0, 67, 117
1, 48250, Note_off_c, 0, 69, 118
1, 48276, Note_on_c, 0, 67, 115
1, 48612, Note_off_c, 0, 67, 115
1, 48638, Note_on_c, 0, 66, 119
1, 48704, Note_off_c, 0, 66, 119
1, 48743, Note_on_c, 0, 67, 116
1, 48804, Note_off_c, 0, 67, 116
1, 48839, Note_on_c, 0, 66, 113
1, 49175, Note_off_c, 0, 66, 113
1, 49175, Note_on_c, 0, 65, 113
1, 49259, Note_off_c, 0, 65, 113
1, 49276, Note_on_c, 0, 66, 124
1, 49337, Note_off_c, 0, 66, 124
1, 49359, Note_on_c, 0, 65, 116
1, 49642, Note_off_c, 0, 65, 116
1, 49664, Note_on_c, 0, 64, 121
1, 49739, Note_off_c, 0, 64, 121
1, 49756, Note_on_c, 0, 65, 116
1, 49809, Note_off_c, 0, 65, 116
1, 49853, Note_on_c, 0, 64, 116
1, 50162, Note_off_c, 0, 64, 116
1, 50201, Note_on_c, 0, 63, 124
1, 50271, Note_off_c, 0, 63, 124
1, 50271, Note_on_c, 0, 64, 119
1, 50355, Note_off_c, 0, 64, 119
1, 50363, Note_on_c, 0, 63, 111
1, 50690, Note_off_c, 0, 63, 111
1, 50697, Note_on_c, 0, 62, 113
1, 50780, Note_off_c, 0, 62, 113
1, 50789, Note_on_c, 0, 63, 121
1, 50861, Note_on_c, 0, 62, 114
1, 50861, Note_off_c, 0, 63, 121
1, 51246, Note_off_c, 0, 62, 114
1, 51249, Note_on_c, 0, 61, 118
1, 51333, Note_off_c, 0, 61, 118
1, 51346, Note_on_c, 0, 62, 115
1, 51425, Note_off_c, 0, 62, 115
1, 51425, Note_on_c, 0, 61, 107
1, 52000, Note_off_c, 0, 61, 107
1, 53115, Note_on_c, 0, 58, 122
1, 53230, Note_off_c, 0, 58, 122
1, 53238, Note_on_c, 0, 60, 109
1, 53322, Note_off_c, 0, 60, 109
1, 53330, Note_on_c, 0, 62, 114
1, 53409, Note_off_c, 0, 62, 114
1, 53435, Note_on_c, 0, 66, 99
1, 53488, Note_off_c, 0, 66, 99
1, 53488, Note_on_c, 0, 69, 115
1, 53603, Note_off_c, 0, 69, 115
1, 53629, Note_on_c, 0, 67, 111
1, 53708, Note_off_c, 0, 67, 111
1, 53716, Note_on_c, 0, 65, 121
1, 53777, Note_off_c, 0, 65, 121
1, 53785, Note_on_c, 0, 63, 118
1, 53891, Note_off_c, 0, 63, 118
1, 53904, Note_on_c, 0, 64, 111
1, 53957, Note_off_c, 0, 64, 111
1, 54005, Note_on_c, 0, 65, 119
1, 54089, Note_off_c, 0, 65, 119
1, 54102, Note_on_c, 0, 67, 112
1, 54190, Note_off_c, 0, 67, 112
1, 54194, Note_on_c, 0, 69, 109
1, 54273, Note_off_c, 0, 69, 109
1, 54295, Note_on_c, 0, 70, 113
1, 54401, Note_off_c, 0, 70, 113
1, 54427, Note_on_c, 0, 69, 116
1, 54511, Note_off_c, 0, 69, 116
1, 54515, Note_on_c, 0, 70, 118
1, 54603, Note_off_c, 0, 70, 118
1, 54603, Note_on_c, 0, 72, 115
1, 54691, Note_off_c, 0, 72, 115
1, 54699, Note_on_c, 0, 73, 112
1, 54778, Note_off_c, 0, 73, 112
1, 54791, Note_on_c, 0, 74, 116
1, 54897, Note_off_c, 0, 74, 116
1, 54897, Note_on_c, 0, 72, 112
1, 54972, Note_off_c, 0, 72, 112
1, 54972, Note_on_c, 0, 70, 108
1, 55060, Note_off_c, 0, 70, 108
1, 55068, Note_on_c, 0, 74, 113
1, 55129, Note_off_c, 0, 74, 113
1, 55230, Note_on_c, 0, 82, 107
1, 55322, Note_off_c, 0, 82, 107
1, 55344, Note_on_c, 0, 78, 105
1, 55414, Note_off_c, 0, 78, 105
1, 55436, Note_on_c, 0, 77, 105
1, 55520, Note_off_c, 0, 77, 105
1, 55520, Note_on_c, 0, 70, 115
1, 55608, Note_off_c, 0, 70, 115
1, 55621, Note_on_c, 0, 68, 116
1, 55727, Note_off_c, 0, 68, 116
1, 55735, Note_on_c, 0, 67, 112
1, 55819, Note_off_c, 0, 67, 112
1, 55819, Note_on_c, 0, 70, 115
1, 55903, Note_off_c, 0, 70, 115
1, 55903, Note_on_c, 0, 67, 110
1, 56000, Note_off_c, 0, 67, 110
1, 56008, Note_on_c, 0, 68, 113
1, 56069, Note_off_c, 0, 68, 113
1, 56082, Note_on_c, 0, 70, 114
1, 56179, Note_off_c, 0, 70, 114
1, 56192, Note_on_c, 0, 72, 102
1, 56289, Note_off_c, 0, 72, 102
1, 56306, Note_on_c, 0, 73, 112
1, 56385, Note_off_c, 0, 73, 112
1, 56398, Note_on_c, 0, 74, 112
1, 56486, Note_off_c, 0, 74, 112
1, 56499, Note_on_c, 0, 75, 101
1, 56578, Note_off_c, 0, 75, 101
1, 56595, Note_on_c, 0, 76, 106
1, 56670, Note_off_c, 0, 76, 106
1, 56687, Note_on_c, 0, 77, 103
1, 56779, Note_off_c, 0, 77, 103
1, 56787, Note_on_c, 0, 78, 105
1, 56879, Note_off_c, 0, 78, 105
1, 56914, Note_on_c, 0, 80, 104
1, 56980, Note_off_c, 0, 80, 104
1, 56984, Note_on_c, 0, 78, 103
1, 57068, Note_off_c, 0, 78, 103
1, 57090, Note_on_c, 0, 78, 100
1, 57160, Note_off_c, 0, 78, 100
1, 57190, Note_on_c, 0, 78, 105
1, 57260, Note_off_c, 0, 78, 105
1, 57273, Note_on_c, 0, 80, 99
1, 57339, Note_off_c, 0, 80, 99
1, 57339, Note_on_c, 0, 77, 107
1, 57405, Note_off_c, 0, 77, 107
1, 57405, Note_on_c, 0, 78, 106
1, 57484, Note_off_c, 0, 78, 106
1, 57506, Note_on_c, 0, 77, 103
1, 57612, Note_off_c, 0, 77, 103
1, 57612, Note_on_c, 0, 78, 100
1, 57700, Note_off_c, 0, 78, 100
1, 57726, Note_on_c, 0, 78, 106
1, 57823, Note_off_c, 0, 78, 106
1, 57827, Note_on_c, 0, 77, 114
1, 57902, Note_off_c, 0, 77, 114
1, 57924, Note_on_c, 0, 78, 104
1, 58012, Note_off_c, 0, 78, 104
1, 58012, Note_on_c, 0, 76, 109
1, 58104, Note_off_c, 0, 76, 109
1, 58104, Note_on_c, 0, 77, 111
1, 58201, Note_off_c, 0, 77, 111
1, 58201, Note_on_c, 0, 76, 113
1, 58316, Note_off_c, 0, 76, 113
1, 58316, Note_on_c, 0, 75, 109
1, 58413, Note_on_c, 0, 74, 115
1, 58413, Note_off_c, 0, 75, 109
1, 58474, Note_off_c, 0, 74, 115
1, 58491, Note_on_c, 0, 73, 111
1, 58583, Note_off_c, 0, 73, 111
1, 58583, Note_on_c, 0, 71, 114
1, 58649, Note_off_c, 0, 71, 114
1, 58649, Note_on_c, 0, 72, 109
1, 58737, Note_off_c, 0, 72, 109
1, 58754, Note_on_c, 0, 70, 111
1, 58864, Note_off_c, 0, 70, 111
1, 58868, Note_on_c, 0, 69, 117
1, 58956, Note_off_c, 0, 69, 117
1, 58964, Note_on_c, 0, 67, 117
1, 59034, Note_off_c, 0, 67, 117
1, 59034, Note_on_c, 0, 66, 114
1, 59153, Note_off_c, 0, 66, 114
1, 59157, Note_on_c, 0, 67, 116
1, 59249, Note_on_c, 0, 70, 108
1, 59249, Note_off_c, 0, 67, 116
1, 59333, Note_off_c, 0, 70, 108
1, 59346, Note_on_c, 0, 67, 112
1, 59416, Note_off_c, 0, 67, 112
1, 59433, Note_on_c, 0, 63, 113
1, 59512, Note_off_c, 0, 63, 113
1, 59538, Note_on_c, 0, 60, 116
1, 59613, Note_off_c, 0, 60, 116
1, 59621, Note_on_c, 0, 69, 115
1, 59731, Note_off_c, 0, 69, 115
1, 59735, Note_on_c, 0, 65, 114
1, 59823, Note_off_c, 0, 65, 114
1, 59840, Note_on_c, 0, 67, 115
1, 59901, Note_off_c, 0, 67, 115
1, 59931, Note_on_c, 0, 64, 116
1, 60001, Note_off_c, 0, 64, 116
1, 60014, Note_on_c, 0, 65, 113
1, 60115, Note_off_c, 0, 65, 113
1, 60119, Note_on_c, 0, 63, 113
1, 60194, Note_off_c, 0, 63, 113
1, 60211, Note_on_c, 0, 61, 105
1, 60312, Note_off_c, 0, 61, 105
1, 60322, Note_on_c, 0, 61, 103
1, 60373, Note_off_c, 0, 61, 103
1, 60377, Note_on_c, 0, 63, 110
1, 60478, Note_off_c, 0, 63, 110
1, 60504, Note_on_c, 0, 65, 106
1, 60565, Note_off_c, 0, 65, 106
1, 60573, Note_on_c, 0, 61, 104
1, 60652, Note_off_c, 0, 61, 104
1, 60674, Note_on_c, 0, 57, 116
1, 60766, Note_off_c, 0, 57, 116
1, 60770, Note_on_c, 0, 59, 118
1, 60854, Note_off_c, 0, 59, 118
1, 60867, Note_on_c, 0, 60, 114
1, 60964, Note_off_c, 0, 60, 114
1, 60968, Note_on_c, 0, 62, 110
1, 61056, Note_off_c, 0, 62, 110
1, 61069, Note_on_c, 0, 66, 112
1, 61182, Note_off_c, 0, 66, 112
1, 61182, Note_on_c, 0, 70, 110
1, 61257, Note_off_c, 0, 70, 110
1, 61275, Note_on_c, 0, 69, 103
1, 61325, Note_off_c, 0, 69, 103
1, 61356, Note_on_c, 0, 70, 110
1, 61437, Note_off_c, 0, 70, 110
1, 61462, Note_on_c, 0, 71, 112
1, 61524, Note_off_c, 0, 71, 112
1, 61524, Note_on_c, 0, 70, 109
1, 61605, Note_off_c, 0, 70, 109
1, 61611, Note_on_c, 0, 68, 105
1, 61724, Note_off_c, 0, 68, 105
1, 61753, Note_on_c, 0, 75, 108
1, 61839, Note_off_c, 0, 75, 108
1, 61856, Note_on_c, 0, 71, 97
1, 61892, Note_off_c, 0, 71, 97
1, 61892, Note_on_c, 0, 72, 104
1, 61980, Note_off_c, 0, 72, 104
1, 62024, Note_on_c, 0, 70, 106
1, 62105, Note_off_c, 0, 70, 106
1, 62105, Note_on_c, 0, 72, 100
1, 62199, Note_off_c, 0, 72, 100
1, 62205, Note_on_c, 0, 73, 97
1, 62261, Note_off_c, 0, 73, 97
1, 62286, Note_on_c, 0, 74, 105
1, 62399, Note_off_c, 0, 74, 105
1, 62411, Note_on_c, 0, 73, 93
1, 62461, Note_off_c, 0, 73, 93
1, 62473, Note_on_c, 0, 74, 100
1, 62592, Note_off_c, 0, 74, 100
1, 62598, Note_on_c, 0, 75, 108
1, 62705, Note_off_c, 0, 75, 108
1, 62711, Note_on_c, 0, 74, 104
1, 62773, Note_off_c, 0, 74, 104
1, 62779, Note_on_c, 0, 72, 96
1, 62860, Note_off_c, 0, 72, 96
1, 62872, Note_on_c, 0, 76, 9
1, 62985, Note_off_c, 0, 76, 9
1, 63005, Note_on_c, 0, 72, 59
1, 63066, Note_off_c, 0, 72, 59
1, 63072, Note_on_c, 0, 76, 99
1, 63166, Note_off_c, 0, 76, 99
1, 63197, Note_on_c, 0, 77, 102
1, 63266, Note_off_c, 0, 77, 102
1, 63284, Note_on_c, 0, 76, 103
1, 63384, Note_off_c, 0, 76, 103
1, 63396, Note_on_c, 0, 77, 98
1, 63458, Note_off_c, 0, 77, 98
1, 63473, Note_on_c, 0, 78, 98
1, 63586, Note_off_c, 0, 78, 98
1, 63598, Note_on_c, 0, 79, 93
1, 63654, Note_off_c, 0, 79, 93
1, 63663, Note_on_c, 0, 80, 100
1, 63787, Note_off_c, 0, 80, 100
1, 63787, Note_on_c, 0, 79, 98
1, 63851, Note_off_c, 0, 79, 98
1, 63857, Note_on_c, 0, 78, 95
1, 63964, Note_off_c, 0, 78, 95
1, 63989, Note_on_c, 0, 77, 102
1, 64077, Note_off_c, 0, 77, 102
1, 64089, Note_on_c, 0, 78, 106
1, 64177, Note_off_c, 0, 78, 106
1, 64238, Note_on_c, 0, 78, 103
1, 64317, Note_off_c, 0, 78, 103
1, 64339, Note_on_c, 0, 77, 101
1, 64387, Note_off_c, 0, 77, 101
1, 64413, Note_on_c, 0, 76, 104
1, 64505, Note_off_c, 0, 76, 104
1, 64509, Note_on_c, 0, 75, 105
1, 64610, Note_off_c, 0, 75, 105
1, 64621, Note_on_c, 0, 77, 99
1, 64728, Note_off_c, 0, 77, 99
1, 64773, Note_on_c, 0, 76, 110
1, 64843, Note_off_c, 0, 76, 110
1, 64869, Note_on_c, 0, 75, 102
1, 64939, Note_off_c, 0, 75, 102
1, 64961, Note_on_c, 0, 74, 100
1, 65036, Note_off_c, 0, 74, 100
1, 65058, Note_on_c, 0, 73, 97
1, 65128, Note_off_c, 0, 73, 97
1, 65158, Note_on_c, 0, 74, 111
1, 65255, Note_off_c, 0, 74, 111
1, 65268, Note_on_c, 0, 72, 88
1, 65334, Note_off_c, 0, 72, 88
1, 65347, Note_on_c, 0, 73, 109
1, 65413, Note_off_c, 0, 73, 109
1, 65438, Note_on_c, 0, 70, 102
1, 65526, Note_off_c, 0, 70, 102
1, 65547, Note_on_c, 0, 67, 99
1, 65616, Note_off_c, 0, 67, 99
1, 65627, Note_on_c, 0, 66, 104
1, 65728, Note_off_c, 0, 66, 104
1, 65754, Note_on_c, 0, 72, 103
1, 65820, Note_off_c, 0, 72, 103
1, 65828, Note_on_c, 0, 74, 102
1, 65872, Note_off_c, 0, 74, 102
1, 65894, Note_on_c, 0, 72, 111
1, 65924, Note_off_c, 0, 72, 111
1, 65928, Note_on_c, 0, 71, 108
1, 65989, Note_off_c, 0, 71, 108
1, 66019, Note_on_c, 0, 69, 107
1, 66120, Note_off_c, 0, 69, 107
1, 66296, Note_on_c, 0, 65, 93
1, 66358, Note_off_c, 0, 65, 93
1, 66376, Note_on_c, 0, 66, 96
1, 66464, Note_off_c, 0, 66, 96
1, 66489, Note_on_c, 0, 67, 100
1, 66564, Note_off_c, 0, 67, 100
1, 66579, Note_on_c, 0, 65, 95
1, 66635, Note_off_c, 0, 65, 95
1, 66638, Note_on_c, 0, 64, 100
1, 66732, Note_off_c, 0, 64, 100
1, 66750, Note_on_c, 0, 63, 99
1, 66812, Note_off_c, 0, 63, 99
1, 66826, Note_on_c, 0, 64, 107
1, 66910, Note_off_c, 0, 64, 107
1, 66932, Note_on_c, 0, 65, 109
1, 66998, Note_off_c, 0, 65, 109
1, 67024, Note_on_c, 0, 67, 108
1, 67081, Note_off_c, 0, 67, 108
1, 67098, Note_on_c, 0, 69, 105
1, 67182, Note_off_c, 0, 69, 105
1, 67217, Note_on_c, 0, 70, 113
1, 67274, Note_off_c, 0, 70, 113
1, 67296, Note_on_c, 0, 70, 107
1, 67371, Note_off_c, 0, 70, 107
1, 67393, Note_on_c, 0, 72, 103
1, 67485, Note_off_c, 0, 72, 103
1, 67608, Note_on_c, 0, 74, 111
1, 67705, Note_off_c, 0, 74, 111
1, 67718, Note_on_c, 0, 75, 108
1, 67797, Note_off_c, 0, 75, 108
1, 67797, Note_on_c, 0, 76, 107
1, 67885, Note_off_c, 0, 76, 107
1, 67893, Note_on_c, 0, 79, 96
1, 67981, Note_off_c, 0, 79, 96
1, 68003, Note_on_c, 0, 79, 98
1, 68069, Note_off_c, 0, 79, 98
1, 68082, Note_on_c, 0, 76, 92
1, 68139, Note_off_c, 0, 76, 92
1, 68161, Note_on_c, 0, 77, 113
1, 68236, Note_off_c, 0, 77, 113
1, 68266, Note_on_c, 0, 78, 93
1, 68327, Note_off_c, 0, 78, 93
1, 68344, Note_on_c, 0, 75, 109
1, 68414, Note_off_c, 0, 75, 109
1, 68448, Note_on_c, 0, 69, 102
1, 68505, Note_off_c, 0, 69, 102
1, 68537, Note_on_c, 0, 67, 99
1, 68594, Note_off_c, 0, 67, 99
1, 68608, Note_on_c, 0, 65, 92
1, 68672, Note_off_c, 0, 65, 92
1, 68705, Note_on_c, 0, 75, 76
1, 68736, Note_off_c, 0, 75, 76
1, 68740, Note_on_c, 0, 74, 95
1, 68777, Note_off_c, 0, 74, 95
1, 68783, Note_on_c, 0, 72, 91
1, 68816, Note_off_c, 0, 72, 91
1, 68831, Note_on_c, 0, 69, 95
1, 68871, Note_off_c, 0, 69, 95
1, 68889, Note_on_c, 0, 69, 100
1, 68925, Note_off_c, 0, 69, 100
1, 68932, Note_on_c, 0, 67, 104
1, 68988, Note_off_c, 0, 67, 104
1, 69000, Note_on_c, 0, 62, 98
1, 69033, Note_off_c, 0, 62, 98
1, 69056, Note_on_c, 0, 66, 104
1, 69109, Note_off_c, 0, 66, 104
1, 69110, Note_on_c, 0, 74, 106
1, 69163, Note_off_c, 0, 74, 106
1, 69176, Note_on_c, 0, 73, 97
1, 69233, Note_off_c, 0, 73, 97
1, 69259, Note_on_c, 0, 72, 95
1, 69347, Note_off_c, 0, 72, 95
1, 69417, Note_on_c, 0, 71, 106
1, 69496, Note_off_c, 0, 71, 106
1, 69518, Note_on_c, 0, 70, 100
1, 69588, Note_off_c, 0, 70, 100
1, 69610, Note_on_c, 0, 69, 108
1, 69676, Note_off_c, 0, 69, 108
1, 69693, Note_on_c, 0, 70, 101
1, 69763, Note_off_c, 0, 70, 101
1, 69798, Note_on_c, 0, 68, 116
1, 69851, Note_off_c, 0, 68, 116
1, 69877, Note_on_c, 0, 69, 110
1, 69930, Note_off_c, 0, 69, 110
1, 69943, Note_on_c, 0, 65, 112
1, 70022, Note_off_c, 0, 65, 112
1, 70044, Note_on_c, 0, 63, 104
1, 70101, Note_off_c, 0, 63, 104
1, 70114, Note_on_c, 0, 64, 104
1, 70175, Note_off_c, 0, 64, 104
1, 70197, Note_on_c, 0, 63, 114
1, 70258, Note_off_c, 0, 63, 114
1, 70258, Note_on_c, 0, 68, 114
1, 70297, Note_off_c, 0, 68, 114
1, 70310, Note_on_c, 0, 66, 108
1, 70380, Note_off_c, 0, 66, 108
1, 70406, Note_on_c, 0, 65, 107
1, 70485, Note_off_c, 0, 65, 107
1, 70489, Note_on_c, 0, 64, 117
1, 70564, Note_off_c, 0, 64, 117
1, 70599, Note_on_c, 0, 63, 111
1, 70683, Note_off_c, 0, 63, 111
1, 70718, Note_on_c, 0, 65, 116
1, 70793, Note_off_c, 0, 65, 116
1, 70823, Note_on_c, 0, 66, 110
1, 70889, Note_off_c, 0, 66, 110
1, 70928, Note_on_c, 0, 68, 110
1, 71007, Note_on_c, 0, 70, 108
1, 71007, Note_off_c, 0, 68, 110
1, 71091, Note_off_c, 0, 70, 108
1, 71099, Note_on_c, 0, 66, 110
1, 71178, Note_off_c, 0, 66, 110
1, 71199, Note_on_c, 0, 63, 106
1, 71234, Note_off_c, 0, 63, 106
1, 71252, Note_on_c, 0, 58, 119
1, 71309, Note_off_c, 0, 58, 119
1, 71362, Note_on_c, 0, 64, 107
1, 71410, Note_off_c, 0, 64, 107
1, 71418, Note_on_c, 0, 66, 110
1, 71462, Note_off_c, 0, 66, 110
1, 71484, Note_on_c, 0, 68, 102
1, 71545, Note_off_c, 0, 68, 102
1, 71567, Note_on_c, 0, 62, 113
1, 71637, Note_off_c, 0, 62, 113
1, 71641, Note_on_c, 0, 63, 95
1, 71698, Note_off_c, 0, 63, 95
1, 71715, Note_on_c, 0, 65, 105
1, 71807, Note_off_c, 0, 65, 105
1, 71855, Note_on_c, 0, 63, 111
1, 71903, Note_off_c, 0, 63, 111
1, 71911, Note_on_c, 0, 60, 107
1, 71972, Note_off_c, 0, 60, 107
1, 71993, Note_on_c, 0, 62, 102
1, 72037, Note_off_c, 0, 62, 102
1, 72109, Note_on_c, 0, 63, 114
1, 72170, Note_off_c, 0, 63, 114
1, 72218, Note_on_c, 0, 65, 101
1, 72328, Note_off_c, 0, 65, 101
1, 73665, Note_on_c, 0, 58, 105
1, 73775, Note_off_c, 0, 58, 105
1, 73775, Note_on_c, 0, 62, 115
1, 73876, Note_off_c, 0, 62, 115
1, 73876, Note_on_c, 0, 61, 114
1, 73968, Note_off_c, 0, 61, 114
1, 73976, Note_on_c, 0, 58, 119
1, 74060, Note_off_c, 0, 58, 119
1, 74081, Note_on_c, 0, 55, 118
1, 74173, Note_off_c, 0, 55, 118
1, 74205, Note_on_c, 0, 59, 107
1, 74289, Note_off_c, 0, 59, 107
1, 74289, Note_on_c, 0, 58, 112
1, 74364, Note_off_c, 0, 58, 112
1, 74364, Note_on_c, 0, 57, 115
1, 74465, Note_off_c, 0, 57, 115
1, 74500, Note_on_c, 0, 58, 105
1, 74570, Note_off_c, 0, 58, 105
1, 74596, Note_on_c, 0, 63, 108
1, 74675, Note_off_c, 0, 63, 108
1, 74705, Note_on_c, 0, 66, 104
1, 74771, Note_off_c, 0, 66, 104
1, 74788, Note_on_c, 0, 69, 111
1, 74854, Note_off_c, 0, 69, 111
1, 74880, Note_on_c, 0, 65, 111
1, 74941, Note_off_c, 0, 65, 111
1, 74958, Note_on_c, 0, 63, 107
1, 75024, Note_off_c, 0, 63, 107
1, 75050, Note_on_c, 0, 59, 114
1, 75111, Note_off_c, 0, 59, 114
1, 75128, Note_on_c, 0, 67, 111
1, 75207, Note_off_c, 0, 67, 111
1, 75242, Note_on_c, 0, 63, 109
1, 75308, Note_off_c, 0, 63, 109
1, 75312, Note_on_c, 0, 61, 110
1, 75373, Note_off_c, 0, 61, 110
1, 75403, Note_on_c, 0, 59, 100
1, 75456, Note_off_c, 0, 59, 100
1, 75495, Note_on_c, 0, 82, 102
1, 75570, Note_off_c, 0, 82, 102
1, 75605, Note_on_c, 0, 79, 110
1, 75658, Note_off_c, 0, 79, 110
1, 75680, Note_on_c, 0, 78, 109
1, 75750, Note_off_c, 0, 78, 109
1, 75772, Note_on_c, 0, 77, 110
1, 75838, Note_off_c, 0, 77, 110
1, 75855, Note_on_c, 0, 76, 116
1, 75939, Note_off_c, 0, 76, 116
1, 75956, Note_on_c, 0, 73, 110
1, 76009, Note_off_c, 0, 73, 110
1, 76024, Note_on_c, 0, 74, 117
1, 76066, Note_off_c, 0, 74, 117
1, 76067, Note_on_c, 0, 76, 108
1, 76109, Note_off_c, 0, 76, 108
1, 76117, Note_on_c, 0, 76, 109
1, 76174, Note_off_c, 0, 76, 109
1, 76200, Note_on_c, 0, 74, 110
1, 76244, Note_off_c, 0, 74, 110
1, 76283, Note_on_c, 0, 73, 104
1, 76353, Note_off_c, 0, 73, 104
1, 76379, Note_on_c, 0, 71, 107
1, 76471, Note_off_c, 0, 71, 107
1, 76493, Note_on_c, 0, 69, 109
1, 76568, Note_off_c, 0, 69, 109
1, 76572, Note_on_c, 0, 70, 106
1, 76651, Note_off_c, 0, 70, 106
1, 76668, Note_on_c, 0, 68, 109
1, 76756, Note_off_c, 0, 68, 109
1, 76760, Note_on_c, 0, 66, 116
1, 76835, Note_off_c, 0, 66, 116
1, 76870, Note_on_c, 0, 65, 116
1, 76940, Note_off_c, 0, 65, 116
1, 76979, Note_on_c, 0, 61, 114
1, 77054, Note_off_c, 0, 61, 114
1, 77089, Note_on_c, 0, 64, 108
1, 77164, Note_off_c, 0, 64, 108
1, 77190, Note_on_c, 0, 64, 102
1, 77252, Note_off_c, 0, 64, 102
1, 77259, Note_on_c, 0, 68, 107
1, 77325, Note_off_c, 0, 68, 107
1, 77340, Note_on_c, 0, 68, 102
1, 77390, Note_off_c, 0, 68, 102
1, 77390, Note_on_c, 0, 75, 103
1, 77469, Note_off_c, 0, 75, 103
1, 77473, Note_on_c, 0, 73, 94
1, 77534, Note_off_c, 0, 73, 94
1, 77578, Note_on_c, 0, 71, 103
1, 77635, Note_on_c, 0, 69, 110
1, 77635, Note_off_c, 0, 71, 103
1, 77723, Note_off_c, 0, 69, 110
1, 77723, Note_on_c, 0, 70, 110
1, 77820, Note_off_c, 0, 70, 110
1, 77842, Note_on_c, 0, 68, 103
1, 77926, Note_off_c, 0, 68, 103
1, 77930, Note_on_c, 0, 66, 113
1, 78005, Note_off_c, 0, 66, 113
1, 78022, Note_on_c, 0, 64, 116
1, 78101, Note_off_c, 0, 64, 116
1, 78114, Note_on_c, 0, 63, 121
1, 78206, Note_off_c, 0, 63, 121
1, 78214, Note_on_c, 0, 61, 117
1, 78289, Note_off_c, 0, 61, 117
1, 78306, Note_on_c, 0, 58, 127
1, 78350, Note_off_c, 0, 58, 127
1, 78354, Note_on_c, 0, 59, 118
1, 78446, Note_off_c, 0, 59, 118
1, 78453, Note_on_c, 0, 60, 119
1, 78508, Note_off_c, 0, 60, 119
1, 78528, Note_on_c, 0, 61, 108
1, 78627, Note_off_c, 0, 61, 108
1, 78636, Note_on_c, 0, 58, 105
1, 78689, Note_off_c, 0, 58, 105
1, 78706, Note_on_c, 0, 60, 104
1, 78754, Note_off_c, 0, 60, 104
1, 78788, Note_on_c, 0, 61, 113
1, 78836, Note_off_c, 0, 61, 113
1, 78881, Note_on_c, 0, 64, 99
1, 78942, Note_off_c, 0, 64, 99
1, 79004, Note_on_c, 0, 67, 97
1, 79060, Note_off_c, 0, 67, 97
1, 79060, Note_on_c, 0, 70, 101
1, 79126, Note_off_c, 0, 70, 101
1, 79144, Note_on_c, 0, 71, 94
1, 79210, Note_off_c, 0, 71, 94
1, 79228, Note_on_c, 0, 66, 103
1, 79297, Note_off_c, 0, 66, 103
1, 79331, Note_on_c, 0, 63, 100
1, 79403, Note_off_c, 0, 63, 100
1, 79440, Note_on_c, 0, 67, 112
1, 79509, Note_off_c, 0, 67, 112
1, 79512, Note_on_c, 0, 68, 110
1, 79556, Note_off_c, 0, 68, 110
1, 79584, Note_on_c, 0, 64, 108
1, 79678, Note_off_c, 0, 64, 108
1, 79701, Note_on_c, 0, 61, 105
1, 79754, Note_off_c, 0, 61, 105
1, 79818, Note_on_c, 0, 63, 110
1, 79877, Note_off_c, 0, 63, 110
1, 79905, Note_on_c, 0, 62, 120
1, 79961, Note_off_c, 0, 62, 120
1, 79964, Note_on_c, 0, 60, 115
1, 80042, Note_off_c, 0, 60, 115
1, 80045, Note_on_c, 0, 62, 104
1, 80085, Note_off_c, 0, 62, 104
1, 80085, Note_on_c, 0, 63, 110
1, 80157, Note_off_c, 0, 63, 110
1, 80172, Note_on_c, 0, 66, 113
1, 80253, Note_off_c, 0, 66, 113
1, 80256, Note_on_c, 0, 69, 114
1, 80344, Note_off_c, 0, 69, 114
1, 80362, Note_on_c, 0, 66, 116
1, 80440, Note_off_c, 0, 66, 116
1, 80471, Note_on_c, 0, 67, 97
1, 80521, Note_off_c, 0, 67, 97
1, 80552, Note_on_c, 0, 68, 123
1, 80624, Note_off_c, 0, 68, 123
1, 80639, Note_on_c, 0, 67, 115
1, 80724, Note_off_c, 0, 67, 115
1, 80733, Note_on_c, 0, 66, 111
1, 80827, Note_off_c, 0, 66, 111
1, 80845, Note_on_c, 0, 65, 119
1, 80930, Note_off_c, 0, 65, 119
1, 80945, Note_on_c, 0, 64, 119
1, 81026, Note_off_c, 0, 64, 119
1, 81035, Note_on_c, 0, 61, 121
1, 81097, Note_off_c, 0, 61, 121
1, 81097, Note_on_c, 0, 59, 117
1, 81134, Note_off_c, 0, 59, 117
1, 81137, Note_on_c, 0, 56, 119
1, 81225, Note_off_c, 0, 56, 119
1, 81240, Note_on_c, 0, 58, 115
1, 81299, Note_off_c, 0, 58, 115
1, 81317, Note_on_c, 0, 59, 118
1, 81433, Note_off_c, 0, 59, 118
1, 81436, Note_on_c, 0, 56, 114
1, 81505, Note_off_c, 0, 56, 114
1, 81517, Note_on_c, 0, 57, 120
1, 81605, Note_off_c, 0, 57, 120
1, 81623, Note_on_c, 0, 59, 108
1, 81682, Note_off_c, 0, 59, 108
1, 81700, Note_on_c, 0, 61, 104
1, 81775, Note_off_c, 0, 61, 104
1, 81797, Note_on_c, 0, 62, 110
1, 81863, Note_off_c, 0, 62, 110
1, 81866, Note_on_c, 0, 64, 117
1, 81957, Note_on_c, 0, 61, 114
1, 81957, Note_off_c, 0, 64, 117
1, 82029, Note_off_c, 0, 61, 114
1, 82035, Note_on_c, 0, 60, 120
1, 82104, Note_off_c, 0, 60, 120
1, 82122, Note_on_c, 0, 57, 120
1, 82219, Note_off_c, 0, 57, 120
1, 82247, Note_on_c, 0, 58, 122
1, 82297, Note_off_c, 0, 58, 122
1, 82319, Note_on_c, 0, 54, 117
1, 82369, Note_off_c, 0, 54, 117
1, 82397, Note_on_c, 0, 53, 108
1, 82507, Note_on_c, 0, 56, 116
1, 82507, Note_off_c, 0, 53, 108
1, 82598, Note_off_c, 0, 56, 116
1, 82623, Note_on_c, 0, 59, 116
1, 82726, Note_off_c, 0, 59, 116
1, 82741, Note_on_c, 0, 57, 110
1, 82838, Note_off_c, 0, 57, 110
1, 82847, Note_on_c, 0, 56, 112
1, 82897, Note_off_c, 0, 56, 112
1, 82925, Note_on_c, 0, 58, 119
1, 82984, Note_off_c, 0, 58, 119
1, 83018, Note_on_c, 0, 64, 116
1, 83112, Note_off_c, 0, 64, 116
1, 83118, Note_on_c, 0, 60, 109
1, 83199, Note_off_c, 0, 60, 109
1, 83224, Note_on_c, 0, 55, 102
1, 83283, Note_off_c, 0, 55, 102
1, 83371, Note_on_c, 0, 63, 88
1, 83399, Note_off_c, 0, 63, 88
1, 83417, Note_on_c, 0, 62, 113
1, 83457, Note_off_c, 0, 62, 113
1, 83469, Note_on_c, 0, 61, 103
1, 83547, Note_off_c, 0, 61, 103
1, 83569, Note_on_c, 0, 60, 103
1, 83672, Note_off_c, 0, 60, 103
1, 83895, Note_on_c, 0, 61, 115
1, 84024, Note_off_c, 0, 61, 115
1, 84061, Note_on_c, 0, 65, 111
1, 84158, Note_off_c, 0, 65, 111
1, 84173, Note_on_c, 0, 67, 108
1, 84286, Note_off_c, 0, 67, 108
1, 84295, Note_on_c, 0, 64, 102
1, 84376, Note_off_c, 0, 64, 102
1, 84398, Note_on_c, 0, 65, 103
1, 84476, Note_off_c, 0, 65, 103
1, 84488, Note_on_c, 0, 66, 107
1, 84576, Note_off_c, 0, 66, 107
1, 84591, Note_on_c, 0, 69, 110
1, 84657, Note_off_c, 0, 69, 110
1, 84688, Note_on_c, 0, 69, 104
1, 84769, Note_off_c, 0, 69, 104
1, 84772, Note_on_c, 0, 71, 104
1, 84838, Note_off_c, 0, 71, 104
1, 84863, Note_on_c, 0, 76, 107
1, 84957, Note_off_c, 0, 76, 107
1, 84966, Note_on_c, 0, 74, 107
1, 85028, Note_off_c, 0, 74, 107
1, 85040, Note_on_c, 0, 76, 100
1, 85147, Note_off_c, 0, 76, 100
1, 85147, Note_on_c, 0, 74, 110
1, 85219, Note_off_c, 0, 74, 110
1, 85228, Note_on_c, 0, 73, 102
1, 85284, Note_off_c, 0, 73, 102
1, 85287, Note_on_c, 0, 76, 108
1, 85340, Note_off_c, 0, 76, 108
1, 85362, Note_on_c, 0, 74, 111
1, 85443, Note_off_c, 0, 74, 111
1, 85443, Note_on_c, 0, 72, 112
1, 85534, Note_off_c, 0, 72, 112
1, 85556, Note_on_c, 0, 71, 113
1, 85650, Note_off_c, 0, 71, 113
1, 85659, Note_on_c, 0, 74, 112
1, 85731, Note_on_c, 0, 72, 109
1, 85731, Note_off_c, 0, 74, 112
1, 85828, Note_off_c, 0, 72, 109
1, 85834, Note_on_c, 0, 71, 111
1, 85934, Note_off_c, 0, 71, 111
1, 85940, Note_on_c, 0, 69, 118
1, 86012, Note_off_c, 0, 69, 118
1, 86027, Note_on_c, 0, 70, 111
1, 86093, Note_off_c, 0, 70, 111
1, 86115, Note_on_c, 0, 63, 117
1, 86200, Note_off_c, 0, 63, 117
1, 86215, Note_on_c, 0, 65, 116
1, 86277, Note_off_c, 0, 65, 116
1, 86286, Note_on_c, 0, 64, 118
1, 86386, Note_off_c, 0, 64, 118
1, 86401, Note_on_c, 0, 67, 114
1, 86548, Note_off_c, 0, 67, 114
1, 87848, Note_on_c, 0, 81, 105
1, 87929, Note_off_c, 0, 81, 105
1, 87954, Note_on_c, 0, 79, 107
1, 88035, Note_off_c, 0, 79, 107
1, 88035, Note_on_c, 0, 77, 114
1, 88104, Note_off_c, 0, 77, 114
1, 88116, Note_on_c, 0, 76, 118
1, 88191, Note_off_c, 0, 76, 118
1, 88216, Note_on_c, 0, 75, 116
1, 88304, Note_off_c, 0, 75, 116
1, 88329, Note_on_c, 0, 73, 84
1, 88391, Note_off_c, 0, 73, 84
1, 88397, Note_on_c, 0, 71, 106
1, 88472, Note_off_c, 0, 71, 106
1, 88534, Note_on_c, 0, 69, 113
1, 88590, Note_off_c, 0, 69, 113
1, 88615, Note_on_c, 0, 70, 115
1, 88646, Note_off_c, 0, 70, 115
1, 88646, Note_on_c, 0, 68, 113
1, 88721, Note_off_c, 0, 68, 113
1, 88761, Note_on_c, 0, 65, 123
1, 88823, Note_off_c, 0, 65, 123
1, 88832, Note_on_c, 0, 66, 108
1, 88894, Note_off_c, 0, 66, 108
1, 88938, Note_on_c, 0, 67, 116
1, 89007, Note_off_c, 0, 67, 116
1, 89007, Note_on_c, 0, 65, 116
1, 89088, Note_off_c, 0, 65, 116
1, 89094, Note_on_c, 0, 64, 117
1, 89201, Note_on_c, 0, 63, 111
1, 89201, Note_off_c, 0, 64, 117
1, 89308, Note_off_c, 0, 63, 111
1, 89320, Note_on_c, 0, 64, 112
1, 89401, Note_off_c, 0, 64, 112
1, 89401, Note_on_c, 0, 65, 111
1, 89520, Note_off_c, 0, 65, 111
1, 89520, Note_on_c, 0, 67, 104
1, 89601, Note_off_c, 0, 67, 104
1, 89638, Note_on_c, 0, 69, 109
1, 89700, Note_off_c, 0, 69, 109
1, 89712, Note_on_c, 0, 70, 92
1, 89793, Note_off_c, 0, 70, 92
1, 89871, Note_on_c, 0, 72, 92
1, 89977, Note_off_c, 0, 72, 92
1, 90043, Note_on_c, 0, 74, 114
1, 90264, Note_off_c, 0, 74, 114
1, 90294, Note_on_c, 0, 75, 111
1, 90448, Note_off_c, 0, 75, 111
1, 90452, Note_on_c, 0, 76, 115
1, 90633, Note_off_c, 0, 76, 115
1, 90637, Note_on_c, 0, 77, 108
1, 90729, Note_off_c, 0, 77, 108
1, 91043, Note_on_c, 0, 76, 114
1, 91224, Note_off_c, 0, 76, 114
1, 91250, Note_on_c, 0, 77, 110
1, 91325, Note_off_c, 0, 77, 110
1, 91378, Note_on_c, 0, 76, 110
1, 91577, Note_off_c, 0, 76, 110
1, 91594, Note_on_c, 0, 77, 103
1, 91709, Note_off_c, 0, 77, 103
1, 91952, Note_on_c, 0, 76, 111
1, 92124, Note_off_c, 0, 76, 111
1, 92137, Note_on_c, 0, 77, 108
1, 92269, Note_off_c, 0, 77, 108
1, 92357, Note_on_c, 0, 76, 110
1, 92551, Note_off_c, 0, 76, 110
1, 92551, Note_on_c, 0, 77, 105
1, 92652, Note_off_c, 0, 77, 105
1, 92935, Note_on_c, 0, 77, 110
1, 93147, Note_off_c, 0, 77, 110
1, 93147, Note_on_c, 0, 78, 100
1, 93262, Note_off_c, 0, 78, 100
1, 93297, Note_on_c, 0, 77, 108
1, 93509, Note_off_c, 0, 77, 108
1, 93535, Note_on_c, 0, 78, 94
1, 93623, Note_off_c, 0, 78, 94
1, 93955, Note_on_c, 0, 77, 110
1, 94096, Note_off_c, 0, 77, 110
1, 94118, Note_on_c, 0, 78, 93
1, 94215, Note_off_c, 0, 78, 93
1, 94263, Note_on_c, 0, 77, 112
1, 94462, Note_off_c, 0, 77, 112
1, 94466, Note_on_c, 0, 78, 97
1, 94581, Note_off_c, 0, 78, 97
1, 94813, Note_on_c, 0, 78, 97
1, 95016, Note_off_c, 0, 78, 97
1, 95034, Note_on_c, 0, 79, 89
1, 95126, Note_off_c, 0, 79, 89
1, 95217, Note_on_c, 0, 78, 103
1, 95407, Note_off_c, 0, 78, 103
1, 95418, Note_on_c, 0, 79, 95
1, 95515, Note_off_c, 0, 79, 95
1, 95795, Note_on_c, 0, 81, 92
1, 95936, Note_off_c, 0, 81, 92
1, 95971, Note_on_c, 0, 79, 90
1, 96117, Note_off_c, 0, 79, 90
1, 96183, Note_on_c, 0, 79, 102
1, 96333, Note_off_c, 0, 79, 102
1, 96350, Note_on_c, 0, 80, 86
1, 96425, Note_off_c, 0, 80, 86
1, 96752, Note_on_c, 0, 82, 93
1, 96915, Note_off_c, 0, 82, 93
1, 96945, Note_on_c, 0, 81, 93
1, 97037, Note_off_c, 0, 81, 93
1, 97138, Note_on_c, 0, 80, 90
1, 97315, Note_off_c, 0, 80, 90
1, 97328, Note_on_c, 0, 81, 94
1, 97434, Note_off_c, 0, 81, 94
1, 97717, Note_on_c, 0, 80, 95
1, 97863, Note_off_c, 0, 80, 95
1, 97880, Note_on_c, 0, 81, 83
1, 97977, Note_off_c, 0, 81, 83
1, 98096, Note_on_c, 0, 80, 91
1, 98255, Note_off_c, 0, 80, 91
1, 98268, Note_on_c, 0, 81, 107
1, 98356, Note_off_c, 0, 81, 107
1, 98713, Note_on_c, 0, 74, 89
1, 98821, Note_off_c, 0, 74, 89
1, 98886, Note_on_c, 0, 83, 102
1, 98987, Note_off_c, 0, 83, 102
1, 99000, Note_on_c, 0, 84, 90
1, 99491, Note_off_c, 0, 84, 90
1, 99632, Note_on_c, 0, 82, 109
1, 99791, Note_off_c, 0, 82, 109
1, 99791, End_track
0, 0, End_of_file
