0, 0, Header, 1, 1, 192
1, 0, Start_track
1, 0, Title_t, "Melody"
1, 0, Tempo, 244897
1, 0, Key_signature, -2, "major"
1, 0, Time_signature, 4, 2, 24, 8
1, 4904, Note_on_c, 0, 78, 113
1, 5014, Note_off_c, 0, 78, 113
1, 5100, Note_on_c, 0, 76, 124
1, 5255, Note_off_c, 0, 76, 124
1, 5289, Note_on_c, 0, 74, 120
1, 5447, Note_off_c, 0, 74, 120
1, 5481, Note_on_c, 0, 72, 111
1, 5587, Note_off_c, 0, 72, 111
1, 5664, Note_on_c, 0, 70, 119
1, 5945, Note_off_c, 0, 70, 119
1, 5975, Note_on_c, 0, 69, 99
1, 6031, Note_off_c, 0, 69, 99
1, 6058, Note_on_c, 0, 70, 119
1, 6219, Note_off_c, 0, 70, 119
1, 6281, Note_on_c, 0, 74, 117
1, 6383, Note_off_c, 0, 74, 117
1, 6443, Note_on_c, 0, 69, 114
1, 6734, Note_off_c, 0, 69, 114
1, 6749, Note_on_c, 0, 69, 101
1, 7322, Note_off_c, 0, 69, 101
1, 8346, Note_on_c, 0, 77, 126
1, 8438, Note_off_c, 0, 77, 126
1, 8464, Note_on_c, 0, 75, 113
1, 8507, Note_off_c, 0, 75, 113
1, 8552, Note_on_c, 0, 66, 109
1, 8597, Note_off_c, 0, 66, 109
1, 8747, Note_on_c, 0, 69, 116
1, 8922, Note_off_c, 0, 69, 116
1, 8935, Note_on_c, 0, 70, 119
1, 9095, Note_off_c, 0, 70, 119
1, 9116, Note_on_c, 0, 72, 119
1, 9285, Note_off_c, 0, 72, 119
1, 9302, Note_on_c, 0, 74, 115
1, 9374, Note_off_c, 0, 74, 115
1, 9394, Note_on_c, 0, 69, 116
1, 9795, Note_off_c, 0, 69, 116
1, 9819, Note_on_c, 0, 67, 100
1, 9892, Note_off_c, 0, 67, 100
1, 9903, Note_on_c, 0, 70, 111
1, 10402, Note_off_c, 0, 70, 111
1, 11139, Note_on_c, 0, 62, 113
1, 11190, Note_off_c, 0, 62, 113
1, 11209, Note_on_c, 0, 58, 106
1, 11319, Note_off_c, 0, 58, 106
1, 11336, Note_on_c, 0, 62, 94
1, 11370, Note_off_c, 0, 62, 94
1, 11399, Note_on_c, 0, 65, 115
1, 11490, Note_off_c, 0, 65, 115
1, 11508, Note_on_c, 0, 62, 99
1, 11579, Note_off_c, 0, 62, 99
1, 11597, Note_on_c, 0, 64, 113
1, 11684, Note_off_c, 0, 64, 113
1, 11705, Note_on_c, 0, 67, 102
1, 11763, Note_off_c, 0, 67, 102
1, 11792, Note_on_c, 0, 72, 125
1, 11892, Note_off_c, 0, 72, 125
1, 11905, Note_on_c, 0, 69, 104
1, 11976, Note_off_c, 0, 69, 104
1, 11985, Note_on_c, 0, 70, 115
1, 12080, Note_off_c, 0, 70, 115
1, 12088, Note_on_c, 0, 74, 119
1, 12147, Note_off_c, 0, 74, 119
1, 12162, Note_on_c, 0, 77, 122
1, 12269, Note_off_c, 0, 77, 122
1, 12286, Note_on_c, 0, 74, 91
1, 12325, Note_off_c, 0, 74, 91
1, 12350, Note_on_c, 0, 76, 114
1, 12459, Note_off_c, 0, 76, 114
1, 12478, Note_on_c, 0, 84, 117
1, 12641, Note_off_c, 0, 84, 117
1, 12657, Note_on_c, 0, 81, 110
1, 12713, Note_off_c, 0, 81, 110
1, 12732, Note_on_c, 0, 82, 122
1, 12845, Note_off_c, 0, 82, 122
1, 12858, Note_on_c, 0, 79, 104
1, 12905, Note_off_c, 0, 79, 104
1, 12927, Note_on_c, 0, 81, 120
1, 13031, Note_off_c, 0, 81, 120
1, 13040, Note_on_c, 0, 78, 109
1, 13099, Note_off_c, 0, 78, 109
1, 13124, Note_on_c, 0, 79, 119
1, 13234, Note_off_c, 0, 79, 119
1, 13249, Note_on_c, 0, 78, 108
1, 13358, Note_off_c, 0, 78, 108
1, 13414, Note_on_c, 0, 77, 124
1, 13507, Note_off_c, 0, 77, 124
1, 13518, Note_on_c, 0, 76, 123
1, 13603, Note_off_c, 0, 76, 123
1, 13617, Note_on_c, 0, 75, 127
1, 13705, Note_off_c, 0, 75, 127
1, 13720, Note_on_c, 0, 74, 117
1, 13784, Note_off_c, 0, 74, 117
1, 13802, Note_on_c, 0, 73, 119
1, 13873, Note_off_c, 0, 73, 119
1, 13886, Note_on_c, 0, 72, 110
1, 13958, Note_off_c, 0, 72, 110
1, 13982, Note_on_c, 0, 72, 119
1, 14055, Note_off_c, 0, 72, 119
1, 14068, Note_on_c, 0, 71, 117
1, 14150, Note_off_c, 0, 71, 117
1, 14168, Note_on_c, 0, 69, 108
1, 14239, Note_off_c, 0, 69, 108
1, 14249, Note_on_c, 0, 70, 120
1, 14348, Note_off_c, 0, 70, 120
1, 14385, Note_on_c, 0, 66, 102
1, 14425, Note_off_c, 0, 66, 102
1, 14451, Note_on_c, 0, 69, 119
1, 14538, Note_off_c, 0, 69, 119
1, 14549, Note_on_c, 0, 67, 113
1, 14614, Note_off_c, 0, 67, 113
1, 14639, Note_on_c, 0, 66, 109
1, 14695, Note_off_c, 0, 66, 109
1, 14738, Note_on_c, 0, 65, 95
1, 14798, Note_off_c, 0, 65, 95
1, 14821, Note_on_c, 0, 66, 113
1, 14901, Note_off_c, 0, 66, 113
1, 14932, Note_on_c, 0, 62, 102
1, 14979, Note_off_c, 0, 62, 102
1, 15000, Note_on_c, 0, 64, 114
1, 15087, Note_off_c, 0, 64, 114
1, 15116, Note_on_c, 0, 60, 103
1, 15176, Note_off_c, 0, 60, 103
1, 15191, Note_on_c, 0, 62, 114
1, 15275, Note_off_c, 0, 62, 114
1, 15305, Note_on_c, 0, 58, 106
1, 15359, Note_off_c, 0, 58, 106
1, 15387, Note_on_c, 0, 60, 110
1, 15470, Note_off_c, 0, 60, 110
1, 15479, Note_on_c, 0, 55, 107
1, 15537, Note_off_c, 0, 55, 107
1, 15564, Note_on_c, 0, 58, 107
1, 15889, Note_off_c, 0, 58, 107
1, 15907, Note_on_c, 0, 55, 103
1, 15958, Note_off_c, 0, 55, 103
1, 15969, Note_on_c, 0, 57, 114
1, 16035, Note_off_c, 0, 57, 114
1, 16057, Note_on_c, 0, 55, 104
1, 16118, Note_off_c, 0, 55, 104
1, 16160, Note_on_c, 0, 57, 107
1, 16218, Note_off_c, 0, 57, 107
1, 16257, Note_on_c, 0, 58, 113
1, 16309, Note_off_c, 0, 58, 113
1, 16350, Note_on_c, 0, 60, 101
1, 16421, Note_off_c, 0, 60, 101
1, 16444, Note_on_c, 0, 63, 97
1, 16512, Note_off_c, 0, 63, 97
1, 16522, Note_on_c, 0, 67, 116
1, 16604, Note_off_c, 0, 67, 116
1, 16623, Note_on_c, 0, 70, 122
1, 16691, Note_off_c, 0, 70, 122
1, 16703, Note_on_c, 0, 68, 113
1, 16764, Note_off_c, 0, 68, 113
1, 16802, Note_on_c, 0, 66, 113
1, 16863, Note_off_c, 0, 66, 113
1, 16896, Note_on_c, 0, 62, 109
1, 16963, Note_off_c, 0, 62, 109
1, 16980, Note_on_c, 0, 58, 105
1, 17025, Note_off_c, 0, 58, 105
1, 17045, Note_on_c, 0, 65, 108
1, 17365, Note_off_c, 0, 65, 108
1, 17387, Note_on_c, 0, 63, 99
1, 17451, Note_off_c, 0, 63, 99
1, 17476, Note_on_c, 0, 70, 101
1, 18018, Note_off_c, 0, 70, 101
1, 18707, Note_on_c, 0, 78, 119
1, 18991, Note_off_c, 0, 78, 119
1, 19013, Note_on_c, 0, 78, 118
1, 19372, Note_off_c, 0, 78, 118
1, 19387, Note_on_c, 0, 78, 117
1, 19668, Note_off_c, 0, 78, 117
1, 19691, Note_on_c, 0, 74, 105
1, 19750, Note_off_c, 0, 74, 105
1, 19790, Note_on_c, 0, 77, 121
1, 19883, Note_off_c, 0, 77, 121
1, 19895, Note_on_c, 0, 76, 119
1, 19978, Note_off_c, 0, 76, 119
1, 19990, Note_on_c, 0, 75, 109
1, 20065, Note_off_c, 0, 75, 109
1, 20107, Note_on_c, 0, 75, 118
1, 20188, Note_off_c, 0, 75, 118
1, 20207, Note_on_c, 0, 74, 111
1, 20284, Note_off_c, 0, 74, 111
1, 20300, Note_on_c, 0, 70, 116
1, 20362, Note_off_c, 0, 70, 116
1, 20376, Note_on_c, 0, 67, 107
1, 20471, Note_off_c, 0, 67, 107
1, 20502, Note_on_c, 0, 65, 92
1, 20543, Note_off_c, 0, 65, 92
1, 20565, Note_on_c, 0, 72, 113
1, 20857, Note_off_c, 0, 72, 113
1, 20874, Note_on_c, 0, 67, 101
1, 20928, Note_off_c, 0, 67, 101
1, 20946, Note_on_c, 0, 70, 111
1, 21048, Note_off_c, 0, 70, 111
1, 21066, Note_on_c, 0, 67, 99
1, 21142, Note_off_c, 0, 67, 99
1, 21152, Note_on_c, 0, 68, 112
1, 21235, Note_off_c, 0, 68, 112
1, 21245, Note_on_c, 0, 70, 118
1, 21335, Note_off_c, 0, 70, 118
1, 21347, Note_on_c, 0, 71, 114
1, 21432, Note_off_c, 0, 71, 114
1, 21447, Note_on_c, 0, 73, 115
1, 21531, Note_off_c, 0, 73, 115
1, 21541, Note_on_c, 0, 74, 111
1, 21621, Note_off_c, 0, 74, 111
1, 21635, Note_on_c, 0, 76, 118
1, 21720, Note_off_c, 0, 76, 118
1, 21726, Note_on_c, 0, 77, 119
1, 21823, Note_off_c, 0, 77, 119
1, 21839, Note_on_c, 0, 79, 108
1, 21914, Note_off_c, 0, 79, 108
1, 21922, Note_on_c, 0, 80, 112
1, 21994, Note_off_c, 0, 80, 112
1, 22012, Note_on_c, 0, 81, 113
1, 22093, Note_off_c, 0, 81, 113
1, 22113, Note_on_c, 0, 77, 115
1, 22196, Note_off_c, 0, 77, 115
1, 22209, Note_on_c, 0, 78, 108
1, 22284, Note_off_c, 0, 78, 108
1, 22303, Note_on_c, 0, 76, 114
1, 22388, Note_off_c, 0, 76, 114
1, 22402, Note_on_c, 0, 77, 118
1, 22469, Note_off_c, 0, 77, 118
1, 22481, Note_on_c, 0, 76, 110
1, 22562, Note_off_c, 0, 76, 110
1, 22594, Note_on_c, 0, 77, 102
1, 22634, Note_off_c, 0, 77, 102
1, 22645, Note_on_c, 0, 80, 98
1, 22694, Note_off_c, 0, 80, 98
1, 22709, Note_on_c, 0, 82, 100
1, 22807, Note_off_c, 0, 82, 100
1, 22821, Note_on_c, 0, 76, 110
1, 22945, Note_off_c, 0, 76, 110
1, 23013, Note_on_c, 0, 77, 90
1, 23178, Note_off_c, 0, 77, 90
1, 23209, Note_on_c, 0, 70, 110
1, 23932, Note_off_c, 0, 70, 110
1, 23950, Note_on_c, 0, 69, 96
1, 24004, Note_off_c, 0, 69, 96
1, 24019, Note_on_c, 0, 70, 114
1, 24117, Note_off_c, 0, 70, 114
1, 24135, Note_on_c, 0, 67, 94
1, 24181, Note_off_c, 0, 67, 94
1, 24206, Note_on_c, 0, 69, 102
1, 24306, Note_off_c, 0, 69, 102
1, 24368, Note_on_c, 0, 70, 116
1, 24468, Note_off_c, 0, 70, 116
1, 24483, Note_on_c, 0, 67, 97
1, 24537, Note_off_c, 0, 67, 97
1, 24572, Note_on_c, 0, 69, 110
1, 24668, Note_off_c, 0, 69, 110
1, 24678, Note_on_c, 0, 70, 103
1, 25162, Note_off_c, 0, 70, 103
1, 26098, Note_on_c, 0, 76, 119
1, 26202, Note_off_c, 0, 76, 119
1, 26225, Note_on_c, 0, 79, 109
1, 26267, Note_off_c, 0, 79, 109
1, 26276, Note_on_c, 0, 76, 115
1, 26337, Note_off_c, 0, 76, 115
1, 26454, Note_on_c, 0, 76, 117
1, 26644, Note_off_c, 0, 76, 117
1, 26675, Note_on_c, 0, 76, 117
1, 27631, Note_off_c, 0, 76, 117
1, 27642, Note_on_c, 0, 76, 119
1, 27741, Note_off_c, 0, 76, 119
1, 27758, Note_on_c, 0, 79, 103
1, 27818, Note_off_c, 0, 79, 103
1, 27834, Note_on_c, 0, 76, 113
1, 28234, Note_off_c, 0, 76, 113
1, 28246, Note_on_c, 0, 75, 115
1, 28564, Note_off_c, 0, 75, 115
1, 28610, Note_on_c, 0, 74, 116
1, 28938, Note_off_c, 0, 74, 116
1, 28970, Note_on_c, 0, 73, 114
1, 29206, Note_off_c, 0, 73, 114
1, 29225, Note_on_c, 0, 74, 114
1, 29495, Note_off_c, 0, 74, 114
1, 29507, Note_on_c, 0, 75, 117
1, 29789, Note_off_c, 0, 75, 117
1, 29801, Note_on_c, 0, 76, 116
1, 30081, Note_off_c, 0, 76, 116
1, 30105, Note_on_c, 0, 78, 111
1, 30455, Note_off_c, 0, 78, 111
1, 30465, Note_on_c, 0, 81, 116
1, 30817, Note_off_c, 0, 81, 116
1, 30838, Note_on_c, 0, 84, 118
1, 32111, Note_off_c, 0, 84, 118
1, 32157, Note_on_c, 0, 81, 111
1, 32270, Note_off_c, 0, 81, 111
1, 32287, Note_on_c, 0, 82, 119
1, 32393, Note_off_c, 0, 82, 119
1, 32469, Note_on_c, 0, 78, 106
1, 32509, Note_off_c, 0, 78, 106
1, 32525, Note_on_c, 0, 81, 109
1, 32682, Note_off_c, 0, 81, 109
1, 32682, Note_on_c, 0, 79, 109
1, 32777, Note_off_c, 0, 79, 109
1, 32839, Note_on_c, 0, 78, 112
1, 32928, Note_off_c, 0, 78, 112
1, 32940, Note_on_c, 0, 77, 119
1, 33045, Note_off_c, 0, 77, 119
1, 33051, Note_on_c, 0, 76, 114
1, 33120, Note_off_c, 0, 76, 114
1, 33127, Note_on_c, 0, 75, 116
1, 33215, Note_off_c, 0, 75, 116
1, 33228, Note_on_c, 0, 73, 112
1, 33305, Note_off_c, 0, 73, 112
1, 33322, Note_on_c, 0, 72, 110
1, 33398, Note_off_c, 0, 72, 110
1, 33412, Note_on_c, 0, 71, 110
1, 33479, Note_off_c, 0, 71, 110
1, 33490, Note_on_c, 0, 70, 112
1, 33573, Note_off_c, 0, 70, 112
1, 33579, Note_on_c, 0, 66, 98
1, 33617, Note_off_c, 0, 66, 98
1, 33622, Note_on_c, 0, 67, 93
1, 33658, Note_off_c, 0, 67, 93
1, 33675, Note_on_c, 0, 69, 111
1, 33764, Note_off_c, 0, 69, 111
1, 33781, Note_on_c, 0, 66, 98
1, 33850, Note_off_c, 0, 66, 98
1, 33873, Note_on_c, 0, 67, 105
1, 33953, Note_off_c, 0, 67, 105
1, 33969, Note_on_c, 0, 64, 106
1, 34033, Note_off_c, 0, 64, 106
1, 34040, Note_on_c, 0, 62, 103
1, 34116, Note_off_c, 0, 62, 103
1, 34171, Note_on_c, 0, 60, 102
1, 34228, Note_off_c, 0, 60, 102
1, 34238, Note_on_c, 0, 58, 100
1, 34542, Note_off_c, 0, 58, 100
1, 35011, Note_on_c, 0, 70, 108
1, 35289, Note_off_c, 0, 70, 108
1, 35304, Note_on_c, 0, 62, 105
1, 35479, Note_off_c, 0, 62, 105
1, 35492, Note_on_c, 0, 67, 111
1, 35628, Note_off_c, 0, 67, 111
1, 35732, Note_on_c, 0, 77, 122
1, 35927, Note_off_c, 0, 77, 122
1, 35957, Note_on_c, 0, 75, 120
1, 36093, Note_off_c, 0, 75, 120
1, 36121, Note_on_c, 0, 66, 107
1, 36404, Note_off_c, 0, 66, 107
1, 36499, Note_on_c, 0, 73, 117
1, 36575, Note_off_c, 0, 73, 117
1, 36592, Note_on_c, 0, 74, 112
1, 36747, Note_off_c, 0, 74, 112
1, 36804, Note_on_c, 0, 62, 103
1, 36891, Note_off_c, 0, 62, 103
1, 36972, Note_on_c, 0, 67, 112
1, 37124, Note_off_c, 0, 67, 112
1, 37223, Note_on_c, 0, 77, 115
1, 37810, Note_off_c, 0, 77, 115
1, 37823, Note_on_c, 0, 75, 115
1, 37956, Note_off_c, 0, 75, 115
1, 37970, Note_on_c, 0, 66, 98
1, 38107, Note_off_c, 0, 66, 98
1, 38123, Note_on_c, 0, 74, 106
1, 38204, Note_off_c, 0, 74, 106
1, 38243, Note_on_c, 0, 62, 97
1, 38303, Note_off_c, 0, 62, 97
1, 38312, Note_on_c, 0, 64, 106
1, 38449, Note_off_c, 0, 64, 106
1, 38480, Note_on_c, 0, 67, 105
1, 39033, Note_off_c, 0, 67, 105
1, 39352, Note_on_c, 0, 69, 113
1, 39446, Note_off_c, 0, 69, 113
1, 39461, Note_on_c, 0, 70, 117
1, 39561, Note_off_c, 0, 70, 117
1, 39576, Note_on_c, 0, 72, 111
1, 39647, Note_off_c, 0, 72, 111
1, 39658, Note_on_c, 0, 73, 118
1, 39736, Note_off_c, 0, 73, 118
1, 39755, Note_on_c, 0, 72, 112
1, 39840, Note_off_c, 0, 72, 112
1, 39870, Note_on_c, 0, 69, 97
1, 39921, Note_off_c, 0, 69, 97
1, 39938, Note_on_c, 0, 70, 110
1, 40228, Note_off_c, 0, 70, 110
1, 40260, Note_on_c, 0, 67, 104
1, 40316, Note_off_c, 0, 67, 104
1, 40337, Note_on_c, 0, 69, 113
1, 40602, Note_off_c, 0, 69, 113
1, 40645, Note_on_c, 0, 67, 100
1, 40704, Note_off_c, 0, 67, 100
1, 40722, Note_on_c, 0, 68, 112
1, 40822, Note_off_c, 0, 68, 112
1, 40831, Note_on_c, 0, 72, 115
1, 40888, Note_off_c, 0, 72, 115
1, 40992, Note_on_c, 0, 75, 122
1, 41072, Note_off_c, 0, 75, 122
1, 41094, Note_on_c, 0, 79, 110
1, 41184, Note_off_c, 0, 79, 110
1, 41199, Note_on_c, 0, 84, 121
1, 41834, Note_off_c, 0, 84, 121
1, 41883, Note_on_c, 0, 82, 120
1, 41985, Note_off_c, 0, 82, 120
1, 41999, Note_on_c, 0, 79, 107
1, 42087, Note_off_c, 0, 79, 107
1, 42172, Note_on_c, 0, 70, 100
1, 42222, Note_off_c, 0, 70, 100
1, 42262, Note_on_c, 0, 80, 113
1, 42426, Note_off_c, 0, 80, 113
1, 42436, Note_on_c, 0, 79, 111
1, 42536, Note_off_c, 0, 79, 111
1, 42549, Note_on_c, 0, 78, 108
1, 42644, Note_off_c, 0, 78, 108
1, 42661, Note_on_c, 0, 77, 118
1, 42753, Note_off_c, 0, 77, 118
1, 42757, Note_on_c, 0, 76, 116
1, 42830, Note_off_c, 0, 76, 116
1, 42839, Note_on_c, 0, 75, 117
1, 42926, Note_off_c, 0, 75, 117
1, 42940, Note_on_c, 0, 74, 114
1, 43023, Note_off_c, 0, 74, 114
1, 43035, Note_on_c, 0, 72, 113
1, 43122, Note_off_c, 0, 72, 113
1, 43133, Note_on_c, 0, 71, 109
1, 43210, Note_off_c, 0, 71, 109
1, 43220, Note_on_c, 0, 70, 115
1, 43315, Note_off_c, 0, 70, 115
1, 43328, Note_on_c, 0, 68, 94
1, 43379, Note_off_c, 0, 68, 94
1, 43393, Note_on_c, 0, 78, 115
1, 43497, Note_off_c, 0, 78, 115
1, 43522, Note_on_c, 0, 70, 113
1, 43590, Note_off_c, 0, 70, 113
1, 43603, Note_on_c, 0, 65, 103
1, 43668, Note_off_c, 0, 65, 103
1, 43692, Note_on_c, 0, 63, 92
1, 43772, Note_off_c, 0, 63, 92
1, 43785, Note_on_c, 0, 70, 114
1, 43873, Note_off_c, 0, 70, 114
1, 43893, Note_on_c, 0, 66, 103
1, 43973, Note_off_c, 0, 66, 103
1, 43976, Note_on_c, 0, 68, 110
1, 44050, Note_off_c, 0, 68, 110
1, 44069, Note_on_c, 0, 65, 97
1, 44120, Note_off_c, 0, 65, 97
1, 44138, Note_on_c, 0, 66, 100
1, 44232, Note_off_c, 0, 66, 100
1, 44277, Note_on_c, 0, 63, 94
1, 44353, Note_off_c, 0, 63, 94
1, 44362, Note_on_c, 0, 65, 106
1, 44439, Note_off_c, 0, 65, 106
1, 44448, Note_on_c, 0, 63, 104
1, 44512, Note_off_c, 0, 63, 104
1, 44524, Note_on_c, 0, 62, 98
1, 44588, Note_off_c, 0, 62, 98
1, 44639, Note_on_c, 0, 70, 105
1, 44724, Note_off_c, 0, 70, 105
1, 44837, Note_on_c, 0, 67, 95
1, 44887, Note_off_c, 0, 67, 95
1, 44927, Note_on_c, 0, 72, 110
1, 45106, Note_off_c, 0, 72, 110
1, 45149, Note_on_c, 0, 69, 92
1, 45200, Note_off_c, 0, 69, 92
1, 45212, Note_on_c, 0, 70, 94
1, 45637, Note_off_c, 0, 70, 94
1, 46172, Note_on_c, 0, 80, 116
1, 46244, Note_off_c, 0, 80, 116
1, 46256, Note_on_c, 0, 81, 113
1, 46380, Note_off_c, 0, 81, 113
1, 46440, Note_on_c, 0, 79, 112
1, 46547, Note_off_c, 0, 79, 112
1, 46552, Note_on_c, 0, 80, 112
1, 46628, Note_off_c, 0, 80, 112
1, 46639, Note_on_c, 0, 78, 96
1, 46712, Note_off_c, 0, 78, 96
1, 46745, Note_on_c, 0, 73, 10
1, 46823, Note_off_c, 0, 73, 10
1, 46836, Note_on_c, 0, 71, 108
1, 46908, Note_off_c, 0, 71, 108
1, 46941, Note_on_c, 0, 69, 117
1, 47002, Note_off_c, 0, 69, 117
1, 47031, Note_on_c, 0, 67, 110
1, 47091, Note_off_c, 0, 67, 110
1, 47107, Note_on_c, 0, 66, 100
1, 47163, Note_off_c, 0, 66, 100
1, 47199, Note_on_c, 0, 69, 117
1, 47282, Note_off_c, 0, 69, 117
1, 47300, Note_on_c, 0, 66, 94
1, 47354, Note_off_c, 0, 66, 94
1, 47517, Note_on_c, 0, 70, 119
1, 47586, Note_off_c, 0, 70, 119
1, 47600, Note_on_c, 0, 66, 103
1, 47659, Note_off_c, 0, 66, 103
1, 47701, Note_on_c, 0, 63, 112
1, 47780, Note_off_c, 0, 63, 112
1, 47795, Note_on_c, 0, 62, 104
1, 47866, Note_off_c, 0, 62, 104
1, 47889, Note_on_c, 0, 57, 106
1, 47944, Note_off_c, 0, 57, 106
1, 47972, Note_on_c, 0, 64, 107
1, 48061, Note_off_c, 0, 64, 107
1, 48076, Note_on_c, 0, 66, 108
1, 48134, Note_off_c, 0, 66, 108
1, 48194, Note_on_c, 0, 67, 96
1, 48263, Note_off_c, 0, 67, 96
1, 48272, Note_on_c, 0, 69, 107
1, 48325, Note_off_c, 0, 69, 107
1, 48340, Note_on_c, 0, 70, 117
1, 48456, Note_off_c, 0, 70, 117
1, 48472, Note_on_c, 0, 67, 98
1, 48527, Note_off_c, 0, 67, 98
1, 48557, Note_on_c, 0, 69, 112
1, 48633, Note_off_c, 0, 69, 112
1, 48737, Note_on_c, 0, 70, 115
1, 48917, Note_off_c, 0, 70, 115
1, 48939, Note_on_c, 0, 72, 114
1, 49108, Note_off_c, 0, 72, 114
1, 49116, Note_on_c, 0, 76, 119
1, 49278, Note_off_c, 0, 76, 119
1, 49291, Note_on_c, 0, 79, 112
1, 49451, Note_off_c, 0, 79, 112
1, 49472, Note_on_c, 0, 84, 118
1, 50534, Note_off_c, 0, 84, 118
1, 50586, Note_on_c, 0, 81, 117
1, 50674, Note_off_c, 0, 81, 117
1, 50690, Note_on_c, 0, 79, 112
1, 50763, Note_off_c, 0, 79, 112
1, 50779, Note_on_c, 0, 76, 116
1, 50849, Note_off_c, 0, 76, 116
1, 50859, Note_on_c, 0, 72, 114
1, 50946, Note_off_c, 0, 72, 114
1, 50959, Note_on_c, 0, 69, 102
1, 51023, Note_off_c, 0, 69, 102
1, 51043, Note_on_c, 0, 70, 118
1, 51138, Note_off_c, 0, 70, 118
1, 51161, Note_on_c, 0, 67, 104
1, 51192, Note_off_c, 0, 67, 104
1, 51214, Note_on_c, 0, 69, 115
1, 51300, Note_off_c, 0, 69, 115
1, 51333, Note_on_c, 0, 66, 97
1, 51365, Note_off_c, 0, 66, 97
1, 51395, Note_on_c, 0, 67, 102
1, 51491, Note_off_c, 0, 67, 102
1, 51594, Note_on_c, 0, 64, 108
1, 51761, Note_off_c, 0, 64, 108
1, 51780, Note_on_c, 0, 67, 106
1, 51946, Note_off_c, 0, 67, 106
1, 51964, Note_on_c, 0, 72, 107
1, 52053, Note_off_c, 0, 72, 107
1, 52131, Note_on_c, 0, 70, 116
1, 52838, Note_off_c, 0, 70, 116
1, 52843, Note_on_c, 0, 67, 85
1, 52893, Note_off_c, 0, 67, 85
1, 52931, Note_on_c, 0, 76, 104
1, 52969, Note_off_c, 0, 76, 104
1, 52977, Note_on_c, 0, 73, 106
1, 52987, Note_off_c, 0, 73, 106
1, 52989, Note_on_c, 0, 70, 114
1, 53039, Note_off_c, 0, 70, 114
1, 53051, Note_on_c, 0, 69, 105
1, 53114, Note_off_c, 0, 69, 105
1, 53127, Note_on_c, 0, 70, 107
1, 53163, Note_off_c, 0, 70, 107
1, 53164, Note_on_c, 0, 75, 110
1, 53187, Note_off_c, 0, 75, 110
1, 53191, Note_on_c, 0, 72, 101
1, 53212, Note_off_c, 0, 72, 101
1, 53217, Note_on_c, 0, 70, 110
1, 53269, Note_off_c, 0, 70, 110
1, 53291, Note_on_c, 0, 69, 106
1, 53334, Note_off_c, 0, 69, 106
1, 53355, Note_on_c, 0, 75, 102
1, 53376, Note_off_c, 0, 75, 102
1, 53384, Note_on_c, 0, 73, 107
1, 53410, Note_off_c, 0, 73, 107
1, 53414, Note_on_c, 0, 70, 107
1, 53459, Note_off_c, 0, 70, 107
1, 53471, Note_on_c, 0, 69, 106
1, 53510, Note_off_c, 0, 69, 106
1, 53514, Note_on_c, 0, 70, 109
1, 53560, Note_off_c, 0, 70, 109
1, 53611, Note_on_c, 0, 73, 105
1, 53633, Note_off_c, 0, 73, 105
1, 53643, Note_on_c, 0, 70, 113
1, 53689, Note_off_c, 0, 70, 113
1, 53698, Note_on_c, 0, 69, 116
1, 53763, Note_off_c, 0, 69, 116
1, 53776, Note_on_c, 0, 67, 93
1, 54280, Note_off_c, 0, 67, 93
1, 54280, End_track
0, 0, End_of_file
