0, 0, Header, 1, 1, 192
1, 0, Start_track
1, 0, Title_t, "Melody"
1, 0, Tempo, 277777
1, 0, Key_signature, 2, "major"
1, 0, Time_signature, 4, 2, 24, 8
1, 3216, Note_on_c, 0, 69, 108
1, 3312, Note_off_c, 0, 69, 108
1, 3404, Note_on_c, 0, 69, 107
1, 3540, Note_off_c, 0, 69, 107
1, 3624, Note_on_c, 0, 69, 100
1, 3920, Note_off_c, 0, 69, 100
1, 4032, Note_on_c, 0, 69, 109
1, 4208, Note_off_c, 0, 69, 109
1, 4348, Note_on_c, 0, 69, 98
1, 4656, Note_off_c, 0, 69, 98
1, 4676, Note_on_c, 0, 67, 105
1, 4752, Note_off_c, 0, 67, 105
1, 4820, Note_on_c, 0, 69, 96
1, 5149, Note_off_c, 0, 69, 96
1, 5149, Note_on_c, 0, 64, 115
1, 5253, Note_off_c, 0, 64, 115
1, 5253, Note_on_c, 0, 65, 106
1, 5297, Note_off_c, 0, 65, 106
1, 5301, Note_on_c, 0, 66, 101
1, 5337, Note_off_c, 0, 66, 101
1, 5365, Note_on_c, 0, 67, 101
1, 5445, Note_off_c, 0, 67, 101
1, 5453, Note_on_c, 0, 66, 101
1, 5561, Note_off_c, 0, 66, 101
1, 5569, Note_on_c, 0, 62, 85
1, 5625, Note_off_c, 0, 62, 85
1, 5653, Note_on_c, 0, 64, 108
1, 5853, Note_off_c, 0, 64, 108
1, 5853, Note_on_c, 0, 62, 88
1, 5937, Note_off_c, 0, 62, 88
1, 5941, Note_on_c, 0, 66, 96
1, 6073, Note_off_c, 0, 66, 96
1, 6073, Note_on_c, 0, 57, 92
1, 6514, Note_off_c, 0, 57, 92
1, 7051, Note_on_c, 0, 67, 117
1, 7143, Note_off_c, 0, 67, 117
1, 7163, Note_on_c, 0, 69, 109
1, 7331, Note_on_c, 0, 65, 111
1, 7331, Note_off_c, 0, 69, 109
1, 7427, Note_off_c, 0, 65, 111
1, 7427, Note_on_c, 0, 62, 107
1, 7519, Note_off_c, 0, 62, 107
1, 7523, Note_on_c, 0, 64, 107
1, 7835, Note_off_c, 0, 64, 107
1, 7835, Note_on_c, 0, 61, 101
1, 7927, Note_off_c, 0, 61, 101
1, 7927, Note_on_c, 0, 57, 113
1, 8067, Note_off_c, 0, 57, 113
1, 8067, Note_on_c, 0, 53, 103
1, 8175, Note_off_c, 0, 53, 103
1, 8183, Note_on_c, 0, 54, 97
1, 8263, Note_off_c, 0, 54, 97
1, 8263, Note_on_c, 0, 57, 112
1, 8395, Note_off_c, 0, 57, 112
1, 8395, Note_on_c, 0, 61, 103
1, 8495, Note_on_c, 0, 64, 116
1, 8495, Note_off_c, 0, 61, 103
1, 8579, Note_off_c, 0, 64, 116
1, 8583, Note_on_c, 0, 61, 94
1, 8667, Note_off_c, 0, 61, 94
1, 8683, Note_on_c, 0, 62, 93
1, 9008, Note_off_c, 0, 62, 93
1, 9357, Note_on_c, 0, 59, 107
1, 9461, Note_off_c, 0, 59, 107
1, 9469, Note_on_c, 0, 62, 122
1, 9553, Note_off_c, 0, 62, 122
1, 9573, Note_on_c, 0, 64, 119
1, 9629, Note_off_c, 0, 64, 119
1, 9657, Note_on_c, 0, 66, 105
1, 10122, Note_off_c, 0, 66, 105
1, 10158, Note_on_c, 0, 64, 114
1, 10246, Note_off_c, 0, 64, 114
1, 10246, Note_on_c, 0, 62, 118
1, 10346, Note_off_c, 0, 62, 118
1, 10346, Note_on_c, 0, 59, 103
1, 10458, Note_off_c, 0, 59, 103
1, 10458, Note_on_c, 0, 54, 101
1, 10598, Note_off_c, 0, 54, 101
1, 10626, Note_on_c, 0, 53, 101
1, 10975, Note_off_c, 0, 53, 101
1, 11809, Note_on_c, 0, 59, 110
1, 11909, Note_off_c, 0, 59, 110
1, 11909, Note_on_c, 0, 57, 109
1, 11997, Note_off_c, 0, 57, 109
1, 11997, Note_on_c, 0, 61, 106
1, 12085, Note_off_c, 0, 61, 106
1, 12105, Note_on_c, 0, 59, 83
1, 12197, Note_off_c, 0, 59, 83
1, 12197, Note_on_c, 0, 60, 104
1, 12566, Note_off_c, 0, 60, 104
1, 12578, Note_on_c, 0, 59, 109
1, 12658, Note_off_c, 0, 59, 109
1, 12718, Note_on_c, 0, 57, 113
1, 12850, Note_off_c, 0, 57, 113
1, 12886, Note_on_c, 0, 59, 105
1, 13162, Note_off_c, 0, 59, 105
1, 13162, Note_on_c, 0, 55, 105
1, 13254, Note_off_c, 0, 55, 105
1, 13298, Note_on_c, 0, 52, 99
1, 13422, Note_off_c, 0, 52, 99
1, 13426, Note_on_c, 0, 54, 102
1, 13538, Note_off_c, 0, 54, 102
1, 13538, Note_on_c, 0, 57, 115
1, 13650, Note_off_c, 0, 57, 115
1, 13650, Note_on_c, 0, 54, 103
1, 13718, Note_off_c, 0, 54, 103
1, 13734, Note_on_c, 0, 55, 108
1, 13826, Note_off_c, 0, 55, 108
1, 13846, Note_on_c, 0, 57, 116
1, 13946, Note_off_c, 0, 57, 116
1, 13946, Note_on_c, 0, 58, 103
1, 14018, Note_off_c, 0, 58, 103
1, 14030, Note_on_c, 0, 62, 120
1, 14122, Note_off_c, 0, 62, 120
1, 14138, Note_on_c, 0, 65, 111
1, 14198, Note_off_c, 0, 65, 111
1, 14198, Note_on_c, 0, 67, 102
1, 14274, Note_off_c, 0, 67, 102
1, 14274, Note_on_c, 0, 65, 109
1, 14326, Note_off_c, 0, 65, 109
1, 14326, Note_on_c, 0, 61, 106
1, 14450, Note_off_c, 0, 61, 106
1, 14450, Note_on_c, 0, 57, 99
1, 14510, Note_off_c, 0, 57, 99
1, 14546, Note_on_c, 0, 62, 106
1, 15015, Note_off_c, 0, 62, 106
1, 15729, Note_on_c, 0, 57, 103
1, 15829, Note_off_c, 0, 57, 103
1, 15853, Note_on_c, 0, 62, 124
1, 15945, Note_off_c, 0, 62, 124
1, 16025, Note_on_c, 0, 63, 125
1, 16121, Note_off_c, 0, 63, 125
1, 16133, Note_on_c, 0, 65, 119
1, 16353, Note_off_c, 0, 65, 119
1, 16353, Note_on_c, 0, 62, 106
1, 16425, Note_off_c, 0, 62, 106
1, 16433, Note_on_c, 0, 65, 106
1, 16729, Note_off_c, 0, 65, 106
1, 16749, Note_on_c, 0, 64, 125
1, 16869, Note_off_c, 0, 64, 125
1, 16941, Note_on_c, 0, 64, 125
1, 17025, Note_off_c, 0, 64, 125
1, 17025, Note_on_c, 0, 59, 99
1, 17097, Note_off_c, 0, 59, 99
1, 17097, Note_on_c, 0, 62, 125
1, 17201, Note_off_c, 0, 62, 125
1, 17205, Note_on_c, 0, 61, 107
1, 17317, Note_off_c, 0, 61, 107
1, 17321, Note_on_c, 0, 57, 112
1, 17409, Note_off_c, 0, 57, 112
1, 17421, Note_on_c, 0, 53, 97
1, 17537, Note_off_c, 0, 53, 97
1, 17613, Note_on_c, 0, 57, 117
1, 17705, Note_off_c, 0, 57, 117
1, 17705, Note_on_c, 0, 59, 110
1, 17777, Note_off_c, 0, 59, 110
1, 17781, Note_on_c, 0, 61, 109
1, 17877, Note_off_c, 0, 61, 109
1, 17877, Note_on_c, 0, 62, 108
1, 17961, Note_off_c, 0, 62, 108
1, 17965, Note_on_c, 0, 64, 119
1, 18093, Note_off_c, 0, 64, 119
1, 18121, Note_on_c, 0, 61, 105
1, 18161, Note_off_c, 0, 61, 105
1, 18161, Note_on_c, 0, 62, 122
1, 18257, Note_off_c, 0, 62, 122
1, 18289, Note_on_c, 0, 66, 90
1, 18349, Note_off_c, 0, 66, 90
1, 18369, Note_on_c, 0, 69, 109
1, 18457, Note_off_c, 0, 69, 109
1, 18465, Note_on_c, 0, 73, 113
1, 18517, Note_off_c, 0, 73, 113
1, 18521, Note_on_c, 0, 74, 116
1, 18613, Note_off_c, 0, 74, 116
1, 18625, Note_on_c, 0, 69, 93
1, 18986, Note_off_c, 0, 69, 93
1, 19046, Note_on_c, 0, 73, 105
1, 19122, Note_off_c, 0, 73, 105
1, 19138, Note_on_c, 0, 74, 112
1, 19310, Note_off_c, 0, 74, 112
1, 19338, Note_on_c, 0, 69, 109
1, 19458, Note_off_c, 0, 69, 109
1, 19534, Note_on_c, 0, 72, 96
1, 19842, Note_off_c, 0, 72, 96
1, 20018, Note_on_c, 0, 67, 106
1, 20106, Note_off_c, 0, 67, 106
1, 20106, Note_on_c, 0, 70, 109
1, 20230, Note_on_c, 0, 66, 100
1, 20230, Note_off_c, 0, 70, 109
1, 20306, Note_off_c, 0, 66, 100
1, 20306, Note_on_c, 0, 69, 88
1, 20639, Note_off_c, 0, 69, 88
1, 20984, Note_on_c, 0, 64, 120
1, 21064, Note_off_c, 0, 64, 120
1, 21064, Note_on_c, 0, 67, 102
1, 21132, Note_off_c, 0, 67, 102
1, 21136, Note_on_c, 0, 68, 105
1, 21184, Note_off_c, 0, 68, 105
1, 21184, Note_on_c, 0, 67, 102
1, 21228, Note_off_c, 0, 67, 102
1, 21228, Note_on_c, 0, 64, 113
1, 21344, Note_off_c, 0, 64, 113
1, 21352, Note_on_c, 0, 65, 107
1, 21440, Note_off_c, 0, 65, 107
1, 21448, Note_on_c, 0, 66, 99
1, 21568, Note_off_c, 0, 66, 99
1, 21568, Note_on_c, 0, 61, 83
1, 21608, Note_off_c, 0, 61, 83
1, 21644, Note_on_c, 0, 64, 104
1, 21973, Note_off_c, 0, 64, 104
1, 21973, Note_on_c, 0, 62, 104
1, 22113, Note_off_c, 0, 62, 104
1, 22189, Note_on_c, 0, 64, 113
1, 22269, Note_off_c, 0, 64, 113
1, 22273, Note_on_c, 0, 66, 98
1, 22561, Note_off_c, 0, 66, 98
1, 22601, Note_on_c, 0, 71, 107
1, 22693, Note_off_c, 0, 71, 107
1, 22701, Note_on_c, 0, 73, 105
1, 22813, Note_off_c, 0, 73, 105
1, 22813, Note_on_c, 0, 71, 90
1, 23113, Note_off_c, 0, 71, 90
1, 23534, Note_on_c, 0, 70, 106
1, 23626, Note_off_c, 0, 70, 106
1, 23646, Note_on_c, 0, 72, 111
1, 23730, Note_off_c, 0, 72, 111
1, 23754, Note_on_c, 0, 69, 104
1, 23798, Note_off_c, 0, 69, 104
1, 23818, Note_on_c, 0, 71, 111
1, 23870, Note_off_c, 0, 71, 111
1, 23870, Note_on_c, 0, 69, 107
1, 23954, Note_off_c, 0, 69, 107
1, 23974, Note_on_c, 0, 66, 98
1, 24070, Note_off_c, 0, 66, 98
1, 24134, Note_on_c, 0, 62, 98
1, 24446, Note_off_c, 0, 62, 98
1, 24514, Note_on_c, 0, 64, 108
1, 24570, Note_on_c, 0, 66, 93
1, 24570, Note_off_c, 0, 64, 108
1, 24614, Note_off_c, 0, 66, 93
1, 24626, Note_on_c, 0, 65, 104
1, 24698, Note_off_c, 0, 65, 104
1, 24714, Note_on_c, 0, 64, 113
1, 24798, Note_off_c, 0, 64, 113
1, 24798, Note_on_c, 0, 62, 112
1, 24882, Note_off_c, 0, 62, 112
1, 24882, Note_on_c, 0, 64, 106
1, 25166, Note_off_c, 0, 64, 106
1, 25170, Note_on_c, 0, 62, 110
1, 25250, Note_off_c, 0, 62, 110
1, 25270, Note_on_c, 0, 59, 101
1, 25358, Note_off_c, 0, 59, 101
1, 25374, Note_on_c, 0, 55, 102
1, 25482, Note_off_c, 0, 55, 102
1, 25490, Note_on_c, 0, 52, 95
1, 25851, Note_off_c, 0, 52, 95
1, 25851, Note_on_c, 0, 55, 106
1, 25935, Note_off_c, 0, 55, 106
1, 26011, Note_on_c, 0, 59, 104
1, 26135, Note_off_c, 0, 59, 104
1, 26155, Note_on_c, 0, 62, 116
1, 26247, Note_off_c, 0, 62, 116
1, 26251, Note_on_c, 0, 59, 97
1, 26363, Note_off_c, 0, 59, 97
1, 26387, Note_on_c, 0, 61, 97
1, 26712, Note_off_c, 0, 61, 97
1, 26712, Note_on_c, 0, 57, 85
1, 26816, Note_off_c, 0, 57, 85
1, 26816, Note_on_c, 0, 61, 107
1, 26912, Note_off_c, 0, 61, 107
1, 26912, Note_on_c, 0, 66, 105
1, 27004, Note_off_c, 0, 66, 105
1, 27004, Note_on_c, 0, 62, 100
1, 27369, Note_off_c, 0, 62, 100
1, 28006, Note_on_c, 0, 57, 107
1, 28114, Note_off_c, 0, 57, 107
1, 28122, Note_on_c, 0, 62, 117
1, 28222, Note_off_c, 0, 62, 117
1, 28230, Note_on_c, 0, 61, 106
1, 28318, Note_off_c, 0, 61, 106
1, 28334, Note_on_c, 0, 60, 107
1, 28430, Note_off_c, 0, 60, 107
1, 28430, Note_on_c, 0, 57, 113
1, 28526, Note_off_c, 0, 57, 113
1, 28530, Note_on_c, 0, 53, 96
1, 28610, Note_off_c, 0, 53, 96
1, 28622, Note_on_c, 0, 52, 103
1, 28682, Note_off_c, 0, 52, 103
1, 28694, Note_on_c, 0, 55, 111
1, 28818, Note_off_c, 0, 55, 111
1, 28830, Note_on_c, 0, 52, 101
1, 28886, Note_off_c, 0, 52, 101
1, 28902, Note_on_c, 0, 53, 105
1, 28942, Note_off_c, 0, 53, 105
1, 28954, Note_on_c, 0, 55, 108
1, 29006, Note_off_c, 0, 55, 108
1, 29010, Note_on_c, 0, 53, 109
1, 29074, Note_off_c, 0, 53, 109
1, 29074, Note_on_c, 0, 52, 106
1, 29174, Note_off_c, 0, 52, 106
1, 29174, Note_on_c, 0, 53, 104
1, 29254, Note_off_c, 0, 53, 104
1, 29270, Note_on_c, 0, 57, 118
1, 29370, Note_off_c, 0, 57, 118
1, 29374, Note_on_c, 0, 60, 118
1, 29462, Note_off_c, 0, 60, 118
1, 29478, Note_on_c, 0, 64, 119
1, 29546, Note_off_c, 0, 64, 119
1, 29550, Note_on_c, 0, 67, 110
1, 29586, Note_off_c, 0, 67, 110
1, 29586, Note_on_c, 0, 65, 115
1, 29670, Note_off_c, 0, 65, 115
1, 29670, Note_on_c, 0, 64, 124
1, 29774, Note_off_c, 0, 64, 124
1, 29778, Note_on_c, 0, 62, 107
1, 29838, Note_off_c, 0, 62, 107
1, 29850, Note_on_c, 0, 64, 113
1, 30150, Note_off_c, 0, 64, 113
1, 30158, Note_on_c, 0, 62, 119
1, 30246, Note_off_c, 0, 62, 119
1, 30246, Note_on_c, 0, 57, 113
1, 30366, Note_off_c, 0, 57, 113
1, 30374, Note_on_c, 0, 53, 104
1, 30474, Note_off_c, 0, 53, 104
1, 30474, Note_on_c, 0, 54, 103
1, 30554, Note_on_c, 0, 57, 111
1, 30554, Note_off_c, 0, 54, 103
1, 30638, Note_off_c, 0, 57, 111
1, 30650, Note_on_c, 0, 59, 105
1, 30746, Note_off_c, 0, 59, 105
1, 30758, Note_on_c, 0, 61, 110
1, 30858, Note_off_c, 0, 61, 110
1, 30858, Note_on_c, 0, 64, 122
1, 30946, Note_off_c, 0, 64, 122
1, 30946, Note_on_c, 0, 61, 102
1, 31006, Note_off_c, 0, 61, 102
1, 31014, Note_on_c, 0, 62, 121
1, 31087, Note_off_c, 0, 62, 121
1, 31138, Note_on_c, 0, 66, 89
1, 31198, Note_off_c, 0, 66, 89
1, 31218, Note_on_c, 0, 69, 110
1, 31302, Note_off_c, 0, 69, 110
1, 31322, Note_on_c, 0, 72, 118
1, 31394, Note_off_c, 0, 72, 118
1, 31394, Note_on_c, 0, 74, 112
1, 31735, Note_off_c, 0, 74, 112
1, 31775, Note_on_c, 0, 69, 102
1, 32164, Note_off_c, 0, 69, 102
1, 32260, Note_on_c, 0, 70, 104
1, 32316, Note_off_c, 0, 70, 104
1, 32348, Note_on_c, 0, 72, 111
1, 32540, Note_off_c, 0, 72, 111
1, 32540, Note_on_c, 0, 69, 98
1, 32885, Note_off_c, 0, 69, 98
1, 32909, Note_on_c, 0, 67, 102
1, 32997, Note_off_c, 0, 67, 102
1, 33005, Note_on_c, 0, 69, 104
1, 33113, Note_off_c, 0, 69, 104
1, 33113, Note_on_c, 0, 66, 100
1, 33209, Note_off_c, 0, 66, 100
1, 33209, Note_on_c, 0, 64, 108
1, 33301, Note_off_c, 0, 64, 108
1, 33309, Note_on_c, 0, 62, 117
1, 33401, Note_off_c, 0, 62, 117
1, 33401, Note_on_c, 0, 64, 104
1, 33473, Note_off_c, 0, 64, 104
1, 33473, Note_on_c, 0, 66, 102
1, 33589, Note_off_c, 0, 66, 102
1, 33605, Note_on_c, 0, 59, 96
1, 33970, Note_off_c, 0, 59, 96
1, 34331, Note_on_c, 0, 63, 119
1, 34423, Note_off_c, 0, 63, 119
1, 34431, Note_on_c, 0, 66, 108
1, 34615, Note_off_c, 0, 66, 108
1, 34619, Note_on_c, 0, 64, 122
1, 34731, Note_off_c, 0, 64, 122
1, 34731, Note_on_c, 0, 62, 125
1, 34823, Note_off_c, 0, 62, 125
1, 34827, Note_on_c, 0, 59, 114
1, 34939, Note_off_c, 0, 59, 114
1, 34939, Note_on_c, 0, 54, 105
1, 35039, Note_off_c, 0, 54, 105
1, 35063, Note_on_c, 0, 50, 86
1, 35139, Note_on_c, 0, 52, 108
1, 35139, Note_off_c, 0, 50, 86
1, 35227, Note_off_c, 0, 52, 108
1, 35227, Note_on_c, 0, 53, 113
1, 35407, Note_off_c, 0, 53, 113
1, 35419, Note_on_c, 0, 52, 107
1, 35499, Note_off_c, 0, 52, 107
1, 35523, Note_on_c, 0, 53, 101
1, 35880, Note_off_c, 0, 53, 101
1, 36253, Note_on_c, 0, 52, 104
1, 36281, Note_off_c, 0, 52, 104
1, 36281, Note_on_c, 0, 50, 114
1, 36353, Note_off_c, 0, 50, 114
1, 36361, Note_on_c, 0, 49, 98
1, 36461, Note_off_c, 0, 49, 98
1, 36469, Note_on_c, 0, 50, 102
1, 36549, Note_off_c, 0, 50, 102
1, 36569, Note_on_c, 0, 53, 106
1, 36653, Note_off_c, 0, 53, 106
1, 36661, Note_on_c, 0, 57, 118
1, 36737, Note_off_c, 0, 57, 118
1, 36737, Note_on_c, 0, 59, 111
1, 36805, Note_off_c, 0, 59, 111
1, 36813, Note_on_c, 0, 60, 115
1, 36889, Note_off_c, 0, 60, 115
1, 36889, Note_on_c, 0, 58, 108
1, 36957, Note_off_c, 0, 58, 108
1, 36957, Note_on_c, 0, 57, 113
1, 37037, Note_off_c, 0, 57, 113
1, 37037, Note_on_c, 0, 59, 100
1, 37386, Note_off_c, 0, 59, 100
1, 37426, Note_on_c, 0, 59, 112
1, 37478, Note_off_c, 0, 59, 112
1, 37478, Note_on_c, 0, 55, 112
1, 37602, Note_off_c, 0, 55, 112
1, 37610, Note_on_c, 0, 52, 99
1, 38027, Note_off_c, 0, 52, 99
1, 38343, Note_on_c, 0, 62, 117
1, 38419, Note_off_c, 0, 62, 117
1, 38443, Note_on_c, 0, 64, 118
1, 38900, Note_off_c, 0, 64, 118
1, 38900, Note_on_c, 0, 62, 118
1, 38964, Note_off_c, 0, 62, 118
1, 38964, Note_on_c, 0, 61, 111
1, 38992, Note_off_c, 0, 61, 111
1, 38992, Note_on_c, 0, 59, 110
1, 39072, Note_off_c, 0, 59, 110
1, 39072, Note_on_c, 0, 57, 114
1, 39164, Note_off_c, 0, 57, 114
1, 39164, Note_on_c, 0, 55, 106
1, 39264, Note_off_c, 0, 55, 106
1, 39288, Note_on_c, 0, 53, 103
1, 39356, Note_off_c, 0, 53, 103
1, 39356, Note_on_c, 0, 57, 108
1, 39476, Note_off_c, 0, 57, 108
1, 39488, Note_on_c, 0, 62, 111
1, 39680, Note_off_c, 0, 62, 111
1, 40863, Note_on_c, 0, 69, 116
1, 40991, Note_off_c, 0, 69, 116
1, 41051, Note_on_c, 0, 64, 105
1, 41187, Note_off_c, 0, 64, 105
1, 41267, Note_on_c, 0, 67, 112
1, 41339, Note_off_c, 0, 67, 112
1, 41351, Note_on_c, 0, 68, 111
1, 41395, Note_off_c, 0, 68, 111
1, 41407, Note_on_c, 0, 67, 108
1, 41435, Note_off_c, 0, 67, 108
1, 41435, Note_on_c, 0, 64, 118
1, 41551, Note_off_c, 0, 64, 118
1, 41627, Note_on_c, 0, 66, 9
1, 41943, Note_off_c, 0, 66, 9
1, 41963, Note_on_c, 0, 69, 112
1, 42055, Note_off_c, 0, 69, 112
1, 42147, Note_on_c, 0, 69, 101
1, 42435, Note_off_c, 0, 69, 101
1, 42435, Note_on_c, 0, 66, 94
1, 42583, Note_off_c, 0, 66, 94
1, 42972, Note_on_c, 0, 66, 105
1, 43076, Note_off_c, 0, 66, 105
1, 43076, Note_on_c, 0, 64, 124
1, 43180, Note_off_c, 0, 64, 124
1, 43180, Note_on_c, 0, 62, 121
1, 43284, Note_off_c, 0, 62, 121
1, 43284, Note_on_c, 0, 57, 104
1, 43372, Note_off_c, 0, 57, 104
1, 43372, Note_on_c, 0, 59, 103
1, 43452, Note_off_c, 0, 59, 103
1, 43540, Note_on_c, 0, 62, 117
1, 44121, Note_on_c, 0, 60, 98
1, 44121, Note_off_c, 0, 62, 117
1, 44305, Note_off_c, 0, 60, 98
1, 44305, Note_on_c, 0, 57, 120
1, 44429, Note_off_c, 0, 57, 120
1, 44429, Note_on_c, 0, 55, 101
1, 44958, Note_off_c, 0, 55, 101
1, 44966, Note_on_c, 0, 57, 108
1, 45102, Note_off_c, 0, 57, 108
1, 45102, Note_on_c, 0, 54, 100
1, 45258, Note_off_c, 0, 54, 100
1, 45258, Note_on_c, 0, 55, 119
1, 45370, Note_off_c, 0, 55, 119
1, 45378, Note_on_c, 0, 57, 104
1, 45458, Note_on_c, 0, 59, 103
1, 45458, Note_off_c, 0, 57, 104
1, 45562, Note_off_c, 0, 59, 103
1, 45566, Note_on_c, 0, 61, 102
1, 45658, Note_off_c, 0, 61, 102
1, 45662, Note_on_c, 0, 64, 114
1, 45762, Note_off_c, 0, 64, 114
1, 45762, Note_on_c, 0, 61, 95
1, 45818, Note_off_c, 0, 61, 95
1, 45838, Note_on_c, 0, 62, 116
1, 45954, Note_off_c, 0, 62, 116
1, 45954, Note_on_c, 0, 64, 106
1, 46026, Note_off_c, 0, 64, 106
1, 46038, Note_on_c, 0, 66, 92
1, 46395, Note_off_c, 0, 66, 92
1, 46447, Note_on_c, 0, 62, 77
1, 46555, Note_off_c, 0, 62, 77
1, 46563, Note_on_c, 0, 66, 100
1, 46727, Note_off_c, 0, 66, 100
1, 46755, Note_on_c, 0, 61, 103
1, 46871, Note_off_c, 0, 61, 103
1, 46895, Note_on_c, 0, 64, 103
1, 47264, Note_off_c, 0, 64, 103
1, 47360, Note_on_c, 0, 63, 110
1, 47428, Note_off_c, 0, 63, 110
1, 47456, Note_on_c, 0, 65, 103
1, 47596, Note_off_c, 0, 65, 103
1, 47604, Note_on_c, 0, 60, 99
1, 47700, Note_off_c, 0, 60, 99
1, 47700, Note_on_c, 0, 64, 96
1, 48081, Note_off_c, 0, 64, 96
1, 48385, Note_on_c, 0, 64, 114
1, 48457, Note_off_c, 0, 64, 114
1, 48457, Note_on_c, 0, 62, 118
1, 48537, Note_off_c, 0, 62, 118
1, 48537, Note_on_c, 0, 61, 108
1, 48613, Note_off_c, 0, 61, 108
1, 48613, Note_on_c, 0, 57, 112
1, 48713, Note_off_c, 0, 57, 112
1, 48713, Note_on_c, 0, 54, 102
1, 48809, Note_off_c, 0, 54, 102
1, 48813, Note_on_c, 0, 50, 95
1, 48901, Note_off_c, 0, 50, 95
1, 48901, Note_on_c, 0, 53, 105
1, 49053, Note_off_c, 0, 53, 105
1, 49069, Note_on_c, 0, 50, 100
1, 49177, Note_off_c, 0, 50, 100
1, 49177, Note_on_c, 0, 57, 112
1, 49253, Note_off_c, 0, 57, 112
1, 49269, Note_on_c, 0, 59, 103
1, 49634, Note_off_c, 0, 59, 103
1, 49638, Note_on_c, 0, 55, 107
1, 49746, Note_on_c, 0, 52, 103
1, 49746, Note_off_c, 0, 55, 107
1, 50119, Note_off_c, 0, 52, 103
1, 50119, Note_on_c, 0, 55, 103
1, 50195, Note_off_c, 0, 55, 103
1, 50195, Note_on_c, 0, 59, 101
1, 50299, Note_on_c, 0, 62, 119
1, 50299, Note_off_c, 0, 59, 101
1, 50387, Note_off_c, 0, 62, 119
1, 50395, Note_on_c, 0, 61, 104
1, 50499, Note_on_c, 0, 64, 97
1, 50499, Note_off_c, 0, 61, 104
1, 50575, Note_off_c, 0, 64, 97
1, 50583, Note_on_c, 0, 67, 102
1, 50667, Note_off_c, 0, 67, 102
1, 50711, Note_on_c, 0, 69, 110
1, 50751, Note_off_c, 0, 69, 110
1, 50771, Note_on_c, 0, 71, 103
1, 51144, Note_off_c, 0, 71, 103
1, 51160, Note_on_c, 0, 69, 98
1, 51260, Note_off_c, 0, 69, 98
1, 51328, Note_on_c, 0, 66, 94
1, 51444, Note_off_c, 0, 66, 94
1, 51512, Note_on_c, 0, 57, 97
1, 52037, Note_off_c, 0, 57, 97
1, 52654, Note_on_c, 0, 69, 121
1, 52790, Note_off_c, 0, 69, 121
1, 52830, Note_on_c, 0, 74, 125
1, 52958, Note_on_c, 0, 69, 109
1, 52958, Note_off_c, 0, 74, 125
1, 53026, Note_off_c, 0, 69, 109
1, 53026, Note_on_c, 0, 74, 125
1, 53142, Note_off_c, 0, 74, 125
1, 53154, Note_on_c, 0, 69, 118
1, 53242, Note_off_c, 0, 69, 118
1, 53330, Note_on_c, 0, 70, 125
1, 53434, Note_off_c, 0, 70, 125
1, 53450, Note_on_c, 0, 72, 119
1, 53698, Note_off_c, 0, 72, 119
1, 53790, Note_on_c, 0, 69, 115
1, 54207, Note_off_c, 0, 69, 115
1, 54335, Note_on_c, 0, 72, 122
1, 54415, Note_off_c, 0, 72, 122
1, 54427, Note_on_c, 0, 74, 121
1, 54483, Note_off_c, 0, 74, 121
1, 54491, Note_on_c, 0, 72, 121
1, 54539, Note_off_c, 0, 72, 121
1, 54555, Note_on_c, 0, 69, 119
1, 54655, Note_off_c, 0, 69, 119
1, 54703, Note_on_c, 0, 69, 105
1, 55019, Note_off_c, 0, 69, 105
1, 55039, Note_on_c, 0, 67, 115
1, 55135, Note_off_c, 0, 67, 115
1, 55147, Note_on_c, 0, 66, 110
1, 55251, Note_off_c, 0, 66, 110
1, 55255, Note_on_c, 0, 57, 93
1, 55339, Note_off_c, 0, 57, 93
1, 55339, Note_on_c, 0, 59, 101
1, 55427, Note_off_c, 0, 59, 101
1, 55427, Note_on_c, 0, 61, 118
1, 55539, Note_off_c, 0, 61, 118
1, 55539, Note_on_c, 0, 64, 122
1, 55615, Note_off_c, 0, 64, 122
1, 55615, Note_on_c, 0, 61, 100
1, 55695, Note_off_c, 0, 61, 100
1, 55695, Note_on_c, 0, 62, 127
1, 55787, Note_off_c, 0, 62, 127
1, 55791, Note_on_c, 0, 64, 120
1, 55903, Note_off_c, 0, 64, 120
1, 55931, Note_on_c, 0, 65, 109
1, 55967, Note_off_c, 0, 65, 109
1, 55967, Note_on_c, 0, 66, 95
1, 56003, Note_off_c, 0, 66, 95
1, 56003, Note_on_c, 0, 65, 114
1, 56087, Note_on_c, 0, 62, 125
1, 56087, Note_off_c, 0, 65, 114
1, 56203, Note_off_c, 0, 62, 125
1, 56235, Note_on_c, 0, 57, 108
1, 56560, Note_off_c, 0, 57, 108
1, 56584, Note_on_c, 0, 62, 123
1, 56680, Note_off_c, 0, 62, 123
1, 56692, Note_on_c, 0, 64, 120
1, 56840, Note_on_c, 0, 61, 114
1, 56840, Note_off_c, 0, 64, 120
1, 56948, Note_off_c, 0, 61, 114
1, 56952, Note_on_c, 0, 57, 118
1, 57056, Note_off_c, 0, 57, 118
1, 57056, Note_on_c, 0, 55, 114
1, 57156, Note_off_c, 0, 55, 114
1, 57156, Note_on_c, 0, 53, 104
1, 57228, Note_off_c, 0, 53, 104
1, 57256, Note_on_c, 0, 54, 101
1, 57609, Note_off_c, 0, 54, 101
1, 57701, Note_on_c, 0, 55, 110
1, 57785, Note_off_c, 0, 55, 110
1, 57813, Note_on_c, 0, 57, 110
1, 57893, Note_off_c, 0, 57, 110
1, 57893, Note_on_c, 0, 59, 106
1, 57993, Note_off_c, 0, 59, 106
1, 57993, Note_on_c, 0, 61, 112
1, 58081, Note_off_c, 0, 61, 112
1, 58081, Note_on_c, 0, 59, 100
1, 58502, Note_off_c, 0, 59, 100
1, 58903, Note_on_c, 0, 59, 110
1, 59007, Note_off_c, 0, 59, 110
1, 59011, Note_on_c, 0, 61, 111
1, 59099, Note_on_c, 0, 62, 123
1, 59099, Note_off_c, 0, 61, 111
1, 59183, Note_off_c, 0, 62, 123
1, 59203, Note_on_c, 0, 64, 125
1, 59291, Note_off_c, 0, 64, 125
1, 59307, Note_on_c, 0, 66, 112
1, 59411, Note_off_c, 0, 66, 112
1, 59659, Note_on_c, 0, 58, 104
1, 59743, Note_off_c, 0, 58, 104
1, 59743, Note_on_c, 0, 60, 102
1, 59823, Note_off_c, 0, 60, 102
1, 59839, Note_on_c, 0, 61, 111
1, 59947, Note_off_c, 0, 61, 111
1, 59955, Note_on_c, 0, 63, 122
1, 60039, Note_off_c, 0, 63, 122
1, 60055, Note_on_c, 0, 65, 114
1, 60167, Note_off_c, 0, 65, 114
1, 60572, Note_on_c, 0, 57, 105
1, 60664, Note_off_c, 0, 57, 105
1, 60664, Note_on_c, 0, 59, 105
1, 60740, Note_off_c, 0, 59, 105
1, 60760, Note_on_c, 0, 61, 111
1, 60848, Note_off_c, 0, 61, 111
1, 60856, Note_on_c, 0, 62, 123
1, 60936, Note_off_c, 0, 62, 123
1, 60952, Note_on_c, 0, 64, 124
1, 61044, Note_off_c, 0, 64, 124
1, 61128, Note_on_c, 0, 64, 120
1, 61264, Note_off_c, 0, 64, 120
1, 61264, Note_on_c, 0, 61, 102
1, 61316, Note_off_c, 0, 61, 102
1, 61336, Note_on_c, 0, 63, 120
1, 61432, Note_off_c, 0, 63, 120
1, 61452, Note_on_c, 0, 69, 120
1, 61520, Note_off_c, 0, 69, 120
1, 61532, Note_on_c, 0, 71, 115
1, 62001, Note_off_c, 0, 71, 115
1, 62001, Note_on_c, 0, 69, 109
1, 62073, Note_off_c, 0, 69, 109
1, 62073, Note_on_c, 0, 67, 109
1, 62165, Note_off_c, 0, 67, 109
1, 62165, Note_on_c, 0, 59, 90
1, 62253, Note_off_c, 0, 59, 90
1, 62261, Note_on_c, 0, 62, 119
1, 62361, Note_off_c, 0, 62, 119
1, 62361, Note_on_c, 0, 64, 115
1, 62433, Note_off_c, 0, 64, 115
1, 62441, Note_on_c, 0, 66, 104
1, 62629, Note_off_c, 0, 66, 104
1, 62653, Note_on_c, 0, 62, 119
1, 62749, Note_off_c, 0, 62, 119
1, 62837, Note_on_c, 0, 64, 116
1, 62901, Note_off_c, 0, 64, 116
1, 62905, Note_on_c, 0, 65, 100
1, 63133, Note_off_c, 0, 65, 100
1, 63133, Note_on_c, 0, 62, 112
1, 63237, Note_off_c, 0, 62, 112
1, 63257, Note_on_c, 0, 57, 110
1, 63357, Note_off_c, 0, 57, 110
1, 63371, Note_on_c, 0, 54, 103
1, 63492, Note_off_c, 0, 54, 103
1, 63516, Note_on_c, 0, 57, 106
1, 63596, Note_off_c, 0, 57, 106
1, 63596, Note_on_c, 0, 59, 101
1, 63740, Note_off_c, 0, 59, 101
1, 63744, Note_on_c, 0, 62, 92
1, 64345, Note_off_c, 0, 62, 92
1, 64417, Note_on_c, 0, 57, 117
1, 64509, Note_off_c, 0, 57, 117
1, 64509, Note_on_c, 0, 62, 122
1, 64605, Note_off_c, 0, 62, 122
1, 64605, Note_on_c, 0, 61, 110
1, 64697, Note_off_c, 0, 61, 110
1, 64705, Note_on_c, 0, 60, 102
1, 65009, Note_off_c, 0, 60, 102
1, 65009, End_track
0, 0, End_of_file
