0, 0, Header, 1, 1, 192
1, 0, Start_track
1, 0, Title_t, "Melody"
1, 0, Tempo, 487804
1, 0, Key_signature, -4, "major"
1, 0, Time_signature, 4, 2, 24, 8
1, 2239, Note_on_c, 0, 56, 117
1, 2327, Note_off_c, 0, 56, 117
1, 2333, Note_on_c, 0, 55, 115
1, 2430, Note_off_c, 0, 55, 115
1, 2450, Note_on_c, 0, 55, 112
1, 2535, Note_off_c, 0, 55, 112
1, 2604, Note_on_c, 0, 56, 120
1, 2682, Note_off_c, 0, 56, 120
1, 2697, Note_on_c, 0, 55, 113
1, 2807, Note_off_c, 0, 55, 113
1, 2818, Note_on_c, 0, 55, 104
1, 3083, Note_off_c, 0, 55, 104
1, 3151, Note_on_c, 0, 51, 112
1, 3274, Note_off_c, 0, 51, 112
1, 3284, Note_on_c, 0, 55, 112
1, 3556, Note_off_c, 0, 55, 112
1, 3976, Note_on_c, 0, 53, 118
1, 4246, Note_off_c, 0, 53, 118
1, 4281, Note_on_c, 0, 55, 116
1, 4395, Note_off_c, 0, 55, 116
1, 4443, Note_on_c, 0, 56, 114
1, 4633, Note_off_c, 0, 56, 114
1, 4647, Note_on_c, 0, 55, 120
1, 4707, Note_off_c, 0, 55, 120
1, 4709, Note_on_c, 0, 56, 117
1, 4733, Note_off_c, 0, 56, 117
1, 4739, Note_on_c, 0, 55, 125
1, 4793, Note_off_c, 0, 55, 125
1, 4798, Note_on_c, 0, 53, 120
1, 4838, Note_off_c, 0, 53, 120
1, 4848, Note_on_c, 0, 52, 115
1, 4943, Note_off_c, 0, 52, 115
1, 4951, Note_on_c, 0, 53, 118
1, 5027, Note_off_c, 0, 53, 118
1, 5048, Note_on_c, 0, 55, 112
1, 5163, Note_off_c, 0, 55, 112
1, 5179, Note_on_c, 0, 56, 115
1, 5256, Note_off_c, 0, 56, 115
1, 5279, Note_on_c, 0, 61, 111
1, 5508, Note_off_c, 0, 61, 111
1, 5518, Note_on_c, 0, 56, 114
1, 5581, Note_off_c, 0, 56, 114
1, 5610, Note_on_c, 0, 61, 112
1, 5744, Note_off_c, 0, 61, 112
1, 5762, Note_on_c, 0, 61, 114
1, 5895, Note_off_c, 0, 61, 114
1, 5921, Note_on_c, 0, 61, 98
1, 6252, Note_off_c, 0, 61, 98
1, 6490, Note_on_c, 0, 56, 115
1, 6541, Note_off_c, 0, 56, 115
1, 6569, Note_on_c, 0, 61, 118
1, 6660, Note_off_c, 0, 61, 118
1, 6671, Note_on_c, 0, 63, 117
1, 6760, Note_off_c, 0, 63, 117
1, 6769, Note_on_c, 0, 61, 112
1, 6848, Note_off_c, 0, 61, 112
1, 6860, Note_on_c, 0, 63, 116
1, 6952, Note_off_c, 0, 63, 116
1, 6961, Note_on_c, 0, 64, 113
1, 7152, Note_off_c, 0, 64, 113
1, 7164, Note_on_c, 0, 63, 115
1, 7249, Note_off_c, 0, 63, 115
1, 7259, Note_on_c, 0, 61, 112
1, 7338, Note_off_c, 0, 61, 112
1, 7369, Note_on_c, 0, 56, 111
1, 7431, Note_off_c, 0, 56, 111
1, 7442, Note_on_c, 0, 52, 110
1, 7501, Note_off_c, 0, 52, 110
1, 7516, Note_on_c, 0, 56, 105
1, 7702, Note_off_c, 0, 56, 105
1, 7722, Note_on_c, 0, 52, 103
1, 7811, Note_off_c, 0, 52, 103
1, 7817, Note_on_c, 0, 61, 116
1, 7913, Note_off_c, 0, 61, 116
1, 7923, Note_on_c, 0, 60, 107
1, 8113, Note_off_c, 0, 60, 107
1, 8137, Note_on_c, 0, 58, 115
1, 8225, Note_off_c, 0, 58, 115
1, 8275, Note_on_c, 0, 63, 118
1, 8583, Note_off_c, 0, 63, 118
1, 8593, Note_on_c, 0, 60, 97
1, 8644, Note_off_c, 0, 60, 97
1, 8657, Note_on_c, 0, 63, 114
1, 8916, Note_off_c, 0, 63, 114
1, 8959, Note_on_c, 0, 63, 117
1, 9077, Note_off_c, 0, 63, 117
1, 9086, Note_on_c, 0, 63, 119
1, 9191, Note_off_c, 0, 63, 119
1, 9205, Note_on_c, 0, 65, 102
1, 9406, Note_off_c, 0, 65, 102
1, 9736, Note_on_c, 0, 63, 120
1, 9823, Note_off_c, 0, 63, 120
1, 9885, Note_on_c, 0, 66, 101
1, 10392, Note_off_c, 0, 66, 101
1, 10402, Note_on_c, 0, 65, 111
1, 10502, Note_off_c, 0, 65, 111
1, 10515, Note_on_c, 0, 63, 110
1, 10893, Note_off_c, 0, 63, 110
1, 11469, Note_on_c, 0, 53, 119
1, 11552, Note_off_c, 0, 53, 119
1, 11570, Note_on_c, 0, 58, 125
1, 11655, Note_off_c, 0, 58, 125
1, 11665, Note_on_c, 0, 60, 119
1, 11751, Note_off_c, 0, 60, 119
1, 11757, Note_on_c, 0, 61, 120
1, 11864, Note_off_c, 0, 61, 120
1, 11876, Note_on_c, 0, 63, 118
1, 12009, Note_off_c, 0, 63, 118
1, 12026, Note_on_c, 0, 61, 116
1, 12115, Note_off_c, 0, 61, 116
1, 12157, Note_on_c, 0, 64, 115
1, 12302, Note_off_c, 0, 64, 115
1, 12312, Note_on_c, 0, 63, 121
1, 12424, Note_off_c, 0, 63, 121
1, 12440, Note_on_c, 0, 61, 103
1, 12754, Note_off_c, 0, 61, 103
1, 12779, Note_on_c, 0, 63, 118
1, 12842, Note_off_c, 0, 63, 118
1, 12856, Note_on_c, 0, 61, 110
1, 12929, Note_off_c, 0, 61, 110
1, 12945, Note_on_c, 0, 59, 100
1, 13255, Note_off_c, 0, 59, 100
1, 13311, Note_on_c, 0, 65, 113
1, 13386, Note_off_c, 0, 65, 113
1, 13397, Note_on_c, 0, 63, 114
1, 13463, Note_off_c, 0, 63, 114
1, 13490, Note_on_c, 0, 59, 112
1, 13575, Note_off_c, 0, 59, 112
1, 13579, Note_on_c, 0, 53, 104
1, 13624, Note_off_c, 0, 53, 104
1, 13651, Note_on_c, 0, 58, 106
1, 13879, Note_off_c, 0, 58, 106
1, 14187, Note_on_c, 0, 56, 113
1, 14252, Note_off_c, 0, 56, 113
1, 14265, Note_on_c, 0, 58, 122
1, 14305, Note_off_c, 0, 58, 122
1, 14322, Note_on_c, 0, 56, 116
1, 14393, Note_off_c, 0, 56, 116
1, 14404, Note_on_c, 0, 55, 114
1, 14701, Note_off_c, 0, 55, 114
1, 14711, Note_on_c, 0, 55, 120
1, 14786, Note_off_c, 0, 55, 120
1, 14800, Note_on_c, 0, 55, 116
1, 15021, Note_off_c, 0, 55, 116
1, 15042, Note_on_c, 0, 55, 116
1, 15175, Note_off_c, 0, 55, 116
1, 15201, Note_on_c, 0, 55, 109
1, 15725, Note_off_c, 0, 55, 109
1, 15764, Note_on_c, 0, 63, 114
1, 15782, Note_off_c, 0, 63, 114
1, 15784, Note_on_c, 0, 64, 108
1, 15802, Note_off_c, 0, 64, 108
1, 15808, Note_on_c, 0, 63, 117
1, 15862, Note_off_c, 0, 63, 117
1, 15864, Note_on_c, 0, 60, 113
1, 15906, Note_off_c, 0, 60, 113
1, 15921, Note_on_c, 0, 55, 113
1, 15998, Note_off_c, 0, 55, 113
1, 16006, Note_on_c, 0, 53, 108
1, 16333, Note_off_c, 0, 53, 108
1, 16643, Note_on_c, 0, 53, 121
1, 16736, Note_off_c, 0, 53, 121
1, 16749, Note_on_c, 0, 55, 123
1, 16840, Note_off_c, 0, 55, 123
1, 16852, Note_on_c, 0, 56, 117
1, 16940, Note_off_c, 0, 56, 117
1, 16952, Note_on_c, 0, 55, 121
1, 17022, Note_off_c, 0, 55, 121
1, 17035, Note_on_c, 0, 53, 110
1, 17082, Note_off_c, 0, 53, 110
1, 17110, Note_on_c, 0, 56, 111
1, 17310, Note_off_c, 0, 56, 111
1, 17316, Note_on_c, 0, 55, 113
1, 17393, Note_off_c, 0, 55, 113
1, 17409, Note_on_c, 0, 53, 110
1, 17445, Note_off_c, 0, 53, 110
1, 17487, Note_on_c, 0, 61, 118
1, 17637, Note_off_c, 0, 61, 118
1, 17664, Note_on_c, 0, 61, 117
1, 17820, Note_off_c, 0, 61, 117
1, 17858, Note_on_c, 0, 61, 111
1, 18066, Note_off_c, 0, 61, 111
1, 18090, Note_on_c, 0, 56, 115
1, 18138, Note_off_c, 0, 56, 115
1, 18154, Note_on_c, 0, 53, 109
1, 18219, Note_off_c, 0, 53, 109
1, 18232, Note_on_c, 0, 61, 121
1, 18357, Note_off_c, 0, 61, 121
1, 18373, Note_on_c, 0, 61, 108
1, 18600, Note_off_c, 0, 61, 108
1, 18817, Note_on_c, 0, 56, 116
1, 18869, Note_off_c, 0, 56, 116
1, 18873, Note_on_c, 0, 55, 120
1, 18899, Note_off_c, 0, 55, 120
1, 18906, Note_on_c, 0, 54, 119
1, 18938, Note_off_c, 0, 54, 119
1, 18948, Note_on_c, 0, 53, 119
1, 19007, Note_off_c, 0, 53, 119
1, 19013, Note_on_c, 0, 52, 111
1, 19216, Note_off_c, 0, 52, 111
1, 19229, Note_on_c, 0, 56, 117
1, 19308, Note_off_c, 0, 56, 117
1, 19322, Note_on_c, 0, 58, 118
1, 19415, Note_off_c, 0, 58, 118
1, 19425, Note_on_c, 0, 60, 115
1, 19500, Note_off_c, 0, 60, 115
1, 19511, Note_on_c, 0, 61, 117
1, 19602, Note_off_c, 0, 61, 117
1, 19622, Note_on_c, 0, 60, 112
1, 19706, Note_off_c, 0, 60, 112
1, 19721, Note_on_c, 0, 58, 105
1, 19758, Note_off_c, 0, 58, 105
1, 19776, Note_on_c, 0, 60, 104
1, 20008, Note_off_c, 0, 60, 104
1, 20269, Note_on_c, 0, 61, 118
1, 20342, Note_off_c, 0, 61, 118
1, 20373, Note_on_c, 0, 65, 119
1, 20442, Note_off_c, 0, 65, 119
1, 20454, Note_on_c, 0, 64, 118
1, 20524, Note_off_c, 0, 64, 118
1, 20538, Note_on_c, 0, 63, 113
1, 20811, Note_off_c, 0, 63, 113
1, 20826, Note_on_c, 0, 63, 114
1, 20959, Note_off_c, 0, 63, 114
1, 20978, Note_on_c, 0, 63, 118
1, 21091, Note_off_c, 0, 63, 118
1, 21109, Note_on_c, 0, 63, 112
1, 21220, Note_off_c, 0, 63, 112
1, 21235, Note_on_c, 0, 63, 107
1, 21449, Note_off_c, 0, 63, 107
1, 21786, Note_on_c, 0, 65, 116
1, 21956, Note_off_c, 0, 65, 116
1, 21964, Note_on_c, 0, 63, 123
1, 22030, Note_off_c, 0, 63, 123
1, 22083, Note_on_c, 0, 66, 112
1, 22606, Note_off_c, 0, 66, 112
1, 22621, Note_on_c, 0, 63, 117
1, 22712, Note_off_c, 0, 63, 117
1, 22806, Note_on_c, 0, 67, 110
1, 23076, Note_off_c, 0, 67, 110
1, 23329, Note_on_c, 0, 59, 115
1, 23373, Note_off_c, 0, 59, 115
1, 23397, Note_on_c, 0, 60, 111
1, 23447, Note_off_c, 0, 60, 111
1, 23459, Note_on_c, 0, 63, 10
1, 23500, Note_off_c, 0, 63, 10
1, 23507, Note_on_c, 0, 65, 123
1, 23567, Note_off_c, 0, 65, 123
1, 23606, Note_on_c, 0, 68, 109
1, 23893, Note_off_c, 0, 68, 109
1, 23905, Note_on_c, 0, 68, 116
1, 24003, Note_off_c, 0, 68, 116
1, 24012, Note_on_c, 0, 68, 117
1, 24115, Note_off_c, 0, 68, 117
1, 24175, Note_on_c, 0, 68, 113
1, 24244, Note_off_c, 0, 68, 113
1, 24275, Note_on_c, 0, 68, 116
1, 24361, Note_off_c, 0, 68, 116
1, 24376, Note_on_c, 0, 68, 94
1, 24630, Note_off_c, 0, 68, 94
1, 24656, Note_on_c, 0, 68, 116
1, 24742, Note_off_c, 0, 68, 116
1, 24759, Note_on_c, 0, 68, 114
1, 24878, Note_off_c, 0, 68, 114
1, 24922, Note_on_c, 0, 68, 108
1, 25017, Note_off_c, 0, 68, 108
1, 25049, Note_on_c, 0, 68, 100
1, 25228, Note_off_c, 0, 68, 100
1, 25432, Note_on_c, 0, 68, 118
1, 25542, Note_off_c, 0, 68, 118
1, 25554, Note_on_c, 0, 68, 120
1, 25691, Note_off_c, 0, 68, 120
1, 25705, Note_on_c, 0, 68, 116
1, 25827, Note_off_c, 0, 68, 116
1, 25841, Note_on_c, 0, 68, 104
1, 26065, Note_off_c, 0, 68, 104
1, 26101, Note_on_c, 0, 62, 116
1, 26234, Note_off_c, 0, 62, 116
1, 26276, Note_on_c, 0, 65, 117
1, 26384, Note_off_c, 0, 65, 117
1, 26407, Note_on_c, 0, 68, 125
1, 26497, Note_off_c, 0, 68, 125
1, 26509, Note_on_c, 0, 65, 116
1, 26589, Note_off_c, 0, 65, 116
1, 26603, Note_on_c, 0, 62, 108
1, 26666, Note_off_c, 0, 62, 108
1, 26685, Note_on_c, 0, 68, 99
1, 26919, Note_off_c, 0, 68, 99
1, 27064, Note_on_c, 0, 65, 126
1, 27163, Note_off_c, 0, 65, 126
1, 27175, Note_on_c, 0, 61, 123
1, 27257, Note_off_c, 0, 61, 123
1, 27267, Note_on_c, 0, 58, 125
1, 27353, Note_off_c, 0, 58, 125
1, 27369, Note_on_c, 0, 53, 112
1, 27436, Note_off_c, 0, 53, 112
1, 27470, Note_on_c, 0, 60, 114
1, 27775, Note_off_c, 0, 60, 114
1, 27779, Note_on_c, 0, 63, 120
1, 27917, Note_off_c, 0, 63, 120
1, 27930, Note_on_c, 0, 63, 124
1, 28050, Note_off_c, 0, 63, 124
1, 28062, Note_on_c, 0, 63, 112
1, 28321, Note_off_c, 0, 63, 112
1, 28487, Note_on_c, 0, 63, 120
1, 28576, Note_off_c, 0, 63, 120
1, 28584, Note_on_c, 0, 65, 122
1, 28649, Note_off_c, 0, 65, 122
1, 28657, Note_on_c, 0, 67, 123
1, 28710, Note_off_c, 0, 67, 123
1, 28718, Note_on_c, 0, 68, 127
1, 28771, Note_off_c, 0, 68, 127
1, 28780, Note_on_c, 0, 65, 124
1, 28837, Note_off_c, 0, 65, 124
1, 28845, Note_on_c, 0, 67, 118
1, 28889, Note_off_c, 0, 67, 118
1, 28899, Note_on_c, 0, 63, 126
1, 29017, Note_off_c, 0, 63, 126
1, 29024, Note_on_c, 0, 64, 102
1, 29049, Note_off_c, 0, 64, 102
1, 29063, Note_on_c, 0, 67, 99
1, 29079, Note_off_c, 0, 67, 99
1, 29088, Note_on_c, 0, 65, 114
1, 29122, Note_off_c, 0, 65, 114
1, 29129, Note_on_c, 0, 63, 125
1, 29202, Note_off_c, 0, 63, 125
1, 29204, Note_on_c, 0, 60, 116
1, 29254, Note_off_c, 0, 60, 116
1, 29274, Note_on_c, 0, 55, 116
1, 29513, Note_off_c, 0, 55, 116
1, 29527, Note_on_c, 0, 55, 120
1, 29629, Note_off_c, 0, 55, 120
1, 29643, Note_on_c, 0, 55, 111
1, 29974, Note_off_c, 0, 55, 111
1, 29988, Note_on_c, 0, 51, 110
1, 30079, Note_off_c, 0, 51, 110
1, 30092, Note_on_c, 0, 55, 106
1, 30943, Note_off_c, 0, 55, 106
1, 30943, End_track
0, 0, End_of_file
