0, 0, Header, 1, 1, 192
1, 0, Start_track
1, 0, Title_t, "Melody"
1, 0, Tempo, 312500
1, 0, Key_signature, -4, "major"
1, 0, Time_signature, 4, 2, 24, 8
1, 2772, Note_on_c, 0, 60, 109
1, 2935, Note_off_c, 0, 60, 109
1, 2942, Note_on_c, 0, 64, 114
1, 3059, Note_off_c, 0, 64, 114
1, 3084, Note_on_c, 0, 68, 114
1, 3136, Note_off_c, 0, 68, 114
1, 3163, Note_on_c, 0, 70, 118
1, 3252, Note_off_c, 0, 70, 118
1, 3260, Note_on_c, 0, 72, 125
1, 3334, Note_off_c, 0, 72, 125
1, 3351, Note_on_c, 0, 68, 120
1, 3482, Note_off_c, 0, 68, 120
1, 3570, Note_on_c, 0, 68, 120
1, 3682, Note_off_c, 0, 68, 120
1, 3682, Note_on_c, 0, 65, 92
1, 3735, Note_off_c, 0, 65, 92
1, 3756, Note_on_c, 0, 68, 105
1, 4053, Note_off_c, 0, 68, 105
1, 4071, Note_on_c, 0, 68, 119
1, 4167, Note_off_c, 0, 68, 119
1, 4283, Note_on_c, 0, 68, 116
1, 4418, Note_off_c, 0, 68, 116
1, 4510, Note_on_c, 0, 68, 120
1, 4647, Note_off_c, 0, 68, 120
1, 4677, Note_on_c, 0, 68, 102
1, 4994, Note_off_c, 0, 68, 102
1, 5072, Note_on_c, 0, 67, 122
1, 5130, Note_off_c, 0, 67, 122
1, 5136, Note_on_c, 0, 68, 111
1, 5296, Note_off_c, 0, 68, 111
1, 5321, Note_on_c, 0, 65, 114
1, 5433, Note_off_c, 0, 65, 114
1, 5461, Note_on_c, 0, 61, 116
1, 5510, Note_off_c, 0, 61, 116
1, 5525, Note_on_c, 0, 58, 97
1, 5637, Note_off_c, 0, 58, 97
1, 5701, Note_on_c, 0, 63, 106
1, 5973, Note_off_c, 0, 63, 106
1, 6012, Note_on_c, 0, 60, 116
1, 6108, Note_off_c, 0, 60, 116
1, 6127, Note_on_c, 0, 55, 109
1, 6210, Note_off_c, 0, 55, 109
1, 6236, Note_on_c, 0, 53, 105
1, 6590, Note_off_c, 0, 53, 105
1, 6994, Note_on_c, 0, 53, 118
1, 7033, Note_off_c, 0, 53, 118
1, 7052, Note_on_c, 0, 55, 114
1, 7078, Note_off_c, 0, 55, 114
1, 7099, Note_on_c, 0, 56, 120
1, 7189, Note_off_c, 0, 56, 120
1, 7194, Note_on_c, 0, 55, 114
1, 7274, Note_off_c, 0, 55, 114
1, 7295, Note_on_c, 0, 53, 108
1, 7380, Note_off_c, 0, 53, 108
1, 7403, Note_on_c, 0, 55, 111
1, 7627, Note_off_c, 0, 55, 111
1, 7643, Note_on_c, 0, 53, 118
1, 7733, Note_off_c, 0, 53, 118
1, 7756, Note_on_c, 0, 51, 104
1, 7805, Note_off_c, 0, 51, 104
1, 7821, Note_on_c, 0, 55, 113
1, 7924, Note_off_c, 0, 55, 113
1, 7946, Note_on_c, 0, 53, 118
1, 8013, Note_off_c, 0, 53, 118
1, 8040, Note_on_c, 0, 52, 108
1, 8115, Note_off_c, 0, 52, 108
1, 8135, Note_on_c, 0, 53, 110
1, 8232, Note_off_c, 0, 53, 110
1, 8237, Note_on_c, 0, 55, 117
1, 8302, Note_off_c, 0, 55, 117
1, 8335, Note_on_c, 0, 59, 115
1, 8392, Note_off_c, 0, 59, 115
1, 8402, Note_on_c, 0, 62, 124
1, 8525, Note_off_c, 0, 62, 124
1, 8537, Note_on_c, 0, 59, 115
1, 8601, Note_off_c, 0, 59, 115
1, 8620, Note_on_c, 0, 60, 116
1, 8687, Note_off_c, 0, 60, 116
1, 8715, Note_on_c, 0, 64, 108
1, 8759, Note_off_c, 0, 64, 108
1, 8780, Note_on_c, 0, 67, 120
1, 8888, Note_off_c, 0, 67, 120
1, 8896, Note_on_c, 0, 71, 116
1, 8965, Note_off_c, 0, 71, 116
1, 8973, Note_on_c, 0, 72, 110
1, 9229, Note_off_c, 0, 72, 110
1, 9253, Note_on_c, 0, 69, 118
1, 9338, Note_off_c, 0, 69, 118
1, 9348, Note_on_c, 0, 72, 119
1, 9433, Note_off_c, 0, 72, 119
1, 9452, Note_on_c, 0, 67, 99
1, 9806, Note_off_c, 0, 67, 99
1, 10419, Note_on_c, 0, 67, 119
1, 10499, Note_off_c, 0, 67, 119
1, 10604, Note_on_c, 0, 74, 127
1, 10652, Note_off_c, 0, 74, 127
1, 10664, Note_on_c, 0, 75, 118
1, 10858, Note_off_c, 0, 75, 118
1, 10874, Note_on_c, 0, 74, 121
1, 10950, Note_off_c, 0, 74, 121
1, 11041, Note_on_c, 0, 74, 100
1, 11386, Note_off_c, 0, 74, 100
1, 12587, Note_on_c, 0, 65, 114
1, 12701, Note_off_c, 0, 65, 114
1, 12795, Note_on_c, 0, 65, 119
1, 12914, Note_off_c, 0, 65, 119
1, 12987, Note_on_c, 0, 65, 119
1, 13063, Note_off_c, 0, 65, 119
1, 13086, Note_on_c, 0, 67, 119
1, 13144, Note_off_c, 0, 67, 119
1, 13160, Note_on_c, 0, 68, 120
1, 13250, Note_off_c, 0, 68, 120
1, 13279, Note_on_c, 0, 67, 112
1, 13380, Note_off_c, 0, 67, 112
1, 13491, Note_on_c, 0, 67, 105
1, 13853, Note_off_c, 0, 67, 105
1, 13877, Note_on_c, 0, 65, 117
1, 13937, Note_off_c, 0, 65, 117
1, 13951, Note_on_c, 0, 64, 115
1, 14036, Note_off_c, 0, 64, 115
1, 14073, Note_on_c, 0, 62, 119
1, 14151, Note_off_c, 0, 62, 119
1, 14238, Note_on_c, 0, 63, 123
1, 14275, Note_off_c, 0, 63, 123
1, 14285, Note_on_c, 0, 64, 97
1, 14459, Note_off_c, 0, 64, 97
1, 14504, Note_on_c, 0, 62, 121
1, 14593, Note_off_c, 0, 62, 121
1, 14619, Note_on_c, 0, 59, 116
1, 14713, Note_off_c, 0, 59, 116
1, 14736, Note_on_c, 0, 55, 98
1, 14780, Note_off_c, 0, 55, 98
1, 14810, Note_on_c, 0, 52, 98
1, 14859, Note_off_c, 0, 52, 98
1, 14876, Note_on_c, 0, 55, 106
1, 15138, Note_off_c, 0, 55, 106
1, 15179, Note_on_c, 0, 52, 106
1, 15244, Note_off_c, 0, 52, 106
1, 15283, Note_on_c, 0, 55, 114
1, 15341, Note_off_c, 0, 55, 114
1, 15362, Note_on_c, 0, 59, 114
1, 15420, Note_off_c, 0, 59, 114
1, 15458, Note_on_c, 0, 62, 123
1, 15559, Note_off_c, 0, 62, 123
1, 15580, Note_on_c, 0, 60, 107
1, 15651, Note_off_c, 0, 60, 107
1, 15667, Note_on_c, 0, 64, 109
1, 16078, Note_off_c, 0, 64, 109
1, 16109, Note_on_c, 0, 60, 119
1, 16178, Note_off_c, 0, 60, 119
1, 16241, Note_on_c, 0, 57, 115
1, 16308, Note_off_c, 0, 57, 115
1, 16317, Note_on_c, 0, 52, 110
1, 16399, Note_off_c, 0, 52, 110
1, 16400, Note_on_c, 0, 57, 110
1, 16531, Note_off_c, 0, 57, 110
1, 16564, Note_on_c, 0, 57, 114
1, 16678, Note_off_c, 0, 57, 114
1, 16710, Note_on_c, 0, 53, 104
1, 16768, Note_off_c, 0, 53, 104
1, 16792, Note_on_c, 0, 57, 112
1, 16854, Note_off_c, 0, 57, 112
1, 16859, Note_on_c, 0, 58, 114
1, 17114, Note_off_c, 0, 58, 114
1, 17173, Note_on_c, 0, 57, 108
1, 17438, Note_off_c, 0, 57, 108
1, 17459, Note_on_c, 0, 55, 114
1, 17526, Note_off_c, 0, 55, 114
1, 17538, Note_on_c, 0, 54, 109
1, 17657, Note_off_c, 0, 54, 109
1, 17711, Note_on_c, 0, 59, 115
1, 17780, Note_off_c, 0, 59, 115
1, 17800, Note_on_c, 0, 62, 120
1, 17894, Note_off_c, 0, 62, 120
1, 17922, Note_on_c, 0, 65, 108
1, 17957, Note_off_c, 0, 65, 108
1, 17966, Note_on_c, 0, 67, 112
1, 18056, Note_off_c, 0, 67, 112
1, 18075, Note_on_c, 0, 62, 102
1, 18472, Note_off_c, 0, 62, 102
1, 18901, Note_on_c, 0, 64, 118
1, 18949, Note_off_c, 0, 64, 118
1, 18957, Note_on_c, 0, 65, 114
1, 19010, Note_off_c, 0, 65, 114
1, 19024, Note_on_c, 0, 66, 116
1, 19189, Note_off_c, 0, 66, 116
1, 19205, Note_on_c, 0, 64, 113
1, 19240, Note_off_c, 0, 64, 113
1, 19248, Note_on_c, 0, 66, 116
1, 19297, Note_off_c, 0, 66, 116
1, 19318, Note_on_c, 0, 64, 118
1, 19387, Note_off_c, 0, 64, 118
1, 19406, Note_on_c, 0, 63, 124
1, 19505, Note_off_c, 0, 63, 124
1, 19522, Note_on_c, 0, 60, 116
1, 19582, Note_off_c, 0, 60, 116
1, 19599, Note_on_c, 0, 59, 110
1, 19654, Note_off_c, 0, 59, 110
1, 19686, Note_on_c, 0, 58, 106
1, 19746, Note_off_c, 0, 58, 106
1, 19772, Note_on_c, 0, 59, 118
1, 19862, Note_off_c, 0, 59, 118
1, 19874, Note_on_c, 0, 66, 108
1, 19963, Note_off_c, 0, 66, 108
1, 19973, Note_on_c, 0, 63, 120
1, 20055, Note_off_c, 0, 63, 120
1, 20071, Note_on_c, 0, 59, 113
1, 20163, Note_off_c, 0, 59, 113
1, 20177, Note_on_c, 0, 64, 105
1, 20432, Note_off_c, 0, 64, 105
1, 20449, Note_on_c, 0, 59, 111
1, 20552, Note_off_c, 0, 59, 111
1, 20620, Note_on_c, 0, 56, 110
1, 20962, Note_off_c, 0, 56, 110
1, 20986, Note_on_c, 0, 52, 110
1, 21044, Note_off_c, 0, 52, 110
1, 21079, Note_on_c, 0, 56, 115
1, 21161, Note_off_c, 0, 56, 115
1, 21185, Note_on_c, 0, 58, 120
1, 21254, Note_off_c, 0, 58, 120
1, 21272, Note_on_c, 0, 60, 111
1, 21337, Note_off_c, 0, 60, 111
1, 21367, Note_on_c, 0, 62, 119
1, 21434, Note_off_c, 0, 62, 119
1, 21451, Note_on_c, 0, 64, 112
1, 21534, Note_off_c, 0, 64, 112
1, 21558, Note_on_c, 0, 66, 113
1, 21636, Note_off_c, 0, 66, 113
1, 21649, Note_on_c, 0, 68, 91
1, 21982, Note_off_c, 0, 68, 91
1, 22044, Note_on_c, 0, 65, 116
1, 22152, Note_off_c, 0, 65, 116
1, 22169, Note_on_c, 0, 60, 110
1, 22252, Note_off_c, 0, 60, 110
1, 22289, Note_on_c, 0, 58, 95
1, 22328, Note_off_c, 0, 58, 95
1, 22345, Note_on_c, 0, 56, 93
1, 22396, Note_off_c, 0, 56, 93
1, 22460, Note_on_c, 0, 65, 105
1, 22566, Note_off_c, 0, 65, 105
1, 22611, Note_on_c, 0, 65, 112
1, 22725, Note_off_c, 0, 65, 112
1, 22738, Note_on_c, 0, 61, 117
1, 22811, Note_off_c, 0, 61, 117
1, 22838, Note_on_c, 0, 60, 112
1, 22909, Note_off_c, 0, 60, 112
1, 22940, Note_on_c, 0, 58, 107
1, 22981, Note_off_c, 0, 58, 107
1, 23024, Note_on_c, 0, 56, 116
1, 23077, Note_off_c, 0, 56, 116
1, 23114, Note_on_c, 0, 53, 102
1, 23155, Note_off_c, 0, 53, 102
1, 23192, Note_on_c, 0, 56, 117
1, 23306, Note_off_c, 0, 56, 117
1, 23329, Note_on_c, 0, 53, 105
1, 23386, Note_off_c, 0, 53, 105
1, 23404, Note_on_c, 0, 55, 102
1, 23478, Note_off_c, 0, 55, 102
1, 23488, Note_on_c, 0, 58, 115
1, 23571, Note_off_c, 0, 58, 115
1, 23604, Note_on_c, 0, 64, 111
1, 23636, Note_off_c, 0, 64, 111
1, 23656, Note_on_c, 0, 65, 107
1, 23916, Note_off_c, 0, 65, 107
1, 23964, Note_on_c, 0, 63, 116
1, 24051, Note_off_c, 0, 63, 116
1, 24070, Note_on_c, 0, 60, 115
1, 24134, Note_off_c, 0, 60, 115
1, 24180, Note_on_c, 0, 55, 112
1, 24238, Note_off_c, 0, 55, 112
1, 24276, Note_on_c, 0, 53, 110
1, 24584, Note_off_c, 0, 53, 110
1, 25093, Note_on_c, 0, 68, 124
1, 25224, Note_off_c, 0, 68, 124
1, 25272, Note_on_c, 0, 68, 122
1, 25362, Note_off_c, 0, 68, 122
1, 25416, Note_on_c, 0, 68, 108
1, 25720, Note_off_c, 0, 68, 108
1, 25758, Note_on_c, 0, 64, 114
1, 25825, Note_off_c, 0, 64, 114
1, 25863, Note_on_c, 0, 68, 121
1, 25984, Note_off_c, 0, 68, 121
1, 26075, Note_on_c, 0, 64, 92
1, 26140, Note_off_c, 0, 64, 92
1, 26148, Note_on_c, 0, 68, 105
1, 26415, Note_off_c, 0, 68, 105
1, 26425, Note_on_c, 0, 67, 120
1, 26460, Note_off_c, 0, 67, 120
1, 26476, Note_on_c, 0, 68, 122
1, 26517, Note_off_c, 0, 68, 122
1, 26533, Note_on_c, 0, 67, 119
1, 26581, Note_off_c, 0, 67, 119
1, 26600, Note_on_c, 0, 65, 116
1, 26690, Note_off_c, 0, 65, 116
1, 26714, Note_on_c, 0, 63, 118
1, 26808, Note_off_c, 0, 63, 118
1, 26831, Note_on_c, 0, 60, 114
1, 26916, Note_off_c, 0, 60, 114
1, 26928, Note_on_c, 0, 55, 113
1, 27002, Note_off_c, 0, 55, 113
1, 27016, Note_on_c, 0, 54, 118
1, 27117, Note_off_c, 0, 54, 118
1, 27150, Note_on_c, 0, 54, 109
1, 27315, Note_off_c, 0, 54, 109
1, 27380, Note_on_c, 0, 56, 117
1, 27504, Note_off_c, 0, 56, 117
1, 27527, Note_on_c, 0, 57, 112
1, 27682, Note_off_c, 0, 57, 112
1, 27719, Note_on_c, 0, 53, 117
1, 28025, Note_off_c, 0, 53, 117
1, 28053, Note_on_c, 0, 58, 111
1, 28110, Note_off_c, 0, 58, 111
1, 28115, Note_on_c, 0, 62, 118
1, 28227, Note_off_c, 0, 62, 118
1, 28251, Note_on_c, 0, 65, 103
1, 28491, Note_off_c, 0, 65, 103
1, 28968, Note_on_c, 0, 64, 118
1, 29046, Note_off_c, 0, 64, 118
1, 29058, Note_on_c, 0, 66, 106
1, 29099, Note_off_c, 0, 66, 106
1, 29107, Note_on_c, 0, 69, 111
1, 29180, Note_off_c, 0, 69, 111
1, 29197, Note_on_c, 0, 72, 103
1, 29232, Note_off_c, 0, 72, 103
1, 29259, Note_on_c, 0, 75, 121
1, 29376, Note_off_c, 0, 75, 121
1, 29443, Note_on_c, 0, 75, 121
1, 29548, Note_off_c, 0, 75, 121
1, 29630, Note_on_c, 0, 75, 120
1, 29800, Note_off_c, 0, 75, 120
1, 29817, Note_on_c, 0, 75, 115
1, 29867, Note_off_c, 0, 75, 115
1, 29932, Note_on_c, 0, 75, 105
1, 30211, Note_off_c, 0, 75, 105
1, 30224, Note_on_c, 0, 74, 113
1, 30257, Note_off_c, 0, 74, 113
1, 30271, Note_on_c, 0, 75, 107
1, 30308, Note_off_c, 0, 75, 107
1, 30316, Note_on_c, 0, 74, 114
1, 30353, Note_off_c, 0, 74, 114
1, 30361, Note_on_c, 0, 73, 117
1, 30409, Note_off_c, 0, 73, 117
1, 30416, Note_on_c, 0, 72, 120
1, 30510, Note_off_c, 0, 72, 120
1, 30522, Note_on_c, 0, 68, 113
1, 30580, Note_off_c, 0, 68, 113
1, 30601, Note_on_c, 0, 64, 116
1, 30672, Note_off_c, 0, 64, 116
1, 30693, Note_on_c, 0, 61, 103
1, 30746, Note_off_c, 0, 61, 103
1, 30780, Note_on_c, 0, 65, 93
1, 31074, Note_off_c, 0, 65, 93
1, 31074, End_track
0, 0, End_of_file
