0, 0, Header, 1, 1, 192
1, 0, Start_track
1, 0, Title_t, "Melody"
1, 0, Tempo, 480000
1, 0, Key_signature, -4, "major"
1, 0, Time_signature, 4, 2, 24, 8
1, 2026, Note_on_c, 0, 63, 118
1, 2065, Note_off_c, 0, 63, 118
1, 2068, Note_on_c, 0, 65, 108
1, 2096, Note_off_c, 0, 65, 108
1, 2101, Note_on_c, 0, 63, 121
1, 2144, Note_off_c, 0, 63, 121
1, 2150, Note_on_c, 0, 60, 117
1, 2205, Note_off_c, 0, 60, 117
1, 2226, Note_on_c, 0, 55, 115
1, 2492, Note_off_c, 0, 55, 115
1, 2508, Note_on_c, 0, 51, 114
1, 2593, Note_off_c, 0, 51, 114
1, 2602, Note_on_c, 0, 55, 109
1, 2866, Note_off_c, 0, 55, 109
1, 2876, Note_on_c, 0, 51, 111
1, 2978, Note_off_c, 0, 51, 111
1, 2986, Note_on_c, 0, 55, 102
1, 3511, Note_off_c, 0, 55, 102
1, 4045, Note_on_c, 0, 53, 122
1, 4302, Note_off_c, 0, 53, 122
1, 4337, Note_on_c, 0, 55, 122
1, 4449, Note_off_c, 0, 55, 122
1, 4489, Note_on_c, 0, 56, 101
1, 4887, Note_off_c, 0, 56, 101
1, 4922, Note_on_c, 0, 55, 120
1, 5057, Note_off_c, 0, 55, 120
1, 5079, Note_on_c, 0, 53, 116
1, 5185, Note_off_c, 0, 53, 116
1, 5225, Note_on_c, 0, 61, 110
1, 5568, Note_off_c, 0, 61, 110
1, 5603, Note_on_c, 0, 56, 112
1, 5659, Note_off_c, 0, 56, 112
1, 5685, Note_on_c, 0, 61, 116
1, 5788, Note_off_c, 0, 61, 116
1, 5807, Note_on_c, 0, 61, 111
1, 5945, Note_off_c, 0, 61, 111
1, 5963, Note_on_c, 0, 61, 97
1, 6377, Note_off_c, 0, 61, 97
1, 6920, Note_on_c, 0, 52, 124
1, 7050, Note_off_c, 0, 52, 124
1, 7069, Note_on_c, 0, 56, 119
1, 7137, Note_off_c, 0, 56, 119
1, 7151, Note_on_c, 0, 58, 126
1, 7208, Note_off_c, 0, 58, 126
1, 7220, Note_on_c, 0, 60, 122
1, 7282, Note_off_c, 0, 60, 122
1, 7294, Note_on_c, 0, 61, 107
1, 7740, Note_off_c, 0, 61, 107
1, 7847, Note_on_c, 0, 61, 120
1, 7886, Note_off_c, 0, 61, 120
1, 7893, Note_on_c, 0, 63, 119
1, 7921, Note_off_c, 0, 63, 119
1, 7932, Note_on_c, 0, 61, 119
1, 8010, Note_off_c, 0, 61, 119
1, 8021, Note_on_c, 0, 60, 112
1, 8161, Note_off_c, 0, 60, 112
1, 8168, Note_on_c, 0, 58, 124
1, 8262, Note_off_c, 0, 58, 124
1, 8273, Note_on_c, 0, 63, 112
1, 8624, Note_off_c, 0, 63, 112
1, 8638, Note_on_c, 0, 63, 122
1, 8789, Note_off_c, 0, 63, 122
1, 8799, Note_on_c, 0, 63, 126
1, 8901, Note_off_c, 0, 63, 126
1, 8907, Note_on_c, 0, 63, 127
1, 9021, Note_off_c, 0, 63, 127
1, 9031, Note_on_c, 0, 63, 109
1, 9278, Note_off_c, 0, 63, 109
1, 9622, Note_on_c, 0, 65, 116
1, 9779, Note_off_c, 0, 65, 116
1, 9793, Note_on_c, 0, 63, 122
1, 9861, Note_off_c, 0, 63, 122
1, 9929, Note_on_c, 0, 66, 108
1, 10068, Note_off_c, 0, 66, 108
1, 10081, Note_on_c, 0, 65, 113
1, 10184, Note_off_c, 0, 65, 113
1, 10192, Note_on_c, 0, 63, 102
1, 10824, Note_off_c, 0, 63, 102
1, 11282, Note_on_c, 0, 63, 118
1, 11324, Note_off_c, 0, 63, 118
1, 11327, Note_on_c, 0, 65, 111
1, 11359, Note_off_c, 0, 65, 111
1, 11362, Note_on_c, 0, 63, 117
1, 11424, Note_off_c, 0, 63, 117
1, 11430, Note_on_c, 0, 61, 102
1, 11861, Note_off_c, 0, 61, 102
1, 11891, Note_on_c, 0, 63, 119
1, 12064, Note_off_c, 0, 63, 119
1, 12074, Note_on_c, 0, 61, 112
1, 12159, Note_off_c, 0, 61, 112
1, 12161, Note_on_c, 0, 58, 93
1, 12191, Note_off_c, 0, 58, 93
1, 12197, Note_on_c, 0, 64, 112
1, 12360, Note_off_c, 0, 64, 112
1, 12366, Note_on_c, 0, 63, 121
1, 12462, Note_off_c, 0, 63, 121
1, 12475, Note_on_c, 0, 61, 97
1, 12899, Note_off_c, 0, 61, 97
1, 13241, Note_on_c, 0, 59, 113
1, 13524, Note_off_c, 0, 59, 113
1, 13548, Note_on_c, 0, 56, 117
1, 13633, Note_off_c, 0, 56, 117
1, 13641, Note_on_c, 0, 53, 120
1, 13701, Note_off_c, 0, 53, 120
1, 13729, Note_on_c, 0, 58, 110
1, 14023, Note_off_c, 0, 58, 110
1, 14032, Note_on_c, 0, 55, 113
1, 14170, Note_off_c, 0, 55, 113
1, 14205, Note_on_c, 0, 49, 122
1, 14301, Note_off_c, 0, 49, 122
1, 14321, Note_on_c, 0, 51, 123
1, 14414, Note_off_c, 0, 51, 123
1, 14430, Note_on_c, 0, 53, 118
1, 14516, Note_off_c, 0, 53, 118
1, 14532, Note_on_c, 0, 55, 116
1, 14770, Note_off_c, 0, 55, 116
1, 14789, Note_on_c, 0, 51, 109
1, 14858, Note_off_c, 0, 51, 109
1, 14877, Note_on_c, 0, 55, 117
1, 14977, Note_off_c, 0, 55, 117
1, 14988, Note_on_c, 0, 63, 120
1, 15077, Note_off_c, 0, 63, 120
1, 15085, Note_on_c, 0, 60, 111
1, 15169, Note_off_c, 0, 60, 111
1, 15188, Note_on_c, 0, 55, 105
1, 15801, Note_off_c, 0, 55, 105
1, 16410, Note_on_c, 0, 53, 118
1, 16708, Note_off_c, 0, 53, 118
1, 16725, Note_on_c, 0, 55, 117
1, 16835, Note_off_c, 0, 55, 117
1, 16845, Note_on_c, 0, 56, 104
1, 17197, Note_off_c, 0, 56, 104
1, 17210, Note_on_c, 0, 55, 115
1, 17365, Note_off_c, 0, 55, 115
1, 17391, Note_on_c, 0, 53, 111
1, 17510, Note_off_c, 0, 53, 111
1, 17560, Note_on_c, 0, 61, 101
1, 17962, Note_off_c, 0, 61, 101
1, 18042, Note_on_c, 0, 61, 118
1, 18147, Note_off_c, 0, 61, 118
1, 18201, Note_on_c, 0, 61, 109
1, 18308, Note_off_c, 0, 61, 109
1, 18323, Note_on_c, 0, 61, 94
1, 18884, Note_off_c, 0, 61, 94
1, 19225, Note_on_c, 0, 52, 123
1, 19309, Note_off_c, 0, 52, 123
1, 19322, Note_on_c, 0, 56, 118
1, 19409, Note_off_c, 0, 56, 118
1, 19425, Note_on_c, 0, 61, 102
1, 20027, Note_off_c, 0, 61, 102
1, 20162, Note_on_c, 0, 61, 120
1, 20208, Note_off_c, 0, 61, 120
1, 20212, Note_on_c, 0, 63, 118
1, 20238, Note_off_c, 0, 63, 118
1, 20250, Note_on_c, 0, 61, 116
1, 20348, Note_off_c, 0, 61, 116
1, 20355, Note_on_c, 0, 60, 114
1, 20422, Note_off_c, 0, 60, 114
1, 20488, Note_on_c, 0, 58, 121
1, 20577, Note_off_c, 0, 58, 121
1, 20641, Note_on_c, 0, 63, 115
1, 20903, Note_off_c, 0, 63, 115
1, 20931, Note_on_c, 0, 63, 123
1, 21075, Note_off_c, 0, 63, 123
1, 21087, Note_on_c, 0, 63, 120
1, 21199, Note_off_c, 0, 63, 120
1, 21208, Note_on_c, 0, 63, 126
1, 21310, Note_off_c, 0, 63, 126
1, 21327, Note_on_c, 0, 63, 113
1, 21547, Note_off_c, 0, 63, 113
1, 21888, Note_on_c, 0, 65, 120
1, 22065, Note_off_c, 0, 65, 120
1, 22069, Note_on_c, 0, 63, 122
1, 22163, Note_off_c, 0, 63, 122
1, 22214, Note_on_c, 0, 66, 95
1, 22706, Note_off_c, 0, 66, 95
1, 22846, Note_on_c, 0, 63, 124
1, 22974, Note_off_c, 0, 63, 124
1, 23017, Note_on_c, 0, 67, 113
1, 23285, Note_off_c, 0, 67, 113
1, 23310, Note_on_c, 0, 63, 123
1, 23407, Note_off_c, 0, 63, 123
1, 23494, Note_on_c, 0, 65, 119
1, 23612, Note_off_c, 0, 65, 119
1, 23625, Note_on_c, 0, 63, 117
1, 23665, Note_off_c, 0, 63, 117
1, 23700, Note_on_c, 0, 68, 94
1, 24004, Note_off_c, 0, 68, 94
1, 24108, Note_on_c, 0, 68, 111
1, 24242, Note_off_c, 0, 68, 111
1, 24269, Note_on_c, 0, 68, 113
1, 24396, Note_off_c, 0, 68, 113
1, 24412, Note_on_c, 0, 68, 10
1, 24630, Note_off_c, 0, 68, 10
1, 24775, Note_on_c, 0, 68, 122
1, 24862, Note_off_c, 0, 68, 122
1, 24882, Note_on_c, 0, 64, 117
1, 24962, Note_off_c, 0, 64, 117
1, 24973, Note_on_c, 0, 61, 114
1, 25040, Note_off_c, 0, 61, 114
1, 25084, Note_on_c, 0, 58, 123
1, 25142, Note_off_c, 0, 58, 123
1, 25162, Note_on_c, 0, 53, 111
1, 25215, Note_off_c, 0, 53, 111
1, 25244, Note_on_c, 0, 56, 100
1, 25584, Note_off_c, 0, 56, 100
1, 25905, Note_on_c, 0, 56, 114
1, 25985, Note_off_c, 0, 56, 114
1, 26006, Note_on_c, 0, 60, 109
1, 26082, Note_off_c, 0, 60, 109
1, 26110, Note_on_c, 0, 56, 103
1, 26169, Note_off_c, 0, 56, 103
1, 26174, Note_on_c, 0, 60, 104
1, 26272, Note_off_c, 0, 60, 104
1, 26395, Note_on_c, 0, 56, 100
1, 26549, Note_off_c, 0, 56, 100
1, 26618, Note_on_c, 0, 53, 110
1, 26695, Note_off_c, 0, 53, 110
1, 26714, Note_on_c, 0, 55, 100
1, 26969, Note_off_c, 0, 55, 100
1, 26969, End_track
0, 0, End_of_file
