0, 0, Header, 1, 1, 192
1, 0, Start_track
1, 0, Title_t, "Melody"
1, 0, Tempo, 275229
1, 0, Key_signature, 2, "major"
1, 0, Time_signature, 4, 2, 24, 8
1, 3650, Note_on_c, 0, 59, 106
1, 3735, Note_off_c, 0, 59, 106
1, 3759, Note_on_c, 0, 62, 104
1, 3864, Note_off_c, 0, 62, 104
1, 3916, Note_on_c, 0, 63, 117
1, 3992, Note_off_c, 0, 63, 117
1, 3992, Note_on_c, 0, 65, 106
1, 4275, Note_off_c, 0, 65, 106
1, 4793, Note_on_c, 0, 59, 89
1, 4821, Note_off_c, 0, 59, 89
1, 4829, Note_on_c, 0, 58, 115
1, 4873, Note_off_c, 0, 58, 115
1, 4873, Note_on_c, 0, 56, 112
1, 4990, Note_off_c, 0, 56, 112
1, 4994, Note_on_c, 0, 57, 115
1, 5070, Note_off_c, 0, 57, 115
1, 5070, Note_on_c, 0, 59, 109
1, 5183, Note_off_c, 0, 59, 109
1, 5272, Note_on_c, 0, 64, 117
1, 5361, Note_off_c, 0, 64, 117
1, 5365, Note_on_c, 0, 62, 96
1, 5458, Note_off_c, 0, 62, 96
1, 5466, Note_on_c, 0, 65, 105
1, 5575, Note_off_c, 0, 65, 105
1, 5575, Note_on_c, 0, 66, 101
1, 5757, Note_off_c, 0, 66, 101
1, 5757, Note_on_c, 0, 64, 97
1, 5842, Note_off_c, 0, 64, 97
1, 5850, Note_on_c, 0, 62, 113
1, 5951, Note_off_c, 0, 62, 113
1, 5959, Note_on_c, 0, 57, 108
1, 6060, Note_off_c, 0, 57, 108
1, 6064, Note_on_c, 0, 53, 95
1, 6149, Note_off_c, 0, 53, 95
1, 6161, Note_on_c, 0, 54, 105
1, 6229, Note_off_c, 0, 54, 105
1, 6249, Note_on_c, 0, 57, 114
1, 6346, Note_off_c, 0, 57, 114
1, 6346, Note_on_c, 0, 62, 96
1, 6750, Note_off_c, 0, 62, 96
1, 7187, Note_on_c, 0, 65, 111
1, 7296, Note_off_c, 0, 65, 111
1, 7300, Note_on_c, 0, 67, 96
1, 7376, Note_off_c, 0, 67, 96
1, 7376, Note_on_c, 0, 69, 111
1, 7481, Note_off_c, 0, 69, 111
1, 7481, Note_on_c, 0, 71, 114
1, 7570, Note_off_c, 0, 71, 114
1, 7570, Note_on_c, 0, 72, 116
1, 7663, Note_off_c, 0, 72, 116
1, 7663, Note_on_c, 0, 69, 98
1, 7727, Note_off_c, 0, 69, 98
1, 7755, Note_on_c, 0, 71, 115
1, 7868, Note_on_c, 0, 67, 106
1, 7868, Note_off_c, 0, 71, 115
1, 7948, Note_off_c, 0, 67, 106
1, 7948, Note_on_c, 0, 69, 110
1, 8056, Note_off_c, 0, 69, 110
1, 8056, Note_on_c, 0, 66, 102
1, 8135, Note_off_c, 0, 66, 102
1, 8135, Note_on_c, 0, 67, 102
1, 8186, Note_off_c, 0, 67, 102
1, 8214, Note_on_c, 0, 70, 99
1, 8259, Note_off_c, 0, 70, 99
1, 8264, Note_on_c, 0, 67, 104
1, 8326, Note_off_c, 0, 67, 104
1, 8326, Note_on_c, 0, 64, 111
1, 8448, Note_off_c, 0, 64, 111
1, 8490, Note_on_c, 0, 66, 96
1, 8794, Note_off_c, 0, 66, 96
1, 8794, Note_on_c, 0, 62, 109
1, 8885, Note_off_c, 0, 62, 109
1, 8885, Note_on_c, 0, 64, 110
1, 9027, Note_off_c, 0, 64, 110
1, 9044, Note_on_c, 0, 66, 94
1, 9565, Note_off_c, 0, 66, 94
1, 9565, Note_on_c, 0, 62, 112
1, 9650, Note_off_c, 0, 62, 112
1, 9658, Note_on_c, 0, 64, 110
1, 9786, Note_off_c, 0, 64, 110
1, 9805, Note_on_c, 0, 62, 115
1, 9879, Note_off_c, 0, 62, 115
1, 9958, Note_on_c, 0, 64, 100
1, 10305, Note_off_c, 0, 64, 100
1, 10330, Note_on_c, 0, 62, 111
1, 10446, Note_off_c, 0, 62, 111
1, 10446, Note_on_c, 0, 59, 110
1, 10576, Note_off_c, 0, 59, 110
1, 10578, Note_on_c, 0, 54, 92
1, 10896, Note_off_c, 0, 54, 92
1, 11496, Note_on_c, 0, 64, 117
1, 11635, Note_off_c, 0, 64, 117
1, 11683, Note_on_c, 0, 64, 115
1, 11839, Note_off_c, 0, 64, 115
1, 11839, Note_on_c, 0, 62, 117
1, 11924, Note_off_c, 0, 62, 117
1, 11941, Note_on_c, 0, 61, 114
1, 12037, Note_off_c, 0, 61, 114
1, 12039, Note_on_c, 0, 57, 116
1, 12135, Note_off_c, 0, 57, 116
1, 12140, Note_on_c, 0, 54, 107
1, 12219, Note_on_c, 0, 50, 100
1, 12219, Note_off_c, 0, 54, 107
1, 12315, Note_off_c, 0, 50, 100
1, 12315, Note_on_c, 0, 53, 102
1, 12668, Note_off_c, 0, 53, 102
1, 12673, Note_on_c, 0, 52, 108
1, 12784, Note_off_c, 0, 52, 108
1, 12784, Note_on_c, 0, 50, 96
1, 12869, Note_off_c, 0, 50, 96
1, 12886, Note_on_c, 0, 52, 108
1, 12979, Note_on_c, 0, 50, 100
1, 12979, Note_off_c, 0, 52, 108
1, 13058, Note_off_c, 0, 50, 100
1, 13072, Note_on_c, 0, 52, 101
1, 13419, Note_off_c, 0, 52, 101
1, 13618, Note_on_c, 0, 55, 114
1, 13731, Note_off_c, 0, 55, 114
1, 13742, Note_on_c, 0, 59, 108
1, 13992, Note_off_c, 0, 59, 108
1, 14037, Note_on_c, 0, 55, 109
1, 14136, Note_off_c, 0, 55, 109
1, 14136, Note_on_c, 0, 57, 117
1, 14201, Note_off_c, 0, 57, 117
1, 14206, Note_on_c, 0, 58, 114
1, 14319, Note_off_c, 0, 58, 114
1, 14327, Note_on_c, 0, 63, 113
1, 14389, Note_off_c, 0, 63, 113
1, 14397, Note_on_c, 0, 65, 103
1, 14547, Note_off_c, 0, 65, 103
1, 14547, Note_on_c, 0, 64, 105
1, 14863, Note_off_c, 0, 64, 105
1, 14863, Note_on_c, 0, 62, 107
1, 14968, Note_off_c, 0, 62, 107
1, 14970, Note_on_c, 0, 57, 111
1, 15063, Note_off_c, 0, 57, 111
1, 15063, Note_on_c, 0, 54, 94
1, 15131, Note_off_c, 0, 54, 94
1, 15131, Note_on_c, 0, 52, 97
1, 15210, Note_off_c, 0, 52, 97
1, 15247, Note_on_c, 0, 62, 101
1, 15600, Note_off_c, 0, 62, 101
1, 16101, Note_on_c, 0, 69, 114
1, 16209, Note_off_c, 0, 69, 114
1, 16291, Note_on_c, 0, 72, 118
1, 16419, Note_off_c, 0, 72, 118
1, 16419, Note_on_c, 0, 69, 112
1, 16510, Note_off_c, 0, 69, 112
1, 16515, Note_on_c, 0, 72, 117
1, 16634, Note_off_c, 0, 72, 117
1, 16634, Note_on_c, 0, 67, 109
1, 16722, Note_off_c, 0, 67, 109
1, 16727, Note_on_c, 0, 69, 100
1, 17111, Note_off_c, 0, 69, 100
1, 17111, Note_on_c, 0, 67, 102
1, 17222, Note_off_c, 0, 67, 102
1, 17281, Note_on_c, 0, 69, 110
1, 17397, Note_off_c, 0, 69, 110
1, 17402, Note_on_c, 0, 72, 116
1, 17501, Note_off_c, 0, 72, 116
1, 17503, Note_on_c, 0, 69, 109
1, 17599, Note_off_c, 0, 69, 109
1, 17601, Note_on_c, 0, 67, 91
1, 17649, Note_off_c, 0, 67, 91
1, 17649, Note_on_c, 0, 69, 110
1, 17785, Note_off_c, 0, 69, 110
1, 17785, Note_on_c, 0, 67, 95
1, 17839, Note_off_c, 0, 67, 95
1, 17839, Note_on_c, 0, 69, 97
1, 18152, Note_off_c, 0, 69, 97
1, 18157, Note_on_c, 0, 66, 91
1, 18245, Note_off_c, 0, 66, 91
1, 18245, Note_on_c, 0, 69, 104
1, 18347, Note_off_c, 0, 69, 104
1, 18362, Note_on_c, 0, 64, 107
1, 18430, Note_off_c, 0, 64, 107
1, 18440, Note_on_c, 0, 67, 102
1, 18491, Note_off_c, 0, 67, 102
1, 18502, Note_on_c, 0, 71, 108
1, 18548, Note_off_c, 0, 71, 108
1, 18548, Note_on_c, 0, 67, 101
1, 18600, Note_off_c, 0, 67, 101
1, 18600, Note_on_c, 0, 62, 114
1, 18688, Note_off_c, 0, 62, 114
1, 18801, Note_on_c, 0, 64, 101
1, 19128, Note_off_c, 0, 64, 101
1, 19128, Note_on_c, 0, 62, 100
1, 19210, Note_off_c, 0, 62, 100
1, 19215, Note_on_c, 0, 63, 116
1, 19283, Note_off_c, 0, 63, 116
1, 19283, Note_on_c, 0, 65, 107
1, 19693, Note_off_c, 0, 65, 107
1, 19693, Note_on_c, 0, 62, 109
1, 19801, Note_off_c, 0, 62, 109
1, 19909, Note_on_c, 0, 59, 107
1, 19971, Note_off_c, 0, 59, 107
1, 19999, Note_on_c, 0, 64, 102
1, 20292, Note_off_c, 0, 64, 102
1, 20292, Note_on_c, 0, 61, 107
1, 20360, Note_off_c, 0, 61, 107
1, 20391, Note_on_c, 0, 57, 116
1, 20490, Note_off_c, 0, 57, 116
1, 20498, Note_on_c, 0, 55, 103
1, 20777, Note_off_c, 0, 55, 103
1, 20777, Note_on_c, 0, 54, 98
1, 20868, Note_off_c, 0, 54, 98
1, 20876, Note_on_c, 0, 55, 106
1, 20950, Note_off_c, 0, 55, 106
1, 20952, Note_on_c, 0, 57, 112
1, 21037, Note_off_c, 0, 57, 112
1, 21056, Note_on_c, 0, 59, 102
1, 21144, Note_off_c, 0, 59, 102
1, 21144, Note_on_c, 0, 61, 106
1, 21237, Note_off_c, 0, 61, 106
1, 21256, Note_on_c, 0, 59, 101
1, 21623, Note_off_c, 0, 59, 101
1, 22201, Note_on_c, 0, 62, 119
1, 22354, Note_off_c, 0, 62, 119
1, 22607, Note_on_c, 0, 62, 106
1, 23011, Note_off_c, 0, 62, 106
1, 23107, Note_on_c, 0, 62, 115
1, 23240, Note_off_c, 0, 62, 115
1, 23325, Note_on_c, 0, 59, 97
1, 23373, Note_off_c, 0, 59, 97
1, 23398, Note_on_c, 0, 62, 117
1, 23477, Note_off_c, 0, 62, 117
1, 23496, Note_on_c, 0, 62, 109
1, 23570, Note_off_c, 0, 62, 109
1, 23570, Note_on_c, 0, 58, 108
1, 23678, Note_off_c, 0, 58, 108
1, 23746, Note_on_c, 0, 61, 108
1, 23857, Note_off_c, 0, 61, 108
1, 23922, Note_on_c, 0, 57, 93
1, 24047, Note_off_c, 0, 57, 93
1, 24109, Note_on_c, 0, 61, 101
1, 24499, Note_off_c, 0, 61, 101
1, 24632, Note_on_c, 0, 60, 108
1, 24728, Note_off_c, 0, 60, 108
1, 24830, Note_on_c, 0, 57, 111
1, 24884, Note_off_c, 0, 57, 111
1, 24884, Note_on_c, 0, 60, 100
1, 24932, Note_off_c, 0, 60, 100
1, 24943, Note_on_c, 0, 62, 105
1, 25017, Note_off_c, 0, 62, 105
1, 25019, Note_on_c, 0, 60, 104
1, 25075, Note_off_c, 0, 60, 104
1, 25086, Note_on_c, 0, 57, 113
1, 25203, Note_off_c, 0, 57, 113
1, 25205, Note_on_c, 0, 58, 112
1, 25312, Note_off_c, 0, 58, 112
1, 25312, Note_on_c, 0, 59, 105
1, 25690, Note_off_c, 0, 59, 105
1, 25701, Note_on_c, 0, 62, 113
1, 25794, Note_off_c, 0, 62, 113
1, 25796, Note_on_c, 0, 59, 113
1, 25884, Note_off_c, 0, 59, 113
1, 25892, Note_on_c, 0, 55, 105
1, 25994, Note_off_c, 0, 55, 105
1, 25996, Note_on_c, 0, 52, 93
1, 26064, Note_off_c, 0, 52, 93
1, 26064, Note_on_c, 0, 54, 96
1, 26186, Note_off_c, 0, 54, 96
1, 26191, Note_on_c, 0, 57, 102
1, 26538, Note_off_c, 0, 57, 102
1, 26555, Note_on_c, 0, 63, 111
1, 26620, Note_off_c, 0, 63, 111
1, 26620, Note_on_c, 0, 65, 100
1, 26810, Note_off_c, 0, 65, 100
1, 26815, Note_on_c, 0, 62, 98
1, 27136, Note_off_c, 0, 62, 98
1, 27184, Note_on_c, 0, 62, 108
1, 27303, Note_off_c, 0, 62, 108
1, 27303, Note_on_c, 0, 66, 97
1, 27379, Note_off_c, 0, 66, 97
1, 27396, Note_on_c, 0, 62, 94
1, 27737, Note_off_c, 0, 62, 94
1, 28716, Note_on_c, 0, 69, 114
1, 28829, Note_off_c, 0, 69, 114
1, 28894, Note_on_c, 0, 69, 113
1, 28999, Note_off_c, 0, 69, 113
1, 29007, Note_on_c, 0, 65, 111
1, 29089, Note_off_c, 0, 65, 111
1, 29114, Note_on_c, 0, 60, 105
1, 29202, Note_off_c, 0, 60, 105
1, 29202, Note_on_c, 0, 58, 113
1, 29295, Note_off_c, 0, 58, 113
1, 29295, Note_on_c, 0, 56, 111
1, 29391, Note_off_c, 0, 56, 111
1, 29393, Note_on_c, 0, 57, 106
1, 29504, Note_off_c, 0, 57, 106
1, 29504, Note_on_c, 0, 60, 111
1, 29597, Note_off_c, 0, 60, 111
1, 29602, Note_on_c, 0, 57, 103
1, 30020, Note_off_c, 0, 57, 103
1, 30148, Note_on_c, 0, 57, 116
1, 30244, Note_off_c, 0, 57, 116
1, 30252, Note_on_c, 0, 59, 114
1, 30354, Note_off_c, 0, 59, 114
1, 30354, Note_on_c, 0, 61, 112
1, 30445, Note_off_c, 0, 61, 112
1, 30445, Note_on_c, 0, 64, 117
1, 30556, Note_off_c, 0, 64, 117
1, 30556, Note_on_c, 0, 61, 105
1, 30635, Note_off_c, 0, 61, 105
1, 30643, Note_on_c, 0, 62, 117
1, 30751, Note_off_c, 0, 62, 117
1, 30751, Note_on_c, 0, 66, 95
1, 30830, Note_off_c, 0, 66, 95
1, 30832, Note_on_c, 0, 69, 106
1, 30940, Note_off_c, 0, 69, 106
1, 30948, Note_on_c, 0, 74, 111
1, 31759, Note_off_c, 0, 74, 111
1, 31810, Note_on_c, 0, 69, 104
1, 31898, Note_off_c, 0, 69, 104
1, 31974, Note_on_c, 0, 72, 98
1, 32460, Note_off_c, 0, 72, 98
1, 32462, Note_on_c, 0, 69, 107
1, 32555, Note_off_c, 0, 69, 107
1, 32566, Note_on_c, 0, 67, 102
1, 32611, Note_off_c, 0, 67, 102
1, 32619, Note_on_c, 0, 69, 104
1, 32678, Note_on_c, 0, 67, 102
1, 32678, Note_off_c, 0, 69, 104
1, 32740, Note_off_c, 0, 67, 102
1, 32754, Note_on_c, 0, 66, 103
1, 32845, Note_off_c, 0, 66, 103
1, 32862, Note_on_c, 0, 69, 98
1, 33141, Note_off_c, 0, 69, 98
1, 33146, Note_on_c, 0, 66, 103
1, 33234, Note_off_c, 0, 66, 103
1, 33245, Note_on_c, 0, 64, 108
1, 33341, Note_off_c, 0, 64, 108
1, 33341, Note_on_c, 0, 62, 111
1, 33423, Note_off_c, 0, 62, 111
1, 33423, Note_on_c, 0, 61, 108
1, 33499, Note_off_c, 0, 61, 108
1, 33499, Note_on_c, 0, 59, 102
1, 33977, Note_off_c, 0, 59, 102
1, 34440, Note_on_c, 0, 63, 114
1, 34549, Note_off_c, 0, 63, 114
1, 34585, Note_on_c, 0, 66, 115
1, 35135, Note_off_c, 0, 66, 115
1, 35135, Note_on_c, 0, 65, 100
1, 35580, Note_off_c, 0, 65, 100
1, 36069, Note_on_c, 0, 64, 116
1, 36145, Note_off_c, 0, 64, 116
1, 36145, Note_on_c, 0, 62, 119
1, 36205, Note_off_c, 0, 62, 119
1, 36205, Note_on_c, 0, 61, 116
1, 36277, Note_on_c, 0, 57, 119
1, 36277, Note_off_c, 0, 61, 116
1, 36386, Note_off_c, 0, 57, 119
1, 36386, Note_on_c, 0, 54, 105
1, 36499, Note_off_c, 0, 54, 105
1, 36499, Note_on_c, 0, 50, 95
1, 36669, Note_off_c, 0, 50, 95
1, 36717, Note_on_c, 0, 53, 94
1, 37113, Note_off_c, 0, 53, 94
1, 37497, Note_on_c, 0, 64, 106
1, 37910, Note_off_c, 0, 64, 106
1, 37910, Note_on_c, 0, 62, 110
1, 38027, Note_off_c, 0, 62, 110
1, 38027, Note_on_c, 0, 59, 108
1, 38124, Note_off_c, 0, 59, 108
1, 38124, Note_on_c, 0, 55, 101
1, 38225, Note_off_c, 0, 55, 101
1, 38233, Note_on_c, 0, 52, 95
1, 38313, Note_off_c, 0, 52, 95
1, 38317, Note_on_c, 0, 54, 104
1, 38410, Note_off_c, 0, 54, 104
1, 38410, Note_on_c, 0, 57, 96
1, 38810, Note_off_c, 0, 57, 96
1, 39008, Note_on_c, 0, 69, 102
1, 39105, Note_off_c, 0, 69, 102
1, 39220, Note_on_c, 0, 69, 104
1, 39335, Note_off_c, 0, 69, 104
1, 39335, Note_on_c, 0, 66, 97
1, 39424, Note_off_c, 0, 66, 97
1, 39424, Note_on_c, 0, 67, 97
1, 39502, Note_off_c, 0, 67, 97
1, 39502, Note_on_c, 0, 69, 100
1, 39566, Note_off_c, 0, 69, 100
1, 39578, Note_on_c, 0, 67, 102
1, 39636, Note_off_c, 0, 67, 102
1, 39636, Note_on_c, 0, 64, 111
1, 39741, Note_off_c, 0, 64, 111
1, 39785, Note_on_c, 0, 66, 90
1, 40121, Note_off_c, 0, 66, 90
1, 40125, Note_on_c, 0, 62, 97
1, 40185, Note_off_c, 0, 62, 97
1, 40185, Note_on_c, 0, 64, 96
1, 40525, Note_off_c, 0, 64, 96
1, 40525, Note_on_c, 0, 60, 103
1, 40597, Note_off_c, 0, 60, 103
1, 40597, Note_on_c, 0, 57, 112
1, 40718, Note_off_c, 0, 57, 112
1, 40750, Note_on_c, 0, 57, 92
1, 41231, Note_off_c, 0, 57, 92
1, 42130, Note_on_c, 0, 69, 9
1, 42223, Note_off_c, 0, 69, 9
1, 42314, Note_on_c, 0, 69, 117
1, 42433, Note_off_c, 0, 69, 117
1, 42433, Note_on_c, 0, 66, 113
1, 42505, Note_off_c, 0, 66, 113
1, 42509, Note_on_c, 0, 67, 112
1, 42553, Note_off_c, 0, 67, 112
1, 42573, Note_on_c, 0, 69, 114
1, 42637, Note_off_c, 0, 69, 114
1, 42637, Note_on_c, 0, 67, 109
1, 42717, Note_off_c, 0, 67, 109
1, 42721, Note_on_c, 0, 64, 127
1, 42842, Note_off_c, 0, 64, 127
1, 42939, Note_on_c, 0, 66, 103
1, 43234, Note_off_c, 0, 66, 103
1, 43234, Note_on_c, 0, 62, 123
1, 43339, Note_off_c, 0, 62, 123
1, 43339, Note_on_c, 0, 64, 125
1, 43480, Note_off_c, 0, 64, 125
1, 43486, Note_on_c, 0, 66, 110
1, 43542, Note_off_c, 0, 66, 110
1, 43544, Note_on_c, 0, 69, 103
1, 43681, Note_off_c, 0, 69, 103
1, 43717, Note_on_c, 0, 64, 115
1, 44134, Note_off_c, 0, 64, 115
1, 44166, Note_on_c, 0, 62, 120
1, 44255, Note_off_c, 0, 62, 120
1, 44259, Note_on_c, 0, 61, 110
1, 44360, Note_off_c, 0, 61, 110
1, 44360, Note_on_c, 0, 57, 114
1, 44477, Note_off_c, 0, 57, 114
1, 44477, Note_on_c, 0, 55, 109
1, 44537, Note_off_c, 0, 55, 109
1, 44537, Note_on_c, 0, 57, 124
1, 44670, Note_off_c, 0, 57, 124
1, 44710, Note_on_c, 0, 59, 102
1, 44993, Note_off_c, 0, 59, 102
1, 45001, Note_on_c, 0, 52, 89
1, 46001, Note_off_c, 0, 52, 89
1, 46001, End_track
0, 0, End_of_file
