0, 0, Header, 1, 1, 192
1, 0, Start_track
1, 0, Note_on_c, 0, 58, 97
1, 72, Note_on_c, 0, 61, 117
1, 72, Note_off_c, 0, 58, 97
1, 150, Note_off_c, 0, 61, 117
1, 166, Note_on_c, 0, 63, 116
1, 339, Note_off_c, 0, 63, 116
1, 605, Note_on_c, 0, 58, 105
1, 669, Note_off_c, 0, 58, 105
1, 683, Note_on_c, 0, 61, 118
1, 741, Note_off_c, 0, 61, 118
1, 746, Note_on_c, 0, 63, 120
1, 793, Note_off_c, 0, 63, 120
1, 812, Note_on_c, 0, 66, 101
1, 854, Note_off_c, 0, 66, 101
1, 856, Note_on_c, 0, 64, 115
1, 900, Note_off_c, 0, 64, 115
1, 908, Note_on_c, 0, 63, 123
1, 958, Note_off_c, 0, 63, 123
1, 969, Note_on_c, 0, 61, 116
1, 1053, Note_off_c, 0, 61, 116
1, 1061, Note_on_c, 0, 58, 108
1, 1114, Note_off_c, 0, 58, 108
1, 1161, Note_on_c, 0, 53, 109
1, 1225, Note_off_c, 0, 53, 109
1, 1292, Note_on_c, 0, 53, 122
1, 1362, Note_off_c, 0, 53, 122
1, 1364, Note_on_c, 0, 50, 103
1, 1599, Note_off_c, 0, 50, 103
1, 1629, Note_on_c, 0, 58, 114
1, 1811, Note_off_c, 0, 58, 114
1, 2240, Note_on_c, 0, 49, 119
1, 2296, Note_off_c, 0, 49, 119
1, 2298, Note_on_c, 0, 50, 112
1, 2584, Note_off_c, 0, 50, 112
1, 2589, Note_on_c, 0, 56, 109
1, 2920, Note_off_c, 0, 56, 109
1, 3321, Note_on_c, 0, 55, 118
1, 3360, Note_off_c, 0, 55, 118
1, 3365, Note_on_c, 0, 53, 114
1, 3401, Note_off_c, 0, 53, 114
1, 3420, Note_on_c, 0, 52, 115
1, 3459, Note_off_c, 0, 52, 115
1, 3475, Note_on_c, 0, 55, 111
1, 3511, Note_off_c, 0, 55, 111
1, 3519, Note_on_c, 0, 58, 115
1, 3566, Note_off_c, 0, 58, 115
1, 3574, Note_on_c, 0, 62, 123
1, 3610, Note_off_c, 0, 62, 123
1, 3615, Note_on_c, 0, 61, 125
1, 3615, Title_t, "Melody"
1, 3615, Tempo, 397350
1, 3615, Key_signature, -2, "major"
1, 3615, Time_signature, 4, 2, 24, 8
1, 3658, Note_off_c, 0, 61, 125
1, 3660, Note_on_c, 0, 56, 121
1, 3713, Note_off_c, 0, 56, 121
1, 3724, Note_on_c, 0, 53, 111
1, 3752, Note_off_c, 0, 53, 111
1, 3771, Note_on_c, 0, 51, 117
1, 3801, Note_off_c, 0, 51, 117
1, 3823, Note_on_c, 0, 49, 106
1, 3862, Note_off_c, 0, 49, 106
1, 3878, Note_on_c, 0, 50, 107
1, 3915, Note_on_c, 0, 53, 109
1, 3915, Note_off_c, 0, 50, 107
1, 3952, Note_off_c, 0, 53, 109
1, 3965, Note_on_c, 0, 57, 113
1, 4002, Note_off_c, 0, 57, 113
1, 4005, Note_on_c, 0, 60, 106
1, 4298, Note_off_c, 0, 60, 106
1, 4621, Note_on_c, 0, 55, 109
1, 4644, Note_off_c, 0, 55, 109
1, 4651, Note_on_c, 0, 53, 122
1, 4684, Note_off_c, 0, 53, 122
1, 4689, Note_on_c, 0, 51, 111
1, 4740, Note_off_c, 0, 51, 111
1, 4840, Note_on_c, 0, 53, 118
1, 4887, Note_off_c, 0, 53, 118
1, 4918, Note_on_c, 0, 58, 115
1, 5008, Note_off_c, 0, 58, 115
1, 5136, Note_on_c, 0, 51, 111
1, 5234, Note_off_c, 0, 51, 111
1, 5235, Note_on_c, 0, 55, 120
1, 5272, Note_off_c, 0, 55, 120
1, 5295, Note_on_c, 0, 58, 120
1, 5405, Note_off_c, 0, 58, 120
1, 5418, Note_on_c, 0, 56, 105
1, 5459, Note_off_c, 0, 56, 105
1, 5620, Note_on_c, 0, 55, 117
1, 5667, Note_off_c, 0, 55, 117
1, 5668, Note_on_c, 0, 58, 113
1, 5975, Note_off_c, 0, 58, 113
1, 6172, Note_on_c, 0, 60, 117
1, 6201, Note_off_c, 0, 60, 117
1, 6208, Note_on_c, 0, 58, 116
1, 6239, Note_off_c, 0, 58, 116
1, 6248, Note_on_c, 0, 57, 112
1, 6340, Note_on_c, 0, 58, 102
1, 6340, Note_off_c, 0, 57, 112
1, 6399, Note_off_c, 0, 58, 102
1, 6422, Note_on_c, 0, 62, 121
1, 6532, Note_off_c, 0, 62, 121
1, 6535, Note_on_c, 0, 65, 106
1, 6594, Note_off_c, 0, 65, 106
1, 6617, Note_on_c, 0, 70, 115
1, 6751, Note_off_c, 0, 70, 115
1, 6768, Note_on_c, 0, 70, 101
1, 7028, Note_off_c, 0, 70, 101
1, 7532, Note_on_c, 0, 67, 120
1, 7620, Note_off_c, 0, 67, 120
1, 7623, Note_on_c, 0, 70, 94
1, 7721, Note_off_c, 0, 70, 94
1, 7722, Note_on_c, 0, 67, 116
1, 7796, Note_off_c, 0, 67, 116
1, 7805, Note_on_c, 0, 68, 104
1, 7901, Note_off_c, 0, 68, 104
1, 7901, Note_on_c, 0, 65, 120
1, 7993, Note_off_c, 0, 65, 120
1, 7994, Note_on_c, 0, 67, 117
1, 8051, Note_on_c, 0, 65, 117
1, 8051, Note_off_c, 0, 67, 117
1, 8094, Note_off_c, 0, 65, 117
1, 8100, Note_on_c, 0, 64, 121
1, 8143, Note_off_c, 0, 64, 121
1, 8156, Note_on_c, 0, 61, 120
1, 8236, Note_off_c, 0, 61, 120
1, 8236, Note_on_c, 0, 58, 102
1, 8478, Note_off_c, 0, 58, 102
1, 8485, Note_on_c, 0, 63, 116
1, 8520, Note_off_c, 0, 63, 116
1, 8532, Note_on_c, 0, 64, 116
1, 8849, Note_off_c, 0, 64, 116
1, 8854, Note_on_c, 0, 62, 111
1, 8887, Note_off_c, 0, 62, 111
1, 8892, Note_on_c, 0, 63, 116
1, 8927, Note_off_c, 0, 63, 116
1, 8932, Note_on_c, 0, 58, 110
1, 9028, Note_off_c, 0, 58, 110
1, 9106, Note_on_c, 0, 63, 115
1, 9281, Note_off_c, 0, 63, 115
1, 9809, Note_on_c, 0, 63, 126
1, 9917, Note_off_c, 0, 63, 126
1, 9918, Note_on_c, 0, 67, 117
1, 10010, Note_off_c, 0, 67, 117
1, 10013, Note_on_c, 0, 69, 117
1, 10101, Note_off_c, 0, 69, 117
1, 10106, Note_on_c, 0, 73, 114
1, 10196, Note_off_c, 0, 73, 114
1, 10199, Note_on_c, 0, 69, 117
1, 10289, Note_off_c, 0, 69, 117
1, 10290, Note_on_c, 0, 65, 115
1, 10408, Note_off_c, 0, 65, 115
1, 10411, Note_on_c, 0, 61, 111
1, 10460, Note_off_c, 0, 61, 111
1, 10461, Note_on_c, 0, 62, 122
1, 10593, Note_off_c, 0, 62, 122
1, 10594, Note_on_c, 0, 70, 104
1, 10878, Note_off_c, 0, 70, 104
1, 11495, Note_on_c, 0, 70, 114
1, 11534, Note_off_c, 0, 70, 114
1, 11537, Note_on_c, 0, 68, 115
1, 11572, Note_off_c, 0, 68, 115
1, 11575, Note_on_c, 0, 67, 115
1, 11610, Note_off_c, 0, 67, 115
1, 11613, Note_on_c, 0, 65, 108
1, 11895, Note_off_c, 0, 65, 108
1, 11900, Note_on_c, 0, 67, 114
1, 11978, Note_off_c, 0, 67, 114
1, 11981, Note_on_c, 0, 63, 127
1, 12097, Note_off_c, 0, 63, 127
1, 12098, Note_on_c, 0, 55, 103
1, 12330, Note_off_c, 0, 55, 103
1, 12663, Note_on_c, 0, 56, 121
1, 12722, Note_off_c, 0, 56, 121
1, 12725, Note_on_c, 0, 54, 111
1, 12823, Note_off_c, 0, 54, 111
1, 12826, Note_on_c, 0, 55, 111
1, 12918, Note_off_c, 0, 55, 111
1, 12921, Note_on_c, 0, 58, 110
1, 13015, Note_off_c, 0, 58, 110
1, 13026, Note_on_c, 0, 62, 122
1, 13102, Note_off_c, 0, 62, 122
1, 13107, Note_on_c, 0, 61, 119
1, 13215, Note_off_c, 0, 61, 119
1, 13220, Note_on_c, 0, 56, 118
1, 13285, Note_off_c, 0, 56, 118
1, 13322, Note_on_c, 0, 53, 107
1, 13408, Note_off_c, 0, 53, 107
1, 13415, Note_on_c, 0, 48, 116
1, 13509, Note_off_c, 0, 48, 116
1, 13512, Note_on_c, 0, 50, 104
1, 13618, Note_off_c, 0, 50, 104
1, 13623, Note_on_c, 0, 58, 114
1, 13818, Note_off_c, 0, 58, 114
1, 14384, Note_on_c, 0, 51, 105
1, 14427, Note_off_c, 0, 51, 105
1, 14428, Note_on_c, 0, 55, 111
1, 14473, Note_off_c, 0, 55, 111
1, 14480, Note_on_c, 0, 58, 110
1, 14517, Note_off_c, 0, 58, 110
1, 14517, Note_on_c, 0, 62, 124
1, 14578, Note_off_c, 0, 62, 124
1, 14583, Note_on_c, 0, 61, 115
1, 14628, Note_off_c, 0, 61, 115
1, 14631, Note_on_c, 0, 57, 113
1, 14895, Note_off_c, 0, 57, 113
1, 14920, Note_on_c, 0, 53, 105
1, 14983, Note_off_c, 0, 53, 105
1, 14988, Note_on_c, 0, 58, 103
1, 15161, Note_off_c, 0, 58, 103
1, 15161, End_track
0, 0, End_of_file
