0, 0, Header, 1, 1, 480
1, 0, Start_track
1, 0, Tempo, 500000
1, 0, Time_signature, 4, 2, 24, 8
1, 0, Key_signature, -4, "major"
1, 0, Note_on_c, 0, 50, 80
1, 500, Note_off_c, 0, 50, 80
1, 520, Note_on_c, 0, 52, 80
1, 1020, Note_off_c, 0, 52, 80
1, 1040, Note_on_c, 0, 53, 80
1, 1540, Note_off_c, 0, 53, 80
1, 1560, Note_on_c, 0, 55, 80
1, 2060, Note_off_c, 0, 55, 80
1, 2080, Note_on_c, 0, 57, 80
1, 2580, Note_off_c, 0, 57, 80
1, 2610, Note_on_c, 0, 55, 80
1, 2860, Note_off_c, 0, 55, 80
1, 2875, Note_on_c, 0, 53, 80
1, 3125, Note_off_c, 0, 53, 80
1, 3140, Note_on_c, 0, 52, 80
1, 3640, Note_off_c, 0, 52, 80
1, 3665, Note_on_c, 0, 50, 80
1, 4165, Note_off_c, 0, 50, 80
1, 4185, Note_on_c, 0, 48, 80
1, 4935, Note_off_c, 0, 48, 80
1, 4965, Note_on_c, 0, 50, 80
1, 5465, Note_off_c, 0, 50, 80
1, 5485, Note_on_c, 0, 52, 80
1, 5985, Note_off_c, 0, 52, 80
1, 6005, Note_on_c, 0, 53, 80
1, 6505, Note_off_c, 0, 53, 80
1, 6525, Note_on_c, 0, 55, 80
1, 6775, Note_off_c, 0, 55, 80
1, 6790, Note_on_c, 0, 57, 80
1, 7040, Note_off_c, 0, 57, 80
1, 7055, Note_on_c, 0, 59, 80
1, 7555, Note_off_c, 0, 59, 80
1, 7580, Note_on_c, 0, 60, 80
1, 8330, Note_off_c, 0, 60, 80
1, 8360, Note_on_c, 0, 57, 80
1, 8860, Note_off_c, 0, 57, 80
1, 8880, Note_on_c, 0, 53, 80
1, 9380, Note_off_c, 0, 53, 80
1, 9400, Note_on_c, 0, 50, 80
1, 9900, Note_off_c, 0, 50, 80
1, 9920, Note_on_c, 0, 52, 80
1, 10420, Note_off_c, 0, 52, 80
1, 10440, Note_on_c, 0, 55, 80
1, 10940, Note_off_c, 0, 55, 80
1, 10960, Note_on_c, 0, 57, 80
1, 11460, Note_off_c, 0, 57, 80
1, 11490, Note_on_c, 0, 55, 80
1, 11740, Note_off_c, 0, 55, 80
1, 11755, Note_on_c, 0, 53, 80
1, 12005, Note_off_c, 0, 53, 80
1, 12020, Note_on_c, 0, 52, 80
1, 12520, Note_off_c, 0, 52, 80
1, 12545, Note_on_c, 0, 50, 80
1, 13045, Note_off_c, 0, 50, 80
1, 13065, Note_on_c, 0, 48, 80
1, 13815, Note_off_c, 0, 48, 80
1, 13845, Note_on_c, 0, 50, 80
1, 14345, Note_off_c, 0, 50, 80
1, 14365, Note_on_c, 0, 52, 80
1, 14865, Note_off_c, 0, 52, 80
1, 14885, Note_on_c, 0, 53, 80
1, 15385, Note_off_c, 0, 53, 80
1, 15405, Note_on_c, 0, 55, 80
1, 15655, Note_off_c, 0, 55, 80
1, 15670, Note_on_c, 0, 57, 80
1, 15920, Note_off_c, 0, 57, 80
1, 15935, Note_on_c, 0, 59, 80
1, 16435, Note_off_c, 0, 59, 80
1, 16460, Note_on_c, 0, 60, 80
1, 17210, Note_off_c, 0, 60, 80
1, 17240, Note_on_c, 0, 57, 80
1, 17740, Note_off_c, 0, 57, 80
1, 17760, Note_on_c, 0, 53, 80
1, 18260, Note_off_c, 0, 53, 80
1, 18280, Note_on_c, 0, 50, 80
1, 18780, Note_off_c, 0, 50, 80
1, 18800, Note_on_c, 0, 52, 80
1, 19300, Note_off_c, 0, 52, 80
1, 19320, Note_on_c, 0, 55, 80
1, 19820, Note_off_c, 0, 55, 80
1, 19840, Note_on_c, 0, 57, 80
1, 20340, Note_off_c, 0, 57, 80
1, 20370, Note_on_c, 0, 55, 80
1, 20620, Note_off_c, 0, 55, 80
1, 20635, Note_on_c, 0, 53, 80
1, 20885, Note_off_c, 0, 53, 80
1, 20900, Note_on_c, 0, 52, 80
1, 21400, Note_off_c, 0, 52, 80
1, 21425, Note_on_c, 0, 50, 80
1, 21925, Note_off_c, 0, 50, 80
1, 21945, Note_on_c, 0, 48, 80
1, 22695, Note_off_c, 0, 48, 80
1, 22725, Note_on_c, 0, 50, 80
1, 23225, Note_off_c, 0, 50, 80
1, 23245, Note_on_c, 0, 52, 80
1, 23745, Note_off_c, 0, 52, 80
1, 23765, Note_on_c, 0, 53, 80
1, 24265, Note_off_c, 0, 53, 80
1, 24285, Note_on_c, 0, 55, 80
1, 24535, Note_off_c, 0, 55, 80
1, 24550, Note_on_c, 0, 57, 80
1, 24800, Note_off_c, 0, 57, 80
1, 24815, Note_on_c, 0, 59, 80
1, 25315, Note_off_c, 0, 59, 80
1, 25340, Note_on_c, 0, 60, 80
1, 26090, Note_off_c, 0, 60, 80
1, 26120, Note_on_c, 0, 57, 80
1, 26620, Note_off_c, 0, 57, 80
1, 26640, Note_on_c, 0, 53, 80
1, 27140, Note_off_c, 0, 53, 80
1, 27160, Note_on_c, 0, 50, 80
1, 27660, Note_off_c, 0, 50, 80
1, 27680, Note_on_c, 0, 52, 80
1, 28180, Note_off_c, 0, 52, 80
1, 28200, Note_on_c, 0, 55, 80
1, 28700, Note_off_c, 0, 55, 80
1, 28720, Note_on_c, 0, 57, 80
1, 29220, Note_off_c, 0, 57, 80
1, 29250, Note_on_c, 0, 55, 80
1, 29500, Note_off_c, 0, 55, 80
1, 29515, Note_on_c, 0, 53, 80
1, 29765, Note_off_c, 0, 53, 80
1, 29780, Note_on_c, 0, 52, 80
1, 30280, Note_off_c, 0, 52, 80
1, 30305, Note_on_c, 0, 50, 80
1, 30805, Note_off_c, 0, 50, 80
1, 30826, End_track
0, 0, End_of_file