0, 0, Header, 1, 4, 480
1, 0, Start_track
1, 0, Tempo, 500000
1, 0, Time_signature, 4, 2, 24, 8
1, 0, Key_signature, -2, "major"
1, 1, End_track
2, 0, Start_track
2, 0, Title_t, "Piano, Piano, Piano\000"
2, 0, Program_c, 0, 0
2, 0, Control_c, 0, 7, 100
2, 0, Control_c, 0, 10, 64
2, 0, Control_c, 0, 91, 0
2, 0, Note_on_c, 0, 57, 80
2, 303, Note_on_c, 0, 57, 0
2, 320, Note_on_c, 0, 64, 80
2, 699, Note_on_c, 0, 64, 0
2, 720, Note_on_c, 0, 64, 80
2, 1745, Note_on_c, 0, 64, 0
2, 1920, Note_on_c, 0, 57, 80
2, 2223, Note_on_c, 0, 57, 0
2, 2240, Note_on_c, 0, 62, 80
2, 2619, Note_on_c, 0, 62, 0
2, 2640, Note_on_c, 0, 62, 80
2, 3665, Note_on_c, 0, 62, 0
2, 4160, Note_on_c, 0, 55, 80
2, 4311, Note_on_c, 0, 55, 0
2, 4320, Note_on_c, 0, 57, 80
2, 4623, Note_on_c, 0, 57, 0
2, 4640, Note_on_c, 0, 55, 80
2, 4791, Note_on_c, 0, 55, 0
2, 4800, Note_on_c, 0, 59, 80
2, 5103, Note_on_c, 0, 59, 0
2, 5120, Note_on_c, 0, 55, 80
2, 5271, Note_on_c, 0, 55, 0
2, 5280, Note_on_c, 0, 57, 80
2, 5583, Note_on_c, 0, 57, 0
2, 5600, Note_on_c, 0, 55, 80
2, 5751, Note_on_c, 0, 55, 0
2, 5760, Note_on_c, 0, 60, 80
2, 6063, Note_on_c, 0, 60, 0
2, 6080, Note_on_c, 0, 52, 80
2, 6459, Note_on_c, 0, 52, 0
2, 6480, Note_on_c, 0, 55, 80
2, 7505, Note_on_c, 0, 55, 0
2, 7506, End_track
3, 0, Start_track
3, 0, Title_t, "Piano, Piano, Piano\000"
3, 0, Program_c, 1, 0
3, 0, Control_c, 1, 7, 88
3, 0, Control_c, 1, 10, 64
3, 0, Control_c, 1, 91, 0
3, 0, Note_on_c, 1, 50, 80
3, 0, Note_on_c, 1, 52, 80
3, 0, Note_on_c, 1, 54, 80
3, 0, Note_on_c, 1, 57, 80
3, 0, Note_on_c, 1, 60, 80
3, 1823, Note_on_c, 1, 50, 0
3, 1823, Note_on_c, 1, 52, 0
3, 1823, Note_on_c, 1, 54, 0
3, 1823, Note_on_c, 1, 57, 0
3, 1823, Note_on_c, 1, 60, 0
3, 1920, Note_on_c, 1, 50, 80
3, 1920, Note_on_c, 1, 53, 80
3, 1920, Note_on_c, 1, 55, 80
3, 1920, Note_on_c, 1, 57, 80
3, 1920, Note_on_c, 1, 59, 80
3, 3743, Note_on_c, 1, 50, 0
3, 3743, Note_on_c, 1, 53, 0
3, 3743, Note_on_c, 1, 55, 0
3, 3743, Note_on_c, 1, 57, 0
3, 3743, Note_on_c, 1, 59, 0
3, 3840, Note_on_c, 1, 52, 80
3, 3840, Note_on_c, 1, 55, 80
3, 3840, Note_on_c, 1, 57, 80
3, 3840, Note_on_c, 1, 60, 80
3, 5663, Note_on_c, 1, 52, 0
3, 5663, Note_on_c, 1, 55, 0
3, 5663, Note_on_c, 1, 57, 0
3, 5663, Note_on_c, 1, 60, 0
3, 5760, Note_on_c, 1, 52, 80
3, 5760, Note_on_c, 1, 55, 80
3, 5760, Note_on_c, 1, 58, 80
3, 5760, Note_on_c, 1, 60, 80
3, 7583, Note_on_c, 1, 52, 0
3, 7583, Note_on_c, 1, 55, 0
3, 7583, Note_on_c, 1, 58, 0
3, 7583, Note_on_c, 1, 60, 0
3, 7584, End_track
4, 0, Start_track
4, 0, Title_t, "Piano, Piano, Piano\000"
4, 0, Program_c, 2, 0
4, 0, Note_on_c, 2, 26, 80
4, 1823, Note_on_c, 2, 26, 0
4, 1920, Note_on_c, 2, 31, 80
4, 3743, Note_on_c, 2, 31, 0
4, 3840, Note_on_c, 2, 36, 80
4, 5663, Note_on_c, 2, 36, 0
4, 5760, Note_on_c, 2, 36, 80
4, 7583, Note_on_c, 2, 36, 0
4, 7584, End_track
0, 0, End_of_file
