0, 0, Header, 1, 4, 480
1, 0, Start_track
1, 0, Tempo, 500000
1, 0, Time_signature, 4, 2, 24, 8
1, 0, Key_signature, -4, "major"
1, 1, End_track
2, 0, Start_track
2, 0, Title_t, "Piano, Piano, Piano, Piano\000"
2, 0, Program_c, 0, 0
2, 0, Control_c, 0, 7, 100
2, 0, Control_c, 0, 10, 64
2, 0, Control_c, 0, 91, 0
2, 0, Note_on_c, 0, 66, 80
2, 683, Note_on_c, 0, 66, 0
2, 720, Note_on_c, 0, 64, 80
2, 947, Note_on_c, 0, 64, 0
2, 960, Note_on_c, 0, 64, 80
2, 2327, Note_on_c, 0, 64, 0
2, 2400, Note_on_c, 0, 55, 80
2, 2855, Note_on_c, 0, 55, 0
2, 2880, Note_on_c, 0, 56, 80
2, 3335, Note_on_c, 0, 56, 0
2, 3360, Note_on_c, 0, 64, 80
2, 3815, Note_on_c, 0, 64, 0
2, 3840, Note_on_c, 0, 63, 80
2, 5663, Note_on_c, 0, 63, 0
2, 6240, Note_on_c, 0, 54, 80
2, 6695, Note_on_c, 0, 54, 0
2, 6720, Note_on_c, 0, 59, 80
2, 7175, Note_on_c, 0, 59, 0
2, 7200, Note_on_c, 0, 63, 80
2, 7655, Note_on_c, 0, 63, 0
2, 7656, End_track
3, 0, Start_track
3, 0, Title_t, "Piano, Piano, Piano\000"
3, 0, Program_c, 1, 0
3, 0, Control_c, 1, 7, 100
3, 0, Control_c, 1, 10, 64
3, 0, Control_c, 1, 91, 0
3, 0, Note_on_c, 1, 52, 80
3, 0, Note_on_c, 1, 56, 80
3, 0, Note_on_c, 1, 59, 80
3, 0, Note_on_c, 1, 61, 80
3, 1823, Note_on_c, 1, 52, 0
3, 1823, Note_on_c, 1, 56, 0
3, 1823, Note_on_c, 1, 59, 0
3, 1823, Note_on_c, 1, 61, 0
3, 1920, Note_on_c, 1, 52, 80
3, 1920, Note_on_c, 1, 54, 80
3, 1920, Note_on_c, 1, 58, 80
3, 1920, Note_on_c, 1, 61, 80
3, 3743, Note_on_c, 1, 52, 0
3, 3743, Note_on_c, 1, 54, 0
3, 3743, Note_on_c, 1, 58, 0
3, 3743, Note_on_c, 1, 61, 0
3, 3840, Note_on_c, 1, 54, 80
3, 3840, Note_on_c, 1, 58, 80
3, 3840, Note_on_c, 1, 59, 80
3, 3840, Note_on_c, 1, 63, 80
3, 7487, Note_on_c, 1, 54, 0
3, 7487, Note_on_c, 1, 58, 0
3, 7487, Note_on_c, 1, 59, 0
3, 7487, Note_on_c, 1, 63, 0
3, 7488, End_track
4, 0, Start_track
4, 0, Title_t, "Piano, Piano, Piano\000"
4, 0, Program_c, 2, 0
4, 0, Note_on_c, 2, 37, 80
4, 1823, Note_on_c, 2, 37, 0
4, 1920, Note_on_c, 2, 30, 80
4, 3743, Note_on_c, 2, 30, 0
4, 3840, Note_on_c, 2, 35, 80
4, 7487, Note_on_c, 2, 35, 0
4, 7488, End_track
0, 0, End_of_file
