0, 0, Header, 1, 4, 480
1, 0, Start_track
1, 0, Tempo, 500000
1, 0, Time_signature, 4, 2, 24, 8
1, 0, Key_signature, 0, "major"
1, 1, End_track
2, 0, Start_track
2, 0, Title_t, "Piano, Piano, Melody\000"
2, 0, Program_c, 0, 0
2, 0, Control_c, 0, 7, 100
2, 0, Control_c, 0, 10, 64
2, 0, Control_c, 0, 91, 0
2, 0, Note_on_c, 0, 69, 80
2, 227, Note_on_c, 0, 69, 0
2, 240, Note_on_c, 0, 67, 80
2, 467, Note_on_c, 0, 67, 0
2, 480, Note_on_c, 0, 67, 80
2, 1847, Note_on_c, 0, 67, 0
2, 3840, Note_on_c, 0, 69, 80
2, 4067, Note_on_c, 0, 69, 0
2, 4080, Note_on_c, 0, 67, 80
2, 4307, Note_on_c, 0, 67, 0
2, 4320, Note_on_c, 0, 67, 80
2, 7511, Note_on_c, 0, 67, 0
2, 7512, End_track
3, 0, Start_track
3, 0, Title_t, "Piano, Piano\000"
3, 0, Program_c, 1, 0
3, 0, Control_c, 1, 7, 100
3, 0, Control_c, 1, 10, 64
3, 0, Control_c, 1, 91, 0
3, 0, Note_on_c, 1, 60, 80
3, 0, Note_on_c, 1, 61, 80
3, 0, Note_on_c, 1, 64, 80
3, 0, Note_on_c, 1, 67, 80
3, 0, Note_on_c, 1, 70, 80
3, 1823, Note_on_c, 1, 60, 0
3, 1823, Note_on_c, 1, 61, 0
3, 1823, Note_on_c, 1, 64, 0
3, 1823, Note_on_c, 1, 67, 0
3, 1823, Note_on_c, 1, 70, 0
3, 1920, Note_on_c, 1, 60, 80
3, 1920, Note_on_c, 1, 64, 80
3, 1920, Note_on_c, 1, 65, 80
3, 1920, Note_on_c, 1, 69, 80
3, 2831, Note_on_c, 1, 60, 0
3, 2831, Note_on_c, 1, 64, 0
3, 2831, Note_on_c, 1, 65, 0
3, 2831, Note_on_c, 1, 69, 0
3, 2880, Note_on_c, 1, 62, 80
3, 3791, Note_on_c, 1, 62, 0
3, 3840, Note_on_c, 1, 60, 80
3, 3840, Note_on_c, 1, 61, 80
3, 3840, Note_on_c, 1, 64, 80
3, 3840, Note_on_c, 1, 67, 80
3, 3840, Note_on_c, 1, 70, 80
3, 5663, Note_on_c, 1, 60, 0
3, 5663, Note_on_c, 1, 61, 0
3, 5663, Note_on_c, 1, 64, 0
3, 5663, Note_on_c, 1, 67, 0
3, 5663, Note_on_c, 1, 70, 0
3, 5760, Note_on_c, 1, 60, 80
3, 5760, Note_on_c, 1, 62, 80
3, 5760, Note_on_c, 1, 64, 80
3, 5760, Note_on_c, 1, 67, 80
3, 5760, Note_on_c, 1, 71, 80
3, 7583, Note_on_c, 1, 60, 0
3, 7583, Note_on_c, 1, 62, 0
3, 7583, Note_on_c, 1, 64, 0
3, 7583, Note_on_c, 1, 67, 0
3, 7583, Note_on_c, 1, 71, 0
3, 7584, End_track
4, 0, Start_track
4, 0, Title_t, "Piano, Piano\000"
4, 0, Program_c, 2, 0
4, 0, Note_on_c, 2, 36, 80
4, 1823, Note_on_c, 2, 36, 0
4, 1920, Note_on_c, 2, 38, 80
4, 3743, Note_on_c, 2, 38, 0
4, 3840, Note_on_c, 2, 36, 80
4, 5663, Note_on_c, 2, 36, 0
4, 5760, Note_on_c, 2, 36, 80
4, 7583, Note_on_c, 2, 36, 0
4, 7584, End_track
0, 0, End_of_file
