0, 0, Header, 1, 4, 480
1, 0, Start_track
1, 0, Tempo, 500000
1, 0, Time_signature, 4, 2, 24, 8
1, 0, Key_signature, -1, "major"
1, 1, End_track
2, 0, Start_track
2, 0, Title_t, "Piano, Piano, Melody\000"
2, 0, Program_c, 0, 0
2, 0, Control_c, 0, 7, 100
2, 0, Control_c, 0, 10, 64
2, 0, Control_c, 0, 91, 0
2, 0, Note_on_c, 0, 69, 80
2, 227, Note_on_c, 0, 69, 0
2, 240, Note_on_c, 0, 69, 80
2, 2291, Note_on_c, 0, 69, 0
2, 2292, End_track
3, 0, Start_track
3, 0, Title_t, "Piano, Piano\000"
3, 0, Program_c, 1, 0
3, 0, Control_c, 1, 7, 100
3, 0, Control_c, 1, 10, 64
3, 0, Control_c, 1, 91, 0
3, 0, Note_on_c, 1, 57, 80
3, 0, Note_on_c, 1, 60, 80
3, 0, Note_on_c, 1, 64, 80
3, 0, Note_on_c, 1, 66, 80
3, 3647, Note_on_c, 1, 57, 0
3, 3647, Note_on_c, 1, 60, 0
3, 3647, Note_on_c, 1, 64, 0
3, 3647, Note_on_c, 1, 66, 0
3, 3648, End_track
4, 0, Start_track
4, 0, Title_t, "Piano, Piano\000"
4, 0, Program_c, 2, 0
4, 0, Note_on_c, 2, 33, 80
4, 3647, Note_on_c, 2, 33, 0
4, 3648, End_track
0, 0, End_of_file
