0, 0, Header, 1, 3, 480
1, 0, Start_track
1, 0, Title_t, "Piano, Piano, Piano, Piano, Melody\000"
1, 0, Time_signature, 4, 2, 24, 8
1, 0, Key_signature, 1, "major"
1, 0, Tempo, 500000
1, 0, Control_c, 0, 121, 0
1, 0, Program_c, 0, 0
1, 0, Control_c, 0, 7, 100
1, 0, Control_c, 0, 10, 64
1, 0, Control_c, 0, 91, 0
1, 0, Control_c, 0, 93, 0
1, 0, MIDI_port, 0
1, 360, Note_on_c, 0, 59, 80
1, 473, Note_on_c, 0, 59, 0
1, 480, Note_on_c, 0, 61, 80
1, 821, Note_on_c, 0, 61, 0
1, 840, Note_on_c, 0, 63, 80
1, 953, Note_on_c, 0, 63, 0
1, 960, Note_on_c, 0, 64, 80
1, 1301, Note_on_c, 0, 64, 0
1, 1320, Note_on_c, 0, 66, 80
1, 1433, Note_on_c, 0, 66, 0
1, 1440, Note_on_c, 0, 68, 80
1, 1781, Note_on_c, 0, 68, 0
1, 1800, Note_on_c, 0, 69, 80
1, 1913, Note_on_c, 0, 69, 0
1, 1920, Note_on_c, 0, 71, 80
1, 2147, Note_on_c, 0, 71, 0
1, 2160, Note_on_c, 0, 71, 80
1, 2615, Note_on_c, 0, 71, 0
1, 2640, Note_on_c, 0, 68, 80
1, 3551, Note_on_c, 0, 68, 0
1, 3600, Note_on_c, 0, 68, 80
1, 3827, Note_on_c, 0, 68, 0
1, 3840, Note_on_c, 0, 66, 80
1, 4295, Note_on_c, 0, 66, 0
1, 4320, Note_on_c, 0, 66, 80
1, 4775, Note_on_c, 0, 66, 0
1, 4800, Note_on_c, 0, 64, 80
1, 5483, Note_on_c, 0, 64, 0
1, 5520, Note_on_c, 0, 64, 80
1, 5747, Note_on_c, 0, 64, 0
1, 5760, Note_on_c, 0, 69, 80
1, 6215, Note_on_c, 0, 69, 0
1, 6240, Note_on_c, 0, 69, 80
1, 6695, Note_on_c, 0, 69, 0
1, 6720, Note_on_c, 0, 67, 80
1, 7403, Note_on_c, 0, 67, 0
1, 7440, Note_on_c, 0, 55, 80
1, 7667, Note_on_c, 0, 55, 0
1, 7668, End_track
2, 0, Start_track
2, 0, Title_t, "Piano, Piano, Piano, Piano\000"
2, 0, Key_signature, 1, "major"
2, 0, Control_c, 1, 121, 0
2, 0, Program_c, 1, 0
2, 0, Control_c, 1, 7, 100
2, 0, Control_c, 1, 10, 64
2, 0, Control_c, 1, 91, 0
2, 0, Control_c, 1, 93, 0
2, 0, MIDI_port, 0
2, 0, Note_on_c, 1, 59, 80
2, 0, Note_on_c, 1, 63, 80
2, 0, Note_on_c, 1, 64, 80
2, 0, Note_on_c, 1, 68, 80
2, 911, Note_on_c, 1, 59, 0
2, 911, Note_on_c, 1, 63, 0
2, 911, Note_on_c, 1, 64, 0
2, 911, Note_on_c, 1, 68, 0
2, 960, Note_on_c, 1, 59, 80
2, 960, Note_on_c, 1, 61, 80
2, 960, Note_on_c, 1, 64, 80
2, 960, Note_on_c, 1, 68, 80
2, 1871, Note_on_c, 1, 59, 0
2, 1871, Note_on_c, 1, 61, 0
2, 1871, Note_on_c, 1, 64, 0
2, 1871, Note_on_c, 1, 68, 0
2, 1920, Note_on_c, 1, 57, 80
2, 1920, Note_on_c, 1, 61, 80
2, 1920, Note_on_c, 1, 64, 80
2, 1920, Note_on_c, 1, 66, 80
2, 2831, Note_on_c, 1, 57, 0
2, 2831, Note_on_c, 1, 61, 0
2, 2831, Note_on_c, 1, 64, 0
2, 2831, Note_on_c, 1, 66, 0
2, 2880, Note_on_c, 1, 57, 80
2, 2880, Note_on_c, 1, 59, 80
2, 2880, Note_on_c, 1, 63, 80
2, 2880, Note_on_c, 1, 66, 80
2, 3791, Note_on_c, 1, 57, 0
2, 3791, Note_on_c, 1, 59, 0
2, 3791, Note_on_c, 1, 63, 0
2, 3791, Note_on_c, 1, 66, 0
2, 3840, Note_on_c, 1, 59, 80
2, 3840, Note_on_c, 1, 63, 80
2, 3840, Note_on_c, 1, 66, 80
2, 3840, Note_on_c, 1, 68, 80
2, 4751, Note_on_c, 1, 59, 0
2, 4751, Note_on_c, 1, 63, 0
2, 4751, Note_on_c, 1, 66, 0
2, 4751, Note_on_c, 1, 68, 0
2, 4800, Note_on_c, 1, 58, 80
2, 4800, Note_on_c, 1, 61, 80
2, 4800, Note_on_c, 1, 64, 80
2, 4800, Note_on_c, 1, 67, 80
2, 5711, Note_on_c, 1, 58, 0
2, 5711, Note_on_c, 1, 61, 0
2, 5711, Note_on_c, 1, 64, 0
2, 5711, Note_on_c, 1, 67, 0
2, 5760, Note_on_c, 1, 57, 80
2, 5760, Note_on_c, 1, 60, 80
2, 5760, Note_on_c, 1, 62, 80
2, 5760, Note_on_c, 1, 65, 80
2, 6671, Note_on_c, 1, 57, 0
2, 6671, Note_on_c, 1, 60, 0
2, 6671, Note_on_c, 1, 62, 0
2, 6671, Note_on_c, 1, 65, 0
2, 6720, Note_on_c, 1, 59, 80
2, 6720, Note_on_c, 1, 62, 80
2, 6720, Note_on_c, 1, 65, 80
2, 6720, Note_on_c, 1, 67, 80
2, 7631, Note_on_c, 1, 59, 0
2, 7631, Note_on_c, 1, 62, 0
2, 7631, Note_on_c, 1, 65, 0
2, 7631, Note_on_c, 1, 67, 0
2, 7632, End_track
3, 0, Start_track
3, 0, Title_t, "Piano, Piano, Piano, Piano\000"
3, 0, Key_signature, 1, "major"
3, 0, Control_c, 2, 121, 0
3, 0, Program_c, 2, 0
3, 0, Control_c, 2, 7, 100
3, 0, Control_c, 2, 10, 64
3, 0, Control_c, 2, 91, 0
3, 0, Control_c, 2, 93, 0
3, 0, MIDI_port, 0
3, 0, Note_on_c, 2, 40, 80
3, 911, Note_on_c, 2, 40, 0
3, 960, Note_on_c, 2, 37, 80
3, 1871, Note_on_c, 2, 37, 0
3, 1920, Note_on_c, 2, 42, 80
3, 2831, Note_on_c, 2, 42, 0
3, 2880, Note_on_c, 2, 35, 80
3, 3791, Note_on_c, 2, 35, 0
3, 3840, Note_on_c, 2, 44, 80
3, 4751, Note_on_c, 2, 44, 0
3, 4800, Note_on_c, 2, 37, 80
3, 5711, Note_on_c, 2, 37, 0
3, 5760, Note_on_c, 2, 38, 80
3, 6671, Note_on_c, 2, 38, 0
3, 6720, Note_on_c, 2, 43, 80
3, 7631, Note_on_c, 2, 43, 0
3, 7632, End_track
0, 0, End_of_file
