0, 0, Header, 1, 4, 480
1, 0, Start_track
1, 0, Tempo, 500000
1, 0, Time_signature, 4, 2, 24, 8
1, 0, Key_signature, 0, "major"
1, 1, End_track
2, 0, Start_track
2, 0, Title_t, "Piano, Piano, Melody\000"
2, 0, Program_c, 0, 0
2, 0, Control_c, 0, 7, 100
2, 0, Control_c, 0, 10, 64
2, 0, Control_c, 0, 91, 0
2, 0, Note_on_c, 0, 69, 80
2, 455, Note_on_c, 0, 69, 0
2, 480, Note_on_c, 0, 68, 80
2, 935, Note_on_c, 0, 68, 0
2, 960, Note_on_c, 0, 69, 80
2, 1415, Note_on_c, 0, 69, 0
2, 1440, Note_on_c, 0, 71, 80
2, 1895, Note_on_c, 0, 71, 0
2, 1920, Note_on_c, 0, 69, 80
2, 2223, Note_on_c, 0, 69, 0
2, 2240, Note_on_c, 0, 68, 80
2, 2543, Note_on_c, 0, 68, 0
2, 2560, Note_on_c, 0, 67, 80
2, 2863, Note_on_c, 0, 67, 0
2, 2880, Note_on_c, 0, 66, 80
2, 3335, Note_on_c, 0, 66, 0
2, 3360, Note_on_c, 0, 65, 80
2, 3815, Note_on_c, 0, 65, 0
2, 3840, Note_on_c, 0, 64, 80
2, 4751, Note_on_c, 0, 64, 0
2, 4800, Note_on_c, 0, 64, 80
2, 7079, Note_on_c, 0, 64, 0
2, 7200, Note_on_c, 0, 64, 80
2, 7655, Note_on_c, 0, 64, 0
2, 7656, End_track
3, 0, Start_track
3, 0, Title_t, "Piano, Piano\000"
3, 0, Program_c, 1, 0
3, 0, Control_c, 1, 7, 100
3, 0, Control_c, 1, 10, 64
3, 0, Control_c, 1, 91, 0
3, 0, Note_on_c, 1, 60, 80
3, 0, Note_on_c, 1, 64, 80
3, 0, Note_on_c, 1, 67, 80
3, 3191, Note_on_c, 1, 60, 0
3, 3191, Note_on_c, 1, 64, 0
3, 3191, Note_on_c, 1, 67, 0
3, 3360, Note_on_c, 1, 60, 80
3, 3360, Note_on_c, 1, 65, 80
3, 3360, Note_on_c, 1, 69, 80
3, 3815, Note_on_c, 1, 60, 0
3, 3815, Note_on_c, 1, 65, 0
3, 3815, Note_on_c, 1, 69, 0
3, 3840, Note_on_c, 1, 62, 80
3, 3840, Note_on_c, 1, 64, 80
3, 3840, Note_on_c, 1, 68, 80
3, 3840, Note_on_c, 1, 71, 80
3, 5207, Note_on_c, 1, 62, 0
3, 5207, Note_on_c, 1, 64, 0
3, 5207, Note_on_c, 1, 68, 0
3, 5207, Note_on_c, 1, 71, 0
3, 5280, Note_on_c, 1, 62, 80
3, 5280, Note_on_c, 1, 64, 80
3, 5280, Note_on_c, 1, 68, 80
3, 5280, Note_on_c, 1, 70, 80
3, 5735, Note_on_c, 1, 62, 0
3, 5735, Note_on_c, 1, 64, 0
3, 5735, Note_on_c, 1, 68, 0
3, 5735, Note_on_c, 1, 70, 0
3, 5760, Note_on_c, 1, 60, 80
3, 5760, Note_on_c, 1, 62, 80
3, 5760, Note_on_c, 1, 65, 80
3, 5760, Note_on_c, 1, 69, 80
3, 6671, Note_on_c, 1, 60, 0
3, 6671, Note_on_c, 1, 62, 0
3, 6671, Note_on_c, 1, 65, 0
3, 6671, Note_on_c, 1, 69, 0
3, 6720, Note_on_c, 1, 60, 80
3, 6720, Note_on_c, 1, 62, 80
3, 6720, Note_on_c, 1, 64, 80
3, 6720, Note_on_c, 1, 65, 80
3, 6720, Note_on_c, 1, 67, 80
3, 6720, Note_on_c, 1, 69, 80
3, 6720, Note_on_c, 1, 71, 80
3, 7631, Note_on_c, 1, 60, 0
3, 7631, Note_on_c, 1, 62, 0
3, 7631, Note_on_c, 1, 64, 0
3, 7631, Note_on_c, 1, 65, 0
3, 7631, Note_on_c, 1, 67, 0
3, 7631, Note_on_c, 1, 69, 0
3, 7631, Note_on_c, 1, 71, 0
3, 7632, End_track
4, 0, Start_track
4, 0, Title_t, "Piano, Piano\000"
4, 0, Program_c, 2, 0
4, 0, Note_on_c, 2, 36, 80
4, 3191, Note_on_c, 2, 36, 0
4, 3360, Note_on_c, 2, 41, 80
4, 3815, Note_on_c, 2, 41, 0
4, 3840, Note_on_c, 2, 40, 80
4, 5207, Note_on_c, 2, 40, 0
4, 5280, Note_on_c, 2, 40, 80
4, 5735, Note_on_c, 2, 40, 0
4, 5760, Note_on_c, 2, 38, 80
4, 6671, Note_on_c, 2, 38, 0
4, 6720, Note_on_c, 2, 43, 80
4, 7631, Note_on_c, 2, 43, 0
4, 7632, End_track
0, 0, End_of_file
