0, 0, Header, 1, 4, 480
1, 0, Start_track
1, 0, Tempo, 500000
1, 0, Time_signature, 4, 2, 24, 8
1, 0, Key_signature, -4, "major"
1, 1, End_track
2, 0, Start_track
2, 0, Title_t, "Piano, Piano, Piano, Piano\000"
2, 0, Program_c, 0, 0
2, 0, Control_c, 0, 7, 100
2, 0, Control_c, 0, 10, 64
2, 0, Control_c, 0, 91, 0
2, 0, Note_on_c, 0, 55, 80
2, 1823, Note_on_c, 0, 55, 0
2, 1920, Note_on_c, 0, 60, 80
2, 3287, Note_on_c, 0, 60, 0
2, 3360, Note_on_c, 0, 55, 80
2, 3815, Note_on_c, 0, 55, 0
2, 3840, Note_on_c, 0, 54, 80
2, 4295, Note_on_c, 0, 54, 0
2, 4320, Note_on_c, 0, 54, 80
2, 4775, Note_on_c, 0, 54, 0
2, 4800, Note_on_c, 0, 54, 80
2, 5255, Note_on_c, 0, 54, 0
2, 5280, Note_on_c, 0, 54, 80
2, 5735, Note_on_c, 0, 54, 0
2, 5760, Note_on_c, 0, 54, 80
2, 6215, Note_on_c, 0, 54, 0
2, 6240, Note_on_c, 0, 59, 80
2, 7151, Note_on_c, 0, 59, 0
2, 7200, Note_on_c, 0, 54, 80
2, 7655, Note_on_c, 0, 54, 0
2, 7656, End_track
3, 0, Start_track
3, 0, Title_t, "Piano, Piano, Piano\000"
3, 0, Program_c, 1, 0
3, 0, Control_c, 1, 7, 100
3, 0, Control_c, 1, 10, 64
3, 0, Control_c, 1, 91, 0
3, 0, Note_on_c, 1, 52, 80
3, 0, Note_on_c, 1, 55, 80
3, 0, Note_on_c, 1, 59, 80
3, 0, Note_on_c, 1, 62, 80
3, 1823, Note_on_c, 1, 52, 0
3, 1823, Note_on_c, 1, 55, 0
3, 1823, Note_on_c, 1, 59, 0
3, 1823, Note_on_c, 1, 62, 0
3, 1920, Note_on_c, 1, 52, 80
3, 1920, Note_on_c, 1, 55, 80
3, 1920, Note_on_c, 1, 57, 80
3, 1920, Note_on_c, 1, 60, 80
3, 3743, Note_on_c, 1, 52, 0
3, 3743, Note_on_c, 1, 55, 0
3, 3743, Note_on_c, 1, 57, 0
3, 3743, Note_on_c, 1, 60, 0
3, 3840, Note_on_c, 1, 54, 80
3, 3840, Note_on_c, 1, 57, 80
3, 3840, Note_on_c, 1, 60, 80
3, 3840, Note_on_c, 1, 62, 80
3, 5663, Note_on_c, 1, 54, 0
3, 5663, Note_on_c, 1, 57, 0
3, 5663, Note_on_c, 1, 60, 0
3, 5663, Note_on_c, 1, 62, 0
3, 5760, Note_on_c, 1, 54, 80
3, 5760, Note_on_c, 1, 55, 80
3, 5760, Note_on_c, 1, 59, 80
3, 5760, Note_on_c, 1, 62, 80
3, 7583, Note_on_c, 1, 54, 0
3, 7583, Note_on_c, 1, 55, 0
3, 7583, Note_on_c, 1, 59, 0
3, 7583, Note_on_c, 1, 62, 0
3, 7584, End_track
4, 0, Start_track
4, 0, Title_t, "Piano, Piano, Piano\000"
4, 0, Program_c, 2, 0
4, 0, Note_on_c, 2, 28, 80
4, 1823, Note_on_c, 2, 28, 0
4, 1920, Note_on_c, 2, 33, 80
4, 3743, Note_on_c, 2, 33, 0
4, 3840, Note_on_c, 2, 38, 80
4, 5663, Note_on_c, 2, 38, 0
4, 5760, Note_on_c, 2, 31, 80
4, 7583, Note_on_c, 2, 31, 0
4, 7584, End_track
0, 0, End_of_file
