0, 0, Header, 1, 4, 480
1, 0, Start_track
1, 0, Tempo, 500000
1, 0, Time_signature, 4, 2, 24, 8
1, 0, Key_signature, -3, "major"
1, 1, End_track
2, 0, Start_track
2, 0, Title_t, "Piano, Piano, Piano, MusicXML Part\000"
2, 0, Program_c, 0, 0
2, 0, Control_c, 0, 7, 100
2, 0, Control_c, 0, 10, 64
2, 0, Control_c, 0, 91, 0
2, 0, Note_on_c, 0, 74, 80
2, 341, Note_on_c, 0, 74, 0
2, 360, Note_on_c, 0, 72, 80
2, 473, Note_on_c, 0, 72, 0
2, 480, Note_on_c, 0, 71, 80
2, 821, Note_on_c, 0, 71, 0
2, 840, Note_on_c, 0, 69, 80
2, 953, Note_on_c, 0, 69, 0
2, 960, Note_on_c, 0, 71, 80
2, 1415, Note_on_c, 0, 71, 0
2, 1440, Note_on_c, 0, 72, 80
2, 1895, Note_on_c, 0, 72, 0
2, 1920, Note_on_c, 0, 67, 80
2, 2375, Note_on_c, 0, 67, 0
2, 2400, Note_on_c, 0, 67, 80
2, 2855, Note_on_c, 0, 67, 0
2, 2880, Note_on_c, 0, 60, 80
2, 3335, Note_on_c, 0, 60, 0
2, 3360, Note_on_c, 0, 62, 80
2, 3815, Note_on_c, 0, 62, 0
2, 3840, Note_on_c, 0, 60, 80
2, 6575, Note_on_c, 0, 60, 0
2, 6576, End_track
3, 0, Start_track
3, 0, Title_t, "Piano, Piano, Piano\000"
3, 0, Program_c, 1, 0
3, 0, Control_c, 1, 7, 100
3, 0, Control_c, 1, 10, 64
3, 0, Control_c, 1, 91, 0
3, 0, Note_on_c, 1, 57, 80
3, 0, Note_on_c, 1, 60, 80
3, 0, Note_on_c, 1, 62, 80
3, 0, Note_on_c, 1, 66, 80
3, 911, Note_on_c, 1, 57, 0
3, 911, Note_on_c, 1, 60, 0
3, 911, Note_on_c, 1, 62, 0
3, 911, Note_on_c, 1, 66, 0
3, 960, Note_on_c, 1, 57, 80
3, 960, Note_on_c, 1, 63, 80
3, 960, Note_on_c, 1, 66, 80
3, 1871, Note_on_c, 1, 57, 0
3, 1871, Note_on_c, 1, 63, 0
3, 1871, Note_on_c, 1, 66, 0
3, 1920, Note_on_c, 1, 57, 80
3, 1920, Note_on_c, 1, 60, 80
3, 1920, Note_on_c, 1, 62, 80
3, 1920, Note_on_c, 1, 65, 80
3, 2831, Note_on_c, 1, 57, 0
3, 2831, Note_on_c, 1, 60, 0
3, 2831, Note_on_c, 1, 62, 0
3, 2831, Note_on_c, 1, 65, 0
3, 2880, Note_on_c, 1, 59, 80
3, 2880, Note_on_c, 1, 62, 80
3, 2880, Note_on_c, 1, 65, 80
3, 2880, Note_on_c, 1, 67, 80
3, 3791, Note_on_c, 1, 59, 0
3, 3791, Note_on_c, 1, 62, 0
3, 3791, Note_on_c, 1, 65, 0
3, 3791, Note_on_c, 1, 67, 0
3, 3840, Note_on_c, 1, 57, 80
3, 3840, Note_on_c, 1, 60, 80
3, 3840, Note_on_c, 1, 64, 80
3, 3840, Note_on_c, 1, 67, 80
3, 4751, Note_on_c, 1, 57, 0
3, 4751, Note_on_c, 1, 60, 0
3, 4751, Note_on_c, 1, 64, 0
3, 4751, Note_on_c, 1, 67, 0
3, 4800, Note_on_c, 1, 58, 80
3, 4800, Note_on_c, 1, 62, 80
3, 4800, Note_on_c, 1, 65, 80
3, 4800, Note_on_c, 1, 68, 80
3, 5255, Note_on_c, 1, 58, 0
3, 5255, Note_on_c, 1, 62, 0
3, 5255, Note_on_c, 1, 65, 0
3, 5255, Note_on_c, 1, 68, 0
3, 5280, Note_on_c, 1, 57, 80
3, 5280, Note_on_c, 1, 59, 80
3, 5280, Note_on_c, 1, 63, 80
3, 5280, Note_on_c, 1, 66, 80
3, 5735, Note_on_c, 1, 57, 0
3, 5735, Note_on_c, 1, 59, 0
3, 5735, Note_on_c, 1, 63, 0
3, 5735, Note_on_c, 1, 66, 0
3, 5760, Note_on_c, 1, 58, 80
3, 5760, Note_on_c, 1, 60, 80
3, 5760, Note_on_c, 1, 64, 80
3, 5760, Note_on_c, 1, 67, 80
3, 7583, Note_on_c, 1, 58, 0
3, 7583, Note_on_c, 1, 60, 0
3, 7583, Note_on_c, 1, 64, 0
3, 7583, Note_on_c, 1, 67, 0
3, 7584, End_track
4, 0, Start_track
4, 0, Title_t, "Piano, Piano, Piano\000"
4, 0, Program_c, 2, 0
4, 0, Note_on_c, 2, 38, 80
4, 911, Note_on_c, 2, 38, 0
4, 960, Note_on_c, 2, 39, 80
4, 1871, Note_on_c, 2, 39, 0
4, 1920, Note_on_c, 2, 38, 80
4, 2831, Note_on_c, 2, 38, 0
4, 2880, Note_on_c, 2, 43, 80
4, 3791, Note_on_c, 2, 43, 0
4, 3840, Note_on_c, 2, 36, 80
4, 4751, Note_on_c, 2, 36, 0
4, 4800, Note_on_c, 2, 34, 80
4, 5255, Note_on_c, 2, 34, 0
4, 5280, Note_on_c, 2, 35, 80
4, 5735, Note_on_c, 2, 35, 0
4, 5760, Note_on_c, 2, 36, 80
4, 7583, Note_on_c, 2, 36, 0
4, 7584, End_track
0, 0, End_of_file
