0, 0, Header, 1, 4, 480
1, 0, Start_track
1, 0, Tempo, 500000
1, 0, Time_signature, 4, 2, 24, 8
1, 0, Key_signature, -1, "major"
1, 0, Key_signature, -1, "major"
1, 0, Key_signature, -1, "major"
1, 1, End_track
2, 0, Start_track
2, 0, Title_t, "Piano, Piano, Piano\000"
2, 0, Program_c, 0, 0
2, 0, Control_c, 0, 7, 100
2, 0, Control_c, 0, 10, 64
2, 0, Control_c, 0, 91, 0
2, 0, Note_on_c, 0, 52, 80
2, 227, Note_on_c, 0, 52, 0
2, 240, Note_on_c, 0, 59, 80
2, 467, Note_on_c, 0, 59, 0
2, 480, Note_on_c, 0, 60, 80
2, 1619, Note_on_c, 0, 60, 0
2, 1680, Note_on_c, 0, 52, 80
2, 1907, Note_on_c, 0, 52, 0
2, 1920, Note_on_c, 0, 53, 80
2, 2147, Note_on_c, 0, 53, 0
2, 2160, Note_on_c, 0, 59, 80
2, 2387, Note_on_c, 0, 59, 0
2, 2400, Note_on_c, 0, 60, 80
2, 3539, Note_on_c, 0, 60, 0
2, 3600, Note_on_c, 0, 53, 80
2, 3827, Note_on_c, 0, 53, 0
2, 3840, Note_on_c, 0, 55, 80
2, 4067, Note_on_c, 0, 55, 0
2, 4080, Note_on_c, 0, 59, 80
2, 4307, Note_on_c, 0, 59, 0
2, 4320, Note_on_c, 0, 60, 80
2, 4775, Note_on_c, 0, 60, 0
2, 4800, Note_on_c, 0, 56, 80
2, 5027, Note_on_c, 0, 56, 0
2, 5040, Note_on_c, 0, 59, 80
2, 5267, Note_on_c, 0, 59, 0
2, 5280, Note_on_c, 0, 60, 80
2, 5735, Note_on_c, 0, 60, 0
2, 5760, Note_on_c, 0, 57, 80
2, 5987, Note_on_c, 0, 57, 0
2, 6000, Note_on_c, 0, 59, 80
2, 6227, Note_on_c, 0, 59, 0
2, 6240, Note_on_c, 0, 60, 80
2, 7379, Note_on_c, 0, 60, 0
2, 7440, Note_on_c, 0, 59, 80
2, 7667, Note_on_c, 0, 59, 0
2, 7668, End_track
3, 0, Start_track
3, 0, Title_t, "Piano, Piano\000"
3, 0, Program_c, 1, 0
3, 0, Control_c, 1, 7, 100
3, 0, Control_c, 1, 10, 64
3, 0, Control_c, 1, 91, 0
3, 0, Note_on_c, 1, 55, 80
3, 0, Note_on_c, 1, 59, 80
3, 0, Note_on_c, 1, 60, 80
3, 0, Note_on_c, 1, 64, 80
3, 1823, Note_on_c, 1, 55, 0
3, 1823, Note_on_c, 1, 59, 0
3, 1823, Note_on_c, 1, 60, 0
3, 1823, Note_on_c, 1, 64, 0
3, 1920, Note_on_c, 1, 57, 80
3, 1920, Note_on_c, 1, 60, 80
3, 1920, Note_on_c, 1, 62, 80
3, 1920, Note_on_c, 1, 65, 80
3, 3743, Note_on_c, 1, 57, 0
3, 3743, Note_on_c, 1, 60, 0
3, 3743, Note_on_c, 1, 62, 0
3, 3743, Note_on_c, 1, 65, 0
3, 3840, Note_on_c, 1, 55, 80
3, 3840, Note_on_c, 1, 60, 80
3, 3840, Note_on_c, 1, 64, 80
3, 4751, Note_on_c, 1, 55, 0
3, 4751, Note_on_c, 1, 60, 0
3, 4751, Note_on_c, 1, 64, 0
3, 4800, Note_on_c, 1, 56, 80
3, 4800, Note_on_c, 1, 60, 80
3, 4800, Note_on_c, 1, 64, 80
3, 5711, Note_on_c, 1, 56, 0
3, 5711, Note_on_c, 1, 60, 0
3, 5711, Note_on_c, 1, 64, 0
3, 5760, Note_on_c, 1, 57, 80
3, 5760, Note_on_c, 1, 60, 80
3, 5760, Note_on_c, 1, 64, 80
3, 5760, Note_on_c, 1, 65, 80
3, 7583, Note_on_c, 1, 57, 0
3, 7583, Note_on_c, 1, 60, 0
3, 7583, Note_on_c, 1, 64, 0
3, 7583, Note_on_c, 1, 65, 0
3, 7584, End_track
4, 0, Start_track
4, 0, Title_t, "Piano, Piano\000"
4, 0, Program_c, 2, 0
4, 0, Note_on_c, 2, 36, 80
4, 1823, Note_on_c, 2, 36, 0
4, 1920, Note_on_c, 2, 38, 80
4, 3743, Note_on_c, 2, 38, 0
4, 3840, Note_on_c, 2, 36, 80
4, 4751, Note_on_c, 2, 36, 0
4, 4800, Note_on_c, 2, 40, 80
4, 5711, Note_on_c, 2, 40, 0
4, 5760, Note_on_c, 2, 41, 80
4, 7583, Note_on_c, 2, 41, 0
4, 7584, End_track
0, 0, End_of_file
