0, 0, Header, 1, 4, 480
1, 0, Start_track
1, 0, Tempo, 500000
1, 0, Time_signature, 4, 2, 24, 8
1, 0, Key_signature, -1, "major"
1, 1, End_track
2, 0, Start_track
2, 0, Title_t, "Piano, Piano, Piano\000"
2, 0, Program_c, 0, 0
2, 0, Control_c, 0, 7, 100
2, 0, Control_c, 0, 10, 64
2, 0, Control_c, 0, 91, 0
2, 0, Note_on_c, 0, 60, 80
2, 911, Note_on_c, 0, 60, 0
2, 960, Note_on_c, 0, 59, 80
2, 1187, Note_on_c, 0, 59, 0
2, 1200, Note_on_c, 0, 57, 80
2, 1655, Note_on_c, 0, 57, 0
2, 1680, Note_on_c, 0, 55, 80
2, 1793, Note_on_c, 0, 55, 0
2, 1800, Note_on_c, 0, 53, 80
2, 1913, Note_on_c, 0, 53, 0
2, 1920, Note_on_c, 0, 55, 80
2, 2375, Note_on_c, 0, 55, 0
2, 2400, Note_on_c, 0, 50, 80
2, 3311, Note_on_c, 0, 50, 0
2, 3360, Note_on_c, 0, 52, 80
2, 3815, Note_on_c, 0, 52, 0
2, 3840, Note_on_c, 0, 53, 80
2, 5663, Note_on_c, 0, 53, 0
2, 7200, Note_on_c, 0, 55, 80
2, 7655, Note_on_c, 0, 55, 0
2, 7656, End_track
3, 0, Start_track
3, 0, Title_t, "Piano, Piano\000"
3, 0, Program_c, 1, 0
3, 0, Control_c, 1, 7, 100
3, 0, Control_c, 1, 10, 64
3, 0, Control_c, 1, 91, 0
3, 0, Note_on_c, 1, 55, 80
3, 0, Note_on_c, 1, 60, 80
3, 0, Note_on_c, 1, 64, 80
3, 911, Note_on_c, 1, 55, 0
3, 911, Note_on_c, 1, 60, 0
3, 911, Note_on_c, 1, 64, 0
3, 960, Note_on_c, 1, 55, 80
3, 960, Note_on_c, 1, 57, 80
3, 960, Note_on_c, 1, 61, 80
3, 960, Note_on_c, 1, 64, 80
3, 1871, Note_on_c, 1, 55, 0
3, 1871, Note_on_c, 1, 57, 0
3, 1871, Note_on_c, 1, 61, 0
3, 1871, Note_on_c, 1, 64, 0
3, 1920, Note_on_c, 1, 57, 80
3, 1920, Note_on_c, 1, 60, 80
3, 1920, Note_on_c, 1, 62, 80
3, 1920, Note_on_c, 1, 65, 80
3, 2831, Note_on_c, 1, 57, 0
3, 2831, Note_on_c, 1, 60, 0
3, 2831, Note_on_c, 1, 62, 0
3, 2831, Note_on_c, 1, 65, 0
3, 2880, Note_on_c, 1, 55, 80
3, 2880, Note_on_c, 1, 59, 80
3, 2880, Note_on_c, 1, 62, 80
3, 2880, Note_on_c, 1, 65, 80
3, 3791, Note_on_c, 1, 55, 0
3, 3791, Note_on_c, 1, 59, 0
3, 3791, Note_on_c, 1, 62, 0
3, 3791, Note_on_c, 1, 65, 0
3, 3840, Note_on_c, 1, 57, 80
3, 3840, Note_on_c, 1, 60, 80
3, 3840, Note_on_c, 1, 62, 80
3, 3840, Note_on_c, 1, 65, 80
3, 4751, Note_on_c, 1, 57, 0
3, 4751, Note_on_c, 1, 60, 0
3, 4751, Note_on_c, 1, 62, 0
3, 4751, Note_on_c, 1, 65, 0
3, 4800, Note_on_c, 1, 57, 80
3, 4800, Note_on_c, 1, 61, 80
3, 4800, Note_on_c, 1, 65, 80
3, 5711, Note_on_c, 1, 57, 0
3, 5711, Note_on_c, 1, 61, 0
3, 5711, Note_on_c, 1, 65, 0
3, 5760, Note_on_c, 1, 57, 80
3, 5760, Note_on_c, 1, 60, 80
3, 5760, Note_on_c, 1, 62, 80
3, 5760, Note_on_c, 1, 65, 80
3, 6671, Note_on_c, 1, 57, 0
3, 6671, Note_on_c, 1, 60, 0
3, 6671, Note_on_c, 1, 62, 0
3, 6671, Note_on_c, 1, 65, 0
3, 6720, Note_on_c, 1, 55, 80
3, 6720, Note_on_c, 1, 59, 80
3, 6720, Note_on_c, 1, 62, 80
3, 6720, Note_on_c, 1, 65, 80
3, 7631, Note_on_c, 1, 55, 0
3, 7631, Note_on_c, 1, 59, 0
3, 7631, Note_on_c, 1, 62, 0
3, 7631, Note_on_c, 1, 65, 0
3, 7632, End_track
4, 0, Start_track
4, 0, Title_t, "Piano, Piano\000"
4, 0, Program_c, 2, 0
4, 0, Note_on_c, 2, 36, 80
4, 911, Note_on_c, 2, 36, 0
4, 960, Note_on_c, 2, 33, 80
4, 1871, Note_on_c, 2, 33, 0
4, 1920, Note_on_c, 2, 38, 80
4, 2831, Note_on_c, 2, 38, 0
4, 2880, Note_on_c, 2, 31, 80
4, 3791, Note_on_c, 2, 31, 0
4, 3840, Note_on_c, 2, 38, 80
4, 4751, Note_on_c, 2, 38, 0
4, 4800, Note_on_c, 2, 33, 80
4, 5711, Note_on_c, 2, 33, 0
4, 5760, Note_on_c, 2, 38, 80
4, 6671, Note_on_c, 2, 38, 0
4, 6720, Note_on_c, 2, 31, 80
4, 7631, Note_on_c, 2, 31, 0
4, 7632, End_track
0, 0, End_of_file
