0, 0, Header, 1, 4, 480
1, 0, Start_track
1, 0, Tempo, 500000
1, 0, Time_signature, 4, 2, 24, 8
1, 0, Key_signature, -5, "major"
1, 1, End_track
2, 0, Start_track
2, 0, Title_t, "Piano, Piano, Piano, Melody\000"
2, 0, Program_c, 0, 0
2, 0, Control_c, 0, 7, 100
2, 0, Control_c, 0, 10, 64
2, 0, Control_c, 0, 91, 0
2, 480, Note_on_c, 0, 72, 80
2, 935, Note_on_c, 0, 72, 0
2, 960, Note_on_c, 0, 69, 80
2, 1187, Note_on_c, 0, 69, 0
2, 1200, Note_on_c, 0, 65, 80
2, 1655, Note_on_c, 0, 65, 0
2, 1680, Note_on_c, 0, 57, 80
2, 1907, Note_on_c, 0, 57, 0
2, 1920, Note_on_c, 0, 64, 80
2, 2831, Note_on_c, 0, 64, 0
2, 2880, Note_on_c, 0, 62, 80
2, 3791, Note_on_c, 0, 62, 0
2, 4080, Note_on_c, 0, 60, 80
2, 4307, Note_on_c, 0, 60, 0
2, 4320, Note_on_c, 0, 62, 80
2, 4661, Note_on_c, 0, 62, 0
2, 4680, Note_on_c, 0, 64, 80
2, 4793, Note_on_c, 0, 64, 0
2, 4800, Note_on_c, 0, 67, 80
2, 5255, Note_on_c, 0, 67, 0
2, 5280, Note_on_c, 0, 67, 80
2, 5431, Note_on_c, 0, 67, 0
2, 5440, Note_on_c, 0, 69, 80
2, 5591, Note_on_c, 0, 69, 0
2, 5600, Note_on_c, 0, 63, 80
2, 5751, Note_on_c, 0, 63, 0
2, 5760, Note_on_c, 0, 60, 80
2, 6671, Note_on_c, 0, 60, 0
2, 6672, End_track
3, 0, Start_track
3, 0, Title_t, "Piano, Piano, Piano\000"
3, 0, Program_c, 1, 0
3, 0, Control_c, 1, 7, 100
3, 0, Control_c, 1, 10, 64
3, 0, Control_c, 1, 91, 0
3, 0, Note_on_c, 1, 60, 80
3, 0, Note_on_c, 1, 62, 80
3, 0, Note_on_c, 1, 65, 80
3, 0, Note_on_c, 1, 69, 80
3, 1823, Note_on_c, 1, 60, 0
3, 1823, Note_on_c, 1, 62, 0
3, 1823, Note_on_c, 1, 65, 0
3, 1823, Note_on_c, 1, 69, 0
3, 1920, Note_on_c, 1, 59, 80
3, 1920, Note_on_c, 1, 62, 80
3, 1920, Note_on_c, 1, 65, 80
3, 1920, Note_on_c, 1, 69, 80
3, 2831, Note_on_c, 1, 59, 0
3, 2831, Note_on_c, 1, 62, 0
3, 2831, Note_on_c, 1, 65, 0
3, 2831, Note_on_c, 1, 69, 0
3, 2880, Note_on_c, 1, 59, 80
3, 2880, Note_on_c, 1, 62, 80
3, 2880, Note_on_c, 1, 64, 80
3, 2880, Note_on_c, 1, 68, 80
3, 3791, Note_on_c, 1, 59, 0
3, 3791, Note_on_c, 1, 62, 0
3, 3791, Note_on_c, 1, 64, 0
3, 3791, Note_on_c, 1, 68, 0
3, 3840, Note_on_c, 1, 60, 80
3, 3840, Note_on_c, 1, 64, 80
3, 3840, Note_on_c, 1, 67, 80
3, 3840, Note_on_c, 1, 69, 80
3, 4751, Note_on_c, 1, 60, 0
3, 4751, Note_on_c, 1, 64, 0
3, 4751, Note_on_c, 1, 67, 0
3, 4751, Note_on_c, 1, 69, 0
3, 4800, Note_on_c, 1, 60, 80
3, 4800, Note_on_c, 1, 62, 80
3, 4800, Note_on_c, 1, 65, 80
3, 4800, Note_on_c, 1, 69, 80
3, 5255, Note_on_c, 1, 60, 0
3, 5255, Note_on_c, 1, 62, 0
3, 5255, Note_on_c, 1, 65, 0
3, 5255, Note_on_c, 1, 69, 0
3, 5280, Note_on_c, 1, 59, 80
3, 5280, Note_on_c, 1, 62, 80
3, 5280, Note_on_c, 1, 65, 80
3, 5280, Note_on_c, 1, 67, 80
3, 5735, Note_on_c, 1, 59, 0
3, 5735, Note_on_c, 1, 62, 0
3, 5735, Note_on_c, 1, 65, 0
3, 5735, Note_on_c, 1, 67, 0
3, 5760, Note_on_c, 1, 60, 80
3, 5760, Note_on_c, 1, 64, 80
3, 5760, Note_on_c, 1, 67, 80
3, 5760, Note_on_c, 1, 69, 80
3, 6671, Note_on_c, 1, 60, 0
3, 6671, Note_on_c, 1, 64, 0
3, 6671, Note_on_c, 1, 67, 0
3, 6671, Note_on_c, 1, 69, 0
3, 6720, Note_on_c, 1, 61, 80
3, 6720, Note_on_c, 1, 64, 80
3, 6720, Note_on_c, 1, 67, 80
3, 6720, Note_on_c, 1, 69, 80
3, 6720, Note_on_c, 1, 70, 80
3, 7631, Note_on_c, 1, 61, 0
3, 7631, Note_on_c, 1, 64, 0
3, 7631, Note_on_c, 1, 67, 0
3, 7631, Note_on_c, 1, 69, 0
3, 7631, Note_on_c, 1, 70, 0
3, 7632, End_track
4, 0, Start_track
4, 0, Title_t, "Piano, Piano, Piano\000"
4, 0, Program_c, 2, 0
4, 0, Note_on_c, 2, 38, 80
4, 1823, Note_on_c, 2, 38, 0
4, 1920, Note_on_c, 2, 35, 80
4, 2831, Note_on_c, 2, 35, 0
4, 2880, Note_on_c, 2, 40, 80
4, 3791, Note_on_c, 2, 40, 0
4, 3840, Note_on_c, 2, 45, 80
4, 4751, Note_on_c, 2, 45, 0
4, 4800, Note_on_c, 2, 38, 80
4, 5255, Note_on_c, 2, 38, 0
4, 5280, Note_on_c, 2, 43, 80
4, 5735, Note_on_c, 2, 43, 0
4, 5760, Note_on_c, 2, 36, 80
4, 6671, Note_on_c, 2, 36, 0
4, 6720, Note_on_c, 2, 45, 80
4, 7631, Note_on_c, 2, 45, 0
4, 7632, End_track
0, 0, End_of_file
