0, 0, Header, 1, 3, 480
1, 0, Start_track
1, 0, Title_t, "Piano, Piano, Piano, Piano"
1, 0, Time_signature, 4, 2, 24, 8
1, 0, Key_signature, 0, "major"
1, 0, Tempo, 500000
1, 0, Control_c, 0, 121, 0
1, 0, Program_c, 0, 0
1, 0, Control_c, 0, 7, 100
1, 0, Control_c, 0, 10, 64
1, 0, Control_c, 0, 91, 0
1, 0, Control_c, 0, 93, 0
1, 0, MIDI_port, 0
1, 0, Note_on_c, 0, 68, 80
1, 1025, Note_on_c, 0, 68, 0
1, 1200, Note_on_c, 0, 66, 80
1, 1655, Note_on_c, 0, 66, 0
1, 1680, Note_on_c, 0, 68, 80
1, 1793, Note_on_c, 0, 68, 0
1, 1800, Note_on_c, 0, 66, 80
1, 1913, Note_on_c, 0, 66, 0
1, 1920, Note_on_c, 0, 59, 80
1, 2147, Note_on_c, 0, 59, 0
1, 2160, Note_on_c, 0, 59, 80
1, 3185, Note_on_c, 0, 59, 0
1, 3600, Note_on_c, 0, 61, 80
1, 3827, Note_on_c, 0, 61, 0
1, 3840, Note_on_c, 0, 62, 80
1, 4181, Note_on_c, 0, 62, 0
1, 4200, Note_on_c, 0, 62, 80
1, 4313, Note_on_c, 0, 62, 0
1, 4320, Note_on_c, 0, 62, 80
1, 4547, Note_on_c, 0, 62, 0
1, 4560, Note_on_c, 0, 62, 80
1, 5243, Note_on_c, 0, 62, 0
1, 5280, Note_on_c, 0, 62, 80
1, 5507, Note_on_c, 0, 62, 0
1, 5520, Note_on_c, 0, 64, 80
1, 7571, Note_on_c, 0, 64, 0
1, 7572, End_track
2, 0, Start_track
2, 0, Title_t, "Piano, Piano, Piano"
2, 0, Key_signature, 0, "major"
2, 0, Control_c, 1, 121, 0
2, 0, Program_c, 1, 0
2, 0, Control_c, 1, 7, 100
2, 0, Control_c, 1, 10, 64
2, 0, Control_c, 1, 91, 0
2, 0, Control_c, 1, 93, 0
2, 0, MIDI_port, 0
2, 0, Note_on_c, 1, 57, 80
2, 0, Note_on_c, 1, 61, 80
2, 0, Note_on_c, 1, 64, 80
2, 0, Note_on_c, 1, 66, 80
2, 911, Note_on_c, 1, 57, 0
2, 911, Note_on_c, 1, 61, 0
2, 911, Note_on_c, 1, 64, 0
2, 911, Note_on_c, 1, 66, 0
2, 960, Note_on_c, 1, 57, 80
2, 960, Note_on_c, 1, 59, 80
2, 960, Note_on_c, 1, 61, 80
2, 960, Note_on_c, 1, 63, 80
2, 960, Note_on_c, 1, 64, 80
2, 960, Note_on_c, 1, 66, 80
2, 960, Note_on_c, 1, 68, 80
2, 1871, Note_on_c, 1, 57, 0
2, 1871, Note_on_c, 1, 59, 0
2, 1871, Note_on_c, 1, 61, 0
2, 1871, Note_on_c, 1, 63, 0
2, 1871, Note_on_c, 1, 64, 0
2, 1871, Note_on_c, 1, 66, 0
2, 1871, Note_on_c, 1, 68, 0
2, 1920, Note_on_c, 1, 59, 80
2, 1920, Note_on_c, 1, 63, 80
2, 1920, Note_on_c, 1, 64, 80
2, 1920, Note_on_c, 1, 68, 80
2, 2831, Note_on_c, 1, 59, 0
2, 2831, Note_on_c, 1, 63, 0
2, 2831, Note_on_c, 1, 64, 0
2, 2831, Note_on_c, 1, 68, 0
2, 2880, Note_on_c, 1, 57, 80
2, 2880, Note_on_c, 1, 61, 80
2, 2880, Note_on_c, 1, 64, 80
2, 2880, Note_on_c, 1, 68, 80
2, 3791, Note_on_c, 1, 57, 0
2, 3791, Note_on_c, 1, 61, 0
2, 3791, Note_on_c, 1, 64, 0
2, 3791, Note_on_c, 1, 68, 0
2, 3840, Note_on_c, 1, 58, 80
2, 3840, Note_on_c, 1, 61, 80
2, 3840, Note_on_c, 1, 65, 80
2, 3840, Note_on_c, 1, 68, 80
2, 4751, Note_on_c, 1, 58, 0
2, 4751, Note_on_c, 1, 61, 0
2, 4751, Note_on_c, 1, 65, 0
2, 4751, Note_on_c, 1, 68, 0
2, 4800, Note_on_c, 1, 63, 80
2, 4800, Note_on_c, 1, 67, 80
2, 4800, Note_on_c, 1, 70, 80
2, 4800, Note_on_c, 1, 73, 80
2, 5711, Note_on_c, 1, 63, 0
2, 5711, Note_on_c, 1, 67, 0
2, 5711, Note_on_c, 1, 70, 0
2, 5711, Note_on_c, 1, 73, 0
2, 5760, Note_on_c, 1, 59, 80
2, 5760, Note_on_c, 1, 62, 80
2, 5760, Note_on_c, 1, 66, 80
2, 5760, Note_on_c, 1, 69, 80
2, 6671, Note_on_c, 1, 59, 0
2, 6671, Note_on_c, 1, 62, 0
2, 6671, Note_on_c, 1, 66, 0
2, 6671, Note_on_c, 1, 69, 0
2, 6720, Note_on_c, 1, 59, 80
2, 6720, Note_on_c, 1, 64, 80
2, 6720, Note_on_c, 1, 68, 80
2, 6720, Note_on_c, 1, 71, 80
2, 7631, Note_on_c, 1, 59, 0
2, 7631, Note_on_c, 1, 64, 0
2, 7631, Note_on_c, 1, 68, 0
2, 7631, Note_on_c, 1, 71, 0
2, 7632, End_track
3, 0, Start_track
3, 0, Title_t, "Piano, Piano, Piano"
3, 0, Key_signature, 0, "major"
3, 0, Control_c, 2, 121, 0
3, 0, Program_c, 2, 0
3, 0, Control_c, 2, 7, 100
3, 0, Control_c, 2, 10, 64
3, 0, Control_c, 2, 91, 0
3, 0, Control_c, 2, 93, 0
3, 0, MIDI_port, 0
3, 0, Note_on_c, 2, 42, 80
3, 911, Note_on_c, 2, 42, 0
3, 960, Note_on_c, 2, 35, 80
3, 1871, Note_on_c, 2, 35, 0
3, 1920, Note_on_c, 2, 40, 80
3, 2831, Note_on_c, 2, 40, 0
3, 2880, Note_on_c, 2, 33, 80
3, 3791, Note_on_c, 2, 33, 0
3, 3840, Note_on_c, 2, 46, 80
3, 4751, Note_on_c, 2, 46, 0
3, 4800, Note_on_c, 2, 39, 80
3, 5711, Note_on_c, 2, 39, 0
3, 5760, Note_on_c, 2, 35, 80
3, 6671, Note_on_c, 2, 35, 0
3, 6720, Note_on_c, 2, 40, 80
3, 7631, Note_on_c, 2, 40, 0
3, 7632, End_track
0, 0, End_of_file
