0, 0, Header, 1, 4, 480
1, 0, Start_track
1, 0, Tempo, 500000
1, 0, Time_signature, 4, 2, 24, 8
1, 0, Key_signature, -3, "major"
1, 1, End_track
2, 0, Start_track
2, 0, Title_t, "Piano, Piano, Piano\000"
2, 0, Program_c, 0, 0
2, 0, Control_c, 0, 7, 100
2, 0, Control_c, 0, 10, 64
2, 0, Control_c, 0, 91, 0
2, 0, Note_on_c, 0, 72, 80
2, 303, Note_on_c, 0, 72, 0
2, 320, Note_on_c, 0, 72, 80
2, 623, Note_on_c, 0, 72, 0
2, 640, Note_on_c, 0, 72, 80
2, 943, Note_on_c, 0, 72, 0
2, 960, Note_on_c, 0, 69, 80
2, 1415, Note_on_c, 0, 69, 0
2, 1440, Note_on_c, 0, 71, 80
2, 2807, Note_on_c, 0, 71, 0
2, 2880, Note_on_c, 0, 72, 80
2, 3791, Note_on_c, 0, 72, 0
2, 3840, Note_on_c, 0, 76, 80
2, 7487, Note_on_c, 0, 76, 0
2, 7488, End_track
3, 0, Start_track
3, 0, Title_t, "Piano, Piano\000"
3, 0, Program_c, 1, 0
3, 0, Control_c, 1, 7, 100
3, 0, Control_c, 1, 10, 64
3, 0, Control_c, 1, 91, 0
3, 0, Note_on_c, 1, 57, 80
3, 0, Note_on_c, 1, 60, 80
3, 0, Note_on_c, 1, 64, 80
3, 0, Note_on_c, 1, 66, 80
3, 1823, Note_on_c, 1, 57, 0
3, 1823, Note_on_c, 1, 60, 0
3, 1823, Note_on_c, 1, 64, 0
3, 1823, Note_on_c, 1, 66, 0
3, 1920, Note_on_c, 1, 55, 80
3, 1920, Note_on_c, 1, 57, 80
3, 1920, Note_on_c, 1, 59, 80
3, 1920, Note_on_c, 1, 63, 80
3, 3743, Note_on_c, 1, 55, 0
3, 3743, Note_on_c, 1, 57, 0
3, 3743, Note_on_c, 1, 59, 0
3, 3743, Note_on_c, 1, 63, 0
3, 3840, Note_on_c, 1, 57, 80
3, 3840, Note_on_c, 1, 59, 80
3, 3840, Note_on_c, 1, 62, 80
3, 3840, Note_on_c, 1, 66, 80
3, 4751, Note_on_c, 1, 57, 0
3, 4751, Note_on_c, 1, 59, 0
3, 4751, Note_on_c, 1, 62, 0
3, 4751, Note_on_c, 1, 66, 0
3, 4800, Note_on_c, 1, 56, 80
3, 4800, Note_on_c, 1, 59, 80
3, 4800, Note_on_c, 1, 62, 80
3, 4800, Note_on_c, 1, 64, 80
3, 5711, Note_on_c, 1, 56, 0
3, 5711, Note_on_c, 1, 59, 0
3, 5711, Note_on_c, 1, 62, 0
3, 5711, Note_on_c, 1, 64, 0
3, 5760, Note_on_c, 1, 55, 80
3, 5760, Note_on_c, 1, 58, 80
3, 5760, Note_on_c, 1, 62, 80
3, 5760, Note_on_c, 1, 64, 80
3, 6671, Note_on_c, 1, 55, 0
3, 6671, Note_on_c, 1, 58, 0
3, 6671, Note_on_c, 1, 62, 0
3, 6671, Note_on_c, 1, 64, 0
3, 6720, Note_on_c, 1, 55, 80
3, 6720, Note_on_c, 1, 57, 80
3, 6720, Note_on_c, 1, 61, 80
3, 6720, Note_on_c, 1, 64, 80
3, 7631, Note_on_c, 1, 55, 0
3, 7631, Note_on_c, 1, 57, 0
3, 7631, Note_on_c, 1, 61, 0
3, 7631, Note_on_c, 1, 64, 0
3, 7632, End_track
4, 0, Start_track
4, 0, Title_t, "Piano, Piano\000"
4, 0, Program_c, 2, 0
4, 0, Note_on_c, 2, 54, 80
4, 1823, Note_on_c, 2, 54, 0
4, 1920, Note_on_c, 2, 47, 80
4, 3743, Note_on_c, 2, 47, 0
4, 3840, Note_on_c, 2, 47, 80
4, 4751, Note_on_c, 2, 47, 0
4, 4800, Note_on_c, 2, 52, 80
4, 5711, Note_on_c, 2, 52, 0
4, 5760, Note_on_c, 2, 52, 80
4, 6671, Note_on_c, 2, 52, 0
4, 6720, Note_on_c, 2, 45, 80
4, 7631, Note_on_c, 2, 45, 0
4, 7632, End_track
0, 0, End_of_file
